<?xml version="1.0" encoding="UTF-8" standalone="no"?>
<!DOCTYPE svg PUBLIC "-//W3C//DTD SVG 1.1//EN"
 "http://www.w3.org/Graphics/SVG/1.1/DTD/svg11.dtd">
<!-- Generated by graphviz version 2.38.0 (20140413.2041)
 -->
<!-- Title: View/actionscenebigexplosion.hh Pages: 1 -->
<!--zoomable 196 -->
<svg id="main" version="1.1" xmlns="http://www.w3.org/2000/svg" xmlns:xlink="http://www.w3.org/1999/xlink" xml:space="preserve" onload="init(evt)">
<style type="text/css"><![CDATA[
.edge:hover path { stroke: red; }
.edge:hover polygon { stroke: red; fill: red; }
]]></style>
<script type="text/javascript"><![CDATA[
var edges = document.getElementsByTagName('g');
if (edges && edges.length) {
  for (var i=0;i<edges.length;i++) {
    if (edges[i].id.substr(0,4)=='edge') {
      edges[i].setAttribute('class','edge');
    }
  }
}
]]></script>
        <defs>
                <circle id="rim" cx="0" cy="0" r="7"/>
                <circle id="rim2" cx="0" cy="0" r="3.5"/>
                <g id="zoomPlus">
                        <use xlink:href="#rim" fill="#404040">
                                <set attributeName="fill" to="#808080" begin="zoomplus.mouseover" end="zoomplus.mouseout"/>
                        </use>
                        <path d="M-4,0h8M0,-4v8" fill="none" stroke="white" stroke-width="1.5" pointer-events="none"/>
                </g>
                <g id="zoomMin">
                        <use xlink:href="#rim" fill="#404040">
                                <set attributeName="fill" to="#808080" begin="zoomminus.mouseover" end="zoomminus.mouseout"/>
                        </use>
                        <path d="M-4,0h8" fill="none" stroke="white" stroke-width="1.5" pointer-events="none"/>
                </g>
                <g id="dirArrow">
                        <path fill="none" stroke="white" stroke-width="1.5" d="M0,-3.0v7 M-2.5,-0.5L0,-3.0L2.5,-0.5"/>
                </g>
               <g id="resetDef">
                       <use xlink:href="#rim2" fill="#404040">
                               <set attributeName="fill" to="#808080" begin="reset.mouseover" end="reset.mouseout"/>
                       </use>
               </g>
        </defs>

<script type="text/javascript">
var viewWidth = 690;
var viewHeight = 196;
var sectionId = 'dynsection-0';
</script>
<script xlink:href="svgpan.js"/>
<svg id="graph" class="graph">
<g id="viewport">
<title>View/actionscenebigexplosion.hh</title>
<polygon fill="white" stroke="none" points="-4,4 -4,-192 685.85,-192 685.85,4 -4,4"/>
<!-- Node0 -->
<g id="node1" class="node"><title>Node0</title>
<polygon fill="#bfbfbf" stroke="black" points="362.593,-168.5 362.593,-187.5 523.593,-187.5 523.593,-168.5 362.593,-168.5"/>
<text text-anchor="middle" x="443.093" y="-175.5" font-family="Helvetica,sans-Serif" font-size="10.00">View/actionscenebigexplosion.hh</text>
</g>
<!-- Node1 -->
<g id="node2" class="node"><title>Node1</title>
<g id="a_node2"><a xlink:href="actionscenenpc_8hh.html" target="_top" xlink:title="actionscenenpc.hh">
<polygon fill="white" stroke="black" points="335.093,-112.5 335.093,-131.5 433.093,-131.5 433.093,-112.5 335.093,-112.5"/>
<text text-anchor="middle" x="384.093" y="-119.5" font-family="Helvetica,sans-Serif" font-size="10.00">actionscenenpc.hh</text>
</a>
</g>
</g>
<!-- Node0&#45;&gt;Node1 -->
<g id="edge1" class="edge"><title>Node0&#45;&gt;Node1</title>
<path fill="none" stroke="midnightblue" d="M433.614,-168.324C424.892,-160.341 411.75,-148.313 401.195,-138.653"/>
<polygon fill="midnightblue" stroke="midnightblue" points="403.485,-136.004 393.745,-131.834 398.759,-141.167 403.485,-136.004"/>
</g>
<!-- Node3 -->
<g id="node4" class="node"><title>Node3</title>
<polygon fill="white" stroke="#bfbfbf" points="77.5932,-0.5 77.5932,-19.5 192.593,-19.5 192.593,-0.5 77.5932,-0.5"/>
<text text-anchor="middle" x="135.093" y="-7.5" font-family="Helvetica,sans-Serif" font-size="10.00">QGraphicsPixmapItem</text>
</g>
<!-- Node0&#45;&gt;Node3 -->
<g id="edge13" class="edge"><title>Node0&#45;&gt;Node3</title>
<path fill="none" stroke="midnightblue" d="M362.164,-170.335C248.003,-159.036 48.782,-131.702 6.09324,-76 -15.4437,-47.8978 26.0085,-31.0225 67.5243,-21.5382"/>
<polygon fill="midnightblue" stroke="midnightblue" points="68.4373,-24.922 77.478,-19.3977 66.9656,-18.0784 68.4373,-24.922"/>
</g>
<!-- Node4 -->
<g id="node5" class="node"><title>Node4</title>
<polygon fill="white" stroke="#bfbfbf" points="476.593,-0.5 476.593,-19.5 561.593,-19.5 561.593,-0.5 476.593,-0.5"/>
<text text-anchor="middle" x="519.093" y="-7.5" font-family="Helvetica,sans-Serif" font-size="10.00">QPixmapCache</text>
</g>
<!-- Node0&#45;&gt;Node4 -->
<g id="edge14" class="edge"><title>Node0&#45;&gt;Node4</title>
<path fill="none" stroke="midnightblue" d="M509.706,-168.497C565.025,-157.497 640.245,-132.489 676.093,-76 702.581,-34.261 627.124,-19.3142 571.833,-13.9684"/>
<polygon fill="midnightblue" stroke="midnightblue" points="572.042,-10.4733 561.773,-13.0776 571.425,-17.4461 572.042,-10.4733"/>
</g>
<!-- Node5 -->
<g id="node6" class="node"><title>Node5</title>
<polygon fill="white" stroke="#bfbfbf" points="15.5932,-56.5 15.5932,-75.5 106.593,-75.5 106.593,-56.5 15.5932,-56.5"/>
<text text-anchor="middle" x="61.0932" y="-63.5" font-family="Helvetica,sans-Serif" font-size="10.00">QGraphicsScene</text>
</g>
<!-- Node0&#45;&gt;Node5 -->
<g id="edge15" class="edge"><title>Node0&#45;&gt;Node5</title>
<path fill="none" stroke="midnightblue" d="M413.436,-168.46C345.239,-148.822 177.256,-100.45 100.501,-78.3477"/>
<polygon fill="midnightblue" stroke="midnightblue" points="101.309,-74.9384 90.7314,-75.5345 99.3724,-81.6651 101.309,-74.9384"/>
</g>
<!-- Node7 -->
<g id="node8" class="node"><title>Node7</title>
<polygon fill="white" stroke="#bfbfbf" points="547.593,-56.5 547.593,-75.5 600.593,-75.5 600.593,-56.5 547.593,-56.5"/>
<text text-anchor="middle" x="574.093" y="-63.5" font-family="Helvetica,sans-Serif" font-size="10.00">QObject</text>
</g>
<!-- Node0&#45;&gt;Node7 -->
<g id="edge16" class="edge"><title>Node0&#45;&gt;Node7</title>
<path fill="none" stroke="midnightblue" d="M453.373,-168.368C475.565,-149.733 528.205,-105.532 556.07,-82.1338"/>
<polygon fill="midnightblue" stroke="midnightblue" points="558.454,-84.7024 563.862,-75.5914 553.953,-79.3416 558.454,-84.7024"/>
</g>
<!-- Node8 -->
<g id="node9" class="node"><title>Node8</title>
<polygon fill="white" stroke="#bfbfbf" points="619.093,-56.5 619.093,-75.5 667.093,-75.5 667.093,-56.5 619.093,-56.5"/>
<text text-anchor="middle" x="643.093" y="-63.5" font-family="Helvetica,sans-Serif" font-size="10.00">QTimer</text>
</g>
<!-- Node0&#45;&gt;Node8 -->
<g id="edge17" class="edge"><title>Node0&#45;&gt;Node8</title>
<path fill="none" stroke="midnightblue" d="M458.787,-168.368C493.472,-149.292 576.871,-103.422 618.538,-80.5054"/>
<polygon fill="midnightblue" stroke="midnightblue" points="620.397,-83.4774 627.472,-75.5914 617.024,-77.3439 620.397,-83.4774"/>
</g>
<!-- Node2 -->
<g id="node3" class="node"><title>Node2</title>
<g id="a_node3"><a xlink:href="actionscenefeet_8hh.html" target="_top" xlink:title="actionscenefeet.hh">
<polygon fill="white" stroke="black" points="163.093,-56.5 163.093,-75.5 261.093,-75.5 261.093,-56.5 163.093,-56.5"/>
<text text-anchor="middle" x="212.093" y="-63.5" font-family="Helvetica,sans-Serif" font-size="10.00">actionscenefeet.hh</text>
</a>
</g>
</g>
<!-- Node1&#45;&gt;Node2 -->
<g id="edge2" class="edge"><title>Node1&#45;&gt;Node2</title>
<path fill="none" stroke="midnightblue" d="M356.839,-112.444C327.652,-103.28 281.172,-88.6876 248.784,-78.5192"/>
<polygon fill="midnightblue" stroke="midnightblue" points="249.809,-75.1726 239.22,-75.5164 247.712,-81.8512 249.809,-75.1726"/>
</g>
<!-- Node1&#45;&gt;Node3 -->
<g id="edge5" class="edge"><title>Node1&#45;&gt;Node3</title>
<path fill="none" stroke="midnightblue" d="M334.92,-117.311C275.432,-111.865 180.013,-99.658 154.093,-76 141.222,-64.2523 136.886,-44.3188 135.517,-29.6164"/>
<polygon fill="midnightblue" stroke="midnightblue" points="139.01,-29.4033 134.955,-19.6153 132.021,-29.7957 139.01,-29.4033"/>
</g>
<!-- Node1&#45;&gt;Node4 -->
<g id="edge6" class="edge"><title>Node1&#45;&gt;Node4</title>
<path fill="none" stroke="midnightblue" d="M432.975,-112.483C456.203,-106.086 482.639,-95.0177 500.093,-76 511.635,-63.4241 516.197,-44.2058 517.983,-29.9243"/>
<polygon fill="midnightblue" stroke="midnightblue" points="521.488,-30.0247 518.901,-19.7506 514.516,-29.3955 521.488,-30.0247"/>
</g>
<!-- Node1&#45;&gt;Node5 -->
<g id="edge7" class="edge"><title>Node1&#45;&gt;Node5</title>
<path fill="none" stroke="midnightblue" d="M335.036,-112.799C276.275,-102.975 178.086,-86.5591 116.602,-76.28"/>
<polygon fill="midnightblue" stroke="midnightblue" points="117.128,-72.8195 106.688,-74.6226 115.973,-79.7237 117.128,-72.8195"/>
</g>
<!-- Node6 -->
<g id="node7" class="node"><title>Node6</title>
<polygon fill="white" stroke="#bfbfbf" points="407.093,-56.5 407.093,-75.5 491.093,-75.5 491.093,-56.5 407.093,-56.5"/>
<text text-anchor="middle" x="449.093" y="-63.5" font-family="Helvetica,sans-Serif" font-size="10.00">QGraphicsView</text>
</g>
<!-- Node1&#45;&gt;Node6 -->
<g id="edge8" class="edge"><title>Node1&#45;&gt;Node6</title>
<path fill="none" stroke="midnightblue" d="M394.537,-112.324C404.239,-104.263 418.909,-92.0765 430.593,-82.3695"/>
<polygon fill="midnightblue" stroke="midnightblue" points="433.005,-84.9163 438.46,-75.8339 428.531,-79.532 433.005,-84.9163"/>
</g>
<!-- Node1&#45;&gt;Node7 -->
<g id="edge9" class="edge"><title>Node1&#45;&gt;Node7</title>
<path fill="none" stroke="midnightblue" d="M414.199,-112.444C447.628,-102.943 501.59,-87.6061 537.448,-77.415"/>
<polygon fill="midnightblue" stroke="midnightblue" points="538.838,-80.6586 547.5,-74.558 536.924,-73.9252 538.838,-80.6586"/>
</g>
<!-- Node1&#45;&gt;Node8 -->
<g id="edge10" class="edge"><title>Node1&#45;&gt;Node8</title>
<path fill="none" stroke="midnightblue" d="M431.246,-112.441C476.896,-103.95 547.976,-90.1866 609.093,-76 609.194,-75.9767 609.294,-75.9533 609.395,-75.9299"/>
<polygon fill="midnightblue" stroke="midnightblue" points="610.115,-79.3571 618.993,-73.575 608.447,-72.5587 610.115,-79.3571"/>
</g>
<!-- Node9 -->
<g id="node10" class="node"><title>Node9</title>
<polygon fill="white" stroke="#bfbfbf" points="279.093,-56.5 279.093,-75.5 319.093,-75.5 319.093,-56.5 279.093,-56.5"/>
<text text-anchor="middle" x="299.093" y="-63.5" font-family="Helvetica,sans-Serif" font-size="10.00">QList</text>
</g>
<!-- Node1&#45;&gt;Node9 -->
<g id="edge11" class="edge"><title>Node1&#45;&gt;Node9</title>
<path fill="none" stroke="midnightblue" d="M370.437,-112.324C357.177,-103.9 336.825,-90.9709 321.247,-81.0741"/>
<polygon fill="midnightblue" stroke="midnightblue" points="323.034,-78.0626 312.716,-75.6545 319.28,-83.9711 323.034,-78.0626"/>
</g>
<!-- Node10 -->
<g id="node11" class="node"><title>Node10</title>
<polygon fill="white" stroke="#bfbfbf" points="337.093,-56.5 337.093,-75.5 389.093,-75.5 389.093,-56.5 337.093,-56.5"/>
<text text-anchor="middle" x="363.093" y="-63.5" font-family="Helvetica,sans-Serif" font-size="10.00">qmath.h</text>
</g>
<!-- Node1&#45;&gt;Node10 -->
<g id="edge12" class="edge"><title>Node1&#45;&gt;Node10</title>
<path fill="none" stroke="midnightblue" d="M380.626,-112.083C377.782,-104.77 373.664,-94.1814 370.133,-85.1034"/>
<polygon fill="midnightblue" stroke="midnightblue" points="373.383,-83.8025 366.496,-75.7511 366.859,-86.3397 373.383,-83.8025"/>
</g>
<!-- Node2&#45;&gt;Node3 -->
<g id="edge3" class="edge"><title>Node2&#45;&gt;Node3</title>
<path fill="none" stroke="midnightblue" d="M199.722,-56.324C187.935,-48.0577 169.961,-35.4527 155.958,-25.6322"/>
<polygon fill="midnightblue" stroke="midnightblue" points="157.631,-22.5307 147.434,-19.6545 153.612,-28.2619 157.631,-22.5307"/>
</g>
<!-- Node2&#45;&gt;Node4 -->
<g id="edge4" class="edge"><title>Node2&#45;&gt;Node4</title>
<path fill="none" stroke="midnightblue" d="M260.738,-56.4435C316.722,-46.5963 408.349,-30.4794 466.103,-20.3207"/>
<polygon fill="midnightblue" stroke="midnightblue" points="466.882,-23.7375 476.125,-18.558 465.67,-16.8434 466.882,-23.7375"/>
</g>
</g>
</svg>
        <g id="navigator" transform="translate(0 0)" fill="#404254">
                <rect fill="#f2f5e9" fill-opacity="0.5" stroke="#606060" stroke-width=".5" x="0" y="0" width="60" height="60"/>
                <use id="zoomplus" xlink:href="#zoomPlus" x="17" y="9" onmousedown="handleZoom(evt,'in')"/>
                <use id="zoomminus" xlink:href="#zoomMin" x="42" y="9" onmousedown="handleZoom(evt,'out')"/>
                <use id="reset" xlink:href="#resetDef" x="30" y="36" onmousedown="handleReset()"/>
                <g id="arrowUp" xlink:href="#dirArrow" transform="translate(30 24)" onmousedown="handlePan(0,-1)">
                  <use xlink:href="#rim" fill="#404040">
                        <set attributeName="fill" to="#808080" begin="arrowUp.mouseover" end="arrowUp.mouseout"/>
                  </use>
                  <path fill="none" stroke="white" stroke-width="1.5" d="M0,-3.0v7 M-2.5,-0.5L0,-3.0L2.5,-0.5"/>
                </g>
                <g id="arrowRight" xlink:href="#dirArrow" transform="rotate(90) translate(36 -43)" onmousedown="handlePan(1,0)">
                  <use xlink:href="#rim" fill="#404040">
                        <set attributeName="fill" to="#808080" begin="arrowRight.mouseover" end="arrowRight.mouseout"/>
                  </use>
                  <path fill="none" stroke="white" stroke-width="1.5" d="M0,-3.0v7 M-2.5,-0.5L0,-3.0L2.5,-0.5"/>
                </g>
                <g id="arrowDown" xlink:href="#dirArrow" transform="rotate(180) translate(-30 -48)" onmousedown="handlePan(0,1)">
                  <use xlink:href="#rim" fill="#404040">
                        <set attributeName="fill" to="#808080" begin="arrowDown.mouseover" end="arrowDown.mouseout"/>
                  </use>
                  <path fill="none" stroke="white" stroke-width="1.5" d="M0,-3.0v7 M-2.5,-0.5L0,-3.0L2.5,-0.5"/>
                </g>
                <g id="arrowLeft" xlink:href="#dirArrow" transform="rotate(270) translate(-36 17)" onmousedown="handlePan(-1,0)">
                  <use xlink:href="#rim" fill="#404040">
                        <set attributeName="fill" to="#808080" begin="arrowLeft.mouseover" end="arrowLeft.mouseout"/>
                  </use>
                  <path fill="none" stroke="white" stroke-width="1.5" d="M0,-3.0v7 M-2.5,-0.5L0,-3.0L2.5,-0.5"/>
                </g>
        </g>
        <svg viewBox="0 0 15 15" width="100%" height="30px" preserveAspectRatio="xMaxYMin meet">
         <g id="arrow_out" transform="scale(0.3 0.3)">
          <a xlink:href="actionscenebigexplosion_8hh__incl_org.svg" target="_base">
           <rect id="button" ry="5" rx="5" y="6" x="6" height="38" width="38"
                fill="#f2f5e9" fill-opacity="0.5" stroke="#606060" stroke-width="1.0"/>
           <path id="arrow"
             d="M 11.500037,31.436501 C 11.940474,20.09759 22.043105,11.32322 32.158766,21.979434 L 37.068811,17.246167 C 37.068811,17.246167 37.088388,32 37.088388,32 L 22.160133,31.978069 C 22.160133,31.978069 26.997745,27.140456 26.997745,27.140456 C 18.528582,18.264221 13.291696,25.230495 11.500037,31.436501 z"
             style="fill:#404040;"/>
          </a>
         </g>
        </svg>
</svg>
