<?xml version="1.0" encoding="UTF-8" standalone="no"?>
<!DOCTYPE svg PUBLIC "-//W3C//DTD SVG 1.1//EN"
 "http://www.w3.org/Graphics/SVG/1.1/DTD/svg11.dtd">
<!-- Generated by graphviz version 2.38.0 (20140413.2041)
 -->
<!-- Title: View/actionsceneenemyprojectile.cc Pages: 1 -->
<!--zoomable 252 -->
<svg id="main" version="1.1" xmlns="http://www.w3.org/2000/svg" xmlns:xlink="http://www.w3.org/1999/xlink" xml:space="preserve" onload="init(evt)">
<style type="text/css"><![CDATA[
.edge:hover path { stroke: red; }
.edge:hover polygon { stroke: red; fill: red; }
]]></style>
<script type="text/javascript"><![CDATA[
var edges = document.getElementsByTagName('g');
if (edges && edges.length) {
  for (var i=0;i<edges.length;i++) {
    if (edges[i].id.substr(0,4)=='edge') {
      edges[i].setAttribute('class','edge');
    }
  }
}
]]></script>
        <defs>
                <circle id="rim" cx="0" cy="0" r="7"/>
                <circle id="rim2" cx="0" cy="0" r="3.5"/>
                <g id="zoomPlus">
                        <use xlink:href="#rim" fill="#404040">
                                <set attributeName="fill" to="#808080" begin="zoomplus.mouseover" end="zoomplus.mouseout"/>
                        </use>
                        <path d="M-4,0h8M0,-4v8" fill="none" stroke="white" stroke-width="1.5" pointer-events="none"/>
                </g>
                <g id="zoomMin">
                        <use xlink:href="#rim" fill="#404040">
                                <set attributeName="fill" to="#808080" begin="zoomminus.mouseover" end="zoomminus.mouseout"/>
                        </use>
                        <path d="M-4,0h8" fill="none" stroke="white" stroke-width="1.5" pointer-events="none"/>
                </g>
                <g id="dirArrow">
                        <path fill="none" stroke="white" stroke-width="1.5" d="M0,-3.0v7 M-2.5,-0.5L0,-3.0L2.5,-0.5"/>
                </g>
               <g id="resetDef">
                       <use xlink:href="#rim2" fill="#404040">
                               <set attributeName="fill" to="#808080" begin="reset.mouseover" end="reset.mouseout"/>
                       </use>
               </g>
        </defs>

<script type="text/javascript">
var viewWidth = 943;
var viewHeight = 252;
var sectionId = 'dynsection-0';
</script>
<script xlink:href="svgpan.js"/>
<svg id="graph" class="graph">
<g id="viewport">
<title>View/actionsceneenemyprojectile.cc</title>
<polygon fill="white" stroke="none" points="-4,4 -4,-248 938.552,-248 938.552,4 -4,4"/>
<!-- Node0 -->
<g id="node1" class="node"><title>Node0</title>
<polygon fill="#bfbfbf" stroke="black" points="358.052,-224.5 358.052,-243.5 533.052,-243.5 533.052,-224.5 358.052,-224.5"/>
<text text-anchor="middle" x="445.552" y="-231.5" font-family="Helvetica,sans-Serif" font-size="10.00">View/actionsceneenemyprojectile.cc</text>
</g>
<!-- Node1 -->
<g id="node2" class="node"><title>Node1</title>
<g id="a_node2"><a xlink:href="actionsceneenemyprojectile_8hh.html" target="_top" xlink:title="actionsceneenemyprojectile.hh">
<polygon fill="white" stroke="black" points="370.052,-168.5 370.052,-187.5 521.052,-187.5 521.052,-168.5 370.052,-168.5"/>
<text text-anchor="middle" x="445.552" y="-175.5" font-family="Helvetica,sans-Serif" font-size="10.00">actionsceneenemyprojectile.hh</text>
</a>
</g>
</g>
<!-- Node0&#45;&gt;Node1 -->
<g id="edge1" class="edge"><title>Node0&#45;&gt;Node1</title>
<path fill="none" stroke="midnightblue" d="M445.552,-224.083C445.552,-217.006 445.552,-206.861 445.552,-197.986"/>
<polygon fill="midnightblue" stroke="midnightblue" points="449.052,-197.751 445.552,-187.751 442.052,-197.751 449.052,-197.751"/>
</g>
<!-- Node2 -->
<g id="node3" class="node"><title>Node2</title>
<g id="a_node3"><a xlink:href="actionsceneenemyprojectileexplosion_8hh.html" target="_top" xlink:title="actionsceneenemyprojectileexplosion.hh">
<polygon fill="white" stroke="black" points="206.552,-112.5 206.552,-131.5 398.552,-131.5 398.552,-112.5 206.552,-112.5"/>
<text text-anchor="middle" x="302.552" y="-119.5" font-family="Helvetica,sans-Serif" font-size="10.00">actionsceneenemyprojectileexplosion.hh</text>
</a>
</g>
</g>
<!-- Node1&#45;&gt;Node2 -->
<g id="edge2" class="edge"><title>Node1&#45;&gt;Node2</title>
<path fill="none" stroke="midnightblue" d="M422.894,-168.444C399.15,-159.478 361.643,-145.314 334.814,-135.183"/>
<polygon fill="midnightblue" stroke="midnightblue" points="335.697,-131.775 325.105,-131.516 333.224,-138.324 335.697,-131.775"/>
</g>
<!-- Node3 -->
<g id="node4" class="node"><title>Node3</title>
<polygon fill="white" stroke="#bfbfbf" points="54.0523,-0.5 54.0523,-19.5 169.052,-19.5 169.052,-0.5 54.0523,-0.5"/>
<text text-anchor="middle" x="111.552" y="-7.5" font-family="Helvetica,sans-Serif" font-size="10.00">QGraphicsPixmapItem</text>
</g>
<!-- Node1&#45;&gt;Node3 -->
<g id="edge23" class="edge"><title>Node1&#45;&gt;Node3</title>
<path fill="none" stroke="midnightblue" d="M369.944,-174.603C251.497,-170.06 33.1903,-158.203 9.55232,-132 -24.8509,-93.8633 45.3801,-46.9023 85.7765,-24.3403"/>
<polygon fill="midnightblue" stroke="midnightblue" points="87.5031,-27.3855 94.6099,-19.5278 84.1541,-21.2386 87.5031,-27.3855"/>
</g>
<!-- Node4 -->
<g id="node5" class="node"><title>Node4</title>
<polygon fill="white" stroke="#bfbfbf" points="507.052,-0.5 507.052,-19.5 592.052,-19.5 592.052,-0.5 507.052,-0.5"/>
<text text-anchor="middle" x="549.552" y="-7.5" font-family="Helvetica,sans-Serif" font-size="10.00">QPixmapCache</text>
</g>
<!-- Node1&#45;&gt;Node4 -->
<g id="edge24" class="edge"><title>Node1&#45;&gt;Node4</title>
<path fill="none" stroke="midnightblue" d="M521.184,-168.596C624.08,-155.408 799.747,-126.05 837.552,-76 842.91,-68.9072 843.332,-62.7531 837.552,-56 807.892,-21.3453 677.192,-13.1828 602.462,-11.3861"/>
<polygon fill="midnightblue" stroke="midnightblue" points="602.376,-7.88364 592.305,-11.1728 602.229,-14.8821 602.376,-7.88364"/>
</g>
<!-- Node5 -->
<g id="node6" class="node"><title>Node5</title>
<polygon fill="white" stroke="#bfbfbf" points="178.052,-56.5 178.052,-75.5 269.052,-75.5 269.052,-56.5 178.052,-56.5"/>
<text text-anchor="middle" x="223.552" y="-63.5" font-family="Helvetica,sans-Serif" font-size="10.00">QGraphicsScene</text>
</g>
<!-- Node1&#45;&gt;Node5 -->
<g id="edge22" class="edge"><title>Node1&#45;&gt;Node5</title>
<path fill="none" stroke="midnightblue" d="M370.041,-173.648C305.339,-169.003 219.252,-157.991 197.552,-132 185.812,-117.938 196.908,-97.9036 208.02,-83.8033"/>
<polygon fill="midnightblue" stroke="midnightblue" points="210.93,-85.7843 214.737,-75.8972 205.595,-81.2521 210.93,-85.7843"/>
</g>
<!-- Node6 -->
<g id="node7" class="node"><title>Node6</title>
<polygon fill="white" stroke="#bfbfbf" points="287.052,-56.5 287.052,-75.5 340.052,-75.5 340.052,-56.5 287.052,-56.5"/>
<text text-anchor="middle" x="313.552" y="-63.5" font-family="Helvetica,sans-Serif" font-size="10.00">QObject</text>
</g>
<!-- Node1&#45;&gt;Node6 -->
<g id="edge25" class="edge"><title>Node1&#45;&gt;Node6</title>
<path fill="none" stroke="midnightblue" d="M442.425,-168.333C437.136,-154.743 425.247,-128.291 407.552,-112 391.117,-96.868 368.667,-85.8644 349.829,-78.5269"/>
<polygon fill="midnightblue" stroke="midnightblue" points="350.952,-75.2103 340.358,-75.0217 348.522,-81.7751 350.952,-75.2103"/>
</g>
<!-- Node7 -->
<g id="node8" class="node"><title>Node7</title>
<polygon fill="white" stroke="#bfbfbf" points="358.552,-56.5 358.552,-75.5 406.552,-75.5 406.552,-56.5 358.552,-56.5"/>
<text text-anchor="middle" x="382.552" y="-63.5" font-family="Helvetica,sans-Serif" font-size="10.00">QTimer</text>
</g>
<!-- Node1&#45;&gt;Node7 -->
<g id="edge26" class="edge"><title>Node1&#45;&gt;Node7</title>
<path fill="none" stroke="midnightblue" d="M446.988,-168.393C448.725,-155.339 450.317,-130.138 440.552,-112 433.475,-98.8546 420.731,-88.3173 408.987,-80.7536"/>
<polygon fill="midnightblue" stroke="midnightblue" points="410.69,-77.6933 400.313,-75.5553 407.091,-83.6977 410.69,-77.6933"/>
</g>
<!-- Node8 -->
<g id="node9" class="node"><title>Node8</title>
<g id="a_node9"><a xlink:href="actionsceneblockingtile_8hh.html" target="_top" xlink:title="actionsceneblockingtile.hh">
<polygon fill="white" stroke="black" points="19.0523,-112.5 19.0523,-131.5 150.052,-131.5 150.052,-112.5 19.0523,-112.5"/>
<text text-anchor="middle" x="84.5523" y="-119.5" font-family="Helvetica,sans-Serif" font-size="10.00">actionsceneblockingtile.hh</text>
</a>
</g>
</g>
<!-- Node1&#45;&gt;Node8 -->
<g id="edge8" class="edge"><title>Node1&#45;&gt;Node8</title>
<path fill="none" stroke="midnightblue" d="M388.351,-168.444C324.055,-158.826 219.777,-143.228 151.678,-133.041"/>
<polygon fill="midnightblue" stroke="midnightblue" points="151.894,-129.534 141.486,-131.516 150.858,-136.457 151.894,-129.534"/>
</g>
<!-- Node9 -->
<g id="node10" class="node"><title>Node9</title>
<g id="a_node10"><a xlink:href="actionscenepc_8hh.html" target="_top" xlink:title="actionscenepc.hh">
<polygon fill="white" stroke="black" points="493.052,-112.5 493.052,-131.5 586.052,-131.5 586.052,-112.5 493.052,-112.5"/>
<text text-anchor="middle" x="539.552" y="-119.5" font-family="Helvetica,sans-Serif" font-size="10.00">actionscenepc.hh</text>
</a>
</g>
</g>
<!-- Node1&#45;&gt;Node9 -->
<g id="edge10" class="edge"><title>Node1&#45;&gt;Node9</title>
<path fill="none" stroke="midnightblue" d="M460.655,-168.324C475.456,-159.822 498.247,-146.729 515.535,-136.797"/>
<polygon fill="midnightblue" stroke="midnightblue" points="517.559,-139.671 524.487,-131.655 514.073,-133.601 517.559,-139.671"/>
</g>
<!-- Node13 -->
<g id="node14" class="node"><title>Node13</title>
<polygon fill="white" stroke="#bfbfbf" points="776.552,-56.5 776.552,-75.5 828.552,-75.5 828.552,-56.5 776.552,-56.5"/>
<text text-anchor="middle" x="802.552" y="-63.5" font-family="Helvetica,sans-Serif" font-size="10.00">qmath.h</text>
</g>
<!-- Node1&#45;&gt;Node13 -->
<g id="edge27" class="edge"><title>Node1&#45;&gt;Node13</title>
<path fill="none" stroke="midnightblue" d="M474.141,-168.454C504.155,-159.462 552.707,-144.857 594.552,-132 655.024,-113.42 725.239,-91.3805 766.67,-78.3278"/>
<polygon fill="midnightblue" stroke="midnightblue" points="767.824,-81.6338 776.31,-75.2894 765.72,-74.9576 767.824,-81.6338"/>
</g>
<!-- Node14 -->
<g id="node15" class="node"><title>Node14</title>
<polygon fill="white" stroke="#bfbfbf" points="884.552,-112.5 884.552,-131.5 934.552,-131.5 934.552,-112.5 884.552,-112.5"/>
<text text-anchor="middle" x="909.552" y="-119.5" font-family="Helvetica,sans-Serif" font-size="10.00">typeinfo</text>
</g>
<!-- Node1&#45;&gt;Node14 -->
<g id="edge28" class="edge"><title>Node1&#45;&gt;Node14</title>
<path fill="none" stroke="midnightblue" d="M521.163,-171.778C606.443,-165.244 749.081,-152.37 870.552,-132 871.824,-131.787 873.117,-131.557 874.421,-131.314"/>
<polygon fill="midnightblue" stroke="midnightblue" points="875.371,-134.693 884.467,-129.26 873.968,-127.835 875.371,-134.693"/>
</g>
<!-- Node2&#45;&gt;Node3 -->
<g id="edge3" class="edge"><title>Node2&#45;&gt;Node3</title>
<path fill="none" stroke="midnightblue" d="M210.735,-112.407C183.849,-105.921 156.171,-94.8328 135.552,-76 122.387,-63.9756 116.422,-44.0858 113.732,-29.4693"/>
<polygon fill="midnightblue" stroke="midnightblue" points="117.187,-28.9107 112.249,-19.5374 110.264,-29.9447 117.187,-28.9107"/>
</g>
<!-- Node2&#45;&gt;Node4 -->
<g id="edge4" class="edge"><title>Node2&#45;&gt;Node4</title>
<path fill="none" stroke="midnightblue" d="M243.087,-112.44C195.964,-103.238 142.099,-85.7617 168.552,-56 189.974,-31.8993 396.993,-18.5111 496.567,-13.4191"/>
<polygon fill="midnightblue" stroke="midnightblue" points="496.91,-16.9064 506.722,-12.9095 496.559,-9.91515 496.91,-16.9064"/>
</g>
<!-- Node2&#45;&gt;Node5 -->
<g id="edge5" class="edge"><title>Node2&#45;&gt;Node5</title>
<path fill="none" stroke="midnightblue" d="M289.86,-112.324C277.651,-103.979 258.974,-91.2122 244.549,-81.3524"/>
<polygon fill="midnightblue" stroke="midnightblue" points="246.444,-78.4082 236.214,-75.6545 242.494,-84.1871 246.444,-78.4082"/>
</g>
<!-- Node2&#45;&gt;Node6 -->
<g id="edge6" class="edge"><title>Node2&#45;&gt;Node6</title>
<path fill="none" stroke="midnightblue" d="M304.369,-112.083C305.826,-104.927 307.923,-94.6353 309.745,-85.6911"/>
<polygon fill="midnightblue" stroke="midnightblue" points="313.203,-86.2485 311.77,-75.7511 306.344,-84.8512 313.203,-86.2485"/>
</g>
<!-- Node2&#45;&gt;Node7 -->
<g id="edge7" class="edge"><title>Node2&#45;&gt;Node7</title>
<path fill="none" stroke="midnightblue" d="M315.406,-112.324C327.769,-103.979 346.682,-91.2122 361.289,-81.3524"/>
<polygon fill="midnightblue" stroke="midnightblue" points="363.401,-84.1503 369.731,-75.6545 359.484,-78.3483 363.401,-84.1503"/>
</g>
<!-- Node8&#45;&gt;Node3 -->
<g id="edge9" class="edge"><title>Node8&#45;&gt;Node3</title>
<path fill="none" stroke="midnightblue" d="M86.0287,-112.103C88.185,-99.5211 92.4941,-75.8503 97.5523,-56 99.828,-47.0693 102.812,-37.2856 105.439,-29.1285"/>
<polygon fill="midnightblue" stroke="midnightblue" points="108.79,-30.1439 108.6,-19.5508 102.142,-27.9505 108.79,-30.1439"/>
</g>
<!-- Node9&#45;&gt;Node3 -->
<g id="edge14" class="edge"><title>Node9&#45;&gt;Node3</title>
<path fill="none" stroke="midnightblue" d="M523.059,-112.385C505.743,-103.336 477.725,-88.6853 453.552,-76 436.653,-67.1314 433.694,-61.926 415.552,-56 336.885,-30.3036 241.94,-19.2259 179.325,-14.4855"/>
<polygon fill="midnightblue" stroke="midnightblue" points="179.403,-10.9821 169.177,-13.7513 178.898,-17.9638 179.403,-10.9821"/>
</g>
<!-- Node9&#45;&gt;Node4 -->
<g id="edge15" class="edge"><title>Node9&#45;&gt;Node4</title>
<path fill="none" stroke="midnightblue" d="M547.766,-112.182C555.096,-103.663 565.308,-90.0191 569.552,-76 574.405,-59.9713 567.74,-41.7498 560.831,-28.6863"/>
<polygon fill="midnightblue" stroke="midnightblue" points="563.734,-26.7153 555.687,-19.8237 557.68,-30.2294 563.734,-26.7153"/>
</g>
<!-- Node9&#45;&gt;Node5 -->
<g id="edge16" class="edge"><title>Node9&#45;&gt;Node5</title>
<path fill="none" stroke="midnightblue" d="M492.925,-113.032C436.042,-103.312 339.973,-86.8946 279.256,-76.519"/>
<polygon fill="midnightblue" stroke="midnightblue" points="279.534,-73.0159 269.088,-74.7813 278.355,-79.9159 279.534,-73.0159"/>
</g>
<!-- Node9&#45;&gt;Node6 -->
<g id="edge18" class="edge"><title>Node9&#45;&gt;Node6</title>
<path fill="none" stroke="midnightblue" d="M502.741,-112.424C466.46,-103.941 409.187,-90.4638 350.152,-76.1233"/>
<polygon fill="midnightblue" stroke="midnightblue" points="350.824,-72.6847 340.28,-73.721 349.168,-79.4862 350.824,-72.6847"/>
</g>
<!-- Node9&#45;&gt;Node7 -->
<g id="edge19" class="edge"><title>Node9&#45;&gt;Node7</title>
<path fill="none" stroke="midnightblue" d="M514.675,-112.444C488.108,-103.306 445.843,-88.7689 416.291,-78.6044"/>
<polygon fill="midnightblue" stroke="midnightblue" points="417.392,-75.2818 406.797,-75.339 415.115,-81.9012 417.392,-75.2818"/>
</g>
<!-- Node10 -->
<g id="node11" class="node"><title>Node10</title>
<g id="a_node11"><a xlink:href="actionscenefeet_8hh.html" target="_top" xlink:title="actionscenefeet.hh">
<polygon fill="white" stroke="black" points="462.552,-56.5 462.552,-75.5 560.552,-75.5 560.552,-56.5 462.552,-56.5"/>
<text text-anchor="middle" x="511.552" y="-63.5" font-family="Helvetica,sans-Serif" font-size="10.00">actionscenefeet.hh</text>
</a>
</g>
</g>
<!-- Node9&#45;&gt;Node10 -->
<g id="edge11" class="edge"><title>Node9&#45;&gt;Node10</title>
<path fill="none" stroke="midnightblue" d="M534.929,-112.083C531.096,-104.691 525.528,-93.9533 520.788,-84.8111"/>
<polygon fill="midnightblue" stroke="midnightblue" points="523.8,-83.0175 516.09,-75.7511 517.586,-86.2398 523.8,-83.0175"/>
</g>
<!-- Node11 -->
<g id="node12" class="node"><title>Node11</title>
<polygon fill="white" stroke="#bfbfbf" points="616.552,-56.5 616.552,-75.5 700.552,-75.5 700.552,-56.5 616.552,-56.5"/>
<text text-anchor="middle" x="658.552" y="-63.5" font-family="Helvetica,sans-Serif" font-size="10.00">QGraphicsView</text>
</g>
<!-- Node9&#45;&gt;Node11 -->
<g id="edge17" class="edge"><title>Node9&#45;&gt;Node11</title>
<path fill="none" stroke="midnightblue" d="M558.408,-112.444C577.818,-103.636 608.282,-89.8116 630.517,-79.722"/>
<polygon fill="midnightblue" stroke="midnightblue" points="632.125,-82.836 639.785,-75.5164 629.232,-76.4615 632.125,-82.836"/>
</g>
<!-- Node12 -->
<g id="node13" class="node"><title>Node12</title>
<polygon fill="white" stroke="#bfbfbf" points="718.552,-56.5 718.552,-75.5 758.552,-75.5 758.552,-56.5 718.552,-56.5"/>
<text text-anchor="middle" x="738.552" y="-63.5" font-family="Helvetica,sans-Serif" font-size="10.00">QList</text>
</g>
<!-- Node9&#45;&gt;Node12 -->
<g id="edge20" class="edge"><title>Node9&#45;&gt;Node12</title>
<path fill="none" stroke="midnightblue" d="M573.535,-112.454C605.919,-104.21 656.267,-91.1383 708.527,-76.2114"/>
<polygon fill="midnightblue" stroke="midnightblue" points="709.658,-79.5281 718.303,-73.4034 707.726,-72.8001 709.658,-79.5281"/>
</g>
<!-- Node9&#45;&gt;Node13 -->
<g id="edge21" class="edge"><title>Node9&#45;&gt;Node13</title>
<path fill="none" stroke="midnightblue" d="M586.44,-112.552C630.483,-104.435 698.447,-91.4493 766.223,-76.2074"/>
<polygon fill="midnightblue" stroke="midnightblue" points="767.239,-79.566 776.218,-73.9426 765.692,-72.7391 767.239,-79.566"/>
</g>
<!-- Node10&#45;&gt;Node3 -->
<g id="edge12" class="edge"><title>Node10&#45;&gt;Node3</title>
<path fill="none" stroke="midnightblue" d="M462.378,-57.9307C457.705,-57.2724 453.04,-56.6201 448.552,-56 355.257,-43.1074 247.344,-28.8048 179.277,-19.8582"/>
<polygon fill="midnightblue" stroke="midnightblue" points="179.487,-16.3559 169.117,-18.5237 178.576,-23.2963 179.487,-16.3559"/>
</g>
<!-- Node10&#45;&gt;Node4 -->
<g id="edge13" class="edge"><title>Node10&#45;&gt;Node4</title>
<path fill="none" stroke="midnightblue" d="M517.827,-56.083C523.195,-48.4554 531.07,-37.2645 537.631,-27.9408"/>
<polygon fill="midnightblue" stroke="midnightblue" points="540.502,-29.9434 543.394,-19.7511 534.777,-25.9149 540.502,-29.9434"/>
</g>
</g>
</svg>
        <g id="navigator" transform="translate(0 0)" fill="#404254">
                <rect fill="#f2f5e9" fill-opacity="0.5" stroke="#606060" stroke-width=".5" x="0" y="0" width="60" height="60"/>
                <use id="zoomplus" xlink:href="#zoomPlus" x="17" y="9" onmousedown="handleZoom(evt,'in')"/>
                <use id="zoomminus" xlink:href="#zoomMin" x="42" y="9" onmousedown="handleZoom(evt,'out')"/>
                <use id="reset" xlink:href="#resetDef" x="30" y="36" onmousedown="handleReset()"/>
                <g id="arrowUp" xlink:href="#dirArrow" transform="translate(30 24)" onmousedown="handlePan(0,-1)">
                  <use xlink:href="#rim" fill="#404040">
                        <set attributeName="fill" to="#808080" begin="arrowUp.mouseover" end="arrowUp.mouseout"/>
                  </use>
                  <path fill="none" stroke="white" stroke-width="1.5" d="M0,-3.0v7 M-2.5,-0.5L0,-3.0L2.5,-0.5"/>
                </g>
                <g id="arrowRight" xlink:href="#dirArrow" transform="rotate(90) translate(36 -43)" onmousedown="handlePan(1,0)">
                  <use xlink:href="#rim" fill="#404040">
                        <set attributeName="fill" to="#808080" begin="arrowRight.mouseover" end="arrowRight.mouseout"/>
                  </use>
                  <path fill="none" stroke="white" stroke-width="1.5" d="M0,-3.0v7 M-2.5,-0.5L0,-3.0L2.5,-0.5"/>
                </g>
                <g id="arrowDown" xlink:href="#dirArrow" transform="rotate(180) translate(-30 -48)" onmousedown="handlePan(0,1)">
                  <use xlink:href="#rim" fill="#404040">
                        <set attributeName="fill" to="#808080" begin="arrowDown.mouseover" end="arrowDown.mouseout"/>
                  </use>
                  <path fill="none" stroke="white" stroke-width="1.5" d="M0,-3.0v7 M-2.5,-0.5L0,-3.0L2.5,-0.5"/>
                </g>
                <g id="arrowLeft" xlink:href="#dirArrow" transform="rotate(270) translate(-36 17)" onmousedown="handlePan(-1,0)">
                  <use xlink:href="#rim" fill="#404040">
                        <set attributeName="fill" to="#808080" begin="arrowLeft.mouseover" end="arrowLeft.mouseout"/>
                  </use>
                  <path fill="none" stroke="white" stroke-width="1.5" d="M0,-3.0v7 M-2.5,-0.5L0,-3.0L2.5,-0.5"/>
                </g>
        </g>
        <svg viewBox="0 0 15 15" width="100%" height="30px" preserveAspectRatio="xMaxYMin meet">
         <g id="arrow_out" transform="scale(0.3 0.3)">
          <a xlink:href="actionsceneenemyprojectile_8cc__incl_org.svg" target="_base">
           <rect id="button" ry="5" rx="5" y="6" x="6" height="38" width="38"
                fill="#f2f5e9" fill-opacity="0.5" stroke="#606060" stroke-width="1.0"/>
           <path id="arrow"
             d="M 11.500037,31.436501 C 11.940474,20.09759 22.043105,11.32322 32.158766,21.979434 L 37.068811,17.246167 C 37.068811,17.246167 37.088388,32 37.088388,32 L 22.160133,31.978069 C 22.160133,31.978069 26.997745,27.140456 26.997745,27.140456 C 18.528582,18.264221 13.291696,25.230495 11.500037,31.436501 z"
             style="fill:#404040;"/>
          </a>
         </g>
        </svg>
</svg>
