<?xml version="1.0" encoding="UTF-8" standalone="no"?>
<!DOCTYPE svg PUBLIC "-//W3C//DTD SVG 1.1//EN"
 "http://www.w3.org/Graphics/SVG/1.1/DTD/svg11.dtd">
<!-- Generated by graphviz version 2.38.0 (20140413.2041)
 -->
<!-- Title: View/actionscene.cc Pages: 1 -->
<!--zoomable 308 -->
<svg id="main" version="1.1" xmlns="http://www.w3.org/2000/svg" xmlns:xlink="http://www.w3.org/1999/xlink" xml:space="preserve" onload="init(evt)">
<style type="text/css"><![CDATA[
.edge:hover path { stroke: red; }
.edge:hover polygon { stroke: red; fill: red; }
]]></style>
<script type="text/javascript"><![CDATA[
var edges = document.getElementsByTagName('g');
if (edges && edges.length) {
  for (var i=0;i<edges.length;i++) {
    if (edges[i].id.substr(0,4)=='edge') {
      edges[i].setAttribute('class','edge');
    }
  }
}
]]></script>
        <defs>
                <circle id="rim" cx="0" cy="0" r="7"/>
                <circle id="rim2" cx="0" cy="0" r="3.5"/>
                <g id="zoomPlus">
                        <use xlink:href="#rim" fill="#404040">
                                <set attributeName="fill" to="#808080" begin="zoomplus.mouseover" end="zoomplus.mouseout"/>
                        </use>
                        <path d="M-4,0h8M0,-4v8" fill="none" stroke="white" stroke-width="1.5" pointer-events="none"/>
                </g>
                <g id="zoomMin">
                        <use xlink:href="#rim" fill="#404040">
                                <set attributeName="fill" to="#808080" begin="zoomminus.mouseover" end="zoomminus.mouseout"/>
                        </use>
                        <path d="M-4,0h8" fill="none" stroke="white" stroke-width="1.5" pointer-events="none"/>
                </g>
                <g id="dirArrow">
                        <path fill="none" stroke="white" stroke-width="1.5" d="M0,-3.0v7 M-2.5,-0.5L0,-3.0L2.5,-0.5"/>
                </g>
               <g id="resetDef">
                       <use xlink:href="#rim2" fill="#404040">
                               <set attributeName="fill" to="#808080" begin="reset.mouseover" end="reset.mouseout"/>
                       </use>
               </g>
        </defs>

<script type="text/javascript">
var viewWidth = 1833;
var viewHeight = 308;
var sectionId = 'dynsection-0';
</script>
<script xlink:href="svgpan.js"/>
<svg id="graph" class="graph">
<g id="viewport">
<title>View/actionscene.cc</title>
<polygon fill="white" stroke="none" points="-4,4 -4,-304 1828.63,-304 1828.63,4 -4,4"/>
<!-- Node0 -->
<g id="node1" class="node"><title>Node0</title>
<polygon fill="#bfbfbf" stroke="black" points="1290.63,-280.5 1290.63,-299.5 1397.63,-299.5 1397.63,-280.5 1290.63,-280.5"/>
<text text-anchor="middle" x="1344.13" y="-287.5" font-family="Helvetica,sans-Serif" font-size="10.00">View/actionscene.cc</text>
</g>
<!-- Node1 -->
<g id="node2" class="node"><title>Node1</title>
<g id="a_node2"><a xlink:href="actionscene_8hh.html" target="_top" xlink:title="actionscene.hh">
<polygon fill="white" stroke="black" points="830.633,-224.5 830.633,-243.5 913.633,-243.5 913.633,-224.5 830.633,-224.5"/>
<text text-anchor="middle" x="872.133" y="-231.5" font-family="Helvetica,sans-Serif" font-size="10.00">actionscene.hh</text>
</a>
</g>
</g>
<!-- Node0&#45;&gt;Node1 -->
<g id="edge1" class="edge"><title>Node0&#45;&gt;Node1</title>
<path fill="none" stroke="midnightblue" d="M1290.45,-282.858C1198.9,-272.384 1013.76,-251.203 923.685,-240.898"/>
<polygon fill="midnightblue" stroke="midnightblue" points="924.038,-237.416 913.705,-239.756 923.243,-244.37 924.038,-237.416"/>
</g>
<!-- Node23 -->
<g id="node24" class="node"><title>Node23</title>
<g id="a_node24"><a xlink:href="parkinghalllayoutinterface_8hh.html" target="_top" xlink:title="Interface/parkinghalllayoutinterface.hh">
<polygon fill="white" stroke="black" points="1645.63,-168.5 1645.63,-187.5 1824.63,-187.5 1824.63,-168.5 1645.63,-168.5"/>
<text text-anchor="middle" x="1735.13" y="-175.5" font-family="Helvetica,sans-Serif" font-size="10.00">Interface/parkinghalllayoutinterface.hh</text>
</a>
</g>
</g>
<!-- Node0&#45;&gt;Node23 -->
<g id="edge75" class="edge"><title>Node0&#45;&gt;Node23</title>
<path fill="none" stroke="midnightblue" d="M1343.88,-280.251C1343.98,-266.048 1346.46,-238.144 1363.13,-224 1373.48,-215.223 1528.39,-198.769 1635.01,-188.375"/>
<polygon fill="midnightblue" stroke="midnightblue" points="1635.56,-191.838 1645.17,-187.388 1634.88,-184.871 1635.56,-191.838"/>
</g>
<!-- Node31 -->
<g id="node32" class="node"><title>Node31</title>
<polygon fill="white" stroke="#bfbfbf" points="1372.13,-224.5 1372.13,-243.5 1418.13,-243.5 1418.13,-224.5 1372.13,-224.5"/>
<text text-anchor="middle" x="1395.13" y="-231.5" font-family="Helvetica,sans-Serif" font-size="10.00">chrono</text>
</g>
<!-- Node0&#45;&gt;Node31 -->
<g id="edge76" class="edge"><title>Node0&#45;&gt;Node31</title>
<path fill="none" stroke="midnightblue" d="M1352.55,-280.083C1359.98,-272.22 1370.98,-260.569 1379.95,-251.081"/>
<polygon fill="midnightblue" stroke="midnightblue" points="1382.55,-253.424 1386.87,-243.751 1377.46,-248.618 1382.55,-253.424"/>
</g>
<!-- Node2 -->
<g id="node3" class="node"><title>Node2</title>
<g id="a_node3"><a xlink:href="actionscenepc_8hh.html" target="_top" xlink:title="actionscenepc.hh">
<polygon fill="white" stroke="black" points="164.633,-112.5 164.633,-131.5 257.633,-131.5 257.633,-112.5 164.633,-112.5"/>
<text text-anchor="middle" x="211.133" y="-119.5" font-family="Helvetica,sans-Serif" font-size="10.00">actionscenepc.hh</text>
</a>
</g>
</g>
<!-- Node1&#45;&gt;Node2 -->
<g id="edge2" class="edge"><title>Node1&#45;&gt;Node2</title>
<path fill="none" stroke="midnightblue" d="M830.426,-231.115C724.513,-226.045 447.271,-210.934 358.133,-188 312.488,-176.256 263.083,-151.713 234.75,-136.373"/>
<polygon fill="midnightblue" stroke="midnightblue" points="236.434,-133.305 225.985,-131.555 233.062,-139.439 236.434,-133.305"/>
</g>
<!-- Node3 -->
<g id="node4" class="node"><title>Node3</title>
<g id="a_node4"><a xlink:href="actionscenefeet_8hh.html" target="_top" xlink:title="actionscenefeet.hh">
<polygon fill="white" stroke="black" points="223.133,-56.5 223.133,-75.5 321.133,-75.5 321.133,-56.5 223.133,-56.5"/>
<text text-anchor="middle" x="272.133" y="-63.5" font-family="Helvetica,sans-Serif" font-size="10.00">actionscenefeet.hh</text>
</a>
</g>
</g>
<!-- Node1&#45;&gt;Node3 -->
<g id="edge24" class="edge"><title>Node1&#45;&gt;Node3</title>
<path fill="none" stroke="midnightblue" d="M830.598,-233.815C735.446,-234.8 494.887,-232.274 300.133,-188 232.768,-172.686 194.205,-188.973 155.133,-132 136.374,-104.645 174.912,-87.5871 212.682,-77.8476"/>
<polygon fill="midnightblue" stroke="midnightblue" points="213.852,-81.1654 222.747,-75.4099 212.204,-74.3621 213.852,-81.1654"/>
</g>
<!-- Node6 -->
<g id="node7" class="node"><title>Node6</title>
<polygon fill="white" stroke="#bfbfbf" points="511.633,-56.5 511.633,-75.5 602.633,-75.5 602.633,-56.5 511.633,-56.5"/>
<text text-anchor="middle" x="557.133" y="-63.5" font-family="Helvetica,sans-Serif" font-size="10.00">QGraphicsScene</text>
</g>
<!-- Node1&#45;&gt;Node6 -->
<g id="edge65" class="edge"><title>Node1&#45;&gt;Node6</title>
<path fill="none" stroke="midnightblue" d="M830.353,-231.959C723.789,-228.874 448.328,-218.044 421.133,-188 381.583,-144.307 471.819,-100.064 523.743,-79.2565"/>
<polygon fill="midnightblue" stroke="midnightblue" points="525.224,-82.4357 533.26,-75.5319 522.673,-75.9171 525.224,-82.4357"/>
</g>
<!-- Node7 -->
<g id="node8" class="node"><title>Node7</title>
<polygon fill="white" stroke="#bfbfbf" points="83.1333,-56.5 83.1333,-75.5 167.133,-75.5 167.133,-56.5 83.1333,-56.5"/>
<text text-anchor="middle" x="125.133" y="-63.5" font-family="Helvetica,sans-Serif" font-size="10.00">QGraphicsView</text>
</g>
<!-- Node1&#45;&gt;Node7 -->
<g id="edge66" class="edge"><title>Node1&#45;&gt;Node7</title>
<path fill="none" stroke="midnightblue" d="M830.633,-232.214C691.569,-229.312 247.594,-217.783 191.133,-188 152.27,-167.499 135.202,-114.154 128.657,-85.6297"/>
<polygon fill="midnightblue" stroke="midnightblue" points="132.057,-84.7873 126.581,-75.7173 125.206,-86.2225 132.057,-84.7873"/>
</g>
<!-- Node8 -->
<g id="node9" class="node"><title>Node8</title>
<polygon fill="white" stroke="#bfbfbf" points="620.633,-56.5 620.633,-75.5 673.633,-75.5 673.633,-56.5 620.633,-56.5"/>
<text text-anchor="middle" x="647.133" y="-63.5" font-family="Helvetica,sans-Serif" font-size="10.00">QObject</text>
</g>
<!-- Node1&#45;&gt;Node8 -->
<g id="edge68" class="edge"><title>Node1&#45;&gt;Node8</title>
<path fill="none" stroke="midnightblue" d="M830.514,-231.592C767.29,-228.478 651.676,-218.639 626.133,-188 601.437,-158.376 622.127,-110.203 636.393,-84.4854"/>
<polygon fill="midnightblue" stroke="midnightblue" points="639.435,-86.2175 641.439,-75.8139 633.384,-82.6973 639.435,-86.2175"/>
</g>
<!-- Node11 -->
<g id="node12" class="node"><title>Node11</title>
<polygon fill="white" stroke="#bfbfbf" points="13.1333,-56.5 13.1333,-75.5 65.1333,-75.5 65.1333,-56.5 13.1333,-56.5"/>
<text text-anchor="middle" x="39.1333" y="-63.5" font-family="Helvetica,sans-Serif" font-size="10.00">qmath.h</text>
</g>
<!-- Node1&#45;&gt;Node11 -->
<g id="edge69" class="edge"><title>Node1&#45;&gt;Node11</title>
<path fill="none" stroke="midnightblue" d="M830.567,-232.041C687.971,-228.521 224.065,-215.084 163.133,-188 112.016,-165.278 69.7269,-111.711 50.4168,-84.1065"/>
<polygon fill="midnightblue" stroke="midnightblue" points="53.2943,-82.1137 44.7696,-75.8224 47.5103,-86.0566 53.2943,-82.1137"/>
</g>
<!-- Node12 -->
<g id="node13" class="node"><title>Node12</title>
<g id="a_node13"><a xlink:href="actionscenenpc_8hh.html" target="_top" xlink:title="actionscenenpc.hh">
<polygon fill="white" stroke="black" points="276.133,-112.5 276.133,-131.5 374.133,-131.5 374.133,-112.5 276.133,-112.5"/>
<text text-anchor="middle" x="325.133" y="-119.5" font-family="Helvetica,sans-Serif" font-size="10.00">actionscenenpc.hh</text>
</a>
</g>
</g>
<!-- Node1&#45;&gt;Node12 -->
<g id="edge14" class="edge"><title>Node1&#45;&gt;Node12</title>
<path fill="none" stroke="midnightblue" d="M830.323,-232.793C727.654,-231.703 465.854,-225.243 388.133,-188 366.069,-177.427 347.541,-155.674 336.409,-140.249"/>
<polygon fill="midnightblue" stroke="midnightblue" points="339.021,-137.872 330.467,-131.62 333.255,-141.841 339.021,-137.872"/>
</g>
<!-- Node13 -->
<g id="node14" class="node"><title>Node13</title>
<g id="a_node14"><a xlink:href="actionsceneblockingtile_8hh.html" target="_top" xlink:title="actionsceneblockingtile.hh">
<polygon fill="white" stroke="black" points="1254.63,-112.5 1254.63,-131.5 1385.63,-131.5 1385.63,-112.5 1254.63,-112.5"/>
<text text-anchor="middle" x="1320.13" y="-119.5" font-family="Helvetica,sans-Serif" font-size="10.00">actionsceneblockingtile.hh</text>
</a>
</g>
</g>
<!-- Node1&#45;&gt;Node13 -->
<g id="edge25" class="edge"><title>Node1&#45;&gt;Node13</title>
<path fill="none" stroke="midnightblue" d="M879.046,-224.457C891.27,-210.03 918.25,-181.129 948.133,-168 948.977,-167.629 1135.41,-145.19 1243.99,-132.143"/>
<polygon fill="midnightblue" stroke="midnightblue" points="1244.73,-135.578 1254.24,-130.91 1243.9,-128.628 1244.73,-135.578"/>
</g>
<!-- Node14 -->
<g id="node15" class="node"><title>Node14</title>
<g id="a_node15"><a xlink:href="actionscenebigexplosion_8hh.html" target="_top" xlink:title="actionscenebigexplosion.hh">
<polygon fill="white" stroke="black" points="430.633,-168.5 430.633,-187.5 567.633,-187.5 567.633,-168.5 430.633,-168.5"/>
<text text-anchor="middle" x="499.133" y="-175.5" font-family="Helvetica,sans-Serif" font-size="10.00">actionscenebigexplosion.hh</text>
</a>
</g>
</g>
<!-- Node1&#45;&gt;Node14 -->
<g id="edge27" class="edge"><title>Node1&#45;&gt;Node14</title>
<path fill="none" stroke="midnightblue" d="M830.431,-226.963C766.845,-217.757 644.946,-200.11 568.062,-188.979"/>
<polygon fill="midnightblue" stroke="midnightblue" points="568.387,-185.49 557.988,-187.521 567.384,-192.417 568.387,-185.49"/>
</g>
<!-- Node15 -->
<g id="node16" class="node"><title>Node15</title>
<g id="a_node16"><a xlink:href="actionscenesmallexplosion_8hh.html" target="_top" xlink:title="actionscenesmallexplosion.hh">
<polygon fill="white" stroke="black" points="906.633,-112.5 906.633,-131.5 1053.63,-131.5 1053.63,-112.5 906.633,-112.5"/>
<text text-anchor="middle" x="980.133" y="-119.5" font-family="Helvetica,sans-Serif" font-size="10.00">actionscenesmallexplosion.hh</text>
</a>
</g>
</g>
<!-- Node1&#45;&gt;Node15 -->
<g id="edge34" class="edge"><title>Node1&#45;&gt;Node15</title>
<path fill="none" stroke="midnightblue" d="M870.235,-224.496C867.765,-211.128 865.07,-184.975 877.133,-168 888.636,-151.813 907.27,-141.385 925.547,-134.694"/>
<polygon fill="midnightblue" stroke="midnightblue" points="926.656,-138.013 935.032,-131.525 924.439,-131.374 926.656,-138.013"/>
</g>
<!-- Node16 -->
<g id="node17" class="node"><title>Node16</title>
<g id="a_node17"><a xlink:href="actionsceneenemyprojectile_8hh.html" target="_top" xlink:title="actionsceneenemyprojectile.hh">
<polygon fill="white" stroke="black" points="635.633,-168.5 635.633,-187.5 786.633,-187.5 786.633,-168.5 635.633,-168.5"/>
<text text-anchor="middle" x="711.133" y="-175.5" font-family="Helvetica,sans-Serif" font-size="10.00">actionsceneenemyprojectile.hh</text>
</a>
</g>
</g>
<!-- Node1&#45;&gt;Node16 -->
<g id="edge40" class="edge"><title>Node1&#45;&gt;Node16</title>
<path fill="none" stroke="midnightblue" d="M846.622,-224.444C819.537,-215.359 776.543,-200.939 746.264,-190.783"/>
<polygon fill="midnightblue" stroke="midnightblue" points="747.119,-187.378 736.525,-187.516 744.893,-194.015 747.119,-187.378"/>
</g>
<!-- Node17 -->
<g id="node18" class="node"><title>Node17</title>
<g id="a_node18"><a xlink:href="actionsceneenemyprojectileexplosion_8hh.html" target="_top" xlink:title="actionsceneenemyprojectileexplosion.hh">
<polygon fill="white" stroke="black" points="696.133,-112.5 696.133,-131.5 888.133,-131.5 888.133,-112.5 696.133,-112.5"/>
<text text-anchor="middle" x="792.133" y="-119.5" font-family="Helvetica,sans-Serif" font-size="10.00">actionsceneenemyprojectileexplosion.hh</text>
</a>
</g>
</g>
<!-- Node1&#45;&gt;Node17 -->
<g id="edge60" class="edge"><title>Node1&#45;&gt;Node17</title>
<path fill="none" stroke="midnightblue" d="M865.79,-224.386C859.133,-215.338 848.372,-200.687 839.133,-188 827.278,-171.719 813.817,-153.088 804.349,-139.959"/>
<polygon fill="midnightblue" stroke="midnightblue" points="807.187,-137.911 798.5,-131.845 801.508,-142.004 807.187,-137.911"/>
</g>
<!-- Node18 -->
<g id="node19" class="node"><title>Node18</title>
<polygon fill="white" stroke="#bfbfbf" points="1186.13,-112.5 1186.13,-131.5 1236.13,-131.5 1236.13,-112.5 1186.13,-112.5"/>
<text text-anchor="middle" x="1211.13" y="-119.5" font-family="Helvetica,sans-Serif" font-size="10.00">typeinfo</text>
</g>
<!-- Node1&#45;&gt;Node18 -->
<g id="edge71" class="edge"><title>Node1&#45;&gt;Node18</title>
<path fill="none" stroke="midnightblue" d="M875.246,-224.09C880.793,-209.656 893.848,-181.427 915.133,-168 1012.68,-106.465 1058.72,-152.987 1172.13,-132 1173.4,-131.765 1174.69,-131.517 1175.99,-131.259"/>
<polygon fill="midnightblue" stroke="midnightblue" points="1176.97,-134.63 1186.03,-129.135 1175.52,-127.782 1176.97,-134.63"/>
</g>
<!-- Node19 -->
<g id="node20" class="node"><title>Node19</title>
<g id="a_node20"><a xlink:href="actionsceneendmissiondisplay_8hh.html" target="_top" xlink:title="actionsceneendmissiondisplay.hh">
<polygon fill="white" stroke="black" points="957.633,-168.5 957.633,-187.5 1120.63,-187.5 1120.63,-168.5 957.633,-168.5"/>
<text text-anchor="middle" x="1039.13" y="-175.5" font-family="Helvetica,sans-Serif" font-size="10.00">actionsceneendmissiondisplay.hh</text>
</a>
</g>
</g>
<!-- Node1&#45;&gt;Node19 -->
<g id="edge56" class="edge"><title>Node1&#45;&gt;Node19</title>
<path fill="none" stroke="midnightblue" d="M898.595,-224.444C926.812,-215.32 971.674,-200.813 1003.1,-190.651"/>
<polygon fill="midnightblue" stroke="midnightblue" points="1004.36,-193.923 1012.8,-187.516 1002.2,-187.263 1004.36,-193.923"/>
</g>
<!-- Node21 -->
<g id="node22" class="node"><title>Node21</title>
<polygon fill="white" stroke="#bfbfbf" points="1577.63,-112.5 1577.63,-131.5 1696.63,-131.5 1696.63,-112.5 1577.63,-112.5"/>
<text text-anchor="middle" x="1637.13" y="-119.5" font-family="Helvetica,sans-Serif" font-size="10.00">QGraphicsProxyWidget</text>
</g>
<!-- Node1&#45;&gt;Node21 -->
<g id="edge67" class="edge"><title>Node1&#45;&gt;Node21</title>
<path fill="none" stroke="midnightblue" d="M913.841,-232.423C1058.03,-230.148 1529.85,-220.287 1589.13,-188 1608.13,-177.653 1621.66,-156.183 1629.41,-140.747"/>
<polygon fill="midnightblue" stroke="midnightblue" points="1632.6,-142.193 1633.67,-131.652 1626.26,-139.223 1632.6,-142.193"/>
</g>
<!-- Node1&#45;&gt;Node23 -->
<g id="edge61" class="edge"><title>Node1&#45;&gt;Node23</title>
<path fill="none" stroke="midnightblue" d="M913.954,-230.871C1028.34,-224.968 1356.01,-207.541 1628.13,-188 1630.53,-187.828 1632.95,-187.651 1635.39,-187.469"/>
<polygon fill="midnightblue" stroke="midnightblue" points="1635.82,-190.947 1645.53,-186.699 1635.29,-183.967 1635.82,-190.947"/>
</g>
<!-- Node26 -->
<g id="node27" class="node"><title>Node26</title>
<polygon fill="white" stroke="#bfbfbf" points="1139.13,-168.5 1139.13,-187.5 1283.13,-187.5 1283.13,-168.5 1139.13,-168.5"/>
<text text-anchor="middle" x="1211.13" y="-175.5" font-family="Helvetica,sans-Serif" font-size="10.00">QGraphicsSceneMouseEvent</text>
</g>
<!-- Node1&#45;&gt;Node26 -->
<g id="edge64" class="edge"><title>Node1&#45;&gt;Node26</title>
<path fill="none" stroke="midnightblue" d="M913.701,-226.379C972.056,-217.083 1078.78,-200.083 1147.26,-189.175"/>
<polygon fill="midnightblue" stroke="midnightblue" points="1148.16,-192.575 1157.49,-187.545 1147.06,-185.662 1148.16,-192.575"/>
</g>
<!-- Node27 -->
<g id="node28" class="node"><title>Node27</title>
<polygon fill="white" stroke="#bfbfbf" points="1301.63,-168.5 1301.63,-187.5 1366.63,-187.5 1366.63,-168.5 1301.63,-168.5"/>
<text text-anchor="middle" x="1334.13" y="-175.5" font-family="Helvetica,sans-Serif" font-size="10.00">QDateTime</text>
</g>
<!-- Node1&#45;&gt;Node27 -->
<g id="edge70" class="edge"><title>Node1&#45;&gt;Node27</title>
<path fill="none" stroke="midnightblue" d="M913.756,-229.989C987.708,-224.324 1147.01,-210.708 1291.26,-187.982"/>
<polygon fill="midnightblue" stroke="midnightblue" points="1291.86,-191.432 1301.18,-186.401 1290.75,-184.519 1291.86,-191.432"/>
</g>
<!-- Node28 -->
<g id="node29" class="node"><title>Node28</title>
<polygon fill="white" stroke="#bfbfbf" points="1385.13,-168.5 1385.13,-187.5 1437.13,-187.5 1437.13,-168.5 1385.13,-168.5"/>
<text text-anchor="middle" x="1411.13" y="-175.5" font-family="Helvetica,sans-Serif" font-size="10.00">QDebug</text>
</g>
<!-- Node1&#45;&gt;Node28 -->
<g id="edge72" class="edge"><title>Node1&#45;&gt;Node28</title>
<path fill="none" stroke="midnightblue" d="M913.818,-231.467C998.727,-227.872 1197.9,-217.031 1374.87,-187.744"/>
<polygon fill="midnightblue" stroke="midnightblue" points="1375.6,-191.171 1384.89,-186.063 1374.45,-184.267 1375.6,-191.171"/>
</g>
<!-- Node29 -->
<g id="node30" class="node"><title>Node29</title>
<polygon fill="white" stroke="#bfbfbf" points="1455.13,-168.5 1455.13,-187.5 1513.13,-187.5 1513.13,-168.5 1455.13,-168.5"/>
<text text-anchor="middle" x="1484.13" y="-175.5" font-family="Helvetica,sans-Serif" font-size="10.00">functional</text>
</g>
<!-- Node1&#45;&gt;Node29 -->
<g id="edge73" class="edge"><title>Node1&#45;&gt;Node29</title>
<path fill="none" stroke="midnightblue" d="M913.807,-231.935C1007.25,-229.075 1240.69,-219.302 1444.76,-187.985"/>
<polygon fill="midnightblue" stroke="midnightblue" points="1445.42,-191.425 1454.76,-186.429 1444.34,-184.508 1445.42,-191.425"/>
</g>
<!-- Node30 -->
<g id="node31" class="node"><title>Node30</title>
<polygon fill="white" stroke="#bfbfbf" points="1531.63,-168.5 1531.63,-187.5 1580.63,-187.5 1580.63,-168.5 1531.63,-168.5"/>
<text text-anchor="middle" x="1556.13" y="-175.5" font-family="Helvetica,sans-Serif" font-size="10.00">random</text>
</g>
<!-- Node1&#45;&gt;Node30 -->
<g id="edge74" class="edge"><title>Node1&#45;&gt;Node30</title>
<path fill="none" stroke="midnightblue" d="M913.895,-232.842C1016.1,-231.875 1286.93,-225.792 1521.29,-187.793"/>
<polygon fill="midnightblue" stroke="midnightblue" points="1522.07,-191.213 1531.37,-186.136 1520.93,-184.306 1522.07,-191.213"/>
</g>
<!-- Node2&#45;&gt;Node3 -->
<g id="edge3" class="edge"><title>Node2&#45;&gt;Node3</title>
<path fill="none" stroke="midnightblue" d="M220.934,-112.324C229.951,-104.341 243.539,-92.3128 254.451,-82.6529"/>
<polygon fill="midnightblue" stroke="midnightblue" points="256.987,-85.083 262.154,-75.8339 252.347,-79.8416 256.987,-85.083"/>
</g>
<!-- Node4 -->
<g id="node5" class="node"><title>Node4</title>
<polygon fill="white" stroke="#bfbfbf" points="886.633,-0.5 886.633,-19.5 1001.63,-19.5 1001.63,-0.5 886.633,-0.5"/>
<text text-anchor="middle" x="944.133" y="-7.5" font-family="Helvetica,sans-Serif" font-size="10.00">QGraphicsPixmapItem</text>
</g>
<!-- Node2&#45;&gt;Node4 -->
<g id="edge6" class="edge"><title>Node2&#45;&gt;Node4</title>
<path fill="none" stroke="midnightblue" d="M236.572,-112.402C260.919,-103.935 298.512,-90.2351 330.133,-76 347.536,-68.1655 349.798,-61.2967 368.133,-56 461.722,-28.9642 744.893,-17.0487 876.077,-12.8729"/>
<polygon fill="midnightblue" stroke="midnightblue" points="876.508,-16.3613 886.394,-12.5506 876.289,-9.36469 876.508,-16.3613"/>
</g>
<!-- Node5 -->
<g id="node6" class="node"><title>Node5</title>
<polygon fill="white" stroke="#bfbfbf" points="402.633,-0.5 402.633,-19.5 487.633,-19.5 487.633,-0.5 402.633,-0.5"/>
<text text-anchor="middle" x="445.133" y="-7.5" font-family="Helvetica,sans-Serif" font-size="10.00">QPixmapCache</text>
</g>
<!-- Node2&#45;&gt;Node5 -->
<g id="edge7" class="edge"><title>Node2&#45;&gt;Node5</title>
<path fill="none" stroke="midnightblue" d="M208.488,-112.201C204.942,-98.4287 200.549,-71.7326 214.133,-56 236.851,-29.6897 331.423,-18.4743 392.293,-13.9111"/>
<polygon fill="midnightblue" stroke="midnightblue" points="392.772,-17.386 402.498,-13.1843 392.275,-10.4036 392.772,-17.386"/>
</g>
<!-- Node2&#45;&gt;Node6 -->
<g id="edge8" class="edge"><title>Node2&#45;&gt;Node6</title>
<path fill="none" stroke="midnightblue" d="M257.881,-113.468C261.012,-112.969 264.118,-112.476 267.133,-112 348.554,-99.1403 442.887,-84.5619 501.293,-75.5732"/>
<polygon fill="midnightblue" stroke="midnightblue" points="502.063,-78.9961 511.414,-74.0162 500.998,-72.0775 502.063,-78.9961"/>
</g>
<!-- Node2&#45;&gt;Node7 -->
<g id="edge9" class="edge"><title>Node2&#45;&gt;Node7</title>
<path fill="none" stroke="midnightblue" d="M197.316,-112.324C183.9,-103.9 163.309,-90.9709 147.548,-81.0741"/>
<polygon fill="midnightblue" stroke="midnightblue" points="149.246,-78.0081 138.916,-75.6545 145.524,-83.9364 149.246,-78.0081"/>
</g>
<!-- Node2&#45;&gt;Node8 -->
<g id="edge10" class="edge"><title>Node2&#45;&gt;Node8</title>
<path fill="none" stroke="midnightblue" d="M257.856,-113.294C260.993,-112.837 264.107,-112.401 267.133,-112 416.25,-92.2301 457.967,-102.253 610.291,-75.8949"/>
<polygon fill="midnightblue" stroke="midnightblue" points="611.242,-79.2815 620.487,-74.1054 610.032,-72.3869 611.242,-79.2815"/>
</g>
<!-- Node9 -->
<g id="node10" class="node"><title>Node9</title>
<polygon fill="white" stroke="#bfbfbf" points="692.133,-56.5 692.133,-75.5 740.133,-75.5 740.133,-56.5 692.133,-56.5"/>
<text text-anchor="middle" x="716.133" y="-63.5" font-family="Helvetica,sans-Serif" font-size="10.00">QTimer</text>
</g>
<!-- Node2&#45;&gt;Node9 -->
<g id="edge11" class="edge"><title>Node2&#45;&gt;Node9</title>
<path fill="none" stroke="midnightblue" d="M257.848,-113.231C260.987,-112.79 264.104,-112.374 267.133,-112 450.873,-89.2963 499.749,-107.805 682.133,-76 682.235,-75.9823 682.336,-75.9644 682.438,-75.9464"/>
<polygon fill="midnightblue" stroke="midnightblue" points="683.038,-79.397 692.101,-73.9095 681.594,-72.5476 683.038,-79.397"/>
</g>
<!-- Node10 -->
<g id="node11" class="node"><title>Node10</title>
<polygon fill="white" stroke="#bfbfbf" points="377.133,-56.5 377.133,-75.5 417.133,-75.5 417.133,-56.5 377.133,-56.5"/>
<text text-anchor="middle" x="397.133" y="-63.5" font-family="Helvetica,sans-Serif" font-size="10.00">QList</text>
</g>
<!-- Node2&#45;&gt;Node10 -->
<g id="edge12" class="edge"><title>Node2&#45;&gt;Node10</title>
<path fill="none" stroke="midnightblue" d="M240.606,-112.444C275.288,-102.374 332.55,-85.7501 367.362,-75.6434"/>
<polygon fill="midnightblue" stroke="midnightblue" points="368.343,-79.0029 376.971,-72.8536 366.392,-72.2805 368.343,-79.0029"/>
</g>
<!-- Node2&#45;&gt;Node11 -->
<g id="edge13" class="edge"><title>Node2&#45;&gt;Node11</title>
<path fill="none" stroke="midnightblue" d="M183.879,-112.444C154.349,-103.172 107.116,-88.3435 74.6868,-78.1622"/>
<polygon fill="midnightblue" stroke="midnightblue" points="75.723,-74.8191 65.1338,-75.1629 73.6262,-81.4977 75.723,-74.8191"/>
</g>
<!-- Node3&#45;&gt;Node4 -->
<g id="edge4" class="edge"><title>Node3&#45;&gt;Node4</title>
<path fill="none" stroke="midnightblue" d="M321.273,-57.6502C325.953,-57.0497 330.63,-56.4875 335.133,-56 531.123,-34.7847 763.696,-20.6476 876.308,-14.4991"/>
<polygon fill="midnightblue" stroke="midnightblue" points="876.703,-17.9829 886.499,-13.9466 876.324,-10.9931 876.703,-17.9829"/>
</g>
<!-- Node3&#45;&gt;Node5 -->
<g id="edge5" class="edge"><title>Node3&#45;&gt;Node5</title>
<path fill="none" stroke="midnightblue" d="M299.546,-56.4435C328.903,-47.2801 375.653,-32.6876 408.229,-22.5192"/>
<polygon fill="midnightblue" stroke="midnightblue" points="409.346,-25.8371 417.849,-19.5164 407.26,-19.1551 409.346,-25.8371"/>
</g>
<!-- Node12&#45;&gt;Node3 -->
<g id="edge15" class="edge"><title>Node12&#45;&gt;Node3</title>
<path fill="none" stroke="midnightblue" d="M316.381,-112.083C308.664,-104.22 297.229,-92.5688 287.917,-83.0813"/>
<polygon fill="midnightblue" stroke="midnightblue" points="290.225,-80.4363 280.722,-75.7511 285.229,-85.3396 290.225,-80.4363"/>
</g>
<!-- Node12&#45;&gt;Node4 -->
<g id="edge16" class="edge"><title>Node12&#45;&gt;Node4</title>
<path fill="none" stroke="midnightblue" d="M348.378,-112.378C395.507,-94.9092 498.206,-56.9059 502.133,-56 632.448,-25.9407 788.994,-15.9567 876.462,-12.6432"/>
<polygon fill="midnightblue" stroke="midnightblue" points="876.654,-16.1386 886.521,-12.2801 876.402,-9.14319 876.654,-16.1386"/>
</g>
<!-- Node12&#45;&gt;Node5 -->
<g id="edge17" class="edge"><title>Node12&#45;&gt;Node5</title>
<path fill="none" stroke="midnightblue" d="M363.509,-112.379C384.718,-105.755 409.968,-94.505 426.133,-76 437.363,-63.1447 441.967,-43.9639 443.848,-29.7673"/>
<polygon fill="midnightblue" stroke="midnightblue" points="447.345,-29.9626 444.847,-19.6665 440.379,-29.2732 447.345,-29.9626"/>
</g>
<!-- Node12&#45;&gt;Node6 -->
<g id="edge18" class="edge"><title>Node12&#45;&gt;Node6</title>
<path fill="none" stroke="midnightblue" d="M361.894,-112.444C402.196,-103.063 466.943,-87.9926 510.718,-77.8036"/>
<polygon fill="midnightblue" stroke="midnightblue" points="511.598,-81.1924 520.544,-75.5164 510.011,-74.3746 511.598,-81.1924"/>
</g>
<!-- Node12&#45;&gt;Node7 -->
<g id="edge19" class="edge"><title>Node12&#45;&gt;Node7</title>
<path fill="none" stroke="midnightblue" d="M293.443,-112.444C259.065,-103.162 204.056,-88.3093 166.344,-78.127"/>
<polygon fill="midnightblue" stroke="midnightblue" points="167.242,-74.7442 156.676,-75.5164 165.418,-81.5022 167.242,-74.7442"/>
</g>
<!-- Node12&#45;&gt;Node8 -->
<g id="edge20" class="edge"><title>Node12&#45;&gt;Node8</title>
<path fill="none" stroke="midnightblue" d="M374.205,-114.631C429.296,-107.18 521.538,-93.8054 610.471,-75.9737"/>
<polygon fill="midnightblue" stroke="midnightblue" points="611.352,-79.3665 620.457,-73.9496 609.961,-72.5061 611.352,-79.3665"/>
</g>
<!-- Node12&#45;&gt;Node9 -->
<g id="edge21" class="edge"><title>Node12&#45;&gt;Node9</title>
<path fill="none" stroke="midnightblue" d="M374.256,-116.899C443.389,-110.653 573.136,-97.1976 682.133,-76 682.234,-75.9803 682.336,-75.9605 682.437,-75.9406"/>
<polygon fill="midnightblue" stroke="midnightblue" points="683.08,-79.3833 692.079,-73.7919 681.557,-72.5509 683.08,-79.3833"/>
</g>
<!-- Node12&#45;&gt;Node10 -->
<g id="edge22" class="edge"><title>Node12&#45;&gt;Node10</title>
<path fill="none" stroke="midnightblue" d="M336.701,-112.324C347.553,-104.185 364.014,-91.8395 377.017,-82.0874"/>
<polygon fill="midnightblue" stroke="midnightblue" points="379.455,-84.6339 385.355,-75.8339 375.255,-79.0339 379.455,-84.6339"/>
</g>
<!-- Node12&#45;&gt;Node11 -->
<g id="edge23" class="edge"><title>Node12&#45;&gt;Node11</title>
<path fill="none" stroke="midnightblue" d="M275.863,-113.278C227.279,-105.414 150.708,-92.3578 75.5664,-76.1888"/>
<polygon fill="midnightblue" stroke="midnightblue" points="75.9717,-72.6952 65.4566,-73.9923 74.4855,-79.5357 75.9717,-72.6952"/>
</g>
<!-- Node13&#45;&gt;Node4 -->
<g id="edge26" class="edge"><title>Node13&#45;&gt;Node4</title>
<path fill="none" stroke="midnightblue" d="M1303.73,-112.364C1276.9,-98.5749 1221.66,-71.558 1172.13,-56 1119.35,-39.4201 1057.69,-27.6907 1011.82,-20.3726"/>
<polygon fill="midnightblue" stroke="midnightblue" points="1012.11,-16.8759 1001.69,-18.7877 1011.03,-23.7918 1012.11,-16.8759"/>
</g>
<!-- Node14&#45;&gt;Node4 -->
<g id="edge29" class="edge"><title>Node14&#45;&gt;Node4</title>
<path fill="none" stroke="midnightblue" d="M567.851,-172.108C717.113,-161.405 1057.98,-136.5 1062.13,-132 1099.39,-91.6449 1019.08,-45.6127 973.205,-23.7811"/>
<polygon fill="midnightblue" stroke="midnightblue" points="974.538,-20.541 963.994,-19.5005 971.588,-26.889 974.538,-20.541"/>
</g>
<!-- Node14&#45;&gt;Node5 -->
<g id="edge30" class="edge"><title>Node14&#45;&gt;Node5</title>
<path fill="none" stroke="midnightblue" d="M430.48,-174.732C305.109,-168.841 47.9289,-148.042 4.13328,-76 -0.484168,-68.4045 -1.82455,-62.5967 4.13328,-56 29.738,-27.6496 280.905,-16.2065 392.344,-12.4983"/>
<polygon fill="midnightblue" stroke="midnightblue" points="392.48,-15.9958 402.361,-12.1733 392.253,-8.9995 392.48,-15.9958"/>
</g>
<!-- Node14&#45;&gt;Node6 -->
<g id="edge31" class="edge"><title>Node14&#45;&gt;Node6</title>
<path fill="none" stroke="midnightblue" d="M488.47,-168.383C474.16,-155.74 451.877,-131.545 464.133,-112 474.01,-96.2481 491.136,-85.8746 508.021,-79.1065"/>
<polygon fill="midnightblue" stroke="midnightblue" points="509.675,-82.2295 517.879,-75.5247 507.284,-75.6504 509.675,-82.2295"/>
</g>
<!-- Node14&#45;&gt;Node8 -->
<g id="edge32" class="edge"><title>Node14&#45;&gt;Node8</title>
<path fill="none" stroke="midnightblue" d="M502.594,-168.234C508.418,-154.508 521.406,-127.873 540.133,-112 560.531,-94.7119 588.527,-83.2563 610.766,-76.2313"/>
<polygon fill="midnightblue" stroke="midnightblue" points="611.953,-79.5294 620.531,-73.3104 609.947,-72.8231 611.953,-79.5294"/>
</g>
<!-- Node14&#45;&gt;Node9 -->
<g id="edge33" class="edge"><title>Node14&#45;&gt;Node9</title>
<path fill="none" stroke="midnightblue" d="M516.161,-168.368C553.953,-149.211 645.045,-103.036 690.059,-80.2172"/>
<polygon fill="midnightblue" stroke="midnightblue" points="691.848,-83.2347 699.185,-75.5914 688.683,-76.991 691.848,-83.2347"/>
</g>
<!-- Node14&#45;&gt;Node12 -->
<g id="edge28" class="edge"><title>Node14&#45;&gt;Node12</title>
<path fill="none" stroke="midnightblue" d="M471.562,-168.444C442.036,-159.28 395.015,-144.688 362.251,-134.519"/>
<polygon fill="midnightblue" stroke="midnightblue" points="363.163,-131.138 352.575,-131.516 361.088,-137.823 363.163,-131.138"/>
</g>
<!-- Node15&#45;&gt;Node4 -->
<g id="edge35" class="edge"><title>Node15&#45;&gt;Node4</title>
<path fill="none" stroke="midnightblue" d="M977.308,-112.368C971.473,-94.5366 957.975,-53.2953 950.113,-29.2717"/>
<polygon fill="midnightblue" stroke="midnightblue" points="953.382,-28.0067 946.945,-19.5914 946.729,-30.1841 953.382,-28.0067"/>
</g>
<!-- Node15&#45;&gt;Node5 -->
<g id="edge36" class="edge"><title>Node15&#45;&gt;Node5</title>
<path fill="none" stroke="midnightblue" d="M957.197,-112.4C919.375,-98.5387 841.318,-71.269 773.133,-56 677.167,-34.5097 562.965,-21.6444 497.77,-15.4746"/>
<polygon fill="midnightblue" stroke="midnightblue" points="498.018,-11.9827 487.737,-14.5416 497.37,-18.9526 498.018,-11.9827"/>
</g>
<!-- Node15&#45;&gt;Node6 -->
<g id="edge37" class="edge"><title>Node15&#45;&gt;Node6</title>
<path fill="none" stroke="midnightblue" d="M906.496,-112.981C834.183,-104.887 720.475,-91.5775 612.838,-76.1979"/>
<polygon fill="midnightblue" stroke="midnightblue" points="613.173,-72.7101 602.777,-74.7515 612.177,-79.6389 613.173,-72.7101"/>
</g>
<!-- Node15&#45;&gt;Node8 -->
<g id="edge38" class="edge"><title>Node15&#45;&gt;Node8</title>
<path fill="none" stroke="midnightblue" d="M911.393,-112.462C853.29,-104.816 767.681,-92.5466 683.764,-75.9575"/>
<polygon fill="midnightblue" stroke="midnightblue" points="684.298,-72.4951 673.806,-73.9667 682.926,-79.3592 684.298,-72.4951"/>
</g>
<!-- Node15&#45;&gt;Node9 -->
<g id="edge39" class="edge"><title>Node15&#45;&gt;Node9</title>
<path fill="none" stroke="midnightblue" d="M938.302,-112.444C886.288,-101.804 798.493,-83.8463 750.315,-73.9916"/>
<polygon fill="midnightblue" stroke="midnightblue" points="750.877,-70.5344 740.379,-71.9593 749.475,-77.3924 750.877,-70.5344"/>
</g>
<!-- Node16&#45;&gt;Node2 -->
<g id="edge48" class="edge"><title>Node16&#45;&gt;Node2</title>
<path fill="none" stroke="midnightblue" d="M635.56,-170.693C549.238,-163.184 403.525,-149.581 268.008,-132.042"/>
<polygon fill="midnightblue" stroke="midnightblue" points="268.223,-128.54 257.854,-130.718 267.318,-135.482 268.223,-128.54"/>
</g>
<!-- Node16&#45;&gt;Node4 -->
<g id="edge50" class="edge"><title>Node16&#45;&gt;Node4</title>
<path fill="none" stroke="midnightblue" d="M787.1,-171.538C905.727,-162.641 1122.68,-144.733 1134.13,-132 1158.29,-105.133 1122.23,-75.0764 1096.13,-56 1071.49,-37.9853 1039.66,-27.1335 1011.51,-20.6194"/>
<polygon fill="midnightblue" stroke="midnightblue" points="1012.24,-17.1958 1001.72,-18.4916 1010.75,-24.036 1012.24,-17.1958"/>
</g>
<!-- Node16&#45;&gt;Node5 -->
<g id="edge51" class="edge"><title>Node16&#45;&gt;Node5</title>
<path fill="none" stroke="midnightblue" d="M786.894,-172.536C884.617,-165.992 1044.25,-152.322 1062.13,-132 1068.01,-125.327 1067.65,-118.971 1062.13,-112 992.635,-24.1669 634.217,-12.3094 497.868,-11.0129"/>
<polygon fill="midnightblue" stroke="midnightblue" points="497.7,-7.51151 487.672,-10.9319 497.644,-14.5113 497.7,-7.51151"/>
</g>
<!-- Node16&#45;&gt;Node6 -->
<g id="edge49" class="edge"><title>Node16&#45;&gt;Node6</title>
<path fill="none" stroke="midnightblue" d="M699.049,-168.368C672.735,-149.573 610.009,-104.768 577.48,-81.5334"/>
<polygon fill="midnightblue" stroke="midnightblue" points="579.333,-78.5558 569.161,-75.5914 575.264,-84.2519 579.333,-78.5558"/>
</g>
<!-- Node16&#45;&gt;Node8 -->
<g id="edge52" class="edge"><title>Node16&#45;&gt;Node8</title>
<path fill="none" stroke="midnightblue" d="M705.37,-168.499C699.367,-159.543 689.786,-144.967 682.133,-132 672.789,-116.168 662.928,-97.6714 656.063,-84.4664"/>
<polygon fill="midnightblue" stroke="midnightblue" points="659.15,-82.8153 651.455,-75.5318 652.928,-86.0238 659.15,-82.8153"/>
</g>
<!-- Node16&#45;&gt;Node9 -->
<g id="edge53" class="edge"><title>Node16&#45;&gt;Node9</title>
<path fill="none" stroke="midnightblue" d="M704.123,-168.295C695.052,-155.942 681.088,-132.541 687.133,-112 690.146,-101.765 696.288,-91.6599 702.147,-83.627"/>
<polygon fill="midnightblue" stroke="midnightblue" points="705.065,-85.5773 708.46,-75.5413 699.547,-81.2694 705.065,-85.5773"/>
</g>
<!-- Node16&#45;&gt;Node11 -->
<g id="edge54" class="edge"><title>Node16&#45;&gt;Node11</title>
<path fill="none" stroke="midnightblue" d="M635.6,-171.744C488.893,-161.417 177.728,-138.885 155.133,-132 135.988,-126.167 89.559,-98.4144 61.5906,-81.1126"/>
<polygon fill="midnightblue" stroke="midnightblue" points="63.2191,-78.0037 52.8795,-75.6924 59.521,-83.9471 63.2191,-78.0037"/>
</g>
<!-- Node16&#45;&gt;Node13 -->
<g id="edge47" class="edge"><title>Node16&#45;&gt;Node13</title>
<path fill="none" stroke="midnightblue" d="M786.821,-171.469C888.357,-163.859 1074.55,-149.241 1244.18,-132.063"/>
<polygon fill="midnightblue" stroke="midnightblue" points="1244.7,-135.528 1254.3,-131.034 1243.99,-128.564 1244.7,-135.528"/>
</g>
<!-- Node16&#45;&gt;Node17 -->
<g id="edge41" class="edge"><title>Node16&#45;&gt;Node17</title>
<path fill="none" stroke="midnightblue" d="M724.147,-168.324C736.665,-159.979 755.815,-147.212 770.605,-137.352"/>
<polygon fill="midnightblue" stroke="midnightblue" points="772.772,-140.114 779.152,-131.655 768.89,-134.289 772.772,-140.114"/>
</g>
<!-- Node16&#45;&gt;Node18 -->
<g id="edge55" class="edge"><title>Node16&#45;&gt;Node18</title>
<path fill="none" stroke="midnightblue" d="M786.983,-172.618C878.664,-166.626 1037.42,-154.024 1172.13,-132 1173.41,-131.792 1174.7,-131.567 1176,-131.328"/>
<polygon fill="midnightblue" stroke="midnightblue" points="1176.95,-134.708 1186.05,-129.291 1175.56,-127.847 1176.95,-134.708"/>
</g>
<!-- Node17&#45;&gt;Node4 -->
<g id="edge42" class="edge"><title>Node17&#45;&gt;Node4</title>
<path fill="none" stroke="midnightblue" d="M804.06,-112.368C830.033,-93.5728 891.944,-48.7684 924.051,-25.5334"/>
<polygon fill="midnightblue" stroke="midnightblue" points="926.212,-28.2896 932.261,-19.5914 922.108,-22.6187 926.212,-28.2896"/>
</g>
<!-- Node17&#45;&gt;Node5 -->
<g id="edge43" class="edge"><title>Node17&#45;&gt;Node5</title>
<path fill="none" stroke="midnightblue" d="M789.009,-112.108C783.445,-97.7013 770.367,-69.5099 749.133,-56 708.452,-30.1163 573.671,-18.3502 497.948,-13.6694"/>
<polygon fill="midnightblue" stroke="midnightblue" points="497.862,-10.1581 487.671,-13.0552 497.445,-17.1457 497.862,-10.1581"/>
</g>
<!-- Node17&#45;&gt;Node6 -->
<g id="edge44" class="edge"><title>Node17&#45;&gt;Node6</title>
<path fill="none" stroke="midnightblue" d="M754.897,-112.444C714.074,-103.063 648.49,-87.9926 604.149,-77.8036"/>
<polygon fill="midnightblue" stroke="midnightblue" points="604.725,-74.3449 594.196,-75.5164 603.158,-81.1671 604.725,-74.3449"/>
</g>
<!-- Node17&#45;&gt;Node8 -->
<g id="edge45" class="edge"><title>Node17&#45;&gt;Node8</title>
<path fill="none" stroke="midnightblue" d="M769.158,-112.444C744.976,-103.438 706.715,-89.1891 679.487,-79.049"/>
<polygon fill="midnightblue" stroke="midnightblue" points="680.594,-75.7265 670.001,-75.5164 678.151,-82.2864 680.594,-75.7265"/>
</g>
<!-- Node17&#45;&gt;Node9 -->
<g id="edge46" class="edge"><title>Node17&#45;&gt;Node9</title>
<path fill="none" stroke="midnightblue" d="M779.923,-112.324C768.357,-104.107 750.758,-91.6017 736.973,-81.8069"/>
<polygon fill="midnightblue" stroke="midnightblue" points="738.745,-78.7729 728.566,-75.8339 734.691,-84.4791 738.745,-78.7729"/>
</g>
<!-- Node20 -->
<g id="node21" class="node"><title>Node20</title>
<polygon fill="white" stroke="#bfbfbf" points="1403.63,-112.5 1403.63,-131.5 1458.63,-131.5 1458.63,-112.5 1403.63,-112.5"/>
<text text-anchor="middle" x="1431.13" y="-119.5" font-family="Helvetica,sans-Serif" font-size="10.00">QWidget</text>
</g>
<!-- Node19&#45;&gt;Node20 -->
<g id="edge57" class="edge"><title>Node19&#45;&gt;Node20</title>
<path fill="none" stroke="midnightblue" d="M1114.44,-168.464C1197.82,-158.842 1328.06,-143.273 1393.41,-131.906"/>
<polygon fill="midnightblue" stroke="midnightblue" points="1394.1,-135.337 1403.33,-130.119 1392.86,-128.448 1394.1,-135.337"/>
</g>
<!-- Node19&#45;&gt;Node21 -->
<g id="edge58" class="edge"><title>Node19&#45;&gt;Node21</title>
<path fill="none" stroke="midnightblue" d="M1120.98,-168.841C1124.07,-168.553 1127.13,-168.272 1130.13,-168 1321.43,-150.68 1372.23,-152.568 1567.31,-132.039"/>
<polygon fill="midnightblue" stroke="midnightblue" points="1567.74,-135.513 1577.31,-130.98 1567,-128.552 1567.74,-135.513"/>
</g>
<!-- Node22 -->
<g id="node23" class="node"><title>Node22</title>
<polygon fill="white" stroke="#bfbfbf" points="1477.13,-112.5 1477.13,-131.5 1559.13,-131.5 1559.13,-112.5 1477.13,-112.5"/>
<text text-anchor="middle" x="1518.13" y="-119.5" font-family="Helvetica,sans-Serif" font-size="10.00">QGraphicsItem</text>
</g>
<!-- Node19&#45;&gt;Node22 -->
<g id="edge59" class="edge"><title>Node19&#45;&gt;Node22</title>
<path fill="none" stroke="midnightblue" d="M1121.1,-168.695C1228.38,-157.779 1408.65,-139.269 1466.77,-131.88"/>
<polygon fill="midnightblue" stroke="midnightblue" points="1467.53,-135.31 1476.98,-130.517 1466.6,-128.371 1467.53,-135.31"/>
</g>
<!-- Node24 -->
<g id="node25" class="node"><title>Node24</title>
<polygon fill="white" stroke="#bfbfbf" points="1780.13,-112.5 1780.13,-131.5 1822.13,-131.5 1822.13,-112.5 1780.13,-112.5"/>
<text text-anchor="middle" x="1801.13" y="-119.5" font-family="Helvetica,sans-Serif" font-size="10.00">vector</text>
</g>
<!-- Node23&#45;&gt;Node24 -->
<g id="edge62" class="edge"><title>Node23&#45;&gt;Node24</title>
<path fill="none" stroke="midnightblue" d="M1745.74,-168.324C1755.59,-160.263 1770.48,-148.077 1782.35,-138.369"/>
<polygon fill="midnightblue" stroke="midnightblue" points="1784.81,-140.875 1790.34,-131.834 1780.38,-135.457 1784.81,-140.875"/>
</g>
<!-- Node25 -->
<g id="node26" class="node"><title>Node25</title>
<polygon fill="white" stroke="#bfbfbf" points="1714.63,-112.5 1714.63,-131.5 1761.63,-131.5 1761.63,-112.5 1714.63,-112.5"/>
<text text-anchor="middle" x="1738.13" y="-119.5" font-family="Helvetica,sans-Serif" font-size="10.00">QPoint</text>
</g>
<!-- Node23&#45;&gt;Node25 -->
<g id="edge63" class="edge"><title>Node23&#45;&gt;Node25</title>
<path fill="none" stroke="midnightblue" d="M1735.63,-168.083C1736.02,-161.006 1736.59,-150.861 1737.08,-141.986"/>
<polygon fill="midnightblue" stroke="midnightblue" points="1740.59,-141.93 1737.65,-131.751 1733.6,-141.542 1740.59,-141.93"/>
</g>
</g>
</svg>
        <g id="navigator" transform="translate(0 0)" fill="#404254">
                <rect fill="#f2f5e9" fill-opacity="0.5" stroke="#606060" stroke-width=".5" x="0" y="0" width="60" height="60"/>
                <use id="zoomplus" xlink:href="#zoomPlus" x="17" y="9" onmousedown="handleZoom(evt,'in')"/>
                <use id="zoomminus" xlink:href="#zoomMin" x="42" y="9" onmousedown="handleZoom(evt,'out')"/>
                <use id="reset" xlink:href="#resetDef" x="30" y="36" onmousedown="handleReset()"/>
                <g id="arrowUp" xlink:href="#dirArrow" transform="translate(30 24)" onmousedown="handlePan(0,-1)">
                  <use xlink:href="#rim" fill="#404040">
                        <set attributeName="fill" to="#808080" begin="arrowUp.mouseover" end="arrowUp.mouseout"/>
                  </use>
                  <path fill="none" stroke="white" stroke-width="1.5" d="M0,-3.0v7 M-2.5,-0.5L0,-3.0L2.5,-0.5"/>
                </g>
                <g id="arrowRight" xlink:href="#dirArrow" transform="rotate(90) translate(36 -43)" onmousedown="handlePan(1,0)">
                  <use xlink:href="#rim" fill="#404040">
                        <set attributeName="fill" to="#808080" begin="arrowRight.mouseover" end="arrowRight.mouseout"/>
                  </use>
                  <path fill="none" stroke="white" stroke-width="1.5" d="M0,-3.0v7 M-2.5,-0.5L0,-3.0L2.5,-0.5"/>
                </g>
                <g id="arrowDown" xlink:href="#dirArrow" transform="rotate(180) translate(-30 -48)" onmousedown="handlePan(0,1)">
                  <use xlink:href="#rim" fill="#404040">
                        <set attributeName="fill" to="#808080" begin="arrowDown.mouseover" end="arrowDown.mouseout"/>
                  </use>
                  <path fill="none" stroke="white" stroke-width="1.5" d="M0,-3.0v7 M-2.5,-0.5L0,-3.0L2.5,-0.5"/>
                </g>
                <g id="arrowLeft" xlink:href="#dirArrow" transform="rotate(270) translate(-36 17)" onmousedown="handlePan(-1,0)">
                  <use xlink:href="#rim" fill="#404040">
                        <set attributeName="fill" to="#808080" begin="arrowLeft.mouseover" end="arrowLeft.mouseout"/>
                  </use>
                  <path fill="none" stroke="white" stroke-width="1.5" d="M0,-3.0v7 M-2.5,-0.5L0,-3.0L2.5,-0.5"/>
                </g>
        </g>
        <svg viewBox="0 0 15 15" width="100%" height="30px" preserveAspectRatio="xMaxYMin meet">
         <g id="arrow_out" transform="scale(0.3 0.3)">
          <a xlink:href="actionscene_8cc__incl_org.svg" target="_base">
           <rect id="button" ry="5" rx="5" y="6" x="6" height="38" width="38"
                fill="#f2f5e9" fill-opacity="0.5" stroke="#606060" stroke-width="1.0"/>
           <path id="arrow"
             d="M 11.500037,31.436501 C 11.940474,20.09759 22.043105,11.32322 32.158766,21.979434 L 37.068811,17.246167 C 37.068811,17.246167 37.088388,32 37.088388,32 L 22.160133,31.978069 C 22.160133,31.978069 26.997745,27.140456 26.997745,27.140456 C 18.528582,18.264221 13.291696,25.230495 11.500037,31.436501 z"
             style="fill:#404040;"/>
          </a>
         </g>
        </svg>
</svg>
