<?xml version="1.0" encoding="UTF-8" standalone="no"?>
<!DOCTYPE svg PUBLIC "-//W3C//DTD SVG 1.1//EN"
 "http://www.w3.org/Graphics/SVG/1.1/DTD/svg11.dtd">
<!-- Generated by graphviz version 2.38.0 (20140413.2041)
 -->
<!-- Title: View/actionscenefeet.hh Pages: 1 -->
<svg width="754pt" height="308pt"
 viewBox="0.00 0.00 753.50 308.00" xmlns="http://www.w3.org/2000/svg" xmlns:xlink="http://www.w3.org/1999/xlink">
<g id="graph0" class="graph" transform="scale(1 1) rotate(0) translate(4 304)">
<title>View/actionscenefeet.hh</title>
<polygon fill="white" stroke="none" points="-4,4 -4,-304 749.5,-304 749.5,4 -4,4"/>
<!-- Node3 -->
<g id="node1" class="node"><title>Node3</title>
<polygon fill="#bfbfbf" stroke="black" points="360.5,-280.5 360.5,-299.5 482.5,-299.5 482.5,-280.5 360.5,-280.5"/>
<text text-anchor="middle" x="421.5" y="-287.5" font-family="Helvetica,sans-Serif" font-size="10.00">View/actionscenefeet.hh</text>
</g>
<!-- Node4 -->
<g id="node2" class="node"><title>Node4</title>
<g id="a_node2"><a xlink:href="actionscenepc_8hh.html" target="_top" xlink:title="View/actionscenepc.hh">
<polygon fill="white" stroke="black" points="189,-224.5 189,-243.5 306,-243.5 306,-224.5 189,-224.5"/>
<text text-anchor="middle" x="247.5" y="-231.5" font-family="Helvetica,sans-Serif" font-size="10.00">View/actionscenepc.hh</text>
</a>
</g>
</g>
<!-- Node3&#45;&gt;Node4 -->
<g id="edge1" class="edge"><title>Node3&#45;&gt;Node4</title>
<path fill="none" stroke="midnightblue" d="M384.239,-277.436C351.433,-267.255 304.417,-252.664 274.942,-243.516"/>
<polygon fill="midnightblue" stroke="midnightblue" points="383.341,-280.822 393.929,-280.444 385.416,-274.137 383.341,-280.822"/>
</g>
<!-- Node5 -->
<g id="node3" class="node"><title>Node5</title>
<g id="a_node3"><a xlink:href="actionscene_8hh.html" target="_top" xlink:title="View/actionscene.hh">
<polygon fill="white" stroke="black" points="321,-112.5 321,-131.5 428,-131.5 428,-112.5 321,-112.5"/>
<text text-anchor="middle" x="374.5" y="-119.5" font-family="Helvetica,sans-Serif" font-size="10.00">View/actionscene.hh</text>
</a>
</g>
</g>
<!-- Node3&#45;&gt;Node5 -->
<g id="edge17" class="edge"><title>Node3&#45;&gt;Node5</title>
<path fill="none" stroke="midnightblue" d="M410.252,-271.891C405.358,-263.741 399.961,-253.677 396.5,-244 382.047,-203.591 376.728,-152.044 375.109,-131.76"/>
<polygon fill="midnightblue" stroke="midnightblue" points="407.339,-273.834 415.621,-280.442 413.268,-270.112 407.339,-273.834"/>
</g>
<!-- Node13 -->
<g id="node11" class="node"><title>Node13</title>
<g id="a_node11"><a xlink:href="actionscenenpc_8hh.html" target="_top" xlink:title="View/actionscenenpc.hh">
<polygon fill="white" stroke="black" points="405.5,-224.5 405.5,-243.5 527.5,-243.5 527.5,-224.5 405.5,-224.5"/>
<text text-anchor="middle" x="466.5" y="-231.5" font-family="Helvetica,sans-Serif" font-size="10.00">View/actionscenenpc.hh</text>
</a>
</g>
</g>
<!-- Node3&#45;&gt;Node13 -->
<g id="edge11" class="edge"><title>Node3&#45;&gt;Node13</title>
<path fill="none" stroke="midnightblue" d="M435.547,-272.144C443.387,-262.736 452.829,-251.405 459.207,-243.751"/>
<polygon fill="midnightblue" stroke="midnightblue" points="432.644,-270.16 428.931,-280.083 438.021,-274.641 432.644,-270.16"/>
</g>
<!-- Node17 -->
<g id="node15" class="node"><title>Node17</title>
<g id="a_node15"><a xlink:href="actionscenefeet_8cc.html" target="_top" xlink:title="View/actionscenefeet.cc">
<polygon fill="white" stroke="black" points="545.5,-224.5 545.5,-243.5 667.5,-243.5 667.5,-224.5 545.5,-224.5"/>
<text text-anchor="middle" x="606.5" y="-231.5" font-family="Helvetica,sans-Serif" font-size="10.00">View/actionscenefeet.cc</text>
</a>
</g>
</g>
<!-- Node3&#45;&gt;Node17 -->
<g id="edge18" class="edge"><title>Node3&#45;&gt;Node17</title>
<path fill="none" stroke="midnightblue" d="M460.666,-277.568C495.565,-267.381 545.849,-252.703 577.323,-243.516"/>
<polygon fill="midnightblue" stroke="midnightblue" points="459.433,-274.282 450.814,-280.444 461.394,-281.001 459.433,-274.282"/>
</g>
<!-- Node4&#45;&gt;Node5 -->
<g id="edge2" class="edge"><title>Node4&#45;&gt;Node5</title>
<path fill="none" stroke="midnightblue" d="M232.76,-216.47C222.197,-202.539 211.596,-182.6 222.5,-168 244.979,-137.902 286.701,-127.107 320.754,-123.587"/>
<polygon fill="midnightblue" stroke="midnightblue" points="230.098,-218.744 239.14,-224.266 235.516,-214.31 230.098,-218.744"/>
</g>
<!-- Node10 -->
<g id="node8" class="node"><title>Node10</title>
<g id="a_node8"><a xlink:href="actionsceneenemyprojectile_8hh.html" target="_top" xlink:title="View/actionsceneenemyprojectile.hh">
<polygon fill="white" stroke="black" points="0,-168.5 0,-187.5 175,-187.5 175,-168.5 0,-168.5"/>
<text text-anchor="middle" x="87.5" y="-175.5" font-family="Helvetica,sans-Serif" font-size="10.00">View/actionsceneenemyprojectile.hh</text>
</a>
</g>
</g>
<!-- Node4&#45;&gt;Node10 -->
<g id="edge7" class="edge"><title>Node4&#45;&gt;Node10</title>
<path fill="none" stroke="midnightblue" d="M212.454,-221.172C182.326,-211.004 139.604,-196.585 112.734,-187.516"/>
<polygon fill="midnightblue" stroke="midnightblue" points="211.553,-224.562 222.148,-224.444 213.792,-217.929 211.553,-224.562"/>
</g>
<!-- Node12 -->
<g id="node10" class="node"><title>Node12</title>
<g id="a_node10"><a xlink:href="actionscenepc_8cc.html" target="_top" xlink:title="View/actionscenepc.cc">
<polygon fill="white" stroke="black" points="232,-168.5 232,-187.5 349,-187.5 349,-168.5 232,-168.5"/>
<text text-anchor="middle" x="290.5" y="-175.5" font-family="Helvetica,sans-Serif" font-size="10.00">View/actionscenepc.cc</text>
</a>
</g>
</g>
<!-- Node4&#45;&gt;Node12 -->
<g id="edge10" class="edge"><title>Node4&#45;&gt;Node12</title>
<path fill="none" stroke="midnightblue" d="M260.922,-216.144C268.414,-206.736 277.437,-195.405 283.532,-187.751"/>
<polygon fill="midnightblue" stroke="midnightblue" points="258.092,-214.08 254.601,-224.083 263.568,-218.44 258.092,-214.08"/>
</g>
<!-- Node6 -->
<g id="node4" class="node"><title>Node6</title>
<g id="a_node4"><a xlink:href="view_8hh.html" target="_top" xlink:title="View/view.hh">
<polygon fill="white" stroke="black" points="284.5,-56.5 284.5,-75.5 356.5,-75.5 356.5,-56.5 284.5,-56.5"/>
<text text-anchor="middle" x="320.5" y="-63.5" font-family="Helvetica,sans-Serif" font-size="10.00">View/view.hh</text>
</a>
</g>
</g>
<!-- Node5&#45;&gt;Node6 -->
<g id="edge3" class="edge"><title>Node5&#45;&gt;Node6</title>
<path fill="none" stroke="midnightblue" d="M358.502,-105.002C348.933,-95.4329 337.139,-83.6389 329.251,-75.7511"/>
<polygon fill="midnightblue" stroke="midnightblue" points="356.037,-107.487 365.583,-112.083 360.987,-102.537 356.037,-107.487"/>
</g>
<!-- Node9 -->
<g id="node7" class="node"><title>Node9</title>
<g id="a_node7"><a xlink:href="actionscene_8cc.html" target="_top" xlink:title="View/actionscene.cc">
<polygon fill="white" stroke="black" points="375,-56.5 375,-75.5 482,-75.5 482,-56.5 375,-56.5"/>
<text text-anchor="middle" x="428.5" y="-63.5" font-family="Helvetica,sans-Serif" font-size="10.00">View/actionscene.cc</text>
</a>
</g>
</g>
<!-- Node5&#45;&gt;Node9 -->
<g id="edge6" class="edge"><title>Node5&#45;&gt;Node9</title>
<path fill="none" stroke="midnightblue" d="M390.498,-105.002C400.067,-95.4329 411.861,-83.6389 419.749,-75.7511"/>
<polygon fill="midnightblue" stroke="midnightblue" points="388.013,-102.537 383.417,-112.083 392.963,-107.487 388.013,-102.537"/>
</g>
<!-- Node7 -->
<g id="node5" class="node"><title>Node7</title>
<g id="a_node5"><a xlink:href="main_8cc.html" target="_top" xlink:title="main.cc">
<polygon fill="white" stroke="black" points="255,-0.5 255,-19.5 306,-19.5 306,-0.5 255,-0.5"/>
<text text-anchor="middle" x="280.5" y="-7.5" font-family="Helvetica,sans-Serif" font-size="10.00">main.cc</text>
</a>
</g>
</g>
<!-- Node6&#45;&gt;Node7 -->
<g id="edge4" class="edge"><title>Node6&#45;&gt;Node7</title>
<path fill="none" stroke="midnightblue" d="M307.8,-47.8554C300.874,-38.5048 292.594,-27.3265 286.982,-19.7511"/>
<polygon fill="midnightblue" stroke="midnightblue" points="305.13,-50.1307 313.895,-56.083 310.755,-45.9641 305.13,-50.1307"/>
</g>
<!-- Node8 -->
<g id="node6" class="node"><title>Node8</title>
<g id="a_node6"><a xlink:href="view_8cc.html" target="_top" xlink:title="View/view.cc">
<polygon fill="white" stroke="black" points="324.5,-0.5 324.5,-19.5 396.5,-19.5 396.5,-0.5 324.5,-0.5"/>
<text text-anchor="middle" x="360.5" y="-7.5" font-family="Helvetica,sans-Serif" font-size="10.00">View/view.cc</text>
</a>
</g>
</g>
<!-- Node6&#45;&gt;Node8 -->
<g id="edge5" class="edge"><title>Node6&#45;&gt;Node8</title>
<path fill="none" stroke="midnightblue" d="M333.2,-47.8554C340.126,-38.5048 348.406,-27.3265 354.018,-19.7511"/>
<polygon fill="midnightblue" stroke="midnightblue" points="330.245,-45.9641 327.105,-56.083 335.87,-50.1307 330.245,-45.9641"/>
</g>
<!-- Node10&#45;&gt;Node5 -->
<g id="edge8" class="edge"><title>Node10&#45;&gt;Node5</title>
<path fill="none" stroke="midnightblue" d="M143.108,-166.537C197.349,-156.332 278.838,-140.999 329.237,-131.516"/>
<polygon fill="midnightblue" stroke="midnightblue" points="142.156,-163.155 132.976,-168.444 143.451,-170.034 142.156,-163.155"/>
</g>
<!-- Node11 -->
<g id="node9" class="node"><title>Node11</title>
<g id="a_node9"><a xlink:href="actionsceneenemyprojectile_8cc.html" target="_top" xlink:title="View/actionsceneenemyprojectile.cc">
<polygon fill="white" stroke="black" points="0,-112.5 0,-131.5 175,-131.5 175,-112.5 0,-112.5"/>
<text text-anchor="middle" x="87.5" y="-119.5" font-family="Helvetica,sans-Serif" font-size="10.00">View/actionsceneenemyprojectile.cc</text>
</a>
</g>
</g>
<!-- Node10&#45;&gt;Node11 -->
<g id="edge9" class="edge"><title>Node10&#45;&gt;Node11</title>
<path fill="none" stroke="midnightblue" d="M87.5,-157.805C87.5,-148.91 87.5,-138.78 87.5,-131.751"/>
<polygon fill="midnightblue" stroke="midnightblue" points="84.0001,-158.083 87.5,-168.083 91.0001,-158.083 84.0001,-158.083"/>
</g>
<!-- Node13&#45;&gt;Node5 -->
<g id="edge12" class="edge"><title>Node13&#45;&gt;Node5</title>
<path fill="none" stroke="midnightblue" d="M452.772,-216.586C432.937,-192.871 396.972,-149.869 381.686,-131.591"/>
<polygon fill="midnightblue" stroke="midnightblue" points="450.181,-218.943 459.281,-224.368 455.55,-214.452 450.181,-218.943"/>
</g>
<!-- Node14 -->
<g id="node12" class="node"><title>Node14</title>
<g id="a_node12"><a xlink:href="actionscenebigexplosion_8hh.html" target="_top" xlink:title="View/actionscenebigexplosion.hh">
<polygon fill="white" stroke="black" points="444,-168.5 444,-187.5 605,-187.5 605,-168.5 444,-168.5"/>
<text text-anchor="middle" x="524.5" y="-175.5" font-family="Helvetica,sans-Serif" font-size="10.00">View/actionscenebigexplosion.hh</text>
</a>
</g>
</g>
<!-- Node13&#45;&gt;Node14 -->
<g id="edge13" class="edge"><title>Node13&#45;&gt;Node14</title>
<path fill="none" stroke="midnightblue" d="M483.413,-217.253C493.703,-207.673 506.466,-195.791 515.012,-187.834"/>
<polygon fill="midnightblue" stroke="midnightblue" points="480.753,-214.948 475.819,-224.324 485.523,-220.071 480.753,-214.948"/>
</g>
<!-- Node16 -->
<g id="node14" class="node"><title>Node16</title>
<g id="a_node14"><a xlink:href="actionscenenpc_8cc.html" target="_top" xlink:title="View/actionscenenpc.cc">
<polygon fill="white" stroke="black" points="623.5,-168.5 623.5,-187.5 745.5,-187.5 745.5,-168.5 623.5,-168.5"/>
<text text-anchor="middle" x="684.5" y="-175.5" font-family="Helvetica,sans-Serif" font-size="10.00">View/actionscenenpc.cc</text>
</a>
</g>
</g>
<!-- Node13&#45;&gt;Node16 -->
<g id="edge16" class="edge"><title>Node13&#45;&gt;Node16</title>
<path fill="none" stroke="midnightblue" d="M510.812,-222.024C551.992,-211.823 612.473,-196.841 650.119,-187.516"/>
<polygon fill="midnightblue" stroke="midnightblue" points="509.908,-218.642 501.043,-224.444 511.591,-225.436 509.908,-218.642"/>
</g>
<!-- Node14&#45;&gt;Node5 -->
<g id="edge14" class="edge"><title>Node14&#45;&gt;Node5</title>
<path fill="none" stroke="midnightblue" d="M491.275,-165.039C463.052,-154.879 423.238,-140.546 398.157,-131.516"/>
<polygon fill="midnightblue" stroke="midnightblue" points="490.138,-168.349 500.732,-168.444 492.509,-161.763 490.138,-168.349"/>
</g>
<!-- Node15 -->
<g id="node13" class="node"><title>Node15</title>
<g id="a_node13"><a xlink:href="actionscenebigexplosion_8cc.html" target="_top" xlink:title="View/actionscenebigexplosion.cc">
<polygon fill="white" stroke="black" points="446,-112.5 446,-131.5 607,-131.5 607,-112.5 446,-112.5"/>
<text text-anchor="middle" x="526.5" y="-119.5" font-family="Helvetica,sans-Serif" font-size="10.00">View/actionscenebigexplosion.cc</text>
</a>
</g>
</g>
<!-- Node14&#45;&gt;Node15 -->
<g id="edge15" class="edge"><title>Node14&#45;&gt;Node15</title>
<path fill="none" stroke="midnightblue" d="M525.211,-157.805C525.54,-148.91 525.916,-138.78 526.176,-131.751"/>
<polygon fill="midnightblue" stroke="midnightblue" points="521.703,-157.96 524.83,-168.083 528.698,-158.219 521.703,-157.96"/>
</g>
</g>
</svg>
