<?xml version="1.0" encoding="UTF-8" standalone="no"?>
<!DOCTYPE svg PUBLIC "-//W3C//DTD SVG 1.1//EN"
 "http://www.w3.org/Graphics/SVG/1.1/DTD/svg11.dtd">
<!-- Generated by graphviz version 2.38.0 (20140413.2041)
 -->
<!-- Title: View/actionscenenpc.cc Pages: 1 -->
<svg width="699pt" height="196pt"
 viewBox="0.00 0.00 698.50 196.00" xmlns="http://www.w3.org/2000/svg" xmlns:xlink="http://www.w3.org/1999/xlink">
<g id="graph0" class="graph" transform="scale(1 1) rotate(0) translate(4 192)">
<title>View/actionscenenpc.cc</title>
<polygon fill="white" stroke="none" points="-4,4 -4,-192 694.5,-192 694.5,4 -4,4"/>
<!-- Node0 -->
<g id="node1" class="node"><title>Node0</title>
<polygon fill="#bfbfbf" stroke="black" points="321.5,-168.5 321.5,-187.5 443.5,-187.5 443.5,-168.5 321.5,-168.5"/>
<text text-anchor="middle" x="382.5" y="-175.5" font-family="Helvetica,sans-Serif" font-size="10.00">View/actionscenenpc.cc</text>
</g>
<!-- Node1 -->
<g id="node2" class="node"><title>Node1</title>
<g id="a_node2"><a xlink:href="actionscenenpc_8hh.html" target="_top" xlink:title="actionscenenpc.hh">
<polygon fill="white" stroke="black" points="333.5,-112.5 333.5,-131.5 431.5,-131.5 431.5,-112.5 333.5,-112.5"/>
<text text-anchor="middle" x="382.5" y="-119.5" font-family="Helvetica,sans-Serif" font-size="10.00">actionscenenpc.hh</text>
</a>
</g>
</g>
<!-- Node0&#45;&gt;Node1 -->
<g id="edge1" class="edge"><title>Node0&#45;&gt;Node1</title>
<path fill="none" stroke="midnightblue" d="M382.5,-168.083C382.5,-161.006 382.5,-150.861 382.5,-141.986"/>
<polygon fill="midnightblue" stroke="midnightblue" points="386,-141.751 382.5,-131.751 379,-141.751 386,-141.751"/>
</g>
<!-- Node2 -->
<g id="node3" class="node"><title>Node2</title>
<g id="a_node3"><a xlink:href="actionscenefeet_8hh.html" target="_top" xlink:title="actionscenefeet.hh">
<polygon fill="white" stroke="black" points="76.5,-56.5 76.5,-75.5 174.5,-75.5 174.5,-56.5 76.5,-56.5"/>
<text text-anchor="middle" x="125.5" y="-63.5" font-family="Helvetica,sans-Serif" font-size="10.00">actionscenefeet.hh</text>
</a>
</g>
</g>
<!-- Node1&#45;&gt;Node2 -->
<g id="edge2" class="edge"><title>Node1&#45;&gt;Node2</title>
<path fill="none" stroke="midnightblue" d="M341.778,-112.444C296.851,-103.004 224.502,-87.802 176.001,-77.6111"/>
<polygon fill="midnightblue" stroke="midnightblue" points="176.538,-74.1476 166.032,-75.5164 175.098,-80.998 176.538,-74.1476"/>
</g>
<!-- Node3 -->
<g id="node4" class="node"><title>Node3</title>
<polygon fill="white" stroke="#bfbfbf" points="0,-0.5 0,-19.5 115,-19.5 115,-0.5 0,-0.5"/>
<text text-anchor="middle" x="57.5" y="-7.5" font-family="Helvetica,sans-Serif" font-size="10.00">QGraphicsPixmapItem</text>
</g>
<!-- Node1&#45;&gt;Node3 -->
<g id="edge5" class="edge"><title>Node1&#45;&gt;Node3</title>
<path fill="none" stroke="midnightblue" d="M333.235,-120.856C254.163,-119.535 104.072,-112.181 67.5,-76 55.4696,-64.0982 54.0177,-44.1891 54.9277,-29.5345"/>
<polygon fill="midnightblue" stroke="midnightblue" points="58.4109,-29.8764 55.9478,-19.5719 51.4473,-29.1633 58.4109,-29.8764"/>
</g>
<!-- Node4 -->
<g id="node5" class="node"><title>Node4</title>
<polygon fill="white" stroke="#bfbfbf" points="151,-0.5 151,-19.5 236,-19.5 236,-0.5 151,-0.5"/>
<text text-anchor="middle" x="193.5" y="-7.5" font-family="Helvetica,sans-Serif" font-size="10.00">QPixmapCache</text>
</g>
<!-- Node1&#45;&gt;Node4 -->
<g id="edge6" class="edge"><title>Node1&#45;&gt;Node4</title>
<path fill="none" stroke="midnightblue" d="M333.282,-118.021C298.695,-113.552 253.284,-102.603 222.5,-76 208.642,-64.0246 201.11,-44.1271 197.224,-29.4953"/>
<polygon fill="midnightblue" stroke="midnightblue" points="200.586,-28.5023 194.918,-19.5512 193.767,-30.0833 200.586,-28.5023"/>
</g>
<!-- Node5 -->
<g id="node6" class="node"><title>Node5</title>
<polygon fill="white" stroke="#bfbfbf" points="231,-56.5 231,-75.5 322,-75.5 322,-56.5 231,-56.5"/>
<text text-anchor="middle" x="276.5" y="-63.5" font-family="Helvetica,sans-Serif" font-size="10.00">QGraphicsScene</text>
</g>
<!-- Node1&#45;&gt;Node5 -->
<g id="edge7" class="edge"><title>Node1&#45;&gt;Node5</title>
<path fill="none" stroke="midnightblue" d="M365.469,-112.324C348.47,-103.664 322.124,-90.2424 302.507,-80.249"/>
<polygon fill="midnightblue" stroke="midnightblue" points="303.988,-77.0752 293.488,-75.6545 300.81,-83.3125 303.988,-77.0752"/>
</g>
<!-- Node6 -->
<g id="node7" class="node"><title>Node6</title>
<polygon fill="white" stroke="#bfbfbf" points="340.5,-56.5 340.5,-75.5 424.5,-75.5 424.5,-56.5 340.5,-56.5"/>
<text text-anchor="middle" x="382.5" y="-63.5" font-family="Helvetica,sans-Serif" font-size="10.00">QGraphicsView</text>
</g>
<!-- Node1&#45;&gt;Node6 -->
<g id="edge8" class="edge"><title>Node1&#45;&gt;Node6</title>
<path fill="none" stroke="midnightblue" d="M382.5,-112.083C382.5,-105.006 382.5,-94.8611 382.5,-85.9865"/>
<polygon fill="midnightblue" stroke="midnightblue" points="386,-85.751 382.5,-75.7511 379,-85.7511 386,-85.751"/>
</g>
<!-- Node7 -->
<g id="node8" class="node"><title>Node7</title>
<polygon fill="white" stroke="#bfbfbf" points="443,-56.5 443,-75.5 496,-75.5 496,-56.5 443,-56.5"/>
<text text-anchor="middle" x="469.5" y="-63.5" font-family="Helvetica,sans-Serif" font-size="10.00">QObject</text>
</g>
<!-- Node1&#45;&gt;Node7 -->
<g id="edge9" class="edge"><title>Node1&#45;&gt;Node7</title>
<path fill="none" stroke="midnightblue" d="M396.478,-112.324C410.05,-103.9 430.88,-90.9709 446.825,-81.0741"/>
<polygon fill="midnightblue" stroke="midnightblue" points="448.906,-83.9019 455.557,-75.6545 445.214,-77.9544 448.906,-83.9019"/>
</g>
<!-- Node8 -->
<g id="node9" class="node"><title>Node8</title>
<polygon fill="white" stroke="#bfbfbf" points="514.5,-56.5 514.5,-75.5 562.5,-75.5 562.5,-56.5 514.5,-56.5"/>
<text text-anchor="middle" x="538.5" y="-63.5" font-family="Helvetica,sans-Serif" font-size="10.00">QTimer</text>
</g>
<!-- Node1&#45;&gt;Node8 -->
<g id="edge10" class="edge"><title>Node1&#45;&gt;Node8</title>
<path fill="none" stroke="midnightblue" d="M407.219,-112.444C433.502,-103.345 475.247,-88.8952 504.593,-78.7372"/>
<polygon fill="midnightblue" stroke="midnightblue" points="506.105,-81.9176 514.41,-75.339 503.815,-75.3027 506.105,-81.9176"/>
</g>
<!-- Node9 -->
<g id="node10" class="node"><title>Node9</title>
<polygon fill="white" stroke="#bfbfbf" points="580.5,-56.5 580.5,-75.5 620.5,-75.5 620.5,-56.5 580.5,-56.5"/>
<text text-anchor="middle" x="600.5" y="-63.5" font-family="Helvetica,sans-Serif" font-size="10.00">QList</text>
</g>
<!-- Node1&#45;&gt;Node9 -->
<g id="edge11" class="edge"><title>Node1&#45;&gt;Node9</title>
<path fill="none" stroke="midnightblue" d="M421.788,-112.454C458.055,-104.386 513.608,-91.5759 570.403,-76.1682"/>
<polygon fill="midnightblue" stroke="midnightblue" points="571.548,-79.4838 580.269,-73.4685 569.7,-72.732 571.548,-79.4838"/>
</g>
<!-- Node10 -->
<g id="node11" class="node"><title>Node10</title>
<polygon fill="white" stroke="#bfbfbf" points="638.5,-56.5 638.5,-75.5 690.5,-75.5 690.5,-56.5 638.5,-56.5"/>
<text text-anchor="middle" x="664.5" y="-63.5" font-family="Helvetica,sans-Serif" font-size="10.00">qmath.h</text>
</g>
<!-- Node1&#45;&gt;Node10 -->
<g id="edge12" class="edge"><title>Node1&#45;&gt;Node10</title>
<path fill="none" stroke="midnightblue" d="M431.914,-113.066C479.776,-105.142 554.606,-92.123 628.263,-76.153"/>
<polygon fill="midnightblue" stroke="midnightblue" points="629.154,-79.5409 638.175,-73.9842 627.658,-72.7027 629.154,-79.5409"/>
</g>
<!-- Node2&#45;&gt;Node3 -->
<g id="edge3" class="edge"><title>Node2&#45;&gt;Node3</title>
<path fill="none" stroke="midnightblue" d="M114.575,-56.324C104.325,-48.1849 88.7794,-35.8395 76.499,-26.0874"/>
<polygon fill="midnightblue" stroke="midnightblue" points="78.6319,-23.3119 68.6242,-19.8339 74.2787,-28.7937 78.6319,-23.3119"/>
</g>
<!-- Node2&#45;&gt;Node4 -->
<g id="edge4" class="edge"><title>Node2&#45;&gt;Node4</title>
<path fill="none" stroke="midnightblue" d="M136.425,-56.324C146.675,-48.1849 162.221,-35.8395 174.501,-26.0874"/>
<polygon fill="midnightblue" stroke="midnightblue" points="176.721,-28.7937 182.376,-19.8339 172.368,-23.3119 176.721,-28.7937"/>
</g>
</g>
</svg>
