<?xml version="1.0" encoding="UTF-8" standalone="no"?>
<!DOCTYPE svg PUBLIC "-//W3C//DTD SVG 1.1//EN"
 "http://www.w3.org/Graphics/SVG/1.1/DTD/svg11.dtd">
<!-- Generated by graphviz version 2.38.0 (20140413.2041)
 -->
<!-- Title: View/actionsceneendmissiondisplay.cc Pages: 1 -->
<svg width="411pt" height="140pt"
 viewBox="0.00 0.00 410.50 140.00" xmlns="http://www.w3.org/2000/svg" xmlns:xlink="http://www.w3.org/1999/xlink">
<g id="graph0" class="graph" transform="scale(1 1) rotate(0) translate(4 136)">
<title>View/actionsceneendmissiondisplay.cc</title>
<polygon fill="white" stroke="none" points="-4,4 -4,-136 406.5,-136 406.5,4 -4,4"/>
<!-- Node0 -->
<g id="node1" class="node"><title>Node0</title>
<polygon fill="#bfbfbf" stroke="black" points="131,-112.5 131,-131.5 318,-131.5 318,-112.5 131,-112.5"/>
<text text-anchor="middle" x="224.5" y="-119.5" font-family="Helvetica,sans-Serif" font-size="10.00">View/actionsceneendmissiondisplay.cc</text>
</g>
<!-- Node1 -->
<g id="node2" class="node"><title>Node1</title>
<g id="a_node2"><a xlink:href="actionsceneendmissiondisplay_8hh.html" target="_top" xlink:title="actionsceneendmissiondisplay.hh">
<polygon fill="white" stroke="black" points="51,-56.5 51,-75.5 214,-75.5 214,-56.5 51,-56.5"/>
<text text-anchor="middle" x="132.5" y="-63.5" font-family="Helvetica,sans-Serif" font-size="10.00">actionsceneendmissiondisplay.hh</text>
</a>
</g>
</g>
<!-- Node0&#45;&gt;Node1 -->
<g id="edge1" class="edge"><title>Node0&#45;&gt;Node1</title>
<path fill="none" stroke="midnightblue" d="M209.719,-112.324C195.233,-103.822 172.927,-90.7288 156.007,-80.7975"/>
<polygon fill="midnightblue" stroke="midnightblue" points="157.641,-77.6981 147.245,-75.6545 154.097,-83.735 157.641,-77.6981"/>
</g>
<!-- Node5 -->
<g id="node6" class="node"><title>Node5</title>
<polygon fill="white" stroke="#bfbfbf" points="232.5,-56.5 232.5,-75.5 402.5,-75.5 402.5,-56.5 232.5,-56.5"/>
<text text-anchor="middle" x="317.5" y="-63.5" font-family="Helvetica,sans-Serif" font-size="10.00">ui_actionsceneendmissiondisplay.h</text>
</g>
<!-- Node0&#45;&gt;Node5 -->
<g id="edge5" class="edge"><title>Node0&#45;&gt;Node5</title>
<path fill="none" stroke="midnightblue" d="M239.442,-112.324C254.085,-103.822 276.634,-90.7288 293.738,-80.7975"/>
<polygon fill="midnightblue" stroke="midnightblue" points="295.705,-83.7027 302.595,-75.6545 292.19,-77.6491 295.705,-83.7027"/>
</g>
<!-- Node2 -->
<g id="node3" class="node"><title>Node2</title>
<polygon fill="white" stroke="#bfbfbf" points="0,-0.5 0,-19.5 55,-19.5 55,-0.5 0,-0.5"/>
<text text-anchor="middle" x="27.5" y="-7.5" font-family="Helvetica,sans-Serif" font-size="10.00">QWidget</text>
</g>
<!-- Node1&#45;&gt;Node2 -->
<g id="edge2" class="edge"><title>Node1&#45;&gt;Node2</title>
<path fill="none" stroke="midnightblue" d="M115.63,-56.324C98.7912,-47.6641 72.6935,-34.2424 53.262,-24.249"/>
<polygon fill="midnightblue" stroke="midnightblue" points="54.8218,-21.1155 44.3282,-19.6545 51.6204,-27.3405 54.8218,-21.1155"/>
</g>
<!-- Node3 -->
<g id="node4" class="node"><title>Node3</title>
<polygon fill="white" stroke="#bfbfbf" points="73,-0.5 73,-19.5 192,-19.5 192,-0.5 73,-0.5"/>
<text text-anchor="middle" x="132.5" y="-7.5" font-family="Helvetica,sans-Serif" font-size="10.00">QGraphicsProxyWidget</text>
</g>
<!-- Node1&#45;&gt;Node3 -->
<g id="edge3" class="edge"><title>Node1&#45;&gt;Node3</title>
<path fill="none" stroke="midnightblue" d="M132.5,-56.083C132.5,-49.0059 132.5,-38.8611 132.5,-29.9865"/>
<polygon fill="midnightblue" stroke="midnightblue" points="136,-29.751 132.5,-19.7511 129,-29.7511 136,-29.751"/>
</g>
<!-- Node4 -->
<g id="node5" class="node"><title>Node4</title>
<polygon fill="white" stroke="#bfbfbf" points="210.5,-0.5 210.5,-19.5 292.5,-19.5 292.5,-0.5 210.5,-0.5"/>
<text text-anchor="middle" x="251.5" y="-7.5" font-family="Helvetica,sans-Serif" font-size="10.00">QGraphicsItem</text>
</g>
<!-- Node1&#45;&gt;Node4 -->
<g id="edge4" class="edge"><title>Node1&#45;&gt;Node4</title>
<path fill="none" stroke="midnightblue" d="M151.356,-56.4435C170.766,-47.6356 201.23,-33.8116 223.465,-23.722"/>
<polygon fill="midnightblue" stroke="midnightblue" points="225.072,-26.836 232.732,-19.5164 222.18,-20.4615 225.072,-26.836"/>
</g>
</g>
</svg>
