<?xml version="1.0" encoding="UTF-8" standalone="no"?>
<!DOCTYPE svg PUBLIC "-//W3C//DTD SVG 1.1//EN"
 "http://www.w3.org/Graphics/SVG/1.1/DTD/svg11.dtd">
<!-- Generated by graphviz version 2.38.0 (20140413.2041)
 -->
<!-- Title: View/actionscene.hh Pages: 1 -->
<svg width="2272pt" height="252pt"
 viewBox="0.00 0.00 2271.69 252.00" xmlns="http://www.w3.org/2000/svg" xmlns:xlink="http://www.w3.org/1999/xlink">
<g id="graph0" class="graph" transform="scale(1 1) rotate(0) translate(4 248)">
<title>View/actionscene.hh</title>
<polygon fill="white" stroke="none" points="-4,4 -4,-248 2267.69,-248 2267.69,4 -4,4"/>
<!-- Node0 -->
<g id="node1" class="node"><title>Node0</title>
<polygon fill="#bfbfbf" stroke="black" points="1201.69,-224.5 1201.69,-243.5 1308.69,-243.5 1308.69,-224.5 1201.69,-224.5"/>
<text text-anchor="middle" x="1255.19" y="-231.5" font-family="Helvetica,sans-Serif" font-size="10.00">View/actionscene.hh</text>
</g>
<!-- Node1 -->
<g id="node2" class="node"><title>Node1</title>
<g id="a_node2"><a xlink:href="actionscenepc_8hh.html" target="_top" xlink:title="actionscenepc.hh">
<polygon fill="white" stroke="black" points="321.69,-112.5 321.69,-131.5 414.69,-131.5 414.69,-112.5 321.69,-112.5"/>
<text text-anchor="middle" x="368.19" y="-119.5" font-family="Helvetica,sans-Serif" font-size="10.00">actionscenepc.hh</text>
</a>
</g>
</g>
<!-- Node0&#45;&gt;Node1 -->
<g id="edge1" class="edge"><title>Node0&#45;&gt;Node1</title>
<path fill="none" stroke="midnightblue" d="M1201.41,-232.383C1029.25,-230.088 498.843,-220.433 429.19,-188 407.348,-177.83 389.511,-155.989 378.887,-140.435"/>
<polygon fill="midnightblue" stroke="midnightblue" points="381.613,-138.205 373.232,-131.723 375.741,-142.016 381.613,-138.205"/>
</g>
<!-- Node2 -->
<g id="node3" class="node"><title>Node2</title>
<g id="a_node3"><a xlink:href="actionscenefeet_8hh.html" target="_top" xlink:title="actionscenefeet.hh">
<polygon fill="white" stroke="black" points="223.19,-56.5 223.19,-75.5 321.19,-75.5 321.19,-56.5 223.19,-56.5"/>
<text text-anchor="middle" x="272.19" y="-63.5" font-family="Helvetica,sans-Serif" font-size="10.00">actionscenefeet.hh</text>
</a>
</g>
</g>
<!-- Node0&#45;&gt;Node2 -->
<g id="edge23" class="edge"><title>Node0&#45;&gt;Node2</title>
<path fill="none" stroke="midnightblue" d="M1201.45,-232.675C1030.96,-231.283 503.659,-224.095 337.19,-188 271.293,-173.712 234.06,-187.789 196.19,-132 181.339,-110.123 211.056,-91.2707 237.569,-79.5873"/>
<polygon fill="midnightblue" stroke="midnightblue" points="239.218,-82.6917 247.103,-75.6149 236.526,-76.2301 239.218,-82.6917"/>
</g>
<!-- Node5 -->
<g id="node6" class="node"><title>Node5</title>
<polygon fill="white" stroke="#bfbfbf" points="791.69,-56.5 791.69,-75.5 882.69,-75.5 882.69,-56.5 791.69,-56.5"/>
<text text-anchor="middle" x="837.19" y="-63.5" font-family="Helvetica,sans-Serif" font-size="10.00">QGraphicsScene</text>
</g>
<!-- Node0&#45;&gt;Node5 -->
<g id="edge64" class="edge"><title>Node0&#45;&gt;Node5</title>
<path fill="none" stroke="midnightblue" d="M1280.61,-224.468C1332.44,-205.824 1441.86,-159.318 1398.19,-112 1364.4,-75.3936 1028.43,-68.5528 893.168,-67.2844"/>
<polygon fill="midnightblue" stroke="midnightblue" points="893.045,-63.7833 883.015,-67.1962 892.984,-70.7831 893.045,-63.7833"/>
</g>
<!-- Node6 -->
<g id="node7" class="node"><title>Node6</title>
<polygon fill="white" stroke="#bfbfbf" points="121.19,-56.5 121.19,-75.5 205.19,-75.5 205.19,-56.5 121.19,-56.5"/>
<text text-anchor="middle" x="163.19" y="-63.5" font-family="Helvetica,sans-Serif" font-size="10.00">QGraphicsView</text>
</g>
<!-- Node0&#45;&gt;Node6 -->
<g id="edge65" class="edge"><title>Node0&#45;&gt;Node6</title>
<path fill="none" stroke="midnightblue" d="M1201.65,-233.271C1003.45,-233.92 318.377,-232.866 232.19,-188 192.802,-167.496 174.418,-114.152 167.172,-85.6289"/>
<polygon fill="midnightblue" stroke="midnightblue" points="170.539,-84.656 164.852,-75.7169 163.723,-86.2515 170.539,-84.656"/>
</g>
<!-- Node7 -->
<g id="node8" class="node"><title>Node7</title>
<polygon fill="white" stroke="#bfbfbf" points="511.69,-56.5 511.69,-75.5 564.69,-75.5 564.69,-56.5 511.69,-56.5"/>
<text text-anchor="middle" x="538.19" y="-63.5" font-family="Helvetica,sans-Serif" font-size="10.00">QObject</text>
</g>
<!-- Node0&#45;&gt;Node7 -->
<g id="edge67" class="edge"><title>Node0&#45;&gt;Node7</title>
<path fill="none" stroke="midnightblue" d="M1201.68,-231.89C1030.2,-228.076 503.98,-214.269 479.19,-188 449.535,-156.576 493.482,-107.434 520.191,-82.5533"/>
<polygon fill="midnightblue" stroke="midnightblue" points="522.751,-84.9574 527.825,-75.6571 518.058,-79.7627 522.751,-84.9574"/>
</g>
<!-- Node10 -->
<g id="node11" class="node"><title>Node10</title>
<polygon fill="white" stroke="#bfbfbf" points="13.1898,-56.5 13.1898,-75.5 65.1898,-75.5 65.1898,-56.5 13.1898,-56.5"/>
<text text-anchor="middle" x="39.1898" y="-63.5" font-family="Helvetica,sans-Serif" font-size="10.00">qmath.h</text>
</g>
<!-- Node0&#45;&gt;Node10 -->
<g id="edge68" class="edge"><title>Node0&#45;&gt;Node10</title>
<path fill="none" stroke="midnightblue" d="M1201.4,-232.24C1003.82,-229.229 324.853,-216.865 232.19,-188 160.402,-165.638 88.7921,-109.752 56.6914,-82.4707"/>
<polygon fill="midnightblue" stroke="midnightblue" points="58.5742,-79.4723 48.7177,-75.5863 53.9995,-84.7707 58.5742,-79.4723"/>
</g>
<!-- Node11 -->
<g id="node12" class="node"><title>Node11</title>
<g id="a_node12"><a xlink:href="actionscenenpc_8hh.html" target="_top" xlink:title="actionscenenpc.hh">
<polygon fill="white" stroke="black" points="205.19,-112.5 205.19,-131.5 303.19,-131.5 303.19,-112.5 205.19,-112.5"/>
<text text-anchor="middle" x="254.19" y="-119.5" font-family="Helvetica,sans-Serif" font-size="10.00">actionscenenpc.hh</text>
</a>
</g>
</g>
<!-- Node0&#45;&gt;Node11 -->
<g id="edge13" class="edge"><title>Node0&#45;&gt;Node11</title>
<path fill="none" stroke="midnightblue" d="M1201.54,-232.772C1038.67,-231.672 551.658,-225.269 398.19,-188 353.127,-177.057 304.779,-152.218 277.139,-136.61"/>
<polygon fill="midnightblue" stroke="midnightblue" points="278.68,-133.459 268.266,-131.512 275.193,-139.529 278.68,-133.459"/>
</g>
<!-- Node12 -->
<g id="node13" class="node"><title>Node12</title>
<g id="a_node13"><a xlink:href="actionsceneblockingtile_8hh.html" target="_top" xlink:title="actionsceneblockingtile.hh">
<polygon fill="white" stroke="black" points="1189.69,-112.5 1189.69,-131.5 1320.69,-131.5 1320.69,-112.5 1189.69,-112.5"/>
<text text-anchor="middle" x="1255.19" y="-119.5" font-family="Helvetica,sans-Serif" font-size="10.00">actionsceneblockingtile.hh</text>
</a>
</g>
</g>
<!-- Node0&#45;&gt;Node12 -->
<g id="edge24" class="edge"><title>Node0&#45;&gt;Node12</title>
<path fill="none" stroke="midnightblue" d="M1255.19,-224.368C1255.19,-206.617 1255.19,-165.666 1255.19,-141.597"/>
<polygon fill="midnightblue" stroke="midnightblue" points="1258.69,-141.591 1255.19,-131.591 1251.69,-141.591 1258.69,-141.591"/>
</g>
<!-- Node13 -->
<g id="node14" class="node"><title>Node13</title>
<g id="a_node14"><a xlink:href="actionscenebigexplosion_8hh.html" target="_top" xlink:title="actionscenebigexplosion.hh">
<polygon fill="white" stroke="black" points="488.69,-168.5 488.69,-187.5 625.69,-187.5 625.69,-168.5 488.69,-168.5"/>
<text text-anchor="middle" x="557.19" y="-175.5" font-family="Helvetica,sans-Serif" font-size="10.00">actionscenebigexplosion.hh</text>
</a>
</g>
</g>
<!-- Node0&#45;&gt;Node13 -->
<g id="edge26" class="edge"><title>Node0&#45;&gt;Node13</title>
<path fill="none" stroke="midnightblue" d="M1201.58,-228.852C1079.3,-219.392 779.296,-196.183 635.947,-185.093"/>
<polygon fill="midnightblue" stroke="midnightblue" points="636.142,-181.598 625.901,-184.316 635.602,-188.577 636.142,-181.598"/>
</g>
<!-- Node14 -->
<g id="node15" class="node"><title>Node14</title>
<g id="a_node15"><a xlink:href="actionscenesmallexplosion_8hh.html" target="_top" xlink:title="actionscenesmallexplosion.hh">
<polygon fill="white" stroke="black" points="661.69,-112.5 661.69,-131.5 808.69,-131.5 808.69,-112.5 661.69,-112.5"/>
<text text-anchor="middle" x="735.19" y="-119.5" font-family="Helvetica,sans-Serif" font-size="10.00">actionscenesmallexplosion.hh</text>
</a>
</g>
</g>
<!-- Node0&#45;&gt;Node14 -->
<g id="edge33" class="edge"><title>Node0&#45;&gt;Node14</title>
<path fill="none" stroke="midnightblue" d="M1201.66,-229.545C1133.95,-224.355 1014.11,-212.426 914.19,-188 859.675,-174.673 798.756,-150.442 763.893,-135.626"/>
<polygon fill="midnightblue" stroke="midnightblue" points="764.931,-132.263 754.362,-131.533 762.169,-138.695 764.931,-132.263"/>
</g>
<!-- Node15 -->
<g id="node16" class="node"><title>Node15</title>
<g id="a_node16"><a xlink:href="actionsceneenemyprojectile_8hh.html" target="_top" xlink:title="actionsceneenemyprojectile.hh">
<polygon fill="white" stroke="black" points="923.69,-168.5 923.69,-187.5 1074.69,-187.5 1074.69,-168.5 923.69,-168.5"/>
<text text-anchor="middle" x="999.19" y="-175.5" font-family="Helvetica,sans-Serif" font-size="10.00">actionsceneenemyprojectile.hh</text>
</a>
</g>
</g>
<!-- Node0&#45;&gt;Node15 -->
<g id="edge39" class="edge"><title>Node0&#45;&gt;Node15</title>
<path fill="none" stroke="midnightblue" d="M1214.63,-224.444C1169.87,-215.004 1097.81,-199.802 1049.49,-189.611"/>
<polygon fill="midnightblue" stroke="midnightblue" points="1050.07,-186.156 1039.56,-187.516 1048.63,-193.005 1050.07,-186.156"/>
</g>
<!-- Node16 -->
<g id="node17" class="node"><title>Node16</title>
<g id="a_node17"><a xlink:href="actionsceneenemyprojectileexplosion_8hh.html" target="_top" xlink:title="actionsceneenemyprojectileexplosion.hh">
<polygon fill="white" stroke="black" points="903.19,-112.5 903.19,-131.5 1095.19,-131.5 1095.19,-112.5 903.19,-112.5"/>
<text text-anchor="middle" x="999.19" y="-119.5" font-family="Helvetica,sans-Serif" font-size="10.00">actionsceneenemyprojectileexplosion.hh</text>
</a>
</g>
</g>
<!-- Node0&#45;&gt;Node16 -->
<g id="edge59" class="edge"><title>Node0&#45;&gt;Node16</title>
<path fill="none" stroke="midnightblue" d="M1235.1,-224.368C1190.14,-205.051 1081.25,-158.259 1028.63,-135.648"/>
<polygon fill="midnightblue" stroke="midnightblue" points="1029.75,-132.324 1019.18,-131.591 1026.99,-138.755 1029.75,-132.324"/>
</g>
<!-- Node17 -->
<g id="node18" class="node"><title>Node17</title>
<polygon fill="white" stroke="#bfbfbf" points="1339.19,-112.5 1339.19,-131.5 1389.19,-131.5 1389.19,-112.5 1339.19,-112.5"/>
<text text-anchor="middle" x="1364.19" y="-119.5" font-family="Helvetica,sans-Serif" font-size="10.00">typeinfo</text>
</g>
<!-- Node0&#45;&gt;Node17 -->
<g id="edge70" class="edge"><title>Node0&#45;&gt;Node17</title>
<path fill="none" stroke="midnightblue" d="M1263.74,-224.368C1282.05,-205.894 1325.25,-162.293 1348.59,-138.744"/>
<polygon fill="midnightblue" stroke="midnightblue" points="1351.12,-141.158 1355.68,-131.591 1346.15,-136.231 1351.12,-141.158"/>
</g>
<!-- Node18 -->
<g id="node19" class="node"><title>Node18</title>
<g id="a_node19"><a xlink:href="actionsceneendmissiondisplay_8hh.html" target="_top" xlink:title="actionsceneendmissiondisplay.hh">
<polygon fill="white" stroke="black" points="1404.69,-168.5 1404.69,-187.5 1567.69,-187.5 1567.69,-168.5 1404.69,-168.5"/>
<text text-anchor="middle" x="1486.19" y="-175.5" font-family="Helvetica,sans-Serif" font-size="10.00">actionsceneendmissiondisplay.hh</text>
</a>
</g>
</g>
<!-- Node0&#45;&gt;Node18 -->
<g id="edge55" class="edge"><title>Node0&#45;&gt;Node18</title>
<path fill="none" stroke="midnightblue" d="M1291.79,-224.444C1331.92,-215.063 1396.39,-199.993 1439.97,-189.804"/>
<polygon fill="midnightblue" stroke="midnightblue" points="1440.82,-193.201 1449.76,-187.516 1439.22,-186.385 1440.82,-193.201"/>
</g>
<!-- Node20 -->
<g id="node21" class="node"><title>Node20</title>
<polygon fill="white" stroke="#bfbfbf" points="1618.69,-112.5 1618.69,-131.5 1737.69,-131.5 1737.69,-112.5 1618.69,-112.5"/>
<text text-anchor="middle" x="1678.19" y="-119.5" font-family="Helvetica,sans-Serif" font-size="10.00">QGraphicsProxyWidget</text>
</g>
<!-- Node0&#45;&gt;Node20 -->
<g id="edge66" class="edge"><title>Node0&#45;&gt;Node20</title>
<path fill="none" stroke="midnightblue" d="M1308.85,-232.394C1374,-230.111 1486.3,-221.151 1576.19,-188 1593.12,-181.755 1633.3,-154.592 1657.88,-137.417"/>
<polygon fill="midnightblue" stroke="midnightblue" points="1659.98,-140.213 1666.15,-131.598 1655.96,-134.487 1659.98,-140.213"/>
</g>
<!-- Node22 -->
<g id="node23" class="node"><title>Node22</title>
<g id="a_node23"><a xlink:href="parkinghalllayoutinterface_8hh.html" target="_top" xlink:title="Interface/parkinghalllayoutinterface.hh">
<polygon fill="white" stroke="black" points="1624.69,-168.5 1624.69,-187.5 1803.69,-187.5 1803.69,-168.5 1624.69,-168.5"/>
<text text-anchor="middle" x="1714.19" y="-175.5" font-family="Helvetica,sans-Serif" font-size="10.00">Interface/parkinghalllayoutinterface.hh</text>
</a>
</g>
</g>
<!-- Node0&#45;&gt;Node22 -->
<g id="edge60" class="edge"><title>Node0&#45;&gt;Node22</title>
<path fill="none" stroke="midnightblue" d="M1308.74,-226.7C1388.26,-217.345 1538.2,-199.704 1631.77,-188.696"/>
<polygon fill="midnightblue" stroke="midnightblue" points="1632.25,-192.164 1641.77,-187.52 1631.43,-185.212 1632.25,-192.164"/>
</g>
<!-- Node25 -->
<g id="node26" class="node"><title>Node25</title>
<polygon fill="white" stroke="#bfbfbf" points="1822.19,-168.5 1822.19,-187.5 1966.19,-187.5 1966.19,-168.5 1822.19,-168.5"/>
<text text-anchor="middle" x="1894.19" y="-175.5" font-family="Helvetica,sans-Serif" font-size="10.00">QGraphicsSceneMouseEvent</text>
</g>
<!-- Node0&#45;&gt;Node25 -->
<g id="edge63" class="edge"><title>Node0&#45;&gt;Node25</title>
<path fill="none" stroke="midnightblue" d="M1308.71,-229.224C1406.42,-222.212 1620.47,-206.308 1811.54,-188.133"/>
<polygon fill="midnightblue" stroke="midnightblue" points="1812.16,-191.591 1821.78,-187.155 1811.49,-184.622 1812.16,-191.591"/>
</g>
<!-- Node26 -->
<g id="node27" class="node"><title>Node26</title>
<polygon fill="white" stroke="#bfbfbf" points="1984.69,-168.5 1984.69,-187.5 2049.69,-187.5 2049.69,-168.5 1984.69,-168.5"/>
<text text-anchor="middle" x="2017.19" y="-175.5" font-family="Helvetica,sans-Serif" font-size="10.00">QDateTime</text>
</g>
<!-- Node0&#45;&gt;Node26 -->
<g id="edge69" class="edge"><title>Node0&#45;&gt;Node26</title>
<path fill="none" stroke="midnightblue" d="M1308.75,-232.369C1427.09,-230.391 1719.81,-222.281 1974.09,-187.932"/>
<polygon fill="midnightblue" stroke="midnightblue" points="1974.82,-191.364 1984.26,-186.541 1973.87,-184.428 1974.82,-191.364"/>
</g>
<!-- Node27 -->
<g id="node28" class="node"><title>Node27</title>
<polygon fill="white" stroke="#bfbfbf" points="2068.19,-168.5 2068.19,-187.5 2120.19,-187.5 2120.19,-168.5 2068.19,-168.5"/>
<text text-anchor="middle" x="2094.19" y="-175.5" font-family="Helvetica,sans-Serif" font-size="10.00">QDebug</text>
</g>
<!-- Node0&#45;&gt;Node27 -->
<g id="edge71" class="edge"><title>Node0&#45;&gt;Node27</title>
<path fill="none" stroke="midnightblue" d="M1308.72,-233.605C1436.83,-234.283 1771.13,-231.49 2057.76,-187.908"/>
<polygon fill="midnightblue" stroke="midnightblue" points="2058.58,-191.322 2067.93,-186.34 2057.52,-184.404 2058.58,-191.322"/>
</g>
<!-- Node28 -->
<g id="node29" class="node"><title>Node28</title>
<polygon fill="white" stroke="#bfbfbf" points="2138.19,-168.5 2138.19,-187.5 2196.19,-187.5 2196.19,-168.5 2138.19,-168.5"/>
<text text-anchor="middle" x="2167.19" y="-175.5" font-family="Helvetica,sans-Serif" font-size="10.00">functional</text>
</g>
<!-- Node0&#45;&gt;Node28 -->
<g id="edge72" class="edge"><title>Node0&#45;&gt;Node28</title>
<path fill="none" stroke="midnightblue" d="M1308.72,-233.602C1444.41,-234.411 1812.83,-232.13 2127.6,-187.962"/>
<polygon fill="midnightblue" stroke="midnightblue" points="2128.42,-191.379 2137.83,-186.508 2127.44,-184.449 2128.42,-191.379"/>
</g>
<!-- Node29 -->
<g id="node30" class="node"><title>Node29</title>
<polygon fill="white" stroke="#bfbfbf" points="2214.69,-168.5 2214.69,-187.5 2263.69,-187.5 2263.69,-168.5 2214.69,-168.5"/>
<text text-anchor="middle" x="2239.19" y="-175.5" font-family="Helvetica,sans-Serif" font-size="10.00">random</text>
</g>
<!-- Node0&#45;&gt;Node29 -->
<g id="edge73" class="edge"><title>Node0&#45;&gt;Node29</title>
<path fill="none" stroke="midnightblue" d="M1308.8,-231.951C1479.71,-228.379 2011.24,-215.433 2204.4,-187.703"/>
<polygon fill="midnightblue" stroke="midnightblue" points="2205.06,-191.142 2214.44,-186.2 2204.03,-184.219 2205.06,-191.142"/>
</g>
<!-- Node1&#45;&gt;Node2 -->
<g id="edge2" class="edge"><title>Node1&#45;&gt;Node2</title>
<path fill="none" stroke="midnightblue" d="M352.766,-112.324C337.65,-103.822 314.374,-90.7288 296.719,-80.7975"/>
<polygon fill="midnightblue" stroke="midnightblue" points="298.007,-77.5066 287.576,-75.6545 294.575,-83.6077 298.007,-77.5066"/>
</g>
<!-- Node3 -->
<g id="node4" class="node"><title>Node3</title>
<polygon fill="white" stroke="#bfbfbf" points="606.69,-0.5 606.69,-19.5 721.69,-19.5 721.69,-0.5 606.69,-0.5"/>
<text text-anchor="middle" x="664.19" y="-7.5" font-family="Helvetica,sans-Serif" font-size="10.00">QGraphicsPixmapItem</text>
</g>
<!-- Node1&#45;&gt;Node3 -->
<g id="edge5" class="edge"><title>Node1&#45;&gt;Node3</title>
<path fill="none" stroke="midnightblue" d="M383.465,-112.458C407.932,-99.0388 457.685,-72.8172 502.19,-56 539.679,-41.8335 583.553,-29.9189 616.18,-21.9155"/>
<polygon fill="midnightblue" stroke="midnightblue" points="617.028,-25.3114 625.925,-19.5591 615.383,-18.5075 617.028,-25.3114"/>
</g>
<!-- Node4 -->
<g id="node5" class="node"><title>Node4</title>
<polygon fill="white" stroke="#bfbfbf" points="402.69,-0.5 402.69,-19.5 487.69,-19.5 487.69,-0.5 402.69,-0.5"/>
<text text-anchor="middle" x="445.19" y="-7.5" font-family="Helvetica,sans-Serif" font-size="10.00">QPixmapCache</text>
</g>
<!-- Node1&#45;&gt;Node4 -->
<g id="edge6" class="edge"><title>Node1&#45;&gt;Node4</title>
<path fill="none" stroke="midnightblue" d="M384.254,-112.372C397.369,-104.537 415.432,-91.8032 426.19,-76 435.597,-62.181 440.415,-43.6607 442.841,-29.9246"/>
<polygon fill="midnightblue" stroke="midnightblue" points="446.349,-30.1268 444.363,-19.7197 439.426,-29.0938 446.349,-30.1268"/>
</g>
<!-- Node1&#45;&gt;Node5 -->
<g id="edge7" class="edge"><title>Node1&#45;&gt;Node5</title>
<path fill="none" stroke="midnightblue" d="M414.874,-115.625C501.747,-105.622 687.864,-84.1932 781.281,-73.4372"/>
<polygon fill="midnightblue" stroke="midnightblue" points="781.852,-76.8947 791.386,-72.2738 781.052,-69.9406 781.852,-76.8947"/>
</g>
<!-- Node1&#45;&gt;Node6 -->
<g id="edge8" class="edge"><title>Node1&#45;&gt;Node6</title>
<path fill="none" stroke="midnightblue" d="M335.707,-112.444C300.47,-103.162 244.086,-88.3093 205.431,-78.127"/>
<polygon fill="midnightblue" stroke="midnightblue" points="206.082,-74.6792 195.521,-75.5164 204.299,-81.4483 206.082,-74.6792"/>
</g>
<!-- Node1&#45;&gt;Node7 -->
<g id="edge9" class="edge"><title>Node1&#45;&gt;Node7</title>
<path fill="none" stroke="midnightblue" d="M395.127,-112.444C423.935,-103.293 469.787,-88.7279 501.793,-78.5614"/>
<polygon fill="midnightblue" stroke="midnightblue" points="503.188,-81.7908 511.659,-75.4275 501.068,-75.1193 503.188,-81.7908"/>
</g>
<!-- Node8 -->
<g id="node9" class="node"><title>Node8</title>
<polygon fill="white" stroke="#bfbfbf" points="621.19,-56.5 621.19,-75.5 669.19,-75.5 669.19,-56.5 621.19,-56.5"/>
<text text-anchor="middle" x="645.19" y="-63.5" font-family="Helvetica,sans-Serif" font-size="10.00">QTimer</text>
</g>
<!-- Node1&#45;&gt;Node8 -->
<g id="edge10" class="edge"><title>Node1&#45;&gt;Node8</title>
<path fill="none" stroke="midnightblue" d="M412.081,-112.444C467.198,-101.699 560.607,-83.4891 610.818,-73.7006"/>
<polygon fill="midnightblue" stroke="midnightblue" points="611.702,-77.0942 620.848,-71.7454 610.363,-70.2236 611.702,-77.0942"/>
</g>
<!-- Node9 -->
<g id="node10" class="node"><title>Node9</title>
<polygon fill="white" stroke="#bfbfbf" points="377.19,-56.5 377.19,-75.5 417.19,-75.5 417.19,-56.5 377.19,-56.5"/>
<text text-anchor="middle" x="397.19" y="-63.5" font-family="Helvetica,sans-Serif" font-size="10.00">QList</text>
</g>
<!-- Node1&#45;&gt;Node9 -->
<g id="edge11" class="edge"><title>Node1&#45;&gt;Node9</title>
<path fill="none" stroke="midnightblue" d="M372.979,-112.083C376.948,-104.691 382.715,-93.9533 387.625,-84.8111"/>
<polygon fill="midnightblue" stroke="midnightblue" points="390.842,-86.217 392.49,-75.7511 384.675,-82.9051 390.842,-86.217"/>
</g>
<!-- Node1&#45;&gt;Node10 -->
<g id="edge12" class="edge"><title>Node1&#45;&gt;Node10</title>
<path fill="none" stroke="midnightblue" d="M321.402,-113.32C255.129,-102.443 135.327,-82.7794 75.39,-72.9417"/>
<polygon fill="midnightblue" stroke="midnightblue" points="75.7007,-69.4459 65.2658,-71.28 74.5669,-76.3535 75.7007,-69.4459"/>
</g>
<!-- Node2&#45;&gt;Node3 -->
<g id="edge3" class="edge"><title>Node2&#45;&gt;Node3</title>
<path fill="none" stroke="midnightblue" d="M321.367,-57.9459C326.038,-57.2844 330.704,-56.6273 335.19,-56 425.61,-43.3577 530.067,-29.1355 596.589,-20.1264"/>
<polygon fill="midnightblue" stroke="midnightblue" points="597.087,-23.5911 606.527,-18.7811 596.148,-16.6543 597.087,-23.5911"/>
</g>
<!-- Node2&#45;&gt;Node4 -->
<g id="edge4" class="edge"><title>Node2&#45;&gt;Node4</title>
<path fill="none" stroke="midnightblue" d="M299.602,-56.4435C328.959,-47.2801 375.709,-32.6876 408.286,-22.5192"/>
<polygon fill="midnightblue" stroke="midnightblue" points="409.403,-25.8371 417.906,-19.5164 407.317,-19.1551 409.403,-25.8371"/>
</g>
<!-- Node11&#45;&gt;Node2 -->
<g id="edge14" class="edge"><title>Node11&#45;&gt;Node2</title>
<path fill="none" stroke="midnightblue" d="M257.162,-112.083C259.574,-104.849 263.054,-94.4087 266.058,-85.3968"/>
<polygon fill="midnightblue" stroke="midnightblue" points="269.431,-86.3447 269.273,-75.7511 262.79,-84.1311 269.431,-86.3447"/>
</g>
<!-- Node11&#45;&gt;Node3 -->
<g id="edge15" class="edge"><title>Node11&#45;&gt;Node3</title>
<path fill="none" stroke="midnightblue" d="M268.736,-112.308C297.046,-95.4519 357.699,-59.6466 368.19,-56 443.611,-29.7837 535.097,-18.8269 596.212,-14.2561"/>
<polygon fill="midnightblue" stroke="midnightblue" points="596.778,-17.7248 606.505,-13.5252 596.283,-10.7424 596.778,-17.7248"/>
</g>
<!-- Node11&#45;&gt;Node4 -->
<g id="edge16" class="edge"><title>Node11&#45;&gt;Node4</title>
<path fill="none" stroke="midnightblue" d="M207.942,-112.45C171.055,-104.58 123.724,-91.7543 112.19,-76 106.939,-68.8278 106.34,-62.693 112.19,-56 147.937,-15.0972 307.902,-9.89099 392.438,-10.0912"/>
<polygon fill="midnightblue" stroke="midnightblue" points="392.59,-13.5919 402.607,-10.1423 392.625,-6.59201 392.59,-13.5919"/>
</g>
<!-- Node11&#45;&gt;Node5 -->
<g id="edge17" class="edge"><title>Node11&#45;&gt;Node5</title>
<path fill="none" stroke="midnightblue" d="M303.205,-113.153C306.242,-112.741 309.256,-112.353 312.19,-112 482.634,-91.4955 685.308,-76.8712 781.367,-70.5246"/>
<polygon fill="midnightblue" stroke="midnightblue" points="781.687,-74.0112 791.436,-69.8639 781.228,-67.0263 781.687,-74.0112"/>
</g>
<!-- Node11&#45;&gt;Node6 -->
<g id="edge18" class="edge"><title>Node11&#45;&gt;Node6</title>
<path fill="none" stroke="midnightblue" d="M239.569,-112.324C225.241,-103.822 203.177,-90.7288 186.441,-80.7975"/>
<polygon fill="midnightblue" stroke="midnightblue" points="188.16,-77.7478 177.774,-75.6545 184.588,-83.7677 188.16,-77.7478"/>
</g>
<!-- Node11&#45;&gt;Node7 -->
<g id="edge19" class="edge"><title>Node11&#45;&gt;Node7</title>
<path fill="none" stroke="midnightblue" d="M299.19,-112.444C355.087,-101.815 449.395,-83.8836 501.258,-74.0223"/>
<polygon fill="midnightblue" stroke="midnightblue" points="502.176,-77.4105 511.346,-72.1041 500.868,-70.5338 502.176,-77.4105"/>
</g>
<!-- Node11&#45;&gt;Node8 -->
<g id="edge20" class="edge"><title>Node11&#45;&gt;Node8</title>
<path fill="none" stroke="midnightblue" d="M303.227,-113.322C306.259,-112.868 309.265,-112.424 312.19,-112 421.116,-96.1905 550.36,-79.2416 610.808,-71.42"/>
<polygon fill="midnightblue" stroke="midnightblue" points="611.464,-74.8645 620.933,-70.1121 610.567,-67.9222 611.464,-74.8645"/>
</g>
<!-- Node11&#45;&gt;Node9 -->
<g id="edge21" class="edge"><title>Node11&#45;&gt;Node9</title>
<path fill="none" stroke="midnightblue" d="M276.849,-112.444C301.29,-103.214 340.317,-88.4764 367.267,-78.2994"/>
<polygon fill="midnightblue" stroke="midnightblue" points="368.83,-81.4504 376.949,-74.6433 366.357,-74.9018 368.83,-81.4504"/>
</g>
<!-- Node11&#45;&gt;Node10 -->
<g id="edge22" class="edge"><title>Node11&#45;&gt;Node10</title>
<path fill="none" stroke="midnightblue" d="M220.122,-112.444C180.583,-102.513 115.655,-86.2051 75.2746,-76.0632"/>
<polygon fill="midnightblue" stroke="midnightblue" points="75.8719,-72.6045 65.3205,-73.5631 74.1667,-79.3937 75.8719,-72.6045"/>
</g>
<!-- Node12&#45;&gt;Node3 -->
<g id="edge25" class="edge"><title>Node12&#45;&gt;Node3</title>
<path fill="none" stroke="midnightblue" d="M1247.85,-112.353C1234.9,-97.7686 1206.37,-68.6375 1175.19,-56 1096.59,-24.1444 852.127,-14.781 732.084,-12.0745"/>
<polygon fill="midnightblue" stroke="midnightblue" points="731.986,-8.57164 721.913,-11.8544 731.834,-15.57 731.986,-8.57164"/>
</g>
<!-- Node13&#45;&gt;Node3 -->
<g id="edge28" class="edge"><title>Node13&#45;&gt;Node3</title>
<path fill="none" stroke="midnightblue" d="M559.679,-168.413C565.991,-147.618 584.139,-93.5155 612.19,-56 620.791,-44.4962 632.793,-33.8661 643.1,-25.8292"/>
<polygon fill="midnightblue" stroke="midnightblue" points="645.342,-28.5229 651.246,-19.726 641.145,-22.9207 645.342,-28.5229"/>
</g>
<!-- Node13&#45;&gt;Node4 -->
<g id="edge29" class="edge"><title>Node13&#45;&gt;Node4</title>
<path fill="none" stroke="midnightblue" d="M488.626,-176.166C352.4,-172.775 56.2739,-156.145 4.18983,-76 -0.653841,-68.5467 -1.768,-62.5967 4.18983,-56 29.7945,-27.6496 280.962,-16.2065 392.401,-12.4983"/>
<polygon fill="midnightblue" stroke="midnightblue" points="392.537,-15.9958 402.418,-12.1733 392.31,-8.9995 392.537,-15.9958"/>
</g>
<!-- Node13&#45;&gt;Node5 -->
<g id="edge30" class="edge"><title>Node13&#45;&gt;Node5</title>
<path fill="none" stroke="midnightblue" d="M625.97,-173.123C693.215,-167.955 789.424,-156.443 817.19,-132 830.325,-120.437 834.955,-100.474 836.525,-85.7144"/>
<polygon fill="midnightblue" stroke="midnightblue" points="840.021,-85.8847 837.219,-75.6672 833.038,-85.402 840.021,-85.8847"/>
</g>
<!-- Node13&#45;&gt;Node7 -->
<g id="edge31" class="edge"><title>Node13&#45;&gt;Node7</title>
<path fill="none" stroke="midnightblue" d="M541.407,-168.467C528.987,-160.769 512.585,-148.179 505.19,-132 497.435,-115.033 509.552,-96.0545 521.227,-83.0064"/>
<polygon fill="midnightblue" stroke="midnightblue" points="523.833,-85.3461 528.258,-75.7195 518.796,-80.4856 523.833,-85.3461"/>
</g>
<!-- Node13&#45;&gt;Node8 -->
<g id="edge32" class="edge"><title>Node13&#45;&gt;Node8</title>
<path fill="none" stroke="midnightblue" d="M564.095,-168.368C578.682,-150.135 612.849,-107.426 631.85,-83.6752"/>
<polygon fill="midnightblue" stroke="midnightblue" points="634.803,-85.5866 638.317,-75.5914 629.337,-81.2137 634.803,-85.5866"/>
</g>
<!-- Node13&#45;&gt;Node11 -->
<g id="edge27" class="edge"><title>Node13&#45;&gt;Node11</title>
<path fill="none" stroke="midnightblue" d="M509.179,-168.444C455.656,-158.905 369.124,-143.483 311.945,-133.293"/>
<polygon fill="midnightblue" stroke="midnightblue" points="312.435,-129.825 301.976,-131.516 311.207,-136.717 312.435,-129.825"/>
</g>
<!-- Node14&#45;&gt;Node3 -->
<g id="edge34" class="edge"><title>Node14&#45;&gt;Node3</title>
<path fill="none" stroke="midnightblue" d="M733.343,-112.436C730.261,-99.4374 723.196,-74.3081 711.19,-56 703.811,-44.7481 693.124,-34.2251 683.805,-26.1885"/>
<polygon fill="midnightblue" stroke="midnightblue" points="686.023,-23.4812 676.085,-19.8103 681.565,-28.8778 686.023,-23.4812"/>
</g>
<!-- Node14&#45;&gt;Node4 -->
<g id="edge35" class="edge"><title>Node14&#45;&gt;Node4</title>
<path fill="none" stroke="midnightblue" d="M730.167,-112.194C721.522,-97.91 702.405,-69.8915 678.19,-56 622.307,-23.9417 547.755,-14.2578 498.195,-11.5757"/>
<polygon fill="midnightblue" stroke="midnightblue" points="498.165,-8.07067 488.014,-11.1041 497.841,-15.0632 498.165,-8.07067"/>
</g>
<!-- Node14&#45;&gt;Node5 -->
<g id="edge36" class="edge"><title>Node14&#45;&gt;Node5</title>
<path fill="none" stroke="midnightblue" d="M751.578,-112.324C767.861,-103.703 793.057,-90.3643 811.906,-80.3855"/>
<polygon fill="midnightblue" stroke="midnightblue" points="813.642,-83.4267 820.842,-75.6545 810.367,-77.2402 813.642,-83.4267"/>
</g>
<!-- Node14&#45;&gt;Node7 -->
<g id="edge37" class="edge"><title>Node14&#45;&gt;Node7</title>
<path fill="none" stroke="midnightblue" d="M703.975,-112.444C668.868,-102.821 611.92,-87.2102 574.759,-77.0239"/>
<polygon fill="midnightblue" stroke="midnightblue" points="575.406,-73.5724 564.837,-74.3042 573.556,-80.3233 575.406,-73.5724"/>
</g>
<!-- Node14&#45;&gt;Node8 -->
<g id="edge38" class="edge"><title>Node14&#45;&gt;Node8</title>
<path fill="none" stroke="midnightblue" d="M720.73,-112.324C706.69,-103.9 685.141,-90.9709 668.647,-81.0741"/>
<polygon fill="midnightblue" stroke="midnightblue" points="669.99,-77.7983 659.614,-75.6545 666.388,-83.8007 669.99,-77.7983"/>
</g>
<!-- Node15&#45;&gt;Node1 -->
<g id="edge47" class="edge"><title>Node15&#45;&gt;Node1</title>
<path fill="none" stroke="midnightblue" d="M923.39,-170.513C795.42,-159.562 539.346,-137.647 425.281,-127.886"/>
<polygon fill="midnightblue" stroke="midnightblue" points="425.284,-124.373 415.022,-127.008 424.687,-131.348 425.284,-124.373"/>
</g>
<!-- Node15&#45;&gt;Node3 -->
<g id="edge49" class="edge"><title>Node15&#45;&gt;Node3</title>
<path fill="none" stroke="midnightblue" d="M1074.7,-169.767C1098.58,-163.495 1122.54,-152.191 1137.19,-132 1157.03,-104.663 1159.92,-80.99 1137.19,-56 1110.47,-26.6171 856.263,-15.9758 731.963,-12.5069"/>
<polygon fill="midnightblue" stroke="midnightblue" points="731.887,-9.00361 721.796,-12.231 731.697,-16.001 731.887,-9.00361"/>
</g>
<!-- Node15&#45;&gt;Node4 -->
<g id="edge50" class="edge"><title>Node15&#45;&gt;Node4</title>
<path fill="none" stroke="midnightblue" d="M1039.57,-168.471C1077.23,-158.594 1124.74,-140.003 1104.19,-112 1055.13,-45.1339 1007.49,-72.3986 926.19,-56 845.43,-39.7096 605.35,-21.9206 498.04,-14.5269"/>
<polygon fill="midnightblue" stroke="midnightblue" points="497.989,-11.0152 487.773,-13.8233 497.51,-17.9988 497.989,-11.0152"/>
</g>
<!-- Node15&#45;&gt;Node5 -->
<g id="edge48" class="edge"><title>Node15&#45;&gt;Node5</title>
<path fill="none" stroke="midnightblue" d="M970.213,-168.484C948.057,-161.086 917.462,-148.893 894.19,-132 875.856,-118.692 859.327,-98.481 848.847,-84.1332"/>
<polygon fill="midnightblue" stroke="midnightblue" points="851.506,-81.83 842.876,-75.6829 845.789,-85.8696 851.506,-81.83"/>
</g>
<!-- Node15&#45;&gt;Node7 -->
<g id="edge51" class="edge"><title>Node15&#45;&gt;Node7</title>
<path fill="none" stroke="midnightblue" d="M923.498,-177.218C849.039,-175.218 733.184,-166.108 639.19,-132 607.403,-120.466 575.36,-97.462 556.14,-82.1481"/>
<polygon fill="midnightblue" stroke="midnightblue" points="558.22,-79.3285 548.258,-75.7219 553.797,-84.7537 558.22,-79.3285"/>
</g>
<!-- Node15&#45;&gt;Node8 -->
<g id="edge52" class="edge"><title>Node15&#45;&gt;Node8</title>
<path fill="none" stroke="midnightblue" d="M923.429,-177.705C832.81,-176.818 688.728,-169.34 652.19,-132 640.424,-119.976 639.936,-100.086 641.611,-85.4696"/>
<polygon fill="midnightblue" stroke="midnightblue" points="645.077,-85.9579 643.162,-75.5376 638.161,-84.8776 645.077,-85.9579"/>
</g>
<!-- Node15&#45;&gt;Node10 -->
<g id="edge53" class="edge"><title>Node15&#45;&gt;Node10</title>
<path fill="none" stroke="midnightblue" d="M923.564,-174.21C737.183,-167.126 265.83,-147.884 196.19,-132 147.398,-120.871 94.3295,-95.9489 64.0776,-80.4008"/>
<polygon fill="midnightblue" stroke="midnightblue" points="65.5764,-77.2351 55.0916,-75.7115 62.3378,-83.4409 65.5764,-77.2351"/>
</g>
<!-- Node15&#45;&gt;Node12 -->
<g id="edge46" class="edge"><title>Node15&#45;&gt;Node12</title>
<path fill="none" stroke="midnightblue" d="M1039.75,-168.444C1084.51,-159.004 1156.57,-143.802 1204.89,-133.611"/>
<polygon fill="midnightblue" stroke="midnightblue" points="1205.75,-137.005 1214.82,-131.516 1204.31,-130.156 1205.75,-137.005"/>
</g>
<!-- Node15&#45;&gt;Node16 -->
<g id="edge40" class="edge"><title>Node15&#45;&gt;Node16</title>
<path fill="none" stroke="midnightblue" d="M999.19,-168.083C999.19,-161.006 999.19,-150.861 999.19,-141.986"/>
<polygon fill="midnightblue" stroke="midnightblue" points="1002.69,-141.751 999.19,-131.751 995.69,-141.751 1002.69,-141.751"/>
</g>
<!-- Node15&#45;&gt;Node17 -->
<g id="edge54" class="edge"><title>Node15&#45;&gt;Node17</title>
<path fill="none" stroke="midnightblue" d="M1074.96,-169.2C1142.12,-161.687 1242.66,-148.966 1329.19,-132 1329.29,-131.98 1329.39,-131.961 1329.49,-131.941"/>
<polygon fill="midnightblue" stroke="midnightblue" points="1330.02,-135.408 1339.03,-129.841 1328.52,-128.572 1330.02,-135.408"/>
</g>
<!-- Node16&#45;&gt;Node3 -->
<g id="edge41" class="edge"><title>Node16&#45;&gt;Node3</title>
<path fill="none" stroke="midnightblue" d="M993.698,-112.116C984.281,-97.7209 963.588,-69.5458 938.19,-56 903.375,-37.432 801.047,-24.2103 731.784,-17.0899"/>
<polygon fill="midnightblue" stroke="midnightblue" points="732.118,-13.6059 721.817,-16.0837 731.415,-20.5705 732.118,-13.6059"/>
</g>
<!-- Node16&#45;&gt;Node4 -->
<g id="edge42" class="edge"><title>Node16&#45;&gt;Node4</title>
<path fill="none" stroke="midnightblue" d="M988.641,-112.427C970.174,-97.9545 930.228,-68.9875 891.19,-56 854.661,-43.8475 608.158,-23.5976 498.089,-15.0276"/>
<polygon fill="midnightblue" stroke="midnightblue" points="498.116,-11.5192 487.875,-14.2353 497.574,-18.4982 498.116,-11.5192"/>
</g>
<!-- Node16&#45;&gt;Node5 -->
<g id="edge43" class="edge"><title>Node16&#45;&gt;Node5</title>
<path fill="none" stroke="midnightblue" d="M973.52,-112.444C946.267,-103.359 903.006,-88.9388 872.539,-78.7831"/>
<polygon fill="midnightblue" stroke="midnightblue" points="873.333,-75.3584 862.739,-75.5164 871.119,-81.9992 873.333,-75.3584"/>
</g>
<!-- Node16&#45;&gt;Node7 -->
<g id="edge44" class="edge"><title>Node16&#45;&gt;Node7</title>
<path fill="none" stroke="midnightblue" d="M924.986,-112.489C847.072,-103.525 721,-88.9429 612.19,-76 600.063,-74.5576 586.823,-72.9557 574.937,-71.508"/>
<polygon fill="midnightblue" stroke="midnightblue" points="575.253,-68.0207 564.902,-70.2833 574.405,-74.9691 575.253,-68.0207"/>
</g>
<!-- Node16&#45;&gt;Node8 -->
<g id="edge45" class="edge"><title>Node16&#45;&gt;Node8</title>
<path fill="none" stroke="midnightblue" d="M943.097,-112.444C868.98,-101.137 740.68,-81.5664 679.527,-72.2378"/>
<polygon fill="midnightblue" stroke="midnightblue" points="679.677,-68.7204 669.264,-70.6723 678.622,-75.6404 679.677,-68.7204"/>
</g>
<!-- Node19 -->
<g id="node20" class="node"><title>Node19</title>
<polygon fill="white" stroke="#bfbfbf" points="1545.69,-112.5 1545.69,-131.5 1600.69,-131.5 1600.69,-112.5 1545.69,-112.5"/>
<text text-anchor="middle" x="1573.19" y="-119.5" font-family="Helvetica,sans-Serif" font-size="10.00">QWidget</text>
</g>
<!-- Node18&#45;&gt;Node19 -->
<g id="edge56" class="edge"><title>Node18&#45;&gt;Node19</title>
<path fill="none" stroke="midnightblue" d="M1500.17,-168.324C1513.74,-159.9 1534.57,-146.971 1550.51,-137.074"/>
<polygon fill="midnightblue" stroke="midnightblue" points="1552.6,-139.902 1559.25,-131.655 1548.9,-133.954 1552.6,-139.902"/>
</g>
<!-- Node18&#45;&gt;Node20 -->
<g id="edge57" class="edge"><title>Node18&#45;&gt;Node20</title>
<path fill="none" stroke="midnightblue" d="M1516.61,-168.444C1549.47,-159.201 1601.97,-144.436 1638.16,-134.257"/>
<polygon fill="midnightblue" stroke="midnightblue" points="1639.23,-137.593 1647.91,-131.516 1637.34,-130.855 1639.23,-137.593"/>
</g>
<!-- Node21 -->
<g id="node22" class="node"><title>Node21</title>
<polygon fill="white" stroke="#bfbfbf" points="1445.19,-112.5 1445.19,-131.5 1527.19,-131.5 1527.19,-112.5 1445.19,-112.5"/>
<text text-anchor="middle" x="1486.19" y="-119.5" font-family="Helvetica,sans-Serif" font-size="10.00">QGraphicsItem</text>
</g>
<!-- Node18&#45;&gt;Node21 -->
<g id="edge58" class="edge"><title>Node18&#45;&gt;Node21</title>
<path fill="none" stroke="midnightblue" d="M1486.19,-168.083C1486.19,-161.006 1486.19,-150.861 1486.19,-141.986"/>
<polygon fill="midnightblue" stroke="midnightblue" points="1489.69,-141.751 1486.19,-131.751 1482.69,-141.751 1489.69,-141.751"/>
</g>
<!-- Node23 -->
<g id="node24" class="node"><title>Node23</title>
<polygon fill="white" stroke="#bfbfbf" points="1821.19,-112.5 1821.19,-131.5 1863.19,-131.5 1863.19,-112.5 1821.19,-112.5"/>
<text text-anchor="middle" x="1842.19" y="-119.5" font-family="Helvetica,sans-Serif" font-size="10.00">vector</text>
</g>
<!-- Node22&#45;&gt;Node23 -->
<g id="edge61" class="edge"><title>Node22&#45;&gt;Node23</title>
<path fill="none" stroke="midnightblue" d="M1734.47,-168.444C1755.54,-159.557 1788.71,-145.563 1812.68,-135.451"/>
<polygon fill="midnightblue" stroke="midnightblue" points="1814.15,-138.628 1822,-131.516 1811.43,-132.179 1814.15,-138.628"/>
</g>
<!-- Node24 -->
<g id="node25" class="node"><title>Node24</title>
<polygon fill="white" stroke="#bfbfbf" points="1755.69,-112.5 1755.69,-131.5 1802.69,-131.5 1802.69,-112.5 1755.69,-112.5"/>
<text text-anchor="middle" x="1779.19" y="-119.5" font-family="Helvetica,sans-Serif" font-size="10.00">QPoint</text>
</g>
<!-- Node22&#45;&gt;Node24 -->
<g id="edge62" class="edge"><title>Node22&#45;&gt;Node24</title>
<path fill="none" stroke="midnightblue" d="M1724.63,-168.324C1734.34,-160.263 1749.01,-148.077 1760.69,-138.369"/>
<polygon fill="midnightblue" stroke="midnightblue" points="1763.1,-140.916 1768.56,-131.834 1758.63,-135.532 1763.1,-140.916"/>
</g>
</g>
</svg>
