<?xml version="1.0" encoding="UTF-8" standalone="no"?>
<!DOCTYPE svg PUBLIC "-//W3C//DTD SVG 1.1//EN"
 "http://www.w3.org/Graphics/SVG/1.1/DTD/svg11.dtd">
<!-- Generated by graphviz version 2.38.0 (20140413.2041)
 -->
<!-- Title: View/actionscene.cc Pages: 1 -->
<!--zoomable 308 -->
<svg id="main" version="1.1" xmlns="http://www.w3.org/2000/svg" xmlns:xlink="http://www.w3.org/1999/xlink" xml:space="preserve" onload="init(evt)">
<style type="text/css"><![CDATA[
.edge:hover path { stroke: red; }
.edge:hover polygon { stroke: red; fill: red; }
]]></style>
<script type="text/javascript"><![CDATA[
var edges = document.getElementsByTagName('g');
if (edges && edges.length) {
  for (var i=0;i<edges.length;i++) {
    if (edges[i].id.substr(0,4)=='edge') {
      edges[i].setAttribute('class','edge');
    }
  }
}
]]></script>
        <defs>
                <circle id="rim" cx="0" cy="0" r="7"/>
                <circle id="rim2" cx="0" cy="0" r="3.5"/>
                <g id="zoomPlus">
                        <use xlink:href="#rim" fill="#404040">
                                <set attributeName="fill" to="#808080" begin="zoomplus.mouseover" end="zoomplus.mouseout"/>
                        </use>
                        <path d="M-4,0h8M0,-4v8" fill="none" stroke="white" stroke-width="1.5" pointer-events="none"/>
                </g>
                <g id="zoomMin">
                        <use xlink:href="#rim" fill="#404040">
                                <set attributeName="fill" to="#808080" begin="zoomminus.mouseover" end="zoomminus.mouseout"/>
                        </use>
                        <path d="M-4,0h8" fill="none" stroke="white" stroke-width="1.5" pointer-events="none"/>
                </g>
                <g id="dirArrow">
                        <path fill="none" stroke="white" stroke-width="1.5" d="M0,-3.0v7 M-2.5,-0.5L0,-3.0L2.5,-0.5"/>
                </g>
               <g id="resetDef">
                       <use xlink:href="#rim2" fill="#404040">
                               <set attributeName="fill" to="#808080" begin="reset.mouseover" end="reset.mouseout"/>
                       </use>
               </g>
        </defs>

<script type="text/javascript">
var viewWidth = 1830;
var viewHeight = 308;
var sectionId = 'dynsection-0';
</script>
<script xlink:href="svgpan.js"/>
<svg id="graph" class="graph">
<g id="viewport">
<title>View/actionscene.cc</title>
<polygon fill="white" stroke="none" points="-4,4 -4,-304 1826.13,-304 1826.13,4 -4,4"/>
<!-- Node0 -->
<g id="node1" class="node"><title>Node0</title>
<polygon fill="#bfbfbf" stroke="black" points="1052.63,-280.5 1052.63,-299.5 1159.63,-299.5 1159.63,-280.5 1052.63,-280.5"/>
<text text-anchor="middle" x="1106.13" y="-287.5" font-family="Helvetica,sans-Serif" font-size="10.00">View/actionscene.cc</text>
</g>
<!-- Node1 -->
<g id="node2" class="node"><title>Node1</title>
<g id="a_node2"><a xlink:href="actionscene_8hh.html" target="_top" xlink:title="actionscene.hh">
<polygon fill="white" stroke="black" points="845.633,-224.5 845.633,-243.5 928.633,-243.5 928.633,-224.5 845.633,-224.5"/>
<text text-anchor="middle" x="887.133" y="-231.5" font-family="Helvetica,sans-Serif" font-size="10.00">actionscene.hh</text>
</a>
</g>
</g>
<!-- Node0&#45;&gt;Node1 -->
<g id="edge1" class="edge"><title>Node0&#45;&gt;Node1</title>
<path fill="none" stroke="midnightblue" d="M1071.43,-280.444C1033.55,-271.102 972.784,-256.119 931.471,-245.933"/>
<polygon fill="midnightblue" stroke="midnightblue" points="932.219,-242.512 921.672,-243.516 930.543,-249.309 932.219,-242.512"/>
</g>
<!-- Node23 -->
<g id="node24" class="node"><title>Node23</title>
<g id="a_node24"><a xlink:href="parkinghalllayoutinterface_8hh.html" target="_top" xlink:title="Interface/parkinghalllayoutinterface.hh">
<polygon fill="white" stroke="black" points="1636.63,-168.5 1636.63,-187.5 1815.63,-187.5 1815.63,-168.5 1636.63,-168.5"/>
<text text-anchor="middle" x="1726.13" y="-175.5" font-family="Helvetica,sans-Serif" font-size="10.00">Interface/parkinghalllayoutinterface.hh</text>
</a>
</g>
</g>
<!-- Node0&#45;&gt;Node23 -->
<g id="edge74" class="edge"><title>Node0&#45;&gt;Node23</title>
<path fill="none" stroke="midnightblue" d="M1154.27,-280.46C1266.76,-260.502 1546.54,-210.863 1668.16,-189.286"/>
<polygon fill="midnightblue" stroke="midnightblue" points="1668.79,-192.728 1678.03,-187.535 1667.57,-185.835 1668.79,-192.728"/>
</g>
<!-- Node2 -->
<g id="node3" class="node"><title>Node2</title>
<g id="a_node3"><a xlink:href="actionscenepc_8hh.html" target="_top" xlink:title="actionscenepc.hh">
<polygon fill="white" stroke="black" points="164.633,-112.5 164.633,-131.5 257.633,-131.5 257.633,-112.5 164.633,-112.5"/>
<text text-anchor="middle" x="211.133" y="-119.5" font-family="Helvetica,sans-Serif" font-size="10.00">actionscenepc.hh</text>
</a>
</g>
</g>
<!-- Node1&#45;&gt;Node2 -->
<g id="edge2" class="edge"><title>Node1&#45;&gt;Node2</title>
<path fill="none" stroke="midnightblue" d="M845.314,-231.25C737,-226.43 449.361,-211.725 357.133,-188 311.944,-176.375 263.121,-151.973 234.939,-136.598"/>
<polygon fill="midnightblue" stroke="midnightblue" points="236.315,-133.359 225.872,-131.571 232.921,-139.481 236.315,-133.359"/>
</g>
<!-- Node3 -->
<g id="node4" class="node"><title>Node3</title>
<g id="a_node4"><a xlink:href="actionscenefeet_8hh.html" target="_top" xlink:title="actionscenefeet.hh">
<polygon fill="white" stroke="black" points="223.133,-56.5 223.133,-75.5 321.133,-75.5 321.133,-56.5 223.133,-56.5"/>
<text text-anchor="middle" x="272.133" y="-63.5" font-family="Helvetica,sans-Serif" font-size="10.00">actionscenefeet.hh</text>
</a>
</g>
</g>
<!-- Node1&#45;&gt;Node3 -->
<g id="edge24" class="edge"><title>Node1&#45;&gt;Node3</title>
<path fill="none" stroke="midnightblue" d="M845.575,-231.39C729.632,-226.649 404.308,-211.573 300.133,-188 232.753,-172.753 194.205,-188.973 155.133,-132 136.374,-104.645 174.912,-87.5871 212.682,-77.8476"/>
<polygon fill="midnightblue" stroke="midnightblue" points="213.852,-81.1654 222.747,-75.4099 212.204,-74.3621 213.852,-81.1654"/>
</g>
<!-- Node6 -->
<g id="node7" class="node"><title>Node6</title>
<polygon fill="white" stroke="#bfbfbf" points="511.633,-56.5 511.633,-75.5 602.633,-75.5 602.633,-56.5 511.633,-56.5"/>
<text text-anchor="middle" x="557.133" y="-63.5" font-family="Helvetica,sans-Serif" font-size="10.00">QGraphicsScene</text>
</g>
<!-- Node1&#45;&gt;Node6 -->
<g id="edge65" class="edge"><title>Node1&#45;&gt;Node6</title>
<path fill="none" stroke="midnightblue" d="M845.559,-232.108C736.64,-229.342 449.41,-219.139 421.133,-188 381.514,-144.37 471.781,-100.098 523.728,-79.2704"/>
<polygon fill="midnightblue" stroke="midnightblue" points="525.214,-82.4474 533.249,-75.5421 522.661,-75.9293 525.214,-82.4474"/>
</g>
<!-- Node7 -->
<g id="node8" class="node"><title>Node7</title>
<polygon fill="white" stroke="#bfbfbf" points="83.1333,-56.5 83.1333,-75.5 167.133,-75.5 167.133,-56.5 83.1333,-56.5"/>
<text text-anchor="middle" x="125.133" y="-63.5" font-family="Helvetica,sans-Serif" font-size="10.00">QGraphicsView</text>
</g>
<!-- Node1&#45;&gt;Node7 -->
<g id="edge66" class="edge"><title>Node1&#45;&gt;Node7</title>
<path fill="none" stroke="midnightblue" d="M845.213,-232.269C703.651,-229.531 248.921,-218.431 191.133,-188 152.255,-167.527 135.194,-114.17 128.654,-85.6363"/>
<polygon fill="midnightblue" stroke="midnightblue" points="132.053,-84.7919 126.579,-75.7206 125.201,-86.2255 132.053,-84.7919"/>
</g>
<!-- Node8 -->
<g id="node9" class="node"><title>Node8</title>
<polygon fill="white" stroke="#bfbfbf" points="620.633,-56.5 620.633,-75.5 673.633,-75.5 673.633,-56.5 620.633,-56.5"/>
<text text-anchor="middle" x="647.133" y="-63.5" font-family="Helvetica,sans-Serif" font-size="10.00">QObject</text>
</g>
<!-- Node1&#45;&gt;Node8 -->
<g id="edge68" class="edge"><title>Node1&#45;&gt;Node8</title>
<path fill="none" stroke="midnightblue" d="M845.446,-230.51C786.852,-226.086 684.543,-214.676 660.133,-188 634.549,-160.041 638.435,-111.857 643.054,-85.5172"/>
<polygon fill="midnightblue" stroke="midnightblue" points="646.491,-86.1774 644.994,-75.6889 639.624,-84.8216 646.491,-86.1774"/>
</g>
<!-- Node11 -->
<g id="node12" class="node"><title>Node11</title>
<polygon fill="white" stroke="#bfbfbf" points="13.1333,-56.5 13.1333,-75.5 65.1333,-75.5 65.1333,-56.5 13.1333,-56.5"/>
<text text-anchor="middle" x="39.1333" y="-63.5" font-family="Helvetica,sans-Serif" font-size="10.00">qmath.h</text>
</g>
<!-- Node1&#45;&gt;Node11 -->
<g id="edge69" class="edge"><title>Node1&#45;&gt;Node11</title>
<path fill="none" stroke="midnightblue" d="M845.443,-232.097C700.723,-228.731 225.475,-215.662 163.133,-188 112.001,-165.312 69.7188,-111.729 50.4135,-84.114"/>
<polygon fill="midnightblue" stroke="midnightblue" points="53.2904,-82.1205 44.7677,-75.8265 47.5053,-86.0616 53.2904,-82.1205"/>
</g>
<!-- Node12 -->
<g id="node13" class="node"><title>Node12</title>
<g id="a_node13"><a xlink:href="actionscenenpc_8hh.html" target="_top" xlink:title="actionscenenpc.hh">
<polygon fill="white" stroke="black" points="276.133,-112.5 276.133,-131.5 374.133,-131.5 374.133,-112.5 276.133,-112.5"/>
<text text-anchor="middle" x="325.133" y="-119.5" font-family="Helvetica,sans-Serif" font-size="10.00">actionscenenpc.hh</text>
</a>
</g>
</g>
<!-- Node1&#45;&gt;Node12 -->
<g id="edge14" class="edge"><title>Node1&#45;&gt;Node12</title>
<path fill="none" stroke="midnightblue" d="M845.574,-232.931C740.837,-232.177 468.688,-226.464 388.133,-188 366.054,-177.457 347.529,-155.698 336.402,-140.263"/>
<polygon fill="midnightblue" stroke="midnightblue" points="339.014,-137.884 330.464,-131.627 333.246,-141.85 339.014,-137.884"/>
</g>
<!-- Node13 -->
<g id="node14" class="node"><title>Node13</title>
<g id="a_node14"><a xlink:href="actionsceneblockingtile_8hh.html" target="_top" xlink:title="actionsceneblockingtile.hh">
<polygon fill="white" stroke="black" points="1254.63,-112.5 1254.63,-131.5 1385.63,-131.5 1385.63,-112.5 1254.63,-112.5"/>
<text text-anchor="middle" x="1320.13" y="-119.5" font-family="Helvetica,sans-Serif" font-size="10.00">actionsceneblockingtile.hh</text>
</a>
</g>
</g>
<!-- Node1&#45;&gt;Node13 -->
<g id="edge25" class="edge"><title>Node1&#45;&gt;Node13</title>
<path fill="none" stroke="midnightblue" d="M899.195,-224.281C922.678,-207.376 973.037,-171.488 982.133,-168 994.261,-163.349 1148.68,-143.918 1244.55,-132.163"/>
<polygon fill="midnightblue" stroke="midnightblue" points="1245,-135.635 1254.5,-130.945 1244.14,-128.687 1245,-135.635"/>
</g>
<!-- Node14 -->
<g id="node15" class="node"><title>Node14</title>
<g id="a_node15"><a xlink:href="actionscenebigexplosion_8hh.html" target="_top" xlink:title="actionscenebigexplosion.hh">
<polygon fill="white" stroke="black" points="430.633,-168.5 430.633,-187.5 567.633,-187.5 567.633,-168.5 430.633,-168.5"/>
<text text-anchor="middle" x="499.133" y="-175.5" font-family="Helvetica,sans-Serif" font-size="10.00">actionscenebigexplosion.hh</text>
</a>
</g>
</g>
<!-- Node1&#45;&gt;Node14 -->
<g id="edge27" class="edge"><title>Node1&#45;&gt;Node14</title>
<path fill="none" stroke="midnightblue" d="M845.61,-227.221C779.9,-218.076 651.141,-200.156 570.435,-188.923"/>
<polygon fill="midnightblue" stroke="midnightblue" points="570.739,-185.432 560.352,-187.52 569.774,-192.365 570.739,-185.432"/>
</g>
<!-- Node15 -->
<g id="node16" class="node"><title>Node15</title>
<g id="a_node16"><a xlink:href="actionscenesmallexplosion_8hh.html" target="_top" xlink:title="actionscenesmallexplosion.hh">
<polygon fill="white" stroke="black" points="906.633,-112.5 906.633,-131.5 1053.63,-131.5 1053.63,-112.5 906.633,-112.5"/>
<text text-anchor="middle" x="980.133" y="-119.5" font-family="Helvetica,sans-Serif" font-size="10.00">actionscenesmallexplosion.hh</text>
</a>
</g>
</g>
<!-- Node1&#45;&gt;Node15 -->
<g id="edge34" class="edge"><title>Node1&#45;&gt;Node15</title>
<path fill="none" stroke="midnightblue" d="M888.568,-224.137C891.11,-210.748 897.481,-185.116 911.133,-168 921.785,-154.646 937.517,-143.958 951.27,-136.354"/>
<polygon fill="midnightblue" stroke="midnightblue" points="953.147,-139.322 960.388,-131.588 949.905,-133.119 953.147,-139.322"/>
</g>
<!-- Node16 -->
<g id="node17" class="node"><title>Node16</title>
<g id="a_node17"><a xlink:href="actionsceneenemyprojectile_8hh.html" target="_top" xlink:title="actionsceneenemyprojectile.hh">
<polygon fill="white" stroke="black" points="669.633,-168.5 669.633,-187.5 820.633,-187.5 820.633,-168.5 669.633,-168.5"/>
<text text-anchor="middle" x="745.133" y="-175.5" font-family="Helvetica,sans-Serif" font-size="10.00">actionsceneenemyprojectile.hh</text>
</a>
</g>
</g>
<!-- Node1&#45;&gt;Node16 -->
<g id="edge40" class="edge"><title>Node1&#45;&gt;Node16</title>
<path fill="none" stroke="midnightblue" d="M864.633,-224.444C841.056,-215.478 803.811,-201.314 777.169,-191.183"/>
<polygon fill="midnightblue" stroke="midnightblue" points="778.119,-187.8 767.528,-187.516 775.631,-194.342 778.119,-187.8"/>
</g>
<!-- Node17 -->
<g id="node18" class="node"><title>Node17</title>
<g id="a_node18"><a xlink:href="actionsceneenemyprojectileexplosion_8hh.html" target="_top" xlink:title="actionsceneenemyprojectileexplosion.hh">
<polygon fill="white" stroke="black" points="696.133,-112.5 696.133,-131.5 888.133,-131.5 888.133,-112.5 696.133,-112.5"/>
<text text-anchor="middle" x="792.133" y="-119.5" font-family="Helvetica,sans-Serif" font-size="10.00">actionsceneenemyprojectileexplosion.hh</text>
</a>
</g>
</g>
<!-- Node1&#45;&gt;Node17 -->
<g id="edge60" class="edge"><title>Node1&#45;&gt;Node17</title>
<path fill="none" stroke="midnightblue" d="M879.679,-224.368C863.862,-206.055 826.721,-163.049 806.264,-139.362"/>
<polygon fill="midnightblue" stroke="midnightblue" points="808.738,-136.872 799.553,-131.591 803.44,-141.447 808.738,-136.872"/>
</g>
<!-- Node18 -->
<g id="node19" class="node"><title>Node18</title>
<polygon fill="white" stroke="#bfbfbf" points="1186.13,-112.5 1186.13,-131.5 1236.13,-131.5 1236.13,-112.5 1186.13,-112.5"/>
<text text-anchor="middle" x="1211.13" y="-119.5" font-family="Helvetica,sans-Serif" font-size="10.00">typeinfo</text>
</g>
<!-- Node1&#45;&gt;Node18 -->
<g id="edge71" class="edge"><title>Node1&#45;&gt;Node18</title>
<path fill="none" stroke="midnightblue" d="M892.748,-224.109C902.367,-209.702 923.465,-181.511 949.133,-168 1037.97,-121.237 1073.61,-151.298 1172.13,-132 1173.4,-131.752 1174.69,-131.493 1175.99,-131.225"/>
<polygon fill="midnightblue" stroke="midnightblue" points="1176.98,-134.592 1186.01,-129.057 1175.5,-127.75 1176.98,-134.592"/>
</g>
<!-- Node19 -->
<g id="node20" class="node"><title>Node19</title>
<g id="a_node20"><a xlink:href="actionsceneendmissiondisplay_8hh.html" target="_top" xlink:title="actionsceneendmissiondisplay.hh">
<polygon fill="white" stroke="black" points="991.633,-168.5 991.633,-187.5 1154.63,-187.5 1154.63,-168.5 991.633,-168.5"/>
<text text-anchor="middle" x="1073.13" y="-175.5" font-family="Helvetica,sans-Serif" font-size="10.00">actionsceneendmissiondisplay.hh</text>
</a>
</g>
</g>
<!-- Node1&#45;&gt;Node19 -->
<g id="edge56" class="edge"><title>Node1&#45;&gt;Node19</title>
<path fill="none" stroke="midnightblue" d="M916.606,-224.444C948.305,-215.241 998.865,-200.562 1033.91,-190.388"/>
<polygon fill="midnightblue" stroke="midnightblue" points="1035.17,-193.666 1043.8,-187.516 1033.22,-186.943 1035.17,-193.666"/>
</g>
<!-- Node21 -->
<g id="node22" class="node"><title>Node21</title>
<polygon fill="white" stroke="#bfbfbf" points="1577.63,-112.5 1577.63,-131.5 1696.63,-131.5 1696.63,-112.5 1577.63,-112.5"/>
<text text-anchor="middle" x="1637.13" y="-119.5" font-family="Helvetica,sans-Serif" font-size="10.00">QGraphicsProxyWidget</text>
</g>
<!-- Node1&#45;&gt;Node21 -->
<g id="edge67" class="edge"><title>Node1&#45;&gt;Node21</title>
<path fill="none" stroke="midnightblue" d="M928.987,-233.438C1056.91,-234.27 1441.03,-232.87 1556.13,-188 1583.03,-177.516 1607.96,-154.724 1622.87,-139.119"/>
<polygon fill="midnightblue" stroke="midnightblue" points="1625.49,-141.436 1629.71,-131.716 1620.35,-136.686 1625.49,-141.436"/>
</g>
<!-- Node1&#45;&gt;Node23 -->
<g id="edge61" class="edge"><title>Node1&#45;&gt;Node23</title>
<path fill="none" stroke="midnightblue" d="M928.774,-230.646C1039.73,-224.323 1351.71,-206.212 1611.13,-188 1616,-187.659 1620.97,-187.301 1626,-186.933"/>
<polygon fill="midnightblue" stroke="midnightblue" points="1626.66,-190.394 1636.37,-186.165 1626.14,-183.413 1626.66,-190.394"/>
</g>
<!-- Node26 -->
<g id="node27" class="node"><title>Node26</title>
<polygon fill="white" stroke="#bfbfbf" points="1173.13,-168.5 1173.13,-187.5 1317.13,-187.5 1317.13,-168.5 1173.13,-168.5"/>
<text text-anchor="middle" x="1245.13" y="-175.5" font-family="Helvetica,sans-Serif" font-size="10.00">QGraphicsSceneMouseEvent</text>
</g>
<!-- Node1&#45;&gt;Node26 -->
<g id="edge64" class="edge"><title>Node1&#45;&gt;Node26</title>
<path fill="none" stroke="midnightblue" d="M928.901,-226.7C990.293,-217.44 1105.51,-200.061 1178.62,-189.032"/>
<polygon fill="midnightblue" stroke="midnightblue" points="1179.28,-192.472 1188.65,-187.52 1178.24,-185.551 1179.28,-192.472"/>
</g>
<!-- Node27 -->
<g id="node28" class="node"><title>Node27</title>
<polygon fill="white" stroke="#bfbfbf" points="1335.63,-168.5 1335.63,-187.5 1400.63,-187.5 1400.63,-168.5 1335.63,-168.5"/>
<text text-anchor="middle" x="1368.13" y="-175.5" font-family="Helvetica,sans-Serif" font-size="10.00">QDateTime</text>
</g>
<!-- Node1&#45;&gt;Node27 -->
<g id="edge70" class="edge"><title>Node1&#45;&gt;Node27</title>
<path fill="none" stroke="midnightblue" d="M928.789,-230.249C1005.32,-224.867 1173.59,-211.506 1325.22,-187.98"/>
<polygon fill="midnightblue" stroke="midnightblue" points="1325.85,-191.425 1335.18,-186.416 1324.76,-184.509 1325.85,-191.425"/>
</g>
<!-- Node28 -->
<g id="node29" class="node"><title>Node28</title>
<polygon fill="white" stroke="#bfbfbf" points="1419.13,-168.5 1419.13,-187.5 1471.13,-187.5 1471.13,-168.5 1419.13,-168.5"/>
<text text-anchor="middle" x="1445.13" y="-175.5" font-family="Helvetica,sans-Serif" font-size="10.00">QDebug</text>
</g>
<!-- Node1&#45;&gt;Node28 -->
<g id="edge72" class="edge"><title>Node1&#45;&gt;Node28</title>
<path fill="none" stroke="midnightblue" d="M928.692,-231.66C1015.9,-228.368 1224.44,-217.968 1409.01,-187.716"/>
<polygon fill="midnightblue" stroke="midnightblue" points="1409.6,-191.166 1418.89,-186.073 1408.45,-184.261 1409.6,-191.166"/>
</g>
<!-- Node29 -->
<g id="node30" class="node"><title>Node29</title>
<polygon fill="white" stroke="#bfbfbf" points="1489.13,-168.5 1489.13,-187.5 1547.13,-187.5 1547.13,-168.5 1489.13,-168.5"/>
<text text-anchor="middle" x="1518.13" y="-175.5" font-family="Helvetica,sans-Serif" font-size="10.00">functional</text>
</g>
<!-- Node1&#45;&gt;Node29 -->
<g id="edge73" class="edge"><title>Node1&#45;&gt;Node29</title>
<path fill="none" stroke="midnightblue" d="M928.728,-232.083C1024.32,-229.497 1267.07,-220.2 1478.71,-187.988"/>
<polygon fill="midnightblue" stroke="midnightblue" points="1479.42,-191.42 1488.76,-186.436 1478.35,-184.502 1479.42,-191.42"/>
</g>
<!-- Node2&#45;&gt;Node3 -->
<g id="edge3" class="edge"><title>Node2&#45;&gt;Node3</title>
<path fill="none" stroke="midnightblue" d="M220.934,-112.324C229.951,-104.341 243.539,-92.3128 254.451,-82.6529"/>
<polygon fill="midnightblue" stroke="midnightblue" points="256.987,-85.083 262.154,-75.8339 252.347,-79.8416 256.987,-85.083"/>
</g>
<!-- Node4 -->
<g id="node5" class="node"><title>Node4</title>
<polygon fill="white" stroke="#bfbfbf" points="886.633,-0.5 886.633,-19.5 1001.63,-19.5 1001.63,-0.5 886.633,-0.5"/>
<text text-anchor="middle" x="944.133" y="-7.5" font-family="Helvetica,sans-Serif" font-size="10.00">QGraphicsPixmapItem</text>
</g>
<!-- Node2&#45;&gt;Node4 -->
<g id="edge6" class="edge"><title>Node2&#45;&gt;Node4</title>
<path fill="none" stroke="midnightblue" d="M236.572,-112.402C260.919,-103.935 298.512,-90.2351 330.133,-76 347.536,-68.1655 349.798,-61.2967 368.133,-56 461.722,-28.9642 744.893,-17.0487 876.077,-12.8729"/>
<polygon fill="midnightblue" stroke="midnightblue" points="876.508,-16.3613 886.394,-12.5506 876.289,-9.36469 876.508,-16.3613"/>
</g>
<!-- Node5 -->
<g id="node6" class="node"><title>Node5</title>
<polygon fill="white" stroke="#bfbfbf" points="402.633,-0.5 402.633,-19.5 487.633,-19.5 487.633,-0.5 402.633,-0.5"/>
<text text-anchor="middle" x="445.133" y="-7.5" font-family="Helvetica,sans-Serif" font-size="10.00">QPixmapCache</text>
</g>
<!-- Node2&#45;&gt;Node5 -->
<g id="edge7" class="edge"><title>Node2&#45;&gt;Node5</title>
<path fill="none" stroke="midnightblue" d="M208.488,-112.201C204.942,-98.4287 200.549,-71.7326 214.133,-56 236.851,-29.6897 331.423,-18.4743 392.293,-13.9111"/>
<polygon fill="midnightblue" stroke="midnightblue" points="392.772,-17.386 402.498,-13.1843 392.275,-10.4036 392.772,-17.386"/>
</g>
<!-- Node2&#45;&gt;Node6 -->
<g id="edge8" class="edge"><title>Node2&#45;&gt;Node6</title>
<path fill="none" stroke="midnightblue" d="M257.881,-113.468C261.012,-112.969 264.118,-112.476 267.133,-112 348.554,-99.1403 442.887,-84.5619 501.293,-75.5732"/>
<polygon fill="midnightblue" stroke="midnightblue" points="502.063,-78.9961 511.414,-74.0162 500.998,-72.0775 502.063,-78.9961"/>
</g>
<!-- Node2&#45;&gt;Node7 -->
<g id="edge9" class="edge"><title>Node2&#45;&gt;Node7</title>
<path fill="none" stroke="midnightblue" d="M197.316,-112.324C183.9,-103.9 163.309,-90.9709 147.548,-81.0741"/>
<polygon fill="midnightblue" stroke="midnightblue" points="149.246,-78.0081 138.916,-75.6545 145.524,-83.9364 149.246,-78.0081"/>
</g>
<!-- Node2&#45;&gt;Node8 -->
<g id="edge10" class="edge"><title>Node2&#45;&gt;Node8</title>
<path fill="none" stroke="midnightblue" d="M257.856,-113.294C260.993,-112.837 264.107,-112.401 267.133,-112 416.25,-92.2301 457.967,-102.253 610.291,-75.8949"/>
<polygon fill="midnightblue" stroke="midnightblue" points="611.242,-79.2815 620.487,-74.1054 610.032,-72.3869 611.242,-79.2815"/>
</g>
<!-- Node9 -->
<g id="node10" class="node"><title>Node9</title>
<polygon fill="white" stroke="#bfbfbf" points="692.133,-56.5 692.133,-75.5 740.133,-75.5 740.133,-56.5 692.133,-56.5"/>
<text text-anchor="middle" x="716.133" y="-63.5" font-family="Helvetica,sans-Serif" font-size="10.00">QTimer</text>
</g>
<!-- Node2&#45;&gt;Node9 -->
<g id="edge11" class="edge"><title>Node2&#45;&gt;Node9</title>
<path fill="none" stroke="midnightblue" d="M257.848,-113.231C260.987,-112.79 264.104,-112.374 267.133,-112 450.873,-89.2963 499.749,-107.805 682.133,-76 682.235,-75.9823 682.336,-75.9644 682.438,-75.9464"/>
<polygon fill="midnightblue" stroke="midnightblue" points="683.038,-79.397 692.101,-73.9095 681.594,-72.5476 683.038,-79.397"/>
</g>
<!-- Node10 -->
<g id="node11" class="node"><title>Node10</title>
<polygon fill="white" stroke="#bfbfbf" points="377.133,-56.5 377.133,-75.5 417.133,-75.5 417.133,-56.5 377.133,-56.5"/>
<text text-anchor="middle" x="397.133" y="-63.5" font-family="Helvetica,sans-Serif" font-size="10.00">QList</text>
</g>
<!-- Node2&#45;&gt;Node10 -->
<g id="edge12" class="edge"><title>Node2&#45;&gt;Node10</title>
<path fill="none" stroke="midnightblue" d="M240.606,-112.444C275.288,-102.374 332.55,-85.7501 367.362,-75.6434"/>
<polygon fill="midnightblue" stroke="midnightblue" points="368.343,-79.0029 376.971,-72.8536 366.392,-72.2805 368.343,-79.0029"/>
</g>
<!-- Node2&#45;&gt;Node11 -->
<g id="edge13" class="edge"><title>Node2&#45;&gt;Node11</title>
<path fill="none" stroke="midnightblue" d="M183.879,-112.444C154.349,-103.172 107.116,-88.3435 74.6868,-78.1622"/>
<polygon fill="midnightblue" stroke="midnightblue" points="75.723,-74.8191 65.1338,-75.1629 73.6262,-81.4977 75.723,-74.8191"/>
</g>
<!-- Node3&#45;&gt;Node4 -->
<g id="edge4" class="edge"><title>Node3&#45;&gt;Node4</title>
<path fill="none" stroke="midnightblue" d="M321.273,-57.6502C325.953,-57.0497 330.63,-56.4875 335.133,-56 531.123,-34.7847 763.696,-20.6476 876.308,-14.4991"/>
<polygon fill="midnightblue" stroke="midnightblue" points="876.703,-17.9829 886.499,-13.9466 876.324,-10.9931 876.703,-17.9829"/>
</g>
<!-- Node3&#45;&gt;Node5 -->
<g id="edge5" class="edge"><title>Node3&#45;&gt;Node5</title>
<path fill="none" stroke="midnightblue" d="M299.546,-56.4435C328.903,-47.2801 375.653,-32.6876 408.229,-22.5192"/>
<polygon fill="midnightblue" stroke="midnightblue" points="409.346,-25.8371 417.849,-19.5164 407.26,-19.1551 409.346,-25.8371"/>
</g>
<!-- Node12&#45;&gt;Node3 -->
<g id="edge15" class="edge"><title>Node12&#45;&gt;Node3</title>
<path fill="none" stroke="midnightblue" d="M316.381,-112.083C308.664,-104.22 297.229,-92.5688 287.917,-83.0813"/>
<polygon fill="midnightblue" stroke="midnightblue" points="290.225,-80.4363 280.722,-75.7511 285.229,-85.3396 290.225,-80.4363"/>
</g>
<!-- Node12&#45;&gt;Node4 -->
<g id="edge16" class="edge"><title>Node12&#45;&gt;Node4</title>
<path fill="none" stroke="midnightblue" d="M348.378,-112.378C395.507,-94.9092 498.206,-56.9059 502.133,-56 632.448,-25.9407 788.994,-15.9567 876.462,-12.6432"/>
<polygon fill="midnightblue" stroke="midnightblue" points="876.654,-16.1386 886.521,-12.2801 876.402,-9.14319 876.654,-16.1386"/>
</g>
<!-- Node12&#45;&gt;Node5 -->
<g id="edge17" class="edge"><title>Node12&#45;&gt;Node5</title>
<path fill="none" stroke="midnightblue" d="M363.509,-112.379C384.718,-105.755 409.968,-94.505 426.133,-76 437.363,-63.1447 441.967,-43.9639 443.848,-29.7673"/>
<polygon fill="midnightblue" stroke="midnightblue" points="447.345,-29.9626 444.847,-19.6665 440.379,-29.2732 447.345,-29.9626"/>
</g>
<!-- Node12&#45;&gt;Node6 -->
<g id="edge18" class="edge"><title>Node12&#45;&gt;Node6</title>
<path fill="none" stroke="midnightblue" d="M361.894,-112.444C402.196,-103.063 466.943,-87.9926 510.718,-77.8036"/>
<polygon fill="midnightblue" stroke="midnightblue" points="511.598,-81.1924 520.544,-75.5164 510.011,-74.3746 511.598,-81.1924"/>
</g>
<!-- Node12&#45;&gt;Node7 -->
<g id="edge19" class="edge"><title>Node12&#45;&gt;Node7</title>
<path fill="none" stroke="midnightblue" d="M293.443,-112.444C259.065,-103.162 204.056,-88.3093 166.344,-78.127"/>
<polygon fill="midnightblue" stroke="midnightblue" points="167.242,-74.7442 156.676,-75.5164 165.418,-81.5022 167.242,-74.7442"/>
</g>
<!-- Node12&#45;&gt;Node8 -->
<g id="edge20" class="edge"><title>Node12&#45;&gt;Node8</title>
<path fill="none" stroke="midnightblue" d="M374.205,-114.631C429.296,-107.18 521.538,-93.8054 610.471,-75.9737"/>
<polygon fill="midnightblue" stroke="midnightblue" points="611.352,-79.3665 620.457,-73.9496 609.961,-72.5061 611.352,-79.3665"/>
</g>
<!-- Node12&#45;&gt;Node9 -->
<g id="edge21" class="edge"><title>Node12&#45;&gt;Node9</title>
<path fill="none" stroke="midnightblue" d="M374.256,-116.899C443.389,-110.653 573.136,-97.1976 682.133,-76 682.234,-75.9803 682.336,-75.9605 682.437,-75.9406"/>
<polygon fill="midnightblue" stroke="midnightblue" points="683.08,-79.3833 692.079,-73.7919 681.557,-72.5509 683.08,-79.3833"/>
</g>
<!-- Node12&#45;&gt;Node10 -->
<g id="edge22" class="edge"><title>Node12&#45;&gt;Node10</title>
<path fill="none" stroke="midnightblue" d="M336.701,-112.324C347.553,-104.185 364.014,-91.8395 377.017,-82.0874"/>
<polygon fill="midnightblue" stroke="midnightblue" points="379.455,-84.6339 385.355,-75.8339 375.255,-79.0339 379.455,-84.6339"/>
</g>
<!-- Node12&#45;&gt;Node11 -->
<g id="edge23" class="edge"><title>Node12&#45;&gt;Node11</title>
<path fill="none" stroke="midnightblue" d="M275.863,-113.278C227.279,-105.414 150.708,-92.3578 75.5664,-76.1888"/>
<polygon fill="midnightblue" stroke="midnightblue" points="75.9717,-72.6952 65.4566,-73.9923 74.4855,-79.5357 75.9717,-72.6952"/>
</g>
<!-- Node13&#45;&gt;Node4 -->
<g id="edge26" class="edge"><title>Node13&#45;&gt;Node4</title>
<path fill="none" stroke="midnightblue" d="M1303.73,-112.364C1276.9,-98.5749 1221.66,-71.558 1172.13,-56 1119.35,-39.4201 1057.69,-27.6907 1011.82,-20.3726"/>
<polygon fill="midnightblue" stroke="midnightblue" points="1012.11,-16.8759 1001.69,-18.7877 1011.03,-23.7918 1012.11,-16.8759"/>
</g>
<!-- Node14&#45;&gt;Node4 -->
<g id="edge29" class="edge"><title>Node14&#45;&gt;Node4</title>
<path fill="none" stroke="midnightblue" d="M567.808,-172.722C716.138,-163.322 1053.83,-140.989 1062.13,-132 1099.39,-91.6449 1019.08,-45.6127 973.205,-23.7811"/>
<polygon fill="midnightblue" stroke="midnightblue" points="974.538,-20.541 963.994,-19.5005 971.588,-26.889 974.538,-20.541"/>
</g>
<!-- Node14&#45;&gt;Node5 -->
<g id="edge30" class="edge"><title>Node14&#45;&gt;Node5</title>
<path fill="none" stroke="midnightblue" d="M430.48,-174.732C305.109,-168.841 47.9289,-148.042 4.13328,-76 -0.484168,-68.4045 -1.82455,-62.5967 4.13328,-56 29.738,-27.6496 280.905,-16.2065 392.344,-12.4983"/>
<polygon fill="midnightblue" stroke="midnightblue" points="392.48,-15.9958 402.361,-12.1733 392.253,-8.9995 392.48,-15.9958"/>
</g>
<!-- Node14&#45;&gt;Node6 -->
<g id="edge31" class="edge"><title>Node14&#45;&gt;Node6</title>
<path fill="none" stroke="midnightblue" d="M488.47,-168.383C474.16,-155.74 451.877,-131.545 464.133,-112 474.01,-96.2481 491.136,-85.8746 508.021,-79.1065"/>
<polygon fill="midnightblue" stroke="midnightblue" points="509.675,-82.2295 517.879,-75.5247 507.284,-75.6504 509.675,-82.2295"/>
</g>
<!-- Node14&#45;&gt;Node8 -->
<g id="edge32" class="edge"><title>Node14&#45;&gt;Node8</title>
<path fill="none" stroke="midnightblue" d="M502.594,-168.234C508.418,-154.508 521.406,-127.873 540.133,-112 560.531,-94.7119 588.527,-83.2563 610.766,-76.2313"/>
<polygon fill="midnightblue" stroke="midnightblue" points="611.953,-79.5294 620.531,-73.3104 609.947,-72.8231 611.953,-79.5294"/>
</g>
<!-- Node14&#45;&gt;Node9 -->
<g id="edge33" class="edge"><title>Node14&#45;&gt;Node9</title>
<path fill="none" stroke="midnightblue" d="M516.161,-168.368C553.953,-149.211 645.045,-103.036 690.059,-80.2172"/>
<polygon fill="midnightblue" stroke="midnightblue" points="691.848,-83.2347 699.185,-75.5914 688.683,-76.991 691.848,-83.2347"/>
</g>
<!-- Node14&#45;&gt;Node12 -->
<g id="edge28" class="edge"><title>Node14&#45;&gt;Node12</title>
<path fill="none" stroke="midnightblue" d="M471.562,-168.444C442.036,-159.28 395.015,-144.688 362.251,-134.519"/>
<polygon fill="midnightblue" stroke="midnightblue" points="363.163,-131.138 352.575,-131.516 361.088,-137.823 363.163,-131.138"/>
</g>
<!-- Node15&#45;&gt;Node4 -->
<g id="edge35" class="edge"><title>Node15&#45;&gt;Node4</title>
<path fill="none" stroke="midnightblue" d="M977.308,-112.368C971.473,-94.5366 957.975,-53.2953 950.113,-29.2717"/>
<polygon fill="midnightblue" stroke="midnightblue" points="953.382,-28.0067 946.945,-19.5914 946.729,-30.1841 953.382,-28.0067"/>
</g>
<!-- Node15&#45;&gt;Node5 -->
<g id="edge36" class="edge"><title>Node15&#45;&gt;Node5</title>
<path fill="none" stroke="midnightblue" d="M957.197,-112.4C919.375,-98.5387 841.318,-71.269 773.133,-56 677.167,-34.5097 562.965,-21.6444 497.77,-15.4746"/>
<polygon fill="midnightblue" stroke="midnightblue" points="498.018,-11.9827 487.737,-14.5416 497.37,-18.9526 498.018,-11.9827"/>
</g>
<!-- Node15&#45;&gt;Node6 -->
<g id="edge37" class="edge"><title>Node15&#45;&gt;Node6</title>
<path fill="none" stroke="midnightblue" d="M906.496,-112.981C834.183,-104.887 720.475,-91.5775 612.838,-76.1979"/>
<polygon fill="midnightblue" stroke="midnightblue" points="613.173,-72.7101 602.777,-74.7515 612.177,-79.6389 613.173,-72.7101"/>
</g>
<!-- Node15&#45;&gt;Node8 -->
<g id="edge38" class="edge"><title>Node15&#45;&gt;Node8</title>
<path fill="none" stroke="midnightblue" d="M911.393,-112.462C853.29,-104.816 767.681,-92.5466 683.764,-75.9575"/>
<polygon fill="midnightblue" stroke="midnightblue" points="684.298,-72.4951 673.806,-73.9667 682.926,-79.3592 684.298,-72.4951"/>
</g>
<!-- Node15&#45;&gt;Node9 -->
<g id="edge39" class="edge"><title>Node15&#45;&gt;Node9</title>
<path fill="none" stroke="midnightblue" d="M938.302,-112.444C886.288,-101.804 798.493,-83.8463 750.315,-73.9916"/>
<polygon fill="midnightblue" stroke="midnightblue" points="750.877,-70.5344 740.379,-71.9593 749.475,-77.3924 750.877,-70.5344"/>
</g>
<!-- Node16&#45;&gt;Node2 -->
<g id="edge48" class="edge"><title>Node16&#45;&gt;Node2</title>
<path fill="none" stroke="midnightblue" d="M669.627,-171.428C577.391,-164.276 416.375,-150.679 268.054,-132.036"/>
<polygon fill="midnightblue" stroke="midnightblue" points="268.212,-128.528 257.851,-130.743 267.332,-135.472 268.212,-128.528"/>
</g>
<!-- Node16&#45;&gt;Node4 -->
<g id="edge50" class="edge"><title>Node16&#45;&gt;Node4</title>
<path fill="none" stroke="midnightblue" d="M820.91,-173.567C928.197,-167.918 1113.7,-154.937 1134.13,-132 1158.16,-105.034 1121.78,-74.7435 1096.13,-56 1071.49,-37.9853 1039.66,-27.1335 1011.51,-20.6194"/>
<polygon fill="midnightblue" stroke="midnightblue" points="1012.24,-17.1958 1001.72,-18.4916 1010.75,-24.036 1012.24,-17.1958"/>
</g>
<!-- Node16&#45;&gt;Node5 -->
<g id="edge51" class="edge"><title>Node16&#45;&gt;Node5</title>
<path fill="none" stroke="midnightblue" d="M820.839,-171.411C909.551,-164.077 1046.51,-149.998 1062.13,-132 1067.96,-125.287 1067.65,-118.971 1062.13,-112 992.635,-24.1669 634.217,-12.3094 497.868,-11.0129"/>
<polygon fill="midnightblue" stroke="midnightblue" points="497.7,-7.51151 487.672,-10.9319 497.644,-14.5113 497.7,-7.51151"/>
</g>
<!-- Node16&#45;&gt;Node6 -->
<g id="edge49" class="edge"><title>Node16&#45;&gt;Node6</title>
<path fill="none" stroke="midnightblue" d="M729.199,-168.385C712.79,-159.458 686.526,-145.015 664.133,-132 634.668,-114.874 601.157,-94.343 579.61,-81.0024"/>
<polygon fill="midnightblue" stroke="midnightblue" points="581.224,-77.8852 570.882,-75.5866 577.533,-83.8332 581.224,-77.8852"/>
</g>
<!-- Node16&#45;&gt;Node8 -->
<g id="edge52" class="edge"><title>Node16&#45;&gt;Node8</title>
<path fill="none" stroke="midnightblue" d="M728.768,-168.439C714.756,-160.476 694.746,-147.522 681.133,-132 668.955,-118.114 659.663,-99.0992 653.896,-85.224"/>
<polygon fill="midnightblue" stroke="midnightblue" points="657.1,-83.8102 650.183,-75.7855 650.586,-86.3726 657.1,-83.8102"/>
</g>
<!-- Node16&#45;&gt;Node9 -->
<g id="edge53" class="edge"><title>Node16&#45;&gt;Node9</title>
<path fill="none" stroke="midnightblue" d="M726.744,-168.471C713.032,-160.997 695.318,-148.71 687.133,-132 679.107,-115.614 689.987,-96.5065 700.634,-83.2679"/>
<polygon fill="midnightblue" stroke="midnightblue" points="703.468,-85.3432 707.396,-75.5034 698.189,-80.746 703.468,-85.3432"/>
</g>
<!-- Node16&#45;&gt;Node11 -->
<g id="edge54" class="edge"><title>Node16&#45;&gt;Node11</title>
<path fill="none" stroke="midnightblue" d="M669.621,-173.066C521.528,-165.084 203.165,-146.513 155.133,-132 135.974,-126.211 89.5503,-98.443 61.5864,-81.1265"/>
<polygon fill="midnightblue" stroke="midnightblue" points="63.2153,-78.0177 52.8767,-75.7014 59.5143,-83.9593 63.2153,-78.0177"/>
</g>
<!-- Node16&#45;&gt;Node13 -->
<g id="edge47" class="edge"><title>Node16&#45;&gt;Node13</title>
<path fill="none" stroke="midnightblue" d="M821.015,-170.876C916.942,-162.975 1087.44,-148.408 1244,-132.09"/>
<polygon fill="midnightblue" stroke="midnightblue" points="1244.71,-135.535 1254.3,-131.013 1243.99,-128.573 1244.71,-135.535"/>
</g>
<!-- Node16&#45;&gt;Node17 -->
<g id="edge41" class="edge"><title>Node16&#45;&gt;Node17</title>
<path fill="none" stroke="midnightblue" d="M752.894,-168.083C759.67,-160.298 769.676,-148.801 777.888,-139.367"/>
<polygon fill="midnightblue" stroke="midnightblue" points="780.591,-141.592 784.517,-131.751 775.311,-136.996 780.591,-141.592"/>
</g>
<!-- Node16&#45;&gt;Node18 -->
<g id="edge55" class="edge"><title>Node16&#45;&gt;Node18</title>
<path fill="none" stroke="midnightblue" d="M820.714,-171.831C906.35,-165.328 1049.91,-152.465 1172.13,-132 1173.41,-131.787 1174.7,-131.558 1176,-131.315"/>
<polygon fill="midnightblue" stroke="midnightblue" points="1176.95,-134.694 1186.05,-129.262 1175.55,-127.835 1176.95,-134.694"/>
</g>
<!-- Node17&#45;&gt;Node4 -->
<g id="edge42" class="edge"><title>Node17&#45;&gt;Node4</title>
<path fill="none" stroke="midnightblue" d="M804.06,-112.368C830.033,-93.5728 891.944,-48.7684 924.051,-25.5334"/>
<polygon fill="midnightblue" stroke="midnightblue" points="926.212,-28.2896 932.261,-19.5914 922.108,-22.6187 926.212,-28.2896"/>
</g>
<!-- Node17&#45;&gt;Node5 -->
<g id="edge43" class="edge"><title>Node17&#45;&gt;Node5</title>
<path fill="none" stroke="midnightblue" d="M789.009,-112.108C783.445,-97.7013 770.367,-69.5099 749.133,-56 708.452,-30.1163 573.671,-18.3502 497.948,-13.6694"/>
<polygon fill="midnightblue" stroke="midnightblue" points="497.862,-10.1581 487.671,-13.0552 497.445,-17.1457 497.862,-10.1581"/>
</g>
<!-- Node17&#45;&gt;Node6 -->
<g id="edge44" class="edge"><title>Node17&#45;&gt;Node6</title>
<path fill="none" stroke="midnightblue" d="M754.897,-112.444C714.074,-103.063 648.49,-87.9926 604.149,-77.8036"/>
<polygon fill="midnightblue" stroke="midnightblue" points="604.725,-74.3449 594.196,-75.5164 603.158,-81.1671 604.725,-74.3449"/>
</g>
<!-- Node17&#45;&gt;Node8 -->
<g id="edge45" class="edge"><title>Node17&#45;&gt;Node8</title>
<path fill="none" stroke="midnightblue" d="M769.158,-112.444C744.976,-103.438 706.715,-89.1891 679.487,-79.049"/>
<polygon fill="midnightblue" stroke="midnightblue" points="680.594,-75.7265 670.001,-75.5164 678.151,-82.2864 680.594,-75.7265"/>
</g>
<!-- Node17&#45;&gt;Node9 -->
<g id="edge46" class="edge"><title>Node17&#45;&gt;Node9</title>
<path fill="none" stroke="midnightblue" d="M779.923,-112.324C768.357,-104.107 750.758,-91.6017 736.973,-81.8069"/>
<polygon fill="midnightblue" stroke="midnightblue" points="738.745,-78.7729 728.566,-75.8339 734.691,-84.4791 738.745,-78.7729"/>
</g>
<!-- Node20 -->
<g id="node21" class="node"><title>Node20</title>
<polygon fill="white" stroke="#bfbfbf" points="1403.63,-112.5 1403.63,-131.5 1458.63,-131.5 1458.63,-112.5 1403.63,-112.5"/>
<text text-anchor="middle" x="1431.13" y="-119.5" font-family="Helvetica,sans-Serif" font-size="10.00">QWidget</text>
</g>
<!-- Node19&#45;&gt;Node20 -->
<g id="edge57" class="edge"><title>Node19&#45;&gt;Node20</title>
<path fill="none" stroke="midnightblue" d="M1149.37,-168.476C1212.27,-160.946 1304.03,-148.823 1393.29,-131.992"/>
<polygon fill="midnightblue" stroke="midnightblue" points="1394.15,-135.391 1403.32,-130.08 1392.84,-128.515 1394.15,-135.391"/>
</g>
<!-- Node19&#45;&gt;Node21 -->
<g id="edge58" class="edge"><title>Node19&#45;&gt;Node21</title>
<path fill="none" stroke="midnightblue" d="M1154.98,-168.867C1158.07,-168.572 1161.13,-168.282 1164.13,-168 1340.37,-151.434 1387.26,-151.648 1567.24,-132.056"/>
<polygon fill="midnightblue" stroke="midnightblue" points="1567.75,-135.521 1577.31,-130.955 1566.99,-128.563 1567.75,-135.521"/>
</g>
<!-- Node22 -->
<g id="node23" class="node"><title>Node22</title>
<polygon fill="white" stroke="#bfbfbf" points="1477.13,-112.5 1477.13,-131.5 1559.13,-131.5 1559.13,-112.5 1477.13,-112.5"/>
<text text-anchor="middle" x="1518.13" y="-119.5" font-family="Helvetica,sans-Serif" font-size="10.00">QGraphicsItem</text>
</g>
<!-- Node19&#45;&gt;Node22 -->
<g id="edge59" class="edge"><title>Node19&#45;&gt;Node22</title>
<path fill="none" stroke="midnightblue" d="M1152.78,-168.484C1245.35,-158.49 1393.65,-142.155 1466.75,-131.946"/>
<polygon fill="midnightblue" stroke="midnightblue" points="1467.57,-135.364 1476.97,-130.486 1466.58,-128.435 1467.57,-135.364"/>
</g>
<!-- Node24 -->
<g id="node25" class="node"><title>Node24</title>
<polygon fill="white" stroke="#bfbfbf" points="1780.13,-112.5 1780.13,-131.5 1822.13,-131.5 1822.13,-112.5 1780.13,-112.5"/>
<text text-anchor="middle" x="1801.13" y="-119.5" font-family="Helvetica,sans-Serif" font-size="10.00">vector</text>
</g>
<!-- Node23&#45;&gt;Node24 -->
<g id="edge62" class="edge"><title>Node23&#45;&gt;Node24</title>
<path fill="none" stroke="midnightblue" d="M1738.18,-168.324C1749.6,-160.107 1766.96,-147.602 1780.57,-137.807"/>
<polygon fill="midnightblue" stroke="midnightblue" points="1782.79,-140.517 1788.86,-131.834 1778.7,-134.837 1782.79,-140.517"/>
</g>
<!-- Node25 -->
<g id="node26" class="node"><title>Node25</title>
<polygon fill="white" stroke="#bfbfbf" points="1714.63,-112.5 1714.63,-131.5 1761.63,-131.5 1761.63,-112.5 1714.63,-112.5"/>
<text text-anchor="middle" x="1738.13" y="-119.5" font-family="Helvetica,sans-Serif" font-size="10.00">QPoint</text>
</g>
<!-- Node23&#45;&gt;Node25 -->
<g id="edge63" class="edge"><title>Node23&#45;&gt;Node25</title>
<path fill="none" stroke="midnightblue" d="M1728.11,-168.083C1729.71,-160.927 1731.99,-150.635 1733.98,-141.691"/>
<polygon fill="midnightblue" stroke="midnightblue" points="1737.44,-142.272 1736.19,-131.751 1730.6,-140.754 1737.44,-142.272"/>
</g>
</g>
</svg>
        <g id="navigator" transform="translate(0 0)" fill="#404254">
                <rect fill="#f2f5e9" fill-opacity="0.5" stroke="#606060" stroke-width=".5" x="0" y="0" width="60" height="60"/>
                <use id="zoomplus" xlink:href="#zoomPlus" x="17" y="9" onmousedown="handleZoom(evt,'in')"/>
                <use id="zoomminus" xlink:href="#zoomMin" x="42" y="9" onmousedown="handleZoom(evt,'out')"/>
                <use id="reset" xlink:href="#resetDef" x="30" y="36" onmousedown="handleReset()"/>
                <g id="arrowUp" xlink:href="#dirArrow" transform="translate(30 24)" onmousedown="handlePan(0,-1)">
                  <use xlink:href="#rim" fill="#404040">
                        <set attributeName="fill" to="#808080" begin="arrowUp.mouseover" end="arrowUp.mouseout"/>
                  </use>
                  <path fill="none" stroke="white" stroke-width="1.5" d="M0,-3.0v7 M-2.5,-0.5L0,-3.0L2.5,-0.5"/>
                </g>
                <g id="arrowRight" xlink:href="#dirArrow" transform="rotate(90) translate(36 -43)" onmousedown="handlePan(1,0)">
                  <use xlink:href="#rim" fill="#404040">
                        <set attributeName="fill" to="#808080" begin="arrowRight.mouseover" end="arrowRight.mouseout"/>
                  </use>
                  <path fill="none" stroke="white" stroke-width="1.5" d="M0,-3.0v7 M-2.5,-0.5L0,-3.0L2.5,-0.5"/>
                </g>
                <g id="arrowDown" xlink:href="#dirArrow" transform="rotate(180) translate(-30 -48)" onmousedown="handlePan(0,1)">
                  <use xlink:href="#rim" fill="#404040">
                        <set attributeName="fill" to="#808080" begin="arrowDown.mouseover" end="arrowDown.mouseout"/>
                  </use>
                  <path fill="none" stroke="white" stroke-width="1.5" d="M0,-3.0v7 M-2.5,-0.5L0,-3.0L2.5,-0.5"/>
                </g>
                <g id="arrowLeft" xlink:href="#dirArrow" transform="rotate(270) translate(-36 17)" onmousedown="handlePan(-1,0)">
                  <use xlink:href="#rim" fill="#404040">
                        <set attributeName="fill" to="#808080" begin="arrowLeft.mouseover" end="arrowLeft.mouseout"/>
                  </use>
                  <path fill="none" stroke="white" stroke-width="1.5" d="M0,-3.0v7 M-2.5,-0.5L0,-3.0L2.5,-0.5"/>
                </g>
        </g>
        <svg viewBox="0 0 15 15" width="100%" height="30px" preserveAspectRatio="xMaxYMin meet">
         <g id="arrow_out" transform="scale(0.3 0.3)">
          <a xlink:href="actionscene_8cc__incl_org.svg" target="_base">
           <rect id="button" ry="5" rx="5" y="6" x="6" height="38" width="38"
                fill="#f2f5e9" fill-opacity="0.5" stroke="#606060" stroke-width="1.0"/>
           <path id="arrow"
             d="M 11.500037,31.436501 C 11.940474,20.09759 22.043105,11.32322 32.158766,21.979434 L 37.068811,17.246167 C 37.068811,17.246167 37.088388,32 37.088388,32 L 22.160133,31.978069 C 22.160133,31.978069 26.997745,27.140456 26.997745,27.140456 C 18.528582,18.264221 13.291696,25.230495 11.500037,31.436501 z"
             style="fill:#404040;"/>
          </a>
         </g>
        </svg>
</svg>
