<?xml version="1.0" encoding="UTF-8" standalone="no"?>
<!DOCTYPE svg PUBLIC "-//W3C//DTD SVG 1.1//EN"
 "http://www.w3.org/Graphics/SVG/1.1/DTD/svg11.dtd">
<!-- Generated by graphviz version 2.38.0 (20140413.2041)
 -->
<!-- Title: View/actionsceneenemyprojectileexplosion.hh Pages: 1 -->
<svg width="566pt" height="252pt"
 viewBox="0.00 0.00 565.50 252.00" xmlns="http://www.w3.org/2000/svg" xmlns:xlink="http://www.w3.org/1999/xlink">
<g id="graph0" class="graph" transform="scale(1 1) rotate(0) translate(4 248)">
<title>View/actionsceneenemyprojectileexplosion.hh</title>
<polygon fill="white" stroke="none" points="-4,4 -4,-248 561.5,-248 561.5,4 -4,4"/>
<!-- Node6 -->
<g id="node1" class="node"><title>Node6</title>
<polygon fill="#bfbfbf" stroke="black" points="127.5,-224.5 127.5,-243.5 343.5,-243.5 343.5,-224.5 127.5,-224.5"/>
<text text-anchor="middle" x="235.5" y="-231.5" font-family="Helvetica,sans-Serif" font-size="10.00">View/actionsceneenemyprojectileexplosion.hh</text>
</g>
<!-- Node7 -->
<g id="node2" class="node"><title>Node7</title>
<g id="a_node2"><a xlink:href="actionsceneenemyprojectile_8hh.html" target="_top" xlink:title="View/actionsceneenemyprojectile.hh">
<polygon fill="white" stroke="black" points="148,-168.5 148,-187.5 323,-187.5 323,-168.5 148,-168.5"/>
<text text-anchor="middle" x="235.5" y="-175.5" font-family="Helvetica,sans-Serif" font-size="10.00">View/actionsceneenemyprojectile.hh</text>
</a>
</g>
</g>
<!-- Node6&#45;&gt;Node7 -->
<g id="edge1" class="edge"><title>Node6&#45;&gt;Node7</title>
<path fill="none" stroke="midnightblue" d="M235.5,-213.805C235.5,-204.91 235.5,-194.78 235.5,-187.751"/>
<polygon fill="midnightblue" stroke="midnightblue" points="232,-214.083 235.5,-224.083 239,-214.083 232,-214.083"/>
</g>
<!-- Node8 -->
<g id="node3" class="node"><title>Node8</title>
<g id="a_node3"><a xlink:href="actionscene_8hh.html" target="_top" xlink:title="View/actionscene.hh">
<polygon fill="white" stroke="black" points="66,-112.5 66,-131.5 173,-131.5 173,-112.5 66,-112.5"/>
<text text-anchor="middle" x="119.5" y="-119.5" font-family="Helvetica,sans-Serif" font-size="10.00">View/actionscene.hh</text>
</a>
</g>
</g>
<!-- Node6&#45;&gt;Node8 -->
<g id="edge8" class="edge"><title>Node6&#45;&gt;Node8</title>
<path fill="none" stroke="midnightblue" d="M190.604,-221.182C172.16,-214.262 152.005,-203.7 138.5,-188 124.392,-171.6 120.749,-145.196 119.816,-131.641"/>
<polygon fill="midnightblue" stroke="midnightblue" points="189.454,-224.488 200.048,-224.477 191.759,-217.879 189.454,-224.488"/>
</g>
<!-- Node14 -->
<g id="node9" class="node"><title>Node14</title>
<g id="a_node9"><a xlink:href="actionsceneenemyprojectileexplosion_8cc.html" target="_top" xlink:title="View/actionsceneenemyprojectileexplosion.cc">
<polygon fill="white" stroke="black" points="341.5,-168.5 341.5,-187.5 557.5,-187.5 557.5,-168.5 341.5,-168.5"/>
<text text-anchor="middle" x="449.5" y="-175.5" font-family="Helvetica,sans-Serif" font-size="10.00">View/actionsceneenemyprojectileexplosion.cc</text>
</a>
</g>
</g>
<!-- Node6&#45;&gt;Node14 -->
<g id="edge9" class="edge"><title>Node6&#45;&gt;Node14</title>
<path fill="none" stroke="midnightblue" d="M279.255,-221.959C319.674,-211.76 378.873,-196.822 415.75,-187.516"/>
<polygon fill="midnightblue" stroke="midnightblue" points="278.249,-218.603 269.409,-224.444 279.961,-225.39 278.249,-218.603"/>
</g>
<!-- Node7&#45;&gt;Node8 -->
<g id="edge2" class="edge"><title>Node7&#45;&gt;Node8</title>
<path fill="none" stroke="midnightblue" d="M207.78,-164.096C186.108,-154.007 156.598,-140.27 137.795,-131.516"/>
<polygon fill="midnightblue" stroke="midnightblue" points="206.577,-167.396 217.119,-168.444 209.531,-161.05 206.577,-167.396"/>
</g>
<!-- Node13 -->
<g id="node8" class="node"><title>Node13</title>
<g id="a_node8"><a xlink:href="actionsceneenemyprojectile_8cc.html" target="_top" xlink:title="View/actionsceneenemyprojectile.cc">
<polygon fill="white" stroke="black" points="191,-112.5 191,-131.5 366,-131.5 366,-112.5 191,-112.5"/>
<text text-anchor="middle" x="278.5" y="-119.5" font-family="Helvetica,sans-Serif" font-size="10.00">View/actionsceneenemyprojectile.cc</text>
</a>
</g>
</g>
<!-- Node7&#45;&gt;Node13 -->
<g id="edge7" class="edge"><title>Node7&#45;&gt;Node13</title>
<path fill="none" stroke="midnightblue" d="M248.922,-160.144C256.414,-150.736 265.437,-139.405 271.532,-131.751"/>
<polygon fill="midnightblue" stroke="midnightblue" points="246.092,-158.08 242.601,-168.083 251.568,-162.44 246.092,-158.08"/>
</g>
<!-- Node9 -->
<g id="node4" class="node"><title>Node9</title>
<g id="a_node4"><a xlink:href="view_8hh.html" target="_top" xlink:title="View/view.hh">
<polygon fill="white" stroke="black" points="29.5,-56.5 29.5,-75.5 101.5,-75.5 101.5,-56.5 29.5,-56.5"/>
<text text-anchor="middle" x="65.5" y="-63.5" font-family="Helvetica,sans-Serif" font-size="10.00">View/view.hh</text>
</a>
</g>
</g>
<!-- Node8&#45;&gt;Node9 -->
<g id="edge3" class="edge"><title>Node8&#45;&gt;Node9</title>
<path fill="none" stroke="midnightblue" d="M103.502,-105.002C93.9329,-95.4329 82.1389,-83.6389 74.2511,-75.7511"/>
<polygon fill="midnightblue" stroke="midnightblue" points="101.037,-107.487 110.583,-112.083 105.987,-102.537 101.037,-107.487"/>
</g>
<!-- Node12 -->
<g id="node7" class="node"><title>Node12</title>
<g id="a_node7"><a xlink:href="actionscene_8cc.html" target="_top" xlink:title="View/actionscene.cc">
<polygon fill="white" stroke="black" points="120,-56.5 120,-75.5 227,-75.5 227,-56.5 120,-56.5"/>
<text text-anchor="middle" x="173.5" y="-63.5" font-family="Helvetica,sans-Serif" font-size="10.00">View/actionscene.cc</text>
</a>
</g>
</g>
<!-- Node8&#45;&gt;Node12 -->
<g id="edge6" class="edge"><title>Node8&#45;&gt;Node12</title>
<path fill="none" stroke="midnightblue" d="M135.498,-105.002C145.067,-95.4329 156.861,-83.6389 164.749,-75.7511"/>
<polygon fill="midnightblue" stroke="midnightblue" points="133.013,-102.537 128.417,-112.083 137.963,-107.487 133.013,-102.537"/>
</g>
<!-- Node10 -->
<g id="node5" class="node"><title>Node10</title>
<g id="a_node5"><a xlink:href="main_8cc.html" target="_top" xlink:title="main.cc">
<polygon fill="white" stroke="black" points="0,-0.5 0,-19.5 51,-19.5 51,-0.5 0,-0.5"/>
<text text-anchor="middle" x="25.5" y="-7.5" font-family="Helvetica,sans-Serif" font-size="10.00">main.cc</text>
</a>
</g>
</g>
<!-- Node9&#45;&gt;Node10 -->
<g id="edge4" class="edge"><title>Node9&#45;&gt;Node10</title>
<path fill="none" stroke="midnightblue" d="M52.8003,-47.8554C45.874,-38.5048 37.5937,-27.3265 31.9823,-19.7511"/>
<polygon fill="midnightblue" stroke="midnightblue" points="50.13,-50.1307 58.8948,-56.083 55.755,-45.9641 50.13,-50.1307"/>
</g>
<!-- Node11 -->
<g id="node6" class="node"><title>Node11</title>
<g id="a_node6"><a xlink:href="view_8cc.html" target="_top" xlink:title="View/view.cc">
<polygon fill="white" stroke="black" points="69.5,-0.5 69.5,-19.5 141.5,-19.5 141.5,-0.5 69.5,-0.5"/>
<text text-anchor="middle" x="105.5" y="-7.5" font-family="Helvetica,sans-Serif" font-size="10.00">View/view.cc</text>
</a>
</g>
</g>
<!-- Node9&#45;&gt;Node11 -->
<g id="edge5" class="edge"><title>Node9&#45;&gt;Node11</title>
<path fill="none" stroke="midnightblue" d="M78.1997,-47.8554C85.126,-38.5048 93.4063,-27.3265 99.0177,-19.7511"/>
<polygon fill="midnightblue" stroke="midnightblue" points="75.245,-45.9641 72.1052,-56.083 80.87,-50.1307 75.245,-45.9641"/>
</g>
</g>
</svg>
