<?xml version="1.0" encoding="UTF-8" standalone="no"?>
<!DOCTYPE svg PUBLIC "-//W3C//DTD SVG 1.1//EN"
 "http://www.w3.org/Graphics/SVG/1.1/DTD/svg11.dtd">
<!-- Generated by graphviz version 2.38.0 (20140413.2041)
 -->
<!-- Title: View/actionsceneenemyprojectileexplosion.cc Pages: 1 -->
<svg width="473pt" height="140pt"
 viewBox="0.00 0.00 472.50 140.00" xmlns="http://www.w3.org/2000/svg" xmlns:xlink="http://www.w3.org/1999/xlink">
<g id="graph0" class="graph" transform="scale(1 1) rotate(0) translate(4 136)">
<title>View/actionsceneenemyprojectileexplosion.cc</title>
<polygon fill="white" stroke="none" points="-4,4 -4,-136 468.5,-136 468.5,4 -4,4"/>
<!-- Node0 -->
<g id="node1" class="node"><title>Node0</title>
<polygon fill="#bfbfbf" stroke="black" points="173.5,-112.5 173.5,-131.5 389.5,-131.5 389.5,-112.5 173.5,-112.5"/>
<text text-anchor="middle" x="281.5" y="-119.5" font-family="Helvetica,sans-Serif" font-size="10.00">View/actionsceneenemyprojectileexplosion.cc</text>
</g>
<!-- Node1 -->
<g id="node2" class="node"><title>Node1</title>
<g id="a_node2"><a xlink:href="actionsceneenemyprojectileexplosion_8hh.html" target="_top" xlink:title="actionsceneenemyprojectileexplosion.hh">
<polygon fill="white" stroke="black" points="185.5,-56.5 185.5,-75.5 377.5,-75.5 377.5,-56.5 185.5,-56.5"/>
<text text-anchor="middle" x="281.5" y="-63.5" font-family="Helvetica,sans-Serif" font-size="10.00">actionsceneenemyprojectileexplosion.hh</text>
</a>
</g>
</g>
<!-- Node0&#45;&gt;Node1 -->
<g id="edge1" class="edge"><title>Node0&#45;&gt;Node1</title>
<path fill="none" stroke="midnightblue" d="M281.5,-112.083C281.5,-105.006 281.5,-94.8611 281.5,-85.9865"/>
<polygon fill="midnightblue" stroke="midnightblue" points="285,-85.751 281.5,-75.7511 278,-85.7511 285,-85.751"/>
</g>
<!-- Node2 -->
<g id="node3" class="node"><title>Node2</title>
<polygon fill="white" stroke="#bfbfbf" points="0,-0.5 0,-19.5 115,-19.5 115,-0.5 0,-0.5"/>
<text text-anchor="middle" x="57.5" y="-7.5" font-family="Helvetica,sans-Serif" font-size="10.00">QGraphicsPixmapItem</text>
</g>
<!-- Node1&#45;&gt;Node2 -->
<g id="edge2" class="edge"><title>Node1&#45;&gt;Node2</title>
<path fill="none" stroke="midnightblue" d="M246.007,-56.4435C207.176,-47.0826 144.844,-32.0561 102.582,-21.868"/>
<polygon fill="midnightblue" stroke="midnightblue" points="103.369,-18.4576 92.8274,-19.5164 101.729,-25.2626 103.369,-18.4576"/>
</g>
<!-- Node3 -->
<g id="node4" class="node"><title>Node3</title>
<polygon fill="white" stroke="#bfbfbf" points="133,-0.5 133,-19.5 218,-19.5 218,-0.5 133,-0.5"/>
<text text-anchor="middle" x="175.5" y="-7.5" font-family="Helvetica,sans-Serif" font-size="10.00">QPixmapCache</text>
</g>
<!-- Node1&#45;&gt;Node3 -->
<g id="edge3" class="edge"><title>Node1&#45;&gt;Node3</title>
<path fill="none" stroke="midnightblue" d="M264.469,-56.324C247.47,-47.6641 221.124,-34.2424 201.507,-24.249"/>
<polygon fill="midnightblue" stroke="midnightblue" points="202.988,-21.0752 192.488,-19.6545 199.81,-27.3125 202.988,-21.0752"/>
</g>
<!-- Node4 -->
<g id="node5" class="node"><title>Node4</title>
<polygon fill="white" stroke="#bfbfbf" points="236,-0.5 236,-19.5 327,-19.5 327,-0.5 236,-0.5"/>
<text text-anchor="middle" x="281.5" y="-7.5" font-family="Helvetica,sans-Serif" font-size="10.00">QGraphicsScene</text>
</g>
<!-- Node1&#45;&gt;Node4 -->
<g id="edge4" class="edge"><title>Node1&#45;&gt;Node4</title>
<path fill="none" stroke="midnightblue" d="M281.5,-56.083C281.5,-49.0059 281.5,-38.8611 281.5,-29.9865"/>
<polygon fill="midnightblue" stroke="midnightblue" points="285,-29.751 281.5,-19.7511 278,-29.7511 285,-29.751"/>
</g>
<!-- Node5 -->
<g id="node6" class="node"><title>Node5</title>
<polygon fill="white" stroke="#bfbfbf" points="345,-0.5 345,-19.5 398,-19.5 398,-0.5 345,-0.5"/>
<text text-anchor="middle" x="371.5" y="-7.5" font-family="Helvetica,sans-Serif" font-size="10.00">QObject</text>
</g>
<!-- Node1&#45;&gt;Node5 -->
<g id="edge5" class="edge"><title>Node1&#45;&gt;Node5</title>
<path fill="none" stroke="midnightblue" d="M295.96,-56.324C310,-47.9002 331.548,-34.9709 348.043,-25.0741"/>
<polygon fill="midnightblue" stroke="midnightblue" points="350.302,-27.8007 357.076,-19.6545 346.7,-21.7983 350.302,-27.8007"/>
</g>
<!-- Node6 -->
<g id="node7" class="node"><title>Node6</title>
<polygon fill="white" stroke="#bfbfbf" points="416.5,-0.5 416.5,-19.5 464.5,-19.5 464.5,-0.5 416.5,-0.5"/>
<text text-anchor="middle" x="440.5" y="-7.5" font-family="Helvetica,sans-Serif" font-size="10.00">QTimer</text>
</g>
<!-- Node1&#45;&gt;Node6 -->
<g id="edge6" class="edge"><title>Node1&#45;&gt;Node6</title>
<path fill="none" stroke="midnightblue" d="M306.694,-56.4435C333.757,-47.2522 376.904,-32.5987 406.855,-22.4265"/>
<polygon fill="midnightblue" stroke="midnightblue" points="408.121,-25.6929 416.465,-19.1629 405.87,-19.0648 408.121,-25.6929"/>
</g>
</g>
</svg>
