<?xml version="1.0" encoding="UTF-8" standalone="no"?>
<!DOCTYPE svg PUBLIC "-//W3C//DTD SVG 1.1//EN"
 "http://www.w3.org/Graphics/SVG/1.1/DTD/svg11.dtd">
<!-- Generated by graphviz version 2.38.0 (20140413.2041)
 -->
<!-- Title: View/actionscenenpc.hh Pages: 1 -->
<svg width="458pt" height="252pt"
 viewBox="0.00 0.00 457.50 252.00" xmlns="http://www.w3.org/2000/svg" xmlns:xlink="http://www.w3.org/1999/xlink">
<g id="graph0" class="graph" transform="scale(1 1) rotate(0) translate(4 248)">
<title>View/actionscenenpc.hh</title>
<polygon fill="white" stroke="none" points="-4,4 -4,-248 453.5,-248 453.5,4 -4,4"/>
<!-- Node10 -->
<g id="node1" class="node"><title>Node10</title>
<polygon fill="#bfbfbf" stroke="black" points="167.5,-224.5 167.5,-243.5 289.5,-243.5 289.5,-224.5 167.5,-224.5"/>
<text text-anchor="middle" x="228.5" y="-231.5" font-family="Helvetica,sans-Serif" font-size="10.00">View/actionscenenpc.hh</text>
</g>
<!-- Node11 -->
<g id="node2" class="node"><title>Node11</title>
<g id="a_node2"><a xlink:href="actionscene_8hh.html" target="_top" xlink:title="View/actionscene.hh">
<polygon fill="white" stroke="black" points="66,-112.5 66,-131.5 173,-131.5 173,-112.5 66,-112.5"/>
<text text-anchor="middle" x="119.5" y="-119.5" font-family="Helvetica,sans-Serif" font-size="10.00">View/actionscene.hh</text>
</a>
</g>
</g>
<!-- Node10&#45;&gt;Node11 -->
<g id="edge1" class="edge"><title>Node10&#45;&gt;Node11</title>
<path fill="none" stroke="midnightblue" d="M187.886,-220.915C170.477,-213.864 151.254,-203.273 138.5,-188 124.634,-171.395 120.885,-145.081 119.873,-131.592"/>
<polygon fill="midnightblue" stroke="midnightblue" points="186.727,-224.219 197.319,-224.476 189.199,-217.67 186.727,-224.219"/>
</g>
<!-- Node16 -->
<g id="node7" class="node"><title>Node16</title>
<g id="a_node7"><a xlink:href="actionscenebigexplosion_8hh.html" target="_top" xlink:title="View/actionscenebigexplosion.hh">
<polygon fill="white" stroke="black" points="148,-168.5 148,-187.5 309,-187.5 309,-168.5 148,-168.5"/>
<text text-anchor="middle" x="228.5" y="-175.5" font-family="Helvetica,sans-Serif" font-size="10.00">View/actionscenebigexplosion.hh</text>
</a>
</g>
</g>
<!-- Node10&#45;&gt;Node16 -->
<g id="edge6" class="edge"><title>Node10&#45;&gt;Node16</title>
<path fill="none" stroke="midnightblue" d="M228.5,-213.805C228.5,-204.91 228.5,-194.78 228.5,-187.751"/>
<polygon fill="midnightblue" stroke="midnightblue" points="225,-214.083 228.5,-224.083 232,-214.083 225,-214.083"/>
</g>
<!-- Node18 -->
<g id="node9" class="node"><title>Node18</title>
<g id="a_node9"><a xlink:href="actionscenenpc_8cc.html" target="_top" xlink:title="View/actionscenenpc.cc">
<polygon fill="white" stroke="black" points="327.5,-168.5 327.5,-187.5 449.5,-187.5 449.5,-168.5 327.5,-168.5"/>
<text text-anchor="middle" x="388.5" y="-175.5" font-family="Helvetica,sans-Serif" font-size="10.00">View/actionscenenpc.cc</text>
</a>
</g>
</g>
<!-- Node10&#45;&gt;Node18 -->
<g id="edge9" class="edge"><title>Node10&#45;&gt;Node18</title>
<path fill="none" stroke="midnightblue" d="M263.546,-221.172C293.674,-211.004 336.396,-196.585 363.266,-187.516"/>
<polygon fill="midnightblue" stroke="midnightblue" points="262.208,-217.929 253.852,-224.444 264.447,-224.562 262.208,-217.929"/>
</g>
<!-- Node12 -->
<g id="node3" class="node"><title>Node12</title>
<g id="a_node3"><a xlink:href="view_8hh.html" target="_top" xlink:title="View/view.hh">
<polygon fill="white" stroke="black" points="29.5,-56.5 29.5,-75.5 101.5,-75.5 101.5,-56.5 29.5,-56.5"/>
<text text-anchor="middle" x="65.5" y="-63.5" font-family="Helvetica,sans-Serif" font-size="10.00">View/view.hh</text>
</a>
</g>
</g>
<!-- Node11&#45;&gt;Node12 -->
<g id="edge2" class="edge"><title>Node11&#45;&gt;Node12</title>
<path fill="none" stroke="midnightblue" d="M103.502,-105.002C93.9329,-95.4329 82.1389,-83.6389 74.2511,-75.7511"/>
<polygon fill="midnightblue" stroke="midnightblue" points="101.037,-107.487 110.583,-112.083 105.987,-102.537 101.037,-107.487"/>
</g>
<!-- Node15 -->
<g id="node6" class="node"><title>Node15</title>
<g id="a_node6"><a xlink:href="actionscene_8cc.html" target="_top" xlink:title="View/actionscene.cc">
<polygon fill="white" stroke="black" points="120,-56.5 120,-75.5 227,-75.5 227,-56.5 120,-56.5"/>
<text text-anchor="middle" x="173.5" y="-63.5" font-family="Helvetica,sans-Serif" font-size="10.00">View/actionscene.cc</text>
</a>
</g>
</g>
<!-- Node11&#45;&gt;Node15 -->
<g id="edge5" class="edge"><title>Node11&#45;&gt;Node15</title>
<path fill="none" stroke="midnightblue" d="M135.498,-105.002C145.067,-95.4329 156.861,-83.6389 164.749,-75.7511"/>
<polygon fill="midnightblue" stroke="midnightblue" points="133.013,-102.537 128.417,-112.083 137.963,-107.487 133.013,-102.537"/>
</g>
<!-- Node13 -->
<g id="node4" class="node"><title>Node13</title>
<g id="a_node4"><a xlink:href="main_8cc.html" target="_top" xlink:title="main.cc">
<polygon fill="white" stroke="black" points="0,-0.5 0,-19.5 51,-19.5 51,-0.5 0,-0.5"/>
<text text-anchor="middle" x="25.5" y="-7.5" font-family="Helvetica,sans-Serif" font-size="10.00">main.cc</text>
</a>
</g>
</g>
<!-- Node12&#45;&gt;Node13 -->
<g id="edge3" class="edge"><title>Node12&#45;&gt;Node13</title>
<path fill="none" stroke="midnightblue" d="M52.8003,-47.8554C45.874,-38.5048 37.5937,-27.3265 31.9823,-19.7511"/>
<polygon fill="midnightblue" stroke="midnightblue" points="50.13,-50.1307 58.8948,-56.083 55.755,-45.9641 50.13,-50.1307"/>
</g>
<!-- Node14 -->
<g id="node5" class="node"><title>Node14</title>
<g id="a_node5"><a xlink:href="view_8cc.html" target="_top" xlink:title="View/view.cc">
<polygon fill="white" stroke="black" points="69.5,-0.5 69.5,-19.5 141.5,-19.5 141.5,-0.5 69.5,-0.5"/>
<text text-anchor="middle" x="105.5" y="-7.5" font-family="Helvetica,sans-Serif" font-size="10.00">View/view.cc</text>
</a>
</g>
</g>
<!-- Node12&#45;&gt;Node14 -->
<g id="edge4" class="edge"><title>Node12&#45;&gt;Node14</title>
<path fill="none" stroke="midnightblue" d="M78.1997,-47.8554C85.126,-38.5048 93.4063,-27.3265 99.0177,-19.7511"/>
<polygon fill="midnightblue" stroke="midnightblue" points="75.245,-45.9641 72.1052,-56.083 80.87,-50.1307 75.245,-45.9641"/>
</g>
<!-- Node16&#45;&gt;Node11 -->
<g id="edge7" class="edge"><title>Node16&#45;&gt;Node11</title>
<path fill="none" stroke="midnightblue" d="M201.981,-163.862C181.77,-153.849 154.513,-140.346 136.969,-131.655"/>
<polygon fill="midnightblue" stroke="midnightblue" points="200.473,-167.021 210.987,-168.324 203.58,-160.748 200.473,-167.021"/>
</g>
<!-- Node17 -->
<g id="node8" class="node"><title>Node17</title>
<g id="a_node8"><a xlink:href="actionscenebigexplosion_8cc.html" target="_top" xlink:title="View/actionscenebigexplosion.cc">
<polygon fill="white" stroke="black" points="191,-112.5 191,-131.5 352,-131.5 352,-112.5 191,-112.5"/>
<text text-anchor="middle" x="271.5" y="-119.5" font-family="Helvetica,sans-Serif" font-size="10.00">View/actionscenebigexplosion.cc</text>
</a>
</g>
</g>
<!-- Node16&#45;&gt;Node17 -->
<g id="edge8" class="edge"><title>Node16&#45;&gt;Node17</title>
<path fill="none" stroke="midnightblue" d="M241.922,-160.144C249.414,-150.736 258.437,-139.405 264.532,-131.751"/>
<polygon fill="midnightblue" stroke="midnightblue" points="239.092,-158.08 235.601,-168.083 244.568,-162.44 239.092,-158.08"/>
</g>
</g>
</svg>
