<?xml version="1.0" encoding="UTF-8" standalone="no"?>
<!DOCTYPE svg PUBLIC "-//W3C//DTD SVG 1.1//EN"
 "http://www.w3.org/Graphics/SVG/1.1/DTD/svg11.dtd">
<!-- Generated by graphviz version 2.38.0 (20140413.2041)
 -->
<!-- Title: Interface/actorinterface.hh Pages: 1 -->
<svg width="766pt" height="308pt"
 viewBox="0.00 0.00 766.11 308.00" xmlns="http://www.w3.org/2000/svg" xmlns:xlink="http://www.w3.org/1999/xlink">
<g id="graph0" class="graph" transform="scale(1 1) rotate(0) translate(4 304)">
<title>Interface/actorinterface.hh</title>
<polygon fill="white" stroke="none" points="-4,4 -4,-304 762.106,-304 762.106,4 -4,4"/>
<!-- Node4 -->
<g id="node1" class="node"><title>Node4</title>
<polygon fill="#bfbfbf" stroke="black" points="328.606,-280.5 328.606,-299.5 456.606,-299.5 456.606,-280.5 328.606,-280.5"/>
<text text-anchor="middle" x="392.606" y="-287.5" font-family="Helvetica,sans-Serif" font-size="10.00">Interface/actorinterface.hh</text>
</g>
<!-- Node5 -->
<g id="node2" class="node"><title>Node5</title>
<g id="a_node2"><a xlink:href="modelinterface_8hh.html" target="_top" xlink:title="Määrittelee modellin operaatioiden rajapintaluokan. ">
<polygon fill="white" stroke="black" points="292.106,-168.5 292.106,-187.5 425.106,-187.5 425.106,-168.5 292.106,-168.5"/>
<text text-anchor="middle" x="358.606" y="-175.5" font-family="Helvetica,sans-Serif" font-size="10.00">Interface/modelinterface.hh</text>
</a>
</g>
</g>
<!-- Node4&#45;&gt;Node5 -->
<g id="edge1" class="edge"><title>Node4&#45;&gt;Node5</title>
<path fill="none" stroke="midnightblue" d="M386.942,-270.674C379.508,-246.625 366.762,-205.388 361.261,-187.591"/>
<polygon fill="midnightblue" stroke="midnightblue" points="383.641,-271.848 389.938,-280.368 390.329,-269.781 383.641,-271.848"/>
</g>
<!-- Node14 -->
<g id="node11" class="node"><title>Node14</title>
<g id="a_node11"><a xlink:href="viewinterface_8hh.html" target="_top" xlink:title="Määrittelee näkymän operaatioiden rajapintaluokan. ">
<polygon fill="white" stroke="black" points="149.106,-168.5 149.106,-187.5 274.106,-187.5 274.106,-168.5 149.106,-168.5"/>
<text text-anchor="middle" x="211.606" y="-175.5" font-family="Helvetica,sans-Serif" font-size="10.00">Interface/viewinterface.hh</text>
</a>
</g>
</g>
<!-- Node4&#45;&gt;Node14 -->
<g id="edge13" class="edge"><title>Node4&#45;&gt;Node14</title>
<path fill="none" stroke="midnightblue" d="M369.584,-275.009C331.591,-251.919 256.873,-206.51 225.743,-187.591"/>
<polygon fill="midnightblue" stroke="midnightblue" points="368.04,-278.166 378.403,-280.368 371.675,-272.184 368.04,-278.166"/>
</g>
<!-- Node15 -->
<g id="node12" class="node"><title>Node15</title>
<g id="a_node12"><a xlink:href="player_8hh.html" target="_top" xlink:title="Model/player.hh">
<polygon fill="white" stroke="black" points="481.606,-168.5 481.606,-187.5 567.606,-187.5 567.606,-168.5 481.606,-168.5"/>
<text text-anchor="middle" x="524.606" y="-175.5" font-family="Helvetica,sans-Serif" font-size="10.00">Model/player.hh</text>
</a>
</g>
</g>
<!-- Node4&#45;&gt;Node15 -->
<g id="edge16" class="edge"><title>Node4&#45;&gt;Node15</title>
<path fill="none" stroke="midnightblue" d="M406.827,-272.76C419.267,-259.01 438.18,-239.173 456.606,-224 473.763,-209.872 495.452,-196.148 509.661,-187.646"/>
<polygon fill="midnightblue" stroke="midnightblue" points="404.023,-270.646 399.98,-280.439 409.247,-275.305 404.023,-270.646"/>
</g>
<!-- Node16 -->
<g id="node13" class="node"><title>Node16</title>
<g id="a_node13"><a xlink:href="playerparty_8hh.html" target="_top" xlink:title="Model/playerparty.hh">
<polygon fill="white" stroke="black" points="651.106,-112.5 651.106,-131.5 758.106,-131.5 758.106,-112.5 651.106,-112.5"/>
<text text-anchor="middle" x="704.606" y="-119.5" font-family="Helvetica,sans-Serif" font-size="10.00">Model/playerparty.hh</text>
</a>
</g>
</g>
<!-- Node4&#45;&gt;Node16 -->
<g id="edge27" class="edge"><title>Node4&#45;&gt;Node16</title>
<path fill="none" stroke="midnightblue" d="M460.937,-278.823C550.429,-263.869 699.523,-232.796 729.606,-188 741.874,-169.732 724.063,-144.586 712.74,-131.574"/>
<polygon fill="midnightblue" stroke="midnightblue" points="460.165,-275.403 450.866,-280.48 461.301,-282.31 460.165,-275.403"/>
</g>
<!-- Node19 -->
<g id="node16" class="node"><title>Node19</title>
<g id="a_node16"><a xlink:href="cyberteekkari_8hh.html" target="_top" xlink:title="Model/cyberteekkari.hh">
<polygon fill="white" stroke="black" points="465.606,-224.5 465.606,-243.5 583.606,-243.5 583.606,-224.5 465.606,-224.5"/>
<text text-anchor="middle" x="524.606" y="-231.5" font-family="Helvetica,sans-Serif" font-size="10.00">Model/cyberteekkari.hh</text>
</a>
</g>
</g>
<!-- Node4&#45;&gt;Node19 -->
<g id="edge22" class="edge"><title>Node4&#45;&gt;Node19</title>
<path fill="none" stroke="midnightblue" d="M422.825,-276.638C447.596,-266.504 482.006,-252.427 503.788,-243.516"/>
<polygon fill="midnightblue" stroke="midnightblue" points="421.452,-273.418 413.522,-280.444 424.102,-279.897 421.452,-273.418"/>
</g>
<!-- Node21 -->
<g id="node18" class="node"><title>Node21</title>
<g id="a_node18"><a xlink:href="headquartersui_8hh.html" target="_top" xlink:title="View/headquartersui.hh">
<polygon fill="white" stroke="black" points="12.6059,-224.5 12.6059,-243.5 130.606,-243.5 130.606,-224.5 12.6059,-224.5"/>
<text text-anchor="middle" x="71.6059" y="-231.5" font-family="Helvetica,sans-Serif" font-size="10.00">View/headquartersui.hh</text>
</a>
</g>
</g>
<!-- Node4&#45;&gt;Node21 -->
<g id="edge28" class="edge"><title>Node4&#45;&gt;Node21</title>
<path fill="none" stroke="midnightblue" d="M331.542,-278.727C270.882,-268.523 178.953,-253.058 122.231,-243.516"/>
<polygon fill="midnightblue" stroke="midnightblue" points="331.3,-282.236 341.743,-280.444 332.462,-275.333 331.3,-282.236"/>
</g>
<!-- Node6 -->
<g id="node3" class="node"><title>Node6</title>
<g id="a_node3"><a xlink:href="controllerinterface_8hh.html" target="_top" xlink:title="Interface/controllerinterface.hh">
<polygon fill="white" stroke="black" points="241.606,-112.5 241.606,-131.5 387.606,-131.5 387.606,-112.5 241.606,-112.5"/>
<text text-anchor="middle" x="314.606" y="-119.5" font-family="Helvetica,sans-Serif" font-size="10.00">Interface/controllerinterface.hh</text>
</a>
</g>
</g>
<!-- Node5&#45;&gt;Node6 -->
<g id="edge2" class="edge"><title>Node5&#45;&gt;Node6</title>
<path fill="none" stroke="midnightblue" d="M344.871,-160.144C337.205,-150.736 327.973,-139.405 321.736,-131.751"/>
<polygon fill="midnightblue" stroke="midnightblue" points="342.31,-162.541 351.34,-168.083 347.737,-158.12 342.31,-162.541"/>
</g>
<!-- Node10 -->
<g id="node7" class="node"><title>Node10</title>
<g id="a_node7"><a xlink:href="model_8hh.html" target="_top" xlink:title="Model/model.hh">
<polygon fill="white" stroke="black" points="410.606,-56.5 410.606,-75.5 496.606,-75.5 496.606,-56.5 410.606,-56.5"/>
<text text-anchor="middle" x="453.606" y="-63.5" font-family="Helvetica,sans-Serif" font-size="10.00">Model/model.hh</text>
</a>
</g>
</g>
<!-- Node5&#45;&gt;Node10 -->
<g id="edge12" class="edge"><title>Node5&#45;&gt;Node10</title>
<path fill="none" stroke="midnightblue" d="M372.782,-160.586C393.263,-136.871 430.401,-93.8691 446.186,-75.5914"/>
<polygon fill="midnightblue" stroke="midnightblue" points="369.948,-158.513 366.06,-168.368 375.246,-163.088 369.948,-158.513"/>
</g>
<!-- Node7 -->
<g id="node4" class="node"><title>Node7</title>
<g id="a_node4"><a xlink:href="controller_8hh.html" target="_top" xlink:title="Controller/controller.hh">
<polygon fill="white" stroke="black" points="259.606,-56.5 259.606,-75.5 373.606,-75.5 373.606,-56.5 259.606,-56.5"/>
<text text-anchor="middle" x="316.606" y="-63.5" font-family="Helvetica,sans-Serif" font-size="10.00">Controller/controller.hh</text>
</a>
</g>
</g>
<!-- Node6&#45;&gt;Node7 -->
<g id="edge3" class="edge"><title>Node6&#45;&gt;Node7</title>
<path fill="none" stroke="midnightblue" d="M315.317,-101.805C315.646,-92.9102 316.022,-82.7798 316.282,-75.7511"/>
<polygon fill="midnightblue" stroke="midnightblue" points="311.809,-101.96 314.936,-112.083 318.804,-102.219 311.809,-101.96"/>
</g>
<!-- Node6&#45;&gt;Node10 -->
<g id="edge6" class="edge"><title>Node6&#45;&gt;Node10</title>
<path fill="none" stroke="midnightblue" d="M346.082,-108.772C372.191,-98.6287 408.645,-84.4669 431.684,-75.5164"/>
<polygon fill="midnightblue" stroke="midnightblue" points="344.685,-105.56 336.631,-112.444 347.22,-112.085 344.685,-105.56"/>
</g>
<!-- Node12 -->
<g id="node9" class="node"><title>Node12</title>
<g id="a_node9"><a xlink:href="view_8hh.html" target="_top" xlink:title="View/view.hh">
<polygon fill="white" stroke="black" points="169.606,-56.5 169.606,-75.5 241.606,-75.5 241.606,-56.5 169.606,-56.5"/>
<text text-anchor="middle" x="205.606" y="-63.5" font-family="Helvetica,sans-Serif" font-size="10.00">View/view.hh</text>
</a>
</g>
</g>
<!-- Node6&#45;&gt;Node12 -->
<g id="edge9" class="edge"><title>Node6&#45;&gt;Node12</title>
<path fill="none" stroke="midnightblue" d="M288.087,-107.862C267.876,-97.8492 240.619,-84.3458 223.075,-75.6545"/>
<polygon fill="midnightblue" stroke="midnightblue" points="286.579,-111.021 297.093,-112.324 289.686,-104.748 286.579,-111.021"/>
</g>
<!-- Node8 -->
<g id="node5" class="node"><title>Node8</title>
<g id="a_node5"><a xlink:href="controller_8cc.html" target="_top" xlink:title="Controller/controller.cc">
<polygon fill="white" stroke="black" points="304.606,-0.5 304.606,-19.5 418.606,-19.5 418.606,-0.5 304.606,-0.5"/>
<text text-anchor="middle" x="361.606" y="-7.5" font-family="Helvetica,sans-Serif" font-size="10.00">Controller/controller.cc</text>
</a>
</g>
</g>
<!-- Node7&#45;&gt;Node8 -->
<g id="edge4" class="edge"><title>Node7&#45;&gt;Node8</title>
<path fill="none" stroke="midnightblue" d="M330.653,-48.144C338.493,-38.7357 347.935,-27.4046 354.313,-19.7511"/>
<polygon fill="midnightblue" stroke="midnightblue" points="327.75,-46.1601 324.037,-56.083 333.127,-50.6414 327.75,-46.1601"/>
</g>
<!-- Node9 -->
<g id="node6" class="node"><title>Node9</title>
<g id="a_node6"><a xlink:href="main_8cc.html" target="_top" xlink:title="main.cc">
<polygon fill="white" stroke="black" points="235.106,-0.5 235.106,-19.5 286.106,-19.5 286.106,-0.5 235.106,-0.5"/>
<text text-anchor="middle" x="260.606" y="-7.5" font-family="Helvetica,sans-Serif" font-size="10.00">main.cc</text>
</a>
</g>
</g>
<!-- Node7&#45;&gt;Node9 -->
<g id="edge5" class="edge"><title>Node7&#45;&gt;Node9</title>
<path fill="none" stroke="midnightblue" d="M300.276,-49.2533C290.341,-39.6731 278.018,-27.7906 269.767,-19.8339"/>
<polygon fill="midnightblue" stroke="midnightblue" points="297.981,-51.902 307.609,-56.324 302.84,-46.8631 297.981,-51.902"/>
</g>
<!-- Node10&#45;&gt;Node9 -->
<g id="edge7" class="edge"><title>Node10&#45;&gt;Node9</title>
<path fill="none" stroke="midnightblue" d="M413.22,-53.7002C374.919,-42.9839 318.545,-27.211 286.113,-18.1368"/>
<polygon fill="midnightblue" stroke="midnightblue" points="412.451,-57.1196 423.025,-56.4435 414.337,-50.3785 412.451,-57.1196"/>
</g>
<!-- Node11 -->
<g id="node8" class="node"><title>Node11</title>
<g id="a_node8"><a xlink:href="model_8cc.html" target="_top" xlink:title="Model/model.cc">
<polygon fill="white" stroke="black" points="436.606,-0.5 436.606,-19.5 522.606,-19.5 522.606,-0.5 436.606,-0.5"/>
<text text-anchor="middle" x="479.606" y="-7.5" font-family="Helvetica,sans-Serif" font-size="10.00">Model/model.cc</text>
</a>
</g>
</g>
<!-- Node10&#45;&gt;Node11 -->
<g id="edge8" class="edge"><title>Node10&#45;&gt;Node11</title>
<path fill="none" stroke="midnightblue" d="M462.281,-46.9827C466.694,-37.8168 471.858,-27.0922 475.392,-19.7511"/>
<polygon fill="midnightblue" stroke="midnightblue" points="459.084,-45.5546 457.899,-56.083 465.391,-48.5913 459.084,-45.5546"/>
</g>
<!-- Node12&#45;&gt;Node9 -->
<g id="edge10" class="edge"><title>Node12&#45;&gt;Node9</title>
<path fill="none" stroke="midnightblue" d="M221.9,-49.0024C231.647,-39.4329 243.659,-27.6389 251.693,-19.7511"/>
<polygon fill="midnightblue" stroke="midnightblue" points="219.372,-46.5796 214.688,-56.083 224.276,-51.5746 219.372,-46.5796"/>
</g>
<!-- Node13 -->
<g id="node10" class="node"><title>Node13</title>
<g id="a_node10"><a xlink:href="view_8cc.html" target="_top" xlink:title="View/view.cc">
<polygon fill="white" stroke="black" points="144.606,-0.5 144.606,-19.5 216.606,-19.5 216.606,-0.5 144.606,-0.5"/>
<text text-anchor="middle" x="180.606" y="-7.5" font-family="Helvetica,sans-Serif" font-size="10.00">View/view.cc</text>
</a>
</g>
</g>
<!-- Node12&#45;&gt;Node13 -->
<g id="edge11" class="edge"><title>Node12&#45;&gt;Node13</title>
<path fill="none" stroke="midnightblue" d="M197.265,-46.9827C193.021,-37.8168 188.056,-27.0922 184.657,-19.7511"/>
<polygon fill="midnightblue" stroke="midnightblue" points="194.1,-48.4788 201.478,-56.083 200.453,-45.5379 194.1,-48.4788"/>
</g>
<!-- Node14&#45;&gt;Node6 -->
<g id="edge14" class="edge"><title>Node14&#45;&gt;Node6</title>
<path fill="none" stroke="midnightblue" d="M237.185,-163.59C256.229,-153.605 281.67,-140.267 298.098,-131.655"/>
<polygon fill="midnightblue" stroke="midnightblue" points="235.386,-160.581 228.155,-168.324 238.636,-166.78 235.386,-160.581"/>
</g>
<!-- Node14&#45;&gt;Node12 -->
<g id="edge15" class="edge"><title>Node14&#45;&gt;Node12</title>
<path fill="none" stroke="midnightblue" d="M210.589,-158.348C209.274,-134.254 207.041,-93.3079 206.075,-75.5914"/>
<polygon fill="midnightblue" stroke="midnightblue" points="207.096,-158.574 211.135,-168.368 214.085,-158.193 207.096,-158.574"/>
</g>
<!-- Node15&#45;&gt;Node10 -->
<g id="edge17" class="edge"><title>Node15&#45;&gt;Node10</title>
<path fill="none" stroke="midnightblue" d="M548.732,-163.044C567.848,-150.15 589.386,-130.284 576.606,-112 558.694,-86.3741 524.54,-75.2941 496.758,-70.5273"/>
<polygon fill="midnightblue" stroke="midnightblue" points="546.804,-160.122 540.251,-168.446 550.565,-166.026 546.804,-160.122"/>
</g>
<!-- Node15&#45;&gt;Node16 -->
<g id="edge18" class="edge"><title>Node15&#45;&gt;Node16</title>
<path fill="none" stroke="midnightblue" d="M562.714,-165.568C596.669,-155.381 645.594,-140.703 676.218,-131.516"/>
<polygon fill="midnightblue" stroke="midnightblue" points="561.7,-162.218 553.127,-168.444 563.711,-168.922 561.7,-162.218"/>
</g>
<!-- Node18 -->
<g id="node15" class="node"><title>Node18</title>
<g id="a_node15"><a xlink:href="player_8cc.html" target="_top" xlink:title="Model/player.cc">
<polygon fill="white" stroke="black" points="481.606,-112.5 481.606,-131.5 567.606,-131.5 567.606,-112.5 481.606,-112.5"/>
<text text-anchor="middle" x="524.606" y="-119.5" font-family="Helvetica,sans-Serif" font-size="10.00">Model/player.cc</text>
</a>
</g>
</g>
<!-- Node15&#45;&gt;Node18 -->
<g id="edge21" class="edge"><title>Node15&#45;&gt;Node18</title>
<path fill="none" stroke="midnightblue" d="M524.606,-157.805C524.606,-148.91 524.606,-138.78 524.606,-131.751"/>
<polygon fill="midnightblue" stroke="midnightblue" points="521.106,-158.083 524.606,-168.083 528.106,-158.083 521.106,-158.083"/>
</g>
<!-- Node16&#45;&gt;Node10 -->
<g id="edge19" class="edge"><title>Node16&#45;&gt;Node10</title>
<path fill="none" stroke="midnightblue" d="M654.785,-110.281C607.353,-100.077 536.902,-84.9203 493.192,-75.5164"/>
<polygon fill="midnightblue" stroke="midnightblue" points="654.322,-113.762 664.834,-112.444 655.794,-106.918 654.322,-113.762"/>
</g>
<!-- Node17 -->
<g id="node14" class="node"><title>Node17</title>
<g id="a_node14"><a xlink:href="playerparty_8cc.html" target="_top" xlink:title="Model/playerparty.cc">
<polygon fill="white" stroke="black" points="651.106,-56.5 651.106,-75.5 758.106,-75.5 758.106,-56.5 651.106,-56.5"/>
<text text-anchor="middle" x="704.606" y="-63.5" font-family="Helvetica,sans-Serif" font-size="10.00">Model/playerparty.cc</text>
</a>
</g>
</g>
<!-- Node16&#45;&gt;Node17 -->
<g id="edge20" class="edge"><title>Node16&#45;&gt;Node17</title>
<path fill="none" stroke="midnightblue" d="M704.606,-101.805C704.606,-92.9102 704.606,-82.7798 704.606,-75.7511"/>
<polygon fill="midnightblue" stroke="midnightblue" points="701.106,-102.083 704.606,-112.083 708.106,-102.083 701.106,-102.083"/>
</g>
<!-- Node19&#45;&gt;Node10 -->
<g id="edge24" class="edge"><title>Node19&#45;&gt;Node10</title>
<path fill="none" stroke="midnightblue" d="M501.307,-218.447C490.864,-210.697 479.394,-200.234 472.606,-188 451.661,-150.255 451.986,-96.2865 453.019,-75.558"/>
<polygon fill="midnightblue" stroke="midnightblue" points="499.505,-221.457 509.712,-224.298 503.505,-215.712 499.505,-221.457"/>
</g>
<!-- Node19&#45;&gt;Node15 -->
<g id="edge23" class="edge"><title>Node19&#45;&gt;Node15</title>
<path fill="none" stroke="midnightblue" d="M524.606,-213.805C524.606,-204.91 524.606,-194.78 524.606,-187.751"/>
<polygon fill="midnightblue" stroke="midnightblue" points="521.106,-214.083 524.606,-224.083 528.106,-214.083 521.106,-214.083"/>
</g>
<!-- Node19&#45;&gt;Node16 -->
<g id="edge25" class="edge"><title>Node19&#45;&gt;Node16</title>
<path fill="none" stroke="midnightblue" d="M593.63,-225.426C640.952,-218.646 697.76,-206.818 712.606,-188 725.563,-171.575 715.762,-145.182 709.223,-131.635"/>
<polygon fill="midnightblue" stroke="midnightblue" points="593.122,-221.963 583.695,-226.797 594.079,-228.897 593.122,-221.963"/>
</g>
<!-- Node20 -->
<g id="node17" class="node"><title>Node20</title>
<g id="a_node17"><a xlink:href="cyberteekkari_8cc.html" target="_top" xlink:title="Model/cyberteekkari.cc">
<polygon fill="white" stroke="black" points="585.606,-168.5 585.606,-187.5 703.606,-187.5 703.606,-168.5 585.606,-168.5"/>
<text text-anchor="middle" x="644.606" y="-175.5" font-family="Helvetica,sans-Serif" font-size="10.00">Model/cyberteekkari.cc</text>
</a>
</g>
</g>
<!-- Node19&#45;&gt;Node20 -->
<g id="edge26" class="edge"><title>Node19&#45;&gt;Node20</title>
<path fill="none" stroke="midnightblue" d="M552.979,-220.232C575.425,-210.131 606.141,-196.309 625.681,-187.516"/>
<polygon fill="midnightblue" stroke="midnightblue" points="551.303,-217.148 543.62,-224.444 554.176,-223.532 551.303,-217.148"/>
</g>
<!-- Node21&#45;&gt;Node12 -->
<g id="edge29" class="edge"><title>Node21&#45;&gt;Node12</title>
<path fill="none" stroke="midnightblue" d="M40.5219,-219.952C16.9207,-208.033 -9.43128,-189.095 3.60594,-168 39.8854,-109.299 121.757,-83.5734 169.384,-73.2276"/>
<polygon fill="midnightblue" stroke="midnightblue" points="39.1437,-223.172 49.6767,-224.316 42.1559,-216.853 39.1437,-223.172"/>
</g>
<!-- Node22 -->
<g id="node19" class="node"><title>Node22</title>
<g id="a_node19"><a xlink:href="headquartersui_8cc.html" target="_top" xlink:title="View/headquartersui.cc">
<polygon fill="white" stroke="black" points="12.6059,-168.5 12.6059,-187.5 130.606,-187.5 130.606,-168.5 12.6059,-168.5"/>
<text text-anchor="middle" x="71.6059" y="-175.5" font-family="Helvetica,sans-Serif" font-size="10.00">View/headquartersui.cc</text>
</a>
</g>
</g>
<!-- Node21&#45;&gt;Node22 -->
<g id="edge30" class="edge"><title>Node21&#45;&gt;Node22</title>
<path fill="none" stroke="midnightblue" d="M71.6059,-213.805C71.6059,-204.91 71.6059,-194.78 71.6059,-187.751"/>
<polygon fill="midnightblue" stroke="midnightblue" points="68.106,-214.083 71.6059,-224.083 75.106,-214.083 68.106,-214.083"/>
</g>
</g>
</svg>
