<?xml version="1.0" encoding="UTF-8" standalone="no"?>
<!DOCTYPE svg PUBLIC "-//W3C//DTD SVG 1.1//EN"
 "http://www.w3.org/Graphics/SVG/1.1/DTD/svg11.dtd">
<!-- Generated by graphviz version 2.38.0 (20140413.2041)
 -->
<!-- Title: Interface/actorinterface.hh Pages: 1 -->
<svg width="268pt" height="140pt"
 viewBox="0.00 0.00 268.00 140.00" xmlns="http://www.w3.org/2000/svg" xmlns:xlink="http://www.w3.org/1999/xlink">
<g id="graph0" class="graph" transform="scale(1 1) rotate(0) translate(4 136)">
<title>Interface/actorinterface.hh</title>
<polygon fill="white" stroke="none" points="-4,4 -4,-136 264,-136 264,4 -4,4"/>
<!-- Node0 -->
<g id="node1" class="node"><title>Node0</title>
<polygon fill="#bfbfbf" stroke="black" points="0,-112.5 0,-131.5 128,-131.5 128,-112.5 0,-112.5"/>
<text text-anchor="middle" x="64" y="-119.5" font-family="Helvetica,sans-Serif" font-size="10.00">Interface/actorinterface.hh</text>
</g>
<!-- Node1 -->
<g id="node2" class="node"><title>Node1</title>
<polygon fill="white" stroke="#bfbfbf" points="72,-0.5 72,-19.5 122,-19.5 122,-0.5 72,-0.5"/>
<text text-anchor="middle" x="97" y="-7.5" font-family="Helvetica,sans-Serif" font-size="10.00">QString</text>
</g>
<!-- Node0&#45;&gt;Node1 -->
<g id="edge1" class="edge"><title>Node0&#45;&gt;Node1</title>
<path fill="none" stroke="midnightblue" d="M53.2248,-112.171C39.3404,-99.6708 18.201,-76.0959 29,-56 36.6225,-41.8153 50.8966,-31.3516 64.4063,-24.1027"/>
<polygon fill="midnightblue" stroke="midnightblue" points="66.1278,-27.1562 73.5459,-19.5916 63.0296,-20.8791 66.1278,-27.1562"/>
</g>
<!-- Node2 -->
<g id="node3" class="node"><title>Node2</title>
<polygon fill="white" stroke="#bfbfbf" points="38,-56.5 38,-75.5 90,-75.5 90,-56.5 38,-56.5"/>
<text text-anchor="middle" x="64" y="-63.5" font-family="Helvetica,sans-Serif" font-size="10.00">memory</text>
</g>
<!-- Node0&#45;&gt;Node2 -->
<g id="edge2" class="edge"><title>Node0&#45;&gt;Node2</title>
<path fill="none" stroke="midnightblue" d="M64,-112.083C64,-105.006 64,-94.8611 64,-85.9865"/>
<polygon fill="midnightblue" stroke="midnightblue" points="67.5001,-85.751 64,-75.7511 60.5001,-85.7511 67.5001,-85.751"/>
</g>
<!-- Node3 -->
<g id="node4" class="node"><title>Node3</title>
<g id="a_node4"><a xlink:href="equipmentinterface_8hh.html" target="_top" xlink:title="Määrittelee yhden tavaran (Equipment) operaatioiden rajapintaluokan. ">
<polygon fill="white" stroke="black" points="108,-56.5 108,-75.5 260,-75.5 260,-56.5 108,-56.5"/>
<text text-anchor="middle" x="184" y="-63.5" font-family="Helvetica,sans-Serif" font-size="10.00">Interface/equipmentinterface.hh</text>
</a>
</g>
</g>
<!-- Node0&#45;&gt;Node3 -->
<g id="edge3" class="edge"><title>Node0&#45;&gt;Node3</title>
<path fill="none" stroke="midnightblue" d="M83.0144,-112.444C102.588,-103.636 133.308,-89.8116 155.729,-79.722"/>
<polygon fill="midnightblue" stroke="midnightblue" points="157.392,-82.8119 165.075,-75.5164 154.519,-76.4284 157.392,-82.8119"/>
</g>
<!-- Node3&#45;&gt;Node1 -->
<g id="edge4" class="edge"><title>Node3&#45;&gt;Node1</title>
<path fill="none" stroke="midnightblue" d="M170.022,-56.324C156.45,-47.9002 135.62,-34.9709 119.675,-25.0741"/>
<polygon fill="midnightblue" stroke="midnightblue" points="121.286,-21.9544 110.943,-19.6545 117.594,-27.9019 121.286,-21.9544"/>
</g>
</g>
</svg>
