<?xml version="1.0" encoding="UTF-8" standalone="no"?>
<!DOCTYPE svg PUBLIC "-//W3C//DTD SVG 1.1//EN"
 "http://www.w3.org/Graphics/SVG/1.1/DTD/svg11.dtd">
<!-- Generated by graphviz version 2.38.0 (20140413.2041)
 -->
<!-- Title: View/cityscapeparkinghall.hh Pages: 1 -->
<svg width="682pt" height="140pt"
 viewBox="0.00 0.00 681.50 140.00" xmlns="http://www.w3.org/2000/svg" xmlns:xlink="http://www.w3.org/1999/xlink">
<g id="graph0" class="graph" transform="scale(1 1) rotate(0) translate(4 136)">
<title>View/cityscapeparkinghall.hh</title>
<polygon fill="white" stroke="none" points="-4,4 -4,-136 677.5,-136 677.5,4 -4,4"/>
<!-- Node0 -->
<g id="node1" class="node"><title>Node0</title>
<polygon fill="#bfbfbf" stroke="black" points="311,-112.5 311,-131.5 454,-131.5 454,-112.5 311,-112.5"/>
<text text-anchor="middle" x="382.5" y="-119.5" font-family="Helvetica,sans-Serif" font-size="10.00">View/cityscapeparkinghall.hh</text>
</g>
<!-- Node1 -->
<g id="node2" class="node"><title>Node1</title>
<g id="a_node2"><a xlink:href="cityscapestatusdisplay_8hh.html" target="_top" xlink:title="cityscapestatusdisplay.hh">
<polygon fill="white" stroke="black" points="67.5,-56.5 67.5,-75.5 197.5,-75.5 197.5,-56.5 67.5,-56.5"/>
<text text-anchor="middle" x="132.5" y="-63.5" font-family="Helvetica,sans-Serif" font-size="10.00">cityscapestatusdisplay.hh</text>
</a>
</g>
</g>
<!-- Node0&#45;&gt;Node1 -->
<g id="edge1" class="edge"><title>Node0&#45;&gt;Node1</title>
<path fill="none" stroke="midnightblue" d="M342.887,-112.444C299.275,-103.023 229.1,-87.8656 181.922,-77.6752"/>
<polygon fill="midnightblue" stroke="midnightblue" points="182.441,-74.2067 171.928,-75.5164 180.964,-81.0489 182.441,-74.2067"/>
</g>
<!-- Node5 -->
<g id="node6" class="node"><title>Node5</title>
<polygon fill="white" stroke="#bfbfbf" points="216,-56.5 216,-75.5 307,-75.5 307,-56.5 216,-56.5"/>
<text text-anchor="middle" x="261.5" y="-63.5" font-family="Helvetica,sans-Serif" font-size="10.00">QGraphicsScene</text>
</g>
<!-- Node0&#45;&gt;Node5 -->
<g id="edge5" class="edge"><title>Node0&#45;&gt;Node5</title>
<path fill="none" stroke="midnightblue" d="M363.327,-112.444C343.591,-103.636 312.615,-89.8116 290.007,-79.722"/>
<polygon fill="midnightblue" stroke="midnightblue" points="291.141,-76.3957 280.583,-75.5164 288.289,-82.788 291.141,-76.3957"/>
</g>
<!-- Node6 -->
<g id="node7" class="node"><title>Node6</title>
<polygon fill="white" stroke="#bfbfbf" points="325,-56.5 325,-75.5 440,-75.5 440,-56.5 325,-56.5"/>
<text text-anchor="middle" x="382.5" y="-63.5" font-family="Helvetica,sans-Serif" font-size="10.00">QGraphicsPixmapItem</text>
</g>
<!-- Node0&#45;&gt;Node6 -->
<g id="edge6" class="edge"><title>Node0&#45;&gt;Node6</title>
<path fill="none" stroke="midnightblue" d="M382.5,-112.083C382.5,-105.006 382.5,-94.8611 382.5,-85.9865"/>
<polygon fill="midnightblue" stroke="midnightblue" points="386,-85.751 382.5,-75.7511 379,-85.7511 386,-85.751"/>
</g>
<!-- Node7 -->
<g id="node8" class="node"><title>Node7</title>
<polygon fill="white" stroke="#bfbfbf" points="458,-56.5 458,-75.5 511,-75.5 511,-56.5 458,-56.5"/>
<text text-anchor="middle" x="484.5" y="-63.5" font-family="Helvetica,sans-Serif" font-size="10.00">QObject</text>
</g>
<!-- Node0&#45;&gt;Node7 -->
<g id="edge7" class="edge"><title>Node0&#45;&gt;Node7</title>
<path fill="none" stroke="midnightblue" d="M398.888,-112.324C415.171,-103.703 440.367,-90.3643 459.216,-80.3855"/>
<polygon fill="midnightblue" stroke="midnightblue" points="460.952,-83.4267 468.153,-75.6545 457.677,-77.2402 460.952,-83.4267"/>
</g>
<!-- Node8 -->
<g id="node9" class="node"><title>Node8</title>
<polygon fill="white" stroke="#bfbfbf" points="529.5,-56.5 529.5,-75.5 673.5,-75.5 673.5,-56.5 529.5,-56.5"/>
<text text-anchor="middle" x="601.5" y="-63.5" font-family="Helvetica,sans-Serif" font-size="10.00">QGraphicsSceneMouseEvent</text>
</g>
<!-- Node0&#45;&gt;Node8 -->
<g id="edge8" class="edge"><title>Node0&#45;&gt;Node8</title>
<path fill="none" stroke="midnightblue" d="M417.201,-112.444C455.085,-103.102 515.849,-88.1194 557.162,-77.9326"/>
<polygon fill="midnightblue" stroke="midnightblue" points="558.09,-81.3088 566.961,-75.5164 556.414,-74.5123 558.09,-81.3088"/>
</g>
<!-- Node2 -->
<g id="node3" class="node"><title>Node2</title>
<polygon fill="white" stroke="#bfbfbf" points="0,-0.5 0,-19.5 55,-19.5 55,-0.5 0,-0.5"/>
<text text-anchor="middle" x="27.5" y="-7.5" font-family="Helvetica,sans-Serif" font-size="10.00">QWidget</text>
</g>
<!-- Node1&#45;&gt;Node2 -->
<g id="edge2" class="edge"><title>Node1&#45;&gt;Node2</title>
<path fill="none" stroke="midnightblue" d="M115.63,-56.324C98.7912,-47.6641 72.6935,-34.2424 53.262,-24.249"/>
<polygon fill="midnightblue" stroke="midnightblue" points="54.8218,-21.1155 44.3282,-19.6545 51.6204,-27.3405 54.8218,-21.1155"/>
</g>
<!-- Node3 -->
<g id="node4" class="node"><title>Node3</title>
<polygon fill="white" stroke="#bfbfbf" points="73,-0.5 73,-19.5 192,-19.5 192,-0.5 73,-0.5"/>
<text text-anchor="middle" x="132.5" y="-7.5" font-family="Helvetica,sans-Serif" font-size="10.00">QGraphicsProxyWidget</text>
</g>
<!-- Node1&#45;&gt;Node3 -->
<g id="edge3" class="edge"><title>Node1&#45;&gt;Node3</title>
<path fill="none" stroke="midnightblue" d="M132.5,-56.083C132.5,-49.0059 132.5,-38.8611 132.5,-29.9865"/>
<polygon fill="midnightblue" stroke="midnightblue" points="136,-29.751 132.5,-19.7511 129,-29.7511 136,-29.751"/>
</g>
<!-- Node4 -->
<g id="node5" class="node"><title>Node4</title>
<polygon fill="white" stroke="#bfbfbf" points="210.5,-0.5 210.5,-19.5 292.5,-19.5 292.5,-0.5 210.5,-0.5"/>
<text text-anchor="middle" x="251.5" y="-7.5" font-family="Helvetica,sans-Serif" font-size="10.00">QGraphicsItem</text>
</g>
<!-- Node1&#45;&gt;Node4 -->
<g id="edge4" class="edge"><title>Node1&#45;&gt;Node4</title>
<path fill="none" stroke="midnightblue" d="M151.356,-56.4435C170.766,-47.6356 201.23,-33.8116 223.465,-23.722"/>
<polygon fill="midnightblue" stroke="midnightblue" points="225.072,-26.836 232.732,-19.5164 222.18,-20.4615 225.072,-26.836"/>
</g>
</g>
</svg>
