<?xml version="1.0" encoding="UTF-8" standalone="no"?>
<!DOCTYPE svg PUBLIC "-//W3C//DTD SVG 1.1//EN"
 "http://www.w3.org/Graphics/SVG/1.1/DTD/svg11.dtd">
<!-- Generated by graphviz version 2.38.0 (20140413.2041)
 -->
<!-- Title: View/cityscapestatusdisplay.cc Pages: 1 -->
<svg width="583pt" height="140pt"
 viewBox="0.00 0.00 583.00 140.00" xmlns="http://www.w3.org/2000/svg" xmlns:xlink="http://www.w3.org/1999/xlink">
<g id="graph0" class="graph" transform="scale(1 1) rotate(0) translate(4 136)">
<title>View/cityscapestatusdisplay.cc</title>
<polygon fill="white" stroke="none" points="-4,4 -4,-136 579,-136 579,4 -4,4"/>
<!-- Node0 -->
<g id="node1" class="node"><title>Node0</title>
<polygon fill="#bfbfbf" stroke="black" points="264.5,-112.5 264.5,-131.5 418.5,-131.5 418.5,-112.5 264.5,-112.5"/>
<text text-anchor="middle" x="341.5" y="-119.5" font-family="Helvetica,sans-Serif" font-size="10.00">View/cityscapestatusdisplay.cc</text>
</g>
<!-- Node1 -->
<g id="node2" class="node"><title>Node1</title>
<g id="a_node2"><a xlink:href="cityscapestatusdisplay_8hh.html" target="_top" xlink:title="cityscapestatusdisplay.hh">
<polygon fill="white" stroke="black" points="67.5,-56.5 67.5,-75.5 197.5,-75.5 197.5,-56.5 67.5,-56.5"/>
<text text-anchor="middle" x="132.5" y="-63.5" font-family="Helvetica,sans-Serif" font-size="10.00">cityscapestatusdisplay.hh</text>
</a>
</g>
</g>
<!-- Node0&#45;&gt;Node1 -->
<g id="edge1" class="edge"><title>Node0&#45;&gt;Node1</title>
<path fill="none" stroke="midnightblue" d="M308.383,-112.444C272.382,-103.142 214.73,-88.246 175.314,-78.062"/>
<polygon fill="midnightblue" stroke="midnightblue" points="176.019,-74.6294 165.462,-75.5164 174.268,-81.4068 176.019,-74.6294"/>
</g>
<!-- Node5 -->
<g id="node6" class="node"><title>Node5</title>
<polygon fill="white" stroke="#bfbfbf" points="216,-56.5 216,-75.5 353,-75.5 353,-56.5 216,-56.5"/>
<text text-anchor="middle" x="284.5" y="-63.5" font-family="Helvetica,sans-Serif" font-size="10.00">ui_cityscapestatusdisplay.h</text>
</g>
<!-- Node0&#45;&gt;Node5 -->
<g id="edge5" class="edge"><title>Node0&#45;&gt;Node5</title>
<path fill="none" stroke="midnightblue" d="M332.342,-112.324C323.999,-104.42 311.468,-92.5482 301.323,-82.9377"/>
<polygon fill="midnightblue" stroke="midnightblue" points="303.491,-80.1705 293.825,-75.8339 298.677,-85.2522 303.491,-80.1705"/>
</g>
<!-- Node6 -->
<g id="node7" class="node"><title>Node6</title>
<polygon fill="white" stroke="#bfbfbf" points="371,-56.5 371,-75.5 426,-75.5 426,-56.5 371,-56.5"/>
<text text-anchor="middle" x="398.5" y="-63.5" font-family="Helvetica,sans-Serif" font-size="10.00">QPainter</text>
</g>
<!-- Node0&#45;&gt;Node6 -->
<g id="edge6" class="edge"><title>Node0&#45;&gt;Node6</title>
<path fill="none" stroke="midnightblue" d="M350.658,-112.324C359.001,-104.42 371.532,-92.5482 381.677,-82.9377"/>
<polygon fill="midnightblue" stroke="midnightblue" points="384.323,-85.2522 389.175,-75.8339 379.509,-80.1705 384.323,-85.2522"/>
</g>
<!-- Node7 -->
<g id="node8" class="node"><title>Node7</title>
<polygon fill="white" stroke="#bfbfbf" points="444,-56.5 444,-75.5 575,-75.5 575,-56.5 444,-56.5"/>
<text text-anchor="middle" x="509.5" y="-63.5" font-family="Helvetica,sans-Serif" font-size="10.00">QGraphicsSimpleTextItem</text>
</g>
<!-- Node0&#45;&gt;Node7 -->
<g id="edge7" class="edge"><title>Node0&#45;&gt;Node7</title>
<path fill="none" stroke="midnightblue" d="M368.12,-112.444C396.506,-103.32 441.637,-88.8133 473.253,-78.6509"/>
<polygon fill="midnightblue" stroke="midnightblue" points="474.555,-81.9087 483.004,-75.5164 472.413,-75.2445 474.555,-81.9087"/>
</g>
<!-- Node2 -->
<g id="node3" class="node"><title>Node2</title>
<polygon fill="white" stroke="#bfbfbf" points="0,-0.5 0,-19.5 55,-19.5 55,-0.5 0,-0.5"/>
<text text-anchor="middle" x="27.5" y="-7.5" font-family="Helvetica,sans-Serif" font-size="10.00">QWidget</text>
</g>
<!-- Node1&#45;&gt;Node2 -->
<g id="edge2" class="edge"><title>Node1&#45;&gt;Node2</title>
<path fill="none" stroke="midnightblue" d="M115.63,-56.324C98.7912,-47.6641 72.6935,-34.2424 53.262,-24.249"/>
<polygon fill="midnightblue" stroke="midnightblue" points="54.8218,-21.1155 44.3282,-19.6545 51.6204,-27.3405 54.8218,-21.1155"/>
</g>
<!-- Node3 -->
<g id="node4" class="node"><title>Node3</title>
<polygon fill="white" stroke="#bfbfbf" points="73,-0.5 73,-19.5 192,-19.5 192,-0.5 73,-0.5"/>
<text text-anchor="middle" x="132.5" y="-7.5" font-family="Helvetica,sans-Serif" font-size="10.00">QGraphicsProxyWidget</text>
</g>
<!-- Node1&#45;&gt;Node3 -->
<g id="edge3" class="edge"><title>Node1&#45;&gt;Node3</title>
<path fill="none" stroke="midnightblue" d="M132.5,-56.083C132.5,-49.0059 132.5,-38.8611 132.5,-29.9865"/>
<polygon fill="midnightblue" stroke="midnightblue" points="136,-29.751 132.5,-19.7511 129,-29.7511 136,-29.751"/>
</g>
<!-- Node4 -->
<g id="node5" class="node"><title>Node4</title>
<polygon fill="white" stroke="#bfbfbf" points="210.5,-0.5 210.5,-19.5 292.5,-19.5 292.5,-0.5 210.5,-0.5"/>
<text text-anchor="middle" x="251.5" y="-7.5" font-family="Helvetica,sans-Serif" font-size="10.00">QGraphicsItem</text>
</g>
<!-- Node1&#45;&gt;Node4 -->
<g id="edge4" class="edge"><title>Node1&#45;&gt;Node4</title>
<path fill="none" stroke="midnightblue" d="M151.356,-56.4435C170.766,-47.6356 201.23,-33.8116 223.465,-23.722"/>
<polygon fill="midnightblue" stroke="midnightblue" points="225.072,-26.836 232.732,-19.5164 222.18,-20.4615 225.072,-26.836"/>
</g>
</g>
</svg>
