<?xml version="1.0" encoding="UTF-8" standalone="no"?>
<!DOCTYPE svg PUBLIC "-//W3C//DTD SVG 1.1//EN"
 "http://www.w3.org/Graphics/SVG/1.1/DTD/svg11.dtd">
<!-- Generated by graphviz version 2.38.0 (20140413.2041)
 -->
<!-- Title: View/cityscape.cc Pages: 1 -->
<svg width="729pt" height="252pt"
 viewBox="0.00 0.00 728.50 252.00" xmlns="http://www.w3.org/2000/svg" xmlns:xlink="http://www.w3.org/1999/xlink">
<g id="graph0" class="graph" transform="scale(1 1) rotate(0) translate(4 248)">
<title>View/cityscape.cc</title>
<polygon fill="white" stroke="none" points="-4,4 -4,-248 724.5,-248 724.5,4 -4,4"/>
<!-- Node0 -->
<g id="node1" class="node"><title>Node0</title>
<polygon fill="#bfbfbf" stroke="black" points="394.5,-224.5 394.5,-243.5 490.5,-243.5 490.5,-224.5 394.5,-224.5"/>
<text text-anchor="middle" x="442.5" y="-231.5" font-family="Helvetica,sans-Serif" font-size="10.00">View/cityscape.cc</text>
</g>
<!-- Node1 -->
<g id="node2" class="node"><title>Node1</title>
<g id="a_node2"><a xlink:href="cityscape_8hh.html" target="_top" xlink:title="cityscape.hh">
<polygon fill="white" stroke="black" points="366.5,-168.5 366.5,-187.5 438.5,-187.5 438.5,-168.5 366.5,-168.5"/>
<text text-anchor="middle" x="402.5" y="-175.5" font-family="Helvetica,sans-Serif" font-size="10.00">cityscape.hh</text>
</a>
</g>
</g>
<!-- Node0&#45;&gt;Node1 -->
<g id="edge1" class="edge"><title>Node0&#45;&gt;Node1</title>
<path fill="none" stroke="midnightblue" d="M435.895,-224.083C430.245,-216.455 421.955,-205.264 415.049,-195.941"/>
<polygon fill="midnightblue" stroke="midnightblue" points="417.747,-193.703 408.982,-187.751 412.122,-197.87 417.747,-193.703"/>
</g>
<!-- Node15 -->
<g id="node16" class="node"><title>Node15</title>
<polygon fill="white" stroke="#bfbfbf" points="456.5,-168.5 456.5,-187.5 508.5,-187.5 508.5,-168.5 456.5,-168.5"/>
<text text-anchor="middle" x="482.5" y="-175.5" font-family="Helvetica,sans-Serif" font-size="10.00">QDebug</text>
</g>
<!-- Node0&#45;&gt;Node15 -->
<g id="edge17" class="edge"><title>Node0&#45;&gt;Node15</title>
<path fill="none" stroke="midnightblue" d="M449.105,-224.083C454.755,-216.455 463.045,-205.264 469.951,-195.941"/>
<polygon fill="midnightblue" stroke="midnightblue" points="472.878,-197.87 476.018,-187.751 467.253,-193.703 472.878,-197.87"/>
</g>
<!-- Node2 -->
<g id="node3" class="node"><title>Node2</title>
<g id="a_node3"><a xlink:href="parkinghallinterface_8hh.html" target="_top" xlink:title="Interface/parkinghallinterface.hh">
<polygon fill="white" stroke="black" points="0,-112.5 0,-131.5 153,-131.5 153,-112.5 0,-112.5"/>
<text text-anchor="middle" x="76.5" y="-119.5" font-family="Helvetica,sans-Serif" font-size="10.00">Interface/parkinghallinterface.hh</text>
</a>
</g>
</g>
<!-- Node1&#45;&gt;Node2 -->
<g id="edge2" class="edge"><title>Node1&#45;&gt;Node2</title>
<path fill="none" stroke="midnightblue" d="M366.367,-171.015C311.257,-161.886 205.511,-144.37 138.117,-133.206"/>
<polygon fill="midnightblue" stroke="midnightblue" points="138.491,-129.721 128.053,-131.539 137.347,-136.627 138.491,-129.721"/>
</g>
<!-- Node4 -->
<g id="node5" class="node"><title>Node4</title>
<g id="a_node5"><a xlink:href="cityscapeparkinghall_8hh.html" target="_top" xlink:title="cityscapeparkinghall.hh">
<polygon fill="white" stroke="black" points="299,-112.5 299,-131.5 418,-131.5 418,-112.5 299,-112.5"/>
<text text-anchor="middle" x="358.5" y="-119.5" font-family="Helvetica,sans-Serif" font-size="10.00">cityscapeparkinghall.hh</text>
</a>
</g>
</g>
<!-- Node1&#45;&gt;Node4 -->
<g id="edge4" class="edge"><title>Node1&#45;&gt;Node4</title>
<path fill="none" stroke="midnightblue" d="M395.234,-168.083C388.955,-160.377 379.712,-149.033 372.069,-139.653"/>
<polygon fill="midnightblue" stroke="midnightblue" points="374.661,-137.293 365.631,-131.751 369.234,-141.714 374.661,-137.293"/>
</g>
<!-- Node9 -->
<g id="node10" class="node"><title>Node9</title>
<polygon fill="white" stroke="#bfbfbf" points="114,-56.5 114,-75.5 205,-75.5 205,-56.5 114,-56.5"/>
<text text-anchor="middle" x="159.5" y="-63.5" font-family="Helvetica,sans-Serif" font-size="10.00">QGraphicsScene</text>
</g>
<!-- Node1&#45;&gt;Node9 -->
<g id="edge13" class="edge"><title>Node1&#45;&gt;Node9</title>
<path fill="none" stroke="midnightblue" d="M379.321,-168.428C356.309,-159.765 320.139,-145.731 289.5,-132 252.543,-115.438 210.829,-94.0941 184.848,-80.4743"/>
<polygon fill="midnightblue" stroke="midnightblue" points="186.183,-77.2215 175.704,-75.6586 182.921,-83.4151 186.183,-77.2215"/>
</g>
<!-- Node12 -->
<g id="node13" class="node"><title>Node12</title>
<polygon fill="white" stroke="#bfbfbf" points="576.5,-56.5 576.5,-75.5 720.5,-75.5 720.5,-56.5 576.5,-56.5"/>
<text text-anchor="middle" x="648.5" y="-63.5" font-family="Helvetica,sans-Serif" font-size="10.00">QGraphicsSceneMouseEvent</text>
</g>
<!-- Node1&#45;&gt;Node12 -->
<g id="edge14" class="edge"><title>Node1&#45;&gt;Node12</title>
<path fill="none" stroke="midnightblue" d="M408.369,-168.342C418.379,-154.271 440.149,-126.551 465.5,-112 496.101,-94.4356 533.396,-83.6838 566.314,-77.1219"/>
<polygon fill="midnightblue" stroke="midnightblue" points="567.202,-80.5159 576.377,-75.217 565.9,-73.638 567.202,-80.5159"/>
</g>
<!-- Node13 -->
<g id="node14" class="node"><title>Node13</title>
<polygon fill="white" stroke="#bfbfbf" points="474.5,-112.5 474.5,-131.5 558.5,-131.5 558.5,-112.5 474.5,-112.5"/>
<text text-anchor="middle" x="516.5" y="-119.5" font-family="Helvetica,sans-Serif" font-size="10.00">QGraphicsView</text>
</g>
<!-- Node1&#45;&gt;Node13 -->
<g id="edge15" class="edge"><title>Node1&#45;&gt;Node13</title>
<path fill="none" stroke="midnightblue" d="M420.564,-168.444C439.075,-159.675 468.081,-145.935 489.355,-135.858"/>
<polygon fill="midnightblue" stroke="midnightblue" points="490.982,-138.96 498.521,-131.516 487.985,-132.634 490.982,-138.96"/>
</g>
<!-- Node14 -->
<g id="node15" class="node"><title>Node14</title>
<polygon fill="white" stroke="#bfbfbf" points="576.5,-112.5 576.5,-131.5 628.5,-131.5 628.5,-112.5 576.5,-112.5"/>
<text text-anchor="middle" x="602.5" y="-119.5" font-family="Helvetica,sans-Serif" font-size="10.00">memory</text>
</g>
<!-- Node1&#45;&gt;Node14 -->
<g id="edge16" class="edge"><title>Node1&#45;&gt;Node14</title>
<path fill="none" stroke="midnightblue" d="M434.191,-168.444C470.133,-158.739 528.629,-142.945 566.329,-132.766"/>
<polygon fill="midnightblue" stroke="midnightblue" points="567.633,-136.039 576.375,-130.054 565.808,-129.281 567.633,-136.039"/>
</g>
<!-- Node3 -->
<g id="node4" class="node"><title>Node3</title>
<polygon fill="white" stroke="#bfbfbf" points="45.5,-56.5 45.5,-75.5 95.5,-75.5 95.5,-56.5 45.5,-56.5"/>
<text text-anchor="middle" x="70.5" y="-63.5" font-family="Helvetica,sans-Serif" font-size="10.00">QString</text>
</g>
<!-- Node2&#45;&gt;Node3 -->
<g id="edge3" class="edge"><title>Node2&#45;&gt;Node3</title>
<path fill="none" stroke="midnightblue" d="M75.5092,-112.083C74.7141,-104.927 73.5706,-94.6353 72.5768,-85.6911"/>
<polygon fill="midnightblue" stroke="midnightblue" points="76.0553,-85.3034 71.4723,-75.7511 69.0982,-86.0765 76.0553,-85.3034"/>
</g>
<!-- Node5 -->
<g id="node6" class="node"><title>Node5</title>
<g id="a_node6"><a xlink:href="cityscapestatusdisplay_8hh.html" target="_top" xlink:title="cityscapestatusdisplay.hh">
<polygon fill="white" stroke="black" points="223.5,-56.5 223.5,-75.5 353.5,-75.5 353.5,-56.5 223.5,-56.5"/>
<text text-anchor="middle" x="288.5" y="-63.5" font-family="Helvetica,sans-Serif" font-size="10.00">cityscapestatusdisplay.hh</text>
</a>
</g>
</g>
<!-- Node4&#45;&gt;Node5 -->
<g id="edge5" class="edge"><title>Node4&#45;&gt;Node5</title>
<path fill="none" stroke="midnightblue" d="M347.253,-112.324C336.703,-104.185 320.699,-91.8395 308.058,-82.0874"/>
<polygon fill="midnightblue" stroke="midnightblue" points="310.007,-79.1707 299.951,-75.8339 305.731,-84.7132 310.007,-79.1707"/>
</g>
<!-- Node4&#45;&gt;Node9 -->
<g id="edge9" class="edge"><title>Node4&#45;&gt;Node9</title>
<path fill="none" stroke="midnightblue" d="M326.968,-112.444C292.908,-103.201 238.494,-88.4356 200.985,-78.2572"/>
<polygon fill="midnightblue" stroke="midnightblue" points="201.452,-74.7575 190.885,-75.5164 199.619,-81.5132 201.452,-74.7575"/>
</g>
<!-- Node10 -->
<g id="node11" class="node"><title>Node10</title>
<polygon fill="white" stroke="#bfbfbf" points="372,-56.5 372,-75.5 487,-75.5 487,-56.5 372,-56.5"/>
<text text-anchor="middle" x="429.5" y="-63.5" font-family="Helvetica,sans-Serif" font-size="10.00">QGraphicsPixmapItem</text>
</g>
<!-- Node4&#45;&gt;Node10 -->
<g id="edge10" class="edge"><title>Node4&#45;&gt;Node10</title>
<path fill="none" stroke="midnightblue" d="M369.907,-112.324C380.609,-104.185 396.841,-91.8395 409.663,-82.0874"/>
<polygon fill="midnightblue" stroke="midnightblue" points="412.044,-84.6734 417.885,-75.8339 407.807,-79.1018 412.044,-84.6734"/>
</g>
<!-- Node11 -->
<g id="node12" class="node"><title>Node11</title>
<polygon fill="white" stroke="#bfbfbf" points="505,-56.5 505,-75.5 558,-75.5 558,-56.5 505,-56.5"/>
<text text-anchor="middle" x="531.5" y="-63.5" font-family="Helvetica,sans-Serif" font-size="10.00">QObject</text>
</g>
<!-- Node4&#45;&gt;Node11 -->
<g id="edge11" class="edge"><title>Node4&#45;&gt;Node11</title>
<path fill="none" stroke="midnightblue" d="M385.912,-112.444C415.442,-103.226 462.57,-88.5157 495.169,-78.3402"/>
<polygon fill="midnightblue" stroke="midnightblue" points="496.281,-81.6597 504.784,-75.339 494.196,-74.9776 496.281,-81.6597"/>
</g>
<!-- Node4&#45;&gt;Node12 -->
<g id="edge12" class="edge"><title>Node4&#45;&gt;Node12</title>
<path fill="none" stroke="midnightblue" d="M404.451,-112.444C455.571,-102.925 538.154,-87.5472 592.883,-77.3563"/>
<polygon fill="midnightblue" stroke="midnightblue" points="593.573,-80.788 602.764,-75.5164 592.292,-73.9063 593.573,-80.788"/>
</g>
<!-- Node6 -->
<g id="node7" class="node"><title>Node6</title>
<polygon fill="white" stroke="#bfbfbf" points="156,-0.5 156,-19.5 211,-19.5 211,-0.5 156,-0.5"/>
<text text-anchor="middle" x="183.5" y="-7.5" font-family="Helvetica,sans-Serif" font-size="10.00">QWidget</text>
</g>
<!-- Node5&#45;&gt;Node6 -->
<g id="edge6" class="edge"><title>Node5&#45;&gt;Node6</title>
<path fill="none" stroke="midnightblue" d="M271.63,-56.324C254.791,-47.6641 228.693,-34.2424 209.262,-24.249"/>
<polygon fill="midnightblue" stroke="midnightblue" points="210.822,-21.1155 200.328,-19.6545 207.62,-27.3405 210.822,-21.1155"/>
</g>
<!-- Node7 -->
<g id="node8" class="node"><title>Node7</title>
<polygon fill="white" stroke="#bfbfbf" points="229,-0.5 229,-19.5 348,-19.5 348,-0.5 229,-0.5"/>
<text text-anchor="middle" x="288.5" y="-7.5" font-family="Helvetica,sans-Serif" font-size="10.00">QGraphicsProxyWidget</text>
</g>
<!-- Node5&#45;&gt;Node7 -->
<g id="edge7" class="edge"><title>Node5&#45;&gt;Node7</title>
<path fill="none" stroke="midnightblue" d="M288.5,-56.083C288.5,-49.0059 288.5,-38.8611 288.5,-29.9865"/>
<polygon fill="midnightblue" stroke="midnightblue" points="292,-29.751 288.5,-19.7511 285,-29.7511 292,-29.751"/>
</g>
<!-- Node8 -->
<g id="node9" class="node"><title>Node8</title>
<polygon fill="white" stroke="#bfbfbf" points="366.5,-0.5 366.5,-19.5 448.5,-19.5 448.5,-0.5 366.5,-0.5"/>
<text text-anchor="middle" x="407.5" y="-7.5" font-family="Helvetica,sans-Serif" font-size="10.00">QGraphicsItem</text>
</g>
<!-- Node5&#45;&gt;Node8 -->
<g id="edge8" class="edge"><title>Node5&#45;&gt;Node8</title>
<path fill="none" stroke="midnightblue" d="M307.356,-56.4435C326.766,-47.6356 357.23,-33.8116 379.465,-23.722"/>
<polygon fill="midnightblue" stroke="midnightblue" points="381.072,-26.836 388.732,-19.5164 378.18,-20.4615 381.072,-26.836"/>
</g>
</g>
</svg>
