<?xml version="1.0" encoding="UTF-8" standalone="no"?>
<!DOCTYPE svg PUBLIC "-//W3C//DTD SVG 1.1//EN"
 "http://www.w3.org/Graphics/SVG/1.1/DTD/svg11.dtd">
<!-- Generated by graphviz version 2.38.0 (20140413.2041)
 -->
<!-- Title: View/cityscapestatusdisplay.hh Pages: 1 -->
<svg width="438pt" height="252pt"
 viewBox="0.00 0.00 437.50 252.00" xmlns="http://www.w3.org/2000/svg" xmlns:xlink="http://www.w3.org/1999/xlink">
<g id="graph0" class="graph" transform="scale(1 1) rotate(0) translate(4 248)">
<title>View/cityscapestatusdisplay.hh</title>
<polygon fill="white" stroke="none" points="-4,4 -4,-248 433.5,-248 433.5,4 -4,4"/>
<!-- Node4 -->
<g id="node1" class="node"><title>Node4</title>
<polygon fill="#bfbfbf" stroke="black" points="191.5,-224.5 191.5,-243.5 345.5,-243.5 345.5,-224.5 191.5,-224.5"/>
<text text-anchor="middle" x="268.5" y="-231.5" font-family="Helvetica,sans-Serif" font-size="10.00">View/cityscapestatusdisplay.hh</text>
</g>
<!-- Node5 -->
<g id="node2" class="node"><title>Node5</title>
<g id="a_node2"><a xlink:href="cityscapeparkinghall_8hh.html" target="_top" xlink:title="View/cityscapeparkinghall.hh">
<polygon fill="white" stroke="black" points="114,-168.5 114,-187.5 257,-187.5 257,-168.5 114,-168.5"/>
<text text-anchor="middle" x="185.5" y="-175.5" font-family="Helvetica,sans-Serif" font-size="10.00">View/cityscapeparkinghall.hh</text>
</a>
</g>
</g>
<!-- Node4&#45;&gt;Node5 -->
<g id="edge1" class="edge"><title>Node4&#45;&gt;Node5</title>
<path fill="none" stroke="midnightblue" d="M246.401,-218.622C231.238,-208.757 211.617,-195.992 198.802,-187.655"/>
<polygon fill="midnightblue" stroke="midnightblue" points="244.874,-221.804 255.165,-224.324 248.691,-215.937 244.874,-221.804"/>
</g>
<!-- Node12 -->
<g id="node9" class="node"><title>Node12</title>
<g id="a_node9"><a xlink:href="cityscapestatusdisplay_8cc.html" target="_top" xlink:title="View/cityscapestatusdisplay.cc">
<polygon fill="white" stroke="black" points="275.5,-168.5 275.5,-187.5 429.5,-187.5 429.5,-168.5 275.5,-168.5"/>
<text text-anchor="middle" x="352.5" y="-175.5" font-family="Helvetica,sans-Serif" font-size="10.00">View/cityscapestatusdisplay.cc</text>
</a>
</g>
</g>
<!-- Node4&#45;&gt;Node12 -->
<g id="edge8" class="edge"><title>Node4&#45;&gt;Node12</title>
<path fill="none" stroke="midnightblue" d="M290.432,-218.901C305.835,-208.999 325.946,-196.071 339.037,-187.655"/>
<polygon fill="midnightblue" stroke="midnightblue" points="288.515,-215.972 281.996,-224.324 292.301,-221.86 288.515,-215.972"/>
</g>
<!-- Node6 -->
<g id="node3" class="node"><title>Node6</title>
<g id="a_node3"><a xlink:href="cityscape_8hh.html" target="_top" xlink:title="View/cityscape.hh">
<polygon fill="white" stroke="black" points="68.5,-112.5 68.5,-131.5 164.5,-131.5 164.5,-112.5 68.5,-112.5"/>
<text text-anchor="middle" x="116.5" y="-119.5" font-family="Helvetica,sans-Serif" font-size="10.00">View/cityscape.hh</text>
</a>
</g>
</g>
<!-- Node5&#45;&gt;Node6 -->
<g id="edge2" class="edge"><title>Node5&#45;&gt;Node6</title>
<path fill="none" stroke="midnightblue" d="M166.462,-162.101C154.044,-152.382 138.257,-140.027 127.788,-131.834"/>
<polygon fill="midnightblue" stroke="midnightblue" points="164.382,-164.917 174.414,-168.324 168.696,-159.405 164.382,-164.917"/>
</g>
<!-- Node11 -->
<g id="node8" class="node"><title>Node11</title>
<g id="a_node8"><a xlink:href="cityscapeparkinghall_8cc.html" target="_top" xlink:title="View/cityscapeparkinghall.cc">
<polygon fill="white" stroke="black" points="183,-112.5 183,-131.5 326,-131.5 326,-112.5 183,-112.5"/>
<text text-anchor="middle" x="254.5" y="-119.5" font-family="Helvetica,sans-Serif" font-size="10.00">View/cityscapeparkinghall.cc</text>
</a>
</g>
</g>
<!-- Node5&#45;&gt;Node11 -->
<g id="edge7" class="edge"><title>Node5&#45;&gt;Node11</title>
<path fill="none" stroke="midnightblue" d="M204.538,-162.101C216.956,-152.382 232.743,-140.027 243.212,-131.834"/>
<polygon fill="midnightblue" stroke="midnightblue" points="202.304,-159.405 196.586,-168.324 206.618,-164.917 202.304,-159.405"/>
</g>
<!-- Node7 -->
<g id="node4" class="node"><title>Node7</title>
<g id="a_node4"><a xlink:href="view_8hh.html" target="_top" xlink:title="View/view.hh">
<polygon fill="white" stroke="black" points="29.5,-56.5 29.5,-75.5 101.5,-75.5 101.5,-56.5 29.5,-56.5"/>
<text text-anchor="middle" x="65.5" y="-63.5" font-family="Helvetica,sans-Serif" font-size="10.00">View/view.hh</text>
</a>
</g>
</g>
<!-- Node6&#45;&gt;Node7 -->
<g id="edge3" class="edge"><title>Node6&#45;&gt;Node7</title>
<path fill="none" stroke="midnightblue" d="M101.122,-104.718C92.1331,-95.1997 81.1408,-83.5608 73.7649,-75.7511"/>
<polygon fill="midnightblue" stroke="midnightblue" points="98.6676,-107.216 108.078,-112.083 103.757,-102.41 98.6676,-107.216"/>
</g>
<!-- Node10 -->
<g id="node7" class="node"><title>Node10</title>
<g id="a_node7"><a xlink:href="cityscape_8cc.html" target="_top" xlink:title="View/cityscape.cc">
<polygon fill="white" stroke="black" points="119.5,-56.5 119.5,-75.5 215.5,-75.5 215.5,-56.5 119.5,-56.5"/>
<text text-anchor="middle" x="167.5" y="-63.5" font-family="Helvetica,sans-Serif" font-size="10.00">View/cityscape.cc</text>
</a>
</g>
</g>
<!-- Node6&#45;&gt;Node10 -->
<g id="edge6" class="edge"><title>Node6&#45;&gt;Node10</title>
<path fill="none" stroke="midnightblue" d="M131.878,-104.718C140.867,-95.1997 151.859,-83.5608 159.235,-75.7511"/>
<polygon fill="midnightblue" stroke="midnightblue" points="129.243,-102.41 124.922,-112.083 134.332,-107.216 129.243,-102.41"/>
</g>
<!-- Node8 -->
<g id="node5" class="node"><title>Node8</title>
<g id="a_node5"><a xlink:href="main_8cc.html" target="_top" xlink:title="main.cc">
<polygon fill="white" stroke="black" points="0,-0.5 0,-19.5 51,-19.5 51,-0.5 0,-0.5"/>
<text text-anchor="middle" x="25.5" y="-7.5" font-family="Helvetica,sans-Serif" font-size="10.00">main.cc</text>
</a>
</g>
</g>
<!-- Node7&#45;&gt;Node8 -->
<g id="edge4" class="edge"><title>Node7&#45;&gt;Node8</title>
<path fill="none" stroke="midnightblue" d="M52.8003,-47.8554C45.874,-38.5048 37.5937,-27.3265 31.9823,-19.7511"/>
<polygon fill="midnightblue" stroke="midnightblue" points="50.13,-50.1307 58.8948,-56.083 55.755,-45.9641 50.13,-50.1307"/>
</g>
<!-- Node9 -->
<g id="node6" class="node"><title>Node9</title>
<g id="a_node6"><a xlink:href="view_8cc.html" target="_top" xlink:title="View/view.cc">
<polygon fill="white" stroke="black" points="69.5,-0.5 69.5,-19.5 141.5,-19.5 141.5,-0.5 69.5,-0.5"/>
<text text-anchor="middle" x="105.5" y="-7.5" font-family="Helvetica,sans-Serif" font-size="10.00">View/view.cc</text>
</a>
</g>
</g>
<!-- Node7&#45;&gt;Node9 -->
<g id="edge5" class="edge"><title>Node7&#45;&gt;Node9</title>
<path fill="none" stroke="midnightblue" d="M78.1997,-47.8554C85.126,-38.5048 93.4063,-27.3265 99.0177,-19.7511"/>
<polygon fill="midnightblue" stroke="midnightblue" points="75.245,-45.9641 72.1052,-56.083 80.87,-50.1307 75.245,-45.9641"/>
</g>
</g>
</svg>
