<?xml version="1.0" encoding="UTF-8" standalone="no"?>
<!DOCTYPE svg PUBLIC "-//W3C//DTD SVG 1.1//EN"
 "http://www.w3.org/Graphics/SVG/1.1/DTD/svg11.dtd">
<!-- Generated by graphviz version 2.38.0 (20140413.2041)
 -->
<!-- Title: View/cityscapeparkinghall.cc Pages: 1 -->
<!--zoomable 196 -->
<svg id="main" version="1.1" xmlns="http://www.w3.org/2000/svg" xmlns:xlink="http://www.w3.org/1999/xlink" xml:space="preserve" onload="init(evt)">
<style type="text/css"><![CDATA[
.edge:hover path { stroke: red; }
.edge:hover polygon { stroke: red; fill: red; }
]]></style>
<script type="text/javascript"><![CDATA[
var edges = document.getElementsByTagName('g');
if (edges && edges.length) {
  for (var i=0;i<edges.length;i++) {
    if (edges[i].id.substr(0,4)=='edge') {
      edges[i].setAttribute('class','edge');
    }
  }
}
]]></script>
        <defs>
                <circle id="rim" cx="0" cy="0" r="7"/>
                <circle id="rim2" cx="0" cy="0" r="3.5"/>
                <g id="zoomPlus">
                        <use xlink:href="#rim" fill="#404040">
                                <set attributeName="fill" to="#808080" begin="zoomplus.mouseover" end="zoomplus.mouseout"/>
                        </use>
                        <path d="M-4,0h8M0,-4v8" fill="none" stroke="white" stroke-width="1.5" pointer-events="none"/>
                </g>
                <g id="zoomMin">
                        <use xlink:href="#rim" fill="#404040">
                                <set attributeName="fill" to="#808080" begin="zoomminus.mouseover" end="zoomminus.mouseout"/>
                        </use>
                        <path d="M-4,0h8" fill="none" stroke="white" stroke-width="1.5" pointer-events="none"/>
                </g>
                <g id="dirArrow">
                        <path fill="none" stroke="white" stroke-width="1.5" d="M0,-3.0v7 M-2.5,-0.5L0,-3.0L2.5,-0.5"/>
                </g>
               <g id="resetDef">
                       <use xlink:href="#rim2" fill="#404040">
                               <set attributeName="fill" to="#808080" begin="reset.mouseover" end="reset.mouseout"/>
                       </use>
               </g>
        </defs>

<script type="text/javascript">
var viewWidth = 682;
var viewHeight = 196;
var sectionId = 'dynsection-0';
</script>
<script xlink:href="svgpan.js"/>
<svg id="graph" class="graph">
<g id="viewport">
<title>View/cityscapeparkinghall.cc</title>
<polygon fill="white" stroke="none" points="-4,4 -4,-192 677.5,-192 677.5,4 -4,4"/>
<!-- Node0 -->
<g id="node1" class="node"><title>Node0</title>
<polygon fill="#bfbfbf" stroke="black" points="311,-168.5 311,-187.5 454,-187.5 454,-168.5 311,-168.5"/>
<text text-anchor="middle" x="382.5" y="-175.5" font-family="Helvetica,sans-Serif" font-size="10.00">View/cityscapeparkinghall.cc</text>
</g>
<!-- Node1 -->
<g id="node2" class="node"><title>Node1</title>
<g id="a_node2"><a xlink:href="cityscapeparkinghall_8hh.html" target="_top" xlink:title="cityscapeparkinghall.hh">
<polygon fill="white" stroke="black" points="323,-112.5 323,-131.5 442,-131.5 442,-112.5 323,-112.5"/>
<text text-anchor="middle" x="382.5" y="-119.5" font-family="Helvetica,sans-Serif" font-size="10.00">cityscapeparkinghall.hh</text>
</a>
</g>
</g>
<!-- Node0&#45;&gt;Node1 -->
<g id="edge1" class="edge"><title>Node0&#45;&gt;Node1</title>
<path fill="none" stroke="midnightblue" d="M382.5,-168.083C382.5,-161.006 382.5,-150.861 382.5,-141.986"/>
<polygon fill="midnightblue" stroke="midnightblue" points="386,-141.751 382.5,-131.751 379,-141.751 386,-141.751"/>
</g>
<!-- Node2 -->
<g id="node3" class="node"><title>Node2</title>
<g id="a_node3"><a xlink:href="cityscapestatusdisplay_8hh.html" target="_top" xlink:title="cityscapestatusdisplay.hh">
<polygon fill="white" stroke="black" points="67.5,-56.5 67.5,-75.5 197.5,-75.5 197.5,-56.5 67.5,-56.5"/>
<text text-anchor="middle" x="132.5" y="-63.5" font-family="Helvetica,sans-Serif" font-size="10.00">cityscapestatusdisplay.hh</text>
</a>
</g>
</g>
<!-- Node1&#45;&gt;Node2 -->
<g id="edge2" class="edge"><title>Node1&#45;&gt;Node2</title>
<path fill="none" stroke="midnightblue" d="M342.887,-112.444C299.275,-103.023 229.1,-87.8656 181.922,-77.6752"/>
<polygon fill="midnightblue" stroke="midnightblue" points="182.441,-74.2067 171.928,-75.5164 180.964,-81.0489 182.441,-74.2067"/>
</g>
<!-- Node6 -->
<g id="node7" class="node"><title>Node6</title>
<polygon fill="white" stroke="#bfbfbf" points="216,-56.5 216,-75.5 307,-75.5 307,-56.5 216,-56.5"/>
<text text-anchor="middle" x="261.5" y="-63.5" font-family="Helvetica,sans-Serif" font-size="10.00">QGraphicsScene</text>
</g>
<!-- Node1&#45;&gt;Node6 -->
<g id="edge6" class="edge"><title>Node1&#45;&gt;Node6</title>
<path fill="none" stroke="midnightblue" d="M363.327,-112.444C343.591,-103.636 312.615,-89.8116 290.007,-79.722"/>
<polygon fill="midnightblue" stroke="midnightblue" points="291.141,-76.3957 280.583,-75.5164 288.289,-82.788 291.141,-76.3957"/>
</g>
<!-- Node7 -->
<g id="node8" class="node"><title>Node7</title>
<polygon fill="white" stroke="#bfbfbf" points="325,-56.5 325,-75.5 440,-75.5 440,-56.5 325,-56.5"/>
<text text-anchor="middle" x="382.5" y="-63.5" font-family="Helvetica,sans-Serif" font-size="10.00">QGraphicsPixmapItem</text>
</g>
<!-- Node1&#45;&gt;Node7 -->
<g id="edge7" class="edge"><title>Node1&#45;&gt;Node7</title>
<path fill="none" stroke="midnightblue" d="M382.5,-112.083C382.5,-105.006 382.5,-94.8611 382.5,-85.9865"/>
<polygon fill="midnightblue" stroke="midnightblue" points="386,-85.751 382.5,-75.7511 379,-85.7511 386,-85.751"/>
</g>
<!-- Node8 -->
<g id="node9" class="node"><title>Node8</title>
<polygon fill="white" stroke="#bfbfbf" points="458,-56.5 458,-75.5 511,-75.5 511,-56.5 458,-56.5"/>
<text text-anchor="middle" x="484.5" y="-63.5" font-family="Helvetica,sans-Serif" font-size="10.00">QObject</text>
</g>
<!-- Node1&#45;&gt;Node8 -->
<g id="edge8" class="edge"><title>Node1&#45;&gt;Node8</title>
<path fill="none" stroke="midnightblue" d="M398.888,-112.324C415.171,-103.703 440.367,-90.3643 459.216,-80.3855"/>
<polygon fill="midnightblue" stroke="midnightblue" points="460.952,-83.4267 468.153,-75.6545 457.677,-77.2402 460.952,-83.4267"/>
</g>
<!-- Node9 -->
<g id="node10" class="node"><title>Node9</title>
<polygon fill="white" stroke="#bfbfbf" points="529.5,-56.5 529.5,-75.5 673.5,-75.5 673.5,-56.5 529.5,-56.5"/>
<text text-anchor="middle" x="601.5" y="-63.5" font-family="Helvetica,sans-Serif" font-size="10.00">QGraphicsSceneMouseEvent</text>
</g>
<!-- Node1&#45;&gt;Node9 -->
<g id="edge9" class="edge"><title>Node1&#45;&gt;Node9</title>
<path fill="none" stroke="midnightblue" d="M417.201,-112.444C455.085,-103.102 515.849,-88.1194 557.162,-77.9326"/>
<polygon fill="midnightblue" stroke="midnightblue" points="558.09,-81.3088 566.961,-75.5164 556.414,-74.5123 558.09,-81.3088"/>
</g>
<!-- Node3 -->
<g id="node4" class="node"><title>Node3</title>
<polygon fill="white" stroke="#bfbfbf" points="0,-0.5 0,-19.5 55,-19.5 55,-0.5 0,-0.5"/>
<text text-anchor="middle" x="27.5" y="-7.5" font-family="Helvetica,sans-Serif" font-size="10.00">QWidget</text>
</g>
<!-- Node2&#45;&gt;Node3 -->
<g id="edge3" class="edge"><title>Node2&#45;&gt;Node3</title>
<path fill="none" stroke="midnightblue" d="M115.63,-56.324C98.7912,-47.6641 72.6935,-34.2424 53.262,-24.249"/>
<polygon fill="midnightblue" stroke="midnightblue" points="54.8218,-21.1155 44.3282,-19.6545 51.6204,-27.3405 54.8218,-21.1155"/>
</g>
<!-- Node4 -->
<g id="node5" class="node"><title>Node4</title>
<polygon fill="white" stroke="#bfbfbf" points="73,-0.5 73,-19.5 192,-19.5 192,-0.5 73,-0.5"/>
<text text-anchor="middle" x="132.5" y="-7.5" font-family="Helvetica,sans-Serif" font-size="10.00">QGraphicsProxyWidget</text>
</g>
<!-- Node2&#45;&gt;Node4 -->
<g id="edge4" class="edge"><title>Node2&#45;&gt;Node4</title>
<path fill="none" stroke="midnightblue" d="M132.5,-56.083C132.5,-49.0059 132.5,-38.8611 132.5,-29.9865"/>
<polygon fill="midnightblue" stroke="midnightblue" points="136,-29.751 132.5,-19.7511 129,-29.7511 136,-29.751"/>
</g>
<!-- Node5 -->
<g id="node6" class="node"><title>Node5</title>
<polygon fill="white" stroke="#bfbfbf" points="210.5,-0.5 210.5,-19.5 292.5,-19.5 292.5,-0.5 210.5,-0.5"/>
<text text-anchor="middle" x="251.5" y="-7.5" font-family="Helvetica,sans-Serif" font-size="10.00">QGraphicsItem</text>
</g>
<!-- Node2&#45;&gt;Node5 -->
<g id="edge5" class="edge"><title>Node2&#45;&gt;Node5</title>
<path fill="none" stroke="midnightblue" d="M151.356,-56.4435C170.766,-47.6356 201.23,-33.8116 223.465,-23.722"/>
<polygon fill="midnightblue" stroke="midnightblue" points="225.072,-26.836 232.732,-19.5164 222.18,-20.4615 225.072,-26.836"/>
</g>
</g>
</svg>
        <g id="navigator" transform="translate(0 0)" fill="#404254">
                <rect fill="#f2f5e9" fill-opacity="0.5" stroke="#606060" stroke-width=".5" x="0" y="0" width="60" height="60"/>
                <use id="zoomplus" xlink:href="#zoomPlus" x="17" y="9" onmousedown="handleZoom(evt,'in')"/>
                <use id="zoomminus" xlink:href="#zoomMin" x="42" y="9" onmousedown="handleZoom(evt,'out')"/>
                <use id="reset" xlink:href="#resetDef" x="30" y="36" onmousedown="handleReset()"/>
                <g id="arrowUp" xlink:href="#dirArrow" transform="translate(30 24)" onmousedown="handlePan(0,-1)">
                  <use xlink:href="#rim" fill="#404040">
                        <set attributeName="fill" to="#808080" begin="arrowUp.mouseover" end="arrowUp.mouseout"/>
                  </use>
                  <path fill="none" stroke="white" stroke-width="1.5" d="M0,-3.0v7 M-2.5,-0.5L0,-3.0L2.5,-0.5"/>
                </g>
                <g id="arrowRight" xlink:href="#dirArrow" transform="rotate(90) translate(36 -43)" onmousedown="handlePan(1,0)">
                  <use xlink:href="#rim" fill="#404040">
                        <set attributeName="fill" to="#808080" begin="arrowRight.mouseover" end="arrowRight.mouseout"/>
                  </use>
                  <path fill="none" stroke="white" stroke-width="1.5" d="M0,-3.0v7 M-2.5,-0.5L0,-3.0L2.5,-0.5"/>
                </g>
                <g id="arrowDown" xlink:href="#dirArrow" transform="rotate(180) translate(-30 -48)" onmousedown="handlePan(0,1)">
                  <use xlink:href="#rim" fill="#404040">
                        <set attributeName="fill" to="#808080" begin="arrowDown.mouseover" end="arrowDown.mouseout"/>
                  </use>
                  <path fill="none" stroke="white" stroke-width="1.5" d="M0,-3.0v7 M-2.5,-0.5L0,-3.0L2.5,-0.5"/>
                </g>
                <g id="arrowLeft" xlink:href="#dirArrow" transform="rotate(270) translate(-36 17)" onmousedown="handlePan(-1,0)">
                  <use xlink:href="#rim" fill="#404040">
                        <set attributeName="fill" to="#808080" begin="arrowLeft.mouseover" end="arrowLeft.mouseout"/>
                  </use>
                  <path fill="none" stroke="white" stroke-width="1.5" d="M0,-3.0v7 M-2.5,-0.5L0,-3.0L2.5,-0.5"/>
                </g>
        </g>
        <svg viewBox="0 0 15 15" width="100%" height="30px" preserveAspectRatio="xMaxYMin meet">
         <g id="arrow_out" transform="scale(0.3 0.3)">
          <a xlink:href="cityscapeparkinghall_8cc__incl_org.svg" target="_base">
           <rect id="button" ry="5" rx="5" y="6" x="6" height="38" width="38"
                fill="#f2f5e9" fill-opacity="0.5" stroke="#606060" stroke-width="1.0"/>
           <path id="arrow"
             d="M 11.500037,31.436501 C 11.940474,20.09759 22.043105,11.32322 32.158766,21.979434 L 37.068811,17.246167 C 37.068811,17.246167 37.088388,32 37.088388,32 L 22.160133,31.978069 C 22.160133,31.978069 26.997745,27.140456 26.997745,27.140456 C 18.528582,18.264221 13.291696,25.230495 11.500037,31.436501 z"
             style="fill:#404040;"/>
          </a>
         </g>
        </svg>
</svg>
