<?xml version="1.0" encoding="UTF-8" standalone="no"?>
<!DOCTYPE svg PUBLIC "-//W3C//DTD SVG 1.1//EN"
 "http://www.w3.org/Graphics/SVG/1.1/DTD/svg11.dtd">
<!-- Generated by graphviz version 2.38.0 (20140413.2041)
 -->
<!-- Title: View::ActionSceneEnemyProjectileExplosion Pages: 1 -->
<svg width="462pt" height="226pt"
 viewBox="0.00 0.00 461.50 226.00" xmlns="http://www.w3.org/2000/svg" xmlns:xlink="http://www.w3.org/1999/xlink">
<g id="graph0" class="graph" transform="scale(1 1) rotate(0) translate(4 222)">
<title>View::ActionSceneEnemyProjectileExplosion</title>
<polygon fill="white" stroke="none" points="-4,4 -4,-222 457.5,-222 457.5,4 -4,4"/>
<!-- Node3 -->
<g id="node1" class="node"><title>Node3</title>
<polygon fill="#bfbfbf" stroke="black" points="136.5,-0.5 136.5,-112.5 306.5,-112.5 306.5,-0.5 136.5,-0.5"/>
<text text-anchor="start" x="144.5" y="-100.5" font-family="Helvetica,sans-Serif" font-size="10.00">View::ActionSceneEnemyProjectile</text>
<text text-anchor="middle" x="221.5" y="-89.5" font-family="Helvetica,sans-Serif" font-size="10.00">Explosion</text>
<polyline fill="none" stroke="black" points="136.5,-82.5 306.5,-82.5 "/>
<text text-anchor="middle" x="221.5" y="-70.5" font-family="Helvetica,sans-Serif" font-size="10.00"> </text>
<polyline fill="none" stroke="black" points="136.5,-63.5 306.5,-63.5 "/>
<text text-anchor="start" x="144.5" y="-51.5" font-family="Helvetica,sans-Serif" font-size="10.00">+ ActionSceneEnemyProjectile</text>
<text text-anchor="start" x="144.5" y="-40.5" font-family="Helvetica,sans-Serif" font-size="10.00">Explosion()</text>
<text text-anchor="start" x="144.5" y="-29.5" font-family="Helvetica,sans-Serif" font-size="10.00">+ ~ActionSceneEnemyProjectile</text>
<text text-anchor="start" x="144.5" y="-18.5" font-family="Helvetica,sans-Serif" font-size="10.00">Explosion()</text>
<text text-anchor="start" x="144.5" y="-7.5" font-family="Helvetica,sans-Serif" font-size="10.00">+ nextFrame()</text>
</g>
<!-- Node4 -->
<g id="node2" class="node"><title>Node4</title>
<g id="a_node2"><a xlink:href="class_q_object.html" target="_top" xlink:title="{QObject\n||}">
<polygon fill="white" stroke="black" points="0,-160.5 0,-217.5 53,-217.5 53,-160.5 0,-160.5"/>
<text text-anchor="middle" x="26.5" y="-205.5" font-family="Helvetica,sans-Serif" font-size="10.00">QObject</text>
<polyline fill="none" stroke="black" points="0,-198.5 53,-198.5 "/>
<text text-anchor="middle" x="26.5" y="-186.5" font-family="Helvetica,sans-Serif" font-size="10.00"> </text>
<polyline fill="none" stroke="black" points="0,-179.5 53,-179.5 "/>
<text text-anchor="middle" x="26.5" y="-167.5" font-family="Helvetica,sans-Serif" font-size="10.00"> </text>
</a>
</g>
</g>
<!-- Node4&#45;&gt;Node3 -->
<g id="edge1" class="edge"><title>Node4&#45;&gt;Node3</title>
<path fill="none" stroke="midnightblue" d="M61.2389,-160.188C61.326,-160.125 61.4131,-160.062 61.5,-160 85.2232,-142.983 111.666,-125.482 136.112,-109.865"/>
<polygon fill="none" stroke="midnightblue" points="58.9582,-157.522 53.0297,-166.303 63.14,-163.136 58.9582,-157.522"/>
</g>
<!-- Node5 -->
<g id="node3" class="node"><title>Node5</title>
<g id="a_node3"><a xlink:href="class_q_graphics_pixmap_item.html" target="_top" xlink:title="{QGraphicsPixmapItem\n||}">
<polygon fill="white" stroke="black" points="71,-160.5 71,-217.5 186,-217.5 186,-160.5 71,-160.5"/>
<text text-anchor="middle" x="128.5" y="-205.5" font-family="Helvetica,sans-Serif" font-size="10.00">QGraphicsPixmapItem</text>
<polyline fill="none" stroke="black" points="71,-198.5 186,-198.5 "/>
<text text-anchor="middle" x="128.5" y="-186.5" font-family="Helvetica,sans-Serif" font-size="10.00"> </text>
<polyline fill="none" stroke="black" points="71,-179.5 186,-179.5 "/>
<text text-anchor="middle" x="128.5" y="-167.5" font-family="Helvetica,sans-Serif" font-size="10.00"> </text>
</a>
</g>
</g>
<!-- Node5&#45;&gt;Node3 -->
<g id="edge2" class="edge"><title>Node5&#45;&gt;Node3</title>
<path fill="none" stroke="midnightblue" d="M154.041,-152.16C162.761,-139.924 172.725,-125.942 182.27,-112.548"/>
<polygon fill="none" stroke="midnightblue" points="151.176,-150.149 148.223,-160.324 156.877,-154.212 151.176,-150.149"/>
</g>
<!-- Node6 -->
<g id="node4" class="node"><title>Node6</title>
<polygon fill="white" stroke="#bfbfbf" points="204,-160.5 204,-217.5 259,-217.5 259,-160.5 204,-160.5"/>
<text text-anchor="middle" x="231.5" y="-205.5" font-family="Helvetica,sans-Serif" font-size="10.00">QTimer *</text>
<polyline fill="none" stroke="#bfbfbf" points="204,-198.5 259,-198.5 "/>
<text text-anchor="middle" x="231.5" y="-186.5" font-family="Helvetica,sans-Serif" font-size="10.00"> </text>
<polyline fill="none" stroke="#bfbfbf" points="204,-179.5 259,-179.5 "/>
<text text-anchor="middle" x="231.5" y="-167.5" font-family="Helvetica,sans-Serif" font-size="10.00"> </text>
</g>
<!-- Node6&#45;&gt;Node3 -->
<g id="edge3" class="edge"><title>Node6&#45;&gt;Node3</title>
<path fill="none" stroke="#404040" d="M225.256,-160.392C224.128,-154.361 223.116,-147.99 222.5,-142 221.921,-136.368 221.493,-130.513 221.185,-124.631"/>
<polygon fill="none" stroke="#404040" points="221.183,-124.573 216.949,-118.735 220.709,-112.582 224.943,-118.42 221.183,-124.573"/>
<text text-anchor="middle" x="251" y="-134" font-family="Helvetica,sans-Serif" font-size="10.00"> &#45;animTimer_</text>
</g>
<!-- Node7 -->
<g id="node5" class="node"><title>Node7</title>
<polygon fill="white" stroke="#bfbfbf" points="287,-160.5 287,-217.5 316,-217.5 316,-160.5 287,-160.5"/>
<text text-anchor="middle" x="301.5" y="-205.5" font-family="Helvetica,sans-Serif" font-size="10.00">int</text>
<polyline fill="none" stroke="#bfbfbf" points="287,-198.5 316,-198.5 "/>
<text text-anchor="middle" x="301.5" y="-186.5" font-family="Helvetica,sans-Serif" font-size="10.00"> </text>
<polyline fill="none" stroke="#bfbfbf" points="287,-179.5 316,-179.5 "/>
<text text-anchor="middle" x="301.5" y="-167.5" font-family="Helvetica,sans-Serif" font-size="10.00"> </text>
</g>
<!-- Node7&#45;&gt;Node3 -->
<g id="edge4" class="edge"><title>Node7&#45;&gt;Node3</title>
<path fill="none" stroke="#404040" d="M292.695,-160.274C289.17,-150.714 284.702,-140.123 279.5,-131 277.985,-128.344 276.38,-125.681 274.706,-123.026"/>
<polygon fill="none" stroke="#404040" points="274.594,-122.858 267.941,-120.076 267.95,-112.865 274.603,-115.647 274.594,-122.858"/>
<text text-anchor="middle" x="319.5" y="-134" font-family="Helvetica,sans-Serif" font-size="10.00"> &#45;frameCounter_</text>
</g>
<!-- Node8 -->
<g id="node6" class="node"><title>Node8</title>
<polygon fill="white" stroke="#bfbfbf" points="341,-160.5 341,-217.5 448,-217.5 448,-160.5 341,-160.5"/>
<text text-anchor="middle" x="394.5" y="-205.5" font-family="Helvetica,sans-Serif" font-size="10.00">vector&lt; QPixmap * &gt;</text>
<polyline fill="none" stroke="#bfbfbf" points="341,-198.5 448,-198.5 "/>
<text text-anchor="middle" x="394.5" y="-186.5" font-family="Helvetica,sans-Serif" font-size="10.00"> </text>
<polyline fill="none" stroke="#bfbfbf" points="341,-179.5 448,-179.5 "/>
<text text-anchor="middle" x="394.5" y="-167.5" font-family="Helvetica,sans-Serif" font-size="10.00"> </text>
</g>
<!-- Node8&#45;&gt;Node3 -->
<g id="edge5" class="edge"><title>Node8&#45;&gt;Node3</title>
<path fill="none" stroke="#404040" d="M380.917,-160.353C375.018,-150.26 367.407,-139.297 358.5,-131 346.342,-119.675 332.109,-109.546 317.503,-100.694"/>
<polygon fill="none" stroke="#404040" points="317.195,-100.514 309.997,-100.951 306.825,-94.4742 314.023,-94.0378 317.195,-100.514"/>
<text text-anchor="middle" x="410.5" y="-134" font-family="Helvetica,sans-Serif" font-size="10.00"> &#45;explosionFrames_</text>
</g>
</g>
</svg>
