<?xml version="1.0" encoding="UTF-8" standalone="no"?>
<!DOCTYPE svg PUBLIC "-//W3C//DTD SVG 1.1//EN"
 "http://www.w3.org/Graphics/SVG/1.1/DTD/svg11.dtd">
<!-- Generated by graphviz version 2.38.0 (20140413.2041)
 -->
<!-- Title: Model::XmlParkingDataReader Pages: 1 -->
<svg width="256pt" height="314pt"
 viewBox="0.00 0.00 255.50 314.00" xmlns="http://www.w3.org/2000/svg" xmlns:xlink="http://www.w3.org/1999/xlink">
<g id="graph0" class="graph" transform="scale(1 1) rotate(0) translate(4 310)">
<title>Model::XmlParkingDataReader</title>
<polygon fill="white" stroke="none" points="-4,4 -4,-310 251.5,-310 251.5,4 -4,4"/>
<!-- Node1 -->
<g id="node1" class="node"><title>Node1</title>
<polygon fill="#bfbfbf" stroke="black" points="55,-0.5 55,-178.5 204,-178.5 204,-0.5 55,-0.5"/>
<text text-anchor="middle" x="129.5" y="-166.5" font-family="Helvetica,sans-Serif" font-size="10.00">Model::XmlParkingDataReader</text>
<polyline fill="none" stroke="black" points="55,-159.5 204,-159.5 "/>
<text text-anchor="middle" x="129.5" y="-147.5" font-family="Helvetica,sans-Serif" font-size="10.00"> </text>
<polyline fill="none" stroke="black" points="55,-140.5 204,-140.5 "/>
<text text-anchor="start" x="63" y="-128.5" font-family="Helvetica,sans-Serif" font-size="10.00">+ XmlParkingDataReader()</text>
<text text-anchor="start" x="63" y="-117.5" font-family="Helvetica,sans-Serif" font-size="10.00">+ read()</text>
<text text-anchor="start" x="63" y="-106.5" font-family="Helvetica,sans-Serif" font-size="10.00">+ getParkingHallData()</text>
<text text-anchor="start" x="63" y="-95.5" font-family="Helvetica,sans-Serif" font-size="10.00">&#45; readParkingFacility()</text>
<text text-anchor="start" x="63" y="-84.5" font-family="Helvetica,sans-Serif" font-size="10.00">&#45; readID()</text>
<text text-anchor="start" x="63" y="-73.5" font-family="Helvetica,sans-Serif" font-size="10.00">&#45; readLayout()</text>
<text text-anchor="start" x="63" y="-62.5" font-family="Helvetica,sans-Serif" font-size="10.00">&#45; readName()</text>
<text text-anchor="start" x="63" y="-51.5" font-family="Helvetica,sans-Serif" font-size="10.00">&#45; readType()</text>
<text text-anchor="start" x="63" y="-40.5" font-family="Helvetica,sans-Serif" font-size="10.00">&#45; readAddress()</text>
<text text-anchor="start" x="63" y="-29.5" font-family="Helvetica,sans-Serif" font-size="10.00">&#45; readParkingFacilityStatus()</text>
<text text-anchor="start" x="63" y="-18.5" font-family="Helvetica,sans-Serif" font-size="10.00">&#45; readTotalParkingCapacity()</text>
<text text-anchor="start" x="63" y="-7.5" font-family="Helvetica,sans-Serif" font-size="10.00">&#45; readLocation()</text>
</g>
<!-- Node2 -->
<g id="node2" class="node"><title>Node2</title>
<polygon fill="white" stroke="#bfbfbf" points="0,-226.5 0,-305.5 127,-305.5 127,-226.5 0,-226.5"/>
<text text-anchor="start" x="8" y="-293.5" font-family="Helvetica,sans-Serif" font-size="10.00">map&lt; QString, std::</text>
<text text-anchor="start" x="8" y="-282.5" font-family="Helvetica,sans-Serif" font-size="10.00">shared_ptr&lt; Interface</text>
<text text-anchor="middle" x="63.5" y="-271.5" font-family="Helvetica,sans-Serif" font-size="10.00">::ParkingHallInterface &gt; &gt;</text>
<polyline fill="none" stroke="#bfbfbf" points="0,-264.5 127,-264.5 "/>
<text text-anchor="middle" x="63.5" y="-252.5" font-family="Helvetica,sans-Serif" font-size="10.00"> </text>
<polyline fill="none" stroke="#bfbfbf" points="0,-245.5 127,-245.5 "/>
<text text-anchor="middle" x="63.5" y="-233.5" font-family="Helvetica,sans-Serif" font-size="10.00"> </text>
</g>
<!-- Node2&#45;&gt;Node1 -->
<g id="edge1" class="edge"><title>Node2&#45;&gt;Node1</title>
<path fill="none" stroke="#404040" d="M78.1475,-226.273C82.2891,-215.323 86.9961,-202.878 91.8398,-190.071"/>
<polygon fill="none" stroke="#404040" points="91.8756,-189.976 90.2569,-182.949 96.1208,-178.752 97.7396,-185.78 91.8756,-189.976"/>
<text text-anchor="middle" x="129.5" y="-200" font-family="Helvetica,sans-Serif" font-size="10.00"> &#45;parkingHallData_</text>
</g>
<!-- Node3 -->
<g id="node3" class="node"><title>Node3</title>
<polygon fill="white" stroke="#bfbfbf" points="145.5,-237.5 145.5,-294.5 247.5,-294.5 247.5,-237.5 145.5,-237.5"/>
<text text-anchor="middle" x="196.5" y="-282.5" font-family="Helvetica,sans-Serif" font-size="10.00">QXmlStreamReader</text>
<polyline fill="none" stroke="#bfbfbf" points="145.5,-275.5 247.5,-275.5 "/>
<text text-anchor="middle" x="196.5" y="-263.5" font-family="Helvetica,sans-Serif" font-size="10.00"> </text>
<polyline fill="none" stroke="#bfbfbf" points="145.5,-256.5 247.5,-256.5 "/>
<text text-anchor="middle" x="196.5" y="-244.5" font-family="Helvetica,sans-Serif" font-size="10.00"> </text>
</g>
<!-- Node3&#45;&gt;Node1 -->
<g id="edge2" class="edge"><title>Node3&#45;&gt;Node1</title>
<path fill="none" stroke="#404040" d="M187.619,-237.393C183.508,-224.979 178.447,-210.185 173.5,-197 172.621,-194.659 171.724,-192.292 170.811,-189.908"/>
<polygon fill="none" stroke="#404040" points="170.786,-189.844 164.886,-185.698 166.444,-178.657 172.344,-182.803 170.786,-189.844"/>
<text text-anchor="middle" x="197" y="-200" font-family="Helvetica,sans-Serif" font-size="10.00"> &#45;reader_</text>
</g>
</g>
</svg>
