<?xml version="1.0" encoding="UTF-8" standalone="no"?>
<!DOCTYPE svg PUBLIC "-//W3C//DTD SVG 1.1//EN"
 "http://www.w3.org/Graphics/SVG/1.1/DTD/svg11.dtd">
<!-- Generated by graphviz version 2.38.0 (20140413.2041)
 -->
<!-- Title: View::ActionScene::ActionScene Pages: 1 -->
<svg width="572pt" height="470pt"
 viewBox="0.00 0.00 572.00 470.00" xmlns="http://www.w3.org/2000/svg" xmlns:xlink="http://www.w3.org/1999/xlink">
<g id="graph0" class="graph" transform="scale(1 1) rotate(0) translate(4 466)">
<title>View::ActionScene::ActionScene</title>
<polygon fill="white" stroke="none" points="-4,4 -4,-466 568,-466 568,4 -4,4"/>
<!-- Node0 -->
<g id="node1" class="node"><title>Node0</title>
<polygon fill="#bfbfbf" stroke="black" points="0,-220.5 0,-250.5 105,-250.5 105,-220.5 0,-220.5"/>
<text text-anchor="start" x="8" y="-238.5" font-family="Helvetica,sans-Serif" font-size="10.00">View::ActionScene::</text>
<text text-anchor="middle" x="52.5" y="-227.5" font-family="Helvetica,sans-Serif" font-size="10.00">ActionScene</text>
</g>
<!-- Node1 -->
<g id="node2" class="node"><title>Node1</title>
<g id="a_node2"><a xlink:href="class_view_1_1_action_scene.html#abe62d38f7dd3b4937f4ac175b50d0fc4" target="_top" xlink:title="View::ActionScene::\laddEdge">
<polygon fill="white" stroke="black" points="149.5,-431.5 149.5,-461.5 254.5,-461.5 254.5,-431.5 149.5,-431.5"/>
<text text-anchor="start" x="157.5" y="-449.5" font-family="Helvetica,sans-Serif" font-size="10.00">View::ActionScene::</text>
<text text-anchor="middle" x="202" y="-438.5" font-family="Helvetica,sans-Serif" font-size="10.00">addEdge</text>
</a>
</g>
</g>
<!-- Node0&#45;&gt;Node1 -->
<g id="edge1" class="edge"><title>Node0&#45;&gt;Node1</title>
<path fill="none" stroke="midnightblue" d="M56.5691,-250.575C64.4329,-285.531 88.4912,-372.909 141,-422.5 142.122,-423.559 143.296,-424.574 144.514,-425.546"/>
<polygon fill="midnightblue" stroke="midnightblue" points="142.849,-428.646 153.092,-431.357 146.775,-422.85 142.849,-428.646"/>
</g>
<!-- Node2 -->
<g id="node3" class="node"><title>Node2</title>
<g id="a_node3"><a xlink:href="class_view_1_1_action_scene.html#acb081c1f39c5139bcdfcde6ef14fdefe" target="_top" xlink:title="View::ActionScene::\laddExit">
<polygon fill="white" stroke="black" points="149.5,-382.5 149.5,-412.5 254.5,-412.5 254.5,-382.5 149.5,-382.5"/>
<text text-anchor="start" x="157.5" y="-400.5" font-family="Helvetica,sans-Serif" font-size="10.00">View::ActionScene::</text>
<text text-anchor="middle" x="202" y="-389.5" font-family="Helvetica,sans-Serif" font-size="10.00">addExit</text>
</a>
</g>
</g>
<!-- Node0&#45;&gt;Node2 -->
<g id="edge2" class="edge"><title>Node0&#45;&gt;Node2</title>
<path fill="none" stroke="midnightblue" d="M60.3473,-250.815C72.9397,-277.524 102.089,-333.059 141,-367.5 145.088,-371.118 149.69,-374.417 154.482,-377.393"/>
<polygon fill="midnightblue" stroke="midnightblue" points="152.822,-380.475 163.241,-382.398 156.295,-374.398 152.822,-380.475"/>
</g>
<!-- Node3 -->
<g id="node4" class="node"><title>Node3</title>
<g id="a_node4"><a xlink:href="class_view_1_1_action_scene.html#a305360f2d73ea0e7afb7541ec1cd790c" target="_top" xlink:title="View::ActionScene::\laddFloor">
<polygon fill="white" stroke="black" points="304.5,-338.5 304.5,-368.5 409.5,-368.5 409.5,-338.5 304.5,-338.5"/>
<text text-anchor="start" x="312.5" y="-356.5" font-family="Helvetica,sans-Serif" font-size="10.00">View::ActionScene::</text>
<text text-anchor="middle" x="357" y="-345.5" font-family="Helvetica,sans-Serif" font-size="10.00">addFloor</text>
</a>
</g>
</g>
<!-- Node0&#45;&gt;Node3 -->
<g id="edge4" class="edge"><title>Node0&#45;&gt;Node3</title>
<path fill="none" stroke="midnightblue" d="M61.8651,-250.817C75.2296,-273.584 103.733,-315.684 141,-334.5 188.48,-358.473 249.406,-361.703 294.27,-359.822"/>
<polygon fill="midnightblue" stroke="midnightblue" points="294.642,-363.308 304.448,-359.297 294.281,-356.317 294.642,-363.308"/>
</g>
<!-- Node4 -->
<g id="node5" class="node"><title>Node4</title>
<g id="a_node5"><a xlink:href="class_view_1_1_action_scene.html#a3204a5607fe245f150aaa71dd7fcf4eb" target="_top" xlink:title="View::ActionScene::\laddGuard">
<polygon fill="white" stroke="black" points="149.5,-294.5 149.5,-324.5 254.5,-324.5 254.5,-294.5 149.5,-294.5"/>
<text text-anchor="start" x="157.5" y="-312.5" font-family="Helvetica,sans-Serif" font-size="10.00">View::ActionScene::</text>
<text text-anchor="middle" x="202" y="-301.5" font-family="Helvetica,sans-Serif" font-size="10.00">addGuard</text>
</a>
</g>
</g>
<!-- Node0&#45;&gt;Node4 -->
<g id="edge5" class="edge"><title>Node0&#45;&gt;Node4</title>
<path fill="none" stroke="midnightblue" d="M77.9007,-250.659C95.1853,-261.094 119.1,-274.926 141,-285.5 144.381,-287.133 147.904,-288.749 151.474,-290.324"/>
<polygon fill="midnightblue" stroke="midnightblue" points="150.395,-293.67 160.966,-294.385 153.148,-287.234 150.395,-293.67"/>
</g>
<!-- Node5 -->
<g id="node6" class="node"><title>Node5</title>
<g id="a_node6"><a xlink:href="class_view_1_1_action_scene.html#a9de2dc8aa9ed56ad25650f8abe7cb885" target="_top" xlink:title="View::ActionScene::\laddHorizontalPark">
<polygon fill="white" stroke="black" points="149.5,-245.5 149.5,-275.5 254.5,-275.5 254.5,-245.5 149.5,-245.5"/>
<text text-anchor="start" x="157.5" y="-263.5" font-family="Helvetica,sans-Serif" font-size="10.00">View::ActionScene::</text>
<text text-anchor="middle" x="202" y="-252.5" font-family="Helvetica,sans-Serif" font-size="10.00">addHorizontalPark</text>
</a>
</g>
</g>
<!-- Node0&#45;&gt;Node5 -->
<g id="edge7" class="edge"><title>Node0&#45;&gt;Node5</title>
<path fill="none" stroke="midnightblue" d="M105.088,-244.244C116.14,-246.117 127.924,-248.114 139.313,-250.045"/>
<polygon fill="midnightblue" stroke="midnightblue" points="138.747,-253.499 149.191,-251.719 139.917,-246.597 138.747,-253.499"/>
</g>
<!-- Node6 -->
<g id="node7" class="node"><title>Node6</title>
<g id="a_node7"><a xlink:href="class_view_1_1_action_scene.html#a786af29e787d53f2dd2411f94cea1cc9" target="_top" xlink:title="View::ActionScene::\laddVerticalPark">
<polygon fill="white" stroke="black" points="149.5,-196.5 149.5,-226.5 254.5,-226.5 254.5,-196.5 149.5,-196.5"/>
<text text-anchor="start" x="157.5" y="-214.5" font-family="Helvetica,sans-Serif" font-size="10.00">View::ActionScene::</text>
<text text-anchor="middle" x="202" y="-203.5" font-family="Helvetica,sans-Serif" font-size="10.00">addVerticalPark</text>
</a>
</g>
</g>
<!-- Node0&#45;&gt;Node6 -->
<g id="edge8" class="edge"><title>Node0&#45;&gt;Node6</title>
<path fill="none" stroke="midnightblue" d="M105.088,-227.106C116.14,-225.308 127.924,-223.39 139.313,-221.537"/>
<polygon fill="midnightblue" stroke="midnightblue" points="139.883,-224.991 149.191,-219.93 138.759,-218.081 139.883,-224.991"/>
</g>
<!-- Node7 -->
<g id="node8" class="node"><title>Node7</title>
<g id="a_node8"><a xlink:href="class_view_1_1_action_scene.html#a16b400c170eee4acd74c0e53268fe9b7" target="_top" xlink:title="View::ActionScene::\laddWall">
<polygon fill="white" stroke="black" points="149.5,-147.5 149.5,-177.5 254.5,-177.5 254.5,-147.5 149.5,-147.5"/>
<text text-anchor="start" x="157.5" y="-165.5" font-family="Helvetica,sans-Serif" font-size="10.00">View::ActionScene::</text>
<text text-anchor="middle" x="202" y="-154.5" font-family="Helvetica,sans-Serif" font-size="10.00">addWall</text>
</a>
</g>
</g>
<!-- Node0&#45;&gt;Node7 -->
<g id="edge9" class="edge"><title>Node0&#45;&gt;Node7</title>
<path fill="none" stroke="midnightblue" d="M79.1555,-220.479C96.3964,-210.621 119.764,-197.713 141,-187.5 145.057,-185.549 149.306,-183.599 153.59,-181.697"/>
<polygon fill="midnightblue" stroke="midnightblue" points="155.181,-184.822 162.96,-177.628 152.393,-178.401 155.181,-184.822"/>
</g>
<!-- Node8 -->
<g id="node9" class="node"><title>Node8</title>
<g id="a_node9"><a xlink:href="class_view_1_1_action_scene.html#ade23dfff3a399dba0e13815023a7735a" target="_top" xlink:title="View::ActionScene::\lcheckWalkingIntoWalls">
<polygon fill="white" stroke="black" points="142.5,-98.5 142.5,-128.5 261.5,-128.5 261.5,-98.5 142.5,-98.5"/>
<text text-anchor="start" x="150.5" y="-116.5" font-family="Helvetica,sans-Serif" font-size="10.00">View::ActionScene::</text>
<text text-anchor="middle" x="202" y="-105.5" font-family="Helvetica,sans-Serif" font-size="10.00">checkWalkingIntoWalls</text>
</a>
</g>
</g>
<!-- Node0&#45;&gt;Node8 -->
<g id="edge10" class="edge"><title>Node0&#45;&gt;Node8</title>
<path fill="none" stroke="midnightblue" d="M63.7414,-220.467C78.6161,-199.605 108.046,-161.818 141,-138.5 143.543,-136.7 146.236,-134.998 149.016,-133.393"/>
<polygon fill="midnightblue" stroke="midnightblue" points="150.901,-136.356 158.117,-128.598 147.639,-130.163 150.901,-136.356"/>
</g>
<!-- Node12 -->
<g id="node13" class="node"><title>Node12</title>
<g id="a_node13"><a xlink:href="class_view_1_1_action_scene.html#a58b5d585864bde84c364025755b06ed1" target="_top" xlink:title="View::ActionScene::\lshowEndMissionDisplay">
<polygon fill="white" stroke="black" points="141,-49.5 141,-79.5 263,-79.5 263,-49.5 141,-49.5"/>
<text text-anchor="start" x="149" y="-67.5" font-family="Helvetica,sans-Serif" font-size="10.00">View::ActionScene::</text>
<text text-anchor="middle" x="202" y="-56.5" font-family="Helvetica,sans-Serif" font-size="10.00">showEndMissionDisplay</text>
</a>
</g>
</g>
<!-- Node0&#45;&gt;Node12 -->
<g id="edge15" class="edge"><title>Node0&#45;&gt;Node12</title>
<path fill="none" stroke="midnightblue" d="M58.9503,-220.102C70.0313,-190.841 97.854,-126.799 141,-89.5 142.942,-87.821 145.013,-86.2431 147.174,-84.7614"/>
<polygon fill="midnightblue" stroke="midnightblue" points="149.121,-87.6745 155.878,-79.5138 145.507,-81.6798 149.121,-87.6745"/>
</g>
<!-- Node13 -->
<g id="node14" class="node"><title>Node13</title>
<g id="a_node14"><a xlink:href="class_view_1_1_action_scene.html#aa8e8ca7467fb236632fe4ac5602b4619" target="_top" xlink:title="View::ActionScene::\lupdateNearbyTiles">
<polygon fill="white" stroke="black" points="149.5,-0.5 149.5,-30.5 254.5,-30.5 254.5,-0.5 149.5,-0.5"/>
<text text-anchor="start" x="157.5" y="-18.5" font-family="Helvetica,sans-Serif" font-size="10.00">View::ActionScene::</text>
<text text-anchor="middle" x="202" y="-7.5" font-family="Helvetica,sans-Serif" font-size="10.00">updateNearbyTiles</text>
</a>
</g>
</g>
<!-- Node0&#45;&gt;Node13 -->
<g id="edge16" class="edge"><title>Node0&#45;&gt;Node13</title>
<path fill="none" stroke="midnightblue" d="M56.3124,-220.377C63.7455,-184.418 87.1556,-92.91 141,-40.5 142.61,-38.9332 144.332,-37.4588 146.139,-36.0721"/>
<polygon fill="midnightblue" stroke="midnightblue" points="148.107,-38.9672 154.525,-30.5378 144.251,-33.1248 148.107,-38.9672"/>
</g>
<!-- Node2&#45;&gt;Node3 -->
<g id="edge3" class="edge"><title>Node2&#45;&gt;Node3</title>
<path fill="none" stroke="midnightblue" d="M254.799,-382.604C267.51,-378.948 281.241,-374.999 294.364,-371.225"/>
<polygon fill="midnightblue" stroke="midnightblue" points="295.611,-374.509 304.255,-368.381 293.677,-367.781 295.611,-374.509"/>
</g>
<!-- Node4&#45;&gt;Node3 -->
<g id="edge6" class="edge"><title>Node4&#45;&gt;Node3</title>
<path fill="none" stroke="midnightblue" d="M254.799,-324.396C267.51,-328.052 281.241,-332.001 294.364,-335.775"/>
<polygon fill="midnightblue" stroke="midnightblue" points="293.677,-339.219 304.255,-338.619 295.611,-332.491 293.677,-339.219"/>
</g>
<!-- Node9 -->
<g id="node10" class="node"><title>Node9</title>
<g id="a_node10"><a xlink:href="class_view_1_1_action_scene_p_c.html#ab11636de093176287ad05e2c12c33ca1" target="_top" xlink:title="View::ActionScenePC\l::getId">
<polygon fill="white" stroke="black" points="451,-120.5 451,-150.5 564,-150.5 564,-120.5 451,-120.5"/>
<text text-anchor="start" x="459" y="-138.5" font-family="Helvetica,sans-Serif" font-size="10.00">View::ActionScenePC</text>
<text text-anchor="middle" x="507.5" y="-127.5" font-family="Helvetica,sans-Serif" font-size="10.00">::getId</text>
</a>
</g>
</g>
<!-- Node8&#45;&gt;Node9 -->
<g id="edge11" class="edge"><title>Node8&#45;&gt;Node9</title>
<path fill="none" stroke="midnightblue" d="M261.518,-117.742C312.897,-121.466 387.556,-126.878 440.934,-130.747"/>
<polygon fill="midnightblue" stroke="midnightblue" points="440.75,-134.243 450.977,-131.475 441.256,-127.261 440.75,-134.243"/>
</g>
<!-- Node10 -->
<g id="node11" class="node"><title>Node10</title>
<g id="a_node11"><a xlink:href="class_view_1_1_action_scene.html#af1d81cee559dc8f92ab1be0128d87dbb" target="_top" xlink:title="View::ActionScene::\lcheckBlockedDirection">
<polygon fill="white" stroke="black" points="299,-76.5 299,-106.5 415,-106.5 415,-76.5 299,-76.5"/>
<text text-anchor="start" x="307" y="-94.5" font-family="Helvetica,sans-Serif" font-size="10.00">View::ActionScene::</text>
<text text-anchor="middle" x="357" y="-83.5" font-family="Helvetica,sans-Serif" font-size="10.00">checkBlockedDirection</text>
</a>
</g>
</g>
<!-- Node8&#45;&gt;Node10 -->
<g id="edge12" class="edge"><title>Node8&#45;&gt;Node10</title>
<path fill="none" stroke="midnightblue" d="M261.716,-105.057C270.594,-103.781 279.811,-102.455 288.85,-101.156"/>
<polygon fill="midnightblue" stroke="midnightblue" points="289.554,-104.59 298.954,-99.7027 288.557,-97.6617 289.554,-104.59"/>
</g>
<!-- Node10&#45;&gt;Node9 -->
<g id="edge13" class="edge"><title>Node10&#45;&gt;Node9</title>
<path fill="none" stroke="midnightblue" d="M408.69,-106.519C420.69,-110.075 433.606,-113.902 445.993,-117.572"/>
<polygon fill="midnightblue" stroke="midnightblue" points="445.204,-120.989 455.787,-120.474 447.193,-114.277 445.204,-120.989"/>
</g>
<!-- Node11 -->
<g id="node12" class="node"><title>Node11</title>
<g id="a_node12"><a xlink:href="class_view_1_1_action_scene_p_c.html#a55bd5a020b147cf53f8f37ff664489a0" target="_top" xlink:title="View::ActionScenePC\l::obstacleHit">
<polygon fill="white" stroke="black" points="451,-71.5 451,-101.5 564,-101.5 564,-71.5 451,-71.5"/>
<text text-anchor="start" x="459" y="-89.5" font-family="Helvetica,sans-Serif" font-size="10.00">View::ActionScenePC</text>
<text text-anchor="middle" x="507.5" y="-78.5" font-family="Helvetica,sans-Serif" font-size="10.00">::obstacleHit</text>
</a>
</g>
</g>
<!-- Node10&#45;&gt;Node11 -->
<g id="edge14" class="edge"><title>Node10&#45;&gt;Node11</title>
<path fill="none" stroke="midnightblue" d="M415.414,-89.5669C423.653,-89.2894 432.185,-89.0022 440.573,-88.7198"/>
<polygon fill="midnightblue" stroke="midnightblue" points="440.827,-92.2133 450.704,-88.3787 440.592,-85.2172 440.827,-92.2133"/>
</g>
</g>
</svg>
