<?xml version="1.0" encoding="UTF-8" standalone="no"?>
<!DOCTYPE svg PUBLIC "-//W3C//DTD SVG 1.1//EN"
 "http://www.w3.org/Graphics/SVG/1.1/DTD/svg11.dtd">
<!-- Generated by graphviz version 2.38.0 (20140413.2041)
 -->
<!-- Title: Model::mapProcessor::placeEnemies Pages: 1 -->
<!--zoomable 616 -->
<svg id="main" version="1.1" xmlns="http://www.w3.org/2000/svg" xmlns:xlink="http://www.w3.org/1999/xlink" xml:space="preserve" onload="init(evt)">
<style type="text/css"><![CDATA[
.edge:hover path { stroke: red; }
.edge:hover polygon { stroke: red; fill: red; }
]]></style>
<script type="text/javascript"><![CDATA[
var edges = document.getElementsByTagName('g');
if (edges && edges.length) {
  for (var i=0;i<edges.length;i++) {
    if (edges[i].id.substr(0,4)=='edge') {
      edges[i].setAttribute('class','edge');
    }
  }
}
]]></script>
        <defs>
                <circle id="rim" cx="0" cy="0" r="7"/>
                <circle id="rim2" cx="0" cy="0" r="3.5"/>
                <g id="zoomPlus">
                        <use xlink:href="#rim" fill="#404040">
                                <set attributeName="fill" to="#808080" begin="zoomplus.mouseover" end="zoomplus.mouseout"/>
                        </use>
                        <path d="M-4,0h8M0,-4v8" fill="none" stroke="white" stroke-width="1.5" pointer-events="none"/>
                </g>
                <g id="zoomMin">
                        <use xlink:href="#rim" fill="#404040">
                                <set attributeName="fill" to="#808080" begin="zoomminus.mouseover" end="zoomminus.mouseout"/>
                        </use>
                        <path d="M-4,0h8" fill="none" stroke="white" stroke-width="1.5" pointer-events="none"/>
                </g>
                <g id="dirArrow">
                        <path fill="none" stroke="white" stroke-width="1.5" d="M0,-3.0v7 M-2.5,-0.5L0,-3.0L2.5,-0.5"/>
                </g>
               <g id="resetDef">
                       <use xlink:href="#rim2" fill="#404040">
                               <set attributeName="fill" to="#808080" begin="reset.mouseover" end="reset.mouseout"/>
                       </use>
               </g>
        </defs>

<script type="text/javascript">
var viewWidth = 888;
var viewHeight = 616;
var sectionId = 'dynsection-12';
</script>
<script xlink:href="svgpan.js"/>
<svg id="graph" class="graph">
<g id="viewport">
<title>Model::mapProcessor::placeEnemies</title>
<polygon fill="white" stroke="none" points="-4,4 -4,-612.214 884,-612.214 884,4 -4,4"/>
<!-- Node66 -->
<g id="node1" class="node"><title>Node66</title>
<polygon fill="#bfbfbf" stroke="black" points="0,-206.572 0,-236.572 112,-236.572 112,-206.572 0,-206.572"/>
<text text-anchor="start" x="8" y="-224.572" font-family="Helvetica,sans-Serif" font-size="10.00">Model::mapProcessor</text>
<text text-anchor="middle" x="56" y="-213.572" font-family="Helvetica,sans-Serif" font-size="10.00">::placeEnemies</text>
</g>
<!-- Node67 -->
<g id="node2" class="node"><title>Node67</title>
<g id="a_node2"><a xlink:href="class_model_1_1map_processor.html#ae1e80cb097c8e31a337b3a20ff653cc2" target="_top" xlink:title="Model::mapProcessor\l::calculateDistanceMap">
<polygon fill="white" stroke="black" points="296,-228.572 296,-258.572 415,-258.572 415,-228.572 296,-228.572"/>
<text text-anchor="start" x="304" y="-246.572" font-family="Helvetica,sans-Serif" font-size="10.00">Model::mapProcessor</text>
<text text-anchor="middle" x="355.5" y="-235.572" font-family="Helvetica,sans-Serif" font-size="10.00">::calculateDistanceMap</text>
</a>
</g>
</g>
<!-- Node66&#45;&gt;Node67 -->
<g id="edge1" class="edge"><title>Node66&#45;&gt;Node67</title>
<path fill="none" stroke="midnightblue" d="M112.26,-225.658C161.253,-229.282 233.002,-234.587 285.701,-238.484"/>
<polygon fill="midnightblue" stroke="midnightblue" points="285.744,-241.997 295.975,-239.244 286.26,-235.016 285.744,-241.997"/>
</g>
<!-- Node69 -->
<g id="node4" class="node"><title>Node69</title>
<g id="a_node4"><a xlink:href="class_model_1_1map_generator.html#a02b91ca9a47b993e6fa14b9b0ad317f2" target="_top" xlink:title="Get tile from point in tile coordinates. ">
<polygon fill="white" stroke="black" points="623,-334.572 623,-364.572 733,-364.572 733,-334.572 623,-334.572"/>
<text text-anchor="start" x="631" y="-352.572" font-family="Helvetica,sans-Serif" font-size="10.00">Model::mapGenerator</text>
<text text-anchor="middle" x="678" y="-341.572" font-family="Helvetica,sans-Serif" font-size="10.00">::getTile</text>
</a>
</g>
</g>
<!-- Node66&#45;&gt;Node69 -->
<g id="edge29" class="edge"><title>Node66&#45;&gt;Node69</title>
<path fill="none" stroke="midnightblue" d="M80.1419,-236.61C139.005,-273.753 300.45,-368.768 451,-395.572 510.071,-406.089 528.243,-411.823 586,-395.572 604.05,-390.493 605.368,-382.231 622,-373.572 625.049,-371.984 628.227,-370.407 631.448,-368.864"/>
<polygon fill="midnightblue" stroke="midnightblue" points="632.978,-372.013 640.574,-364.626 630.03,-365.664 632.978,-372.013"/>
</g>
<!-- Node70 -->
<g id="node5" class="node"><title>Node70</title>
<g id="a_node5"><a xlink:href="class_model_1_1map_generator.html#aaac1161126a56490862e3b5fffffbded" target="_top" xlink:title="Model::mapGenerator\l::indexAt">
<polygon fill="white" stroke="black" points="623,-383.572 623,-413.572 733,-413.572 733,-383.572 623,-383.572"/>
<text text-anchor="start" x="631" y="-401.572" font-family="Helvetica,sans-Serif" font-size="10.00">Model::mapGenerator</text>
<text text-anchor="middle" x="678" y="-390.572" font-family="Helvetica,sans-Serif" font-size="10.00">::indexAt</text>
</a>
</g>
</g>
<!-- Node66&#45;&gt;Node70 -->
<g id="edge30" class="edge"><title>Node66&#45;&gt;Node70</title>
<path fill="none" stroke="midnightblue" d="M58.9928,-236.609C66.9345,-294.01 98.326,-497.987 148,-535.572 303.383,-653.141 416.438,-612.568 586,-516.572 624.062,-495.024 651.54,-450.472 665.813,-422.698"/>
<polygon fill="midnightblue" stroke="midnightblue" points="668.998,-424.153 670.307,-413.639 662.727,-421.042 668.998,-424.153"/>
</g>
<!-- Node75 -->
<g id="node10" class="node"><title>Node75</title>
<g id="a_node10"><a xlink:href="class_model_1_1map_generator.html#af153f95aea5145100546ad86ac4b9d02" target="_top" xlink:title="Model::mapGenerator\l::indexToX">
<polygon fill="white" stroke="black" points="463.5,-53.572 463.5,-83.572 573.5,-83.572 573.5,-53.572 463.5,-53.572"/>
<text text-anchor="start" x="471.5" y="-71.572" font-family="Helvetica,sans-Serif" font-size="10.00">Model::mapGenerator</text>
<text text-anchor="middle" x="518.5" y="-60.572" font-family="Helvetica,sans-Serif" font-size="10.00">::indexToX</text>
</a>
</g>
</g>
<!-- Node66&#45;&gt;Node75 -->
<g id="edge31" class="edge"><title>Node66&#45;&gt;Node75</title>
<path fill="none" stroke="midnightblue" d="M83.0328,-206.375C100.89,-196.392 125.36,-183.564 148,-174.572 252.11,-133.223 378.55,-100.526 453.277,-82.9121"/>
<polygon fill="midnightblue" stroke="midnightblue" points="454.531,-86.2134 463.471,-80.5274 452.936,-79.3974 454.531,-86.2134"/>
</g>
<!-- Node76 -->
<g id="node11" class="node"><title>Node76</title>
<g id="a_node11"><a xlink:href="class_model_1_1map_generator.html#a73020896792ce1a6aa4dd0ce2b9c5caf" target="_top" xlink:title="Model::mapGenerator\l::indexToY">
<polygon fill="white" stroke="black" points="463.5,-4.57201 463.5,-34.572 573.5,-34.572 573.5,-4.57201 463.5,-4.57201"/>
<text text-anchor="start" x="471.5" y="-22.572" font-family="Helvetica,sans-Serif" font-size="10.00">Model::mapGenerator</text>
<text text-anchor="middle" x="518.5" y="-11.572" font-family="Helvetica,sans-Serif" font-size="10.00">::indexToY</text>
</a>
</g>
</g>
<!-- Node66&#45;&gt;Node76 -->
<g id="edge32" class="edge"><title>Node66&#45;&gt;Node76</title>
<path fill="none" stroke="midnightblue" d="M61.1453,-206.392C70.7546,-174.115 97.6635,-98.3748 148,-58.572 235.341,10.4918 372.894,4.14991 453.234,-7.30834"/>
<polygon fill="midnightblue" stroke="midnightblue" points="452.812,-10.7841 463.22,-8.80112 453.847,-3.86105 452.812,-10.7841"/>
</g>
<!-- Node79 -->
<g id="node14" class="node"><title>Node79</title>
<g id="a_node14"><a xlink:href="class_model_1_1map_processor.html#a36b0d649c2d7a39b9dd71c17b9f85081" target="_top" xlink:title="Model::mapProcessor\l::getDistance">
<polygon fill="white" stroke="black" points="299.5,-26.572 299.5,-56.572 411.5,-56.572 411.5,-26.572 299.5,-26.572"/>
<text text-anchor="start" x="307.5" y="-44.572" font-family="Helvetica,sans-Serif" font-size="10.00">Model::mapProcessor</text>
<text text-anchor="middle" x="355.5" y="-33.572" font-family="Helvetica,sans-Serif" font-size="10.00">::getDistance</text>
</a>
</g>
</g>
<!-- Node66&#45;&gt;Node79 -->
<g id="edge19" class="edge"><title>Node66&#45;&gt;Node79</title>
<path fill="none" stroke="midnightblue" d="M65.5374,-206.184C79.6363,-182.143 110.039,-135.727 148,-109.572 190.532,-80.2679 246.597,-62.8625 289.575,-53.0082"/>
<polygon fill="midnightblue" stroke="midnightblue" points="290.36,-56.4192 299.367,-50.8408 288.847,-49.5846 290.36,-56.4192"/>
</g>
<!-- Node80 -->
<g id="node15" class="node"><title>Node80</title>
<g id="a_node15"><a xlink:href="class_model_1_1map_processor.html#a3719cc265240be889e98f9830602a067" target="_top" xlink:title="Model::mapProcessor\l::getMedialMap">
<polygon fill="white" stroke="black" points="148,-184.572 148,-214.572 260,-214.572 260,-184.572 148,-184.572"/>
<text text-anchor="start" x="156" y="-202.572" font-family="Helvetica,sans-Serif" font-size="10.00">Model::mapProcessor</text>
<text text-anchor="middle" x="204" y="-191.572" font-family="Helvetica,sans-Serif" font-size="10.00">::getMedialMap</text>
</a>
</g>
</g>
<!-- Node66&#45;&gt;Node80 -->
<g id="edge22" class="edge"><title>Node66&#45;&gt;Node80</title>
<path fill="none" stroke="midnightblue" d="M112.196,-213.255C120.554,-211.995 129.243,-210.686 137.789,-209.398"/>
<polygon fill="midnightblue" stroke="midnightblue" points="138.359,-212.852 147.726,-207.901 137.316,-205.93 138.359,-212.852"/>
</g>
<!-- Node81 -->
<g id="node16" class="node"><title>Node81</title>
<g id="a_node16"><a xlink:href="class_model_1_1map_generator.html#a180f1510b8d7eb4af5dc919eeaddfa69" target="_top" xlink:title="Model::mapGenerator\l::setTile">
<polygon fill="white" stroke="black" points="149,-495.572 149,-525.572 259,-525.572 259,-495.572 149,-495.572"/>
<text text-anchor="start" x="157" y="-513.572" font-family="Helvetica,sans-Serif" font-size="10.00">Model::mapGenerator</text>
<text text-anchor="middle" x="204" y="-502.572" font-family="Helvetica,sans-Serif" font-size="10.00">::setTile</text>
</a>
</g>
</g>
<!-- Node66&#45;&gt;Node81 -->
<g id="edge33" class="edge"><title>Node66&#45;&gt;Node81</title>
<path fill="none" stroke="midnightblue" d="M58.5145,-236.574C63.5595,-279.483 83.3209,-404.505 148,-480.572 150.814,-483.881 154.088,-486.888 157.611,-489.607"/>
<polygon fill="midnightblue" stroke="midnightblue" points="155.944,-492.705 166.182,-495.432 159.879,-486.916 155.944,-492.705"/>
</g>
<!-- Node68 -->
<g id="node3" class="node"><title>Node68</title>
<g id="a_node3"><a xlink:href="class_model_1_1map_generator.html#a918049786b708772ca97df76389955a7" target="_top" xlink:title="Model::mapGenerator\l::getClosestEdge">
<polygon fill="white" stroke="black" points="463.5,-337.572 463.5,-367.572 573.5,-367.572 573.5,-337.572 463.5,-337.572"/>
<text text-anchor="start" x="471.5" y="-355.572" font-family="Helvetica,sans-Serif" font-size="10.00">Model::mapGenerator</text>
<text text-anchor="middle" x="518.5" y="-344.572" font-family="Helvetica,sans-Serif" font-size="10.00">::getClosestEdge</text>
</a>
</g>
</g>
<!-- Node67&#45;&gt;Node68 -->
<g id="edge2" class="edge"><title>Node67&#45;&gt;Node68</title>
<path fill="none" stroke="midnightblue" d="M371.853,-258.699C389.748,-275.763 420.744,-303.601 451,-322.572 456.912,-326.279 463.359,-329.78 469.838,-332.991"/>
<polygon fill="midnightblue" stroke="midnightblue" points="468.758,-336.353 479.293,-337.481 471.76,-330.03 468.758,-336.353"/>
</g>
<!-- Node67&#45;&gt;Node69 -->
<g id="edge9" class="edge"><title>Node67&#45;&gt;Node69</title>
<path fill="none" stroke="midnightblue" d="M384.869,-258.74C403.339,-268.197 428.16,-280.131 451,-288.572 480.533,-299.487 557.108,-319.536 612.962,-333.663"/>
<polygon fill="midnightblue" stroke="midnightblue" points="612.231,-337.089 622.783,-336.141 613.943,-330.301 612.231,-337.089"/>
</g>
<!-- Node67&#45;&gt;Node70 -->
<g id="edge12" class="edge"><title>Node67&#45;&gt;Node70</title>
<path fill="none" stroke="midnightblue" d="M362.258,-258.793C374.006,-287.491 403.696,-349.17 451,-376.572 499.941,-404.922 565.01,-408.405 612.757,-405.99"/>
<polygon fill="midnightblue" stroke="midnightblue" points="613.205,-409.469 622.975,-405.37 612.781,-402.482 613.205,-409.469"/>
</g>
<!-- Node72 -->
<g id="node7" class="node"><title>Node72</title>
<g id="a_node7"><a xlink:href="class_model_1_1map_generator.html#a92598d66736c2be4ca83aeedfe478b9d" target="_top" xlink:title="Model::mapGenerator\l::GetSurroundingWallCount">
<polygon fill="white" stroke="black" points="451,-249.572 451,-279.572 586,-279.572 586,-249.572 451,-249.572"/>
<text text-anchor="start" x="459" y="-267.572" font-family="Helvetica,sans-Serif" font-size="10.00">Model::mapGenerator</text>
<text text-anchor="middle" x="518.5" y="-256.572" font-family="Helvetica,sans-Serif" font-size="10.00">::GetSurroundingWallCount</text>
</a>
</g>
</g>
<!-- Node67&#45;&gt;Node72 -->
<g id="edge6" class="edge"><title>Node67&#45;&gt;Node72</title>
<path fill="none" stroke="midnightblue" d="M415.08,-251.213C423.416,-252.3 432.092,-253.432 440.711,-254.556"/>
<polygon fill="midnightblue" stroke="midnightblue" points="440.411,-258.046 450.779,-255.869 441.316,-251.105 440.411,-258.046"/>
</g>
<!-- Node73 -->
<g id="node8" class="node"><title>Node73</title>
<g id="a_node8"><a xlink:href="class_model_1_1map_processor.html#ace629015ebfe8536ad3f14019fffe3e3" target="_top" xlink:title="Model::mapProcessor\l::getTileClosest">
<polygon fill="white" stroke="black" points="462.5,-102.572 462.5,-132.572 574.5,-132.572 574.5,-102.572 462.5,-102.572"/>
<text text-anchor="start" x="470.5" y="-120.572" font-family="Helvetica,sans-Serif" font-size="10.00">Model::mapProcessor</text>
<text text-anchor="middle" x="518.5" y="-109.572" font-family="Helvetica,sans-Serif" font-size="10.00">::getTileClosest</text>
</a>
</g>
</g>
<!-- Node67&#45;&gt;Node73 -->
<g id="edge10" class="edge"><title>Node67&#45;&gt;Node73</title>
<path fill="none" stroke="midnightblue" d="M394.761,-228.408C402.062,-224.341 409.219,-219.413 415,-213.572 440.169,-188.145 424.262,-165.344 451,-141.572 452.324,-140.395 453.711,-139.274 455.148,-138.206"/>
<polygon fill="midnightblue" stroke="midnightblue" points="457.3,-140.986 463.859,-132.665 453.543,-135.08 457.3,-140.986"/>
</g>
<!-- Node67&#45;&gt;Node75 -->
<g id="edge13" class="edge"><title>Node67&#45;&gt;Node75</title>
<path fill="none" stroke="midnightblue" d="M371.903,-228.432C384.643,-215.309 402.595,-195.366 415,-175.572 436.353,-141.501 421.688,-120.096 451,-92.572 452.261,-91.3879 453.585,-90.2614 454.961,-89.1898"/>
<polygon fill="midnightblue" stroke="midnightblue" points="456.937,-92.079 463.333,-83.6332 453.066,-86.2465 456.937,-92.079"/>
</g>
<!-- Node67&#45;&gt;Node76 -->
<g id="edge14" class="edge"><title>Node67&#45;&gt;Node76</title>
<path fill="none" stroke="midnightblue" d="M361.884,-228.553C377.111,-186.789 421.307,-70.5689 451,-43.572 452.311,-42.3799 453.686,-41.246 455.113,-40.1674"/>
<polygon fill="midnightblue" stroke="midnightblue" points="457.274,-42.9387 463.779,-34.576 453.478,-37.0568 457.274,-42.9387"/>
</g>
<!-- Node77 -->
<g id="node12" class="node"><title>Node77</title>
<g id="a_node12"><a xlink:href="class_model_1_1map_processor.html#aa4491f292821c1791ba15718fd9c6a63" target="_top" xlink:title="Model::mapProcessor\l::setTileClosest">
<polygon fill="white" stroke="black" points="462.5,-200.572 462.5,-230.572 574.5,-230.572 574.5,-200.572 462.5,-200.572"/>
<text text-anchor="start" x="470.5" y="-218.572" font-family="Helvetica,sans-Serif" font-size="10.00">Model::mapProcessor</text>
<text text-anchor="middle" x="518.5" y="-207.572" font-family="Helvetica,sans-Serif" font-size="10.00">::setTileClosest</text>
</a>
</g>
</g>
<!-- Node67&#45;&gt;Node77 -->
<g id="edge15" class="edge"><title>Node67&#45;&gt;Node77</title>
<path fill="none" stroke="midnightblue" d="M415.08,-233.384C427.162,-231.283 439.956,-229.058 452.258,-226.918"/>
<polygon fill="midnightblue" stroke="midnightblue" points="453.196,-230.308 462.448,-225.146 451.996,-223.411 453.196,-230.308"/>
</g>
<!-- Node78 -->
<g id="node13" class="node"><title>Node78</title>
<g id="a_node13"><a xlink:href="class_model_1_1map_processor.html#a89dbcb46165ca574cf2c9db9f5c16cee" target="_top" xlink:title="Model::mapProcessor\l::setTileDistance">
<polygon fill="white" stroke="black" points="462.5,-151.572 462.5,-181.572 574.5,-181.572 574.5,-151.572 462.5,-151.572"/>
<text text-anchor="start" x="470.5" y="-169.572" font-family="Helvetica,sans-Serif" font-size="10.00">Model::mapProcessor</text>
<text text-anchor="middle" x="518.5" y="-158.572" font-family="Helvetica,sans-Serif" font-size="10.00">::setTileDistance</text>
</a>
</g>
</g>
<!-- Node67&#45;&gt;Node78 -->
<g id="edge17" class="edge"><title>Node67&#45;&gt;Node78</title>
<path fill="none" stroke="midnightblue" d="M387.155,-228.54C396.216,-223.913 406.091,-218.687 415,-213.572 431.466,-204.118 433.965,-198.958 451,-190.572 454.553,-188.823 458.267,-187.134 462.045,-185.516"/>
<polygon fill="midnightblue" stroke="midnightblue" points="463.575,-188.672 471.511,-181.653 460.93,-182.191 463.575,-188.672"/>
</g>
<!-- Node68&#45;&gt;Node69 -->
<g id="edge3" class="edge"><title>Node68&#45;&gt;Node69</title>
<path fill="none" stroke="midnightblue" d="M573.703,-351.54C586.271,-351.3 599.766,-351.043 612.72,-350.796"/>
<polygon fill="midnightblue" stroke="midnightblue" points="613.033,-354.291 622.964,-350.601 612.9,-347.292 613.033,-354.291"/>
</g>
<!-- Node68&#45;&gt;Node70 -->
<g id="edge4" class="edge"><title>Node68&#45;&gt;Node70</title>
<path fill="none" stroke="midnightblue" d="M571.071,-367.634C585.422,-371.825 601.145,-376.418 615.983,-380.751"/>
<polygon fill="midnightblue" stroke="midnightblue" points="615.002,-384.111 625.582,-383.555 616.964,-377.391 615.002,-384.111"/>
</g>
<!-- Node71 -->
<g id="node6" class="node"><title>Node71</title>
<g id="a_node6"><a xlink:href="class_model_1_1map_generator.html#a244ad56297f00ce2ab892d3b2a14ffac" target="_top" xlink:title="Model::mapGenerator\l::isInMapRange">
<polygon fill="white" stroke="black" points="770,-326.572 770,-356.572 880,-356.572 880,-326.572 770,-326.572"/>
<text text-anchor="start" x="778" y="-344.572" font-family="Helvetica,sans-Serif" font-size="10.00">Model::mapGenerator</text>
<text text-anchor="middle" x="825" y="-333.572" font-family="Helvetica,sans-Serif" font-size="10.00">::isInMapRange</text>
</a>
</g>
</g>
<!-- Node70&#45;&gt;Node71 -->
<g id="edge5" class="edge"><title>Node70&#45;&gt;Node71</title>
<path fill="none" stroke="midnightblue" d="M717.477,-383.447C735.492,-376.365 757.132,-367.858 776.188,-360.367"/>
<polygon fill="midnightblue" stroke="midnightblue" points="777.569,-363.585 785.595,-356.669 775.008,-357.07 777.569,-363.585"/>
</g>
<!-- Node72&#45;&gt;Node69 -->
<g id="edge7" class="edge"><title>Node72&#45;&gt;Node69</title>
<path fill="none" stroke="midnightblue" d="M555.081,-279.677C565.192,-284.224 576.133,-289.388 586,-294.572 606.179,-305.173 628.062,-318.343 645.312,-329.137"/>
<polygon fill="midnightblue" stroke="midnightblue" points="643.551,-332.165 653.876,-334.539 647.285,-326.244 643.551,-332.165"/>
</g>
<!-- Node72&#45;&gt;Node71 -->
<g id="edge8" class="edge"><title>Node72&#45;&gt;Node71</title>
<path fill="none" stroke="midnightblue" d="M578.934,-279.601C631.073,-292.786 706.696,-311.909 760.119,-325.418"/>
<polygon fill="midnightblue" stroke="midnightblue" points="759.272,-328.814 769.825,-327.873 760.988,-322.028 759.272,-328.814"/>
</g>
<!-- Node74 -->
<g id="node9" class="node"><title>Node74</title>
<g id="a_node9"><a xlink:href="class_model_1_1map_processor.html#a3399e41b2aeca5e9890d7a740dc1e237" target="_top" xlink:title="Model::mapProcessor\l::getTile">
<polygon fill="white" stroke="black" points="622,-151.572 622,-181.572 734,-181.572 734,-151.572 622,-151.572"/>
<text text-anchor="start" x="630" y="-169.572" font-family="Helvetica,sans-Serif" font-size="10.00">Model::mapProcessor</text>
<text text-anchor="middle" x="678" y="-158.572" font-family="Helvetica,sans-Serif" font-size="10.00">::getTile</text>
</a>
</g>
</g>
<!-- Node73&#45;&gt;Node74 -->
<g id="edge11" class="edge"><title>Node73&#45;&gt;Node74</title>
<path fill="none" stroke="midnightblue" d="M568.04,-132.673C584.134,-137.68 602.211,-143.304 618.947,-148.511"/>
<polygon fill="midnightblue" stroke="midnightblue" points="618.032,-151.892 628.62,-151.52 620.111,-145.208 618.032,-151.892"/>
</g>
<!-- Node77&#45;&gt;Node74 -->
<g id="edge16" class="edge"><title>Node77&#45;&gt;Node74</title>
<path fill="none" stroke="midnightblue" d="M568.04,-200.471C584.134,-195.464 602.211,-189.84 618.947,-184.633"/>
<polygon fill="midnightblue" stroke="midnightblue" points="620.111,-187.936 628.62,-181.624 618.032,-181.252 620.111,-187.936"/>
</g>
<!-- Node78&#45;&gt;Node74 -->
<g id="edge18" class="edge"><title>Node78&#45;&gt;Node74</title>
<path fill="none" stroke="midnightblue" d="M574.586,-166.572C586.575,-166.572 599.371,-166.572 611.713,-166.572"/>
<polygon fill="midnightblue" stroke="midnightblue" points="611.945,-170.072 621.945,-166.572 611.945,-163.072 611.945,-170.072"/>
</g>
<!-- Node79&#45;&gt;Node75 -->
<g id="edge20" class="edge"><title>Node79&#45;&gt;Node75</title>
<path fill="none" stroke="midnightblue" d="M411.907,-50.8639C425.302,-53.1102 439.726,-55.5292 453.48,-57.8357"/>
<polygon fill="midnightblue" stroke="midnightblue" points="452.911,-61.2891 463.352,-59.4913 454.069,-54.3855 452.911,-61.2891"/>
</g>
<!-- Node79&#45;&gt;Node76 -->
<g id="edge21" class="edge"><title>Node79&#45;&gt;Node76</title>
<path fill="none" stroke="midnightblue" d="M411.907,-34.0009C425.172,-32.1883 439.446,-30.2378 453.079,-28.3749"/>
<polygon fill="midnightblue" stroke="midnightblue" points="453.918,-31.7928 463.352,-26.9711 452.97,-24.8573 453.918,-31.7928"/>
</g>
<!-- Node80&#45;&gt;Node67 -->
<g id="edge23" class="edge"><title>Node80&#45;&gt;Node67</title>
<path fill="none" stroke="midnightblue" d="M256.031,-214.591C268.112,-218.147 281.115,-221.974 293.586,-225.644"/>
<polygon fill="midnightblue" stroke="midnightblue" points="292.864,-229.08 303.445,-228.546 294.84,-222.365 292.864,-229.08"/>
</g>
<!-- Node80&#45;&gt;Node69 -->
<g id="edge25" class="edge"><title>Node80&#45;&gt;Node69</title>
<path fill="none" stroke="midnightblue" d="M218.915,-214.776C253.683,-251.478 348.918,-344.272 451,-376.572 509.264,-395.007 579.611,-381.315 626.178,-367.585"/>
<polygon fill="midnightblue" stroke="midnightblue" points="627.49,-370.844 636.031,-364.574 625.444,-364.149 627.49,-370.844"/>
</g>
<!-- Node80&#45;&gt;Node73 -->
<g id="edge26" class="edge"><title>Node80&#45;&gt;Node73</title>
<path fill="none" stroke="midnightblue" d="M260.191,-202.596C304.106,-202.856 366.088,-198.319 415,-175.572 434.955,-166.291 432.256,-153.105 451,-141.572 453.633,-139.952 456.392,-138.418 459.226,-136.97"/>
<polygon fill="midnightblue" stroke="midnightblue" points="460.906,-140.048 468.472,-132.632 457.932,-133.711 460.906,-140.048"/>
</g>
<!-- Node80&#45;&gt;Node75 -->
<g id="edge27" class="edge"><title>Node80&#45;&gt;Node75</title>
<path fill="none" stroke="midnightblue" d="M260.021,-185.164C317.748,-169.756 401.925,-146.356 415,-137.572 436.26,-123.289 430.172,-107.479 451,-92.572 453.052,-91.1031 455.204,-89.7153 457.426,-88.4051"/>
<polygon fill="midnightblue" stroke="midnightblue" points="459.073,-91.4933 466.281,-83.7286 455.804,-85.3034 459.073,-91.4933"/>
</g>
<!-- Node80&#45;&gt;Node76 -->
<g id="edge28" class="edge"><title>Node80&#45;&gt;Node76</title>
<path fill="none" stroke="midnightblue" d="M224.45,-184.521C242.587,-170.714 270.586,-149.98 296,-133.572 347.175,-100.53 362.561,-96.5685 415,-65.572 431.142,-56.0305 434.095,-51.6851 451,-43.572 454.735,-41.7797 458.64,-40.0428 462.607,-38.3779"/>
<polygon fill="midnightblue" stroke="midnightblue" points="463.95,-41.6102 471.922,-34.6316 461.338,-35.1158 463.95,-41.6102"/>
</g>
<!-- Node80&#45;&gt;Node79 -->
<g id="edge24" class="edge"><title>Node80&#45;&gt;Node79</title>
<path fill="none" stroke="midnightblue" d="M212.646,-184.376C226.33,-158.422 257.237,-105.113 296,-71.572 300.154,-67.9778 304.813,-64.6747 309.641,-61.6803"/>
<polygon fill="midnightblue" stroke="midnightblue" points="311.512,-64.6422 318.441,-56.6277 308.026,-58.5717 311.512,-64.6422"/>
</g>
<!-- Node81&#45;&gt;Node70 -->
<g id="edge34" class="edge"><title>Node81&#45;&gt;Node70</title>
<path fill="none" stroke="midnightblue" d="M259.177,-518.479C335.638,-527.191 477.926,-534.288 586,-486.572 617.453,-472.685 644.448,-442.906 660.688,-421.846"/>
<polygon fill="midnightblue" stroke="midnightblue" points="663.591,-423.808 666.771,-413.702 657.982,-419.619 663.591,-423.808"/>
</g>
</g>
</svg>
        <g id="navigator" transform="translate(0 0)" fill="#404254">
                <rect fill="#f2f5e9" fill-opacity="0.5" stroke="#606060" stroke-width=".5" x="0" y="0" width="60" height="60"/>
                <use id="zoomplus" xlink:href="#zoomPlus" x="17" y="9" onmousedown="handleZoom(evt,'in')"/>
                <use id="zoomminus" xlink:href="#zoomMin" x="42" y="9" onmousedown="handleZoom(evt,'out')"/>
                <use id="reset" xlink:href="#resetDef" x="30" y="36" onmousedown="handleReset()"/>
                <g id="arrowUp" xlink:href="#dirArrow" transform="translate(30 24)" onmousedown="handlePan(0,-1)">
                  <use xlink:href="#rim" fill="#404040">
                        <set attributeName="fill" to="#808080" begin="arrowUp.mouseover" end="arrowUp.mouseout"/>
                  </use>
                  <path fill="none" stroke="white" stroke-width="1.5" d="M0,-3.0v7 M-2.5,-0.5L0,-3.0L2.5,-0.5"/>
                </g>
                <g id="arrowRight" xlink:href="#dirArrow" transform="rotate(90) translate(36 -43)" onmousedown="handlePan(1,0)">
                  <use xlink:href="#rim" fill="#404040">
                        <set attributeName="fill" to="#808080" begin="arrowRight.mouseover" end="arrowRight.mouseout"/>
                  </use>
                  <path fill="none" stroke="white" stroke-width="1.5" d="M0,-3.0v7 M-2.5,-0.5L0,-3.0L2.5,-0.5"/>
                </g>
                <g id="arrowDown" xlink:href="#dirArrow" transform="rotate(180) translate(-30 -48)" onmousedown="handlePan(0,1)">
                  <use xlink:href="#rim" fill="#404040">
                        <set attributeName="fill" to="#808080" begin="arrowDown.mouseover" end="arrowDown.mouseout"/>
                  </use>
                  <path fill="none" stroke="white" stroke-width="1.5" d="M0,-3.0v7 M-2.5,-0.5L0,-3.0L2.5,-0.5"/>
                </g>
                <g id="arrowLeft" xlink:href="#dirArrow" transform="rotate(270) translate(-36 17)" onmousedown="handlePan(-1,0)">
                  <use xlink:href="#rim" fill="#404040">
                        <set attributeName="fill" to="#808080" begin="arrowLeft.mouseover" end="arrowLeft.mouseout"/>
                  </use>
                  <path fill="none" stroke="white" stroke-width="1.5" d="M0,-3.0v7 M-2.5,-0.5L0,-3.0L2.5,-0.5"/>
                </g>
        </g>
        <svg viewBox="0 0 15 15" width="100%" height="30px" preserveAspectRatio="xMaxYMin meet">
         <g id="arrow_out" transform="scale(0.3 0.3)">
          <a xlink:href="class_model_1_1map_processor_a7be8a27aaad96e187b4dba60fde5031a_cgraph_org.svg" target="_base">
           <rect id="button" ry="5" rx="5" y="6" x="6" height="38" width="38"
                fill="#f2f5e9" fill-opacity="0.5" stroke="#606060" stroke-width="1.0"/>
           <path id="arrow"
             d="M 11.500037,31.436501 C 11.940474,20.09759 22.043105,11.32322 32.158766,21.979434 L 37.068811,17.246167 C 37.068811,17.246167 37.088388,32 37.088388,32 L 22.160133,31.978069 C 22.160133,31.978069 26.997745,27.140456 26.997745,27.140456 C 18.528582,18.264221 13.291696,25.230495 11.500037,31.436501 z"
             style="fill:#404040;"/>
          </a>
         </g>
        </svg>
</svg>
