<?xml version="1.0" encoding="UTF-8" standalone="no"?>
<!DOCTYPE svg PUBLIC "-//W3C//DTD SVG 1.1//EN"
 "http://www.w3.org/Graphics/SVG/1.1/DTD/svg11.dtd">
<!-- Generated by graphviz version 2.38.0 (20140413.2041)
 -->
<!-- Title: View::ActionSceneNPC::setTarget Pages: 1 -->
<svg width="572pt" height="88pt"
 viewBox="0.00 0.00 572.00 88.00" xmlns="http://www.w3.org/2000/svg" xmlns:xlink="http://www.w3.org/1999/xlink">
<g id="graph0" class="graph" transform="scale(1 1) rotate(0) translate(4 84)">
<title>View::ActionSceneNPC::setTarget</title>
<polygon fill="white" stroke="none" points="-4,4 -4,-84 568,-84 568,4 -4,4"/>
<!-- Node101 -->
<g id="node1" class="node"><title>Node101</title>
<polygon fill="#bfbfbf" stroke="black" points="0,-24.5 0,-54.5 119,-54.5 119,-24.5 0,-24.5"/>
<text text-anchor="start" x="8" y="-42.5" font-family="Helvetica,sans-Serif" font-size="10.00">View::ActionSceneNPC</text>
<text text-anchor="middle" x="59.5" y="-31.5" font-family="Helvetica,sans-Serif" font-size="10.00">::setTarget</text>
</g>
<!-- Node102 -->
<g id="node2" class="node"><title>Node102</title>
<g id="a_node2"><a xlink:href="class_view_1_1_action_scene.html#a2406dfeb3e69091ae05e23ef396d08e3" target="_top" xlink:title="View::ActionScene::\lenemyAttacked">
<polygon fill="white" stroke="black" points="166,-49.5 166,-79.5 271,-79.5 271,-49.5 166,-49.5"/>
<text text-anchor="start" x="174" y="-67.5" font-family="Helvetica,sans-Serif" font-size="10.00">View::ActionScene::</text>
<text text-anchor="middle" x="218.5" y="-56.5" font-family="Helvetica,sans-Serif" font-size="10.00">enemyAttacked</text>
</a>
</g>
</g>
<!-- Node101&#45;&gt;Node102 -->
<g id="edge1" class="edge"><title>Node101&#45;&gt;Node102</title>
<path fill="none" stroke="midnightblue" d="M129.583,-50.5005C141.816,-52.4483 154.357,-54.4454 165.997,-56.2989"/>
<polygon fill="midnightblue" stroke="midnightblue" points="129.834,-46.9964 119.408,-48.8802 128.733,-53.9093 129.834,-46.9964"/>
</g>
<!-- Node105 -->
<g id="node5" class="node"><title>Node105</title>
<g id="a_node5"><a xlink:href="class_view_1_1_action_scene.html#a8ecad0a68a274799549da0adce49ea09" target="_top" xlink:title="View::ActionScene::\lupdateEnemyLineOfSight">
<polygon fill="white" stroke="black" points="155,-0.5 155,-30.5 282,-30.5 282,-0.5 155,-0.5"/>
<text text-anchor="start" x="163" y="-18.5" font-family="Helvetica,sans-Serif" font-size="10.00">View::ActionScene::</text>
<text text-anchor="middle" x="218.5" y="-7.5" font-family="Helvetica,sans-Serif" font-size="10.00">updateEnemyLineOfSight</text>
</a>
</g>
</g>
<!-- Node101&#45;&gt;Node105 -->
<g id="edge4" class="edge"><title>Node101&#45;&gt;Node105</title>
<path fill="none" stroke="midnightblue" d="M129.569,-28.9417C137.98,-27.6559 146.538,-26.3476 154.849,-25.0772"/>
<polygon fill="midnightblue" stroke="midnightblue" points="128.764,-25.524 119.408,-30.495 129.822,-32.4436 128.764,-25.524"/>
</g>
<!-- Node103 -->
<g id="node3" class="node"><title>Node103</title>
<g id="a_node3"><a xlink:href="class_view_1_1_action_scene.html#a2da7a8314a9d50cdccf82159f58e5097" target="_top" xlink:title="View::ActionScene::\lspawnEnemy">
<polygon fill="white" stroke="black" points="318,-24.5 318,-54.5 423,-54.5 423,-24.5 318,-24.5"/>
<text text-anchor="start" x="326" y="-42.5" font-family="Helvetica,sans-Serif" font-size="10.00">View::ActionScene::</text>
<text text-anchor="middle" x="370.5" y="-31.5" font-family="Helvetica,sans-Serif" font-size="10.00">spawnEnemy</text>
</a>
</g>
</g>
<!-- Node102&#45;&gt;Node103 -->
<g id="edge2" class="edge"><title>Node102&#45;&gt;Node103</title>
<path fill="none" stroke="midnightblue" d="M281.193,-54.2179C293.352,-52.1913 305.994,-50.0844 317.783,-48.1194"/>
<polygon fill="midnightblue" stroke="midnightblue" points="280.41,-50.8 271.121,-55.8964 281.561,-57.7047 280.41,-50.8"/>
</g>
<!-- Node104 -->
<g id="node4" class="node"><title>Node104</title>
<g id="a_node4"><a xlink:href="class_view_1_1_action_scene.html#af2fabc7baae61ac07ca1a0a5d46814cf" target="_top" xlink:title="View::ActionScene::\laddEnemies">
<polygon fill="white" stroke="black" points="459,-24.5 459,-54.5 564,-54.5 564,-24.5 459,-24.5"/>
<text text-anchor="start" x="467" y="-42.5" font-family="Helvetica,sans-Serif" font-size="10.00">View::ActionScene::</text>
<text text-anchor="middle" x="511.5" y="-31.5" font-family="Helvetica,sans-Serif" font-size="10.00">addEnemies</text>
</a>
</g>
</g>
<!-- Node103&#45;&gt;Node104 -->
<g id="edge3" class="edge"><title>Node103&#45;&gt;Node104</title>
<path fill="none" stroke="midnightblue" d="M433.441,-39.5C441.878,-39.5 450.466,-39.5 458.698,-39.5"/>
<polygon fill="midnightblue" stroke="midnightblue" points="433.259,-36.0001 423.258,-39.5 433.258,-43.0001 433.259,-36.0001"/>
</g>
<!-- Node105&#45;&gt;Node103 -->
<g id="edge5" class="edge"><title>Node105&#45;&gt;Node103</title>
<path fill="none" stroke="midnightblue" d="M292.342,-27.1547C300.982,-28.5371 309.66,-29.9257 317.918,-31.2469"/>
<polygon fill="midnightblue" stroke="midnightblue" points="292.672,-23.663 282.244,-25.5391 291.566,-30.5751 292.672,-23.663"/>
</g>
</g>
</svg>
