<?xml version="1.0" encoding="UTF-8" standalone="no"?>
<!DOCTYPE svg PUBLIC "-//W3C//DTD SVG 1.1//EN"
 "http://www.w3.org/Graphics/SVG/1.1/DTD/svg11.dtd">
<!-- Generated by graphviz version 2.38.0 (20140413.2041)
 -->
<!-- Title: View::ActionScene::checkBlockedDirection Pages: 1 -->
<svg width="420pt" height="39pt"
 viewBox="0.00 0.00 420.00 39.00" xmlns="http://www.w3.org/2000/svg" xmlns:xlink="http://www.w3.org/1999/xlink">
<g id="graph0" class="graph" transform="scale(1 1) rotate(0) translate(4 35)">
<title>View::ActionScene::checkBlockedDirection</title>
<polygon fill="white" stroke="none" points="-4,4 -4,-35 416,-35 416,4 -4,4"/>
<!-- Node86 -->
<g id="node1" class="node"><title>Node86</title>
<polygon fill="#bfbfbf" stroke="black" points="0,-0.5 0,-30.5 116,-30.5 116,-0.5 0,-0.5"/>
<text text-anchor="start" x="8" y="-18.5" font-family="Helvetica,sans-Serif" font-size="10.00">View::ActionScene::</text>
<text text-anchor="middle" x="58" y="-7.5" font-family="Helvetica,sans-Serif" font-size="10.00">checkBlockedDirection</text>
</g>
<!-- Node87 -->
<g id="node2" class="node"><title>Node87</title>
<g id="a_node2"><a xlink:href="class_view_1_1_action_scene.html#ade23dfff3a399dba0e13815023a7735a" target="_top" xlink:title="View::ActionScene::\lcheckWalkingIntoWalls">
<polygon fill="white" stroke="black" points="152,-0.5 152,-30.5 271,-30.5 271,-0.5 152,-0.5"/>
<text text-anchor="start" x="160" y="-18.5" font-family="Helvetica,sans-Serif" font-size="10.00">View::ActionScene::</text>
<text text-anchor="middle" x="211.5" y="-7.5" font-family="Helvetica,sans-Serif" font-size="10.00">checkWalkingIntoWalls</text>
</a>
</g>
</g>
<!-- Node86&#45;&gt;Node87 -->
<g id="edge1" class="edge"><title>Node86&#45;&gt;Node87</title>
<path fill="none" stroke="midnightblue" d="M126.503,-15.5C134.967,-15.5 143.571,-15.5 151.884,-15.5"/>
<polygon fill="midnightblue" stroke="midnightblue" points="126.276,-12.0001 116.276,-15.5 126.276,-19.0001 126.276,-12.0001"/>
</g>
<!-- Node88 -->
<g id="node3" class="node"><title>Node88</title>
<g id="a_node3"><a xlink:href="class_view_1_1_action_scene.html#ade415911403812f06b29a9e1933ea678" target="_top" xlink:title="View::ActionScene::\lActionScene">
<polygon fill="white" stroke="black" points="307,-0.5 307,-30.5 412,-30.5 412,-0.5 307,-0.5"/>
<text text-anchor="start" x="315" y="-18.5" font-family="Helvetica,sans-Serif" font-size="10.00">View::ActionScene::</text>
<text text-anchor="middle" x="359.5" y="-7.5" font-family="Helvetica,sans-Serif" font-size="10.00">ActionScene</text>
</a>
</g>
</g>
<!-- Node87&#45;&gt;Node88 -->
<g id="edge2" class="edge"><title>Node87&#45;&gt;Node88</title>
<path fill="none" stroke="midnightblue" d="M281.044,-15.5C289.62,-15.5 298.279,-15.5 306.544,-15.5"/>
<polygon fill="midnightblue" stroke="midnightblue" points="281.043,-12.0001 271.043,-15.5 281.043,-19.0001 281.043,-12.0001"/>
</g>
</g>
</svg>
