<?xml version="1.0" encoding="UTF-8" standalone="no"?>
<!DOCTYPE svg PUBLIC "-//W3C//DTD SVG 1.1//EN"
 "http://www.w3.org/Graphics/SVG/1.1/DTD/svg11.dtd">
<!-- Generated by graphviz version 2.38.0 (20140413.2041)
 -->
<!-- Title: View::ActionSceneNPC::moveToPoint Pages: 1 -->
<svg width="691pt" height="129pt"
 viewBox="0.00 0.00 691.00 129.00" xmlns="http://www.w3.org/2000/svg" xmlns:xlink="http://www.w3.org/1999/xlink">
<g id="graph0" class="graph" transform="scale(1 1) rotate(0) translate(4 125)">
<title>View::ActionSceneNPC::moveToPoint</title>
<polygon fill="white" stroke="none" points="-4,4 -4,-125 687,-125 687,4 -4,4"/>
<!-- Node63 -->
<g id="node1" class="node"><title>Node63</title>
<polygon fill="#bfbfbf" stroke="black" points="0,-44.5 0,-74.5 119,-74.5 119,-44.5 0,-44.5"/>
<text text-anchor="start" x="8" y="-62.5" font-family="Helvetica,sans-Serif" font-size="10.00">View::ActionSceneNPC</text>
<text text-anchor="middle" x="59.5" y="-51.5" font-family="Helvetica,sans-Serif" font-size="10.00">::moveToPoint</text>
</g>
<!-- Node64 -->
<g id="node2" class="node"><title>Node64</title>
<g id="a_node2"><a xlink:href="class_view_1_1_action_scene.html#a2406dfeb3e69091ae05e23ef396d08e3" target="_top" xlink:title="View::ActionScene::\lenemyAttacked">
<polygon fill="white" stroke="black" points="296,-90.5 296,-120.5 401,-120.5 401,-90.5 296,-90.5"/>
<text text-anchor="start" x="304" y="-108.5" font-family="Helvetica,sans-Serif" font-size="10.00">View::ActionScene::</text>
<text text-anchor="middle" x="348.5" y="-97.5" font-family="Helvetica,sans-Serif" font-size="10.00">enemyAttacked</text>
</a>
</g>
</g>
<!-- Node63&#45;&gt;Node64 -->
<g id="edge1" class="edge"><title>Node63&#45;&gt;Node64</title>
<path fill="none" stroke="midnightblue" d="M129.245,-70.5184C180.345,-78.7085 248.989,-89.7108 295.552,-97.1739"/>
<polygon fill="midnightblue" stroke="midnightblue" points="129.699,-67.0466 119.271,-68.9198 128.591,-73.9584 129.699,-67.0466"/>
</g>
<!-- Node67 -->
<g id="node5" class="node"><title>Node67</title>
<g id="a_node5"><a xlink:href="class_view_1_1_action_scene.html#a03d6bd779731feb9bc256844ec3fb0ae" target="_top" xlink:title="View::ActionScene::\lenemyPatrolled">
<polygon fill="white" stroke="black" points="296,-41.5 296,-71.5 401,-71.5 401,-41.5 296,-41.5"/>
<text text-anchor="start" x="304" y="-59.5" font-family="Helvetica,sans-Serif" font-size="10.00">View::ActionScene::</text>
<text text-anchor="middle" x="348.5" y="-48.5" font-family="Helvetica,sans-Serif" font-size="10.00">enemyPatrolled</text>
</a>
</g>
</g>
<!-- Node63&#45;&gt;Node67 -->
<g id="edge4" class="edge"><title>Node63&#45;&gt;Node67</title>
<path fill="none" stroke="midnightblue" d="M129.565,-58.7781C180.63,-58.2443 249.086,-57.5287 295.552,-57.043"/>
<polygon fill="midnightblue" stroke="midnightblue" points="129.234,-55.2812 119.271,-58.8857 129.307,-62.2809 129.234,-55.2812"/>
</g>
<!-- Node68 -->
<g id="node6" class="node"><title>Node68</title>
<g id="a_node6"><a xlink:href="class_view_1_1_action_scene.html#a4d0be71c24a8d12a73a86fb6d917cc51" target="_top" xlink:title="View::ActionScene::\lenemyWandered">
<polygon fill="white" stroke="black" points="155,-0.5 155,-30.5 260,-30.5 260,-0.5 155,-0.5"/>
<text text-anchor="start" x="163" y="-18.5" font-family="Helvetica,sans-Serif" font-size="10.00">View::ActionScene::</text>
<text text-anchor="middle" x="207.5" y="-7.5" font-family="Helvetica,sans-Serif" font-size="10.00">enemyWandered</text>
</a>
</g>
</g>
<!-- Node63&#45;&gt;Node68 -->
<g id="edge6" class="edge"><title>Node63&#45;&gt;Node68</title>
<path fill="none" stroke="midnightblue" d="M120.27,-41.4871C132.269,-37.8708 144.762,-34.1059 156.392,-30.6009"/>
<polygon fill="midnightblue" stroke="midnightblue" points="118.901,-38.2441 110.337,-44.4808 120.921,-44.9463 118.901,-38.2441"/>
</g>
<!-- Node65 -->
<g id="node3" class="node"><title>Node65</title>
<g id="a_node3"><a xlink:href="class_view_1_1_action_scene.html#a2da7a8314a9d50cdccf82159f58e5097" target="_top" xlink:title="View::ActionScene::\lspawnEnemy">
<polygon fill="white" stroke="black" points="437,-41.5 437,-71.5 542,-71.5 542,-41.5 437,-41.5"/>
<text text-anchor="start" x="445" y="-59.5" font-family="Helvetica,sans-Serif" font-size="10.00">View::ActionScene::</text>
<text text-anchor="middle" x="489.5" y="-48.5" font-family="Helvetica,sans-Serif" font-size="10.00">spawnEnemy</text>
</a>
</g>
</g>
<!-- Node64&#45;&gt;Node65 -->
<g id="edge2" class="edge"><title>Node64&#45;&gt;Node65</title>
<path fill="none" stroke="midnightblue" d="M402.08,-86.9645C416.435,-81.9041 431.815,-76.4823 445.563,-71.6359"/>
<polygon fill="midnightblue" stroke="midnightblue" points="400.606,-83.7729 392.339,-90.3986 402.934,-90.3747 400.606,-83.7729"/>
</g>
<!-- Node66 -->
<g id="node4" class="node"><title>Node66</title>
<g id="a_node4"><a xlink:href="class_view_1_1_action_scene.html#af2fabc7baae61ac07ca1a0a5d46814cf" target="_top" xlink:title="View::ActionScene::\laddEnemies">
<polygon fill="white" stroke="black" points="578,-41.5 578,-71.5 683,-71.5 683,-41.5 578,-41.5"/>
<text text-anchor="start" x="586" y="-59.5" font-family="Helvetica,sans-Serif" font-size="10.00">View::ActionScene::</text>
<text text-anchor="middle" x="630.5" y="-48.5" font-family="Helvetica,sans-Serif" font-size="10.00">addEnemies</text>
</a>
</g>
</g>
<!-- Node65&#45;&gt;Node66 -->
<g id="edge3" class="edge"><title>Node65&#45;&gt;Node66</title>
<path fill="none" stroke="midnightblue" d="M552.441,-56.5C560.878,-56.5 569.466,-56.5 577.698,-56.5"/>
<polygon fill="midnightblue" stroke="midnightblue" points="552.259,-53.0001 542.258,-56.5 552.258,-60.0001 552.259,-53.0001"/>
</g>
<!-- Node67&#45;&gt;Node65 -->
<g id="edge5" class="edge"><title>Node67&#45;&gt;Node65</title>
<path fill="none" stroke="midnightblue" d="M411.441,-56.5C419.878,-56.5 428.466,-56.5 436.698,-56.5"/>
<polygon fill="midnightblue" stroke="midnightblue" points="411.259,-53.0001 401.258,-56.5 411.258,-60.0001 411.259,-53.0001"/>
</g>
<!-- Node68&#45;&gt;Node65 -->
<g id="edge8" class="edge"><title>Node68&#45;&gt;Node65</title>
<path fill="none" stroke="midnightblue" d="M270.707,-17.5878C308.607,-19.6214 357.879,-23.6259 401,-31.5 414.521,-33.969 428.958,-37.6473 442.127,-41.4276"/>
<polygon fill="midnightblue" stroke="midnightblue" points="270.497,-14.0729 260.334,-17.0649 270.145,-21.064 270.497,-14.0729"/>
</g>
<!-- Node68&#45;&gt;Node67 -->
<g id="edge7" class="edge"><title>Node68&#45;&gt;Node67</title>
<path fill="none" stroke="midnightblue" d="M269.242,-33.4166C278.349,-36.103 287.661,-38.8496 296.537,-41.4677"/>
<polygon fill="midnightblue" stroke="midnightblue" points="270.051,-30.0063 259.469,-30.5341 268.07,-36.7203 270.051,-30.0063"/>
</g>
</g>
</svg>
