<?xml version="1.0" encoding="UTF-8" standalone="no"?>
<!DOCTYPE svg PUBLIC "-//W3C//DTD SVG 1.1//EN"
 "http://www.w3.org/Graphics/SVG/1.1/DTD/svg11.dtd">
<!-- Generated by graphviz version 2.38.0 (20140413.2041)
 -->
<!-- Title: View::HeadQuartersUI Pages: 1 -->
<svg width="973pt" height="435pt"
 viewBox="0.00 0.00 972.50 435.00" xmlns="http://www.w3.org/2000/svg" xmlns:xlink="http://www.w3.org/1999/xlink">
<g id="graph0" class="graph" transform="scale(1 1) rotate(0) translate(4 431)">
<title>View::HeadQuartersUI</title>
<polygon fill="white" stroke="none" points="-4,4 -4,-431 968.5,-431 968.5,4 -4,4"/>
<!-- Node2 -->
<g id="node1" class="node"><title>Node2</title>
<polygon fill="#bfbfbf" stroke="black" points="372,-0.5 372,-266.5 545,-266.5 545,-0.5 372,-0.5"/>
<text text-anchor="middle" x="458.5" y="-254.5" font-family="Helvetica,sans-Serif" font-size="10.00">View::HeadQuartersUI</text>
<polyline fill="none" stroke="black" points="372,-247.5 545,-247.5 "/>
<text text-anchor="middle" x="458.5" y="-235.5" font-family="Helvetica,sans-Serif" font-size="10.00"> </text>
<polyline fill="none" stroke="black" points="372,-228.5 545,-228.5 "/>
<text text-anchor="start" x="380" y="-216.5" font-family="Helvetica,sans-Serif" font-size="10.00">+ HeadQuartersUI()</text>
<text text-anchor="start" x="380" y="-205.5" font-family="Helvetica,sans-Serif" font-size="10.00">+ ~HeadQuartersUI()</text>
<text text-anchor="start" x="380" y="-194.5" font-family="Helvetica,sans-Serif" font-size="10.00">+ setEquipmentLists()</text>
<text text-anchor="start" x="380" y="-183.5" font-family="Helvetica,sans-Serif" font-size="10.00">+ setUIActorData()</text>
<text text-anchor="start" x="380" y="-172.5" font-family="Helvetica,sans-Serif" font-size="10.00">+ selectedActorChanged()</text>
<text text-anchor="start" x="380" y="-161.5" font-family="Helvetica,sans-Serif" font-size="10.00">+ changeSelectedWeaponItem()</text>
<text text-anchor="start" x="380" y="-150.5" font-family="Helvetica,sans-Serif" font-size="10.00">+ changeSelectedCyberItem()</text>
<text text-anchor="start" x="380" y="-139.5" font-family="Helvetica,sans-Serif" font-size="10.00">+ cyberListViewItemDoubleClicked()</text>
<text text-anchor="start" x="380" y="-128.5" font-family="Helvetica,sans-Serif" font-size="10.00">+ buyWeaponButtonPushed()</text>
<text text-anchor="start" x="380" y="-117.5" font-family="Helvetica,sans-Serif" font-size="10.00">+ sellWeaponButtonPushed()</text>
<text text-anchor="start" x="380" y="-106.5" font-family="Helvetica,sans-Serif" font-size="10.00">+ reloadWeaponButtonPushed()</text>
<text text-anchor="start" x="380" y="-95.5" font-family="Helvetica,sans-Serif" font-size="10.00">+ buyUpgradeButtonPushed()</text>
<text text-anchor="start" x="380" y="-84.5" font-family="Helvetica,sans-Serif" font-size="10.00">+ changeSelectedResearch()</text>
<text text-anchor="start" x="380" y="-73.5" font-family="Helvetica,sans-Serif" font-size="10.00">+ hireActorButtonPushed()</text>
<text text-anchor="start" x="380" y="-62.5" font-family="Helvetica,sans-Serif" font-size="10.00">+ retireActorButtonPushed()</text>
<text text-anchor="start" x="380" y="-51.5" font-family="Helvetica,sans-Serif" font-size="10.00">+ healActorButtonPushed()</text>
<text text-anchor="start" x="380" y="-40.5" font-family="Helvetica,sans-Serif" font-size="10.00">+ setResearchLevels()</text>
<text text-anchor="start" x="380" y="-29.5" font-family="Helvetica,sans-Serif" font-size="10.00">+ setResearchArea()</text>
<text text-anchor="start" x="380" y="-18.5" font-family="Helvetica,sans-Serif" font-size="10.00">&#45; initShopUI()</text>
<text text-anchor="start" x="380" y="-7.5" font-family="Helvetica,sans-Serif" font-size="10.00">&#45; connectShopUI()</text>
</g>
<!-- Node3 -->
<g id="node2" class="node"><title>Node3</title>
<g id="a_node2"><a xlink:href="class_q_widget.html" target="_top" xlink:title="{QWidget\n||}">
<polygon fill="white" stroke="black" points="0,-369.5 0,-426.5 55,-426.5 55,-369.5 0,-369.5"/>
<text text-anchor="middle" x="27.5" y="-414.5" font-family="Helvetica,sans-Serif" font-size="10.00">QWidget</text>
<polyline fill="none" stroke="black" points="0,-407.5 55,-407.5 "/>
<text text-anchor="middle" x="27.5" y="-395.5" font-family="Helvetica,sans-Serif" font-size="10.00"> </text>
<polyline fill="none" stroke="black" points="0,-388.5 55,-388.5 "/>
<text text-anchor="middle" x="27.5" y="-376.5" font-family="Helvetica,sans-Serif" font-size="10.00"> </text>
</a>
</g>
</g>
<!-- Node3&#45;&gt;Node2 -->
<g id="edge1" class="edge"><title>Node3&#45;&gt;Node2</title>
<path fill="none" stroke="midnightblue" d="M55.6861,-361.537C75.9931,-337.668 105.078,-306.71 135.5,-285 209.148,-232.444 304.065,-190.818 371.913,-164.787"/>
<polygon fill="none" stroke="midnightblue" points="52.8898,-359.424 49.1467,-369.336 58.2538,-363.922 52.8898,-359.424"/>
</g>
<!-- Node4 -->
<g id="node3" class="node"><title>Node4</title>
<polygon fill="white" stroke="#bfbfbf" points="73,-369.5 73,-426.5 198,-426.5 198,-369.5 73,-369.5"/>
<text text-anchor="middle" x="135.5" y="-414.5" font-family="Helvetica,sans-Serif" font-size="10.00">vector&lt; QPushButton * &gt;</text>
<polyline fill="none" stroke="#bfbfbf" points="73,-407.5 198,-407.5 "/>
<text text-anchor="middle" x="135.5" y="-395.5" font-family="Helvetica,sans-Serif" font-size="10.00"> </text>
<polyline fill="none" stroke="#bfbfbf" points="73,-388.5 198,-388.5 "/>
<text text-anchor="middle" x="135.5" y="-376.5" font-family="Helvetica,sans-Serif" font-size="10.00"> </text>
</g>
<!-- Node4&#45;&gt;Node2 -->
<g id="edge2" class="edge"><title>Node4&#45;&gt;Node2</title>
<path fill="none" stroke="#404040" d="M136.721,-369.317C139.13,-344.754 146.031,-309.124 165.5,-285 214.964,-223.707 296.014,-184.803 360.345,-161.939"/>
<polygon fill="none" stroke="#404040" points="360.402,-161.92 364.763,-156.177 371.742,-157.993 367.381,-163.736 360.402,-161.92"/>
<text text-anchor="middle" x="201.5" y="-326.5" font-family="Helvetica,sans-Serif" font-size="10.00"> &#45;reloadButtons_</text>
<text text-anchor="middle" x="201.5" y="-315.5" font-family="Helvetica,sans-Serif" font-size="10.00">&#45;buyButtons_</text>
<text text-anchor="middle" x="201.5" y="-304.5" font-family="Helvetica,sans-Serif" font-size="10.00">&#45;sellButtons_</text>
</g>
<!-- Node5 -->
<g id="node4" class="node"><title>Node5</title>
<polygon fill="white" stroke="#bfbfbf" points="216.5,-369.5 216.5,-426.5 266.5,-426.5 266.5,-369.5 216.5,-369.5"/>
<text text-anchor="middle" x="241.5" y="-414.5" font-family="Helvetica,sans-Serif" font-size="10.00">QString</text>
<polyline fill="none" stroke="#bfbfbf" points="216.5,-407.5 266.5,-407.5 "/>
<text text-anchor="middle" x="241.5" y="-395.5" font-family="Helvetica,sans-Serif" font-size="10.00"> </text>
<polyline fill="none" stroke="#bfbfbf" points="216.5,-388.5 266.5,-388.5 "/>
<text text-anchor="middle" x="241.5" y="-376.5" font-family="Helvetica,sans-Serif" font-size="10.00"> </text>
</g>
<!-- Node5&#45;&gt;Node2 -->
<g id="edge3" class="edge"><title>Node5&#45;&gt;Node2</title>
<path fill="none" stroke="#404040" d="M240.051,-369.274C240.057,-345.34 243.177,-310.669 258.5,-285 283.036,-243.898 323.487,-210.302 361.615,-185.363"/>
<polygon fill="none" stroke="#404040" points="361.651,-185.34 364.558,-178.74 371.767,-178.885 368.861,-185.485 361.651,-185.34"/>
<text text-anchor="start" x="258.5" y="-337.5" font-family="Helvetica,sans-Serif" font-size="10.00"> &#45;selectedWeaponItem</text>
<text text-anchor="middle" x="309.5" y="-326.5" font-family="Helvetica,sans-Serif" font-size="10.00">_</text>
<text text-anchor="start" x="258.5" y="-315.5" font-family="Helvetica,sans-Serif" font-size="10.00">&#45;selectedResearchArea</text>
<text text-anchor="middle" x="309.5" y="-304.5" font-family="Helvetica,sans-Serif" font-size="10.00">_</text>
<text text-anchor="middle" x="309.5" y="-293.5" font-family="Helvetica,sans-Serif" font-size="10.00">&#45;selectedUpgradeItem_</text>
</g>
<!-- Node6 -->
<g id="node5" class="node"><title>Node6</title>
<polygon fill="white" stroke="#bfbfbf" points="309.5,-369.5 309.5,-426.5 407.5,-426.5 407.5,-369.5 309.5,-369.5"/>
<text text-anchor="middle" x="358.5" y="-414.5" font-family="Helvetica,sans-Serif" font-size="10.00">vector&lt; QLabel * &gt;</text>
<polyline fill="none" stroke="#bfbfbf" points="309.5,-407.5 407.5,-407.5 "/>
<text text-anchor="middle" x="358.5" y="-395.5" font-family="Helvetica,sans-Serif" font-size="10.00"> </text>
<polyline fill="none" stroke="#bfbfbf" points="309.5,-388.5 407.5,-388.5 "/>
<text text-anchor="middle" x="358.5" y="-376.5" font-family="Helvetica,sans-Serif" font-size="10.00"> </text>
</g>
<!-- Node6&#45;&gt;Node2 -->
<g id="edge4" class="edge"><title>Node6&#45;&gt;Node2</title>
<path fill="none" stroke="#404040" d="M361.369,-369.251C364.3,-346.218 369.827,-312.845 379.5,-285 380.281,-282.753 381.091,-280.497 381.927,-278.237"/>
<polygon fill="none" stroke="#404040" points="381.982,-278.096 380.421,-271.056 386.319,-266.907 387.88,-273.948 381.982,-278.096"/>
<text text-anchor="middle" x="417" y="-315.5" font-family="Helvetica,sans-Serif" font-size="10.00"> &#45;upgradeLabels_</text>
</g>
<!-- Node7 -->
<g id="node6" class="node"><title>Node7</title>
<polygon fill="white" stroke="#bfbfbf" points="426,-369.5 426,-426.5 497,-426.5 497,-369.5 426,-369.5"/>
<text text-anchor="middle" x="461.5" y="-414.5" font-family="Helvetica,sans-Serif" font-size="10.00">vector&lt; int &gt;</text>
<polyline fill="none" stroke="#bfbfbf" points="426,-407.5 497,-407.5 "/>
<text text-anchor="middle" x="461.5" y="-395.5" font-family="Helvetica,sans-Serif" font-size="10.00"> </text>
<polyline fill="none" stroke="#bfbfbf" points="426,-388.5 497,-388.5 "/>
<text text-anchor="middle" x="461.5" y="-376.5" font-family="Helvetica,sans-Serif" font-size="10.00"> </text>
</g>
<!-- Node7&#45;&gt;Node2 -->
<g id="edge5" class="edge"><title>Node7&#45;&gt;Node2</title>
<path fill="none" stroke="#404040" d="M460.12,-369.276C459.869,-363.252 459.642,-356.914 459.5,-351 458.94,-327.695 458.592,-302.974 458.387,-278.892"/>
<polygon fill="none" stroke="#404040" points="458.386,-278.75 454.341,-272.781 458.295,-266.751 462.341,-272.72 458.386,-278.75"/>
<text text-anchor="middle" x="512" y="-315.5" font-family="Helvetica,sans-Serif" font-size="10.00"> &#45;currentUpgradeLevels_</text>
</g>
<!-- Node8 -->
<g id="node7" class="node"><title>Node8</title>
<polygon fill="white" stroke="#bfbfbf" points="540,-369.5 540,-426.5 633,-426.5 633,-369.5 540,-369.5"/>
<text text-anchor="middle" x="586.5" y="-414.5" font-family="Helvetica,sans-Serif" font-size="10.00">vector&lt; QString &gt;</text>
<polyline fill="none" stroke="#bfbfbf" points="540,-407.5 633,-407.5 "/>
<text text-anchor="middle" x="586.5" y="-395.5" font-family="Helvetica,sans-Serif" font-size="10.00"> </text>
<polyline fill="none" stroke="#bfbfbf" points="540,-388.5 633,-388.5 "/>
<text text-anchor="middle" x="586.5" y="-376.5" font-family="Helvetica,sans-Serif" font-size="10.00"> </text>
</g>
<!-- Node8&#45;&gt;Node2 -->
<g id="edge6" class="edge"><title>Node8&#45;&gt;Node2</title>
<path fill="none" stroke="#404040" d="M584.315,-369.354C581.725,-346.088 576.179,-312.334 564.5,-285 560.574,-275.811 556.026,-266.623 551.066,-257.57"/>
<polygon fill="none" stroke="#404040" points="550.997,-257.448 544.554,-254.208 545.068,-247.015 551.51,-250.255 550.997,-257.448"/>
<text text-anchor="middle" x="624" y="-315.5" font-family="Helvetica,sans-Serif" font-size="10.00"> &#45;currentUpgrades_</text>
</g>
<!-- Node9 -->
<g id="node8" class="node"><title>Node9</title>
<polygon fill="white" stroke="#bfbfbf" points="678,-369.5 678,-426.5 707,-426.5 707,-369.5 678,-369.5"/>
<text text-anchor="middle" x="692.5" y="-414.5" font-family="Helvetica,sans-Serif" font-size="10.00">int</text>
<polyline fill="none" stroke="#bfbfbf" points="678,-407.5 707,-407.5 "/>
<text text-anchor="middle" x="692.5" y="-395.5" font-family="Helvetica,sans-Serif" font-size="10.00"> </text>
<polyline fill="none" stroke="#bfbfbf" points="678,-388.5 707,-388.5 "/>
<text text-anchor="middle" x="692.5" y="-376.5" font-family="Helvetica,sans-Serif" font-size="10.00"> </text>
</g>
<!-- Node9&#45;&gt;Node2 -->
<g id="edge7" class="edge"><title>Node9&#45;&gt;Node2</title>
<path fill="none" stroke="#404040" d="M692.344,-369.087C690.979,-345.032 685.956,-310.289 669.5,-285 641.56,-242.062 596.738,-207.549 555.577,-182.46"/>
<polygon fill="none" stroke="#404040" points="555.515,-182.423 548.313,-182.791 545.204,-176.285 552.405,-175.917 555.515,-182.423"/>
<text text-anchor="start" x="690.5" y="-343" font-family="Helvetica,sans-Serif" font-size="10.00"> &#45;upgradeResearchLevel</text>
<text text-anchor="middle" x="742.5" y="-332" font-family="Helvetica,sans-Serif" font-size="10.00">_</text>
<text text-anchor="start" x="690.5" y="-321" font-family="Helvetica,sans-Serif" font-size="10.00">&#45;weaponResearchLevel</text>
<text text-anchor="middle" x="742.5" y="-310" font-family="Helvetica,sans-Serif" font-size="10.00">_</text>
<text text-anchor="middle" x="742.5" y="-299" font-family="Helvetica,sans-Serif" font-size="10.00">&#45;expenses_</text>
<text text-anchor="middle" x="742.5" y="-288" font-family="Helvetica,sans-Serif" font-size="10.00">&#45;money_</text>
</g>
<!-- Node10 -->
<g id="node9" class="node"><title>Node10</title>
<polygon fill="white" stroke="#bfbfbf" points="802,-369.5 802,-426.5 837,-426.5 837,-369.5 802,-369.5"/>
<text text-anchor="middle" x="819.5" y="-414.5" font-family="Helvetica,sans-Serif" font-size="10.00">bool</text>
<polyline fill="none" stroke="#bfbfbf" points="802,-407.5 837,-407.5 "/>
<text text-anchor="middle" x="819.5" y="-395.5" font-family="Helvetica,sans-Serif" font-size="10.00"> </text>
<polyline fill="none" stroke="#bfbfbf" points="802,-388.5 837,-388.5 "/>
<text text-anchor="middle" x="819.5" y="-376.5" font-family="Helvetica,sans-Serif" font-size="10.00"> </text>
</g>
<!-- Node10&#45;&gt;Node2 -->
<g id="edge8" class="edge"><title>Node10&#45;&gt;Node2</title>
<path fill="none" stroke="#404040" d="M820.87,-369.188C820.628,-344.539 816.533,-308.854 797.5,-285 738.097,-210.553 634.174,-171.893 557.005,-152.518"/>
<polygon fill="none" stroke="#404040" points="557.002,-152.518 550.227,-154.988 545.341,-149.685 552.116,-147.214 557.002,-152.518"/>
<text text-anchor="middle" x="858.5" y="-321" font-family="Helvetica,sans-Serif" font-size="10.00"> &#45;equipmentSet_</text>
<text text-anchor="middle" x="858.5" y="-310" font-family="Helvetica,sans-Serif" font-size="10.00">&#45;selectedIsDead_</text>
</g>
<!-- Node11 -->
<g id="node10" class="node"><title>Node11</title>
<polygon fill="white" stroke="#bfbfbf" points="872.5,-369.5 872.5,-426.5 964.5,-426.5 964.5,-369.5 872.5,-369.5"/>
<text text-anchor="middle" x="918.5" y="-414.5" font-family="Helvetica,sans-Serif" font-size="10.00">HeadQuartersUI *</text>
<polyline fill="none" stroke="#bfbfbf" points="872.5,-407.5 964.5,-407.5 "/>
<text text-anchor="middle" x="918.5" y="-395.5" font-family="Helvetica,sans-Serif" font-size="10.00"> </text>
<polyline fill="none" stroke="#bfbfbf" points="872.5,-388.5 964.5,-388.5 "/>
<text text-anchor="middle" x="918.5" y="-376.5" font-family="Helvetica,sans-Serif" font-size="10.00"> </text>
</g>
<!-- Node11&#45;&gt;Node2 -->
<g id="edge9" class="edge"><title>Node11&#45;&gt;Node2</title>
<path fill="none" stroke="#404040" d="M920.353,-369.268C920.489,-344.329 916.681,-308.154 896.5,-285 810.832,-186.71 657.953,-152.554 557.383,-140.72"/>
<polygon fill="none" stroke="#404040" points="557.312,-140.713 550.906,-144.024 545.385,-139.385 551.791,-136.073 557.312,-140.713"/>
<text text-anchor="middle" x="926.5" y="-315.5" font-family="Helvetica,sans-Serif" font-size="10.00"> &#45;ui</text>
</g>
</g>
</svg>
