<?xml version="1.0" encoding="UTF-8" standalone="no"?>
<!DOCTYPE svg PUBLIC "-//W3C//DTD SVG 1.1//EN"
 "http://www.w3.org/Graphics/SVG/1.1/DTD/svg11.dtd">
<!-- Generated by graphviz version 2.38.0 (20140413.2041)
 -->
<!-- Title: View::CityScapeStatusDisplay Pages: 1 -->
<svg width="157pt" height="237pt"
 viewBox="0.00 0.00 157.00 237.00" xmlns="http://www.w3.org/2000/svg" xmlns:xlink="http://www.w3.org/1999/xlink">
<g id="graph0" class="graph" transform="scale(1 1) rotate(0) translate(4 233)">
<title>View::CityScapeStatusDisplay</title>
<polygon fill="white" stroke="none" points="-4,4 -4,-233 153,-233 153,4 -4,4"/>
<!-- Node0 -->
<g id="node1" class="node"><title>Node0</title>
<polygon fill="#bfbfbf" stroke="black" points="0,-0.5 0,-134.5 149,-134.5 149,-0.5 0,-0.5"/>
<text text-anchor="middle" x="74.5" y="-122.5" font-family="Helvetica,sans-Serif" font-size="10.00">View::CityScapeStatusDisplay</text>
<polyline fill="none" stroke="black" points="0,-115.5 149,-115.5 "/>
<text text-anchor="start" x="8" y="-103.5" font-family="Helvetica,sans-Serif" font-size="10.00">&#45; ui</text>
<polyline fill="none" stroke="black" points="0,-96.5 149,-96.5 "/>
<text text-anchor="start" x="8" y="-84.5" font-family="Helvetica,sans-Serif" font-size="10.00">+ CityScapeStatusDisplay()</text>
<text text-anchor="start" x="8" y="-73.5" font-family="Helvetica,sans-Serif" font-size="10.00">+ ~CityScapeStatusDisplay()</text>
<text text-anchor="start" x="8" y="-62.5" font-family="Helvetica,sans-Serif" font-size="10.00">+ setFieldValues()</text>
<text text-anchor="start" x="8" y="-51.5" font-family="Helvetica,sans-Serif" font-size="10.00">+ getName()</text>
<text text-anchor="start" x="8" y="-40.5" font-family="Helvetica,sans-Serif" font-size="10.00">+ getParkedCars()</text>
<text text-anchor="start" x="8" y="-29.5" font-family="Helvetica,sans-Serif" font-size="10.00">+ getParkingSpaces()</text>
<text text-anchor="start" x="8" y="-18.5" font-family="Helvetica,sans-Serif" font-size="10.00">+ getEnemyActivity()</text>
<text text-anchor="start" x="8" y="-7.5" font-family="Helvetica,sans-Serif" font-size="10.00">+ getWorth()</text>
</g>
<!-- Node1 -->
<g id="node2" class="node"><title>Node1</title>
<g id="a_node2"><a xlink:href="class_q_widget.html" target="_top" xlink:title="{QWidget\n||}">
<polygon fill="white" stroke="black" points="47,-171.5 47,-228.5 102,-228.5 102,-171.5 47,-171.5"/>
<text text-anchor="middle" x="74.5" y="-216.5" font-family="Helvetica,sans-Serif" font-size="10.00">QWidget</text>
<polyline fill="none" stroke="black" points="47,-209.5 102,-209.5 "/>
<text text-anchor="middle" x="74.5" y="-197.5" font-family="Helvetica,sans-Serif" font-size="10.00"> </text>
<polyline fill="none" stroke="black" points="47,-190.5 102,-190.5 "/>
<text text-anchor="middle" x="74.5" y="-178.5" font-family="Helvetica,sans-Serif" font-size="10.00"> </text>
</a>
</g>
</g>
<!-- Node1&#45;&gt;Node0 -->
<g id="edge1" class="edge"><title>Node1&#45;&gt;Node0</title>
<path fill="none" stroke="midnightblue" d="M74.5,-161.16C74.5,-152.782 74.5,-143.668 74.5,-134.533"/>
<polygon fill="none" stroke="midnightblue" points="71.0001,-161.324 74.5,-171.324 78.0001,-161.324 71.0001,-161.324"/>
</g>
</g>
</svg>
