<?xml version="1.0" encoding="UTF-8" standalone="no"?>
<!DOCTYPE svg PUBLIC "-//W3C//DTD SVG 1.1//EN"
 "http://www.w3.org/Graphics/SVG/1.1/DTD/svg11.dtd">
<!-- Generated by graphviz version 2.38.0 (20140413.2041)
 -->
<!-- Title: Model::Player::addMoney Pages: 1 -->
<svg width="303pt" height="88pt"
 viewBox="0.00 0.00 303.00 88.00" xmlns="http://www.w3.org/2000/svg" xmlns:xlink="http://www.w3.org/1999/xlink">
<g id="graph0" class="graph" transform="scale(1 1) rotate(0) translate(4 84)">
<title>Model::Player::addMoney</title>
<polygon fill="white" stroke="none" points="-4,4 -4,-84 299,-84 299,4 -4,4"/>
<!-- Node3 -->
<g id="node1" class="node"><title>Node3</title>
<polygon fill="#bfbfbf" stroke="black" points="0,-30 0,-49 128,-49 128,-30 0,-30"/>
<text text-anchor="middle" x="64" y="-37" font-family="Helvetica,sans-Serif" font-size="10.00">Model::Player::addMoney</text>
</g>
<!-- Node4 -->
<g id="node2" class="node"><title>Node4</title>
<g id="a_node2"><a xlink:href="class_model_1_1_player_party.html#a3420e23de306e8c866eda901cacb3e31" target="_top" xlink:title="Model::PlayerParty\l::addMoney">
<polygon fill="white" stroke="black" points="179.5,-49.5 179.5,-79.5 279.5,-79.5 279.5,-49.5 179.5,-49.5"/>
<text text-anchor="start" x="187.5" y="-67.5" font-family="Helvetica,sans-Serif" font-size="10.00">Model::PlayerParty</text>
<text text-anchor="middle" x="229.5" y="-56.5" font-family="Helvetica,sans-Serif" font-size="10.00">::addMoney</text>
</a>
</g>
</g>
<!-- Node3&#45;&gt;Node4 -->
<g id="edge1" class="edge"><title>Node3&#45;&gt;Node4</title>
<path fill="none" stroke="midnightblue" d="M137.494,-50.5847C151.648,-52.7489 166.177,-54.9704 179.354,-56.9853"/>
<polygon fill="midnightblue" stroke="midnightblue" points="137.693,-47.0745 127.279,-49.0227 136.635,-53.9941 137.693,-47.0745"/>
</g>
<!-- Node5 -->
<g id="node3" class="node"><title>Node5</title>
<g id="a_node3"><a xlink:href="class_model_1_1_player_party.html#a317b7002272f0c4de24cce7afd04e2bb" target="_top" xlink:title="Model::PlayerParty\l::setParkingHallOwnership">
<polygon fill="white" stroke="black" points="164,-0.5 164,-30.5 295,-30.5 295,-0.5 164,-0.5"/>
<text text-anchor="start" x="172" y="-18.5" font-family="Helvetica,sans-Serif" font-size="10.00">Model::PlayerParty</text>
<text text-anchor="middle" x="229.5" y="-7.5" font-family="Helvetica,sans-Serif" font-size="10.00">::setParkingHallOwnership</text>
</a>
</g>
</g>
<!-- Node3&#45;&gt;Node5 -->
<g id="edge2" class="edge"><title>Node3&#45;&gt;Node5</title>
<path fill="none" stroke="midnightblue" d="M138.174,-28.7589C146.727,-27.5033 155.408,-26.2291 163.835,-24.9922"/>
<polygon fill="midnightblue" stroke="midnightblue" points="137.599,-25.3057 128.213,-30.221 138.616,-32.2315 137.599,-25.3057"/>
</g>
</g>
</svg>
