<?xml version="1.0" encoding="UTF-8" standalone="no"?>
<!DOCTYPE svg PUBLIC "-//W3C//DTD SVG 1.1//EN"
 "http://www.w3.org/Graphics/SVG/1.1/DTD/svg11.dtd">
<!-- Generated by graphviz version 2.38.0 (20140413.2041)
 -->
<!-- Title: View::CityScapeParkingHall::mousePressEvent Pages: 1 -->
<svg width="331pt" height="235pt"
 viewBox="0.00 0.00 331.00 235.00" xmlns="http://www.w3.org/2000/svg" xmlns:xlink="http://www.w3.org/1999/xlink">
<g id="graph0" class="graph" transform="scale(1 1) rotate(0) translate(4 231)">
<title>View::CityScapeParkingHall::mousePressEvent</title>
<polygon fill="white" stroke="none" points="-4,4 -4,-231 327,-231 327,4 -4,4"/>
<!-- Node28 -->
<g id="node1" class="node"><title>Node28</title>
<polygon fill="#bfbfbf" stroke="black" points="0,-98.5 0,-128.5 138,-128.5 138,-98.5 0,-98.5"/>
<text text-anchor="start" x="8" y="-116.5" font-family="Helvetica,sans-Serif" font-size="10.00">View::CityScapeParkingHall</text>
<text text-anchor="middle" x="69" y="-105.5" font-family="Helvetica,sans-Serif" font-size="10.00">::mousePressEvent</text>
</g>
<!-- Node29 -->
<g id="node2" class="node"><title>Node29</title>
<g id="a_node2"><a xlink:href="class_view_1_1_city_scape_status_display.html#a7c4b61a061562d9f0b2364c95cc55609" target="_top" xlink:title="View::CityScapeStatusDisplay\l::getEnemyActivity">
<polygon fill="white" stroke="black" points="174,-196.5 174,-226.5 323,-226.5 323,-196.5 174,-196.5"/>
<text text-anchor="start" x="182" y="-214.5" font-family="Helvetica,sans-Serif" font-size="10.00">View::CityScapeStatusDisplay</text>
<text text-anchor="middle" x="248.5" y="-203.5" font-family="Helvetica,sans-Serif" font-size="10.00">::getEnemyActivity</text>
</a>
</g>
</g>
<!-- Node28&#45;&gt;Node29 -->
<g id="edge1" class="edge"><title>Node28&#45;&gt;Node29</title>
<path fill="none" stroke="midnightblue" d="M87.7051,-128.664C107.586,-145.055 141.352,-171.038 174,-187.5 177.708,-189.37 181.594,-191.138 185.559,-192.802"/>
<polygon fill="midnightblue" stroke="midnightblue" points="184.325,-196.078 194.912,-196.495 186.896,-189.567 184.325,-196.078"/>
</g>
<!-- Node30 -->
<g id="node3" class="node"><title>Node30</title>
<g id="a_node3"><a xlink:href="class_view_1_1_city_scape_status_display.html#ae6e22300979f1bb7517db2c72d338b77" target="_top" xlink:title="View::CityScapeStatusDisplay\l::getName">
<polygon fill="white" stroke="black" points="174,-147.5 174,-177.5 323,-177.5 323,-147.5 174,-147.5"/>
<text text-anchor="start" x="182" y="-165.5" font-family="Helvetica,sans-Serif" font-size="10.00">View::CityScapeStatusDisplay</text>
<text text-anchor="middle" x="248.5" y="-154.5" font-family="Helvetica,sans-Serif" font-size="10.00">::getName</text>
</a>
</g>
</g>
<!-- Node28&#45;&gt;Node30 -->
<g id="edge2" class="edge"><title>Node28&#45;&gt;Node30</title>
<path fill="none" stroke="midnightblue" d="M124.704,-128.601C143.18,-133.702 163.977,-139.443 183.131,-144.73"/>
<polygon fill="midnightblue" stroke="midnightblue" points="182.406,-148.161 192.976,-147.448 184.268,-141.414 182.406,-148.161"/>
</g>
<!-- Node31 -->
<g id="node4" class="node"><title>Node31</title>
<g id="a_node4"><a xlink:href="class_view_1_1_city_scape_status_display.html#a0a2b02d8b7d878ba822822f4d71f40d6" target="_top" xlink:title="View::CityScapeStatusDisplay\l::getParkedCars">
<polygon fill="white" stroke="black" points="174,-98.5 174,-128.5 323,-128.5 323,-98.5 174,-98.5"/>
<text text-anchor="start" x="182" y="-116.5" font-family="Helvetica,sans-Serif" font-size="10.00">View::CityScapeStatusDisplay</text>
<text text-anchor="middle" x="248.5" y="-105.5" font-family="Helvetica,sans-Serif" font-size="10.00">::getParkedCars</text>
</a>
</g>
</g>
<!-- Node28&#45;&gt;Node31 -->
<g id="edge3" class="edge"><title>Node28&#45;&gt;Node31</title>
<path fill="none" stroke="midnightblue" d="M138.118,-113.5C146.551,-113.5 155.246,-113.5 163.877,-113.5"/>
<polygon fill="midnightblue" stroke="midnightblue" points="163.959,-117 173.959,-113.5 163.958,-110 163.959,-117"/>
</g>
<!-- Node32 -->
<g id="node5" class="node"><title>Node32</title>
<g id="a_node5"><a xlink:href="class_view_1_1_city_scape_status_display.html#ad8a0b28cc0ebb4c212c0fb3c9c8a3a9c" target="_top" xlink:title="View::CityScapeStatusDisplay\l::getParkingSpaces">
<polygon fill="white" stroke="black" points="174,-49.5 174,-79.5 323,-79.5 323,-49.5 174,-49.5"/>
<text text-anchor="start" x="182" y="-67.5" font-family="Helvetica,sans-Serif" font-size="10.00">View::CityScapeStatusDisplay</text>
<text text-anchor="middle" x="248.5" y="-56.5" font-family="Helvetica,sans-Serif" font-size="10.00">::getParkingSpaces</text>
</a>
</g>
</g>
<!-- Node28&#45;&gt;Node32 -->
<g id="edge4" class="edge"><title>Node28&#45;&gt;Node32</title>
<path fill="none" stroke="midnightblue" d="M124.704,-98.3986C143.18,-93.2981 163.977,-87.5571 183.131,-82.2695"/>
<polygon fill="midnightblue" stroke="midnightblue" points="184.268,-85.5865 192.976,-79.5516 182.406,-78.8389 184.268,-85.5865"/>
</g>
<!-- Node33 -->
<g id="node6" class="node"><title>Node33</title>
<g id="a_node6"><a xlink:href="class_view_1_1_city_scape_status_display.html#afaae08f29892d84518b12124292e14ab" target="_top" xlink:title="View::CityScapeStatusDisplay\l::getWorth">
<polygon fill="white" stroke="black" points="174,-0.5 174,-30.5 323,-30.5 323,-0.5 174,-0.5"/>
<text text-anchor="start" x="182" y="-18.5" font-family="Helvetica,sans-Serif" font-size="10.00">View::CityScapeStatusDisplay</text>
<text text-anchor="middle" x="248.5" y="-7.5" font-family="Helvetica,sans-Serif" font-size="10.00">::getWorth</text>
</a>
</g>
</g>
<!-- Node28&#45;&gt;Node33 -->
<g id="edge5" class="edge"><title>Node28&#45;&gt;Node33</title>
<path fill="none" stroke="midnightblue" d="M88.1434,-98.3398C108.134,-82.2341 141.744,-56.8824 174,-40.5 178.281,-38.3257 182.794,-36.2723 187.392,-34.3485"/>
<polygon fill="midnightblue" stroke="midnightblue" points="188.89,-37.5195 196.9,-30.584 186.313,-31.011 188.89,-37.5195"/>
</g>
</g>
</svg>
