<?xml version="1.0" encoding="UTF-8" standalone="no"?>
<!DOCTYPE svg PUBLIC "-//W3C//DTD SVG 1.1//EN"
 "http://www.w3.org/Graphics/SVG/1.1/DTD/svg11.dtd">
<!-- Generated by graphviz version 2.38.0 (20140413.2041)
 -->
<!-- Title: Model::mapProcessor Pages: 1 -->
<svg width="771pt" height="1290pt"
 viewBox="0.00 0.00 771.00 1290.00" xmlns="http://www.w3.org/2000/svg" xmlns:xlink="http://www.w3.org/1999/xlink">
<g id="graph0" class="graph" transform="scale(1 1) rotate(0) translate(4 1286)">
<title>Model::mapProcessor</title>
<polygon fill="white" stroke="none" points="-4,4 -4,-1286 767,-1286 767,4 -4,4"/>
<!-- Node1 -->
<g id="node1" class="node"><title>Node1</title>
<polygon fill="#bfbfbf" stroke="black" points="111.5,-678.5 111.5,-878.5 236.5,-878.5 236.5,-678.5 111.5,-678.5"/>
<text text-anchor="middle" x="174" y="-866.5" font-family="Helvetica,sans-Serif" font-size="10.00">Model::mapProcessor</text>
<polyline fill="none" stroke="black" points="111.5,-859.5 236.5,-859.5 "/>
<text text-anchor="middle" x="174" y="-847.5" font-family="Helvetica,sans-Serif" font-size="10.00"> </text>
<polyline fill="none" stroke="black" points="111.5,-840.5 236.5,-840.5 "/>
<text text-anchor="start" x="119.5" y="-828.5" font-family="Helvetica,sans-Serif" font-size="10.00">+ mapProcessor()</text>
<text text-anchor="start" x="119.5" y="-817.5" font-family="Helvetica,sans-Serif" font-size="10.00">+ placeEnemies()</text>
<text text-anchor="start" x="119.5" y="-806.5" font-family="Helvetica,sans-Serif" font-size="10.00">+ getEnemies()</text>
<text text-anchor="start" x="119.5" y="-795.5" font-family="Helvetica,sans-Serif" font-size="10.00">&#45; getDistanceMap()</text>
<text text-anchor="start" x="119.5" y="-784.5" font-family="Helvetica,sans-Serif" font-size="10.00">&#45; getMedialMap()</text>
<text text-anchor="start" x="119.5" y="-773.5" font-family="Helvetica,sans-Serif" font-size="10.00">&#45; calculateDistanceMap()</text>
<text text-anchor="start" x="119.5" y="-762.5" font-family="Helvetica,sans-Serif" font-size="10.00">&#45; getTile()</text>
<text text-anchor="start" x="119.5" y="-751.5" font-family="Helvetica,sans-Serif" font-size="10.00">&#45; getTile()</text>
<text text-anchor="start" x="119.5" y="-740.5" font-family="Helvetica,sans-Serif" font-size="10.00">&#45; setTileDistance()</text>
<text text-anchor="start" x="119.5" y="-729.5" font-family="Helvetica,sans-Serif" font-size="10.00">&#45; getTileDistance()</text>
<text text-anchor="start" x="119.5" y="-718.5" font-family="Helvetica,sans-Serif" font-size="10.00">&#45; getTileClosest()</text>
<text text-anchor="start" x="119.5" y="-707.5" font-family="Helvetica,sans-Serif" font-size="10.00">&#45; getTileClosest()</text>
<text text-anchor="start" x="119.5" y="-696.5" font-family="Helvetica,sans-Serif" font-size="10.00">&#45; setTileClosest()</text>
<text text-anchor="start" x="119.5" y="-685.5" font-family="Helvetica,sans-Serif" font-size="10.00">&#45; getDistance()</text>
</g>
<!-- Node4 -->
<g id="node4" class="node"><title>Node4</title>
<polygon fill="white" stroke="#bfbfbf" points="116,-524 116,-592 232,-592 232,-524 116,-524"/>
<text text-anchor="start" x="124" y="-580" font-family="Helvetica,sans-Serif" font-size="10.00">std::unique_ptr&lt; Model</text>
<text text-anchor="middle" x="174" y="-569" font-family="Helvetica,sans-Serif" font-size="10.00">::mapProcessor &gt;</text>
<polyline fill="none" stroke="#bfbfbf" points="116,-562 232,-562 "/>
<text text-anchor="middle" x="174" y="-550" font-family="Helvetica,sans-Serif" font-size="10.00"> </text>
<polyline fill="none" stroke="#bfbfbf" points="116,-543 232,-543 "/>
<text text-anchor="start" x="124" y="-531" font-family="Helvetica,sans-Serif" font-size="10.00">+ operator&#45;&gt;()</text>
</g>
<!-- Node1&#45;&gt;Node4 -->
<g id="edge4" class="edge"><title>Node1&#45;&gt;Node4</title>
<path fill="none" stroke="#404040" d="M174,-678.479C174,-652.522 174,-625.788 174,-604.207"/>
<polygon fill="none" stroke="#404040" points="174,-604.141 170,-598.141 174,-592.141 178,-598.141 174,-604.141"/>
<text text-anchor="middle" x="184.5" y="-652" font-family="Helvetica,sans-Serif" font-size="10.00"> +ptr</text>
</g>
<!-- Node2 -->
<g id="node2" class="node"><title>Node2</title>
<g id="a_node2"><a xlink:href="class_model_1_1map_generator.html" target="_top" xlink:title="{Model::mapGenerator\n||+ mapGenerator()\l+ getTile()\l+ getHeight()\l+ getWidth()\l+ getStartX()\l+ getStartY()\l+ generateHall()\l+ getLayout()\l&#45; getMedialMap()\l&#45; getDistanceMap()\l&#45; isInMapRange()\l&#45; GetSurroundingWallCount()\l&#45; getClosestEdge()\l&#45; indexToX()\l&#45; indexToY()\l&#45; indexAt()\l&#45; setTile()\l&#45; setTile()\l&#45; getTile()\l&#45; printLayout()\l}">
<polygon fill="white" stroke="black" points="306.5,-171.5 306.5,-437.5 447.5,-437.5 447.5,-171.5 306.5,-171.5"/>
<text text-anchor="middle" x="377" y="-425.5" font-family="Helvetica,sans-Serif" font-size="10.00">Model::mapGenerator</text>
<polyline fill="none" stroke="black" points="306.5,-418.5 447.5,-418.5 "/>
<text text-anchor="middle" x="377" y="-406.5" font-family="Helvetica,sans-Serif" font-size="10.00"> </text>
<polyline fill="none" stroke="black" points="306.5,-399.5 447.5,-399.5 "/>
<text text-anchor="start" x="314.5" y="-387.5" font-family="Helvetica,sans-Serif" font-size="10.00">+ mapGenerator()</text>
<text text-anchor="start" x="314.5" y="-376.5" font-family="Helvetica,sans-Serif" font-size="10.00">+ getTile()</text>
<text text-anchor="start" x="314.5" y="-365.5" font-family="Helvetica,sans-Serif" font-size="10.00">+ getHeight()</text>
<text text-anchor="start" x="314.5" y="-354.5" font-family="Helvetica,sans-Serif" font-size="10.00">+ getWidth()</text>
<text text-anchor="start" x="314.5" y="-343.5" font-family="Helvetica,sans-Serif" font-size="10.00">+ getStartX()</text>
<text text-anchor="start" x="314.5" y="-332.5" font-family="Helvetica,sans-Serif" font-size="10.00">+ getStartY()</text>
<text text-anchor="start" x="314.5" y="-321.5" font-family="Helvetica,sans-Serif" font-size="10.00">+ generateHall()</text>
<text text-anchor="start" x="314.5" y="-310.5" font-family="Helvetica,sans-Serif" font-size="10.00">+ getLayout()</text>
<text text-anchor="start" x="314.5" y="-299.5" font-family="Helvetica,sans-Serif" font-size="10.00">&#45; getMedialMap()</text>
<text text-anchor="start" x="314.5" y="-288.5" font-family="Helvetica,sans-Serif" font-size="10.00">&#45; getDistanceMap()</text>
<text text-anchor="start" x="314.5" y="-277.5" font-family="Helvetica,sans-Serif" font-size="10.00">&#45; isInMapRange()</text>
<text text-anchor="start" x="314.5" y="-266.5" font-family="Helvetica,sans-Serif" font-size="10.00">&#45; GetSurroundingWallCount()</text>
<text text-anchor="start" x="314.5" y="-255.5" font-family="Helvetica,sans-Serif" font-size="10.00">&#45; getClosestEdge()</text>
<text text-anchor="start" x="314.5" y="-244.5" font-family="Helvetica,sans-Serif" font-size="10.00">&#45; indexToX()</text>
<text text-anchor="start" x="314.5" y="-233.5" font-family="Helvetica,sans-Serif" font-size="10.00">&#45; indexToY()</text>
<text text-anchor="start" x="314.5" y="-222.5" font-family="Helvetica,sans-Serif" font-size="10.00">&#45; indexAt()</text>
<text text-anchor="start" x="314.5" y="-211.5" font-family="Helvetica,sans-Serif" font-size="10.00">&#45; setTile()</text>
<text text-anchor="start" x="314.5" y="-200.5" font-family="Helvetica,sans-Serif" font-size="10.00">&#45; setTile()</text>
<text text-anchor="start" x="314.5" y="-189.5" font-family="Helvetica,sans-Serif" font-size="10.00">&#45; getTile()</text>
<text text-anchor="start" x="314.5" y="-178.5" font-family="Helvetica,sans-Serif" font-size="10.00">&#45; printLayout()</text>
</a>
</g>
</g>
<!-- Node2&#45;&gt;Node1 -->
<g id="edge1" class="edge"><title>Node2&#45;&gt;Node1</title>
<path fill="none" stroke="#404040" d="M306.24,-322.287C228.949,-344.824 108.975,-393.117 55,-485 22.1336,-540.95 33.2935,-569.849 55,-631 65.212,-659.769 83.7516,-687.001 103.205,-710.004"/>
<polygon fill="none" stroke="#404040" points="103.393,-710.22 110.351,-712.114 111.278,-719.265 104.32,-717.371 103.393,-710.22"/>
<text text-anchor="middle" x="81" y="-555.5" font-family="Helvetica,sans-Serif" font-size="10.00"> &#45;generator_</text>
</g>
<!-- Node8 -->
<g id="node8" class="node"><title>Node8</title>
<g id="a_node8"><a xlink:href="class_model_1_1layout_generator.html" target="_top" xlink:title="{Model::layoutGenerator\n||+ layoutGenerator()\l+ generateHall()\l&#45; roomOk()\l&#45; randomRoom()\l}">
<polygon fill="white" stroke="black" points="118,-17 118,-107 236,-107 236,-17 118,-17"/>
<text text-anchor="middle" x="177" y="-95" font-family="Helvetica,sans-Serif" font-size="10.00">Model::layoutGenerator</text>
<polyline fill="none" stroke="black" points="118,-88 236,-88 "/>
<text text-anchor="middle" x="177" y="-76" font-family="Helvetica,sans-Serif" font-size="10.00"> </text>
<polyline fill="none" stroke="black" points="118,-69 236,-69 "/>
<text text-anchor="start" x="126" y="-57" font-family="Helvetica,sans-Serif" font-size="10.00">+ layoutGenerator()</text>
<text text-anchor="start" x="126" y="-46" font-family="Helvetica,sans-Serif" font-size="10.00">+ generateHall()</text>
<text text-anchor="start" x="126" y="-35" font-family="Helvetica,sans-Serif" font-size="10.00">&#45; roomOk()</text>
<text text-anchor="start" x="126" y="-24" font-family="Helvetica,sans-Serif" font-size="10.00">&#45; randomRoom()</text>
</a>
</g>
</g>
<!-- Node2&#45;&gt;Node8 -->
<g id="edge9" class="edge"><title>Node2&#45;&gt;Node8</title>
<path fill="none" stroke="#404040" d="M306.493,-272.46C259.535,-247.585 201.571,-207.762 174,-153 168.889,-142.848 166.923,-131.203 166.727,-119.733"/>
<polygon fill="none" stroke="#404040" points="166.738,-119.426 162.944,-113.294 167.146,-107.433 170.939,-113.565 166.738,-119.426"/>
<text text-anchor="middle" x="210.5" y="-145" font-family="Helvetica,sans-Serif" font-size="10.00"> &#45;mapGenerator_</text>
</g>
<!-- Node9 -->
<g id="node9" class="node"><title>Node9</title>
<g id="a_node9"><a xlink:href="class_model_1_1park_space_inserter.html" target="_top" xlink:title="{Model::parkSpaceInserter\n||+ parkSpaceInserter()\l+ addSpaces()\l&#45; addParkingSpaces_()\l&#45; getWallTiles()\l&#45; removeBlockedSpaces()\l&#45; floodFill()\l&#45; getRelativeDirection()\l}">
<polygon fill="white" stroke="black" points="370,-0.5 370,-123.5 498,-123.5 498,-0.5 370,-0.5"/>
<text text-anchor="middle" x="434" y="-111.5" font-family="Helvetica,sans-Serif" font-size="10.00">Model::parkSpaceInserter</text>
<polyline fill="none" stroke="black" points="370,-104.5 498,-104.5 "/>
<text text-anchor="middle" x="434" y="-92.5" font-family="Helvetica,sans-Serif" font-size="10.00"> </text>
<polyline fill="none" stroke="black" points="370,-85.5 498,-85.5 "/>
<text text-anchor="start" x="378" y="-73.5" font-family="Helvetica,sans-Serif" font-size="10.00">+ parkSpaceInserter()</text>
<text text-anchor="start" x="378" y="-62.5" font-family="Helvetica,sans-Serif" font-size="10.00">+ addSpaces()</text>
<text text-anchor="start" x="378" y="-51.5" font-family="Helvetica,sans-Serif" font-size="10.00">&#45; addParkingSpaces_()</text>
<text text-anchor="start" x="378" y="-40.5" font-family="Helvetica,sans-Serif" font-size="10.00">&#45; getWallTiles()</text>
<text text-anchor="start" x="378" y="-29.5" font-family="Helvetica,sans-Serif" font-size="10.00">&#45; removeBlockedSpaces()</text>
<text text-anchor="start" x="378" y="-18.5" font-family="Helvetica,sans-Serif" font-size="10.00">&#45; floodFill()</text>
<text text-anchor="start" x="378" y="-7.5" font-family="Helvetica,sans-Serif" font-size="10.00">&#45; getRelativeDirection()</text>
</a>
</g>
</g>
<!-- Node2&#45;&gt;Node9 -->
<g id="edge12" class="edge"><title>Node2&#45;&gt;Node9</title>
<path fill="none" stroke="#404040" d="M447.676,-204.613C456.452,-188.056 464.064,-170.54 469,-153 470.549,-147.495 471.064,-141.86 470.793,-136.226"/>
<polygon fill="none" stroke="#404040" points="470.736,-135.827 465.928,-130.452 469.04,-123.947 473.848,-129.322 470.736,-135.827"/>
<text text-anchor="middle" x="486.5" y="-145" font-family="Helvetica,sans-Serif" font-size="10.00"> &#45;map_</text>
</g>
<!-- Node3 -->
<g id="node3" class="node"><title>Node3</title>
<g id="a_node3"><a xlink:href="class_interface_1_1_parkin_hall_layout_interface.html" target="_top" xlink:title="{Interface::ParkinHallLayout\lInterface\n||+ ParkinHallLayoutInterface()\l+ generateHall()\l+ getLayout()\l+ getTile()\l+ getStartX()\l+ getStartY()\l+ getHeight()\l+ getWidth()\l}">
<polygon fill="white" stroke="black" points="250,-485.5 250,-630.5 392,-630.5 392,-485.5 250,-485.5"/>
<text text-anchor="start" x="258" y="-618.5" font-family="Helvetica,sans-Serif" font-size="10.00">Interface::ParkinHallLayout</text>
<text text-anchor="middle" x="321" y="-607.5" font-family="Helvetica,sans-Serif" font-size="10.00">Interface</text>
<polyline fill="none" stroke="black" points="250,-600.5 392,-600.5 "/>
<text text-anchor="middle" x="321" y="-588.5" font-family="Helvetica,sans-Serif" font-size="10.00"> </text>
<polyline fill="none" stroke="black" points="250,-581.5 392,-581.5 "/>
<text text-anchor="start" x="258" y="-569.5" font-family="Helvetica,sans-Serif" font-size="10.00">+ ParkinHallLayoutInterface()</text>
<text text-anchor="start" x="258" y="-558.5" font-family="Helvetica,sans-Serif" font-size="10.00">+ generateHall()</text>
<text text-anchor="start" x="258" y="-547.5" font-family="Helvetica,sans-Serif" font-size="10.00">+ getLayout()</text>
<text text-anchor="start" x="258" y="-536.5" font-family="Helvetica,sans-Serif" font-size="10.00">+ getTile()</text>
<text text-anchor="start" x="258" y="-525.5" font-family="Helvetica,sans-Serif" font-size="10.00">+ getStartX()</text>
<text text-anchor="start" x="258" y="-514.5" font-family="Helvetica,sans-Serif" font-size="10.00">+ getStartY()</text>
<text text-anchor="start" x="258" y="-503.5" font-family="Helvetica,sans-Serif" font-size="10.00">+ getHeight()</text>
<text text-anchor="start" x="258" y="-492.5" font-family="Helvetica,sans-Serif" font-size="10.00">+ getWidth()</text>
</a>
</g>
</g>
<!-- Node3&#45;&gt;Node2 -->
<g id="edge2" class="edge"><title>Node3&#45;&gt;Node2</title>
<path fill="none" stroke="midnightblue" d="M339.195,-475.284C341.883,-463.212 344.709,-450.521 347.555,-437.74"/>
<polygon fill="none" stroke="midnightblue" points="335.73,-474.745 336.972,-485.267 342.562,-476.267 335.73,-474.745"/>
</g>
<!-- Node4&#45;&gt;Node2 -->
<g id="edge3" class="edge"><title>Node4&#45;&gt;Node2</title>
<path fill="none" stroke="#404040" d="M200.747,-523.862C225.723,-492.92 264.248,-445.19 298.918,-402.237"/>
<polygon fill="none" stroke="#404040" points="298.944,-402.205 299.6,-395.024 306.481,-392.868 305.825,-400.049 298.944,-402.205"/>
<text text-anchor="middle" x="289.5" y="-459" font-family="Helvetica,sans-Serif" font-size="10.00"> &#45;mapProcessor_</text>
</g>
<!-- Node5 -->
<g id="node5" class="node"><title>Node5</title>
<polygon fill="white" stroke="#bfbfbf" points="277.5,-1224.5 277.5,-1281.5 306.5,-1281.5 306.5,-1224.5 277.5,-1224.5"/>
<text text-anchor="middle" x="292" y="-1269.5" font-family="Helvetica,sans-Serif" font-size="10.00">int</text>
<polyline fill="none" stroke="#bfbfbf" points="277.5,-1262.5 306.5,-1262.5 "/>
<text text-anchor="middle" x="292" y="-1250.5" font-family="Helvetica,sans-Serif" font-size="10.00"> </text>
<polyline fill="none" stroke="#bfbfbf" points="277.5,-1243.5 306.5,-1243.5 "/>
<text text-anchor="middle" x="292" y="-1231.5" font-family="Helvetica,sans-Serif" font-size="10.00"> </text>
</g>
<!-- Node5&#45;&gt;Node1 -->
<g id="edge20" class="edge"><title>Node5&#45;&gt;Node1</title>
<path fill="none" stroke="#404040" d="M301.487,-1224.13C317.483,-1173.23 346.275,-1061.98 327,-970 319.734,-935.328 315.195,-926.105 295,-897 281.069,-876.923 263.363,-857.449 245.822,-840.319"/>
<polygon fill="none" stroke="#404040" points="245.359,-839.877 238.258,-838.621 236.686,-831.584 243.787,-832.839 245.359,-839.877"/>
<text text-anchor="middle" x="348" y="-1071" font-family="Helvetica,sans-Serif" font-size="10.00"> &#45;width</text>
<text text-anchor="middle" x="348" y="-1060" font-family="Helvetica,sans-Serif" font-size="10.00">&#45;height</text>
</g>
<!-- Node5&#45;&gt;Node2 -->
<g id="edge5" class="edge"><title>Node5&#45;&gt;Node2</title>
<path fill="none" stroke="#404040" d="M306.637,-1250.86C378.442,-1244.88 690,-1214.2 690,-1132.5 690,-1132.5 690,-1132.5 690,-557 690,-438.388 551.725,-366.343 458.987,-331.363"/>
<polygon fill="none" stroke="#404040" points="458.893,-331.328 451.88,-333.007 447.634,-327.179 454.647,-325.5 458.893,-331.328"/>
<text text-anchor="middle" x="726.5" y="-944" font-family="Helvetica,sans-Serif" font-size="10.00"> &#45;startX</text>
<text text-anchor="middle" x="726.5" y="-933" font-family="Helvetica,sans-Serif" font-size="10.00">&#45;startY</text>
<text text-anchor="middle" x="726.5" y="-922" font-family="Helvetica,sans-Serif" font-size="10.00">&#45;height_</text>
<text text-anchor="middle" x="726.5" y="-911" font-family="Helvetica,sans-Serif" font-size="10.00">&#45;width_</text>
<text text-anchor="middle" x="726.5" y="-900" font-family="Helvetica,sans-Serif" font-size="10.00">&#45;maxRoomCount</text>
</g>
<!-- Node5&#45;&gt;Node8 -->
<g id="edge10" class="edge"><title>Node5&#45;&gt;Node8</title>
<path fill="none" stroke="#404040" d="M277.118,-1249.3C217.614,-1238.11 0,-1193.03 0,-1132.5 0,-1132.5 0,-1132.5 0,-303.5 0,-227.121 58.6241,-158.999 108.395,-114.928"/>
<polygon fill="none" stroke="#404040" points="108.498,-114.839 110.415,-107.887 117.569,-106.983 115.652,-113.934 108.498,-114.839"/>
<text text-anchor="middle" x="29" y="-787" font-family="Helvetica,sans-Serif" font-size="10.00"> &#45;height_</text>
<text text-anchor="middle" x="29" y="-776" font-family="Helvetica,sans-Serif" font-size="10.00">&#45;width_</text>
<text text-anchor="middle" x="29" y="-765" font-family="Helvetica,sans-Serif" font-size="10.00">&#45;maxRooms_</text>
</g>
<!-- Node13 -->
<g id="node13" class="node"><title>Node13</title>
<g id="a_node13"><a xlink:href="struct_model_1_1map_processor_1_1_distance_node.html" target="_top" xlink:title="{Model::mapProcessor\l::DistanceNode\n||}">
<polygon fill="white" stroke="black" points="95,-1097.5 95,-1165.5 207,-1165.5 207,-1097.5 95,-1097.5"/>
<text text-anchor="start" x="103" y="-1153.5" font-family="Helvetica,sans-Serif" font-size="10.00">Model::mapProcessor</text>
<text text-anchor="middle" x="151" y="-1142.5" font-family="Helvetica,sans-Serif" font-size="10.00">::DistanceNode</text>
<polyline fill="none" stroke="black" points="95,-1135.5 207,-1135.5 "/>
<text text-anchor="middle" x="151" y="-1123.5" font-family="Helvetica,sans-Serif" font-size="10.00"> </text>
<polyline fill="none" stroke="black" points="95,-1116.5 207,-1116.5 "/>
<text text-anchor="middle" x="151" y="-1104.5" font-family="Helvetica,sans-Serif" font-size="10.00"> </text>
</a>
</g>
</g>
<!-- Node5&#45;&gt;Node13 -->
<g id="edge17" class="edge"><title>Node5&#45;&gt;Node13</title>
<path fill="none" stroke="#404040" d="M277.442,-1239.66C259.189,-1224.19 226.973,-1196.89 199.629,-1173.71"/>
<polygon fill="none" stroke="#404040" points="199.346,-1173.47 192.183,-1172.65 190.191,-1165.72 197.355,-1166.54 199.346,-1173.47"/>
<text text-anchor="middle" x="258" y="-1198" font-family="Helvetica,sans-Serif" font-size="10.00"> +distance</text>
<text text-anchor="middle" x="258" y="-1187" font-family="Helvetica,sans-Serif" font-size="10.00">+closest</text>
</g>
<!-- Node6 -->
<g id="node6" class="node"><title>Node6</title>
<polygon fill="white" stroke="#bfbfbf" points="410,-529.5 410,-586.5 456,-586.5 456,-529.5 410,-529.5"/>
<text text-anchor="middle" x="433" y="-574.5" font-family="Helvetica,sans-Serif" font-size="10.00">Layout</text>
<polyline fill="none" stroke="#bfbfbf" points="410,-567.5 456,-567.5 "/>
<text text-anchor="middle" x="433" y="-555.5" font-family="Helvetica,sans-Serif" font-size="10.00"> </text>
<polyline fill="none" stroke="#bfbfbf" points="410,-548.5 456,-548.5 "/>
<text text-anchor="middle" x="433" y="-536.5" font-family="Helvetica,sans-Serif" font-size="10.00"> </text>
</g>
<!-- Node6&#45;&gt;Node2 -->
<g id="edge6" class="edge"><title>Node6&#45;&gt;Node2</title>
<path fill="none" stroke="#404040" d="M426.793,-529.124C422.298,-508.938 415.843,-479.946 409.063,-449.496"/>
<polygon fill="none" stroke="#404040" points="409.06,-449.483 403.851,-444.495 406.452,-437.769 411.66,-442.757 409.06,-449.483"/>
<text text-anchor="middle" x="431" y="-459" font-family="Helvetica,sans-Serif" font-size="10.00"> &#45;layout_</text>
</g>
<!-- Node7 -->
<g id="node7" class="node"><title>Node7</title>
<polygon fill="white" stroke="#bfbfbf" points="474,-529.5 474,-586.5 528,-586.5 528,-529.5 474,-529.5"/>
<text text-anchor="middle" x="501" y="-574.5" font-family="Helvetica,sans-Serif" font-size="10.00">mt19937</text>
<polyline fill="none" stroke="#bfbfbf" points="474,-567.5 528,-567.5 "/>
<text text-anchor="middle" x="501" y="-555.5" font-family="Helvetica,sans-Serif" font-size="10.00"> </text>
<polyline fill="none" stroke="#bfbfbf" points="474,-548.5 528,-548.5 "/>
<text text-anchor="middle" x="501" y="-536.5" font-family="Helvetica,sans-Serif" font-size="10.00"> </text>
</g>
<!-- Node7&#45;&gt;Node2 -->
<g id="edge7" class="edge"><title>Node7&#45;&gt;Node2</title>
<path fill="none" stroke="#404040" d="M488.509,-529.434C479.193,-509.055 466.05,-480.679 454,-456 452.823,-453.589 451.632,-451.159 450.429,-448.713"/>
<polygon fill="none" stroke="#404040" points="450.405,-448.664 444.161,-445.057 445.089,-437.906 451.333,-441.513 450.405,-448.664"/>
<text text-anchor="middle" x="470" y="-459" font-family="Helvetica,sans-Serif" font-size="10.00"> &#45;rng</text>
</g>
<!-- Node8&#45;&gt;Node2 -->
<g id="edge8" class="edge"><title>Node8&#45;&gt;Node2</title>
<path fill="none" stroke="#404040" d="M219.591,-107.062C230.063,-118.277 241.105,-130.433 251,-142 266.893,-160.579 283.337,-180.826 298.889,-200.506"/>
<polygon fill="none" stroke="#404040" points="299.027,-200.681 305.88,-202.923 306.447,-210.112 299.593,-207.87 299.027,-200.681"/>
<text text-anchor="middle" x="299.5" y="-145" font-family="Helvetica,sans-Serif" font-size="10.00"> &#45;layoutGenerator_</text>
</g>
<!-- Node9&#45;&gt;Node2 -->
<g id="edge11" class="edge"><title>Node9&#45;&gt;Node2</title>
<path fill="none" stroke="#404040" d="M385.834,-123.605C382.706,-129.586 380.009,-135.759 378,-142 376.215,-147.547 374.712,-153.257 373.459,-159.068"/>
<polygon fill="none" stroke="#404040" points="373.413,-159.317 376.253,-165.946 371.226,-171.116 368.387,-164.488 373.413,-159.317"/>
<text text-anchor="middle" x="423.5" y="-145" font-family="Helvetica,sans-Serif" font-size="10.00"> &#45;parkSpaceInserter_</text>
</g>
<!-- Node10 -->
<g id="node10" class="node"><title>Node10</title>
<polygon fill="white" stroke="#bfbfbf" points="546,-529.5 546,-586.5 662,-586.5 662,-529.5 546,-529.5"/>
<text text-anchor="middle" x="604" y="-574.5" font-family="Helvetica,sans-Serif" font-size="10.00">std::vector&lt; TileType &gt;</text>
<polyline fill="none" stroke="#bfbfbf" points="546,-567.5 662,-567.5 "/>
<text text-anchor="middle" x="604" y="-555.5" font-family="Helvetica,sans-Serif" font-size="10.00"> </text>
<polyline fill="none" stroke="#bfbfbf" points="546,-548.5 662,-548.5 "/>
<text text-anchor="middle" x="604" y="-536.5" font-family="Helvetica,sans-Serif" font-size="10.00"> </text>
</g>
<!-- Node10&#45;&gt;Node2 -->
<g id="edge13" class="edge"><title>Node10&#45;&gt;Node2</title>
<path fill="none" stroke="#404040" d="M578.84,-529.124C549.288,-496.383 498.828,-440.477 455.756,-392.756"/>
<polygon fill="none" stroke="#404040" points="455.568,-392.548 448.579,-390.774 447.528,-383.64 454.517,-385.414 455.568,-392.548"/>
<text text-anchor="middle" x="532" y="-459" font-family="Helvetica,sans-Serif" font-size="10.00"> &#45;tiles_</text>
</g>
<!-- Node11 -->
<g id="node11" class="node"><title>Node11</title>
<polygon fill="white" stroke="#bfbfbf" points="577.5,-750 577.5,-807 630.5,-807 630.5,-750 577.5,-750"/>
<text text-anchor="middle" x="604" y="-795" font-family="Helvetica,sans-Serif" font-size="10.00">TileType</text>
<polyline fill="none" stroke="#bfbfbf" points="577.5,-788 630.5,-788 "/>
<text text-anchor="middle" x="604" y="-776" font-family="Helvetica,sans-Serif" font-size="10.00"> </text>
<polyline fill="none" stroke="#bfbfbf" points="577.5,-769 630.5,-769 "/>
<text text-anchor="middle" x="604" y="-757" font-family="Helvetica,sans-Serif" font-size="10.00"> </text>
</g>
<!-- Node11&#45;&gt;Node10 -->
<g id="edge14" class="edge"><title>Node11&#45;&gt;Node10</title>
<path fill="none" stroke="#404040" d="M604,-749.827C604,-711.678 604,-642.697 604,-598.955"/>
<polygon fill="none" stroke="#404040" points="604,-598.793 600,-592.793 604,-586.793 608,-592.793 604,-598.793"/>
<text text-anchor="middle" x="628.5" y="-652" font-family="Helvetica,sans-Serif" font-size="10.00"> +elements</text>
</g>
<!-- Node12 -->
<g id="node12" class="node"><title>Node12</title>
<polygon fill="white" stroke="#bfbfbf" points="28.5,-970.5 28.5,-1038.5 189.5,-1038.5 189.5,-970.5 28.5,-970.5"/>
<text text-anchor="start" x="36.5" y="-1026.5" font-family="Helvetica,sans-Serif" font-size="10.00">std::vector&lt; Model</text>
<text text-anchor="middle" x="109" y="-1015.5" font-family="Helvetica,sans-Serif" font-size="10.00">::mapProcessor::DistanceNode &gt;</text>
<polyline fill="none" stroke="#bfbfbf" points="28.5,-1008.5 189.5,-1008.5 "/>
<text text-anchor="middle" x="109" y="-996.5" font-family="Helvetica,sans-Serif" font-size="10.00"> </text>
<polyline fill="none" stroke="#bfbfbf" points="28.5,-989.5 189.5,-989.5 "/>
<text text-anchor="middle" x="109" y="-977.5" font-family="Helvetica,sans-Serif" font-size="10.00"> </text>
</g>
<!-- Node12&#45;&gt;Node1 -->
<g id="edge15" class="edge"><title>Node12&#45;&gt;Node1</title>
<path fill="none" stroke="#404040" d="M118.591,-970.448C124.826,-948.961 133.35,-919.586 141.843,-890.318"/>
<polygon fill="none" stroke="#404040" points="141.874,-890.212 139.704,-883.335 145.218,-878.687 147.387,-885.564 141.874,-890.212"/>
<text text-anchor="middle" x="171" y="-922" font-family="Helvetica,sans-Serif" font-size="10.00"> &#45;distanceMap</text>
</g>
<!-- Node13&#45;&gt;Node12 -->
<g id="edge16" class="edge"><title>Node13&#45;&gt;Node12</title>
<path fill="none" stroke="#404040" d="M139.855,-1097.33C135.014,-1082.92 129.268,-1065.82 124.056,-1050.31"/>
<polygon fill="none" stroke="#404040" points="124.019,-1050.2 118.316,-1045.79 120.197,-1038.82 125.9,-1043.24 124.019,-1050.2"/>
<text text-anchor="middle" x="157.5" y="-1065.5" font-family="Helvetica,sans-Serif" font-size="10.00"> +elements</text>
</g>
<!-- Node14 -->
<g id="node14" class="node"><title>Node14</title>
<polygon fill="white" stroke="#bfbfbf" points="208,-976 208,-1033 318,-1033 318,-976 208,-976"/>
<text text-anchor="middle" x="263" y="-1021" font-family="Helvetica,sans-Serif" font-size="10.00">std::vector&lt; QPoint &gt;</text>
<polyline fill="none" stroke="#bfbfbf" points="208,-1014 318,-1014 "/>
<text text-anchor="middle" x="263" y="-1002" font-family="Helvetica,sans-Serif" font-size="10.00"> </text>
<polyline fill="none" stroke="#bfbfbf" points="208,-995 318,-995 "/>
<text text-anchor="middle" x="263" y="-983" font-family="Helvetica,sans-Serif" font-size="10.00"> </text>
</g>
<!-- Node14&#45;&gt;Node1 -->
<g id="edge18" class="edge"><title>Node14&#45;&gt;Node1</title>
<path fill="none" stroke="#404040" d="M251.908,-975.583C243.217,-953.709 230.52,-921.752 217.888,-889.96"/>
<polygon fill="none" stroke="#404040" points="217.861,-889.891 211.928,-885.792 213.43,-878.739 219.362,-882.838 217.861,-889.891"/>
<text text-anchor="middle" x="266.5" y="-922" font-family="Helvetica,sans-Serif" font-size="10.00"> &#45;enemies_</text>
</g>
<!-- Node15 -->
<g id="node15" class="node"><title>Node15</title>
<polygon fill="white" stroke="#bfbfbf" points="239.5,-1103 239.5,-1160 286.5,-1160 286.5,-1103 239.5,-1103"/>
<text text-anchor="middle" x="263" y="-1148" font-family="Helvetica,sans-Serif" font-size="10.00">QPoint</text>
<polyline fill="none" stroke="#bfbfbf" points="239.5,-1141 286.5,-1141 "/>
<text text-anchor="middle" x="263" y="-1129" font-family="Helvetica,sans-Serif" font-size="10.00"> </text>
<polyline fill="none" stroke="#bfbfbf" points="239.5,-1122 286.5,-1122 "/>
<text text-anchor="middle" x="263" y="-1110" font-family="Helvetica,sans-Serif" font-size="10.00"> </text>
</g>
<!-- Node15&#45;&gt;Node14 -->
<g id="edge19" class="edge"><title>Node15&#45;&gt;Node14</title>
<path fill="none" stroke="#404040" d="M263,-1102.76C263,-1085.85 263,-1063.96 263,-1045.23"/>
<polygon fill="none" stroke="#404040" points="263,-1045.16 259,-1039.16 263,-1033.16 267,-1039.16 263,-1045.16"/>
<text text-anchor="middle" x="287.5" y="-1065.5" font-family="Helvetica,sans-Serif" font-size="10.00"> +elements</text>
</g>
</g>
</svg>
