<?xml version="1.0" encoding="UTF-8" standalone="no"?>
<!DOCTYPE svg PUBLIC "-//W3C//DTD SVG 1.1//EN"
 "http://www.w3.org/Graphics/SVG/1.1/DTD/svg11.dtd">
<!-- Generated by graphviz version 2.38.0 (20140413.2041)
 -->
<!-- Title: Model::XmlParkingDataReader Pages: 1 -->
<svg width="304pt" height="430pt"
 viewBox="0.00 0.00 304.00 430.00" xmlns="http://www.w3.org/2000/svg" xmlns:xlink="http://www.w3.org/1999/xlink">
<g id="graph0" class="graph" transform="scale(1 1) rotate(0) translate(4 426)">
<title>Model::XmlParkingDataReader</title>
<polygon fill="white" stroke="none" points="-4,4 -4,-426 300,-426 300,4 -4,4"/>
<!-- Node1 -->
<g id="node1" class="node"><title>Node1</title>
<polygon fill="#bfbfbf" stroke="black" points="25.5,-0.5 25.5,-178.5 174.5,-178.5 174.5,-0.5 25.5,-0.5"/>
<text text-anchor="middle" x="100" y="-166.5" font-family="Helvetica,sans-Serif" font-size="10.00">Model::XmlParkingDataReader</text>
<polyline fill="none" stroke="black" points="25.5,-159.5 174.5,-159.5 "/>
<text text-anchor="middle" x="100" y="-147.5" font-family="Helvetica,sans-Serif" font-size="10.00"> </text>
<polyline fill="none" stroke="black" points="25.5,-140.5 174.5,-140.5 "/>
<text text-anchor="start" x="33.5" y="-128.5" font-family="Helvetica,sans-Serif" font-size="10.00">+ XmlParkingDataReader()</text>
<text text-anchor="start" x="33.5" y="-117.5" font-family="Helvetica,sans-Serif" font-size="10.00">+ read()</text>
<text text-anchor="start" x="33.5" y="-106.5" font-family="Helvetica,sans-Serif" font-size="10.00">+ getParkingHallData()</text>
<text text-anchor="start" x="33.5" y="-95.5" font-family="Helvetica,sans-Serif" font-size="10.00">&#45; readParkingFacility()</text>
<text text-anchor="start" x="33.5" y="-84.5" font-family="Helvetica,sans-Serif" font-size="10.00">&#45; readID()</text>
<text text-anchor="start" x="33.5" y="-73.5" font-family="Helvetica,sans-Serif" font-size="10.00">&#45; readLayout()</text>
<text text-anchor="start" x="33.5" y="-62.5" font-family="Helvetica,sans-Serif" font-size="10.00">&#45; readName()</text>
<text text-anchor="start" x="33.5" y="-51.5" font-family="Helvetica,sans-Serif" font-size="10.00">&#45; readType()</text>
<text text-anchor="start" x="33.5" y="-40.5" font-family="Helvetica,sans-Serif" font-size="10.00">&#45; readAddress()</text>
<text text-anchor="start" x="33.5" y="-29.5" font-family="Helvetica,sans-Serif" font-size="10.00">&#45; readParkingFacilityStatus()</text>
<text text-anchor="start" x="33.5" y="-18.5" font-family="Helvetica,sans-Serif" font-size="10.00">&#45; readTotalParkingCapacity()</text>
<text text-anchor="start" x="33.5" y="-7.5" font-family="Helvetica,sans-Serif" font-size="10.00">&#45; readLocation()</text>
</g>
<!-- Node2 -->
<g id="node2" class="node"><title>Node2</title>
<polygon fill="white" stroke="#bfbfbf" points="0,-237.5 0,-294.5 102,-294.5 102,-237.5 0,-237.5"/>
<text text-anchor="middle" x="51" y="-282.5" font-family="Helvetica,sans-Serif" font-size="10.00">QXmlStreamReader</text>
<polyline fill="none" stroke="#bfbfbf" points="0,-275.5 102,-275.5 "/>
<text text-anchor="middle" x="51" y="-263.5" font-family="Helvetica,sans-Serif" font-size="10.00"> </text>
<polyline fill="none" stroke="#bfbfbf" points="0,-256.5 102,-256.5 "/>
<text text-anchor="middle" x="51" y="-244.5" font-family="Helvetica,sans-Serif" font-size="10.00"> </text>
</g>
<!-- Node2&#45;&gt;Node1 -->
<g id="edge1" class="edge"><title>Node2&#45;&gt;Node1</title>
<path fill="none" stroke="#404040" d="M58.7642,-237.35C62.4258,-224.31 67.0428,-207.868 71.8515,-190.743"/>
<polygon fill="none" stroke="#404040" points="71.9577,-190.365 69.7288,-183.507 75.202,-178.811 77.4309,-185.669 71.9577,-190.365"/>
<text text-anchor="middle" x="89.5" y="-200" font-family="Helvetica,sans-Serif" font-size="10.00"> &#45;reader_</text>
</g>
<!-- Node3 -->
<g id="node3" class="node"><title>Node3</title>
<polygon fill="white" stroke="#bfbfbf" points="120.5,-226.5 120.5,-305.5 251.5,-305.5 251.5,-226.5 120.5,-226.5"/>
<text text-anchor="start" x="128.5" y="-293.5" font-family="Helvetica,sans-Serif" font-size="10.00">std::map&lt; QString,</text>
<text text-anchor="start" x="128.5" y="-282.5" font-family="Helvetica,sans-Serif" font-size="10.00"> std::shared_ptr&lt; Interface</text>
<text text-anchor="middle" x="186" y="-271.5" font-family="Helvetica,sans-Serif" font-size="10.00">::ParkingHallInterface &gt; &gt;</text>
<polyline fill="none" stroke="#bfbfbf" points="120.5,-264.5 251.5,-264.5 "/>
<text text-anchor="middle" x="186" y="-252.5" font-family="Helvetica,sans-Serif" font-size="10.00"> </text>
<polyline fill="none" stroke="#bfbfbf" points="120.5,-245.5 251.5,-245.5 "/>
<text text-anchor="middle" x="186" y="-233.5" font-family="Helvetica,sans-Serif" font-size="10.00"> </text>
</g>
<!-- Node3&#45;&gt;Node1 -->
<g id="edge2" class="edge"><title>Node3&#45;&gt;Node1</title>
<path fill="none" stroke="#404040" d="M166.914,-226.273C161.463,-215.212 155.26,-202.626 148.881,-189.683"/>
<polygon fill="none" stroke="#404040" points="148.799,-189.516 142.559,-185.903 143.494,-178.752 149.734,-182.366 148.799,-189.516"/>
<text text-anchor="middle" x="196" y="-200" font-family="Helvetica,sans-Serif" font-size="10.00"> &#45;parkingHallData_</text>
</g>
<!-- Node4 -->
<g id="node4" class="node"><title>Node4</title>
<polygon fill="white" stroke="#bfbfbf" points="110,-359 110,-416 160,-416 160,-359 110,-359"/>
<text text-anchor="middle" x="135" y="-404" font-family="Helvetica,sans-Serif" font-size="10.00">QString</text>
<polyline fill="none" stroke="#bfbfbf" points="110,-397 160,-397 "/>
<text text-anchor="middle" x="135" y="-385" font-family="Helvetica,sans-Serif" font-size="10.00"> </text>
<polyline fill="none" stroke="#bfbfbf" points="110,-378 160,-378 "/>
<text text-anchor="middle" x="135" y="-366" font-family="Helvetica,sans-Serif" font-size="10.00"> </text>
</g>
<!-- Node4&#45;&gt;Node3 -->
<g id="edge3" class="edge"><title>Node4&#45;&gt;Node3</title>
<path fill="none" stroke="#404040" d="M146.829,-358.784C152.122,-346.38 158.532,-331.36 164.62,-317.095"/>
<polygon fill="none" stroke="#404040" points="164.696,-316.918 163.372,-309.829 169.407,-305.881 170.73,-312.969 164.696,-316.918"/>
<text text-anchor="middle" x="176.5" y="-327" font-family="Helvetica,sans-Serif" font-size="10.00"> +keys</text>
</g>
<!-- Node5 -->
<g id="node5" class="node"><title>Node5</title>
<polygon fill="white" stroke="#bfbfbf" points="178,-353.5 178,-421.5 296,-421.5 296,-353.5 178,-353.5"/>
<text text-anchor="start" x="186" y="-409.5" font-family="Helvetica,sans-Serif" font-size="10.00">shared_ptr&lt; Interface</text>
<text text-anchor="middle" x="237" y="-398.5" font-family="Helvetica,sans-Serif" font-size="10.00">::ParkingHallInterface &gt;</text>
<polyline fill="none" stroke="#bfbfbf" points="178,-391.5 296,-391.5 "/>
<text text-anchor="middle" x="237" y="-379.5" font-family="Helvetica,sans-Serif" font-size="10.00"> </text>
<polyline fill="none" stroke="#bfbfbf" points="178,-372.5 296,-372.5 "/>
<text text-anchor="middle" x="237" y="-360.5" font-family="Helvetica,sans-Serif" font-size="10.00"> </text>
</g>
<!-- Node5&#45;&gt;Node3 -->
<g id="edge4" class="edge"><title>Node5&#45;&gt;Node3</title>
<path fill="none" stroke="#404040" d="M222.794,-353.213C217.965,-341.897 212.458,-328.996 207.203,-316.681"/>
<polygon fill="none" stroke="#404040" points="207.184,-316.637 201.15,-312.688 202.474,-305.6 208.508,-309.548 207.184,-316.637"/>
<text text-anchor="middle" x="238.5" y="-327" font-family="Helvetica,sans-Serif" font-size="10.00"> +elements</text>
</g>
</g>
</svg>
