<?xml version="1.0" encoding="UTF-8" standalone="no"?>
<!DOCTYPE svg PUBLIC "-//W3C//DTD SVG 1.1//EN"
 "http://www.w3.org/Graphics/SVG/1.1/DTD/svg11.dtd">
<!-- Generated by graphviz version 2.38.0 (20140413.2041)
 -->
<!-- Title: Interface::EquipmentInterface::getRange Pages: 1 -->
<svg width="301pt" height="78pt"
 viewBox="0.00 0.00 301.00 77.50" xmlns="http://www.w3.org/2000/svg" xmlns:xlink="http://www.w3.org/1999/xlink">
<g id="graph0" class="graph" transform="scale(1 1) rotate(0) translate(4 73.5)">
<title>Interface::EquipmentInterface::getRange</title>
<polygon fill="white" stroke="none" points="-4,4 -4,-73.5 297,-73.5 297,4 -4,4"/>
<!-- Node34 -->
<g id="node1" class="node"><title>Node34</title>
<polygon fill="#bfbfbf" stroke="black" points="0,-17 0,-47 143,-47 143,-17 0,-17"/>
<text text-anchor="start" x="8" y="-35" font-family="Helvetica,sans-Serif" font-size="10.00">Interface::EquipmentInterface</text>
<text text-anchor="middle" x="71.5" y="-24" font-family="Helvetica,sans-Serif" font-size="10.00">::getRange</text>
</g>
<!-- Node35 -->
<g id="node2" class="node"><title>Node35</title>
<g id="a_node2"><a xlink:href="class_model_1_1_cyber_teekkari.html#a70a056a65de5a36e565fbd4c834b2414" target="_top" xlink:title="getStat palauttaa arvon halutusta aseen statista ja mukana on myos parannuksien vaikutus. ">
<polygon fill="white" stroke="black" points="180.5,-39 180.5,-69 291.5,-69 291.5,-39 180.5,-39"/>
<text text-anchor="start" x="188.5" y="-57" font-family="Helvetica,sans-Serif" font-size="10.00">Model::CyberTeekkari</text>
<text text-anchor="middle" x="236" y="-46" font-family="Helvetica,sans-Serif" font-size="10.00">::getStat</text>
</a>
</g>
</g>
<!-- Node34&#45;&gt;Node35 -->
<g id="edge1" class="edge"><title>Node34&#45;&gt;Node35</title>
<path fill="none" stroke="midnightblue" d="M153.455,-42.96C162.469,-44.1805 171.489,-45.4016 180.07,-46.5633"/>
<polygon fill="midnightblue" stroke="midnightblue" points="153.681,-39.4589 143.302,-41.5855 152.742,-46.3956 153.681,-39.4589"/>
</g>
<!-- Node36 -->
<g id="node3" class="node"><title>Node36</title>
<g id="a_node3"><a xlink:href="class_model_1_1_player.html#ad20e376ed4e84d858c79239f8cc4dfcb" target="_top" xlink:title="getStat palauttaa arvon halutusta aseen statista ja mukana on myos parannuksien vaikutus. ">
<polygon fill="white" stroke="black" points="179,-0.5 179,-19.5 293,-19.5 293,-0.5 179,-0.5"/>
<text text-anchor="middle" x="236" y="-7.5" font-family="Helvetica,sans-Serif" font-size="10.00">Model::Player::getStat</text>
</a>
</g>
</g>
<!-- Node34&#45;&gt;Node36 -->
<g id="edge2" class="edge"><title>Node34&#45;&gt;Node36</title>
<path fill="none" stroke="midnightblue" d="M153.309,-21.0597C161.855,-19.9026 170.408,-18.7447 178.589,-17.6371"/>
<polygon fill="midnightblue" stroke="midnightblue" points="152.742,-17.6044 143.302,-22.4145 153.681,-24.5411 152.742,-17.6044"/>
</g>
</g>
</svg>
