<?xml version="1.0" encoding="UTF-8" standalone="no"?>
<!DOCTYPE svg PUBLIC "-//W3C//DTD SVG 1.1//EN"
 "http://www.w3.org/Graphics/SVG/1.1/DTD/svg11.dtd">
<!-- Generated by graphviz version 2.38.0 (20140413.2041)
 -->
<!-- Title: View::HeadQuartersUI::UIHireActorSignal Pages: 1 -->
<svg width="578pt" height="39pt"
 viewBox="0.00 0.00 578.00 39.00" xmlns="http://www.w3.org/2000/svg" xmlns:xlink="http://www.w3.org/1999/xlink">
<g id="graph0" class="graph" transform="scale(1 1) rotate(0) translate(4 35)">
<title>View::HeadQuartersUI::UIHireActorSignal</title>
<polygon fill="white" stroke="none" points="-4,4 -4,-35 574,-35 574,4 -4,4"/>
<!-- Node108 -->
<g id="node1" class="node"><title>Node108</title>
<polygon fill="#bfbfbf" stroke="black" points="0,-0.5 0,-30.5 113,-30.5 113,-0.5 0,-0.5"/>
<text text-anchor="start" x="8" y="-18.5" font-family="Helvetica,sans-Serif" font-size="10.00">View::HeadQuartersUI</text>
<text text-anchor="middle" x="56.5" y="-7.5" font-family="Helvetica,sans-Serif" font-size="10.00">::UIHireActorSignal</text>
</g>
<!-- Node109 -->
<g id="node2" class="node"><title>Node109</title>
<g id="a_node2"><a xlink:href="class_view_1_1_head_quarters_u_i.html#aa4cf289bec574f4ba216570e3815e683" target="_top" xlink:title="View::HeadQuartersUI\l::hireActorButtonPushed">
<polygon fill="white" stroke="black" points="149,-0.5 149,-30.5 272,-30.5 272,-0.5 149,-0.5"/>
<text text-anchor="start" x="157" y="-18.5" font-family="Helvetica,sans-Serif" font-size="10.00">View::HeadQuartersUI</text>
<text text-anchor="middle" x="210.5" y="-7.5" font-family="Helvetica,sans-Serif" font-size="10.00">::hireActorButtonPushed</text>
</a>
</g>
</g>
<!-- Node108&#45;&gt;Node109 -->
<g id="edge1" class="edge"><title>Node108&#45;&gt;Node109</title>
<path fill="none" stroke="midnightblue" d="M123.444,-15.5C131.905,-15.5 140.535,-15.5 148.905,-15.5"/>
<polygon fill="midnightblue" stroke="midnightblue" points="123.236,-12.0001 113.236,-15.5 123.236,-19.0001 123.236,-12.0001"/>
</g>
<!-- Node110 -->
<g id="node3" class="node"><title>Node110</title>
<g id="a_node3"><a xlink:href="class_view_1_1_head_quarters_u_i.html#a504906d7f958448301b500a3762ff618" target="_top" xlink:title="View::HeadQuartersUI\l::connectShopUI">
<polygon fill="white" stroke="black" points="308,-0.5 308,-30.5 421,-30.5 421,-0.5 308,-0.5"/>
<text text-anchor="start" x="316" y="-18.5" font-family="Helvetica,sans-Serif" font-size="10.00">View::HeadQuartersUI</text>
<text text-anchor="middle" x="364.5" y="-7.5" font-family="Helvetica,sans-Serif" font-size="10.00">::connectShopUI</text>
</a>
</g>
</g>
<!-- Node109&#45;&gt;Node110 -->
<g id="edge2" class="edge"><title>Node109&#45;&gt;Node110</title>
<path fill="none" stroke="midnightblue" d="M282.026,-15.5C290.617,-15.5 299.302,-15.5 307.638,-15.5"/>
<polygon fill="midnightblue" stroke="midnightblue" points="282.011,-12.0001 272.011,-15.5 282.011,-19.0001 282.011,-12.0001"/>
</g>
<!-- Node111 -->
<g id="node4" class="node"><title>Node111</title>
<g id="a_node4"><a xlink:href="class_view_1_1_head_quarters_u_i.html#a98db9788c668433314da83b183101f0c" target="_top" xlink:title="View::HeadQuartersUI\l::HeadQuartersUI">
<polygon fill="white" stroke="black" points="457,-0.5 457,-30.5 570,-30.5 570,-0.5 457,-0.5"/>
<text text-anchor="start" x="465" y="-18.5" font-family="Helvetica,sans-Serif" font-size="10.00">View::HeadQuartersUI</text>
<text text-anchor="middle" x="513.5" y="-7.5" font-family="Helvetica,sans-Serif" font-size="10.00">::HeadQuartersUI</text>
</a>
</g>
</g>
<!-- Node110&#45;&gt;Node111 -->
<g id="edge3" class="edge"><title>Node110&#45;&gt;Node111</title>
<path fill="none" stroke="midnightblue" d="M431.078,-15.5C439.681,-15.5 448.43,-15.5 456.847,-15.5"/>
<polygon fill="midnightblue" stroke="midnightblue" points="431.074,-12.0001 421.074,-15.5 431.074,-19.0001 431.074,-12.0001"/>
</g>
</g>
</svg>
