<?xml version="1.0" encoding="UTF-8" standalone="no"?>
<!DOCTYPE svg PUBLIC "-//W3C//DTD SVG 1.1//EN"
 "http://www.w3.org/Graphics/SVG/1.1/DTD/svg11.dtd">
<!-- Generated by graphviz version 2.38.0 (20140413.2041)
 -->
<!-- Title: View::ActionScene::addEnemies Pages: 1 -->
<!--zoomable 421 -->
<svg id="main" version="1.1" xmlns="http://www.w3.org/2000/svg" xmlns:xlink="http://www.w3.org/1999/xlink" xml:space="preserve" onload="init(evt)">
<style type="text/css"><![CDATA[
.edge:hover path { stroke: red; }
.edge:hover polygon { stroke: red; fill: red; }
]]></style>
<script type="text/javascript"><![CDATA[
var edges = document.getElementsByTagName('g');
if (edges && edges.length) {
  for (var i=0;i<edges.length;i++) {
    if (edges[i].id.substr(0,4)=='edge') {
      edges[i].setAttribute('class','edge');
    }
  }
}
]]></script>
        <defs>
                <circle id="rim" cx="0" cy="0" r="7"/>
                <circle id="rim2" cx="0" cy="0" r="3.5"/>
                <g id="zoomPlus">
                        <use xlink:href="#rim" fill="#404040">
                                <set attributeName="fill" to="#808080" begin="zoomplus.mouseover" end="zoomplus.mouseout"/>
                        </use>
                        <path d="M-4,0h8M0,-4v8" fill="none" stroke="white" stroke-width="1.5" pointer-events="none"/>
                </g>
                <g id="zoomMin">
                        <use xlink:href="#rim" fill="#404040">
                                <set attributeName="fill" to="#808080" begin="zoomminus.mouseover" end="zoomminus.mouseout"/>
                        </use>
                        <path d="M-4,0h8" fill="none" stroke="white" stroke-width="1.5" pointer-events="none"/>
                </g>
                <g id="dirArrow">
                        <path fill="none" stroke="white" stroke-width="1.5" d="M0,-3.0v7 M-2.5,-0.5L0,-3.0L2.5,-0.5"/>
                </g>
               <g id="resetDef">
                       <use xlink:href="#rim2" fill="#404040">
                               <set attributeName="fill" to="#808080" begin="reset.mouseover" end="reset.mouseout"/>
                       </use>
               </g>
        </defs>

<script type="text/javascript">
var viewWidth = 1037;
var viewHeight = 421;
var sectionId = 'dynsection-6';
</script>
<script xlink:href="svgpan.js"/>
<svg id="graph" class="graph">
<g id="viewport">
<title>View::ActionScene::addEnemies</title>
<polygon fill="white" stroke="none" points="-4,4 -4,-417 1033,-417 1033,4 -4,4"/>
<!-- Node29 -->
<g id="node1" class="node"><title>Node29</title>
<polygon fill="#bfbfbf" stroke="black" points="0,-186.5 0,-216.5 105,-216.5 105,-186.5 0,-186.5"/>
<text text-anchor="start" x="8" y="-204.5" font-family="Helvetica,sans-Serif" font-size="10.00">View::ActionScene::</text>
<text text-anchor="middle" x="52.5" y="-193.5" font-family="Helvetica,sans-Serif" font-size="10.00">addEnemies</text>
</g>
<!-- Node30 -->
<g id="node2" class="node"><title>Node30</title>
<g id="a_node2"><a xlink:href="class_view_1_1_action_scene.html#a2da7a8314a9d50cdccf82159f58e5097" target="_top" xlink:title="View::ActionScene::\lspawnEnemy">
<polygon fill="white" stroke="black" points="141,-186.5 141,-216.5 246,-216.5 246,-186.5 141,-186.5"/>
<text text-anchor="start" x="149" y="-204.5" font-family="Helvetica,sans-Serif" font-size="10.00">View::ActionScene::</text>
<text text-anchor="middle" x="193.5" y="-193.5" font-family="Helvetica,sans-Serif" font-size="10.00">spawnEnemy</text>
</a>
</g>
</g>
<!-- Node29&#45;&gt;Node30 -->
<g id="edge1" class="edge"><title>Node29&#45;&gt;Node30</title>
<path fill="none" stroke="midnightblue" d="M105.258,-201.5C113.49,-201.5 122.077,-201.5 130.514,-201.5"/>
<polygon fill="midnightblue" stroke="midnightblue" points="130.698,-205 140.698,-201.5 130.698,-198 130.698,-205"/>
</g>
<!-- Node31 -->
<g id="node3" class="node"><title>Node31</title>
<g id="a_node3"><a xlink:href="class_view_1_1_action_scene_n_p_c.html#a45581b8b064bede18865c19bc640fd7b" target="_top" xlink:title="View::ActionSceneNPC\l::addFeet">
<polygon fill="white" stroke="black" points="282,-278.5 282,-308.5 401,-308.5 401,-278.5 282,-278.5"/>
<text text-anchor="start" x="290" y="-296.5" font-family="Helvetica,sans-Serif" font-size="10.00">View::ActionSceneNPC</text>
<text text-anchor="middle" x="341.5" y="-285.5" font-family="Helvetica,sans-Serif" font-size="10.00">::addFeet</text>
</a>
</g>
</g>
<!-- Node30&#45;&gt;Node31 -->
<g id="edge2" class="edge"><title>Node30&#45;&gt;Node31</title>
<path fill="none" stroke="midnightblue" d="M217.01,-216.502C234.593,-228.137 259.703,-244.575 282,-258.5 289.731,-263.328 298.105,-268.419 306.035,-273.178"/>
<polygon fill="midnightblue" stroke="midnightblue" points="304.363,-276.255 314.743,-278.377 307.951,-270.245 304.363,-276.255"/>
</g>
<!-- Node33 -->
<g id="node5" class="node"><title>Node33</title>
<g id="a_node5"><a xlink:href="class_view_1_1_action_scene.html#a8ecad0a68a274799549da0adce49ea09" target="_top" xlink:title="View::ActionScene::\lupdateEnemyLineOfSight">
<polygon fill="white" stroke="black" points="437,-235.5 437,-265.5 564,-265.5 564,-235.5 437,-235.5"/>
<text text-anchor="start" x="445" y="-253.5" font-family="Helvetica,sans-Serif" font-size="10.00">View::ActionScene::</text>
<text text-anchor="middle" x="500.5" y="-242.5" font-family="Helvetica,sans-Serif" font-size="10.00">updateEnemyLineOfSight</text>
</a>
</g>
</g>
<!-- Node30&#45;&gt;Node33 -->
<g id="edge4" class="edge"><title>Node30&#45;&gt;Node33</title>
<path fill="none" stroke="midnightblue" d="M246.239,-209.812C295.839,-217.781 371.178,-229.884 426.799,-238.82"/>
<polygon fill="midnightblue" stroke="midnightblue" points="426.516,-242.32 436.945,-240.45 427.627,-235.408 426.516,-242.32"/>
</g>
<!-- Node42 -->
<g id="node14" class="node"><title>Node42</title>
<g id="a_node14"><a xlink:href="class_view_1_1_action_scene.html#a4d0be71c24a8d12a73a86fb6d917cc51" target="_top" xlink:title="View::ActionScene::\lenemyWandered">
<polygon fill="white" stroke="black" points="448,-126.5 448,-156.5 553,-156.5 553,-126.5 448,-126.5"/>
<text text-anchor="start" x="456" y="-144.5" font-family="Helvetica,sans-Serif" font-size="10.00">View::ActionScene::</text>
<text text-anchor="middle" x="500.5" y="-133.5" font-family="Helvetica,sans-Serif" font-size="10.00">enemyWandered</text>
</a>
</g>
</g>
<!-- Node30&#45;&gt;Node42 -->
<g id="edge13" class="edge"><title>Node30&#45;&gt;Node42</title>
<path fill="none" stroke="midnightblue" d="M246.239,-191.322C299.228,-180.898 381.595,-164.694 437.912,-153.616"/>
<polygon fill="midnightblue" stroke="midnightblue" points="438.626,-157.042 447.762,-151.678 437.275,-150.174 438.626,-157.042"/>
</g>
<!-- Node44 -->
<g id="node16" class="node"><title>Node44</title>
<g id="a_node16"><a xlink:href="class_view_1_1_action_scene.html#a2406dfeb3e69091ae05e23ef396d08e3" target="_top" xlink:title="View::ActionScene::\lenemyAttacked">
<polygon fill="white" stroke="black" points="448,-186.5 448,-216.5 553,-216.5 553,-186.5 448,-186.5"/>
<text text-anchor="start" x="456" y="-204.5" font-family="Helvetica,sans-Serif" font-size="10.00">View::ActionScene::</text>
<text text-anchor="middle" x="500.5" y="-193.5" font-family="Helvetica,sans-Serif" font-size="10.00">enemyAttacked</text>
</a>
</g>
</g>
<!-- Node30&#45;&gt;Node44 -->
<g id="edge16" class="edge"><title>Node30&#45;&gt;Node44</title>
<path fill="none" stroke="midnightblue" d="M246.239,-201.5C299.119,-201.5 381.254,-201.5 437.562,-201.5"/>
<polygon fill="midnightblue" stroke="midnightblue" points="437.762,-205 447.762,-201.5 437.762,-198 437.762,-205"/>
</g>
<!-- Node46 -->
<g id="node18" class="node"><title>Node46</title>
<g id="a_node18"><a xlink:href="class_view_1_1_action_scene.html#a03d6bd779731feb9bc256844ec3fb0ae" target="_top" xlink:title="View::ActionScene::\lenemyPatrolled">
<polygon fill="white" stroke="black" points="289,-82.5 289,-112.5 394,-112.5 394,-82.5 289,-82.5"/>
<text text-anchor="start" x="297" y="-100.5" font-family="Helvetica,sans-Serif" font-size="10.00">View::ActionScene::</text>
<text text-anchor="middle" x="341.5" y="-89.5" font-family="Helvetica,sans-Serif" font-size="10.00">enemyPatrolled</text>
</a>
</g>
</g>
<!-- Node30&#45;&gt;Node46 -->
<g id="edge24" class="edge"><title>Node30&#45;&gt;Node46</title>
<path fill="none" stroke="midnightblue" d="M215.308,-186.405C233.003,-173.595 259.11,-154.761 282,-138.5 291.194,-131.968 301.239,-124.904 310.368,-118.509"/>
<polygon fill="midnightblue" stroke="midnightblue" points="312.596,-121.222 318.784,-112.622 308.584,-115.486 312.596,-121.222"/>
</g>
<!-- Node32 -->
<g id="node4" class="node"><title>Node32</title>
<g id="a_node4"><a xlink:href="class_view_1_1_action_scene_feet.html#a74dfcd6e4a0b5d3fc3dd27079107ecdc" target="_top" xlink:title="View::ActionSceneFeet\l::setPosition">
<polygon fill="white" stroke="black" points="441,-284.5 441,-314.5 560,-314.5 560,-284.5 441,-284.5"/>
<text text-anchor="start" x="449" y="-302.5" font-family="Helvetica,sans-Serif" font-size="10.00">View::ActionSceneFeet</text>
<text text-anchor="middle" x="500.5" y="-291.5" font-family="Helvetica,sans-Serif" font-size="10.00">::setPosition</text>
</a>
</g>
</g>
<!-- Node31&#45;&gt;Node32 -->
<g id="edge3" class="edge"><title>Node31&#45;&gt;Node32</title>
<path fill="none" stroke="midnightblue" d="M401.408,-295.751C410.965,-296.117 420.937,-296.498 430.705,-296.871"/>
<polygon fill="midnightblue" stroke="midnightblue" points="430.658,-300.372 440.784,-297.256 430.925,-293.377 430.658,-300.372"/>
</g>
<!-- Node34 -->
<g id="node6" class="node"><title>Node34</title>
<g id="a_node6"><a xlink:href="class_view_1_1_action_scene_n_p_c.html#a5d04b31e451848aec804ce99864800ca" target="_top" xlink:title="View::ActionSceneNPC\l::isDead">
<polygon fill="white" stroke="black" points="600,-235.5 600,-265.5 719,-265.5 719,-235.5 600,-235.5"/>
<text text-anchor="start" x="608" y="-253.5" font-family="Helvetica,sans-Serif" font-size="10.00">View::ActionSceneNPC</text>
<text text-anchor="middle" x="659.5" y="-242.5" font-family="Helvetica,sans-Serif" font-size="10.00">::isDead</text>
</a>
</g>
</g>
<!-- Node33&#45;&gt;Node34 -->
<g id="edge5" class="edge"><title>Node33&#45;&gt;Node34</title>
<path fill="none" stroke="midnightblue" d="M564.002,-250.5C572.391,-250.5 581.035,-250.5 589.528,-250.5"/>
<polygon fill="midnightblue" stroke="midnightblue" points="589.786,-254 599.786,-250.5 589.786,-247 589.786,-254"/>
</g>
<!-- Node35 -->
<g id="node7" class="node"><title>Node35</title>
<g id="a_node7"><a xlink:href="class_view_1_1_action_scene_n_p_c.html#a9065e80ab1349445972a44657234a35f" target="_top" xlink:title="View::ActionSceneNPC\l::getId">
<polygon fill="white" stroke="black" points="600,-186.5 600,-216.5 719,-216.5 719,-186.5 600,-186.5"/>
<text text-anchor="start" x="608" y="-204.5" font-family="Helvetica,sans-Serif" font-size="10.00">View::ActionSceneNPC</text>
<text text-anchor="middle" x="659.5" y="-193.5" font-family="Helvetica,sans-Serif" font-size="10.00">::getId</text>
</a>
</g>
</g>
<!-- Node33&#45;&gt;Node35 -->
<g id="edge6" class="edge"><title>Node33&#45;&gt;Node35</title>
<path fill="none" stroke="midnightblue" d="M549.886,-235.399C565.929,-230.392 583.949,-224.768 600.631,-219.561"/>
<polygon fill="midnightblue" stroke="midnightblue" points="601.77,-222.872 610.274,-216.552 599.685,-216.19 601.77,-222.872"/>
</g>
<!-- Node36 -->
<g id="node8" class="node"><title>Node36</title>
<g id="a_node8"><a xlink:href="class_view_1_1_action_scene_n_p_c.html#ad5b240c242c1f22de0b4c141c8a613ed" target="_top" xlink:title="View::ActionSceneNPC\l::getTarget">
<polygon fill="white" stroke="black" points="600,-333.5 600,-363.5 719,-363.5 719,-333.5 600,-333.5"/>
<text text-anchor="start" x="608" y="-351.5" font-family="Helvetica,sans-Serif" font-size="10.00">View::ActionSceneNPC</text>
<text text-anchor="middle" x="659.5" y="-340.5" font-family="Helvetica,sans-Serif" font-size="10.00">::getTarget</text>
</a>
</g>
</g>
<!-- Node33&#45;&gt;Node36 -->
<g id="edge7" class="edge"><title>Node33&#45;&gt;Node36</title>
<path fill="none" stroke="midnightblue" d="M549.449,-265.582C554.596,-268.156 559.565,-271.115 564,-274.5 585.482,-290.895 578.827,-306.708 600,-323.5 602.082,-325.151 604.29,-326.713 606.581,-328.188"/>
<polygon fill="midnightblue" stroke="midnightblue" points="605.328,-331.504 615.743,-333.447 608.813,-325.433 605.328,-331.504"/>
</g>
<!-- Node37 -->
<g id="node9" class="node"><title>Node37</title>
<g id="a_node9"><a xlink:href="class_view_1_1_action_scene.html#a62ad930d90fc2b1bb64d0852d9073c9b" target="_top" xlink:title="View::ActionScene::\lcheckBlockedView">
<polygon fill="white" stroke="black" points="607,-382.5 607,-412.5 712,-412.5 712,-382.5 607,-382.5"/>
<text text-anchor="start" x="615" y="-400.5" font-family="Helvetica,sans-Serif" font-size="10.00">View::ActionScene::</text>
<text text-anchor="middle" x="659.5" y="-389.5" font-family="Helvetica,sans-Serif" font-size="10.00">checkBlockedView</text>
</a>
</g>
</g>
<!-- Node33&#45;&gt;Node37 -->
<g id="edge8" class="edge"><title>Node33&#45;&gt;Node37</title>
<path fill="none" stroke="midnightblue" d="M552.638,-265.657C556.788,-268.174 560.661,-271.1 564,-274.5 596.809,-307.9 567.572,-339.73 600,-373.5 600.92,-374.458 601.883,-375.378 602.883,-376.263"/>
<polygon fill="midnightblue" stroke="midnightblue" points="601.059,-379.266 611.187,-382.375 605.208,-373.629 601.059,-379.266"/>
</g>
<!-- Node38 -->
<g id="node10" class="node"><title>Node38</title>
<g id="a_node10"><a xlink:href="class_view_1_1_action_scene_n_p_c.html#ab362917c5b032ed8ec63a503a2b84e6e" target="_top" xlink:title="View::ActionSceneNPC\l::setTarget">
<polygon fill="white" stroke="black" points="600,-284.5 600,-314.5 719,-314.5 719,-284.5 600,-284.5"/>
<text text-anchor="start" x="608" y="-302.5" font-family="Helvetica,sans-Serif" font-size="10.00">View::ActionSceneNPC</text>
<text text-anchor="middle" x="659.5" y="-291.5" font-family="Helvetica,sans-Serif" font-size="10.00">::setTarget</text>
</a>
</g>
</g>
<!-- Node33&#45;&gt;Node38 -->
<g id="edge9" class="edge"><title>Node33&#45;&gt;Node38</title>
<path fill="none" stroke="midnightblue" d="M549.886,-265.601C565.929,-270.608 583.949,-276.232 600.631,-281.439"/>
<polygon fill="midnightblue" stroke="midnightblue" points="599.685,-284.81 610.274,-284.448 601.77,-278.128 599.685,-284.81"/>
</g>
<!-- Node39 -->
<g id="node11" class="node"><title>Node39</title>
<g id="a_node11"><a xlink:href="class_view_1_1_action_scene_n_p_c.html#a63c01e4d67db25532448053814a4a917" target="_top" xlink:title="View::ActionSceneNPC\l::setAIMode">
<polygon fill="white" stroke="black" points="600,-88.5 600,-118.5 719,-118.5 719,-88.5 600,-88.5"/>
<text text-anchor="start" x="608" y="-106.5" font-family="Helvetica,sans-Serif" font-size="10.00">View::ActionSceneNPC</text>
<text text-anchor="middle" x="659.5" y="-95.5" font-family="Helvetica,sans-Serif" font-size="10.00">::setAIMode</text>
</a>
</g>
</g>
<!-- Node33&#45;&gt;Node39 -->
<g id="edge10" class="edge"><title>Node33&#45;&gt;Node39</title>
<path fill="none" stroke="midnightblue" d="M551.107,-235.414C555.835,-232.632 560.253,-229.355 564,-225.5 596.34,-192.226 567.806,-160.916 600,-127.5 600.921,-126.544 601.886,-125.625 602.888,-124.741"/>
<polygon fill="midnightblue" stroke="midnightblue" points="605.211,-127.377 611.199,-118.636 601.067,-121.735 605.211,-127.377"/>
</g>
<!-- Node40 -->
<g id="node12" class="node"><title>Node40</title>
<g id="a_node12"><a xlink:href="class_view_1_1_action_scene_n_p_c.html#a32b28c35cccc25fa39d60462235776f3" target="_top" xlink:title="View::ActionSceneNPC\l::setRunSpeed">
<polygon fill="white" stroke="black" points="755,-88.5 755,-118.5 874,-118.5 874,-88.5 755,-88.5"/>
<text text-anchor="start" x="763" y="-106.5" font-family="Helvetica,sans-Serif" font-size="10.00">View::ActionSceneNPC</text>
<text text-anchor="middle" x="814.5" y="-95.5" font-family="Helvetica,sans-Serif" font-size="10.00">::setRunSpeed</text>
</a>
</g>
</g>
<!-- Node39&#45;&gt;Node40 -->
<g id="edge11" class="edge"><title>Node39&#45;&gt;Node40</title>
<path fill="none" stroke="midnightblue" d="M719.216,-103.5C727.544,-103.5 736.169,-103.5 744.667,-103.5"/>
<polygon fill="midnightblue" stroke="midnightblue" points="744.941,-107 754.941,-103.5 744.941,-100 744.941,-107"/>
</g>
<!-- Node41 -->
<g id="node13" class="node"><title>Node41</title>
<g id="a_node13"><a xlink:href="class_view_1_1_action_scene_feet.html#a160793a00dcf4b16bcda158571f56773" target="_top" xlink:title="View::ActionSceneFeet\l::setRunning">
<polygon fill="white" stroke="black" points="910,-88.5 910,-118.5 1029,-118.5 1029,-88.5 910,-88.5"/>
<text text-anchor="start" x="918" y="-106.5" font-family="Helvetica,sans-Serif" font-size="10.00">View::ActionSceneFeet</text>
<text text-anchor="middle" x="969.5" y="-95.5" font-family="Helvetica,sans-Serif" font-size="10.00">::setRunning</text>
</a>
</g>
</g>
<!-- Node40&#45;&gt;Node41 -->
<g id="edge12" class="edge"><title>Node40&#45;&gt;Node41</title>
<path fill="none" stroke="midnightblue" d="M874.216,-103.5C882.544,-103.5 891.169,-103.5 899.667,-103.5"/>
<polygon fill="midnightblue" stroke="midnightblue" points="899.941,-107 909.941,-103.5 899.941,-100 899.941,-107"/>
</g>
<!-- Node42&#45;&gt;Node39 -->
<g id="edge14" class="edge"><title>Node42&#45;&gt;Node39</title>
<path fill="none" stroke="midnightblue" d="M553.343,-128.952C565.112,-126.103 577.789,-123.035 590.127,-120.049"/>
<polygon fill="midnightblue" stroke="midnightblue" points="591.029,-123.432 599.925,-117.677 589.382,-116.628 591.029,-123.432"/>
</g>
<!-- Node43 -->
<g id="node15" class="node"><title>Node43</title>
<g id="a_node15"><a xlink:href="class_view_1_1_action_scene_n_p_c.html#a2d64f4b6f2eb5eedb8360fb8dc33b606" target="_top" xlink:title="View::ActionSceneNPC\l::moveToPoint">
<polygon fill="white" stroke="black" points="600,-39.5 600,-69.5 719,-69.5 719,-39.5 600,-39.5"/>
<text text-anchor="start" x="608" y="-57.5" font-family="Helvetica,sans-Serif" font-size="10.00">View::ActionSceneNPC</text>
<text text-anchor="middle" x="659.5" y="-46.5" font-family="Helvetica,sans-Serif" font-size="10.00">::moveToPoint</text>
</a>
</g>
</g>
<!-- Node42&#45;&gt;Node43 -->
<g id="edge15" class="edge"><title>Node42&#45;&gt;Node43</title>
<path fill="none" stroke="midnightblue" d="M522.739,-126.33C542.25,-112.783 572.26,-92.9127 600,-78.5 603.114,-76.882 606.363,-75.2938 609.664,-73.7533"/>
<polygon fill="midnightblue" stroke="midnightblue" points="611.343,-76.8362 619.037,-69.5525 608.48,-70.4483 611.343,-76.8362"/>
</g>
<!-- Node44&#45;&gt;Node34 -->
<g id="edge17" class="edge"><title>Node44&#45;&gt;Node34</title>
<path fill="none" stroke="midnightblue" d="M549.886,-216.601C565.929,-221.608 583.949,-227.232 600.631,-232.439"/>
<polygon fill="midnightblue" stroke="midnightblue" points="599.685,-235.81 610.274,-235.448 601.77,-229.128 599.685,-235.81"/>
</g>
<!-- Node44&#45;&gt;Node35 -->
<g id="edge21" class="edge"><title>Node44&#45;&gt;Node35</title>
<path fill="none" stroke="midnightblue" d="M553.343,-201.5C564.996,-201.5 577.538,-201.5 589.76,-201.5"/>
<polygon fill="midnightblue" stroke="midnightblue" points="589.925,-205 599.925,-201.5 589.925,-198 589.925,-205"/>
</g>
<!-- Node44&#45;&gt;Node36 -->
<g id="edge18" class="edge"><title>Node44&#45;&gt;Node36</title>
<path fill="none" stroke="midnightblue" d="M552.626,-216.668C556.778,-219.183 560.655,-222.106 564,-225.5 596.57,-258.549 568.05,-289.85 600,-323.5 601.369,-324.942 602.834,-326.304 604.376,-327.592"/>
<polygon fill="midnightblue" stroke="midnightblue" points="602.441,-330.51 612.628,-333.421 606.48,-324.793 602.441,-330.51"/>
</g>
<!-- Node44&#45;&gt;Node38 -->
<g id="edge19" class="edge"><title>Node44&#45;&gt;Node38</title>
<path fill="none" stroke="midnightblue" d="M549.449,-216.582C554.596,-219.156 559.565,-222.115 564,-225.5 585.482,-241.895 578.827,-257.708 600,-274.5 602.082,-276.151 604.29,-277.713 606.581,-279.188"/>
<polygon fill="midnightblue" stroke="midnightblue" points="605.328,-282.504 615.743,-284.447 608.813,-276.433 605.328,-282.504"/>
</g>
<!-- Node44&#45;&gt;Node39 -->
<g id="edge20" class="edge"><title>Node44&#45;&gt;Node39</title>
<path fill="none" stroke="midnightblue" d="M531.567,-186.499C542.244,-180.584 554.067,-173.329 564,-165.5 582.271,-151.099 580.81,-140.653 600,-127.5 602.1,-126.061 604.299,-124.686 606.562,-123.374"/>
<polygon fill="midnightblue" stroke="midnightblue" points="608.329,-126.4 615.537,-118.635 605.06,-120.21 608.329,-126.4"/>
</g>
<!-- Node44&#45;&gt;Node43 -->
<g id="edge22" class="edge"><title>Node44&#45;&gt;Node43</title>
<path fill="none" stroke="midnightblue" d="M536.881,-186.405C546.635,-180.935 556.567,-173.971 564,-165.5 591.601,-134.047 570.366,-108.045 600,-78.5 601.069,-77.4343 602.192,-76.4138 603.36,-75.4368"/>
<polygon fill="midnightblue" stroke="midnightblue" points="605.477,-78.2267 611.628,-69.6005 601.44,-72.5079 605.477,-78.2267"/>
</g>
<!-- Node45 -->
<g id="node17" class="node"><title>Node45</title>
<g id="a_node17"><a xlink:href="class_view_1_1_action_scene.html#a6bfb112aa7244a19a1f1c1e7444a2195" target="_top" xlink:title="View::ActionScene::\lactorWasHit">
<polygon fill="white" stroke="black" points="607,-137.5 607,-167.5 712,-167.5 712,-137.5 607,-137.5"/>
<text text-anchor="start" x="615" y="-155.5" font-family="Helvetica,sans-Serif" font-size="10.00">View::ActionScene::</text>
<text text-anchor="middle" x="659.5" y="-144.5" font-family="Helvetica,sans-Serif" font-size="10.00">actorWasHit</text>
</a>
</g>
</g>
<!-- Node44&#45;&gt;Node45 -->
<g id="edge23" class="edge"><title>Node44&#45;&gt;Node45</title>
<path fill="none" stroke="midnightblue" d="M549.886,-186.399C565.929,-181.392 583.949,-175.768 600.631,-170.561"/>
<polygon fill="midnightblue" stroke="midnightblue" points="601.77,-173.872 610.274,-167.552 599.685,-167.19 601.77,-173.872"/>
</g>
<!-- Node46&#45;&gt;Node39 -->
<g id="edge27" class="edge"><title>Node46&#45;&gt;Node39</title>
<path fill="none" stroke="midnightblue" d="M394.327,-98.4841C447.597,-99.4955 530.834,-101.076 589.617,-102.192"/>
<polygon fill="midnightblue" stroke="midnightblue" points="589.865,-105.697 599.929,-102.388 589.998,-98.6986 589.865,-105.697"/>
</g>
<!-- Node46&#45;&gt;Node42 -->
<g id="edge28" class="edge"><title>Node46&#45;&gt;Node42</title>
<path fill="none" stroke="midnightblue" d="M394.343,-112.029C408.349,-115.954 423.64,-120.24 438.115,-124.296"/>
<polygon fill="midnightblue" stroke="midnightblue" points="437.406,-127.733 447.979,-127.061 439.295,-120.992 437.406,-127.733"/>
</g>
<!-- Node46&#45;&gt;Node43 -->
<g id="edge26" class="edge"><title>Node46&#45;&gt;Node43</title>
<path fill="none" stroke="midnightblue" d="M394.327,-90.4476C447.707,-83.1839 531.179,-71.8253 589.982,-63.8236"/>
<polygon fill="midnightblue" stroke="midnightblue" points="590.493,-67.2865 599.929,-62.4701 589.549,-60.3504 590.493,-67.2865"/>
</g>
<!-- Node47 -->
<g id="node19" class="node"><title>Node47</title>
<g id="a_node19"><a xlink:href="class_view_1_1_action_scene_n_p_c.html#aebeb555dcc879bbab68a98565c5f8307" target="_top" xlink:title="View::ActionSceneNPC\l::getMoving">
<polygon fill="white" stroke="black" points="441,-0.5 441,-30.5 560,-30.5 560,-0.5 441,-0.5"/>
<text text-anchor="start" x="449" y="-18.5" font-family="Helvetica,sans-Serif" font-size="10.00">View::ActionSceneNPC</text>
<text text-anchor="middle" x="500.5" y="-7.5" font-family="Helvetica,sans-Serif" font-size="10.00">::getMoving</text>
</a>
</g>
</g>
<!-- Node46&#45;&gt;Node47 -->
<g id="edge25" class="edge"><title>Node46&#45;&gt;Node47</title>
<path fill="none" stroke="midnightblue" d="M369.171,-82.307C387.985,-71.7175 413.856,-57.4107 437,-45.5 443.695,-42.0543 450.851,-38.5011 457.842,-35.0987"/>
<polygon fill="midnightblue" stroke="midnightblue" points="459.729,-38.0744 467.215,-30.5767 456.687,-31.7698 459.729,-38.0744"/>
</g>
</g>
</svg>
        <g id="navigator" transform="translate(0 0)" fill="#404254">
                <rect fill="#f2f5e9" fill-opacity="0.5" stroke="#606060" stroke-width=".5" x="0" y="0" width="60" height="60"/>
                <use id="zoomplus" xlink:href="#zoomPlus" x="17" y="9" onmousedown="handleZoom(evt,'in')"/>
                <use id="zoomminus" xlink:href="#zoomMin" x="42" y="9" onmousedown="handleZoom(evt,'out')"/>
                <use id="reset" xlink:href="#resetDef" x="30" y="36" onmousedown="handleReset()"/>
                <g id="arrowUp" xlink:href="#dirArrow" transform="translate(30 24)" onmousedown="handlePan(0,-1)">
                  <use xlink:href="#rim" fill="#404040">
                        <set attributeName="fill" to="#808080" begin="arrowUp.mouseover" end="arrowUp.mouseout"/>
                  </use>
                  <path fill="none" stroke="white" stroke-width="1.5" d="M0,-3.0v7 M-2.5,-0.5L0,-3.0L2.5,-0.5"/>
                </g>
                <g id="arrowRight" xlink:href="#dirArrow" transform="rotate(90) translate(36 -43)" onmousedown="handlePan(1,0)">
                  <use xlink:href="#rim" fill="#404040">
                        <set attributeName="fill" to="#808080" begin="arrowRight.mouseover" end="arrowRight.mouseout"/>
                  </use>
                  <path fill="none" stroke="white" stroke-width="1.5" d="M0,-3.0v7 M-2.5,-0.5L0,-3.0L2.5,-0.5"/>
                </g>
                <g id="arrowDown" xlink:href="#dirArrow" transform="rotate(180) translate(-30 -48)" onmousedown="handlePan(0,1)">
                  <use xlink:href="#rim" fill="#404040">
                        <set attributeName="fill" to="#808080" begin="arrowDown.mouseover" end="arrowDown.mouseout"/>
                  </use>
                  <path fill="none" stroke="white" stroke-width="1.5" d="M0,-3.0v7 M-2.5,-0.5L0,-3.0L2.5,-0.5"/>
                </g>
                <g id="arrowLeft" xlink:href="#dirArrow" transform="rotate(270) translate(-36 17)" onmousedown="handlePan(-1,0)">
                  <use xlink:href="#rim" fill="#404040">
                        <set attributeName="fill" to="#808080" begin="arrowLeft.mouseover" end="arrowLeft.mouseout"/>
                  </use>
                  <path fill="none" stroke="white" stroke-width="1.5" d="M0,-3.0v7 M-2.5,-0.5L0,-3.0L2.5,-0.5"/>
                </g>
        </g>
        <svg viewBox="0 0 15 15" width="100%" height="30px" preserveAspectRatio="xMaxYMin meet">
         <g id="arrow_out" transform="scale(0.3 0.3)">
          <a xlink:href="class_view_1_1_action_scene_af2fabc7baae61ac07ca1a0a5d46814cf_cgraph_org.svg" target="_base">
           <rect id="button" ry="5" rx="5" y="6" x="6" height="38" width="38"
                fill="#f2f5e9" fill-opacity="0.5" stroke="#606060" stroke-width="1.0"/>
           <path id="arrow"
             d="M 11.500037,31.436501 C 11.940474,20.09759 22.043105,11.32322 32.158766,21.979434 L 37.068811,17.246167 C 37.068811,17.246167 37.088388,32 37.088388,32 L 22.160133,31.978069 C 22.160133,31.978069 26.997745,27.140456 26.997745,27.140456 C 18.528582,18.264221 13.291696,25.230495 11.500037,31.436501 z"
             style="fill:#404040;"/>
          </a>
         </g>
        </svg>
</svg>
