<?xml version="1.0" encoding="UTF-8" standalone="no"?>
<!DOCTYPE svg PUBLIC "-//W3C//DTD SVG 1.1//EN"
 "http://www.w3.org/Graphics/SVG/1.1/DTD/svg11.dtd">
<!-- Generated by graphviz version 2.38.0 (20140413.2041)
 -->
<!-- Title: View::ActionScenePC::shot Pages: 1 -->
<svg width="419pt" height="137pt"
 viewBox="0.00 0.00 419.00 137.00" xmlns="http://www.w3.org/2000/svg" xmlns:xlink="http://www.w3.org/1999/xlink">
<g id="graph0" class="graph" transform="scale(1 1) rotate(0) translate(4 133)">
<title>View::ActionScenePC::shot</title>
<polygon fill="white" stroke="none" points="-4,4 -4,-133 415,-133 415,4 -4,4"/>
<!-- Node87 -->
<g id="node1" class="node"><title>Node87</title>
<polygon fill="#bfbfbf" stroke="black" points="0,-24.5 0,-54.5 113,-54.5 113,-24.5 0,-24.5"/>
<text text-anchor="start" x="8" y="-42.5" font-family="Helvetica,sans-Serif" font-size="10.00">View::ActionScenePC</text>
<text text-anchor="middle" x="56.5" y="-31.5" font-family="Helvetica,sans-Serif" font-size="10.00">::shot</text>
</g>
<!-- Node88 -->
<g id="node2" class="node"><title>Node88</title>
<g id="a_node2"><a xlink:href="class_view_1_1_action_scene_p_c.html#a3a24db19c0ac423905ab2cb31d387575" target="_top" xlink:title="View::ActionScenePC\l::shoot">
<polygon fill="white" stroke="black" points="149,-47.5 149,-77.5 262,-77.5 262,-47.5 149,-47.5"/>
<text text-anchor="start" x="157" y="-65.5" font-family="Helvetica,sans-Serif" font-size="10.00">View::ActionScenePC</text>
<text text-anchor="middle" x="205.5" y="-54.5" font-family="Helvetica,sans-Serif" font-size="10.00">::shoot</text>
</a>
</g>
</g>
<!-- Node87&#45;&gt;Node88 -->
<g id="edge1" class="edge"><title>Node87&#45;&gt;Node88</title>
<path fill="none" stroke="midnightblue" d="M123.078,-49.7604C131.681,-51.1065 140.43,-52.4754 148.847,-53.7924"/>
<polygon fill="midnightblue" stroke="midnightblue" points="123.495,-46.2833 113.074,-48.1953 122.413,-53.1991 123.495,-46.2833"/>
</g>
<!-- Node91 -->
<g id="node5" class="node"><title>Node91</title>
<g id="a_node5"><a xlink:href="class_view_1_1_action_scene_p_c.html#a7afaff64d6ed89491e87924461270084" target="_top" xlink:title="View::ActionScenePC\l::type">
<polygon fill="white" stroke="black" points="298,-0.5 298,-30.5 411,-30.5 411,-0.5 298,-0.5"/>
<text text-anchor="start" x="306" y="-18.5" font-family="Helvetica,sans-Serif" font-size="10.00">View::ActionScenePC</text>
<text text-anchor="middle" x="354.5" y="-7.5" font-family="Helvetica,sans-Serif" font-size="10.00">::type</text>
</a>
</g>
</g>
<!-- Node87&#45;&gt;Node91 -->
<g id="edge5" class="edge"><title>Node87&#45;&gt;Node91</title>
<path fill="none" stroke="midnightblue" d="M123.376,-34.1587C175.781,-29.9096 248.289,-24.0306 297.823,-20.0143"/>
<polygon fill="midnightblue" stroke="midnightblue" points="122.86,-30.689 113.175,-34.9858 123.426,-37.6661 122.86,-30.689"/>
</g>
<!-- Node89 -->
<g id="node3" class="node"><title>Node89</title>
<g id="a_node3"><a xlink:href="class_view_1_1_action_scene_p_c.html#a714b6915be90d0961d30be1cc19056b9" target="_top" xlink:title="View::ActionScenePC\l::ActionScenePC">
<polygon fill="white" stroke="black" points="298,-98.5 298,-128.5 411,-128.5 411,-98.5 298,-98.5"/>
<text text-anchor="start" x="306" y="-116.5" font-family="Helvetica,sans-Serif" font-size="10.00">View::ActionScenePC</text>
<text text-anchor="middle" x="354.5" y="-105.5" font-family="Helvetica,sans-Serif" font-size="10.00">::ActionScenePC</text>
</a>
</g>
</g>
<!-- Node88&#45;&gt;Node89 -->
<g id="edge2" class="edge"><title>Node88&#45;&gt;Node89</title>
<path fill="none" stroke="midnightblue" d="M259.424,-80.8614C276.104,-86.6485 294.322,-92.969 310.246,-98.4935"/>
<polygon fill="midnightblue" stroke="midnightblue" points="260.405,-77.497 249.81,-77.5258 258.11,-84.1103 260.405,-77.497"/>
</g>
<!-- Node90 -->
<g id="node4" class="node"><title>Node90</title>
<g id="a_node4"><a xlink:href="class_view_1_1_action_scene_p_c.html#aff8e1d5df8a17b2568d14168042bc46a" target="_top" xlink:title="View::ActionScenePC\l::startShooting">
<polygon fill="white" stroke="black" points="298,-49.5 298,-79.5 411,-79.5 411,-49.5 298,-49.5"/>
<text text-anchor="start" x="306" y="-67.5" font-family="Helvetica,sans-Serif" font-size="10.00">View::ActionScenePC</text>
<text text-anchor="middle" x="354.5" y="-56.5" font-family="Helvetica,sans-Serif" font-size="10.00">::startShooting</text>
</a>
</g>
</g>
<!-- Node88&#45;&gt;Node90 -->
<g id="edge3" class="edge"><title>Node88&#45;&gt;Node90</title>
<path fill="none" stroke="midnightblue" d="M272.078,-63.3922C280.681,-63.5093 289.43,-63.6283 297.847,-63.7428"/>
<polygon fill="midnightblue" stroke="midnightblue" points="272.121,-59.8926 262.074,-63.2561 272.026,-66.8919 272.121,-59.8926"/>
</g>
<!-- Node88&#45;&gt;Node91 -->
<g id="edge4" class="edge"><title>Node88&#45;&gt;Node91</title>
<path fill="none" stroke="midnightblue" d="M263.165,-44.3826C277.497,-39.8004 292.731,-34.9295 306.526,-30.519"/>
<polygon fill="midnightblue" stroke="midnightblue" points="261.875,-41.1205 253.416,-47.4997 264.007,-47.788 261.875,-41.1205"/>
</g>
</g>
</svg>
