<?xml version="1.0" encoding="UTF-8" standalone="no"?>
<!DOCTYPE svg PUBLIC "-//W3C//DTD SVG 1.1//EN"
 "http://www.w3.org/Graphics/SVG/1.1/DTD/svg11.dtd">
<!-- Generated by graphviz version 2.38.0 (20140413.2041)
 -->
<!-- Title: View::ActionSceneBigExplosion Pages: 1 -->
<svg width="195pt" height="237pt"
 viewBox="0.00 0.00 194.50 237.00" xmlns="http://www.w3.org/2000/svg" xmlns:xlink="http://www.w3.org/1999/xlink">
<g id="graph0" class="graph" transform="scale(1 1) rotate(0) translate(4 233)">
<title>View::ActionSceneBigExplosion</title>
<polygon fill="white" stroke="none" points="-4,4 -4,-233 190.5,-233 190.5,4 -4,4"/>
<!-- Node0 -->
<g id="node1" class="node"><title>Node0</title>
<polygon fill="#bfbfbf" stroke="black" points="0,-0.5 0,-134.5 156,-134.5 156,-0.5 0,-0.5"/>
<text text-anchor="middle" x="78" y="-122.5" font-family="Helvetica,sans-Serif" font-size="10.00">View::ActionSceneBigExplosion</text>
<polyline fill="none" stroke="black" points="0,-115.5 156,-115.5 "/>
<text text-anchor="start" x="8" y="-103.5" font-family="Helvetica,sans-Serif" font-size="10.00">&#45; frameCounter_</text>
<text text-anchor="start" x="8" y="-92.5" font-family="Helvetica,sans-Serif" font-size="10.00">&#45; animTimer_</text>
<text text-anchor="start" x="8" y="-81.5" font-family="Helvetica,sans-Serif" font-size="10.00">&#45; explosionFrames_</text>
<text text-anchor="start" x="8" y="-70.5" font-family="Helvetica,sans-Serif" font-size="10.00">&#45; deathMarker_</text>
<text text-anchor="start" x="8" y="-59.5" font-family="Helvetica,sans-Serif" font-size="10.00">&#45; deathId_</text>
<polyline fill="none" stroke="black" points="0,-52.5 156,-52.5 "/>
<text text-anchor="start" x="8" y="-40.5" font-family="Helvetica,sans-Serif" font-size="10.00">+ ActionSceneBigExplosion()</text>
<text text-anchor="start" x="8" y="-29.5" font-family="Helvetica,sans-Serif" font-size="10.00">+ ~ActionSceneBigExplosion()</text>
<text text-anchor="start" x="8" y="-18.5" font-family="Helvetica,sans-Serif" font-size="10.00">+ setPosition()</text>
<text text-anchor="start" x="8" y="-7.5" font-family="Helvetica,sans-Serif" font-size="10.00">+ nextFrame()</text>
</g>
<!-- Node1 -->
<g id="node2" class="node"><title>Node1</title>
<g id="a_node2"><a xlink:href="class_q_object.html" target="_top" xlink:title="{QObject\n||}">
<polygon fill="white" stroke="black" points="0.5,-171.5 0.5,-228.5 53.5,-228.5 53.5,-171.5 0.5,-171.5"/>
<text text-anchor="middle" x="27" y="-216.5" font-family="Helvetica,sans-Serif" font-size="10.00">QObject</text>
<polyline fill="none" stroke="black" points="0.5,-209.5 53.5,-209.5 "/>
<text text-anchor="middle" x="27" y="-197.5" font-family="Helvetica,sans-Serif" font-size="10.00"> </text>
<polyline fill="none" stroke="black" points="0.5,-190.5 53.5,-190.5 "/>
<text text-anchor="middle" x="27" y="-178.5" font-family="Helvetica,sans-Serif" font-size="10.00"> </text>
</a>
</g>
</g>
<!-- Node1&#45;&gt;Node0 -->
<g id="edge1" class="edge"><title>Node1&#45;&gt;Node0</title>
<path fill="none" stroke="midnightblue" d="M41.4615,-161.996C44.8246,-153.39 48.5051,-143.972 52.1942,-134.533"/>
<polygon fill="none" stroke="midnightblue" points="38.1959,-160.736 37.8158,-171.324 44.7157,-163.284 38.1959,-160.736"/>
</g>
<!-- Node2 -->
<g id="node3" class="node"><title>Node2</title>
<g id="a_node3"><a xlink:href="class_q_graphics_pixmap_item.html" target="_top" xlink:title="{QGraphicsPixmapItem\n||}">
<polygon fill="white" stroke="black" points="71.5,-171.5 71.5,-228.5 186.5,-228.5 186.5,-171.5 71.5,-171.5"/>
<text text-anchor="middle" x="129" y="-216.5" font-family="Helvetica,sans-Serif" font-size="10.00">QGraphicsPixmapItem</text>
<polyline fill="none" stroke="black" points="71.5,-209.5 186.5,-209.5 "/>
<text text-anchor="middle" x="129" y="-197.5" font-family="Helvetica,sans-Serif" font-size="10.00"> </text>
<polyline fill="none" stroke="black" points="71.5,-190.5 186.5,-190.5 "/>
<text text-anchor="middle" x="129" y="-178.5" font-family="Helvetica,sans-Serif" font-size="10.00"> </text>
</a>
</g>
</g>
<!-- Node2&#45;&gt;Node0 -->
<g id="edge2" class="edge"><title>Node2&#45;&gt;Node0</title>
<path fill="none" stroke="midnightblue" d="M114.539,-161.996C111.175,-153.39 107.495,-143.972 103.806,-134.533"/>
<polygon fill="none" stroke="midnightblue" points="111.284,-163.284 118.184,-171.324 117.804,-160.736 111.284,-163.284"/>
</g>
</g>
</svg>
