<?xml version="1.0" encoding="UTF-8" standalone="no"?>
<!DOCTYPE svg PUBLIC "-//W3C//DTD SVG 1.1//EN"
 "http://www.w3.org/Graphics/SVG/1.1/DTD/svg11.dtd">
<!-- Generated by graphviz version 2.38.0 (20140413.2041)
 -->
<!-- Title: Model::parkSpaceInserter::addSpaces Pages: 1 -->
<svg width="945pt" height="416pt"
 viewBox="0.00 0.00 945.00 416.18" xmlns="http://www.w3.org/2000/svg" xmlns:xlink="http://www.w3.org/1999/xlink">
<g id="graph0" class="graph" transform="scale(1 1) rotate(0) translate(4 412.178)">
<title>Model::parkSpaceInserter::addSpaces</title>
<polygon fill="white" stroke="none" points="-4,4 -4,-412.178 941,-412.178 941,4 -4,4"/>
<!-- Node15 -->
<g id="node1" class="node"><title>Node15</title>
<polygon fill="#bfbfbf" stroke="black" points="0,-194.5 0,-224.5 128,-224.5 128,-194.5 0,-194.5"/>
<text text-anchor="start" x="8" y="-212.5" font-family="Helvetica,sans-Serif" font-size="10.00">Model::parkSpaceInserter</text>
<text text-anchor="middle" x="64" y="-201.5" font-family="Helvetica,sans-Serif" font-size="10.00">::addSpaces</text>
</g>
<!-- Node16 -->
<g id="node2" class="node"><title>Node16</title>
<g id="a_node2"><a xlink:href="class_model_1_1park_space_inserter.html#a20265678d0e7cfc25daef80afaa1ba86" target="_top" xlink:title="Model::parkSpaceInserter\l::addParkingSpaces_">
<polygon fill="white" stroke="black" points="328,-115.5 328,-145.5 456,-145.5 456,-115.5 328,-115.5"/>
<text text-anchor="start" x="336" y="-133.5" font-family="Helvetica,sans-Serif" font-size="10.00">Model::parkSpaceInserter</text>
<text text-anchor="middle" x="392" y="-122.5" font-family="Helvetica,sans-Serif" font-size="10.00">::addParkingSpaces_</text>
</a>
</g>
</g>
<!-- Node15&#45;&gt;Node16 -->
<g id="edge1" class="edge"><title>Node15&#45;&gt;Node16</title>
<path fill="none" stroke="midnightblue" d="M127.085,-194.455C181.834,-181.188 261.623,-161.852 319.122,-147.918"/>
<polygon fill="midnightblue" stroke="midnightblue" points="319.974,-151.313 328.869,-145.556 318.326,-144.51 319.974,-151.313"/>
</g>
<!-- Node26 -->
<g id="node12" class="node"><title>Node26</title>
<g id="a_node12"><a xlink:href="class_model_1_1park_space_inserter.html#ada0688360de1fb7d5bd138f2f645bea6" target="_top" xlink:title="Model::parkSpaceInserter\l::removeBlockedSpaces">
<polygon fill="white" stroke="black" points="164,-235.5 164,-265.5 292,-265.5 292,-235.5 164,-235.5"/>
<text text-anchor="start" x="172" y="-253.5" font-family="Helvetica,sans-Serif" font-size="10.00">Model::parkSpaceInserter</text>
<text text-anchor="middle" x="228" y="-242.5" font-family="Helvetica,sans-Serif" font-size="10.00">::removeBlockedSpaces</text>
</a>
</g>
</g>
<!-- Node15&#45;&gt;Node26 -->
<g id="edge17" class="edge"><title>Node15&#45;&gt;Node26</title>
<path fill="none" stroke="midnightblue" d="M124.403,-224.534C135.298,-227.292 146.756,-230.191 157.907,-233.013"/>
<polygon fill="midnightblue" stroke="midnightblue" points="157.051,-236.407 167.604,-235.468 158.769,-229.621 157.051,-236.407"/>
</g>
<!-- Node17 -->
<g id="node3" class="node"><title>Node17</title>
<g id="a_node3"><a xlink:href="class_model_1_1map_generator.html#a918049786b708772ca97df76389955a7" target="_top" xlink:title="Model::mapGenerator\l::getClosestEdge">
<polygon fill="white" stroke="black" points="501,-49.5 501,-79.5 611,-79.5 611,-49.5 501,-49.5"/>
<text text-anchor="start" x="509" y="-67.5" font-family="Helvetica,sans-Serif" font-size="10.00">Model::mapGenerator</text>
<text text-anchor="middle" x="556" y="-56.5" font-family="Helvetica,sans-Serif" font-size="10.00">::getClosestEdge</text>
</a>
</g>
</g>
<!-- Node16&#45;&gt;Node17 -->
<g id="edge2" class="edge"><title>Node16&#45;&gt;Node17</title>
<path fill="none" stroke="midnightblue" d="M430.166,-115.358C453.422,-105.884 483.576,-93.5987 508.422,-83.4763"/>
<polygon fill="midnightblue" stroke="midnightblue" points="510.066,-86.5856 518.007,-79.5713 507.425,-80.103 510.066,-86.5856"/>
</g>
<!-- Node19 -->
<g id="node5" class="node"><title>Node19</title>
<g id="a_node5"><a xlink:href="class_model_1_1map_generator.html#aaac1161126a56490862e3b5fffffbded" target="_top" xlink:title="Model::mapGenerator\l::indexAt">
<polygon fill="white" stroke="black" points="668.5,-126.5 668.5,-156.5 778.5,-156.5 778.5,-126.5 668.5,-126.5"/>
<text text-anchor="start" x="676.5" y="-144.5" font-family="Helvetica,sans-Serif" font-size="10.00">Model::mapGenerator</text>
<text text-anchor="middle" x="723.5" y="-133.5" font-family="Helvetica,sans-Serif" font-size="10.00">::indexAt</text>
</a>
</g>
</g>
<!-- Node16&#45;&gt;Node19 -->
<g id="edge12" class="edge"><title>Node16&#45;&gt;Node19</title>
<path fill="none" stroke="midnightblue" d="M456.104,-128.302C468.026,-127.967 480.394,-127.676 492,-127.5 548.882,-126.638 563.242,-123.642 620,-127.5 632.443,-128.346 645.676,-129.763 658.357,-131.379"/>
<polygon fill="midnightblue" stroke="midnightblue" points="658.008,-134.863 668.382,-132.71 658.93,-127.924 658.008,-134.863"/>
</g>
<!-- Node21 -->
<g id="node7" class="node"><title>Node21</title>
<g id="a_node7"><a xlink:href="class_model_1_1park_space_inserter.html#a60ef5f3d1e5b3b726cc1ec9d4a200151" target="_top" xlink:title="Model::parkSpaceInserter\l::getWallTiles">
<polygon fill="white" stroke="black" points="492,-0.5 492,-30.5 620,-30.5 620,-0.5 492,-0.5"/>
<text text-anchor="start" x="500" y="-18.5" font-family="Helvetica,sans-Serif" font-size="10.00">Model::parkSpaceInserter</text>
<text text-anchor="middle" x="556" y="-7.5" font-family="Helvetica,sans-Serif" font-size="10.00">::getWallTiles</text>
</a>
</g>
</g>
<!-- Node16&#45;&gt;Node21 -->
<g id="edge6" class="edge"><title>Node16&#45;&gt;Node21</title>
<path fill="none" stroke="midnightblue" d="M406.024,-115.386C423.746,-95.6178 457.249,-60.981 492,-39.5 494.604,-37.8903 497.334,-36.3591 500.136,-34.9069"/>
<polygon fill="midnightblue" stroke="midnightblue" points="501.757,-38.0114 509.269,-30.5397 498.737,-31.6963 501.757,-38.0114"/>
</g>
<!-- Node23 -->
<g id="node9" class="node"><title>Node23</title>
<g id="a_node9"><a xlink:href="class_model_1_1map_generator.html#af153f95aea5145100546ad86ac4b9d02" target="_top" xlink:title="Model::mapGenerator\l::indexToX">
<polygon fill="white" stroke="black" points="501,-186.5 501,-216.5 611,-216.5 611,-186.5 501,-186.5"/>
<text text-anchor="start" x="509" y="-204.5" font-family="Helvetica,sans-Serif" font-size="10.00">Model::mapGenerator</text>
<text text-anchor="middle" x="556" y="-193.5" font-family="Helvetica,sans-Serif" font-size="10.00">::indexToX</text>
</a>
</g>
</g>
<!-- Node16&#45;&gt;Node23 -->
<g id="edge13" class="edge"><title>Node16&#45;&gt;Node23</title>
<path fill="none" stroke="midnightblue" d="M424.448,-145.672C443.805,-154.871 469.194,-166.686 492,-176.5 496.677,-178.512 501.572,-180.559 506.478,-182.57"/>
<polygon fill="midnightblue" stroke="midnightblue" points="505.291,-185.865 515.873,-186.376 507.919,-179.377 505.291,-185.865"/>
</g>
<!-- Node24 -->
<g id="node10" class="node"><title>Node24</title>
<g id="a_node10"><a xlink:href="class_model_1_1map_generator.html#a73020896792ce1a6aa4dd0ce2b9c5caf" target="_top" xlink:title="Model::mapGenerator\l::indexToY">
<polygon fill="white" stroke="black" points="501,-235.5 501,-265.5 611,-265.5 611,-235.5 501,-235.5"/>
<text text-anchor="start" x="509" y="-253.5" font-family="Helvetica,sans-Serif" font-size="10.00">Model::mapGenerator</text>
<text text-anchor="middle" x="556" y="-242.5" font-family="Helvetica,sans-Serif" font-size="10.00">::indexToY</text>
</a>
</g>
</g>
<!-- Node16&#45;&gt;Node24 -->
<g id="edge14" class="edge"><title>Node16&#45;&gt;Node24</title>
<path fill="none" stroke="midnightblue" d="M405.332,-145.544C422.783,-166.016 456.532,-202.702 492,-225.5 494.96,-227.403 498.089,-229.202 501.306,-230.896"/>
<polygon fill="midnightblue" stroke="midnightblue" points="500.016,-234.161 510.539,-235.391 503.08,-227.867 500.016,-234.161"/>
</g>
<!-- Node25 -->
<g id="node11" class="node"><title>Node25</title>
<g id="a_node11"><a xlink:href="class_model_1_1map_generator.html#a180f1510b8d7eb4af5dc919eeaddfa69" target="_top" xlink:title="Model::mapGenerator\l::setTile">
<polygon fill="white" stroke="black" points="501,-137.5 501,-167.5 611,-167.5 611,-137.5 501,-137.5"/>
<text text-anchor="start" x="509" y="-155.5" font-family="Helvetica,sans-Serif" font-size="10.00">Model::mapGenerator</text>
<text text-anchor="middle" x="556" y="-144.5" font-family="Helvetica,sans-Serif" font-size="10.00">::setTile</text>
</a>
</g>
</g>
<!-- Node16&#45;&gt;Node25 -->
<g id="edge15" class="edge"><title>Node16&#45;&gt;Node25</title>
<path fill="none" stroke="midnightblue" d="M456.097,-139.069C467.389,-140.602 479.168,-142.202 490.498,-143.741"/>
<polygon fill="midnightblue" stroke="midnightblue" points="490.37,-147.255 500.75,-145.133 491.312,-140.319 490.37,-147.255"/>
</g>
<!-- Node18 -->
<g id="node4" class="node"><title>Node18</title>
<g id="a_node4"><a xlink:href="class_model_1_1map_generator.html#a02b91ca9a47b993e6fa14b9b0ad317f2" target="_top" xlink:title="Get tile from point in tile coordinates. ">
<polygon fill="white" stroke="black" points="827,-82.5 827,-112.5 937,-112.5 937,-82.5 827,-82.5"/>
<text text-anchor="start" x="835" y="-100.5" font-family="Helvetica,sans-Serif" font-size="10.00">Model::mapGenerator</text>
<text text-anchor="middle" x="882" y="-89.5" font-family="Helvetica,sans-Serif" font-size="10.00">::getTile</text>
</a>
</g>
</g>
<!-- Node17&#45;&gt;Node18 -->
<g id="edge3" class="edge"><title>Node17&#45;&gt;Node18</title>
<path fill="none" stroke="midnightblue" d="M611.23,-70.0235C667.853,-75.7906 756.623,-84.832 816.731,-90.9541"/>
<polygon fill="midnightblue" stroke="midnightblue" points="816.56,-94.4547 826.863,-91.9861 817.269,-87.4907 816.56,-94.4547"/>
</g>
<!-- Node17&#45;&gt;Node19 -->
<g id="edge4" class="edge"><title>Node17&#45;&gt;Node19</title>
<path fill="none" stroke="midnightblue" d="M588.717,-79.5954C615.101,-92.146 649.374,-108.433 656,-111.5 663.518,-114.98 671.535,-118.64 679.306,-122.161"/>
<polygon fill="midnightblue" stroke="midnightblue" points="678.058,-125.438 688.612,-126.365 680.94,-119.058 678.058,-125.438"/>
</g>
<!-- Node20 -->
<g id="node6" class="node"><title>Node20</title>
<g id="a_node6"><a xlink:href="class_model_1_1map_generator.html#a244ad56297f00ce2ab892d3b2a14ffac" target="_top" xlink:title="Model::mapGenerator\l::isInMapRange">
<polygon fill="white" stroke="black" points="827,-17.5 827,-47.5 937,-47.5 937,-17.5 827,-17.5"/>
<text text-anchor="start" x="835" y="-35.5" font-family="Helvetica,sans-Serif" font-size="10.00">Model::mapGenerator</text>
<text text-anchor="middle" x="882" y="-24.5" font-family="Helvetica,sans-Serif" font-size="10.00">::isInMapRange</text>
</a>
</g>
</g>
<!-- Node19&#45;&gt;Node20 -->
<g id="edge5" class="edge"><title>Node19&#45;&gt;Node20</title>
<path fill="none" stroke="midnightblue" d="M746.261,-126.344C773.474,-107.39 820.206,-74.8424 850.853,-53.4971"/>
<polygon fill="midnightblue" stroke="midnightblue" points="853.219,-56.1146 859.424,-47.5273 849.218,-50.3705 853.219,-56.1146"/>
</g>
<!-- Node21&#45;&gt;Node18 -->
<g id="edge10" class="edge"><title>Node21&#45;&gt;Node18</title>
<path fill="none" stroke="midnightblue" d="M619.152,-30.5892C666.351,-42.1245 732.833,-58.5369 791,-73.5 799.42,-75.6661 808.274,-77.9809 817.006,-80.2865"/>
<polygon fill="midnightblue" stroke="midnightblue" points="816.223,-83.6995 826.786,-82.8772 818.015,-76.933 816.223,-83.6995"/>
</g>
<!-- Node21&#45;&gt;Node19 -->
<g id="edge11" class="edge"><title>Node21&#45;&gt;Node19</title>
<path fill="none" stroke="midnightblue" d="M603.518,-30.6411C609.252,-33.2471 614.887,-36.1979 620,-39.5 624.646,-42.5008 671.48,-89.7176 700.208,-118.845"/>
<polygon fill="midnightblue" stroke="midnightblue" points="697.921,-121.51 707.433,-126.175 702.907,-116.596 697.921,-121.51"/>
</g>
<!-- Node22 -->
<g id="node8" class="node"><title>Node22</title>
<g id="a_node8"><a xlink:href="class_model_1_1map_generator.html#a92598d66736c2be4ca83aeedfe478b9d" target="_top" xlink:title="Model::mapGenerator\l::GetSurroundingWallCount">
<polygon fill="white" stroke="black" points="656,-0.5 656,-30.5 791,-30.5 791,-0.5 656,-0.5"/>
<text text-anchor="start" x="664" y="-18.5" font-family="Helvetica,sans-Serif" font-size="10.00">Model::mapGenerator</text>
<text text-anchor="middle" x="723.5" y="-7.5" font-family="Helvetica,sans-Serif" font-size="10.00">::GetSurroundingWallCount</text>
</a>
</g>
</g>
<!-- Node21&#45;&gt;Node22 -->
<g id="edge7" class="edge"><title>Node21&#45;&gt;Node22</title>
<path fill="none" stroke="midnightblue" d="M620.041,-15.5C628.445,-15.5 637.137,-15.5 645.742,-15.5"/>
<polygon fill="midnightblue" stroke="midnightblue" points="645.781,-19.0001 655.781,-15.5 645.781,-12.0001 645.781,-19.0001"/>
</g>
<!-- Node22&#45;&gt;Node18 -->
<g id="edge8" class="edge"><title>Node22&#45;&gt;Node18</title>
<path fill="none" stroke="midnightblue" d="M759.671,-30.5764C769.876,-35.163 780.97,-40.3562 791,-45.5 810.103,-55.2965 830.888,-67.218 847.666,-77.1737"/>
<polygon fill="midnightblue" stroke="midnightblue" points="846.159,-80.3506 856.538,-82.4764 849.75,-74.3419 846.159,-80.3506"/>
</g>
<!-- Node22&#45;&gt;Node20 -->
<g id="edge9" class="edge"><title>Node22&#45;&gt;Node20</title>
<path fill="none" stroke="midnightblue" d="M791.324,-22.7588C799.711,-23.6699 808.277,-24.6004 816.625,-25.5072"/>
<polygon fill="midnightblue" stroke="midnightblue" points="816.354,-28.9983 826.674,-26.5988 817.11,-22.0392 816.354,-28.9983"/>
</g>
<!-- Node25&#45;&gt;Node19 -->
<g id="edge16" class="edge"><title>Node25&#45;&gt;Node19</title>
<path fill="none" stroke="midnightblue" d="M611.191,-148.898C626.271,-147.896 642.792,-146.798 658.384,-145.762"/>
<polygon fill="midnightblue" stroke="midnightblue" points="658.724,-149.247 668.47,-145.091 658.26,-142.262 658.724,-149.247"/>
</g>
<!-- Node26&#45;&gt;Node18 -->
<g id="edge18" class="edge"><title>Node26&#45;&gt;Node18</title>
<path fill="none" stroke="midnightblue" d="M237.317,-265.706C251.969,-290.846 284.95,-340.574 328,-363.5 442.843,-424.66 493.194,-413.648 620,-384.5 702.332,-365.575 732.361,-362.313 791,-301.5 841.301,-249.334 866.163,-164.374 875.892,-122.477"/>
<polygon fill="midnightblue" stroke="midnightblue" points="879.342,-123.086 878.096,-112.565 872.509,-121.567 879.342,-123.086"/>
</g>
<!-- Node26&#45;&gt;Node19 -->
<g id="edge20" class="edge"><title>Node26&#45;&gt;Node19</title>
<path fill="none" stroke="midnightblue" d="M247.659,-265.769C306.735,-312.157 493.234,-443.442 620,-362.5 688.953,-318.472 712.224,-214.804 719.481,-166.761"/>
<polygon fill="midnightblue" stroke="midnightblue" points="722.983,-166.988 720.899,-156.601 716.05,-166.021 722.983,-166.988"/>
</g>
<!-- Node26&#45;&gt;Node23 -->
<g id="edge28" class="edge"><title>Node26&#45;&gt;Node23</title>
<path fill="none" stroke="midnightblue" d="M292.243,-240.994C349.448,-232.396 433.29,-219.794 490.792,-211.151"/>
<polygon fill="midnightblue" stroke="midnightblue" points="491.485,-214.586 500.854,-209.639 490.444,-207.664 491.485,-214.586"/>
</g>
<!-- Node26&#45;&gt;Node24 -->
<g id="edge29" class="edge"><title>Node26&#45;&gt;Node24</title>
<path fill="none" stroke="midnightblue" d="M292.243,-250.5C349.448,-250.5 433.29,-250.5 490.792,-250.5"/>
<polygon fill="midnightblue" stroke="midnightblue" points="490.854,-254 500.854,-250.5 490.854,-247 490.854,-254"/>
</g>
<!-- Node26&#45;&gt;Node25 -->
<g id="edge19" class="edge"><title>Node26&#45;&gt;Node25</title>
<path fill="none" stroke="midnightblue" d="M266.784,-235.415C285.12,-228.342 307.556,-220.051 328,-213.5 382.489,-196.04 445.385,-179.407 491.134,-167.933"/>
<polygon fill="midnightblue" stroke="midnightblue" points="492.062,-171.309 500.918,-165.492 490.368,-164.517 492.062,-171.309"/>
</g>
<!-- Node27 -->
<g id="node13" class="node"><title>Node27</title>
<g id="a_node13"><a xlink:href="class_model_1_1park_space_inserter.html#ab81abccc02f65eed8d54e0d56b234e18" target="_top" xlink:title="Model::parkSpaceInserter\l::floodFill">
<polygon fill="white" stroke="black" points="328,-279.5 328,-309.5 456,-309.5 456,-279.5 328,-279.5"/>
<text text-anchor="start" x="336" y="-297.5" font-family="Helvetica,sans-Serif" font-size="10.00">Model::parkSpaceInserter</text>
<text text-anchor="middle" x="392" y="-286.5" font-family="Helvetica,sans-Serif" font-size="10.00">::floodFill</text>
</a>
</g>
</g>
<!-- Node26&#45;&gt;Node27 -->
<g id="edge21" class="edge"><title>Node26&#45;&gt;Node27</title>
<path fill="none" stroke="midnightblue" d="M284.298,-265.519C297.648,-269.145 312.038,-273.053 325.795,-276.79"/>
<polygon fill="midnightblue" stroke="midnightblue" points="325.108,-280.23 335.676,-279.474 326.943,-273.475 325.108,-280.23"/>
</g>
<!-- Node27&#45;&gt;Node18 -->
<g id="edge22" class="edge"><title>Node27&#45;&gt;Node18</title>
<path fill="none" stroke="midnightblue" d="M408.518,-309.699C426.746,-326.386 458.743,-352.179 492,-362.5 546.332,-379.362 567.525,-384.47 620,-362.5 740.216,-312.169 833.102,-176.49 867.032,-121.319"/>
<polygon fill="midnightblue" stroke="midnightblue" points="870.136,-122.95 872.323,-112.584 864.148,-119.324 870.136,-122.95"/>
</g>
<!-- Node27&#45;&gt;Node19 -->
<g id="edge27" class="edge"><title>Node27&#45;&gt;Node19</title>
<path fill="none" stroke="midnightblue" d="M456.14,-302.05C503.999,-304.792 569.859,-301.96 620,-274.5 664.528,-250.114 695.908,-197.356 711.422,-166.114"/>
<polygon fill="midnightblue" stroke="midnightblue" points="714.726,-167.32 715.898,-156.79 708.415,-164.29 714.726,-167.32"/>
</g>
<!-- Node27&#45;&gt;Node23 -->
<g id="edge25" class="edge"><title>Node27&#45;&gt;Node23</title>
<path fill="none" stroke="midnightblue" d="M411.823,-279.277C431.103,-264.203 462.366,-241.167 492,-225.5 495.243,-223.785 498.637,-222.131 502.095,-220.547"/>
<polygon fill="midnightblue" stroke="midnightblue" points="503.565,-223.725 511.342,-216.529 500.775,-217.305 503.565,-223.725"/>
</g>
<!-- Node27&#45;&gt;Node24 -->
<g id="edge26" class="edge"><title>Node27&#45;&gt;Node24</title>
<path fill="none" stroke="midnightblue" d="M448.298,-279.481C462.076,-275.739 476.96,-271.696 491.114,-267.852"/>
<polygon fill="midnightblue" stroke="midnightblue" points="492.041,-271.227 500.774,-265.228 490.206,-264.472 492.041,-271.227"/>
</g>
<!-- Node27&#45;&gt;Node25 -->
<g id="edge23" class="edge"><title>Node27&#45;&gt;Node25</title>
<path fill="none" stroke="midnightblue" d="M402.067,-279.324C417.574,-254.56 451.471,-205.333 492,-176.5 494.086,-175.016 496.276,-173.61 498.536,-172.28"/>
<polygon fill="midnightblue" stroke="midnightblue" points="500.331,-175.29 507.534,-167.521 497.058,-169.102 500.331,-175.29"/>
</g>
<!-- Node28 -->
<g id="node14" class="node"><title>Node28</title>
<g id="a_node14"><a xlink:href="class_model_1_1park_space_inserter.html#ab86507374576bb3c92a1356507065806" target="_top" xlink:title="Model::parkSpaceInserter\l::getRelativeDirection">
<polygon fill="white" stroke="black" points="492,-323.5 492,-353.5 620,-353.5 620,-323.5 492,-323.5"/>
<text text-anchor="start" x="500" y="-341.5" font-family="Helvetica,sans-Serif" font-size="10.00">Model::parkSpaceInserter</text>
<text text-anchor="middle" x="556" y="-330.5" font-family="Helvetica,sans-Serif" font-size="10.00">::getRelativeDirection</text>
</a>
</g>
</g>
<!-- Node27&#45;&gt;Node28 -->
<g id="edge24" class="edge"><title>Node27&#45;&gt;Node28</title>
<path fill="none" stroke="midnightblue" d="M448.298,-309.519C461.648,-313.145 476.038,-317.053 489.795,-320.79"/>
<polygon fill="midnightblue" stroke="midnightblue" points="489.108,-324.23 499.676,-323.474 490.943,-317.475 489.108,-324.23"/>
</g>
</g>
</svg>
