<?xml version="1.0" encoding="UTF-8" standalone="no"?>
<!DOCTYPE svg PUBLIC "-//W3C//DTD SVG 1.1//EN"
 "http://www.w3.org/Graphics/SVG/1.1/DTD/svg11.dtd">
<!-- Generated by graphviz version 2.38.0 (20140413.2041)
 -->
<!-- Title: View::ActionSceneNPC::moved Pages: 1 -->
<svg width="437pt" height="39pt"
 viewBox="0.00 0.00 437.00 39.00" xmlns="http://www.w3.org/2000/svg" xmlns:xlink="http://www.w3.org/1999/xlink">
<g id="graph0" class="graph" transform="scale(1 1) rotate(0) translate(4 35)">
<title>View::ActionSceneNPC::moved</title>
<polygon fill="white" stroke="none" points="-4,4 -4,-35 433,-35 433,4 -4,4"/>
<!-- Node59 -->
<g id="node1" class="node"><title>Node59</title>
<polygon fill="#bfbfbf" stroke="black" points="0,-0.5 0,-30.5 119,-30.5 119,-0.5 0,-0.5"/>
<text text-anchor="start" x="8" y="-18.5" font-family="Helvetica,sans-Serif" font-size="10.00">View::ActionSceneNPC</text>
<text text-anchor="middle" x="59.5" y="-7.5" font-family="Helvetica,sans-Serif" font-size="10.00">::moved</text>
</g>
<!-- Node60 -->
<g id="node2" class="node"><title>Node60</title>
<g id="a_node2"><a xlink:href="class_view_1_1_action_scene_n_p_c.html#a90dd5d58856a5c950c68a667037169e2" target="_top" xlink:title="View::ActionSceneNPC\l::step">
<polygon fill="white" stroke="black" points="155,-0.5 155,-30.5 274,-30.5 274,-0.5 155,-0.5"/>
<text text-anchor="start" x="163" y="-18.5" font-family="Helvetica,sans-Serif" font-size="10.00">View::ActionSceneNPC</text>
<text text-anchor="middle" x="214.5" y="-7.5" font-family="Helvetica,sans-Serif" font-size="10.00">::step</text>
</a>
</g>
</g>
<!-- Node59&#45;&gt;Node60 -->
<g id="edge1" class="edge"><title>Node59&#45;&gt;Node60</title>
<path fill="none" stroke="midnightblue" d="M129.493,-15.5C137.993,-15.5 146.617,-15.5 154.941,-15.5"/>
<polygon fill="midnightblue" stroke="midnightblue" points="129.216,-12.0001 119.216,-15.5 129.216,-19.0001 129.216,-12.0001"/>
</g>
<!-- Node61 -->
<g id="node3" class="node"><title>Node61</title>
<g id="a_node3"><a xlink:href="class_view_1_1_action_scene_n_p_c.html#a6cee892789b8a4623ea1fbec509b538d" target="_top" xlink:title="View::ActionSceneNPC\l::ActionSceneNPC">
<polygon fill="white" stroke="black" points="310,-0.5 310,-30.5 429,-30.5 429,-0.5 310,-0.5"/>
<text text-anchor="start" x="318" y="-18.5" font-family="Helvetica,sans-Serif" font-size="10.00">View::ActionSceneNPC</text>
<text text-anchor="middle" x="369.5" y="-7.5" font-family="Helvetica,sans-Serif" font-size="10.00">::ActionSceneNPC</text>
</a>
</g>
</g>
<!-- Node60&#45;&gt;Node61 -->
<g id="edge2" class="edge"><title>Node60&#45;&gt;Node61</title>
<path fill="none" stroke="midnightblue" d="M284.493,-15.5C292.993,-15.5 301.617,-15.5 309.941,-15.5"/>
<polygon fill="midnightblue" stroke="midnightblue" points="284.216,-12.0001 274.216,-15.5 284.216,-19.0001 284.216,-12.0001"/>
</g>
</g>
</svg>
