<?xml version="1.0" encoding="UTF-8" standalone="no"?>
<!DOCTYPE svg PUBLIC "-//W3C//DTD SVG 1.1//EN"
 "http://www.w3.org/Graphics/SVG/1.1/DTD/svg11.dtd">
<!-- Generated by graphviz version 2.38.0 (20140413.2041)
 -->
<!-- Title: Model::PlayerParty Pages: 1 -->
<!--zoomable 325 -->
<svg id="main" version="1.1" xmlns="http://www.w3.org/2000/svg" xmlns:xlink="http://www.w3.org/1999/xlink" xml:space="preserve" onload="init(evt)">
<style type="text/css"><![CDATA[
.edge:hover path { stroke: red; }
.edge:hover polygon { stroke: red; fill: red; }
]]></style>
<script type="text/javascript"><![CDATA[
var edges = document.getElementsByTagName('g');
if (edges && edges.length) {
  for (var i=0;i<edges.length;i++) {
    if (edges[i].id.substr(0,4)=='edge') {
      edges[i].setAttribute('class','edge');
    }
  }
}
]]></script>
        <defs>
                <circle id="rim" cx="0" cy="0" r="7"/>
                <circle id="rim2" cx="0" cy="0" r="3.5"/>
                <g id="zoomPlus">
                        <use xlink:href="#rim" fill="#404040">
                                <set attributeName="fill" to="#808080" begin="zoomplus.mouseover" end="zoomplus.mouseout"/>
                        </use>
                        <path d="M-4,0h8M0,-4v8" fill="none" stroke="white" stroke-width="1.5" pointer-events="none"/>
                </g>
                <g id="zoomMin">
                        <use xlink:href="#rim" fill="#404040">
                                <set attributeName="fill" to="#808080" begin="zoomminus.mouseover" end="zoomminus.mouseout"/>
                        </use>
                        <path d="M-4,0h8" fill="none" stroke="white" stroke-width="1.5" pointer-events="none"/>
                </g>
                <g id="dirArrow">
                        <path fill="none" stroke="white" stroke-width="1.5" d="M0,-3.0v7 M-2.5,-0.5L0,-3.0L2.5,-0.5"/>
                </g>
               <g id="resetDef">
                       <use xlink:href="#rim2" fill="#404040">
                               <set attributeName="fill" to="#808080" begin="reset.mouseover" end="reset.mouseout"/>
                       </use>
               </g>
        </defs>

<script type="text/javascript">
var viewWidth = 523;
var viewHeight = 325;
var sectionId = 'dynsection-0';
</script>
<script xlink:href="svgpan.js"/>
<svg id="graph" class="graph">
<g id="viewport">
<title>Model::PlayerParty</title>
<polygon fill="white" stroke="none" points="-4,4 -4,-321 519,-321 519,4 -4,4"/>
<!-- Node1 -->
<g id="node1" class="node"><title>Node1</title>
<polygon fill="#bfbfbf" stroke="black" points="187,-0.5 187,-167.5 308,-167.5 308,-0.5 187,-0.5"/>
<text text-anchor="middle" x="247.5" y="-155.5" font-family="Helvetica,sans-Serif" font-size="10.00">Model::PlayerParty</text>
<polyline fill="none" stroke="black" points="187,-148.5 308,-148.5 "/>
<text text-anchor="middle" x="247.5" y="-136.5" font-family="Helvetica,sans-Serif" font-size="10.00"> </text>
<polyline fill="none" stroke="black" points="187,-129.5 308,-129.5 "/>
<text text-anchor="start" x="195" y="-117.5" font-family="Helvetica,sans-Serif" font-size="10.00">+ PlayerParty()</text>
<text text-anchor="start" x="195" y="-106.5" font-family="Helvetica,sans-Serif" font-size="10.00">+ addMoney()</text>
<text text-anchor="start" x="195" y="-95.5" font-family="Helvetica,sans-Serif" font-size="10.00">+ reduceMoney()</text>
<text text-anchor="start" x="195" y="-84.5" font-family="Helvetica,sans-Serif" font-size="10.00">+ getActor()</text>
<text text-anchor="start" x="195" y="-73.5" font-family="Helvetica,sans-Serif" font-size="10.00">+ getUpgrades()</text>
<text text-anchor="start" x="195" y="-62.5" font-family="Helvetica,sans-Serif" font-size="10.00">+ getParty()</text>
<text text-anchor="start" x="195" y="-51.5" font-family="Helvetica,sans-Serif" font-size="10.00">+ commenceResearch()</text>
<text text-anchor="start" x="195" y="-40.5" font-family="Helvetica,sans-Serif" font-size="10.00">+ healCyborg()</text>
<text text-anchor="start" x="195" y="-29.5" font-family="Helvetica,sans-Serif" font-size="10.00">+ hireCyborg()</text>
<text text-anchor="start" x="195" y="-18.5" font-family="Helvetica,sans-Serif" font-size="10.00">+ retireCyborg()</text>
<text text-anchor="start" x="195" y="-7.5" font-family="Helvetica,sans-Serif" font-size="10.00">and 7 more...</text>
</g>
<!-- Node2 -->
<g id="node2" class="node"><title>Node2</title>
<polygon fill="white" stroke="#bfbfbf" points="0,-237.5 0,-316.5 127,-316.5 127,-237.5 0,-237.5"/>
<text text-anchor="start" x="8" y="-304.5" font-family="Helvetica,sans-Serif" font-size="10.00">map&lt; QString, std::</text>
<text text-anchor="start" x="8" y="-293.5" font-family="Helvetica,sans-Serif" font-size="10.00">shared_ptr&lt; Interface</text>
<text text-anchor="middle" x="63.5" y="-282.5" font-family="Helvetica,sans-Serif" font-size="10.00">::ParkingHallInterface &gt; &gt;</text>
<polyline fill="none" stroke="#bfbfbf" points="0,-275.5 127,-275.5 "/>
<text text-anchor="middle" x="63.5" y="-263.5" font-family="Helvetica,sans-Serif" font-size="10.00"> </text>
<polyline fill="none" stroke="#bfbfbf" points="0,-256.5 127,-256.5 "/>
<text text-anchor="middle" x="63.5" y="-244.5" font-family="Helvetica,sans-Serif" font-size="10.00"> </text>
</g>
<!-- Node2&#45;&gt;Node1 -->
<g id="edge1" class="edge"><title>Node2&#45;&gt;Node1</title>
<path fill="none" stroke="#404040" d="M63.3406,-237.403C64.9494,-220.381 69.244,-200.904 79.5,-186 102.74,-152.228 141.308,-127.875 175.632,-111.555"/>
<polygon fill="none" stroke="#404040" points="175.69,-111.529 179.482,-105.396 186.603,-106.537 182.81,-112.671 175.69,-111.529"/>
<text text-anchor="middle" x="131.5" y="-200" font-family="Helvetica,sans-Serif" font-size="10.00"> &#45;capturedParkingHalls_</text>
</g>
<!-- Node3 -->
<g id="node3" class="node"><title>Node3</title>
<polygon fill="white" stroke="#bfbfbf" points="165.5,-248.5 165.5,-305.5 215.5,-305.5 215.5,-248.5 165.5,-248.5"/>
<text text-anchor="middle" x="190.5" y="-293.5" font-family="Helvetica,sans-Serif" font-size="10.00">QString</text>
<polyline fill="none" stroke="#bfbfbf" points="165.5,-286.5 215.5,-286.5 "/>
<text text-anchor="middle" x="190.5" y="-274.5" font-family="Helvetica,sans-Serif" font-size="10.00"> </text>
<polyline fill="none" stroke="#bfbfbf" points="165.5,-267.5 215.5,-267.5 "/>
<text text-anchor="middle" x="190.5" y="-255.5" font-family="Helvetica,sans-Serif" font-size="10.00"> </text>
</g>
<!-- Node3&#45;&gt;Node1 -->
<g id="edge2" class="edge"><title>Node3&#45;&gt;Node1</title>
<path fill="none" stroke="#404040" d="M187.342,-248.355C186.121,-230.306 186.104,-206.393 191.5,-186 192.106,-183.71 192.775,-181.417 193.5,-179.125"/>
<polygon fill="none" stroke="#404040" points="193.542,-179.009 191.783,-172.015 197.562,-167.702 199.321,-174.696 193.542,-179.009"/>
<text text-anchor="middle" x="237.5" y="-200" font-family="Helvetica,sans-Serif" font-size="10.00"> &#45;nextResearchArea_</text>
</g>
<!-- Node4 -->
<g id="node4" class="node"><title>Node4</title>
<polygon fill="white" stroke="#bfbfbf" points="291,-248.5 291,-305.5 320,-305.5 320,-248.5 291,-248.5"/>
<text text-anchor="middle" x="305.5" y="-293.5" font-family="Helvetica,sans-Serif" font-size="10.00">int</text>
<polyline fill="none" stroke="#bfbfbf" points="291,-286.5 320,-286.5 "/>
<text text-anchor="middle" x="305.5" y="-274.5" font-family="Helvetica,sans-Serif" font-size="10.00"> </text>
<polyline fill="none" stroke="#bfbfbf" points="291,-267.5 320,-267.5 "/>
<text text-anchor="middle" x="305.5" y="-255.5" font-family="Helvetica,sans-Serif" font-size="10.00"> </text>
</g>
<!-- Node4&#45;&gt;Node1 -->
<g id="edge3" class="edge"><title>Node4&#45;&gt;Node1</title>
<path fill="none" stroke="#404040" d="M299.487,-248.23C295.423,-230.338 289.685,-206.647 283.5,-186 282.829,-183.76 282.137,-181.496 281.428,-179.217"/>
<polygon fill="none" stroke="#404040" points="281.409,-179.157 275.772,-174.659 277.756,-167.726 283.393,-172.224 281.409,-179.157"/>
<text text-anchor="start" x="292.5" y="-211" font-family="Helvetica,sans-Serif" font-size="10.00"> &#45;upgradeResearchLevel</text>
<text text-anchor="middle" x="345" y="-200" font-family="Helvetica,sans-Serif" font-size="10.00">_</text>
<text text-anchor="middle" x="345" y="-189" font-family="Helvetica,sans-Serif" font-size="10.00">&#45;weaponResearchLevel_</text>
</g>
<!-- Node5 -->
<g id="node5" class="node"><title>Node5</title>
<polygon fill="white" stroke="#bfbfbf" points="352,-243 352,-311 515,-311 515,-243 352,-243"/>
<text text-anchor="start" x="360" y="-299" font-family="Helvetica,sans-Serif" font-size="10.00">vector&lt; std::shared</text>
<text text-anchor="middle" x="433.5" y="-288" font-family="Helvetica,sans-Serif" font-size="10.00">_ptr&lt; Interface::ActorInterface &gt; &gt;</text>
<polyline fill="none" stroke="#bfbfbf" points="352,-281 515,-281 "/>
<text text-anchor="middle" x="433.5" y="-269" font-family="Helvetica,sans-Serif" font-size="10.00"> </text>
<polyline fill="none" stroke="#bfbfbf" points="352,-262 515,-262 "/>
<text text-anchor="middle" x="433.5" y="-250" font-family="Helvetica,sans-Serif" font-size="10.00"> </text>
</g>
<!-- Node5&#45;&gt;Node1 -->
<g id="edge4" class="edge"><title>Node5&#45;&gt;Node1</title>
<path fill="none" stroke="#404040" d="M427.112,-242.656C422.363,-224.489 414.409,-202.43 401.5,-186 379.596,-158.123 347.776,-135.447 318.738,-118.696"/>
<polygon fill="none" stroke="#404040" points="318.662,-118.653 311.473,-119.214 308.19,-112.794 315.379,-112.233 318.662,-118.653"/>
<text text-anchor="middle" x="436.5" y="-200" font-family="Helvetica,sans-Serif" font-size="10.00"> &#45;party_</text>
</g>
</g>
</svg>
        <g id="navigator" transform="translate(0 0)" fill="#404254">
                <rect fill="#f2f5e9" fill-opacity="0.5" stroke="#606060" stroke-width=".5" x="0" y="0" width="60" height="60"/>
                <use id="zoomplus" xlink:href="#zoomPlus" x="17" y="9" onmousedown="handleZoom(evt,'in')"/>
                <use id="zoomminus" xlink:href="#zoomMin" x="42" y="9" onmousedown="handleZoom(evt,'out')"/>
                <use id="reset" xlink:href="#resetDef" x="30" y="36" onmousedown="handleReset()"/>
                <g id="arrowUp" xlink:href="#dirArrow" transform="translate(30 24)" onmousedown="handlePan(0,-1)">
                  <use xlink:href="#rim" fill="#404040">
                        <set attributeName="fill" to="#808080" begin="arrowUp.mouseover" end="arrowUp.mouseout"/>
                  </use>
                  <path fill="none" stroke="white" stroke-width="1.5" d="M0,-3.0v7 M-2.5,-0.5L0,-3.0L2.5,-0.5"/>
                </g>
                <g id="arrowRight" xlink:href="#dirArrow" transform="rotate(90) translate(36 -43)" onmousedown="handlePan(1,0)">
                  <use xlink:href="#rim" fill="#404040">
                        <set attributeName="fill" to="#808080" begin="arrowRight.mouseover" end="arrowRight.mouseout"/>
                  </use>
                  <path fill="none" stroke="white" stroke-width="1.5" d="M0,-3.0v7 M-2.5,-0.5L0,-3.0L2.5,-0.5"/>
                </g>
                <g id="arrowDown" xlink:href="#dirArrow" transform="rotate(180) translate(-30 -48)" onmousedown="handlePan(0,1)">
                  <use xlink:href="#rim" fill="#404040">
                        <set attributeName="fill" to="#808080" begin="arrowDown.mouseover" end="arrowDown.mouseout"/>
                  </use>
                  <path fill="none" stroke="white" stroke-width="1.5" d="M0,-3.0v7 M-2.5,-0.5L0,-3.0L2.5,-0.5"/>
                </g>
                <g id="arrowLeft" xlink:href="#dirArrow" transform="rotate(270) translate(-36 17)" onmousedown="handlePan(-1,0)">
                  <use xlink:href="#rim" fill="#404040">
                        <set attributeName="fill" to="#808080" begin="arrowLeft.mouseover" end="arrowLeft.mouseout"/>
                  </use>
                  <path fill="none" stroke="white" stroke-width="1.5" d="M0,-3.0v7 M-2.5,-0.5L0,-3.0L2.5,-0.5"/>
                </g>
        </g>
        <svg viewBox="0 0 15 15" width="100%" height="30px" preserveAspectRatio="xMaxYMin meet">
         <g id="arrow_out" transform="scale(0.3 0.3)">
          <a xlink:href="class_model_1_1_player_party__coll__graph_org.svg" target="_base">
           <rect id="button" ry="5" rx="5" y="6" x="6" height="38" width="38"
                fill="#f2f5e9" fill-opacity="0.5" stroke="#606060" stroke-width="1.0"/>
           <path id="arrow"
             d="M 11.500037,31.436501 C 11.940474,20.09759 22.043105,11.32322 32.158766,21.979434 L 37.068811,17.246167 C 37.068811,17.246167 37.088388,32 37.088388,32 L 22.160133,31.978069 C 22.160133,31.978069 26.997745,27.140456 26.997745,27.140456 C 18.528582,18.264221 13.291696,25.230495 11.500037,31.436501 z"
             style="fill:#404040;"/>
          </a>
         </g>
        </svg>
</svg>
