<?xml version="1.0" encoding="UTF-8" standalone="no"?>
<!DOCTYPE svg PUBLIC "-//W3C//DTD SVG 1.1//EN"
 "http://www.w3.org/Graphics/SVG/1.1/DTD/svg11.dtd">
<!-- Generated by graphviz version 2.38.0 (20140413.2041)
 -->
<!-- Title: View::ActionScene::checkWalkingIntoWalls Pages: 1 -->
<svg width="428pt" height="88pt"
 viewBox="0.00 0.00 428.00 88.00" xmlns="http://www.w3.org/2000/svg" xmlns:xlink="http://www.w3.org/1999/xlink">
<g id="graph0" class="graph" transform="scale(1 1) rotate(0) translate(4 84)">
<title>View::ActionScene::checkWalkingIntoWalls</title>
<polygon fill="white" stroke="none" points="-4,4 -4,-84 424,-84 424,4 -4,4"/>
<!-- Node100 -->
<g id="node1" class="node"><title>Node100</title>
<polygon fill="#bfbfbf" stroke="black" points="0,-27.5 0,-57.5 119,-57.5 119,-27.5 0,-27.5"/>
<text text-anchor="start" x="8" y="-45.5" font-family="Helvetica,sans-Serif" font-size="10.00">View::ActionScene::</text>
<text text-anchor="middle" x="59.5" y="-34.5" font-family="Helvetica,sans-Serif" font-size="10.00">checkWalkingIntoWalls</text>
</g>
<!-- Node101 -->
<g id="node2" class="node"><title>Node101</title>
<g id="a_node2"><a xlink:href="class_view_1_1_action_scene.html#af1d81cee559dc8f92ab1be0128d87dbb" target="_top" xlink:title="View::ActionScene::\lcheckBlockedDirection">
<polygon fill="white" stroke="black" points="155,-5.5 155,-35.5 271,-35.5 271,-5.5 155,-5.5"/>
<text text-anchor="start" x="163" y="-23.5" font-family="Helvetica,sans-Serif" font-size="10.00">View::ActionScene::</text>
<text text-anchor="middle" x="213" y="-12.5" font-family="Helvetica,sans-Serif" font-size="10.00">checkBlockedDirection</text>
</a>
</g>
</g>
<!-- Node100&#45;&gt;Node101 -->
<g id="edge1" class="edge"><title>Node100&#45;&gt;Node101</title>
<path fill="none" stroke="midnightblue" d="M119.074,-33.9942C127.452,-32.7775 136.127,-31.5179 144.658,-30.2791"/>
<polygon fill="midnightblue" stroke="midnightblue" points="145.186,-33.7392 154.579,-28.8383 144.18,-26.8118 145.186,-33.7392"/>
</g>
<!-- Node102 -->
<g id="node3" class="node"><title>Node102</title>
<g id="a_node3"><a xlink:href="class_view_1_1_action_scene_p_c.html#ab11636de093176287ad05e2c12c33ca1" target="_top" xlink:title="View::ActionScenePC\l::getId">
<polygon fill="white" stroke="black" points="307,-49.5 307,-79.5 420,-79.5 420,-49.5 307,-49.5"/>
<text text-anchor="start" x="315" y="-67.5" font-family="Helvetica,sans-Serif" font-size="10.00">View::ActionScenePC</text>
<text text-anchor="middle" x="363.5" y="-56.5" font-family="Helvetica,sans-Serif" font-size="10.00">::getId</text>
</a>
</g>
</g>
<!-- Node100&#45;&gt;Node102 -->
<g id="edge4" class="edge"><title>Node100&#45;&gt;Node102</title>
<path fill="none" stroke="midnightblue" d="M119.087,-46.7679C169.983,-50.4756 243.639,-55.8412 296.581,-59.6979"/>
<polygon fill="midnightblue" stroke="midnightblue" points="296.652,-63.2123 306.88,-60.4482 297.161,-56.2308 296.652,-63.2123"/>
</g>
<!-- Node101&#45;&gt;Node102 -->
<g id="edge2" class="edge"><title>Node101&#45;&gt;Node102</title>
<path fill="none" stroke="midnightblue" d="M264.69,-35.5192C276.69,-39.0748 289.606,-42.9018 301.993,-46.5721"/>
<polygon fill="midnightblue" stroke="midnightblue" points="301.204,-49.9886 311.787,-49.4738 303.193,-43.277 301.204,-49.9886"/>
</g>
<!-- Node103 -->
<g id="node4" class="node"><title>Node103</title>
<g id="a_node4"><a xlink:href="class_view_1_1_action_scene_p_c.html#a55bd5a020b147cf53f8f37ff664489a0" target="_top" xlink:title="View::ActionScenePC\l::obstacleHit">
<polygon fill="white" stroke="black" points="307,-0.5 307,-30.5 420,-30.5 420,-0.5 307,-0.5"/>
<text text-anchor="start" x="315" y="-18.5" font-family="Helvetica,sans-Serif" font-size="10.00">View::ActionScenePC</text>
<text text-anchor="middle" x="363.5" y="-7.5" font-family="Helvetica,sans-Serif" font-size="10.00">::obstacleHit</text>
</a>
</g>
</g>
<!-- Node101&#45;&gt;Node103 -->
<g id="edge3" class="edge"><title>Node101&#45;&gt;Node103</title>
<path fill="none" stroke="midnightblue" d="M271.414,-18.5669C279.653,-18.2894 288.185,-18.0022 296.573,-17.7198"/>
<polygon fill="midnightblue" stroke="midnightblue" points="296.827,-21.2133 306.704,-17.3787 296.592,-14.2172 296.827,-21.2133"/>
</g>
</g>
</svg>
