<?xml version="1.0" encoding="UTF-8" standalone="no"?>
<!DOCTYPE svg PUBLIC "-//W3C//DTD SVG 1.1//EN"
 "http://www.w3.org/Graphics/SVG/1.1/DTD/svg11.dtd">
<!-- Generated by graphviz version 2.38.0 (20140413.2041)
 -->
<!-- Title: Model::mapGenerator::getClosestEdge Pages: 1 -->
<svg width="594pt" height="129pt"
 viewBox="0.00 0.00 594.00 129.00" xmlns="http://www.w3.org/2000/svg" xmlns:xlink="http://www.w3.org/1999/xlink">
<g id="graph0" class="graph" transform="scale(1 1) rotate(0) translate(4 125)">
<title>Model::mapGenerator::getClosestEdge</title>
<polygon fill="white" stroke="none" points="-4,4 -4,-125 590,-125 590,4 -4,4"/>
<!-- Node25 -->
<g id="node1" class="node"><title>Node25</title>
<polygon fill="#bfbfbf" stroke="black" points="0,-65.5 0,-95.5 110,-95.5 110,-65.5 0,-65.5"/>
<text text-anchor="start" x="8" y="-83.5" font-family="Helvetica,sans-Serif" font-size="10.00">Model::mapGenerator</text>
<text text-anchor="middle" x="55" y="-72.5" font-family="Helvetica,sans-Serif" font-size="10.00">::getClosestEdge</text>
</g>
<!-- Node26 -->
<g id="node2" class="node"><title>Node26</title>
<g id="a_node2"><a xlink:href="class_model_1_1park_space_inserter.html#a20265678d0e7cfc25daef80afaa1ba86" target="_top" xlink:title="Model::parkSpaceInserter\l::addParkingSpaces_">
<polygon fill="white" stroke="black" points="146,-90.5 146,-120.5 274,-120.5 274,-90.5 146,-90.5"/>
<text text-anchor="start" x="154" y="-108.5" font-family="Helvetica,sans-Serif" font-size="10.00">Model::parkSpaceInserter</text>
<text text-anchor="middle" x="210" y="-97.5" font-family="Helvetica,sans-Serif" font-size="10.00">::addParkingSpaces_</text>
</a>
</g>
</g>
<!-- Node25&#45;&gt;Node26 -->
<g id="edge1" class="edge"><title>Node25&#45;&gt;Node26</title>
<path fill="none" stroke="midnightblue" d="M120.509,-91.0406C128.922,-92.4154 137.534,-93.8226 145.924,-95.1934"/>
<polygon fill="midnightblue" stroke="midnightblue" points="120.806,-87.5429 110.373,-89.3845 119.678,-94.4513 120.806,-87.5429"/>
</g>
<!-- Node29 -->
<g id="node5" class="node"><title>Node29</title>
<g id="a_node5"><a xlink:href="class_model_1_1map_processor.html#ae1e80cb097c8e31a337b3a20ff653cc2" target="_top" xlink:title="Model::mapProcessor\l::calculateDistanceMap">
<polygon fill="white" stroke="black" points="150.5,-41.5 150.5,-71.5 269.5,-71.5 269.5,-41.5 150.5,-41.5"/>
<text text-anchor="start" x="158.5" y="-59.5" font-family="Helvetica,sans-Serif" font-size="10.00">Model::mapProcessor</text>
<text text-anchor="middle" x="210" y="-48.5" font-family="Helvetica,sans-Serif" font-size="10.00">::calculateDistanceMap</text>
</a>
</g>
</g>
<!-- Node25&#45;&gt;Node29 -->
<g id="edge4" class="edge"><title>Node25&#45;&gt;Node29</title>
<path fill="none" stroke="midnightblue" d="M120.561,-70.3729C130.459,-68.8201 140.631,-67.2245 150.391,-65.6935"/>
<polygon fill="midnightblue" stroke="midnightblue" points="119.71,-66.9634 110.373,-71.9709 120.794,-73.8789 119.71,-66.9634"/>
</g>
<!-- Node27 -->
<g id="node3" class="node"><title>Node27</title>
<g id="a_node3"><a xlink:href="class_model_1_1park_space_inserter.html#a85f30f97e1864f0c4b3afe8f8dea7ae3" target="_top" xlink:title="Model::parkSpaceInserter\l::addSpaces">
<polygon fill="white" stroke="black" points="310,-90.5 310,-120.5 438,-120.5 438,-90.5 310,-90.5"/>
<text text-anchor="start" x="318" y="-108.5" font-family="Helvetica,sans-Serif" font-size="10.00">Model::parkSpaceInserter</text>
<text text-anchor="middle" x="374" y="-97.5" font-family="Helvetica,sans-Serif" font-size="10.00">::addSpaces</text>
</a>
</g>
</g>
<!-- Node26&#45;&gt;Node27 -->
<g id="edge2" class="edge"><title>Node26&#45;&gt;Node27</title>
<path fill="none" stroke="midnightblue" d="M284.374,-105.5C292.865,-105.5 301.469,-105.5 309.808,-105.5"/>
<polygon fill="midnightblue" stroke="midnightblue" points="284.097,-102 274.097,-105.5 284.097,-109 284.097,-102"/>
</g>
<!-- Node28 -->
<g id="node4" class="node"><title>Node28</title>
<g id="a_node4"><a xlink:href="class_model_1_1map_generator.html#a08a1dc669cda9401647f81d61611931d" target="_top" xlink:title="Generate new hall with enemyCount. ">
<polygon fill="white" stroke="black" points="475,-90.5 475,-120.5 585,-120.5 585,-90.5 475,-90.5"/>
<text text-anchor="start" x="483" y="-108.5" font-family="Helvetica,sans-Serif" font-size="10.00">Model::mapGenerator</text>
<text text-anchor="middle" x="530" y="-97.5" font-family="Helvetica,sans-Serif" font-size="10.00">::generateHall</text>
</a>
</g>
</g>
<!-- Node27&#45;&gt;Node28 -->
<g id="edge3" class="edge"><title>Node27&#45;&gt;Node28</title>
<path fill="none" stroke="midnightblue" d="M448.112,-105.5C457.044,-105.5 466.046,-105.5 474.636,-105.5"/>
<polygon fill="midnightblue" stroke="midnightblue" points="448.082,-102 438.082,-105.5 448.082,-109 448.082,-102"/>
</g>
<!-- Node30 -->
<g id="node6" class="node"><title>Node30</title>
<g id="a_node6"><a xlink:href="class_model_1_1map_processor.html#a7be8a27aaad96e187b4dba60fde5031a" target="_top" xlink:title="Model::mapProcessor\l::placeEnemies">
<polygon fill="white" stroke="black" points="474,-21.5 474,-51.5 586,-51.5 586,-21.5 474,-21.5"/>
<text text-anchor="start" x="482" y="-39.5" font-family="Helvetica,sans-Serif" font-size="10.00">Model::mapProcessor</text>
<text text-anchor="middle" x="530" y="-28.5" font-family="Helvetica,sans-Serif" font-size="10.00">::placeEnemies</text>
</a>
</g>
</g>
<!-- Node29&#45;&gt;Node30 -->
<g id="edge5" class="edge"><title>Node29&#45;&gt;Node30</title>
<path fill="none" stroke="midnightblue" d="M279.889,-52.1674C337.975,-48.5142 420.013,-43.3545 473.838,-39.9693"/>
<polygon fill="midnightblue" stroke="midnightblue" points="279.457,-48.6875 269.697,-52.8084 279.897,-55.6737 279.457,-48.6875"/>
</g>
<!-- Node31 -->
<g id="node7" class="node"><title>Node31</title>
<g id="a_node7"><a xlink:href="class_model_1_1map_processor.html#a3719cc265240be889e98f9830602a067" target="_top" xlink:title="Model::mapProcessor\l::getMedialMap">
<polygon fill="white" stroke="black" points="318,-0.5 318,-30.5 430,-30.5 430,-0.5 318,-0.5"/>
<text text-anchor="start" x="326" y="-18.5" font-family="Helvetica,sans-Serif" font-size="10.00">Model::mapProcessor</text>
<text text-anchor="middle" x="374" y="-7.5" font-family="Helvetica,sans-Serif" font-size="10.00">::getMedialMap</text>
</a>
</g>
</g>
<!-- Node29&#45;&gt;Node31 -->
<g id="edge6" class="edge"><title>Node29&#45;&gt;Node31</title>
<path fill="none" stroke="midnightblue" d="M279.983,-39.0414C292.637,-35.8387 305.692,-32.5348 317.874,-29.4516"/>
<polygon fill="midnightblue" stroke="midnightblue" points="278.78,-35.7355 269.944,-41.5821 280.497,-42.5215 278.78,-35.7355"/>
</g>
<!-- Node31&#45;&gt;Node30 -->
<g id="edge7" class="edge"><title>Node31&#45;&gt;Node30</title>
<path fill="none" stroke="midnightblue" d="M440.326,-24.4081C451.527,-25.9356 463.066,-27.509 473.964,-28.9951"/>
<polygon fill="midnightblue" stroke="midnightblue" points="440.544,-20.9055 430.163,-23.0222 439.598,-27.8413 440.544,-20.9055"/>
</g>
</g>
</svg>
