<?xml version="1.0" encoding="UTF-8" standalone="no"?>
<!DOCTYPE svg PUBLIC "-//W3C//DTD SVG 1.1//EN"
 "http://www.w3.org/Graphics/SVG/1.1/DTD/svg11.dtd">
<!-- Generated by graphviz version 2.38.0 (20140413.2041)
 -->
<!-- Title: Model::mapProcessor::getDistance Pages: 1 -->
<svg width="416pt" height="61pt"
 viewBox="0.00 0.00 416.00 61.00" xmlns="http://www.w3.org/2000/svg" xmlns:xlink="http://www.w3.org/1999/xlink">
<g id="graph0" class="graph" transform="scale(1 1) rotate(0) translate(4 57)">
<title>Model::mapProcessor::getDistance</title>
<polygon fill="white" stroke="none" points="-4,4 -4,-57 412,-57 412,4 -4,4"/>
<!-- Node20 -->
<g id="node1" class="node"><title>Node20</title>
<polygon fill="#bfbfbf" stroke="black" points="0,-0.5 0,-30.5 112,-30.5 112,-0.5 0,-0.5"/>
<text text-anchor="start" x="8" y="-18.5" font-family="Helvetica,sans-Serif" font-size="10.00">Model::mapProcessor</text>
<text text-anchor="middle" x="56" y="-7.5" font-family="Helvetica,sans-Serif" font-size="10.00">::getDistance</text>
</g>
<!-- Node21 -->
<g id="node2" class="node"><title>Node21</title>
<g id="a_node2"><a xlink:href="class_model_1_1map_processor.html#a3719cc265240be889e98f9830602a067" target="_top" xlink:title="Model::mapProcessor\l::getMedialMap">
<polygon fill="white" stroke="black" points="148,-22.5 148,-52.5 260,-52.5 260,-22.5 148,-22.5"/>
<text text-anchor="start" x="156" y="-40.5" font-family="Helvetica,sans-Serif" font-size="10.00">Model::mapProcessor</text>
<text text-anchor="middle" x="204" y="-29.5" font-family="Helvetica,sans-Serif" font-size="10.00">::getMedialMap</text>
</a>
</g>
</g>
<!-- Node20&#45;&gt;Node21 -->
<g id="edge1" class="edge"><title>Node20&#45;&gt;Node21</title>
<path fill="none" stroke="midnightblue" d="M122.131,-25.3143C130.676,-26.6018 139.366,-27.9113 147.726,-29.171"/>
<polygon fill="midnightblue" stroke="midnightblue" points="122.606,-21.8464 112.196,-23.8173 121.563,-28.7683 122.606,-21.8464"/>
</g>
<!-- Node22 -->
<g id="node3" class="node"><title>Node22</title>
<g id="a_node3"><a xlink:href="class_model_1_1map_processor.html#a7be8a27aaad96e187b4dba60fde5031a" target="_top" xlink:title="Model::mapProcessor\l::placeEnemies">
<polygon fill="white" stroke="black" points="296,-0.5 296,-30.5 408,-30.5 408,-0.5 296,-0.5"/>
<text text-anchor="start" x="304" y="-18.5" font-family="Helvetica,sans-Serif" font-size="10.00">Model::mapProcessor</text>
<text text-anchor="middle" x="352" y="-7.5" font-family="Helvetica,sans-Serif" font-size="10.00">::placeEnemies</text>
</a>
</g>
</g>
<!-- Node20&#45;&gt;Node22 -->
<g id="edge3" class="edge"><title>Node20&#45;&gt;Node22</title>
<path fill="none" stroke="midnightblue" d="M122.377,-13.8903C130.994,-13.7289 139.709,-13.5911 148,-13.5 197.775,-12.9531 210.225,-12.9531 260,-13.5 271.535,-13.6267 283.891,-13.8438 295.662,-14.0894"/>
<polygon fill="midnightblue" stroke="midnightblue" points="122.267,-10.3918 112.338,-14.0894 122.405,-17.3904 122.267,-10.3918"/>
</g>
<!-- Node21&#45;&gt;Node22 -->
<g id="edge2" class="edge"><title>Node21&#45;&gt;Node22</title>
<path fill="none" stroke="midnightblue" d="M270.131,-27.6857C278.676,-26.3982 287.366,-25.0887 295.726,-23.829"/>
<polygon fill="midnightblue" stroke="midnightblue" points="269.563,-24.2317 260.196,-29.1827 270.606,-31.1536 269.563,-24.2317"/>
</g>
</g>
</svg>
