<?xml version="1.0" encoding="UTF-8" standalone="no"?>
<!DOCTYPE svg PUBLIC "-//W3C//DTD SVG 1.1//EN"
 "http://www.w3.org/Graphics/SVG/1.1/DTD/svg11.dtd">
<!-- Generated by graphviz version 2.38.0 (20140413.2041)
 -->
<!-- Title: View::CityScape::resizeMap Pages: 1 -->
<svg width="488pt" height="66pt"
 viewBox="0.00 0.00 488.00 66.00" xmlns="http://www.w3.org/2000/svg" xmlns:xlink="http://www.w3.org/1999/xlink">
<g id="graph0" class="graph" transform="scale(1 1) rotate(0) translate(4 62)">
<title>View::CityScape::resizeMap</title>
<polygon fill="white" stroke="none" points="-4,4 -4,-62 484,-62 484,4 -4,4"/>
<!-- Node38 -->
<g id="node1" class="node"><title>Node38</title>
<polygon fill="#bfbfbf" stroke="black" points="0,-19.5 0,-38.5 140,-38.5 140,-19.5 0,-19.5"/>
<text text-anchor="middle" x="70" y="-26.5" font-family="Helvetica,sans-Serif" font-size="10.00">View::CityScape::resizeMap</text>
</g>
<!-- Node39 -->
<g id="node2" class="node"><title>Node39</title>
<g id="a_node2"><a xlink:href="class_view_1_1_city_scape.html#a772bde88091fbaaf7aaaa3e93f2cce98" target="_top" xlink:title="View::CityScape::initCity\lScape">
<polygon fill="white" stroke="black" points="176,-14 176,-44 301,-44 301,-14 176,-14"/>
<text text-anchor="start" x="184" y="-32" font-family="Helvetica,sans-Serif" font-size="10.00">View::CityScape::initCity</text>
<text text-anchor="middle" x="238.5" y="-21" font-family="Helvetica,sans-Serif" font-size="10.00">Scape</text>
</a>
</g>
</g>
<!-- Node38&#45;&gt;Node39 -->
<g id="edge1" class="edge"><title>Node38&#45;&gt;Node39</title>
<path fill="none" stroke="midnightblue" d="M150.262,-29C158.905,-29 167.606,-29 175.99,-29"/>
<polygon fill="midnightblue" stroke="midnightblue" points="150.165,-25.5001 140.165,-29 150.164,-32.5001 150.165,-25.5001"/>
</g>
<!-- Node40 -->
<g id="node3" class="node"><title>Node40</title>
<g id="a_node3"><a xlink:href="class_view_1_1_view.html#a3864eb93def76d37cc1416bbb49e8193" target="_top" xlink:title="View::View::createCityScape">
<polygon fill="white" stroke="black" points="337,-38.5 337,-57.5 480,-57.5 480,-38.5 337,-38.5"/>
<text text-anchor="middle" x="408.5" y="-45.5" font-family="Helvetica,sans-Serif" font-size="10.00">View::View::createCityScape</text>
</a>
</g>
</g>
<!-- Node39&#45;&gt;Node40 -->
<g id="edge2" class="edge"><title>Node39&#45;&gt;Node40</title>
<path fill="none" stroke="midnightblue" d="M311.304,-37.1207C319.754,-38.0764 328.373,-39.0511 336.808,-40.0051"/>
<polygon fill="midnightblue" stroke="midnightblue" points="311.433,-33.6131 301.103,-35.967 310.646,-40.5687 311.433,-33.6131"/>
</g>
<!-- Node41 -->
<g id="node4" class="node"><title>Node41</title>
<g id="a_node4"><a xlink:href="class_view_1_1_view.html#a2817964f9b91d81fd5cc2e955c20583f" target="_top" xlink:title="View::View::missionEnded">
<polygon fill="white" stroke="black" points="342.5,-0.5 342.5,-19.5 474.5,-19.5 474.5,-0.5 342.5,-0.5"/>
<text text-anchor="middle" x="408.5" y="-7.5" font-family="Helvetica,sans-Serif" font-size="10.00">View::View::missionEnded</text>
</a>
</g>
</g>
<!-- Node39&#45;&gt;Node41 -->
<g id="edge3" class="edge"><title>Node39&#45;&gt;Node41</title>
<path fill="none" stroke="midnightblue" d="M311.277,-20.8824C321.557,-19.7197 332.087,-18.5288 342.233,-17.3814"/>
<polygon fill="midnightblue" stroke="midnightblue" points="310.646,-17.4313 301.103,-22.033 311.433,-24.3869 310.646,-17.4313"/>
</g>
</g>
</svg>
