<?xml version="1.0" encoding="UTF-8" standalone="no"?>
<!DOCTYPE svg PUBLIC "-//W3C//DTD SVG 1.1//EN"
 "http://www.w3.org/Graphics/SVG/1.1/DTD/svg11.dtd">
<!-- Generated by graphviz version 2.38.0 (20140413.2041)
 -->
<!-- Title: Model::mapProcessor::calculateDistanceMap Pages: 1 -->
<!--zoomable 411 -->
<svg id="main" version="1.1" xmlns="http://www.w3.org/2000/svg" xmlns:xlink="http://www.w3.org/1999/xlink" xml:space="preserve" onload="init(evt)">
<style type="text/css"><![CDATA[
.edge:hover path { stroke: red; }
.edge:hover polygon { stroke: red; fill: red; }
]]></style>
<script type="text/javascript"><![CDATA[
var edges = document.getElementsByTagName('g');
if (edges && edges.length) {
  for (var i=0;i<edges.length;i++) {
    if (edges[i].id.substr(0,4)=='edge') {
      edges[i].setAttribute('class','edge');
    }
  }
}
]]></script>
        <defs>
                <circle id="rim" cx="0" cy="0" r="7"/>
                <circle id="rim2" cx="0" cy="0" r="3.5"/>
                <g id="zoomPlus">
                        <use xlink:href="#rim" fill="#404040">
                                <set attributeName="fill" to="#808080" begin="zoomplus.mouseover" end="zoomplus.mouseout"/>
                        </use>
                        <path d="M-4,0h8M0,-4v8" fill="none" stroke="white" stroke-width="1.5" pointer-events="none"/>
                </g>
                <g id="zoomMin">
                        <use xlink:href="#rim" fill="#404040">
                                <set attributeName="fill" to="#808080" begin="zoomminus.mouseover" end="zoomminus.mouseout"/>
                        </use>
                        <path d="M-4,0h8" fill="none" stroke="white" stroke-width="1.5" pointer-events="none"/>
                </g>
                <g id="dirArrow">
                        <path fill="none" stroke="white" stroke-width="1.5" d="M0,-3.0v7 M-2.5,-0.5L0,-3.0L2.5,-0.5"/>
                </g>
               <g id="resetDef">
                       <use xlink:href="#rim2" fill="#404040">
                               <set attributeName="fill" to="#808080" begin="reset.mouseover" end="reset.mouseout"/>
                       </use>
               </g>
        </defs>

<script type="text/javascript">
var viewWidth = 592;
var viewHeight = 411;
var sectionId = 'dynsection-1';
</script>
<script xlink:href="svgpan.js"/>
<svg id="graph" class="graph">
<g id="viewport">
<title>Model::mapProcessor::calculateDistanceMap</title>
<polygon fill="white" stroke="none" points="-4,4 -4,-407 588,-407 588,4 -4,4"/>
<!-- Node2 -->
<g id="node1" class="node"><title>Node2</title>
<polygon fill="#bfbfbf" stroke="black" points="0,-196.5 0,-226.5 119,-226.5 119,-196.5 0,-196.5"/>
<text text-anchor="start" x="8" y="-214.5" font-family="Helvetica,sans-Serif" font-size="10.00">Model::mapProcessor</text>
<text text-anchor="middle" x="59.5" y="-203.5" font-family="Helvetica,sans-Serif" font-size="10.00">::calculateDistanceMap</text>
</g>
<!-- Node3 -->
<g id="node2" class="node"><title>Node3</title>
<g id="a_node2"><a xlink:href="class_model_1_1map_generator.html#a918049786b708772ca97df76389955a7" target="_top" xlink:title="Model::mapGenerator\l::getClosestEdge">
<polygon fill="white" stroke="black" points="167.5,-284.5 167.5,-314.5 277.5,-314.5 277.5,-284.5 167.5,-284.5"/>
<text text-anchor="start" x="175.5" y="-302.5" font-family="Helvetica,sans-Serif" font-size="10.00">Model::mapGenerator</text>
<text text-anchor="middle" x="222.5" y="-291.5" font-family="Helvetica,sans-Serif" font-size="10.00">::getClosestEdge</text>
</a>
</g>
</g>
<!-- Node2&#45;&gt;Node3 -->
<g id="edge1" class="edge"><title>Node2&#45;&gt;Node3</title>
<path fill="none" stroke="midnightblue" d="M83.3236,-226.638C102.173,-238.863 129.824,-256.164 155,-269.5 161.925,-273.168 169.388,-276.816 176.723,-280.239"/>
<polygon fill="midnightblue" stroke="midnightblue" points="175.347,-283.458 185.897,-284.438 178.261,-277.093 175.347,-283.458"/>
</g>
<!-- Node4 -->
<g id="node3" class="node"><title>Node4</title>
<g id="a_node3"><a xlink:href="class_model_1_1map_generator.html#a02b91ca9a47b993e6fa14b9b0ad317f2" target="_top" xlink:title="Get tile from point in tile coordinates. ">
<polygon fill="white" stroke="black" points="327,-328.5 327,-358.5 437,-358.5 437,-328.5 327,-328.5"/>
<text text-anchor="start" x="335" y="-346.5" font-family="Helvetica,sans-Serif" font-size="10.00">Model::mapGenerator</text>
<text text-anchor="middle" x="382" y="-335.5" font-family="Helvetica,sans-Serif" font-size="10.00">::getTile</text>
</a>
</g>
</g>
<!-- Node2&#45;&gt;Node4 -->
<g id="edge8" class="edge"><title>Node2&#45;&gt;Node4</title>
<path fill="none" stroke="midnightblue" d="M68.1455,-226.897C81.6989,-252.321 112.561,-302.454 155,-324.5 204.806,-350.372 269.214,-353.324 316.522,-350.858"/>
<polygon fill="midnightblue" stroke="midnightblue" points="316.881,-354.342 326.647,-350.234 316.451,-347.356 316.881,-354.342"/>
</g>
<!-- Node5 -->
<g id="node4" class="node"><title>Node5</title>
<g id="a_node4"><a xlink:href="class_model_1_1map_generator.html#aaac1161126a56490862e3b5fffffbded" target="_top" xlink:title="Model::mapGenerator\l::indexAt">
<polygon fill="white" stroke="black" points="327,-279.5 327,-309.5 437,-309.5 437,-279.5 327,-279.5"/>
<text text-anchor="start" x="335" y="-297.5" font-family="Helvetica,sans-Serif" font-size="10.00">Model::mapGenerator</text>
<text text-anchor="middle" x="382" y="-286.5" font-family="Helvetica,sans-Serif" font-size="10.00">::indexAt</text>
</a>
</g>
</g>
<!-- Node2&#45;&gt;Node5 -->
<g id="edge11" class="edge"><title>Node2&#45;&gt;Node5</title>
<path fill="none" stroke="midnightblue" d="M116.948,-226.507C129.472,-229.816 142.683,-233.29 155,-236.5 209.481,-250.697 271.421,-266.575 316.662,-278.123"/>
<polygon fill="midnightblue" stroke="midnightblue" points="316.075,-281.586 326.629,-280.667 317.805,-274.803 316.075,-281.586"/>
</g>
<!-- Node7 -->
<g id="node6" class="node"><title>Node7</title>
<g id="a_node6"><a xlink:href="class_model_1_1map_generator.html#a92598d66736c2be4ca83aeedfe478b9d" target="_top" xlink:title="Model::mapGenerator\l::GetSurroundingWallCount">
<polygon fill="white" stroke="black" points="155,-372.5 155,-402.5 290,-402.5 290,-372.5 155,-372.5"/>
<text text-anchor="start" x="163" y="-390.5" font-family="Helvetica,sans-Serif" font-size="10.00">Model::mapGenerator</text>
<text text-anchor="middle" x="222.5" y="-379.5" font-family="Helvetica,sans-Serif" font-size="10.00">::GetSurroundingWallCount</text>
</a>
</g>
</g>
<!-- Node2&#45;&gt;Node7 -->
<g id="edge5" class="edge"><title>Node2&#45;&gt;Node7</title>
<path fill="none" stroke="midnightblue" d="M66.8239,-226.772C79.539,-255.82 110.81,-319.512 155,-357.5 159.43,-361.308 164.423,-364.718 169.631,-367.75"/>
<polygon fill="midnightblue" stroke="midnightblue" points="168.068,-370.883 178.539,-372.497 171.361,-364.705 168.068,-370.883"/>
</g>
<!-- Node8 -->
<g id="node7" class="node"><title>Node8</title>
<g id="a_node7"><a xlink:href="class_model_1_1map_processor.html#ace629015ebfe8536ad3f14019fffe3e3" target="_top" xlink:title="Model::mapProcessor\l::getTileClosest">
<polygon fill="white" stroke="black" points="166.5,-196.5 166.5,-226.5 278.5,-226.5 278.5,-196.5 166.5,-196.5"/>
<text text-anchor="start" x="174.5" y="-214.5" font-family="Helvetica,sans-Serif" font-size="10.00">Model::mapProcessor</text>
<text text-anchor="middle" x="222.5" y="-203.5" font-family="Helvetica,sans-Serif" font-size="10.00">::getTileClosest</text>
</a>
</g>
</g>
<!-- Node2&#45;&gt;Node8 -->
<g id="edge9" class="edge"><title>Node2&#45;&gt;Node8</title>
<path fill="none" stroke="midnightblue" d="M119.08,-211.5C131.162,-211.5 143.956,-211.5 156.258,-211.5"/>
<polygon fill="midnightblue" stroke="midnightblue" points="156.448,-215 166.448,-211.5 156.448,-208 156.448,-215"/>
</g>
<!-- Node10 -->
<g id="node9" class="node"><title>Node10</title>
<g id="a_node9"><a xlink:href="class_model_1_1map_generator.html#af153f95aea5145100546ad86ac4b9d02" target="_top" xlink:title="Model::mapGenerator\l::indexToX">
<polygon fill="white" stroke="black" points="167.5,-49.5 167.5,-79.5 277.5,-79.5 277.5,-49.5 167.5,-49.5"/>
<text text-anchor="start" x="175.5" y="-67.5" font-family="Helvetica,sans-Serif" font-size="10.00">Model::mapGenerator</text>
<text text-anchor="middle" x="222.5" y="-56.5" font-family="Helvetica,sans-Serif" font-size="10.00">::indexToX</text>
</a>
</g>
</g>
<!-- Node2&#45;&gt;Node10 -->
<g id="edge12" class="edge"><title>Node2&#45;&gt;Node10</title>
<path fill="none" stroke="midnightblue" d="M68.6086,-196.172C82.8444,-170.632 114.686,-119.245 155,-89.5 157.5,-87.6555 160.151,-85.932 162.901,-84.3235"/>
<polygon fill="midnightblue" stroke="midnightblue" points="164.723,-87.3197 171.948,-79.5704 161.468,-81.1228 164.723,-87.3197"/>
</g>
<!-- Node11 -->
<g id="node10" class="node"><title>Node11</title>
<g id="a_node10"><a xlink:href="class_model_1_1map_generator.html#a73020896792ce1a6aa4dd0ce2b9c5caf" target="_top" xlink:title="Model::mapGenerator\l::indexToY">
<polygon fill="white" stroke="black" points="167.5,-0.5 167.5,-30.5 277.5,-30.5 277.5,-0.5 167.5,-0.5"/>
<text text-anchor="start" x="175.5" y="-18.5" font-family="Helvetica,sans-Serif" font-size="10.00">Model::mapGenerator</text>
<text text-anchor="middle" x="222.5" y="-7.5" font-family="Helvetica,sans-Serif" font-size="10.00">::indexToY</text>
</a>
</g>
</g>
<!-- Node2&#45;&gt;Node11 -->
<g id="edge13" class="edge"><title>Node2&#45;&gt;Node11</title>
<path fill="none" stroke="midnightblue" d="M64.8734,-196.408C75.1563,-163.485 103.933,-84.6396 155,-40.5 156.96,-38.8062 159.045,-37.2221 161.223,-35.7411"/>
<polygon fill="midnightblue" stroke="midnightblue" points="163.196,-38.6402 170.008,-30.5255 159.622,-32.6211 163.196,-38.6402"/>
</g>
<!-- Node12 -->
<g id="node11" class="node"><title>Node12</title>
<g id="a_node11"><a xlink:href="class_model_1_1map_processor.html#aa4491f292821c1791ba15718fd9c6a63" target="_top" xlink:title="Model::mapProcessor\l::setTileClosest">
<polygon fill="white" stroke="black" points="166.5,-147.5 166.5,-177.5 278.5,-177.5 278.5,-147.5 166.5,-147.5"/>
<text text-anchor="start" x="174.5" y="-165.5" font-family="Helvetica,sans-Serif" font-size="10.00">Model::mapProcessor</text>
<text text-anchor="middle" x="222.5" y="-154.5" font-family="Helvetica,sans-Serif" font-size="10.00">::setTileClosest</text>
</a>
</g>
</g>
<!-- Node2&#45;&gt;Node12 -->
<g id="edge14" class="edge"><title>Node2&#45;&gt;Node12</title>
<path fill="none" stroke="midnightblue" d="M110.119,-196.399C126.57,-191.392 145.049,-185.768 162.157,-180.561"/>
<polygon fill="midnightblue" stroke="midnightblue" points="163.497,-183.812 172.045,-177.552 161.459,-177.115 163.497,-183.812"/>
</g>
<!-- Node13 -->
<g id="node12" class="node"><title>Node13</title>
<g id="a_node12"><a xlink:href="class_model_1_1map_processor.html#a89dbcb46165ca574cf2c9db9f5c16cee" target="_top" xlink:title="Model::mapProcessor\l::setTileDistance">
<polygon fill="white" stroke="black" points="166.5,-98.5 166.5,-128.5 278.5,-128.5 278.5,-98.5 166.5,-98.5"/>
<text text-anchor="start" x="174.5" y="-116.5" font-family="Helvetica,sans-Serif" font-size="10.00">Model::mapProcessor</text>
<text text-anchor="middle" x="222.5" y="-105.5" font-family="Helvetica,sans-Serif" font-size="10.00">::setTileDistance</text>
</a>
</g>
</g>
<!-- Node2&#45;&gt;Node13 -->
<g id="edge16" class="edge"><title>Node2&#45;&gt;Node13</title>
<path fill="none" stroke="midnightblue" d="M76.8367,-196.408C94.874,-180.36 125.305,-155.058 155,-138.5 158.696,-136.439 162.596,-134.481 166.579,-132.636"/>
<polygon fill="midnightblue" stroke="midnightblue" points="168.2,-135.748 175.966,-128.54 165.401,-129.332 168.2,-135.748"/>
</g>
<!-- Node3&#45;&gt;Node4 -->
<g id="edge2" class="edge"><title>Node3&#45;&gt;Node4</title>
<path fill="none" stroke="midnightblue" d="M277.262,-314.519C290.115,-318.11 303.96,-321.978 317.216,-325.681"/>
<polygon fill="midnightblue" stroke="midnightblue" points="316.64,-329.154 327.213,-328.474 318.524,-322.412 316.64,-329.154"/>
</g>
<!-- Node3&#45;&gt;Node5 -->
<g id="edge3" class="edge"><title>Node3&#45;&gt;Node5</title>
<path fill="none" stroke="midnightblue" d="M277.703,-297.779C290.271,-297.38 303.766,-296.952 316.72,-296.541"/>
<polygon fill="midnightblue" stroke="midnightblue" points="317.081,-300.031 326.964,-296.215 316.858,-293.035 317.081,-300.031"/>
</g>
<!-- Node6 -->
<g id="node5" class="node"><title>Node6</title>
<g id="a_node5"><a xlink:href="class_model_1_1map_generator.html#a244ad56297f00ce2ab892d3b2a14ffac" target="_top" xlink:title="Model::mapGenerator\l::isInMapRange">
<polygon fill="white" stroke="black" points="474,-325.5 474,-355.5 584,-355.5 584,-325.5 474,-325.5"/>
<text text-anchor="start" x="482" y="-343.5" font-family="Helvetica,sans-Serif" font-size="10.00">Model::mapGenerator</text>
<text text-anchor="middle" x="529" y="-332.5" font-family="Helvetica,sans-Serif" font-size="10.00">::isInMapRange</text>
</a>
</g>
</g>
<!-- Node5&#45;&gt;Node6 -->
<g id="edge4" class="edge"><title>Node5&#45;&gt;Node6</title>
<path fill="none" stroke="midnightblue" d="M430.478,-309.562C443.372,-313.653 457.469,-318.125 470.837,-322.366"/>
<polygon fill="midnightblue" stroke="midnightblue" points="469.825,-325.716 480.415,-325.404 471.941,-319.044 469.825,-325.716"/>
</g>
<!-- Node7&#45;&gt;Node4 -->
<g id="edge6" class="edge"><title>Node7&#45;&gt;Node4</title>
<path fill="none" stroke="midnightblue" d="M277.262,-372.481C290.115,-368.89 303.96,-365.022 317.216,-361.319"/>
<polygon fill="midnightblue" stroke="midnightblue" points="318.524,-364.588 327.213,-358.526 316.64,-357.846 318.524,-364.588"/>
</g>
<!-- Node7&#45;&gt;Node6 -->
<g id="edge7" class="edge"><title>Node7&#45;&gt;Node6</title>
<path fill="none" stroke="midnightblue" d="M290.207,-385.255C332.808,-382.921 389.036,-378.17 438,-368.5 450.541,-366.023 463.808,-362.451 476.191,-358.682"/>
<polygon fill="midnightblue" stroke="midnightblue" points="477.408,-361.969 485.902,-355.635 475.312,-355.29 477.408,-361.969"/>
</g>
<!-- Node9 -->
<g id="node8" class="node"><title>Node9</title>
<g id="a_node8"><a xlink:href="class_model_1_1map_processor.html#a3399e41b2aeca5e9890d7a740dc1e237" target="_top" xlink:title="Model::mapProcessor\l::getTile">
<polygon fill="white" stroke="black" points="326,-147.5 326,-177.5 438,-177.5 438,-147.5 326,-147.5"/>
<text text-anchor="start" x="334" y="-165.5" font-family="Helvetica,sans-Serif" font-size="10.00">Model::mapProcessor</text>
<text text-anchor="middle" x="382" y="-154.5" font-family="Helvetica,sans-Serif" font-size="10.00">::getTile</text>
</a>
</g>
</g>
<!-- Node8&#45;&gt;Node9 -->
<g id="edge10" class="edge"><title>Node8&#45;&gt;Node9</title>
<path fill="none" stroke="midnightblue" d="M272.04,-196.399C288.134,-191.392 306.211,-185.768 322.947,-180.561"/>
<polygon fill="midnightblue" stroke="midnightblue" points="324.111,-183.864 332.62,-177.552 322.032,-177.18 324.111,-183.864"/>
</g>
<!-- Node12&#45;&gt;Node9 -->
<g id="edge15" class="edge"><title>Node12&#45;&gt;Node9</title>
<path fill="none" stroke="midnightblue" d="M278.586,-162.5C290.575,-162.5 303.371,-162.5 315.713,-162.5"/>
<polygon fill="midnightblue" stroke="midnightblue" points="315.945,-166 325.945,-162.5 315.945,-159 315.945,-166"/>
</g>
<!-- Node13&#45;&gt;Node9 -->
<g id="edge17" class="edge"><title>Node13&#45;&gt;Node9</title>
<path fill="none" stroke="midnightblue" d="M272.04,-128.601C288.134,-133.608 306.211,-139.232 322.947,-144.439"/>
<polygon fill="midnightblue" stroke="midnightblue" points="322.032,-147.82 332.62,-147.448 324.111,-141.136 322.032,-147.82"/>
</g>
</g>
</svg>
        <g id="navigator" transform="translate(0 0)" fill="#404254">
                <rect fill="#f2f5e9" fill-opacity="0.5" stroke="#606060" stroke-width=".5" x="0" y="0" width="60" height="60"/>
                <use id="zoomplus" xlink:href="#zoomPlus" x="17" y="9" onmousedown="handleZoom(evt,'in')"/>
                <use id="zoomminus" xlink:href="#zoomMin" x="42" y="9" onmousedown="handleZoom(evt,'out')"/>
                <use id="reset" xlink:href="#resetDef" x="30" y="36" onmousedown="handleReset()"/>
                <g id="arrowUp" xlink:href="#dirArrow" transform="translate(30 24)" onmousedown="handlePan(0,-1)">
                  <use xlink:href="#rim" fill="#404040">
                        <set attributeName="fill" to="#808080" begin="arrowUp.mouseover" end="arrowUp.mouseout"/>
                  </use>
                  <path fill="none" stroke="white" stroke-width="1.5" d="M0,-3.0v7 M-2.5,-0.5L0,-3.0L2.5,-0.5"/>
                </g>
                <g id="arrowRight" xlink:href="#dirArrow" transform="rotate(90) translate(36 -43)" onmousedown="handlePan(1,0)">
                  <use xlink:href="#rim" fill="#404040">
                        <set attributeName="fill" to="#808080" begin="arrowRight.mouseover" end="arrowRight.mouseout"/>
                  </use>
                  <path fill="none" stroke="white" stroke-width="1.5" d="M0,-3.0v7 M-2.5,-0.5L0,-3.0L2.5,-0.5"/>
                </g>
                <g id="arrowDown" xlink:href="#dirArrow" transform="rotate(180) translate(-30 -48)" onmousedown="handlePan(0,1)">
                  <use xlink:href="#rim" fill="#404040">
                        <set attributeName="fill" to="#808080" begin="arrowDown.mouseover" end="arrowDown.mouseout"/>
                  </use>
                  <path fill="none" stroke="white" stroke-width="1.5" d="M0,-3.0v7 M-2.5,-0.5L0,-3.0L2.5,-0.5"/>
                </g>
                <g id="arrowLeft" xlink:href="#dirArrow" transform="rotate(270) translate(-36 17)" onmousedown="handlePan(-1,0)">
                  <use xlink:href="#rim" fill="#404040">
                        <set attributeName="fill" to="#808080" begin="arrowLeft.mouseover" end="arrowLeft.mouseout"/>
                  </use>
                  <path fill="none" stroke="white" stroke-width="1.5" d="M0,-3.0v7 M-2.5,-0.5L0,-3.0L2.5,-0.5"/>
                </g>
        </g>
        <svg viewBox="0 0 15 15" width="100%" height="30px" preserveAspectRatio="xMaxYMin meet">
         <g id="arrow_out" transform="scale(0.3 0.3)">
          <a xlink:href="class_model_1_1map_processor_ae1e80cb097c8e31a337b3a20ff653cc2_cgraph_org.svg" target="_base">
           <rect id="button" ry="5" rx="5" y="6" x="6" height="38" width="38"
                fill="#f2f5e9" fill-opacity="0.5" stroke="#606060" stroke-width="1.0"/>
           <path id="arrow"
             d="M 11.500037,31.436501 C 11.940474,20.09759 22.043105,11.32322 32.158766,21.979434 L 37.068811,17.246167 C 37.068811,17.246167 37.088388,32 37.088388,32 L 22.160133,31.978069 C 22.160133,31.978069 26.997745,27.140456 26.997745,27.140456 C 18.528582,18.264221 13.291696,25.230495 11.500037,31.436501 z"
             style="fill:#404040;"/>
          </a>
         </g>
        </svg>
</svg>
