<?xml version="1.0" encoding="UTF-8" standalone="no"?>
<!DOCTYPE svg PUBLIC "-//W3C//DTD SVG 1.1//EN"
 "http://www.w3.org/Graphics/SVG/1.1/DTD/svg11.dtd">
<!-- Generated by graphviz version 2.38.0 (20140413.2041)
 -->
<!-- Title: View::HeadQuartersUI::UISellWeaponSignal Pages: 1 -->
<!--zoomable 39 -->
<svg id="main" version="1.1" xmlns="http://www.w3.org/2000/svg" xmlns:xlink="http://www.w3.org/1999/xlink" xml:space="preserve" onload="init(evt)">
<style type="text/css"><![CDATA[
.edge:hover path { stroke: red; }
.edge:hover polygon { stroke: red; fill: red; }
]]></style>
<script type="text/javascript"><![CDATA[
var edges = document.getElementsByTagName('g');
if (edges && edges.length) {
  for (var i=0;i<edges.length;i++) {
    if (edges[i].id.substr(0,4)=='edge') {
      edges[i].setAttribute('class','edge');
    }
  }
}
]]></script>
        <defs>
                <circle id="rim" cx="0" cy="0" r="7"/>
                <circle id="rim2" cx="0" cy="0" r="3.5"/>
                <g id="zoomPlus">
                        <use xlink:href="#rim" fill="#404040">
                                <set attributeName="fill" to="#808080" begin="zoomplus.mouseover" end="zoomplus.mouseout"/>
                        </use>
                        <path d="M-4,0h8M0,-4v8" fill="none" stroke="white" stroke-width="1.5" pointer-events="none"/>
                </g>
                <g id="zoomMin">
                        <use xlink:href="#rim" fill="#404040">
                                <set attributeName="fill" to="#808080" begin="zoomminus.mouseover" end="zoomminus.mouseout"/>
                        </use>
                        <path d="M-4,0h8" fill="none" stroke="white" stroke-width="1.5" pointer-events="none"/>
                </g>
                <g id="dirArrow">
                        <path fill="none" stroke="white" stroke-width="1.5" d="M0,-3.0v7 M-2.5,-0.5L0,-3.0L2.5,-0.5"/>
                </g>
               <g id="resetDef">
                       <use xlink:href="#rim2" fill="#404040">
                               <set attributeName="fill" to="#808080" begin="reset.mouseover" end="reset.mouseout"/>
                       </use>
               </g>
        </defs>

<script type="text/javascript">
var viewWidth = 590;
var viewHeight = 39;
var sectionId = 'dynsection-26';
</script>
<script xlink:href="svgpan.js"/>
<svg id="graph" class="graph">
<g id="viewport">
<title>View::HeadQuartersUI::UISellWeaponSignal</title>
<polygon fill="white" stroke="none" points="-4,4 -4,-35 586,-35 586,4 -4,4"/>
<!-- Node128 -->
<g id="node1" class="node"><title>Node128</title>
<polygon fill="#bfbfbf" stroke="black" points="0,-0.5 0,-30.5 113,-30.5 113,-0.5 0,-0.5"/>
<text text-anchor="start" x="8" y="-18.5" font-family="Helvetica,sans-Serif" font-size="10.00">View::HeadQuartersUI</text>
<text text-anchor="middle" x="56.5" y="-7.5" font-family="Helvetica,sans-Serif" font-size="10.00">::UISellWeaponSignal</text>
</g>
<!-- Node129 -->
<g id="node2" class="node"><title>Node129</title>
<g id="a_node2"><a xlink:href="class_view_1_1_head_quarters_u_i.html#a3e01c68b5fdd117642dd01db0465605c" target="_top" xlink:title="View::HeadQuartersUI\l::sellWeaponButtonPushed">
<polygon fill="white" stroke="black" points="149,-0.5 149,-30.5 284,-30.5 284,-0.5 149,-0.5"/>
<text text-anchor="start" x="157" y="-18.5" font-family="Helvetica,sans-Serif" font-size="10.00">View::HeadQuartersUI</text>
<text text-anchor="middle" x="216.5" y="-7.5" font-family="Helvetica,sans-Serif" font-size="10.00">::sellWeaponButtonPushed</text>
</a>
</g>
</g>
<!-- Node128&#45;&gt;Node129 -->
<g id="edge1" class="edge"><title>Node128&#45;&gt;Node129</title>
<path fill="none" stroke="midnightblue" d="M123.377,-15.5C131.822,-15.5 140.473,-15.5 148.928,-15.5"/>
<polygon fill="midnightblue" stroke="midnightblue" points="123.205,-12.0001 113.205,-15.5 123.205,-19.0001 123.205,-12.0001"/>
</g>
<!-- Node130 -->
<g id="node3" class="node"><title>Node130</title>
<g id="a_node3"><a xlink:href="class_view_1_1_head_quarters_u_i.html#a504906d7f958448301b500a3762ff618" target="_top" xlink:title="View::HeadQuartersUI\l::connectShopUI">
<polygon fill="white" stroke="black" points="320,-0.5 320,-30.5 433,-30.5 433,-0.5 320,-0.5"/>
<text text-anchor="start" x="328" y="-18.5" font-family="Helvetica,sans-Serif" font-size="10.00">View::HeadQuartersUI</text>
<text text-anchor="middle" x="376.5" y="-7.5" font-family="Helvetica,sans-Serif" font-size="10.00">::connectShopUI</text>
</a>
</g>
</g>
<!-- Node129&#45;&gt;Node130 -->
<g id="edge2" class="edge"><title>Node129&#45;&gt;Node130</title>
<path fill="none" stroke="midnightblue" d="M294.077,-15.5C302.655,-15.5 311.271,-15.5 319.521,-15.5"/>
<polygon fill="midnightblue" stroke="midnightblue" points="294.048,-12.0001 284.048,-15.5 294.048,-19.0001 294.048,-12.0001"/>
</g>
<!-- Node131 -->
<g id="node4" class="node"><title>Node131</title>
<g id="a_node4"><a xlink:href="class_view_1_1_head_quarters_u_i.html#a98db9788c668433314da83b183101f0c" target="_top" xlink:title="View::HeadQuartersUI\l::HeadQuartersUI">
<polygon fill="white" stroke="black" points="469,-0.5 469,-30.5 582,-30.5 582,-0.5 469,-0.5"/>
<text text-anchor="start" x="477" y="-18.5" font-family="Helvetica,sans-Serif" font-size="10.00">View::HeadQuartersUI</text>
<text text-anchor="middle" x="525.5" y="-7.5" font-family="Helvetica,sans-Serif" font-size="10.00">::HeadQuartersUI</text>
</a>
</g>
</g>
<!-- Node130&#45;&gt;Node131 -->
<g id="edge3" class="edge"><title>Node130&#45;&gt;Node131</title>
<path fill="none" stroke="midnightblue" d="M443.078,-15.5C451.681,-15.5 460.43,-15.5 468.847,-15.5"/>
<polygon fill="midnightblue" stroke="midnightblue" points="443.074,-12.0001 433.074,-15.5 443.074,-19.0001 443.074,-12.0001"/>
</g>
</g>
</svg>
        <g id="navigator" transform="translate(0 0)" fill="#404254">
                <rect fill="#f2f5e9" fill-opacity="0.5" stroke="#606060" stroke-width=".5" x="0" y="0" width="60" height="60"/>
                <use id="zoomplus" xlink:href="#zoomPlus" x="17" y="9" onmousedown="handleZoom(evt,'in')"/>
                <use id="zoomminus" xlink:href="#zoomMin" x="42" y="9" onmousedown="handleZoom(evt,'out')"/>
                <use id="reset" xlink:href="#resetDef" x="30" y="36" onmousedown="handleReset()"/>
                <g id="arrowUp" xlink:href="#dirArrow" transform="translate(30 24)" onmousedown="handlePan(0,-1)">
                  <use xlink:href="#rim" fill="#404040">
                        <set attributeName="fill" to="#808080" begin="arrowUp.mouseover" end="arrowUp.mouseout"/>
                  </use>
                  <path fill="none" stroke="white" stroke-width="1.5" d="M0,-3.0v7 M-2.5,-0.5L0,-3.0L2.5,-0.5"/>
                </g>
                <g id="arrowRight" xlink:href="#dirArrow" transform="rotate(90) translate(36 -43)" onmousedown="handlePan(1,0)">
                  <use xlink:href="#rim" fill="#404040">
                        <set attributeName="fill" to="#808080" begin="arrowRight.mouseover" end="arrowRight.mouseout"/>
                  </use>
                  <path fill="none" stroke="white" stroke-width="1.5" d="M0,-3.0v7 M-2.5,-0.5L0,-3.0L2.5,-0.5"/>
                </g>
                <g id="arrowDown" xlink:href="#dirArrow" transform="rotate(180) translate(-30 -48)" onmousedown="handlePan(0,1)">
                  <use xlink:href="#rim" fill="#404040">
                        <set attributeName="fill" to="#808080" begin="arrowDown.mouseover" end="arrowDown.mouseout"/>
                  </use>
                  <path fill="none" stroke="white" stroke-width="1.5" d="M0,-3.0v7 M-2.5,-0.5L0,-3.0L2.5,-0.5"/>
                </g>
                <g id="arrowLeft" xlink:href="#dirArrow" transform="rotate(270) translate(-36 17)" onmousedown="handlePan(-1,0)">
                  <use xlink:href="#rim" fill="#404040">
                        <set attributeName="fill" to="#808080" begin="arrowLeft.mouseover" end="arrowLeft.mouseout"/>
                  </use>
                  <path fill="none" stroke="white" stroke-width="1.5" d="M0,-3.0v7 M-2.5,-0.5L0,-3.0L2.5,-0.5"/>
                </g>
        </g>
        <svg viewBox="0 0 15 15" width="100%" height="30px" preserveAspectRatio="xMaxYMin meet">
         <g id="arrow_out" transform="scale(0.3 0.3)">
          <a xlink:href="class_view_1_1_head_quarters_u_i_a02abc498e15dbe96c68c91f4d5fcd26f_icgraph_org.svg" target="_base">
           <rect id="button" ry="5" rx="5" y="6" x="6" height="38" width="38"
                fill="#f2f5e9" fill-opacity="0.5" stroke="#606060" stroke-width="1.0"/>
           <path id="arrow"
             d="M 11.500037,31.436501 C 11.940474,20.09759 22.043105,11.32322 32.158766,21.979434 L 37.068811,17.246167 C 37.068811,17.246167 37.088388,32 37.088388,32 L 22.160133,31.978069 C 22.160133,31.978069 26.997745,27.140456 26.997745,27.140456 C 18.528582,18.264221 13.291696,25.230495 11.500037,31.436501 z"
             style="fill:#404040;"/>
          </a>
         </g>
        </svg>
</svg>
