<?xml version="1.0" encoding="UTF-8" standalone="no"?>
<!DOCTYPE svg PUBLIC "-//W3C//DTD SVG 1.1//EN"
 "http://www.w3.org/Graphics/SVG/1.1/DTD/svg11.dtd">
<!-- Generated by graphviz version 2.38.0 (20140413.2041)
 -->
<!-- Title: Model::parkSpaceInserter::removeBlockedSpaces Pages: 1 -->
<!--zoomable 304 -->
<svg id="main" version="1.1" xmlns="http://www.w3.org/2000/svg" xmlns:xlink="http://www.w3.org/1999/xlink" xml:space="preserve" onload="init(evt)">
<style type="text/css"><![CDATA[
.edge:hover path { stroke: red; }
.edge:hover polygon { stroke: red; fill: red; }
]]></style>
<script type="text/javascript"><![CDATA[
var edges = document.getElementsByTagName('g');
if (edges && edges.length) {
  for (var i=0;i<edges.length;i++) {
    if (edges[i].id.substr(0,4)=='edge') {
      edges[i].setAttribute('class','edge');
    }
  }
}
]]></script>
        <defs>
                <circle id="rim" cx="0" cy="0" r="7"/>
                <circle id="rim2" cx="0" cy="0" r="3.5"/>
                <g id="zoomPlus">
                        <use xlink:href="#rim" fill="#404040">
                                <set attributeName="fill" to="#808080" begin="zoomplus.mouseover" end="zoomplus.mouseout"/>
                        </use>
                        <path d="M-4,0h8M0,-4v8" fill="none" stroke="white" stroke-width="1.5" pointer-events="none"/>
                </g>
                <g id="zoomMin">
                        <use xlink:href="#rim" fill="#404040">
                                <set attributeName="fill" to="#808080" begin="zoomminus.mouseover" end="zoomminus.mouseout"/>
                        </use>
                        <path d="M-4,0h8" fill="none" stroke="white" stroke-width="1.5" pointer-events="none"/>
                </g>
                <g id="dirArrow">
                        <path fill="none" stroke="white" stroke-width="1.5" d="M0,-3.0v7 M-2.5,-0.5L0,-3.0L2.5,-0.5"/>
                </g>
               <g id="resetDef">
                       <use xlink:href="#rim2" fill="#404040">
                               <set attributeName="fill" to="#808080" begin="reset.mouseover" end="reset.mouseout"/>
                       </use>
               </g>
        </defs>

<script type="text/javascript">
var viewWidth = 756;
var viewHeight = 304;
var sectionId = 'dynsection-10';
</script>
<script xlink:href="svgpan.js"/>
<svg id="graph" class="graph">
<g id="viewport">
<title>Model::parkSpaceInserter::removeBlockedSpaces</title>
<polygon fill="white" stroke="none" points="-4,4 -4,-300.264 752,-300.264 752,4 -4,4"/>
<!-- Node58 -->
<g id="node1" class="node"><title>Node58</title>
<polygon fill="#bfbfbf" stroke="black" points="0,-164.5 0,-194.5 128,-194.5 128,-164.5 0,-164.5"/>
<text text-anchor="start" x="8" y="-182.5" font-family="Helvetica,sans-Serif" font-size="10.00">Model::parkSpaceInserter</text>
<text text-anchor="middle" x="64" y="-171.5" font-family="Helvetica,sans-Serif" font-size="10.00">::removeBlockedSpaces</text>
</g>
<!-- Node59 -->
<g id="node2" class="node"><title>Node59</title>
<g id="a_node2"><a xlink:href="class_model_1_1park_space_inserter.html#ab81abccc02f65eed8d54e0d56b234e18" target="_top" xlink:title="Model::parkSpaceInserter\l::floodFill">
<polygon fill="white" stroke="black" points="164,-142.5 164,-172.5 292,-172.5 292,-142.5 164,-142.5"/>
<text text-anchor="start" x="172" y="-160.5" font-family="Helvetica,sans-Serif" font-size="10.00">Model::parkSpaceInserter</text>
<text text-anchor="middle" x="228" y="-149.5" font-family="Helvetica,sans-Serif" font-size="10.00">::floodFill</text>
</a>
</g>
</g>
<!-- Node58&#45;&gt;Node59 -->
<g id="edge1" class="edge"><title>Node58&#45;&gt;Node59</title>
<path fill="none" stroke="midnightblue" d="M128.097,-170.931C136.526,-169.787 145.227,-168.605 153.81,-167.439"/>
<polygon fill="midnightblue" stroke="midnightblue" points="154.37,-170.895 163.808,-166.082 153.428,-163.959 154.37,-170.895"/>
</g>
<!-- Node61 -->
<g id="node4" class="node"><title>Node61</title>
<g id="a_node4"><a xlink:href="class_model_1_1map_generator.html#a02b91ca9a47b993e6fa14b9b0ad317f2" target="_top" xlink:title="Get tile from point in tile coordinates. ">
<polygon fill="white" stroke="black" points="337,-235.5 337,-265.5 447,-265.5 447,-235.5 337,-235.5"/>
<text text-anchor="start" x="345" y="-253.5" font-family="Helvetica,sans-Serif" font-size="10.00">Model::mapGenerator</text>
<text text-anchor="middle" x="392" y="-242.5" font-family="Helvetica,sans-Serif" font-size="10.00">::getTile</text>
</a>
</g>
</g>
<!-- Node58&#45;&gt;Node61 -->
<g id="edge10" class="edge"><title>Node58&#45;&gt;Node61</title>
<path fill="none" stroke="midnightblue" d="M122.474,-194.504C136.06,-197.915 150.517,-201.433 164,-204.5 218.679,-216.937 281.146,-229.474 326.691,-238.312"/>
<polygon fill="midnightblue" stroke="midnightblue" points="326.242,-241.789 336.724,-240.252 327.571,-234.917 326.242,-241.789"/>
</g>
<!-- Node62 -->
<g id="node5" class="node"><title>Node62</title>
<g id="a_node5"><a xlink:href="class_model_1_1map_generator.html#aaac1161126a56490862e3b5fffffbded" target="_top" xlink:title="Model::mapGenerator\l::indexAt">
<polygon fill="white" stroke="black" points="492,-142.5 492,-172.5 602,-172.5 602,-142.5 492,-142.5"/>
<text text-anchor="start" x="500" y="-160.5" font-family="Helvetica,sans-Serif" font-size="10.00">Model::mapGenerator</text>
<text text-anchor="middle" x="547" y="-149.5" font-family="Helvetica,sans-Serif" font-size="10.00">::indexAt</text>
</a>
</g>
</g>
<!-- Node58&#45;&gt;Node62 -->
<g id="edge11" class="edge"><title>Node58&#45;&gt;Node62</title>
<path fill="none" stroke="midnightblue" d="M86.4593,-194.572C147.316,-235.309 325.073,-340.303 456,-275.5 495.246,-256.075 522.05,-210.431 535.634,-181.945"/>
<polygon fill="midnightblue" stroke="midnightblue" points="538.907,-183.205 539.887,-172.655 532.542,-180.291 538.907,-183.205"/>
</g>
<!-- Node64 -->
<g id="node7" class="node"><title>Node64</title>
<g id="a_node7"><a xlink:href="class_model_1_1map_generator.html#af153f95aea5145100546ad86ac4b9d02" target="_top" xlink:title="Model::mapGenerator\l::indexToX">
<polygon fill="white" stroke="black" points="337,-186.5 337,-216.5 447,-216.5 447,-186.5 337,-186.5"/>
<text text-anchor="start" x="345" y="-204.5" font-family="Helvetica,sans-Serif" font-size="10.00">Model::mapGenerator</text>
<text text-anchor="middle" x="392" y="-193.5" font-family="Helvetica,sans-Serif" font-size="10.00">::indexToX</text>
</a>
</g>
</g>
<!-- Node58&#45;&gt;Node64 -->
<g id="edge12" class="edge"><title>Node58&#45;&gt;Node64</title>
<path fill="none" stroke="midnightblue" d="M128.243,-183.768C185.448,-187.628 269.29,-193.286 326.792,-197.167"/>
<polygon fill="midnightblue" stroke="midnightblue" points="326.641,-200.665 336.854,-197.846 327.112,-193.68 326.641,-200.665"/>
</g>
<!-- Node65 -->
<g id="node8" class="node"><title>Node65</title>
<g id="a_node8"><a xlink:href="class_model_1_1map_generator.html#a73020896792ce1a6aa4dd0ce2b9c5caf" target="_top" xlink:title="Model::mapGenerator\l::indexToY">
<polygon fill="white" stroke="black" points="337,-49.5 337,-79.5 447,-79.5 447,-49.5 337,-49.5"/>
<text text-anchor="start" x="345" y="-67.5" font-family="Helvetica,sans-Serif" font-size="10.00">Model::mapGenerator</text>
<text text-anchor="middle" x="392" y="-56.5" font-family="Helvetica,sans-Serif" font-size="10.00">::indexToY</text>
</a>
</g>
</g>
<!-- Node58&#45;&gt;Node65 -->
<g id="edge13" class="edge"><title>Node58&#45;&gt;Node65</title>
<path fill="none" stroke="midnightblue" d="M93.9456,-164.323C113.418,-154.472 139.849,-141.788 164,-132.5 217.839,-111.794 280.797,-93.3713 326.735,-80.9417"/>
<polygon fill="midnightblue" stroke="midnightblue" points="327.812,-84.2768 336.562,-78.3039 325.997,-77.5161 327.812,-84.2768"/>
</g>
<!-- Node66 -->
<g id="node9" class="node"><title>Node66</title>
<g id="a_node9"><a xlink:href="class_model_1_1map_generator.html#a180f1510b8d7eb4af5dc919eeaddfa69" target="_top" xlink:title="Model::mapGenerator\l::setTile">
<polygon fill="white" stroke="black" points="337,-0.5 337,-30.5 447,-30.5 447,-0.5 337,-0.5"/>
<text text-anchor="start" x="345" y="-18.5" font-family="Helvetica,sans-Serif" font-size="10.00">Model::mapGenerator</text>
<text text-anchor="middle" x="392" y="-7.5" font-family="Helvetica,sans-Serif" font-size="10.00">::setTile</text>
</a>
</g>
</g>
<!-- Node58&#45;&gt;Node66 -->
<g id="edge14" class="edge"><title>Node58&#45;&gt;Node66</title>
<path fill="none" stroke="midnightblue" d="M77.5586,-164.451C95.0143,-144.432 128.492,-109.173 164,-88.5 215.102,-58.7483 279.849,-39.4706 327.105,-28.2412"/>
<polygon fill="midnightblue" stroke="midnightblue" points="327.961,-31.6355 336.912,-25.9662 326.379,-24.8165 327.961,-31.6355"/>
</g>
<!-- Node60 -->
<g id="node3" class="node"><title>Node60</title>
<g id="a_node3"><a xlink:href="class_model_1_1park_space_inserter.html#ab86507374576bb3c92a1356507065806" target="_top" xlink:title="Model::parkSpaceInserter\l::getRelativeDirection">
<polygon fill="white" stroke="black" points="328,-98.5 328,-128.5 456,-128.5 456,-98.5 328,-98.5"/>
<text text-anchor="start" x="336" y="-116.5" font-family="Helvetica,sans-Serif" font-size="10.00">Model::parkSpaceInserter</text>
<text text-anchor="middle" x="392" y="-105.5" font-family="Helvetica,sans-Serif" font-size="10.00">::getRelativeDirection</text>
</a>
</g>
</g>
<!-- Node59&#45;&gt;Node60 -->
<g id="edge2" class="edge"><title>Node59&#45;&gt;Node60</title>
<path fill="none" stroke="midnightblue" d="M284.298,-142.481C297.648,-138.855 312.038,-134.947 325.795,-131.21"/>
<polygon fill="midnightblue" stroke="midnightblue" points="326.943,-134.525 335.676,-128.526 325.108,-127.77 326.943,-134.525"/>
</g>
<!-- Node59&#45;&gt;Node61 -->
<g id="edge3" class="edge"><title>Node59&#45;&gt;Node61</title>
<path fill="none" stroke="midnightblue" d="M248.269,-172.672C267.64,-187.448 298.744,-209.902 328,-225.5 331.738,-227.493 335.671,-229.42 339.669,-231.26"/>
<polygon fill="midnightblue" stroke="midnightblue" points="338.495,-234.567 349.058,-235.385 341.311,-228.158 338.495,-234.567"/>
</g>
<!-- Node59&#45;&gt;Node62 -->
<g id="edge4" class="edge"><title>Node59&#45;&gt;Node62</title>
<path fill="none" stroke="midnightblue" d="M292.008,-157.5C346.997,-157.5 426.433,-157.5 481.777,-157.5"/>
<polygon fill="midnightblue" stroke="midnightblue" points="481.82,-161 491.82,-157.5 481.82,-154 481.82,-161"/>
</g>
<!-- Node59&#45;&gt;Node64 -->
<g id="edge6" class="edge"><title>Node59&#45;&gt;Node64</title>
<path fill="none" stroke="midnightblue" d="M284.298,-172.519C298.076,-176.261 312.96,-180.304 327.114,-184.148"/>
<polygon fill="midnightblue" stroke="midnightblue" points="326.206,-187.528 336.774,-186.772 328.041,-180.773 326.206,-187.528"/>
</g>
<!-- Node59&#45;&gt;Node65 -->
<g id="edge7" class="edge"><title>Node59&#45;&gt;Node65</title>
<path fill="none" stroke="midnightblue" d="M247.823,-142.277C267.103,-127.203 298.366,-104.167 328,-88.5 331.243,-86.7854 334.637,-85.1308 338.095,-83.5473"/>
<polygon fill="midnightblue" stroke="midnightblue" points="339.565,-86.7247 347.342,-79.5294 336.775,-80.3046 339.565,-86.7247"/>
</g>
<!-- Node59&#45;&gt;Node66 -->
<g id="edge8" class="edge"><title>Node59&#45;&gt;Node66</title>
<path fill="none" stroke="midnightblue" d="M238.067,-142.324C253.574,-117.56 287.471,-68.3333 328,-39.5 330.086,-38.0158 332.276,-36.61 334.536,-35.2801"/>
<polygon fill="midnightblue" stroke="midnightblue" points="336.331,-38.2903 343.534,-30.521 333.058,-32.1025 336.331,-38.2903"/>
</g>
<!-- Node63 -->
<g id="node6" class="node"><title>Node63</title>
<g id="a_node6"><a xlink:href="class_model_1_1map_generator.html#a244ad56297f00ce2ab892d3b2a14ffac" target="_top" xlink:title="Model::mapGenerator\l::isInMapRange">
<polygon fill="white" stroke="black" points="638,-142.5 638,-172.5 748,-172.5 748,-142.5 638,-142.5"/>
<text text-anchor="start" x="646" y="-160.5" font-family="Helvetica,sans-Serif" font-size="10.00">Model::mapGenerator</text>
<text text-anchor="middle" x="693" y="-149.5" font-family="Helvetica,sans-Serif" font-size="10.00">::isInMapRange</text>
</a>
</g>
</g>
<!-- Node62&#45;&gt;Node63 -->
<g id="edge5" class="edge"><title>Node62&#45;&gt;Node63</title>
<path fill="none" stroke="midnightblue" d="M602.03,-157.5C610.314,-157.5 618.936,-157.5 627.42,-157.5"/>
<polygon fill="midnightblue" stroke="midnightblue" points="627.667,-161 637.667,-157.5 627.667,-154 627.667,-161"/>
</g>
<!-- Node66&#45;&gt;Node62 -->
<g id="edge9" class="edge"><title>Node66&#45;&gt;Node62</title>
<path fill="none" stroke="midnightblue" d="M441.272,-30.6263C446.471,-33.1926 451.499,-36.1377 456,-39.5 490.193,-65.0434 517.82,-106.939 533.06,-133.328"/>
<polygon fill="midnightblue" stroke="midnightblue" points="530.149,-135.292 538.104,-142.29 536.25,-131.859 530.149,-135.292"/>
</g>
</g>
</svg>
        <g id="navigator" transform="translate(0 0)" fill="#404254">
                <rect fill="#f2f5e9" fill-opacity="0.5" stroke="#606060" stroke-width=".5" x="0" y="0" width="60" height="60"/>
                <use id="zoomplus" xlink:href="#zoomPlus" x="17" y="9" onmousedown="handleZoom(evt,'in')"/>
                <use id="zoomminus" xlink:href="#zoomMin" x="42" y="9" onmousedown="handleZoom(evt,'out')"/>
                <use id="reset" xlink:href="#resetDef" x="30" y="36" onmousedown="handleReset()"/>
                <g id="arrowUp" xlink:href="#dirArrow" transform="translate(30 24)" onmousedown="handlePan(0,-1)">
                  <use xlink:href="#rim" fill="#404040">
                        <set attributeName="fill" to="#808080" begin="arrowUp.mouseover" end="arrowUp.mouseout"/>
                  </use>
                  <path fill="none" stroke="white" stroke-width="1.5" d="M0,-3.0v7 M-2.5,-0.5L0,-3.0L2.5,-0.5"/>
                </g>
                <g id="arrowRight" xlink:href="#dirArrow" transform="rotate(90) translate(36 -43)" onmousedown="handlePan(1,0)">
                  <use xlink:href="#rim" fill="#404040">
                        <set attributeName="fill" to="#808080" begin="arrowRight.mouseover" end="arrowRight.mouseout"/>
                  </use>
                  <path fill="none" stroke="white" stroke-width="1.5" d="M0,-3.0v7 M-2.5,-0.5L0,-3.0L2.5,-0.5"/>
                </g>
                <g id="arrowDown" xlink:href="#dirArrow" transform="rotate(180) translate(-30 -48)" onmousedown="handlePan(0,1)">
                  <use xlink:href="#rim" fill="#404040">
                        <set attributeName="fill" to="#808080" begin="arrowDown.mouseover" end="arrowDown.mouseout"/>
                  </use>
                  <path fill="none" stroke="white" stroke-width="1.5" d="M0,-3.0v7 M-2.5,-0.5L0,-3.0L2.5,-0.5"/>
                </g>
                <g id="arrowLeft" xlink:href="#dirArrow" transform="rotate(270) translate(-36 17)" onmousedown="handlePan(-1,0)">
                  <use xlink:href="#rim" fill="#404040">
                        <set attributeName="fill" to="#808080" begin="arrowLeft.mouseover" end="arrowLeft.mouseout"/>
                  </use>
                  <path fill="none" stroke="white" stroke-width="1.5" d="M0,-3.0v7 M-2.5,-0.5L0,-3.0L2.5,-0.5"/>
                </g>
        </g>
        <svg viewBox="0 0 15 15" width="100%" height="30px" preserveAspectRatio="xMaxYMin meet">
         <g id="arrow_out" transform="scale(0.3 0.3)">
          <a xlink:href="class_model_1_1park_space_inserter_ada0688360de1fb7d5bd138f2f645bea6_cgraph_org.svg" target="_base">
           <rect id="button" ry="5" rx="5" y="6" x="6" height="38" width="38"
                fill="#f2f5e9" fill-opacity="0.5" stroke="#606060" stroke-width="1.0"/>
           <path id="arrow"
             d="M 11.500037,31.436501 C 11.940474,20.09759 22.043105,11.32322 32.158766,21.979434 L 37.068811,17.246167 C 37.068811,17.246167 37.088388,32 37.088388,32 L 22.160133,31.978069 C 22.160133,31.978069 26.997745,27.140456 26.997745,27.140456 C 18.528582,18.264221 13.291696,25.230495 11.500037,31.436501 z"
             style="fill:#404040;"/>
          </a>
         </g>
        </svg>
</svg>
