<?xml version="1.0" encoding="UTF-8" standalone="no"?>
<!DOCTYPE svg PUBLIC "-//W3C//DTD SVG 1.1//EN"
 "http://www.w3.org/Graphics/SVG/1.1/DTD/svg11.dtd">
<!-- Generated by graphviz version 2.38.0 (20140413.2041)
 -->
<!-- Title: Model::mapProcessor::getTileClosest Pages: 1 -->
<svg width="571pt" height="83pt"
 viewBox="0.00 0.00 571.00 83.00" xmlns="http://www.w3.org/2000/svg" xmlns:xlink="http://www.w3.org/1999/xlink">
<g id="graph0" class="graph" transform="scale(1 1) rotate(0) translate(4 79)">
<title>Model::mapProcessor::getTileClosest</title>
<polygon fill="white" stroke="none" points="-4,4 -4,-79 567,-79 567,4 -4,4"/>
<!-- Node56 -->
<g id="node1" class="node"><title>Node56</title>
<polygon fill="#bfbfbf" stroke="black" points="0,-22.5 0,-52.5 112,-52.5 112,-22.5 0,-22.5"/>
<text text-anchor="start" x="8" y="-40.5" font-family="Helvetica,sans-Serif" font-size="10.00">Model::mapProcessor</text>
<text text-anchor="middle" x="56" y="-29.5" font-family="Helvetica,sans-Serif" font-size="10.00">::getTileClosest</text>
</g>
<!-- Node57 -->
<g id="node2" class="node"><title>Node57</title>
<g id="a_node2"><a xlink:href="class_model_1_1map_processor.html#ae1e80cb097c8e31a337b3a20ff653cc2" target="_top" xlink:title="Model::mapProcessor\l::calculateDistanceMap">
<polygon fill="white" stroke="black" points="148,-0.5 148,-30.5 267,-30.5 267,-0.5 148,-0.5"/>
<text text-anchor="start" x="156" y="-18.5" font-family="Helvetica,sans-Serif" font-size="10.00">Model::mapProcessor</text>
<text text-anchor="middle" x="207.5" y="-7.5" font-family="Helvetica,sans-Serif" font-size="10.00">::calculateDistanceMap</text>
</a>
</g>
</g>
<!-- Node56&#45;&gt;Node57 -->
<g id="edge1" class="edge"><title>Node56&#45;&gt;Node57</title>
<path fill="none" stroke="midnightblue" d="M122.202,-27.905C130.776,-26.6433 139.52,-25.3566 147.973,-24.1126"/>
<polygon fill="midnightblue" stroke="midnightblue" points="121.627,-24.4518 112.244,-29.3705 122.647,-31.3772 121.627,-24.4518"/>
</g>
<!-- Node58 -->
<g id="node3" class="node"><title>Node58</title>
<g id="a_node3"><a xlink:href="class_model_1_1map_processor.html#a3719cc265240be889e98f9830602a067" target="_top" xlink:title="Model::mapProcessor\l::getMedialMap">
<polygon fill="white" stroke="black" points="303,-44.5 303,-74.5 415,-74.5 415,-44.5 303,-44.5"/>
<text text-anchor="start" x="311" y="-62.5" font-family="Helvetica,sans-Serif" font-size="10.00">Model::mapProcessor</text>
<text text-anchor="middle" x="359" y="-51.5" font-family="Helvetica,sans-Serif" font-size="10.00">::getMedialMap</text>
</a>
</g>
</g>
<!-- Node56&#45;&gt;Node58 -->
<g id="edge5" class="edge"><title>Node56&#45;&gt;Node58</title>
<path fill="none" stroke="midnightblue" d="M122.353,-42.2767C176.292,-46.219 251.977,-51.7508 302.888,-55.4719"/>
<polygon fill="midnightblue" stroke="midnightblue" points="122.437,-38.7735 112.208,-41.5351 121.926,-45.7549 122.437,-38.7735"/>
</g>
<!-- Node57&#45;&gt;Node58 -->
<g id="edge2" class="edge"><title>Node57&#45;&gt;Node58</title>
<path fill="none" stroke="midnightblue" d="M269.39,-33.4207C281.86,-37.0908 294.863,-40.9179 306.945,-44.4738"/>
<polygon fill="midnightblue" stroke="midnightblue" points="270.113,-29.9851 259.531,-30.5192 268.136,-36.7003 270.113,-29.9851"/>
</g>
<!-- Node59 -->
<g id="node4" class="node"><title>Node59</title>
<g id="a_node4"><a xlink:href="class_model_1_1map_processor.html#a7be8a27aaad96e187b4dba60fde5031a" target="_top" xlink:title="Model::mapProcessor\l::placeEnemies">
<polygon fill="white" stroke="black" points="451,-22.5 451,-52.5 563,-52.5 563,-22.5 451,-22.5"/>
<text text-anchor="start" x="459" y="-40.5" font-family="Helvetica,sans-Serif" font-size="10.00">Model::mapProcessor</text>
<text text-anchor="middle" x="507" y="-29.5" font-family="Helvetica,sans-Serif" font-size="10.00">::placeEnemies</text>
</a>
</g>
</g>
<!-- Node57&#45;&gt;Node59 -->
<g id="edge4" class="edge"><title>Node57&#45;&gt;Node59</title>
<path fill="none" stroke="midnightblue" d="M277.555,-20.6066C330.275,-24.5052 401.945,-29.8052 450.862,-33.4226"/>
<polygon fill="midnightblue" stroke="midnightblue" points="277.507,-17.0936 267.276,-19.8465 276.991,-24.0745 277.507,-17.0936"/>
</g>
<!-- Node58&#45;&gt;Node59 -->
<g id="edge3" class="edge"><title>Node58&#45;&gt;Node59</title>
<path fill="none" stroke="midnightblue" d="M425.131,-49.6857C433.676,-48.3982 442.366,-47.0887 450.726,-45.829"/>
<polygon fill="midnightblue" stroke="midnightblue" points="424.563,-46.2317 415.196,-51.1827 425.606,-53.1536 424.563,-46.2317"/>
</g>
</g>
</svg>
