<?xml version="1.0" encoding="UTF-8" standalone="no"?>
<!DOCTYPE svg PUBLIC "-//W3C//DTD SVG 1.1//EN"
 "http://www.w3.org/Graphics/SVG/1.1/DTD/svg11.dtd">
<!-- Generated by graphviz version 2.38.0 (20140413.2041)
 -->
<!-- Title: Model::Weapon Pages: 1 -->
<!--zoomable 684 -->
<svg id="main" version="1.1" xmlns="http://www.w3.org/2000/svg" xmlns:xlink="http://www.w3.org/1999/xlink" xml:space="preserve" onload="init(evt)">
<style type="text/css"><![CDATA[
.edge:hover path { stroke: red; }
.edge:hover polygon { stroke: red; fill: red; }
]]></style>
<script type="text/javascript"><![CDATA[
var edges = document.getElementsByTagName('g');
if (edges && edges.length) {
  for (var i=0;i<edges.length;i++) {
    if (edges[i].id.substr(0,4)=='edge') {
      edges[i].setAttribute('class','edge');
    }
  }
}
]]></script>
        <defs>
                <circle id="rim" cx="0" cy="0" r="7"/>
                <circle id="rim2" cx="0" cy="0" r="3.5"/>
                <g id="zoomPlus">
                        <use xlink:href="#rim" fill="#404040">
                                <set attributeName="fill" to="#808080" begin="zoomplus.mouseover" end="zoomplus.mouseout"/>
                        </use>
                        <path d="M-4,0h8M0,-4v8" fill="none" stroke="white" stroke-width="1.5" pointer-events="none"/>
                </g>
                <g id="zoomMin">
                        <use xlink:href="#rim" fill="#404040">
                                <set attributeName="fill" to="#808080" begin="zoomminus.mouseover" end="zoomminus.mouseout"/>
                        </use>
                        <path d="M-4,0h8" fill="none" stroke="white" stroke-width="1.5" pointer-events="none"/>
                </g>
                <g id="dirArrow">
                        <path fill="none" stroke="white" stroke-width="1.5" d="M0,-3.0v7 M-2.5,-0.5L0,-3.0L2.5,-0.5"/>
                </g>
               <g id="resetDef">
                       <use xlink:href="#rim2" fill="#404040">
                               <set attributeName="fill" to="#808080" begin="reset.mouseover" end="reset.mouseout"/>
                       </use>
               </g>
        </defs>

<script type="text/javascript">
var viewWidth = 443;
var viewHeight = 684;
var sectionId = 'dynsection-1';
</script>
<script xlink:href="svgpan.js"/>
<svg id="graph" class="graph">
<g id="viewport">
<title>Model::Weapon</title>
<polygon fill="white" stroke="none" points="-4,4 -4,-680 438.5,-680 438.5,4 -4,4"/>
<!-- Node3 -->
<g id="node1" class="node"><title>Node3</title>
<polygon fill="#bfbfbf" stroke="black" points="155,-0.5 155,-200.5 310,-200.5 310,-0.5 155,-0.5"/>
<text text-anchor="middle" x="232.5" y="-188.5" font-family="Helvetica,sans-Serif" font-size="10.00">Model::Weapon</text>
<polyline fill="none" stroke="black" points="155,-181.5 310,-181.5 "/>
<text text-anchor="middle" x="232.5" y="-169.5" font-family="Helvetica,sans-Serif" font-size="10.00"> </text>
<polyline fill="none" stroke="black" points="155,-162.5 310,-162.5 "/>
<text text-anchor="start" x="163" y="-150.5" font-family="Helvetica,sans-Serif" font-size="10.00">+ Weapon()</text>
<text text-anchor="start" x="163" y="-139.5" font-family="Helvetica,sans-Serif" font-size="10.00">+ Weapon()</text>
<text text-anchor="start" x="163" y="-128.5" font-family="Helvetica,sans-Serif" font-size="10.00">+ Weapon()</text>
<text text-anchor="start" x="163" y="-117.5" font-family="Helvetica,sans-Serif" font-size="10.00">+ getPrice()</text>
<text text-anchor="start" x="163" y="-106.5" font-family="Helvetica,sans-Serif" font-size="10.00">+ getName()</text>
<text text-anchor="start" x="163" y="-95.5" font-family="Helvetica,sans-Serif" font-size="10.00">+ getType()</text>
<text text-anchor="start" x="163" y="-84.5" font-family="Helvetica,sans-Serif" font-size="10.00">+ getAmmo()</text>
<text text-anchor="start" x="163" y="-73.5" font-family="Helvetica,sans-Serif" font-size="10.00">+ getMaximumAmmoCapacity()</text>
<text text-anchor="start" x="163" y="-62.5" font-family="Helvetica,sans-Serif" font-size="10.00">+ getRange()</text>
<text text-anchor="start" x="163" y="-51.5" font-family="Helvetica,sans-Serif" font-size="10.00">+ getDamage()</text>
<text text-anchor="start" x="163" y="-40.5" font-family="Helvetica,sans-Serif" font-size="10.00">+ getRate()</text>
<text text-anchor="start" x="163" y="-29.5" font-family="Helvetica,sans-Serif" font-size="10.00">+ getAccuracy()</text>
<text text-anchor="start" x="163" y="-18.5" font-family="Helvetica,sans-Serif" font-size="10.00">+ getMinimumTechLvl()</text>
<text text-anchor="start" x="163" y="-7.5" font-family="Helvetica,sans-Serif" font-size="10.00">+ shoot()</text>
</g>
<!-- Node4 -->
<g id="node2" class="node"><title>Node4</title>
<g id="a_node2"><a xlink:href="class_interface_1_1_weapon_interface.html" target="_top" xlink:title="{Interface::WeaponInterface\n||+ WeaponInterface()\l+ ~WeaponInterface()\l+ getAmmo()\l+ getMaximumAmmoCapacity()\l+ getRange()\l+ getDamage()\l+ getRate()\l+ getAccuracy()\l+ getMinimumTechLvl()\l}">
<polygon fill="white" stroke="black" points="0,-325.5 0,-470.5 155,-470.5 155,-325.5 0,-325.5"/>
<text text-anchor="middle" x="77.5" y="-458.5" font-family="Helvetica,sans-Serif" font-size="10.00">Interface::WeaponInterface</text>
<polyline fill="none" stroke="black" points="0,-451.5 155,-451.5 "/>
<text text-anchor="middle" x="77.5" y="-439.5" font-family="Helvetica,sans-Serif" font-size="10.00"> </text>
<polyline fill="none" stroke="black" points="0,-432.5 155,-432.5 "/>
<text text-anchor="start" x="8" y="-420.5" font-family="Helvetica,sans-Serif" font-size="10.00">+ WeaponInterface()</text>
<text text-anchor="start" x="8" y="-409.5" font-family="Helvetica,sans-Serif" font-size="10.00">+ ~WeaponInterface()</text>
<text text-anchor="start" x="8" y="-398.5" font-family="Helvetica,sans-Serif" font-size="10.00">+ getAmmo()</text>
<text text-anchor="start" x="8" y="-387.5" font-family="Helvetica,sans-Serif" font-size="10.00">+ getMaximumAmmoCapacity()</text>
<text text-anchor="start" x="8" y="-376.5" font-family="Helvetica,sans-Serif" font-size="10.00">+ getRange()</text>
<text text-anchor="start" x="8" y="-365.5" font-family="Helvetica,sans-Serif" font-size="10.00">+ getDamage()</text>
<text text-anchor="start" x="8" y="-354.5" font-family="Helvetica,sans-Serif" font-size="10.00">+ getRate()</text>
<text text-anchor="start" x="8" y="-343.5" font-family="Helvetica,sans-Serif" font-size="10.00">+ getAccuracy()</text>
<text text-anchor="start" x="8" y="-332.5" font-family="Helvetica,sans-Serif" font-size="10.00">+ getMinimumTechLvl()</text>
</a>
</g>
</g>
<!-- Node4&#45;&gt;Node3 -->
<g id="edge1" class="edge"><title>Node4&#45;&gt;Node3</title>
<path fill="none" stroke="midnightblue" d="M119.713,-316.522C138.481,-280.742 160.759,-238.27 180.539,-200.562"/>
<polygon fill="none" stroke="midnightblue" points="116.567,-314.986 115.021,-325.468 122.766,-318.238 116.567,-314.986"/>
</g>
<!-- Node5 -->
<g id="node3" class="node"><title>Node5</title>
<g id="a_node3"><a xlink:href="class_interface_1_1_equipment_interface.html" target="_top" xlink:title="EquipmentInterface on rajapintaluokka, josta peritään tavaroita (Equipment). ">
<polygon fill="white" stroke="black" points="0,-508.5 0,-675.5 155,-675.5 155,-508.5 0,-508.5"/>
<text text-anchor="middle" x="77.5" y="-663.5" font-family="Helvetica,sans-Serif" font-size="10.00">Interface::EquipmentInterface</text>
<polyline fill="none" stroke="black" points="0,-656.5 155,-656.5 "/>
<text text-anchor="middle" x="77.5" y="-644.5" font-family="Helvetica,sans-Serif" font-size="10.00"> </text>
<polyline fill="none" stroke="black" points="0,-637.5 155,-637.5 "/>
<text text-anchor="start" x="8" y="-625.5" font-family="Helvetica,sans-Serif" font-size="10.00">+ EquipmentInterface()</text>
<text text-anchor="start" x="8" y="-614.5" font-family="Helvetica,sans-Serif" font-size="10.00">+ ~EquipmentInterface()</text>
<text text-anchor="start" x="8" y="-603.5" font-family="Helvetica,sans-Serif" font-size="10.00">+ getPrice()</text>
<text text-anchor="start" x="8" y="-592.5" font-family="Helvetica,sans-Serif" font-size="10.00">+ getName()</text>
<text text-anchor="start" x="8" y="-581.5" font-family="Helvetica,sans-Serif" font-size="10.00">+ getType()</text>
<text text-anchor="start" x="8" y="-570.5" font-family="Helvetica,sans-Serif" font-size="10.00">+ getAmmo()</text>
<text text-anchor="start" x="8" y="-559.5" font-family="Helvetica,sans-Serif" font-size="10.00">+ getMaximumAmmoCapacity()</text>
<text text-anchor="start" x="8" y="-548.5" font-family="Helvetica,sans-Serif" font-size="10.00">+ getUpgradeLevel()</text>
<text text-anchor="start" x="8" y="-537.5" font-family="Helvetica,sans-Serif" font-size="10.00">+ getRange()</text>
<text text-anchor="start" x="8" y="-526.5" font-family="Helvetica,sans-Serif" font-size="10.00">+ getDamage()</text>
<text text-anchor="start" x="8" y="-515.5" font-family="Helvetica,sans-Serif" font-size="10.00">and 8 more...</text>
</a>
</g>
</g>
<!-- Node5&#45;&gt;Node4 -->
<g id="edge2" class="edge"><title>Node5&#45;&gt;Node4</title>
<path fill="none" stroke="midnightblue" d="M77.5,-498.367C77.5,-489.035 77.5,-479.66 77.5,-470.596"/>
<polygon fill="none" stroke="midnightblue" points="74.0001,-498.46 77.5,-508.46 81.0001,-498.46 74.0001,-498.46"/>
</g>
<!-- Node6 -->
<g id="node4" class="node"><title>Node6</title>
<polygon fill="white" stroke="#bfbfbf" points="173,-369.5 173,-426.5 218,-426.5 218,-369.5 173,-369.5"/>
<text text-anchor="middle" x="195.5" y="-414.5" font-family="Helvetica,sans-Serif" font-size="10.00">double</text>
<polyline fill="none" stroke="#bfbfbf" points="173,-407.5 218,-407.5 "/>
<text text-anchor="middle" x="195.5" y="-395.5" font-family="Helvetica,sans-Serif" font-size="10.00"> </text>
<polyline fill="none" stroke="#bfbfbf" points="173,-388.5 218,-388.5 "/>
<text text-anchor="middle" x="195.5" y="-376.5" font-family="Helvetica,sans-Serif" font-size="10.00"> </text>
</g>
<!-- Node6&#45;&gt;Node3 -->
<g id="edge3" class="edge"><title>Node6&#45;&gt;Node3</title>
<path fill="none" stroke="#404040" d="M193.183,-369.362C190.799,-334.197 188.457,-271.698 196.5,-219 196.815,-216.934 197.159,-214.854 197.529,-212.764"/>
<polygon fill="none" stroke="#404040" points="197.584,-212.486 194.824,-205.824 199.913,-200.714 202.672,-207.376 197.584,-212.486"/>
<text text-anchor="middle" x="222.5" y="-260.5" font-family="Helvetica,sans-Serif" font-size="10.00"> &#45;accuracy_</text>
</g>
<!-- Node7 -->
<g id="node5" class="node"><title>Node7</title>
<polygon fill="white" stroke="#bfbfbf" points="245.5,-369.5 245.5,-426.5 295.5,-426.5 295.5,-369.5 245.5,-369.5"/>
<text text-anchor="middle" x="270.5" y="-414.5" font-family="Helvetica,sans-Serif" font-size="10.00">QString</text>
<polyline fill="none" stroke="#bfbfbf" points="245.5,-407.5 295.5,-407.5 "/>
<text text-anchor="middle" x="270.5" y="-395.5" font-family="Helvetica,sans-Serif" font-size="10.00"> </text>
<polyline fill="none" stroke="#bfbfbf" points="245.5,-388.5 295.5,-388.5 "/>
<text text-anchor="middle" x="270.5" y="-376.5" font-family="Helvetica,sans-Serif" font-size="10.00"> </text>
</g>
<!-- Node7&#45;&gt;Node3 -->
<g id="edge4" class="edge"><title>Node7&#45;&gt;Node3</title>
<path fill="none" stroke="#404040" d="M267.176,-369.238C262.958,-334.206 255.398,-272.111 248.5,-219 248.219,-216.836 247.934,-214.649 247.645,-212.446"/>
<polygon fill="none" stroke="#404040" points="247.643,-212.432 242.893,-207.006 246.075,-200.535 250.825,-205.96 247.643,-212.432"/>
<text text-anchor="middle" x="278.5" y="-266" font-family="Helvetica,sans-Serif" font-size="10.00"> &#45;name_</text>
<text text-anchor="middle" x="278.5" y="-255" font-family="Helvetica,sans-Serif" font-size="10.00">&#45;type_</text>
</g>
<!-- Node8 -->
<g id="node6" class="node"><title>Node8</title>
<polygon fill="white" stroke="#bfbfbf" points="315,-369.5 315,-426.5 344,-426.5 344,-369.5 315,-369.5"/>
<text text-anchor="middle" x="329.5" y="-414.5" font-family="Helvetica,sans-Serif" font-size="10.00">int</text>
<polyline fill="none" stroke="#bfbfbf" points="315,-407.5 344,-407.5 "/>
<text text-anchor="middle" x="329.5" y="-395.5" font-family="Helvetica,sans-Serif" font-size="10.00"> </text>
<polyline fill="none" stroke="#bfbfbf" points="315,-388.5 344,-388.5 "/>
<text text-anchor="middle" x="329.5" y="-376.5" font-family="Helvetica,sans-Serif" font-size="10.00"> </text>
</g>
<!-- Node8&#45;&gt;Node3 -->
<g id="edge5" class="edge"><title>Node8&#45;&gt;Node3</title>
<path fill="none" stroke="#404040" d="M328.099,-369.395C325.598,-333.732 318.773,-270.158 300.5,-219 299.648,-216.616 298.748,-214.225 297.806,-211.831"/>
<polygon fill="none" stroke="#404040" points="297.75,-211.699 291.739,-207.716 293.104,-200.635 299.115,-204.618 297.75,-211.699"/>
<text text-anchor="middle" x="378" y="-299" font-family="Helvetica,sans-Serif" font-size="10.00"> &#45;damage_</text>
<text text-anchor="middle" x="378" y="-288" font-family="Helvetica,sans-Serif" font-size="10.00">&#45;range_</text>
<text text-anchor="middle" x="378" y="-277" font-family="Helvetica,sans-Serif" font-size="10.00">&#45;currentAmmo_</text>
<text text-anchor="middle" x="378" y="-266" font-family="Helvetica,sans-Serif" font-size="10.00">&#45;minTechLvl_</text>
<text text-anchor="middle" x="378" y="-255" font-family="Helvetica,sans-Serif" font-size="10.00">&#45;price_</text>
<text text-anchor="start" x="321.5" y="-244" font-family="Helvetica,sans-Serif" font-size="10.00">&#45;maximumAmmoCapacity</text>
<text text-anchor="middle" x="378" y="-233" font-family="Helvetica,sans-Serif" font-size="10.00">_</text>
<text text-anchor="middle" x="378" y="-222" font-family="Helvetica,sans-Serif" font-size="10.00">&#45;rate_</text>
</g>
</g>
</svg>
        <g id="navigator" transform="translate(0 0)" fill="#404254">
                <rect fill="#f2f5e9" fill-opacity="0.5" stroke="#606060" stroke-width=".5" x="0" y="0" width="60" height="60"/>
                <use id="zoomplus" xlink:href="#zoomPlus" x="17" y="9" onmousedown="handleZoom(evt,'in')"/>
                <use id="zoomminus" xlink:href="#zoomMin" x="42" y="9" onmousedown="handleZoom(evt,'out')"/>
                <use id="reset" xlink:href="#resetDef" x="30" y="36" onmousedown="handleReset()"/>
                <g id="arrowUp" xlink:href="#dirArrow" transform="translate(30 24)" onmousedown="handlePan(0,-1)">
                  <use xlink:href="#rim" fill="#404040">
                        <set attributeName="fill" to="#808080" begin="arrowUp.mouseover" end="arrowUp.mouseout"/>
                  </use>
                  <path fill="none" stroke="white" stroke-width="1.5" d="M0,-3.0v7 M-2.5,-0.5L0,-3.0L2.5,-0.5"/>
                </g>
                <g id="arrowRight" xlink:href="#dirArrow" transform="rotate(90) translate(36 -43)" onmousedown="handlePan(1,0)">
                  <use xlink:href="#rim" fill="#404040">
                        <set attributeName="fill" to="#808080" begin="arrowRight.mouseover" end="arrowRight.mouseout"/>
                  </use>
                  <path fill="none" stroke="white" stroke-width="1.5" d="M0,-3.0v7 M-2.5,-0.5L0,-3.0L2.5,-0.5"/>
                </g>
                <g id="arrowDown" xlink:href="#dirArrow" transform="rotate(180) translate(-30 -48)" onmousedown="handlePan(0,1)">
                  <use xlink:href="#rim" fill="#404040">
                        <set attributeName="fill" to="#808080" begin="arrowDown.mouseover" end="arrowDown.mouseout"/>
                  </use>
                  <path fill="none" stroke="white" stroke-width="1.5" d="M0,-3.0v7 M-2.5,-0.5L0,-3.0L2.5,-0.5"/>
                </g>
                <g id="arrowLeft" xlink:href="#dirArrow" transform="rotate(270) translate(-36 17)" onmousedown="handlePan(-1,0)">
                  <use xlink:href="#rim" fill="#404040">
                        <set attributeName="fill" to="#808080" begin="arrowLeft.mouseover" end="arrowLeft.mouseout"/>
                  </use>
                  <path fill="none" stroke="white" stroke-width="1.5" d="M0,-3.0v7 M-2.5,-0.5L0,-3.0L2.5,-0.5"/>
                </g>
        </g>
        <svg viewBox="0 0 15 15" width="100%" height="30px" preserveAspectRatio="xMaxYMin meet">
         <g id="arrow_out" transform="scale(0.3 0.3)">
          <a xlink:href="class_model_1_1_weapon__coll__graph_org.svg" target="_base">
           <rect id="button" ry="5" rx="5" y="6" x="6" height="38" width="38"
                fill="#f2f5e9" fill-opacity="0.5" stroke="#606060" stroke-width="1.0"/>
           <path id="arrow"
             d="M 11.500037,31.436501 C 11.940474,20.09759 22.043105,11.32322 32.158766,21.979434 L 37.068811,17.246167 C 37.068811,17.246167 37.088388,32 37.088388,32 L 22.160133,31.978069 C 22.160133,31.978069 26.997745,27.140456 26.997745,27.140456 C 18.528582,18.264221 13.291696,25.230495 11.500037,31.436501 z"
             style="fill:#404040;"/>
          </a>
         </g>
        </svg>
</svg>
