<?xml version="1.0" encoding="UTF-8" standalone="no"?>
<!DOCTYPE svg PUBLIC "-//W3C//DTD SVG 1.1//EN"
 "http://www.w3.org/Graphics/SVG/1.1/DTD/svg11.dtd">
<!-- Generated by graphviz version 2.38.0 (20140413.2041)
 -->
<!-- Title: Model::layoutGenerator::randomRoom Pages: 1 -->
<svg width="418pt" height="61pt"
 viewBox="0.00 0.00 418.00 61.00" xmlns="http://www.w3.org/2000/svg" xmlns:xlink="http://www.w3.org/1999/xlink">
<g id="graph0" class="graph" transform="scale(1 1) rotate(0) translate(4 57)">
<title>Model::layoutGenerator::randomRoom</title>
<polygon fill="white" stroke="none" points="-4,4 -4,-57 414,-57 414,4 -4,4"/>
<!-- Node10 -->
<g id="node1" class="node"><title>Node10</title>
<polygon fill="#bfbfbf" stroke="black" points="0,-0.5 0,-30.5 118,-30.5 118,-0.5 0,-0.5"/>
<text text-anchor="start" x="8" y="-18.5" font-family="Helvetica,sans-Serif" font-size="10.00">Model::layoutGenerator</text>
<text text-anchor="middle" x="59" y="-7.5" font-family="Helvetica,sans-Serif" font-size="10.00">::randomRoom</text>
</g>
<!-- Node11 -->
<g id="node2" class="node"><title>Node11</title>
<g id="a_node2"><a xlink:href="class_model_1_1map_generator.html#aaac1161126a56490862e3b5fffffbded" target="_top" xlink:title="Model::mapGenerator\l::indexAt">
<polygon fill="white" stroke="black" points="154,-22.5 154,-52.5 264,-52.5 264,-22.5 154,-22.5"/>
<text text-anchor="start" x="162" y="-40.5" font-family="Helvetica,sans-Serif" font-size="10.00">Model::mapGenerator</text>
<text text-anchor="middle" x="209" y="-29.5" font-family="Helvetica,sans-Serif" font-size="10.00">::indexAt</text>
</a>
</g>
</g>
<!-- Node10&#45;&gt;Node11 -->
<g id="edge1" class="edge"><title>Node10&#45;&gt;Node11</title>
<path fill="none" stroke="midnightblue" d="M118.069,-24.1318C126.567,-25.3951 135.359,-26.702 143.968,-27.9818"/>
<polygon fill="midnightblue" stroke="midnightblue" points="143.556,-31.4588 153.962,-29.4673 144.585,-24.5349 143.556,-31.4588"/>
</g>
<!-- Node12 -->
<g id="node3" class="node"><title>Node12</title>
<g id="a_node3"><a xlink:href="class_model_1_1map_generator.html#a244ad56297f00ce2ab892d3b2a14ffac" target="_top" xlink:title="Model::mapGenerator\l::isInMapRange">
<polygon fill="white" stroke="black" points="300,-0.5 300,-30.5 410,-30.5 410,-0.5 300,-0.5"/>
<text text-anchor="start" x="308" y="-18.5" font-family="Helvetica,sans-Serif" font-size="10.00">Model::mapGenerator</text>
<text text-anchor="middle" x="355" y="-7.5" font-family="Helvetica,sans-Serif" font-size="10.00">::isInMapRange</text>
</a>
</g>
</g>
<!-- Node10&#45;&gt;Node12 -->
<g id="edge3" class="edge"><title>Node10&#45;&gt;Node12</title>
<path fill="none" stroke="midnightblue" d="M118.163,-14.0693C130.02,-13.832 142.411,-13.6233 154,-13.5 202.886,-12.98 215.114,-12.9569 264,-13.5 272.312,-13.5923 281.055,-13.7326 289.691,-13.897"/>
<polygon fill="midnightblue" stroke="midnightblue" points="289.68,-17.3974 299.748,-14.0995 289.821,-10.3988 289.68,-17.3974"/>
</g>
<!-- Node11&#45;&gt;Node12 -->
<g id="edge2" class="edge"><title>Node11&#45;&gt;Node12</title>
<path fill="none" stroke="midnightblue" d="M264.03,-29.2454C272.405,-27.966 281.126,-26.6336 289.7,-25.3237"/>
<polygon fill="midnightblue" stroke="midnightblue" points="290.311,-28.771 299.667,-23.8008 289.253,-21.8513 290.311,-28.771"/>
</g>
</g>
</svg>
