<?xml version="1.0" encoding="UTF-8" standalone="no"?>
<!DOCTYPE svg PUBLIC "-//W3C//DTD SVG 1.1//EN"
 "http://www.w3.org/Graphics/SVG/1.1/DTD/svg11.dtd">
<!-- Generated by graphviz version 2.38.0 (20140413.2041)
 -->
<!-- Title: Model::mapProcessor::getMedialMap Pages: 1 -->
<!--zoomable 425 -->
<svg id="main" version="1.1" xmlns="http://www.w3.org/2000/svg" xmlns:xlink="http://www.w3.org/1999/xlink" xml:space="preserve" onload="init(evt)">
<style type="text/css"><![CDATA[
.edge:hover path { stroke: red; }
.edge:hover polygon { stroke: red; fill: red; }
]]></style>
<script type="text/javascript"><![CDATA[
var edges = document.getElementsByTagName('g');
if (edges && edges.length) {
  for (var i=0;i<edges.length;i++) {
    if (edges[i].id.substr(0,4)=='edge') {
      edges[i].setAttribute('class','edge');
    }
  }
}
]]></script>
        <defs>
                <circle id="rim" cx="0" cy="0" r="7"/>
                <circle id="rim2" cx="0" cy="0" r="3.5"/>
                <g id="zoomPlus">
                        <use xlink:href="#rim" fill="#404040">
                                <set attributeName="fill" to="#808080" begin="zoomplus.mouseover" end="zoomplus.mouseout"/>
                        </use>
                        <path d="M-4,0h8M0,-4v8" fill="none" stroke="white" stroke-width="1.5" pointer-events="none"/>
                </g>
                <g id="zoomMin">
                        <use xlink:href="#rim" fill="#404040">
                                <set attributeName="fill" to="#808080" begin="zoomminus.mouseover" end="zoomminus.mouseout"/>
                        </use>
                        <path d="M-4,0h8" fill="none" stroke="white" stroke-width="1.5" pointer-events="none"/>
                </g>
                <g id="dirArrow">
                        <path fill="none" stroke="white" stroke-width="1.5" d="M0,-3.0v7 M-2.5,-0.5L0,-3.0L2.5,-0.5"/>
                </g>
               <g id="resetDef">
                       <use xlink:href="#rim2" fill="#404040">
                               <set attributeName="fill" to="#808080" begin="reset.mouseover" end="reset.mouseout"/>
                       </use>
               </g>
        </defs>

<script type="text/javascript">
var viewWidth = 740;
var viewHeight = 425;
var sectionId = 'dynsection-5';
</script>
<script xlink:href="svgpan.js"/>
<svg id="graph" class="graph">
<g id="viewport">
<title>Model::mapProcessor::getMedialMap</title>
<polygon fill="white" stroke="none" points="-4,4 -4,-421.462 736,-421.462 736,4 -4,4"/>
<!-- Node27 -->
<g id="node1" class="node"><title>Node27</title>
<polygon fill="#bfbfbf" stroke="black" points="0,-107.5 0,-137.5 112,-137.5 112,-107.5 0,-107.5"/>
<text text-anchor="start" x="8" y="-125.5" font-family="Helvetica,sans-Serif" font-size="10.00">Model::mapProcessor</text>
<text text-anchor="middle" x="56" y="-114.5" font-family="Helvetica,sans-Serif" font-size="10.00">::getMedialMap</text>
</g>
<!-- Node28 -->
<g id="node2" class="node"><title>Node28</title>
<g id="a_node2"><a xlink:href="class_model_1_1map_processor.html#ae1e80cb097c8e31a337b3a20ff653cc2" target="_top" xlink:title="Model::mapProcessor\l::calculateDistanceMap">
<polygon fill="white" stroke="black" points="148,-183.5 148,-213.5 267,-213.5 267,-183.5 148,-183.5"/>
<text text-anchor="start" x="156" y="-201.5" font-family="Helvetica,sans-Serif" font-size="10.00">Model::mapProcessor</text>
<text text-anchor="middle" x="207.5" y="-190.5" font-family="Helvetica,sans-Serif" font-size="10.00">::calculateDistanceMap</text>
</a>
</g>
</g>
<!-- Node27&#45;&gt;Node28 -->
<g id="edge1" class="edge"><title>Node27&#45;&gt;Node28</title>
<path fill="none" stroke="midnightblue" d="M86.5364,-137.515C109.803,-149.343 142.432,-165.93 167.788,-178.82"/>
<polygon fill="midnightblue" stroke="midnightblue" points="166.269,-181.974 176.769,-183.386 169.441,-175.734 166.269,-181.974"/>
</g>
<!-- Node30 -->
<g id="node4" class="node"><title>Node30</title>
<g id="a_node4"><a xlink:href="class_model_1_1map_generator.html#a02b91ca9a47b993e6fa14b9b0ad317f2" target="_top" xlink:title="Get tile from point in tile coordinates. ">
<polygon fill="white" stroke="black" points="475,-375.5 475,-405.5 585,-405.5 585,-375.5 475,-375.5"/>
<text text-anchor="start" x="483" y="-393.5" font-family="Helvetica,sans-Serif" font-size="10.00">Model::mapGenerator</text>
<text text-anchor="middle" x="530" y="-382.5" font-family="Helvetica,sans-Serif" font-size="10.00">::getTile</text>
</a>
</g>
</g>
<!-- Node27&#45;&gt;Node30 -->
<g id="edge22" class="edge"><title>Node27&#45;&gt;Node30</title>
<path fill="none" stroke="midnightblue" d="M64.3451,-137.625C89.3614,-187.145 176.753,-344.502 303,-401.5 355.478,-425.193 421.95,-418.149 469.188,-407.798"/>
<polygon fill="midnightblue" stroke="midnightblue" points="470.004,-411.202 478.964,-405.549 468.434,-404.38 470.004,-411.202"/>
</g>
<!-- Node34 -->
<g id="node8" class="node"><title>Node34</title>
<g id="a_node8"><a xlink:href="class_model_1_1map_processor.html#ace629015ebfe8536ad3f14019fffe3e3" target="_top" xlink:title="Model::mapProcessor\l::getTileClosest">
<polygon fill="white" stroke="black" points="314.5,-98.5 314.5,-128.5 426.5,-128.5 426.5,-98.5 314.5,-98.5"/>
<text text-anchor="start" x="322.5" y="-116.5" font-family="Helvetica,sans-Serif" font-size="10.00">Model::mapProcessor</text>
<text text-anchor="middle" x="370.5" y="-105.5" font-family="Helvetica,sans-Serif" font-size="10.00">::getTileClosest</text>
</a>
</g>
</g>
<!-- Node27&#45;&gt;Node34 -->
<g id="edge23" class="edge"><title>Node27&#45;&gt;Node34</title>
<path fill="none" stroke="midnightblue" d="M112.275,-121.413C154.627,-120.525 214.511,-119.149 267,-117.5 279.029,-117.122 291.85,-116.665 304.206,-116.197"/>
<polygon fill="midnightblue" stroke="midnightblue" points="304.591,-119.685 314.449,-115.802 304.321,-112.69 304.591,-119.685"/>
</g>
<!-- Node36 -->
<g id="node10" class="node"><title>Node36</title>
<g id="a_node10"><a xlink:href="class_model_1_1map_generator.html#af153f95aea5145100546ad86ac4b9d02" target="_top" xlink:title="Model::mapGenerator\l::indexToX">
<polygon fill="white" stroke="black" points="315.5,-49.5 315.5,-79.5 425.5,-79.5 425.5,-49.5 315.5,-49.5"/>
<text text-anchor="start" x="323.5" y="-67.5" font-family="Helvetica,sans-Serif" font-size="10.00">Model::mapGenerator</text>
<text text-anchor="middle" x="370.5" y="-56.5" font-family="Helvetica,sans-Serif" font-size="10.00">::indexToX</text>
</a>
</g>
</g>
<!-- Node27&#45;&gt;Node36 -->
<g id="edge24" class="edge"><title>Node27&#45;&gt;Node36</title>
<path fill="none" stroke="midnightblue" d="M112.149,-112.264C166.201,-102.232 248.54,-86.9502 305.459,-76.386"/>
<polygon fill="midnightblue" stroke="midnightblue" points="306.231,-79.8025 315.425,-74.5364 304.954,-72.92 306.231,-79.8025"/>
</g>
<!-- Node37 -->
<g id="node11" class="node"><title>Node37</title>
<g id="a_node11"><a xlink:href="class_model_1_1map_generator.html#a73020896792ce1a6aa4dd0ce2b9c5caf" target="_top" xlink:title="Model::mapGenerator\l::indexToY">
<polygon fill="white" stroke="black" points="315.5,-0.5 315.5,-30.5 425.5,-30.5 425.5,-0.5 315.5,-0.5"/>
<text text-anchor="start" x="323.5" y="-18.5" font-family="Helvetica,sans-Serif" font-size="10.00">Model::mapGenerator</text>
<text text-anchor="middle" x="370.5" y="-7.5" font-family="Helvetica,sans-Serif" font-size="10.00">::indexToY</text>
</a>
</g>
</g>
<!-- Node27&#45;&gt;Node37 -->
<g id="edge25" class="edge"><title>Node27&#45;&gt;Node37</title>
<path fill="none" stroke="midnightblue" d="M67.2796,-107.483C82.308,-86.9193 112.394,-50.7049 148,-34.5 197.315,-12.0557 259.152,-8.51348 304.947,-9.89189"/>
<polygon fill="midnightblue" stroke="midnightblue" points="304.922,-13.3935 315.05,-10.283 305.193,-6.39869 304.922,-13.3935"/>
</g>
<!-- Node40 -->
<g id="node14" class="node"><title>Node40</title>
<g id="a_node14"><a xlink:href="class_model_1_1map_processor.html#a36b0d649c2d7a39b9dd71c17b9f85081" target="_top" xlink:title="Model::mapProcessor\l::getDistance">
<polygon fill="white" stroke="black" points="151.5,-44.5 151.5,-74.5 263.5,-74.5 263.5,-44.5 151.5,-44.5"/>
<text text-anchor="start" x="159.5" y="-62.5" font-family="Helvetica,sans-Serif" font-size="10.00">Model::mapProcessor</text>
<text text-anchor="middle" x="207.5" y="-51.5" font-family="Helvetica,sans-Serif" font-size="10.00">::getDistance</text>
</a>
</g>
</g>
<!-- Node27&#45;&gt;Node40 -->
<g id="edge19" class="edge"><title>Node27&#45;&gt;Node40</title>
<path fill="none" stroke="midnightblue" d="M92.809,-107.41C113.352,-98.7531 139.338,-87.8023 161.28,-78.5559"/>
<polygon fill="midnightblue" stroke="midnightblue" points="162.868,-81.6847 170.724,-74.576 160.15,-75.2341 162.868,-81.6847"/>
</g>
<!-- Node29 -->
<g id="node3" class="node"><title>Node29</title>
<g id="a_node3"><a xlink:href="class_model_1_1map_generator.html#a918049786b708772ca97df76389955a7" target="_top" xlink:title="Model::mapGenerator\l::getClosestEdge">
<polygon fill="white" stroke="black" points="315.5,-284.5 315.5,-314.5 425.5,-314.5 425.5,-284.5 315.5,-284.5"/>
<text text-anchor="start" x="323.5" y="-302.5" font-family="Helvetica,sans-Serif" font-size="10.00">Model::mapGenerator</text>
<text text-anchor="middle" x="370.5" y="-291.5" font-family="Helvetica,sans-Serif" font-size="10.00">::getClosestEdge</text>
</a>
</g>
</g>
<!-- Node28&#45;&gt;Node29 -->
<g id="edge2" class="edge"><title>Node28&#45;&gt;Node29</title>
<path fill="none" stroke="midnightblue" d="M226.134,-213.628C244.517,-228.936 274.562,-252.682 303,-269.5 309.296,-273.223 316.135,-276.793 322.953,-280.09"/>
<polygon fill="midnightblue" stroke="midnightblue" points="321.641,-283.34 332.182,-284.404 324.605,-276.999 321.641,-283.34"/>
</g>
<!-- Node28&#45;&gt;Node30 -->
<g id="edge9" class="edge"><title>Node28&#45;&gt;Node30</title>
<path fill="none" stroke="midnightblue" d="M211.529,-213.509C219.475,-248.53 244.482,-335.547 303,-373.5 350.616,-404.383 416.321,-405.861 464.615,-401.266"/>
<polygon fill="midnightblue" stroke="midnightblue" points="465.069,-404.738 474.643,-400.202 464.33,-397.777 465.069,-404.738"/>
</g>
<!-- Node31 -->
<g id="node5" class="node"><title>Node31</title>
<g id="a_node5"><a xlink:href="class_model_1_1map_generator.html#aaac1161126a56490862e3b5fffffbded" target="_top" xlink:title="Model::mapGenerator\l::indexAt">
<polygon fill="white" stroke="black" points="475,-284.5 475,-314.5 585,-314.5 585,-284.5 475,-284.5"/>
<text text-anchor="start" x="483" y="-302.5" font-family="Helvetica,sans-Serif" font-size="10.00">Model::mapGenerator</text>
<text text-anchor="middle" x="530" y="-291.5" font-family="Helvetica,sans-Serif" font-size="10.00">::indexAt</text>
</a>
</g>
</g>
<!-- Node28&#45;&gt;Node31 -->
<g id="edge12" class="edge"><title>Node28&#45;&gt;Node31</title>
<path fill="none" stroke="midnightblue" d="M244.546,-213.565C262.044,-220.633 283.462,-228.926 303,-235.5 332.943,-245.575 409.433,-266.9 465.153,-282.165"/>
<polygon fill="midnightblue" stroke="midnightblue" points="464.382,-285.583 474.951,-284.846 466.229,-278.831 464.382,-285.583"/>
</g>
<!-- Node33 -->
<g id="node7" class="node"><title>Node33</title>
<g id="a_node7"><a xlink:href="class_model_1_1map_generator.html#a92598d66736c2be4ca83aeedfe478b9d" target="_top" xlink:title="Model::mapGenerator\l::GetSurroundingWallCount">
<polygon fill="white" stroke="black" points="303,-333.5 303,-363.5 438,-363.5 438,-333.5 303,-333.5"/>
<text text-anchor="start" x="311" y="-351.5" font-family="Helvetica,sans-Serif" font-size="10.00">Model::mapGenerator</text>
<text text-anchor="middle" x="370.5" y="-340.5" font-family="Helvetica,sans-Serif" font-size="10.00">::GetSurroundingWallCount</text>
</a>
</g>
</g>
<!-- Node28&#45;&gt;Node33 -->
<g id="edge6" class="edge"><title>Node28&#45;&gt;Node33</title>
<path fill="none" stroke="midnightblue" d="M215.993,-213.559C229.743,-239.737 261.45,-293.769 303,-324.5 305.029,-326.001 307.161,-327.415 309.367,-328.748"/>
<polygon fill="midnightblue" stroke="midnightblue" points="307.711,-331.831 318.175,-333.489 311.029,-325.667 307.711,-331.831"/>
</g>
<!-- Node28&#45;&gt;Node34 -->
<g id="edge10" class="edge"><title>Node28&#45;&gt;Node34</title>
<path fill="none" stroke="midnightblue" d="M229.081,-183.261C247.7,-169.957 276.226,-150.758 303,-137.5 306.549,-135.743 310.26,-134.047 314.035,-132.425"/>
<polygon fill="midnightblue" stroke="midnightblue" points="315.567,-135.58 323.498,-128.554 312.917,-129.101 315.567,-135.58"/>
</g>
<!-- Node28&#45;&gt;Node36 -->
<g id="edge13" class="edge"><title>Node28&#45;&gt;Node36</title>
<path fill="none" stroke="midnightblue" d="M217.918,-183.148C233.079,-159.627 265.07,-114.656 303,-88.5 305.244,-86.9529 307.598,-85.4937 310.028,-84.1186"/>
<polygon fill="midnightblue" stroke="midnightblue" points="311.767,-87.1605 319.088,-79.5018 308.589,-80.9236 311.767,-87.1605"/>
</g>
<!-- Node28&#45;&gt;Node37 -->
<g id="edge14" class="edge"><title>Node28&#45;&gt;Node37</title>
<path fill="none" stroke="midnightblue" d="M215.872,-183.283C233.394,-147.642 277.934,-60.2071 303,-39.5 304.561,-38.2102 306.198,-36.9869 307.893,-35.827"/>
<polygon fill="midnightblue" stroke="midnightblue" points="309.978,-38.6595 316.784,-30.5403 306.4,-32.6427 309.978,-38.6595"/>
</g>
<!-- Node38 -->
<g id="node12" class="node"><title>Node38</title>
<g id="a_node12"><a xlink:href="class_model_1_1map_processor.html#aa4491f292821c1791ba15718fd9c6a63" target="_top" xlink:title="Model::mapProcessor\l::setTileClosest">
<polygon fill="white" stroke="black" points="314.5,-196.5 314.5,-226.5 426.5,-226.5 426.5,-196.5 314.5,-196.5"/>
<text text-anchor="start" x="322.5" y="-214.5" font-family="Helvetica,sans-Serif" font-size="10.00">Model::mapProcessor</text>
<text text-anchor="middle" x="370.5" y="-203.5" font-family="Helvetica,sans-Serif" font-size="10.00">::setTileClosest</text>
</a>
</g>
</g>
<!-- Node28&#45;&gt;Node38 -->
<g id="edge15" class="edge"><title>Node28&#45;&gt;Node38</title>
<path fill="none" stroke="midnightblue" d="M267.08,-203.23C279.162,-204.206 291.956,-205.239 304.258,-206.232"/>
<polygon fill="midnightblue" stroke="midnightblue" points="304.199,-209.739 314.448,-207.055 304.762,-202.761 304.199,-209.739"/>
</g>
<!-- Node39 -->
<g id="node13" class="node"><title>Node39</title>
<g id="a_node13"><a xlink:href="class_model_1_1map_processor.html#a89dbcb46165ca574cf2c9db9f5c16cee" target="_top" xlink:title="Model::mapProcessor\l::setTileDistance">
<polygon fill="white" stroke="black" points="314.5,-147.5 314.5,-177.5 426.5,-177.5 426.5,-147.5 314.5,-147.5"/>
<text text-anchor="start" x="322.5" y="-165.5" font-family="Helvetica,sans-Serif" font-size="10.00">Model::mapProcessor</text>
<text text-anchor="middle" x="370.5" y="-154.5" font-family="Helvetica,sans-Serif" font-size="10.00">::setTileDistance</text>
</a>
</g>
</g>
<!-- Node28&#45;&gt;Node39 -->
<g id="edge17" class="edge"><title>Node28&#45;&gt;Node39</title>
<path fill="none" stroke="midnightblue" d="M267.08,-185.401C279.283,-182.673 292.212,-179.782 304.627,-177.006"/>
<polygon fill="midnightblue" stroke="midnightblue" points="305.453,-180.408 314.448,-174.81 303.926,-173.576 305.453,-180.408"/>
</g>
<!-- Node29&#45;&gt;Node30 -->
<g id="edge3" class="edge"><title>Node29&#45;&gt;Node30</title>
<path fill="none" stroke="midnightblue" d="M416.585,-314.57C423.892,-317.543 431.266,-320.877 438,-324.5 461.337,-337.054 485.519,-354.858 503.083,-368.811"/>
<polygon fill="midnightblue" stroke="midnightblue" points="501.161,-371.757 511.142,-375.312 505.556,-366.309 501.161,-371.757"/>
</g>
<!-- Node29&#45;&gt;Node31 -->
<g id="edge4" class="edge"><title>Node29&#45;&gt;Node31</title>
<path fill="none" stroke="midnightblue" d="M425.703,-299.5C438.271,-299.5 451.766,-299.5 464.72,-299.5"/>
<polygon fill="midnightblue" stroke="midnightblue" points="464.964,-303 474.964,-299.5 464.964,-296 464.964,-303"/>
</g>
<!-- Node32 -->
<g id="node6" class="node"><title>Node32</title>
<g id="a_node6"><a xlink:href="class_model_1_1map_generator.html#a244ad56297f00ce2ab892d3b2a14ffac" target="_top" xlink:title="Model::mapGenerator\l::isInMapRange">
<polygon fill="white" stroke="black" points="622,-307.5 622,-337.5 732,-337.5 732,-307.5 622,-307.5"/>
<text text-anchor="start" x="630" y="-325.5" font-family="Helvetica,sans-Serif" font-size="10.00">Model::mapGenerator</text>
<text text-anchor="middle" x="677" y="-314.5" font-family="Helvetica,sans-Serif" font-size="10.00">::isInMapRange</text>
</a>
</g>
</g>
<!-- Node31&#45;&gt;Node32 -->
<g id="edge5" class="edge"><title>Node31&#45;&gt;Node32</title>
<path fill="none" stroke="midnightblue" d="M585.405,-308.13C594.046,-309.5 603.054,-310.929 611.893,-312.331"/>
<polygon fill="midnightblue" stroke="midnightblue" points="611.347,-315.788 621.772,-313.898 612.444,-308.875 611.347,-315.788"/>
</g>
<!-- Node33&#45;&gt;Node30 -->
<g id="edge7" class="edge"><title>Node33&#45;&gt;Node30</title>
<path fill="none" stroke="midnightblue" d="M427.916,-363.544C439.965,-366.757 452.775,-370.173 465.083,-373.456"/>
<polygon fill="midnightblue" stroke="midnightblue" points="464.258,-376.858 474.822,-376.053 466.062,-370.094 464.258,-376.858"/>
</g>
<!-- Node33&#45;&gt;Node32 -->
<g id="edge8" class="edge"><title>Node33&#45;&gt;Node32</title>
<path fill="none" stroke="midnightblue" d="M438.324,-342.794C489.752,-338.403 560.407,-332.37 611.297,-328.025"/>
<polygon fill="midnightblue" stroke="midnightblue" points="611.854,-331.49 621.52,-327.152 611.259,-324.515 611.854,-331.49"/>
</g>
<!-- Node35 -->
<g id="node9" class="node"><title>Node35</title>
<g id="a_node9"><a xlink:href="class_model_1_1map_processor.html#a3399e41b2aeca5e9890d7a740dc1e237" target="_top" xlink:title="Model::mapProcessor\l::getTile">
<polygon fill="white" stroke="black" points="474,-147.5 474,-177.5 586,-177.5 586,-147.5 474,-147.5"/>
<text text-anchor="start" x="482" y="-165.5" font-family="Helvetica,sans-Serif" font-size="10.00">Model::mapProcessor</text>
<text text-anchor="middle" x="530" y="-154.5" font-family="Helvetica,sans-Serif" font-size="10.00">::getTile</text>
</a>
</g>
</g>
<!-- Node34&#45;&gt;Node35 -->
<g id="edge11" class="edge"><title>Node34&#45;&gt;Node35</title>
<path fill="none" stroke="midnightblue" d="M420.04,-128.601C436.134,-133.608 454.211,-139.232 470.947,-144.439"/>
<polygon fill="midnightblue" stroke="midnightblue" points="470.032,-147.82 480.62,-147.448 472.111,-141.136 470.032,-147.82"/>
</g>
<!-- Node38&#45;&gt;Node35 -->
<g id="edge16" class="edge"><title>Node38&#45;&gt;Node35</title>
<path fill="none" stroke="midnightblue" d="M420.04,-196.399C436.134,-191.392 454.211,-185.768 470.947,-180.561"/>
<polygon fill="midnightblue" stroke="midnightblue" points="472.111,-183.864 480.62,-177.552 470.032,-177.18 472.111,-183.864"/>
</g>
<!-- Node39&#45;&gt;Node35 -->
<g id="edge18" class="edge"><title>Node39&#45;&gt;Node35</title>
<path fill="none" stroke="midnightblue" d="M426.586,-162.5C438.575,-162.5 451.371,-162.5 463.713,-162.5"/>
<polygon fill="midnightblue" stroke="midnightblue" points="463.945,-166 473.945,-162.5 463.945,-159 463.945,-166"/>
</g>
<!-- Node40&#45;&gt;Node36 -->
<g id="edge20" class="edge"><title>Node40&#45;&gt;Node36</title>
<path fill="none" stroke="midnightblue" d="M263.907,-61.2207C277.172,-61.6327 291.446,-62.076 305.079,-62.4994"/>
<polygon fill="midnightblue" stroke="midnightblue" points="305.248,-66.0062 315.352,-62.8184 305.466,-59.0096 305.248,-66.0062"/>
</g>
<!-- Node40&#45;&gt;Node37 -->
<g id="edge21" class="edge"><title>Node40&#45;&gt;Node37</title>
<path fill="none" stroke="midnightblue" d="M263.457,-44.4808C276.944,-40.7947 291.499,-36.8169 305.376,-33.0244"/>
<polygon fill="midnightblue" stroke="midnightblue" points="306.613,-36.315 315.336,-30.3025 304.767,-29.5626 306.613,-36.315"/>
</g>
</g>
</svg>
        <g id="navigator" transform="translate(0 0)" fill="#404254">
                <rect fill="#f2f5e9" fill-opacity="0.5" stroke="#606060" stroke-width=".5" x="0" y="0" width="60" height="60"/>
                <use id="zoomplus" xlink:href="#zoomPlus" x="17" y="9" onmousedown="handleZoom(evt,'in')"/>
                <use id="zoomminus" xlink:href="#zoomMin" x="42" y="9" onmousedown="handleZoom(evt,'out')"/>
                <use id="reset" xlink:href="#resetDef" x="30" y="36" onmousedown="handleReset()"/>
                <g id="arrowUp" xlink:href="#dirArrow" transform="translate(30 24)" onmousedown="handlePan(0,-1)">
                  <use xlink:href="#rim" fill="#404040">
                        <set attributeName="fill" to="#808080" begin="arrowUp.mouseover" end="arrowUp.mouseout"/>
                  </use>
                  <path fill="none" stroke="white" stroke-width="1.5" d="M0,-3.0v7 M-2.5,-0.5L0,-3.0L2.5,-0.5"/>
                </g>
                <g id="arrowRight" xlink:href="#dirArrow" transform="rotate(90) translate(36 -43)" onmousedown="handlePan(1,0)">
                  <use xlink:href="#rim" fill="#404040">
                        <set attributeName="fill" to="#808080" begin="arrowRight.mouseover" end="arrowRight.mouseout"/>
                  </use>
                  <path fill="none" stroke="white" stroke-width="1.5" d="M0,-3.0v7 M-2.5,-0.5L0,-3.0L2.5,-0.5"/>
                </g>
                <g id="arrowDown" xlink:href="#dirArrow" transform="rotate(180) translate(-30 -48)" onmousedown="handlePan(0,1)">
                  <use xlink:href="#rim" fill="#404040">
                        <set attributeName="fill" to="#808080" begin="arrowDown.mouseover" end="arrowDown.mouseout"/>
                  </use>
                  <path fill="none" stroke="white" stroke-width="1.5" d="M0,-3.0v7 M-2.5,-0.5L0,-3.0L2.5,-0.5"/>
                </g>
                <g id="arrowLeft" xlink:href="#dirArrow" transform="rotate(270) translate(-36 17)" onmousedown="handlePan(-1,0)">
                  <use xlink:href="#rim" fill="#404040">
                        <set attributeName="fill" to="#808080" begin="arrowLeft.mouseover" end="arrowLeft.mouseout"/>
                  </use>
                  <path fill="none" stroke="white" stroke-width="1.5" d="M0,-3.0v7 M-2.5,-0.5L0,-3.0L2.5,-0.5"/>
                </g>
        </g>
        <svg viewBox="0 0 15 15" width="100%" height="30px" preserveAspectRatio="xMaxYMin meet">
         <g id="arrow_out" transform="scale(0.3 0.3)">
          <a xlink:href="class_model_1_1map_processor_a3719cc265240be889e98f9830602a067_cgraph_org.svg" target="_base">
           <rect id="button" ry="5" rx="5" y="6" x="6" height="38" width="38"
                fill="#f2f5e9" fill-opacity="0.5" stroke="#606060" stroke-width="1.0"/>
           <path id="arrow"
             d="M 11.500037,31.436501 C 11.940474,20.09759 22.043105,11.32322 32.158766,21.979434 L 37.068811,17.246167 C 37.068811,17.246167 37.088388,32 37.088388,32 L 22.160133,31.978069 C 22.160133,31.978069 26.997745,27.140456 26.997745,27.140456 C 18.528582,18.264221 13.291696,25.230495 11.500037,31.436501 z"
             style="fill:#404040;"/>
          </a>
         </g>
        </svg>
</svg>
