<?xml version="1.0" encoding="UTF-8" standalone="no"?>
<!DOCTYPE svg PUBLIC "-//W3C//DTD SVG 1.1//EN"
 "http://www.w3.org/Graphics/SVG/1.1/DTD/svg11.dtd">
<!-- Generated by graphviz version 2.38.0 (20140413.2041)
 -->
<!-- Title: View::ActionSceneBigExplosion Pages: 1 -->
<svg width="633pt" height="204pt"
 viewBox="0.00 0.00 633.00 204.00" xmlns="http://www.w3.org/2000/svg" xmlns:xlink="http://www.w3.org/1999/xlink">
<g id="graph0" class="graph" transform="scale(1 1) rotate(0) translate(4 200)">
<title>View::ActionSceneBigExplosion</title>
<polygon fill="white" stroke="none" points="-4,4 -4,-200 629,-200 629,4 -4,4"/>
<!-- Node3 -->
<g id="node1" class="node"><title>Node3</title>
<polygon fill="#bfbfbf" stroke="black" points="223.5,-0.5 223.5,-90.5 379.5,-90.5 379.5,-0.5 223.5,-0.5"/>
<text text-anchor="middle" x="301.5" y="-78.5" font-family="Helvetica,sans-Serif" font-size="10.00">View::ActionSceneBigExplosion</text>
<polyline fill="none" stroke="black" points="223.5,-71.5 379.5,-71.5 "/>
<text text-anchor="middle" x="301.5" y="-59.5" font-family="Helvetica,sans-Serif" font-size="10.00"> </text>
<polyline fill="none" stroke="black" points="223.5,-52.5 379.5,-52.5 "/>
<text text-anchor="start" x="231.5" y="-40.5" font-family="Helvetica,sans-Serif" font-size="10.00">+ ActionSceneBigExplosion()</text>
<text text-anchor="start" x="231.5" y="-29.5" font-family="Helvetica,sans-Serif" font-size="10.00">+ ~ActionSceneBigExplosion()</text>
<text text-anchor="start" x="231.5" y="-18.5" font-family="Helvetica,sans-Serif" font-size="10.00">+ setPosition()</text>
<text text-anchor="start" x="231.5" y="-7.5" font-family="Helvetica,sans-Serif" font-size="10.00">+ nextFrame()</text>
</g>
<!-- Node4 -->
<g id="node2" class="node"><title>Node4</title>
<g id="a_node2"><a xlink:href="class_q_object.html" target="_top" xlink:title="{QObject\n||}">
<polygon fill="white" stroke="black" points="0,-138.5 0,-195.5 53,-195.5 53,-138.5 0,-138.5"/>
<text text-anchor="middle" x="26.5" y="-183.5" font-family="Helvetica,sans-Serif" font-size="10.00">QObject</text>
<polyline fill="none" stroke="black" points="0,-176.5 53,-176.5 "/>
<text text-anchor="middle" x="26.5" y="-164.5" font-family="Helvetica,sans-Serif" font-size="10.00"> </text>
<polyline fill="none" stroke="black" points="0,-157.5 53,-157.5 "/>
<text text-anchor="middle" x="26.5" y="-145.5" font-family="Helvetica,sans-Serif" font-size="10.00"> </text>
</a>
</g>
</g>
<!-- Node4&#45;&gt;Node3 -->
<g id="edge1" class="edge"><title>Node4&#45;&gt;Node3</title>
<path fill="none" stroke="midnightblue" d="M61.234,-138.153C61.3227,-138.102 61.4113,-138.051 61.5,-138 112.693,-108.724 175.044,-85.2764 223.362,-69.4488"/>
<polygon fill="none" stroke="midnightblue" points="59.5604,-135.068 53.0353,-143.415 63.3415,-140.959 59.5604,-135.068"/>
</g>
<!-- Node5 -->
<g id="node3" class="node"><title>Node5</title>
<g id="a_node3"><a xlink:href="class_q_graphics_pixmap_item.html" target="_top" xlink:title="{QGraphicsPixmapItem\n||}">
<polygon fill="white" stroke="black" points="71,-138.5 71,-195.5 186,-195.5 186,-138.5 71,-138.5"/>
<text text-anchor="middle" x="128.5" y="-183.5" font-family="Helvetica,sans-Serif" font-size="10.00">QGraphicsPixmapItem</text>
<polyline fill="none" stroke="black" points="71,-176.5 186,-176.5 "/>
<text text-anchor="middle" x="128.5" y="-164.5" font-family="Helvetica,sans-Serif" font-size="10.00"> </text>
<polyline fill="none" stroke="black" points="71,-157.5 186,-157.5 "/>
<text text-anchor="middle" x="128.5" y="-145.5" font-family="Helvetica,sans-Serif" font-size="10.00"> </text>
</a>
</g>
</g>
<!-- Node5&#45;&gt;Node3 -->
<g id="edge2" class="edge"><title>Node5&#45;&gt;Node3</title>
<path fill="none" stroke="midnightblue" d="M177.021,-132.484C195.787,-119.521 217.53,-104.502 237.542,-90.6791"/>
<polygon fill="none" stroke="midnightblue" points="174.863,-129.721 168.625,-138.284 178.842,-135.48 174.863,-129.721"/>
</g>
<!-- Node6 -->
<g id="node4" class="node"><title>Node6</title>
<polygon fill="white" stroke="#bfbfbf" points="204,-138.5 204,-195.5 259,-195.5 259,-138.5 204,-138.5"/>
<text text-anchor="middle" x="231.5" y="-183.5" font-family="Helvetica,sans-Serif" font-size="10.00">QTimer *</text>
<polyline fill="none" stroke="#bfbfbf" points="204,-176.5 259,-176.5 "/>
<text text-anchor="middle" x="231.5" y="-164.5" font-family="Helvetica,sans-Serif" font-size="10.00"> </text>
<polyline fill="none" stroke="#bfbfbf" points="204,-157.5 259,-157.5 "/>
<text text-anchor="middle" x="231.5" y="-145.5" font-family="Helvetica,sans-Serif" font-size="10.00"> </text>
</g>
<!-- Node6&#45;&gt;Node3 -->
<g id="edge3" class="edge"><title>Node6&#45;&gt;Node3</title>
<path fill="none" stroke="#404040" d="M232.449,-138.274C233.652,-128.611 236.008,-117.955 240.5,-109 241.948,-106.114 243.577,-103.275 245.347,-100.496"/>
<polygon fill="none" stroke="#404040" points="245.347,-100.496 245.565,-93.288 252.302,-90.7168 252.084,-97.9246 245.347,-100.496"/>
<text text-anchor="middle" x="269" y="-112" font-family="Helvetica,sans-Serif" font-size="10.00"> &#45;animTimer_</text>
</g>
<!-- Node7 -->
<g id="node5" class="node"><title>Node7</title>
<polygon fill="white" stroke="#bfbfbf" points="287,-138.5 287,-195.5 316,-195.5 316,-138.5 287,-138.5"/>
<text text-anchor="middle" x="301.5" y="-183.5" font-family="Helvetica,sans-Serif" font-size="10.00">int</text>
<polyline fill="none" stroke="#bfbfbf" points="287,-176.5 316,-176.5 "/>
<text text-anchor="middle" x="301.5" y="-164.5" font-family="Helvetica,sans-Serif" font-size="10.00"> </text>
<polyline fill="none" stroke="#bfbfbf" points="287,-157.5 316,-157.5 "/>
<text text-anchor="middle" x="301.5" y="-145.5" font-family="Helvetica,sans-Serif" font-size="10.00"> </text>
</g>
<!-- Node7&#45;&gt;Node3 -->
<g id="edge4" class="edge"><title>Node7&#45;&gt;Node3</title>
<path fill="none" stroke="#404040" d="M301.5,-138.284C301.5,-127.735 301.5,-115.294 301.5,-103.035"/>
<polygon fill="none" stroke="#404040" points="301.5,-102.912 297.5,-96.9125 301.5,-90.9125 305.5,-96.9124 301.5,-102.912"/>
<text text-anchor="middle" x="336.5" y="-112" font-family="Helvetica,sans-Serif" font-size="10.00"> &#45;frameCounter_</text>
</g>
<!-- Node8 -->
<g id="node6" class="node"><title>Node8</title>
<polygon fill="white" stroke="#bfbfbf" points="377,-138.5 377,-195.5 412,-195.5 412,-138.5 377,-138.5"/>
<text text-anchor="middle" x="394.5" y="-183.5" font-family="Helvetica,sans-Serif" font-size="10.00">bool</text>
<polyline fill="none" stroke="#bfbfbf" points="377,-176.5 412,-176.5 "/>
<text text-anchor="middle" x="394.5" y="-164.5" font-family="Helvetica,sans-Serif" font-size="10.00"> </text>
<polyline fill="none" stroke="#bfbfbf" points="377,-157.5 412,-157.5 "/>
<text text-anchor="middle" x="394.5" y="-145.5" font-family="Helvetica,sans-Serif" font-size="10.00"> </text>
</g>
<!-- Node8&#45;&gt;Node3 -->
<g id="edge5" class="edge"><title>Node8&#45;&gt;Node3</title>
<path fill="none" stroke="#404040" d="M386.808,-138.283C383.342,-128.516 378.626,-117.789 372.5,-109 370.362,-105.933 368.044,-102.917 365.592,-99.9675"/>
<polygon fill="none" stroke="#404040" points="365.381,-99.7311 358.398,-97.9302 357.375,-90.792 364.358,-92.593 365.381,-99.7311"/>
<text text-anchor="middle" x="411.5" y="-112" font-family="Helvetica,sans-Serif" font-size="10.00"> &#45;deathMarker_</text>
</g>
<!-- Node9 -->
<g id="node7" class="node"><title>Node9</title>
<polygon fill="white" stroke="#bfbfbf" points="467.5,-138.5 467.5,-195.5 499.5,-195.5 499.5,-138.5 467.5,-138.5"/>
<text text-anchor="middle" x="483.5" y="-183.5" font-family="Helvetica,sans-Serif" font-size="10.00">uint</text>
<polyline fill="none" stroke="#bfbfbf" points="467.5,-176.5 499.5,-176.5 "/>
<text text-anchor="middle" x="483.5" y="-164.5" font-family="Helvetica,sans-Serif" font-size="10.00"> </text>
<polyline fill="none" stroke="#bfbfbf" points="467.5,-157.5 499.5,-157.5 "/>
<text text-anchor="middle" x="483.5" y="-145.5" font-family="Helvetica,sans-Serif" font-size="10.00"> </text>
</g>
<!-- Node9&#45;&gt;Node3 -->
<g id="edge6" class="edge"><title>Node9&#45;&gt;Node3</title>
<path fill="none" stroke="#404040" d="M471.138,-138.499C465.43,-128.187 457.826,-117.034 448.5,-109 431.835,-94.6453 411.387,-83.1861 391.099,-74.2061"/>
<polygon fill="none" stroke="#404040" points="390.926,-74.1332 383.843,-75.487 379.869,-69.4697 386.952,-68.1159 390.926,-74.1332"/>
<text text-anchor="middle" x="481" y="-112" font-family="Helvetica,sans-Serif" font-size="10.00"> &#45;deathId_</text>
</g>
<!-- Node10 -->
<g id="node8" class="node"><title>Node10</title>
<polygon fill="white" stroke="#bfbfbf" points="518,-138.5 518,-195.5 625,-195.5 625,-138.5 518,-138.5"/>
<text text-anchor="middle" x="571.5" y="-183.5" font-family="Helvetica,sans-Serif" font-size="10.00">vector&lt; QPixmap * &gt;</text>
<polyline fill="none" stroke="#bfbfbf" points="518,-176.5 625,-176.5 "/>
<text text-anchor="middle" x="571.5" y="-164.5" font-family="Helvetica,sans-Serif" font-size="10.00"> </text>
<polyline fill="none" stroke="#bfbfbf" points="518,-157.5 625,-157.5 "/>
<text text-anchor="middle" x="571.5" y="-145.5" font-family="Helvetica,sans-Serif" font-size="10.00"> </text>
</g>
<!-- Node10&#45;&gt;Node3 -->
<g id="edge7" class="edge"><title>Node10&#45;&gt;Node3</title>
<path fill="none" stroke="#404040" d="M545.334,-138.487C534.19,-128.05 520.532,-116.811 506.5,-109 471.004,-89.2417 428.496,-74.9684 391.415,-65.0954"/>
<polygon fill="none" stroke="#404040" points="391.201,-65.0404 384.392,-67.415 379.581,-62.0431 386.39,-59.6685 391.201,-65.0404"/>
<text text-anchor="middle" x="565.5" y="-112" font-family="Helvetica,sans-Serif" font-size="10.00"> &#45;explosionFrames_</text>
</g>
</g>
</svg>
