<?xml version="1.0" encoding="UTF-8" standalone="no"?>
<!DOCTYPE svg PUBLIC "-//W3C//DTD SVG 1.1//EN"
 "http://www.w3.org/Graphics/SVG/1.1/DTD/svg11.dtd">
<!-- Generated by graphviz version 2.38.0 (20140413.2041)
 -->
<!-- Title: View::View::missionEnded Pages: 1 -->
<svg width="477pt" height="88pt"
 viewBox="0.00 0.00 477.00 88.00" xmlns="http://www.w3.org/2000/svg" xmlns:xlink="http://www.w3.org/1999/xlink">
<g id="graph0" class="graph" transform="scale(1 1) rotate(0) translate(4 84)">
<title>View::View::missionEnded</title>
<polygon fill="white" stroke="none" points="-4,4 -4,-84 473,-84 473,4 -4,4"/>
<!-- Node50 -->
<g id="node1" class="node"><title>Node50</title>
<polygon fill="#bfbfbf" stroke="black" points="0,-30 0,-49 132,-49 132,-30 0,-30"/>
<text text-anchor="middle" x="66" y="-37" font-family="Helvetica,sans-Serif" font-size="10.00">View::View::missionEnded</text>
</g>
<!-- Node51 -->
<g id="node2" class="node"><title>Node51</title>
<g id="a_node2"><a xlink:href="class_view_1_1_city_scape.html#a772bde88091fbaaf7aaaa3e93f2cce98" target="_top" xlink:title="View::CityScape::initCity\lScape">
<polygon fill="white" stroke="black" points="168,-49.5 168,-79.5 293,-79.5 293,-49.5 168,-49.5"/>
<text text-anchor="start" x="176" y="-67.5" font-family="Helvetica,sans-Serif" font-size="10.00">View::CityScape::initCity</text>
<text text-anchor="middle" x="230.5" y="-56.5" font-family="Helvetica,sans-Serif" font-size="10.00">Scape</text>
</a>
</g>
</g>
<!-- Node50&#45;&gt;Node51 -->
<g id="edge1" class="edge"><title>Node50&#45;&gt;Node51</title>
<path fill="none" stroke="midnightblue" d="M128.898,-49.0227C138.351,-50.477 148.174,-51.9884 157.816,-53.4717"/>
<polygon fill="midnightblue" stroke="midnightblue" points="157.358,-56.9424 167.774,-55.0037 158.423,-50.0238 157.358,-56.9424"/>
</g>
<!-- Node53 -->
<g id="node4" class="node"><title>Node53</title>
<g id="a_node4"><a xlink:href="class_view_1_1_head_quarters_u_i.html#a7a907337f538f6507e3691030b82598a" target="_top" xlink:title="View::HeadQuartersUI\l::setResearchLevels">
<polygon fill="white" stroke="black" points="174,-0.5 174,-30.5 287,-30.5 287,-0.5 174,-0.5"/>
<text text-anchor="start" x="182" y="-18.5" font-family="Helvetica,sans-Serif" font-size="10.00">View::HeadQuartersUI</text>
<text text-anchor="middle" x="230.5" y="-7.5" font-family="Helvetica,sans-Serif" font-size="10.00">::setResearchLevels</text>
</a>
</g>
</g>
<!-- Node50&#45;&gt;Node53 -->
<g id="edge3" class="edge"><title>Node50&#45;&gt;Node53</title>
<path fill="none" stroke="midnightblue" d="M131.691,-29.9456C142.289,-28.3804 153.279,-26.7573 163.898,-25.1889"/>
<polygon fill="midnightblue" stroke="midnightblue" points="164.559,-28.6293 173.941,-23.7057 163.537,-21.7044 164.559,-28.6293"/>
</g>
<!-- Node52 -->
<g id="node3" class="node"><title>Node52</title>
<g id="a_node3"><a xlink:href="class_view_1_1_city_scape.html#a441a467cd67c17f6761f4cc4b24b7480" target="_top" xlink:title="View::CityScape::resizeMap">
<polygon fill="white" stroke="black" points="329,-55 329,-74 469,-74 469,-55 329,-55"/>
<text text-anchor="middle" x="399" y="-62" font-family="Helvetica,sans-Serif" font-size="10.00">View::CityScape::resizeMap</text>
</a>
</g>
</g>
<!-- Node51&#45;&gt;Node52 -->
<g id="edge2" class="edge"><title>Node51&#45;&gt;Node52</title>
<path fill="none" stroke="midnightblue" d="M293.025,-64.5C301.415,-64.5 310.121,-64.5 318.768,-64.5"/>
<polygon fill="midnightblue" stroke="midnightblue" points="318.871,-68.0001 328.871,-64.5 318.871,-61.0001 318.871,-68.0001"/>
</g>
</g>
</svg>
