<?xml version="1.0" encoding="UTF-8" standalone="no"?>
<!DOCTYPE svg PUBLIC "-//W3C//DTD SVG 1.1//EN"
 "http://www.w3.org/Graphics/SVG/1.1/DTD/svg11.dtd">
<!-- Generated by graphviz version 2.38.0 (20140413.2041)
 -->
<!-- Title: View::ActionScene::mouseDoubleClickEvent Pages: 1 -->
<svg width="271pt" height="39pt"
 viewBox="0.00 0.00 271.00 39.00" xmlns="http://www.w3.org/2000/svg" xmlns:xlink="http://www.w3.org/1999/xlink">
<g id="graph0" class="graph" transform="scale(1 1) rotate(0) translate(4 35)">
<title>View::ActionScene::mouseDoubleClickEvent</title>
<polygon fill="white" stroke="none" points="-4,4 -4,-35 267,-35 267,4 -4,4"/>
<!-- Node162 -->
<g id="node1" class="node"><title>Node162</title>
<polygon fill="#bfbfbf" stroke="black" points="0,-0.5 0,-30.5 122,-30.5 122,-0.5 0,-0.5"/>
<text text-anchor="start" x="8" y="-18.5" font-family="Helvetica,sans-Serif" font-size="10.00">View::ActionScene::</text>
<text text-anchor="middle" x="61" y="-7.5" font-family="Helvetica,sans-Serif" font-size="10.00">mouseDoubleClickEvent</text>
</g>
<!-- Node163 -->
<g id="node2" class="node"><title>Node163</title>
<g id="a_node2"><a xlink:href="class_view_1_1_action_scene.html#a144bce11f4b553f6e3afe95d6e99df03" target="_top" xlink:title="View::ActionScene::\lmovePCs">
<polygon fill="white" stroke="black" points="158,-0.5 158,-30.5 263,-30.5 263,-0.5 158,-0.5"/>
<text text-anchor="start" x="166" y="-18.5" font-family="Helvetica,sans-Serif" font-size="10.00">View::ActionScene::</text>
<text text-anchor="middle" x="210.5" y="-7.5" font-family="Helvetica,sans-Serif" font-size="10.00">movePCs</text>
</a>
</g>
</g>
<!-- Node162&#45;&gt;Node163 -->
<g id="edge1" class="edge"><title>Node162&#45;&gt;Node163</title>
<path fill="none" stroke="midnightblue" d="M122.419,-15.5C130.791,-15.5 139.399,-15.5 147.793,-15.5"/>
<polygon fill="midnightblue" stroke="midnightblue" points="147.896,-19.0001 157.895,-15.5 147.895,-12.0001 147.896,-19.0001"/>
</g>
</g>
</svg>
