<?xml version="1.0" encoding="UTF-8" standalone="no"?>
<!DOCTYPE svg PUBLIC "-//W3C//DTD SVG 1.1//EN"
 "http://www.w3.org/Graphics/SVG/1.1/DTD/svg11.dtd">
<!-- Generated by graphviz version 2.38.0 (20140413.2041)
 -->
<!-- Title: Model::Model Pages: 1 -->
<!--zoomable 551 -->
<svg id="main" version="1.1" xmlns="http://www.w3.org/2000/svg" xmlns:xlink="http://www.w3.org/1999/xlink" xml:space="preserve" onload="init(evt)">
<style type="text/css"><![CDATA[
.edge:hover path { stroke: red; }
.edge:hover polygon { stroke: red; fill: red; }
]]></style>
<script type="text/javascript"><![CDATA[
var edges = document.getElementsByTagName('g');
if (edges && edges.length) {
  for (var i=0;i<edges.length;i++) {
    if (edges[i].id.substr(0,4)=='edge') {
      edges[i].setAttribute('class','edge');
    }
  }
}
]]></script>
        <defs>
                <circle id="rim" cx="0" cy="0" r="7"/>
                <circle id="rim2" cx="0" cy="0" r="3.5"/>
                <g id="zoomPlus">
                        <use xlink:href="#rim" fill="#404040">
                                <set attributeName="fill" to="#808080" begin="zoomplus.mouseover" end="zoomplus.mouseout"/>
                        </use>
                        <path d="M-4,0h8M0,-4v8" fill="none" stroke="white" stroke-width="1.5" pointer-events="none"/>
                </g>
                <g id="zoomMin">
                        <use xlink:href="#rim" fill="#404040">
                                <set attributeName="fill" to="#808080" begin="zoomminus.mouseover" end="zoomminus.mouseout"/>
                        </use>
                        <path d="M-4,0h8" fill="none" stroke="white" stroke-width="1.5" pointer-events="none"/>
                </g>
                <g id="dirArrow">
                        <path fill="none" stroke="white" stroke-width="1.5" d="M0,-3.0v7 M-2.5,-0.5L0,-3.0L2.5,-0.5"/>
                </g>
               <g id="resetDef">
                       <use xlink:href="#rim2" fill="#404040">
                               <set attributeName="fill" to="#808080" begin="reset.mouseover" end="reset.mouseout"/>
                       </use>
               </g>
        </defs>

<script type="text/javascript">
var viewWidth = 1745;
var viewHeight = 551;
var sectionId = 'dynsection-1';
</script>
<script xlink:href="svgpan.js"/>
<svg id="graph" class="graph">
<g id="viewport">
<title>Model::Model</title>
<polygon fill="white" stroke="none" points="-4,4 -4,-547 1741,-547 1741,4 -4,4"/>
<!-- Node3 -->
<g id="node1" class="node"><title>Node3</title>
<polygon fill="#bfbfbf" stroke="black" points="747.5,-0.5 747.5,-222.5 893.5,-222.5 893.5,-0.5 747.5,-0.5"/>
<text text-anchor="middle" x="820.5" y="-210.5" font-family="Helvetica,sans-Serif" font-size="10.00">Model::Model</text>
<polyline fill="none" stroke="black" points="747.5,-203.5 893.5,-203.5 "/>
<text text-anchor="middle" x="820.5" y="-191.5" font-family="Helvetica,sans-Serif" font-size="10.00"> </text>
<polyline fill="none" stroke="black" points="747.5,-184.5 893.5,-184.5 "/>
<text text-anchor="start" x="755.5" y="-172.5" font-family="Helvetica,sans-Serif" font-size="10.00">+ Model()</text>
<text text-anchor="start" x="755.5" y="-161.5" font-family="Helvetica,sans-Serif" font-size="10.00">+ ~Model()</text>
<text text-anchor="start" x="755.5" y="-150.5" font-family="Helvetica,sans-Serif" font-size="10.00">+ setController()</text>
<text text-anchor="start" x="755.5" y="-139.5" font-family="Helvetica,sans-Serif" font-size="10.00">+ initModel()</text>
<text text-anchor="start" x="755.5" y="-128.5" font-family="Helvetica,sans-Serif" font-size="10.00">+ getParkingHalls()</text>
<text text-anchor="start" x="755.5" y="-117.5" font-family="Helvetica,sans-Serif" font-size="10.00">+ getPlayerData()</text>
<text text-anchor="start" x="755.5" y="-106.5" font-family="Helvetica,sans-Serif" font-size="10.00">+ getEquipmentData()</text>
<text text-anchor="start" x="755.5" y="-95.5" font-family="Helvetica,sans-Serif" font-size="10.00">+ getParkingHallById()</text>
<text text-anchor="start" x="755.5" y="-84.5" font-family="Helvetica,sans-Serif" font-size="10.00">+ buyEquipment()</text>
<text text-anchor="start" x="755.5" y="-73.5" font-family="Helvetica,sans-Serif" font-size="10.00">+ reloadWeapon()</text>
<text text-anchor="start" x="755.5" y="-62.5" font-family="Helvetica,sans-Serif" font-size="10.00">and 16 more...</text>
<text text-anchor="start" x="755.5" y="-51.5" font-family="Helvetica,sans-Serif" font-size="10.00">+ updateParkingHallsData()</text>
<text text-anchor="start" x="755.5" y="-40.5" font-family="Helvetica,sans-Serif" font-size="10.00">+ requestNewData()</text>
<text text-anchor="start" x="755.5" y="-29.5" font-family="Helvetica,sans-Serif" font-size="10.00">&#45; setDefaultSettingsToPlayer()</text>
<text text-anchor="start" x="755.5" y="-18.5" font-family="Helvetica,sans-Serif" font-size="10.00">&#45; calculateAdditionalCost()</text>
<text text-anchor="start" x="755.5" y="-7.5" font-family="Helvetica,sans-Serif" font-size="10.00">&#45; findEquipment()</text>
</g>
<!-- Node4 -->
<g id="node2" class="node"><title>Node4</title>
<g id="a_node2"><a xlink:href="class_q_object.html" target="_top" xlink:title="{QObject\n||}">
<polygon fill="white" stroke="black" points="0,-485.5 0,-542.5 53,-542.5 53,-485.5 0,-485.5"/>
<text text-anchor="middle" x="26.5" y="-530.5" font-family="Helvetica,sans-Serif" font-size="10.00">QObject</text>
<polyline fill="none" stroke="black" points="0,-523.5 53,-523.5 "/>
<text text-anchor="middle" x="26.5" y="-511.5" font-family="Helvetica,sans-Serif" font-size="10.00"> </text>
<polyline fill="none" stroke="black" points="0,-504.5 53,-504.5 "/>
<text text-anchor="middle" x="26.5" y="-492.5" font-family="Helvetica,sans-Serif" font-size="10.00"> </text>
</a>
</g>
</g>
<!-- Node4&#45;&gt;Node3 -->
<g id="edge1" class="edge"><title>Node4&#45;&gt;Node3</title>
<path fill="none" stroke="midnightblue" d="M29.5692,-475.394C35.9969,-421.841 55.6892,-324.117 115.5,-270 208.496,-185.856 586.484,-137.057 747.403,-119.733"/>
<polygon fill="none" stroke="midnightblue" points="26.0732,-475.165 28.4525,-485.489 33.0308,-475.935 26.0732,-475.165"/>
</g>
<!-- Node7 -->
<g id="node5" class="node"><title>Node7</title>
<g id="a_node5"><a xlink:href="class_model_1_1_network_manager.html" target="_top" xlink:title="{Model::NetworkManager\n||+ NetworkManager()\l+ ~NetworkManager()\l+ makeApiRequest()\l+ replyFinished()\l}">
<polygon fill="white" stroke="black" points="124.5,-309 124.5,-399 246.5,-399 246.5,-309 124.5,-309"/>
<text text-anchor="middle" x="185.5" y="-387" font-family="Helvetica,sans-Serif" font-size="10.00">Model::NetworkManager</text>
<polyline fill="none" stroke="black" points="124.5,-380 246.5,-380 "/>
<text text-anchor="middle" x="185.5" y="-368" font-family="Helvetica,sans-Serif" font-size="10.00"> </text>
<polyline fill="none" stroke="black" points="124.5,-361 246.5,-361 "/>
<text text-anchor="start" x="132.5" y="-349" font-family="Helvetica,sans-Serif" font-size="10.00">+ NetworkManager()</text>
<text text-anchor="start" x="132.5" y="-338" font-family="Helvetica,sans-Serif" font-size="10.00">+ ~NetworkManager()</text>
<text text-anchor="start" x="132.5" y="-327" font-family="Helvetica,sans-Serif" font-size="10.00">+ makeApiRequest()</text>
<text text-anchor="start" x="132.5" y="-316" font-family="Helvetica,sans-Serif" font-size="10.00">+ replyFinished()</text>
</a>
</g>
</g>
<!-- Node4&#45;&gt;Node7 -->
<g id="edge5" class="edge"><title>Node4&#45;&gt;Node7</title>
<path fill="none" stroke="midnightblue" d="M60.4496,-479.264C83.97,-455.891 115.518,-424.542 141.042,-399.178"/>
<polygon fill="none" stroke="midnightblue" points="57.7393,-477.023 53.113,-486.554 62.6735,-481.988 57.7393,-477.023"/>
</g>
<!-- Node5 -->
<g id="node3" class="node"><title>Node5</title>
<g id="a_node3"><a xlink:href="class_interface_1_1_model_interface.html" target="_top" xlink:title="{Interface::ModelInterface\n||+ ModelInterface()\l+ ~ModelInterface()\l+ setController()\l+ initModel()\l+ getParkingHalls()\l+ getPlayerData()\l+ getEquipmentData()\l+ getParkingHallById()\l+ buyEquipment()\l+ reloadWeapon()\land 16 more...\l}">
<polygon fill="white" stroke="black" points="409.5,-270.5 409.5,-437.5 531.5,-437.5 531.5,-270.5 409.5,-270.5"/>
<text text-anchor="middle" x="470.5" y="-425.5" font-family="Helvetica,sans-Serif" font-size="10.00">Interface::ModelInterface</text>
<polyline fill="none" stroke="black" points="409.5,-418.5 531.5,-418.5 "/>
<text text-anchor="middle" x="470.5" y="-406.5" font-family="Helvetica,sans-Serif" font-size="10.00"> </text>
<polyline fill="none" stroke="black" points="409.5,-399.5 531.5,-399.5 "/>
<text text-anchor="start" x="417.5" y="-387.5" font-family="Helvetica,sans-Serif" font-size="10.00">+ ModelInterface()</text>
<text text-anchor="start" x="417.5" y="-376.5" font-family="Helvetica,sans-Serif" font-size="10.00">+ ~ModelInterface()</text>
<text text-anchor="start" x="417.5" y="-365.5" font-family="Helvetica,sans-Serif" font-size="10.00">+ setController()</text>
<text text-anchor="start" x="417.5" y="-354.5" font-family="Helvetica,sans-Serif" font-size="10.00">+ initModel()</text>
<text text-anchor="start" x="417.5" y="-343.5" font-family="Helvetica,sans-Serif" font-size="10.00">+ getParkingHalls()</text>
<text text-anchor="start" x="417.5" y="-332.5" font-family="Helvetica,sans-Serif" font-size="10.00">+ getPlayerData()</text>
<text text-anchor="start" x="417.5" y="-321.5" font-family="Helvetica,sans-Serif" font-size="10.00">+ getEquipmentData()</text>
<text text-anchor="start" x="417.5" y="-310.5" font-family="Helvetica,sans-Serif" font-size="10.00">+ getParkingHallById()</text>
<text text-anchor="start" x="417.5" y="-299.5" font-family="Helvetica,sans-Serif" font-size="10.00">+ buyEquipment()</text>
<text text-anchor="start" x="417.5" y="-288.5" font-family="Helvetica,sans-Serif" font-size="10.00">+ reloadWeapon()</text>
<text text-anchor="start" x="417.5" y="-277.5" font-family="Helvetica,sans-Serif" font-size="10.00">and 16 more...</text>
</a>
</g>
</g>
<!-- Node5&#45;&gt;Node3 -->
<g id="edge2" class="edge"><title>Node5&#45;&gt;Node3</title>
<path fill="none" stroke="midnightblue" d="M539.412,-270.907C539.774,-270.603 540.137,-270.3 540.5,-270 604.203,-217.287 688.025,-172.807 747.302,-144.703"/>
<polygon fill="none" stroke="midnightblue" points="537.052,-268.322 531.88,-277.568 541.689,-273.566 537.052,-268.322"/>
</g>
<!-- Node6 -->
<g id="node4" class="node"><title>Node6</title>
<polygon fill="white" stroke="#bfbfbf" points="550,-314.5 550,-393.5 677,-393.5 677,-314.5 550,-314.5"/>
<text text-anchor="start" x="558" y="-381.5" font-family="Helvetica,sans-Serif" font-size="10.00">map&lt; QString, std::</text>
<text text-anchor="start" x="558" y="-370.5" font-family="Helvetica,sans-Serif" font-size="10.00">shared_ptr&lt; Interface</text>
<text text-anchor="middle" x="613.5" y="-359.5" font-family="Helvetica,sans-Serif" font-size="10.00">::ParkingHallInterface &gt; &gt;</text>
<polyline fill="none" stroke="#bfbfbf" points="550,-352.5 677,-352.5 "/>
<text text-anchor="middle" x="613.5" y="-340.5" font-family="Helvetica,sans-Serif" font-size="10.00"> </text>
<polyline fill="none" stroke="#bfbfbf" points="550,-333.5 677,-333.5 "/>
<text text-anchor="middle" x="613.5" y="-321.5" font-family="Helvetica,sans-Serif" font-size="10.00"> </text>
</g>
<!-- Node6&#45;&gt;Node3 -->
<g id="edge3" class="edge"><title>Node6&#45;&gt;Node3</title>
<path fill="none" stroke="#404040" d="M632.561,-314.342C644.529,-291.862 661.145,-263.6 679.5,-241 696.87,-219.613 717.84,-198.556 738.237,-179.874"/>
<polygon fill="none" stroke="#404040" points="738.335,-179.786 740.107,-172.795 747.241,-171.743 745.469,-178.733 738.335,-179.786"/>
<text text-anchor="middle" x="712" y="-244" font-family="Helvetica,sans-Serif" font-size="10.00"> &#45;parkingHalls_</text>
</g>
<!-- Node7&#45;&gt;Node3 -->
<g id="edge4" class="edge"><title>Node7&#45;&gt;Node3</title>
<path fill="none" stroke="#404040" d="M197.755,-308.996C206.513,-285.454 220.686,-257.909 242.5,-241 318.782,-181.871 594.138,-140.348 735.483,-122.416"/>
<polygon fill="none" stroke="#404040" points="735.586,-122.403 741.04,-117.687 747.492,-120.908 742.037,-125.625 735.586,-122.403"/>
<text text-anchor="middle" x="267" y="-244" font-family="Helvetica,sans-Serif" font-size="10.00"> &#45;manager_</text>
</g>
<!-- Node8 -->
<g id="node6" class="node"><title>Node8</title>
<polygon fill="white" stroke="#bfbfbf" points="71,-485.5 71,-542.5 208,-542.5 208,-485.5 71,-485.5"/>
<text text-anchor="middle" x="139.5" y="-530.5" font-family="Helvetica,sans-Serif" font-size="10.00">QNetworkAccessManager *</text>
<polyline fill="none" stroke="#bfbfbf" points="71,-523.5 208,-523.5 "/>
<text text-anchor="middle" x="139.5" y="-511.5" font-family="Helvetica,sans-Serif" font-size="10.00"> </text>
<polyline fill="none" stroke="#bfbfbf" points="71,-504.5 208,-504.5 "/>
<text text-anchor="middle" x="139.5" y="-492.5" font-family="Helvetica,sans-Serif" font-size="10.00"> </text>
</g>
<!-- Node8&#45;&gt;Node7 -->
<g id="edge6" class="edge"><title>Node8&#45;&gt;Node7</title>
<path fill="none" stroke="#404040" d="M131.349,-485.23C129.722,-475.863 129.144,-465.402 131.5,-456 135.428,-440.323 142.305,-424.419 149.863,-410.013"/>
<polygon fill="none" stroke="#404040" points="149.961,-409.835 149.343,-402.651 155.738,-399.317 156.355,-406.502 149.961,-409.835"/>
<text text-anchor="middle" x="173" y="-459" font-family="Helvetica,sans-Serif" font-size="10.00"> &#45;networkManager_</text>
</g>
<!-- Node9 -->
<g id="node7" class="node"><title>Node9</title>
<polygon fill="white" stroke="#bfbfbf" points="257,-485.5 257,-542.5 292,-542.5 292,-485.5 257,-485.5"/>
<text text-anchor="middle" x="274.5" y="-530.5" font-family="Helvetica,sans-Serif" font-size="10.00">bool</text>
<polyline fill="none" stroke="#bfbfbf" points="257,-523.5 292,-523.5 "/>
<text text-anchor="middle" x="274.5" y="-511.5" font-family="Helvetica,sans-Serif" font-size="10.00"> </text>
<polyline fill="none" stroke="#bfbfbf" points="257,-504.5 292,-504.5 "/>
<text text-anchor="middle" x="274.5" y="-492.5" font-family="Helvetica,sans-Serif" font-size="10.00"> </text>
</g>
<!-- Node9&#45;&gt;Node3 -->
<g id="edge11" class="edge"><title>Node9&#45;&gt;Node3</title>
<path fill="none" stroke="#404040" d="M286.009,-485.108C288.103,-479.208 290.072,-472.961 291.5,-467 312.035,-381.275 258.21,-337.838 314.5,-270 368.481,-204.944 605.692,-152.13 735.264,-127.505"/>
<polygon fill="none" stroke="#404040" points="735.283,-127.501 740.439,-122.46 747.076,-125.281 741.919,-130.322 735.283,-127.501"/>
<text text-anchor="middle" x="357.5" y="-351.5" font-family="Helvetica,sans-Serif" font-size="10.00"> &#45;initialisationState_</text>
</g>
<!-- Node9&#45;&gt;Node7 -->
<g id="edge7" class="edge"><title>Node9&#45;&gt;Node7</title>
<path fill="none" stroke="#404040" d="M256.808,-493.182C250.287,-485.342 243.126,-476.053 237.5,-467 226.438,-449.199 216.241,-428.66 207.862,-410.07"/>
<polygon fill="none" stroke="#404040" points="207.861,-410.067 201.779,-406.192 203.017,-399.088 209.099,-402.963 207.861,-410.067"/>
<text text-anchor="middle" x="264.5" y="-459" font-family="Helvetica,sans-Serif" font-size="10.00"> &#45;firstQuery_</text>
</g>
<!-- Node10 -->
<g id="node8" class="node"><title>Node10</title>
<polygon fill="white" stroke="#bfbfbf" points="695,-325.5 695,-382.5 750,-382.5 750,-325.5 695,-325.5"/>
<text text-anchor="middle" x="722.5" y="-370.5" font-family="Helvetica,sans-Serif" font-size="10.00">QTimer *</text>
<polyline fill="none" stroke="#bfbfbf" points="695,-363.5 750,-363.5 "/>
<text text-anchor="middle" x="722.5" y="-351.5" font-family="Helvetica,sans-Serif" font-size="10.00"> </text>
<polyline fill="none" stroke="#bfbfbf" points="695,-344.5 750,-344.5 "/>
<text text-anchor="middle" x="722.5" y="-332.5" font-family="Helvetica,sans-Serif" font-size="10.00"> </text>
</g>
<!-- Node10&#45;&gt;Node3 -->
<g id="edge8" class="edge"><title>Node10&#45;&gt;Node3</title>
<path fill="none" stroke="#404040" d="M727.747,-325.264C732.558,-302.238 740.592,-268.869 751.5,-241 752.419,-238.651 753.372,-236.291 754.353,-233.923"/>
<polygon fill="none" stroke="#404040" points="754.394,-233.826 753.094,-226.733 759.141,-222.805 760.442,-229.898 754.394,-233.826"/>
<text text-anchor="middle" x="784" y="-244" font-family="Helvetica,sans-Serif" font-size="10.00"> &#45;updateTimer_</text>
</g>
<!-- Node11 -->
<g id="node9" class="node"><title>Node11</title>
<polygon fill="white" stroke="#bfbfbf" points="768.5,-320 768.5,-388 872.5,-388 872.5,-320 768.5,-320"/>
<text text-anchor="start" x="776.5" y="-376" font-family="Helvetica,sans-Serif" font-size="10.00">shared_ptr&lt; Model::</text>
<text text-anchor="middle" x="820.5" y="-365" font-family="Helvetica,sans-Serif" font-size="10.00">PlayerParty &gt;</text>
<polyline fill="none" stroke="#bfbfbf" points="768.5,-358 872.5,-358 "/>
<text text-anchor="middle" x="820.5" y="-346" font-family="Helvetica,sans-Serif" font-size="10.00"> </text>
<polyline fill="none" stroke="#bfbfbf" points="768.5,-339 872.5,-339 "/>
<text text-anchor="middle" x="820.5" y="-327" font-family="Helvetica,sans-Serif" font-size="10.00"> </text>
</g>
<!-- Node11&#45;&gt;Node3 -->
<g id="edge9" class="edge"><title>Node11&#45;&gt;Node3</title>
<path fill="none" stroke="#404040" d="M820.5,-319.812C820.5,-297.303 820.5,-266.021 820.5,-234.573"/>
<polygon fill="none" stroke="#404040" points="820.5,-234.53 816.5,-228.53 820.5,-222.53 824.5,-228.53 820.5,-234.53"/>
<text text-anchor="middle" x="861.5" y="-244" font-family="Helvetica,sans-Serif" font-size="10.00"> &#45;playerPartyData_</text>
</g>
<!-- Node12 -->
<g id="node10" class="node"><title>Node12</title>
<g id="a_node10"><a xlink:href="class_interface_1_1_controller_interface.html" target="_top" xlink:title="{Interface::ControllerInterface\n||+ ControllerInterface()\l+ ~ControllerInterface()\l+ setModel()\l+ setView()\l+ startNewGame()\l+ weaponBuyRequestMade()\l+ weaponSellRequestMade()\l+ weaponReloadRequestMade()\l+ cyberBuyRequestMade()\l+ commenceResearchRequestMade()\land 14 more...\l}">
<polygon fill="white" stroke="black" points="891,-270.5 891,-437.5 1072,-437.5 1072,-270.5 891,-270.5"/>
<text text-anchor="middle" x="981.5" y="-425.5" font-family="Helvetica,sans-Serif" font-size="10.00">Interface::ControllerInterface</text>
<polyline fill="none" stroke="black" points="891,-418.5 1072,-418.5 "/>
<text text-anchor="middle" x="981.5" y="-406.5" font-family="Helvetica,sans-Serif" font-size="10.00"> </text>
<polyline fill="none" stroke="black" points="891,-399.5 1072,-399.5 "/>
<text text-anchor="start" x="899" y="-387.5" font-family="Helvetica,sans-Serif" font-size="10.00">+ ControllerInterface()</text>
<text text-anchor="start" x="899" y="-376.5" font-family="Helvetica,sans-Serif" font-size="10.00">+ ~ControllerInterface()</text>
<text text-anchor="start" x="899" y="-365.5" font-family="Helvetica,sans-Serif" font-size="10.00">+ setModel()</text>
<text text-anchor="start" x="899" y="-354.5" font-family="Helvetica,sans-Serif" font-size="10.00">+ setView()</text>
<text text-anchor="start" x="899" y="-343.5" font-family="Helvetica,sans-Serif" font-size="10.00">+ startNewGame()</text>
<text text-anchor="start" x="899" y="-332.5" font-family="Helvetica,sans-Serif" font-size="10.00">+ weaponBuyRequestMade()</text>
<text text-anchor="start" x="899" y="-321.5" font-family="Helvetica,sans-Serif" font-size="10.00">+ weaponSellRequestMade()</text>
<text text-anchor="start" x="899" y="-310.5" font-family="Helvetica,sans-Serif" font-size="10.00">+ weaponReloadRequestMade()</text>
<text text-anchor="start" x="899" y="-299.5" font-family="Helvetica,sans-Serif" font-size="10.00">+ cyberBuyRequestMade()</text>
<text text-anchor="start" x="899" y="-288.5" font-family="Helvetica,sans-Serif" font-size="10.00">+ commenceResearchRequestMade()</text>
<text text-anchor="start" x="899" y="-277.5" font-family="Helvetica,sans-Serif" font-size="10.00">and 14 more...</text>
</a>
</g>
</g>
<!-- Node12&#45;&gt;Node3 -->
<g id="edge10" class="edge"><title>Node12&#45;&gt;Node3</title>
<path fill="none" stroke="#404040" d="M926.093,-270.234C917.839,-257.904 909.194,-244.99 900.556,-232.087"/>
<polygon fill="none" stroke="#404040" points="900.313,-231.724 893.651,-228.963 893.637,-221.752 900.299,-224.512 900.313,-231.724"/>
<text text-anchor="middle" x="937.5" y="-244" font-family="Helvetica,sans-Serif" font-size="10.00"> &#45;controller_</text>
</g>
<!-- Node13 -->
<g id="node11" class="node"><title>Node13</title>
<polygon fill="white" stroke="#bfbfbf" points="1090,-314.5 1090,-393.5 1221,-393.5 1221,-314.5 1090,-314.5"/>
<text text-anchor="start" x="1098" y="-381.5" font-family="Helvetica,sans-Serif" font-size="10.00">vector&lt; std::shared</text>
<text text-anchor="start" x="1098" y="-370.5" font-family="Helvetica,sans-Serif" font-size="10.00">_ptr&lt; Interface::Equipment</text>
<text text-anchor="middle" x="1155.5" y="-359.5" font-family="Helvetica,sans-Serif" font-size="10.00">Interface &gt; &gt;</text>
<polyline fill="none" stroke="#bfbfbf" points="1090,-352.5 1221,-352.5 "/>
<text text-anchor="middle" x="1155.5" y="-340.5" font-family="Helvetica,sans-Serif" font-size="10.00"> </text>
<polyline fill="none" stroke="#bfbfbf" points="1090,-333.5 1221,-333.5 "/>
<text text-anchor="middle" x="1155.5" y="-321.5" font-family="Helvetica,sans-Serif" font-size="10.00"> </text>
</g>
<!-- Node13&#45;&gt;Node3 -->
<g id="edge12" class="edge"><title>Node13&#45;&gt;Node3</title>
<path fill="none" stroke="#404040" d="M1124.78,-314.408C1111.96,-299.592 1096.37,-283.109 1080.5,-270 1026.06,-225.04 957.515,-184.058 904.473,-155.175"/>
<polygon fill="none" stroke="#404040" points="904.3,-155.082 897.12,-155.751 893.74,-149.38 900.92,-148.711 904.3,-155.082"/>
<text text-anchor="middle" x="1084" y="-244" font-family="Helvetica,sans-Serif" font-size="10.00"> &#45;equipment_</text>
</g>
<!-- Node14 -->
<g id="node12" class="node"><title>Node14</title>
<polygon fill="white" stroke="#bfbfbf" points="1239,-325.5 1239,-382.5 1352,-382.5 1352,-325.5 1239,-325.5"/>
<text text-anchor="middle" x="1295.5" y="-370.5" font-family="Helvetica,sans-Serif" font-size="10.00">vector&lt; unsigned int &gt;</text>
<polyline fill="none" stroke="#bfbfbf" points="1239,-363.5 1352,-363.5 "/>
<text text-anchor="middle" x="1295.5" y="-351.5" font-family="Helvetica,sans-Serif" font-size="10.00"> </text>
<polyline fill="none" stroke="#bfbfbf" points="1239,-344.5 1352,-344.5 "/>
<text text-anchor="middle" x="1295.5" y="-332.5" font-family="Helvetica,sans-Serif" font-size="10.00"> </text>
</g>
<!-- Node14&#45;&gt;Node3 -->
<g id="edge13" class="edge"><title>Node14&#45;&gt;Node3</title>
<path fill="none" stroke="#404040" d="M1278.89,-325.153C1267.05,-307.316 1249.68,-284.817 1229.5,-270 1130.25,-197.136 993.064,-153.458 905.55,-131.182"/>
<polygon fill="none" stroke="#404040" points="905.447,-131.156 898.656,-133.581 893.806,-128.245 900.597,-125.82 905.447,-131.156"/>
<text text-anchor="middle" x="1225" y="-244" font-family="Helvetica,sans-Serif" font-size="10.00"> &#45;enemies_</text>
</g>
<!-- Node15 -->
<g id="node13" class="node"><title>Node15</title>
<polygon fill="white" stroke="#bfbfbf" points="1370,-320 1370,-388 1473,-388 1473,-320 1370,-320"/>
<text text-anchor="start" x="1378" y="-376" font-family="Helvetica,sans-Serif" font-size="10.00">unique_ptr&lt; Model::</text>
<text text-anchor="middle" x="1421.5" y="-365" font-family="Helvetica,sans-Serif" font-size="10.00">FileManager &gt;</text>
<polyline fill="none" stroke="#bfbfbf" points="1370,-358 1473,-358 "/>
<text text-anchor="middle" x="1421.5" y="-346" font-family="Helvetica,sans-Serif" font-size="10.00"> </text>
<polyline fill="none" stroke="#bfbfbf" points="1370,-339 1473,-339 "/>
<text text-anchor="middle" x="1421.5" y="-327" font-family="Helvetica,sans-Serif" font-size="10.00"> </text>
</g>
<!-- Node15&#45;&gt;Node3 -->
<g id="edge14" class="edge"><title>Node15&#45;&gt;Node3</title>
<path fill="none" stroke="#404040" d="M1404.06,-319.693C1393.55,-302.581 1378.67,-282.71 1360.5,-270 1220.17,-171.84 1018.71,-134.256 905.716,-120.318"/>
<polygon fill="none" stroke="#404040" points="905.639,-120.309 899.207,-123.57 893.724,-118.887 900.156,-115.627 905.639,-120.309"/>
<text text-anchor="middle" x="1353" y="-244" font-family="Helvetica,sans-Serif" font-size="10.00"> &#45;fileManager_</text>
</g>
<!-- Node16 -->
<g id="node14" class="node"><title>Node16</title>
<polygon fill="white" stroke="#bfbfbf" points="1491,-320 1491,-388 1616,-388 1616,-320 1491,-320"/>
<text text-anchor="start" x="1499" y="-376" font-family="Helvetica,sans-Serif" font-size="10.00">unique_ptr&lt; Model::</text>
<text text-anchor="middle" x="1553.5" y="-365" font-family="Helvetica,sans-Serif" font-size="10.00">XmlParkingDataReader &gt;</text>
<polyline fill="none" stroke="#bfbfbf" points="1491,-358 1616,-358 "/>
<text text-anchor="middle" x="1553.5" y="-346" font-family="Helvetica,sans-Serif" font-size="10.00"> </text>
<polyline fill="none" stroke="#bfbfbf" points="1491,-339 1616,-339 "/>
<text text-anchor="middle" x="1553.5" y="-327" font-family="Helvetica,sans-Serif" font-size="10.00"> </text>
</g>
<!-- Node16&#45;&gt;Node3 -->
<g id="edge15" class="edge"><title>Node16&#45;&gt;Node3</title>
<path fill="none" stroke="#404040" d="M1531.62,-319.859C1518.83,-302.795 1501.31,-282.918 1481.5,-270 1444.88,-246.122 1429.74,-252.284 1387.5,-241 1217.91,-195.694 1017.06,-152.64 905.696,-129.688"/>
<polygon fill="none" stroke="#404040" points="905.639,-129.677 898.956,-132.387 893.884,-127.26 900.567,-124.55 905.639,-129.677"/>
<text text-anchor="middle" x="1461" y="-244" font-family="Helvetica,sans-Serif" font-size="10.00"> &#45;reader_</text>
</g>
<!-- Node17 -->
<g id="node15" class="node"><title>Node17</title>
<polygon fill="white" stroke="#bfbfbf" points="1634,-320 1634,-388 1737,-388 1737,-320 1634,-320"/>
<text text-anchor="start" x="1642" y="-376" font-family="Helvetica,sans-Serif" font-size="10.00">unique_ptr&lt; Model::</text>
<text text-anchor="middle" x="1685.5" y="-365" font-family="Helvetica,sans-Serif" font-size="10.00">mapGenerator &gt;</text>
<polyline fill="none" stroke="#bfbfbf" points="1634,-358 1737,-358 "/>
<text text-anchor="middle" x="1685.5" y="-346" font-family="Helvetica,sans-Serif" font-size="10.00"> </text>
<polyline fill="none" stroke="#bfbfbf" points="1634,-339 1737,-339 "/>
<text text-anchor="middle" x="1685.5" y="-327" font-family="Helvetica,sans-Serif" font-size="10.00"> </text>
</g>
<!-- Node17&#45;&gt;Node3 -->
<g id="edge16" class="edge"><title>Node17&#45;&gt;Node3</title>
<path fill="none" stroke="#404040" d="M1668.95,-319.943C1658.54,-302.468 1643.46,-282.171 1624.5,-270 1571.02,-235.676 1546.81,-253.481 1484.5,-241 1276.77,-199.387 1032.02,-152.6 905.619,-128.603"/>
<polygon fill="none" stroke="#404040" points="905.551,-128.59 898.911,-131.402 893.762,-126.353 900.402,-123.542 905.551,-128.59"/>
<text text-anchor="middle" x="1634" y="-244" font-family="Helvetica,sans-Serif" font-size="10.00"> &#45;parkingHallGenerator</text>
</g>
</g>
</svg>
        <g id="navigator" transform="translate(0 0)" fill="#404254">
                <rect fill="#f2f5e9" fill-opacity="0.5" stroke="#606060" stroke-width=".5" x="0" y="0" width="60" height="60"/>
                <use id="zoomplus" xlink:href="#zoomPlus" x="17" y="9" onmousedown="handleZoom(evt,'in')"/>
                <use id="zoomminus" xlink:href="#zoomMin" x="42" y="9" onmousedown="handleZoom(evt,'out')"/>
                <use id="reset" xlink:href="#resetDef" x="30" y="36" onmousedown="handleReset()"/>
                <g id="arrowUp" xlink:href="#dirArrow" transform="translate(30 24)" onmousedown="handlePan(0,-1)">
                  <use xlink:href="#rim" fill="#404040">
                        <set attributeName="fill" to="#808080" begin="arrowUp.mouseover" end="arrowUp.mouseout"/>
                  </use>
                  <path fill="none" stroke="white" stroke-width="1.5" d="M0,-3.0v7 M-2.5,-0.5L0,-3.0L2.5,-0.5"/>
                </g>
                <g id="arrowRight" xlink:href="#dirArrow" transform="rotate(90) translate(36 -43)" onmousedown="handlePan(1,0)">
                  <use xlink:href="#rim" fill="#404040">
                        <set attributeName="fill" to="#808080" begin="arrowRight.mouseover" end="arrowRight.mouseout"/>
                  </use>
                  <path fill="none" stroke="white" stroke-width="1.5" d="M0,-3.0v7 M-2.5,-0.5L0,-3.0L2.5,-0.5"/>
                </g>
                <g id="arrowDown" xlink:href="#dirArrow" transform="rotate(180) translate(-30 -48)" onmousedown="handlePan(0,1)">
                  <use xlink:href="#rim" fill="#404040">
                        <set attributeName="fill" to="#808080" begin="arrowDown.mouseover" end="arrowDown.mouseout"/>
                  </use>
                  <path fill="none" stroke="white" stroke-width="1.5" d="M0,-3.0v7 M-2.5,-0.5L0,-3.0L2.5,-0.5"/>
                </g>
                <g id="arrowLeft" xlink:href="#dirArrow" transform="rotate(270) translate(-36 17)" onmousedown="handlePan(-1,0)">
                  <use xlink:href="#rim" fill="#404040">
                        <set attributeName="fill" to="#808080" begin="arrowLeft.mouseover" end="arrowLeft.mouseout"/>
                  </use>
                  <path fill="none" stroke="white" stroke-width="1.5" d="M0,-3.0v7 M-2.5,-0.5L0,-3.0L2.5,-0.5"/>
                </g>
        </g>
        <svg viewBox="0 0 15 15" width="100%" height="30px" preserveAspectRatio="xMaxYMin meet">
         <g id="arrow_out" transform="scale(0.3 0.3)">
          <a xlink:href="class_model_1_1_model__coll__graph_org.svg" target="_base">
           <rect id="button" ry="5" rx="5" y="6" x="6" height="38" width="38"
                fill="#f2f5e9" fill-opacity="0.5" stroke="#606060" stroke-width="1.0"/>
           <path id="arrow"
             d="M 11.500037,31.436501 C 11.940474,20.09759 22.043105,11.32322 32.158766,21.979434 L 37.068811,17.246167 C 37.068811,17.246167 37.088388,32 37.088388,32 L 22.160133,31.978069 C 22.160133,31.978069 26.997745,27.140456 26.997745,27.140456 C 18.528582,18.264221 13.291696,25.230495 11.500037,31.436501 z"
             style="fill:#404040;"/>
          </a>
         </g>
        </svg>
</svg>
