<?xml version="1.0" encoding="UTF-8" standalone="no"?>
<!DOCTYPE svg PUBLIC "-//W3C//DTD SVG 1.1//EN"
 "http://www.w3.org/Graphics/SVG/1.1/DTD/svg11.dtd">
<!-- Generated by graphviz version 2.38.0 (20140413.2041)
 -->
<!-- Title: View::ActionSceneEnemyProjectile::ActionSceneEnemyProjectile Pages: 1 -->
<svg width="590pt" height="39pt"
 viewBox="0.00 0.00 590.00 39.00" xmlns="http://www.w3.org/2000/svg" xmlns:xlink="http://www.w3.org/1999/xlink">
<g id="graph0" class="graph" transform="scale(1 1) rotate(0) translate(4 35)">
<title>View::ActionSceneEnemyProjectile::ActionSceneEnemyProjectile</title>
<polygon fill="white" stroke="none" points="-4,4 -4,-35 586,-35 586,4 -4,4"/>
<!-- Node0 -->
<g id="node1" class="node"><title>Node0</title>
<polygon fill="#bfbfbf" stroke="black" points="0,-0.5 0,-30.5 170,-30.5 170,-0.5 0,-0.5"/>
<text text-anchor="start" x="8" y="-18.5" font-family="Helvetica,sans-Serif" font-size="10.00">View::ActionSceneEnemyProjectile</text>
<text text-anchor="middle" x="85" y="-7.5" font-family="Helvetica,sans-Serif" font-size="10.00">::ActionSceneEnemyProjectile</text>
</g>
<!-- Node1 -->
<g id="node2" class="node"><title>Node1</title>
<g id="a_node2"><a xlink:href="class_view_1_1_action_scene_enemy_projectile.html#a56931d52e01dea3af127d7c4277ab5c9" target="_top" xlink:title="View::ActionSceneEnemyProjectile\l::move">
<polygon fill="white" stroke="black" points="206,-0.5 206,-30.5 376,-30.5 376,-0.5 206,-0.5"/>
<text text-anchor="start" x="214" y="-18.5" font-family="Helvetica,sans-Serif" font-size="10.00">View::ActionSceneEnemyProjectile</text>
<text text-anchor="middle" x="291" y="-7.5" font-family="Helvetica,sans-Serif" font-size="10.00">::move</text>
</a>
</g>
</g>
<!-- Node0&#45;&gt;Node1 -->
<g id="edge1" class="edge"><title>Node0&#45;&gt;Node1</title>
<path fill="none" stroke="midnightblue" d="M170.152,-15.5C178.501,-15.5 187.015,-15.5 195.46,-15.5"/>
<polygon fill="midnightblue" stroke="midnightblue" points="195.712,-19.0001 205.712,-15.5 195.712,-12.0001 195.712,-19.0001"/>
</g>
<!-- Node2 -->
<g id="node3" class="node"><title>Node2</title>
<g id="a_node3"><a xlink:href="class_view_1_1_action_scene_enemy_projectile.html#a189281501229a829374ee5f0f5ca2c53" target="_top" xlink:title="View::ActionSceneEnemyProjectile\l::nextFrame">
<polygon fill="white" stroke="black" points="412,-0.5 412,-30.5 582,-30.5 582,-0.5 412,-0.5"/>
<text text-anchor="start" x="420" y="-18.5" font-family="Helvetica,sans-Serif" font-size="10.00">View::ActionSceneEnemyProjectile</text>
<text text-anchor="middle" x="497" y="-7.5" font-family="Helvetica,sans-Serif" font-size="10.00">::nextFrame</text>
</a>
</g>
</g>
<!-- Node1&#45;&gt;Node2 -->
<g id="edge2" class="edge"><title>Node1&#45;&gt;Node2</title>
<path fill="none" stroke="midnightblue" d="M376.152,-15.5C384.501,-15.5 393.015,-15.5 401.46,-15.5"/>
<polygon fill="midnightblue" stroke="midnightblue" points="401.712,-19.0001 411.712,-15.5 401.712,-12.0001 401.712,-19.0001"/>
</g>
</g>
</svg>
