<?xml version="1.0" encoding="UTF-8" standalone="no"?>
<!DOCTYPE svg PUBLIC "-//W3C//DTD SVG 1.1//EN"
 "http://www.w3.org/Graphics/SVG/1.1/DTD/svg11.dtd">
<!-- Generated by graphviz version 2.38.0 (20140413.2041)
 -->
<!-- Title: Model::XmlParkingDataReader::read Pages: 1 -->
<svg width="527pt" height="382pt"
 viewBox="0.00 0.00 527.00 382.00" xmlns="http://www.w3.org/2000/svg" xmlns:xlink="http://www.w3.org/1999/xlink">
<g id="graph0" class="graph" transform="scale(1 1) rotate(0) translate(4 378)">
<title>Model::XmlParkingDataReader::read</title>
<polygon fill="white" stroke="none" points="-4,4 -4,-378 523,-378 523,4 -4,4"/>
<!-- Node4 -->
<g id="node1" class="node"><title>Node4</title>
<polygon fill="#bfbfbf" stroke="black" points="0,-122.5 0,-152.5 149,-152.5 149,-122.5 0,-122.5"/>
<text text-anchor="start" x="8" y="-140.5" font-family="Helvetica,sans-Serif" font-size="10.00">Model::XmlParkingDataReader</text>
<text text-anchor="middle" x="74.5" y="-129.5" font-family="Helvetica,sans-Serif" font-size="10.00">::read</text>
</g>
<!-- Node5 -->
<g id="node2" class="node"><title>Node5</title>
<g id="a_node2"><a xlink:href="class_model_1_1_xml_parking_data_reader.html#abe911a1e93429b10377b24c8ed6c6b49" target="_top" xlink:title="Model::XmlParkingDataReader\l::readParkingFacility">
<polygon fill="white" stroke="black" points="185,-171.5 185,-201.5 334,-201.5 334,-171.5 185,-171.5"/>
<text text-anchor="start" x="193" y="-189.5" font-family="Helvetica,sans-Serif" font-size="10.00">Model::XmlParkingDataReader</text>
<text text-anchor="middle" x="259.5" y="-178.5" font-family="Helvetica,sans-Serif" font-size="10.00">::readParkingFacility</text>
</a>
</g>
</g>
<!-- Node4&#45;&gt;Node5 -->
<g id="edge1" class="edge"><title>Node4&#45;&gt;Node5</title>
<path fill="none" stroke="midnightblue" d="M131.899,-152.601C151.035,-157.725 172.586,-163.496 192.408,-168.803"/>
<polygon fill="midnightblue" stroke="midnightblue" points="191.722,-172.243 202.287,-171.448 193.533,-165.481 191.722,-172.243"/>
</g>
<!-- Node13 -->
<g id="node10" class="node"><title>Node13</title>
<g id="a_node10"><a xlink:href="class_model_1_1_xml_parking_data_reader.html#acff5ef2b4ca3581572499408ef5389e9" target="_top" xlink:title="Model::XmlParkingDataReader\l::readParkingFacilityStatus">
<polygon fill="white" stroke="black" points="185,-73.5 185,-103.5 334,-103.5 334,-73.5 185,-73.5"/>
<text text-anchor="start" x="193" y="-91.5" font-family="Helvetica,sans-Serif" font-size="10.00">Model::XmlParkingDataReader</text>
<text text-anchor="middle" x="259.5" y="-80.5" font-family="Helvetica,sans-Serif" font-size="10.00">::readParkingFacilityStatus</text>
</a>
</g>
</g>
<!-- Node4&#45;&gt;Node13 -->
<g id="edge9" class="edge"><title>Node4&#45;&gt;Node13</title>
<path fill="none" stroke="midnightblue" d="M131.899,-122.399C151.035,-117.275 172.586,-111.504 192.408,-106.197"/>
<polygon fill="midnightblue" stroke="midnightblue" points="193.533,-109.519 202.287,-103.552 191.722,-102.757 193.533,-109.519"/>
</g>
<!-- Node6 -->
<g id="node3" class="node"><title>Node6</title>
<g id="a_node3"><a xlink:href="class_model_1_1_xml_parking_data_reader.html#a226e8bd44f4dc5197f54a17353741a95" target="_top" xlink:title="Model::XmlParkingDataReader\l::readID">
<polygon fill="white" stroke="black" points="370,-343.5 370,-373.5 519,-373.5 519,-343.5 370,-343.5"/>
<text text-anchor="start" x="378" y="-361.5" font-family="Helvetica,sans-Serif" font-size="10.00">Model::XmlParkingDataReader</text>
<text text-anchor="middle" x="444.5" y="-350.5" font-family="Helvetica,sans-Serif" font-size="10.00">::readID</text>
</a>
</g>
</g>
<!-- Node5&#45;&gt;Node6 -->
<g id="edge2" class="edge"><title>Node5&#45;&gt;Node6</title>
<path fill="none" stroke="midnightblue" d="M267.807,-201.956C282.754,-231.94 319.704,-298.234 370,-334.5 372.096,-336.011 374.292,-337.431 376.562,-338.764"/>
<polygon fill="midnightblue" stroke="midnightblue" points="375.139,-341.969 385.624,-343.49 378.376,-335.763 375.139,-341.969"/>
</g>
<!-- Node7 -->
<g id="node4" class="node"><title>Node7</title>
<g id="a_node4"><a xlink:href="class_model_1_1_xml_parking_data_reader.html#adc4169c3dcc95489397dfad5a2220b6b" target="_top" xlink:title="Model::XmlParkingDataReader\l::readName">
<polygon fill="white" stroke="black" points="370,-294.5 370,-324.5 519,-324.5 519,-294.5 370,-294.5"/>
<text text-anchor="start" x="378" y="-312.5" font-family="Helvetica,sans-Serif" font-size="10.00">Model::XmlParkingDataReader</text>
<text text-anchor="middle" x="444.5" y="-301.5" font-family="Helvetica,sans-Serif" font-size="10.00">::readName</text>
</a>
</g>
</g>
<!-- Node5&#45;&gt;Node7 -->
<g id="edge3" class="edge"><title>Node5&#45;&gt;Node7</title>
<path fill="none" stroke="midnightblue" d="M273.488,-201.737C292.59,-223.258 330.312,-262.493 370,-285.5 372.994,-287.236 376.131,-288.865 379.35,-290.392"/>
<polygon fill="midnightblue" stroke="midnightblue" points="378.031,-293.635 388.596,-294.428 380.831,-287.22 378.031,-293.635"/>
</g>
<!-- Node8 -->
<g id="node5" class="node"><title>Node8</title>
<g id="a_node5"><a xlink:href="class_model_1_1_xml_parking_data_reader.html#a241c64ab027e7296e55808dc1f8aff71" target="_top" xlink:title="Model::XmlParkingDataReader\l::readLayout">
<polygon fill="white" stroke="black" points="370,-245.5 370,-275.5 519,-275.5 519,-245.5 370,-245.5"/>
<text text-anchor="start" x="378" y="-263.5" font-family="Helvetica,sans-Serif" font-size="10.00">Model::XmlParkingDataReader</text>
<text text-anchor="middle" x="444.5" y="-252.5" font-family="Helvetica,sans-Serif" font-size="10.00">::readLayout</text>
</a>
</g>
</g>
<!-- Node5&#45;&gt;Node8 -->
<g id="edge4" class="edge"><title>Node5&#45;&gt;Node8</title>
<path fill="none" stroke="midnightblue" d="M291.252,-201.669C312.981,-212.108 342.938,-225.942 370,-236.5 374.801,-238.373 379.815,-240.224 384.87,-242.018"/>
<polygon fill="midnightblue" stroke="midnightblue" points="384.002,-245.421 394.597,-245.386 386.293,-238.806 384.002,-245.421"/>
</g>
<!-- Node9 -->
<g id="node6" class="node"><title>Node9</title>
<g id="a_node6"><a xlink:href="class_model_1_1_xml_parking_data_reader.html#a479a315d0f55537bd38506f7482f4c9b" target="_top" xlink:title="Model::XmlParkingDataReader\l::readTotalParkingCapacity">
<polygon fill="white" stroke="black" points="370,-196.5 370,-226.5 519,-226.5 519,-196.5 370,-196.5"/>
<text text-anchor="start" x="378" y="-214.5" font-family="Helvetica,sans-Serif" font-size="10.00">Model::XmlParkingDataReader</text>
<text text-anchor="middle" x="444.5" y="-203.5" font-family="Helvetica,sans-Serif" font-size="10.00">::readTotalParkingCapacity</text>
</a>
</g>
</g>
<!-- Node5&#45;&gt;Node9 -->
<g id="edge5" class="edge"><title>Node5&#45;&gt;Node9</title>
<path fill="none" stroke="midnightblue" d="M334.142,-196.56C342.565,-197.711 351.199,-198.891 359.742,-200.058"/>
<polygon fill="midnightblue" stroke="midnightblue" points="359.329,-203.534 369.711,-201.419 360.277,-196.598 359.329,-203.534"/>
</g>
<!-- Node10 -->
<g id="node7" class="node"><title>Node10</title>
<g id="a_node7"><a xlink:href="class_model_1_1_xml_parking_data_reader.html#af4db9c2514f34f268b6781e401311a5f" target="_top" xlink:title="Model::XmlParkingDataReader\l::readLocation">
<polygon fill="white" stroke="black" points="370,-147.5 370,-177.5 519,-177.5 519,-147.5 370,-147.5"/>
<text text-anchor="start" x="378" y="-165.5" font-family="Helvetica,sans-Serif" font-size="10.00">Model::XmlParkingDataReader</text>
<text text-anchor="middle" x="444.5" y="-154.5" font-family="Helvetica,sans-Serif" font-size="10.00">::readLocation</text>
</a>
</g>
</g>
<!-- Node5&#45;&gt;Node10 -->
<g id="edge6" class="edge"><title>Node5&#45;&gt;Node10</title>
<path fill="none" stroke="midnightblue" d="M334.142,-176.842C342.565,-175.737 351.199,-174.605 359.742,-173.485"/>
<polygon fill="midnightblue" stroke="midnightblue" points="360.251,-176.948 369.711,-172.177 359.34,-170.007 360.251,-176.948"/>
</g>
<!-- Node11 -->
<g id="node8" class="node"><title>Node11</title>
<g id="a_node8"><a xlink:href="class_model_1_1_xml_parking_data_reader.html#a02caf6c8202524558b575f599e514846" target="_top" xlink:title="Model::XmlParkingDataReader\l::readType">
<polygon fill="white" stroke="black" points="370,-98.5 370,-128.5 519,-128.5 519,-98.5 370,-98.5"/>
<text text-anchor="start" x="378" y="-116.5" font-family="Helvetica,sans-Serif" font-size="10.00">Model::XmlParkingDataReader</text>
<text text-anchor="middle" x="444.5" y="-105.5" font-family="Helvetica,sans-Serif" font-size="10.00">::readType</text>
</a>
</g>
</g>
<!-- Node5&#45;&gt;Node11 -->
<g id="edge7" class="edge"><title>Node5&#45;&gt;Node11</title>
<path fill="none" stroke="midnightblue" d="M292.778,-171.485C314.427,-161.629 343.686,-148.721 370,-138.5 375.772,-136.258 381.838,-134.016 387.909,-131.846"/>
<polygon fill="midnightblue" stroke="midnightblue" points="389.137,-135.124 397.409,-128.505 386.814,-128.52 389.137,-135.124"/>
</g>
<!-- Node12 -->
<g id="node9" class="node"><title>Node12</title>
<g id="a_node9"><a xlink:href="class_model_1_1_xml_parking_data_reader.html#aae704a9ba880d6a19a2a0444097b15ab" target="_top" xlink:title="Model::XmlParkingDataReader\l::readAddress">
<polygon fill="white" stroke="black" points="370,-49.5 370,-79.5 519,-79.5 519,-49.5 370,-49.5"/>
<text text-anchor="start" x="378" y="-67.5" font-family="Helvetica,sans-Serif" font-size="10.00">Model::XmlParkingDataReader</text>
<text text-anchor="middle" x="444.5" y="-56.5" font-family="Helvetica,sans-Serif" font-size="10.00">::readAddress</text>
</a>
</g>
</g>
<!-- Node5&#45;&gt;Node12 -->
<g id="edge8" class="edge"><title>Node5&#45;&gt;Node12</title>
<path fill="none" stroke="midnightblue" d="M273.916,-171.298C293.243,-150.236 330.914,-112.213 370,-89.5 373.605,-87.405 377.413,-85.4512 381.321,-83.6351"/>
<polygon fill="midnightblue" stroke="midnightblue" points="382.777,-86.8189 390.574,-79.6458 380.005,-80.3908 382.777,-86.8189"/>
</g>
<!-- Node14 -->
<g id="node11" class="node"><title>Node14</title>
<g id="a_node11"><a xlink:href="class_model_1_1_parking_hall.html#a2b307cc3148f40a3957eba74252f310a" target="_top" xlink:title="Model::ParkingHall\l::setOccupiedParkingCount">
<polygon fill="white" stroke="black" points="376.5,-0.5 376.5,-30.5 512.5,-30.5 512.5,-0.5 376.5,-0.5"/>
<text text-anchor="start" x="384.5" y="-18.5" font-family="Helvetica,sans-Serif" font-size="10.00">Model::ParkingHall</text>
<text text-anchor="middle" x="444.5" y="-7.5" font-family="Helvetica,sans-Serif" font-size="10.00">::setOccupiedParkingCount</text>
</a>
</g>
</g>
<!-- Node13&#45;&gt;Node14 -->
<g id="edge10" class="edge"><title>Node13&#45;&gt;Node14</title>
<path fill="none" stroke="midnightblue" d="M292.778,-73.4846C314.427,-63.6292 343.686,-50.7211 370,-40.5 375.772,-38.2582 381.838,-36.0159 387.909,-33.8455"/>
<polygon fill="midnightblue" stroke="midnightblue" points="389.137,-37.124 397.409,-30.5045 386.814,-30.5204 389.137,-37.124"/>
</g>
</g>
</svg>
