<?xml version="1.0" encoding="UTF-8" standalone="no"?>
<!DOCTYPE svg PUBLIC "-//W3C//DTD SVG 1.1//EN"
 "http://www.w3.org/Graphics/SVG/1.1/DTD/svg11.dtd">
<!-- Generated by graphviz version 2.38.0 (20140413.2041)
 -->
<!-- Title: View::ActionScene::enemyPatrolled Pages: 1 -->
<svg width="733pt" height="161pt"
 viewBox="0.00 0.00 733.00 161.00" xmlns="http://www.w3.org/2000/svg" xmlns:xlink="http://www.w3.org/1999/xlink">
<g id="graph0" class="graph" transform="scale(1 1) rotate(0) translate(4 157)">
<title>View::ActionScene::enemyPatrolled</title>
<polygon fill="white" stroke="none" points="-4,4 -4,-157 729,-157 729,4 -4,4"/>
<!-- Node130 -->
<g id="node1" class="node"><title>Node130</title>
<polygon fill="#bfbfbf" stroke="black" points="0,-66.5 0,-96.5 105,-96.5 105,-66.5 0,-66.5"/>
<text text-anchor="start" x="8" y="-84.5" font-family="Helvetica,sans-Serif" font-size="10.00">View::ActionScene::</text>
<text text-anchor="middle" x="52.5" y="-73.5" font-family="Helvetica,sans-Serif" font-size="10.00">enemyPatrolled</text>
</g>
<!-- Node131 -->
<g id="node2" class="node"><title>Node131</title>
<g id="a_node2"><a xlink:href="class_view_1_1_action_scene.html#a4d0be71c24a8d12a73a86fb6d917cc51" target="_top" xlink:title="View::ActionScene::\lenemyWandered">
<polygon fill="white" stroke="black" points="148,-88.5 148,-118.5 253,-118.5 253,-88.5 148,-88.5"/>
<text text-anchor="start" x="156" y="-106.5" font-family="Helvetica,sans-Serif" font-size="10.00">View::ActionScene::</text>
<text text-anchor="middle" x="200.5" y="-95.5" font-family="Helvetica,sans-Serif" font-size="10.00">enemyWandered</text>
</a>
</g>
</g>
<!-- Node130&#45;&gt;Node131 -->
<g id="edge1" class="edge"><title>Node130&#45;&gt;Node131</title>
<path fill="none" stroke="midnightblue" d="M105.385,-89.3183C115.82,-90.8907 126.885,-92.558 137.621,-94.1757"/>
<polygon fill="midnightblue" stroke="midnightblue" points="137.372,-97.6777 147.782,-95.7069 138.415,-90.7558 137.372,-97.6777"/>
</g>
<!-- Node132 -->
<g id="node3" class="node"><title>Node132</title>
<g id="a_node3"><a xlink:href="class_view_1_1_action_scene_n_p_c.html#a63c01e4d67db25532448053814a4a917" target="_top" xlink:title="View::ActionSceneNPC\l::setAIMode">
<polygon fill="white" stroke="black" points="296,-122.5 296,-152.5 415,-152.5 415,-122.5 296,-122.5"/>
<text text-anchor="start" x="304" y="-140.5" font-family="Helvetica,sans-Serif" font-size="10.00">View::ActionSceneNPC</text>
<text text-anchor="middle" x="355.5" y="-129.5" font-family="Helvetica,sans-Serif" font-size="10.00">::setAIMode</text>
</a>
</g>
</g>
<!-- Node130&#45;&gt;Node132 -->
<g id="edge8" class="edge"><title>Node130&#45;&gt;Node132</title>
<path fill="none" stroke="midnightblue" d="M74.9849,-96.618C92.0172,-107.69 116.886,-121.89 141,-128.5 188.102,-141.41 243.219,-143.423 285.652,-142.331"/>
<polygon fill="midnightblue" stroke="midnightblue" points="285.995,-145.822 295.878,-142.002 285.77,-138.826 285.995,-145.822"/>
</g>
<!-- Node135 -->
<g id="node6" class="node"><title>Node135</title>
<g id="a_node6"><a xlink:href="class_view_1_1_action_scene_n_p_c.html#a2d64f4b6f2eb5eedb8360fb8dc33b606" target="_top" xlink:title="View::ActionSceneNPC\l::moveToPoint">
<polygon fill="white" stroke="black" points="296,-63.5 296,-93.5 415,-93.5 415,-63.5 296,-63.5"/>
<text text-anchor="start" x="304" y="-81.5" font-family="Helvetica,sans-Serif" font-size="10.00">View::ActionSceneNPC</text>
<text text-anchor="middle" x="355.5" y="-70.5" font-family="Helvetica,sans-Serif" font-size="10.00">::moveToPoint</text>
</a>
</g>
</g>
<!-- Node130&#45;&gt;Node135 -->
<g id="edge7" class="edge"><title>Node130&#45;&gt;Node135</title>
<path fill="none" stroke="midnightblue" d="M105.313,-79.4298C117.046,-79.0428 129.45,-78.6979 141,-78.5 189.275,-77.6727 243.699,-77.6873 285.516,-77.9012"/>
<polygon fill="midnightblue" stroke="midnightblue" points="285.572,-81.4015 295.592,-77.9578 285.612,-74.4016 285.572,-81.4015"/>
</g>
<!-- Node136 -->
<g id="node7" class="node"><title>Node136</title>
<g id="a_node7"><a xlink:href="class_view_1_1_action_scene_n_p_c.html#aebeb555dcc879bbab68a98565c5f8307" target="_top" xlink:title="View::ActionSceneNPC\l::getMoving">
<polygon fill="white" stroke="black" points="141,-0.5 141,-30.5 260,-30.5 260,-0.5 141,-0.5"/>
<text text-anchor="start" x="149" y="-18.5" font-family="Helvetica,sans-Serif" font-size="10.00">View::ActionSceneNPC</text>
<text text-anchor="middle" x="200.5" y="-7.5" font-family="Helvetica,sans-Serif" font-size="10.00">::getMoving</text>
</a>
</g>
</g>
<!-- Node130&#45;&gt;Node136 -->
<g id="edge6" class="edge"><title>Node130&#45;&gt;Node136</title>
<path fill="none" stroke="midnightblue" d="M86.9953,-66.3583C107.769,-56.9676 134.65,-44.8159 156.926,-34.7456"/>
<polygon fill="midnightblue" stroke="midnightblue" points="158.49,-37.8798 166.161,-30.5713 155.607,-31.5013 158.49,-37.8798"/>
</g>
<!-- Node131&#45;&gt;Node132 -->
<g id="edge2" class="edge"><title>Node131&#45;&gt;Node132</title>
<path fill="none" stroke="midnightblue" d="M253.299,-115.011C263.786,-117.341 274.967,-119.826 285.928,-122.262"/>
<polygon fill="midnightblue" stroke="midnightblue" points="285.386,-125.727 295.907,-124.479 286.904,-118.893 285.386,-125.727"/>
</g>
<!-- Node131&#45;&gt;Node135 -->
<g id="edge5" class="edge"><title>Node131&#45;&gt;Node135</title>
<path fill="none" stroke="midnightblue" d="M253.299,-95.0361C263.786,-93.3226 274.967,-91.4956 285.928,-89.7046"/>
<polygon fill="midnightblue" stroke="midnightblue" points="286.602,-93.1409 295.907,-88.0741 285.473,-86.2326 286.602,-93.1409"/>
</g>
<!-- Node133 -->
<g id="node4" class="node"><title>Node133</title>
<g id="a_node4"><a xlink:href="class_view_1_1_action_scene_n_p_c.html#a32b28c35cccc25fa39d60462235776f3" target="_top" xlink:title="View::ActionSceneNPC\l::setRunSpeed">
<polygon fill="white" stroke="black" points="451,-122.5 451,-152.5 570,-152.5 570,-122.5 451,-122.5"/>
<text text-anchor="start" x="459" y="-140.5" font-family="Helvetica,sans-Serif" font-size="10.00">View::ActionSceneNPC</text>
<text text-anchor="middle" x="510.5" y="-129.5" font-family="Helvetica,sans-Serif" font-size="10.00">::setRunSpeed</text>
</a>
</g>
</g>
<!-- Node132&#45;&gt;Node133 -->
<g id="edge3" class="edge"><title>Node132&#45;&gt;Node133</title>
<path fill="none" stroke="midnightblue" d="M415.216,-137.5C423.544,-137.5 432.169,-137.5 440.667,-137.5"/>
<polygon fill="midnightblue" stroke="midnightblue" points="440.941,-141 450.941,-137.5 440.941,-134 440.941,-141"/>
</g>
<!-- Node134 -->
<g id="node5" class="node"><title>Node134</title>
<g id="a_node5"><a xlink:href="class_view_1_1_action_scene_feet.html#a160793a00dcf4b16bcda158571f56773" target="_top" xlink:title="View::ActionSceneFeet\l::setRunning">
<polygon fill="white" stroke="black" points="606,-122.5 606,-152.5 725,-152.5 725,-122.5 606,-122.5"/>
<text text-anchor="start" x="614" y="-140.5" font-family="Helvetica,sans-Serif" font-size="10.00">View::ActionSceneFeet</text>
<text text-anchor="middle" x="665.5" y="-129.5" font-family="Helvetica,sans-Serif" font-size="10.00">::setRunning</text>
</a>
</g>
</g>
<!-- Node133&#45;&gt;Node134 -->
<g id="edge4" class="edge"><title>Node133&#45;&gt;Node134</title>
<path fill="none" stroke="midnightblue" d="M570.216,-137.5C578.544,-137.5 587.169,-137.5 595.667,-137.5"/>
<polygon fill="midnightblue" stroke="midnightblue" points="595.941,-141 605.941,-137.5 595.941,-134 595.941,-141"/>
</g>
</g>
</svg>
