<?xml version="1.0" encoding="UTF-8" standalone="no"?>
<!DOCTYPE svg PUBLIC "-//W3C//DTD SVG 1.1//EN"
 "http://www.w3.org/Graphics/SVG/1.1/DTD/svg11.dtd">
<!-- Generated by graphviz version 2.38.0 (20140413.2041)
 -->
<!-- Title: View::View::initUI Pages: 1 -->
<svg width="480pt" height="39pt"
 viewBox="0.00 0.00 480.00 39.00" xmlns="http://www.w3.org/2000/svg" xmlns:xlink="http://www.w3.org/1999/xlink">
<g id="graph0" class="graph" transform="scale(1 1) rotate(0) translate(4 35)">
<title>View::View::initUI</title>
<polygon fill="white" stroke="none" points="-4,4 -4,-35 476,-35 476,4 -4,4"/>
<!-- Node42 -->
<g id="node1" class="node"><title>Node42</title>
<polygon fill="#bfbfbf" stroke="black" points="0,-6 0,-25 92,-25 92,-6 0,-6"/>
<text text-anchor="middle" x="46" y="-13" font-family="Helvetica,sans-Serif" font-size="10.00">View::View::initUI</text>
</g>
<!-- Node43 -->
<g id="node2" class="node"><title>Node43</title>
<g id="a_node2"><a xlink:href="class_view_1_1_view_side_display_manager.html#abab63b804da95de877fc6ff678deaef5" target="_top" xlink:title="View::ViewSideDisplayManager\l::initAllDisplays">
<polygon fill="white" stroke="black" points="128,-0.5 128,-30.5 282,-30.5 282,-0.5 128,-0.5"/>
<text text-anchor="start" x="136" y="-18.5" font-family="Helvetica,sans-Serif" font-size="10.00">View::ViewSideDisplayManager</text>
<text text-anchor="middle" x="205" y="-7.5" font-family="Helvetica,sans-Serif" font-size="10.00">::initAllDisplays</text>
</a>
</g>
</g>
<!-- Node42&#45;&gt;Node43 -->
<g id="edge1" class="edge"><title>Node42&#45;&gt;Node43</title>
<path fill="none" stroke="midnightblue" d="M92.4109,-15.5C100.417,-15.5 108.986,-15.5 117.683,-15.5"/>
<polygon fill="midnightblue" stroke="midnightblue" points="117.927,-19.0001 127.927,-15.5 117.927,-12.0001 117.927,-19.0001"/>
</g>
<!-- Node44 -->
<g id="node3" class="node"><title>Node44</title>
<g id="a_node3"><a xlink:href="class_view_1_1_view_side_display_manager.html#a567d691fa0cd4a9017f09415bfb6457d" target="_top" xlink:title="View::ViewSideDisplayManager\l::setMissionLabelsVisible">
<polygon fill="white" stroke="black" points="318,-0.5 318,-30.5 472,-30.5 472,-0.5 318,-0.5"/>
<text text-anchor="start" x="326" y="-18.5" font-family="Helvetica,sans-Serif" font-size="10.00">View::ViewSideDisplayManager</text>
<text text-anchor="middle" x="395" y="-7.5" font-family="Helvetica,sans-Serif" font-size="10.00">::setMissionLabelsVisible</text>
</a>
</g>
</g>
<!-- Node43&#45;&gt;Node44 -->
<g id="edge2" class="edge"><title>Node43&#45;&gt;Node44</title>
<path fill="none" stroke="midnightblue" d="M282.196,-15.5C290.517,-15.5 299.032,-15.5 307.466,-15.5"/>
<polygon fill="midnightblue" stroke="midnightblue" points="307.696,-19.0001 317.696,-15.5 307.696,-12.0001 307.696,-19.0001"/>
</g>
</g>
</svg>
