<?xml version="1.0" encoding="UTF-8" standalone="no"?>
<!DOCTYPE svg PUBLIC "-//W3C//DTD SVG 1.1//EN"
 "http://www.w3.org/Graphics/SVG/1.1/DTD/svg11.dtd">
<!-- Generated by graphviz version 2.38.0 (20140413.2041)
 -->
<!-- Title: Model::ParkingHall::setOccupiedParkingCount Pages: 1 -->
<svg width="514pt" height="39pt"
 viewBox="0.00 0.00 514.00 39.00" xmlns="http://www.w3.org/2000/svg" xmlns:xlink="http://www.w3.org/1999/xlink">
<g id="graph0" class="graph" transform="scale(1 1) rotate(0) translate(4 35)">
<title>Model::ParkingHall::setOccupiedParkingCount</title>
<polygon fill="white" stroke="none" points="-4,4 -4,-35 510,-35 510,4 -4,4"/>
<!-- Node43 -->
<g id="node1" class="node"><title>Node43</title>
<polygon fill="#bfbfbf" stroke="black" points="0,-0.5 0,-30.5 136,-30.5 136,-0.5 0,-0.5"/>
<text text-anchor="start" x="8" y="-18.5" font-family="Helvetica,sans-Serif" font-size="10.00">Model::ParkingHall</text>
<text text-anchor="middle" x="68" y="-7.5" font-family="Helvetica,sans-Serif" font-size="10.00">::setOccupiedParkingCount</text>
</g>
<!-- Node44 -->
<g id="node2" class="node"><title>Node44</title>
<g id="a_node2"><a xlink:href="class_model_1_1_xml_parking_data_reader.html#acff5ef2b4ca3581572499408ef5389e9" target="_top" xlink:title="Model::XmlParkingDataReader\l::readParkingFacilityStatus">
<polygon fill="white" stroke="black" points="172,-0.5 172,-30.5 321,-30.5 321,-0.5 172,-0.5"/>
<text text-anchor="start" x="180" y="-18.5" font-family="Helvetica,sans-Serif" font-size="10.00">Model::XmlParkingDataReader</text>
<text text-anchor="middle" x="246.5" y="-7.5" font-family="Helvetica,sans-Serif" font-size="10.00">::readParkingFacilityStatus</text>
</a>
</g>
</g>
<!-- Node43&#45;&gt;Node44 -->
<g id="edge1" class="edge"><title>Node43&#45;&gt;Node44</title>
<path fill="none" stroke="midnightblue" d="M146.478,-15.5C154.951,-15.5 163.559,-15.5 171.982,-15.5"/>
<polygon fill="midnightblue" stroke="midnightblue" points="146.231,-12.0001 136.231,-15.5 146.231,-19.0001 146.231,-12.0001"/>
</g>
<!-- Node45 -->
<g id="node3" class="node"><title>Node45</title>
<g id="a_node3"><a xlink:href="class_model_1_1_xml_parking_data_reader.html#a958856af3d12a7d30f717591ff178a50" target="_top" xlink:title="Model::XmlParkingDataReader\l::read">
<polygon fill="white" stroke="black" points="357,-0.5 357,-30.5 506,-30.5 506,-0.5 357,-0.5"/>
<text text-anchor="start" x="365" y="-18.5" font-family="Helvetica,sans-Serif" font-size="10.00">Model::XmlParkingDataReader</text>
<text text-anchor="middle" x="431.5" y="-7.5" font-family="Helvetica,sans-Serif" font-size="10.00">::read</text>
</a>
</g>
</g>
<!-- Node44&#45;&gt;Node45 -->
<g id="edge2" class="edge"><title>Node44&#45;&gt;Node45</title>
<path fill="none" stroke="midnightblue" d="M331.387,-15.5C339.838,-15.5 348.376,-15.5 356.711,-15.5"/>
<polygon fill="midnightblue" stroke="midnightblue" points="331.142,-12.0001 321.142,-15.5 331.142,-19.0001 331.142,-12.0001"/>
</g>
</g>
</svg>
