<?xml version="1.0" encoding="UTF-8" standalone="no"?>
<!DOCTYPE svg PUBLIC "-//W3C//DTD SVG 1.1//EN"
 "http://www.w3.org/Graphics/SVG/1.1/DTD/svg11.dtd">
<!-- Generated by graphviz version 2.38.0 (20140413.2041)
 -->
<!-- Title: Model::mapGenerator::getTile Pages: 1 -->
<svg width="927pt" height="369pt"
 viewBox="0.00 0.00 927.00 368.95" xmlns="http://www.w3.org/2000/svg" xmlns:xlink="http://www.w3.org/1999/xlink">
<g id="graph0" class="graph" transform="scale(1 1) rotate(0) translate(4 364.947)">
<title>Model::mapGenerator::getTile</title>
<polygon fill="white" stroke="none" points="-4,4 -4,-364.947 923,-364.947 923,4 -4,4"/>
<!-- Node56 -->
<g id="node1" class="node"><title>Node56</title>
<polygon fill="#bfbfbf" stroke="black" points="0,-158.78 0,-188.78 110,-188.78 110,-158.78 0,-158.78"/>
<text text-anchor="start" x="8" y="-176.78" font-family="Helvetica,sans-Serif" font-size="10.00">Model::mapGenerator</text>
<text text-anchor="middle" x="55" y="-165.78" font-family="Helvetica,sans-Serif" font-size="10.00">::getTile</text>
</g>
<!-- Node57 -->
<g id="node2" class="node"><title>Node57</title>
<g id="a_node2"><a xlink:href="class_model_1_1map_processor.html#ae1e80cb097c8e31a337b3a20ff653cc2" target="_top" xlink:title="Model::mapProcessor\l::calculateDistanceMap">
<polygon fill="white" stroke="black" points="321.5,-240.78 321.5,-270.78 440.5,-270.78 440.5,-240.78 321.5,-240.78"/>
<text text-anchor="start" x="329.5" y="-258.78" font-family="Helvetica,sans-Serif" font-size="10.00">Model::mapProcessor</text>
<text text-anchor="middle" x="381" y="-247.78" font-family="Helvetica,sans-Serif" font-size="10.00">::calculateDistanceMap</text>
</a>
</g>
</g>
<!-- Node56&#45;&gt;Node57 -->
<g id="edge1" class="edge"><title>Node56&#45;&gt;Node57</title>
<path fill="none" stroke="midnightblue" d="M75.8563,-196.398C92.6074,-213.709 118.242,-236.333 146,-246.78 202.694,-268.117 272.662,-267.665 321.247,-263.56"/>
<polygon fill="midnightblue" stroke="midnightblue" points="78.2019,-193.783 68.8091,-188.881 73.095,-198.57 78.2019,-193.783"/>
</g>
<!-- Node58 -->
<g id="node3" class="node"><title>Node58</title>
<g id="a_node3"><a xlink:href="class_model_1_1map_processor.html#a7be8a27aaad96e187b4dba60fde5031a" target="_top" xlink:title="Model::mapProcessor\l::placeEnemies">
<polygon fill="white" stroke="black" points="653,-283.78 653,-313.78 765,-313.78 765,-283.78 653,-283.78"/>
<text text-anchor="start" x="661" y="-301.78" font-family="Helvetica,sans-Serif" font-size="10.00">Model::mapProcessor</text>
<text text-anchor="middle" x="709" y="-290.78" font-family="Helvetica,sans-Serif" font-size="10.00">::placeEnemies</text>
</a>
</g>
</g>
<!-- Node56&#45;&gt;Node58 -->
<g id="edge21" class="edge"><title>Node56&#45;&gt;Node58</title>
<path fill="none" stroke="midnightblue" d="M65.5903,-198.356C78.7934,-228.622 105.618,-279.051 146,-303.78 312.837,-405.948 563.074,-345.012 663.734,-313.789"/>
<polygon fill="midnightblue" stroke="midnightblue" points="68.7321,-196.798 61.635,-188.931 62.2774,-199.507 68.7321,-196.798"/>
</g>
<!-- Node59 -->
<g id="node4" class="node"><title>Node59</title>
<g id="a_node4"><a xlink:href="class_model_1_1map_processor.html#a3719cc265240be889e98f9830602a067" target="_top" xlink:title="Model::mapProcessor\l::getMedialMap">
<polygon fill="white" stroke="black" points="489,-283.78 489,-313.78 601,-313.78 601,-283.78 489,-283.78"/>
<text text-anchor="start" x="497" y="-301.78" font-family="Helvetica,sans-Serif" font-size="10.00">Model::mapProcessor</text>
<text text-anchor="middle" x="545" y="-290.78" font-family="Helvetica,sans-Serif" font-size="10.00">::getMedialMap</text>
</a>
</g>
</g>
<!-- Node56&#45;&gt;Node59 -->
<g id="edge14" class="edge"><title>Node56&#45;&gt;Node59</title>
<path fill="none" stroke="midnightblue" d="M70.296,-197.483C85.7541,-220.7 112.709,-254.841 146,-270.78 258.302,-324.547 409.117,-316.613 488.996,-307.117"/>
<polygon fill="midnightblue" stroke="midnightblue" points="73.1157,-195.397 64.7599,-188.883 67.2298,-199.186 73.1157,-195.397"/>
</g>
<!-- Node60 -->
<g id="node5" class="node"><title>Node60</title>
<g id="a_node5"><a xlink:href="class_model_1_1park_space_inserter.html#ab81abccc02f65eed8d54e0d56b234e18" target="_top" xlink:title="Model::parkSpaceInserter\l::floodFill">
<polygon fill="white" stroke="black" points="149.5,-70.7798 149.5,-100.78 277.5,-100.78 277.5,-70.7798 149.5,-70.7798"/>
<text text-anchor="start" x="157.5" y="-88.7798" font-family="Helvetica,sans-Serif" font-size="10.00">Model::parkSpaceInserter</text>
<text text-anchor="middle" x="213.5" y="-77.7798" font-family="Helvetica,sans-Serif" font-size="10.00">::floodFill</text>
</a>
</g>
</g>
<!-- Node56&#45;&gt;Node60 -->
<g id="edge5" class="edge"><title>Node56&#45;&gt;Node60</title>
<path fill="none" stroke="midnightblue" d="M86.1243,-152.766C103.29,-141.202 125.42,-126.973 146,-115.78 155.68,-110.515 166.461,-105.364 176.477,-100.857"/>
<polygon fill="midnightblue" stroke="midnightblue" points="83.9354,-150.022 77.6349,-158.54 87.872,-155.81 83.9354,-150.022"/>
</g>
<!-- Node61 -->
<g id="node6" class="node"><title>Node61</title>
<g id="a_node6"><a xlink:href="class_model_1_1park_space_inserter.html#ada0688360de1fb7d5bd138f2f645bea6" target="_top" xlink:title="Model::parkSpaceInserter\l::removeBlockedSpaces">
<polygon fill="white" stroke="black" points="317,-65.7798 317,-95.7798 445,-95.7798 445,-65.7798 317,-65.7798"/>
<text text-anchor="start" x="325" y="-83.7798" font-family="Helvetica,sans-Serif" font-size="10.00">Model::parkSpaceInserter</text>
<text text-anchor="middle" x="381" y="-72.7798" font-family="Helvetica,sans-Serif" font-size="10.00">::removeBlockedSpaces</text>
</a>
</g>
</g>
<!-- Node56&#45;&gt;Node61 -->
<g id="edge22" class="edge"><title>Node56&#45;&gt;Node61</title>
<path fill="none" stroke="midnightblue" d="M67.2789,-149.111C81.3256,-121.734 108.171,-79.0118 146,-60.7798 208.992,-30.4206 292.602,-49.7139 340.936,-65.7581"/>
<polygon fill="midnightblue" stroke="midnightblue" points="63.9677,-147.913 62.6862,-158.43 70.2465,-151.007 63.9677,-147.913"/>
</g>
<!-- Node63 -->
<g id="node8" class="node"><title>Node63</title>
<g id="a_node8"><a xlink:href="class_model_1_1map_generator.html#a08a1dc669cda9401647f81d61611931d" target="_top" xlink:title="Generate new hall with enemyCount. ">
<polygon fill="white" stroke="black" points="809,-90.7798 809,-120.78 919,-120.78 919,-90.7798 809,-90.7798"/>
<text text-anchor="start" x="817" y="-108.78" font-family="Helvetica,sans-Serif" font-size="10.00">Model::mapGenerator</text>
<text text-anchor="middle" x="864" y="-97.7798" font-family="Helvetica,sans-Serif" font-size="10.00">::generateHall</text>
</a>
</g>
</g>
<!-- Node56&#45;&gt;Node63 -->
<g id="edge9" class="edge"><title>Node56&#45;&gt;Node63</title>
<path fill="none" stroke="midnightblue" d="M65.5256,-148.797C78.6612,-118.001 105.416,-66.5846 146,-40.7798 234.852,15.7155 274.708,-3.77979 380,-3.77979 380,-3.77979 380,-3.77979 546,-3.77979 658.158,-3.77979 782.373,-62.3563 835.961,-90.7293"/>
<polygon fill="midnightblue" stroke="midnightblue" points="62.1502,-147.804 61.5928,-158.384 68.6264,-150.461 62.1502,-147.804"/>
</g>
<!-- Node64 -->
<g id="node9" class="node"><title>Node64</title>
<g id="a_node9"><a xlink:href="class_model_1_1map_generator.html#a918049786b708772ca97df76389955a7" target="_top" xlink:title="Model::mapGenerator\l::getClosestEdge">
<polygon fill="white" stroke="black" points="158.5,-207.78 158.5,-237.78 268.5,-237.78 268.5,-207.78 158.5,-207.78"/>
<text text-anchor="start" x="166.5" y="-225.78" font-family="Helvetica,sans-Serif" font-size="10.00">Model::mapGenerator</text>
<text text-anchor="middle" x="213.5" y="-214.78" font-family="Helvetica,sans-Serif" font-size="10.00">::getClosestEdge</text>
</a>
</g>
</g>
<!-- Node56&#45;&gt;Node64 -->
<g id="edge10" class="edge"><title>Node56&#45;&gt;Node64</title>
<path fill="none" stroke="midnightblue" d="M113.85,-191.893C130.488,-197.102 148.449,-202.725 164.427,-207.728"/>
<polygon fill="midnightblue" stroke="midnightblue" points="114.821,-188.529 104.232,-188.881 112.73,-195.209 114.821,-188.529"/>
</g>
<!-- Node66 -->
<g id="node11" class="node"><title>Node66</title>
<g id="a_node11"><a xlink:href="class_model_1_1map_generator.html#a92598d66736c2be4ca83aeedfe478b9d" target="_top" xlink:title="Model::mapGenerator\l::GetSurroundingWallCount">
<polygon fill="white" stroke="black" points="146,-158.78 146,-188.78 281,-188.78 281,-158.78 146,-158.78"/>
<text text-anchor="start" x="154" y="-176.78" font-family="Helvetica,sans-Serif" font-size="10.00">Model::mapGenerator</text>
<text text-anchor="middle" x="213.5" y="-165.78" font-family="Helvetica,sans-Serif" font-size="10.00">::GetSurroundingWallCount</text>
</a>
</g>
</g>
<!-- Node56&#45;&gt;Node66 -->
<g id="edge15" class="edge"><title>Node56&#45;&gt;Node66</title>
<path fill="none" stroke="midnightblue" d="M120.413,-173.78C128.818,-173.78 137.443,-173.78 145.883,-173.78"/>
<polygon fill="midnightblue" stroke="midnightblue" points="120.297,-170.28 110.297,-173.78 120.297,-177.28 120.297,-170.28"/>
</g>
<!-- Node67 -->
<g id="node12" class="node"><title>Node67</title>
<g id="a_node12"><a xlink:href="class_model_1_1park_space_inserter.html#a60ef5f3d1e5b3b726cc1ec9d4a200151" target="_top" xlink:title="Model::parkSpaceInserter\l::getWallTiles">
<polygon fill="white" stroke="black" points="317,-114.78 317,-144.78 445,-144.78 445,-114.78 317,-114.78"/>
<text text-anchor="start" x="325" y="-132.78" font-family="Helvetica,sans-Serif" font-size="10.00">Model::parkSpaceInserter</text>
<text text-anchor="middle" x="381" y="-121.78" font-family="Helvetica,sans-Serif" font-size="10.00">::getWallTiles</text>
</a>
</g>
</g>
<!-- Node56&#45;&gt;Node67 -->
<g id="edge20" class="edge"><title>Node56&#45;&gt;Node67</title>
<path fill="none" stroke="midnightblue" d="M113.43,-156.082C124.171,-153.27 135.365,-150.671 146,-148.78 203.184,-138.611 269.211,-133.876 316.517,-131.676"/>
<polygon fill="midnightblue" stroke="midnightblue" points="112.46,-152.718 103.721,-158.709 114.288,-159.475 112.46,-152.718"/>
</g>
<!-- Node57&#45;&gt;Node58 -->
<g id="edge2" class="edge"><title>Node57&#45;&gt;Node58</title>
<path fill="none" stroke="midnightblue" d="M450.635,-258.215C495.852,-260.557 556.234,-265.089 609,-273.78 624.217,-276.286 640.526,-279.976 655.426,-283.756"/>
<polygon fill="midnightblue" stroke="midnightblue" points="450.806,-254.719 440.645,-257.72 450.46,-261.711 450.806,-254.719"/>
</g>
<!-- Node57&#45;&gt;Node59 -->
<g id="edge3" class="edge"><title>Node57&#45;&gt;Node59</title>
<path fill="none" stroke="midnightblue" d="M448.71,-273.487C462.021,-277.02 475.863,-280.694 488.737,-284.111"/>
<polygon fill="midnightblue" stroke="midnightblue" points="449.223,-270.002 438.66,-270.819 447.427,-276.768 449.223,-270.002"/>
</g>
<!-- Node59&#45;&gt;Node58 -->
<g id="edge4" class="edge"><title>Node59&#45;&gt;Node58</title>
<path fill="none" stroke="midnightblue" d="M611.637,-298.78C625.349,-298.78 639.67,-298.78 652.951,-298.78"/>
<polygon fill="midnightblue" stroke="midnightblue" points="611.298,-295.28 601.298,-298.78 611.298,-302.28 611.298,-295.28"/>
</g>
<!-- Node60&#45;&gt;Node61 -->
<g id="edge6" class="edge"><title>Node60&#45;&gt;Node61</title>
<path fill="none" stroke="midnightblue" d="M287.614,-83.5709C297.366,-83.2763 307.299,-82.9762 316.861,-82.6873"/>
<polygon fill="midnightblue" stroke="midnightblue" points="287.43,-80.0748 277.541,-83.8752 287.642,-87.0716 287.43,-80.0748"/>
</g>
<!-- Node62 -->
<g id="node7" class="node"><title>Node62</title>
<g id="a_node7"><a xlink:href="class_model_1_1park_space_inserter.html#a85f30f97e1864f0c4b3afe8f8dea7ae3" target="_top" xlink:title="Model::parkSpaceInserter\l::addSpaces">
<polygon fill="white" stroke="black" points="645,-90.7798 645,-120.78 773,-120.78 773,-90.7798 645,-90.7798"/>
<text text-anchor="start" x="653" y="-108.78" font-family="Helvetica,sans-Serif" font-size="10.00">Model::parkSpaceInserter</text>
<text text-anchor="middle" x="709" y="-97.7798" font-family="Helvetica,sans-Serif" font-size="10.00">::addSpaces</text>
</a>
</g>
</g>
<!-- Node61&#45;&gt;Node62 -->
<g id="edge7" class="edge"><title>Node61&#45;&gt;Node62</title>
<path fill="none" stroke="midnightblue" d="M455.278,-86.3992C512.322,-90.7738 590.662,-96.7815 644.933,-100.943"/>
<polygon fill="midnightblue" stroke="midnightblue" points="455.481,-82.9047 445.243,-85.6297 454.946,-89.8842 455.481,-82.9047"/>
</g>
<!-- Node62&#45;&gt;Node63 -->
<g id="edge8" class="edge"><title>Node62&#45;&gt;Node63</title>
<path fill="none" stroke="midnightblue" d="M783.194,-105.78C791.825,-105.78 800.513,-105.78 808.816,-105.78"/>
<polygon fill="midnightblue" stroke="midnightblue" points="783.114,-102.28 773.114,-105.78 783.114,-109.28 783.114,-102.28"/>
</g>
<!-- Node64&#45;&gt;Node57 -->
<g id="edge13" class="edge"><title>Node64&#45;&gt;Node57</title>
<path fill="none" stroke="midnightblue" d="M278.76,-235.593C292.805,-238.393 307.598,-241.343 321.407,-244.097"/>
<polygon fill="midnightblue" stroke="midnightblue" points="279.182,-232.108 268.691,-233.585 277.813,-238.973 279.182,-232.108"/>
</g>
<!-- Node65 -->
<g id="node10" class="node"><title>Node65</title>
<g id="a_node10"><a xlink:href="class_model_1_1park_space_inserter.html#a20265678d0e7cfc25daef80afaa1ba86" target="_top" xlink:title="Model::parkSpaceInserter\l::addParkingSpaces_">
<polygon fill="white" stroke="black" points="481,-114.78 481,-144.78 609,-144.78 609,-114.78 481,-114.78"/>
<text text-anchor="start" x="489" y="-132.78" font-family="Helvetica,sans-Serif" font-size="10.00">Model::parkSpaceInserter</text>
<text text-anchor="middle" x="545" y="-121.78" font-family="Helvetica,sans-Serif" font-size="10.00">::addParkingSpaces_</text>
</a>
</g>
</g>
<!-- Node64&#45;&gt;Node65 -->
<g id="edge11" class="edge"><title>Node64&#45;&gt;Node65</title>
<path fill="none" stroke="midnightblue" d="M277.448,-205.013C339.267,-187.565 432.537,-161.24 490.771,-144.804"/>
<polygon fill="midnightblue" stroke="midnightblue" points="276.479,-201.65 267.806,-207.734 278.381,-208.386 276.479,-201.65"/>
</g>
<!-- Node65&#45;&gt;Node62 -->
<g id="edge12" class="edge"><title>Node65&#45;&gt;Node62</title>
<path fill="none" stroke="midnightblue" d="M619.094,-118.951C627.676,-117.68 636.378,-116.391 644.808,-115.142"/>
<polygon fill="midnightblue" stroke="midnightblue" points="618.476,-115.504 609.097,-120.432 619.502,-122.429 618.476,-115.504"/>
</g>
<!-- Node66&#45;&gt;Node57 -->
<g id="edge16" class="edge"><title>Node66&#45;&gt;Node57</title>
<path fill="none" stroke="midnightblue" d="M269.157,-192.582C273.2,-194.254 277.186,-195.993 281,-197.78 308.057,-210.457 337.396,-228.191 357.053,-240.703"/>
<polygon fill="midnightblue" stroke="midnightblue" points="270.256,-189.253 259.671,-188.812 267.671,-195.758 270.256,-189.253"/>
</g>
<!-- Node66&#45;&gt;Node63 -->
<g id="edge17" class="edge"><title>Node66&#45;&gt;Node63</title>
<path fill="none" stroke="midnightblue" d="M291.208,-173.734C399.636,-172.318 603.419,-164.678 773,-129.78 785.196,-127.27 798.198,-124.099 810.417,-120.891"/>
<polygon fill="midnightblue" stroke="midnightblue" points="290.976,-170.236 281.017,-173.852 291.057,-177.236 290.976,-170.236"/>
</g>
<!-- Node66&#45;&gt;Node67 -->
<g id="edge18" class="edge"><title>Node66&#45;&gt;Node67</title>
<path fill="none" stroke="midnightblue" d="M280.678,-156.186C294.855,-152.417 309.709,-148.468 323.481,-144.806"/>
<polygon fill="midnightblue" stroke="midnightblue" points="279.758,-152.809 270.993,-158.761 281.556,-159.574 279.758,-152.809"/>
</g>
<!-- Node67&#45;&gt;Node65 -->
<g id="edge19" class="edge"><title>Node67&#45;&gt;Node65</title>
<path fill="none" stroke="midnightblue" d="M455.374,-129.78C463.865,-129.78 472.469,-129.78 480.808,-129.78"/>
<polygon fill="midnightblue" stroke="midnightblue" points="455.097,-126.28 445.097,-129.78 455.097,-133.28 455.097,-126.28"/>
</g>
</g>
</svg>
