<?xml version="1.0" encoding="UTF-8" standalone="no"?>
<!DOCTYPE svg PUBLIC "-//W3C//DTD SVG 1.1//EN"
 "http://www.w3.org/Graphics/SVG/1.1/DTD/svg11.dtd">
<!-- Generated by graphviz version 2.38.0 (20140413.2041)
 -->
<!-- Title: Model::PlayerParty::getActor Pages: 1 -->
<svg width="275pt" height="333pt"
 viewBox="0.00 0.00 275.00 333.00" xmlns="http://www.w3.org/2000/svg" xmlns:xlink="http://www.w3.org/1999/xlink">
<g id="graph0" class="graph" transform="scale(1 1) rotate(0) translate(4 329)">
<title>Model::PlayerParty::getActor</title>
<polygon fill="white" stroke="none" points="-4,4 -4,-329 271,-329 271,4 -4,4"/>
<!-- Node22 -->
<g id="node1" class="node"><title>Node22</title>
<polygon fill="#bfbfbf" stroke="black" points="0,-147.5 0,-177.5 100,-177.5 100,-147.5 0,-147.5"/>
<text text-anchor="start" x="8" y="-165.5" font-family="Helvetica,sans-Serif" font-size="10.00">Model::PlayerParty</text>
<text text-anchor="middle" x="50" y="-154.5" font-family="Helvetica,sans-Serif" font-size="10.00">::getActor</text>
</g>
<!-- Node23 -->
<g id="node2" class="node"><title>Node23</title>
<g id="a_node2"><a xlink:href="class_model_1_1_player_party.html#aa1e19103d6fa60e0d9778011d68c6174" target="_top" xlink:title="Model::PlayerParty\l::actorHit">
<polygon fill="white" stroke="black" points="151.5,-294.5 151.5,-324.5 251.5,-324.5 251.5,-294.5 151.5,-294.5"/>
<text text-anchor="start" x="159.5" y="-312.5" font-family="Helvetica,sans-Serif" font-size="10.00">Model::PlayerParty</text>
<text text-anchor="middle" x="201.5" y="-301.5" font-family="Helvetica,sans-Serif" font-size="10.00">::actorHit</text>
</a>
</g>
</g>
<!-- Node22&#45;&gt;Node23 -->
<g id="edge1" class="edge"><title>Node22&#45;&gt;Node23</title>
<path fill="none" stroke="midnightblue" d="M62.1635,-186.895C75.9038,-214.418 101.696,-258.813 136,-285.5 140.621,-289.095 145.836,-292.193 151.248,-294.852"/>
<polygon fill="midnightblue" stroke="midnightblue" points="65.1621,-185.057 57.6531,-177.582 58.8621,-188.108 65.1621,-185.057"/>
</g>
<!-- Node24 -->
<g id="node3" class="node"><title>Node24</title>
<g id="a_node3"><a xlink:href="class_model_1_1_player_party.html#a41db22ad04f47d79c457802cd9ac44b4" target="_top" xlink:title="Model::PlayerParty\l::actorShot">
<polygon fill="white" stroke="black" points="151.5,-245.5 151.5,-275.5 251.5,-275.5 251.5,-245.5 151.5,-245.5"/>
<text text-anchor="start" x="159.5" y="-263.5" font-family="Helvetica,sans-Serif" font-size="10.00">Model::PlayerParty</text>
<text text-anchor="middle" x="201.5" y="-252.5" font-family="Helvetica,sans-Serif" font-size="10.00">::actorShot</text>
</a>
</g>
</g>
<!-- Node22&#45;&gt;Node24 -->
<g id="edge2" class="edge"><title>Node22&#45;&gt;Node24</title>
<path fill="none" stroke="midnightblue" d="M72.4165,-185.078C88.6438,-201.15 112.151,-222.325 136,-236.5 141.546,-239.797 147.622,-242.77 153.758,-245.411"/>
<polygon fill="midnightblue" stroke="midnightblue" points="74.5879,-182.296 65.0656,-177.651 69.6128,-187.221 74.5879,-182.296"/>
</g>
<!-- Node25 -->
<g id="node4" class="node"><title>Node25</title>
<g id="a_node4"><a xlink:href="class_model_1_1_player_party.html#a53b10685aae564a3efd860b75b1fd2b4" target="_top" xlink:title="Model::PlayerParty\l::healCyborg">
<polygon fill="white" stroke="black" points="151.5,-196.5 151.5,-226.5 251.5,-226.5 251.5,-196.5 151.5,-196.5"/>
<text text-anchor="start" x="159.5" y="-214.5" font-family="Helvetica,sans-Serif" font-size="10.00">Model::PlayerParty</text>
<text text-anchor="middle" x="201.5" y="-203.5" font-family="Helvetica,sans-Serif" font-size="10.00">::healCyborg</text>
</a>
</g>
</g>
<!-- Node22&#45;&gt;Node25 -->
<g id="edge3" class="edge"><title>Node22&#45;&gt;Node25</title>
<path fill="none" stroke="midnightblue" d="M106.709,-180.759C122.477,-185.927 139.456,-191.492 154.577,-196.448"/>
<polygon fill="midnightblue" stroke="midnightblue" points="107.668,-177.39 97.0748,-177.601 105.487,-184.042 107.668,-177.39"/>
</g>
<!-- Node26 -->
<g id="node5" class="node"><title>Node26</title>
<g id="a_node5"><a xlink:href="class_model_1_1_player_party.html#a85bb49e208ad8ccd47a984f289234f3a" target="_top" xlink:title="Model::PlayerParty\l::hireCyborg">
<polygon fill="white" stroke="black" points="151.5,-147.5 151.5,-177.5 251.5,-177.5 251.5,-147.5 151.5,-147.5"/>
<text text-anchor="start" x="159.5" y="-165.5" font-family="Helvetica,sans-Serif" font-size="10.00">Model::PlayerParty</text>
<text text-anchor="middle" x="201.5" y="-154.5" font-family="Helvetica,sans-Serif" font-size="10.00">::hireCyborg</text>
</a>
</g>
</g>
<!-- Node22&#45;&gt;Node26 -->
<g id="edge4" class="edge"><title>Node22&#45;&gt;Node26</title>
<path fill="none" stroke="midnightblue" d="M110.567,-162.5C124.125,-162.5 138.379,-162.5 151.441,-162.5"/>
<polygon fill="midnightblue" stroke="midnightblue" points="110.366,-159 100.366,-162.5 110.366,-166 110.366,-159"/>
</g>
<!-- Node27 -->
<g id="node6" class="node"><title>Node27</title>
<g id="a_node6"><a xlink:href="class_model_1_1_player_party.html#a9d78fcd7e163b6ec2354f48d008ae191" target="_top" xlink:title="Model::PlayerParty\l::reloadWeapon">
<polygon fill="white" stroke="black" points="151.5,-98.5 151.5,-128.5 251.5,-128.5 251.5,-98.5 151.5,-98.5"/>
<text text-anchor="start" x="159.5" y="-116.5" font-family="Helvetica,sans-Serif" font-size="10.00">Model::PlayerParty</text>
<text text-anchor="middle" x="201.5" y="-105.5" font-family="Helvetica,sans-Serif" font-size="10.00">::reloadWeapon</text>
</a>
</g>
</g>
<!-- Node22&#45;&gt;Node27 -->
<g id="edge5" class="edge"><title>Node22&#45;&gt;Node27</title>
<path fill="none" stroke="midnightblue" d="M106.709,-144.241C122.477,-139.073 139.456,-133.508 154.577,-128.552"/>
<polygon fill="midnightblue" stroke="midnightblue" points="105.487,-140.958 97.0748,-147.399 107.668,-147.61 105.487,-140.958"/>
</g>
<!-- Node28 -->
<g id="node7" class="node"><title>Node28</title>
<g id="a_node7"><a xlink:href="class_model_1_1_player_party.html#ac5ba86d83375dfbbb60e4b57ca6d8f50" target="_top" xlink:title="Model::PlayerParty\l::retireCyborg">
<polygon fill="white" stroke="black" points="151.5,-49.5 151.5,-79.5 251.5,-79.5 251.5,-49.5 151.5,-49.5"/>
<text text-anchor="start" x="159.5" y="-67.5" font-family="Helvetica,sans-Serif" font-size="10.00">Model::PlayerParty</text>
<text text-anchor="middle" x="201.5" y="-56.5" font-family="Helvetica,sans-Serif" font-size="10.00">::retireCyborg</text>
</a>
</g>
</g>
<!-- Node22&#45;&gt;Node28 -->
<g id="edge6" class="edge"><title>Node22&#45;&gt;Node28</title>
<path fill="none" stroke="midnightblue" d="M72.8248,-140.053C89.0955,-124.29 112.481,-103.588 136,-89.5 142.182,-85.7972 149.009,-82.4568 155.839,-79.5123"/>
<polygon fill="midnightblue" stroke="midnightblue" points="70.0969,-137.828 65.4395,-147.344 75.0148,-142.809 70.0969,-137.828"/>
</g>
<!-- Node29 -->
<g id="node8" class="node"><title>Node29</title>
<g id="a_node8"><a xlink:href="class_model_1_1_player_party.html#a317b7002272f0c4de24cce7afd04e2bb" target="_top" xlink:title="Model::PlayerParty\l::setParkingHallOwnership">
<polygon fill="white" stroke="black" points="136,-0.5 136,-30.5 267,-30.5 267,-0.5 136,-0.5"/>
<text text-anchor="start" x="144" y="-18.5" font-family="Helvetica,sans-Serif" font-size="10.00">Model::PlayerParty</text>
<text text-anchor="middle" x="201.5" y="-7.5" font-family="Helvetica,sans-Serif" font-size="10.00">::setParkingHallOwnership</text>
</a>
</g>
</g>
<!-- Node22&#45;&gt;Node29 -->
<g id="edge7" class="edge"><title>Node22&#45;&gt;Node29</title>
<path fill="none" stroke="midnightblue" d="M62.4996,-137.952C76.3995,-110.7 102.195,-67.0638 136,-40.5 140.816,-36.7156 146.273,-33.4469 151.924,-30.6386"/>
<polygon fill="midnightblue" stroke="midnightblue" points="59.2266,-136.675 57.924,-147.189 65.4992,-139.782 59.2266,-136.675"/>
</g>
</g>
</svg>
