<?xml version="1.0" encoding="UTF-8" standalone="no"?>
<!DOCTYPE svg PUBLIC "-//W3C//DTD SVG 1.1//EN"
 "http://www.w3.org/Graphics/SVG/1.1/DTD/svg11.dtd">
<!-- Generated by graphviz version 2.38.0 (20140413.2041)
 -->
<!-- Title: View::ActionScenePC::getId Pages: 1 -->
<svg width="569pt" height="61pt"
 viewBox="0.00 0.00 569.00 61.00" xmlns="http://www.w3.org/2000/svg" xmlns:xlink="http://www.w3.org/1999/xlink">
<g id="graph0" class="graph" transform="scale(1 1) rotate(0) translate(4 57)">
<title>View::ActionScenePC::getId</title>
<polygon fill="white" stroke="none" points="-4,4 -4,-57 565,-57 565,4 -4,4"/>
<!-- Node22 -->
<g id="node1" class="node"><title>Node22</title>
<polygon fill="#bfbfbf" stroke="black" points="0,-0.5 0,-30.5 113,-30.5 113,-0.5 0,-0.5"/>
<text text-anchor="start" x="8" y="-18.5" font-family="Helvetica,sans-Serif" font-size="10.00">View::ActionScenePC</text>
<text text-anchor="middle" x="56.5" y="-7.5" font-family="Helvetica,sans-Serif" font-size="10.00">::getId</text>
</g>
<!-- Node23 -->
<g id="node2" class="node"><title>Node23</title>
<g id="a_node2"><a xlink:href="class_view_1_1_action_scene.html#af1d81cee559dc8f92ab1be0128d87dbb" target="_top" xlink:title="View::ActionScene::\lcheckBlockedDirection">
<polygon fill="white" stroke="black" points="149,-22.5 149,-52.5 265,-52.5 265,-22.5 149,-22.5"/>
<text text-anchor="start" x="157" y="-40.5" font-family="Helvetica,sans-Serif" font-size="10.00">View::ActionScene::</text>
<text text-anchor="middle" x="207" y="-29.5" font-family="Helvetica,sans-Serif" font-size="10.00">checkBlockedDirection</text>
</a>
</g>
</g>
<!-- Node22&#45;&gt;Node23 -->
<g id="edge1" class="edge"><title>Node22&#45;&gt;Node23</title>
<path fill="none" stroke="midnightblue" d="M123.206,-25.2342C131.799,-26.5072 140.546,-27.8031 148.979,-29.0525"/>
<polygon fill="midnightblue" stroke="midnightblue" points="123.623,-21.7579 113.218,-23.7546 122.598,-28.6824 123.623,-21.7579"/>
</g>
<!-- Node24 -->
<g id="node3" class="node"><title>Node24</title>
<g id="a_node3"><a xlink:href="class_view_1_1_action_scene.html#ade23dfff3a399dba0e13815023a7735a" target="_top" xlink:title="View::ActionScene::\lcheckWalkingIntoWalls">
<polygon fill="white" stroke="black" points="301,-0.5 301,-30.5 420,-30.5 420,-0.5 301,-0.5"/>
<text text-anchor="start" x="309" y="-18.5" font-family="Helvetica,sans-Serif" font-size="10.00">View::ActionScene::</text>
<text text-anchor="middle" x="360.5" y="-7.5" font-family="Helvetica,sans-Serif" font-size="10.00">checkWalkingIntoWalls</text>
</a>
</g>
</g>
<!-- Node22&#45;&gt;Node24 -->
<g id="edge4" class="edge"><title>Node22&#45;&gt;Node24</title>
<path fill="none" stroke="midnightblue" d="M123.237,-13.8903C131.901,-13.7289 140.664,-13.5911 149,-13.5 200.552,-12.9367 213.447,-12.9545 265,-13.5 276.568,-13.6224 288.932,-13.8291 300.775,-14.0643"/>
<polygon fill="midnightblue" stroke="midnightblue" points="123.071,-10.3928 113.142,-14.0894 123.209,-17.3915 123.071,-10.3928"/>
</g>
<!-- Node23&#45;&gt;Node24 -->
<g id="edge2" class="edge"><title>Node23&#45;&gt;Node24</title>
<path fill="none" stroke="midnightblue" d="M275.224,-27.7381C283.778,-26.4959 292.479,-25.2324 300.884,-24.0119"/>
<polygon fill="midnightblue" stroke="midnightblue" points="274.669,-24.2819 265.276,-29.1827 275.675,-31.2093 274.669,-24.2819"/>
</g>
<!-- Node25 -->
<g id="node4" class="node"><title>Node25</title>
<g id="a_node4"><a xlink:href="class_view_1_1_action_scene.html#ade415911403812f06b29a9e1933ea678" target="_top" xlink:title="View::ActionScene::\lActionScene">
<polygon fill="white" stroke="black" points="456,-0.5 456,-30.5 561,-30.5 561,-0.5 456,-0.5"/>
<text text-anchor="start" x="464" y="-18.5" font-family="Helvetica,sans-Serif" font-size="10.00">View::ActionScene::</text>
<text text-anchor="middle" x="508.5" y="-7.5" font-family="Helvetica,sans-Serif" font-size="10.00">ActionScene</text>
</a>
</g>
</g>
<!-- Node24&#45;&gt;Node25 -->
<g id="edge3" class="edge"><title>Node24&#45;&gt;Node25</title>
<path fill="none" stroke="midnightblue" d="M430.044,-15.5C438.62,-15.5 447.279,-15.5 455.544,-15.5"/>
<polygon fill="midnightblue" stroke="midnightblue" points="430.043,-12.0001 420.043,-15.5 430.043,-19.0001 430.043,-12.0001"/>
</g>
</g>
</svg>
