<?xml version="1.0" encoding="UTF-8" standalone="no"?>
<!DOCTYPE svg PUBLIC "-//W3C//DTD SVG 1.1//EN"
 "http://www.w3.org/Graphics/SVG/1.1/DTD/svg11.dtd">
<!-- Generated by graphviz version 2.38.0 (20140413.2041)
 -->
<!-- Title: Model::Model::buyEquipment Pages: 1 -->
<svg width="497pt" height="83pt"
 viewBox="0.00 0.00 497.00 83.00" xmlns="http://www.w3.org/2000/svg" xmlns:xlink="http://www.w3.org/1999/xlink">
<g id="graph0" class="graph" transform="scale(1 1) rotate(0) translate(4 79)">
<title>Model::Model::buyEquipment</title>
<polygon fill="white" stroke="none" points="-4,4 -4,-79 493,-79 493,4 -4,4"/>
<!-- Node8 -->
<g id="node1" class="node"><title>Node8</title>
<polygon fill="#bfbfbf" stroke="black" points="0,-28 0,-47 143,-47 143,-28 0,-28"/>
<text text-anchor="middle" x="71.5" y="-35" font-family="Helvetica,sans-Serif" font-size="10.00">Model::Model::buyEquipment</text>
</g>
<!-- Node9 -->
<g id="node2" class="node"><title>Node9</title>
<g id="a_node2"><a xlink:href="class_model_1_1_cyber_teekkari.html#a970088d796bb90c510e477270f0c02f2" target="_top" xlink:title="Model::CyberTeekkari\l::buyUpgrade">
<polygon fill="white" stroke="black" points="190.5,-44.5 190.5,-74.5 301.5,-74.5 301.5,-44.5 190.5,-44.5"/>
<text text-anchor="start" x="198.5" y="-62.5" font-family="Helvetica,sans-Serif" font-size="10.00">Model::CyberTeekkari</text>
<text text-anchor="middle" x="246" y="-51.5" font-family="Helvetica,sans-Serif" font-size="10.00">::buyUpgrade</text>
</a>
</g>
</g>
<!-- Node8&#45;&gt;Node9 -->
<g id="edge1" class="edge"><title>Node8&#45;&gt;Node9</title>
<path fill="none" stroke="midnightblue" d="M143.16,-46.5117C155.445,-48.0785 168.166,-49.7009 180.281,-51.246"/>
<polygon fill="midnightblue" stroke="midnightblue" points="179.931,-54.7296 190.293,-52.5229 180.816,-47.7858 179.931,-54.7296"/>
</g>
<!-- Node12 -->
<g id="node5" class="node"><title>Node12</title>
<g id="a_node5"><a xlink:href="class_model_1_1_player.html#aa6f794265ed4142993311792aefdd9dc" target="_top" xlink:title="Model::Player::buyUpgrade">
<polygon fill="white" stroke="black" points="179,-6 179,-25 313,-25 313,-6 179,-6"/>
<text text-anchor="middle" x="246" y="-13" font-family="Helvetica,sans-Serif" font-size="10.00">Model::Player::buyUpgrade</text>
</a>
</g>
</g>
<!-- Node8&#45;&gt;Node12 -->
<g id="edge4" class="edge"><title>Node8&#45;&gt;Node12</title>
<path fill="none" stroke="midnightblue" d="M143.16,-28.4883C151.653,-27.4051 160.355,-26.2953 168.921,-25.2028"/>
<polygon fill="midnightblue" stroke="midnightblue" points="169.417,-28.668 178.894,-23.9309 168.531,-21.7243 169.417,-28.668"/>
</g>
<!-- Node10 -->
<g id="node3" class="node"><title>Node10</title>
<g id="a_node3"><a xlink:href="class_model_1_1_equipment.html#a8be8a33c92616dddefffa429c812e5a6" target="_top" xlink:title="getName palauttaa kyseisen tavaran nimen. ">
<polygon fill="white" stroke="black" points="349,-50 349,-69 489,-69 489,-50 349,-50"/>
<text text-anchor="middle" x="419" y="-57" font-family="Helvetica,sans-Serif" font-size="10.00">Model::Equipment::getName</text>
</a>
</g>
</g>
<!-- Node9&#45;&gt;Node10 -->
<g id="edge2" class="edge"><title>Node9&#45;&gt;Node10</title>
<path fill="none" stroke="midnightblue" d="M301.576,-59.5C313.453,-59.5 326.25,-59.5 338.862,-59.5"/>
<polygon fill="midnightblue" stroke="midnightblue" points="338.916,-63.0001 348.916,-59.5 338.916,-56.0001 338.916,-63.0001"/>
</g>
<!-- Node11 -->
<g id="node4" class="node"><title>Node11</title>
<g id="a_node4"><a xlink:href="class_model_1_1_equipment.html#a21933fbc1922db1718fe4d6be6c9bc2f" target="_top" xlink:title="Model::Equipment::increase\lUpgradeLevel">
<polygon fill="white" stroke="black" points="350,-0.5 350,-30.5 488,-30.5 488,-0.5 350,-0.5"/>
<text text-anchor="start" x="358" y="-18.5" font-family="Helvetica,sans-Serif" font-size="10.00">Model::Equipment::increase</text>
<text text-anchor="middle" x="419" y="-7.5" font-family="Helvetica,sans-Serif" font-size="10.00">UpgradeLevel</text>
</a>
</g>
</g>
<!-- Node9&#45;&gt;Node11 -->
<g id="edge3" class="edge"><title>Node9&#45;&gt;Node11</title>
<path fill="none" stroke="midnightblue" d="M301.576,-45.4572C316.874,-41.5208 333.699,-37.1916 349.687,-33.0776"/>
<polygon fill="midnightblue" stroke="midnightblue" points="350.701,-36.4309 359.513,-30.5493 348.956,-29.6517 350.701,-36.4309"/>
</g>
<!-- Node12&#45;&gt;Node10 -->
<g id="edge5" class="edge"><title>Node12&#45;&gt;Node10</title>
<path fill="none" stroke="midnightblue" d="M284.104,-25.0473C309.65,-31.6204 343.789,-40.4048 371.201,-47.4583"/>
<polygon fill="midnightblue" stroke="midnightblue" points="370.411,-50.8689 380.968,-49.9713 372.156,-44.0897 370.411,-50.8689"/>
</g>
<!-- Node12&#45;&gt;Node11 -->
<g id="edge6" class="edge"><title>Node12&#45;&gt;Node11</title>
<path fill="none" stroke="midnightblue" d="M313.113,-15.5C321.853,-15.5 330.879,-15.5 339.798,-15.5"/>
<polygon fill="midnightblue" stroke="midnightblue" points="339.802,-19.0001 349.802,-15.5 339.802,-12.0001 339.802,-19.0001"/>
</g>
</g>
</svg>
