<?xml version="1.0" encoding="UTF-8" standalone="no"?>
<!DOCTYPE svg PUBLIC "-//W3C//DTD SVG 1.1//EN"
 "http://www.w3.org/Graphics/SVG/1.1/DTD/svg11.dtd">
<!-- Generated by graphviz version 2.38.0 (20140413.2041)
 -->
<!-- Title: View::ActionSceneSmallExplosion Pages: 1 -->
<svg width="463pt" height="193pt"
 viewBox="0.00 0.00 462.50 193.00" xmlns="http://www.w3.org/2000/svg" xmlns:xlink="http://www.w3.org/1999/xlink">
<g id="graph0" class="graph" transform="scale(1 1) rotate(0) translate(4 189)">
<title>View::ActionSceneSmallExplosion</title>
<polygon fill="white" stroke="none" points="-4,4 -4,-189 458.5,-189 458.5,4 -4,4"/>
<!-- Node3 -->
<g id="node1" class="node"><title>Node3</title>
<polygon fill="#bfbfbf" stroke="black" points="138,-0.5 138,-79.5 305,-79.5 305,-0.5 138,-0.5"/>
<text text-anchor="middle" x="221.5" y="-67.5" font-family="Helvetica,sans-Serif" font-size="10.00">View::ActionSceneSmallExplosion</text>
<polyline fill="none" stroke="black" points="138,-60.5 305,-60.5 "/>
<text text-anchor="middle" x="221.5" y="-48.5" font-family="Helvetica,sans-Serif" font-size="10.00"> </text>
<polyline fill="none" stroke="black" points="138,-41.5 305,-41.5 "/>
<text text-anchor="start" x="146" y="-29.5" font-family="Helvetica,sans-Serif" font-size="10.00">+ ActionSceneSmallExplosion()</text>
<text text-anchor="start" x="146" y="-18.5" font-family="Helvetica,sans-Serif" font-size="10.00">+ ~ActionSceneSmallExplosion()</text>
<text text-anchor="start" x="146" y="-7.5" font-family="Helvetica,sans-Serif" font-size="10.00">+ nextFrame()</text>
</g>
<!-- Node4 -->
<g id="node2" class="node"><title>Node4</title>
<g id="a_node2"><a xlink:href="class_q_object.html" target="_top" xlink:title="{QObject\n||}">
<polygon fill="white" stroke="black" points="0,-127.5 0,-184.5 53,-184.5 53,-127.5 0,-127.5"/>
<text text-anchor="middle" x="26.5" y="-172.5" font-family="Helvetica,sans-Serif" font-size="10.00">QObject</text>
<polyline fill="none" stroke="black" points="0,-165.5 53,-165.5 "/>
<text text-anchor="middle" x="26.5" y="-153.5" font-family="Helvetica,sans-Serif" font-size="10.00"> </text>
<polyline fill="none" stroke="black" points="0,-146.5 53,-146.5 "/>
<text text-anchor="middle" x="26.5" y="-134.5" font-family="Helvetica,sans-Serif" font-size="10.00"> </text>
</a>
</g>
</g>
<!-- Node4&#45;&gt;Node3 -->
<g id="edge1" class="edge"><title>Node4&#45;&gt;Node3</title>
<path fill="none" stroke="midnightblue" d="M61.2442,-127.169C61.3295,-127.113 61.4148,-127.056 61.5,-127 87.1522,-110.048 116.473,-93.5335 142.948,-79.5829"/>
<polygon fill="none" stroke="midnightblue" points="59.4248,-124.17 53.2668,-132.791 63.4572,-129.892 59.4248,-124.17"/>
</g>
<!-- Node5 -->
<g id="node3" class="node"><title>Node5</title>
<g id="a_node3"><a xlink:href="class_q_graphics_pixmap_item.html" target="_top" xlink:title="{QGraphicsPixmapItem\n||}">
<polygon fill="white" stroke="black" points="71,-127.5 71,-184.5 186,-184.5 186,-127.5 71,-127.5"/>
<text text-anchor="middle" x="128.5" y="-172.5" font-family="Helvetica,sans-Serif" font-size="10.00">QGraphicsPixmapItem</text>
<polyline fill="none" stroke="black" points="71,-165.5 186,-165.5 "/>
<text text-anchor="middle" x="128.5" y="-153.5" font-family="Helvetica,sans-Serif" font-size="10.00"> </text>
<polyline fill="none" stroke="black" points="71,-146.5 186,-146.5 "/>
<text text-anchor="middle" x="128.5" y="-134.5" font-family="Helvetica,sans-Serif" font-size="10.00"> </text>
</a>
</g>
</g>
<!-- Node5&#45;&gt;Node3 -->
<g id="edge2" class="edge"><title>Node5&#45;&gt;Node3</title>
<path fill="none" stroke="midnightblue" d="M157.575,-119.36C167.894,-106.711 179.552,-92.4207 190.059,-79.5406"/>
<polygon fill="none" stroke="midnightblue" points="154.622,-117.443 151.013,-127.404 160.046,-121.868 154.622,-117.443"/>
</g>
<!-- Node6 -->
<g id="node4" class="node"><title>Node6</title>
<polygon fill="white" stroke="#bfbfbf" points="204,-127.5 204,-184.5 259,-184.5 259,-127.5 204,-127.5"/>
<text text-anchor="middle" x="231.5" y="-172.5" font-family="Helvetica,sans-Serif" font-size="10.00">QTimer *</text>
<polyline fill="none" stroke="#bfbfbf" points="204,-165.5 259,-165.5 "/>
<text text-anchor="middle" x="231.5" y="-153.5" font-family="Helvetica,sans-Serif" font-size="10.00"> </text>
<polyline fill="none" stroke="#bfbfbf" points="204,-146.5 259,-146.5 "/>
<text text-anchor="middle" x="231.5" y="-134.5" font-family="Helvetica,sans-Serif" font-size="10.00"> </text>
</g>
<!-- Node6&#45;&gt;Node3 -->
<g id="edge3" class="edge"><title>Node6&#45;&gt;Node3</title>
<path fill="none" stroke="#404040" d="M225.269,-127.39C224.141,-121.36 223.125,-114.989 222.5,-109 221.926,-103.501 221.529,-97.7383 221.263,-91.9927"/>
<polygon fill="none" stroke="#404040" points="221.249,-91.5443 217.062,-85.6729 220.872,-79.5502 225.058,-85.4216 221.249,-91.5443"/>
<text text-anchor="middle" x="251" y="-101" font-family="Helvetica,sans-Serif" font-size="10.00"> &#45;animTimer_</text>
</g>
<!-- Node7 -->
<g id="node5" class="node"><title>Node7</title>
<polygon fill="white" stroke="#bfbfbf" points="287,-127.5 287,-184.5 316,-184.5 316,-127.5 287,-127.5"/>
<text text-anchor="middle" x="301.5" y="-172.5" font-family="Helvetica,sans-Serif" font-size="10.00">int</text>
<polyline fill="none" stroke="#bfbfbf" points="287,-165.5 316,-165.5 "/>
<text text-anchor="middle" x="301.5" y="-153.5" font-family="Helvetica,sans-Serif" font-size="10.00"> </text>
<polyline fill="none" stroke="#bfbfbf" points="287,-146.5 316,-146.5 "/>
<text text-anchor="middle" x="301.5" y="-134.5" font-family="Helvetica,sans-Serif" font-size="10.00"> </text>
</g>
<!-- Node7&#45;&gt;Node3 -->
<g id="edge4" class="edge"><title>Node7&#45;&gt;Node3</title>
<path fill="none" stroke="#404040" d="M293.54,-127.464C290.047,-117.715 285.382,-106.954 279.5,-98 277.473,-94.9136 275.254,-91.8629 272.904,-88.8727"/>
<polygon fill="none" stroke="#404040" points="272.777,-88.7223 265.848,-86.7239 265.028,-79.5596 271.957,-81.558 272.777,-88.7223"/>
<text text-anchor="middle" x="319.5" y="-101" font-family="Helvetica,sans-Serif" font-size="10.00"> &#45;frameCounter_</text>
</g>
<!-- Node8 -->
<g id="node6" class="node"><title>Node8</title>
<polygon fill="white" stroke="#bfbfbf" points="341,-127.5 341,-184.5 448,-184.5 448,-127.5 341,-127.5"/>
<text text-anchor="middle" x="394.5" y="-172.5" font-family="Helvetica,sans-Serif" font-size="10.00">vector&lt; QPixmap * &gt;</text>
<polyline fill="none" stroke="#bfbfbf" points="341,-165.5 448,-165.5 "/>
<text text-anchor="middle" x="394.5" y="-153.5" font-family="Helvetica,sans-Serif" font-size="10.00"> </text>
<polyline fill="none" stroke="#bfbfbf" points="341,-146.5 448,-146.5 "/>
<text text-anchor="middle" x="394.5" y="-134.5" font-family="Helvetica,sans-Serif" font-size="10.00"> </text>
</g>
<!-- Node8&#45;&gt;Node3 -->
<g id="edge5" class="edge"><title>Node8&#45;&gt;Node3</title>
<path fill="none" stroke="#404040" d="M381.671,-127.465C375.784,-117.148 367.982,-106.001 358.5,-98 345.984,-87.439 331.236,-78.6082 316.136,-71.2996"/>
<polygon fill="none" stroke="#404040" points="316.015,-71.244 308.894,-72.3801 305.106,-66.2438 312.227,-65.1077 316.015,-71.244"/>
<text text-anchor="middle" x="411.5" y="-101" font-family="Helvetica,sans-Serif" font-size="10.00"> &#45;explosionFrames_</text>
</g>
</g>
</svg>
