<?xml version="1.0" encoding="UTF-8" standalone="no"?>
<!DOCTYPE svg PUBLIC "-//W3C//DTD SVG 1.1//EN"
 "http://www.w3.org/Graphics/SVG/1.1/DTD/svg11.dtd">
<!-- Generated by graphviz version 2.38.0 (20140413.2041)
 -->
<!-- Title: View::CityScapeStatusDisplay::getParkingSpaces Pages: 1 -->
<svg width="331pt" height="88pt"
 viewBox="0.00 0.00 331.00 88.00" xmlns="http://www.w3.org/2000/svg" xmlns:xlink="http://www.w3.org/1999/xlink">
<g id="graph0" class="graph" transform="scale(1 1) rotate(0) translate(4 84)">
<title>View::CityScapeStatusDisplay::getParkingSpaces</title>
<polygon fill="white" stroke="none" points="-4,4 -4,-84 327,-84 327,4 -4,4"/>
<!-- Node17 -->
<g id="node1" class="node"><title>Node17</title>
<polygon fill="#bfbfbf" stroke="black" points="0,-24.5 0,-54.5 149,-54.5 149,-24.5 0,-24.5"/>
<text text-anchor="start" x="8" y="-42.5" font-family="Helvetica,sans-Serif" font-size="10.00">View::CityScapeStatusDisplay</text>
<text text-anchor="middle" x="74.5" y="-31.5" font-family="Helvetica,sans-Serif" font-size="10.00">::getParkingSpaces</text>
</g>
<!-- Node18 -->
<g id="node2" class="node"><title>Node18</title>
<g id="a_node2"><a xlink:href="class_view_1_1_city_scape_parking_hall.html#aa9288be58c803803f7aac10798660f31" target="_top" xlink:title="View::CityScapeParkingHall\l::mousePressEvent">
<polygon fill="white" stroke="black" points="185,-49.5 185,-79.5 323,-79.5 323,-49.5 185,-49.5"/>
<text text-anchor="start" x="193" y="-67.5" font-family="Helvetica,sans-Serif" font-size="10.00">View::CityScapeParkingHall</text>
<text text-anchor="middle" x="254" y="-56.5" font-family="Helvetica,sans-Serif" font-size="10.00">::mousePressEvent</text>
</a>
</g>
</g>
<!-- Node17&#45;&gt;Node18 -->
<g id="edge1" class="edge"><title>Node17&#45;&gt;Node18</title>
<path fill="none" stroke="midnightblue" d="M159.267,-51.2981C167.854,-52.5076 176.504,-53.7259 184.893,-54.9075"/>
<polygon fill="midnightblue" stroke="midnightblue" points="159.624,-47.814 149.234,-49.8851 158.648,-54.7456 159.624,-47.814"/>
</g>
<!-- Node19 -->
<g id="node3" class="node"><title>Node19</title>
<g id="a_node3"><a xlink:href="class_view_1_1_city_scape_parking_hall.html#a6d13f347254446383f5972aeb5b01a83" target="_top" xlink:title="View::CityScapeParkingHall\l::updateStatusDisplay">
<polygon fill="white" stroke="black" points="185,-0.5 185,-30.5 323,-30.5 323,-0.5 185,-0.5"/>
<text text-anchor="start" x="193" y="-18.5" font-family="Helvetica,sans-Serif" font-size="10.00">View::CityScapeParkingHall</text>
<text text-anchor="middle" x="254" y="-7.5" font-family="Helvetica,sans-Serif" font-size="10.00">::updateStatusDisplay</text>
</a>
</g>
</g>
<!-- Node17&#45;&gt;Node19 -->
<g id="edge2" class="edge"><title>Node17&#45;&gt;Node19</title>
<path fill="none" stroke="midnightblue" d="M159.267,-28.1738C167.854,-27.0127 176.504,-25.8431 184.893,-24.7088"/>
<polygon fill="midnightblue" stroke="midnightblue" points="158.675,-24.7219 149.234,-29.5303 159.613,-31.6588 158.675,-24.7219"/>
</g>
</g>
</svg>
