<?xml version="1.0" encoding="UTF-8" standalone="no"?>
<!DOCTYPE svg PUBLIC "-//W3C//DTD SVG 1.1//EN"
 "http://www.w3.org/Graphics/SVG/1.1/DTD/svg11.dtd">
<!-- Generated by graphviz version 2.38.0 (20140413.2041)
 -->
<!-- Title: View::ActionSceneNPC::setRunSpeed Pages: 1 -->
<!--zoomable 170 -->
<svg id="main" version="1.1" xmlns="http://www.w3.org/2000/svg" xmlns:xlink="http://www.w3.org/1999/xlink" xml:space="preserve" onload="init(evt)">
<style type="text/css"><![CDATA[
.edge:hover path { stroke: red; }
.edge:hover polygon { stroke: red; fill: red; }
]]></style>
<script type="text/javascript"><![CDATA[
var edges = document.getElementsByTagName('g');
if (edges && edges.length) {
  for (var i=0;i<edges.length;i++) {
    if (edges[i].id.substr(0,4)=='edge') {
      edges[i].setAttribute('class','edge');
    }
  }
}
]]></script>
        <defs>
                <circle id="rim" cx="0" cy="0" r="7"/>
                <circle id="rim2" cx="0" cy="0" r="3.5"/>
                <g id="zoomPlus">
                        <use xlink:href="#rim" fill="#404040">
                                <set attributeName="fill" to="#808080" begin="zoomplus.mouseover" end="zoomplus.mouseout"/>
                        </use>
                        <path d="M-4,0h8M0,-4v8" fill="none" stroke="white" stroke-width="1.5" pointer-events="none"/>
                </g>
                <g id="zoomMin">
                        <use xlink:href="#rim" fill="#404040">
                                <set attributeName="fill" to="#808080" begin="zoomminus.mouseover" end="zoomminus.mouseout"/>
                        </use>
                        <path d="M-4,0h8" fill="none" stroke="white" stroke-width="1.5" pointer-events="none"/>
                </g>
                <g id="dirArrow">
                        <path fill="none" stroke="white" stroke-width="1.5" d="M0,-3.0v7 M-2.5,-0.5L0,-3.0L2.5,-0.5"/>
                </g>
               <g id="resetDef">
                       <use xlink:href="#rim2" fill="#404040">
                               <set attributeName="fill" to="#808080" begin="reset.mouseover" end="reset.mouseout"/>
                       </use>
               </g>
        </defs>

<script type="text/javascript">
var viewWidth = 868;
var viewHeight = 170;
var sectionId = 'dynsection-17';
</script>
<script xlink:href="svgpan.js"/>
<svg id="graph" class="graph">
<g id="viewport">
<title>View::ActionSceneNPC::setRunSpeed</title>
<polygon fill="white" stroke="none" points="-4,4 -4,-166 864,-166 864,4 -4,4"/>
<!-- Node92 -->
<g id="node1" class="node"><title>Node92</title>
<polygon fill="#bfbfbf" stroke="black" points="0,-71.5 0,-101.5 119,-101.5 119,-71.5 0,-71.5"/>
<text text-anchor="start" x="8" y="-89.5" font-family="Helvetica,sans-Serif" font-size="10.00">View::ActionSceneNPC</text>
<text text-anchor="middle" x="59.5" y="-78.5" font-family="Helvetica,sans-Serif" font-size="10.00">::setRunSpeed</text>
</g>
<!-- Node93 -->
<g id="node2" class="node"><title>Node93</title>
<g id="a_node2"><a xlink:href="class_view_1_1_action_scene_n_p_c.html#a63c01e4d67db25532448053814a4a917" target="_top" xlink:title="View::ActionSceneNPC\l::setAIMode">
<polygon fill="white" stroke="black" points="155,-71.5 155,-101.5 274,-101.5 274,-71.5 155,-71.5"/>
<text text-anchor="start" x="163" y="-89.5" font-family="Helvetica,sans-Serif" font-size="10.00">View::ActionSceneNPC</text>
<text text-anchor="middle" x="214.5" y="-78.5" font-family="Helvetica,sans-Serif" font-size="10.00">::setAIMode</text>
</a>
</g>
</g>
<!-- Node92&#45;&gt;Node93 -->
<g id="edge1" class="edge"><title>Node92&#45;&gt;Node93</title>
<path fill="none" stroke="midnightblue" d="M129.493,-86.5C137.993,-86.5 146.617,-86.5 154.941,-86.5"/>
<polygon fill="midnightblue" stroke="midnightblue" points="129.216,-83.0001 119.216,-86.5 129.216,-90.0001 129.216,-83.0001"/>
</g>
<!-- Node94 -->
<g id="node3" class="node"><title>Node94</title>
<g id="a_node3"><a xlink:href="class_view_1_1_action_scene.html#a2406dfeb3e69091ae05e23ef396d08e3" target="_top" xlink:title="View::ActionScene::\lenemyAttacked">
<polygon fill="white" stroke="black" points="473,-131.5 473,-161.5 578,-161.5 578,-131.5 473,-131.5"/>
<text text-anchor="start" x="481" y="-149.5" font-family="Helvetica,sans-Serif" font-size="10.00">View::ActionScene::</text>
<text text-anchor="middle" x="525.5" y="-138.5" font-family="Helvetica,sans-Serif" font-size="10.00">enemyAttacked</text>
</a>
</g>
</g>
<!-- Node93&#45;&gt;Node94 -->
<g id="edge2" class="edge"><title>Node93&#45;&gt;Node94</title>
<path fill="none" stroke="midnightblue" d="M283.992,-101.2C292.739,-103.017 301.575,-104.823 310,-106.5 365.543,-117.555 429.367,-129.339 472.856,-137.231"/>
<polygon fill="midnightblue" stroke="midnightblue" points="284.687,-97.7693 274.182,-99.1499 283.255,-104.621 284.687,-97.7693"/>
</g>
<!-- Node97 -->
<g id="node6" class="node"><title>Node97</title>
<g id="a_node6"><a xlink:href="class_view_1_1_action_scene.html#a03d6bd779731feb9bc256844ec3fb0ae" target="_top" xlink:title="View::ActionScene::\lenemyPatrolled">
<polygon fill="white" stroke="black" points="473,-82.5 473,-112.5 578,-112.5 578,-82.5 473,-82.5"/>
<text text-anchor="start" x="481" y="-100.5" font-family="Helvetica,sans-Serif" font-size="10.00">View::ActionScene::</text>
<text text-anchor="middle" x="525.5" y="-89.5" font-family="Helvetica,sans-Serif" font-size="10.00">enemyPatrolled</text>
</a>
</g>
</g>
<!-- Node93&#45;&gt;Node97 -->
<g id="edge5" class="edge"><title>Node93&#45;&gt;Node97</title>
<path fill="none" stroke="midnightblue" d="M284.36,-88.9513C341.373,-90.9809 421.13,-93.8202 472.801,-95.6596"/>
<polygon fill="midnightblue" stroke="midnightblue" points="284.466,-85.453 274.348,-88.5949 284.217,-92.4486 284.466,-85.453"/>
</g>
<!-- Node98 -->
<g id="node7" class="node"><title>Node98</title>
<g id="a_node7"><a xlink:href="class_view_1_1_action_scene.html#a4d0be71c24a8d12a73a86fb6d917cc51" target="_top" xlink:title="View::ActionScene::\lenemyWandered">
<polygon fill="white" stroke="black" points="321,-49.5 321,-79.5 426,-79.5 426,-49.5 321,-49.5"/>
<text text-anchor="start" x="329" y="-67.5" font-family="Helvetica,sans-Serif" font-size="10.00">View::ActionScene::</text>
<text text-anchor="middle" x="373.5" y="-56.5" font-family="Helvetica,sans-Serif" font-size="10.00">enemyWandered</text>
</a>
</g>
</g>
<!-- Node93&#45;&gt;Node98 -->
<g id="edge7" class="edge"><title>Node93&#45;&gt;Node98</title>
<path fill="none" stroke="midnightblue" d="M284.583,-76.8195C296.816,-75.1055 309.357,-73.348 320.997,-71.717"/>
<polygon fill="midnightblue" stroke="midnightblue" points="283.825,-73.3915 274.408,-78.2454 284.797,-80.3238 283.825,-73.3915"/>
</g>
<!-- Node99 -->
<g id="node8" class="node"><title>Node99</title>
<g id="a_node8"><a xlink:href="class_view_1_1_action_scene.html#a8ecad0a68a274799549da0adce49ea09" target="_top" xlink:title="View::ActionScene::\lupdateEnemyLineOfSight">
<polygon fill="white" stroke="black" points="310,-0.5 310,-30.5 437,-30.5 437,-0.5 310,-0.5"/>
<text text-anchor="start" x="318" y="-18.5" font-family="Helvetica,sans-Serif" font-size="10.00">View::ActionScene::</text>
<text text-anchor="middle" x="373.5" y="-7.5" font-family="Helvetica,sans-Serif" font-size="10.00">updateEnemyLineOfSight</text>
</a>
</g>
</g>
<!-- Node93&#45;&gt;Node99 -->
<g id="edge10" class="edge"><title>Node93&#45;&gt;Node99</title>
<path fill="none" stroke="midnightblue" d="M253.245,-66.7009C270.388,-57.9758 291.034,-47.8354 310,-39.5 316.917,-36.4602 324.35,-33.4168 331.592,-30.5676"/>
<polygon fill="midnightblue" stroke="midnightblue" points="251.417,-63.7051 244.115,-71.3821 254.61,-69.9342 251.417,-63.7051"/>
</g>
<!-- Node95 -->
<g id="node4" class="node"><title>Node95</title>
<g id="a_node4"><a xlink:href="class_view_1_1_action_scene.html#a2da7a8314a9d50cdccf82159f58e5097" target="_top" xlink:title="View::ActionScene::\lspawnEnemy">
<polygon fill="white" stroke="black" points="614,-60.5 614,-90.5 719,-90.5 719,-60.5 614,-60.5"/>
<text text-anchor="start" x="622" y="-78.5" font-family="Helvetica,sans-Serif" font-size="10.00">View::ActionScene::</text>
<text text-anchor="middle" x="666.5" y="-67.5" font-family="Helvetica,sans-Serif" font-size="10.00">spawnEnemy</text>
</a>
</g>
</g>
<!-- Node94&#45;&gt;Node95 -->
<g id="edge3" class="edge"><title>Node94&#45;&gt;Node95</title>
<path fill="none" stroke="midnightblue" d="M567.065,-126.959C570.77,-125.129 574.459,-123.29 578,-121.5 597.912,-111.436 620.165,-99.7312 637.246,-90.6471"/>
<polygon fill="midnightblue" stroke="midnightblue" points="565.335,-123.91 557.899,-131.456 568.418,-130.194 565.335,-123.91"/>
</g>
<!-- Node96 -->
<g id="node5" class="node"><title>Node96</title>
<g id="a_node5"><a xlink:href="class_view_1_1_action_scene.html#af2fabc7baae61ac07ca1a0a5d46814cf" target="_top" xlink:title="View::ActionScene::\laddEnemies">
<polygon fill="white" stroke="black" points="755,-60.5 755,-90.5 860,-90.5 860,-60.5 755,-60.5"/>
<text text-anchor="start" x="763" y="-78.5" font-family="Helvetica,sans-Serif" font-size="10.00">View::ActionScene::</text>
<text text-anchor="middle" x="807.5" y="-67.5" font-family="Helvetica,sans-Serif" font-size="10.00">addEnemies</text>
</a>
</g>
</g>
<!-- Node95&#45;&gt;Node96 -->
<g id="edge4" class="edge"><title>Node95&#45;&gt;Node96</title>
<path fill="none" stroke="midnightblue" d="M729.441,-75.5C737.878,-75.5 746.466,-75.5 754.698,-75.5"/>
<polygon fill="midnightblue" stroke="midnightblue" points="729.259,-72.0001 719.258,-75.5 729.258,-79.0001 729.259,-72.0001"/>
</g>
<!-- Node97&#45;&gt;Node95 -->
<g id="edge6" class="edge"><title>Node97&#45;&gt;Node95</title>
<path fill="none" stroke="midnightblue" d="M588.163,-87.7404C596.69,-86.3909 605.375,-85.0161 613.698,-83.6988"/>
<polygon fill="midnightblue" stroke="midnightblue" points="587.588,-84.2877 578.258,-89.308 588.683,-91.2016 587.588,-84.2877"/>
</g>
<!-- Node98&#45;&gt;Node95 -->
<g id="edge9" class="edge"><title>Node98&#45;&gt;Node95</title>
<path fill="none" stroke="midnightblue" d="M436.436,-66.8412C489.216,-68.8363 564.19,-71.6704 613.803,-73.5458"/>
<polygon fill="midnightblue" stroke="midnightblue" points="436.315,-63.3342 426.19,-66.4539 436.05,-70.3292 436.315,-63.3342"/>
</g>
<!-- Node98&#45;&gt;Node97 -->
<g id="edge8" class="edge"><title>Node98&#45;&gt;Node97</title>
<path fill="none" stroke="midnightblue" d="M436.193,-78.0724C448.352,-80.7475 460.994,-83.5286 472.783,-86.1223"/>
<polygon fill="midnightblue" stroke="midnightblue" points="436.64,-74.5872 426.121,-75.8567 435.136,-81.4237 436.64,-74.5872"/>
</g>
<!-- Node99&#45;&gt;Node95 -->
<g id="edge11" class="edge"><title>Node99&#45;&gt;Node95</title>
<path fill="none" stroke="midnightblue" d="M447.104,-30.4698C499.018,-41.1739 567.628,-55.3201 613.986,-64.8785"/>
<polygon fill="midnightblue" stroke="midnightblue" points="447.785,-27.0368 437.284,-28.4452 446.372,-33.8926 447.785,-27.0368"/>
</g>
</g>
</svg>
        <g id="navigator" transform="translate(0 0)" fill="#404254">
                <rect fill="#f2f5e9" fill-opacity="0.5" stroke="#606060" stroke-width=".5" x="0" y="0" width="60" height="60"/>
                <use id="zoomplus" xlink:href="#zoomPlus" x="17" y="9" onmousedown="handleZoom(evt,'in')"/>
                <use id="zoomminus" xlink:href="#zoomMin" x="42" y="9" onmousedown="handleZoom(evt,'out')"/>
                <use id="reset" xlink:href="#resetDef" x="30" y="36" onmousedown="handleReset()"/>
                <g id="arrowUp" xlink:href="#dirArrow" transform="translate(30 24)" onmousedown="handlePan(0,-1)">
                  <use xlink:href="#rim" fill="#404040">
                        <set attributeName="fill" to="#808080" begin="arrowUp.mouseover" end="arrowUp.mouseout"/>
                  </use>
                  <path fill="none" stroke="white" stroke-width="1.5" d="M0,-3.0v7 M-2.5,-0.5L0,-3.0L2.5,-0.5"/>
                </g>
                <g id="arrowRight" xlink:href="#dirArrow" transform="rotate(90) translate(36 -43)" onmousedown="handlePan(1,0)">
                  <use xlink:href="#rim" fill="#404040">
                        <set attributeName="fill" to="#808080" begin="arrowRight.mouseover" end="arrowRight.mouseout"/>
                  </use>
                  <path fill="none" stroke="white" stroke-width="1.5" d="M0,-3.0v7 M-2.5,-0.5L0,-3.0L2.5,-0.5"/>
                </g>
                <g id="arrowDown" xlink:href="#dirArrow" transform="rotate(180) translate(-30 -48)" onmousedown="handlePan(0,1)">
                  <use xlink:href="#rim" fill="#404040">
                        <set attributeName="fill" to="#808080" begin="arrowDown.mouseover" end="arrowDown.mouseout"/>
                  </use>
                  <path fill="none" stroke="white" stroke-width="1.5" d="M0,-3.0v7 M-2.5,-0.5L0,-3.0L2.5,-0.5"/>
                </g>
                <g id="arrowLeft" xlink:href="#dirArrow" transform="rotate(270) translate(-36 17)" onmousedown="handlePan(-1,0)">
                  <use xlink:href="#rim" fill="#404040">
                        <set attributeName="fill" to="#808080" begin="arrowLeft.mouseover" end="arrowLeft.mouseout"/>
                  </use>
                  <path fill="none" stroke="white" stroke-width="1.5" d="M0,-3.0v7 M-2.5,-0.5L0,-3.0L2.5,-0.5"/>
                </g>
        </g>
        <svg viewBox="0 0 15 15" width="100%" height="30px" preserveAspectRatio="xMaxYMin meet">
         <g id="arrow_out" transform="scale(0.3 0.3)">
          <a xlink:href="class_view_1_1_action_scene_n_p_c_a32b28c35cccc25fa39d60462235776f3_icgraph_org.svg" target="_base">
           <rect id="button" ry="5" rx="5" y="6" x="6" height="38" width="38"
                fill="#f2f5e9" fill-opacity="0.5" stroke="#606060" stroke-width="1.0"/>
           <path id="arrow"
             d="M 11.500037,31.436501 C 11.940474,20.09759 22.043105,11.32322 32.158766,21.979434 L 37.068811,17.246167 C 37.068811,17.246167 37.088388,32 37.088388,32 L 22.160133,31.978069 C 22.160133,31.978069 26.997745,27.140456 26.997745,27.140456 C 18.528582,18.264221 13.291696,25.230495 11.500037,31.436501 z"
             style="fill:#404040;"/>
          </a>
         </g>
        </svg>
</svg>
