<?xml version="1.0" encoding="UTF-8" standalone="no"?>
<!DOCTYPE svg PUBLIC "-//W3C//DTD SVG 1.1//EN"
 "http://www.w3.org/Graphics/SVG/1.1/DTD/svg11.dtd">
<!-- Generated by graphviz version 2.38.0 (20140413.2041)
 -->
<!-- Title: View::ActionSceneFeet Pages: 1 -->
<svg width="414pt" height="331pt"
 viewBox="0.00 0.00 413.50 331.00" xmlns="http://www.w3.org/2000/svg" xmlns:xlink="http://www.w3.org/1999/xlink">
<g id="graph0" class="graph" transform="scale(1 1) rotate(0) translate(4 327)">
<title>View::ActionSceneFeet</title>
<polygon fill="white" stroke="none" points="-4,4 -4,-327 409.5,-327 409.5,4 -4,4"/>
<!-- Node2 -->
<g id="node1" class="node"><title>Node2</title>
<polygon fill="#bfbfbf" stroke="black" points="183,-0.5 183,-101.5 302,-101.5 302,-0.5 183,-0.5"/>
<text text-anchor="middle" x="242.5" y="-89.5" font-family="Helvetica,sans-Serif" font-size="10.00">View::ActionSceneFeet</text>
<polyline fill="none" stroke="black" points="183,-82.5 302,-82.5 "/>
<text text-anchor="middle" x="242.5" y="-70.5" font-family="Helvetica,sans-Serif" font-size="10.00"> </text>
<polyline fill="none" stroke="black" points="183,-63.5 302,-63.5 "/>
<text text-anchor="start" x="191" y="-51.5" font-family="Helvetica,sans-Serif" font-size="10.00">+ ActionSceneFeet()</text>
<text text-anchor="start" x="191" y="-40.5" font-family="Helvetica,sans-Serif" font-size="10.00">+ ~ActionSceneFeet()</text>
<text text-anchor="start" x="191" y="-29.5" font-family="Helvetica,sans-Serif" font-size="10.00">+ setPosition()</text>
<text text-anchor="start" x="191" y="-18.5" font-family="Helvetica,sans-Serif" font-size="10.00">+ setRunning()</text>
<text text-anchor="start" x="191" y="-7.5" font-family="Helvetica,sans-Serif" font-size="10.00">+ nextFrame()</text>
</g>
<!-- Node3 -->
<g id="node2" class="node"><title>Node3</title>
<g id="a_node2"><a xlink:href="class_q_graphics_pixmap_item.html" target="_top" xlink:title="{QGraphicsPixmapItem\n||}">
<polygon fill="white" stroke="black" points="0,-160.5 0,-217.5 115,-217.5 115,-160.5 0,-160.5"/>
<text text-anchor="middle" x="57.5" y="-205.5" font-family="Helvetica,sans-Serif" font-size="10.00">QGraphicsPixmapItem</text>
<polyline fill="none" stroke="black" points="0,-198.5 115,-198.5 "/>
<text text-anchor="middle" x="57.5" y="-186.5" font-family="Helvetica,sans-Serif" font-size="10.00"> </text>
<polyline fill="none" stroke="black" points="0,-179.5 115,-179.5 "/>
<text text-anchor="middle" x="57.5" y="-167.5" font-family="Helvetica,sans-Serif" font-size="10.00"> </text>
</a>
</g>
</g>
<!-- Node3&#45;&gt;Node2 -->
<g id="edge1" class="edge"><title>Node3&#45;&gt;Node2</title>
<path fill="none" stroke="midnightblue" d="M103.193,-154.41C127.252,-136.722 157.049,-114.818 182.903,-95.8121"/>
<polygon fill="none" stroke="midnightblue" points="100.922,-151.735 94.9375,-160.478 105.068,-157.375 100.922,-151.735"/>
</g>
<!-- Node4 -->
<g id="node3" class="node"><title>Node4</title>
<polygon fill="white" stroke="#bfbfbf" points="133.5,-160.5 133.5,-217.5 257.5,-217.5 257.5,-160.5 133.5,-160.5"/>
<text text-anchor="middle" x="195.5" y="-205.5" font-family="Helvetica,sans-Serif" font-size="10.00">std::vector&lt; QPixmap *&gt;</text>
<polyline fill="none" stroke="#bfbfbf" points="133.5,-198.5 257.5,-198.5 "/>
<text text-anchor="middle" x="195.5" y="-186.5" font-family="Helvetica,sans-Serif" font-size="10.00"> </text>
<polyline fill="none" stroke="#bfbfbf" points="133.5,-179.5 257.5,-179.5 "/>
<text text-anchor="middle" x="195.5" y="-167.5" font-family="Helvetica,sans-Serif" font-size="10.00"> </text>
</g>
<!-- Node4&#45;&gt;Node2 -->
<g id="edge2" class="edge"><title>Node4&#45;&gt;Node2</title>
<path fill="none" stroke="#404040" d="M196.787,-160.337C197.969,-147.778 200.222,-132.884 204.5,-120 205.299,-117.593 206.185,-115.175 207.141,-112.758"/>
<polygon fill="none" stroke="#404040" points="207.246,-112.517 205.988,-105.416 212.058,-101.524 213.317,-108.624 207.246,-112.517"/>
<text text-anchor="middle" x="235" y="-134" font-family="Helvetica,sans-Serif" font-size="10.00"> &#45;runFrames_</text>
<text text-anchor="middle" x="235" y="-123" font-family="Helvetica,sans-Serif" font-size="10.00">&#45;walkFrames_</text>
</g>
<!-- Node5 -->
<g id="node4" class="node"><title>Node5</title>
<polygon fill="white" stroke="#bfbfbf" points="163.5,-265.5 163.5,-322.5 227.5,-322.5 227.5,-265.5 163.5,-265.5"/>
<text text-anchor="middle" x="195.5" y="-310.5" font-family="Helvetica,sans-Serif" font-size="10.00">QPixmap *</text>
<polyline fill="none" stroke="#bfbfbf" points="163.5,-303.5 227.5,-303.5 "/>
<text text-anchor="middle" x="195.5" y="-291.5" font-family="Helvetica,sans-Serif" font-size="10.00"> </text>
<polyline fill="none" stroke="#bfbfbf" points="163.5,-284.5 227.5,-284.5 "/>
<text text-anchor="middle" x="195.5" y="-272.5" font-family="Helvetica,sans-Serif" font-size="10.00"> </text>
</g>
<!-- Node5&#45;&gt;Node4 -->
<g id="edge3" class="edge"><title>Node5&#45;&gt;Node4</title>
<path fill="none" stroke="#404040" d="M195.5,-265.398C195.5,-254.545 195.5,-241.873 195.5,-230.049"/>
<polygon fill="none" stroke="#404040" points="195.5,-229.678 191.5,-223.678 195.5,-217.678 199.5,-223.678 195.5,-229.678"/>
<text text-anchor="middle" x="220" y="-239" font-family="Helvetica,sans-Serif" font-size="10.00"> +elements</text>
</g>
<!-- Node6 -->
<g id="node5" class="node"><title>Node6</title>
<polygon fill="white" stroke="#bfbfbf" points="276,-160.5 276,-217.5 305,-217.5 305,-160.5 276,-160.5"/>
<text text-anchor="middle" x="290.5" y="-205.5" font-family="Helvetica,sans-Serif" font-size="10.00">int</text>
<polyline fill="none" stroke="#bfbfbf" points="276,-198.5 305,-198.5 "/>
<text text-anchor="middle" x="290.5" y="-186.5" font-family="Helvetica,sans-Serif" font-size="10.00"> </text>
<polyline fill="none" stroke="#bfbfbf" points="276,-179.5 305,-179.5 "/>
<text text-anchor="middle" x="290.5" y="-167.5" font-family="Helvetica,sans-Serif" font-size="10.00"> </text>
</g>
<!-- Node6&#45;&gt;Node2 -->
<g id="edge4" class="edge"><title>Node6&#45;&gt;Node2</title>
<path fill="none" stroke="#404040" d="M280.786,-160.478C275.957,-146.794 269.913,-129.67 264.064,-113.099"/>
<polygon fill="none" stroke="#404040" points="264.058,-113.08 258.289,-108.753 260.064,-101.764 265.833,-106.09 264.058,-113.08"/>
<text text-anchor="middle" x="309.5" y="-128.5" font-family="Helvetica,sans-Serif" font-size="10.00"> &#45;frameCounter_</text>
</g>
<!-- Node7 -->
<g id="node6" class="node"><title>Node7</title>
<polygon fill="white" stroke="#bfbfbf" points="363,-160.5 363,-217.5 398,-217.5 398,-160.5 363,-160.5"/>
<text text-anchor="middle" x="380.5" y="-205.5" font-family="Helvetica,sans-Serif" font-size="10.00">bool</text>
<polyline fill="none" stroke="#bfbfbf" points="363,-198.5 398,-198.5 "/>
<text text-anchor="middle" x="380.5" y="-186.5" font-family="Helvetica,sans-Serif" font-size="10.00"> </text>
<polyline fill="none" stroke="#bfbfbf" points="363,-179.5 398,-179.5 "/>
<text text-anchor="middle" x="380.5" y="-167.5" font-family="Helvetica,sans-Serif" font-size="10.00"> </text>
</g>
<!-- Node7&#45;&gt;Node2 -->
<g id="edge5" class="edge"><title>Node7&#45;&gt;Node2</title>
<path fill="none" stroke="#404040" d="M371.613,-160.448C366.374,-147.186 358.739,-131.672 348.5,-120 338.159,-108.213 325.293,-97.6927 312.128,-88.6553"/>
<polygon fill="none" stroke="#404040" points="312.073,-88.6192 304.862,-88.6726 302.039,-82.0369 309.25,-81.9835 312.073,-88.6192"/>
<text text-anchor="middle" x="384" y="-128.5" font-family="Helvetica,sans-Serif" font-size="10.00"> &#45;running_</text>
</g>
</g>
</svg>
