<?xml version="1.0" encoding="UTF-8" standalone="no"?>
<!DOCTYPE svg PUBLIC "-//W3C//DTD SVG 1.1//EN"
 "http://www.w3.org/Graphics/SVG/1.1/DTD/svg11.dtd">
<!-- Generated by graphviz version 2.38.0 (20140413.2041)
 -->
<!-- Title: Interface::ViewInterface::initMap Pages: 1 -->
<svg width="340pt" height="39pt"
 viewBox="0.00 0.00 340.00 39.00" xmlns="http://www.w3.org/2000/svg" xmlns:xlink="http://www.w3.org/1999/xlink">
<g id="graph0" class="graph" transform="scale(1 1) rotate(0) translate(4 35)">
<title>Interface::ViewInterface::initMap</title>
<polygon fill="white" stroke="none" points="-4,4 -4,-35 336,-35 336,4 -4,4"/>
<!-- Node7 -->
<g id="node1" class="node"><title>Node7</title>
<polygon fill="#bfbfbf" stroke="black" points="0,-0.5 0,-30.5 117,-30.5 117,-0.5 0,-0.5"/>
<text text-anchor="start" x="8" y="-18.5" font-family="Helvetica,sans-Serif" font-size="10.00">Interface::ViewInterface</text>
<text text-anchor="middle" x="58.5" y="-7.5" font-family="Helvetica,sans-Serif" font-size="10.00">::initMap</text>
</g>
<!-- Node8 -->
<g id="node2" class="node"><title>Node8</title>
<g id="a_node2"><a xlink:href="class_controller_1_1_controller.html#a656923ae2095c6e646b5a46495a05179" target="_top" xlink:title="Alustaa näkymän. ">
<polygon fill="white" stroke="black" points="153,-0.5 153,-30.5 258,-30.5 258,-0.5 153,-0.5"/>
<text text-anchor="start" x="161" y="-18.5" font-family="Helvetica,sans-Serif" font-size="10.00">Controller::Controller</text>
<text text-anchor="middle" x="205.5" y="-7.5" font-family="Helvetica,sans-Serif" font-size="10.00">::startNewGame</text>
</a>
</g>
</g>
<!-- Node7&#45;&gt;Node8 -->
<g id="edge1" class="edge"><title>Node7&#45;&gt;Node8</title>
<path fill="none" stroke="midnightblue" d="M127.464,-15.5C135.917,-15.5 144.453,-15.5 152.609,-15.5"/>
<polygon fill="midnightblue" stroke="midnightblue" points="127.225,-12.0001 117.224,-15.5 127.224,-19.0001 127.225,-12.0001"/>
</g>
<!-- Node9 -->
<g id="node3" class="node"><title>Node9</title>
<g id="a_node3"><a xlink:href="main_8cc.html#a0ddf1224851353fc92bfbff6f499fa97" target="_top" xlink:title="main">
<polygon fill="white" stroke="black" points="294,-6 294,-25 332,-25 332,-6 294,-6"/>
<text text-anchor="middle" x="313" y="-13" font-family="Helvetica,sans-Serif" font-size="10.00">main</text>
</a>
</g>
</g>
<!-- Node8&#45;&gt;Node9 -->
<g id="edge2" class="edge"><title>Node8&#45;&gt;Node9</title>
<path fill="none" stroke="midnightblue" d="M268.148,-15.5C277.404,-15.5 286.283,-15.5 293.601,-15.5"/>
<polygon fill="midnightblue" stroke="midnightblue" points="268.014,-12.0001 258.014,-15.5 268.014,-19.0001 268.014,-12.0001"/>
</g>
</g>
</svg>
