<?xml version="1.0" encoding="UTF-8" standalone="no"?>
<!DOCTYPE svg PUBLIC "-//W3C//DTD SVG 1.1//EN"
 "http://www.w3.org/Graphics/SVG/1.1/DTD/svg11.dtd">
<!-- Generated by graphviz version 2.38.0 (20140413.2041)
 -->
<!-- Title: Model::CyberTeekkari::getWeapon Pages: 1 -->
<svg width="298pt" height="78pt"
 viewBox="0.00 0.00 298.00 77.50" xmlns="http://www.w3.org/2000/svg" xmlns:xlink="http://www.w3.org/1999/xlink">
<g id="graph0" class="graph" transform="scale(1 1) rotate(0) translate(4 73.5)">
<title>Model::CyberTeekkari::getWeapon</title>
<polygon fill="white" stroke="none" points="-4,4 -4,-73.5 294,-73.5 294,4 -4,4"/>
<!-- Node27 -->
<g id="node1" class="node"><title>Node27</title>
<polygon fill="#bfbfbf" stroke="black" points="0,-17 0,-47 111,-47 111,-17 0,-17"/>
<text text-anchor="start" x="8" y="-35" font-family="Helvetica,sans-Serif" font-size="10.00">Model::CyberTeekkari</text>
<text text-anchor="middle" x="55.5" y="-24" font-family="Helvetica,sans-Serif" font-size="10.00">::getWeapon</text>
</g>
<!-- Node28 -->
<g id="node2" class="node"><title>Node28</title>
<g id="a_node2"><a xlink:href="class_model_1_1_cyber_teekkari.html#a70a056a65de5a36e565fbd4c834b2414" target="_top" xlink:title="getStat palauttaa arvon halutusta aseen statista ja mukana on myos parannuksien vaikutus. ">
<polygon fill="white" stroke="black" points="163,-39 163,-69 274,-69 274,-39 163,-39"/>
<text text-anchor="start" x="171" y="-57" font-family="Helvetica,sans-Serif" font-size="10.00">Model::CyberTeekkari</text>
<text text-anchor="middle" x="218.5" y="-46" font-family="Helvetica,sans-Serif" font-size="10.00">::getStat</text>
</a>
</g>
</g>
<!-- Node27&#45;&gt;Node28 -->
<g id="edge1" class="edge"><title>Node27&#45;&gt;Node28</title>
<path fill="none" stroke="midnightblue" d="M120.955,-40.8076C134.812,-42.701 149.33,-44.6848 162.775,-46.5221"/>
<polygon fill="midnightblue" stroke="midnightblue" points="121.389,-37.3344 111.007,-39.4482 120.441,-44.2699 121.389,-37.3344"/>
</g>
<!-- Node29 -->
<g id="node3" class="node"><title>Node29</title>
<g id="a_node3"><a xlink:href="class_model_1_1_model.html#aad175b8da07e96f096661ed7419d4890" target="_top" xlink:title="sellEquipment myy tavaran joko pelaajalta tai cyberteekkarilta. Vain aseet kelpaavat myytäväksi...">
<polygon fill="white" stroke="black" points="147,-0.5 147,-19.5 290,-19.5 290,-0.5 147,-0.5"/>
<text text-anchor="middle" x="218.5" y="-7.5" font-family="Helvetica,sans-Serif" font-size="10.00">Model::Model::sellEquipment</text>
</a>
</g>
</g>
<!-- Node27&#45;&gt;Node29 -->
<g id="edge2" class="edge"><title>Node27&#45;&gt;Node29</title>
<path fill="none" stroke="midnightblue" d="M121.187,-23.1608C129.984,-21.9587 139.043,-20.7208 147.922,-19.5076"/>
<polygon fill="midnightblue" stroke="midnightblue" points="120.441,-19.7301 111.007,-24.5518 121.389,-26.6656 120.441,-19.7301"/>
</g>
</g>
</svg>
