<?xml version="1.0" encoding="UTF-8" standalone="no"?>
<!DOCTYPE svg PUBLIC "-//W3C//DTD SVG 1.1//EN"
 "http://www.w3.org/Graphics/SVG/1.1/DTD/svg11.dtd">
<!-- Generated by graphviz version 2.38.0 (20140413.2041)
 -->
<!-- Title: View::ActionScenePC::obstacleHit Pages: 1 -->
<svg width="569pt" height="39pt"
 viewBox="0.00 0.00 569.00 39.00" xmlns="http://www.w3.org/2000/svg" xmlns:xlink="http://www.w3.org/1999/xlink">
<g id="graph0" class="graph" transform="scale(1 1) rotate(0) translate(4 35)">
<title>View::ActionScenePC::obstacleHit</title>
<polygon fill="white" stroke="none" points="-4,4 -4,-35 565,-35 565,4 -4,4"/>
<!-- Node50 -->
<g id="node1" class="node"><title>Node50</title>
<polygon fill="#bfbfbf" stroke="black" points="0,-0.5 0,-30.5 113,-30.5 113,-0.5 0,-0.5"/>
<text text-anchor="start" x="8" y="-18.5" font-family="Helvetica,sans-Serif" font-size="10.00">View::ActionScenePC</text>
<text text-anchor="middle" x="56.5" y="-7.5" font-family="Helvetica,sans-Serif" font-size="10.00">::obstacleHit</text>
</g>
<!-- Node51 -->
<g id="node2" class="node"><title>Node51</title>
<g id="a_node2"><a xlink:href="class_view_1_1_action_scene.html#af1d81cee559dc8f92ab1be0128d87dbb" target="_top" xlink:title="View::ActionScene::\lcheckBlockedDirection">
<polygon fill="white" stroke="black" points="149,-0.5 149,-30.5 265,-30.5 265,-0.5 149,-0.5"/>
<text text-anchor="start" x="157" y="-18.5" font-family="Helvetica,sans-Serif" font-size="10.00">View::ActionScene::</text>
<text text-anchor="middle" x="207" y="-7.5" font-family="Helvetica,sans-Serif" font-size="10.00">checkBlockedDirection</text>
</a>
</g>
</g>
<!-- Node50&#45;&gt;Node51 -->
<g id="edge1" class="edge"><title>Node50&#45;&gt;Node51</title>
<path fill="none" stroke="midnightblue" d="M123.486,-15.5C131.989,-15.5 140.638,-15.5 148.979,-15.5"/>
<polygon fill="midnightblue" stroke="midnightblue" points="123.218,-12.0001 113.218,-15.5 123.218,-19.0001 123.218,-12.0001"/>
</g>
<!-- Node52 -->
<g id="node3" class="node"><title>Node52</title>
<g id="a_node3"><a xlink:href="class_view_1_1_action_scene.html#ade23dfff3a399dba0e13815023a7735a" target="_top" xlink:title="View::ActionScene::\lcheckWalkingIntoWalls">
<polygon fill="white" stroke="black" points="301,-0.5 301,-30.5 420,-30.5 420,-0.5 301,-0.5"/>
<text text-anchor="start" x="309" y="-18.5" font-family="Helvetica,sans-Serif" font-size="10.00">View::ActionScene::</text>
<text text-anchor="middle" x="360.5" y="-7.5" font-family="Helvetica,sans-Serif" font-size="10.00">checkWalkingIntoWalls</text>
</a>
</g>
</g>
<!-- Node51&#45;&gt;Node52 -->
<g id="edge2" class="edge"><title>Node51&#45;&gt;Node52</title>
<path fill="none" stroke="midnightblue" d="M275.503,-15.5C283.967,-15.5 292.571,-15.5 300.884,-15.5"/>
<polygon fill="midnightblue" stroke="midnightblue" points="275.276,-12.0001 265.276,-15.5 275.276,-19.0001 275.276,-12.0001"/>
</g>
<!-- Node53 -->
<g id="node4" class="node"><title>Node53</title>
<g id="a_node4"><a xlink:href="class_view_1_1_action_scene.html#ade415911403812f06b29a9e1933ea678" target="_top" xlink:title="View::ActionScene::\lActionScene">
<polygon fill="white" stroke="black" points="456,-0.5 456,-30.5 561,-30.5 561,-0.5 456,-0.5"/>
<text text-anchor="start" x="464" y="-18.5" font-family="Helvetica,sans-Serif" font-size="10.00">View::ActionScene::</text>
<text text-anchor="middle" x="508.5" y="-7.5" font-family="Helvetica,sans-Serif" font-size="10.00">ActionScene</text>
</a>
</g>
</g>
<!-- Node52&#45;&gt;Node53 -->
<g id="edge3" class="edge"><title>Node52&#45;&gt;Node53</title>
<path fill="none" stroke="midnightblue" d="M430.044,-15.5C438.62,-15.5 447.279,-15.5 455.544,-15.5"/>
<polygon fill="midnightblue" stroke="midnightblue" points="430.043,-12.0001 420.043,-15.5 430.043,-19.0001 430.043,-12.0001"/>
</g>
</g>
</svg>
