<?xml version="1.0" encoding="UTF-8" standalone="no"?>
<!DOCTYPE svg PUBLIC "-//W3C//DTD SVG 1.1//EN"
 "http://www.w3.org/Graphics/SVG/1.1/DTD/svg11.dtd">
<!-- Generated by graphviz version 2.38.0 (20140413.2041)
 -->
<!-- Title: View::ViewSideDisplayManager::missionStartActorSelection Pages: 1 -->
<svg width="732pt" height="39pt"
 viewBox="0.00 0.00 732.00 39.00" xmlns="http://www.w3.org/2000/svg" xmlns:xlink="http://www.w3.org/1999/xlink">
<g id="graph0" class="graph" transform="scale(1 1) rotate(0) translate(4 35)">
<title>View::ViewSideDisplayManager::missionStartActorSelection</title>
<polygon fill="white" stroke="none" points="-4,4 -4,-35 728,-35 728,4 -4,4"/>
<!-- Node58 -->
<g id="node1" class="node"><title>Node58</title>
<polygon fill="#bfbfbf" stroke="black" points="0,-0.5 0,-30.5 154,-30.5 154,-0.5 0,-0.5"/>
<text text-anchor="start" x="8" y="-18.5" font-family="Helvetica,sans-Serif" font-size="10.00">View::ViewSideDisplayManager</text>
<text text-anchor="middle" x="77" y="-7.5" font-family="Helvetica,sans-Serif" font-size="10.00">::missionStartActorSelection</text>
</g>
<!-- Node59 -->
<g id="node2" class="node"><title>Node59</title>
<g id="a_node2"><a xlink:href="class_view_1_1_view_side_display_manager.html#af8744ac5c83cd4bd7a085c68f3ed8bd1" target="_top" xlink:title="View::ViewSideDisplayManager\l::changeSelectedActor">
<polygon fill="white" stroke="black" points="190,-0.5 190,-30.5 344,-30.5 344,-0.5 190,-0.5"/>
<text text-anchor="start" x="198" y="-18.5" font-family="Helvetica,sans-Serif" font-size="10.00">View::ViewSideDisplayManager</text>
<text text-anchor="middle" x="267" y="-7.5" font-family="Helvetica,sans-Serif" font-size="10.00">::changeSelectedActor</text>
</a>
</g>
</g>
<!-- Node58&#45;&gt;Node59 -->
<g id="edge1" class="edge"><title>Node58&#45;&gt;Node59</title>
<path fill="none" stroke="midnightblue" d="M154.196,-15.5C162.517,-15.5 171.032,-15.5 179.466,-15.5"/>
<polygon fill="midnightblue" stroke="midnightblue" points="179.696,-19.0001 189.696,-15.5 179.696,-12.0001 179.696,-19.0001"/>
</g>
<!-- Node60 -->
<g id="node3" class="node"><title>Node60</title>
<g id="a_node3"><a xlink:href="class_view_1_1_view_side_display_manager.html#a03bec5a21a27ffb9d4252fd304b003e8" target="_top" xlink:title="View::ViewSideDisplayManager\l::getDisplay">
<polygon fill="white" stroke="black" points="380,-0.5 380,-30.5 534,-30.5 534,-0.5 380,-0.5"/>
<text text-anchor="start" x="388" y="-18.5" font-family="Helvetica,sans-Serif" font-size="10.00">View::ViewSideDisplayManager</text>
<text text-anchor="middle" x="457" y="-7.5" font-family="Helvetica,sans-Serif" font-size="10.00">::getDisplay</text>
</a>
</g>
</g>
<!-- Node59&#45;&gt;Node60 -->
<g id="edge2" class="edge"><title>Node59&#45;&gt;Node60</title>
<path fill="none" stroke="midnightblue" d="M344.196,-15.5C352.517,-15.5 361.032,-15.5 369.466,-15.5"/>
<polygon fill="midnightblue" stroke="midnightblue" points="369.696,-19.0001 379.696,-15.5 369.696,-12.0001 369.696,-19.0001"/>
</g>
<!-- Node61 -->
<g id="node4" class="node"><title>Node61</title>
<g id="a_node4"><a xlink:href="class_view_1_1_view_side_display_manager.html#abca30c6d51d72600c52da502dcd61093" target="_top" xlink:title="View::ViewSideDisplayManager\l::getIndex">
<polygon fill="white" stroke="black" points="570,-0.5 570,-30.5 724,-30.5 724,-0.5 570,-0.5"/>
<text text-anchor="start" x="578" y="-18.5" font-family="Helvetica,sans-Serif" font-size="10.00">View::ViewSideDisplayManager</text>
<text text-anchor="middle" x="647" y="-7.5" font-family="Helvetica,sans-Serif" font-size="10.00">::getIndex</text>
</a>
</g>
</g>
<!-- Node60&#45;&gt;Node61 -->
<g id="edge3" class="edge"><title>Node60&#45;&gt;Node61</title>
<path fill="none" stroke="midnightblue" d="M534.196,-15.5C542.517,-15.5 551.032,-15.5 559.466,-15.5"/>
<polygon fill="midnightblue" stroke="midnightblue" points="559.696,-19.0001 569.696,-15.5 559.696,-12.0001 559.696,-19.0001"/>
</g>
</g>
</svg>
