<?xml version="1.0" encoding="UTF-8" standalone="no"?>
<!DOCTYPE svg PUBLIC "-//W3C//DTD SVG 1.1//EN"
 "http://www.w3.org/Graphics/SVG/1.1/DTD/svg11.dtd">
<!-- Generated by graphviz version 2.38.0 (20140413.2041)
 -->
<!-- Title: View::ViewSideDisplayManager::getDisplay Pages: 1 -->
<svg width="542pt" height="137pt"
 viewBox="0.00 0.00 542.00 137.00" xmlns="http://www.w3.org/2000/svg" xmlns:xlink="http://www.w3.org/1999/xlink">
<g id="graph0" class="graph" transform="scale(1 1) rotate(0) translate(4 133)">
<title>View::ViewSideDisplayManager::getDisplay</title>
<polygon fill="white" stroke="none" points="-4,4 -4,-133 538,-133 538,4 -4,4"/>
<!-- Node15 -->
<g id="node1" class="node"><title>Node15</title>
<polygon fill="#bfbfbf" stroke="black" points="0,-48.5 0,-78.5 154,-78.5 154,-48.5 0,-48.5"/>
<text text-anchor="start" x="8" y="-66.5" font-family="Helvetica,sans-Serif" font-size="10.00">View::ViewSideDisplayManager</text>
<text text-anchor="middle" x="77" y="-55.5" font-family="Helvetica,sans-Serif" font-size="10.00">::getDisplay</text>
</g>
<!-- Node16 -->
<g id="node2" class="node"><title>Node16</title>
<g id="a_node2"><a xlink:href="class_view_1_1_view_side_display_manager.html#af8744ac5c83cd4bd7a085c68f3ed8bd1" target="_top" xlink:title="View::ViewSideDisplayManager\l::changeSelectedActor">
<polygon fill="white" stroke="black" points="190,-73.5 190,-103.5 344,-103.5 344,-73.5 190,-73.5"/>
<text text-anchor="start" x="198" y="-91.5" font-family="Helvetica,sans-Serif" font-size="10.00">View::ViewSideDisplayManager</text>
<text text-anchor="middle" x="267" y="-80.5" font-family="Helvetica,sans-Serif" font-size="10.00">::changeSelectedActor</text>
</a>
</g>
</g>
<!-- Node15&#45;&gt;Node16 -->
<g id="edge1" class="edge"><title>Node15&#45;&gt;Node16</title>
<path fill="none" stroke="midnightblue" d="M164.146,-74.9555C172.67,-76.0891 181.281,-77.2342 189.696,-78.3532"/>
<polygon fill="midnightblue" stroke="midnightblue" points="164.57,-71.4812 154.196,-73.6324 163.647,-78.4201 164.57,-71.4812"/>
</g>
<!-- Node19 -->
<g id="node5" class="node"><title>Node19</title>
<g id="a_node5"><a xlink:href="class_view_1_1_view_side_display_manager.html#a5cb0bcdc7216d8bbb5e1e07a2f229048" target="_top" xlink:title="View::ViewSideDisplayManager\l::setSelectedWeapon">
<polygon fill="white" stroke="black" points="190,-24.5 190,-54.5 344,-54.5 344,-24.5 190,-24.5"/>
<text text-anchor="start" x="198" y="-42.5" font-family="Helvetica,sans-Serif" font-size="10.00">View::ViewSideDisplayManager</text>
<text text-anchor="middle" x="267" y="-31.5" font-family="Helvetica,sans-Serif" font-size="10.00">::setSelectedWeapon</text>
</a>
</g>
</g>
<!-- Node15&#45;&gt;Node19 -->
<g id="edge4" class="edge"><title>Node15&#45;&gt;Node19</title>
<path fill="none" stroke="midnightblue" d="M164.146,-52.5027C172.67,-51.4145 181.281,-50.3152 189.696,-49.241"/>
<polygon fill="midnightblue" stroke="midnightblue" points="163.672,-49.0346 154.196,-53.7729 164.559,-55.9783 163.672,-49.0346"/>
</g>
<!-- Node17 -->
<g id="node3" class="node"><title>Node17</title>
<g id="a_node3"><a xlink:href="class_view_1_1_view_side_display_manager.html#a0399212235e7ef837918e2c34c03265f" target="_top" xlink:title="View::ViewSideDisplayManager\l::missionFinishSelections">
<polygon fill="white" stroke="black" points="380,-49.5 380,-79.5 534,-79.5 534,-49.5 380,-49.5"/>
<text text-anchor="start" x="388" y="-67.5" font-family="Helvetica,sans-Serif" font-size="10.00">View::ViewSideDisplayManager</text>
<text text-anchor="middle" x="457" y="-56.5" font-family="Helvetica,sans-Serif" font-size="10.00">::missionFinishSelections</text>
</a>
</g>
</g>
<!-- Node16&#45;&gt;Node17 -->
<g id="edge2" class="edge"><title>Node16&#45;&gt;Node17</title>
<path fill="none" stroke="midnightblue" d="M354.146,-77.5027C362.67,-76.4145 371.281,-75.3152 379.696,-74.241"/>
<polygon fill="midnightblue" stroke="midnightblue" points="353.672,-74.0346 344.196,-78.7729 354.559,-80.9783 353.672,-74.0346"/>
</g>
<!-- Node18 -->
<g id="node4" class="node"><title>Node18</title>
<g id="a_node4"><a xlink:href="class_view_1_1_view_side_display_manager.html#a3443e9c81874ddb7c62b5073e4580e7c" target="_top" xlink:title="View::ViewSideDisplayManager\l::missionStartActorSelection">
<polygon fill="white" stroke="black" points="380,-98.5 380,-128.5 534,-128.5 534,-98.5 380,-98.5"/>
<text text-anchor="start" x="388" y="-116.5" font-family="Helvetica,sans-Serif" font-size="10.00">View::ViewSideDisplayManager</text>
<text text-anchor="middle" x="457" y="-105.5" font-family="Helvetica,sans-Serif" font-size="10.00">::missionStartActorSelection</text>
</a>
</g>
</g>
<!-- Node16&#45;&gt;Node18 -->
<g id="edge3" class="edge"><title>Node16&#45;&gt;Node18</title>
<path fill="none" stroke="midnightblue" d="M354.146,-99.9555C362.67,-101.089 371.281,-102.234 379.696,-103.353"/>
<polygon fill="midnightblue" stroke="midnightblue" points="354.57,-96.4812 344.196,-98.6324 353.647,-103.42 354.57,-96.4812"/>
</g>
<!-- Node19&#45;&gt;Node17 -->
<g id="edge6" class="edge"><title>Node19&#45;&gt;Node17</title>
<path fill="none" stroke="midnightblue" d="M354.146,-50.9555C362.67,-52.0891 371.281,-53.2342 379.696,-54.3532"/>
<polygon fill="midnightblue" stroke="midnightblue" points="354.57,-47.4812 344.196,-49.6324 353.647,-54.4201 354.57,-47.4812"/>
</g>
<!-- Node20 -->
<g id="node6" class="node"><title>Node20</title>
<g id="a_node6"><a xlink:href="class_view_1_1_view_side_display_manager.html#ab0451ac52b6696138cbf5d7b82821ef6" target="_top" xlink:title="View::ViewSideDisplayManager\l::missionStartWeaponSelection">
<polygon fill="white" stroke="black" points="380,-0.5 380,-30.5 534,-30.5 534,-0.5 380,-0.5"/>
<text text-anchor="start" x="388" y="-18.5" font-family="Helvetica,sans-Serif" font-size="10.00">View::ViewSideDisplayManager</text>
<text text-anchor="middle" x="457" y="-7.5" font-family="Helvetica,sans-Serif" font-size="10.00">::missionStartWeaponSelection</text>
</a>
</g>
</g>
<!-- Node19&#45;&gt;Node20 -->
<g id="edge5" class="edge"><title>Node19&#45;&gt;Node20</title>
<path fill="none" stroke="midnightblue" d="M354.146,-28.5027C362.67,-27.4145 371.281,-26.3152 379.696,-25.241"/>
<polygon fill="midnightblue" stroke="midnightblue" points="353.672,-25.0346 344.196,-29.7729 354.559,-31.9783 353.672,-25.0346"/>
</g>
</g>
</svg>
