<?xml version="1.0" encoding="UTF-8" standalone="no"?>
<!DOCTYPE svg PUBLIC "-//W3C//DTD SVG 1.1//EN"
 "http://www.w3.org/Graphics/SVG/1.1/DTD/svg11.dtd">
<!-- Generated by graphviz version 2.38.0 (20140413.2041)
 -->
<!-- Title: Model::parkSpaceInserter Pages: 1 -->
<!--zoomable 970 -->
<svg id="main" version="1.1" xmlns="http://www.w3.org/2000/svg" xmlns:xlink="http://www.w3.org/1999/xlink" xml:space="preserve" onload="init(evt)">
<style type="text/css"><![CDATA[
.edge:hover path { stroke: red; }
.edge:hover polygon { stroke: red; fill: red; }
]]></style>
<script type="text/javascript"><![CDATA[
var edges = document.getElementsByTagName('g');
if (edges && edges.length) {
  for (var i=0;i<edges.length;i++) {
    if (edges[i].id.substr(0,4)=='edge') {
      edges[i].setAttribute('class','edge');
    }
  }
}
]]></script>
        <defs>
                <circle id="rim" cx="0" cy="0" r="7"/>
                <circle id="rim2" cx="0" cy="0" r="3.5"/>
                <g id="zoomPlus">
                        <use xlink:href="#rim" fill="#404040">
                                <set attributeName="fill" to="#808080" begin="zoomplus.mouseover" end="zoomplus.mouseout"/>
                        </use>
                        <path d="M-4,0h8M0,-4v8" fill="none" stroke="white" stroke-width="1.5" pointer-events="none"/>
                </g>
                <g id="zoomMin">
                        <use xlink:href="#rim" fill="#404040">
                                <set attributeName="fill" to="#808080" begin="zoomminus.mouseover" end="zoomminus.mouseout"/>
                        </use>
                        <path d="M-4,0h8" fill="none" stroke="white" stroke-width="1.5" pointer-events="none"/>
                </g>
                <g id="dirArrow">
                        <path fill="none" stroke="white" stroke-width="1.5" d="M0,-3.0v7 M-2.5,-0.5L0,-3.0L2.5,-0.5"/>
                </g>
               <g id="resetDef">
                       <use xlink:href="#rim2" fill="#404040">
                               <set attributeName="fill" to="#808080" begin="reset.mouseover" end="reset.mouseout"/>
                       </use>
               </g>
        </defs>

<script type="text/javascript">
var viewWidth = 1044;
var viewHeight = 970;
var sectionId = 'dynsection-0';
</script>
<script xlink:href="svgpan.js"/>
<svg id="graph" class="graph">
<g id="viewport">
<title>Model::parkSpaceInserter</title>
<polygon fill="white" stroke="none" points="-4,4 -4,-966 1040,-966 1040,4 -4,4"/>
<!-- Node1 -->
<g id="node1" class="node"><title>Node1</title>
<polygon fill="#bfbfbf" stroke="black" points="270,-711.5 270,-834.5 398,-834.5 398,-711.5 270,-711.5"/>
<text text-anchor="middle" x="334" y="-822.5" font-family="Helvetica,sans-Serif" font-size="10.00">Model::parkSpaceInserter</text>
<polyline fill="none" stroke="black" points="270,-815.5 398,-815.5 "/>
<text text-anchor="middle" x="334" y="-803.5" font-family="Helvetica,sans-Serif" font-size="10.00"> </text>
<polyline fill="none" stroke="black" points="270,-796.5 398,-796.5 "/>
<text text-anchor="start" x="278" y="-784.5" font-family="Helvetica,sans-Serif" font-size="10.00">+ parkSpaceInserter()</text>
<text text-anchor="start" x="278" y="-773.5" font-family="Helvetica,sans-Serif" font-size="10.00">+ addSpaces()</text>
<text text-anchor="start" x="278" y="-762.5" font-family="Helvetica,sans-Serif" font-size="10.00">&#45; addParkingSpaces_()</text>
<text text-anchor="start" x="278" y="-751.5" font-family="Helvetica,sans-Serif" font-size="10.00">&#45; getWallTiles()</text>
<text text-anchor="start" x="278" y="-740.5" font-family="Helvetica,sans-Serif" font-size="10.00">&#45; removeBlockedSpaces()</text>
<text text-anchor="start" x="278" y="-729.5" font-family="Helvetica,sans-Serif" font-size="10.00">&#45; floodFill()</text>
<text text-anchor="start" x="278" y="-718.5" font-family="Helvetica,sans-Serif" font-size="10.00">&#45; getRelativeDirection()</text>
</g>
<!-- Node2 -->
<g id="node2" class="node"><title>Node2</title>
<g id="a_node2"><a xlink:href="class_model_1_1map_generator.html" target="_top" xlink:title="{Model::mapGenerator\n||+ mapGenerator()\l+ getTile()\l+ getHeight()\l+ getWidth()\l+ getStartX()\l+ getStartY()\l+ generateHall()\l+ getLayout()\l&#45; getMedialMap()\l&#45; getDistanceMap()\l&#45; isInMapRange()\l&#45; GetSurroundingWallCount()\l&#45; getClosestEdge()\l&#45; indexToX()\l&#45; indexToY()\l&#45; indexAt()\l&#45; setTile()\l&#45; setTile()\l&#45; getTile()\l&#45; printLayout()\l}">
<polygon fill="white" stroke="black" points="310.5,-364.5 310.5,-630.5 451.5,-630.5 451.5,-364.5 310.5,-364.5"/>
<text text-anchor="middle" x="381" y="-618.5" font-family="Helvetica,sans-Serif" font-size="10.00">Model::mapGenerator</text>
<polyline fill="none" stroke="black" points="310.5,-611.5 451.5,-611.5 "/>
<text text-anchor="middle" x="381" y="-599.5" font-family="Helvetica,sans-Serif" font-size="10.00"> </text>
<polyline fill="none" stroke="black" points="310.5,-592.5 451.5,-592.5 "/>
<text text-anchor="start" x="318.5" y="-580.5" font-family="Helvetica,sans-Serif" font-size="10.00">+ mapGenerator()</text>
<text text-anchor="start" x="318.5" y="-569.5" font-family="Helvetica,sans-Serif" font-size="10.00">+ getTile()</text>
<text text-anchor="start" x="318.5" y="-558.5" font-family="Helvetica,sans-Serif" font-size="10.00">+ getHeight()</text>
<text text-anchor="start" x="318.5" y="-547.5" font-family="Helvetica,sans-Serif" font-size="10.00">+ getWidth()</text>
<text text-anchor="start" x="318.5" y="-536.5" font-family="Helvetica,sans-Serif" font-size="10.00">+ getStartX()</text>
<text text-anchor="start" x="318.5" y="-525.5" font-family="Helvetica,sans-Serif" font-size="10.00">+ getStartY()</text>
<text text-anchor="start" x="318.5" y="-514.5" font-family="Helvetica,sans-Serif" font-size="10.00">+ generateHall()</text>
<text text-anchor="start" x="318.5" y="-503.5" font-family="Helvetica,sans-Serif" font-size="10.00">+ getLayout()</text>
<text text-anchor="start" x="318.5" y="-492.5" font-family="Helvetica,sans-Serif" font-size="10.00">&#45; getMedialMap()</text>
<text text-anchor="start" x="318.5" y="-481.5" font-family="Helvetica,sans-Serif" font-size="10.00">&#45; getDistanceMap()</text>
<text text-anchor="start" x="318.5" y="-470.5" font-family="Helvetica,sans-Serif" font-size="10.00">&#45; isInMapRange()</text>
<text text-anchor="start" x="318.5" y="-459.5" font-family="Helvetica,sans-Serif" font-size="10.00">&#45; GetSurroundingWallCount()</text>
<text text-anchor="start" x="318.5" y="-448.5" font-family="Helvetica,sans-Serif" font-size="10.00">&#45; getClosestEdge()</text>
<text text-anchor="start" x="318.5" y="-437.5" font-family="Helvetica,sans-Serif" font-size="10.00">&#45; indexToX()</text>
<text text-anchor="start" x="318.5" y="-426.5" font-family="Helvetica,sans-Serif" font-size="10.00">&#45; indexToY()</text>
<text text-anchor="start" x="318.5" y="-415.5" font-family="Helvetica,sans-Serif" font-size="10.00">&#45; indexAt()</text>
<text text-anchor="start" x="318.5" y="-404.5" font-family="Helvetica,sans-Serif" font-size="10.00">&#45; setTile()</text>
<text text-anchor="start" x="318.5" y="-393.5" font-family="Helvetica,sans-Serif" font-size="10.00">&#45; setTile()</text>
<text text-anchor="start" x="318.5" y="-382.5" font-family="Helvetica,sans-Serif" font-size="10.00">&#45; getTile()</text>
<text text-anchor="start" x="318.5" y="-371.5" font-family="Helvetica,sans-Serif" font-size="10.00">&#45; printLayout()</text>
</a>
</g>
</g>
<!-- Node1&#45;&gt;Node2 -->
<g id="edge18" class="edge"><title>Node1&#45;&gt;Node2</title>
<path fill="none" stroke="#404040" d="M352.206,-711.3C354.738,-701.56 357.113,-691.545 359,-682 361.501,-669.348 363.758,-656.145 365.788,-642.876"/>
<polygon fill="none" stroke="#404040" points="365.835,-642.557 362.754,-636.037 367.588,-630.686 370.669,-637.206 365.835,-642.557"/>
<text text-anchor="middle" x="410.5" y="-663" font-family="Helvetica,sans-Serif" font-size="10.00"> &#45;parkSpaceInserter_</text>
</g>
<!-- Node2&#45;&gt;Node1 -->
<g id="edge1" class="edge"><title>Node2&#45;&gt;Node1</title>
<path fill="none" stroke="#404040" d="M331.681,-630.799C330.269,-636.907 329.027,-642.993 328,-649 325.529,-663.457 327.512,-667.341 328,-682 328.181,-687.429 328.423,-693.039 328.706,-698.682"/>
<polygon fill="none" stroke="#404040" points="328.726,-699.046 333.049,-704.818 329.384,-711.028 325.061,-705.256 328.726,-699.046"/>
<text text-anchor="middle" x="343.5" y="-663" font-family="Helvetica,sans-Serif" font-size="10.00"> &#45;map_</text>
</g>
<!-- Node5 -->
<g id="node5" class="node"><title>Node5</title>
<g id="a_node5"><a xlink:href="class_model_1_1map_processor.html" target="_top" xlink:title="{Model::mapProcessor\n||+ mapProcessor()\l+ placeEnemies()\l+ getEnemies()\l&#45; getDistanceMap()\l&#45; getMedialMap()\l&#45; calculateDistanceMap()\l&#45; getTile()\l&#45; getTile()\l&#45; setTileDistance()\l&#45; getTileDistance()\l&#45; getTileClosest()\l&#45; getTileClosest()\l&#45; setTileClosest()\l&#45; getDistance()\l}">
<polygon fill="white" stroke="black" points="726.5,-116.5 726.5,-316.5 851.5,-316.5 851.5,-116.5 726.5,-116.5"/>
<text text-anchor="middle" x="789" y="-304.5" font-family="Helvetica,sans-Serif" font-size="10.00">Model::mapProcessor</text>
<polyline fill="none" stroke="black" points="726.5,-297.5 851.5,-297.5 "/>
<text text-anchor="middle" x="789" y="-285.5" font-family="Helvetica,sans-Serif" font-size="10.00"> </text>
<polyline fill="none" stroke="black" points="726.5,-278.5 851.5,-278.5 "/>
<text text-anchor="start" x="734.5" y="-266.5" font-family="Helvetica,sans-Serif" font-size="10.00">+ mapProcessor()</text>
<text text-anchor="start" x="734.5" y="-255.5" font-family="Helvetica,sans-Serif" font-size="10.00">+ placeEnemies()</text>
<text text-anchor="start" x="734.5" y="-244.5" font-family="Helvetica,sans-Serif" font-size="10.00">+ getEnemies()</text>
<text text-anchor="start" x="734.5" y="-233.5" font-family="Helvetica,sans-Serif" font-size="10.00">&#45; getDistanceMap()</text>
<text text-anchor="start" x="734.5" y="-222.5" font-family="Helvetica,sans-Serif" font-size="10.00">&#45; getMedialMap()</text>
<text text-anchor="start" x="734.5" y="-211.5" font-family="Helvetica,sans-Serif" font-size="10.00">&#45; calculateDistanceMap()</text>
<text text-anchor="start" x="734.5" y="-200.5" font-family="Helvetica,sans-Serif" font-size="10.00">&#45; getTile()</text>
<text text-anchor="start" x="734.5" y="-189.5" font-family="Helvetica,sans-Serif" font-size="10.00">&#45; getTile()</text>
<text text-anchor="start" x="734.5" y="-178.5" font-family="Helvetica,sans-Serif" font-size="10.00">&#45; setTileDistance()</text>
<text text-anchor="start" x="734.5" y="-167.5" font-family="Helvetica,sans-Serif" font-size="10.00">&#45; getTileDistance()</text>
<text text-anchor="start" x="734.5" y="-156.5" font-family="Helvetica,sans-Serif" font-size="10.00">&#45; getTileClosest()</text>
<text text-anchor="start" x="734.5" y="-145.5" font-family="Helvetica,sans-Serif" font-size="10.00">&#45; getTileClosest()</text>
<text text-anchor="start" x="734.5" y="-134.5" font-family="Helvetica,sans-Serif" font-size="10.00">&#45; setTileClosest()</text>
<text text-anchor="start" x="734.5" y="-123.5" font-family="Helvetica,sans-Serif" font-size="10.00">&#45; getDistance()</text>
</a>
</g>
</g>
<!-- Node2&#45;&gt;Node5 -->
<g id="edge5" class="edge"><title>Node2&#45;&gt;Node5</title>
<path fill="none" stroke="#404040" d="M451.602,-448.22C525.556,-397.649 641.159,-318.597 715.998,-267.42"/>
<polygon fill="none" stroke="#404040" points="716.374,-267.163 719.069,-260.475 726.28,-260.39 723.585,-267.078 716.374,-267.163"/>
<text text-anchor="middle" x="636" y="-338" font-family="Helvetica,sans-Serif" font-size="10.00"> &#45;generator_</text>
</g>
<!-- Node13 -->
<g id="node13" class="node"><title>Node13</title>
<g id="a_node13"><a xlink:href="class_model_1_1layout_generator.html" target="_top" xlink:title="{Model::layoutGenerator\n||+ layoutGenerator()\l+ generateHall()\l&#45; roomOk()\l&#45; randomRoom()\l}">
<polygon fill="white" stroke="black" points="473,-171.5 473,-261.5 591,-261.5 591,-171.5 473,-171.5"/>
<text text-anchor="middle" x="532" y="-249.5" font-family="Helvetica,sans-Serif" font-size="10.00">Model::layoutGenerator</text>
<polyline fill="none" stroke="black" points="473,-242.5 591,-242.5 "/>
<text text-anchor="middle" x="532" y="-230.5" font-family="Helvetica,sans-Serif" font-size="10.00"> </text>
<polyline fill="none" stroke="black" points="473,-223.5 591,-223.5 "/>
<text text-anchor="start" x="481" y="-211.5" font-family="Helvetica,sans-Serif" font-size="10.00">+ layoutGenerator()</text>
<text text-anchor="start" x="481" y="-200.5" font-family="Helvetica,sans-Serif" font-size="10.00">+ generateHall()</text>
<text text-anchor="start" x="481" y="-189.5" font-family="Helvetica,sans-Serif" font-size="10.00">&#45; roomOk()</text>
<text text-anchor="start" x="481" y="-178.5" font-family="Helvetica,sans-Serif" font-size="10.00">&#45; randomRoom()</text>
</a>
</g>
</g>
<!-- Node2&#45;&gt;Node13 -->
<g id="edge16" class="edge"><title>Node2&#45;&gt;Node13</title>
<path fill="none" stroke="#404040" d="M451.612,-414.55C467.527,-393.23 483.184,-369.593 495,-346 506.376,-323.286 514.787,-296.512 520.689,-273.298"/>
<polygon fill="none" stroke="#404040" points="520.717,-273.185 518.246,-266.411 523.549,-261.524 526.02,-268.299 520.717,-273.185"/>
<text text-anchor="middle" x="536.5" y="-338" font-family="Helvetica,sans-Serif" font-size="10.00"> &#45;mapGenerator_</text>
</g>
<!-- Node3 -->
<g id="node3" class="node"><title>Node3</title>
<g id="a_node3"><a xlink:href="class_interface_1_1_parkin_hall_layout_interface.html" target="_top" xlink:title="{Interface::ParkinHallLayout\lInterface\n||+ ParkinHallLayoutInterface()\l+ generateHall()\l+ getLayout()\l+ getTile()\l+ getStartX()\l+ getStartY()\l+ getHeight()\l+ getWidth()\l}">
<polygon fill="white" stroke="black" points="416,-700.5 416,-845.5 558,-845.5 558,-700.5 416,-700.5"/>
<text text-anchor="start" x="424" y="-833.5" font-family="Helvetica,sans-Serif" font-size="10.00">Interface::ParkinHallLayout</text>
<text text-anchor="middle" x="487" y="-822.5" font-family="Helvetica,sans-Serif" font-size="10.00">Interface</text>
<polyline fill="none" stroke="black" points="416,-815.5 558,-815.5 "/>
<text text-anchor="middle" x="487" y="-803.5" font-family="Helvetica,sans-Serif" font-size="10.00"> </text>
<polyline fill="none" stroke="black" points="416,-796.5 558,-796.5 "/>
<text text-anchor="start" x="424" y="-784.5" font-family="Helvetica,sans-Serif" font-size="10.00">+ ParkinHallLayoutInterface()</text>
<text text-anchor="start" x="424" y="-773.5" font-family="Helvetica,sans-Serif" font-size="10.00">+ generateHall()</text>
<text text-anchor="start" x="424" y="-762.5" font-family="Helvetica,sans-Serif" font-size="10.00">+ getLayout()</text>
<text text-anchor="start" x="424" y="-751.5" font-family="Helvetica,sans-Serif" font-size="10.00">+ getTile()</text>
<text text-anchor="start" x="424" y="-740.5" font-family="Helvetica,sans-Serif" font-size="10.00">+ getStartX()</text>
<text text-anchor="start" x="424" y="-729.5" font-family="Helvetica,sans-Serif" font-size="10.00">+ getStartY()</text>
<text text-anchor="start" x="424" y="-718.5" font-family="Helvetica,sans-Serif" font-size="10.00">+ getHeight()</text>
<text text-anchor="start" x="424" y="-707.5" font-family="Helvetica,sans-Serif" font-size="10.00">+ getWidth()</text>
</a>
</g>
</g>
<!-- Node3&#45;&gt;Node2 -->
<g id="edge2" class="edge"><title>Node3&#45;&gt;Node2</title>
<path fill="none" stroke="midnightblue" d="M472.24,-690.119C468.824,-676.214 464.762,-662.057 460,-649 457.422,-641.931 454.573,-634.776 451.534,-627.624"/>
<polygon fill="none" stroke="midnightblue" points="468.911,-691.252 474.614,-700.181 475.724,-689.644 468.911,-691.252"/>
</g>
<!-- Node4 -->
<g id="node4" class="node"><title>Node4</title>
<polygon fill="white" stroke="#bfbfbf" points="432,-0.5 432,-68.5 548,-68.5 548,-0.5 432,-0.5"/>
<text text-anchor="start" x="440" y="-56.5" font-family="Helvetica,sans-Serif" font-size="10.00">std::unique_ptr&lt; Model</text>
<text text-anchor="middle" x="490" y="-45.5" font-family="Helvetica,sans-Serif" font-size="10.00">::mapProcessor &gt;</text>
<polyline fill="none" stroke="#bfbfbf" points="432,-38.5 548,-38.5 "/>
<text text-anchor="middle" x="490" y="-26.5" font-family="Helvetica,sans-Serif" font-size="10.00"> </text>
<polyline fill="none" stroke="#bfbfbf" points="432,-19.5 548,-19.5 "/>
<text text-anchor="start" x="440" y="-7.5" font-family="Helvetica,sans-Serif" font-size="10.00">+ operator&#45;&gt;()</text>
</g>
<!-- Node4&#45;&gt;Node2 -->
<g id="edge3" class="edge"><title>Node4&#45;&gt;Node2</title>
<path fill="none" stroke="#404040" d="M431.878,-68.1173C414.963,-80.7308 398.496,-96.8068 389,-116 353.265,-188.227 349.763,-277.995 355.893,-352.198"/>
<polygon fill="none" stroke="#404040" points="355.919,-352.489 360.444,-358.103 357.002,-364.44 352.477,-358.825 355.919,-352.489"/>
<text text-anchor="middle" x="426.5" y="-214" font-family="Helvetica,sans-Serif" font-size="10.00"> &#45;mapProcessor_</text>
</g>
<!-- Node5&#45;&gt;Node4 -->
<g id="edge4" class="edge"><title>Node5&#45;&gt;Node4</title>
<path fill="none" stroke="#404040" d="M726.32,-177.766C676.28,-147.642 606.381,-105.562 555.591,-74.9865"/>
<polygon fill="none" stroke="#404040" points="555.338,-74.8342 548.135,-75.1665 545.058,-68.645 552.261,-68.3126 555.338,-74.8342"/>
<text text-anchor="middle" x="597.5" y="-90" font-family="Helvetica,sans-Serif" font-size="10.00"> +ptr</text>
</g>
<!-- Node6 -->
<g id="node6" class="node"><title>Node6</title>
<polygon fill="white" stroke="#bfbfbf" points="708.5,-463.5 708.5,-531.5 869.5,-531.5 869.5,-463.5 708.5,-463.5"/>
<text text-anchor="start" x="716.5" y="-519.5" font-family="Helvetica,sans-Serif" font-size="10.00">std::vector&lt; Model</text>
<text text-anchor="middle" x="789" y="-508.5" font-family="Helvetica,sans-Serif" font-size="10.00">::mapProcessor::DistanceNode &gt;</text>
<polyline fill="none" stroke="#bfbfbf" points="708.5,-501.5 869.5,-501.5 "/>
<text text-anchor="middle" x="789" y="-489.5" font-family="Helvetica,sans-Serif" font-size="10.00"> </text>
<polyline fill="none" stroke="#bfbfbf" points="708.5,-482.5 869.5,-482.5 "/>
<text text-anchor="middle" x="789" y="-470.5" font-family="Helvetica,sans-Serif" font-size="10.00"> </text>
</g>
<!-- Node6&#45;&gt;Node5 -->
<g id="edge6" class="edge"><title>Node6&#45;&gt;Node5</title>
<path fill="none" stroke="#404040" d="M789,-463.399C789,-430.199 789,-377.203 789,-328.897"/>
<polygon fill="none" stroke="#404040" points="789,-328.732 785,-322.732 789,-316.732 793,-322.732 789,-328.732"/>
<text text-anchor="middle" x="820" y="-338" font-family="Helvetica,sans-Serif" font-size="10.00"> &#45;distanceMap</text>
</g>
<!-- Node7 -->
<g id="node7" class="node"><title>Node7</title>
<g id="a_node7"><a xlink:href="struct_model_1_1map_processor_1_1_distance_node.html" target="_top" xlink:title="{Model::mapProcessor\l::DistanceNode\n||}">
<polygon fill="white" stroke="black" points="725,-739 725,-807 837,-807 837,-739 725,-739"/>
<text text-anchor="start" x="733" y="-795" font-family="Helvetica,sans-Serif" font-size="10.00">Model::mapProcessor</text>
<text text-anchor="middle" x="781" y="-784" font-family="Helvetica,sans-Serif" font-size="10.00">::DistanceNode</text>
<polyline fill="none" stroke="black" points="725,-777 837,-777 "/>
<text text-anchor="middle" x="781" y="-765" font-family="Helvetica,sans-Serif" font-size="10.00"> </text>
<polyline fill="none" stroke="black" points="725,-758 837,-758 "/>
<text text-anchor="middle" x="781" y="-746" font-family="Helvetica,sans-Serif" font-size="10.00"> </text>
</a>
</g>
</g>
<!-- Node7&#45;&gt;Node6 -->
<g id="edge7" class="edge"><title>Node7&#45;&gt;Node6</title>
<path fill="none" stroke="#404040" d="M781.973,-738.737C783.402,-689.87 786.074,-598.545 787.679,-543.658"/>
<polygon fill="none" stroke="#404040" points="787.683,-543.527 783.86,-537.412 788.034,-531.532 791.857,-537.646 787.683,-543.527"/>
<text text-anchor="middle" x="808.5" y="-663" font-family="Helvetica,sans-Serif" font-size="10.00"> +elements</text>
</g>
<!-- Node8 -->
<g id="node8" class="node"><title>Node8</title>
<polygon fill="white" stroke="#bfbfbf" points="727.5,-904.5 727.5,-961.5 756.5,-961.5 756.5,-904.5 727.5,-904.5"/>
<text text-anchor="middle" x="742" y="-949.5" font-family="Helvetica,sans-Serif" font-size="10.00">int</text>
<polyline fill="none" stroke="#bfbfbf" points="727.5,-942.5 756.5,-942.5 "/>
<text text-anchor="middle" x="742" y="-930.5" font-family="Helvetica,sans-Serif" font-size="10.00"> </text>
<polyline fill="none" stroke="#bfbfbf" points="727.5,-923.5 756.5,-923.5 "/>
<text text-anchor="middle" x="742" y="-911.5" font-family="Helvetica,sans-Serif" font-size="10.00"> </text>
</g>
<!-- Node8&#45;&gt;Node2 -->
<g id="edge12" class="edge"><title>Node8&#45;&gt;Node2</title>
<path fill="none" stroke="#404040" d="M727.414,-926.731C699.78,-915.989 639.732,-888.888 608,-846 567.912,-791.819 599.879,-758.835 567,-700 539.479,-650.752 497.583,-603.922 460.516,-567.824"/>
<polygon fill="none" stroke="#404040" points="460.356,-567.669 453.258,-566.395 451.705,-559.353 458.802,-560.628 460.356,-567.669"/>
<text text-anchor="middle" x="644.5" y="-792.5" font-family="Helvetica,sans-Serif" font-size="10.00"> &#45;startX</text>
<text text-anchor="middle" x="644.5" y="-781.5" font-family="Helvetica,sans-Serif" font-size="10.00">&#45;startY</text>
<text text-anchor="middle" x="644.5" y="-770.5" font-family="Helvetica,sans-Serif" font-size="10.00">&#45;height_</text>
<text text-anchor="middle" x="644.5" y="-759.5" font-family="Helvetica,sans-Serif" font-size="10.00">&#45;width_</text>
<text text-anchor="middle" x="644.5" y="-748.5" font-family="Helvetica,sans-Serif" font-size="10.00">&#45;maxRoomCount</text>
</g>
<!-- Node8&#45;&gt;Node5 -->
<g id="edge11" class="edge"><title>Node8&#45;&gt;Node5</title>
<path fill="none" stroke="#404040" d="M756.771,-925.002C780.604,-912.795 826.809,-885.125 846,-846 888.574,-759.205 871.645,-727.394 879,-631 888.028,-512.677 911.275,-478.193 879,-364 874.072,-346.563 866.42,-329.158 857.614,-312.751"/>
<polygon fill="none" stroke="#404040" points="857.529,-312.599 851.111,-309.311 851.678,-302.122 858.096,-305.41 857.529,-312.599"/>
<text text-anchor="middle" x="892" y="-668.5" font-family="Helvetica,sans-Serif" font-size="10.00"> &#45;width</text>
<text text-anchor="middle" x="892" y="-657.5" font-family="Helvetica,sans-Serif" font-size="10.00">&#45;height</text>
</g>
<!-- Node8&#45;&gt;Node7 -->
<g id="edge8" class="edge"><title>Node8&#45;&gt;Node7</title>
<path fill="none" stroke="#404040" d="M748.793,-904.479C754.611,-880.911 763.1,-846.518 769.903,-818.959"/>
<polygon fill="none" stroke="#404040" points="769.922,-818.881 767.476,-812.097 772.798,-807.23 775.243,-814.014 769.922,-818.881"/>
<text text-anchor="middle" x="781" y="-878" font-family="Helvetica,sans-Serif" font-size="10.00"> +distance</text>
<text text-anchor="middle" x="781" y="-867" font-family="Helvetica,sans-Serif" font-size="10.00">+closest</text>
</g>
<!-- Node8&#45;&gt;Node13 -->
<g id="edge17" class="edge"><title>Node8&#45;&gt;Node13</title>
<path fill="none" stroke="#404040" d="M732.168,-904.463C726.583,-887.757 719.94,-865.891 716,-846 704.914,-790.039 692.051,-385.753 666,-335 651.094,-305.961 625.718,-280.901 601.031,-261.473"/>
<polygon fill="none" stroke="#404040" points="600.812,-261.306 593.615,-260.854 591.263,-254.037 598.46,-254.489 600.812,-261.306"/>
<text text-anchor="middle" x="731" y="-674" font-family="Helvetica,sans-Serif" font-size="10.00"> &#45;height_</text>
<text text-anchor="middle" x="731" y="-663" font-family="Helvetica,sans-Serif" font-size="10.00">&#45;width_</text>
<text text-anchor="middle" x="731" y="-652" font-family="Helvetica,sans-Serif" font-size="10.00">&#45;maxRooms_</text>
</g>
<!-- Node9 -->
<g id="node9" class="node"><title>Node9</title>
<polygon fill="white" stroke="#bfbfbf" points="926,-469 926,-526 1036,-526 1036,-469 926,-469"/>
<text text-anchor="middle" x="981" y="-514" font-family="Helvetica,sans-Serif" font-size="10.00">std::vector&lt; QPoint &gt;</text>
<polyline fill="none" stroke="#bfbfbf" points="926,-507 1036,-507 "/>
<text text-anchor="middle" x="981" y="-495" font-family="Helvetica,sans-Serif" font-size="10.00"> </text>
<polyline fill="none" stroke="#bfbfbf" points="926,-488 1036,-488 "/>
<text text-anchor="middle" x="981" y="-476" font-family="Helvetica,sans-Serif" font-size="10.00"> </text>
</g>
<!-- Node9&#45;&gt;Node5 -->
<g id="edge9" class="edge"><title>Node9&#45;&gt;Node5</title>
<path fill="none" stroke="#404040" d="M972.96,-468.788C962.386,-435.179 941.611,-377.728 912,-335 897.544,-314.14 878.933,-294.045 860.585,-276.55"/>
<polygon fill="none" stroke="#404040" points="860.39,-276.368 853.275,-275.198 851.619,-268.179 858.734,-269.35 860.39,-276.368"/>
<text text-anchor="middle" x="941.5" y="-338" font-family="Helvetica,sans-Serif" font-size="10.00"> &#45;enemies_</text>
</g>
<!-- Node10 -->
<g id="node10" class="node"><title>Node10</title>
<polygon fill="white" stroke="#bfbfbf" points="957.5,-744.5 957.5,-801.5 1004.5,-801.5 1004.5,-744.5 957.5,-744.5"/>
<text text-anchor="middle" x="981" y="-789.5" font-family="Helvetica,sans-Serif" font-size="10.00">QPoint</text>
<polyline fill="none" stroke="#bfbfbf" points="957.5,-782.5 1004.5,-782.5 "/>
<text text-anchor="middle" x="981" y="-770.5" font-family="Helvetica,sans-Serif" font-size="10.00"> </text>
<polyline fill="none" stroke="#bfbfbf" points="957.5,-763.5 1004.5,-763.5 "/>
<text text-anchor="middle" x="981" y="-751.5" font-family="Helvetica,sans-Serif" font-size="10.00"> </text>
</g>
<!-- Node10&#45;&gt;Node9 -->
<g id="edge10" class="edge"><title>Node10&#45;&gt;Node9</title>
<path fill="none" stroke="#404040" d="M981,-744.27C981,-695.638 981,-594.805 981,-538.584"/>
<polygon fill="none" stroke="#404040" points="981,-538.303 977,-532.303 981,-526.303 985,-532.303 981,-538.303"/>
<text text-anchor="middle" x="1005.5" y="-663" font-family="Helvetica,sans-Serif" font-size="10.00"> +elements</text>
</g>
<!-- Node11 -->
<g id="node11" class="node"><title>Node11</title>
<polygon fill="white" stroke="#bfbfbf" points="134,-744.5 134,-801.5 180,-801.5 180,-744.5 134,-744.5"/>
<text text-anchor="middle" x="157" y="-789.5" font-family="Helvetica,sans-Serif" font-size="10.00">Layout</text>
<polyline fill="none" stroke="#bfbfbf" points="134,-782.5 180,-782.5 "/>
<text text-anchor="middle" x="157" y="-770.5" font-family="Helvetica,sans-Serif" font-size="10.00"> </text>
<polyline fill="none" stroke="#bfbfbf" points="134,-763.5 180,-763.5 "/>
<text text-anchor="middle" x="157" y="-751.5" font-family="Helvetica,sans-Serif" font-size="10.00"> </text>
</g>
<!-- Node11&#45;&gt;Node2 -->
<g id="edge13" class="edge"><title>Node11&#45;&gt;Node2</title>
<path fill="none" stroke="#404040" d="M167.123,-744.409C172.714,-730.603 180.29,-713.913 189,-700 219.503,-651.277 263.118,-604.324 301.072,-568.018"/>
<polygon fill="none" stroke="#404040" points="301.364,-567.742 302.974,-560.713 310.081,-559.496 308.471,-566.525 301.364,-567.742"/>
<text text-anchor="middle" x="244" y="-663" font-family="Helvetica,sans-Serif" font-size="10.00"> &#45;layout_</text>
</g>
<!-- Node12 -->
<g id="node12" class="node"><title>Node12</title>
<polygon fill="white" stroke="#bfbfbf" points="198,-744.5 198,-801.5 252,-801.5 252,-744.5 198,-744.5"/>
<text text-anchor="middle" x="225" y="-789.5" font-family="Helvetica,sans-Serif" font-size="10.00">mt19937</text>
<polyline fill="none" stroke="#bfbfbf" points="198,-782.5 252,-782.5 "/>
<text text-anchor="middle" x="225" y="-770.5" font-family="Helvetica,sans-Serif" font-size="10.00"> </text>
<polyline fill="none" stroke="#bfbfbf" points="198,-763.5 252,-763.5 "/>
<text text-anchor="middle" x="225" y="-751.5" font-family="Helvetica,sans-Serif" font-size="10.00"> </text>
</g>
<!-- Node12&#45;&gt;Node2 -->
<g id="edge14" class="edge"><title>Node12&#45;&gt;Node2</title>
<path fill="none" stroke="#404040" d="M238.208,-744.404C244.821,-730.897 253.088,-714.469 261,-700 274.503,-675.306 289.463,-649.256 304.109,-624.383"/>
<polygon fill="none" stroke="#404040" points="304.256,-624.133 303.865,-616.933 310.361,-613.802 310.753,-621.003 304.256,-624.133"/>
<text text-anchor="middle" x="300" y="-663" font-family="Helvetica,sans-Serif" font-size="10.00"> &#45;rng</text>
</g>
<!-- Node13&#45;&gt;Node2 -->
<g id="edge15" class="edge"><title>Node13&#45;&gt;Node2</title>
<path fill="none" stroke="#404040" d="M507.357,-261.572C494.895,-280.674 478.307,-302.041 459,-317 441.972,-330.193 427.81,-318.468 414,-335 409.299,-340.628 405.208,-346.747 401.653,-353.204"/>
<polygon fill="none" stroke="#404040" points="401.461,-353.593 402.4,-360.743 396.161,-364.359 395.222,-357.21 401.461,-353.593"/>
<text text-anchor="middle" x="454.5" y="-338" font-family="Helvetica,sans-Serif" font-size="10.00"> &#45;layoutGenerator_</text>
</g>
<!-- Node14 -->
<g id="node14" class="node"><title>Node14</title>
<polygon fill="white" stroke="#bfbfbf" points="0,-744.5 0,-801.5 116,-801.5 116,-744.5 0,-744.5"/>
<text text-anchor="middle" x="58" y="-789.5" font-family="Helvetica,sans-Serif" font-size="10.00">std::vector&lt; TileType &gt;</text>
<polyline fill="none" stroke="#bfbfbf" points="0,-782.5 116,-782.5 "/>
<text text-anchor="middle" x="58" y="-770.5" font-family="Helvetica,sans-Serif" font-size="10.00"> </text>
<polyline fill="none" stroke="#bfbfbf" points="0,-763.5 116,-763.5 "/>
<text text-anchor="middle" x="58" y="-751.5" font-family="Helvetica,sans-Serif" font-size="10.00"> </text>
</g>
<!-- Node14&#45;&gt;Node2 -->
<g id="edge19" class="edge"><title>Node14&#45;&gt;Node2</title>
<path fill="none" stroke="#404040" d="M79.5662,-744.472C100.662,-718.412 134.428,-678.931 168,-649 209.058,-612.395 259.114,-576.64 300.382,-549.171"/>
<polygon fill="none" stroke="#404040" points="300.39,-549.166 303.19,-542.521 310.401,-542.55 307.601,-549.195 300.39,-549.166"/>
<text text-anchor="middle" x="183" y="-663" font-family="Helvetica,sans-Serif" font-size="10.00"> &#45;tiles_</text>
</g>
<!-- Node15 -->
<g id="node15" class="node"><title>Node15</title>
<polygon fill="white" stroke="#bfbfbf" points="31.5,-904.5 31.5,-961.5 84.5,-961.5 84.5,-904.5 31.5,-904.5"/>
<text text-anchor="middle" x="58" y="-949.5" font-family="Helvetica,sans-Serif" font-size="10.00">TileType</text>
<polyline fill="none" stroke="#bfbfbf" points="31.5,-942.5 84.5,-942.5 "/>
<text text-anchor="middle" x="58" y="-930.5" font-family="Helvetica,sans-Serif" font-size="10.00"> </text>
<polyline fill="none" stroke="#bfbfbf" points="31.5,-923.5 84.5,-923.5 "/>
<text text-anchor="middle" x="58" y="-911.5" font-family="Helvetica,sans-Serif" font-size="10.00"> </text>
</g>
<!-- Node15&#45;&gt;Node14 -->
<g id="edge20" class="edge"><title>Node15&#45;&gt;Node14</title>
<path fill="none" stroke="#404040" d="M58,-904.479C58,-879.484 58,-842.311 58,-814.029"/>
<polygon fill="none" stroke="#404040" points="58.0001,-813.736 54,-807.736 58,-801.736 62,-807.736 58.0001,-813.736"/>
<text text-anchor="middle" x="82.5" y="-872.5" font-family="Helvetica,sans-Serif" font-size="10.00"> +elements</text>
</g>
</g>
</svg>
        <g id="navigator" transform="translate(0 0)" fill="#404254">
                <rect fill="#f2f5e9" fill-opacity="0.5" stroke="#606060" stroke-width=".5" x="0" y="0" width="60" height="60"/>
                <use id="zoomplus" xlink:href="#zoomPlus" x="17" y="9" onmousedown="handleZoom(evt,'in')"/>
                <use id="zoomminus" xlink:href="#zoomMin" x="42" y="9" onmousedown="handleZoom(evt,'out')"/>
                <use id="reset" xlink:href="#resetDef" x="30" y="36" onmousedown="handleReset()"/>
                <g id="arrowUp" xlink:href="#dirArrow" transform="translate(30 24)" onmousedown="handlePan(0,-1)">
                  <use xlink:href="#rim" fill="#404040">
                        <set attributeName="fill" to="#808080" begin="arrowUp.mouseover" end="arrowUp.mouseout"/>
                  </use>
                  <path fill="none" stroke="white" stroke-width="1.5" d="M0,-3.0v7 M-2.5,-0.5L0,-3.0L2.5,-0.5"/>
                </g>
                <g id="arrowRight" xlink:href="#dirArrow" transform="rotate(90) translate(36 -43)" onmousedown="handlePan(1,0)">
                  <use xlink:href="#rim" fill="#404040">
                        <set attributeName="fill" to="#808080" begin="arrowRight.mouseover" end="arrowRight.mouseout"/>
                  </use>
                  <path fill="none" stroke="white" stroke-width="1.5" d="M0,-3.0v7 M-2.5,-0.5L0,-3.0L2.5,-0.5"/>
                </g>
                <g id="arrowDown" xlink:href="#dirArrow" transform="rotate(180) translate(-30 -48)" onmousedown="handlePan(0,1)">
                  <use xlink:href="#rim" fill="#404040">
                        <set attributeName="fill" to="#808080" begin="arrowDown.mouseover" end="arrowDown.mouseout"/>
                  </use>
                  <path fill="none" stroke="white" stroke-width="1.5" d="M0,-3.0v7 M-2.5,-0.5L0,-3.0L2.5,-0.5"/>
                </g>
                <g id="arrowLeft" xlink:href="#dirArrow" transform="rotate(270) translate(-36 17)" onmousedown="handlePan(-1,0)">
                  <use xlink:href="#rim" fill="#404040">
                        <set attributeName="fill" to="#808080" begin="arrowLeft.mouseover" end="arrowLeft.mouseout"/>
                  </use>
                  <path fill="none" stroke="white" stroke-width="1.5" d="M0,-3.0v7 M-2.5,-0.5L0,-3.0L2.5,-0.5"/>
                </g>
        </g>
        <svg viewBox="0 0 15 15" width="100%" height="30px" preserveAspectRatio="xMaxYMin meet">
         <g id="arrow_out" transform="scale(0.3 0.3)">
          <a xlink:href="class_model_1_1park_space_inserter__coll__graph_org.svg" target="_base">
           <rect id="button" ry="5" rx="5" y="6" x="6" height="38" width="38"
                fill="#f2f5e9" fill-opacity="0.5" stroke="#606060" stroke-width="1.0"/>
           <path id="arrow"
             d="M 11.500037,31.436501 C 11.940474,20.09759 22.043105,11.32322 32.158766,21.979434 L 37.068811,17.246167 C 37.068811,17.246167 37.088388,32 37.088388,32 L 22.160133,31.978069 C 22.160133,31.978069 26.997745,27.140456 26.997745,27.140456 C 18.528582,18.264221 13.291696,25.230495 11.500037,31.436501 z"
             style="fill:#404040;"/>
          </a>
         </g>
        </svg>
</svg>
