<?xml version="1.0" encoding="UTF-8" standalone="no"?>
<!DOCTYPE svg PUBLIC "-//W3C//DTD SVG 1.1//EN"
 "http://www.w3.org/Graphics/SVG/1.1/DTD/svg11.dtd">
<!-- Generated by graphviz version 2.38.0 (20140413.2041)
 -->
<!-- Title: View::ActionSceneFeet Pages: 1 -->
<svg width="391pt" height="226pt"
 viewBox="0.00 0.00 391.00 226.00" xmlns="http://www.w3.org/2000/svg" xmlns:xlink="http://www.w3.org/1999/xlink">
<g id="graph0" class="graph" transform="scale(1 1) rotate(0) translate(4 222)">
<title>View::ActionSceneFeet</title>
<polygon fill="white" stroke="none" points="-4,4 -4,-222 387,-222 387,4 -4,4"/>
<!-- Node2 -->
<g id="node1" class="node"><title>Node2</title>
<polygon fill="#bfbfbf" stroke="black" points="134,-0.5 134,-101.5 253,-101.5 253,-0.5 134,-0.5"/>
<text text-anchor="middle" x="193.5" y="-89.5" font-family="Helvetica,sans-Serif" font-size="10.00">View::ActionSceneFeet</text>
<polyline fill="none" stroke="black" points="134,-82.5 253,-82.5 "/>
<text text-anchor="middle" x="193.5" y="-70.5" font-family="Helvetica,sans-Serif" font-size="10.00"> </text>
<polyline fill="none" stroke="black" points="134,-63.5 253,-63.5 "/>
<text text-anchor="start" x="142" y="-51.5" font-family="Helvetica,sans-Serif" font-size="10.00">+ ActionSceneFeet()</text>
<text text-anchor="start" x="142" y="-40.5" font-family="Helvetica,sans-Serif" font-size="10.00">+ ~ActionSceneFeet()</text>
<text text-anchor="start" x="142" y="-29.5" font-family="Helvetica,sans-Serif" font-size="10.00">+ setPosition()</text>
<text text-anchor="start" x="142" y="-18.5" font-family="Helvetica,sans-Serif" font-size="10.00">+ setRunning()</text>
<text text-anchor="start" x="142" y="-7.5" font-family="Helvetica,sans-Serif" font-size="10.00">+ nextFrame()</text>
</g>
<!-- Node3 -->
<g id="node2" class="node"><title>Node3</title>
<g id="a_node2"><a xlink:href="class_q_graphics_pixmap_item.html" target="_top" xlink:title="{QGraphicsPixmapItem\n||}">
<polygon fill="white" stroke="black" points="0,-160.5 0,-217.5 115,-217.5 115,-160.5 0,-160.5"/>
<text text-anchor="middle" x="57.5" y="-205.5" font-family="Helvetica,sans-Serif" font-size="10.00">QGraphicsPixmapItem</text>
<polyline fill="none" stroke="black" points="0,-198.5 115,-198.5 "/>
<text text-anchor="middle" x="57.5" y="-186.5" font-family="Helvetica,sans-Serif" font-size="10.00"> </text>
<polyline fill="none" stroke="black" points="0,-179.5 115,-179.5 "/>
<text text-anchor="middle" x="57.5" y="-167.5" font-family="Helvetica,sans-Serif" font-size="10.00"> </text>
</a>
</g>
</g>
<!-- Node3&#45;&gt;Node2 -->
<g id="edge1" class="edge"><title>Node3&#45;&gt;Node2</title>
<path fill="none" stroke="midnightblue" d="M92.4155,-153.084C108.022,-137.478 126.703,-118.797 143.736,-101.764"/>
<polygon fill="none" stroke="midnightblue" points="89.6178,-150.932 85.0216,-160.478 94.5676,-155.882 89.6178,-150.932"/>
</g>
<!-- Node4 -->
<g id="node3" class="node"><title>Node4</title>
<polygon fill="white" stroke="#bfbfbf" points="133,-160.5 133,-217.5 162,-217.5 162,-160.5 133,-160.5"/>
<text text-anchor="middle" x="147.5" y="-205.5" font-family="Helvetica,sans-Serif" font-size="10.00">int</text>
<polyline fill="none" stroke="#bfbfbf" points="133,-198.5 162,-198.5 "/>
<text text-anchor="middle" x="147.5" y="-186.5" font-family="Helvetica,sans-Serif" font-size="10.00"> </text>
<polyline fill="none" stroke="#bfbfbf" points="133,-179.5 162,-179.5 "/>
<text text-anchor="middle" x="147.5" y="-167.5" font-family="Helvetica,sans-Serif" font-size="10.00"> </text>
</g>
<!-- Node4&#45;&gt;Node2 -->
<g id="edge2" class="edge"><title>Node4&#45;&gt;Node2</title>
<path fill="none" stroke="#404040" d="M144.414,-160.314C143.894,-147.751 144.527,-132.86 148.5,-120 149.251,-117.57 150.118,-115.145 151.082,-112.738"/>
<polygon fill="none" stroke="#404040" points="151.177,-112.532 150.067,-105.407 156.217,-101.642 157.327,-108.767 151.177,-112.532"/>
<text text-anchor="middle" x="183.5" y="-128.5" font-family="Helvetica,sans-Serif" font-size="10.00"> &#45;frameCounter_</text>
</g>
<!-- Node5 -->
<g id="node4" class="node"><title>Node5</title>
<polygon fill="white" stroke="#bfbfbf" points="223,-160.5 223,-217.5 258,-217.5 258,-160.5 223,-160.5"/>
<text text-anchor="middle" x="240.5" y="-205.5" font-family="Helvetica,sans-Serif" font-size="10.00">bool</text>
<polyline fill="none" stroke="#bfbfbf" points="223,-198.5 258,-198.5 "/>
<text text-anchor="middle" x="240.5" y="-186.5" font-family="Helvetica,sans-Serif" font-size="10.00"> </text>
<polyline fill="none" stroke="#bfbfbf" points="223,-179.5 258,-179.5 "/>
<text text-anchor="middle" x="240.5" y="-167.5" font-family="Helvetica,sans-Serif" font-size="10.00"> </text>
</g>
<!-- Node5&#45;&gt;Node2 -->
<g id="edge3" class="edge"><title>Node5&#45;&gt;Node2</title>
<path fill="none" stroke="#404040" d="M231.861,-160.456C227.901,-148.055 223.078,-133.253 218.5,-120 217.73,-117.771 216.939,-115.503 216.133,-113.215"/>
<polygon fill="none" stroke="#404040" points="216.052,-112.987 210.27,-108.679 212.023,-101.684 217.805,-105.992 216.052,-112.987"/>
<text text-anchor="middle" x="246" y="-128.5" font-family="Helvetica,sans-Serif" font-size="10.00"> &#45;running_</text>
</g>
<!-- Node6 -->
<g id="node5" class="node"><title>Node6</title>
<polygon fill="white" stroke="#bfbfbf" points="276,-160.5 276,-217.5 383,-217.5 383,-160.5 276,-160.5"/>
<text text-anchor="middle" x="329.5" y="-205.5" font-family="Helvetica,sans-Serif" font-size="10.00">vector&lt; QPixmap * &gt;</text>
<polyline fill="none" stroke="#bfbfbf" points="276,-198.5 383,-198.5 "/>
<text text-anchor="middle" x="329.5" y="-186.5" font-family="Helvetica,sans-Serif" font-size="10.00"> </text>
<polyline fill="none" stroke="#bfbfbf" points="276,-179.5 383,-179.5 "/>
<text text-anchor="middle" x="329.5" y="-167.5" font-family="Helvetica,sans-Serif" font-size="10.00"> </text>
</g>
<!-- Node6&#45;&gt;Node2 -->
<g id="edge4" class="edge"><title>Node6&#45;&gt;Node2</title>
<path fill="none" stroke="#404040" d="M307.518,-160.383C297.028,-147.696 284.049,-132.686 271.5,-120 268.183,-116.647 264.727,-113.267 261.194,-109.901"/>
<polygon fill="none" stroke="#404040" points="261.06,-109.775 253.945,-108.602 252.291,-101.583 259.406,-102.757 261.06,-109.775"/>
<text text-anchor="middle" x="322" y="-134" font-family="Helvetica,sans-Serif" font-size="10.00"> &#45;runFrames_</text>
<text text-anchor="middle" x="322" y="-123" font-family="Helvetica,sans-Serif" font-size="10.00">&#45;walkFrames_</text>
</g>
</g>
</svg>
