<?xml version="1.0" encoding="UTF-8" standalone="no"?>
<!DOCTYPE svg PUBLIC "-//W3C//DTD SVG 1.1//EN"
 "http://www.w3.org/Graphics/SVG/1.1/DTD/svg11.dtd">
<!-- Generated by graphviz version 2.38.0 (20140413.2041)
 -->
<!-- Title: View::ActionScenePC Pages: 1 -->
<svg width="1246pt" height="634pt"
 viewBox="0.00 0.00 1245.50 634.00" xmlns="http://www.w3.org/2000/svg" xmlns:xlink="http://www.w3.org/1999/xlink">
<g id="graph0" class="graph" transform="scale(1 1) rotate(0) translate(4 630)">
<title>View::ActionScenePC</title>
<polygon fill="white" stroke="none" points="-4,4 -4,-630 1241.5,-630 1241.5,4 -4,4"/>
<!-- Node3 -->
<g id="node1" class="node"><title>Node3</title>
<polygon fill="#bfbfbf" stroke="black" points="468,-0.5 468,-200.5 581,-200.5 581,-0.5 468,-0.5"/>
<text text-anchor="middle" x="524.5" y="-188.5" font-family="Helvetica,sans-Serif" font-size="10.00">View::ActionScenePC</text>
<polyline fill="none" stroke="black" points="468,-181.5 581,-181.5 "/>
<text text-anchor="middle" x="524.5" y="-169.5" font-family="Helvetica,sans-Serif" font-size="10.00"> </text>
<polyline fill="none" stroke="black" points="468,-162.5 581,-162.5 "/>
<text text-anchor="start" x="476" y="-150.5" font-family="Helvetica,sans-Serif" font-size="10.00">+ ActionScenePC()</text>
<text text-anchor="start" x="476" y="-139.5" font-family="Helvetica,sans-Serif" font-size="10.00">+ ~ActionScenePC()</text>
<text text-anchor="start" x="476" y="-128.5" font-family="Helvetica,sans-Serif" font-size="10.00">+ getX()</text>
<text text-anchor="start" x="476" y="-117.5" font-family="Helvetica,sans-Serif" font-size="10.00">+ getY()</text>
<text text-anchor="start" x="476" y="-106.5" font-family="Helvetica,sans-Serif" font-size="10.00">+ rotate()</text>
<text text-anchor="start" x="476" y="-95.5" font-family="Helvetica,sans-Serif" font-size="10.00">+ moveToPoint()</text>
<text text-anchor="start" x="476" y="-84.5" font-family="Helvetica,sans-Serif" font-size="10.00">+ addFeet()</text>
<text text-anchor="start" x="476" y="-73.5" font-family="Helvetica,sans-Serif" font-size="10.00">+ rotateFeet()</text>
<text text-anchor="start" x="476" y="-62.5" font-family="Helvetica,sans-Serif" font-size="10.00">+ removeFeet()</text>
<text text-anchor="start" x="476" y="-51.5" font-family="Helvetica,sans-Serif" font-size="10.00">+ setDead()</text>
<text text-anchor="start" x="476" y="-40.5" font-family="Helvetica,sans-Serif" font-size="10.00">and 20 more...</text>
<text text-anchor="start" x="476" y="-29.5" font-family="Helvetica,sans-Serif" font-size="10.00">+ step()</text>
<text text-anchor="start" x="476" y="-18.5" font-family="Helvetica,sans-Serif" font-size="10.00">+ shoot()</text>
<text text-anchor="start" x="476" y="-7.5" font-family="Helvetica,sans-Serif" font-size="10.00">+ hideMuzzle()</text>
</g>
<!-- Node4 -->
<g id="node2" class="node"><title>Node4</title>
<g id="a_node2"><a xlink:href="class_q_object.html" target="_top" xlink:title="{QObject\n||}">
<polygon fill="white" stroke="black" points="0,-325.5 0,-382.5 53,-382.5 53,-325.5 0,-325.5"/>
<text text-anchor="middle" x="26.5" y="-370.5" font-family="Helvetica,sans-Serif" font-size="10.00">QObject</text>
<polyline fill="none" stroke="black" points="0,-363.5 53,-363.5 "/>
<text text-anchor="middle" x="26.5" y="-351.5" font-family="Helvetica,sans-Serif" font-size="10.00"> </text>
<polyline fill="none" stroke="black" points="0,-344.5 53,-344.5 "/>
<text text-anchor="middle" x="26.5" y="-332.5" font-family="Helvetica,sans-Serif" font-size="10.00"> </text>
</a>
</g>
</g>
<!-- Node4&#45;&gt;Node3 -->
<g id="edge1" class="edge"><title>Node4&#45;&gt;Node3</title>
<path fill="none" stroke="midnightblue" d="M41.6207,-315.972C55.8501,-285.624 79.993,-243.776 113.5,-219 221.804,-138.917 383.129,-113.327 467.853,-105.215"/>
<polygon fill="none" stroke="midnightblue" points="38.2944,-314.832 37.3498,-325.385 44.669,-317.725 38.2944,-314.832"/>
</g>
<!-- Node5 -->
<g id="node3" class="node"><title>Node5</title>
<g id="a_node3"><a xlink:href="class_q_graphics_pixmap_item.html" target="_top" xlink:title="{QGraphicsPixmapItem\n||}">
<polygon fill="white" stroke="black" points="345,-463.5 345,-520.5 460,-520.5 460,-463.5 345,-463.5"/>
<text text-anchor="middle" x="402.5" y="-508.5" font-family="Helvetica,sans-Serif" font-size="10.00">QGraphicsPixmapItem</text>
<polyline fill="none" stroke="black" points="345,-501.5 460,-501.5 "/>
<text text-anchor="middle" x="402.5" y="-489.5" font-family="Helvetica,sans-Serif" font-size="10.00"> </text>
<polyline fill="none" stroke="black" points="345,-482.5 460,-482.5 "/>
<text text-anchor="middle" x="402.5" y="-470.5" font-family="Helvetica,sans-Serif" font-size="10.00"> </text>
</a>
</g>
</g>
<!-- Node5&#45;&gt;Node3 -->
<g id="edge2" class="edge"><title>Node5&#45;&gt;Node3</title>
<path fill="none" stroke="midnightblue" d="M386.526,-453.969C380.905,-439.052 375.295,-421.498 372.5,-405 358.547,-322.64 354.87,-289.611 399.5,-219 417.482,-190.55 443.944,-164.323 467.896,-143.899"/>
<polygon fill="none" stroke="midnightblue" points="383.293,-455.312 390.191,-463.353 389.813,-452.765 383.293,-455.312"/>
</g>
<!-- Node11 -->
<g id="node9" class="node"><title>Node11</title>
<g id="a_node9"><a xlink:href="class_view_1_1_action_scene_feet.html" target="_top" xlink:title="{View::ActionSceneFeet\n||+ ActionSceneFeet()\l+ ~ActionSceneFeet()\l+ setPosition()\l+ setRunning()\l+ nextFrame()\l}">
<polygon fill="white" stroke="black" points="607,-303.5 607,-404.5 726,-404.5 726,-303.5 607,-303.5"/>
<text text-anchor="middle" x="666.5" y="-392.5" font-family="Helvetica,sans-Serif" font-size="10.00">View::ActionSceneFeet</text>
<polyline fill="none" stroke="black" points="607,-385.5 726,-385.5 "/>
<text text-anchor="middle" x="666.5" y="-373.5" font-family="Helvetica,sans-Serif" font-size="10.00"> </text>
<polyline fill="none" stroke="black" points="607,-366.5 726,-366.5 "/>
<text text-anchor="start" x="615" y="-354.5" font-family="Helvetica,sans-Serif" font-size="10.00">+ ActionSceneFeet()</text>
<text text-anchor="start" x="615" y="-343.5" font-family="Helvetica,sans-Serif" font-size="10.00">+ ~ActionSceneFeet()</text>
<text text-anchor="start" x="615" y="-332.5" font-family="Helvetica,sans-Serif" font-size="10.00">+ setPosition()</text>
<text text-anchor="start" x="615" y="-321.5" font-family="Helvetica,sans-Serif" font-size="10.00">+ setRunning()</text>
<text text-anchor="start" x="615" y="-310.5" font-family="Helvetica,sans-Serif" font-size="10.00">+ nextFrame()</text>
</a>
</g>
</g>
<!-- Node5&#45;&gt;Node11 -->
<g id="edge9" class="edge"><title>Node5&#45;&gt;Node11</title>
<path fill="none" stroke="midnightblue" d="M469.941,-463.775C506.882,-448.049 553.041,-427.052 592.5,-405 597.237,-402.353 602.062,-399.494 606.863,-396.533"/>
<polygon fill="none" stroke="midnightblue" points="468.119,-460.745 460.27,-467.862 470.844,-467.193 468.119,-460.745"/>
</g>
<!-- Node6 -->
<g id="node4" class="node"><title>Node6</title>
<polygon fill="white" stroke="#bfbfbf" points="212,-325.5 212,-382.5 257,-382.5 257,-325.5 212,-325.5"/>
<text text-anchor="middle" x="234.5" y="-370.5" font-family="Helvetica,sans-Serif" font-size="10.00">double</text>
<polyline fill="none" stroke="#bfbfbf" points="212,-363.5 257,-363.5 "/>
<text text-anchor="middle" x="234.5" y="-351.5" font-family="Helvetica,sans-Serif" font-size="10.00"> </text>
<polyline fill="none" stroke="#bfbfbf" points="212,-344.5 257,-344.5 "/>
<text text-anchor="middle" x="234.5" y="-332.5" font-family="Helvetica,sans-Serif" font-size="10.00"> </text>
</g>
<!-- Node6&#45;&gt;Node3 -->
<g id="edge3" class="edge"><title>Node6&#45;&gt;Node3</title>
<path fill="none" stroke="#404040" d="M226.434,-325.488C219.661,-296.407 214.147,-250.478 235.5,-219 284.692,-146.484 387.132,-118.696 455.871,-108.064"/>
<polygon fill="none" stroke="#404040" points="455.993,-108.047 461.358,-103.229 467.869,-106.329 462.504,-111.147 455.993,-108.047"/>
<text text-anchor="middle" x="291" y="-271.5" font-family="Helvetica,sans-Serif" font-size="10.00"> &#45;stepSize_</text>
<text text-anchor="start" x="235.5" y="-260.5" font-family="Helvetica,sans-Serif" font-size="10.00">&#45;currentWeaponAccuracy</text>
<text text-anchor="middle" x="291" y="-249.5" font-family="Helvetica,sans-Serif" font-size="10.00">_</text>
<text text-anchor="middle" x="291" y="-238.5" font-family="Helvetica,sans-Serif" font-size="10.00">&#45;dy_</text>
<text text-anchor="middle" x="291" y="-227.5" font-family="Helvetica,sans-Serif" font-size="10.00">&#45;dx_</text>
</g>
<!-- Node7 -->
<g id="node5" class="node"><title>Node7</title>
<polygon fill="white" stroke="#bfbfbf" points="71.5,-325.5 71.5,-382.5 191.5,-382.5 191.5,-325.5 71.5,-325.5"/>
<text text-anchor="middle" x="131.5" y="-370.5" font-family="Helvetica,sans-Serif" font-size="10.00">std::vector&lt; QPixmap &gt;</text>
<polyline fill="none" stroke="#bfbfbf" points="71.5,-363.5 191.5,-363.5 "/>
<text text-anchor="middle" x="131.5" y="-351.5" font-family="Helvetica,sans-Serif" font-size="10.00"> </text>
<polyline fill="none" stroke="#bfbfbf" points="71.5,-344.5 191.5,-344.5 "/>
<text text-anchor="middle" x="131.5" y="-332.5" font-family="Helvetica,sans-Serif" font-size="10.00"> </text>
</g>
<!-- Node7&#45;&gt;Node3 -->
<g id="edge4" class="edge"><title>Node7&#45;&gt;Node3</title>
<path fill="none" stroke="#404040" d="M123.179,-325.317C116.15,-295.878 110.502,-249.448 133.5,-219 172.448,-167.435 354.273,-129.716 455.685,-112.279"/>
<polygon fill="none" stroke="#404040" points="455.807,-112.258 461.055,-107.312 467.639,-110.253 462.391,-115.199 455.807,-112.258"/>
<text text-anchor="middle" x="175" y="-255" font-family="Helvetica,sans-Serif" font-size="10.00"> &#45;weaponPixmaps_</text>
<text text-anchor="middle" x="175" y="-244" font-family="Helvetica,sans-Serif" font-size="10.00">&#45;muzzlePixmaps_</text>
</g>
<!-- Node8 -->
<g id="node6" class="node"><title>Node8</title>
<polygon fill="white" stroke="#bfbfbf" points="103,-463.5 103,-520.5 160,-520.5 160,-463.5 103,-463.5"/>
<text text-anchor="middle" x="131.5" y="-508.5" font-family="Helvetica,sans-Serif" font-size="10.00">QPixmap</text>
<polyline fill="none" stroke="#bfbfbf" points="103,-501.5 160,-501.5 "/>
<text text-anchor="middle" x="131.5" y="-489.5" font-family="Helvetica,sans-Serif" font-size="10.00"> </text>
<polyline fill="none" stroke="#bfbfbf" points="103,-482.5 160,-482.5 "/>
<text text-anchor="middle" x="131.5" y="-470.5" font-family="Helvetica,sans-Serif" font-size="10.00"> </text>
</g>
<!-- Node8&#45;&gt;Node7 -->
<g id="edge5" class="edge"><title>Node8&#45;&gt;Node7</title>
<path fill="none" stroke="#404040" d="M131.5,-463.478C131.5,-443.792 131.5,-416.99 131.5,-394.953"/>
<polygon fill="none" stroke="#404040" points="131.5,-394.947 127.5,-388.948 131.5,-382.947 135.5,-388.947 131.5,-394.947"/>
<text text-anchor="middle" x="156" y="-431.5" font-family="Helvetica,sans-Serif" font-size="10.00"> +elements</text>
</g>
<!-- Node9 -->
<g id="node7" class="node"><title>Node9</title>
<polygon fill="white" stroke="#bfbfbf" points="382,-325.5 382,-382.5 435,-382.5 435,-325.5 382,-325.5"/>
<text text-anchor="middle" x="408.5" y="-370.5" font-family="Helvetica,sans-Serif" font-size="10.00">QPointF</text>
<polyline fill="none" stroke="#bfbfbf" points="382,-363.5 435,-363.5 "/>
<text text-anchor="middle" x="408.5" y="-351.5" font-family="Helvetica,sans-Serif" font-size="10.00"> </text>
<polyline fill="none" stroke="#bfbfbf" points="382,-344.5 435,-344.5 "/>
<text text-anchor="middle" x="408.5" y="-332.5" font-family="Helvetica,sans-Serif" font-size="10.00"> </text>
</g>
<!-- Node9&#45;&gt;Node3 -->
<g id="edge6" class="edge"><title>Node9&#45;&gt;Node3</title>
<path fill="none" stroke="#404040" d="M404.616,-325.347C401.884,-297.365 400.938,-253.437 415.5,-219 425.371,-195.654 442.019,-174.045 459.371,-155.893"/>
<polygon fill="none" stroke="#404040" points="459.472,-155.791 460.854,-148.714 467.919,-147.267 466.536,-154.345 459.472,-155.791"/>
<text text-anchor="middle" x="443" y="-260.5" font-family="Helvetica,sans-Serif" font-size="10.00"> &#45;moveDest_</text>
<text text-anchor="middle" x="443" y="-249.5" font-family="Helvetica,sans-Serif" font-size="10.00">&#45;prevPos_</text>
<text text-anchor="middle" x="443" y="-238.5" font-family="Helvetica,sans-Serif" font-size="10.00">&#45;targetPt_</text>
</g>
<!-- Node10 -->
<g id="node8" class="node"><title>Node10</title>
<polygon fill="white" stroke="#bfbfbf" points="453.5,-325.5 453.5,-382.5 503.5,-382.5 503.5,-325.5 453.5,-325.5"/>
<text text-anchor="middle" x="478.5" y="-370.5" font-family="Helvetica,sans-Serif" font-size="10.00">QString</text>
<polyline fill="none" stroke="#bfbfbf" points="453.5,-363.5 503.5,-363.5 "/>
<text text-anchor="middle" x="478.5" y="-351.5" font-family="Helvetica,sans-Serif" font-size="10.00"> </text>
<polyline fill="none" stroke="#bfbfbf" points="453.5,-344.5 503.5,-344.5 "/>
<text text-anchor="middle" x="478.5" y="-332.5" font-family="Helvetica,sans-Serif" font-size="10.00"> </text>
</g>
<!-- Node10&#45;&gt;Node3 -->
<g id="edge7" class="edge"><title>Node10&#45;&gt;Node3</title>
<path fill="none" stroke="#404040" d="M475.848,-325.262C473.906,-297.967 472.659,-255.234 479.5,-219 479.908,-216.84 480.353,-214.668 480.832,-212.489"/>
<polygon fill="none" stroke="#404040" points="480.843,-212.444 478.385,-205.665 483.697,-200.789 486.156,-207.568 480.843,-212.444"/>
<text text-anchor="middle" x="518.5" y="-249.5" font-family="Helvetica,sans-Serif" font-size="10.00"> &#45;currentWeapon_</text>
</g>
<!-- Node11&#45;&gt;Node3 -->
<g id="edge8" class="edge"><title>Node11&#45;&gt;Node3</title>
<path fill="none" stroke="#404040" d="M638.445,-303.312C623.559,-276.946 604.638,-243.434 586.511,-211.329"/>
<polygon fill="none" stroke="#404040" points="586.301,-210.957 579.868,-207.699 580.401,-200.507 586.834,-203.766 586.301,-210.957"/>
<text text-anchor="middle" x="639.5" y="-249.5" font-family="Helvetica,sans-Serif" font-size="10.00"> &#45;feet_</text>
</g>
<!-- Node12 -->
<g id="node10" class="node"><title>Node12</title>
<polygon fill="white" stroke="#bfbfbf" points="603.5,-463.5 603.5,-520.5 727.5,-520.5 727.5,-463.5 603.5,-463.5"/>
<text text-anchor="middle" x="665.5" y="-508.5" font-family="Helvetica,sans-Serif" font-size="10.00">std::vector&lt; QPixmap *&gt;</text>
<polyline fill="none" stroke="#bfbfbf" points="603.5,-501.5 727.5,-501.5 "/>
<text text-anchor="middle" x="665.5" y="-489.5" font-family="Helvetica,sans-Serif" font-size="10.00"> </text>
<polyline fill="none" stroke="#bfbfbf" points="603.5,-482.5 727.5,-482.5 "/>
<text text-anchor="middle" x="665.5" y="-470.5" font-family="Helvetica,sans-Serif" font-size="10.00"> </text>
</g>
<!-- Node12&#45;&gt;Node11 -->
<g id="edge10" class="edge"><title>Node12&#45;&gt;Node11</title>
<path fill="none" stroke="#404040" d="M665.702,-463.478C665.801,-450.057 665.924,-433.327 666.044,-417.055"/>
<polygon fill="none" stroke="#404040" points="666.046,-416.763 662.09,-410.734 666.134,-404.764 670.09,-410.793 666.046,-416.763"/>
<text text-anchor="middle" x="697" y="-437" font-family="Helvetica,sans-Serif" font-size="10.00"> &#45;runFrames_</text>
<text text-anchor="middle" x="697" y="-426" font-family="Helvetica,sans-Serif" font-size="10.00">&#45;walkFrames_</text>
</g>
<!-- Node13 -->
<g id="node11" class="node"><title>Node13</title>
<polygon fill="white" stroke="#bfbfbf" points="633.5,-568.5 633.5,-625.5 697.5,-625.5 697.5,-568.5 633.5,-568.5"/>
<text text-anchor="middle" x="665.5" y="-613.5" font-family="Helvetica,sans-Serif" font-size="10.00">QPixmap *</text>
<polyline fill="none" stroke="#bfbfbf" points="633.5,-606.5 697.5,-606.5 "/>
<text text-anchor="middle" x="665.5" y="-594.5" font-family="Helvetica,sans-Serif" font-size="10.00"> </text>
<polyline fill="none" stroke="#bfbfbf" points="633.5,-587.5 697.5,-587.5 "/>
<text text-anchor="middle" x="665.5" y="-575.5" font-family="Helvetica,sans-Serif" font-size="10.00"> </text>
</g>
<!-- Node13&#45;&gt;Node12 -->
<g id="edge11" class="edge"><title>Node13&#45;&gt;Node12</title>
<path fill="none" stroke="#404040" d="M665.5,-568.398C665.5,-557.545 665.5,-544.873 665.5,-533.049"/>
<polygon fill="none" stroke="#404040" points="665.5,-532.678 661.5,-526.678 665.5,-520.678 669.5,-526.678 665.5,-532.678"/>
<text text-anchor="middle" x="690" y="-542" font-family="Helvetica,sans-Serif" font-size="10.00"> +elements</text>
</g>
<!-- Node14 -->
<g id="node12" class="node"><title>Node14</title>
<polygon fill="white" stroke="#bfbfbf" points="541,-463.5 541,-520.5 570,-520.5 570,-463.5 541,-463.5"/>
<text text-anchor="middle" x="555.5" y="-508.5" font-family="Helvetica,sans-Serif" font-size="10.00">int</text>
<polyline fill="none" stroke="#bfbfbf" points="541,-501.5 570,-501.5 "/>
<text text-anchor="middle" x="555.5" y="-489.5" font-family="Helvetica,sans-Serif" font-size="10.00"> </text>
<polyline fill="none" stroke="#bfbfbf" points="541,-482.5 570,-482.5 "/>
<text text-anchor="middle" x="555.5" y="-470.5" font-family="Helvetica,sans-Serif" font-size="10.00"> </text>
</g>
<!-- Node14&#45;&gt;Node3 -->
<g id="edge15" class="edge"><title>Node14&#45;&gt;Node3</title>
<path fill="none" stroke="#404040" d="M552.657,-463.149C551.083,-446.331 549.291,-424.458 548.5,-405 546.66,-359.704 538.085,-347.121 548.5,-303 550.555,-294.295 555.445,-293.705 557.5,-285 564.239,-256.451 561.503,-248.059 557.5,-219 557.217,-216.944 556.907,-214.873 556.573,-212.791"/>
<polygon fill="none" stroke="#404040" points="556.537,-212.592 551.538,-207.396 554.412,-200.782 559.411,-205.979 556.537,-212.592"/>
<text text-anchor="middle" x="573" y="-357" font-family="Helvetica,sans-Serif" font-size="10.00"> &#45;fireDelay_</text>
<text text-anchor="middle" x="573" y="-346" font-family="Helvetica,sans-Serif" font-size="10.00">&#45;target_</text>
</g>
<!-- Node14&#45;&gt;Node11 -->
<g id="edge12" class="edge"><title>Node14&#45;&gt;Node11</title>
<path fill="none" stroke="#404040" d="M567.985,-463.258C574.408,-450.402 582.905,-435.288 592.5,-423 594.916,-419.906 597.479,-416.83 600.145,-413.794"/>
<polygon fill="none" stroke="#404040" points="600.276,-413.652 601.397,-406.528 608.404,-404.824 607.283,-411.947 600.276,-413.652"/>
<text text-anchor="middle" x="627.5" y="-431.5" font-family="Helvetica,sans-Serif" font-size="10.00"> &#45;frameCounter_</text>
</g>
<!-- Node15 -->
<g id="node13" class="node"><title>Node15</title>
<polygon fill="white" stroke="#bfbfbf" points="768,-463.5 768,-520.5 803,-520.5 803,-463.5 768,-463.5"/>
<text text-anchor="middle" x="785.5" y="-508.5" font-family="Helvetica,sans-Serif" font-size="10.00">bool</text>
<polyline fill="none" stroke="#bfbfbf" points="768,-501.5 803,-501.5 "/>
<text text-anchor="middle" x="785.5" y="-489.5" font-family="Helvetica,sans-Serif" font-size="10.00"> </text>
<polyline fill="none" stroke="#bfbfbf" points="768,-482.5 803,-482.5 "/>
<text text-anchor="middle" x="785.5" y="-470.5" font-family="Helvetica,sans-Serif" font-size="10.00"> </text>
</g>
<!-- Node15&#45;&gt;Node3 -->
<g id="edge17" class="edge"><title>Node15&#45;&gt;Node3</title>
<path fill="none" stroke="#404040" d="M792.415,-463.288C794.48,-450.853 795.494,-436.072 792.5,-423 779.277,-365.258 767.756,-352.02 734.5,-303 694.908,-244.64 636.066,-190.021 590.732,-152.411"/>
<polygon fill="none" stroke="#404040" points="590.551,-152.262 583.375,-151.547 581.275,-144.648 588.451,-145.363 590.551,-152.262"/>
<text text-anchor="start" x="788.5" y="-384.5" font-family="Helvetica,sans-Serif" font-size="10.00"> &#45;currentWeaponAmmo</text>
<text text-anchor="middle" x="839" y="-373.5" font-family="Helvetica,sans-Serif" font-size="10.00">_</text>
<text text-anchor="middle" x="839" y="-362.5" font-family="Helvetica,sans-Serif" font-size="10.00">&#45;onPoint_</text>
<text text-anchor="middle" x="839" y="-351.5" font-family="Helvetica,sans-Serif" font-size="10.00">&#45;shootingNow_</text>
<text text-anchor="middle" x="839" y="-340.5" font-family="Helvetica,sans-Serif" font-size="10.00">&#45;dead_</text>
<text text-anchor="middle" x="839" y="-329.5" font-family="Helvetica,sans-Serif" font-size="10.00">&#45;run_</text>
<text text-anchor="middle" x="839" y="-318.5" font-family="Helvetica,sans-Serif" font-size="10.00">&#45;inScene_</text>
</g>
<!-- Node15&#45;&gt;Node11 -->
<g id="edge13" class="edge"><title>Node15&#45;&gt;Node11</title>
<path fill="none" stroke="#404040" d="M767.865,-470.052C756.439,-456.547 741.19,-438.65 727.5,-423 724.89,-420.016 722.207,-416.966 719.492,-413.892"/>
<polygon fill="none" stroke="#404040" points="719.247,-413.616 712.274,-411.78 711.286,-404.637 718.26,-406.473 719.247,-413.616"/>
<text text-anchor="middle" x="767" y="-431.5" font-family="Helvetica,sans-Serif" font-size="10.00"> &#45;running_</text>
</g>
<!-- Node16 -->
<g id="node14" class="node"><title>Node16</title>
<polygon fill="white" stroke="#bfbfbf" points="904.5,-325.5 904.5,-382.5 1026.5,-382.5 1026.5,-325.5 904.5,-325.5"/>
<text text-anchor="middle" x="965.5" y="-370.5" font-family="Helvetica,sans-Serif" font-size="10.00">QGraphicsPixmapItem *</text>
<polyline fill="none" stroke="#bfbfbf" points="904.5,-363.5 1026.5,-363.5 "/>
<text text-anchor="middle" x="965.5" y="-351.5" font-family="Helvetica,sans-Serif" font-size="10.00"> </text>
<polyline fill="none" stroke="#bfbfbf" points="904.5,-344.5 1026.5,-344.5 "/>
<text text-anchor="middle" x="965.5" y="-332.5" font-family="Helvetica,sans-Serif" font-size="10.00"> </text>
</g>
<!-- Node16&#45;&gt;Node3 -->
<g id="edge14" class="edge"><title>Node16&#45;&gt;Node3</title>
<path fill="none" stroke="#404040" d="M936.469,-325.383C904.713,-296.213 851.394,-250.21 799.5,-219 732.797,-178.884 649.906,-145.456 592.664,-124.641"/>
<polygon fill="none" stroke="#404040" points="592.503,-124.583 585.503,-126.316 581.212,-120.52 588.212,-118.788 592.503,-124.583"/>
<text text-anchor="middle" x="923" y="-249.5" font-family="Helvetica,sans-Serif" font-size="10.00"> &#45;muzzleFlash_</text>
</g>
<!-- Node17 -->
<g id="node15" class="node"><title>Node17</title>
<polygon fill="white" stroke="#bfbfbf" points="1045,-325.5 1045,-382.5 1100,-382.5 1100,-325.5 1045,-325.5"/>
<text text-anchor="middle" x="1072.5" y="-370.5" font-family="Helvetica,sans-Serif" font-size="10.00">QTimer *</text>
<polyline fill="none" stroke="#bfbfbf" points="1045,-363.5 1100,-363.5 "/>
<text text-anchor="middle" x="1072.5" y="-351.5" font-family="Helvetica,sans-Serif" font-size="10.00"> </text>
<polyline fill="none" stroke="#bfbfbf" points="1045,-344.5 1100,-344.5 "/>
<text text-anchor="middle" x="1072.5" y="-332.5" font-family="Helvetica,sans-Serif" font-size="10.00"> </text>
</g>
<!-- Node17&#45;&gt;Node3 -->
<g id="edge16" class="edge"><title>Node17&#45;&gt;Node3</title>
<path fill="none" stroke="#404040" d="M1056.93,-325.31C1038.13,-294.504 1003.6,-245.578 960.5,-219 843.915,-147.105 683.378,-118.614 593.189,-107.77"/>
<polygon fill="none" stroke="#404040" points="593.13,-107.764 586.71,-111.047 581.209,-106.384 587.629,-103.1 593.13,-107.764"/>
<text text-anchor="middle" x="1060.5" y="-260.5" font-family="Helvetica,sans-Serif" font-size="10.00"> &#45;moveTimer_</text>
<text text-anchor="middle" x="1060.5" y="-249.5" font-family="Helvetica,sans-Serif" font-size="10.00">&#45;muzzleTimer_</text>
<text text-anchor="middle" x="1060.5" y="-238.5" font-family="Helvetica,sans-Serif" font-size="10.00">&#45;shootTimer_</text>
</g>
<!-- Node18 -->
<g id="node16" class="node"><title>Node18</title>
<polygon fill="white" stroke="#bfbfbf" points="1134.5,-325.5 1134.5,-382.5 1166.5,-382.5 1166.5,-325.5 1134.5,-325.5"/>
<text text-anchor="middle" x="1150.5" y="-370.5" font-family="Helvetica,sans-Serif" font-size="10.00">uint</text>
<polyline fill="none" stroke="#bfbfbf" points="1134.5,-363.5 1166.5,-363.5 "/>
<text text-anchor="middle" x="1150.5" y="-351.5" font-family="Helvetica,sans-Serif" font-size="10.00"> </text>
<polyline fill="none" stroke="#bfbfbf" points="1134.5,-344.5 1166.5,-344.5 "/>
<text text-anchor="middle" x="1150.5" y="-332.5" font-family="Helvetica,sans-Serif" font-size="10.00"> </text>
</g>
<!-- Node18&#45;&gt;Node3 -->
<g id="edge18" class="edge"><title>Node18&#45;&gt;Node3</title>
<path fill="none" stroke="#404040" d="M1147.12,-325.402C1141.85,-294.678 1128.67,-245.829 1096.5,-219 1020.53,-155.638 727.97,-120.597 593.197,-107.519"/>
<polygon fill="none" stroke="#404040" points="592.994,-107.5 586.64,-110.911 581.048,-106.358 587.401,-102.947 592.994,-107.5"/>
<text text-anchor="middle" x="1187.5" y="-277" font-family="Helvetica,sans-Serif" font-size="10.00"> &#45;id_</text>
<text text-anchor="start" x="1137.5" y="-266" font-family="Helvetica,sans-Serif" font-size="10.00">&#45;currentWeaponRateOf</text>
<text text-anchor="middle" x="1187.5" y="-255" font-family="Helvetica,sans-Serif" font-size="10.00">Fire_</text>
<text text-anchor="start" x="1137.5" y="-244" font-family="Helvetica,sans-Serif" font-size="10.00">&#45;currentWeaponRange</text>
<text text-anchor="middle" x="1187.5" y="-233" font-family="Helvetica,sans-Serif" font-size="10.00">_</text>
<text text-anchor="middle" x="1187.5" y="-222" font-family="Helvetica,sans-Serif" font-size="10.00">&#45;currentWeaponSlot_</text>
</g>
</g>
</svg>
