<?xml version="1.0" encoding="UTF-8" standalone="no"?>
<!DOCTYPE svg PUBLIC "-//W3C//DTD SVG 1.1//EN"
 "http://www.w3.org/Graphics/SVG/1.1/DTD/svg11.dtd">
<!-- Generated by graphviz version 2.38.0 (20140413.2041)
 -->
<!-- Title: Model::parkSpaceInserter::addParkingSpaces_ Pages: 1 -->
<!--zoomable 274 -->
<svg id="main" version="1.1" xmlns="http://www.w3.org/2000/svg" xmlns:xlink="http://www.w3.org/1999/xlink" xml:space="preserve" onload="init(evt)">
<style type="text/css"><![CDATA[
.edge:hover path { stroke: red; }
.edge:hover polygon { stroke: red; fill: red; }
]]></style>
<script type="text/javascript"><![CDATA[
var edges = document.getElementsByTagName('g');
if (edges && edges.length) {
  for (var i=0;i<edges.length;i++) {
    if (edges[i].id.substr(0,4)=='edge') {
      edges[i].setAttribute('class','edge');
    }
  }
}
]]></script>
        <defs>
                <circle id="rim" cx="0" cy="0" r="7"/>
                <circle id="rim2" cx="0" cy="0" r="3.5"/>
                <g id="zoomPlus">
                        <use xlink:href="#rim" fill="#404040">
                                <set attributeName="fill" to="#808080" begin="zoomplus.mouseover" end="zoomplus.mouseout"/>
                        </use>
                        <path d="M-4,0h8M0,-4v8" fill="none" stroke="white" stroke-width="1.5" pointer-events="none"/>
                </g>
                <g id="zoomMin">
                        <use xlink:href="#rim" fill="#404040">
                                <set attributeName="fill" to="#808080" begin="zoomminus.mouseover" end="zoomminus.mouseout"/>
                        </use>
                        <path d="M-4,0h8" fill="none" stroke="white" stroke-width="1.5" pointer-events="none"/>
                </g>
                <g id="dirArrow">
                        <path fill="none" stroke="white" stroke-width="1.5" d="M0,-3.0v7 M-2.5,-0.5L0,-3.0L2.5,-0.5"/>
                </g>
               <g id="resetDef">
                       <use xlink:href="#rim2" fill="#404040">
                               <set attributeName="fill" to="#808080" begin="reset.mouseover" end="reset.mouseout"/>
                       </use>
               </g>
        </defs>

<script type="text/javascript">
var viewWidth = 617;
var viewHeight = 274;
var sectionId = 'dynsection-1';
</script>
<script xlink:href="svgpan.js"/>
<svg id="graph" class="graph">
<g id="viewport">
<title>Model::parkSpaceInserter::addParkingSpaces_</title>
<polygon fill="white" stroke="none" points="-4,4 -4,-270 613,-270 613,4 -4,4"/>
<!-- Node2 -->
<g id="node1" class="node"><title>Node2</title>
<polygon fill="#bfbfbf" stroke="black" points="0,-120.5 0,-150.5 128,-150.5 128,-120.5 0,-120.5"/>
<text text-anchor="start" x="8" y="-138.5" font-family="Helvetica,sans-Serif" font-size="10.00">Model::parkSpaceInserter</text>
<text text-anchor="middle" x="64" y="-127.5" font-family="Helvetica,sans-Serif" font-size="10.00">::addParkingSpaces_</text>
</g>
<!-- Node3 -->
<g id="node2" class="node"><title>Node3</title>
<g id="a_node2"><a xlink:href="class_model_1_1map_generator.html#a918049786b708772ca97df76389955a7" target="_top" xlink:title="Model::mapGenerator\l::getClosestEdge">
<polygon fill="white" stroke="black" points="173,-235.5 173,-265.5 283,-265.5 283,-235.5 173,-235.5"/>
<text text-anchor="start" x="181" y="-253.5" font-family="Helvetica,sans-Serif" font-size="10.00">Model::mapGenerator</text>
<text text-anchor="middle" x="228" y="-242.5" font-family="Helvetica,sans-Serif" font-size="10.00">::getClosestEdge</text>
</a>
</g>
</g>
<!-- Node2&#45;&gt;Node3 -->
<g id="edge1" class="edge"><title>Node2&#45;&gt;Node3</title>
<path fill="none" stroke="midnightblue" d="M78.0245,-150.614C95.7462,-170.382 129.249,-205.019 164,-226.5 166.604,-228.11 169.334,-229.641 172.136,-231.093"/>
<polygon fill="midnightblue" stroke="midnightblue" points="170.737,-234.304 181.269,-235.46 173.757,-227.989 170.737,-234.304"/>
</g>
<!-- Node5 -->
<g id="node4" class="node"><title>Node5</title>
<g id="a_node4"><a xlink:href="class_model_1_1map_generator.html#aaac1161126a56490862e3b5fffffbded" target="_top" xlink:title="Model::mapGenerator\l::indexAt">
<polygon fill="white" stroke="black" points="340.5,-137.5 340.5,-167.5 450.5,-167.5 450.5,-137.5 340.5,-137.5"/>
<text text-anchor="start" x="348.5" y="-155.5" font-family="Helvetica,sans-Serif" font-size="10.00">Model::mapGenerator</text>
<text text-anchor="middle" x="395.5" y="-144.5" font-family="Helvetica,sans-Serif" font-size="10.00">::indexAt</text>
</a>
</g>
</g>
<!-- Node2&#45;&gt;Node5 -->
<g id="edge11" class="edge"><title>Node2&#45;&gt;Node5</title>
<path fill="none" stroke="midnightblue" d="M128.141,-138.758C186.138,-141.75 271.697,-146.164 330.091,-149.177"/>
<polygon fill="midnightblue" stroke="midnightblue" points="330.137,-152.684 340.304,-149.704 330.498,-145.693 330.137,-152.684"/>
</g>
<!-- Node7 -->
<g id="node6" class="node"><title>Node7</title>
<g id="a_node6"><a xlink:href="class_model_1_1park_space_inserter.html#a60ef5f3d1e5b3b726cc1ec9d4a200151" target="_top" xlink:title="Model::parkSpaceInserter\l::getWallTiles">
<polygon fill="white" stroke="black" points="164,-186.5 164,-216.5 292,-216.5 292,-186.5 164,-186.5"/>
<text text-anchor="start" x="172" y="-204.5" font-family="Helvetica,sans-Serif" font-size="10.00">Model::parkSpaceInserter</text>
<text text-anchor="middle" x="228" y="-193.5" font-family="Helvetica,sans-Serif" font-size="10.00">::getWallTiles</text>
</a>
</g>
</g>
<!-- Node2&#45;&gt;Node7 -->
<g id="edge5" class="edge"><title>Node2&#45;&gt;Node7</title>
<path fill="none" stroke="midnightblue" d="M102.166,-150.642C125.422,-160.116 155.576,-172.401 180.422,-182.524"/>
<polygon fill="midnightblue" stroke="midnightblue" points="179.425,-185.897 190.007,-186.429 182.066,-179.414 179.425,-185.897"/>
</g>
<!-- Node9 -->
<g id="node8" class="node"><title>Node9</title>
<g id="a_node8"><a xlink:href="class_model_1_1map_generator.html#af153f95aea5145100546ad86ac4b9d02" target="_top" xlink:title="Model::mapGenerator\l::indexToX">
<polygon fill="white" stroke="black" points="173,-49.5 173,-79.5 283,-79.5 283,-49.5 173,-49.5"/>
<text text-anchor="start" x="181" y="-67.5" font-family="Helvetica,sans-Serif" font-size="10.00">Model::mapGenerator</text>
<text text-anchor="middle" x="228" y="-56.5" font-family="Helvetica,sans-Serif" font-size="10.00">::indexToX</text>
</a>
</g>
</g>
<!-- Node2&#45;&gt;Node9 -->
<g id="edge12" class="edge"><title>Node2&#45;&gt;Node9</title>
<path fill="none" stroke="midnightblue" d="M96.4483,-120.328C115.805,-111.129 141.194,-99.3137 164,-89.5 168.677,-87.4876 173.572,-85.4413 178.478,-83.4301"/>
<polygon fill="midnightblue" stroke="midnightblue" points="179.919,-86.6228 187.873,-79.6238 177.291,-80.135 179.919,-86.6228"/>
</g>
<!-- Node10 -->
<g id="node9" class="node"><title>Node10</title>
<g id="a_node9"><a xlink:href="class_model_1_1map_generator.html#a73020896792ce1a6aa4dd0ce2b9c5caf" target="_top" xlink:title="Model::mapGenerator\l::indexToY">
<polygon fill="white" stroke="black" points="173,-0.5 173,-30.5 283,-30.5 283,-0.5 173,-0.5"/>
<text text-anchor="start" x="181" y="-18.5" font-family="Helvetica,sans-Serif" font-size="10.00">Model::mapGenerator</text>
<text text-anchor="middle" x="228" y="-7.5" font-family="Helvetica,sans-Serif" font-size="10.00">::indexToY</text>
</a>
</g>
</g>
<!-- Node2&#45;&gt;Node10 -->
<g id="edge13" class="edge"><title>Node2&#45;&gt;Node10</title>
<path fill="none" stroke="midnightblue" d="M77.3318,-120.456C94.7834,-99.9845 128.532,-63.2976 164,-40.5 166.96,-38.5972 170.089,-36.7978 173.306,-35.1036"/>
<polygon fill="midnightblue" stroke="midnightblue" points="175.08,-38.1326 182.539,-30.609 172.016,-31.8386 175.08,-38.1326"/>
</g>
<!-- Node11 -->
<g id="node10" class="node"><title>Node11</title>
<g id="a_node10"><a xlink:href="class_model_1_1map_generator.html#a180f1510b8d7eb4af5dc919eeaddfa69" target="_top" xlink:title="Model::mapGenerator\l::setTile">
<polygon fill="white" stroke="black" points="173,-98.5 173,-128.5 283,-128.5 283,-98.5 173,-98.5"/>
<text text-anchor="start" x="181" y="-116.5" font-family="Helvetica,sans-Serif" font-size="10.00">Model::mapGenerator</text>
<text text-anchor="middle" x="228" y="-105.5" font-family="Helvetica,sans-Serif" font-size="10.00">::setTile</text>
</a>
</g>
</g>
<!-- Node2&#45;&gt;Node11 -->
<g id="edge14" class="edge"><title>Node2&#45;&gt;Node11</title>
<path fill="none" stroke="midnightblue" d="M128.097,-126.931C139.389,-125.398 151.168,-123.798 162.498,-122.259"/>
<polygon fill="midnightblue" stroke="midnightblue" points="163.312,-125.681 172.75,-120.867 162.37,-118.745 163.312,-125.681"/>
</g>
<!-- Node4 -->
<g id="node3" class="node"><title>Node4</title>
<g id="a_node3"><a xlink:href="class_model_1_1map_generator.html#a02b91ca9a47b993e6fa14b9b0ad317f2" target="_top" xlink:title="Get tile from point in tile coordinates. ">
<polygon fill="white" stroke="black" points="499,-230.5 499,-260.5 609,-260.5 609,-230.5 499,-230.5"/>
<text text-anchor="start" x="507" y="-248.5" font-family="Helvetica,sans-Serif" font-size="10.00">Model::mapGenerator</text>
<text text-anchor="middle" x="554" y="-237.5" font-family="Helvetica,sans-Serif" font-size="10.00">::getTile</text>
</a>
</g>
</g>
<!-- Node3&#45;&gt;Node4 -->
<g id="edge2" class="edge"><title>Node3&#45;&gt;Node4</title>
<path fill="none" stroke="midnightblue" d="M283.147,-256.316C297.694,-257.634 313.432,-258.839 328,-259.5 387.938,-262.219 403.179,-264.125 463,-259.5 471.385,-258.852 480.171,-257.868 488.83,-256.717"/>
<polygon fill="midnightblue" stroke="midnightblue" points="489.489,-260.159 498.903,-255.299 488.513,-253.228 489.489,-260.159"/>
</g>
<!-- Node3&#45;&gt;Node5 -->
<g id="edge3" class="edge"><title>Node3&#45;&gt;Node5</title>
<path fill="none" stroke="midnightblue" d="M277.332,-235.453C282.521,-232.873 287.53,-229.903 292,-226.5 313.504,-210.133 306.461,-193.819 328,-177.5 330.429,-175.66 333.008,-173.942 335.686,-172.34"/>
<polygon fill="midnightblue" stroke="midnightblue" points="337.35,-175.419 344.512,-167.611 334.044,-169.249 337.35,-175.419"/>
</g>
<!-- Node6 -->
<g id="node5" class="node"><title>Node6</title>
<g id="a_node5"><a xlink:href="class_model_1_1map_generator.html#a244ad56297f00ce2ab892d3b2a14ffac" target="_top" xlink:title="Model::mapGenerator\l::isInMapRange">
<polygon fill="white" stroke="black" points="499,-159.5 499,-189.5 609,-189.5 609,-159.5 499,-159.5"/>
<text text-anchor="start" x="507" y="-177.5" font-family="Helvetica,sans-Serif" font-size="10.00">Model::mapGenerator</text>
<text text-anchor="middle" x="554" y="-166.5" font-family="Helvetica,sans-Serif" font-size="10.00">::isInMapRange</text>
</a>
</g>
</g>
<!-- Node5&#45;&gt;Node6 -->
<g id="edge4" class="edge"><title>Node5&#45;&gt;Node6</title>
<path fill="none" stroke="midnightblue" d="M450.797,-160.133C463.057,-161.856 476.186,-163.702 488.81,-165.476"/>
<polygon fill="midnightblue" stroke="midnightblue" points="488.409,-168.954 498.799,-166.881 489.384,-162.023 488.409,-168.954"/>
</g>
<!-- Node7&#45;&gt;Node4 -->
<g id="edge9" class="edge"><title>Node7&#45;&gt;Node4</title>
<path fill="none" stroke="midnightblue" d="M281.84,-216.538C296.67,-220.295 312.876,-223.969 328,-226.5 381.625,-235.473 443.188,-240.301 488.347,-242.84"/>
<polygon fill="midnightblue" stroke="midnightblue" points="488.416,-246.349 498.59,-243.393 488.793,-239.359 488.416,-246.349"/>
</g>
<!-- Node7&#45;&gt;Node5 -->
<g id="edge10" class="edge"><title>Node7&#45;&gt;Node5</title>
<path fill="none" stroke="midnightblue" d="M280.006,-186.399C297.075,-181.345 316.268,-175.662 333.991,-170.415"/>
<polygon fill="midnightblue" stroke="midnightblue" points="335.068,-173.747 343.663,-167.552 333.08,-167.035 335.068,-173.747"/>
</g>
<!-- Node8 -->
<g id="node7" class="node"><title>Node8</title>
<g id="a_node7"><a xlink:href="class_model_1_1map_generator.html#a92598d66736c2be4ca83aeedfe478b9d" target="_top" xlink:title="Model::mapGenerator\l::GetSurroundingWallCount">
<polygon fill="white" stroke="black" points="328,-186.5 328,-216.5 463,-216.5 463,-186.5 328,-186.5"/>
<text text-anchor="start" x="336" y="-204.5" font-family="Helvetica,sans-Serif" font-size="10.00">Model::mapGenerator</text>
<text text-anchor="middle" x="395.5" y="-193.5" font-family="Helvetica,sans-Serif" font-size="10.00">::GetSurroundingWallCount</text>
</a>
</g>
</g>
<!-- Node7&#45;&gt;Node8 -->
<g id="edge6" class="edge"><title>Node7&#45;&gt;Node8</title>
<path fill="none" stroke="midnightblue" d="M292.041,-201.5C300.445,-201.5 309.137,-201.5 317.742,-201.5"/>
<polygon fill="midnightblue" stroke="midnightblue" points="317.781,-205 327.781,-201.5 317.781,-198 317.781,-205"/>
</g>
<!-- Node8&#45;&gt;Node4 -->
<g id="edge7" class="edge"><title>Node8&#45;&gt;Node4</title>
<path fill="none" stroke="midnightblue" d="M449.921,-216.519C462.692,-220.11 476.449,-223.978 489.621,-227.681"/>
<polygon fill="midnightblue" stroke="midnightblue" points="488.98,-231.137 499.555,-230.474 490.875,-224.398 488.98,-231.137"/>
</g>
<!-- Node8&#45;&gt;Node6 -->
<g id="edge8" class="edge"><title>Node8&#45;&gt;Node6</title>
<path fill="none" stroke="midnightblue" d="M463.324,-189.971C471.711,-188.524 480.277,-187.046 488.625,-185.606"/>
<polygon fill="midnightblue" stroke="midnightblue" points="489.415,-189.022 498.674,-183.873 488.224,-182.124 489.415,-189.022"/>
</g>
<!-- Node11&#45;&gt;Node5 -->
<g id="edge15" class="edge"><title>Node11&#45;&gt;Node5</title>
<path fill="none" stroke="midnightblue" d="M283.191,-126.27C298.271,-129.824 314.792,-133.717 330.384,-137.391"/>
<polygon fill="midnightblue" stroke="midnightblue" points="329.934,-140.881 340.47,-139.768 331.54,-134.067 329.934,-140.881"/>
</g>
</g>
</svg>
        <g id="navigator" transform="translate(0 0)" fill="#404254">
                <rect fill="#f2f5e9" fill-opacity="0.5" stroke="#606060" stroke-width=".5" x="0" y="0" width="60" height="60"/>
                <use id="zoomplus" xlink:href="#zoomPlus" x="17" y="9" onmousedown="handleZoom(evt,'in')"/>
                <use id="zoomminus" xlink:href="#zoomMin" x="42" y="9" onmousedown="handleZoom(evt,'out')"/>
                <use id="reset" xlink:href="#resetDef" x="30" y="36" onmousedown="handleReset()"/>
                <g id="arrowUp" xlink:href="#dirArrow" transform="translate(30 24)" onmousedown="handlePan(0,-1)">
                  <use xlink:href="#rim" fill="#404040">
                        <set attributeName="fill" to="#808080" begin="arrowUp.mouseover" end="arrowUp.mouseout"/>
                  </use>
                  <path fill="none" stroke="white" stroke-width="1.5" d="M0,-3.0v7 M-2.5,-0.5L0,-3.0L2.5,-0.5"/>
                </g>
                <g id="arrowRight" xlink:href="#dirArrow" transform="rotate(90) translate(36 -43)" onmousedown="handlePan(1,0)">
                  <use xlink:href="#rim" fill="#404040">
                        <set attributeName="fill" to="#808080" begin="arrowRight.mouseover" end="arrowRight.mouseout"/>
                  </use>
                  <path fill="none" stroke="white" stroke-width="1.5" d="M0,-3.0v7 M-2.5,-0.5L0,-3.0L2.5,-0.5"/>
                </g>
                <g id="arrowDown" xlink:href="#dirArrow" transform="rotate(180) translate(-30 -48)" onmousedown="handlePan(0,1)">
                  <use xlink:href="#rim" fill="#404040">
                        <set attributeName="fill" to="#808080" begin="arrowDown.mouseover" end="arrowDown.mouseout"/>
                  </use>
                  <path fill="none" stroke="white" stroke-width="1.5" d="M0,-3.0v7 M-2.5,-0.5L0,-3.0L2.5,-0.5"/>
                </g>
                <g id="arrowLeft" xlink:href="#dirArrow" transform="rotate(270) translate(-36 17)" onmousedown="handlePan(-1,0)">
                  <use xlink:href="#rim" fill="#404040">
                        <set attributeName="fill" to="#808080" begin="arrowLeft.mouseover" end="arrowLeft.mouseout"/>
                  </use>
                  <path fill="none" stroke="white" stroke-width="1.5" d="M0,-3.0v7 M-2.5,-0.5L0,-3.0L2.5,-0.5"/>
                </g>
        </g>
        <svg viewBox="0 0 15 15" width="100%" height="30px" preserveAspectRatio="xMaxYMin meet">
         <g id="arrow_out" transform="scale(0.3 0.3)">
          <a xlink:href="class_model_1_1park_space_inserter_a20265678d0e7cfc25daef80afaa1ba86_cgraph_org.svg" target="_base">
           <rect id="button" ry="5" rx="5" y="6" x="6" height="38" width="38"
                fill="#f2f5e9" fill-opacity="0.5" stroke="#606060" stroke-width="1.0"/>
           <path id="arrow"
             d="M 11.500037,31.436501 C 11.940474,20.09759 22.043105,11.32322 32.158766,21.979434 L 37.068811,17.246167 C 37.068811,17.246167 37.088388,32 37.088388,32 L 22.160133,31.978069 C 22.160133,31.978069 26.997745,27.140456 26.997745,27.140456 C 18.528582,18.264221 13.291696,25.230495 11.500037,31.436501 z"
             style="fill:#404040;"/>
          </a>
         </g>
        </svg>
</svg>
