<?xml version="1.0" encoding="UTF-8" standalone="no"?>
<!DOCTYPE svg PUBLIC "-//W3C//DTD SVG 1.1//EN"
 "http://www.w3.org/Graphics/SVG/1.1/DTD/svg11.dtd">
<!-- Generated by graphviz version 2.38.0 (20140413.2041)
 -->
<!-- Title: Controller::Controller::startNewGame Pages: 1 -->
<svg width="266pt" height="39pt"
 viewBox="0.00 0.00 266.00 39.00" xmlns="http://www.w3.org/2000/svg" xmlns:xlink="http://www.w3.org/1999/xlink">
<g id="graph0" class="graph" transform="scale(1 1) rotate(0) translate(4 35)">
<title>Controller::Controller::startNewGame</title>
<polygon fill="white" stroke="none" points="-4,4 -4,-35 262,-35 262,4 -4,4"/>
<!-- Node46 -->
<g id="node1" class="node"><title>Node46</title>
<polygon fill="#bfbfbf" stroke="black" points="0,-0.5 0,-30.5 105,-30.5 105,-0.5 0,-0.5"/>
<text text-anchor="start" x="8" y="-18.5" font-family="Helvetica,sans-Serif" font-size="10.00">Controller::Controller</text>
<text text-anchor="middle" x="52.5" y="-7.5" font-family="Helvetica,sans-Serif" font-size="10.00">::startNewGame</text>
</g>
<!-- Node47 -->
<g id="node2" class="node"><title>Node47</title>
<g id="a_node2"><a xlink:href="class_interface_1_1_view_interface.html#a14f12a6ff3216389103c8c40b06234ff" target="_top" xlink:title="initMap kertoo näkymälle, että model on alustettu ja näkymän voi alustaa. ">
<polygon fill="white" stroke="black" points="141,-0.5 141,-30.5 258,-30.5 258,-0.5 141,-0.5"/>
<text text-anchor="start" x="149" y="-18.5" font-family="Helvetica,sans-Serif" font-size="10.00">Interface::ViewInterface</text>
<text text-anchor="middle" x="199.5" y="-7.5" font-family="Helvetica,sans-Serif" font-size="10.00">::initMap</text>
</a>
</g>
</g>
<!-- Node46&#45;&gt;Node47 -->
<g id="edge1" class="edge"><title>Node46&#45;&gt;Node47</title>
<path fill="none" stroke="midnightblue" d="M105.03,-15.5C113.338,-15.5 122.048,-15.5 130.669,-15.5"/>
<polygon fill="midnightblue" stroke="midnightblue" points="130.72,-19.0001 140.72,-15.5 130.72,-12.0001 130.72,-19.0001"/>
</g>
</g>
</svg>
