<?xml version="1.0" encoding="UTF-8" standalone="no"?>
<!DOCTYPE svg PUBLIC "-//W3C//DTD SVG 1.1//EN"
 "http://www.w3.org/Graphics/SVG/1.1/DTD/svg11.dtd">
<!-- Generated by graphviz version 2.38.0 (20140413.2041)
 -->
<!-- Title: Model::PlayerParty::PlayerParty Pages: 1 -->
<svg width="255pt" height="39pt"
 viewBox="0.00 0.00 255.00 39.00" xmlns="http://www.w3.org/2000/svg" xmlns:xlink="http://www.w3.org/1999/xlink">
<g id="graph0" class="graph" transform="scale(1 1) rotate(0) translate(4 35)">
<title>Model::PlayerParty::PlayerParty</title>
<polygon fill="white" stroke="none" points="-4,4 -4,-35 251,-35 251,4 -4,4"/>
<!-- Node0 -->
<g id="node1" class="node"><title>Node0</title>
<polygon fill="#bfbfbf" stroke="black" points="0,-0.5 0,-30.5 100,-30.5 100,-0.5 0,-0.5"/>
<text text-anchor="start" x="8" y="-18.5" font-family="Helvetica,sans-Serif" font-size="10.00">Model::PlayerParty</text>
<text text-anchor="middle" x="50" y="-7.5" font-family="Helvetica,sans-Serif" font-size="10.00">::PlayerParty</text>
</g>
<!-- Node1 -->
<g id="node2" class="node"><title>Node1</title>
<g id="a_node2"><a xlink:href="class_model_1_1_cyber_teekkari.html#a77b3323185bc503e56f72a9a54911fc0" target="_top" xlink:title="Model::CyberTeekkari\l::setDead">
<polygon fill="white" stroke="black" points="136,-0.5 136,-30.5 247,-30.5 247,-0.5 136,-0.5"/>
<text text-anchor="start" x="144" y="-18.5" font-family="Helvetica,sans-Serif" font-size="10.00">Model::CyberTeekkari</text>
<text text-anchor="middle" x="191.5" y="-7.5" font-family="Helvetica,sans-Serif" font-size="10.00">::setDead</text>
</a>
</g>
</g>
<!-- Node0&#45;&gt;Node1 -->
<g id="edge1" class="edge"><title>Node0&#45;&gt;Node1</title>
<path fill="none" stroke="midnightblue" d="M100.182,-15.5C108.325,-15.5 116.877,-15.5 125.34,-15.5"/>
<polygon fill="midnightblue" stroke="midnightblue" points="125.583,-19.0001 135.583,-15.5 125.583,-12.0001 125.583,-19.0001"/>
</g>
</g>
</svg>
