<?xml version="1.0" encoding="UTF-8" standalone="no"?>
<!DOCTYPE svg PUBLIC "-//W3C//DTD SVG 1.1//EN"
 "http://www.w3.org/Graphics/SVG/1.1/DTD/svg11.dtd">
<!-- Generated by graphviz version 2.38.0 (20140413.2041)
 -->
<!-- Title: View::ActionSceneNPC::setAIMode Pages: 1 -->
<svg width="713pt" height="170pt"
 viewBox="0.00 0.00 713.00 170.00" xmlns="http://www.w3.org/2000/svg" xmlns:xlink="http://www.w3.org/1999/xlink">
<g id="graph0" class="graph" transform="scale(1 1) rotate(0) translate(4 166)">
<title>View::ActionSceneNPC::setAIMode</title>
<polygon fill="white" stroke="none" points="-4,4 -4,-166 709,-166 709,4 -4,4"/>
<!-- Node81 -->
<g id="node1" class="node"><title>Node81</title>
<polygon fill="#bfbfbf" stroke="black" points="0,-71.5 0,-101.5 119,-101.5 119,-71.5 0,-71.5"/>
<text text-anchor="start" x="8" y="-89.5" font-family="Helvetica,sans-Serif" font-size="10.00">View::ActionSceneNPC</text>
<text text-anchor="middle" x="59.5" y="-78.5" font-family="Helvetica,sans-Serif" font-size="10.00">::setAIMode</text>
</g>
<!-- Node82 -->
<g id="node2" class="node"><title>Node82</title>
<g id="a_node2"><a xlink:href="class_view_1_1_action_scene.html#a2406dfeb3e69091ae05e23ef396d08e3" target="_top" xlink:title="View::ActionScene::\lenemyAttacked">
<polygon fill="white" stroke="black" points="318,-131.5 318,-161.5 423,-161.5 423,-131.5 318,-131.5"/>
<text text-anchor="start" x="326" y="-149.5" font-family="Helvetica,sans-Serif" font-size="10.00">View::ActionScene::</text>
<text text-anchor="middle" x="370.5" y="-138.5" font-family="Helvetica,sans-Serif" font-size="10.00">enemyAttacked</text>
</a>
</g>
</g>
<!-- Node81&#45;&gt;Node82 -->
<g id="edge1" class="edge"><title>Node81&#45;&gt;Node82</title>
<path fill="none" stroke="midnightblue" d="M128.992,-101.2C137.739,-103.017 146.575,-104.823 155,-106.5 210.543,-117.555 274.367,-129.339 317.856,-137.231"/>
<polygon fill="midnightblue" stroke="midnightblue" points="129.687,-97.7693 119.182,-99.1499 128.255,-104.621 129.687,-97.7693"/>
</g>
<!-- Node85 -->
<g id="node5" class="node"><title>Node85</title>
<g id="a_node5"><a xlink:href="class_view_1_1_action_scene.html#a03d6bd779731feb9bc256844ec3fb0ae" target="_top" xlink:title="View::ActionScene::\lenemyPatrolled">
<polygon fill="white" stroke="black" points="318,-82.5 318,-112.5 423,-112.5 423,-82.5 318,-82.5"/>
<text text-anchor="start" x="326" y="-100.5" font-family="Helvetica,sans-Serif" font-size="10.00">View::ActionScene::</text>
<text text-anchor="middle" x="370.5" y="-89.5" font-family="Helvetica,sans-Serif" font-size="10.00">enemyPatrolled</text>
</a>
</g>
</g>
<!-- Node81&#45;&gt;Node85 -->
<g id="edge4" class="edge"><title>Node81&#45;&gt;Node85</title>
<path fill="none" stroke="midnightblue" d="M129.36,-88.9513C186.373,-90.9809 266.13,-93.8202 317.801,-95.6596"/>
<polygon fill="midnightblue" stroke="midnightblue" points="129.466,-85.453 119.348,-88.5949 129.217,-92.4486 129.466,-85.453"/>
</g>
<!-- Node86 -->
<g id="node6" class="node"><title>Node86</title>
<g id="a_node6"><a xlink:href="class_view_1_1_action_scene.html#a4d0be71c24a8d12a73a86fb6d917cc51" target="_top" xlink:title="View::ActionScene::\lenemyWandered">
<polygon fill="white" stroke="black" points="166,-49.5 166,-79.5 271,-79.5 271,-49.5 166,-49.5"/>
<text text-anchor="start" x="174" y="-67.5" font-family="Helvetica,sans-Serif" font-size="10.00">View::ActionScene::</text>
<text text-anchor="middle" x="218.5" y="-56.5" font-family="Helvetica,sans-Serif" font-size="10.00">enemyWandered</text>
</a>
</g>
</g>
<!-- Node81&#45;&gt;Node86 -->
<g id="edge6" class="edge"><title>Node81&#45;&gt;Node86</title>
<path fill="none" stroke="midnightblue" d="M129.583,-76.8195C141.816,-75.1055 154.357,-73.348 165.997,-71.717"/>
<polygon fill="midnightblue" stroke="midnightblue" points="128.825,-73.3915 119.408,-78.2454 129.797,-80.3238 128.825,-73.3915"/>
</g>
<!-- Node87 -->
<g id="node7" class="node"><title>Node87</title>
<g id="a_node7"><a xlink:href="class_view_1_1_action_scene.html#a8ecad0a68a274799549da0adce49ea09" target="_top" xlink:title="View::ActionScene::\lupdateEnemyLineOfSight">
<polygon fill="white" stroke="black" points="155,-0.5 155,-30.5 282,-30.5 282,-0.5 155,-0.5"/>
<text text-anchor="start" x="163" y="-18.5" font-family="Helvetica,sans-Serif" font-size="10.00">View::ActionScene::</text>
<text text-anchor="middle" x="218.5" y="-7.5" font-family="Helvetica,sans-Serif" font-size="10.00">updateEnemyLineOfSight</text>
</a>
</g>
</g>
<!-- Node81&#45;&gt;Node87 -->
<g id="edge9" class="edge"><title>Node81&#45;&gt;Node87</title>
<path fill="none" stroke="midnightblue" d="M98.2453,-66.7009C115.388,-57.9758 136.034,-47.8354 155,-39.5 161.917,-36.4602 169.35,-33.4168 176.592,-30.5676"/>
<polygon fill="midnightblue" stroke="midnightblue" points="96.4167,-63.7051 89.115,-71.3821 99.6104,-69.9342 96.4167,-63.7051"/>
</g>
<!-- Node83 -->
<g id="node3" class="node"><title>Node83</title>
<g id="a_node3"><a xlink:href="class_view_1_1_action_scene.html#a2da7a8314a9d50cdccf82159f58e5097" target="_top" xlink:title="View::ActionScene::\lspawnEnemy">
<polygon fill="white" stroke="black" points="459,-60.5 459,-90.5 564,-90.5 564,-60.5 459,-60.5"/>
<text text-anchor="start" x="467" y="-78.5" font-family="Helvetica,sans-Serif" font-size="10.00">View::ActionScene::</text>
<text text-anchor="middle" x="511.5" y="-67.5" font-family="Helvetica,sans-Serif" font-size="10.00">spawnEnemy</text>
</a>
</g>
</g>
<!-- Node82&#45;&gt;Node83 -->
<g id="edge2" class="edge"><title>Node82&#45;&gt;Node83</title>
<path fill="none" stroke="midnightblue" d="M412.065,-126.959C415.77,-125.129 419.459,-123.29 423,-121.5 442.912,-111.436 465.165,-99.7312 482.246,-90.6471"/>
<polygon fill="midnightblue" stroke="midnightblue" points="410.335,-123.91 402.899,-131.456 413.418,-130.194 410.335,-123.91"/>
</g>
<!-- Node84 -->
<g id="node4" class="node"><title>Node84</title>
<g id="a_node4"><a xlink:href="class_view_1_1_action_scene.html#af2fabc7baae61ac07ca1a0a5d46814cf" target="_top" xlink:title="View::ActionScene::\laddEnemies">
<polygon fill="white" stroke="black" points="600,-60.5 600,-90.5 705,-90.5 705,-60.5 600,-60.5"/>
<text text-anchor="start" x="608" y="-78.5" font-family="Helvetica,sans-Serif" font-size="10.00">View::ActionScene::</text>
<text text-anchor="middle" x="652.5" y="-67.5" font-family="Helvetica,sans-Serif" font-size="10.00">addEnemies</text>
</a>
</g>
</g>
<!-- Node83&#45;&gt;Node84 -->
<g id="edge3" class="edge"><title>Node83&#45;&gt;Node84</title>
<path fill="none" stroke="midnightblue" d="M574.441,-75.5C582.878,-75.5 591.466,-75.5 599.698,-75.5"/>
<polygon fill="midnightblue" stroke="midnightblue" points="574.259,-72.0001 564.258,-75.5 574.258,-79.0001 574.259,-72.0001"/>
</g>
<!-- Node85&#45;&gt;Node83 -->
<g id="edge5" class="edge"><title>Node85&#45;&gt;Node83</title>
<path fill="none" stroke="midnightblue" d="M433.163,-87.7404C441.69,-86.3909 450.375,-85.0161 458.698,-83.6988"/>
<polygon fill="midnightblue" stroke="midnightblue" points="432.588,-84.2877 423.258,-89.308 433.683,-91.2016 432.588,-84.2877"/>
</g>
<!-- Node86&#45;&gt;Node83 -->
<g id="edge8" class="edge"><title>Node86&#45;&gt;Node83</title>
<path fill="none" stroke="midnightblue" d="M281.436,-66.8412C334.216,-68.8363 409.19,-71.6704 458.803,-73.5458"/>
<polygon fill="midnightblue" stroke="midnightblue" points="281.315,-63.3342 271.19,-66.4539 281.05,-70.3292 281.315,-63.3342"/>
</g>
<!-- Node86&#45;&gt;Node85 -->
<g id="edge7" class="edge"><title>Node86&#45;&gt;Node85</title>
<path fill="none" stroke="midnightblue" d="M281.193,-78.0724C293.352,-80.7475 305.994,-83.5286 317.783,-86.1223"/>
<polygon fill="midnightblue" stroke="midnightblue" points="281.64,-74.5872 271.121,-75.8567 280.136,-81.4237 281.64,-74.5872"/>
</g>
<!-- Node87&#45;&gt;Node83 -->
<g id="edge10" class="edge"><title>Node87&#45;&gt;Node83</title>
<path fill="none" stroke="midnightblue" d="M292.104,-30.4698C344.018,-41.1739 412.628,-55.3201 458.986,-64.8785"/>
<polygon fill="midnightblue" stroke="midnightblue" points="292.785,-27.0368 282.284,-28.4452 291.372,-33.8926 292.785,-27.0368"/>
</g>
</g>
</svg>
