<?xml version="1.0" encoding="UTF-8" standalone="no"?>
<!DOCTYPE svg PUBLIC "-//W3C//DTD SVG 1.1//EN"
 "http://www.w3.org/Graphics/SVG/1.1/DTD/svg11.dtd">
<!-- Generated by graphviz version 2.38.0 (20140413.2041)
 -->
<!-- Title: Model::mapGenerator::indexToX Pages: 1 -->
<svg width="756pt" height="293pt"
 viewBox="0.00 0.00 756.00 292.66" xmlns="http://www.w3.org/2000/svg" xmlns:xlink="http://www.w3.org/1999/xlink">
<g id="graph0" class="graph" transform="scale(1 1) rotate(0) translate(4 288.664)">
<title>Model::mapGenerator::indexToX</title>
<polygon fill="white" stroke="none" points="-4,4 -4,-288.664 752,-288.664 752,4 -4,4"/>
<!-- Node90 -->
<g id="node1" class="node"><title>Node90</title>
<polygon fill="#bfbfbf" stroke="black" points="0,-123.164 0,-153.164 110,-153.164 110,-123.164 0,-123.164"/>
<text text-anchor="start" x="8" y="-141.164" font-family="Helvetica,sans-Serif" font-size="10.00">Model::mapGenerator</text>
<text text-anchor="middle" x="55" y="-130.164" font-family="Helvetica,sans-Serif" font-size="10.00">::indexToX</text>
</g>
<!-- Node91 -->
<g id="node2" class="node"><title>Node91</title>
<g id="a_node2"><a xlink:href="class_model_1_1park_space_inserter.html#a20265678d0e7cfc25daef80afaa1ba86" target="_top" xlink:title="Model::parkSpaceInserter\l::addParkingSpaces_">
<polygon fill="white" stroke="black" points="310,-254.164 310,-284.164 438,-284.164 438,-254.164 310,-254.164"/>
<text text-anchor="start" x="318" y="-272.164" font-family="Helvetica,sans-Serif" font-size="10.00">Model::parkSpaceInserter</text>
<text text-anchor="middle" x="374" y="-261.164" font-family="Helvetica,sans-Serif" font-size="10.00">::addParkingSpaces_</text>
</a>
</g>
</g>
<!-- Node90&#45;&gt;Node91 -->
<g id="edge1" class="edge"><title>Node90&#45;&gt;Node91</title>
<path fill="none" stroke="midnightblue" d="M70.826,-161.706C86.5368,-184.492 113.539,-218.026 146,-235.164 196.745,-261.954 262.226,-269.363 309.809,-270.718"/>
<polygon fill="midnightblue" stroke="midnightblue" points="73.6485,-159.63 65.1799,-153.264 67.8298,-163.522 73.6485,-159.63"/>
</g>
<!-- Node94 -->
<g id="node5" class="node"><title>Node94</title>
<g id="a_node5"><a xlink:href="class_model_1_1map_processor.html#ae1e80cb097c8e31a337b3a20ff653cc2" target="_top" xlink:title="Model::mapProcessor\l::calculateDistanceMap">
<polygon fill="white" stroke="black" points="150.5,-35.1639 150.5,-65.1639 269.5,-65.1639 269.5,-35.1639 150.5,-35.1639"/>
<text text-anchor="start" x="158.5" y="-53.1639" font-family="Helvetica,sans-Serif" font-size="10.00">Model::mapProcessor</text>
<text text-anchor="middle" x="210" y="-42.1639" font-family="Helvetica,sans-Serif" font-size="10.00">::calculateDistanceMap</text>
</a>
</g>
</g>
<!-- Node90&#45;&gt;Node94 -->
<g id="edge4" class="edge"><title>Node90&#45;&gt;Node94</title>
<path fill="none" stroke="midnightblue" d="M86.2144,-117.314C103.408,-105.801 125.536,-91.5687 146,-80.1639 155.312,-74.9742 165.666,-69.8075 175.246,-65.2612"/>
<polygon fill="midnightblue" stroke="midnightblue" points="84.0377,-114.56 77.7079,-123.056 87.9544,-120.362 84.0377,-114.56"/>
</g>
<!-- Node95 -->
<g id="node6" class="node"><title>Node95</title>
<g id="a_node6"><a xlink:href="class_model_1_1map_processor.html#a7be8a27aaad96e187b4dba60fde5031a" target="_top" xlink:title="Model::mapProcessor\l::placeEnemies">
<polygon fill="white" stroke="black" points="482,-57.1639 482,-87.1639 594,-87.1639 594,-57.1639 482,-57.1639"/>
<text text-anchor="start" x="490" y="-75.1639" font-family="Helvetica,sans-Serif" font-size="10.00">Model::mapProcessor</text>
<text text-anchor="middle" x="538" y="-64.1639" font-family="Helvetica,sans-Serif" font-size="10.00">::placeEnemies</text>
</a>
</g>
</g>
<!-- Node90&#45;&gt;Node95 -->
<g id="edge15" class="edge"><title>Node90&#45;&gt;Node95</title>
<path fill="none" stroke="midnightblue" d="M67.2789,-113.496C81.3256,-86.1182 108.171,-43.3959 146,-25.1639 268.103,33.6846 435.579,-26.7998 504.926,-57.0834"/>
<polygon fill="midnightblue" stroke="midnightblue" points="63.9677,-112.297 62.6862,-122.814 70.2465,-115.391 63.9677,-112.297"/>
</g>
<!-- Node96 -->
<g id="node7" class="node"><title>Node96</title>
<g id="a_node7"><a xlink:href="class_model_1_1map_processor.html#a3719cc265240be889e98f9830602a067" target="_top" xlink:title="Model::mapProcessor\l::getMedialMap">
<polygon fill="white" stroke="black" points="318,-79.1639 318,-109.164 430,-109.164 430,-79.1639 318,-79.1639"/>
<text text-anchor="start" x="326" y="-97.1639" font-family="Helvetica,sans-Serif" font-size="10.00">Model::mapProcessor</text>
<text text-anchor="middle" x="374" y="-86.1639" font-family="Helvetica,sans-Serif" font-size="10.00">::getMedialMap</text>
</a>
</g>
</g>
<!-- Node90&#45;&gt;Node96 -->
<g id="edge14" class="edge"><title>Node90&#45;&gt;Node96</title>
<path fill="none" stroke="midnightblue" d="M113.434,-120.488C124.175,-117.674 135.367,-115.068 146,-113.164 204.003,-102.775 271.385,-98.0432 317.58,-95.9024"/>
<polygon fill="midnightblue" stroke="midnightblue" points="112.463,-117.124 103.725,-123.115 114.292,-123.881 112.463,-117.124"/>
</g>
<!-- Node97 -->
<g id="node8" class="node"><title>Node97</title>
<g id="a_node8"><a xlink:href="class_model_1_1park_space_inserter.html#ab81abccc02f65eed8d54e0d56b234e18" target="_top" xlink:title="Model::parkSpaceInserter\l::floodFill">
<polygon fill="white" stroke="black" points="146,-172.164 146,-202.164 274,-202.164 274,-172.164 146,-172.164"/>
<text text-anchor="start" x="154" y="-190.164" font-family="Helvetica,sans-Serif" font-size="10.00">Model::parkSpaceInserter</text>
<text text-anchor="middle" x="210" y="-179.164" font-family="Helvetica,sans-Serif" font-size="10.00">::floodFill</text>
</a>
</g>
</g>
<!-- Node90&#45;&gt;Node97 -->
<g id="edge8" class="edge"><title>Node90&#45;&gt;Node97</title>
<path fill="none" stroke="midnightblue" d="M113.013,-156.423C129.15,-161.591 146.527,-167.156 162.002,-172.112"/>
<polygon fill="midnightblue" stroke="midnightblue" points="113.745,-152.982 103.153,-153.265 111.609,-159.649 113.745,-152.982"/>
</g>
<!-- Node98 -->
<g id="node9" class="node"><title>Node98</title>
<g id="a_node9"><a xlink:href="class_model_1_1park_space_inserter.html#ada0688360de1fb7d5bd138f2f645bea6" target="_top" xlink:title="Model::parkSpaceInserter\l::removeBlockedSpaces">
<polygon fill="white" stroke="black" points="310,-205.164 310,-235.164 438,-235.164 438,-205.164 310,-205.164"/>
<text text-anchor="start" x="318" y="-223.164" font-family="Helvetica,sans-Serif" font-size="10.00">Model::parkSpaceInserter</text>
<text text-anchor="middle" x="374" y="-212.164" font-family="Helvetica,sans-Serif" font-size="10.00">::removeBlockedSpaces</text>
</a>
</g>
</g>
<!-- Node90&#45;&gt;Node98 -->
<g id="edge16" class="edge"><title>Node90&#45;&gt;Node98</title>
<path fill="none" stroke="midnightblue" d="M75.8596,-160.773C92.6126,-178.08 118.248,-200.7 146,-211.164 198.589,-230.992 262.968,-231.534 309.716,-228.118"/>
<polygon fill="midnightblue" stroke="midnightblue" points="78.2054,-158.158 68.8116,-153.259 73.0997,-162.947 78.2054,-158.158"/>
</g>
<!-- Node99 -->
<g id="node10" class="node"><title>Node99</title>
<g id="a_node10"><a xlink:href="class_model_1_1map_processor.html#a36b0d649c2d7a39b9dd71c17b9f85081" target="_top" xlink:title="Model::mapProcessor\l::getDistance">
<polygon fill="white" stroke="black" points="154,-123.164 154,-153.164 266,-153.164 266,-123.164 154,-123.164"/>
<text text-anchor="start" x="162" y="-141.164" font-family="Helvetica,sans-Serif" font-size="10.00">Model::mapProcessor</text>
<text text-anchor="middle" x="210" y="-130.164" font-family="Helvetica,sans-Serif" font-size="10.00">::getDistance</text>
</a>
</g>
</g>
<!-- Node90&#45;&gt;Node99 -->
<g id="edge11" class="edge"><title>Node90&#45;&gt;Node99</title>
<path fill="none" stroke="midnightblue" d="M120.43,-138.164C131.518,-138.164 142.952,-138.164 153.77,-138.164"/>
<polygon fill="midnightblue" stroke="midnightblue" points="120.373,-134.664 110.373,-138.164 120.373,-141.664 120.373,-134.664"/>
</g>
<!-- Node92 -->
<g id="node3" class="node"><title>Node92</title>
<g id="a_node3"><a xlink:href="class_model_1_1park_space_inserter.html#a85f30f97e1864f0c4b3afe8f8dea7ae3" target="_top" xlink:title="Model::parkSpaceInserter\l::addSpaces">
<polygon fill="white" stroke="black" points="474,-229.164 474,-259.164 602,-259.164 602,-229.164 474,-229.164"/>
<text text-anchor="start" x="482" y="-247.164" font-family="Helvetica,sans-Serif" font-size="10.00">Model::parkSpaceInserter</text>
<text text-anchor="middle" x="538" y="-236.164" font-family="Helvetica,sans-Serif" font-size="10.00">::addSpaces</text>
</a>
</g>
</g>
<!-- Node91&#45;&gt;Node92 -->
<g id="edge2" class="edge"><title>Node91&#45;&gt;Node92</title>
<path fill="none" stroke="midnightblue" d="M448.094,-257.884C456.676,-256.56 465.378,-255.217 473.808,-253.916"/>
<polygon fill="midnightblue" stroke="midnightblue" points="447.446,-254.442 438.097,-259.427 448.514,-261.36 447.446,-254.442"/>
</g>
<!-- Node93 -->
<g id="node4" class="node"><title>Node93</title>
<g id="a_node4"><a xlink:href="class_model_1_1map_generator.html#a08a1dc669cda9401647f81d61611931d" target="_top" xlink:title="Generate new hall with enemyCount. ">
<polygon fill="white" stroke="black" points="638,-229.164 638,-259.164 748,-259.164 748,-229.164 638,-229.164"/>
<text text-anchor="start" x="646" y="-247.164" font-family="Helvetica,sans-Serif" font-size="10.00">Model::mapGenerator</text>
<text text-anchor="middle" x="693" y="-236.164" font-family="Helvetica,sans-Serif" font-size="10.00">::generateHall</text>
</a>
</g>
</g>
<!-- Node92&#45;&gt;Node93 -->
<g id="edge3" class="edge"><title>Node92&#45;&gt;Node93</title>
<path fill="none" stroke="midnightblue" d="M612.194,-244.164C620.825,-244.164 629.513,-244.164 637.816,-244.164"/>
<polygon fill="midnightblue" stroke="midnightblue" points="612.114,-240.664 602.114,-244.164 612.114,-247.664 612.114,-240.664"/>
</g>
<!-- Node94&#45;&gt;Node95 -->
<g id="edge5" class="edge"><title>Node94&#45;&gt;Node95</title>
<path fill="none" stroke="midnightblue" d="M279.822,-54.8083C339.948,-58.8659 426.098,-64.6797 481.801,-68.4388"/>
<polygon fill="midnightblue" stroke="midnightblue" points="279.872,-51.3038 269.659,-54.1225 279.4,-58.2879 279.872,-51.3038"/>
</g>
<!-- Node94&#45;&gt;Node96 -->
<g id="edge6" class="edge"><title>Node94&#45;&gt;Node96</title>
<path fill="none" stroke="midnightblue" d="M276.234,-67.8818C290.068,-71.6392 304.54,-75.5699 317.951,-79.2123"/>
<polygon fill="midnightblue" stroke="midnightblue" points="276.866,-64.4267 266.298,-65.1831 275.031,-71.1819 276.866,-64.4267"/>
</g>
<!-- Node96&#45;&gt;Node95 -->
<g id="edge7" class="edge"><title>Node96&#45;&gt;Node95</title>
<path fill="none" stroke="midnightblue" d="M440.234,-85.3049C454.068,-83.4262 468.54,-81.4609 481.951,-79.6397"/>
<polygon fill="midnightblue" stroke="midnightblue" points="439.736,-81.8404 430.298,-86.6543 440.678,-88.7767 439.736,-81.8404"/>
</g>
<!-- Node97&#45;&gt;Node98 -->
<g id="edge9" class="edge"><title>Node97&#45;&gt;Node98</title>
<path fill="none" stroke="midnightblue" d="M284.094,-202.053C292.676,-203.802 301.378,-205.574 309.808,-207.292"/>
<polygon fill="midnightblue" stroke="midnightblue" points="284.595,-198.584 274.097,-200.017 283.197,-205.443 284.595,-198.584"/>
</g>
<!-- Node98&#45;&gt;Node92 -->
<g id="edge10" class="edge"><title>Node98&#45;&gt;Node92</title>
<path fill="none" stroke="midnightblue" d="M448.094,-230.993C456.676,-232.264 465.378,-233.553 473.808,-234.802"/>
<polygon fill="midnightblue" stroke="midnightblue" points="448.502,-227.515 438.097,-229.512 447.476,-234.439 448.502,-227.515"/>
</g>
<!-- Node99&#45;&gt;Node95 -->
<g id="edge12" class="edge"><title>Node99&#45;&gt;Node95</title>
<path fill="none" stroke="midnightblue" d="M276.168,-138.369C322.112,-137.082 384.704,-132.423 438,-118.164 463.998,-111.208 491.614,-97.8159 511.055,-87.2675"/>
<polygon fill="midnightblue" stroke="midnightblue" points="275.956,-134.873 266.041,-138.605 276.12,-141.871 275.956,-134.873"/>
</g>
<!-- Node99&#45;&gt;Node96 -->
<g id="edge13" class="edge"><title>Node99&#45;&gt;Node96</title>
<path fill="none" stroke="midnightblue" d="M276.234,-120.446C290.068,-116.689 304.54,-112.758 317.951,-109.115"/>
<polygon fill="midnightblue" stroke="midnightblue" points="275.031,-117.146 266.298,-123.145 276.866,-123.901 275.031,-117.146"/>
</g>
</g>
</svg>
