<?xml version="1.0" encoding="UTF-8" standalone="no"?>
<!DOCTYPE svg PUBLIC "-//W3C//DTD SVG 1.1//EN"
 "http://www.w3.org/Graphics/SVG/1.1/DTD/svg11.dtd">
<!-- Generated by graphviz version 2.38.0 (20140413.2041)
 -->
<!-- Title: View::ViewSideDisplayMouseSensitivePixmap Pages: 1 -->
<svg width="250pt" height="215pt"
 viewBox="0.00 0.00 249.50 215.00" xmlns="http://www.w3.org/2000/svg" xmlns:xlink="http://www.w3.org/1999/xlink">
<g id="graph0" class="graph" transform="scale(1 1) rotate(0) translate(4 211)">
<title>View::ViewSideDisplayMouseSensitivePixmap</title>
<polygon fill="white" stroke="none" points="-4,4 -4,-211 245.5,-211 245.5,4 -4,4"/>
<!-- Node3 -->
<g id="node1" class="node"><title>Node3</title>
<polygon fill="#bfbfbf" stroke="black" points="45,-0.5 45,-90.5 212,-90.5 212,-0.5 45,-0.5"/>
<text text-anchor="start" x="53" y="-78.5" font-family="Helvetica,sans-Serif" font-size="10.00">View::ViewSideDisplayMouse</text>
<text text-anchor="middle" x="128.5" y="-67.5" font-family="Helvetica,sans-Serif" font-size="10.00">SensitivePixmap</text>
<polyline fill="none" stroke="black" points="45,-60.5 212,-60.5 "/>
<text text-anchor="middle" x="128.5" y="-48.5" font-family="Helvetica,sans-Serif" font-size="10.00"> </text>
<polyline fill="none" stroke="black" points="45,-41.5 212,-41.5 "/>
<text text-anchor="start" x="53" y="-29.5" font-family="Helvetica,sans-Serif" font-size="10.00">+ ViewSideDisplayMouseSensitive</text>
<text text-anchor="start" x="53" y="-18.5" font-family="Helvetica,sans-Serif" font-size="10.00">Pixmap()</text>
<text text-anchor="start" x="53" y="-7.5" font-family="Helvetica,sans-Serif" font-size="10.00">+ mousePressEvent()</text>
</g>
<!-- Node4 -->
<g id="node2" class="node"><title>Node4</title>
<g id="a_node2"><a xlink:href="class_q_object.html" target="_top" xlink:title="{QObject\n||}">
<polygon fill="white" stroke="black" points="0,-149.5 0,-206.5 53,-206.5 53,-149.5 0,-149.5"/>
<text text-anchor="middle" x="26.5" y="-194.5" font-family="Helvetica,sans-Serif" font-size="10.00">QObject</text>
<polyline fill="none" stroke="black" points="0,-187.5 53,-187.5 "/>
<text text-anchor="middle" x="26.5" y="-175.5" font-family="Helvetica,sans-Serif" font-size="10.00"> </text>
<polyline fill="none" stroke="black" points="0,-168.5 53,-168.5 "/>
<text text-anchor="middle" x="26.5" y="-156.5" font-family="Helvetica,sans-Serif" font-size="10.00"> </text>
</a>
</g>
</g>
<!-- Node4&#45;&gt;Node3 -->
<g id="edge1" class="edge"><title>Node4&#45;&gt;Node3</title>
<path fill="none" stroke="midnightblue" d="M54.3171,-141.411C66.5806,-125.72 81.116,-107.124 94.0563,-90.5676"/>
<polygon fill="none" stroke="midnightblue" points="51.5322,-139.29 48.1316,-149.324 57.0474,-143.601 51.5322,-139.29"/>
</g>
<!-- Node5 -->
<g id="node3" class="node"><title>Node5</title>
<g id="a_node3"><a xlink:href="class_q_graphics_pixmap_item.html" target="_top" xlink:title="{QGraphicsPixmapItem\n||}">
<polygon fill="white" stroke="black" points="71,-149.5 71,-206.5 186,-206.5 186,-149.5 71,-149.5"/>
<text text-anchor="middle" x="128.5" y="-194.5" font-family="Helvetica,sans-Serif" font-size="10.00">QGraphicsPixmapItem</text>
<polyline fill="none" stroke="black" points="71,-187.5 186,-187.5 "/>
<text text-anchor="middle" x="128.5" y="-175.5" font-family="Helvetica,sans-Serif" font-size="10.00"> </text>
<polyline fill="none" stroke="black" points="71,-168.5 186,-168.5 "/>
<text text-anchor="middle" x="128.5" y="-156.5" font-family="Helvetica,sans-Serif" font-size="10.00"> </text>
</a>
</g>
</g>
<!-- Node5&#45;&gt;Node3 -->
<g id="edge2" class="edge"><title>Node5&#45;&gt;Node3</title>
<path fill="none" stroke="midnightblue" d="M128.5,-139.233C128.5,-124.019 128.5,-106.364 128.5,-90.5676"/>
<polygon fill="none" stroke="midnightblue" points="125,-139.324 128.5,-149.324 132,-139.324 125,-139.324"/>
</g>
<!-- Node6 -->
<g id="node4" class="node"><title>Node6</title>
<polygon fill="white" stroke="#bfbfbf" points="204,-149.5 204,-206.5 233,-206.5 233,-149.5 204,-149.5"/>
<text text-anchor="middle" x="218.5" y="-194.5" font-family="Helvetica,sans-Serif" font-size="10.00">int</text>
<polyline fill="none" stroke="#bfbfbf" points="204,-187.5 233,-187.5 "/>
<text text-anchor="middle" x="218.5" y="-175.5" font-family="Helvetica,sans-Serif" font-size="10.00"> </text>
<polyline fill="none" stroke="#bfbfbf" points="204,-168.5 233,-168.5 "/>
<text text-anchor="middle" x="218.5" y="-156.5" font-family="Helvetica,sans-Serif" font-size="10.00"> </text>
</g>
<!-- Node6&#45;&gt;Node3 -->
<g id="edge3" class="edge"><title>Node6&#45;&gt;Node3</title>
<path fill="none" stroke="#404040" d="M203.84,-155.742C193.533,-140.797 179.251,-120.088 165.89,-100.716"/>
<polygon fill="none" stroke="#404040" points="165.826,-100.623 159.127,-97.9549 159.014,-90.7446 165.713,-93.413 165.826,-100.623"/>
<text text-anchor="middle" x="212.5" y="-123" font-family="Helvetica,sans-Serif" font-size="10.00"> &#45;charId_</text>
<text text-anchor="middle" x="212.5" y="-112" font-family="Helvetica,sans-Serif" font-size="10.00">&#45;slotNumber_</text>
</g>
</g>
</svg>
