<?xml version="1.0" encoding="UTF-8" standalone="no"?>
<!DOCTYPE svg PUBLIC "-//W3C//DTD SVG 1.1//EN"
 "http://www.w3.org/Graphics/SVG/1.1/DTD/svg11.dtd">
<!-- Generated by graphviz version 2.38.0 (20140413.2041)
 -->
<!-- Title: View::ActionSceneSmallExplosion::ActionSceneSmallExplosion Pages: 1 -->
<svg width="378pt" height="39pt"
 viewBox="0.00 0.00 378.00 39.00" xmlns="http://www.w3.org/2000/svg" xmlns:xlink="http://www.w3.org/1999/xlink">
<g id="graph0" class="graph" transform="scale(1 1) rotate(0) translate(4 35)">
<title>View::ActionSceneSmallExplosion::ActionSceneSmallExplosion</title>
<polygon fill="white" stroke="none" points="-4,4 -4,-35 374,-35 374,4 -4,4"/>
<!-- Node0 -->
<g id="node1" class="node"><title>Node0</title>
<polygon fill="#bfbfbf" stroke="black" points="0,-0.5 0,-30.5 167,-30.5 167,-0.5 0,-0.5"/>
<text text-anchor="start" x="8" y="-18.5" font-family="Helvetica,sans-Serif" font-size="10.00">View::ActionSceneSmallExplosion</text>
<text text-anchor="middle" x="83.5" y="-7.5" font-family="Helvetica,sans-Serif" font-size="10.00">::ActionSceneSmallExplosion</text>
</g>
<!-- Node1 -->
<g id="node2" class="node"><title>Node1</title>
<g id="a_node2"><a xlink:href="class_view_1_1_action_scene_small_explosion.html#a12aeee5f7011560580838b8df17fa44f" target="_top" xlink:title="View::ActionSceneSmallExplosion\l::nextFrame">
<polygon fill="white" stroke="black" points="203,-0.5 203,-30.5 370,-30.5 370,-0.5 203,-0.5"/>
<text text-anchor="start" x="211" y="-18.5" font-family="Helvetica,sans-Serif" font-size="10.00">View::ActionSceneSmallExplosion</text>
<text text-anchor="middle" x="286.5" y="-7.5" font-family="Helvetica,sans-Serif" font-size="10.00">::nextFrame</text>
</a>
</g>
</g>
<!-- Node0&#45;&gt;Node1 -->
<g id="edge1" class="edge"><title>Node0&#45;&gt;Node1</title>
<path fill="none" stroke="midnightblue" d="M167.125,-15.5C175.607,-15.5 184.266,-15.5 192.848,-15.5"/>
<polygon fill="midnightblue" stroke="midnightblue" points="192.872,-19.0001 202.872,-15.5 192.871,-12.0001 192.872,-19.0001"/>
</g>
</g>
</svg>
