<?xml version="1.0" encoding="UTF-8" standalone="no"?>
<!DOCTYPE svg PUBLIC "-//W3C//DTD SVG 1.1//EN"
 "http://www.w3.org/Graphics/SVG/1.1/DTD/svg11.dtd">
<!-- Generated by graphviz version 2.38.0 (20140413.2041)
 -->
<!-- Title: View::ActionScene::initPCs Pages: 1 -->
<svg width="550pt" height="112pt"
 viewBox="0.00 0.00 550.00 112.00" xmlns="http://www.w3.org/2000/svg" xmlns:xlink="http://www.w3.org/1999/xlink">
<g id="graph0" class="graph" transform="scale(1 1) rotate(0) translate(4 108)">
<title>View::ActionScene::initPCs</title>
<polygon fill="white" stroke="none" points="-4,4 -4,-108 546,-108 546,4 -4,4"/>
<!-- Node155 -->
<g id="node1" class="node"><title>Node155</title>
<polygon fill="#bfbfbf" stroke="black" points="0,-48.5 0,-78.5 105,-78.5 105,-48.5 0,-48.5"/>
<text text-anchor="start" x="8" y="-66.5" font-family="Helvetica,sans-Serif" font-size="10.00">View::ActionScene::</text>
<text text-anchor="middle" x="52.5" y="-55.5" font-family="Helvetica,sans-Serif" font-size="10.00">initPCs</text>
</g>
<!-- Node156 -->
<g id="node2" class="node"><title>Node156</title>
<g id="a_node2"><a xlink:href="class_view_1_1_action_scene.html#a144bce11f4b553f6e3afe95d6e99df03" target="_top" xlink:title="View::ActionScene::\lmovePCs">
<polygon fill="white" stroke="black" points="141,-73.5 141,-103.5 246,-103.5 246,-73.5 141,-73.5"/>
<text text-anchor="start" x="149" y="-91.5" font-family="Helvetica,sans-Serif" font-size="10.00">View::ActionScene::</text>
<text text-anchor="middle" x="193.5" y="-80.5" font-family="Helvetica,sans-Serif" font-size="10.00">movePCs</text>
</a>
</g>
</g>
<!-- Node155&#45;&gt;Node156 -->
<g id="edge1" class="edge"><title>Node155&#45;&gt;Node156</title>
<path fill="none" stroke="midnightblue" d="M105.258,-72.8091C113.58,-74.3058 122.266,-75.8679 130.793,-77.4015"/>
<polygon fill="midnightblue" stroke="midnightblue" points="130.237,-80.8576 140.698,-79.1831 131.476,-73.9682 130.237,-80.8576"/>
</g>
<!-- Node157 -->
<g id="node3" class="node"><title>Node157</title>
<g id="a_node3"><a xlink:href="class_view_1_1_action_scene.html#a5ef79714e0a56179cf0518071879a2dd" target="_top" xlink:title="View::ActionScene::\lshootTheShot">
<polygon fill="white" stroke="black" points="141,-24.5 141,-54.5 246,-54.5 246,-24.5 141,-24.5"/>
<text text-anchor="start" x="149" y="-42.5" font-family="Helvetica,sans-Serif" font-size="10.00">View::ActionScene::</text>
<text text-anchor="middle" x="193.5" y="-31.5" font-family="Helvetica,sans-Serif" font-size="10.00">shootTheShot</text>
</a>
</g>
</g>
<!-- Node155&#45;&gt;Node157 -->
<g id="edge2" class="edge"><title>Node155&#45;&gt;Node157</title>
<path fill="none" stroke="midnightblue" d="M105.258,-54.5633C113.58,-53.1264 122.266,-51.6268 130.793,-50.1545"/>
<polygon fill="midnightblue" stroke="midnightblue" points="131.44,-53.5947 140.698,-48.4442 130.249,-46.6967 131.44,-53.5947"/>
</g>
<!-- Node158 -->
<g id="node4" class="node"><title>Node158</title>
<g id="a_node4"><a xlink:href="class_view_1_1_action_scene.html#aae98cc0bf8648ab049ff79a902701e73" target="_top" xlink:title="View::ActionScene::\lcheckShotCollision">
<polygon fill="white" stroke="black" points="282,-24.5 282,-54.5 387,-54.5 387,-24.5 282,-24.5"/>
<text text-anchor="start" x="290" y="-42.5" font-family="Helvetica,sans-Serif" font-size="10.00">View::ActionScene::</text>
<text text-anchor="middle" x="334.5" y="-31.5" font-family="Helvetica,sans-Serif" font-size="10.00">checkShotCollision</text>
</a>
</g>
</g>
<!-- Node157&#45;&gt;Node158 -->
<g id="edge3" class="edge"><title>Node157&#45;&gt;Node158</title>
<path fill="none" stroke="midnightblue" d="M246.258,-39.5C254.49,-39.5 263.077,-39.5 271.514,-39.5"/>
<polygon fill="midnightblue" stroke="midnightblue" points="271.698,-43.0001 281.698,-39.5 271.698,-36.0001 271.698,-43.0001"/>
</g>
<!-- Node159 -->
<g id="node5" class="node"><title>Node159</title>
<g id="a_node5"><a xlink:href="class_view_1_1_action_scene_n_p_c.html#a9065e80ab1349445972a44657234a35f" target="_top" xlink:title="View::ActionSceneNPC\l::getId">
<polygon fill="white" stroke="black" points="423,-49.5 423,-79.5 542,-79.5 542,-49.5 423,-49.5"/>
<text text-anchor="start" x="431" y="-67.5" font-family="Helvetica,sans-Serif" font-size="10.00">View::ActionSceneNPC</text>
<text text-anchor="middle" x="482.5" y="-56.5" font-family="Helvetica,sans-Serif" font-size="10.00">::getId</text>
</a>
</g>
</g>
<!-- Node158&#45;&gt;Node159 -->
<g id="edge4" class="edge"><title>Node158&#45;&gt;Node159</title>
<path fill="none" stroke="midnightblue" d="M387.385,-48.3845C395.633,-49.7967 404.274,-51.2763 412.835,-52.7422"/>
<polygon fill="midnightblue" stroke="midnightblue" points="412.372,-56.2139 422.82,-54.452 413.554,-49.3143 412.372,-56.2139"/>
</g>
<!-- Node160 -->
<g id="node6" class="node"><title>Node160</title>
<g id="a_node6"><a xlink:href="class_view_1_1_action_scene_n_p_c.html#a5d04b31e451848aec804ce99864800ca" target="_top" xlink:title="View::ActionSceneNPC\l::isDead">
<polygon fill="white" stroke="black" points="423,-0.5 423,-30.5 542,-30.5 542,-0.5 423,-0.5"/>
<text text-anchor="start" x="431" y="-18.5" font-family="Helvetica,sans-Serif" font-size="10.00">View::ActionSceneNPC</text>
<text text-anchor="middle" x="482.5" y="-7.5" font-family="Helvetica,sans-Serif" font-size="10.00">::isDead</text>
</a>
</g>
</g>
<!-- Node158&#45;&gt;Node160 -->
<g id="edge5" class="edge"><title>Node158&#45;&gt;Node160</title>
<path fill="none" stroke="midnightblue" d="M387.385,-30.9709C395.633,-29.6152 404.274,-28.1948 412.835,-26.7875"/>
<polygon fill="midnightblue" stroke="midnightblue" points="413.52,-30.2219 422.82,-25.1461 412.384,-23.3146 413.52,-30.2219"/>
</g>
</g>
</svg>
