<?xml version="1.0" encoding="UTF-8" standalone="no"?>
<!DOCTYPE svg PUBLIC "-//W3C//DTD SVG 1.1//EN"
 "http://www.w3.org/Graphics/SVG/1.1/DTD/svg11.dtd">
<!-- Generated by graphviz version 2.38.0 (20140413.2041)
 -->
<!-- Title: Model::parkSpaceInserter::getRelativeDirection Pages: 1 -->
<svg width="774pt" height="39pt"
 viewBox="0.00 0.00 774.00 39.00" xmlns="http://www.w3.org/2000/svg" xmlns:xlink="http://www.w3.org/1999/xlink">
<g id="graph0" class="graph" transform="scale(1 1) rotate(0) translate(4 35)">
<title>Model::parkSpaceInserter::getRelativeDirection</title>
<polygon fill="white" stroke="none" points="-4,4 -4,-35 770,-35 770,4 -4,4"/>
<!-- Node44 -->
<g id="node1" class="node"><title>Node44</title>
<polygon fill="#bfbfbf" stroke="black" points="0,-0.5 0,-30.5 128,-30.5 128,-0.5 0,-0.5"/>
<text text-anchor="start" x="8" y="-18.5" font-family="Helvetica,sans-Serif" font-size="10.00">Model::parkSpaceInserter</text>
<text text-anchor="middle" x="64" y="-7.5" font-family="Helvetica,sans-Serif" font-size="10.00">::getRelativeDirection</text>
</g>
<!-- Node45 -->
<g id="node2" class="node"><title>Node45</title>
<g id="a_node2"><a xlink:href="class_model_1_1park_space_inserter.html#ab81abccc02f65eed8d54e0d56b234e18" target="_top" xlink:title="Model::parkSpaceInserter\l::floodFill">
<polygon fill="white" stroke="black" points="164,-0.5 164,-30.5 292,-30.5 292,-0.5 164,-0.5"/>
<text text-anchor="start" x="172" y="-18.5" font-family="Helvetica,sans-Serif" font-size="10.00">Model::parkSpaceInserter</text>
<text text-anchor="middle" x="228" y="-7.5" font-family="Helvetica,sans-Serif" font-size="10.00">::floodFill</text>
</a>
</g>
</g>
<!-- Node44&#45;&gt;Node45 -->
<g id="edge1" class="edge"><title>Node44&#45;&gt;Node45</title>
<path fill="none" stroke="midnightblue" d="M138.374,-15.5C146.865,-15.5 155.469,-15.5 163.808,-15.5"/>
<polygon fill="midnightblue" stroke="midnightblue" points="138.097,-12.0001 128.097,-15.5 138.097,-19.0001 138.097,-12.0001"/>
</g>
<!-- Node46 -->
<g id="node3" class="node"><title>Node46</title>
<g id="a_node3"><a xlink:href="class_model_1_1park_space_inserter.html#ada0688360de1fb7d5bd138f2f645bea6" target="_top" xlink:title="Model::parkSpaceInserter\l::removeBlockedSpaces">
<polygon fill="white" stroke="black" points="328,-0.5 328,-30.5 456,-30.5 456,-0.5 328,-0.5"/>
<text text-anchor="start" x="336" y="-18.5" font-family="Helvetica,sans-Serif" font-size="10.00">Model::parkSpaceInserter</text>
<text text-anchor="middle" x="392" y="-7.5" font-family="Helvetica,sans-Serif" font-size="10.00">::removeBlockedSpaces</text>
</a>
</g>
</g>
<!-- Node45&#45;&gt;Node46 -->
<g id="edge2" class="edge"><title>Node45&#45;&gt;Node46</title>
<path fill="none" stroke="midnightblue" d="M302.374,-15.5C310.865,-15.5 319.469,-15.5 327.808,-15.5"/>
<polygon fill="midnightblue" stroke="midnightblue" points="302.097,-12.0001 292.097,-15.5 302.097,-19.0001 302.097,-12.0001"/>
</g>
<!-- Node47 -->
<g id="node4" class="node"><title>Node47</title>
<g id="a_node4"><a xlink:href="class_model_1_1park_space_inserter.html#a85f30f97e1864f0c4b3afe8f8dea7ae3" target="_top" xlink:title="Model::parkSpaceInserter\l::addSpaces">
<polygon fill="white" stroke="black" points="492,-0.5 492,-30.5 620,-30.5 620,-0.5 492,-0.5"/>
<text text-anchor="start" x="500" y="-18.5" font-family="Helvetica,sans-Serif" font-size="10.00">Model::parkSpaceInserter</text>
<text text-anchor="middle" x="556" y="-7.5" font-family="Helvetica,sans-Serif" font-size="10.00">::addSpaces</text>
</a>
</g>
</g>
<!-- Node46&#45;&gt;Node47 -->
<g id="edge3" class="edge"><title>Node46&#45;&gt;Node47</title>
<path fill="none" stroke="midnightblue" d="M466.374,-15.5C474.865,-15.5 483.469,-15.5 491.808,-15.5"/>
<polygon fill="midnightblue" stroke="midnightblue" points="466.097,-12.0001 456.097,-15.5 466.097,-19.0001 466.097,-12.0001"/>
</g>
<!-- Node48 -->
<g id="node5" class="node"><title>Node48</title>
<g id="a_node5"><a xlink:href="class_model_1_1map_generator.html#a08a1dc669cda9401647f81d61611931d" target="_top" xlink:title="Generate new hall with enemyCount. ">
<polygon fill="white" stroke="black" points="656,-0.5 656,-30.5 766,-30.5 766,-0.5 656,-0.5"/>
<text text-anchor="start" x="664" y="-18.5" font-family="Helvetica,sans-Serif" font-size="10.00">Model::mapGenerator</text>
<text text-anchor="middle" x="711" y="-7.5" font-family="Helvetica,sans-Serif" font-size="10.00">::generateHall</text>
</a>
</g>
</g>
<!-- Node47&#45;&gt;Node48 -->
<g id="edge4" class="edge"><title>Node47&#45;&gt;Node48</title>
<path fill="none" stroke="midnightblue" d="M630.194,-15.5C638.825,-15.5 647.513,-15.5 655.816,-15.5"/>
<polygon fill="midnightblue" stroke="midnightblue" points="630.114,-12.0001 620.114,-15.5 630.114,-19.0001 630.114,-12.0001"/>
</g>
</g>
</svg>
