<?xml version="1.0" encoding="UTF-8" standalone="no"?>
<!DOCTYPE svg PUBLIC "-//W3C//DTD SVG 1.1//EN"
 "http://www.w3.org/Graphics/SVG/1.1/DTD/svg11.dtd">
<!-- Generated by graphviz version 2.38.0 (20140413.2041)
 -->
<!-- Title: Model::Upgrade Pages: 1 -->
<svg width="306pt" height="541pt"
 viewBox="0.00 0.00 305.50 541.00" xmlns="http://www.w3.org/2000/svg" xmlns:xlink="http://www.w3.org/1999/xlink">
<g id="graph0" class="graph" transform="scale(1 1) rotate(0) translate(4 537)">
<title>Model::Upgrade</title>
<polygon fill="white" stroke="none" points="-4,4 -4,-537 301.5,-537 301.5,4 -4,4"/>
<!-- Node3 -->
<g id="node1" class="node"><title>Node3</title>
<polygon fill="#bfbfbf" stroke="black" points="123.5,-0.5 123.5,-156.5 249.5,-156.5 249.5,-0.5 123.5,-0.5"/>
<text text-anchor="middle" x="186.5" y="-144.5" font-family="Helvetica,sans-Serif" font-size="10.00">Model::Upgrade</text>
<polyline fill="none" stroke="black" points="123.5,-137.5 249.5,-137.5 "/>
<text text-anchor="middle" x="186.5" y="-125.5" font-family="Helvetica,sans-Serif" font-size="10.00"> </text>
<polyline fill="none" stroke="black" points="123.5,-118.5 249.5,-118.5 "/>
<text text-anchor="start" x="131.5" y="-106.5" font-family="Helvetica,sans-Serif" font-size="10.00">+ Upgrade()</text>
<text text-anchor="start" x="131.5" y="-95.5" font-family="Helvetica,sans-Serif" font-size="10.00">+ Upgrade()</text>
<text text-anchor="start" x="131.5" y="-84.5" font-family="Helvetica,sans-Serif" font-size="10.00">+ Upgrade()</text>
<text text-anchor="start" x="131.5" y="-73.5" font-family="Helvetica,sans-Serif" font-size="10.00">+ getPrice()</text>
<text text-anchor="start" x="131.5" y="-62.5" font-family="Helvetica,sans-Serif" font-size="10.00">+ getName()</text>
<text text-anchor="start" x="131.5" y="-51.5" font-family="Helvetica,sans-Serif" font-size="10.00">+ getType()</text>
<text text-anchor="start" x="131.5" y="-40.5" font-family="Helvetica,sans-Serif" font-size="10.00">+ getUpgradeLevel()</text>
<text text-anchor="start" x="131.5" y="-29.5" font-family="Helvetica,sans-Serif" font-size="10.00">+ getEffect()</text>
<text text-anchor="start" x="131.5" y="-18.5" font-family="Helvetica,sans-Serif" font-size="10.00">+ getEffectValue()</text>
<text text-anchor="start" x="131.5" y="-7.5" font-family="Helvetica,sans-Serif" font-size="10.00">+ increaseUpgradeLevel()</text>
</g>
<!-- Node4 -->
<g id="node2" class="node"><title>Node4</title>
<g id="a_node2"><a xlink:href="class_interface_1_1_upgrade_interface.html" target="_top" xlink:title="{Interface::UpgradeInterface\n||+ UpgradeInterface()\l+ ~UpgradeInterface()\l+ getUpgradeLevel()\l+ getEffect()\l+ getEffectValue()\l}">
<polygon fill="white" stroke="black" points="11.5,-226.5 11.5,-327.5 143.5,-327.5 143.5,-226.5 11.5,-226.5"/>
<text text-anchor="middle" x="77.5" y="-315.5" font-family="Helvetica,sans-Serif" font-size="10.00">Interface::UpgradeInterface</text>
<polyline fill="none" stroke="black" points="11.5,-308.5 143.5,-308.5 "/>
<text text-anchor="middle" x="77.5" y="-296.5" font-family="Helvetica,sans-Serif" font-size="10.00"> </text>
<polyline fill="none" stroke="black" points="11.5,-289.5 143.5,-289.5 "/>
<text text-anchor="start" x="19.5" y="-277.5" font-family="Helvetica,sans-Serif" font-size="10.00">+ UpgradeInterface()</text>
<text text-anchor="start" x="19.5" y="-266.5" font-family="Helvetica,sans-Serif" font-size="10.00">+ ~UpgradeInterface()</text>
<text text-anchor="start" x="19.5" y="-255.5" font-family="Helvetica,sans-Serif" font-size="10.00">+ getUpgradeLevel()</text>
<text text-anchor="start" x="19.5" y="-244.5" font-family="Helvetica,sans-Serif" font-size="10.00">+ getEffect()</text>
<text text-anchor="start" x="19.5" y="-233.5" font-family="Helvetica,sans-Serif" font-size="10.00">+ getEffectValue()</text>
</a>
</g>
</g>
<!-- Node4&#45;&gt;Node3 -->
<g id="edge1" class="edge"><title>Node4&#45;&gt;Node3</title>
<path fill="none" stroke="midnightblue" d="M109.934,-217.53C120.536,-198.416 132.479,-176.886 143.723,-156.616"/>
<polygon fill="none" stroke="midnightblue" points="106.795,-215.972 105.005,-226.415 112.917,-219.368 106.795,-215.972"/>
</g>
<!-- Node5 -->
<g id="node3" class="node"><title>Node5</title>
<g id="a_node3"><a xlink:href="class_interface_1_1_equipment_interface.html" target="_top" xlink:title="EquipmentInterface on rajapintaluokka, josta peritään tavaroita (Equipment). ">
<polygon fill="white" stroke="black" points="0,-365.5 0,-532.5 155,-532.5 155,-365.5 0,-365.5"/>
<text text-anchor="middle" x="77.5" y="-520.5" font-family="Helvetica,sans-Serif" font-size="10.00">Interface::EquipmentInterface</text>
<polyline fill="none" stroke="black" points="0,-513.5 155,-513.5 "/>
<text text-anchor="middle" x="77.5" y="-501.5" font-family="Helvetica,sans-Serif" font-size="10.00"> </text>
<polyline fill="none" stroke="black" points="0,-494.5 155,-494.5 "/>
<text text-anchor="start" x="8" y="-482.5" font-family="Helvetica,sans-Serif" font-size="10.00">+ EquipmentInterface()</text>
<text text-anchor="start" x="8" y="-471.5" font-family="Helvetica,sans-Serif" font-size="10.00">+ ~EquipmentInterface()</text>
<text text-anchor="start" x="8" y="-460.5" font-family="Helvetica,sans-Serif" font-size="10.00">+ getPrice()</text>
<text text-anchor="start" x="8" y="-449.5" font-family="Helvetica,sans-Serif" font-size="10.00">+ getName()</text>
<text text-anchor="start" x="8" y="-438.5" font-family="Helvetica,sans-Serif" font-size="10.00">+ getType()</text>
<text text-anchor="start" x="8" y="-427.5" font-family="Helvetica,sans-Serif" font-size="10.00">+ getAmmo()</text>
<text text-anchor="start" x="8" y="-416.5" font-family="Helvetica,sans-Serif" font-size="10.00">+ getMaximumAmmoCapacity()</text>
<text text-anchor="start" x="8" y="-405.5" font-family="Helvetica,sans-Serif" font-size="10.00">+ getUpgradeLevel()</text>
<text text-anchor="start" x="8" y="-394.5" font-family="Helvetica,sans-Serif" font-size="10.00">+ getRange()</text>
<text text-anchor="start" x="8" y="-383.5" font-family="Helvetica,sans-Serif" font-size="10.00">+ getDamage()</text>
<text text-anchor="start" x="8" y="-372.5" font-family="Helvetica,sans-Serif" font-size="10.00">and 8 more...</text>
</a>
</g>
</g>
<!-- Node5&#45;&gt;Node4 -->
<g id="edge2" class="edge"><title>Node5&#45;&gt;Node4</title>
<path fill="none" stroke="midnightblue" d="M77.5,-355.249C77.5,-345.837 77.5,-336.553 77.5,-327.864"/>
<polygon fill="none" stroke="midnightblue" points="74.0001,-355.49 77.5,-365.49 81.0001,-355.49 74.0001,-355.49"/>
</g>
<!-- Node6 -->
<g id="node4" class="node"><title>Node6</title>
<polygon fill="white" stroke="#bfbfbf" points="161.5,-248.5 161.5,-305.5 211.5,-305.5 211.5,-248.5 161.5,-248.5"/>
<text text-anchor="middle" x="186.5" y="-293.5" font-family="Helvetica,sans-Serif" font-size="10.00">QString</text>
<polyline fill="none" stroke="#bfbfbf" points="161.5,-286.5 211.5,-286.5 "/>
<text text-anchor="middle" x="186.5" y="-274.5" font-family="Helvetica,sans-Serif" font-size="10.00"> </text>
<polyline fill="none" stroke="#bfbfbf" points="161.5,-267.5 211.5,-267.5 "/>
<text text-anchor="middle" x="186.5" y="-255.5" font-family="Helvetica,sans-Serif" font-size="10.00"> </text>
</g>
<!-- Node6&#45;&gt;Node3 -->
<g id="edge3" class="edge"><title>Node6&#45;&gt;Node3</title>
<path fill="none" stroke="#404040" d="M186.5,-248.263C186.5,-227.435 186.5,-197.672 186.5,-168.925"/>
<polygon fill="none" stroke="#404040" points="186.5,-168.696 182.5,-162.696 186.5,-156.696 190.5,-162.696 186.5,-168.696"/>
<text text-anchor="middle" x="204.5" y="-200" font-family="Helvetica,sans-Serif" font-size="10.00"> &#45;name_</text>
<text text-anchor="middle" x="204.5" y="-189" font-family="Helvetica,sans-Serif" font-size="10.00">&#45;type_</text>
<text text-anchor="middle" x="204.5" y="-178" font-family="Helvetica,sans-Serif" font-size="10.00">&#45;effect_</text>
</g>
<!-- Node7 -->
<g id="node5" class="node"><title>Node7</title>
<polygon fill="white" stroke="#bfbfbf" points="231,-248.5 231,-305.5 260,-305.5 260,-248.5 231,-248.5"/>
<text text-anchor="middle" x="245.5" y="-293.5" font-family="Helvetica,sans-Serif" font-size="10.00">int</text>
<polyline fill="none" stroke="#bfbfbf" points="231,-286.5 260,-286.5 "/>
<text text-anchor="middle" x="245.5" y="-274.5" font-family="Helvetica,sans-Serif" font-size="10.00"> </text>
<polyline fill="none" stroke="#bfbfbf" points="231,-267.5 260,-267.5 "/>
<text text-anchor="middle" x="245.5" y="-255.5" font-family="Helvetica,sans-Serif" font-size="10.00"> </text>
</g>
<!-- Node7&#45;&gt;Node3 -->
<g id="edge4" class="edge"><title>Node7&#45;&gt;Node3</title>
<path fill="none" stroke="#404040" d="M240.662,-248.27C236.803,-227.81 230.837,-199.404 223.5,-175 222.818,-172.733 222.108,-170.444 221.373,-168.141"/>
<polygon fill="none" stroke="#404040" points="221.304,-167.933 215.615,-163.502 217.518,-156.546 223.207,-160.978 221.304,-167.933"/>
<text text-anchor="middle" x="265" y="-200" font-family="Helvetica,sans-Serif" font-size="10.00"> &#45;price_</text>
<text text-anchor="middle" x="265" y="-189" font-family="Helvetica,sans-Serif" font-size="10.00">&#45;effectValue_</text>
<text text-anchor="middle" x="265" y="-178" font-family="Helvetica,sans-Serif" font-size="10.00">&#45;upgradeLevel_</text>
</g>
</g>
</svg>
