<?xml version="1.0" encoding="UTF-8" standalone="no"?>
<!DOCTYPE svg PUBLIC "-//W3C//DTD SVG 1.1//EN"
 "http://www.w3.org/Graphics/SVG/1.1/DTD/svg11.dtd">
<!-- Generated by graphviz version 2.38.0 (20140413.2041)
 -->
<!-- Title: Model::PlayerParty::actorHit Pages: 1 -->
<svg width="429pt" height="127pt"
 viewBox="0.00 0.00 429.00 126.50" xmlns="http://www.w3.org/2000/svg" xmlns:xlink="http://www.w3.org/1999/xlink">
<g id="graph0" class="graph" transform="scale(1 1) rotate(0) translate(4 122.5)">
<title>Model::PlayerParty::actorHit</title>
<polygon fill="white" stroke="none" points="-4,4 -4,-122.5 425,-122.5 425,4 -4,4"/>
<!-- Node3 -->
<g id="node1" class="node"><title>Node3</title>
<polygon fill="#bfbfbf" stroke="black" points="0,-39 0,-69 100,-69 100,-39 0,-39"/>
<text text-anchor="start" x="8" y="-57" font-family="Helvetica,sans-Serif" font-size="10.00">Model::PlayerParty</text>
<text text-anchor="middle" x="50" y="-46" font-family="Helvetica,sans-Serif" font-size="10.00">::actorHit</text>
</g>
<!-- Node4 -->
<g id="node2" class="node"><title>Node4</title>
<g id="a_node2"><a xlink:href="class_model_1_1_player_party.html#ab33abac5217cb3fa2bda54d9f307d220" target="_top" xlink:title="Model::PlayerParty\l::getActor">
<polygon fill="white" stroke="black" points="151,-88 151,-118 251,-118 251,-88 151,-88"/>
<text text-anchor="start" x="159" y="-106" font-family="Helvetica,sans-Serif" font-size="10.00">Model::PlayerParty</text>
<text text-anchor="middle" x="201" y="-95" font-family="Helvetica,sans-Serif" font-size="10.00">::getActor</text>
</a>
</g>
</g>
<!-- Node3&#45;&gt;Node4 -->
<g id="edge1" class="edge"><title>Node3&#45;&gt;Node4</title>
<path fill="none" stroke="midnightblue" d="M96.9207,-69.1014C112.003,-74.0615 128.928,-79.6274 144.636,-84.7929"/>
<polygon fill="midnightblue" stroke="midnightblue" points="143.638,-88.1492 154.231,-87.9484 145.825,-81.4995 143.638,-88.1492"/>
</g>
<!-- Node5 -->
<g id="node3" class="node"><title>Node5</title>
<g id="a_node3"><a xlink:href="class_model_1_1_cyber_teekkari.html#adfe4eb738d7984604cf41f51a9b4e114" target="_top" xlink:title="Model::CyberTeekkari\l::receivedHit">
<polygon fill="white" stroke="black" points="145.5,-39 145.5,-69 256.5,-69 256.5,-39 145.5,-39"/>
<text text-anchor="start" x="153.5" y="-57" font-family="Helvetica,sans-Serif" font-size="10.00">Model::CyberTeekkari</text>
<text text-anchor="middle" x="201" y="-46" font-family="Helvetica,sans-Serif" font-size="10.00">::receivedHit</text>
</a>
</g>
</g>
<!-- Node3&#45;&gt;Node5 -->
<g id="edge2" class="edge"><title>Node3&#45;&gt;Node5</title>
<path fill="none" stroke="midnightblue" d="M100.201,-54C111.412,-54 123.49,-54 135.24,-54"/>
<polygon fill="midnightblue" stroke="midnightblue" points="135.451,-57.5001 145.451,-54 135.451,-50.5001 135.451,-57.5001"/>
</g>
<!-- Node7 -->
<g id="node5" class="node"><title>Node7</title>
<g id="a_node5"><a xlink:href="class_model_1_1_player.html#a0470a457ee9b06bb927b7304df06cad4" target="_top" xlink:title="Model::Player::receivedHit">
<polygon fill="white" stroke="black" points="136,-0.5 136,-19.5 266,-19.5 266,-0.5 136,-0.5"/>
<text text-anchor="middle" x="201" y="-7.5" font-family="Helvetica,sans-Serif" font-size="10.00">Model::Player::receivedHit</text>
</a>
</g>
</g>
<!-- Node3&#45;&gt;Node7 -->
<g id="edge4" class="edge"><title>Node3&#45;&gt;Node7</title>
<path fill="none" stroke="midnightblue" d="M100.201,-39.4708C118.94,-33.9372 140.102,-27.6881 158.101,-22.3729"/>
<polygon fill="midnightblue" stroke="midnightblue" points="159.14,-25.7155 167.739,-19.5266 157.158,-19.0021 159.14,-25.7155"/>
</g>
<!-- Node6 -->
<g id="node4" class="node"><title>Node6</title>
<g id="a_node4"><a xlink:href="class_model_1_1_cyber_teekkari.html#a77b3323185bc503e56f72a9a54911fc0" target="_top" xlink:title="Model::CyberTeekkari\l::setDead">
<polygon fill="white" stroke="black" points="306,-39 306,-69 417,-69 417,-39 306,-39"/>
<text text-anchor="start" x="314" y="-57" font-family="Helvetica,sans-Serif" font-size="10.00">Model::CyberTeekkari</text>
<text text-anchor="middle" x="361.5" y="-46" font-family="Helvetica,sans-Serif" font-size="10.00">::setDead</text>
</a>
</g>
</g>
<!-- Node5&#45;&gt;Node6 -->
<g id="edge3" class="edge"><title>Node5&#45;&gt;Node6</title>
<path fill="none" stroke="midnightblue" d="M256.547,-54C269.124,-54 282.624,-54 295.593,-54"/>
<polygon fill="midnightblue" stroke="midnightblue" points="295.853,-57.5001 305.853,-54 295.853,-50.5001 295.853,-57.5001"/>
</g>
<!-- Node8 -->
<g id="node6" class="node"><title>Node8</title>
<g id="a_node6"><a xlink:href="class_model_1_1_player.html#ab48c086305f764fd63bb6001181e7558" target="_top" xlink:title="Model::Player::setDead">
<polygon fill="white" stroke="black" points="302,-0.5 302,-19.5 421,-19.5 421,-0.5 302,-0.5"/>
<text text-anchor="middle" x="361.5" y="-7.5" font-family="Helvetica,sans-Serif" font-size="10.00">Model::Player::setDead</text>
</a>
</g>
</g>
<!-- Node7&#45;&gt;Node8 -->
<g id="edge5" class="edge"><title>Node7&#45;&gt;Node8</title>
<path fill="none" stroke="midnightblue" d="M266.011,-10C274.44,-10 283.109,-10 291.615,-10"/>
<polygon fill="midnightblue" stroke="midnightblue" points="291.883,-13.5001 301.883,-10 291.883,-6.5001 291.883,-13.5001"/>
</g>
</g>
</svg>
