<?xml version="1.0" encoding="UTF-8" standalone="no"?>
<!DOCTYPE svg PUBLIC "-//W3C//DTD SVG 1.1//EN"
 "http://www.w3.org/Graphics/SVG/1.1/DTD/svg11.dtd">
<!-- Generated by graphviz version 2.38.0 (20140413.2041)
 -->
<!-- Title: View::ActionSceneFeet::nextFrame Pages: 1 -->
<svg width="437pt" height="137pt"
 viewBox="0.00 0.00 437.00 137.00" xmlns="http://www.w3.org/2000/svg" xmlns:xlink="http://www.w3.org/1999/xlink">
<g id="graph0" class="graph" transform="scale(1 1) rotate(0) translate(4 133)">
<title>View::ActionSceneFeet::nextFrame</title>
<polygon fill="white" stroke="none" points="-4,4 -4,-133 433,-133 433,4 -4,4"/>
<!-- Node5 -->
<g id="node1" class="node"><title>Node5</title>
<polygon fill="#bfbfbf" stroke="black" points="0,-73.5 0,-103.5 119,-103.5 119,-73.5 0,-73.5"/>
<text text-anchor="start" x="8" y="-91.5" font-family="Helvetica,sans-Serif" font-size="10.00">View::ActionSceneFeet</text>
<text text-anchor="middle" x="59.5" y="-80.5" font-family="Helvetica,sans-Serif" font-size="10.00">::nextFrame</text>
</g>
<!-- Node6 -->
<g id="node2" class="node"><title>Node6</title>
<g id="a_node2"><a xlink:href="class_view_1_1_action_scene_n_p_c.html#a90dd5d58856a5c950c68a667037169e2" target="_top" xlink:title="View::ActionSceneNPC\l::step">
<polygon fill="white" stroke="black" points="155,-98.5 155,-128.5 274,-128.5 274,-98.5 155,-98.5"/>
<text text-anchor="start" x="163" y="-116.5" font-family="Helvetica,sans-Serif" font-size="10.00">View::ActionSceneNPC</text>
<text text-anchor="middle" x="214.5" y="-105.5" font-family="Helvetica,sans-Serif" font-size="10.00">::step</text>
</a>
</g>
</g>
<!-- Node5&#45;&gt;Node6 -->
<g id="edge1" class="edge"><title>Node5&#45;&gt;Node6</title>
<path fill="none" stroke="midnightblue" d="M129.213,-99.7276C137.803,-101.131 146.525,-102.556 154.941,-103.932"/>
<polygon fill="midnightblue" stroke="midnightblue" points="129.65,-96.2526 119.216,-98.0942 128.521,-103.161 129.65,-96.2526"/>
</g>
<!-- Node8 -->
<g id="node4" class="node"><title>Node8</title>
<g id="a_node4"><a xlink:href="class_view_1_1_action_scene_p_c.html#ad27f69a4e9c1a4f89e7306294d182d51" target="_top" xlink:title="View::ActionScenePC\l::step">
<polygon fill="white" stroke="black" points="158,-49.5 158,-79.5 271,-79.5 271,-49.5 158,-49.5"/>
<text text-anchor="start" x="166" y="-67.5" font-family="Helvetica,sans-Serif" font-size="10.00">View::ActionScenePC</text>
<text text-anchor="middle" x="214.5" y="-56.5" font-family="Helvetica,sans-Serif" font-size="10.00">::step</text>
</a>
</g>
</g>
<!-- Node5&#45;&gt;Node8 -->
<g id="edge3" class="edge"><title>Node5&#45;&gt;Node8</title>
<path fill="none" stroke="midnightblue" d="M129.171,-77.7281C138.806,-76.2167 148.609,-74.679 157.959,-73.2123"/>
<polygon fill="midnightblue" stroke="midnightblue" points="128.553,-74.2821 119.216,-79.2896 129.638,-81.1976 128.553,-74.2821"/>
</g>
<!-- Node7 -->
<g id="node3" class="node"><title>Node7</title>
<g id="a_node3"><a xlink:href="class_view_1_1_action_scene_n_p_c.html#a6cee892789b8a4623ea1fbec509b538d" target="_top" xlink:title="View::ActionSceneNPC\l::ActionSceneNPC">
<polygon fill="white" stroke="black" points="310,-98.5 310,-128.5 429,-128.5 429,-98.5 310,-98.5"/>
<text text-anchor="start" x="318" y="-116.5" font-family="Helvetica,sans-Serif" font-size="10.00">View::ActionSceneNPC</text>
<text text-anchor="middle" x="369.5" y="-105.5" font-family="Helvetica,sans-Serif" font-size="10.00">::ActionSceneNPC</text>
</a>
</g>
</g>
<!-- Node6&#45;&gt;Node7 -->
<g id="edge2" class="edge"><title>Node6&#45;&gt;Node7</title>
<path fill="none" stroke="midnightblue" d="M284.493,-113.5C292.993,-113.5 301.617,-113.5 309.941,-113.5"/>
<polygon fill="midnightblue" stroke="midnightblue" points="284.216,-110 274.216,-113.5 284.216,-117 284.216,-110"/>
</g>
<!-- Node9 -->
<g id="node5" class="node"><title>Node9</title>
<g id="a_node5"><a xlink:href="class_view_1_1_action_scene_p_c.html#a714b6915be90d0961d30be1cc19056b9" target="_top" xlink:title="View::ActionScenePC\l::ActionScenePC">
<polygon fill="white" stroke="black" points="313,-49.5 313,-79.5 426,-79.5 426,-49.5 313,-49.5"/>
<text text-anchor="start" x="321" y="-67.5" font-family="Helvetica,sans-Serif" font-size="10.00">View::ActionScenePC</text>
<text text-anchor="middle" x="369.5" y="-56.5" font-family="Helvetica,sans-Serif" font-size="10.00">::ActionScenePC</text>
</a>
</g>
</g>
<!-- Node8&#45;&gt;Node9 -->
<g id="edge4" class="edge"><title>Node8&#45;&gt;Node9</title>
<path fill="none" stroke="midnightblue" d="M281.18,-64.5C291.739,-64.5 302.578,-64.5 312.872,-64.5"/>
<polygon fill="midnightblue" stroke="midnightblue" points="281.169,-61.0001 271.169,-64.5 281.169,-68.0001 281.169,-61.0001"/>
</g>
<!-- Node10 -->
<g id="node6" class="node"><title>Node10</title>
<g id="a_node6"><a xlink:href="class_view_1_1_action_scene_p_c.html#a7afaff64d6ed89491e87924461270084" target="_top" xlink:title="View::ActionScenePC\l::type">
<polygon fill="white" stroke="black" points="313,-0.5 313,-30.5 426,-30.5 426,-0.5 313,-0.5"/>
<text text-anchor="start" x="321" y="-18.5" font-family="Helvetica,sans-Serif" font-size="10.00">View::ActionScenePC</text>
<text text-anchor="middle" x="369.5" y="-7.5" font-family="Helvetica,sans-Serif" font-size="10.00">::type</text>
</a>
</g>
</g>
<!-- Node8&#45;&gt;Node10 -->
<g id="edge5" class="edge"><title>Node8&#45;&gt;Node10</title>
<path fill="none" stroke="midnightblue" d="M272.513,-46.2409C288.65,-41.0727 306.027,-35.5076 321.502,-30.5516"/>
<polygon fill="midnightblue" stroke="midnightblue" points="271.109,-43.0152 262.653,-49.3986 273.245,-49.6817 271.109,-43.0152"/>
</g>
</g>
</svg>
