<?xml version="1.0" encoding="UTF-8" standalone="no"?>
<!DOCTYPE svg PUBLIC "-//W3C//DTD SVG 1.1//EN"
 "http://www.w3.org/Graphics/SVG/1.1/DTD/svg11.dtd">
<!-- Generated by graphviz version 2.38.0 (20140413.2041)
 -->
<!-- Title: Model::mapProcessor::getTile Pages: 1 -->
<!--zoomable 186 -->
<svg id="main" version="1.1" xmlns="http://www.w3.org/2000/svg" xmlns:xlink="http://www.w3.org/1999/xlink" xml:space="preserve" onload="init(evt)">
<style type="text/css"><![CDATA[
.edge:hover path { stroke: red; }
.edge:hover polygon { stroke: red; fill: red; }
]]></style>
<script type="text/javascript"><![CDATA[
var edges = document.getElementsByTagName('g');
if (edges && edges.length) {
  for (var i=0;i<edges.length;i++) {
    if (edges[i].id.substr(0,4)=='edge') {
      edges[i].setAttribute('class','edge');
    }
  }
}
]]></script>
        <defs>
                <circle id="rim" cx="0" cy="0" r="7"/>
                <circle id="rim2" cx="0" cy="0" r="3.5"/>
                <g id="zoomPlus">
                        <use xlink:href="#rim" fill="#404040">
                                <set attributeName="fill" to="#808080" begin="zoomplus.mouseover" end="zoomplus.mouseout"/>
                        </use>
                        <path d="M-4,0h8M0,-4v8" fill="none" stroke="white" stroke-width="1.5" pointer-events="none"/>
                </g>
                <g id="zoomMin">
                        <use xlink:href="#rim" fill="#404040">
                                <set attributeName="fill" to="#808080" begin="zoomminus.mouseover" end="zoomminus.mouseout"/>
                        </use>
                        <path d="M-4,0h8" fill="none" stroke="white" stroke-width="1.5" pointer-events="none"/>
                </g>
                <g id="dirArrow">
                        <path fill="none" stroke="white" stroke-width="1.5" d="M0,-3.0v7 M-2.5,-0.5L0,-3.0L2.5,-0.5"/>
                </g>
               <g id="resetDef">
                       <use xlink:href="#rim2" fill="#404040">
                               <set attributeName="fill" to="#808080" begin="reset.mouseover" end="reset.mouseout"/>
                       </use>
               </g>
        </defs>

<script type="text/javascript">
var viewWidth = 719;
var viewHeight = 186;
var sectionId = 'dynsection-7';
</script>
<script xlink:href="svgpan.js"/>
<svg id="graph" class="graph">
<g id="viewport">
<title>Model::mapProcessor::getTile</title>
<polygon fill="white" stroke="none" points="-4,4 -4,-182 715,-182 715,4 -4,4"/>
<!-- Node44 -->
<g id="node1" class="node"><title>Node44</title>
<polygon fill="#bfbfbf" stroke="black" points="0,-73.5 0,-103.5 112,-103.5 112,-73.5 0,-73.5"/>
<text text-anchor="start" x="8" y="-91.5" font-family="Helvetica,sans-Serif" font-size="10.00">Model::mapProcessor</text>
<text text-anchor="middle" x="56" y="-80.5" font-family="Helvetica,sans-Serif" font-size="10.00">::getTile</text>
</g>
<!-- Node45 -->
<g id="node2" class="node"><title>Node45</title>
<g id="a_node2"><a xlink:href="class_model_1_1map_processor.html#ace629015ebfe8536ad3f14019fffe3e3" target="_top" xlink:title="Model::mapProcessor\l::getTileClosest">
<polygon fill="white" stroke="black" points="148,-147.5 148,-177.5 260,-177.5 260,-147.5 148,-147.5"/>
<text text-anchor="start" x="156" y="-165.5" font-family="Helvetica,sans-Serif" font-size="10.00">Model::mapProcessor</text>
<text text-anchor="middle" x="204" y="-154.5" font-family="Helvetica,sans-Serif" font-size="10.00">::getTileClosest</text>
</a>
</g>
</g>
<!-- Node44&#45;&gt;Node45 -->
<g id="edge1" class="edge"><title>Node44&#45;&gt;Node45</title>
<path fill="none" stroke="midnightblue" d="M91.8538,-108.621C108.637,-118.059 129.164,-129.239 148,-138.5 154.171,-141.534 160.815,-144.598 167.279,-147.476"/>
<polygon fill="midnightblue" stroke="midnightblue" points="93.3762,-105.461 82.9496,-103.581 89.9277,-111.553 93.3762,-105.461"/>
</g>
<!-- Node49 -->
<g id="node6" class="node"><title>Node49</title>
<g id="a_node6"><a xlink:href="class_model_1_1map_processor.html#adf8e9b96ca8e61a5373c7f701f1ccb84" target="_top" xlink:title="Model::mapProcessor\l::getTileDistance">
<polygon fill="white" stroke="black" points="148,-98.5 148,-128.5 260,-128.5 260,-98.5 148,-98.5"/>
<text text-anchor="start" x="156" y="-116.5" font-family="Helvetica,sans-Serif" font-size="10.00">Model::mapProcessor</text>
<text text-anchor="middle" x="204" y="-105.5" font-family="Helvetica,sans-Serif" font-size="10.00">::getTileDistance</text>
</a>
</g>
</g>
<!-- Node44&#45;&gt;Node49 -->
<g id="edge7" class="edge"><title>Node44&#45;&gt;Node49</title>
<path fill="none" stroke="midnightblue" d="M122.131,-99.6526C130.676,-101.116 139.366,-102.604 147.726,-104.035"/>
<polygon fill="midnightblue" stroke="midnightblue" points="122.644,-96.1895 112.196,-97.9514 121.462,-103.089 122.644,-96.1895"/>
</g>
<!-- Node50 -->
<g id="node7" class="node"><title>Node50</title>
<g id="a_node7"><a xlink:href="class_model_1_1map_processor.html#aa4491f292821c1791ba15718fd9c6a63" target="_top" xlink:title="Model::mapProcessor\l::setTileClosest">
<polygon fill="white" stroke="black" points="148,-49.5 148,-79.5 260,-79.5 260,-49.5 148,-49.5"/>
<text text-anchor="start" x="156" y="-67.5" font-family="Helvetica,sans-Serif" font-size="10.00">Model::mapProcessor</text>
<text text-anchor="middle" x="204" y="-56.5" font-family="Helvetica,sans-Serif" font-size="10.00">::setTileClosest</text>
</a>
</g>
</g>
<!-- Node44&#45;&gt;Node50 -->
<g id="edge8" class="edge"><title>Node44&#45;&gt;Node50</title>
<path fill="none" stroke="midnightblue" d="M122.131,-77.7935C130.676,-76.3889 139.366,-74.9604 147.726,-73.5862"/>
<polygon fill="midnightblue" stroke="midnightblue" points="121.496,-74.3508 112.196,-79.4266 122.632,-81.2581 121.496,-74.3508"/>
</g>
<!-- Node51 -->
<g id="node8" class="node"><title>Node51</title>
<g id="a_node8"><a xlink:href="class_model_1_1map_processor.html#a89dbcb46165ca574cf2c9db9f5c16cee" target="_top" xlink:title="Model::mapProcessor\l::setTileDistance">
<polygon fill="white" stroke="black" points="148,-0.5 148,-30.5 260,-30.5 260,-0.5 148,-0.5"/>
<text text-anchor="start" x="156" y="-18.5" font-family="Helvetica,sans-Serif" font-size="10.00">Model::mapProcessor</text>
<text text-anchor="middle" x="204" y="-7.5" font-family="Helvetica,sans-Serif" font-size="10.00">::setTileDistance</text>
</a>
</g>
</g>
<!-- Node44&#45;&gt;Node51 -->
<g id="edge10" class="edge"><title>Node44&#45;&gt;Node51</title>
<path fill="none" stroke="midnightblue" d="M92.6289,-68.4346C109.284,-59.2833 129.484,-48.5059 148,-39.5 154.183,-36.4925 160.834,-33.4405 167.3,-30.5669"/>
<polygon fill="midnightblue" stroke="midnightblue" points="90.8326,-65.4284 83.7743,-73.3298 94.2194,-71.5545 90.8326,-65.4284"/>
</g>
<!-- Node46 -->
<g id="node3" class="node"><title>Node46</title>
<g id="a_node3"><a xlink:href="class_model_1_1map_processor.html#ae1e80cb097c8e31a337b3a20ff653cc2" target="_top" xlink:title="Model::mapProcessor\l::calculateDistanceMap">
<polygon fill="white" stroke="black" points="296,-62.5 296,-92.5 415,-92.5 415,-62.5 296,-62.5"/>
<text text-anchor="start" x="304" y="-80.5" font-family="Helvetica,sans-Serif" font-size="10.00">Model::mapProcessor</text>
<text text-anchor="middle" x="355.5" y="-69.5" font-family="Helvetica,sans-Serif" font-size="10.00">::calculateDistanceMap</text>
</a>
</g>
</g>
<!-- Node45&#45;&gt;Node46 -->
<g id="edge2" class="edge"><title>Node45&#45;&gt;Node46</title>
<path fill="none" stroke="midnightblue" d="M251.035,-143.08C254.095,-141.584 257.108,-140.051 260,-138.5 286.156,-124.47 314.567,-105.596 333.334,-92.5759"/>
<polygon fill="midnightblue" stroke="midnightblue" points="249.341,-140.009 241.784,-147.435 252.323,-146.342 249.341,-140.009"/>
</g>
<!-- Node47 -->
<g id="node4" class="node"><title>Node47</title>
<g id="a_node4"><a xlink:href="class_model_1_1map_processor.html#a3719cc265240be889e98f9830602a067" target="_top" xlink:title="Model::mapProcessor\l::getMedialMap">
<polygon fill="white" stroke="black" points="451,-106.5 451,-136.5 563,-136.5 563,-106.5 451,-106.5"/>
<text text-anchor="start" x="459" y="-124.5" font-family="Helvetica,sans-Serif" font-size="10.00">Model::mapProcessor</text>
<text text-anchor="middle" x="507" y="-113.5" font-family="Helvetica,sans-Serif" font-size="10.00">::getMedialMap</text>
</a>
</g>
</g>
<!-- Node45&#45;&gt;Node47 -->
<g id="edge6" class="edge"><title>Node45&#45;&gt;Node47</title>
<path fill="none" stroke="midnightblue" d="M270.353,-153.598C324.292,-146.251 399.977,-135.942 450.888,-129.007"/>
<polygon fill="midnightblue" stroke="midnightblue" points="269.644,-150.162 260.208,-154.98 270.589,-157.098 269.644,-150.162"/>
</g>
<!-- Node46&#45;&gt;Node47 -->
<g id="edge3" class="edge"><title>Node46&#45;&gt;Node47</title>
<path fill="none" stroke="midnightblue" d="M417.39,-95.4207C429.86,-99.0908 442.863,-102.918 454.945,-106.474"/>
<polygon fill="midnightblue" stroke="midnightblue" points="418.113,-91.9851 407.531,-92.5192 416.136,-98.7003 418.113,-91.9851"/>
</g>
<!-- Node48 -->
<g id="node5" class="node"><title>Node48</title>
<g id="a_node5"><a xlink:href="class_model_1_1map_processor.html#a7be8a27aaad96e187b4dba60fde5031a" target="_top" xlink:title="Model::mapProcessor\l::placeEnemies">
<polygon fill="white" stroke="black" points="599,-84.5 599,-114.5 711,-114.5 711,-84.5 599,-84.5"/>
<text text-anchor="start" x="607" y="-102.5" font-family="Helvetica,sans-Serif" font-size="10.00">Model::mapProcessor</text>
<text text-anchor="middle" x="655" y="-91.5" font-family="Helvetica,sans-Serif" font-size="10.00">::placeEnemies</text>
</a>
</g>
</g>
<!-- Node46&#45;&gt;Node48 -->
<g id="edge5" class="edge"><title>Node46&#45;&gt;Node48</title>
<path fill="none" stroke="midnightblue" d="M425.555,-82.6066C478.275,-86.5052 549.945,-91.8052 598.862,-95.4226"/>
<polygon fill="midnightblue" stroke="midnightblue" points="425.507,-79.0936 415.276,-81.8465 424.991,-86.0745 425.507,-79.0936"/>
</g>
<!-- Node47&#45;&gt;Node48 -->
<g id="edge4" class="edge"><title>Node47&#45;&gt;Node48</title>
<path fill="none" stroke="midnightblue" d="M573.131,-111.686C581.676,-110.398 590.366,-109.089 598.726,-107.829"/>
<polygon fill="midnightblue" stroke="midnightblue" points="572.563,-108.232 563.196,-113.183 573.606,-115.154 572.563,-108.232"/>
</g>
<!-- Node50&#45;&gt;Node46 -->
<g id="edge9" class="edge"><title>Node50&#45;&gt;Node46</title>
<path fill="none" stroke="midnightblue" d="M270.482,-70.1941C278.966,-70.9318 287.612,-71.6837 295.973,-72.4107"/>
<polygon fill="midnightblue" stroke="midnightblue" points="270.509,-66.6833 260.244,-69.3038 269.903,-73.657 270.509,-66.6833"/>
</g>
<!-- Node51&#45;&gt;Node46 -->
<g id="edge11" class="edge"><title>Node51&#45;&gt;Node46</title>
<path fill="none" stroke="midnightblue" d="M250.527,-34.3809C272.203,-43.3701 297.769,-53.9728 318.125,-62.4149"/>
<polygon fill="midnightblue" stroke="midnightblue" points="251.768,-31.1063 241.19,-30.5085 249.086,-37.5723 251.768,-31.1063"/>
</g>
</g>
</svg>
        <g id="navigator" transform="translate(0 0)" fill="#404254">
                <rect fill="#f2f5e9" fill-opacity="0.5" stroke="#606060" stroke-width=".5" x="0" y="0" width="60" height="60"/>
                <use id="zoomplus" xlink:href="#zoomPlus" x="17" y="9" onmousedown="handleZoom(evt,'in')"/>
                <use id="zoomminus" xlink:href="#zoomMin" x="42" y="9" onmousedown="handleZoom(evt,'out')"/>
                <use id="reset" xlink:href="#resetDef" x="30" y="36" onmousedown="handleReset()"/>
                <g id="arrowUp" xlink:href="#dirArrow" transform="translate(30 24)" onmousedown="handlePan(0,-1)">
                  <use xlink:href="#rim" fill="#404040">
                        <set attributeName="fill" to="#808080" begin="arrowUp.mouseover" end="arrowUp.mouseout"/>
                  </use>
                  <path fill="none" stroke="white" stroke-width="1.5" d="M0,-3.0v7 M-2.5,-0.5L0,-3.0L2.5,-0.5"/>
                </g>
                <g id="arrowRight" xlink:href="#dirArrow" transform="rotate(90) translate(36 -43)" onmousedown="handlePan(1,0)">
                  <use xlink:href="#rim" fill="#404040">
                        <set attributeName="fill" to="#808080" begin="arrowRight.mouseover" end="arrowRight.mouseout"/>
                  </use>
                  <path fill="none" stroke="white" stroke-width="1.5" d="M0,-3.0v7 M-2.5,-0.5L0,-3.0L2.5,-0.5"/>
                </g>
                <g id="arrowDown" xlink:href="#dirArrow" transform="rotate(180) translate(-30 -48)" onmousedown="handlePan(0,1)">
                  <use xlink:href="#rim" fill="#404040">
                        <set attributeName="fill" to="#808080" begin="arrowDown.mouseover" end="arrowDown.mouseout"/>
                  </use>
                  <path fill="none" stroke="white" stroke-width="1.5" d="M0,-3.0v7 M-2.5,-0.5L0,-3.0L2.5,-0.5"/>
                </g>
                <g id="arrowLeft" xlink:href="#dirArrow" transform="rotate(270) translate(-36 17)" onmousedown="handlePan(-1,0)">
                  <use xlink:href="#rim" fill="#404040">
                        <set attributeName="fill" to="#808080" begin="arrowLeft.mouseover" end="arrowLeft.mouseout"/>
                  </use>
                  <path fill="none" stroke="white" stroke-width="1.5" d="M0,-3.0v7 M-2.5,-0.5L0,-3.0L2.5,-0.5"/>
                </g>
        </g>
        <svg viewBox="0 0 15 15" width="100%" height="30px" preserveAspectRatio="xMaxYMin meet">
         <g id="arrow_out" transform="scale(0.3 0.3)">
          <a xlink:href="class_model_1_1map_processor_a3399e41b2aeca5e9890d7a740dc1e237_icgraph_org.svg" target="_base">
           <rect id="button" ry="5" rx="5" y="6" x="6" height="38" width="38"
                fill="#f2f5e9" fill-opacity="0.5" stroke="#606060" stroke-width="1.0"/>
           <path id="arrow"
             d="M 11.500037,31.436501 C 11.940474,20.09759 22.043105,11.32322 32.158766,21.979434 L 37.068811,17.246167 C 37.068811,17.246167 37.088388,32 37.088388,32 L 22.160133,31.978069 C 22.160133,31.978069 26.997745,27.140456 26.997745,27.140456 C 18.528582,18.264221 13.291696,25.230495 11.500037,31.436501 z"
             style="fill:#404040;"/>
          </a>
         </g>
        </svg>
</svg>
