<?xml version="1.0" encoding="UTF-8" standalone="no"?>
<!DOCTYPE svg PUBLIC "-//W3C//DTD SVG 1.1//EN"
 "http://www.w3.org/Graphics/SVG/1.1/DTD/svg11.dtd">
<!-- Generated by graphviz version 2.38.0 (20140413.2041)
 -->
<!-- Title: View::ActionSceneEnemyProjectile::move Pages: 1 -->
<svg width="384pt" height="39pt"
 viewBox="0.00 0.00 384.00 39.00" xmlns="http://www.w3.org/2000/svg" xmlns:xlink="http://www.w3.org/1999/xlink">
<g id="graph0" class="graph" transform="scale(1 1) rotate(0) translate(4 35)">
<title>View::ActionSceneEnemyProjectile::move</title>
<polygon fill="white" stroke="none" points="-4,4 -4,-35 380,-35 380,4 -4,4"/>
<!-- Node12 -->
<g id="node1" class="node"><title>Node12</title>
<polygon fill="#bfbfbf" stroke="black" points="0,-0.5 0,-30.5 170,-30.5 170,-0.5 0,-0.5"/>
<text text-anchor="start" x="8" y="-18.5" font-family="Helvetica,sans-Serif" font-size="10.00">View::ActionSceneEnemyProjectile</text>
<text text-anchor="middle" x="85" y="-7.5" font-family="Helvetica,sans-Serif" font-size="10.00">::move</text>
</g>
<!-- Node13 -->
<g id="node2" class="node"><title>Node13</title>
<g id="a_node2"><a xlink:href="class_view_1_1_action_scene_enemy_projectile.html#a591f0585551447a1e8e91f8503ac8f32" target="_top" xlink:title="View::ActionSceneEnemyProjectile\l::ActionSceneEnemyProjectile">
<polygon fill="white" stroke="black" points="206,-0.5 206,-30.5 376,-30.5 376,-0.5 206,-0.5"/>
<text text-anchor="start" x="214" y="-18.5" font-family="Helvetica,sans-Serif" font-size="10.00">View::ActionSceneEnemyProjectile</text>
<text text-anchor="middle" x="291" y="-7.5" font-family="Helvetica,sans-Serif" font-size="10.00">::ActionSceneEnemyProjectile</text>
</a>
</g>
</g>
<!-- Node12&#45;&gt;Node13 -->
<g id="edge1" class="edge"><title>Node12&#45;&gt;Node13</title>
<path fill="none" stroke="midnightblue" d="M180.402,-15.5C188.847,-15.5 197.361,-15.5 205.712,-15.5"/>
<polygon fill="midnightblue" stroke="midnightblue" points="180.152,-12.0001 170.152,-15.5 180.152,-19.0001 180.152,-12.0001"/>
</g>
</g>
</svg>
