<?xml version="1.0" encoding="UTF-8" standalone="no"?>
<!DOCTYPE svg PUBLIC "-//W3C//DTD SVG 1.1//EN"
 "http://www.w3.org/Graphics/SVG/1.1/DTD/svg11.dtd">
<!-- Generated by graphviz version 2.38.0 (20140413.2041)
 -->
<!-- Title: View::ActionSceneNPC::aiAction Pages: 1 -->
<svg width="437pt" height="61pt"
 viewBox="0.00 0.00 437.00 61.00" xmlns="http://www.w3.org/2000/svg" xmlns:xlink="http://www.w3.org/1999/xlink">
<g id="graph0" class="graph" transform="scale(1 1) rotate(0) translate(4 57)">
<title>View::ActionSceneNPC::aiAction</title>
<polygon fill="white" stroke="none" points="-4,4 -4,-57 433,-57 433,4 -4,4"/>
<!-- Node15 -->
<g id="node1" class="node"><title>Node15</title>
<polygon fill="#bfbfbf" stroke="black" points="0,-22.5 0,-52.5 119,-52.5 119,-22.5 0,-22.5"/>
<text text-anchor="start" x="8" y="-40.5" font-family="Helvetica,sans-Serif" font-size="10.00">View::ActionSceneNPC</text>
<text text-anchor="middle" x="59.5" y="-29.5" font-family="Helvetica,sans-Serif" font-size="10.00">::aiAction</text>
</g>
<!-- Node16 -->
<g id="node2" class="node"><title>Node16</title>
<g id="a_node2"><a xlink:href="class_view_1_1_action_scene_n_p_c.html#a6cee892789b8a4623ea1fbec509b538d" target="_top" xlink:title="View::ActionSceneNPC\l::ActionSceneNPC">
<polygon fill="white" stroke="black" points="310,-22.5 310,-52.5 429,-52.5 429,-22.5 310,-22.5"/>
<text text-anchor="start" x="318" y="-40.5" font-family="Helvetica,sans-Serif" font-size="10.00">View::ActionSceneNPC</text>
<text text-anchor="middle" x="369.5" y="-29.5" font-family="Helvetica,sans-Serif" font-size="10.00">::ActionSceneNPC</text>
</a>
</g>
</g>
<!-- Node15&#45;&gt;Node16 -->
<g id="edge1" class="edge"><title>Node15&#45;&gt;Node16</title>
<path fill="none" stroke="midnightblue" d="M129.308,-39.9392C137.957,-40.1708 146.684,-40.368 155,-40.5 207.882,-41.3392 221.118,-41.3392 274,-40.5 285.571,-40.3164 297.935,-40.0064 309.779,-39.6535"/>
<polygon fill="midnightblue" stroke="midnightblue" points="129.316,-36.4381 119.221,-39.6535 129.118,-43.4353 129.316,-36.4381"/>
</g>
<!-- Node17 -->
<g id="node3" class="node"><title>Node17</title>
<g id="a_node3"><a xlink:href="class_view_1_1_action_scene_n_p_c.html#aa74e1b0bfedf0221b7d3aad65efe5caa" target="_top" xlink:title="View::ActionSceneNPC\l::unleashEnemy">
<polygon fill="white" stroke="black" points="155,-0.5 155,-30.5 274,-30.5 274,-0.5 155,-0.5"/>
<text text-anchor="start" x="163" y="-18.5" font-family="Helvetica,sans-Serif" font-size="10.00">View::ActionSceneNPC</text>
<text text-anchor="middle" x="214.5" y="-7.5" font-family="Helvetica,sans-Serif" font-size="10.00">::unleashEnemy</text>
</a>
</g>
</g>
<!-- Node15&#45;&gt;Node17 -->
<g id="edge2" class="edge"><title>Node15&#45;&gt;Node17</title>
<path fill="none" stroke="midnightblue" d="M129.213,-27.6197C137.803,-26.3845 146.525,-25.1303 154.941,-23.9203"/>
<polygon fill="midnightblue" stroke="midnightblue" points="128.616,-24.1694 119.216,-29.0571 129.613,-31.0982 128.616,-24.1694"/>
</g>
<!-- Node17&#45;&gt;Node16 -->
<g id="edge3" class="edge"><title>Node17&#45;&gt;Node16</title>
<path fill="none" stroke="midnightblue" d="M284.213,-25.3803C292.803,-26.6155 301.525,-27.8697 309.941,-29.0797"/>
<polygon fill="midnightblue" stroke="midnightblue" points="284.613,-21.9018 274.216,-23.9429 283.616,-28.8306 284.613,-21.9018"/>
</g>
</g>
</svg>
