<?xml version="1.0" encoding="UTF-8" standalone="no"?>
<!DOCTYPE svg PUBLIC "-//W3C//DTD SVG 1.1//EN"
 "http://www.w3.org/Graphics/SVG/1.1/DTD/svg11.dtd">
<!-- Generated by graphviz version 2.38.0 (20140413.2041)
 -->
<!-- Title: View::ActionScene Pages: 1 -->
<svg width="2255pt" height="650pt"
 viewBox="0.00 0.00 2255.00 650.00" xmlns="http://www.w3.org/2000/svg" xmlns:xlink="http://www.w3.org/1999/xlink">
<g id="graph0" class="graph" transform="scale(1 1) rotate(0) translate(4 646)">
<title>View::ActionScene</title>
<polygon fill="white" stroke="none" points="-4,4 -4,-646 2251,-646 2251,4 -4,4"/>
<!-- Node2 -->
<g id="node1" class="node"><title>Node2</title>
<polygon fill="#bfbfbf" stroke="black" points="1129.5,-0.5 1129.5,-398.5 1271.5,-398.5 1271.5,-0.5 1129.5,-0.5"/>
<text text-anchor="middle" x="1200.5" y="-386.5" font-family="Helvetica,sans-Serif" font-size="10.00">View::ActionScene</text>
<polyline fill="none" stroke="black" points="1129.5,-379.5 1271.5,-379.5 "/>
<text text-anchor="middle" x="1200.5" y="-367.5" font-family="Helvetica,sans-Serif" font-size="10.00"> </text>
<polyline fill="none" stroke="black" points="1129.5,-360.5 1271.5,-360.5 "/>
<text text-anchor="start" x="1137.5" y="-348.5" font-family="Helvetica,sans-Serif" font-size="10.00">+ ActionScene()</text>
<text text-anchor="start" x="1137.5" y="-337.5" font-family="Helvetica,sans-Serif" font-size="10.00">+ ~ActionScene()</text>
<text text-anchor="start" x="1137.5" y="-326.5" font-family="Helvetica,sans-Serif" font-size="10.00">+ mouseMoveEvent()</text>
<text text-anchor="start" x="1137.5" y="-315.5" font-family="Helvetica,sans-Serif" font-size="10.00">+ mousePressEvent()</text>
<text text-anchor="start" x="1137.5" y="-304.5" font-family="Helvetica,sans-Serif" font-size="10.00">+ mouseDoubleClickEvent()</text>
<text text-anchor="start" x="1137.5" y="-293.5" font-family="Helvetica,sans-Serif" font-size="10.00">+ mouseReleaseEvent()</text>
<text text-anchor="start" x="1137.5" y="-282.5" font-family="Helvetica,sans-Serif" font-size="10.00">+ wheelEvent()</text>
<text text-anchor="start" x="1137.5" y="-271.5" font-family="Helvetica,sans-Serif" font-size="10.00">+ resizeScene()</text>
<text text-anchor="start" x="1137.5" y="-260.5" font-family="Helvetica,sans-Serif" font-size="10.00">+ clearScene()</text>
<text text-anchor="start" x="1137.5" y="-249.5" font-family="Helvetica,sans-Serif" font-size="10.00">+ setLayout()</text>
<text text-anchor="start" x="1137.5" y="-238.5" font-family="Helvetica,sans-Serif" font-size="10.00">and 15 more...</text>
<text text-anchor="start" x="1137.5" y="-227.5" font-family="Helvetica,sans-Serif" font-size="10.00">+ showEndMissionDisplay()</text>
<text text-anchor="start" x="1137.5" y="-216.5" font-family="Helvetica,sans-Serif" font-size="10.00">+ updateNearbyTiles()</text>
<text text-anchor="start" x="1137.5" y="-205.5" font-family="Helvetica,sans-Serif" font-size="10.00">+ shootTheShot()</text>
<text text-anchor="start" x="1137.5" y="-194.5" font-family="Helvetica,sans-Serif" font-size="10.00">+ checkWalkingIntoWalls()</text>
<text text-anchor="start" x="1137.5" y="-183.5" font-family="Helvetica,sans-Serif" font-size="10.00">+ actorWasHit()</text>
<text text-anchor="start" x="1137.5" y="-172.5" font-family="Helvetica,sans-Serif" font-size="10.00">+ updateEnemyLineOfSight()</text>
<text text-anchor="start" x="1137.5" y="-161.5" font-family="Helvetica,sans-Serif" font-size="10.00">+ enemyWandered()</text>
<text text-anchor="start" x="1137.5" y="-150.5" font-family="Helvetica,sans-Serif" font-size="10.00">+ enemyAttacked()</text>
<text text-anchor="start" x="1137.5" y="-139.5" font-family="Helvetica,sans-Serif" font-size="10.00">+ enemyPatrolled()</text>
<text text-anchor="start" x="1137.5" y="-128.5" font-family="Helvetica,sans-Serif" font-size="10.00">+ removeDeadEnemy()</text>
<text text-anchor="start" x="1137.5" y="-117.5" font-family="Helvetica,sans-Serif" font-size="10.00">+ removeDeadActor()</text>
<text text-anchor="start" x="1137.5" y="-106.5" font-family="Helvetica,sans-Serif" font-size="10.00">&#45; addTile()</text>
<text text-anchor="start" x="1137.5" y="-95.5" font-family="Helvetica,sans-Serif" font-size="10.00">&#45; addFloor()</text>
<text text-anchor="start" x="1137.5" y="-84.5" font-family="Helvetica,sans-Serif" font-size="10.00">&#45; addEdge()</text>
<text text-anchor="start" x="1137.5" y="-73.5" font-family="Helvetica,sans-Serif" font-size="10.00">&#45; addWall()</text>
<text text-anchor="start" x="1137.5" y="-62.5" font-family="Helvetica,sans-Serif" font-size="10.00">&#45; addHorizontalPark()</text>
<text text-anchor="start" x="1137.5" y="-51.5" font-family="Helvetica,sans-Serif" font-size="10.00">&#45; addVerticalPark()</text>
<text text-anchor="start" x="1137.5" y="-40.5" font-family="Helvetica,sans-Serif" font-size="10.00">&#45; addGuard()</text>
<text text-anchor="start" x="1137.5" y="-29.5" font-family="Helvetica,sans-Serif" font-size="10.00">&#45; addExit()</text>
<text text-anchor="start" x="1137.5" y="-18.5" font-family="Helvetica,sans-Serif" font-size="10.00">&#45; addVerticalCar()</text>
<text text-anchor="start" x="1137.5" y="-7.5" font-family="Helvetica,sans-Serif" font-size="10.00">&#45; addHorizontalCar()</text>
</g>
<!-- Node3 -->
<g id="node2" class="node"><title>Node3</title>
<g id="a_node2"><a xlink:href="class_q_graphics_scene.html" target="_top" xlink:title="{QGraphicsScene\n||}">
<polygon fill="white" stroke="black" points="0,-468.5 0,-525.5 91,-525.5 91,-468.5 0,-468.5"/>
<text text-anchor="middle" x="45.5" y="-513.5" font-family="Helvetica,sans-Serif" font-size="10.00">QGraphicsScene</text>
<polyline fill="none" stroke="black" points="0,-506.5 91,-506.5 "/>
<text text-anchor="middle" x="45.5" y="-494.5" font-family="Helvetica,sans-Serif" font-size="10.00"> </text>
<polyline fill="none" stroke="black" points="0,-487.5 91,-487.5 "/>
<text text-anchor="middle" x="45.5" y="-475.5" font-family="Helvetica,sans-Serif" font-size="10.00"> </text>
</a>
</g>
</g>
<!-- Node3&#45;&gt;Node2 -->
<g id="edge1" class="edge"><title>Node3&#45;&gt;Node2</title>
<path fill="none" stroke="midnightblue" d="M88.8521,-463.031C92.6874,-460.807 96.5973,-458.757 100.5,-457 466.179,-292.404 949.568,-227.097 1129.26,-207.482"/>
<polygon fill="none" stroke="midnightblue" points="86.7254,-460.232 80.0768,-468.481 90.4184,-466.179 86.7254,-460.232"/>
</g>
<!-- Node4 -->
<g id="node3" class="node"><title>Node4</title>
<polygon fill="white" stroke="#bfbfbf" points="109.5,-463 109.5,-531 243.5,-531 243.5,-463 109.5,-463"/>
<text text-anchor="start" x="117.5" y="-519" font-family="Helvetica,sans-Serif" font-size="10.00">vector&lt; View::ActionScene</text>
<text text-anchor="middle" x="176.5" y="-508" font-family="Helvetica,sans-Serif" font-size="10.00">PC * &gt;</text>
<polyline fill="none" stroke="#bfbfbf" points="109.5,-501 243.5,-501 "/>
<text text-anchor="middle" x="176.5" y="-489" font-family="Helvetica,sans-Serif" font-size="10.00"> </text>
<polyline fill="none" stroke="#bfbfbf" points="109.5,-482 243.5,-482 "/>
<text text-anchor="middle" x="176.5" y="-470" font-family="Helvetica,sans-Serif" font-size="10.00"> </text>
</g>
<!-- Node4&#45;&gt;Node2 -->
<g id="edge2" class="edge"><title>Node4&#45;&gt;Node2</title>
<path fill="none" stroke="#404040" d="M239.708,-462.944C244.014,-460.884 248.306,-458.884 252.5,-457 297.295,-436.874 308.742,-432.01 355.5,-417 630.49,-328.725 964.714,-251.822 1117.31,-218.338"/>
<polygon fill="none" stroke="#404040" points="1117.58,-218.279 1122.58,-213.089 1129.3,-215.714 1124.29,-220.904 1117.58,-218.279"/>
<text text-anchor="middle" x="386" y="-425.5" font-family="Helvetica,sans-Serif" font-size="10.00"> &#45;playerParty_</text>
</g>
<!-- Node5 -->
<g id="node4" class="node"><title>Node5</title>
<g id="a_node4"><a xlink:href="class_view_1_1_action_scene_end_mission_display.html" target="_top" xlink:title="{View::ActionSceneEndMission\lDisplay\n||+ ActionSceneEndMissionDisplay()\l+ ~ActionSceneEndMissionDisplay()\l}">
<polygon fill="white" stroke="black" points="261.5,-457.5 261.5,-536.5 437.5,-536.5 437.5,-457.5 261.5,-457.5"/>
<text text-anchor="start" x="269.5" y="-524.5" font-family="Helvetica,sans-Serif" font-size="10.00">View::ActionSceneEndMission</text>
<text text-anchor="middle" x="349.5" y="-513.5" font-family="Helvetica,sans-Serif" font-size="10.00">Display</text>
<polyline fill="none" stroke="black" points="261.5,-506.5 437.5,-506.5 "/>
<text text-anchor="middle" x="349.5" y="-494.5" font-family="Helvetica,sans-Serif" font-size="10.00"> </text>
<polyline fill="none" stroke="black" points="261.5,-487.5 437.5,-487.5 "/>
<text text-anchor="start" x="269.5" y="-475.5" font-family="Helvetica,sans-Serif" font-size="10.00">+ ActionSceneEndMissionDisplay()</text>
<text text-anchor="start" x="269.5" y="-464.5" font-family="Helvetica,sans-Serif" font-size="10.00">+ ~ActionSceneEndMissionDisplay()</text>
</a>
</g>
</g>
<!-- Node5&#45;&gt;Node2 -->
<g id="edge3" class="edge"><title>Node5&#45;&gt;Node2</title>
<path fill="none" stroke="#404040" d="M392.91,-457.333C410.709,-443.051 432.128,-427.745 453.5,-417 679.733,-303.257 975.378,-239.978 1117.33,-214.266"/>
<polygon fill="none" stroke="#404040" points="1117.54,-214.23 1122.74,-209.235 1129.35,-212.114 1124.15,-217.109 1117.54,-214.23"/>
<text text-anchor="middle" x="500.5" y="-425.5" font-family="Helvetica,sans-Serif" font-size="10.00"> &#45;endMissionDisplay_</text>
</g>
<!-- Node6 -->
<g id="node5" class="node"><title>Node6</title>
<g id="a_node5"><a xlink:href="class_q_widget.html" target="_top" xlink:title="{QWidget\n||}">
<polygon fill="white" stroke="black" points="259,-584.5 259,-641.5 314,-641.5 314,-584.5 259,-584.5"/>
<text text-anchor="middle" x="286.5" y="-629.5" font-family="Helvetica,sans-Serif" font-size="10.00">QWidget</text>
<polyline fill="none" stroke="black" points="259,-622.5 314,-622.5 "/>
<text text-anchor="middle" x="286.5" y="-610.5" font-family="Helvetica,sans-Serif" font-size="10.00"> </text>
<polyline fill="none" stroke="black" points="259,-603.5 314,-603.5 "/>
<text text-anchor="middle" x="286.5" y="-591.5" font-family="Helvetica,sans-Serif" font-size="10.00"> </text>
</a>
</g>
</g>
<!-- Node6&#45;&gt;Node5 -->
<g id="edge4" class="edge"><title>Node6&#45;&gt;Node5</title>
<path fill="none" stroke="midnightblue" d="M306.596,-575.635C313.487,-563.167 321.219,-549.175 328.201,-536.541"/>
<polygon fill="none" stroke="midnightblue" points="303.524,-573.958 301.751,-584.404 309.651,-577.344 303.524,-573.958"/>
</g>
<!-- Node7 -->
<g id="node6" class="node"><title>Node7</title>
<polygon fill="white" stroke="#bfbfbf" points="332.5,-584.5 332.5,-641.5 494.5,-641.5 494.5,-584.5 332.5,-584.5"/>
<text text-anchor="middle" x="413.5" y="-629.5" font-family="Helvetica,sans-Serif" font-size="10.00">ActionSceneEndMissionDisplay *</text>
<polyline fill="none" stroke="#bfbfbf" points="332.5,-622.5 494.5,-622.5 "/>
<text text-anchor="middle" x="413.5" y="-610.5" font-family="Helvetica,sans-Serif" font-size="10.00"> </text>
<polyline fill="none" stroke="#bfbfbf" points="332.5,-603.5 494.5,-603.5 "/>
<text text-anchor="middle" x="413.5" y="-591.5" font-family="Helvetica,sans-Serif" font-size="10.00"> </text>
</g>
<!-- Node7&#45;&gt;Node5 -->
<g id="edge5" class="edge"><title>Node7&#45;&gt;Node5</title>
<path fill="none" stroke="#404040" d="M398.007,-584.404C391.707,-573.181 384.231,-559.864 377.058,-547.088"/>
<polygon fill="none" stroke="#404040" points="377.011,-547.004 370.586,-543.731 371.137,-536.541 377.562,-539.814 377.011,-547.004"/>
<text text-anchor="middle" x="394.5" y="-558" font-family="Helvetica,sans-Serif" font-size="10.00"> &#45;ui</text>
</g>
<!-- Node8 -->
<g id="node7" class="node"><title>Node8</title>
<polygon fill="white" stroke="#bfbfbf" points="456,-468.5 456,-525.5 509,-525.5 509,-468.5 456,-468.5"/>
<text text-anchor="middle" x="482.5" y="-513.5" font-family="Helvetica,sans-Serif" font-size="10.00">QPointF</text>
<polyline fill="none" stroke="#bfbfbf" points="456,-506.5 509,-506.5 "/>
<text text-anchor="middle" x="482.5" y="-494.5" font-family="Helvetica,sans-Serif" font-size="10.00"> </text>
<polyline fill="none" stroke="#bfbfbf" points="456,-487.5 509,-487.5 "/>
<text text-anchor="middle" x="482.5" y="-475.5" font-family="Helvetica,sans-Serif" font-size="10.00"> </text>
</g>
<!-- Node8&#45;&gt;Node2 -->
<g id="edge6" class="edge"><title>Node8&#45;&gt;Node2</title>
<path fill="none" stroke="#404040" d="M505.024,-468.251C509.206,-464.123 513.761,-460.191 518.5,-457 712.924,-326.101 983.168,-250.319 1117.63,-218.439"/>
<polygon fill="none" stroke="#404040" points="1117.75,-218.412 1122.68,-213.148 1129.43,-215.673 1124.5,-220.937 1117.75,-218.412"/>
<text text-anchor="middle" x="600" y="-425.5" font-family="Helvetica,sans-Serif" font-size="10.00"> &#45;shootTarget_</text>
</g>
<!-- Node9 -->
<g id="node8" class="node"><title>Node9</title>
<polygon fill="white" stroke="#bfbfbf" points="527.5,-463 527.5,-531 661.5,-531 661.5,-463 527.5,-463"/>
<text text-anchor="start" x="535.5" y="-519" font-family="Helvetica,sans-Serif" font-size="10.00">vector&lt; View::ActionScene</text>
<text text-anchor="middle" x="594.5" y="-508" font-family="Helvetica,sans-Serif" font-size="10.00">NPC * &gt;</text>
<polyline fill="none" stroke="#bfbfbf" points="527.5,-501 661.5,-501 "/>
<text text-anchor="middle" x="594.5" y="-489" font-family="Helvetica,sans-Serif" font-size="10.00"> </text>
<polyline fill="none" stroke="#bfbfbf" points="527.5,-482 661.5,-482 "/>
<text text-anchor="middle" x="594.5" y="-470" font-family="Helvetica,sans-Serif" font-size="10.00"> </text>
</g>
<!-- Node9&#45;&gt;Node2 -->
<g id="edge7" class="edge"><title>Node9&#45;&gt;Node2</title>
<path fill="none" stroke="#404040" d="M658.716,-462.914C662.699,-460.903 666.651,-458.919 670.5,-457 828.063,-378.459 1013.5,-289.504 1117.99,-239.695"/>
<polygon fill="none" stroke="#404040" points="1118.26,-239.571 1121.95,-233.379 1129.09,-234.409 1125.39,-240.601 1118.26,-239.571"/>
<text text-anchor="middle" x="767" y="-425.5" font-family="Helvetica,sans-Serif" font-size="10.00"> &#45;enemies_</text>
</g>
<!-- Node10 -->
<g id="node9" class="node"><title>Node10</title>
<polygon fill="white" stroke="#bfbfbf" points="680,-463 680,-531 819,-531 819,-463 680,-463"/>
<text text-anchor="start" x="688" y="-519" font-family="Helvetica,sans-Serif" font-size="10.00">map&lt; TileType, std</text>
<text text-anchor="middle" x="749.5" y="-508" font-family="Helvetica,sans-Serif" font-size="10.00">::function&lt; void(QPointF)&gt; &gt;</text>
<polyline fill="none" stroke="#bfbfbf" points="680,-501 819,-501 "/>
<text text-anchor="middle" x="749.5" y="-489" font-family="Helvetica,sans-Serif" font-size="10.00"> </text>
<polyline fill="none" stroke="#bfbfbf" points="680,-482 819,-482 "/>
<text text-anchor="middle" x="749.5" y="-470" font-family="Helvetica,sans-Serif" font-size="10.00"> </text>
</g>
<!-- Node10&#45;&gt;Node2 -->
<g id="edge8" class="edge"><title>Node10&#45;&gt;Node2</title>
<path fill="none" stroke="#404040" d="M785.504,-462.638C802.038,-447.966 822.223,-430.94 841.5,-417 932.565,-351.146 1044.38,-285.971 1118.78,-244.613"/>
<polygon fill="none" stroke="#404040" points="1118.99,-244.502 1122.3,-238.095 1129.48,-238.687 1126.17,-245.093 1118.99,-244.502"/>
<text text-anchor="middle" x="870" y="-425.5" font-family="Helvetica,sans-Serif" font-size="10.00"> &#45;tileFunction</text>
</g>
<!-- Node11 -->
<g id="node10" class="node"><title>Node11</title>
<polygon fill="white" stroke="#bfbfbf" points="837.5,-468.5 837.5,-525.5 969.5,-525.5 969.5,-468.5 837.5,-468.5"/>
<text text-anchor="middle" x="903.5" y="-513.5" font-family="Helvetica,sans-Serif" font-size="10.00">vector&lt; QGraphicsItem * &gt;</text>
<polyline fill="none" stroke="#bfbfbf" points="837.5,-506.5 969.5,-506.5 "/>
<text text-anchor="middle" x="903.5" y="-494.5" font-family="Helvetica,sans-Serif" font-size="10.00"> </text>
<polyline fill="none" stroke="#bfbfbf" points="837.5,-487.5 969.5,-487.5 "/>
<text text-anchor="middle" x="903.5" y="-475.5" font-family="Helvetica,sans-Serif" font-size="10.00"> </text>
</g>
<!-- Node11&#45;&gt;Node2 -->
<g id="edge9" class="edge"><title>Node11&#45;&gt;Node2</title>
<path fill="none" stroke="#404040" d="M900.144,-468.438C899.482,-452.48 900.939,-432.542 909.5,-417 955.713,-333.102 1049.75,-272.469 1118.46,-237.074"/>
<polygon fill="none" stroke="#404040" points="1118.55,-237.028 1122.1,-230.75 1129.26,-231.611 1125.71,-237.889 1118.55,-237.028"/>
<text text-anchor="middle" x="943.5" y="-431" font-family="Helvetica,sans-Serif" font-size="10.00"> &#45;blockingTiles_</text>
<text text-anchor="middle" x="943.5" y="-420" font-family="Helvetica,sans-Serif" font-size="10.00">&#45;clearTiles_</text>
</g>
<!-- Node12 -->
<g id="node11" class="node"><title>Node12</title>
<polygon fill="white" stroke="#bfbfbf" points="988,-468.5 988,-525.5 1017,-525.5 1017,-468.5 988,-468.5"/>
<text text-anchor="middle" x="1002.5" y="-513.5" font-family="Helvetica,sans-Serif" font-size="10.00">int</text>
<polyline fill="none" stroke="#bfbfbf" points="988,-506.5 1017,-506.5 "/>
<text text-anchor="middle" x="1002.5" y="-494.5" font-family="Helvetica,sans-Serif" font-size="10.00"> </text>
<polyline fill="none" stroke="#bfbfbf" points="988,-487.5 1017,-487.5 "/>
<text text-anchor="middle" x="1002.5" y="-475.5" font-family="Helvetica,sans-Serif" font-size="10.00"> </text>
</g>
<!-- Node12&#45;&gt;Node2 -->
<g id="edge10" class="edge"><title>Node12&#45;&gt;Node2</title>
<path fill="none" stroke="#404040" d="M988.049,-468.245C981.981,-452.772 977.727,-433.379 984.5,-417 1011.89,-350.763 1070.46,-294.178 1119.71,-255.486"/>
<polygon fill="none" stroke="#404040" points="1119.92,-255.321 1122.23,-248.488 1129.42,-247.989 1127.12,-254.821 1119.92,-255.321"/>
<text text-anchor="middle" x="1018" y="-425.5" font-family="Helvetica,sans-Serif" font-size="10.00"> &#45;enemyCount_</text>
</g>
<!-- Node13 -->
<g id="node12" class="node"><title>Node13</title>
<polygon fill="white" stroke="#bfbfbf" points="1035,-468.5 1035,-525.5 1090,-525.5 1090,-468.5 1035,-468.5"/>
<text text-anchor="middle" x="1062.5" y="-513.5" font-family="Helvetica,sans-Serif" font-size="10.00">QTimer *</text>
<polyline fill="none" stroke="#bfbfbf" points="1035,-506.5 1090,-506.5 "/>
<text text-anchor="middle" x="1062.5" y="-494.5" font-family="Helvetica,sans-Serif" font-size="10.00"> </text>
<polyline fill="none" stroke="#bfbfbf" points="1035,-487.5 1090,-487.5 "/>
<text text-anchor="middle" x="1062.5" y="-475.5" font-family="Helvetica,sans-Serif" font-size="10.00"> </text>
</g>
<!-- Node13&#45;&gt;Node2 -->
<g id="edge11" class="edge"><title>Node13&#45;&gt;Node2</title>
<path fill="none" stroke="#404040" d="M1056.62,-468.401C1054.44,-452.976 1053.55,-433.58 1058.5,-417 1071.58,-373.202 1096.68,-330.039 1122.18,-293.916"/>
<polygon fill="none" stroke="#404040" points="1122.36,-293.66 1122.62,-286.454 1129.37,-283.92 1129.11,-291.126 1122.36,-293.66"/>
<text text-anchor="middle" x="1101" y="-431" font-family="Helvetica,sans-Serif" font-size="10.00"> &#45;endMissionTimer_</text>
<text text-anchor="middle" x="1101" y="-420" font-family="Helvetica,sans-Serif" font-size="10.00">&#45;nearbyTilesTimer_</text>
</g>
<!-- Node14 -->
<g id="node13" class="node"><title>Node14</title>
<polygon fill="white" stroke="#bfbfbf" points="1130,-468.5 1130,-525.5 1165,-525.5 1165,-468.5 1130,-468.5"/>
<text text-anchor="middle" x="1147.5" y="-513.5" font-family="Helvetica,sans-Serif" font-size="10.00">bool</text>
<polyline fill="none" stroke="#bfbfbf" points="1130,-506.5 1165,-506.5 "/>
<text text-anchor="middle" x="1147.5" y="-494.5" font-family="Helvetica,sans-Serif" font-size="10.00"> </text>
<polyline fill="none" stroke="#bfbfbf" points="1130,-487.5 1165,-487.5 "/>
<text text-anchor="middle" x="1147.5" y="-475.5" font-family="Helvetica,sans-Serif" font-size="10.00"> </text>
</g>
<!-- Node14&#45;&gt;Node2 -->
<g id="edge12" class="edge"><title>Node14&#45;&gt;Node2</title>
<path fill="none" stroke="#404040" d="M1146.35,-468.477C1146.09,-453.247 1146.38,-434.013 1148.5,-417 1148.76,-414.923 1149.03,-412.838 1149.31,-410.744"/>
<polygon fill="none" stroke="#404040" points="1149.34,-410.556 1146.24,-404.045 1151.06,-398.68 1154.16,-405.191 1149.34,-410.556"/>
<text text-anchor="middle" x="1190.5" y="-431" font-family="Helvetica,sans-Serif" font-size="10.00"> &#45;missionSuccess_</text>
<text text-anchor="middle" x="1190.5" y="-420" font-family="Helvetica,sans-Serif" font-size="10.00">&#45;missionEnded_</text>
</g>
<!-- Node15 -->
<g id="node14" class="node"><title>Node15</title>
<polygon fill="white" stroke="#bfbfbf" points="1191.5,-468.5 1191.5,-525.5 1317.5,-525.5 1317.5,-468.5 1191.5,-468.5"/>
<text text-anchor="middle" x="1254.5" y="-513.5" font-family="Helvetica,sans-Serif" font-size="10.00">QGraphicsProxyWidget *</text>
<polyline fill="none" stroke="#bfbfbf" points="1191.5,-506.5 1317.5,-506.5 "/>
<text text-anchor="middle" x="1254.5" y="-494.5" font-family="Helvetica,sans-Serif" font-size="10.00"> </text>
<polyline fill="none" stroke="#bfbfbf" points="1191.5,-487.5 1317.5,-487.5 "/>
<text text-anchor="middle" x="1254.5" y="-475.5" font-family="Helvetica,sans-Serif" font-size="10.00"> </text>
</g>
<!-- Node15&#45;&gt;Node2 -->
<g id="edge13" class="edge"><title>Node15&#45;&gt;Node2</title>
<path fill="none" stroke="#404040" d="M1249.47,-468.465C1246.71,-453.397 1243.03,-433.213 1238.9,-410.651"/>
<polygon fill="none" stroke="#404040" points="1238.87,-410.455 1233.85,-405.272 1236.71,-398.65 1241.72,-403.833 1238.87,-410.455"/>
<text text-anchor="middle" x="1302.5" y="-425.5" font-family="Helvetica,sans-Serif" font-size="10.00"> &#45;endMissionProxyWidget_</text>
</g>
<!-- Node16 -->
<g id="node15" class="node"><title>Node16</title>
<polygon fill="white" stroke="#bfbfbf" points="1356.5,-468.5 1356.5,-525.5 1388.5,-525.5 1388.5,-468.5 1356.5,-468.5"/>
<text text-anchor="middle" x="1372.5" y="-513.5" font-family="Helvetica,sans-Serif" font-size="10.00">uint</text>
<polyline fill="none" stroke="#bfbfbf" points="1356.5,-506.5 1388.5,-506.5 "/>
<text text-anchor="middle" x="1372.5" y="-494.5" font-family="Helvetica,sans-Serif" font-size="10.00"> </text>
<polyline fill="none" stroke="#bfbfbf" points="1356.5,-487.5 1388.5,-487.5 "/>
<text text-anchor="middle" x="1372.5" y="-475.5" font-family="Helvetica,sans-Serif" font-size="10.00"> </text>
</g>
<!-- Node16&#45;&gt;Node2 -->
<g id="edge14" class="edge"><title>Node16&#45;&gt;Node2</title>
<path fill="none" stroke="#404040" d="M1373.77,-468.457C1373.59,-452.875 1371.82,-433.305 1365.5,-417 1346.29,-367.442 1312.11,-319.642 1279.83,-281.62"/>
<polygon fill="none" stroke="#404040" points="1279.51,-281.253 1272.56,-279.325 1271.67,-272.169 1278.62,-274.098 1279.51,-281.253"/>
<text text-anchor="middle" x="1415" y="-425.5" font-family="Helvetica,sans-Serif" font-size="10.00"> &#45;formationSpacing_</text>
</g>
<!-- Node17 -->
<g id="node16" class="node"><title>Node17</title>
<polygon fill="white" stroke="#bfbfbf" points="1406.5,-463 1406.5,-531 1522.5,-531 1522.5,-463 1406.5,-463"/>
<text text-anchor="start" x="1414.5" y="-519" font-family="Helvetica,sans-Serif" font-size="10.00">vector&lt; std::vector</text>
<text text-anchor="middle" x="1464.5" y="-508" font-family="Helvetica,sans-Serif" font-size="10.00">&lt; QGraphicsItem * &gt; &gt;</text>
<polyline fill="none" stroke="#bfbfbf" points="1406.5,-501 1522.5,-501 "/>
<text text-anchor="middle" x="1464.5" y="-489" font-family="Helvetica,sans-Serif" font-size="10.00"> </text>
<polyline fill="none" stroke="#bfbfbf" points="1406.5,-482 1522.5,-482 "/>
<text text-anchor="middle" x="1464.5" y="-470" font-family="Helvetica,sans-Serif" font-size="10.00"> </text>
</g>
<!-- Node17&#45;&gt;Node2 -->
<g id="edge15" class="edge"><title>Node17&#45;&gt;Node2</title>
<path fill="none" stroke="#404040" d="M1469.67,-462.639C1470.47,-447.967 1469.28,-430.941 1462.5,-417 1424.62,-339.128 1344.06,-279.388 1282.21,-242.583"/>
<polygon fill="none" stroke="#404040" points="1282.04,-242.482 1274.84,-242.908 1271.68,-236.427 1278.88,-236.001 1282.04,-242.482"/>
<text text-anchor="middle" x="1494.5" y="-425.5" font-family="Helvetica,sans-Serif" font-size="10.00"> &#45;tilesNear_</text>
</g>
<!-- Node18 -->
<g id="node17" class="node"><title>Node18</title>
<polygon fill="white" stroke="#bfbfbf" points="1540.5,-468.5 1540.5,-525.5 1616.5,-525.5 1616.5,-468.5 1540.5,-468.5"/>
<text text-anchor="middle" x="1578.5" y="-513.5" font-family="Helvetica,sans-Serif" font-size="10.00">vector&lt; uint &gt;</text>
<polyline fill="none" stroke="#bfbfbf" points="1540.5,-506.5 1616.5,-506.5 "/>
<text text-anchor="middle" x="1578.5" y="-494.5" font-family="Helvetica,sans-Serif" font-size="10.00"> </text>
<polyline fill="none" stroke="#bfbfbf" points="1540.5,-487.5 1616.5,-487.5 "/>
<text text-anchor="middle" x="1578.5" y="-475.5" font-family="Helvetica,sans-Serif" font-size="10.00"> </text>
</g>
<!-- Node18&#45;&gt;Node2 -->
<g id="edge16" class="edge"><title>Node18&#45;&gt;Node2</title>
<path fill="none" stroke="#404040" d="M1562.91,-468.491C1552.94,-452.36 1539,-432.226 1523.5,-417 1450.94,-345.707 1351.88,-283.33 1282.67,-244.075"/>
<polygon fill="none" stroke="#404040" points="1282.29,-243.859 1275.09,-244.404 1271.83,-237.976 1279.02,-237.431 1282.29,-243.859"/>
<text text-anchor="middle" x="1579" y="-425.5" font-family="Helvetica,sans-Serif" font-size="10.00"> &#45;deadEnemies_</text>
</g>
<!-- Node19 -->
<g id="node18" class="node"><title>Node19</title>
<polygon fill="white" stroke="#bfbfbf" points="1634.5,-468.5 1634.5,-525.5 1688.5,-525.5 1688.5,-468.5 1634.5,-468.5"/>
<text text-anchor="middle" x="1661.5" y="-513.5" font-family="Helvetica,sans-Serif" font-size="10.00">mt19937</text>
<polyline fill="none" stroke="#bfbfbf" points="1634.5,-506.5 1688.5,-506.5 "/>
<text text-anchor="middle" x="1661.5" y="-494.5" font-family="Helvetica,sans-Serif" font-size="10.00"> </text>
<polyline fill="none" stroke="#bfbfbf" points="1634.5,-487.5 1688.5,-487.5 "/>
<text text-anchor="middle" x="1661.5" y="-475.5" font-family="Helvetica,sans-Serif" font-size="10.00"> </text>
</g>
<!-- Node19&#45;&gt;Node2 -->
<g id="edge17" class="edge"><title>Node19&#45;&gt;Node2</title>
<path fill="none" stroke="#404040" d="M1651.21,-468.127C1644.03,-451.666 1633.11,-431.315 1618.5,-417 1521.51,-321.979 1374.35,-259.106 1282.99,-226.675"/>
<polygon fill="none" stroke="#404040" points="1282.91,-226.646 1275.93,-228.439 1271.59,-222.68 1278.57,-220.888 1282.91,-226.646"/>
<text text-anchor="middle" x="1645.5" y="-425.5" font-family="Helvetica,sans-Serif" font-size="10.00"> &#45;rng</text>
</g>
<!-- Node20 -->
<g id="node19" class="node"><title>Node20</title>
<polygon fill="white" stroke="#bfbfbf" points="1707,-468.5 1707,-525.5 1814,-525.5 1814,-468.5 1707,-468.5"/>
<text text-anchor="middle" x="1760.5" y="-513.5" font-family="Helvetica,sans-Serif" font-size="10.00">vector&lt; QPixmap * &gt;</text>
<polyline fill="none" stroke="#bfbfbf" points="1707,-506.5 1814,-506.5 "/>
<text text-anchor="middle" x="1760.5" y="-494.5" font-family="Helvetica,sans-Serif" font-size="10.00"> </text>
<polyline fill="none" stroke="#bfbfbf" points="1707,-487.5 1814,-487.5 "/>
<text text-anchor="middle" x="1760.5" y="-475.5" font-family="Helvetica,sans-Serif" font-size="10.00"> </text>
</g>
<!-- Node20&#45;&gt;Node2 -->
<g id="edge18" class="edge"><title>Node20&#45;&gt;Node2</title>
<path fill="none" stroke="#404040" d="M1729.09,-468.459C1709.8,-452.317 1684.14,-432.182 1659.5,-417 1534.26,-339.827 1377.14,-271.227 1283,-232.844"/>
<polygon fill="none" stroke="#404040" points="1282.96,-232.827 1275.89,-234.277 1271.84,-228.314 1278.9,-226.864 1282.96,-232.827"/>
<text text-anchor="middle" x="1711.5" y="-425.5" font-family="Helvetica,sans-Serif" font-size="10.00"> &#45;carSet_</text>
</g>
<!-- Node21 -->
<g id="node20" class="node"><title>Node21</title>
<polygon fill="white" stroke="#bfbfbf" points="1832.5,-463 1832.5,-531 1966.5,-531 1966.5,-463 1832.5,-463"/>
<text text-anchor="start" x="1840.5" y="-519" font-family="Helvetica,sans-Serif" font-size="10.00">vector&lt; std::vector</text>
<text text-anchor="middle" x="1899.5" y="-508" font-family="Helvetica,sans-Serif" font-size="10.00">&lt; QGraphicsLineItem * &gt; &gt;</text>
<polyline fill="none" stroke="#bfbfbf" points="1832.5,-501 1966.5,-501 "/>
<text text-anchor="middle" x="1899.5" y="-489" font-family="Helvetica,sans-Serif" font-size="10.00"> </text>
<polyline fill="none" stroke="#bfbfbf" points="1832.5,-482 1966.5,-482 "/>
<text text-anchor="middle" x="1899.5" y="-470" font-family="Helvetica,sans-Serif" font-size="10.00"> </text>
</g>
<!-- Node21&#45;&gt;Node2 -->
<g id="edge19" class="edge"><title>Node21&#45;&gt;Node2</title>
<path fill="none" stroke="#404040" d="M1834.47,-462.846C1830.43,-460.852 1826.41,-458.89 1822.5,-457 1784.18,-438.493 1774.57,-433.876 1735.5,-417 1576.64,-348.38 1388.63,-273.81 1283.1,-232.55"/>
<polygon fill="none" stroke="#404040" points="1283.08,-232.541 1276.03,-234.084 1271.9,-228.175 1278.94,-226.632 1283.08,-232.541"/>
<text text-anchor="middle" x="1819" y="-425.5" font-family="Helvetica,sans-Serif" font-size="10.00"> &#45;enemySights_</text>
</g>
<!-- Node22 -->
<g id="node21" class="node"><title>Node22</title>
<polygon fill="white" stroke="#bfbfbf" points="1984.5,-468.5 1984.5,-525.5 2062.5,-525.5 2062.5,-468.5 1984.5,-468.5"/>
<text text-anchor="middle" x="2023.5" y="-513.5" font-family="Helvetica,sans-Serif" font-size="10.00">vector&lt; bool &gt;</text>
<polyline fill="none" stroke="#bfbfbf" points="1984.5,-506.5 2062.5,-506.5 "/>
<text text-anchor="middle" x="2023.5" y="-494.5" font-family="Helvetica,sans-Serif" font-size="10.00"> </text>
<polyline fill="none" stroke="#bfbfbf" points="1984.5,-487.5 2062.5,-487.5 "/>
<text text-anchor="middle" x="2023.5" y="-475.5" font-family="Helvetica,sans-Serif" font-size="10.00"> </text>
</g>
<!-- Node22&#45;&gt;Node2 -->
<g id="edge20" class="edge"><title>Node22&#45;&gt;Node2</title>
<path fill="none" stroke="#404040" d="M1992.89,-468.499C1987.34,-464.293 1981.42,-460.27 1975.5,-457 1927.03,-430.23 1910.02,-434.555 1857.5,-417 1651.16,-348.031 1407.85,-268.259 1283.22,-227.51"/>
<polygon fill="none" stroke="#404040" points="1282.94,-227.419 1276,-229.356 1271.54,-223.69 1278.48,-221.752 1282.94,-227.419"/>
<text text-anchor="middle" x="1965" y="-425.5" font-family="Helvetica,sans-Serif" font-size="10.00"> &#45;partyInPlay_</text>
</g>
<!-- Node23 -->
<g id="node22" class="node"><title>Node23</title>
<polygon fill="white" stroke="#bfbfbf" points="2081,-468.5 2081,-525.5 2182,-525.5 2182,-468.5 2081,-468.5"/>
<text text-anchor="middle" x="2131.5" y="-513.5" font-family="Helvetica,sans-Serif" font-size="10.00">vector&lt; QPixmap &gt;</text>
<polyline fill="none" stroke="#bfbfbf" points="2081,-506.5 2182,-506.5 "/>
<text text-anchor="middle" x="2131.5" y="-494.5" font-family="Helvetica,sans-Serif" font-size="10.00"> </text>
<polyline fill="none" stroke="#bfbfbf" points="2081,-487.5 2182,-487.5 "/>
<text text-anchor="middle" x="2131.5" y="-475.5" font-family="Helvetica,sans-Serif" font-size="10.00"> </text>
</g>
<!-- Node23&#45;&gt;Node2 -->
<g id="edge21" class="edge"><title>Node23&#45;&gt;Node2</title>
<path fill="none" stroke="#404040" d="M2092.73,-468.452C2067.27,-451.482 2032.66,-430.469 1999.5,-417 1747.44,-314.609 1431.26,-245.263 1283.62,-216.079"/>
<polygon fill="none" stroke="#404040" points="1283.34,-216.026 1276.69,-218.795 1271.57,-213.713 1278.23,-210.945 1283.34,-216.026"/>
<text text-anchor="middle" x="2061.5" y="-425.5" font-family="Helvetica,sans-Serif" font-size="10.00"> &#45;tileSet_</text>
</g>
<!-- Node24 -->
<g id="node23" class="node"><title>Node24</title>
<polygon fill="white" stroke="#bfbfbf" points="2200,-468.5 2200,-525.5 2247,-525.5 2247,-468.5 2200,-468.5"/>
<text text-anchor="middle" x="2223.5" y="-513.5" font-family="Helvetica,sans-Serif" font-size="10.00">QPoint</text>
<polyline fill="none" stroke="#bfbfbf" points="2200,-506.5 2247,-506.5 "/>
<text text-anchor="middle" x="2223.5" y="-494.5" font-family="Helvetica,sans-Serif" font-size="10.00"> </text>
<polyline fill="none" stroke="#bfbfbf" points="2200,-487.5 2247,-487.5 "/>
<text text-anchor="middle" x="2223.5" y="-475.5" font-family="Helvetica,sans-Serif" font-size="10.00"> </text>
</g>
<!-- Node24&#45;&gt;Node2 -->
<g id="edge22" class="edge"><title>Node24&#45;&gt;Node2</title>
<path fill="none" stroke="#404040" d="M2203.1,-468.23C2199.24,-464.105 2194.99,-460.178 2190.5,-457 2149.75,-428.136 2133.18,-431.851 2085.5,-417 1794.99,-326.514 1441.37,-249.771 1283.52,-217.209"/>
<polygon fill="none" stroke="#404040" points="1283.34,-217.172 1276.65,-219.881 1271.58,-214.755 1278.27,-212.045 1283.34,-217.172"/>
<text text-anchor="middle" x="2190" y="-425.5" font-family="Helvetica,sans-Serif" font-size="10.00"> &#45;playerEntry_</text>
</g>
</g>
</svg>
