<?xml version="1.0" encoding="UTF-8" standalone="no"?>
<!DOCTYPE svg PUBLIC "-//W3C//DTD SVG 1.1//EN"
 "http://www.w3.org/Graphics/SVG/1.1/DTD/svg11.dtd">
<!-- Generated by graphviz version 2.38.0 (20140413.2041)
 -->
<!-- Title: View::ActionSceneFeet::setRunning Pages: 1 -->
<!--zoomable 171 -->
<svg id="main" version="1.1" xmlns="http://www.w3.org/2000/svg" xmlns:xlink="http://www.w3.org/1999/xlink" xml:space="preserve" onload="init(evt)">
<style type="text/css"><![CDATA[
.edge:hover path { stroke: red; }
.edge:hover polygon { stroke: red; fill: red; }
]]></style>
<script type="text/javascript"><![CDATA[
var edges = document.getElementsByTagName('g');
if (edges && edges.length) {
  for (var i=0;i<edges.length;i++) {
    if (edges[i].id.substr(0,4)=='edge') {
      edges[i].setAttribute('class','edge');
    }
  }
}
]]></script>
        <defs>
                <circle id="rim" cx="0" cy="0" r="7"/>
                <circle id="rim2" cx="0" cy="0" r="3.5"/>
                <g id="zoomPlus">
                        <use xlink:href="#rim" fill="#404040">
                                <set attributeName="fill" to="#808080" begin="zoomplus.mouseover" end="zoomplus.mouseout"/>
                        </use>
                        <path d="M-4,0h8M0,-4v8" fill="none" stroke="white" stroke-width="1.5" pointer-events="none"/>
                </g>
                <g id="zoomMin">
                        <use xlink:href="#rim" fill="#404040">
                                <set attributeName="fill" to="#808080" begin="zoomminus.mouseover" end="zoomminus.mouseout"/>
                        </use>
                        <path d="M-4,0h8" fill="none" stroke="white" stroke-width="1.5" pointer-events="none"/>
                </g>
                <g id="dirArrow">
                        <path fill="none" stroke="white" stroke-width="1.5" d="M0,-3.0v7 M-2.5,-0.5L0,-3.0L2.5,-0.5"/>
                </g>
               <g id="resetDef">
                       <use xlink:href="#rim2" fill="#404040">
                               <set attributeName="fill" to="#808080" begin="reset.mouseover" end="reset.mouseout"/>
                       </use>
               </g>
        </defs>

<script type="text/javascript">
var viewWidth = 1023;
var viewHeight = 171;
var sectionId = 'dynsection-4';
</script>
<script xlink:href="svgpan.js"/>
<svg id="graph" class="graph">
<g id="viewport">
<title>View::ActionSceneFeet::setRunning</title>
<polygon fill="white" stroke="none" points="-4,4 -4,-167 1019,-167 1019,4 -4,4"/>
<!-- Node23 -->
<g id="node1" class="node"><title>Node23</title>
<polygon fill="#bfbfbf" stroke="black" points="0,-41.5 0,-71.5 119,-71.5 119,-41.5 0,-41.5"/>
<text text-anchor="start" x="8" y="-59.5" font-family="Helvetica,sans-Serif" font-size="10.00">View::ActionSceneFeet</text>
<text text-anchor="middle" x="59.5" y="-48.5" font-family="Helvetica,sans-Serif" font-size="10.00">::setRunning</text>
</g>
<!-- Node24 -->
<g id="node2" class="node"><title>Node24</title>
<g id="a_node2"><a xlink:href="class_view_1_1_action_scene_n_p_c.html#a32b28c35cccc25fa39d60462235776f3" target="_top" xlink:title="View::ActionSceneNPC\l::setRunSpeed">
<polygon fill="white" stroke="black" points="155,-66.5 155,-96.5 274,-96.5 274,-66.5 155,-66.5"/>
<text text-anchor="start" x="163" y="-84.5" font-family="Helvetica,sans-Serif" font-size="10.00">View::ActionSceneNPC</text>
<text text-anchor="middle" x="214.5" y="-73.5" font-family="Helvetica,sans-Serif" font-size="10.00">::setRunSpeed</text>
</a>
</g>
</g>
<!-- Node23&#45;&gt;Node24 -->
<g id="edge1" class="edge"><title>Node23&#45;&gt;Node24</title>
<path fill="none" stroke="midnightblue" d="M129.213,-67.7276C137.803,-69.1312 146.525,-70.5565 154.941,-71.9315"/>
<polygon fill="midnightblue" stroke="midnightblue" points="129.65,-64.2526 119.216,-66.0942 128.521,-71.161 129.65,-64.2526"/>
</g>
<!-- Node32 -->
<g id="node10" class="node"><title>Node32</title>
<g id="a_node10"><a xlink:href="class_view_1_1_action_scene_p_c.html#a0bcd3568f5fe55b66d0dbf09226c5935" target="_top" xlink:title="View::ActionScenePC\l::setRunSpeed">
<polygon fill="white" stroke="black" points="158,-17.5 158,-47.5 271,-47.5 271,-17.5 158,-17.5"/>
<text text-anchor="start" x="166" y="-35.5" font-family="Helvetica,sans-Serif" font-size="10.00">View::ActionScenePC</text>
<text text-anchor="middle" x="214.5" y="-24.5" font-family="Helvetica,sans-Serif" font-size="10.00">::setRunSpeed</text>
</a>
</g>
</g>
<!-- Node23&#45;&gt;Node32 -->
<g id="edge13" class="edge"><title>Node23&#45;&gt;Node32</title>
<path fill="none" stroke="midnightblue" d="M129.171,-45.7281C138.806,-44.2167 148.609,-42.679 157.959,-41.2123"/>
<polygon fill="midnightblue" stroke="midnightblue" points="128.553,-42.2821 119.216,-47.2896 129.638,-49.1976 128.553,-42.2821"/>
</g>
<!-- Node25 -->
<g id="node3" class="node"><title>Node25</title>
<g id="a_node3"><a xlink:href="class_view_1_1_action_scene_n_p_c.html#a63c01e4d67db25532448053814a4a917" target="_top" xlink:title="View::ActionSceneNPC\l::setAIMode">
<polygon fill="white" stroke="black" points="310,-66.5 310,-96.5 429,-96.5 429,-66.5 310,-66.5"/>
<text text-anchor="start" x="318" y="-84.5" font-family="Helvetica,sans-Serif" font-size="10.00">View::ActionSceneNPC</text>
<text text-anchor="middle" x="369.5" y="-73.5" font-family="Helvetica,sans-Serif" font-size="10.00">::setAIMode</text>
</a>
</g>
</g>
<!-- Node24&#45;&gt;Node25 -->
<g id="edge2" class="edge"><title>Node24&#45;&gt;Node25</title>
<path fill="none" stroke="midnightblue" d="M284.493,-81.5C292.993,-81.5 301.617,-81.5 309.941,-81.5"/>
<polygon fill="midnightblue" stroke="midnightblue" points="284.216,-78.0001 274.216,-81.5 284.216,-85.0001 284.216,-78.0001"/>
</g>
<!-- Node26 -->
<g id="node4" class="node"><title>Node26</title>
<g id="a_node4"><a xlink:href="class_view_1_1_action_scene.html#a8ecad0a68a274799549da0adce49ea09" target="_top" xlink:title="View::ActionScene::\lupdateEnemyLineOfSight">
<polygon fill="white" stroke="black" points="606,-132.5 606,-162.5 733,-162.5 733,-132.5 606,-132.5"/>
<text text-anchor="start" x="614" y="-150.5" font-family="Helvetica,sans-Serif" font-size="10.00">View::ActionScene::</text>
<text text-anchor="middle" x="669.5" y="-139.5" font-family="Helvetica,sans-Serif" font-size="10.00">updateEnemyLineOfSight</text>
</a>
</g>
</g>
<!-- Node25&#45;&gt;Node26 -->
<g id="edge3" class="edge"><title>Node25&#45;&gt;Node26</title>
<path fill="none" stroke="midnightblue" d="M403.496,-101.675C421.113,-111.46 443.539,-122.391 465,-128.5 511.073,-141.614 565.145,-146.181 605.967,-147.568"/>
<polygon fill="midnightblue" stroke="midnightblue" points="405.173,-98.603 394.752,-96.695 401.709,-104.686 405.173,-98.603"/>
</g>
<!-- Node29 -->
<g id="node7" class="node"><title>Node29</title>
<g id="a_node7"><a xlink:href="class_view_1_1_action_scene.html#a4d0be71c24a8d12a73a86fb6d917cc51" target="_top" xlink:title="View::ActionScene::\lenemyWandered">
<polygon fill="white" stroke="black" points="465,-88.5 465,-118.5 570,-118.5 570,-88.5 465,-88.5"/>
<text text-anchor="start" x="473" y="-106.5" font-family="Helvetica,sans-Serif" font-size="10.00">View::ActionScene::</text>
<text text-anchor="middle" x="517.5" y="-95.5" font-family="Helvetica,sans-Serif" font-size="10.00">enemyWandered</text>
</a>
</g>
</g>
<!-- Node25&#45;&gt;Node29 -->
<g id="edge6" class="edge"><title>Node25&#45;&gt;Node29</title>
<path fill="none" stroke="midnightblue" d="M439.044,-91.8286C447.62,-93.1209 456.279,-94.4256 464.544,-95.671"/>
<polygon fill="midnightblue" stroke="midnightblue" points="439.452,-88.3507 429.043,-90.3215 438.409,-95.2725 439.452,-88.3507"/>
</g>
<!-- Node30 -->
<g id="node8" class="node"><title>Node30</title>
<g id="a_node8"><a xlink:href="class_view_1_1_action_scene.html#a03d6bd779731feb9bc256844ec3fb0ae" target="_top" xlink:title="View::ActionScene::\lenemyPatrolled">
<polygon fill="white" stroke="black" points="617,-44.5 617,-74.5 722,-74.5 722,-44.5 617,-44.5"/>
<text text-anchor="start" x="625" y="-62.5" font-family="Helvetica,sans-Serif" font-size="10.00">View::ActionScene::</text>
<text text-anchor="middle" x="669.5" y="-51.5" font-family="Helvetica,sans-Serif" font-size="10.00">enemyPatrolled</text>
</a>
</g>
</g>
<!-- Node25&#45;&gt;Node30 -->
<g id="edge12" class="edge"><title>Node25&#45;&gt;Node30</title>
<path fill="none" stroke="midnightblue" d="M439.208,-76.4276C493.262,-72.437 567.417,-66.9625 616.588,-63.3324"/>
<polygon fill="midnightblue" stroke="midnightblue" points="438.735,-72.9529 429.02,-77.1798 439.25,-79.9339 438.735,-72.9529"/>
</g>
<!-- Node31 -->
<g id="node9" class="node"><title>Node31</title>
<g id="a_node9"><a xlink:href="class_view_1_1_action_scene.html#a2406dfeb3e69091ae05e23ef396d08e3" target="_top" xlink:title="View::ActionScene::\lenemyAttacked">
<polygon fill="white" stroke="black" points="465,-0.5 465,-30.5 570,-30.5 570,-0.5 465,-0.5"/>
<text text-anchor="start" x="473" y="-18.5" font-family="Helvetica,sans-Serif" font-size="10.00">View::ActionScene::</text>
<text text-anchor="middle" x="517.5" y="-7.5" font-family="Helvetica,sans-Serif" font-size="10.00">enemyAttacked</text>
</a>
</g>
</g>
<!-- Node25&#45;&gt;Node31 -->
<g id="edge10" class="edge"><title>Node25&#45;&gt;Node31</title>
<path fill="none" stroke="midnightblue" d="M413.241,-62.1788C435.541,-52.098 462.418,-39.9481 483.161,-30.5713"/>
<polygon fill="midnightblue" stroke="midnightblue" points="411.666,-59.0497 403.995,-66.3583 414.549,-65.4283 411.666,-59.0497"/>
</g>
<!-- Node27 -->
<g id="node5" class="node"><title>Node27</title>
<g id="a_node5"><a xlink:href="class_view_1_1_action_scene.html#a2da7a8314a9d50cdccf82159f58e5097" target="_top" xlink:title="View::ActionScene::\lspawnEnemy">
<polygon fill="white" stroke="black" points="769,-66.5 769,-96.5 874,-96.5 874,-66.5 769,-66.5"/>
<text text-anchor="start" x="777" y="-84.5" font-family="Helvetica,sans-Serif" font-size="10.00">View::ActionScene::</text>
<text text-anchor="middle" x="821.5" y="-73.5" font-family="Helvetica,sans-Serif" font-size="10.00">spawnEnemy</text>
</a>
</g>
</g>
<!-- Node26&#45;&gt;Node27 -->
<g id="edge4" class="edge"><title>Node26&#45;&gt;Node27</title>
<path fill="none" stroke="midnightblue" d="M714.105,-128.314C737.076,-118.207 764.841,-105.99 786.247,-96.5713"/>
<polygon fill="midnightblue" stroke="midnightblue" points="712.657,-125.127 704.913,-132.358 715.476,-131.534 712.657,-125.127"/>
</g>
<!-- Node28 -->
<g id="node6" class="node"><title>Node28</title>
<g id="a_node6"><a xlink:href="class_view_1_1_action_scene.html#af2fabc7baae61ac07ca1a0a5d46814cf" target="_top" xlink:title="View::ActionScene::\laddEnemies">
<polygon fill="white" stroke="black" points="910,-66.5 910,-96.5 1015,-96.5 1015,-66.5 910,-66.5"/>
<text text-anchor="start" x="918" y="-84.5" font-family="Helvetica,sans-Serif" font-size="10.00">View::ActionScene::</text>
<text text-anchor="middle" x="962.5" y="-73.5" font-family="Helvetica,sans-Serif" font-size="10.00">addEnemies</text>
</a>
</g>
</g>
<!-- Node27&#45;&gt;Node28 -->
<g id="edge5" class="edge"><title>Node27&#45;&gt;Node28</title>
<path fill="none" stroke="midnightblue" d="M884.441,-81.5C892.878,-81.5 901.466,-81.5 909.698,-81.5"/>
<polygon fill="midnightblue" stroke="midnightblue" points="884.259,-78.0001 874.258,-81.5 884.258,-85.0001 884.259,-78.0001"/>
</g>
<!-- Node29&#45;&gt;Node27 -->
<g id="edge9" class="edge"><title>Node29&#45;&gt;Node27</title>
<path fill="none" stroke="midnightblue" d="M580.149,-99.009C635.758,-94.958 716.616,-89.0677 768.888,-85.2598"/>
<polygon fill="midnightblue" stroke="midnightblue" points="579.792,-95.5257 570.073,-99.7431 580.3,-102.507 579.792,-95.5257"/>
</g>
<!-- Node29&#45;&gt;Node30 -->
<g id="edge7" class="edge"><title>Node29&#45;&gt;Node30</title>
<path fill="none" stroke="midnightblue" d="M579.593,-85.5793C592.105,-81.9092 605.152,-78.0821 617.274,-74.5262"/>
<polygon fill="midnightblue" stroke="midnightblue" points="578.312,-82.3075 569.702,-88.4808 580.283,-89.0244 578.312,-82.3075"/>
</g>
<!-- Node30&#45;&gt;Node27 -->
<g id="edge8" class="edge"><title>Node30&#45;&gt;Node27</title>
<path fill="none" stroke="midnightblue" d="M732.193,-68.5483C744.352,-70.3317 756.994,-72.1858 768.783,-73.9149"/>
<polygon fill="midnightblue" stroke="midnightblue" points="732.524,-65.0594 722.121,-67.0712 731.508,-71.9853 732.524,-65.0594"/>
</g>
<!-- Node31&#45;&gt;Node27 -->
<g id="edge11" class="edge"><title>Node31&#45;&gt;Node27</title>
<path fill="none" stroke="midnightblue" d="M580.419,-14.9377C623.926,-16.0622 683.043,-20.6742 733,-35.5 756.363,-42.4335 780.73,-55.8283 797.798,-66.3832"/>
<polygon fill="midnightblue" stroke="midnightblue" points="580.338,-11.4355 570.268,-14.7311 580.195,-18.434 580.338,-11.4355"/>
</g>
</g>
</svg>
        <g id="navigator" transform="translate(0 0)" fill="#404254">
                <rect fill="#f2f5e9" fill-opacity="0.5" stroke="#606060" stroke-width=".5" x="0" y="0" width="60" height="60"/>
                <use id="zoomplus" xlink:href="#zoomPlus" x="17" y="9" onmousedown="handleZoom(evt,'in')"/>
                <use id="zoomminus" xlink:href="#zoomMin" x="42" y="9" onmousedown="handleZoom(evt,'out')"/>
                <use id="reset" xlink:href="#resetDef" x="30" y="36" onmousedown="handleReset()"/>
                <g id="arrowUp" xlink:href="#dirArrow" transform="translate(30 24)" onmousedown="handlePan(0,-1)">
                  <use xlink:href="#rim" fill="#404040">
                        <set attributeName="fill" to="#808080" begin="arrowUp.mouseover" end="arrowUp.mouseout"/>
                  </use>
                  <path fill="none" stroke="white" stroke-width="1.5" d="M0,-3.0v7 M-2.5,-0.5L0,-3.0L2.5,-0.5"/>
                </g>
                <g id="arrowRight" xlink:href="#dirArrow" transform="rotate(90) translate(36 -43)" onmousedown="handlePan(1,0)">
                  <use xlink:href="#rim" fill="#404040">
                        <set attributeName="fill" to="#808080" begin="arrowRight.mouseover" end="arrowRight.mouseout"/>
                  </use>
                  <path fill="none" stroke="white" stroke-width="1.5" d="M0,-3.0v7 M-2.5,-0.5L0,-3.0L2.5,-0.5"/>
                </g>
                <g id="arrowDown" xlink:href="#dirArrow" transform="rotate(180) translate(-30 -48)" onmousedown="handlePan(0,1)">
                  <use xlink:href="#rim" fill="#404040">
                        <set attributeName="fill" to="#808080" begin="arrowDown.mouseover" end="arrowDown.mouseout"/>
                  </use>
                  <path fill="none" stroke="white" stroke-width="1.5" d="M0,-3.0v7 M-2.5,-0.5L0,-3.0L2.5,-0.5"/>
                </g>
                <g id="arrowLeft" xlink:href="#dirArrow" transform="rotate(270) translate(-36 17)" onmousedown="handlePan(-1,0)">
                  <use xlink:href="#rim" fill="#404040">
                        <set attributeName="fill" to="#808080" begin="arrowLeft.mouseover" end="arrowLeft.mouseout"/>
                  </use>
                  <path fill="none" stroke="white" stroke-width="1.5" d="M0,-3.0v7 M-2.5,-0.5L0,-3.0L2.5,-0.5"/>
                </g>
        </g>
        <svg viewBox="0 0 15 15" width="100%" height="30px" preserveAspectRatio="xMaxYMin meet">
         <g id="arrow_out" transform="scale(0.3 0.3)">
          <a xlink:href="class_view_1_1_action_scene_feet_a160793a00dcf4b16bcda158571f56773_icgraph_org.svg" target="_base">
           <rect id="button" ry="5" rx="5" y="6" x="6" height="38" width="38"
                fill="#f2f5e9" fill-opacity="0.5" stroke="#606060" stroke-width="1.0"/>
           <path id="arrow"
             d="M 11.500037,31.436501 C 11.940474,20.09759 22.043105,11.32322 32.158766,21.979434 L 37.068811,17.246167 C 37.068811,17.246167 37.088388,32 37.088388,32 L 22.160133,31.978069 C 22.160133,31.978069 26.997745,27.140456 26.997745,27.140456 C 18.528582,18.264221 13.291696,25.230495 11.500037,31.436501 z"
             style="fill:#404040;"/>
          </a>
         </g>
        </svg>
</svg>
