<?xml version="1.0" encoding="UTF-8" standalone="no"?>
<!DOCTYPE svg PUBLIC "-//W3C//DTD SVG 1.1//EN"
 "http://www.w3.org/Graphics/SVG/1.1/DTD/svg11.dtd">
<!-- Generated by graphviz version 2.38.0 (20140413.2041)
 -->
<!-- Title: Model::NetworkManager Pages: 1 -->
<svg width="292pt" height="204pt"
 viewBox="0.00 0.00 291.50 204.00" xmlns="http://www.w3.org/2000/svg" xmlns:xlink="http://www.w3.org/1999/xlink">
<g id="graph0" class="graph" transform="scale(1 1) rotate(0) translate(4 200)">
<title>Model::NetworkManager</title>
<polygon fill="white" stroke="none" points="-4,4 -4,-200 287.5,-200 287.5,4 -4,4"/>
<!-- Node2 -->
<g id="node1" class="node"><title>Node2</title>
<polygon fill="#bfbfbf" stroke="black" points="78.5,-0.5 78.5,-90.5 200.5,-90.5 200.5,-0.5 78.5,-0.5"/>
<text text-anchor="middle" x="139.5" y="-78.5" font-family="Helvetica,sans-Serif" font-size="10.00">Model::NetworkManager</text>
<polyline fill="none" stroke="black" points="78.5,-71.5 200.5,-71.5 "/>
<text text-anchor="middle" x="139.5" y="-59.5" font-family="Helvetica,sans-Serif" font-size="10.00"> </text>
<polyline fill="none" stroke="black" points="78.5,-52.5 200.5,-52.5 "/>
<text text-anchor="start" x="86.5" y="-40.5" font-family="Helvetica,sans-Serif" font-size="10.00">+ NetworkManager()</text>
<text text-anchor="start" x="86.5" y="-29.5" font-family="Helvetica,sans-Serif" font-size="10.00">+ ~NetworkManager()</text>
<text text-anchor="start" x="86.5" y="-18.5" font-family="Helvetica,sans-Serif" font-size="10.00">+ makeApiRequest()</text>
<text text-anchor="start" x="86.5" y="-7.5" font-family="Helvetica,sans-Serif" font-size="10.00">+ replyFinished()</text>
</g>
<!-- Node3 -->
<g id="node2" class="node"><title>Node3</title>
<g id="a_node2"><a xlink:href="class_q_object.html" target="_top" xlink:title="{QObject\n||}">
<polygon fill="white" stroke="black" points="0,-138.5 0,-195.5 53,-195.5 53,-138.5 0,-138.5"/>
<text text-anchor="middle" x="26.5" y="-183.5" font-family="Helvetica,sans-Serif" font-size="10.00">QObject</text>
<polyline fill="none" stroke="black" points="0,-176.5 53,-176.5 "/>
<text text-anchor="middle" x="26.5" y="-164.5" font-family="Helvetica,sans-Serif" font-size="10.00"> </text>
<polyline fill="none" stroke="black" points="0,-157.5 53,-157.5 "/>
<text text-anchor="middle" x="26.5" y="-145.5" font-family="Helvetica,sans-Serif" font-size="10.00"> </text>
</a>
</g>
</g>
<!-- Node3&#45;&gt;Node2 -->
<g id="edge1" class="edge"><title>Node3&#45;&gt;Node2</title>
<path fill="none" stroke="midnightblue" d="M59.8247,-130.758C71.6306,-118.273 85.0695,-104.061 97.5033,-90.9125"/>
<polygon fill="none" stroke="midnightblue" points="57.0361,-128.613 52.7085,-138.284 62.1223,-133.423 57.0361,-128.613"/>
</g>
<!-- Node4 -->
<g id="node3" class="node"><title>Node4</title>
<polygon fill="white" stroke="#bfbfbf" points="71,-138.5 71,-195.5 208,-195.5 208,-138.5 71,-138.5"/>
<text text-anchor="middle" x="139.5" y="-183.5" font-family="Helvetica,sans-Serif" font-size="10.00">QNetworkAccessManager *</text>
<polyline fill="none" stroke="#bfbfbf" points="71,-176.5 208,-176.5 "/>
<text text-anchor="middle" x="139.5" y="-164.5" font-family="Helvetica,sans-Serif" font-size="10.00"> </text>
<polyline fill="none" stroke="#bfbfbf" points="71,-157.5 208,-157.5 "/>
<text text-anchor="middle" x="139.5" y="-145.5" font-family="Helvetica,sans-Serif" font-size="10.00"> </text>
</g>
<!-- Node4&#45;&gt;Node2 -->
<g id="edge2" class="edge"><title>Node4&#45;&gt;Node2</title>
<path fill="none" stroke="#404040" d="M139.5,-138.284C139.5,-127.735 139.5,-115.294 139.5,-103.035"/>
<polygon fill="none" stroke="#404040" points="139.5,-102.912 135.5,-96.9125 139.5,-90.9125 143.5,-96.9124 139.5,-102.912"/>
<text text-anchor="middle" x="181" y="-112" font-family="Helvetica,sans-Serif" font-size="10.00"> &#45;networkManager_</text>
</g>
<!-- Node5 -->
<g id="node4" class="node"><title>Node5</title>
<polygon fill="white" stroke="#bfbfbf" points="228,-138.5 228,-195.5 263,-195.5 263,-138.5 228,-138.5"/>
<text text-anchor="middle" x="245.5" y="-183.5" font-family="Helvetica,sans-Serif" font-size="10.00">bool</text>
<polyline fill="none" stroke="#bfbfbf" points="228,-176.5 263,-176.5 "/>
<text text-anchor="middle" x="245.5" y="-164.5" font-family="Helvetica,sans-Serif" font-size="10.00"> </text>
<polyline fill="none" stroke="#bfbfbf" points="228,-157.5 263,-157.5 "/>
<text text-anchor="middle" x="245.5" y="-145.5" font-family="Helvetica,sans-Serif" font-size="10.00"> </text>
</g>
<!-- Node5&#45;&gt;Node2 -->
<g id="edge3" class="edge"><title>Node5&#45;&gt;Node2</title>
<path fill="none" stroke="#404040" d="M238.301,-138.289C234.868,-128.414 230.046,-117.615 223.5,-109 219.445,-103.663 214.815,-98.5665 209.861,-93.7524"/>
<polygon fill="none" stroke="#404040" points="209.537,-93.4589 202.405,-92.3936 200.645,-85.4005 207.777,-86.4658 209.537,-93.4589"/>
<text text-anchor="middle" x="256.5" y="-112" font-family="Helvetica,sans-Serif" font-size="10.00"> &#45;firstQuery_</text>
</g>
</g>
</svg>
