<?xml version="1.0" encoding="UTF-8" standalone="no"?>
<!DOCTYPE svg PUBLIC "-//W3C//DTD SVG 1.1//EN"
 "http://www.w3.org/Graphics/SVG/1.1/DTD/svg11.dtd">
<!-- Generated by graphviz version 2.38.0 (20140413.2041)
 -->
<!-- Title: View::ActionSceneNPC Pages: 1 -->
<svg width="194pt" height="457pt"
 viewBox="0.00 0.00 194.00 457.00" xmlns="http://www.w3.org/2000/svg" xmlns:xlink="http://www.w3.org/1999/xlink">
<g id="graph0" class="graph" transform="scale(1 1) rotate(0) translate(4 453)">
<title>View::ActionSceneNPC</title>
<polygon fill="white" stroke="none" points="-4,4 -4,-453 190,-453 190,4 -4,4"/>
<!-- Node0 -->
<g id="node1" class="node"><title>Node0</title>
<polygon fill="#bfbfbf" stroke="black" points="18,-0.5 18,-354.5 137,-354.5 137,-0.5 18,-0.5"/>
<text text-anchor="middle" x="77.5" y="-342.5" font-family="Helvetica,sans-Serif" font-size="10.00">View::ActionSceneNPC</text>
<polyline fill="none" stroke="black" points="18,-335.5 137,-335.5 "/>
<text text-anchor="start" x="26" y="-323.5" font-family="Helvetica,sans-Serif" font-size="10.00">&#45; id_</text>
<text text-anchor="start" x="26" y="-312.5" font-family="Helvetica,sans-Serif" font-size="10.00">&#45; inScene_</text>
<text text-anchor="start" x="26" y="-301.5" font-family="Helvetica,sans-Serif" font-size="10.00">&#45; dead_</text>
<text text-anchor="start" x="26" y="-290.5" font-family="Helvetica,sans-Serif" font-size="10.00">&#45; dx_</text>
<text text-anchor="start" x="26" y="-279.5" font-family="Helvetica,sans-Serif" font-size="10.00">&#45; dy_</text>
<text text-anchor="start" x="26" y="-268.5" font-family="Helvetica,sans-Serif" font-size="10.00">&#45; run_</text>
<text text-anchor="start" x="26" y="-257.5" font-family="Helvetica,sans-Serif" font-size="10.00">&#45; moving_</text>
<text text-anchor="start" x="26" y="-246.5" font-family="Helvetica,sans-Serif" font-size="10.00">&#45; moveTimer_</text>
<text text-anchor="start" x="26" y="-235.5" font-family="Helvetica,sans-Serif" font-size="10.00">&#45; aiTimer_</text>
<text text-anchor="start" x="26" y="-224.5" font-family="Helvetica,sans-Serif" font-size="10.00">&#45; unleashTimer_</text>
<text text-anchor="start" x="26" y="-213.5" font-family="Helvetica,sans-Serif" font-size="10.00">&#45; stepSize_</text>
<text text-anchor="start" x="26" y="-202.5" font-family="Helvetica,sans-Serif" font-size="10.00">&#45; moveDest_</text>
<text text-anchor="start" x="26" y="-191.5" font-family="Helvetica,sans-Serif" font-size="10.00">&#45; feet_</text>
<text text-anchor="start" x="26" y="-180.5" font-family="Helvetica,sans-Serif" font-size="10.00">&#45; target_</text>
<text text-anchor="start" x="26" y="-169.5" font-family="Helvetica,sans-Serif" font-size="10.00">&#45; aiMode_</text>
<polyline fill="none" stroke="black" points="18,-162.5 137,-162.5 "/>
<text text-anchor="start" x="26" y="-150.5" font-family="Helvetica,sans-Serif" font-size="10.00">+ ActionSceneNPC()</text>
<text text-anchor="start" x="26" y="-139.5" font-family="Helvetica,sans-Serif" font-size="10.00">+ ~ActionSceneNPC()</text>
<text text-anchor="start" x="26" y="-128.5" font-family="Helvetica,sans-Serif" font-size="10.00">+ getX()</text>
<text text-anchor="start" x="26" y="-117.5" font-family="Helvetica,sans-Serif" font-size="10.00">+ getY()</text>
<text text-anchor="start" x="26" y="-106.5" font-family="Helvetica,sans-Serif" font-size="10.00">+ moveToPoint()</text>
<text text-anchor="start" x="26" y="-95.5" font-family="Helvetica,sans-Serif" font-size="10.00">+ addFeet()</text>
<text text-anchor="start" x="26" y="-84.5" font-family="Helvetica,sans-Serif" font-size="10.00">+ rotateFeet()</text>
<text text-anchor="start" x="26" y="-73.5" font-family="Helvetica,sans-Serif" font-size="10.00">+ removeFeet()</text>
<text text-anchor="start" x="26" y="-62.5" font-family="Helvetica,sans-Serif" font-size="10.00">+ setDead()</text>
<text text-anchor="start" x="26" y="-51.5" font-family="Helvetica,sans-Serif" font-size="10.00">+ setRunSpeed()</text>
<text text-anchor="start" x="26" y="-40.5" font-family="Helvetica,sans-Serif" font-size="10.00">and 7 more...</text>
<text text-anchor="start" x="26" y="-29.5" font-family="Helvetica,sans-Serif" font-size="10.00">+ step()</text>
<text text-anchor="start" x="26" y="-18.5" font-family="Helvetica,sans-Serif" font-size="10.00">+ aiAction()</text>
<text text-anchor="start" x="26" y="-7.5" font-family="Helvetica,sans-Serif" font-size="10.00">+ unleashEnemy()</text>
</g>
<!-- Node1 -->
<g id="node2" class="node"><title>Node1</title>
<g id="a_node2"><a xlink:href="class_q_object.html" target="_top" xlink:title="{QObject\n||}">
<polygon fill="white" stroke="black" points="0,-391.5 0,-448.5 53,-448.5 53,-391.5 0,-391.5"/>
<text text-anchor="middle" x="26.5" y="-436.5" font-family="Helvetica,sans-Serif" font-size="10.00">QObject</text>
<polyline fill="none" stroke="black" points="0,-429.5 53,-429.5 "/>
<text text-anchor="middle" x="26.5" y="-417.5" font-family="Helvetica,sans-Serif" font-size="10.00"> </text>
<polyline fill="none" stroke="black" points="0,-410.5 53,-410.5 "/>
<text text-anchor="middle" x="26.5" y="-398.5" font-family="Helvetica,sans-Serif" font-size="10.00"> </text>
</a>
</g>
</g>
<!-- Node1&#45;&gt;Node0 -->
<g id="edge1" class="edge"><title>Node1&#45;&gt;Node0</title>
<path fill="none" stroke="midnightblue" d="M34.4637,-381.446C36.1643,-373.426 38.0666,-364.455 40.099,-354.871"/>
<polygon fill="none" stroke="midnightblue" points="31.001,-380.903 32.3503,-391.412 37.8487,-382.355 31.001,-380.903"/>
</g>
<!-- Node2 -->
<g id="node3" class="node"><title>Node2</title>
<g id="a_node3"><a xlink:href="class_q_graphics_pixmap_item.html" target="_top" xlink:title="{QGraphicsPixmapItem\n||}">
<polygon fill="white" stroke="black" points="71,-391.5 71,-448.5 186,-448.5 186,-391.5 71,-391.5"/>
<text text-anchor="middle" x="128.5" y="-436.5" font-family="Helvetica,sans-Serif" font-size="10.00">QGraphicsPixmapItem</text>
<polyline fill="none" stroke="black" points="71,-429.5 186,-429.5 "/>
<text text-anchor="middle" x="128.5" y="-417.5" font-family="Helvetica,sans-Serif" font-size="10.00"> </text>
<polyline fill="none" stroke="black" points="71,-410.5 186,-410.5 "/>
<text text-anchor="middle" x="128.5" y="-398.5" font-family="Helvetica,sans-Serif" font-size="10.00"> </text>
</a>
</g>
</g>
<!-- Node2&#45;&gt;Node0 -->
<g id="edge2" class="edge"><title>Node2&#45;&gt;Node0</title>
<path fill="none" stroke="midnightblue" d="M120.536,-381.446C118.836,-373.426 116.933,-364.455 114.901,-354.871"/>
<polygon fill="none" stroke="midnightblue" points="117.151,-382.355 122.65,-391.412 123.999,-380.903 117.151,-382.355"/>
</g>
</g>
</svg>
