<?xml version="1.0" encoding="UTF-8" standalone="no"?>
<!DOCTYPE svg PUBLIC "-//W3C//DTD SVG 1.1//EN"
 "http://www.w3.org/Graphics/SVG/1.1/DTD/svg11.dtd">
<!-- Generated by graphviz version 2.38.0 (20140413.2041)
 -->
<!-- Title: Model::CyberTeekkari::setDead Pages: 1 -->
<svg width="402pt" height="137pt"
 viewBox="0.00 0.00 402.00 137.00" xmlns="http://www.w3.org/2000/svg" xmlns:xlink="http://www.w3.org/1999/xlink">
<g id="graph0" class="graph" transform="scale(1 1) rotate(0) translate(4 133)">
<title>Model::CyberTeekkari::setDead</title>
<polygon fill="white" stroke="none" points="-4,4 -4,-133 398,-133 398,4 -4,4"/>
<!-- Node45 -->
<g id="node1" class="node"><title>Node45</title>
<polygon fill="#bfbfbf" stroke="black" points="0,-49.5 0,-79.5 111,-79.5 111,-49.5 0,-49.5"/>
<text text-anchor="start" x="8" y="-67.5" font-family="Helvetica,sans-Serif" font-size="10.00">Model::CyberTeekkari</text>
<text text-anchor="middle" x="55.5" y="-56.5" font-family="Helvetica,sans-Serif" font-size="10.00">::setDead</text>
</g>
<!-- Node46 -->
<g id="node2" class="node"><title>Node46</title>
<g id="a_node2"><a xlink:href="class_model_1_1_player_party.html#a648874aaffc776c7d45b20a8ef599719" target="_top" xlink:title="Model::PlayerParty\l::PlayerParty">
<polygon fill="white" stroke="black" points="152.5,-98.5 152.5,-128.5 252.5,-128.5 252.5,-98.5 152.5,-98.5"/>
<text text-anchor="start" x="160.5" y="-116.5" font-family="Helvetica,sans-Serif" font-size="10.00">Model::PlayerParty</text>
<text text-anchor="middle" x="202.5" y="-105.5" font-family="Helvetica,sans-Serif" font-size="10.00">::PlayerParty</text>
</a>
</g>
</g>
<!-- Node45&#45;&gt;Node46 -->
<g id="edge1" class="edge"><title>Node45&#45;&gt;Node46</title>
<path fill="none" stroke="midnightblue" d="M110.918,-82.8896C126.016,-87.9916 142.231,-93.4711 156.71,-98.3641"/>
<polygon fill="midnightblue" stroke="midnightblue" points="111.782,-79.4872 101.188,-79.6014 109.541,-86.1187 111.782,-79.4872"/>
</g>
<!-- Node47 -->
<g id="node3" class="node"><title>Node47</title>
<g id="a_node3"><a xlink:href="class_model_1_1_cyber_teekkari.html#adfe4eb738d7984604cf41f51a9b4e114" target="_top" xlink:title="Model::CyberTeekkari\l::receivedHit">
<polygon fill="white" stroke="black" points="147,-49.5 147,-79.5 258,-79.5 258,-49.5 147,-49.5"/>
<text text-anchor="start" x="155" y="-67.5" font-family="Helvetica,sans-Serif" font-size="10.00">Model::CyberTeekkari</text>
<text text-anchor="middle" x="202.5" y="-56.5" font-family="Helvetica,sans-Serif" font-size="10.00">::receivedHit</text>
</a>
</g>
</g>
<!-- Node45&#45;&gt;Node47 -->
<g id="edge2" class="edge"><title>Node45&#45;&gt;Node47</title>
<path fill="none" stroke="midnightblue" d="M121.462,-64.5C129.859,-64.5 138.392,-64.5 146.604,-64.5"/>
<polygon fill="midnightblue" stroke="midnightblue" points="121.318,-61.0001 111.318,-64.5 121.318,-68.0001 121.318,-61.0001"/>
</g>
<!-- Node49 -->
<g id="node5" class="node"><title>Node49</title>
<g id="a_node5"><a xlink:href="class_model_1_1_player_party.html#ac5ba86d83375dfbbb60e4b57ca6d8f50" target="_top" xlink:title="Model::PlayerParty\l::retireCyborg">
<polygon fill="white" stroke="black" points="152.5,-0.5 152.5,-30.5 252.5,-30.5 252.5,-0.5 152.5,-0.5"/>
<text text-anchor="start" x="160.5" y="-18.5" font-family="Helvetica,sans-Serif" font-size="10.00">Model::PlayerParty</text>
<text text-anchor="middle" x="202.5" y="-7.5" font-family="Helvetica,sans-Serif" font-size="10.00">::retireCyborg</text>
</a>
</g>
</g>
<!-- Node45&#45;&gt;Node49 -->
<g id="edge4" class="edge"><title>Node45&#45;&gt;Node49</title>
<path fill="none" stroke="midnightblue" d="M110.918,-46.1104C126.016,-41.0084 142.231,-35.5289 156.71,-30.6359"/>
<polygon fill="midnightblue" stroke="midnightblue" points="109.541,-42.8813 101.188,-49.3986 111.782,-49.5128 109.541,-42.8813"/>
</g>
<!-- Node48 -->
<g id="node4" class="node"><title>Node48</title>
<g id="a_node4"><a xlink:href="class_model_1_1_player_party.html#aa1e19103d6fa60e0d9778011d68c6174" target="_top" xlink:title="Model::PlayerParty\l::actorHit">
<polygon fill="white" stroke="black" points="294,-49.5 294,-79.5 394,-79.5 394,-49.5 294,-49.5"/>
<text text-anchor="start" x="302" y="-67.5" font-family="Helvetica,sans-Serif" font-size="10.00">Model::PlayerParty</text>
<text text-anchor="middle" x="344" y="-56.5" font-family="Helvetica,sans-Serif" font-size="10.00">::actorHit</text>
</a>
</g>
</g>
<!-- Node47&#45;&gt;Node48 -->
<g id="edge3" class="edge"><title>Node47&#45;&gt;Node48</title>
<path fill="none" stroke="midnightblue" d="M268.262,-64.5C276.872,-64.5 285.583,-64.5 293.868,-64.5"/>
<polygon fill="midnightblue" stroke="midnightblue" points="268.234,-61.0001 258.234,-64.5 268.234,-68.0001 268.234,-61.0001"/>
</g>
</g>
</svg>
