<?xml version="1.0" encoding="UTF-8" standalone="no"?>
<!DOCTYPE svg PUBLIC "-//W3C//DTD SVG 1.1//EN"
 "http://www.w3.org/Graphics/SVG/1.1/DTD/svg11.dtd">
<!-- Generated by graphviz version 2.38.0 (20140413.2041)
 -->
<!-- Title: Interface::ParkingHallInterface::getParkingSpaceCount Pages: 1 -->
<svg width="333pt" height="39pt"
 viewBox="0.00 0.00 333.00 39.00" xmlns="http://www.w3.org/2000/svg" xmlns:xlink="http://www.w3.org/1999/xlink">
<g id="graph0" class="graph" transform="scale(1 1) rotate(0) translate(4 35)">
<title>Interface::ParkingHallInterface::getParkingSpaceCount</title>
<polygon fill="white" stroke="none" points="-4,4 -4,-35 329,-35 329,4 -4,4"/>
<!-- Node21 -->
<g id="node1" class="node"><title>Node21</title>
<polygon fill="#bfbfbf" stroke="black" points="0,-0.5 0,-30.5 146,-30.5 146,-0.5 0,-0.5"/>
<text text-anchor="start" x="8" y="-18.5" font-family="Helvetica,sans-Serif" font-size="10.00">Interface::ParkingHallInterface</text>
<text text-anchor="middle" x="73" y="-7.5" font-family="Helvetica,sans-Serif" font-size="10.00">::getParkingSpaceCount</text>
</g>
<!-- Node22 -->
<g id="node2" class="node"><title>Node22</title>
<g id="a_node2"><a xlink:href="class_model_1_1_model.html#abaf0ae7f904613779e6fd90694dbd65c" target="_top" xlink:title="Model::Model::updateParking\lHallsData">
<polygon fill="white" stroke="black" points="182,-0.5 182,-30.5 325,-30.5 325,-0.5 182,-0.5"/>
<text text-anchor="start" x="190" y="-18.5" font-family="Helvetica,sans-Serif" font-size="10.00">Model::Model::updateParking</text>
<text text-anchor="middle" x="253.5" y="-7.5" font-family="Helvetica,sans-Serif" font-size="10.00">HallsData</text>
</a>
</g>
</g>
<!-- Node21&#45;&gt;Node22 -->
<g id="edge1" class="edge"><title>Node21&#45;&gt;Node22</title>
<path fill="none" stroke="midnightblue" d="M156.128,-15.5C164.731,-15.5 173.423,-15.5 181.882,-15.5"/>
<polygon fill="midnightblue" stroke="midnightblue" points="156.088,-12.0001 146.088,-15.5 156.088,-19.0001 156.088,-12.0001"/>
</g>
</g>
</svg>
