<?xml version="1.0" encoding="UTF-8" standalone="no"?>
<!DOCTYPE svg PUBLIC "-//W3C//DTD SVG 1.1//EN"
 "http://www.w3.org/Graphics/SVG/1.1/DTD/svg11.dtd">
<!-- Generated by graphviz version 2.38.0 (20140413.2041)
 -->
<!-- Title: View::ActionSceneNPC::step Pages: 1 -->
<svg width="282pt" height="88pt"
 viewBox="0.00 0.00 282.00 88.00" xmlns="http://www.w3.org/2000/svg" xmlns:xlink="http://www.w3.org/1999/xlink">
<g id="graph0" class="graph" transform="scale(1 1) rotate(0) translate(4 84)">
<title>View::ActionSceneNPC::step</title>
<polygon fill="white" stroke="none" points="-4,4 -4,-84 278,-84 278,4 -4,4"/>
<!-- Node106 -->
<g id="node1" class="node"><title>Node106</title>
<polygon fill="#bfbfbf" stroke="black" points="0,-24.5 0,-54.5 119,-54.5 119,-24.5 0,-24.5"/>
<text text-anchor="start" x="8" y="-42.5" font-family="Helvetica,sans-Serif" font-size="10.00">View::ActionSceneNPC</text>
<text text-anchor="middle" x="59.5" y="-31.5" font-family="Helvetica,sans-Serif" font-size="10.00">::step</text>
</g>
<!-- Node107 -->
<g id="node2" class="node"><title>Node107</title>
<g id="a_node2"><a xlink:href="class_view_1_1_action_scene_feet.html#adb3d6be92f4099f725c0f604f6d892d6" target="_top" xlink:title="View::ActionSceneFeet\l::nextFrame">
<polygon fill="white" stroke="black" points="155,-49.5 155,-79.5 274,-79.5 274,-49.5 155,-49.5"/>
<text text-anchor="start" x="163" y="-67.5" font-family="Helvetica,sans-Serif" font-size="10.00">View::ActionSceneFeet</text>
<text text-anchor="middle" x="214.5" y="-56.5" font-family="Helvetica,sans-Serif" font-size="10.00">::nextFrame</text>
</a>
</g>
</g>
<!-- Node106&#45;&gt;Node107 -->
<g id="edge1" class="edge"><title>Node106&#45;&gt;Node107</title>
<path fill="none" stroke="midnightblue" d="M119.216,-49.0942C127.635,-50.4698 136.359,-51.8952 144.947,-53.2986"/>
<polygon fill="midnightblue" stroke="midnightblue" points="144.507,-56.773 154.941,-54.9315 145.636,-49.8646 144.507,-56.773"/>
</g>
<!-- Node108 -->
<g id="node3" class="node"><title>Node108</title>
<g id="a_node3"><a xlink:href="class_view_1_1_action_scene_feet.html#a74dfcd6e4a0b5d3fc3dd27079107ecdc" target="_top" xlink:title="View::ActionSceneFeet\l::setPosition">
<polygon fill="white" stroke="black" points="155,-0.5 155,-30.5 274,-30.5 274,-0.5 155,-0.5"/>
<text text-anchor="start" x="163" y="-18.5" font-family="Helvetica,sans-Serif" font-size="10.00">View::ActionSceneFeet</text>
<text text-anchor="middle" x="214.5" y="-7.5" font-family="Helvetica,sans-Serif" font-size="10.00">::setPosition</text>
</a>
</g>
</g>
<!-- Node106&#45;&gt;Node108 -->
<g id="edge2" class="edge"><title>Node106&#45;&gt;Node108</title>
<path fill="none" stroke="midnightblue" d="M119.216,-30.2896C127.635,-28.969 136.359,-27.6006 144.947,-26.2534"/>
<polygon fill="midnightblue" stroke="midnightblue" points="145.604,-29.6932 154.941,-24.6857 144.519,-22.7778 145.604,-29.6932"/>
</g>
</g>
</svg>
