<?xml version="1.0" encoding="UTF-8" standalone="no"?>
<!DOCTYPE svg PUBLIC "-//W3C//DTD SVG 1.1//EN"
 "http://www.w3.org/Graphics/SVG/1.1/DTD/svg11.dtd">
<!-- Generated by graphviz version 2.38.0 (20140413.2041)
 -->
<!-- Title: Model::Equipment::shoot Pages: 1 -->
<svg width="416pt" height="78pt"
 viewBox="0.00 0.00 416.00 77.50" xmlns="http://www.w3.org/2000/svg" xmlns:xlink="http://www.w3.org/1999/xlink">
<g id="graph0" class="graph" transform="scale(1 1) rotate(0) translate(4 73.5)">
<title>Model::Equipment::shoot</title>
<polygon fill="white" stroke="none" points="-4,4 -4,-73.5 412,-73.5 412,4 -4,4"/>
<!-- Node51 -->
<g id="node1" class="node"><title>Node51</title>
<polygon fill="#bfbfbf" stroke="black" points="0,-22.5 0,-41.5 125,-41.5 125,-22.5 0,-22.5"/>
<text text-anchor="middle" x="62.5" y="-29.5" font-family="Helvetica,sans-Serif" font-size="10.00">Model::Equipment::shoot</text>
</g>
<!-- Node52 -->
<g id="node2" class="node"><title>Node52</title>
<g id="a_node2"><a xlink:href="class_model_1_1_cyber_teekkari.html#a3c24a4b1f28a4ddb5a3d41c2e8a0b889" target="_top" xlink:title="Model::CyberTeekkari\l::shoot">
<polygon fill="white" stroke="black" points="161,-39 161,-69 272,-69 272,-39 161,-39"/>
<text text-anchor="start" x="169" y="-57" font-family="Helvetica,sans-Serif" font-size="10.00">Model::CyberTeekkari</text>
<text text-anchor="middle" x="216.5" y="-46" font-family="Helvetica,sans-Serif" font-size="10.00">::shoot</text>
</a>
</g>
</g>
<!-- Node51&#45;&gt;Node52 -->
<g id="edge1" class="edge"><title>Node51&#45;&gt;Node52</title>
<path fill="none" stroke="midnightblue" d="M135.256,-42.3857C143.766,-43.6174 152.347,-44.8594 160.571,-46.0497"/>
<polygon fill="midnightblue" stroke="midnightblue" points="135.722,-38.9169 125.324,-40.9482 134.72,-45.8447 135.722,-38.9169"/>
</g>
<!-- Node54 -->
<g id="node4" class="node"><title>Node54</title>
<g id="a_node4"><a xlink:href="class_model_1_1_player.html#a0717b17761f50c25ef6070239a031b2b" target="_top" xlink:title="Model::Player::shoot">
<polygon fill="white" stroke="black" points="163,-0.5 163,-19.5 270,-19.5 270,-0.5 163,-0.5"/>
<text text-anchor="middle" x="216.5" y="-7.5" font-family="Helvetica,sans-Serif" font-size="10.00">Model::Player::shoot</text>
</a>
</g>
</g>
<!-- Node51&#45;&gt;Node54 -->
<g id="edge3" class="edge"><title>Node51&#45;&gt;Node54</title>
<path fill="none" stroke="midnightblue" d="M135.365,-21.5984C144.673,-20.2512 154.064,-18.892 162.977,-17.602"/>
<polygon fill="midnightblue" stroke="midnightblue" points="134.72,-18.1553 125.324,-23.0518 135.722,-25.0831 134.72,-18.1553"/>
</g>
<!-- Node53 -->
<g id="node3" class="node"><title>Node53</title>
<g id="a_node3"><a xlink:href="class_model_1_1_player_party.html#a41db22ad04f47d79c457802cd9ac44b4" target="_top" xlink:title="Model::PlayerParty\l::actorShot">
<polygon fill="white" stroke="black" points="308,-17 308,-47 408,-47 408,-17 308,-17"/>
<text text-anchor="start" x="316" y="-35" font-family="Helvetica,sans-Serif" font-size="10.00">Model::PlayerParty</text>
<text text-anchor="middle" x="358" y="-24" font-family="Helvetica,sans-Serif" font-size="10.00">::actorShot</text>
</a>
</g>
</g>
<!-- Node52&#45;&gt;Node53 -->
<g id="edge2" class="edge"><title>Node52&#45;&gt;Node53</title>
<path fill="none" stroke="midnightblue" d="M282.262,-43.7866C290.872,-42.4288 299.583,-41.055 307.868,-39.7484"/>
<polygon fill="midnightblue" stroke="midnightblue" points="281.566,-40.353 272.234,-45.3682 282.657,-47.2675 281.566,-40.353"/>
</g>
<!-- Node54&#45;&gt;Node53 -->
<g id="edge4" class="edge"><title>Node54&#45;&gt;Node53</title>
<path fill="none" stroke="midnightblue" d="M280.205,-19.889C289.479,-21.3516 298.922,-22.8407 307.867,-24.2514"/>
<polygon fill="midnightblue" stroke="midnightblue" points="280.662,-16.4179 270.239,-18.3173 279.572,-23.3324 280.662,-16.4179"/>
</g>
</g>
</svg>
