<?xml version="1.0" encoding="UTF-8" standalone="no"?>
<!DOCTYPE svg PUBLIC "-//W3C//DTD SVG 1.1//EN"
 "http://www.w3.org/Graphics/SVG/1.1/DTD/svg11.dtd">
<!-- Generated by graphviz version 2.38.0 (20140413.2041)
 -->
<!-- Title: Model::mapGenerator::setTile Pages: 1 -->
<svg width="756pt" height="241pt"
 viewBox="0.00 0.00 756.00 240.85" xmlns="http://www.w3.org/2000/svg" xmlns:xlink="http://www.w3.org/1999/xlink">
<g id="graph0" class="graph" transform="scale(1 1) rotate(0) translate(4 236.85)">
<title>Model::mapGenerator::setTile</title>
<polygon fill="white" stroke="none" points="-4,4 -4,-236.85 752,-236.85 752,4 -4,4"/>
<!-- Node136 -->
<g id="node1" class="node"><title>Node136</title>
<polygon fill="#bfbfbf" stroke="black" points="0,-101.5 0,-131.5 110,-131.5 110,-101.5 0,-101.5"/>
<text text-anchor="start" x="8" y="-119.5" font-family="Helvetica,sans-Serif" font-size="10.00">Model::mapGenerator</text>
<text text-anchor="middle" x="55" y="-108.5" font-family="Helvetica,sans-Serif" font-size="10.00">::setTile</text>
</g>
<!-- Node137 -->
<g id="node2" class="node"><title>Node137</title>
<g id="a_node2"><a xlink:href="class_model_1_1park_space_inserter.html#a20265678d0e7cfc25daef80afaa1ba86" target="_top" xlink:title="Model::parkSpaceInserter\l::addParkingSpaces_">
<polygon fill="white" stroke="black" points="310,-88.5 310,-118.5 438,-118.5 438,-88.5 310,-88.5"/>
<text text-anchor="start" x="318" y="-106.5" font-family="Helvetica,sans-Serif" font-size="10.00">Model::parkSpaceInserter</text>
<text text-anchor="middle" x="374" y="-95.5" font-family="Helvetica,sans-Serif" font-size="10.00">::addParkingSpaces_</text>
</a>
</g>
</g>
<!-- Node136&#45;&gt;Node137 -->
<g id="edge1" class="edge"><title>Node136&#45;&gt;Node137</title>
<path fill="none" stroke="midnightblue" d="M120.167,-113.869C175.457,-111.601 254.821,-108.346 309.822,-106.091"/>
<polygon fill="midnightblue" stroke="midnightblue" points="119.982,-110.373 110.134,-114.28 120.269,-117.367 119.982,-110.373"/>
</g>
<!-- Node139 -->
<g id="node4" class="node"><title>Node139</title>
<g id="a_node4"><a xlink:href="class_model_1_1map_generator.html#a08a1dc669cda9401647f81d61611931d" target="_top" xlink:title="Generate new hall with enemyCount. ">
<polygon fill="white" stroke="black" points="638,-115.5 638,-145.5 748,-145.5 748,-115.5 638,-115.5"/>
<text text-anchor="start" x="646" y="-133.5" font-family="Helvetica,sans-Serif" font-size="10.00">Model::mapGenerator</text>
<text text-anchor="middle" x="693" y="-122.5" font-family="Helvetica,sans-Serif" font-size="10.00">::generateHall</text>
</a>
</g>
</g>
<!-- Node136&#45;&gt;Node139 -->
<g id="edge9" class="edge"><title>Node136&#45;&gt;Node139</title>
<path fill="none" stroke="midnightblue" d="M71.6165,-139.86C87.467,-161.26 114.164,-191.522 146,-204.5 329.806,-279.428 574.36,-184.274 660.425,-145.53"/>
<polygon fill="midnightblue" stroke="midnightblue" points="74.3629,-137.683 65.6975,-131.587 68.67,-141.756 74.3629,-137.683"/>
</g>
<!-- Node140 -->
<g id="node5" class="node"><title>Node140</title>
<g id="a_node5"><a xlink:href="class_model_1_1park_space_inserter.html#ab81abccc02f65eed8d54e0d56b234e18" target="_top" xlink:title="Model::parkSpaceInserter\l::floodFill">
<polygon fill="white" stroke="black" points="146,-164.5 146,-194.5 274,-194.5 274,-164.5 146,-164.5"/>
<text text-anchor="start" x="154" y="-182.5" font-family="Helvetica,sans-Serif" font-size="10.00">Model::parkSpaceInserter</text>
<text text-anchor="middle" x="210" y="-171.5" font-family="Helvetica,sans-Serif" font-size="10.00">::floodFill</text>
</a>
</g>
</g>
<!-- Node136&#45;&gt;Node140 -->
<g id="edge4" class="edge"><title>Node136&#45;&gt;Node140</title>
<path fill="none" stroke="midnightblue" d="M102.013,-135.447C124.536,-144.721 151.275,-155.731 172.387,-164.424"/>
<polygon fill="midnightblue" stroke="midnightblue" points="103.227,-132.161 92.6473,-131.59 100.561,-138.634 103.227,-132.161"/>
</g>
<!-- Node141 -->
<g id="node6" class="node"><title>Node141</title>
<g id="a_node6"><a xlink:href="class_model_1_1park_space_inserter.html#ada0688360de1fb7d5bd138f2f645bea6" target="_top" xlink:title="Model::parkSpaceInserter\l::removeBlockedSpaces">
<polygon fill="white" stroke="black" points="310,-137.5 310,-167.5 438,-167.5 438,-137.5 310,-137.5"/>
<text text-anchor="start" x="318" y="-155.5" font-family="Helvetica,sans-Serif" font-size="10.00">Model::parkSpaceInserter</text>
<text text-anchor="middle" x="374" y="-144.5" font-family="Helvetica,sans-Serif" font-size="10.00">::removeBlockedSpaces</text>
</a>
</g>
</g>
<!-- Node136&#45;&gt;Node141 -->
<g id="edge11" class="edge"><title>Node136&#45;&gt;Node141</title>
<path fill="none" stroke="midnightblue" d="M120.167,-123.787C175.457,-130.066 254.821,-139.079 309.822,-145.325"/>
<polygon fill="midnightblue" stroke="midnightblue" points="120.465,-120.299 110.134,-122.648 119.675,-127.254 120.465,-120.299"/>
</g>
<!-- Node142 -->
<g id="node7" class="node"><title>Node142</title>
<g id="a_node7"><a xlink:href="class_model_1_1layout_generator.html#a6b14394cdb9e6040233a91220cddcc93" target="_top" xlink:title="Model::layoutGenerator\l::generateHall">
<polygon fill="white" stroke="black" points="479,-55.5 479,-85.5 597,-85.5 597,-55.5 479,-55.5"/>
<text text-anchor="start" x="487" y="-73.5" font-family="Helvetica,sans-Serif" font-size="10.00">Model::layoutGenerator</text>
<text text-anchor="middle" x="538" y="-62.5" font-family="Helvetica,sans-Serif" font-size="10.00">::generateHall</text>
</a>
</g>
</g>
<!-- Node136&#45;&gt;Node142 -->
<g id="edge7" class="edge"><title>Node136&#45;&gt;Node142</title>
<path fill="none" stroke="midnightblue" d="M120.219,-104.834C171.425,-96.0314 245.065,-84.4822 310,-78.5 367.135,-73.2364 432.652,-71.3718 478.566,-70.7428"/>
<polygon fill="midnightblue" stroke="midnightblue" points="119.542,-101.4 110.286,-106.556 120.737,-108.297 119.542,-101.4"/>
</g>
<!-- Node143 -->
<g id="node8" class="node"><title>Node143</title>
<g id="a_node8"><a xlink:href="class_model_1_1map_processor.html#a7be8a27aaad96e187b4dba60fde5031a" target="_top" xlink:title="Model::mapProcessor\l::placeEnemies">
<polygon fill="white" stroke="black" points="154,-0.5 154,-30.5 266,-30.5 266,-0.5 154,-0.5"/>
<text text-anchor="start" x="162" y="-18.5" font-family="Helvetica,sans-Serif" font-size="10.00">Model::mapProcessor</text>
<text text-anchor="middle" x="210" y="-7.5" font-family="Helvetica,sans-Serif" font-size="10.00">::placeEnemies</text>
</a>
</g>
</g>
<!-- Node136&#45;&gt;Node143 -->
<g id="edge10" class="edge"><title>Node136&#45;&gt;Node143</title>
<path fill="none" stroke="midnightblue" d="M80.7338,-94.5099C98.2176,-79.6002 122.614,-60.0374 146,-45.5 154.642,-40.1277 164.396,-35.051 173.601,-30.6543"/>
<polygon fill="midnightblue" stroke="midnightblue" points="78.0213,-92.2278 72.7409,-101.413 82.5968,-97.5255 78.0213,-92.2278"/>
</g>
<!-- Node138 -->
<g id="node3" class="node"><title>Node138</title>
<g id="a_node3"><a xlink:href="class_model_1_1park_space_inserter.html#a85f30f97e1864f0c4b3afe8f8dea7ae3" target="_top" xlink:title="Model::parkSpaceInserter\l::addSpaces">
<polygon fill="white" stroke="black" points="474,-115.5 474,-145.5 602,-145.5 602,-115.5 474,-115.5"/>
<text text-anchor="start" x="482" y="-133.5" font-family="Helvetica,sans-Serif" font-size="10.00">Model::parkSpaceInserter</text>
<text text-anchor="middle" x="538" y="-122.5" font-family="Helvetica,sans-Serif" font-size="10.00">::addSpaces</text>
</a>
</g>
</g>
<!-- Node137&#45;&gt;Node138 -->
<g id="edge2" class="edge"><title>Node137&#45;&gt;Node138</title>
<path fill="none" stroke="midnightblue" d="M448.094,-115.682C456.676,-117.113 465.378,-118.563 473.808,-119.968"/>
<polygon fill="midnightblue" stroke="midnightblue" points="448.537,-112.208 438.097,-114.016 447.386,-119.113 448.537,-112.208"/>
</g>
<!-- Node138&#45;&gt;Node139 -->
<g id="edge3" class="edge"><title>Node138&#45;&gt;Node139</title>
<path fill="none" stroke="midnightblue" d="M612.194,-130.5C620.825,-130.5 629.513,-130.5 637.816,-130.5"/>
<polygon fill="midnightblue" stroke="midnightblue" points="612.114,-127 602.114,-130.5 612.114,-134 612.114,-127"/>
</g>
<!-- Node140&#45;&gt;Node141 -->
<g id="edge5" class="edge"><title>Node140&#45;&gt;Node141</title>
<path fill="none" stroke="midnightblue" d="M284.094,-167.318C292.676,-165.887 301.378,-164.437 309.808,-163.032"/>
<polygon fill="midnightblue" stroke="midnightblue" points="283.386,-163.887 274.097,-168.984 284.537,-170.792 283.386,-163.887"/>
</g>
<!-- Node141&#45;&gt;Node138 -->
<g id="edge6" class="edge"><title>Node141&#45;&gt;Node138</title>
<path fill="none" stroke="midnightblue" d="M448.094,-142.574C456.676,-141.408 465.378,-140.227 473.808,-139.082"/>
<polygon fill="midnightblue" stroke="midnightblue" points="447.535,-139.117 438.097,-143.931 448.477,-146.054 447.535,-139.117"/>
</g>
<!-- Node142&#45;&gt;Node139 -->
<g id="edge8" class="edge"><title>Node142&#45;&gt;Node139</title>
<path fill="none" stroke="midnightblue" d="M587.187,-89.3968C608.627,-97.8049 633.523,-107.568 653.669,-115.468"/>
<polygon fill="midnightblue" stroke="midnightblue" points="588.196,-86.0331 577.608,-85.6405 585.64,-92.5499 588.196,-86.0331"/>
</g>
</g>
</svg>
