<?xml version="1.0" encoding="UTF-8" standalone="no"?>
<!DOCTYPE svg PUBLIC "-//W3C//DTD SVG 1.1//EN"
 "http://www.w3.org/Graphics/SVG/1.1/DTD/svg11.dtd">
<!-- Generated by graphviz version 2.38.0 (20140413.2041)
 -->
<!-- Title: Model::Weapon Pages: 1 -->
<svg width="442pt" height="706pt"
 viewBox="0.00 0.00 441.50 706.00" xmlns="http://www.w3.org/2000/svg" xmlns:xlink="http://www.w3.org/1999/xlink">
<g id="graph0" class="graph" transform="scale(1 1) rotate(0) translate(4 702)">
<title>Model::Weapon</title>
<polygon fill="white" stroke="none" points="-4,4 -4,-702 437.5,-702 437.5,4 -4,4"/>
<!-- Node3 -->
<g id="node1" class="node"><title>Node3</title>
<polygon fill="#bfbfbf" stroke="black" points="155,-0.5 155,-200.5 310,-200.5 310,-0.5 155,-0.5"/>
<text text-anchor="middle" x="232.5" y="-188.5" font-family="Helvetica,sans-Serif" font-size="10.00">Model::Weapon</text>
<polyline fill="none" stroke="black" points="155,-181.5 310,-181.5 "/>
<text text-anchor="middle" x="232.5" y="-169.5" font-family="Helvetica,sans-Serif" font-size="10.00"> </text>
<polyline fill="none" stroke="black" points="155,-162.5 310,-162.5 "/>
<text text-anchor="start" x="163" y="-150.5" font-family="Helvetica,sans-Serif" font-size="10.00">+ Weapon()</text>
<text text-anchor="start" x="163" y="-139.5" font-family="Helvetica,sans-Serif" font-size="10.00">+ Weapon()</text>
<text text-anchor="start" x="163" y="-128.5" font-family="Helvetica,sans-Serif" font-size="10.00">+ Weapon()</text>
<text text-anchor="start" x="163" y="-117.5" font-family="Helvetica,sans-Serif" font-size="10.00">+ getPrice()</text>
<text text-anchor="start" x="163" y="-106.5" font-family="Helvetica,sans-Serif" font-size="10.00">+ getName()</text>
<text text-anchor="start" x="163" y="-95.5" font-family="Helvetica,sans-Serif" font-size="10.00">+ getType()</text>
<text text-anchor="start" x="163" y="-84.5" font-family="Helvetica,sans-Serif" font-size="10.00">+ getAmmo()</text>
<text text-anchor="start" x="163" y="-73.5" font-family="Helvetica,sans-Serif" font-size="10.00">+ getMaximumAmmoCapacity()</text>
<text text-anchor="start" x="163" y="-62.5" font-family="Helvetica,sans-Serif" font-size="10.00">+ getRange()</text>
<text text-anchor="start" x="163" y="-51.5" font-family="Helvetica,sans-Serif" font-size="10.00">+ getDamage()</text>
<text text-anchor="start" x="163" y="-40.5" font-family="Helvetica,sans-Serif" font-size="10.00">+ getRate()</text>
<text text-anchor="start" x="163" y="-29.5" font-family="Helvetica,sans-Serif" font-size="10.00">+ getAccuracy()</text>
<text text-anchor="start" x="163" y="-18.5" font-family="Helvetica,sans-Serif" font-size="10.00">+ getMinimumTechLvl()</text>
<text text-anchor="start" x="163" y="-7.5" font-family="Helvetica,sans-Serif" font-size="10.00">+ shoot()</text>
</g>
<!-- Node4 -->
<g id="node2" class="node"><title>Node4</title>
<g id="a_node2"><a xlink:href="class_interface_1_1_weapon_interface.html" target="_top" xlink:title="{Interface::WeaponInterface\n||+ WeaponInterface()\l+ ~WeaponInterface()\l+ getAmmo()\l+ getMaximumAmmoCapacity()\l+ getRange()\l+ getDamage()\l+ getRate()\l+ getAccuracy()\l+ getMinimumTechLvl()\l+ isEmpty()\l+ reload()\l}">
<polygon fill="white" stroke="black" points="0,-325.5 0,-492.5 155,-492.5 155,-325.5 0,-325.5"/>
<text text-anchor="middle" x="77.5" y="-480.5" font-family="Helvetica,sans-Serif" font-size="10.00">Interface::WeaponInterface</text>
<polyline fill="none" stroke="black" points="0,-473.5 155,-473.5 "/>
<text text-anchor="middle" x="77.5" y="-461.5" font-family="Helvetica,sans-Serif" font-size="10.00"> </text>
<polyline fill="none" stroke="black" points="0,-454.5 155,-454.5 "/>
<text text-anchor="start" x="8" y="-442.5" font-family="Helvetica,sans-Serif" font-size="10.00">+ WeaponInterface()</text>
<text text-anchor="start" x="8" y="-431.5" font-family="Helvetica,sans-Serif" font-size="10.00">+ ~WeaponInterface()</text>
<text text-anchor="start" x="8" y="-420.5" font-family="Helvetica,sans-Serif" font-size="10.00">+ getAmmo()</text>
<text text-anchor="start" x="8" y="-409.5" font-family="Helvetica,sans-Serif" font-size="10.00">+ getMaximumAmmoCapacity()</text>
<text text-anchor="start" x="8" y="-398.5" font-family="Helvetica,sans-Serif" font-size="10.00">+ getRange()</text>
<text text-anchor="start" x="8" y="-387.5" font-family="Helvetica,sans-Serif" font-size="10.00">+ getDamage()</text>
<text text-anchor="start" x="8" y="-376.5" font-family="Helvetica,sans-Serif" font-size="10.00">+ getRate()</text>
<text text-anchor="start" x="8" y="-365.5" font-family="Helvetica,sans-Serif" font-size="10.00">+ getAccuracy()</text>
<text text-anchor="start" x="8" y="-354.5" font-family="Helvetica,sans-Serif" font-size="10.00">+ getMinimumTechLvl()</text>
<text text-anchor="start" x="8" y="-343.5" font-family="Helvetica,sans-Serif" font-size="10.00">+ isEmpty()</text>
<text text-anchor="start" x="8" y="-332.5" font-family="Helvetica,sans-Serif" font-size="10.00">+ reload()</text>
</a>
</g>
</g>
<!-- Node4&#45;&gt;Node3 -->
<g id="edge1" class="edge"><title>Node4&#45;&gt;Node3</title>
<path fill="none" stroke="midnightblue" d="M123.869,-316.31C142.323,-279.818 163.601,-237.742 182.408,-200.553"/>
<polygon fill="none" stroke="midnightblue" points="120.631,-314.957 119.241,-325.46 126.877,-318.116 120.631,-314.957"/>
</g>
<!-- Node5 -->
<g id="node3" class="node"><title>Node5</title>
<g id="a_node3"><a xlink:href="class_interface_1_1_equipment_interface.html" target="_top" xlink:title="EquipmentInterface on rajapintaluokka, josta peritään tavaroita (Equipment). ">
<polygon fill="white" stroke="black" points="0,-530.5 0,-697.5 155,-697.5 155,-530.5 0,-530.5"/>
<text text-anchor="middle" x="77.5" y="-685.5" font-family="Helvetica,sans-Serif" font-size="10.00">Interface::EquipmentInterface</text>
<polyline fill="none" stroke="black" points="0,-678.5 155,-678.5 "/>
<text text-anchor="middle" x="77.5" y="-666.5" font-family="Helvetica,sans-Serif" font-size="10.00"> </text>
<polyline fill="none" stroke="black" points="0,-659.5 155,-659.5 "/>
<text text-anchor="start" x="8" y="-647.5" font-family="Helvetica,sans-Serif" font-size="10.00">+ EquipmentInterface()</text>
<text text-anchor="start" x="8" y="-636.5" font-family="Helvetica,sans-Serif" font-size="10.00">+ ~EquipmentInterface()</text>
<text text-anchor="start" x="8" y="-625.5" font-family="Helvetica,sans-Serif" font-size="10.00">+ getPrice()</text>
<text text-anchor="start" x="8" y="-614.5" font-family="Helvetica,sans-Serif" font-size="10.00">+ getName()</text>
<text text-anchor="start" x="8" y="-603.5" font-family="Helvetica,sans-Serif" font-size="10.00">+ getType()</text>
<text text-anchor="start" x="8" y="-592.5" font-family="Helvetica,sans-Serif" font-size="10.00">+ getAmmo()</text>
<text text-anchor="start" x="8" y="-581.5" font-family="Helvetica,sans-Serif" font-size="10.00">+ getMaximumAmmoCapacity()</text>
<text text-anchor="start" x="8" y="-570.5" font-family="Helvetica,sans-Serif" font-size="10.00">+ getUpgradeLevel()</text>
<text text-anchor="start" x="8" y="-559.5" font-family="Helvetica,sans-Serif" font-size="10.00">+ getRange()</text>
<text text-anchor="start" x="8" y="-548.5" font-family="Helvetica,sans-Serif" font-size="10.00">+ getDamage()</text>
<text text-anchor="start" x="8" y="-537.5" font-family="Helvetica,sans-Serif" font-size="10.00">and 8 more...</text>
</a>
</g>
</g>
<!-- Node5&#45;&gt;Node4 -->
<g id="edge2" class="edge"><title>Node5&#45;&gt;Node4</title>
<path fill="none" stroke="midnightblue" d="M77.5,-520.185C77.5,-511.06 77.5,-501.84 77.5,-492.824"/>
<polygon fill="none" stroke="midnightblue" points="74.0001,-520.432 77.5,-530.432 81.0001,-520.432 74.0001,-520.432"/>
</g>
<!-- Node6 -->
<g id="node4" class="node"><title>Node6</title>
<polygon fill="white" stroke="#bfbfbf" points="173,-380.5 173,-437.5 218,-437.5 218,-380.5 173,-380.5"/>
<text text-anchor="middle" x="195.5" y="-425.5" font-family="Helvetica,sans-Serif" font-size="10.00">double</text>
<polyline fill="none" stroke="#bfbfbf" points="173,-418.5 218,-418.5 "/>
<text text-anchor="middle" x="195.5" y="-406.5" font-family="Helvetica,sans-Serif" font-size="10.00"> </text>
<polyline fill="none" stroke="#bfbfbf" points="173,-399.5 218,-399.5 "/>
<text text-anchor="middle" x="195.5" y="-387.5" font-family="Helvetica,sans-Serif" font-size="10.00"> </text>
</g>
<!-- Node6&#45;&gt;Node3 -->
<g id="edge3" class="edge"><title>Node6&#45;&gt;Node3</title>
<path fill="none" stroke="#404040" d="M193.138,-380.259C190.556,-343.242 187.845,-275.767 196.5,-219 196.815,-216.934 197.159,-214.853 197.528,-212.763"/>
<polygon fill="none" stroke="#404040" points="197.583,-212.486 194.823,-205.824 199.91,-200.714 202.671,-207.376 197.583,-212.486"/>
<text text-anchor="middle" x="222.5" y="-260.5" font-family="Helvetica,sans-Serif" font-size="10.00"> &#45;accuracy_</text>
</g>
<!-- Node7 -->
<g id="node5" class="node"><title>Node7</title>
<polygon fill="white" stroke="#bfbfbf" points="245.5,-380.5 245.5,-437.5 295.5,-437.5 295.5,-380.5 245.5,-380.5"/>
<text text-anchor="middle" x="270.5" y="-425.5" font-family="Helvetica,sans-Serif" font-size="10.00">QString</text>
<polyline fill="none" stroke="#bfbfbf" points="245.5,-418.5 295.5,-418.5 "/>
<text text-anchor="middle" x="270.5" y="-406.5" font-family="Helvetica,sans-Serif" font-size="10.00"> </text>
<polyline fill="none" stroke="#bfbfbf" points="245.5,-399.5 295.5,-399.5 "/>
<text text-anchor="middle" x="270.5" y="-387.5" font-family="Helvetica,sans-Serif" font-size="10.00"> </text>
</g>
<!-- Node7&#45;&gt;Node3 -->
<g id="edge4" class="edge"><title>Node7&#45;&gt;Node3</title>
<path fill="none" stroke="#404040" d="M267.461,-380.435C263.364,-343.614 255.742,-276.354 248.5,-219 248.227,-216.835 247.948,-214.647 247.666,-212.443"/>
<polygon fill="none" stroke="#404040" points="247.664,-212.429 242.928,-206.992 246.125,-200.528 250.862,-205.965 247.664,-212.429"/>
<text text-anchor="middle" x="277.5" y="-266" font-family="Helvetica,sans-Serif" font-size="10.00"> &#45;name_</text>
<text text-anchor="middle" x="277.5" y="-255" font-family="Helvetica,sans-Serif" font-size="10.00">&#45;type_</text>
</g>
<!-- Node8 -->
<g id="node6" class="node"><title>Node8</title>
<polygon fill="white" stroke="#bfbfbf" points="315,-380.5 315,-437.5 344,-437.5 344,-380.5 315,-380.5"/>
<text text-anchor="middle" x="329.5" y="-425.5" font-family="Helvetica,sans-Serif" font-size="10.00">int</text>
<polyline fill="none" stroke="#bfbfbf" points="315,-418.5 344,-418.5 "/>
<text text-anchor="middle" x="329.5" y="-406.5" font-family="Helvetica,sans-Serif" font-size="10.00"> </text>
<polyline fill="none" stroke="#bfbfbf" points="315,-399.5 344,-399.5 "/>
<text text-anchor="middle" x="329.5" y="-387.5" font-family="Helvetica,sans-Serif" font-size="10.00"> </text>
</g>
<!-- Node8&#45;&gt;Node3 -->
<g id="edge5" class="edge"><title>Node8&#45;&gt;Node3</title>
<path fill="none" stroke="#404040" d="M328.22,-380.327C325.792,-342.812 318.88,-274.168 299.5,-219 298.664,-216.62 297.78,-214.233 296.854,-211.843"/>
<polygon fill="none" stroke="#404040" points="296.816,-211.751 290.827,-207.735 292.231,-200.662 298.22,-204.678 296.816,-211.751"/>
<text text-anchor="middle" x="377" y="-299" font-family="Helvetica,sans-Serif" font-size="10.00"> &#45;damage_</text>
<text text-anchor="middle" x="377" y="-288" font-family="Helvetica,sans-Serif" font-size="10.00">&#45;range_</text>
<text text-anchor="middle" x="377" y="-277" font-family="Helvetica,sans-Serif" font-size="10.00">&#45;currentAmmo_</text>
<text text-anchor="middle" x="377" y="-266" font-family="Helvetica,sans-Serif" font-size="10.00">&#45;minTechLvl_</text>
<text text-anchor="middle" x="377" y="-255" font-family="Helvetica,sans-Serif" font-size="10.00">&#45;price_</text>
<text text-anchor="start" x="320.5" y="-244" font-family="Helvetica,sans-Serif" font-size="10.00">&#45;maximumAmmoCapacity</text>
<text text-anchor="middle" x="377" y="-233" font-family="Helvetica,sans-Serif" font-size="10.00">_</text>
<text text-anchor="middle" x="377" y="-222" font-family="Helvetica,sans-Serif" font-size="10.00">&#45;rate_</text>
</g>
</g>
</svg>
