<?xml version="1.0" encoding="UTF-8" standalone="no"?>
<!DOCTYPE svg PUBLIC "-//W3C//DTD SVG 1.1//EN"
 "http://www.w3.org/Graphics/SVG/1.1/DTD/svg11.dtd">
<!-- Generated by graphviz version 2.38.0 (20140413.2041)
 -->
<!-- Title: View::ActionScene Pages: 1 -->
<!--zoomable 650 -->
<svg id="main" version="1.1" xmlns="http://www.w3.org/2000/svg" xmlns:xlink="http://www.w3.org/1999/xlink" xml:space="preserve" onload="init(evt)">
<style type="text/css"><![CDATA[
.edge:hover path { stroke: red; }
.edge:hover polygon { stroke: red; fill: red; }
]]></style>
<script type="text/javascript"><![CDATA[
var edges = document.getElementsByTagName('g');
if (edges && edges.length) {
  for (var i=0;i<edges.length;i++) {
    if (edges[i].id.substr(0,4)=='edge') {
      edges[i].setAttribute('class','edge');
    }
  }
}
]]></script>
        <defs>
                <circle id="rim" cx="0" cy="0" r="7"/>
                <circle id="rim2" cx="0" cy="0" r="3.5"/>
                <g id="zoomPlus">
                        <use xlink:href="#rim" fill="#404040">
                                <set attributeName="fill" to="#808080" begin="zoomplus.mouseover" end="zoomplus.mouseout"/>
                        </use>
                        <path d="M-4,0h8M0,-4v8" fill="none" stroke="white" stroke-width="1.5" pointer-events="none"/>
                </g>
                <g id="zoomMin">
                        <use xlink:href="#rim" fill="#404040">
                                <set attributeName="fill" to="#808080" begin="zoomminus.mouseover" end="zoomminus.mouseout"/>
                        </use>
                        <path d="M-4,0h8" fill="none" stroke="white" stroke-width="1.5" pointer-events="none"/>
                </g>
                <g id="dirArrow">
                        <path fill="none" stroke="white" stroke-width="1.5" d="M0,-3.0v7 M-2.5,-0.5L0,-3.0L2.5,-0.5"/>
                </g>
               <g id="resetDef">
                       <use xlink:href="#rim2" fill="#404040">
                               <set attributeName="fill" to="#808080" begin="reset.mouseover" end="reset.mouseout"/>
                       </use>
               </g>
        </defs>

<script type="text/javascript">
var viewWidth = 2183;
var viewHeight = 650;
var sectionId = 'dynsection-1';
</script>
<script xlink:href="svgpan.js"/>
<svg id="graph" class="graph">
<g id="viewport">
<title>View::ActionScene</title>
<polygon fill="white" stroke="none" points="-4,4 -4,-646 2179,-646 2179,4 -4,4"/>
<!-- Node2 -->
<g id="node1" class="node"><title>Node2</title>
<polygon fill="#bfbfbf" stroke="black" points="1076.5,-0.5 1076.5,-398.5 1218.5,-398.5 1218.5,-0.5 1076.5,-0.5"/>
<text text-anchor="middle" x="1147.5" y="-386.5" font-family="Helvetica,sans-Serif" font-size="10.00">View::ActionScene</text>
<polyline fill="none" stroke="black" points="1076.5,-379.5 1218.5,-379.5 "/>
<text text-anchor="middle" x="1147.5" y="-367.5" font-family="Helvetica,sans-Serif" font-size="10.00"> </text>
<polyline fill="none" stroke="black" points="1076.5,-360.5 1218.5,-360.5 "/>
<text text-anchor="start" x="1084.5" y="-348.5" font-family="Helvetica,sans-Serif" font-size="10.00">+ ActionScene()</text>
<text text-anchor="start" x="1084.5" y="-337.5" font-family="Helvetica,sans-Serif" font-size="10.00">+ ~ActionScene()</text>
<text text-anchor="start" x="1084.5" y="-326.5" font-family="Helvetica,sans-Serif" font-size="10.00">+ mouseMoveEvent()</text>
<text text-anchor="start" x="1084.5" y="-315.5" font-family="Helvetica,sans-Serif" font-size="10.00">+ mousePressEvent()</text>
<text text-anchor="start" x="1084.5" y="-304.5" font-family="Helvetica,sans-Serif" font-size="10.00">+ mouseDoubleClickEvent()</text>
<text text-anchor="start" x="1084.5" y="-293.5" font-family="Helvetica,sans-Serif" font-size="10.00">+ mouseReleaseEvent()</text>
<text text-anchor="start" x="1084.5" y="-282.5" font-family="Helvetica,sans-Serif" font-size="10.00">+ wheelEvent()</text>
<text text-anchor="start" x="1084.5" y="-271.5" font-family="Helvetica,sans-Serif" font-size="10.00">+ resizeScene()</text>
<text text-anchor="start" x="1084.5" y="-260.5" font-family="Helvetica,sans-Serif" font-size="10.00">+ clearScene()</text>
<text text-anchor="start" x="1084.5" y="-249.5" font-family="Helvetica,sans-Serif" font-size="10.00">+ setLayout()</text>
<text text-anchor="start" x="1084.5" y="-238.5" font-family="Helvetica,sans-Serif" font-size="10.00">and 15 more...</text>
<text text-anchor="start" x="1084.5" y="-227.5" font-family="Helvetica,sans-Serif" font-size="10.00">+ showEndMissionDisplay()</text>
<text text-anchor="start" x="1084.5" y="-216.5" font-family="Helvetica,sans-Serif" font-size="10.00">+ updateNearbyTiles()</text>
<text text-anchor="start" x="1084.5" y="-205.5" font-family="Helvetica,sans-Serif" font-size="10.00">+ shootTheShot()</text>
<text text-anchor="start" x="1084.5" y="-194.5" font-family="Helvetica,sans-Serif" font-size="10.00">+ checkWalkingIntoWalls()</text>
<text text-anchor="start" x="1084.5" y="-183.5" font-family="Helvetica,sans-Serif" font-size="10.00">+ actorWasHit()</text>
<text text-anchor="start" x="1084.5" y="-172.5" font-family="Helvetica,sans-Serif" font-size="10.00">+ updateEnemyLineOfSight()</text>
<text text-anchor="start" x="1084.5" y="-161.5" font-family="Helvetica,sans-Serif" font-size="10.00">+ enemyWandered()</text>
<text text-anchor="start" x="1084.5" y="-150.5" font-family="Helvetica,sans-Serif" font-size="10.00">+ enemyAttacked()</text>
<text text-anchor="start" x="1084.5" y="-139.5" font-family="Helvetica,sans-Serif" font-size="10.00">+ enemyPatrolled()</text>
<text text-anchor="start" x="1084.5" y="-128.5" font-family="Helvetica,sans-Serif" font-size="10.00">+ removeDeadEnemy()</text>
<text text-anchor="start" x="1084.5" y="-117.5" font-family="Helvetica,sans-Serif" font-size="10.00">+ removeDeadActor()</text>
<text text-anchor="start" x="1084.5" y="-106.5" font-family="Helvetica,sans-Serif" font-size="10.00">&#45; addTile()</text>
<text text-anchor="start" x="1084.5" y="-95.5" font-family="Helvetica,sans-Serif" font-size="10.00">&#45; addFloor()</text>
<text text-anchor="start" x="1084.5" y="-84.5" font-family="Helvetica,sans-Serif" font-size="10.00">&#45; addEdge()</text>
<text text-anchor="start" x="1084.5" y="-73.5" font-family="Helvetica,sans-Serif" font-size="10.00">&#45; addWall()</text>
<text text-anchor="start" x="1084.5" y="-62.5" font-family="Helvetica,sans-Serif" font-size="10.00">&#45; addHorizontalPark()</text>
<text text-anchor="start" x="1084.5" y="-51.5" font-family="Helvetica,sans-Serif" font-size="10.00">&#45; addVerticalPark()</text>
<text text-anchor="start" x="1084.5" y="-40.5" font-family="Helvetica,sans-Serif" font-size="10.00">&#45; addGuard()</text>
<text text-anchor="start" x="1084.5" y="-29.5" font-family="Helvetica,sans-Serif" font-size="10.00">&#45; addExit()</text>
<text text-anchor="start" x="1084.5" y="-18.5" font-family="Helvetica,sans-Serif" font-size="10.00">&#45; addVerticalCar()</text>
<text text-anchor="start" x="1084.5" y="-7.5" font-family="Helvetica,sans-Serif" font-size="10.00">&#45; addHorizontalCar()</text>
</g>
<!-- Node3 -->
<g id="node2" class="node"><title>Node3</title>
<g id="a_node2"><a xlink:href="class_q_graphics_scene.html" target="_top" xlink:title="{QGraphicsScene\n||}">
<polygon fill="white" stroke="black" points="0,-468.5 0,-525.5 91,-525.5 91,-468.5 0,-468.5"/>
<text text-anchor="middle" x="45.5" y="-513.5" font-family="Helvetica,sans-Serif" font-size="10.00">QGraphicsScene</text>
<polyline fill="none" stroke="black" points="0,-506.5 91,-506.5 "/>
<text text-anchor="middle" x="45.5" y="-494.5" font-family="Helvetica,sans-Serif" font-size="10.00"> </text>
<polyline fill="none" stroke="black" points="0,-487.5 91,-487.5 "/>
<text text-anchor="middle" x="45.5" y="-475.5" font-family="Helvetica,sans-Serif" font-size="10.00"> </text>
</a>
</g>
</g>
<!-- Node3&#45;&gt;Node2 -->
<g id="edge1" class="edge"><title>Node3&#45;&gt;Node2</title>
<path fill="none" stroke="midnightblue" d="M89.0507,-462.976C92.8244,-460.781 96.667,-458.751 100.5,-457 446.268,-299.039 902.496,-230.263 1076.21,-208.591"/>
<polygon fill="none" stroke="midnightblue" points="87.0541,-460.096 80.4074,-468.347 90.7485,-466.042 87.0541,-460.096"/>
</g>
<!-- Node4 -->
<g id="node3" class="node"><title>Node4</title>
<polygon fill="white" stroke="#bfbfbf" points="109.5,-463 109.5,-531 243.5,-531 243.5,-463 109.5,-463"/>
<text text-anchor="start" x="117.5" y="-519" font-family="Helvetica,sans-Serif" font-size="10.00">vector&lt; View::ActionScene</text>
<text text-anchor="middle" x="176.5" y="-508" font-family="Helvetica,sans-Serif" font-size="10.00">PC * &gt;</text>
<polyline fill="none" stroke="#bfbfbf" points="109.5,-501 243.5,-501 "/>
<text text-anchor="middle" x="176.5" y="-489" font-family="Helvetica,sans-Serif" font-size="10.00"> </text>
<polyline fill="none" stroke="#bfbfbf" points="109.5,-482 243.5,-482 "/>
<text text-anchor="middle" x="176.5" y="-470" font-family="Helvetica,sans-Serif" font-size="10.00"> </text>
</g>
<!-- Node4&#45;&gt;Node2 -->
<g id="edge2" class="edge"><title>Node4&#45;&gt;Node2</title>
<path fill="none" stroke="#404040" d="M239.723,-462.976C244.025,-460.908 248.313,-458.898 252.5,-457 296.474,-437.066 307.695,-432.263 353.5,-417 609.116,-331.825 918.978,-254.659 1064.47,-219.919"/>
<polygon fill="none" stroke="#404040" points="1064.67,-219.871 1069.58,-214.59 1076.35,-217.091 1071.44,-222.372 1064.67,-219.871"/>
<text text-anchor="middle" x="384" y="-425.5" font-family="Helvetica,sans-Serif" font-size="10.00"> &#45;playerParty_</text>
</g>
<!-- Node5 -->
<g id="node4" class="node"><title>Node5</title>
<g id="a_node4"><a xlink:href="class_view_1_1_action_scene_end_mission_display.html" target="_top" xlink:title="{View::ActionSceneEndMission\lDisplay\n||+ ActionSceneEndMissionDisplay()\l+ ~ActionSceneEndMissionDisplay()\l}">
<polygon fill="white" stroke="black" points="261.5,-457.5 261.5,-536.5 437.5,-536.5 437.5,-457.5 261.5,-457.5"/>
<text text-anchor="start" x="269.5" y="-524.5" font-family="Helvetica,sans-Serif" font-size="10.00">View::ActionSceneEndMission</text>
<text text-anchor="middle" x="349.5" y="-513.5" font-family="Helvetica,sans-Serif" font-size="10.00">Display</text>
<polyline fill="none" stroke="black" points="261.5,-506.5 437.5,-506.5 "/>
<text text-anchor="middle" x="349.5" y="-494.5" font-family="Helvetica,sans-Serif" font-size="10.00"> </text>
<polyline fill="none" stroke="black" points="261.5,-487.5 437.5,-487.5 "/>
<text text-anchor="start" x="269.5" y="-475.5" font-family="Helvetica,sans-Serif" font-size="10.00">+ ActionSceneEndMissionDisplay()</text>
<text text-anchor="start" x="269.5" y="-464.5" font-family="Helvetica,sans-Serif" font-size="10.00">+ ~ActionSceneEndMissionDisplay()</text>
</a>
</g>
</g>
<!-- Node5&#45;&gt;Node2 -->
<g id="edge3" class="edge"><title>Node5&#45;&gt;Node2</title>
<path fill="none" stroke="#404040" d="M392.328,-457.31C409.735,-443.109 430.642,-427.866 451.5,-417 659.166,-308.811 930.256,-243.91 1064.59,-216.244"/>
<polygon fill="none" stroke="#404040" points="1064.61,-216.239 1069.69,-211.12 1076.37,-213.84 1071.29,-218.959 1064.61,-216.239"/>
<text text-anchor="middle" x="498.5" y="-425.5" font-family="Helvetica,sans-Serif" font-size="10.00"> &#45;endMissionDisplay_</text>
</g>
<!-- Node6 -->
<g id="node5" class="node"><title>Node6</title>
<g id="a_node5"><a xlink:href="class_q_widget.html" target="_top" xlink:title="{QWidget\n||}">
<polygon fill="white" stroke="black" points="259,-584.5 259,-641.5 314,-641.5 314,-584.5 259,-584.5"/>
<text text-anchor="middle" x="286.5" y="-629.5" font-family="Helvetica,sans-Serif" font-size="10.00">QWidget</text>
<polyline fill="none" stroke="black" points="259,-622.5 314,-622.5 "/>
<text text-anchor="middle" x="286.5" y="-610.5" font-family="Helvetica,sans-Serif" font-size="10.00"> </text>
<polyline fill="none" stroke="black" points="259,-603.5 314,-603.5 "/>
<text text-anchor="middle" x="286.5" y="-591.5" font-family="Helvetica,sans-Serif" font-size="10.00"> </text>
</a>
</g>
</g>
<!-- Node6&#45;&gt;Node5 -->
<g id="edge4" class="edge"><title>Node6&#45;&gt;Node5</title>
<path fill="none" stroke="midnightblue" d="M306.596,-575.635C313.487,-563.167 321.219,-549.175 328.201,-536.541"/>
<polygon fill="none" stroke="midnightblue" points="303.524,-573.958 301.751,-584.404 309.651,-577.344 303.524,-573.958"/>
</g>
<!-- Node7 -->
<g id="node6" class="node"><title>Node7</title>
<polygon fill="white" stroke="#bfbfbf" points="332.5,-584.5 332.5,-641.5 494.5,-641.5 494.5,-584.5 332.5,-584.5"/>
<text text-anchor="middle" x="413.5" y="-629.5" font-family="Helvetica,sans-Serif" font-size="10.00">ActionSceneEndMissionDisplay *</text>
<polyline fill="none" stroke="#bfbfbf" points="332.5,-622.5 494.5,-622.5 "/>
<text text-anchor="middle" x="413.5" y="-610.5" font-family="Helvetica,sans-Serif" font-size="10.00"> </text>
<polyline fill="none" stroke="#bfbfbf" points="332.5,-603.5 494.5,-603.5 "/>
<text text-anchor="middle" x="413.5" y="-591.5" font-family="Helvetica,sans-Serif" font-size="10.00"> </text>
</g>
<!-- Node7&#45;&gt;Node5 -->
<g id="edge5" class="edge"><title>Node7&#45;&gt;Node5</title>
<path fill="none" stroke="#404040" d="M398.007,-584.404C391.707,-573.181 384.231,-559.864 377.058,-547.088"/>
<polygon fill="none" stroke="#404040" points="377.011,-547.004 370.586,-543.731 371.137,-536.541 377.562,-539.814 377.011,-547.004"/>
<text text-anchor="middle" x="394.5" y="-558" font-family="Helvetica,sans-Serif" font-size="10.00"> &#45;ui</text>
</g>
<!-- Node8 -->
<g id="node7" class="node"><title>Node8</title>
<polygon fill="white" stroke="#bfbfbf" points="456,-468.5 456,-525.5 509,-525.5 509,-468.5 456,-468.5"/>
<text text-anchor="middle" x="482.5" y="-513.5" font-family="Helvetica,sans-Serif" font-size="10.00">QPointF</text>
<polyline fill="none" stroke="#bfbfbf" points="456,-506.5 509,-506.5 "/>
<text text-anchor="middle" x="482.5" y="-494.5" font-family="Helvetica,sans-Serif" font-size="10.00"> </text>
<polyline fill="none" stroke="#bfbfbf" points="456,-487.5 509,-487.5 "/>
<text text-anchor="middle" x="482.5" y="-475.5" font-family="Helvetica,sans-Serif" font-size="10.00"> </text>
</g>
<!-- Node8&#45;&gt;Node2 -->
<g id="edge6" class="edge"><title>Node8&#45;&gt;Node2</title>
<path fill="none" stroke="#404040" d="M505.1,-468.363C509.273,-464.221 513.805,-460.255 518.5,-457 694.768,-334.774 938.074,-256.75 1064.18,-221.816"/>
<polygon fill="none" stroke="#404040" points="1064.44,-221.745 1069.17,-216.3 1076.01,-218.57 1071.29,-224.015 1064.44,-221.745"/>
<text text-anchor="middle" x="612" y="-425.5" font-family="Helvetica,sans-Serif" font-size="10.00"> &#45;shootTarget_</text>
</g>
<!-- Node9 -->
<g id="node8" class="node"><title>Node9</title>
<polygon fill="white" stroke="#bfbfbf" points="527.5,-463 527.5,-531 661.5,-531 661.5,-463 527.5,-463"/>
<text text-anchor="start" x="535.5" y="-519" font-family="Helvetica,sans-Serif" font-size="10.00">vector&lt; View::ActionScene</text>
<text text-anchor="middle" x="594.5" y="-508" font-family="Helvetica,sans-Serif" font-size="10.00">NPC * &gt;</text>
<polyline fill="none" stroke="#bfbfbf" points="527.5,-501 661.5,-501 "/>
<text text-anchor="middle" x="594.5" y="-489" font-family="Helvetica,sans-Serif" font-size="10.00"> </text>
<polyline fill="none" stroke="#bfbfbf" points="527.5,-482 661.5,-482 "/>
<text text-anchor="middle" x="594.5" y="-470" font-family="Helvetica,sans-Serif" font-size="10.00"> </text>
</g>
<!-- Node9&#45;&gt;Node2 -->
<g id="edge7" class="edge"><title>Node9&#45;&gt;Node2</title>
<path fill="none" stroke="#404040" d="M656.326,-462.963C756.293,-409.545 953.472,-304.18 1065.2,-244.477"/>
<polygon fill="none" stroke="#404040" points="1065.49,-244.324 1068.89,-237.968 1076.07,-238.668 1072.67,-245.024 1065.49,-244.324"/>
<text text-anchor="middle" x="753" y="-425.5" font-family="Helvetica,sans-Serif" font-size="10.00"> &#45;enemies_</text>
</g>
<!-- Node10 -->
<g id="node9" class="node"><title>Node10</title>
<polygon fill="white" stroke="#bfbfbf" points="680,-463 680,-531 819,-531 819,-463 680,-463"/>
<text text-anchor="start" x="688" y="-519" font-family="Helvetica,sans-Serif" font-size="10.00">map&lt; TileType, std</text>
<text text-anchor="middle" x="749.5" y="-508" font-family="Helvetica,sans-Serif" font-size="10.00">::function&lt; void(QPointF)&gt; &gt;</text>
<polyline fill="none" stroke="#bfbfbf" points="680,-501 819,-501 "/>
<text text-anchor="middle" x="749.5" y="-489" font-family="Helvetica,sans-Serif" font-size="10.00"> </text>
<polyline fill="none" stroke="#bfbfbf" points="680,-482 819,-482 "/>
<text text-anchor="middle" x="749.5" y="-470" font-family="Helvetica,sans-Serif" font-size="10.00"> </text>
</g>
<!-- Node10&#45;&gt;Node2 -->
<g id="edge8" class="edge"><title>Node10&#45;&gt;Node2</title>
<path fill="none" stroke="#404040" d="M788.262,-462.674C805.283,-448.327 825.647,-431.543 844.5,-417 918.087,-360.236 1004.57,-298.957 1066.26,-256.132"/>
<polygon fill="none" stroke="#404040" points="1066.47,-255.991 1069.12,-249.285 1076.33,-249.155 1073.68,-255.861 1066.47,-255.991"/>
<text text-anchor="middle" x="873" y="-425.5" font-family="Helvetica,sans-Serif" font-size="10.00"> &#45;tileFunction</text>
</g>
<!-- Node11 -->
<g id="node10" class="node"><title>Node11</title>
<polygon fill="white" stroke="#bfbfbf" points="837.5,-468.5 837.5,-525.5 969.5,-525.5 969.5,-468.5 837.5,-468.5"/>
<text text-anchor="middle" x="903.5" y="-513.5" font-family="Helvetica,sans-Serif" font-size="10.00">vector&lt; QGraphicsItem * &gt;</text>
<polyline fill="none" stroke="#bfbfbf" points="837.5,-506.5 969.5,-506.5 "/>
<text text-anchor="middle" x="903.5" y="-494.5" font-family="Helvetica,sans-Serif" font-size="10.00"> </text>
<polyline fill="none" stroke="#bfbfbf" points="837.5,-487.5 969.5,-487.5 "/>
<text text-anchor="middle" x="903.5" y="-475.5" font-family="Helvetica,sans-Serif" font-size="10.00"> </text>
</g>
<!-- Node11&#45;&gt;Node2 -->
<g id="edge9" class="edge"><title>Node11&#45;&gt;Node2</title>
<path fill="none" stroke="#404040" d="M901.569,-468.331C901.592,-452.524 903.592,-432.774 911.5,-417 946.159,-347.864 1012.82,-289.943 1066.48,-251.459"/>
<polygon fill="none" stroke="#404040" points="1066.54,-251.421 1069.13,-244.693 1076.34,-244.501 1073.75,-251.229 1066.54,-251.421"/>
<text text-anchor="middle" x="945.5" y="-431" font-family="Helvetica,sans-Serif" font-size="10.00"> &#45;blockingTiles_</text>
<text text-anchor="middle" x="945.5" y="-420" font-family="Helvetica,sans-Serif" font-size="10.00">&#45;clearTiles_</text>
</g>
<!-- Node12 -->
<g id="node11" class="node"><title>Node12</title>
<polygon fill="white" stroke="#bfbfbf" points="988,-468.5 988,-525.5 1017,-525.5 1017,-468.5 988,-468.5"/>
<text text-anchor="middle" x="1002.5" y="-513.5" font-family="Helvetica,sans-Serif" font-size="10.00">int</text>
<polyline fill="none" stroke="#bfbfbf" points="988,-506.5 1017,-506.5 "/>
<text text-anchor="middle" x="1002.5" y="-494.5" font-family="Helvetica,sans-Serif" font-size="10.00"> </text>
<polyline fill="none" stroke="#bfbfbf" points="988,-487.5 1017,-487.5 "/>
<text text-anchor="middle" x="1002.5" y="-475.5" font-family="Helvetica,sans-Serif" font-size="10.00"> </text>
</g>
<!-- Node12&#45;&gt;Node2 -->
<g id="edge10" class="edge"><title>Node12&#45;&gt;Node2</title>
<path fill="none" stroke="#404040" d="M989.352,-468.183C983.887,-452.865 979.964,-433.64 985.5,-417 1002.24,-366.697 1035.73,-318.644 1067.94,-280.645"/>
<polygon fill="none" stroke="#404040" points="1068.25,-280.288 1069.15,-273.133 1076.09,-271.206 1075.2,-278.361 1068.25,-280.288"/>
<text text-anchor="middle" x="1019" y="-425.5" font-family="Helvetica,sans-Serif" font-size="10.00"> &#45;enemyCount_</text>
</g>
<!-- Node13 -->
<g id="node12" class="node"><title>Node13</title>
<polygon fill="white" stroke="#bfbfbf" points="1035,-468.5 1035,-525.5 1090,-525.5 1090,-468.5 1035,-468.5"/>
<text text-anchor="middle" x="1062.5" y="-513.5" font-family="Helvetica,sans-Serif" font-size="10.00">QTimer *</text>
<polyline fill="none" stroke="#bfbfbf" points="1035,-506.5 1090,-506.5 "/>
<text text-anchor="middle" x="1062.5" y="-494.5" font-family="Helvetica,sans-Serif" font-size="10.00"> </text>
<polyline fill="none" stroke="#bfbfbf" points="1035,-487.5 1090,-487.5 "/>
<text text-anchor="middle" x="1062.5" y="-475.5" font-family="Helvetica,sans-Serif" font-size="10.00"> </text>
</g>
<!-- Node13&#45;&gt;Node2 -->
<g id="edge11" class="edge"><title>Node13&#45;&gt;Node2</title>
<path fill="none" stroke="#404040" d="M1057.82,-468.341C1056.05,-453.07 1055.17,-433.841 1058.5,-417 1061.96,-399.503 1066.84,-381.642 1072.57,-364.057"/>
<polygon fill="none" stroke="#404040" points="1072.61,-363.92 1070.74,-356.957 1076.44,-352.547 1078.32,-359.51 1072.61,-363.92"/>
<text text-anchor="middle" x="1101" y="-431" font-family="Helvetica,sans-Serif" font-size="10.00"> &#45;endMissionTimer_</text>
<text text-anchor="middle" x="1101" y="-420" font-family="Helvetica,sans-Serif" font-size="10.00">&#45;nearbyTilesTimer_</text>
</g>
<!-- Node14 -->
<g id="node13" class="node"><title>Node14</title>
<polygon fill="white" stroke="#bfbfbf" points="1130,-468.5 1130,-525.5 1165,-525.5 1165,-468.5 1130,-468.5"/>
<text text-anchor="middle" x="1147.5" y="-513.5" font-family="Helvetica,sans-Serif" font-size="10.00">bool</text>
<polyline fill="none" stroke="#bfbfbf" points="1130,-506.5 1165,-506.5 "/>
<text text-anchor="middle" x="1147.5" y="-494.5" font-family="Helvetica,sans-Serif" font-size="10.00"> </text>
<polyline fill="none" stroke="#bfbfbf" points="1130,-487.5 1165,-487.5 "/>
<text text-anchor="middle" x="1147.5" y="-475.5" font-family="Helvetica,sans-Serif" font-size="10.00"> </text>
</g>
<!-- Node14&#45;&gt;Node2 -->
<g id="edge12" class="edge"><title>Node14&#45;&gt;Node2</title>
<path fill="none" stroke="#404040" d="M1147.5,-468.465C1147.5,-453.397 1147.5,-433.213 1147.5,-410.651"/>
<polygon fill="none" stroke="#404040" points="1147.5,-410.65 1143.5,-404.65 1147.5,-398.65 1151.5,-404.65 1147.5,-410.65"/>
<text text-anchor="middle" x="1189.5" y="-431" font-family="Helvetica,sans-Serif" font-size="10.00"> &#45;missionSuccess_</text>
<text text-anchor="middle" x="1189.5" y="-420" font-family="Helvetica,sans-Serif" font-size="10.00">&#45;missionEnded_</text>
</g>
<!-- Node15 -->
<g id="node14" class="node"><title>Node15</title>
<polygon fill="white" stroke="#bfbfbf" points="1191.5,-468.5 1191.5,-525.5 1317.5,-525.5 1317.5,-468.5 1191.5,-468.5"/>
<text text-anchor="middle" x="1254.5" y="-513.5" font-family="Helvetica,sans-Serif" font-size="10.00">QGraphicsProxyWidget *</text>
<polyline fill="none" stroke="#bfbfbf" points="1191.5,-506.5 1317.5,-506.5 "/>
<text text-anchor="middle" x="1254.5" y="-494.5" font-family="Helvetica,sans-Serif" font-size="10.00"> </text>
<polyline fill="none" stroke="#bfbfbf" points="1191.5,-487.5 1317.5,-487.5 "/>
<text text-anchor="middle" x="1254.5" y="-475.5" font-family="Helvetica,sans-Serif" font-size="10.00"> </text>
</g>
<!-- Node15&#45;&gt;Node2 -->
<g id="edge13" class="edge"><title>Node15&#45;&gt;Node2</title>
<path fill="none" stroke="#404040" d="M1247.55,-468.37C1243.52,-453.108 1238.15,-433.877 1232.5,-417 1229.37,-407.642 1226.06,-398.098 1222.64,-388.488"/>
<polygon fill="none" stroke="#404040" points="1222.63,-388.476 1216.84,-384.184 1218.57,-377.185 1224.37,-381.476 1222.63,-388.476"/>
<text text-anchor="middle" x="1298.5" y="-425.5" font-family="Helvetica,sans-Serif" font-size="10.00"> &#45;endMissionProxyWidget_</text>
</g>
<!-- Node16 -->
<g id="node15" class="node"><title>Node16</title>
<polygon fill="white" stroke="#bfbfbf" points="1356.5,-468.5 1356.5,-525.5 1388.5,-525.5 1388.5,-468.5 1356.5,-468.5"/>
<text text-anchor="middle" x="1372.5" y="-513.5" font-family="Helvetica,sans-Serif" font-size="10.00">uint</text>
<polyline fill="none" stroke="#bfbfbf" points="1356.5,-506.5 1388.5,-506.5 "/>
<text text-anchor="middle" x="1372.5" y="-494.5" font-family="Helvetica,sans-Serif" font-size="10.00"> </text>
<polyline fill="none" stroke="#bfbfbf" points="1356.5,-487.5 1388.5,-487.5 "/>
<text text-anchor="middle" x="1372.5" y="-475.5" font-family="Helvetica,sans-Serif" font-size="10.00"> </text>
</g>
<!-- Node16&#45;&gt;Node2 -->
<g id="edge14" class="edge"><title>Node16&#45;&gt;Node2</title>
<path fill="none" stroke="#404040" d="M1372.89,-468.418C1372.1,-452.641 1369.35,-432.891 1361.5,-417 1330.67,-354.61 1274.94,-299.123 1228.08,-259.944"/>
<polygon fill="none" stroke="#404040" points="1227.79,-259.71 1220.62,-258.983 1218.53,-252.081 1225.7,-252.808 1227.79,-259.71"/>
<text text-anchor="middle" x="1413" y="-425.5" font-family="Helvetica,sans-Serif" font-size="10.00"> &#45;formationSpacing_</text>
</g>
<!-- Node17 -->
<g id="node16" class="node"><title>Node17</title>
<polygon fill="white" stroke="#bfbfbf" points="1406.5,-463 1406.5,-531 1522.5,-531 1522.5,-463 1406.5,-463"/>
<text text-anchor="start" x="1414.5" y="-519" font-family="Helvetica,sans-Serif" font-size="10.00">vector&lt; std::vector</text>
<text text-anchor="middle" x="1464.5" y="-508" font-family="Helvetica,sans-Serif" font-size="10.00">&lt; QGraphicsItem * &gt; &gt;</text>
<polyline fill="none" stroke="#bfbfbf" points="1406.5,-501 1522.5,-501 "/>
<text text-anchor="middle" x="1464.5" y="-489" font-family="Helvetica,sans-Serif" font-size="10.00"> </text>
<polyline fill="none" stroke="#bfbfbf" points="1406.5,-482 1522.5,-482 "/>
<text text-anchor="middle" x="1464.5" y="-470" font-family="Helvetica,sans-Serif" font-size="10.00"> </text>
</g>
<!-- Node17&#45;&gt;Node2 -->
<g id="edge15" class="edge"><title>Node17&#45;&gt;Node2</title>
<path fill="none" stroke="#404040" d="M1469.2,-462.67C1469.74,-447.839 1468.12,-430.677 1460.5,-417 1410.2,-326.679 1304.46,-265.889 1229.84,-232.273"/>
<polygon fill="none" stroke="#404040" points="1229.58,-232.159 1222.48,-233.393 1218.61,-227.31 1225.71,-226.076 1229.58,-232.159"/>
<text text-anchor="middle" x="1492.5" y="-425.5" font-family="Helvetica,sans-Serif" font-size="10.00"> &#45;tilesNear_</text>
</g>
<!-- Node18 -->
<g id="node17" class="node"><title>Node18</title>
<polygon fill="white" stroke="#bfbfbf" points="1540.5,-468.5 1540.5,-525.5 1616.5,-525.5 1616.5,-468.5 1540.5,-468.5"/>
<text text-anchor="middle" x="1578.5" y="-513.5" font-family="Helvetica,sans-Serif" font-size="10.00">vector&lt; uint &gt;</text>
<polyline fill="none" stroke="#bfbfbf" points="1540.5,-506.5 1616.5,-506.5 "/>
<text text-anchor="middle" x="1578.5" y="-494.5" font-family="Helvetica,sans-Serif" font-size="10.00"> </text>
<polyline fill="none" stroke="#bfbfbf" points="1540.5,-487.5 1616.5,-487.5 "/>
<text text-anchor="middle" x="1578.5" y="-475.5" font-family="Helvetica,sans-Serif" font-size="10.00"> </text>
</g>
<!-- Node18&#45;&gt;Node2 -->
<g id="edge16" class="edge"><title>Node18&#45;&gt;Node2</title>
<path fill="none" stroke="#404040" d="M1562.52,-468.144C1552.25,-451.89 1537.81,-431.748 1521.5,-417 1433.02,-336.973 1310.15,-272.829 1229.76,-235.715"/>
<polygon fill="none" stroke="#404040" points="1229.62,-235.651 1222.5,-236.792 1218.7,-230.659 1225.82,-229.517 1229.62,-235.651"/>
<text text-anchor="middle" x="1577" y="-425.5" font-family="Helvetica,sans-Serif" font-size="10.00"> &#45;deadEnemies_</text>
</g>
<!-- Node19 -->
<g id="node18" class="node"><title>Node19</title>
<polygon fill="white" stroke="#bfbfbf" points="1635,-468.5 1635,-525.5 1742,-525.5 1742,-468.5 1635,-468.5"/>
<text text-anchor="middle" x="1688.5" y="-513.5" font-family="Helvetica,sans-Serif" font-size="10.00">vector&lt; QPixmap * &gt;</text>
<polyline fill="none" stroke="#bfbfbf" points="1635,-506.5 1742,-506.5 "/>
<text text-anchor="middle" x="1688.5" y="-494.5" font-family="Helvetica,sans-Serif" font-size="10.00"> </text>
<polyline fill="none" stroke="#bfbfbf" points="1635,-487.5 1742,-487.5 "/>
<text text-anchor="middle" x="1688.5" y="-475.5" font-family="Helvetica,sans-Serif" font-size="10.00"> </text>
</g>
<!-- Node19&#45;&gt;Node2 -->
<g id="edge17" class="edge"><title>Node19&#45;&gt;Node2</title>
<path fill="none" stroke="#404040" d="M1667.79,-468.162C1654.51,-451.713 1636.11,-431.363 1616.5,-417 1493.96,-327.259 1328.28,-261.5 1230.18,-227.27"/>
<polygon fill="none" stroke="#404040" points="1229.9,-227.173 1222.92,-228.993 1218.56,-223.252 1225.54,-221.432 1229.9,-227.173"/>
<text text-anchor="middle" x="1661.5" y="-425.5" font-family="Helvetica,sans-Serif" font-size="10.00"> &#45;carSet_</text>
</g>
<!-- Node20 -->
<g id="node19" class="node"><title>Node20</title>
<polygon fill="white" stroke="#bfbfbf" points="1760.5,-463 1760.5,-531 1894.5,-531 1894.5,-463 1760.5,-463"/>
<text text-anchor="start" x="1768.5" y="-519" font-family="Helvetica,sans-Serif" font-size="10.00">vector&lt; std::vector</text>
<text text-anchor="middle" x="1827.5" y="-508" font-family="Helvetica,sans-Serif" font-size="10.00">&lt; QGraphicsLineItem * &gt; &gt;</text>
<polyline fill="none" stroke="#bfbfbf" points="1760.5,-501 1894.5,-501 "/>
<text text-anchor="middle" x="1827.5" y="-489" font-family="Helvetica,sans-Serif" font-size="10.00"> </text>
<polyline fill="none" stroke="#bfbfbf" points="1760.5,-482 1894.5,-482 "/>
<text text-anchor="middle" x="1827.5" y="-470" font-family="Helvetica,sans-Serif" font-size="10.00"> </text>
</g>
<!-- Node20&#45;&gt;Node2 -->
<g id="edge18" class="edge"><title>Node20&#45;&gt;Node2</title>
<path fill="none" stroke="#404040" d="M1771.69,-462.828C1745.86,-448.029 1714.53,-430.848 1685.5,-417 1527.9,-341.814 1336.92,-269.135 1230.12,-230.074"/>
<polygon fill="none" stroke="#404040" points="1230.06,-230.052 1223.05,-231.753 1218.78,-225.939 1225.79,-224.238 1230.06,-230.052"/>
<text text-anchor="middle" x="1760" y="-425.5" font-family="Helvetica,sans-Serif" font-size="10.00"> &#45;enemySights_</text>
</g>
<!-- Node21 -->
<g id="node20" class="node"><title>Node21</title>
<polygon fill="white" stroke="#bfbfbf" points="1912.5,-468.5 1912.5,-525.5 1990.5,-525.5 1990.5,-468.5 1912.5,-468.5"/>
<text text-anchor="middle" x="1951.5" y="-513.5" font-family="Helvetica,sans-Serif" font-size="10.00">vector&lt; bool &gt;</text>
<polyline fill="none" stroke="#bfbfbf" points="1912.5,-506.5 1990.5,-506.5 "/>
<text text-anchor="middle" x="1951.5" y="-494.5" font-family="Helvetica,sans-Serif" font-size="10.00"> </text>
<polyline fill="none" stroke="#bfbfbf" points="1912.5,-487.5 1990.5,-487.5 "/>
<text text-anchor="middle" x="1951.5" y="-475.5" font-family="Helvetica,sans-Serif" font-size="10.00"> </text>
</g>
<!-- Node21&#45;&gt;Node2 -->
<g id="edge19" class="edge"><title>Node21&#45;&gt;Node2</title>
<path fill="none" stroke="#404040" d="M1920.52,-468.485C1915.06,-464.328 1909.27,-460.326 1903.5,-457 1860.24,-432.05 1845.54,-433.772 1798.5,-417 1595.54,-344.628 1354.32,-266.422 1230.28,-226.771"/>
<polygon fill="none" stroke="#404040" points="1230.08,-226.707 1223.14,-228.692 1218.64,-223.056 1225.58,-221.071 1230.08,-226.707"/>
<text text-anchor="middle" x="1896" y="-425.5" font-family="Helvetica,sans-Serif" font-size="10.00"> &#45;partyInPlay_</text>
</g>
<!-- Node22 -->
<g id="node21" class="node"><title>Node22</title>
<polygon fill="white" stroke="#bfbfbf" points="2009,-468.5 2009,-525.5 2110,-525.5 2110,-468.5 2009,-468.5"/>
<text text-anchor="middle" x="2059.5" y="-513.5" font-family="Helvetica,sans-Serif" font-size="10.00">vector&lt; QPixmap &gt;</text>
<polyline fill="none" stroke="#bfbfbf" points="2009,-506.5 2110,-506.5 "/>
<text text-anchor="middle" x="2059.5" y="-494.5" font-family="Helvetica,sans-Serif" font-size="10.00"> </text>
<polyline fill="none" stroke="#bfbfbf" points="2009,-487.5 2110,-487.5 "/>
<text text-anchor="middle" x="2059.5" y="-475.5" font-family="Helvetica,sans-Serif" font-size="10.00"> </text>
</g>
<!-- Node22&#45;&gt;Node2 -->
<g id="edge20" class="edge"><title>Node22&#45;&gt;Node2</title>
<path fill="none" stroke="#404040" d="M2021.36,-468.369C1996.52,-451.475 1962.83,-430.574 1930.5,-417 1685.12,-313.961 1376.07,-245.195 1230.53,-216.159"/>
<polygon fill="none" stroke="#404040" points="1230.41,-216.137 1223.75,-218.894 1218.64,-213.804 1225.31,-211.047 1230.41,-216.137"/>
<text text-anchor="middle" x="1991.5" y="-425.5" font-family="Helvetica,sans-Serif" font-size="10.00"> &#45;tileSet_</text>
</g>
<!-- Node23 -->
<g id="node22" class="node"><title>Node23</title>
<polygon fill="white" stroke="#bfbfbf" points="2128,-468.5 2128,-525.5 2175,-525.5 2175,-468.5 2128,-468.5"/>
<text text-anchor="middle" x="2151.5" y="-513.5" font-family="Helvetica,sans-Serif" font-size="10.00">QPoint</text>
<polyline fill="none" stroke="#bfbfbf" points="2128,-506.5 2175,-506.5 "/>
<text text-anchor="middle" x="2151.5" y="-494.5" font-family="Helvetica,sans-Serif" font-size="10.00"> </text>
<polyline fill="none" stroke="#bfbfbf" points="2128,-487.5 2175,-487.5 "/>
<text text-anchor="middle" x="2151.5" y="-475.5" font-family="Helvetica,sans-Serif" font-size="10.00"> </text>
</g>
<!-- Node23&#45;&gt;Node2 -->
<g id="edge21" class="edge"><title>Node23&#45;&gt;Node2</title>
<path fill="none" stroke="#404040" d="M2131.08,-468.255C2127.22,-464.127 2122.98,-460.193 2118.5,-457 2078.52,-428.487 2062.31,-431.861 2015.5,-417 1731.65,-326.878 1386.03,-250.296 1230.43,-217.534"/>
<polygon fill="none" stroke="#404040" points="1230.41,-217.529 1223.71,-220.211 1218.66,-215.063 1225.36,-212.382 1230.41,-217.529"/>
<text text-anchor="middle" x="2118" y="-425.5" font-family="Helvetica,sans-Serif" font-size="10.00"> &#45;playerEntry_</text>
</g>
</g>
</svg>
        <g id="navigator" transform="translate(0 0)" fill="#404254">
                <rect fill="#f2f5e9" fill-opacity="0.5" stroke="#606060" stroke-width=".5" x="0" y="0" width="60" height="60"/>
                <use id="zoomplus" xlink:href="#zoomPlus" x="17" y="9" onmousedown="handleZoom(evt,'in')"/>
                <use id="zoomminus" xlink:href="#zoomMin" x="42" y="9" onmousedown="handleZoom(evt,'out')"/>
                <use id="reset" xlink:href="#resetDef" x="30" y="36" onmousedown="handleReset()"/>
                <g id="arrowUp" xlink:href="#dirArrow" transform="translate(30 24)" onmousedown="handlePan(0,-1)">
                  <use xlink:href="#rim" fill="#404040">
                        <set attributeName="fill" to="#808080" begin="arrowUp.mouseover" end="arrowUp.mouseout"/>
                  </use>
                  <path fill="none" stroke="white" stroke-width="1.5" d="M0,-3.0v7 M-2.5,-0.5L0,-3.0L2.5,-0.5"/>
                </g>
                <g id="arrowRight" xlink:href="#dirArrow" transform="rotate(90) translate(36 -43)" onmousedown="handlePan(1,0)">
                  <use xlink:href="#rim" fill="#404040">
                        <set attributeName="fill" to="#808080" begin="arrowRight.mouseover" end="arrowRight.mouseout"/>
                  </use>
                  <path fill="none" stroke="white" stroke-width="1.5" d="M0,-3.0v7 M-2.5,-0.5L0,-3.0L2.5,-0.5"/>
                </g>
                <g id="arrowDown" xlink:href="#dirArrow" transform="rotate(180) translate(-30 -48)" onmousedown="handlePan(0,1)">
                  <use xlink:href="#rim" fill="#404040">
                        <set attributeName="fill" to="#808080" begin="arrowDown.mouseover" end="arrowDown.mouseout"/>
                  </use>
                  <path fill="none" stroke="white" stroke-width="1.5" d="M0,-3.0v7 M-2.5,-0.5L0,-3.0L2.5,-0.5"/>
                </g>
                <g id="arrowLeft" xlink:href="#dirArrow" transform="rotate(270) translate(-36 17)" onmousedown="handlePan(-1,0)">
                  <use xlink:href="#rim" fill="#404040">
                        <set attributeName="fill" to="#808080" begin="arrowLeft.mouseover" end="arrowLeft.mouseout"/>
                  </use>
                  <path fill="none" stroke="white" stroke-width="1.5" d="M0,-3.0v7 M-2.5,-0.5L0,-3.0L2.5,-0.5"/>
                </g>
        </g>
        <svg viewBox="0 0 15 15" width="100%" height="30px" preserveAspectRatio="xMaxYMin meet">
         <g id="arrow_out" transform="scale(0.3 0.3)">
          <a xlink:href="class_view_1_1_action_scene__coll__graph_org.svg" target="_base">
           <rect id="button" ry="5" rx="5" y="6" x="6" height="38" width="38"
                fill="#f2f5e9" fill-opacity="0.5" stroke="#606060" stroke-width="1.0"/>
           <path id="arrow"
             d="M 11.500037,31.436501 C 11.940474,20.09759 22.043105,11.32322 32.158766,21.979434 L 37.068811,17.246167 C 37.068811,17.246167 37.088388,32 37.088388,32 L 22.160133,31.978069 C 22.160133,31.978069 26.997745,27.140456 26.997745,27.140456 C 18.528582,18.264221 13.291696,25.230495 11.500037,31.436501 z"
             style="fill:#404040;"/>
          </a>
         </g>
        </svg>
</svg>
