<?xml version="1.0" encoding="UTF-8" standalone="no"?>
<!DOCTYPE svg PUBLIC "-//W3C//DTD SVG 1.1//EN"
 "http://www.w3.org/Graphics/SVG/1.1/DTD/svg11.dtd">
<!-- Generated by graphviz version 2.38.0 (20140413.2041)
 -->
<!-- Title: Model::CyberTeekkari::getStat Pages: 1 -->
<svg width="298pt" height="235pt"
 viewBox="0.00 0.00 298.00 235.00" xmlns="http://www.w3.org/2000/svg" xmlns:xlink="http://www.w3.org/1999/xlink">
<g id="graph0" class="graph" transform="scale(1 1) rotate(0) translate(4 231)">
<title>Model::CyberTeekkari::getStat</title>
<polygon fill="white" stroke="none" points="-4,4 -4,-231 294,-231 294,4 -4,4"/>
<!-- Node15 -->
<g id="node1" class="node"><title>Node15</title>
<polygon fill="#bfbfbf" stroke="black" points="0,-98.5 0,-128.5 111,-128.5 111,-98.5 0,-98.5"/>
<text text-anchor="start" x="8" y="-116.5" font-family="Helvetica,sans-Serif" font-size="10.00">Model::CyberTeekkari</text>
<text text-anchor="middle" x="55.5" y="-105.5" font-family="Helvetica,sans-Serif" font-size="10.00">::getStat</text>
</g>
<!-- Node16 -->
<g id="node2" class="node"><title>Node16</title>
<g id="a_node2"><a xlink:href="class_interface_1_1_equipment_interface.html#ab0320958208820b425f52c97eadf2ab0" target="_top" xlink:title="getAccuracy palauttaa equipmentin ampumisnopeuden. ">
<polygon fill="white" stroke="black" points="147,-196.5 147,-226.5 290,-226.5 290,-196.5 147,-196.5"/>
<text text-anchor="start" x="155" y="-214.5" font-family="Helvetica,sans-Serif" font-size="10.00">Interface::EquipmentInterface</text>
<text text-anchor="middle" x="218.5" y="-203.5" font-family="Helvetica,sans-Serif" font-size="10.00">::getAccuracy</text>
</a>
</g>
</g>
<!-- Node15&#45;&gt;Node16 -->
<g id="edge1" class="edge"><title>Node15&#45;&gt;Node16</title>
<path fill="none" stroke="midnightblue" d="M71.5775,-128.743C88.589,-145.204 117.721,-171.246 147,-187.5 150.089,-189.215 153.322,-190.837 156.633,-192.367"/>
<polygon fill="midnightblue" stroke="midnightblue" points="155.546,-195.709 166.116,-196.434 158.305,-189.276 155.546,-195.709"/>
</g>
<!-- Node17 -->
<g id="node3" class="node"><title>Node17</title>
<g id="a_node3"><a xlink:href="class_interface_1_1_equipment_interface.html#afb616d9719d5934118696d81a84a21d5" target="_top" xlink:title="getDamage ">
<polygon fill="white" stroke="black" points="147,-147.5 147,-177.5 290,-177.5 290,-147.5 147,-147.5"/>
<text text-anchor="start" x="155" y="-165.5" font-family="Helvetica,sans-Serif" font-size="10.00">Interface::EquipmentInterface</text>
<text text-anchor="middle" x="218.5" y="-154.5" font-family="Helvetica,sans-Serif" font-size="10.00">::getDamage</text>
</a>
</g>
</g>
<!-- Node15&#45;&gt;Node17 -->
<g id="edge2" class="edge"><title>Node15&#45;&gt;Node17</title>
<path fill="none" stroke="midnightblue" d="M106.119,-128.601C122.57,-133.608 141.049,-139.232 158.157,-144.439"/>
<polygon fill="midnightblue" stroke="midnightblue" points="157.459,-147.885 168.045,-147.448 159.497,-141.188 157.459,-147.885"/>
</g>
<!-- Node18 -->
<g id="node4" class="node"><title>Node18</title>
<g id="a_node4"><a xlink:href="class_interface_1_1_equipment_interface.html#a5a33b76327b54afb1693a7130118d994" target="_top" xlink:title="getRange ">
<polygon fill="white" stroke="black" points="147,-98.5 147,-128.5 290,-128.5 290,-98.5 147,-98.5"/>
<text text-anchor="start" x="155" y="-116.5" font-family="Helvetica,sans-Serif" font-size="10.00">Interface::EquipmentInterface</text>
<text text-anchor="middle" x="218.5" y="-105.5" font-family="Helvetica,sans-Serif" font-size="10.00">::getRange</text>
</a>
</g>
</g>
<!-- Node15&#45;&gt;Node18 -->
<g id="edge3" class="edge"><title>Node15&#45;&gt;Node18</title>
<path fill="none" stroke="midnightblue" d="M111.007,-113.5C119.269,-113.5 127.94,-113.5 136.616,-113.5"/>
<polygon fill="midnightblue" stroke="midnightblue" points="136.781,-117 146.781,-113.5 136.781,-110 136.781,-117"/>
</g>
<!-- Node19 -->
<g id="node5" class="node"><title>Node19</title>
<g id="a_node5"><a xlink:href="class_interface_1_1_equipment_interface.html#a3291bb7c169624680e8148243da593b8" target="_top" xlink:title="getRate ">
<polygon fill="white" stroke="black" points="147,-49.5 147,-79.5 290,-79.5 290,-49.5 147,-49.5"/>
<text text-anchor="start" x="155" y="-67.5" font-family="Helvetica,sans-Serif" font-size="10.00">Interface::EquipmentInterface</text>
<text text-anchor="middle" x="218.5" y="-56.5" font-family="Helvetica,sans-Serif" font-size="10.00">::getRate</text>
</a>
</g>
</g>
<!-- Node15&#45;&gt;Node19 -->
<g id="edge4" class="edge"><title>Node15&#45;&gt;Node19</title>
<path fill="none" stroke="midnightblue" d="M106.119,-98.3986C122.57,-93.3917 141.049,-87.7676 158.157,-82.561"/>
<polygon fill="midnightblue" stroke="midnightblue" points="159.497,-85.8116 168.045,-79.5516 157.459,-79.1149 159.497,-85.8116"/>
</g>
<!-- Node20 -->
<g id="node6" class="node"><title>Node20</title>
<g id="a_node6"><a xlink:href="class_model_1_1_cyber_teekkari.html#a92758b882cb853cc3d12d72570658db7" target="_top" xlink:title="getWeapon palauttaa viitteen Actorin aseeseen, slotissa 1 tai 2. ">
<polygon fill="white" stroke="black" points="163,-0.5 163,-30.5 274,-30.5 274,-0.5 163,-0.5"/>
<text text-anchor="start" x="171" y="-18.5" font-family="Helvetica,sans-Serif" font-size="10.00">Model::CyberTeekkari</text>
<text text-anchor="middle" x="218.5" y="-7.5" font-family="Helvetica,sans-Serif" font-size="10.00">::getWeapon</text>
</a>
</g>
</g>
<!-- Node15&#45;&gt;Node20 -->
<g id="edge5" class="edge"><title>Node15&#45;&gt;Node20</title>
<path fill="none" stroke="midnightblue" d="M71.9677,-98.2516C89.0897,-82.0704 118.104,-56.6547 147,-40.5 150.698,-38.4325 154.599,-36.486 158.59,-34.6631"/>
<polygon fill="midnightblue" stroke="midnightblue" points="160.195,-37.7835 168.015,-30.6356 157.444,-31.3466 160.195,-37.7835"/>
</g>
</g>
</svg>
