<?xml version="1.0" encoding="UTF-8" standalone="no"?>
<!DOCTYPE svg PUBLIC "-//W3C//DTD SVG 1.1//EN"
 "http://www.w3.org/Graphics/SVG/1.1/DTD/svg11.dtd">
<!-- Generated by graphviz version 2.38.0 (20140413.2041)
 -->
<!-- Title: Model::Player::getWeapon Pages: 1 -->
<svg width="319pt" height="66pt"
 viewBox="0.00 0.00 319.00 66.00" xmlns="http://www.w3.org/2000/svg" xmlns:xlink="http://www.w3.org/1999/xlink">
<g id="graph0" class="graph" transform="scale(1 1) rotate(0) translate(4 62)">
<title>Model::Player::getWeapon</title>
<polygon fill="white" stroke="none" points="-4,4 -4,-62 315,-62 315,4 -4,4"/>
<!-- Node31 -->
<g id="node1" class="node"><title>Node31</title>
<polygon fill="#bfbfbf" stroke="black" points="0,-19.5 0,-38.5 132,-38.5 132,-19.5 0,-19.5"/>
<text text-anchor="middle" x="66" y="-26.5" font-family="Helvetica,sans-Serif" font-size="10.00">Model::Player::getWeapon</text>
</g>
<!-- Node32 -->
<g id="node2" class="node"><title>Node32</title>
<g id="a_node2"><a xlink:href="class_model_1_1_player.html#ad20e376ed4e84d858c79239f8cc4dfcb" target="_top" xlink:title="getStat palauttaa arvon halutusta aseen statista ja mukana on myos parannuksien vaikutus. ">
<polygon fill="white" stroke="black" points="182.5,-38.5 182.5,-57.5 296.5,-57.5 296.5,-38.5 182.5,-38.5"/>
<text text-anchor="middle" x="239.5" y="-45.5" font-family="Helvetica,sans-Serif" font-size="10.00">Model::Player::getStat</text>
</a>
</g>
</g>
<!-- Node31&#45;&gt;Node32 -->
<g id="edge1" class="edge"><title>Node31&#45;&gt;Node32</title>
<path fill="none" stroke="midnightblue" d="M142.473,-37.3614C155.857,-38.8443 169.581,-40.3646 182.313,-41.7752"/>
<polygon fill="midnightblue" stroke="midnightblue" points="142.651,-33.8598 132.326,-36.2373 141.88,-40.8172 142.651,-33.8598"/>
</g>
<!-- Node33 -->
<g id="node3" class="node"><title>Node33</title>
<g id="a_node3"><a xlink:href="class_model_1_1_model.html#aad175b8da07e96f096661ed7419d4890" target="_top" xlink:title="sellEquipment myy tavaran joko pelaajalta tai cyberteekkarilta. Vain aseet kelpaavat myytäväksi...">
<polygon fill="white" stroke="black" points="168,-0.5 168,-19.5 311,-19.5 311,-0.5 168,-0.5"/>
<text text-anchor="middle" x="239.5" y="-7.5" font-family="Helvetica,sans-Serif" font-size="10.00">Model::Model::sellEquipment</text>
</a>
</g>
</g>
<!-- Node31&#45;&gt;Node33 -->
<g id="edge2" class="edge"><title>Node31&#45;&gt;Node33</title>
<path fill="none" stroke="midnightblue" d="M142.534,-20.6318C150.976,-19.6966 159.551,-18.7465 167.927,-17.8185"/>
<polygon fill="midnightblue" stroke="midnightblue" points="141.88,-17.1828 132.326,-21.7627 142.651,-24.1402 141.88,-17.1828"/>
</g>
</g>
</svg>
