<?xml version="1.0" encoding="UTF-8" standalone="no"?>
<!DOCTYPE svg PUBLIC "-//W3C//DTD SVG 1.1//EN"
 "http://www.w3.org/Graphics/SVG/1.1/DTD/svg11.dtd">
<!-- Generated by graphviz version 2.38.0 (20140413.2041)
 -->
<!-- Title: Model::PlayerParty::reloadWeapon Pages: 1 -->
<svg width="285pt" height="78pt"
 viewBox="0.00 0.00 285.00 77.50" xmlns="http://www.w3.org/2000/svg" xmlns:xlink="http://www.w3.org/1999/xlink">
<g id="graph0" class="graph" transform="scale(1 1) rotate(0) translate(4 73.5)">
<title>Model::PlayerParty::reloadWeapon</title>
<polygon fill="white" stroke="none" points="-4,4 -4,-73.5 281,-73.5 281,4 -4,4"/>
<!-- Node52 -->
<g id="node1" class="node"><title>Node52</title>
<polygon fill="#bfbfbf" stroke="black" points="0,-17 0,-47 100,-47 100,-17 0,-17"/>
<text text-anchor="start" x="8" y="-35" font-family="Helvetica,sans-Serif" font-size="10.00">Model::PlayerParty</text>
<text text-anchor="middle" x="50" y="-24" font-family="Helvetica,sans-Serif" font-size="10.00">::reloadWeapon</text>
</g>
<!-- Node53 -->
<g id="node2" class="node"><title>Node53</title>
<g id="a_node2"><a xlink:href="class_model_1_1_player_party.html#ab33abac5217cb3fa2bda54d9f307d220" target="_top" xlink:title="Model::PlayerParty\l::getActor">
<polygon fill="white" stroke="black" points="156.5,-39 156.5,-69 256.5,-69 256.5,-39 156.5,-39"/>
<text text-anchor="start" x="164.5" y="-57" font-family="Helvetica,sans-Serif" font-size="10.00">Model::PlayerParty</text>
<text text-anchor="middle" x="206.5" y="-46" font-family="Helvetica,sans-Serif" font-size="10.00">::getActor</text>
</a>
</g>
</g>
<!-- Node52&#45;&gt;Node53 -->
<g id="edge1" class="edge"><title>Node52&#45;&gt;Node53</title>
<path fill="none" stroke="midnightblue" d="M100.31,-39.0214C114.875,-41.0955 130.973,-43.3877 146.104,-45.5423"/>
<polygon fill="midnightblue" stroke="midnightblue" points="146,-49.0628 156.394,-47.0075 146.987,-42.1327 146,-49.0628"/>
</g>
<!-- Node54 -->
<g id="node3" class="node"><title>Node54</title>
<g id="a_node3"><a xlink:href="class_model_1_1_player.html#ae8fcb8a8968fcfaeb7691c5af5a6b198" target="_top" xlink:title="Model::Player::reduceMoney">
<polygon fill="white" stroke="black" points="136,-0.5 136,-19.5 277,-19.5 277,-0.5 136,-0.5"/>
<text text-anchor="middle" x="206.5" y="-7.5" font-family="Helvetica,sans-Serif" font-size="10.00">Model::Player::reduceMoney</text>
</a>
</g>
</g>
<!-- Node52&#45;&gt;Node54 -->
<g id="edge2" class="edge"><title>Node52&#45;&gt;Node54</title>
<path fill="none" stroke="midnightblue" d="M100.31,-24.9786C109.355,-23.6906 118.99,-22.3185 128.618,-20.9476"/>
<polygon fill="midnightblue" stroke="midnightblue" points="129.217,-24.3977 138.624,-19.5228 128.23,-17.4676 129.217,-24.3977"/>
</g>
</g>
</svg>
