<?xml version="1.0" encoding="UTF-8" standalone="no"?>
<!DOCTYPE svg PUBLIC "-//W3C//DTD SVG 1.1//EN"
 "http://www.w3.org/Graphics/SVG/1.1/DTD/svg11.dtd">
<!-- Generated by graphviz version 2.38.0 (20140413.2041)
 -->
<!-- Title: View::ActionSceneBigExplosion::nextFrame Pages: 1 -->
<svg width="356pt" height="39pt"
 viewBox="0.00 0.00 356.00 39.00" xmlns="http://www.w3.org/2000/svg" xmlns:xlink="http://www.w3.org/1999/xlink">
<g id="graph0" class="graph" transform="scale(1 1) rotate(0) translate(4 35)">
<title>View::ActionSceneBigExplosion::nextFrame</title>
<polygon fill="white" stroke="none" points="-4,4 -4,-35 352,-35 352,4 -4,4"/>
<!-- Node6 -->
<g id="node1" class="node"><title>Node6</title>
<polygon fill="#bfbfbf" stroke="black" points="0,-0.5 0,-30.5 156,-30.5 156,-0.5 0,-0.5"/>
<text text-anchor="start" x="8" y="-18.5" font-family="Helvetica,sans-Serif" font-size="10.00">View::ActionSceneBigExplosion</text>
<text text-anchor="middle" x="78" y="-7.5" font-family="Helvetica,sans-Serif" font-size="10.00">::nextFrame</text>
</g>
<!-- Node7 -->
<g id="node2" class="node"><title>Node7</title>
<g id="a_node2"><a xlink:href="class_view_1_1_action_scene_big_explosion.html#a424c12bded069e49271eac4e333e2cb5" target="_top" xlink:title="View::ActionSceneBigExplosion\l::ActionSceneBigExplosion">
<polygon fill="white" stroke="black" points="192,-0.5 192,-30.5 348,-30.5 348,-0.5 192,-0.5"/>
<text text-anchor="start" x="200" y="-18.5" font-family="Helvetica,sans-Serif" font-size="10.00">View::ActionSceneBigExplosion</text>
<text text-anchor="middle" x="270" y="-7.5" font-family="Helvetica,sans-Serif" font-size="10.00">::ActionSceneBigExplosion</text>
</a>
</g>
</g>
<!-- Node6&#45;&gt;Node7 -->
<g id="edge1" class="edge"><title>Node6&#45;&gt;Node7</title>
<path fill="none" stroke="midnightblue" d="M166.062,-15.5C174.677,-15.5 183.38,-15.5 191.884,-15.5"/>
<polygon fill="midnightblue" stroke="midnightblue" points="166.006,-12.0001 156.006,-15.5 166.006,-19.0001 166.006,-12.0001"/>
</g>
</g>
</svg>
