<?xml version="1.0" encoding="UTF-8" standalone="no"?>
<!DOCTYPE svg PUBLIC "-//W3C//DTD SVG 1.1//EN"
 "http://www.w3.org/Graphics/SVG/1.1/DTD/svg11.dtd">
<!-- Generated by graphviz version 2.38.0 (20140413.2041)
 -->
<!-- Title: View::View::createCityScape Pages: 1 -->
<svg width="488pt" height="39pt"
 viewBox="0.00 0.00 488.00 39.00" xmlns="http://www.w3.org/2000/svg" xmlns:xlink="http://www.w3.org/1999/xlink">
<g id="graph0" class="graph" transform="scale(1 1) rotate(0) translate(4 35)">
<title>View::View::createCityScape</title>
<polygon fill="white" stroke="none" points="-4,4 -4,-35 484,-35 484,4 -4,4"/>
<!-- Node24 -->
<g id="node1" class="node"><title>Node24</title>
<polygon fill="#bfbfbf" stroke="black" points="0,-6 0,-25 143,-25 143,-6 0,-6"/>
<text text-anchor="middle" x="71.5" y="-13" font-family="Helvetica,sans-Serif" font-size="10.00">View::View::createCityScape</text>
</g>
<!-- Node25 -->
<g id="node2" class="node"><title>Node25</title>
<g id="a_node2"><a xlink:href="class_view_1_1_city_scape.html#a772bde88091fbaaf7aaaa3e93f2cce98" target="_top" xlink:title="View::CityScape::initCity\lScape">
<polygon fill="white" stroke="black" points="179,-0.5 179,-30.5 304,-30.5 304,-0.5 179,-0.5"/>
<text text-anchor="start" x="187" y="-18.5" font-family="Helvetica,sans-Serif" font-size="10.00">View::CityScape::initCity</text>
<text text-anchor="middle" x="241.5" y="-7.5" font-family="Helvetica,sans-Serif" font-size="10.00">Scape</text>
</a>
</g>
</g>
<!-- Node24&#45;&gt;Node25 -->
<g id="edge1" class="edge"><title>Node24&#45;&gt;Node25</title>
<path fill="none" stroke="midnightblue" d="M143.26,-15.5C151.676,-15.5 160.273,-15.5 168.703,-15.5"/>
<polygon fill="midnightblue" stroke="midnightblue" points="168.878,-19.0001 178.878,-15.5 168.878,-12.0001 168.878,-19.0001"/>
</g>
<!-- Node26 -->
<g id="node3" class="node"><title>Node26</title>
<g id="a_node3"><a xlink:href="class_view_1_1_city_scape.html#a441a467cd67c17f6761f4cc4b24b7480" target="_top" xlink:title="View::CityScape::resizeMap">
<polygon fill="white" stroke="black" points="340,-6 340,-25 480,-25 480,-6 340,-6"/>
<text text-anchor="middle" x="410" y="-13" font-family="Helvetica,sans-Serif" font-size="10.00">View::CityScape::resizeMap</text>
</a>
</g>
</g>
<!-- Node25&#45;&gt;Node26 -->
<g id="edge2" class="edge"><title>Node25&#45;&gt;Node26</title>
<path fill="none" stroke="midnightblue" d="M304.025,-15.5C312.415,-15.5 321.121,-15.5 329.768,-15.5"/>
<polygon fill="midnightblue" stroke="midnightblue" points="329.871,-19.0001 339.871,-15.5 329.871,-12.0001 329.871,-19.0001"/>
</g>
</g>
</svg>
