<?xml version="1.0" encoding="UTF-8" standalone="no"?>
<!DOCTYPE svg PUBLIC "-//W3C//DTD SVG 1.1//EN"
 "http://www.w3.org/Graphics/SVG/1.1/DTD/svg11.dtd">
<!-- Generated by graphviz version 2.38.0 (20140413.2041)
 -->
<!-- Title: View::ActionScene::updateEnemyLineOfSight Pages: 1 -->
<!--zoomable 284 -->
<svg id="main" version="1.1" xmlns="http://www.w3.org/2000/svg" xmlns:xlink="http://www.w3.org/1999/xlink" xml:space="preserve" onload="init(evt)">
<style type="text/css"><![CDATA[
.edge:hover path { stroke: red; }
.edge:hover polygon { stroke: red; fill: red; }
]]></style>
<script type="text/javascript"><![CDATA[
var edges = document.getElementsByTagName('g');
if (edges && edges.length) {
  for (var i=0;i<edges.length;i++) {
    if (edges[i].id.substr(0,4)=='edge') {
      edges[i].setAttribute('class','edge');
    }
  }
}
]]></script>
        <defs>
                <circle id="rim" cx="0" cy="0" r="7"/>
                <circle id="rim2" cx="0" cy="0" r="3.5"/>
                <g id="zoomPlus">
                        <use xlink:href="#rim" fill="#404040">
                                <set attributeName="fill" to="#808080" begin="zoomplus.mouseover" end="zoomplus.mouseout"/>
                        </use>
                        <path d="M-4,0h8M0,-4v8" fill="none" stroke="white" stroke-width="1.5" pointer-events="none"/>
                </g>
                <g id="zoomMin">
                        <use xlink:href="#rim" fill="#404040">
                                <set attributeName="fill" to="#808080" begin="zoomminus.mouseover" end="zoomminus.mouseout"/>
                        </use>
                        <path d="M-4,0h8" fill="none" stroke="white" stroke-width="1.5" pointer-events="none"/>
                </g>
                <g id="dirArrow">
                        <path fill="none" stroke="white" stroke-width="1.5" d="M0,-3.0v7 M-2.5,-0.5L0,-3.0L2.5,-0.5"/>
                </g>
               <g id="resetDef">
                       <use xlink:href="#rim2" fill="#404040">
                               <set attributeName="fill" to="#808080" begin="reset.mouseover" end="reset.mouseout"/>
                       </use>
               </g>
        </defs>

<script type="text/javascript">
var viewWidth = 600;
var viewHeight = 284;
var sectionId = 'dynsection-49';
</script>
<script xlink:href="svgpan.js"/>
<svg id="graph" class="graph">
<g id="viewport">
<title>View::ActionScene::updateEnemyLineOfSight</title>
<polygon fill="white" stroke="none" points="-4,4 -4,-280 596,-280 596,4 -4,4"/>
<!-- Node236 -->
<g id="node1" class="node"><title>Node236</title>
<polygon fill="#bfbfbf" stroke="black" points="0,-122.5 0,-152.5 127,-152.5 127,-122.5 0,-122.5"/>
<text text-anchor="start" x="8" y="-140.5" font-family="Helvetica,sans-Serif" font-size="10.00">View::ActionScene::</text>
<text text-anchor="middle" x="63.5" y="-129.5" font-family="Helvetica,sans-Serif" font-size="10.00">updateEnemyLineOfSight</text>
</g>
<!-- Node237 -->
<g id="node2" class="node"><title>Node237</title>
<g id="a_node2"><a xlink:href="class_view_1_1_action_scene.html#a62ad930d90fc2b1bb64d0852d9073c9b" target="_top" xlink:title="View::ActionScene::\lcheckBlockedView">
<polygon fill="white" stroke="black" points="170,-245.5 170,-275.5 275,-275.5 275,-245.5 170,-245.5"/>
<text text-anchor="start" x="178" y="-263.5" font-family="Helvetica,sans-Serif" font-size="10.00">View::ActionScene::</text>
<text text-anchor="middle" x="222.5" y="-252.5" font-family="Helvetica,sans-Serif" font-size="10.00">checkBlockedView</text>
</a>
</g>
</g>
<!-- Node236&#45;&gt;Node237 -->
<g id="edge1" class="edge"><title>Node236&#45;&gt;Node237</title>
<path fill="none" stroke="midnightblue" d="M76.3638,-152.798C93.5064,-174.036 127.106,-212.539 163,-236.5 165.157,-237.94 167.414,-239.319 169.735,-240.635"/>
<polygon fill="midnightblue" stroke="midnightblue" points="168.432,-243.902 178.92,-245.401 171.656,-237.688 168.432,-243.902"/>
</g>
<!-- Node238 -->
<g id="node3" class="node"><title>Node238</title>
<g id="a_node3"><a xlink:href="class_view_1_1_action_scene_n_p_c.html#a9065e80ab1349445972a44657234a35f" target="_top" xlink:title="View::ActionSceneNPC\l::getId">
<polygon fill="white" stroke="black" points="163,-196.5 163,-226.5 282,-226.5 282,-196.5 163,-196.5"/>
<text text-anchor="start" x="171" y="-214.5" font-family="Helvetica,sans-Serif" font-size="10.00">View::ActionSceneNPC</text>
<text text-anchor="middle" x="222.5" y="-203.5" font-family="Helvetica,sans-Serif" font-size="10.00">::getId</text>
</a>
</g>
</g>
<!-- Node236&#45;&gt;Node238 -->
<g id="edge2" class="edge"><title>Node236&#45;&gt;Node238</title>
<path fill="none" stroke="midnightblue" d="M92.6538,-152.552C112.195,-162.811 138.939,-176.479 163,-187.5 166.602,-189.15 170.352,-190.812 174.135,-192.449"/>
<polygon fill="midnightblue" stroke="midnightblue" points="172.973,-195.758 183.546,-196.449 175.712,-189.316 172.973,-195.758"/>
</g>
<!-- Node239 -->
<g id="node4" class="node"><title>Node239</title>
<g id="a_node4"><a xlink:href="class_view_1_1_action_scene_n_p_c.html#ad5b240c242c1f22de0b4c141c8a613ed" target="_top" xlink:title="View::ActionSceneNPC\l::getTarget">
<polygon fill="white" stroke="black" points="163,-147.5 163,-177.5 282,-177.5 282,-147.5 163,-147.5"/>
<text text-anchor="start" x="171" y="-165.5" font-family="Helvetica,sans-Serif" font-size="10.00">View::ActionSceneNPC</text>
<text text-anchor="middle" x="222.5" y="-154.5" font-family="Helvetica,sans-Serif" font-size="10.00">::getTarget</text>
</a>
</g>
</g>
<!-- Node236&#45;&gt;Node239 -->
<g id="edge3" class="edge"><title>Node236&#45;&gt;Node239</title>
<path fill="none" stroke="midnightblue" d="M127.002,-147.452C135.483,-148.803 144.225,-150.195 152.808,-151.562"/>
<polygon fill="midnightblue" stroke="midnightblue" points="152.36,-155.034 162.786,-153.151 153.461,-148.122 152.36,-155.034"/>
</g>
<!-- Node240 -->
<g id="node5" class="node"><title>Node240</title>
<g id="a_node5"><a xlink:href="class_view_1_1_action_scene_n_p_c.html#a5d04b31e451848aec804ce99864800ca" target="_top" xlink:title="View::ActionSceneNPC\l::isDead">
<polygon fill="white" stroke="black" points="163,-98.5 163,-128.5 282,-128.5 282,-98.5 163,-98.5"/>
<text text-anchor="start" x="171" y="-116.5" font-family="Helvetica,sans-Serif" font-size="10.00">View::ActionSceneNPC</text>
<text text-anchor="middle" x="222.5" y="-105.5" font-family="Helvetica,sans-Serif" font-size="10.00">::isDead</text>
</a>
</g>
</g>
<!-- Node236&#45;&gt;Node240 -->
<g id="edge4" class="edge"><title>Node236&#45;&gt;Node240</title>
<path fill="none" stroke="midnightblue" d="M127.002,-127.946C135.483,-126.649 144.225,-125.313 152.808,-124.001"/>
<polygon fill="midnightblue" stroke="midnightblue" points="153.43,-127.446 162.786,-122.475 152.372,-120.527 153.43,-127.446"/>
</g>
<!-- Node241 -->
<g id="node6" class="node"><title>Node241</title>
<g id="a_node6"><a xlink:href="class_view_1_1_action_scene_n_p_c.html#a63c01e4d67db25532448053814a4a917" target="_top" xlink:title="View::ActionSceneNPC\l::setAIMode">
<polygon fill="white" stroke="black" points="163,-49.5 163,-79.5 282,-79.5 282,-49.5 163,-49.5"/>
<text text-anchor="start" x="171" y="-67.5" font-family="Helvetica,sans-Serif" font-size="10.00">View::ActionSceneNPC</text>
<text text-anchor="middle" x="222.5" y="-56.5" font-family="Helvetica,sans-Serif" font-size="10.00">::setAIMode</text>
</a>
</g>
</g>
<!-- Node236&#45;&gt;Node241 -->
<g id="edge5" class="edge"><title>Node236&#45;&gt;Node241</title>
<path fill="none" stroke="midnightblue" d="M94.4931,-122.405C113.914,-112.75 139.815,-100.095 163,-89.5 167.294,-87.5375 171.786,-85.5332 176.289,-83.556"/>
<polygon fill="midnightblue" stroke="midnightblue" points="177.713,-86.7534 185.489,-79.5572 174.922,-80.3337 177.713,-86.7534"/>
</g>
<!-- Node244 -->
<g id="node9" class="node"><title>Node244</title>
<g id="a_node9"><a xlink:href="class_view_1_1_action_scene_n_p_c.html#ab362917c5b032ed8ec63a503a2b84e6e" target="_top" xlink:title="View::ActionSceneNPC\l::setTarget">
<polygon fill="white" stroke="black" points="163,-0.5 163,-30.5 282,-30.5 282,-0.5 163,-0.5"/>
<text text-anchor="start" x="171" y="-18.5" font-family="Helvetica,sans-Serif" font-size="10.00">View::ActionSceneNPC</text>
<text text-anchor="middle" x="222.5" y="-7.5" font-family="Helvetica,sans-Serif" font-size="10.00">::setTarget</text>
</a>
</g>
</g>
<!-- Node236&#45;&gt;Node244 -->
<g id="edge8" class="edge"><title>Node236&#45;&gt;Node244</title>
<path fill="none" stroke="midnightblue" d="M76.7719,-122.249C94.1381,-101.475 127.72,-64.1628 163,-40.5 165.752,-38.6544 168.662,-36.898 171.656,-35.2352"/>
<polygon fill="midnightblue" stroke="midnightblue" points="173.516,-38.2145 180.813,-30.5325 170.318,-31.9877 173.516,-38.2145"/>
</g>
<!-- Node242 -->
<g id="node7" class="node"><title>Node242</title>
<g id="a_node7"><a xlink:href="class_view_1_1_action_scene_n_p_c.html#a32b28c35cccc25fa39d60462235776f3" target="_top" xlink:title="View::ActionSceneNPC\l::setRunSpeed">
<polygon fill="white" stroke="black" points="318,-49.5 318,-79.5 437,-79.5 437,-49.5 318,-49.5"/>
<text text-anchor="start" x="326" y="-67.5" font-family="Helvetica,sans-Serif" font-size="10.00">View::ActionSceneNPC</text>
<text text-anchor="middle" x="377.5" y="-56.5" font-family="Helvetica,sans-Serif" font-size="10.00">::setRunSpeed</text>
</a>
</g>
</g>
<!-- Node241&#45;&gt;Node242 -->
<g id="edge6" class="edge"><title>Node241&#45;&gt;Node242</title>
<path fill="none" stroke="midnightblue" d="M282.216,-64.5C290.544,-64.5 299.169,-64.5 307.667,-64.5"/>
<polygon fill="midnightblue" stroke="midnightblue" points="307.941,-68.0001 317.941,-64.5 307.941,-61.0001 307.941,-68.0001"/>
</g>
<!-- Node243 -->
<g id="node8" class="node"><title>Node243</title>
<g id="a_node8"><a xlink:href="class_view_1_1_action_scene_feet.html#a160793a00dcf4b16bcda158571f56773" target="_top" xlink:title="View::ActionSceneFeet\l::setRunning">
<polygon fill="white" stroke="black" points="473,-49.5 473,-79.5 592,-79.5 592,-49.5 473,-49.5"/>
<text text-anchor="start" x="481" y="-67.5" font-family="Helvetica,sans-Serif" font-size="10.00">View::ActionSceneFeet</text>
<text text-anchor="middle" x="532.5" y="-56.5" font-family="Helvetica,sans-Serif" font-size="10.00">::setRunning</text>
</a>
</g>
</g>
<!-- Node242&#45;&gt;Node243 -->
<g id="edge7" class="edge"><title>Node242&#45;&gt;Node243</title>
<path fill="none" stroke="midnightblue" d="M437.216,-64.5C445.544,-64.5 454.169,-64.5 462.667,-64.5"/>
<polygon fill="midnightblue" stroke="midnightblue" points="462.941,-68.0001 472.941,-64.5 462.941,-61.0001 462.941,-68.0001"/>
</g>
</g>
</svg>
        <g id="navigator" transform="translate(0 0)" fill="#404254">
                <rect fill="#f2f5e9" fill-opacity="0.5" stroke="#606060" stroke-width=".5" x="0" y="0" width="60" height="60"/>
                <use id="zoomplus" xlink:href="#zoomPlus" x="17" y="9" onmousedown="handleZoom(evt,'in')"/>
                <use id="zoomminus" xlink:href="#zoomMin" x="42" y="9" onmousedown="handleZoom(evt,'out')"/>
                <use id="reset" xlink:href="#resetDef" x="30" y="36" onmousedown="handleReset()"/>
                <g id="arrowUp" xlink:href="#dirArrow" transform="translate(30 24)" onmousedown="handlePan(0,-1)">
                  <use xlink:href="#rim" fill="#404040">
                        <set attributeName="fill" to="#808080" begin="arrowUp.mouseover" end="arrowUp.mouseout"/>
                  </use>
                  <path fill="none" stroke="white" stroke-width="1.5" d="M0,-3.0v7 M-2.5,-0.5L0,-3.0L2.5,-0.5"/>
                </g>
                <g id="arrowRight" xlink:href="#dirArrow" transform="rotate(90) translate(36 -43)" onmousedown="handlePan(1,0)">
                  <use xlink:href="#rim" fill="#404040">
                        <set attributeName="fill" to="#808080" begin="arrowRight.mouseover" end="arrowRight.mouseout"/>
                  </use>
                  <path fill="none" stroke="white" stroke-width="1.5" d="M0,-3.0v7 M-2.5,-0.5L0,-3.0L2.5,-0.5"/>
                </g>
                <g id="arrowDown" xlink:href="#dirArrow" transform="rotate(180) translate(-30 -48)" onmousedown="handlePan(0,1)">
                  <use xlink:href="#rim" fill="#404040">
                        <set attributeName="fill" to="#808080" begin="arrowDown.mouseover" end="arrowDown.mouseout"/>
                  </use>
                  <path fill="none" stroke="white" stroke-width="1.5" d="M0,-3.0v7 M-2.5,-0.5L0,-3.0L2.5,-0.5"/>
                </g>
                <g id="arrowLeft" xlink:href="#dirArrow" transform="rotate(270) translate(-36 17)" onmousedown="handlePan(-1,0)">
                  <use xlink:href="#rim" fill="#404040">
                        <set attributeName="fill" to="#808080" begin="arrowLeft.mouseover" end="arrowLeft.mouseout"/>
                  </use>
                  <path fill="none" stroke="white" stroke-width="1.5" d="M0,-3.0v7 M-2.5,-0.5L0,-3.0L2.5,-0.5"/>
                </g>
        </g>
        <svg viewBox="0 0 15 15" width="100%" height="30px" preserveAspectRatio="xMaxYMin meet">
         <g id="arrow_out" transform="scale(0.3 0.3)">
          <a xlink:href="class_view_1_1_action_scene_a8ecad0a68a274799549da0adce49ea09_cgraph_org.svg" target="_base">
           <rect id="button" ry="5" rx="5" y="6" x="6" height="38" width="38"
                fill="#f2f5e9" fill-opacity="0.5" stroke="#606060" stroke-width="1.0"/>
           <path id="arrow"
             d="M 11.500037,31.436501 C 11.940474,20.09759 22.043105,11.32322 32.158766,21.979434 L 37.068811,17.246167 C 37.068811,17.246167 37.088388,32 37.088388,32 L 22.160133,31.978069 C 22.160133,31.978069 26.997745,27.140456 26.997745,27.140456 C 18.528582,18.264221 13.291696,25.230495 11.500037,31.436501 z"
             style="fill:#404040;"/>
          </a>
         </g>
        </svg>
</svg>
