<?xml version="1.0" encoding="UTF-8" standalone="no"?>
<!DOCTYPE svg PUBLIC "-//W3C//DTD SVG 1.1//EN"
 "http://www.w3.org/Graphics/SVG/1.1/DTD/svg11.dtd">
<!-- Generated by graphviz version 2.38.0 (20140413.2041)
 -->
<!-- Title: View::ActionSceneEnemyProjectile Pages: 1 -->
<svg width="598pt" height="226pt"
 viewBox="0.00 0.00 598.00 226.00" xmlns="http://www.w3.org/2000/svg" xmlns:xlink="http://www.w3.org/1999/xlink">
<g id="graph0" class="graph" transform="scale(1 1) rotate(0) translate(4 222)">
<title>View::ActionSceneEnemyProjectile</title>
<polygon fill="white" stroke="none" points="-4,4 -4,-222 594,-222 594,4 -4,4"/>
<!-- Node3 -->
<g id="node1" class="node"><title>Node3</title>
<polygon fill="#bfbfbf" stroke="black" points="179.5,-0.5 179.5,-101.5 349.5,-101.5 349.5,-0.5 179.5,-0.5"/>
<text text-anchor="middle" x="264.5" y="-89.5" font-family="Helvetica,sans-Serif" font-size="10.00">View::ActionSceneEnemyProjectile</text>
<polyline fill="none" stroke="black" points="179.5,-82.5 349.5,-82.5 "/>
<text text-anchor="middle" x="264.5" y="-70.5" font-family="Helvetica,sans-Serif" font-size="10.00"> </text>
<polyline fill="none" stroke="black" points="179.5,-63.5 349.5,-63.5 "/>
<text text-anchor="start" x="187.5" y="-51.5" font-family="Helvetica,sans-Serif" font-size="10.00">+ ActionSceneEnemyProjectile()</text>
<text text-anchor="start" x="187.5" y="-40.5" font-family="Helvetica,sans-Serif" font-size="10.00">+ ~ActionSceneEnemyProjectile()</text>
<text text-anchor="start" x="187.5" y="-29.5" font-family="Helvetica,sans-Serif" font-size="10.00">+ setPosition()</text>
<text text-anchor="start" x="187.5" y="-18.5" font-family="Helvetica,sans-Serif" font-size="10.00">+ nextFrame()</text>
<text text-anchor="start" x="187.5" y="-7.5" font-family="Helvetica,sans-Serif" font-size="10.00">+ move()</text>
</g>
<!-- Node4 -->
<g id="node2" class="node"><title>Node4</title>
<g id="a_node2"><a xlink:href="class_q_object.html" target="_top" xlink:title="{QObject\n||}">
<polygon fill="white" stroke="black" points="0,-160.5 0,-217.5 53,-217.5 53,-160.5 0,-160.5"/>
<text text-anchor="middle" x="26.5" y="-205.5" font-family="Helvetica,sans-Serif" font-size="10.00">QObject</text>
<polyline fill="none" stroke="black" points="0,-198.5 53,-198.5 "/>
<text text-anchor="middle" x="26.5" y="-186.5" font-family="Helvetica,sans-Serif" font-size="10.00"> </text>
<polyline fill="none" stroke="black" points="0,-179.5 53,-179.5 "/>
<text text-anchor="middle" x="26.5" y="-167.5" font-family="Helvetica,sans-Serif" font-size="10.00"> </text>
</a>
</g>
</g>
<!-- Node4&#45;&gt;Node3 -->
<g id="edge1" class="edge"><title>Node4&#45;&gt;Node3</title>
<path fill="none" stroke="midnightblue" d="M61.2439,-160.169C61.3293,-160.112 61.4147,-160.056 61.5,-160 98.6871,-135.538 141.99,-111.897 179.027,-93.0027"/>
<polygon fill="none" stroke="midnightblue" points="59.4291,-157.166 53.2588,-165.779 63.4533,-162.894 59.4291,-157.166"/>
</g>
<!-- Node5 -->
<g id="node3" class="node"><title>Node5</title>
<g id="a_node3"><a xlink:href="class_q_graphics_pixmap_item.html" target="_top" xlink:title="{QGraphicsPixmapItem\n||}">
<polygon fill="white" stroke="black" points="71,-160.5 71,-217.5 186,-217.5 186,-160.5 71,-160.5"/>
<text text-anchor="middle" x="128.5" y="-205.5" font-family="Helvetica,sans-Serif" font-size="10.00">QGraphicsPixmapItem</text>
<polyline fill="none" stroke="black" points="71,-198.5 186,-198.5 "/>
<text text-anchor="middle" x="128.5" y="-186.5" font-family="Helvetica,sans-Serif" font-size="10.00"> </text>
<polyline fill="none" stroke="black" points="71,-179.5 186,-179.5 "/>
<text text-anchor="middle" x="128.5" y="-167.5" font-family="Helvetica,sans-Serif" font-size="10.00"> </text>
</a>
</g>
</g>
<!-- Node5&#45;&gt;Node3 -->
<g id="edge2" class="edge"><title>Node5&#45;&gt;Node3</title>
<path fill="none" stroke="midnightblue" d="M163.416,-153.084C179.022,-137.478 197.703,-118.797 214.736,-101.764"/>
<polygon fill="none" stroke="midnightblue" points="160.618,-150.932 156.022,-160.478 165.568,-155.882 160.618,-150.932"/>
</g>
<!-- Node6 -->
<g id="node4" class="node"><title>Node6</title>
<polygon fill="white" stroke="#bfbfbf" points="204,-160.5 204,-217.5 259,-217.5 259,-160.5 204,-160.5"/>
<text text-anchor="middle" x="231.5" y="-205.5" font-family="Helvetica,sans-Serif" font-size="10.00">QTimer *</text>
<polyline fill="none" stroke="#bfbfbf" points="204,-198.5 259,-198.5 "/>
<text text-anchor="middle" x="231.5" y="-186.5" font-family="Helvetica,sans-Serif" font-size="10.00"> </text>
<polyline fill="none" stroke="#bfbfbf" points="204,-179.5 259,-179.5 "/>
<text text-anchor="middle" x="231.5" y="-167.5" font-family="Helvetica,sans-Serif" font-size="10.00"> </text>
</g>
<!-- Node6&#45;&gt;Node3 -->
<g id="edge3" class="edge"><title>Node6&#45;&gt;Node3</title>
<path fill="none" stroke="#404040" d="M224.799,-160.495C222.831,-147.968 222.022,-133.055 225.5,-120 226.143,-117.586 226.895,-115.168 227.736,-112.759"/>
<polygon fill="none" stroke="#404040" points="227.748,-112.729 226.293,-105.666 232.254,-101.607 233.708,-108.669 227.748,-112.729"/>
<text text-anchor="middle" x="254.5" y="-128.5" font-family="Helvetica,sans-Serif" font-size="10.00"> &#45;moveTimer_</text>
</g>
<!-- Node7 -->
<g id="node5" class="node"><title>Node7</title>
<polygon fill="white" stroke="#bfbfbf" points="287,-160.5 287,-217.5 316,-217.5 316,-160.5 287,-160.5"/>
<text text-anchor="middle" x="301.5" y="-205.5" font-family="Helvetica,sans-Serif" font-size="10.00">int</text>
<polyline fill="none" stroke="#bfbfbf" points="287,-198.5 316,-198.5 "/>
<text text-anchor="middle" x="301.5" y="-186.5" font-family="Helvetica,sans-Serif" font-size="10.00"> </text>
<polyline fill="none" stroke="#bfbfbf" points="287,-179.5 316,-179.5 "/>
<text text-anchor="middle" x="301.5" y="-167.5" font-family="Helvetica,sans-Serif" font-size="10.00"> </text>
</g>
<!-- Node7&#45;&gt;Node3 -->
<g id="edge4" class="edge"><title>Node7&#45;&gt;Node3</title>
<path fill="none" stroke="#404040" d="M294.229,-160.186C290.985,-147.863 287.09,-133.198 283.5,-120 282.922,-117.875 282.331,-115.713 281.733,-113.53"/>
<polygon fill="none" stroke="#404040" points="281.673,-113.312 276.222,-108.59 278.483,-101.743 283.934,-106.464 281.673,-113.312"/>
<text text-anchor="middle" x="323" y="-134" font-family="Helvetica,sans-Serif" font-size="10.00"> &#45;range_</text>
<text text-anchor="middle" x="323" y="-123" font-family="Helvetica,sans-Serif" font-size="10.00">&#45;frameCounter_</text>
</g>
<!-- Node8 -->
<g id="node6" class="node"><title>Node8</title>
<polygon fill="white" stroke="#bfbfbf" points="334.5,-160.5 334.5,-217.5 464.5,-217.5 464.5,-160.5 334.5,-160.5"/>
<text text-anchor="middle" x="399.5" y="-205.5" font-family="Helvetica,sans-Serif" font-size="10.00">QList&lt; QGraphicsItem * &gt;</text>
<polyline fill="none" stroke="#bfbfbf" points="334.5,-198.5 464.5,-198.5 "/>
<text text-anchor="middle" x="399.5" y="-186.5" font-family="Helvetica,sans-Serif" font-size="10.00"> </text>
<polyline fill="none" stroke="#bfbfbf" points="334.5,-179.5 464.5,-179.5 "/>
<text text-anchor="middle" x="399.5" y="-167.5" font-family="Helvetica,sans-Serif" font-size="10.00"> </text>
</g>
<!-- Node8&#45;&gt;Node3 -->
<g id="edge5" class="edge"><title>Node8&#45;&gt;Node3</title>
<path fill="none" stroke="#404040" d="M387.135,-160.385C380.43,-147.261 371.3,-131.885 360.5,-120 357.345,-116.528 353.983,-113.132 350.478,-109.826"/>
<polygon fill="none" stroke="#404040" points="350.448,-109.799 343.309,-108.782 341.502,-101.801 348.641,-102.818 350.448,-109.799"/>
<text text-anchor="middle" x="400.5" y="-128.5" font-family="Helvetica,sans-Serif" font-size="10.00"> &#45;colliders_</text>
</g>
<!-- Node9 -->
<g id="node7" class="node"><title>Node9</title>
<polygon fill="white" stroke="#bfbfbf" points="483,-160.5 483,-217.5 590,-217.5 590,-160.5 483,-160.5"/>
<text text-anchor="middle" x="536.5" y="-205.5" font-family="Helvetica,sans-Serif" font-size="10.00">vector&lt; QPixmap * &gt;</text>
<polyline fill="none" stroke="#bfbfbf" points="483,-198.5 590,-198.5 "/>
<text text-anchor="middle" x="536.5" y="-186.5" font-family="Helvetica,sans-Serif" font-size="10.00"> </text>
<polyline fill="none" stroke="#bfbfbf" points="483,-179.5 590,-179.5 "/>
<text text-anchor="middle" x="536.5" y="-167.5" font-family="Helvetica,sans-Serif" font-size="10.00"> </text>
</g>
<!-- Node9&#45;&gt;Node3 -->
<g id="edge6" class="edge"><title>Node9&#45;&gt;Node3</title>
<path fill="none" stroke="#404040" d="M496.428,-160.498C476.481,-147.401 451.721,-132.015 428.5,-120 407.072,-108.913 383.415,-98.248 360.896,-88.7843"/>
<polygon fill="none" stroke="#404040" points="360.679,-88.6943 353.604,-90.0887 349.596,-84.0942 356.671,-82.6998 360.679,-88.6943"/>
<text text-anchor="middle" x="506" y="-128.5" font-family="Helvetica,sans-Serif" font-size="10.00"> &#45;lightningFrames_</text>
</g>
</g>
</svg>
