<?xml version="1.0" encoding="UTF-8" standalone="no"?>
<!DOCTYPE svg PUBLIC "-//W3C//DTD SVG 1.1//EN"
 "http://www.w3.org/Graphics/SVG/1.1/DTD/svg11.dtd">
<!-- Generated by graphviz version 2.38.0 (20140413.2041)
 -->
<!-- Title: Model::Player::buyUpgrade Pages: 1 -->
<svg width="318pt" height="78pt"
 viewBox="0.00 0.00 318.00 77.50" xmlns="http://www.w3.org/2000/svg" xmlns:xlink="http://www.w3.org/1999/xlink">
<g id="graph0" class="graph" transform="scale(1 1) rotate(0) translate(4 73.5)">
<title>Model::Player::buyUpgrade</title>
<polygon fill="white" stroke="none" points="-4,4 -4,-73.5 314,-73.5 314,4 -4,4"/>
<!-- Node6 -->
<g id="node1" class="node"><title>Node6</title>
<polygon fill="#bfbfbf" stroke="black" points="0,-28 0,-47 134,-47 134,-28 0,-28"/>
<text text-anchor="middle" x="67" y="-35" font-family="Helvetica,sans-Serif" font-size="10.00">Model::Player::buyUpgrade</text>
</g>
<!-- Node7 -->
<g id="node2" class="node"><title>Node7</title>
<g id="a_node2"><a xlink:href="class_model_1_1_equipment.html#a8be8a33c92616dddefffa429c812e5a6" target="_top" xlink:title="getName palauttaa kyseisen tavaran nimen. ">
<polygon fill="white" stroke="black" points="170,-50 170,-69 310,-69 310,-50 170,-50"/>
<text text-anchor="middle" x="240" y="-57" font-family="Helvetica,sans-Serif" font-size="10.00">Model::Equipment::getName</text>
</a>
</g>
</g>
<!-- Node6&#45;&gt;Node7 -->
<g id="edge1" class="edge"><title>Node6&#45;&gt;Node7</title>
<path fill="none" stroke="midnightblue" d="M134.113,-46.0058C142.557,-47.0921 151.267,-48.2127 159.89,-49.3221"/>
<polygon fill="midnightblue" stroke="midnightblue" points="159.586,-52.8118 169.951,-50.6165 160.48,-45.869 159.586,-52.8118"/>
</g>
<!-- Node8 -->
<g id="node3" class="node"><title>Node8</title>
<g id="a_node3"><a xlink:href="class_model_1_1_equipment.html#a21933fbc1922db1718fe4d6be6c9bc2f" target="_top" xlink:title="Model::Equipment::increase\lUpgradeLevel">
<polygon fill="white" stroke="black" points="171,-0.5 171,-30.5 309,-30.5 309,-0.5 171,-0.5"/>
<text text-anchor="start" x="179" y="-18.5" font-family="Helvetica,sans-Serif" font-size="10.00">Model::Equipment::increase</text>
<text text-anchor="middle" x="240" y="-7.5" font-family="Helvetica,sans-Serif" font-size="10.00">UpgradeLevel</text>
</a>
</g>
</g>
<!-- Node6&#45;&gt;Node8 -->
<g id="edge2" class="edge"><title>Node6&#45;&gt;Node8</title>
<path fill="none" stroke="midnightblue" d="M134.113,-28.9942C142.853,-27.8697 151.879,-26.7085 160.798,-25.561"/>
<polygon fill="midnightblue" stroke="midnightblue" points="161.33,-29.0215 170.802,-24.274 160.437,-22.0787 161.33,-29.0215"/>
</g>
</g>
</svg>
