<?xml version="1.0" encoding="UTF-8" standalone="no"?>
<!DOCTYPE svg PUBLIC "-//W3C//DTD SVG 1.1//EN"
 "http://www.w3.org/Graphics/SVG/1.1/DTD/svg11.dtd">
<!-- Generated by graphviz version 2.38.0 (20140413.2041)
 -->
<!-- Title: Model::Model::setParkingHallOwnership Pages: 1 -->
<svg width="270pt" height="39pt"
 viewBox="0.00 0.00 270.00 39.00" xmlns="http://www.w3.org/2000/svg" xmlns:xlink="http://www.w3.org/1999/xlink">
<g id="graph0" class="graph" transform="scale(1 1) rotate(0) translate(4 35)">
<title>Model::Model::setParkingHallOwnership</title>
<polygon fill="white" stroke="none" points="-4,4 -4,-35 266,-35 266,4 -4,4"/>
<!-- Node72 -->
<g id="node1" class="node"><title>Node72</title>
<polygon fill="#bfbfbf" stroke="black" points="0,-0.5 0,-30.5 128,-30.5 128,-0.5 0,-0.5"/>
<text text-anchor="start" x="8" y="-18.5" font-family="Helvetica,sans-Serif" font-size="10.00">Model::Model::setParking</text>
<text text-anchor="middle" x="64" y="-7.5" font-family="Helvetica,sans-Serif" font-size="10.00">HallOwnership</text>
</g>
<!-- Node73 -->
<g id="node2" class="node"><title>Node73</title>
<g id="a_node2"><a xlink:href="class_model_1_1_parking_hall.html#a6678c52a6b8729e3ae5f53c129950330" target="_top" xlink:title="Model::ParkingHall\l::setOwnerShip">
<polygon fill="white" stroke="black" points="164,-0.5 164,-30.5 262,-30.5 262,-0.5 164,-0.5"/>
<text text-anchor="start" x="172" y="-18.5" font-family="Helvetica,sans-Serif" font-size="10.00">Model::ParkingHall</text>
<text text-anchor="middle" x="213" y="-7.5" font-family="Helvetica,sans-Serif" font-size="10.00">::setOwnerShip</text>
</a>
</g>
</g>
<!-- Node72&#45;&gt;Node73 -->
<g id="edge1" class="edge"><title>Node72&#45;&gt;Node73</title>
<path fill="none" stroke="midnightblue" d="M128.194,-15.5C136.714,-15.5 145.422,-15.5 153.849,-15.5"/>
<polygon fill="midnightblue" stroke="midnightblue" points="153.956,-19.0001 163.956,-15.5 153.956,-12.0001 153.956,-19.0001"/>
</g>
</g>
</svg>
