<?xml version="1.0" encoding="UTF-8" standalone="no"?>
<!DOCTYPE svg PUBLIC "-//W3C//DTD SVG 1.1//EN"
 "http://www.w3.org/Graphics/SVG/1.1/DTD/svg11.dtd">
<!-- Generated by graphviz version 2.38.0 (20140413.2041)
 -->
<!-- Title: View::ActionScene::movePCs Pages: 1 -->
<svg width="271pt" height="137pt"
 viewBox="0.00 0.00 271.00 137.00" xmlns="http://www.w3.org/2000/svg" xmlns:xlink="http://www.w3.org/1999/xlink">
<g id="graph0" class="graph" transform="scale(1 1) rotate(0) translate(4 133)">
<title>View::ActionScene::movePCs</title>
<polygon fill="white" stroke="none" points="-4,4 -4,-133 267,-133 267,4 -4,4"/>
<!-- Node173 -->
<g id="node1" class="node"><title>Node173</title>
<polygon fill="#bfbfbf" stroke="black" points="0,-49.5 0,-79.5 105,-79.5 105,-49.5 0,-49.5"/>
<text text-anchor="start" x="8" y="-67.5" font-family="Helvetica,sans-Serif" font-size="10.00">View::ActionScene::</text>
<text text-anchor="middle" x="52.5" y="-56.5" font-family="Helvetica,sans-Serif" font-size="10.00">movePCs</text>
</g>
<!-- Node174 -->
<g id="node2" class="node"><title>Node174</title>
<g id="a_node2"><a xlink:href="class_view_1_1_action_scene.html#a9c9751aa5663b998d81840048e13c9be" target="_top" xlink:title="View::ActionScene::\linitPCs">
<polygon fill="white" stroke="black" points="149.5,-98.5 149.5,-128.5 254.5,-128.5 254.5,-98.5 149.5,-98.5"/>
<text text-anchor="start" x="157.5" y="-116.5" font-family="Helvetica,sans-Serif" font-size="10.00">View::ActionScene::</text>
<text text-anchor="middle" x="202" y="-105.5" font-family="Helvetica,sans-Serif" font-size="10.00">initPCs</text>
</a>
</g>
</g>
<!-- Node173&#45;&gt;Node174 -->
<g id="edge1" class="edge"><title>Node173&#45;&gt;Node174</title>
<path fill="none" stroke="midnightblue" d="M108.464,-82.7591C124.021,-87.9273 140.773,-93.4924 155.692,-98.4484"/>
<polygon fill="midnightblue" stroke="midnightblue" points="109.552,-79.4326 98.9584,-79.6014 107.345,-86.0757 109.552,-79.4326"/>
</g>
<!-- Node175 -->
<g id="node3" class="node"><title>Node175</title>
<g id="a_node3"><a xlink:href="class_view_1_1_action_scene.html#a888e6919c4e370d2476e2198be5515cf" target="_top" xlink:title="View::ActionScene::\lmouseDoubleClickEvent">
<polygon fill="white" stroke="black" points="141,-49.5 141,-79.5 263,-79.5 263,-49.5 141,-49.5"/>
<text text-anchor="start" x="149" y="-67.5" font-family="Helvetica,sans-Serif" font-size="10.00">View::ActionScene::</text>
<text text-anchor="middle" x="202" y="-56.5" font-family="Helvetica,sans-Serif" font-size="10.00">mouseDoubleClickEvent</text>
</a>
</g>
</g>
<!-- Node173&#45;&gt;Node175 -->
<g id="edge2" class="edge"><title>Node173&#45;&gt;Node175</title>
<path fill="none" stroke="midnightblue" d="M115.271,-64.5C123.733,-64.5 132.411,-64.5 140.843,-64.5"/>
<polygon fill="midnightblue" stroke="midnightblue" points="115.088,-61.0001 105.088,-64.5 115.088,-68.0001 115.088,-61.0001"/>
</g>
<!-- Node176 -->
<g id="node4" class="node"><title>Node176</title>
<g id="a_node4"><a xlink:href="class_view_1_1_action_scene.html#a4918342195d3231e21c6a24fa146ed14" target="_top" xlink:title="View::ActionScene::\lmousePressEvent">
<polygon fill="white" stroke="black" points="149.5,-0.5 149.5,-30.5 254.5,-30.5 254.5,-0.5 149.5,-0.5"/>
<text text-anchor="start" x="157.5" y="-18.5" font-family="Helvetica,sans-Serif" font-size="10.00">View::ActionScene::</text>
<text text-anchor="middle" x="202" y="-7.5" font-family="Helvetica,sans-Serif" font-size="10.00">mousePressEvent</text>
</a>
</g>
</g>
<!-- Node173&#45;&gt;Node176 -->
<g id="edge3" class="edge"><title>Node173&#45;&gt;Node176</title>
<path fill="none" stroke="midnightblue" d="M108.464,-46.2409C124.021,-41.0727 140.773,-35.5076 155.692,-30.5516"/>
<polygon fill="midnightblue" stroke="midnightblue" points="107.345,-42.9243 98.9584,-49.3986 109.552,-49.5674 107.345,-42.9243"/>
</g>
</g>
</svg>
