<?xml version="1.0" encoding="UTF-8" standalone="no"?>
<!DOCTYPE svg PUBLIC "-//W3C//DTD SVG 1.1//EN"
 "http://www.w3.org/Graphics/SVG/1.1/DTD/svg11.dtd">
<!-- Generated by graphviz version 2.38.0 (20140413.2041)
 -->
<!-- Title: Model::mapGenerator Pages: 1 -->
<svg width="913pt" height="970pt"
 viewBox="0.00 0.00 913.00 970.00" xmlns="http://www.w3.org/2000/svg" xmlns:xlink="http://www.w3.org/1999/xlink">
<g id="graph0" class="graph" transform="scale(1 1) rotate(0) translate(4 966)">
<title>Model::mapGenerator</title>
<polygon fill="white" stroke="none" points="-4,4 -4,-966 909,-966 909,4 -4,4"/>
<!-- Node2 -->
<g id="node1" class="node"><title>Node2</title>
<polygon fill="#bfbfbf" stroke="black" points="232.5,-364.5 232.5,-630.5 373.5,-630.5 373.5,-364.5 232.5,-364.5"/>
<text text-anchor="middle" x="303" y="-618.5" font-family="Helvetica,sans-Serif" font-size="10.00">Model::mapGenerator</text>
<polyline fill="none" stroke="black" points="232.5,-611.5 373.5,-611.5 "/>
<text text-anchor="middle" x="303" y="-599.5" font-family="Helvetica,sans-Serif" font-size="10.00"> </text>
<polyline fill="none" stroke="black" points="232.5,-592.5 373.5,-592.5 "/>
<text text-anchor="start" x="240.5" y="-580.5" font-family="Helvetica,sans-Serif" font-size="10.00">+ mapGenerator()</text>
<text text-anchor="start" x="240.5" y="-569.5" font-family="Helvetica,sans-Serif" font-size="10.00">+ getTile()</text>
<text text-anchor="start" x="240.5" y="-558.5" font-family="Helvetica,sans-Serif" font-size="10.00">+ getHeight()</text>
<text text-anchor="start" x="240.5" y="-547.5" font-family="Helvetica,sans-Serif" font-size="10.00">+ getWidth()</text>
<text text-anchor="start" x="240.5" y="-536.5" font-family="Helvetica,sans-Serif" font-size="10.00">+ getStartX()</text>
<text text-anchor="start" x="240.5" y="-525.5" font-family="Helvetica,sans-Serif" font-size="10.00">+ getStartY()</text>
<text text-anchor="start" x="240.5" y="-514.5" font-family="Helvetica,sans-Serif" font-size="10.00">+ generateHall()</text>
<text text-anchor="start" x="240.5" y="-503.5" font-family="Helvetica,sans-Serif" font-size="10.00">+ getLayout()</text>
<text text-anchor="start" x="240.5" y="-492.5" font-family="Helvetica,sans-Serif" font-size="10.00">&#45; getMedialMap()</text>
<text text-anchor="start" x="240.5" y="-481.5" font-family="Helvetica,sans-Serif" font-size="10.00">&#45; getDistanceMap()</text>
<text text-anchor="start" x="240.5" y="-470.5" font-family="Helvetica,sans-Serif" font-size="10.00">&#45; isInMapRange()</text>
<text text-anchor="start" x="240.5" y="-459.5" font-family="Helvetica,sans-Serif" font-size="10.00">&#45; GetSurroundingWallCount()</text>
<text text-anchor="start" x="240.5" y="-448.5" font-family="Helvetica,sans-Serif" font-size="10.00">&#45; getClosestEdge()</text>
<text text-anchor="start" x="240.5" y="-437.5" font-family="Helvetica,sans-Serif" font-size="10.00">&#45; indexToX()</text>
<text text-anchor="start" x="240.5" y="-426.5" font-family="Helvetica,sans-Serif" font-size="10.00">&#45; indexToY()</text>
<text text-anchor="start" x="240.5" y="-415.5" font-family="Helvetica,sans-Serif" font-size="10.00">&#45; indexAt()</text>
<text text-anchor="start" x="240.5" y="-404.5" font-family="Helvetica,sans-Serif" font-size="10.00">&#45; setTile()</text>
<text text-anchor="start" x="240.5" y="-393.5" font-family="Helvetica,sans-Serif" font-size="10.00">&#45; setTile()</text>
<text text-anchor="start" x="240.5" y="-382.5" font-family="Helvetica,sans-Serif" font-size="10.00">&#45; getTile()</text>
<text text-anchor="start" x="240.5" y="-371.5" font-family="Helvetica,sans-Serif" font-size="10.00">&#45; printLayout()</text>
</g>
<!-- Node5 -->
<g id="node4" class="node"><title>Node5</title>
<g id="a_node4"><a xlink:href="class_model_1_1map_processor.html" target="_top" xlink:title="{Model::mapProcessor\n||+ mapProcessor()\l+ placeEnemies()\l+ getEnemies()\l&#45; getDistanceMap()\l&#45; getMedialMap()\l&#45; calculateDistanceMap()\l&#45; getTile()\l&#45; getTile()\l&#45; setTileDistance()\l&#45; getTileDistance()\l&#45; getTileClosest()\l&#45; getTileClosest()\l&#45; setTileClosest()\l&#45; getDistance()\l}">
<polygon fill="white" stroke="black" points="595.5,-116.5 595.5,-316.5 720.5,-316.5 720.5,-116.5 595.5,-116.5"/>
<text text-anchor="middle" x="658" y="-304.5" font-family="Helvetica,sans-Serif" font-size="10.00">Model::mapProcessor</text>
<polyline fill="none" stroke="black" points="595.5,-297.5 720.5,-297.5 "/>
<text text-anchor="middle" x="658" y="-285.5" font-family="Helvetica,sans-Serif" font-size="10.00"> </text>
<polyline fill="none" stroke="black" points="595.5,-278.5 720.5,-278.5 "/>
<text text-anchor="start" x="603.5" y="-266.5" font-family="Helvetica,sans-Serif" font-size="10.00">+ mapProcessor()</text>
<text text-anchor="start" x="603.5" y="-255.5" font-family="Helvetica,sans-Serif" font-size="10.00">+ placeEnemies()</text>
<text text-anchor="start" x="603.5" y="-244.5" font-family="Helvetica,sans-Serif" font-size="10.00">+ getEnemies()</text>
<text text-anchor="start" x="603.5" y="-233.5" font-family="Helvetica,sans-Serif" font-size="10.00">&#45; getDistanceMap()</text>
<text text-anchor="start" x="603.5" y="-222.5" font-family="Helvetica,sans-Serif" font-size="10.00">&#45; getMedialMap()</text>
<text text-anchor="start" x="603.5" y="-211.5" font-family="Helvetica,sans-Serif" font-size="10.00">&#45; calculateDistanceMap()</text>
<text text-anchor="start" x="603.5" y="-200.5" font-family="Helvetica,sans-Serif" font-size="10.00">&#45; getTile()</text>
<text text-anchor="start" x="603.5" y="-189.5" font-family="Helvetica,sans-Serif" font-size="10.00">&#45; getTile()</text>
<text text-anchor="start" x="603.5" y="-178.5" font-family="Helvetica,sans-Serif" font-size="10.00">&#45; setTileDistance()</text>
<text text-anchor="start" x="603.5" y="-167.5" font-family="Helvetica,sans-Serif" font-size="10.00">&#45; getTileDistance()</text>
<text text-anchor="start" x="603.5" y="-156.5" font-family="Helvetica,sans-Serif" font-size="10.00">&#45; getTileClosest()</text>
<text text-anchor="start" x="603.5" y="-145.5" font-family="Helvetica,sans-Serif" font-size="10.00">&#45; getTileClosest()</text>
<text text-anchor="start" x="603.5" y="-134.5" font-family="Helvetica,sans-Serif" font-size="10.00">&#45; setTileClosest()</text>
<text text-anchor="start" x="603.5" y="-123.5" font-family="Helvetica,sans-Serif" font-size="10.00">&#45; getDistance()</text>
</a>
</g>
</g>
<!-- Node2&#45;&gt;Node5 -->
<g id="edge4" class="edge"><title>Node2&#45;&gt;Node5</title>
<path fill="none" stroke="#404040" d="M373.635,-451.605C417.268,-422.938 473.75,-384.116 521,-346 542.999,-328.254 565.805,-307.794 586.351,-288.493"/>
<polygon fill="none" stroke="#404040" points="586.597,-288.26 588.207,-281.231 595.314,-280.013 593.705,-287.042 586.597,-288.26"/>
<text text-anchor="middle" x="558" y="-338" font-family="Helvetica,sans-Serif" font-size="10.00"> &#45;generator_</text>
</g>
<!-- Node13 -->
<g id="node12" class="node"><title>Node13</title>
<g id="a_node12"><a xlink:href="class_model_1_1layout_generator.html" target="_top" xlink:title="{Model::layoutGenerator\n||+ layoutGenerator()\l+ generateHall()\l&#45; roomOk()\l&#45; randomRoom()\l}">
<polygon fill="white" stroke="black" points="394,-171.5 394,-261.5 512,-261.5 512,-171.5 394,-171.5"/>
<text text-anchor="middle" x="453" y="-249.5" font-family="Helvetica,sans-Serif" font-size="10.00">Model::layoutGenerator</text>
<polyline fill="none" stroke="black" points="394,-242.5 512,-242.5 "/>
<text text-anchor="middle" x="453" y="-230.5" font-family="Helvetica,sans-Serif" font-size="10.00"> </text>
<polyline fill="none" stroke="black" points="394,-223.5 512,-223.5 "/>
<text text-anchor="start" x="402" y="-211.5" font-family="Helvetica,sans-Serif" font-size="10.00">+ layoutGenerator()</text>
<text text-anchor="start" x="402" y="-200.5" font-family="Helvetica,sans-Serif" font-size="10.00">+ generateHall()</text>
<text text-anchor="start" x="402" y="-189.5" font-family="Helvetica,sans-Serif" font-size="10.00">&#45; roomOk()</text>
<text text-anchor="start" x="402" y="-178.5" font-family="Helvetica,sans-Serif" font-size="10.00">&#45; randomRoom()</text>
</a>
</g>
</g>
<!-- Node2&#45;&gt;Node13 -->
<g id="edge15" class="edge"><title>Node2&#45;&gt;Node13</title>
<path fill="none" stroke="#404040" d="M336.162,-364.458C341.292,-354.031 347.2,-344.05 354,-335 362.663,-323.469 370.608,-327 381,-317 394.864,-303.659 407.899,-287.361 418.968,-271.847"/>
<polygon fill="none" stroke="#404040" points="419.099,-271.659 419.238,-264.45 425.947,-261.805 425.808,-269.015 419.099,-271.659"/>
<text text-anchor="middle" x="390.5" y="-338" font-family="Helvetica,sans-Serif" font-size="10.00"> &#45;mapGenerator_</text>
</g>
<!-- Node14 -->
<g id="node13" class="node"><title>Node14</title>
<g id="a_node13"><a xlink:href="class_model_1_1park_space_inserter.html" target="_top" xlink:title="{Model::parkSpaceInserter\n||+ parkSpaceInserter()\l+ addSpaces()\l&#45; addParkingSpaces_()\l&#45; getWallTiles()\l&#45; removeBlockedSpaces()\l&#45; floodFill()\l&#45; getRelativeDirection()\l}">
<polygon fill="white" stroke="black" points="244,-155 244,-278 372,-278 372,-155 244,-155"/>
<text text-anchor="middle" x="308" y="-266" font-family="Helvetica,sans-Serif" font-size="10.00">Model::parkSpaceInserter</text>
<polyline fill="none" stroke="black" points="244,-259 372,-259 "/>
<text text-anchor="middle" x="308" y="-247" font-family="Helvetica,sans-Serif" font-size="10.00"> </text>
<polyline fill="none" stroke="black" points="244,-240 372,-240 "/>
<text text-anchor="start" x="252" y="-228" font-family="Helvetica,sans-Serif" font-size="10.00">+ parkSpaceInserter()</text>
<text text-anchor="start" x="252" y="-217" font-family="Helvetica,sans-Serif" font-size="10.00">+ addSpaces()</text>
<text text-anchor="start" x="252" y="-206" font-family="Helvetica,sans-Serif" font-size="10.00">&#45; addParkingSpaces_()</text>
<text text-anchor="start" x="252" y="-195" font-family="Helvetica,sans-Serif" font-size="10.00">&#45; getWallTiles()</text>
<text text-anchor="start" x="252" y="-184" font-family="Helvetica,sans-Serif" font-size="10.00">&#45; removeBlockedSpaces()</text>
<text text-anchor="start" x="252" y="-173" font-family="Helvetica,sans-Serif" font-size="10.00">&#45; floodFill()</text>
<text text-anchor="start" x="252" y="-162" font-family="Helvetica,sans-Serif" font-size="10.00">&#45; getRelativeDirection()</text>
</a>
</g>
</g>
<!-- Node2&#45;&gt;Node14 -->
<g id="edge18" class="edge"><title>Node2&#45;&gt;Node14</title>
<path fill="none" stroke="#404040" d="M303.519,-364.292C303.65,-354.379 303.808,-344.531 304,-335 304.29,-320.572 304.725,-305.15 305.203,-290.385"/>
<polygon fill="none" stroke="#404040" points="305.21,-290.166 301.413,-284.036 305.612,-278.173 309.409,-284.304 305.21,-290.166"/>
<text text-anchor="middle" x="319.5" y="-338" font-family="Helvetica,sans-Serif" font-size="10.00"> &#45;map_</text>
</g>
<!-- Node3 -->
<g id="node2" class="node"><title>Node3</title>
<g id="a_node2"><a xlink:href="class_interface_1_1_parkin_hall_layout_interface.html" target="_top" xlink:title="{Interface::ParkinHallLayout\lInterface\n||+ ParkinHallLayoutInterface()\l+ generateHall()\l+ getLayout()\l+ getTile()\l+ getStartX()\l+ getStartY()\l+ getHeight()\l+ getWidth()\l}">
<polygon fill="white" stroke="black" points="379,-700.5 379,-845.5 521,-845.5 521,-700.5 379,-700.5"/>
<text text-anchor="start" x="387" y="-833.5" font-family="Helvetica,sans-Serif" font-size="10.00">Interface::ParkinHallLayout</text>
<text text-anchor="middle" x="450" y="-822.5" font-family="Helvetica,sans-Serif" font-size="10.00">Interface</text>
<polyline fill="none" stroke="black" points="379,-815.5 521,-815.5 "/>
<text text-anchor="middle" x="450" y="-803.5" font-family="Helvetica,sans-Serif" font-size="10.00"> </text>
<polyline fill="none" stroke="black" points="379,-796.5 521,-796.5 "/>
<text text-anchor="start" x="387" y="-784.5" font-family="Helvetica,sans-Serif" font-size="10.00">+ ParkinHallLayoutInterface()</text>
<text text-anchor="start" x="387" y="-773.5" font-family="Helvetica,sans-Serif" font-size="10.00">+ generateHall()</text>
<text text-anchor="start" x="387" y="-762.5" font-family="Helvetica,sans-Serif" font-size="10.00">+ getLayout()</text>
<text text-anchor="start" x="387" y="-751.5" font-family="Helvetica,sans-Serif" font-size="10.00">+ getTile()</text>
<text text-anchor="start" x="387" y="-740.5" font-family="Helvetica,sans-Serif" font-size="10.00">+ getStartX()</text>
<text text-anchor="start" x="387" y="-729.5" font-family="Helvetica,sans-Serif" font-size="10.00">+ getStartY()</text>
<text text-anchor="start" x="387" y="-718.5" font-family="Helvetica,sans-Serif" font-size="10.00">+ getHeight()</text>
<text text-anchor="start" x="387" y="-707.5" font-family="Helvetica,sans-Serif" font-size="10.00">+ getWidth()</text>
</a>
</g>
</g>
<!-- Node3&#45;&gt;Node2 -->
<g id="edge1" class="edge"><title>Node3&#45;&gt;Node2</title>
<path fill="none" stroke="midnightblue" d="M406.831,-691.682C396.357,-672.194 384.886,-650.852 373.511,-629.688"/>
<polygon fill="none" stroke="midnightblue" points="403.752,-693.347 411.569,-700.498 409.918,-690.033 403.752,-693.347"/>
</g>
<!-- Node4 -->
<g id="node3" class="node"><title>Node4</title>
<polygon fill="white" stroke="#bfbfbf" points="228,-0.5 228,-68.5 344,-68.5 344,-0.5 228,-0.5"/>
<text text-anchor="start" x="236" y="-56.5" font-family="Helvetica,sans-Serif" font-size="10.00">std::unique_ptr&lt; Model</text>
<text text-anchor="middle" x="286" y="-45.5" font-family="Helvetica,sans-Serif" font-size="10.00">::mapProcessor &gt;</text>
<polyline fill="none" stroke="#bfbfbf" points="228,-38.5 344,-38.5 "/>
<text text-anchor="middle" x="286" y="-26.5" font-family="Helvetica,sans-Serif" font-size="10.00"> </text>
<polyline fill="none" stroke="#bfbfbf" points="228,-19.5 344,-19.5 "/>
<text text-anchor="start" x="236" y="-7.5" font-family="Helvetica,sans-Serif" font-size="10.00">+ operator&#45;&gt;()</text>
</g>
<!-- Node4&#45;&gt;Node2 -->
<g id="edge2" class="edge"><title>Node4&#45;&gt;Node2</title>
<path fill="none" stroke="#404040" d="M227.804,-57.367C202.164,-70.2595 174.591,-89.3633 160,-116 117.082,-194.349 131.518,-232.329 160,-317 173.009,-355.673 198.493,-392.129 224.39,-421.953"/>
<polygon fill="none" stroke="#404040" points="224.452,-422.024 231.429,-423.85 232.426,-430.992 225.45,-429.166 224.452,-422.024"/>
<text text-anchor="middle" x="197.5" y="-214" font-family="Helvetica,sans-Serif" font-size="10.00"> &#45;mapProcessor_</text>
</g>
<!-- Node5&#45;&gt;Node4 -->
<g id="edge3" class="edge"><title>Node5&#45;&gt;Node4</title>
<path fill="none" stroke="#404040" d="M595.416,-164.012C572.899,-147.154 546.695,-129.347 521,-116 468.255,-88.6018 404.191,-67.3723 356.283,-53.6105"/>
<polygon fill="none" stroke="#404040" points="356.016,-53.5351 349.155,-55.7537 344.468,-50.2734 351.329,-48.0548 356.016,-53.5351"/>
<text text-anchor="middle" x="489.5" y="-90" font-family="Helvetica,sans-Serif" font-size="10.00"> +ptr</text>
</g>
<!-- Node6 -->
<g id="node5" class="node"><title>Node6</title>
<polygon fill="white" stroke="#bfbfbf" points="577.5,-463.5 577.5,-531.5 738.5,-531.5 738.5,-463.5 577.5,-463.5"/>
<text text-anchor="start" x="585.5" y="-519.5" font-family="Helvetica,sans-Serif" font-size="10.00">std::vector&lt; Model</text>
<text text-anchor="middle" x="658" y="-508.5" font-family="Helvetica,sans-Serif" font-size="10.00">::mapProcessor::DistanceNode &gt;</text>
<polyline fill="none" stroke="#bfbfbf" points="577.5,-501.5 738.5,-501.5 "/>
<text text-anchor="middle" x="658" y="-489.5" font-family="Helvetica,sans-Serif" font-size="10.00"> </text>
<polyline fill="none" stroke="#bfbfbf" points="577.5,-482.5 738.5,-482.5 "/>
<text text-anchor="middle" x="658" y="-470.5" font-family="Helvetica,sans-Serif" font-size="10.00"> </text>
</g>
<!-- Node6&#45;&gt;Node5 -->
<g id="edge5" class="edge"><title>Node6&#45;&gt;Node5</title>
<path fill="none" stroke="#404040" d="M658,-463.399C658,-430.199 658,-377.203 658,-328.897"/>
<polygon fill="none" stroke="#404040" points="658,-328.732 654,-322.732 658,-316.732 662,-322.732 658,-328.732"/>
<text text-anchor="middle" x="689" y="-338" font-family="Helvetica,sans-Serif" font-size="10.00"> &#45;distanceMap</text>
</g>
<!-- Node7 -->
<g id="node6" class="node"><title>Node7</title>
<g id="a_node6"><a xlink:href="struct_model_1_1map_processor_1_1_distance_node.html" target="_top" xlink:title="{Model::mapProcessor\l::DistanceNode\n||}">
<polygon fill="white" stroke="black" points="584,-739 584,-807 696,-807 696,-739 584,-739"/>
<text text-anchor="start" x="592" y="-795" font-family="Helvetica,sans-Serif" font-size="10.00">Model::mapProcessor</text>
<text text-anchor="middle" x="640" y="-784" font-family="Helvetica,sans-Serif" font-size="10.00">::DistanceNode</text>
<polyline fill="none" stroke="black" points="584,-777 696,-777 "/>
<text text-anchor="middle" x="640" y="-765" font-family="Helvetica,sans-Serif" font-size="10.00"> </text>
<polyline fill="none" stroke="black" points="584,-758 696,-758 "/>
<text text-anchor="middle" x="640" y="-746" font-family="Helvetica,sans-Serif" font-size="10.00"> </text>
</a>
</g>
</g>
<!-- Node7&#45;&gt;Node6 -->
<g id="edge6" class="edge"><title>Node7&#45;&gt;Node6</title>
<path fill="none" stroke="#404040" d="M642.189,-738.737C645.405,-689.87 651.416,-598.545 655.028,-543.658"/>
<polygon fill="none" stroke="#404040" points="655.038,-543.506 651.441,-537.256 655.826,-531.532 659.423,-537.782 655.038,-543.506"/>
<text text-anchor="middle" x="671.5" y="-663" font-family="Helvetica,sans-Serif" font-size="10.00"> +elements</text>
</g>
<!-- Node8 -->
<g id="node7" class="node"><title>Node8</title>
<polygon fill="white" stroke="#bfbfbf" points="588.5,-904.5 588.5,-961.5 617.5,-961.5 617.5,-904.5 588.5,-904.5"/>
<text text-anchor="middle" x="603" y="-949.5" font-family="Helvetica,sans-Serif" font-size="10.00">int</text>
<polyline fill="none" stroke="#bfbfbf" points="588.5,-942.5 617.5,-942.5 "/>
<text text-anchor="middle" x="603" y="-930.5" font-family="Helvetica,sans-Serif" font-size="10.00"> </text>
<polyline fill="none" stroke="#bfbfbf" points="588.5,-923.5 617.5,-923.5 "/>
<text text-anchor="middle" x="603" y="-911.5" font-family="Helvetica,sans-Serif" font-size="10.00"> </text>
</g>
<!-- Node8&#45;&gt;Node2 -->
<g id="edge11" class="edge"><title>Node8&#45;&gt;Node2</title>
<path fill="none" stroke="#404040" d="M588.109,-931.005C523.896,-926.379 271.808,-904.654 225,-846 175.384,-783.828 195.332,-696.388 227.458,-624.775"/>
<polygon fill="none" stroke="#404040" points="227.46,-624.77 226.346,-617.646 232.494,-613.877 233.608,-621.002 227.46,-624.77"/>
<text text-anchor="middle" x="261.5" y="-792.5" font-family="Helvetica,sans-Serif" font-size="10.00"> &#45;startX</text>
<text text-anchor="middle" x="261.5" y="-781.5" font-family="Helvetica,sans-Serif" font-size="10.00">&#45;startY</text>
<text text-anchor="middle" x="261.5" y="-770.5" font-family="Helvetica,sans-Serif" font-size="10.00">&#45;height_</text>
<text text-anchor="middle" x="261.5" y="-759.5" font-family="Helvetica,sans-Serif" font-size="10.00">&#45;width_</text>
<text text-anchor="middle" x="261.5" y="-748.5" font-family="Helvetica,sans-Serif" font-size="10.00">&#45;maxRoomCount</text>
</g>
<!-- Node8&#45;&gt;Node5 -->
<g id="edge10" class="edge"><title>Node8&#45;&gt;Node5</title>
<path fill="none" stroke="#404040" d="M617.58,-931.697C660.238,-929.957 785.526,-918.61 845,-846 906.176,-771.312 869.093,-727.296 876,-631 884.489,-512.637 931.8,-468.729 876,-364 845.7,-307.131 782.425,-268.406 731.813,-245.123"/>
<polygon fill="none" stroke="#404040" points="731.524,-244.994 724.415,-246.201 720.566,-240.103 727.675,-238.896 731.524,-244.994"/>
<text text-anchor="middle" x="890" y="-668.5" font-family="Helvetica,sans-Serif" font-size="10.00"> &#45;width</text>
<text text-anchor="middle" x="890" y="-657.5" font-family="Helvetica,sans-Serif" font-size="10.00">&#45;height</text>
</g>
<!-- Node8&#45;&gt;Node7 -->
<g id="edge7" class="edge"><title>Node8&#45;&gt;Node7</title>
<path fill="none" stroke="#404040" d="M609.445,-904.479C614.964,-880.911 623.018,-846.518 629.472,-818.959"/>
<polygon fill="none" stroke="#404040" points="629.482,-818.914 626.955,-812.16 632.218,-807.23 634.745,-813.984 629.482,-818.914"/>
<text text-anchor="middle" x="641" y="-878" font-family="Helvetica,sans-Serif" font-size="10.00"> +distance</text>
<text text-anchor="middle" x="641" y="-867" font-family="Helvetica,sans-Serif" font-size="10.00">+closest</text>
</g>
<!-- Node8&#45;&gt;Node13 -->
<g id="edge16" class="edge"><title>Node8&#45;&gt;Node13</title>
<path fill="none" stroke="#404040" d="M592.282,-904.13C586.3,-887.493 579.223,-865.81 575,-846 527.388,-622.643 591.745,-552.142 521,-335 513.916,-313.256 502.433,-291.114 490.903,-272.001"/>
<polygon fill="none" stroke="#404040" points="490.848,-271.912 484.285,-268.923 484.521,-261.716 491.083,-264.705 490.848,-271.912"/>
<text text-anchor="middle" x="584" y="-674" font-family="Helvetica,sans-Serif" font-size="10.00"> &#45;height_</text>
<text text-anchor="middle" x="584" y="-663" font-family="Helvetica,sans-Serif" font-size="10.00">&#45;width_</text>
<text text-anchor="middle" x="584" y="-652" font-family="Helvetica,sans-Serif" font-size="10.00">&#45;maxRooms_</text>
</g>
<!-- Node9 -->
<g id="node8" class="node"><title>Node9</title>
<polygon fill="white" stroke="#bfbfbf" points="757,-469 757,-526 867,-526 867,-469 757,-469"/>
<text text-anchor="middle" x="812" y="-514" font-family="Helvetica,sans-Serif" font-size="10.00">std::vector&lt; QPoint &gt;</text>
<polyline fill="none" stroke="#bfbfbf" points="757,-507 867,-507 "/>
<text text-anchor="middle" x="812" y="-495" font-family="Helvetica,sans-Serif" font-size="10.00"> </text>
<polyline fill="none" stroke="#bfbfbf" points="757,-488 867,-488 "/>
<text text-anchor="middle" x="812" y="-476" font-family="Helvetica,sans-Serif" font-size="10.00"> </text>
</g>
<!-- Node9&#45;&gt;Node5 -->
<g id="edge8" class="edge"><title>Node9&#45;&gt;Node5</title>
<path fill="none" stroke="#404040" d="M799.675,-468.941C787.332,-441.853 767.428,-399.526 748,-364 741.342,-351.826 734.135,-339.243 726.797,-326.8"/>
<polygon fill="none" stroke="#404040" points="726.743,-326.709 720.239,-323.595 720.612,-316.394 727.116,-319.508 726.743,-326.709"/>
<text text-anchor="middle" x="760.5" y="-338" font-family="Helvetica,sans-Serif" font-size="10.00"> &#45;enemies_</text>
</g>
<!-- Node10 -->
<g id="node9" class="node"><title>Node10</title>
<polygon fill="white" stroke="#bfbfbf" points="788.5,-744.5 788.5,-801.5 835.5,-801.5 835.5,-744.5 788.5,-744.5"/>
<text text-anchor="middle" x="812" y="-789.5" font-family="Helvetica,sans-Serif" font-size="10.00">QPoint</text>
<polyline fill="none" stroke="#bfbfbf" points="788.5,-782.5 835.5,-782.5 "/>
<text text-anchor="middle" x="812" y="-770.5" font-family="Helvetica,sans-Serif" font-size="10.00"> </text>
<polyline fill="none" stroke="#bfbfbf" points="788.5,-763.5 835.5,-763.5 "/>
<text text-anchor="middle" x="812" y="-751.5" font-family="Helvetica,sans-Serif" font-size="10.00"> </text>
</g>
<!-- Node10&#45;&gt;Node9 -->
<g id="edge9" class="edge"><title>Node10&#45;&gt;Node9</title>
<path fill="none" stroke="#404040" d="M812,-744.27C812,-695.638 812,-594.805 812,-538.584"/>
<polygon fill="none" stroke="#404040" points="812,-538.303 808,-532.303 812,-526.303 816,-532.303 812,-538.303"/>
<text text-anchor="middle" x="836.5" y="-663" font-family="Helvetica,sans-Serif" font-size="10.00"> +elements</text>
</g>
<!-- Node11 -->
<g id="node10" class="node"><title>Node11</title>
<polygon fill="white" stroke="#bfbfbf" points="134,-744.5 134,-801.5 180,-801.5 180,-744.5 134,-744.5"/>
<text text-anchor="middle" x="157" y="-789.5" font-family="Helvetica,sans-Serif" font-size="10.00">Layout</text>
<polyline fill="none" stroke="#bfbfbf" points="134,-782.5 180,-782.5 "/>
<text text-anchor="middle" x="157" y="-770.5" font-family="Helvetica,sans-Serif" font-size="10.00"> </text>
<polyline fill="none" stroke="#bfbfbf" points="134,-763.5 180,-763.5 "/>
<text text-anchor="middle" x="157" y="-751.5" font-family="Helvetica,sans-Serif" font-size="10.00"> </text>
</g>
<!-- Node11&#45;&gt;Node2 -->
<g id="edge12" class="edge"><title>Node11&#45;&gt;Node2</title>
<path fill="none" stroke="#404040" d="M153.404,-744.418C151.219,-718.671 150.967,-679.716 164,-649 177.363,-617.506 200.307,-588.432 223.746,-564.405"/>
<polygon fill="none" stroke="#404040" points="223.891,-564.261 225.315,-557.192 232.387,-555.787 230.964,-562.856 223.891,-564.261"/>
<text text-anchor="middle" x="183" y="-663" font-family="Helvetica,sans-Serif" font-size="10.00"> &#45;layout_</text>
</g>
<!-- Node12 -->
<g id="node11" class="node"><title>Node12</title>
<polygon fill="white" stroke="#bfbfbf" points="307,-744.5 307,-801.5 361,-801.5 361,-744.5 307,-744.5"/>
<text text-anchor="middle" x="334" y="-789.5" font-family="Helvetica,sans-Serif" font-size="10.00">mt19937</text>
<polyline fill="none" stroke="#bfbfbf" points="307,-782.5 361,-782.5 "/>
<text text-anchor="middle" x="334" y="-770.5" font-family="Helvetica,sans-Serif" font-size="10.00"> </text>
<polyline fill="none" stroke="#bfbfbf" points="307,-763.5 361,-763.5 "/>
<text text-anchor="middle" x="334" y="-751.5" font-family="Helvetica,sans-Serif" font-size="10.00"> </text>
</g>
<!-- Node12&#45;&gt;Node2 -->
<g id="edge13" class="edge"><title>Node12&#45;&gt;Node2</title>
<path fill="none" stroke="#404040" d="M330.857,-744.27C328.067,-719.656 323.761,-681.669 319.363,-642.862"/>
<polygon fill="none" stroke="#404040" points="319.348,-642.73 314.698,-637.219 317.996,-630.806 322.647,-636.317 319.348,-642.73"/>
<text text-anchor="middle" x="334" y="-663" font-family="Helvetica,sans-Serif" font-size="10.00"> &#45;rng</text>
</g>
<!-- Node13&#45;&gt;Node2 -->
<g id="edge14" class="edge"><title>Node13&#45;&gt;Node2</title>
<path fill="none" stroke="#404040" d="M451.228,-261.766C448.809,-287.378 443.314,-319.651 431,-346 418.738,-372.239 400.639,-397.541 381.889,-419.671"/>
<polygon fill="none" stroke="#404040" points="381.696,-419.894 380.782,-427.047 373.828,-428.955 374.742,-421.802 381.696,-419.894"/>
<text text-anchor="middle" x="476.5" y="-338" font-family="Helvetica,sans-Serif" font-size="10.00"> &#45;layoutGenerator_</text>
</g>
<!-- Node14&#45;&gt;Node2 -->
<g id="edge17" class="edge"><title>Node14&#45;&gt;Node2</title>
<path fill="none" stroke="#404040" d="M268.108,-278.052C256.946,-292.051 243.997,-306.038 230,-317 214.652,-329.02 200.585,-318.629 190,-335 167.497,-369.803 191.578,-407.823 223.202,-438.226"/>
<polygon fill="none" stroke="#404040" points="223.46,-438.464 230.584,-439.584 232.289,-446.591 225.166,-445.47 223.46,-438.464"/>
<text text-anchor="middle" x="235.5" y="-338" font-family="Helvetica,sans-Serif" font-size="10.00"> &#45;parkSpaceInserter_</text>
</g>
<!-- Node15 -->
<g id="node14" class="node"><title>Node15</title>
<polygon fill="white" stroke="#bfbfbf" points="0,-744.5 0,-801.5 116,-801.5 116,-744.5 0,-744.5"/>
<text text-anchor="middle" x="58" y="-789.5" font-family="Helvetica,sans-Serif" font-size="10.00">std::vector&lt; TileType &gt;</text>
<polyline fill="none" stroke="#bfbfbf" points="0,-782.5 116,-782.5 "/>
<text text-anchor="middle" x="58" y="-770.5" font-family="Helvetica,sans-Serif" font-size="10.00"> </text>
<polyline fill="none" stroke="#bfbfbf" points="0,-763.5 116,-763.5 "/>
<text text-anchor="middle" x="58" y="-751.5" font-family="Helvetica,sans-Serif" font-size="10.00"> </text>
</g>
<!-- Node15&#45;&gt;Node2 -->
<g id="edge19" class="edge"><title>Node15&#45;&gt;Node2</title>
<path fill="none" stroke="#404040" d="M68.6696,-744.244C79.5838,-718.019 98.2813,-678.423 122,-649 150.596,-613.526 188.616,-580.405 222.427,-554.315"/>
<polygon fill="none" stroke="#404040" points="222.754,-554.066 225.106,-547.25 232.303,-546.799 229.951,-553.616 222.754,-554.066"/>
<text text-anchor="middle" x="137" y="-663" font-family="Helvetica,sans-Serif" font-size="10.00"> &#45;tiles_</text>
</g>
<!-- Node16 -->
<g id="node15" class="node"><title>Node16</title>
<polygon fill="white" stroke="#bfbfbf" points="31.5,-904.5 31.5,-961.5 84.5,-961.5 84.5,-904.5 31.5,-904.5"/>
<text text-anchor="middle" x="58" y="-949.5" font-family="Helvetica,sans-Serif" font-size="10.00">TileType</text>
<polyline fill="none" stroke="#bfbfbf" points="31.5,-942.5 84.5,-942.5 "/>
<text text-anchor="middle" x="58" y="-930.5" font-family="Helvetica,sans-Serif" font-size="10.00"> </text>
<polyline fill="none" stroke="#bfbfbf" points="31.5,-923.5 84.5,-923.5 "/>
<text text-anchor="middle" x="58" y="-911.5" font-family="Helvetica,sans-Serif" font-size="10.00"> </text>
</g>
<!-- Node16&#45;&gt;Node15 -->
<g id="edge20" class="edge"><title>Node16&#45;&gt;Node15</title>
<path fill="none" stroke="#404040" d="M58,-904.479C58,-879.484 58,-842.311 58,-814.029"/>
<polygon fill="none" stroke="#404040" points="58.0001,-813.736 54,-807.736 58,-801.736 62,-807.736 58.0001,-813.736"/>
<text text-anchor="middle" x="82.5" y="-872.5" font-family="Helvetica,sans-Serif" font-size="10.00"> +elements</text>
</g>
</g>
</svg>
