<?xml version="1.0" encoding="UTF-8" standalone="no"?>
<!DOCTYPE svg PUBLIC "-//W3C//DTD SVG 1.1//EN"
 "http://www.w3.org/Graphics/SVG/1.1/DTD/svg11.dtd">
<!-- Generated by graphviz version 2.38.0 (20140413.2041)
 -->
<!-- Title: View::ActionScene::shootTheShot Pages: 1 -->
<svg width="409pt" height="88pt"
 viewBox="0.00 0.00 409.00 88.00" xmlns="http://www.w3.org/2000/svg" xmlns:xlink="http://www.w3.org/1999/xlink">
<g id="graph0" class="graph" transform="scale(1 1) rotate(0) translate(4 84)">
<title>View::ActionScene::shootTheShot</title>
<polygon fill="white" stroke="none" points="-4,4 -4,-84 405,-84 405,4 -4,4"/>
<!-- Node207 -->
<g id="node1" class="node"><title>Node207</title>
<polygon fill="#bfbfbf" stroke="black" points="0,-24.5 0,-54.5 105,-54.5 105,-24.5 0,-24.5"/>
<text text-anchor="start" x="8" y="-42.5" font-family="Helvetica,sans-Serif" font-size="10.00">View::ActionScene::</text>
<text text-anchor="middle" x="52.5" y="-31.5" font-family="Helvetica,sans-Serif" font-size="10.00">shootTheShot</text>
</g>
<!-- Node208 -->
<g id="node2" class="node"><title>Node208</title>
<g id="a_node2"><a xlink:href="class_view_1_1_action_scene.html#aae98cc0bf8648ab049ff79a902701e73" target="_top" xlink:title="View::ActionScene::\lcheckShotCollision">
<polygon fill="white" stroke="black" points="141,-24.5 141,-54.5 246,-54.5 246,-24.5 141,-24.5"/>
<text text-anchor="start" x="149" y="-42.5" font-family="Helvetica,sans-Serif" font-size="10.00">View::ActionScene::</text>
<text text-anchor="middle" x="193.5" y="-31.5" font-family="Helvetica,sans-Serif" font-size="10.00">checkShotCollision</text>
</a>
</g>
</g>
<!-- Node207&#45;&gt;Node208 -->
<g id="edge1" class="edge"><title>Node207&#45;&gt;Node208</title>
<path fill="none" stroke="midnightblue" d="M105.258,-39.5C113.49,-39.5 122.077,-39.5 130.514,-39.5"/>
<polygon fill="midnightblue" stroke="midnightblue" points="130.698,-43.0001 140.698,-39.5 130.698,-36.0001 130.698,-43.0001"/>
</g>
<!-- Node209 -->
<g id="node3" class="node"><title>Node209</title>
<g id="a_node3"><a xlink:href="class_view_1_1_action_scene_n_p_c.html#a9065e80ab1349445972a44657234a35f" target="_top" xlink:title="View::ActionSceneNPC\l::getId">
<polygon fill="white" stroke="black" points="282,-49.5 282,-79.5 401,-79.5 401,-49.5 282,-49.5"/>
<text text-anchor="start" x="290" y="-67.5" font-family="Helvetica,sans-Serif" font-size="10.00">View::ActionSceneNPC</text>
<text text-anchor="middle" x="341.5" y="-56.5" font-family="Helvetica,sans-Serif" font-size="10.00">::getId</text>
</a>
</g>
</g>
<!-- Node208&#45;&gt;Node209 -->
<g id="edge2" class="edge"><title>Node208&#45;&gt;Node209</title>
<path fill="none" stroke="midnightblue" d="M246.385,-48.3845C254.633,-49.7967 263.274,-51.2763 271.835,-52.7422"/>
<polygon fill="midnightblue" stroke="midnightblue" points="271.372,-56.2139 281.82,-54.452 272.554,-49.3143 271.372,-56.2139"/>
</g>
<!-- Node210 -->
<g id="node4" class="node"><title>Node210</title>
<g id="a_node4"><a xlink:href="class_view_1_1_action_scene_n_p_c.html#a5d04b31e451848aec804ce99864800ca" target="_top" xlink:title="View::ActionSceneNPC\l::isDead">
<polygon fill="white" stroke="black" points="282,-0.5 282,-30.5 401,-30.5 401,-0.5 282,-0.5"/>
<text text-anchor="start" x="290" y="-18.5" font-family="Helvetica,sans-Serif" font-size="10.00">View::ActionSceneNPC</text>
<text text-anchor="middle" x="341.5" y="-7.5" font-family="Helvetica,sans-Serif" font-size="10.00">::isDead</text>
</a>
</g>
</g>
<!-- Node208&#45;&gt;Node210 -->
<g id="edge3" class="edge"><title>Node208&#45;&gt;Node210</title>
<path fill="none" stroke="midnightblue" d="M246.385,-30.9709C254.633,-29.6152 263.274,-28.1948 271.835,-26.7875"/>
<polygon fill="midnightblue" stroke="midnightblue" points="272.52,-30.2219 281.82,-25.1461 271.384,-23.3146 272.52,-30.2219"/>
</g>
</g>
</svg>
