<?xml version="1.0" encoding="UTF-8" standalone="no"?>
<!DOCTYPE svg PUBLIC "-//W3C//DTD SVG 1.1//EN"
 "http://www.w3.org/Graphics/SVG/1.1/DTD/svg11.dtd">
<!-- Generated by graphviz version 2.38.0 (20140413.2041)
 -->
<!-- Title: Model::ParkingHall Pages: 1 -->
<!--zoomable 573 -->
<svg id="main" version="1.1" xmlns="http://www.w3.org/2000/svg" xmlns:xlink="http://www.w3.org/1999/xlink" xml:space="preserve" onload="init(evt)">
<style type="text/css"><![CDATA[
.edge:hover path { stroke: red; }
.edge:hover polygon { stroke: red; fill: red; }
]]></style>
<script type="text/javascript"><![CDATA[
var edges = document.getElementsByTagName('g');
if (edges && edges.length) {
  for (var i=0;i<edges.length;i++) {
    if (edges[i].id.substr(0,4)=='edge') {
      edges[i].setAttribute('class','edge');
    }
  }
}
]]></script>
        <defs>
                <circle id="rim" cx="0" cy="0" r="7"/>
                <circle id="rim2" cx="0" cy="0" r="3.5"/>
                <g id="zoomPlus">
                        <use xlink:href="#rim" fill="#404040">
                                <set attributeName="fill" to="#808080" begin="zoomplus.mouseover" end="zoomplus.mouseout"/>
                        </use>
                        <path d="M-4,0h8M0,-4v8" fill="none" stroke="white" stroke-width="1.5" pointer-events="none"/>
                </g>
                <g id="zoomMin">
                        <use xlink:href="#rim" fill="#404040">
                                <set attributeName="fill" to="#808080" begin="zoomminus.mouseover" end="zoomminus.mouseout"/>
                        </use>
                        <path d="M-4,0h8" fill="none" stroke="white" stroke-width="1.5" pointer-events="none"/>
                </g>
                <g id="dirArrow">
                        <path fill="none" stroke="white" stroke-width="1.5" d="M0,-3.0v7 M-2.5,-0.5L0,-3.0L2.5,-0.5"/>
                </g>
               <g id="resetDef">
                       <use xlink:href="#rim2" fill="#404040">
                               <set attributeName="fill" to="#808080" begin="reset.mouseover" end="reset.mouseout"/>
                       </use>
               </g>
        </defs>

<script type="text/javascript">
var viewWidth = 639;
var viewHeight = 573;
var sectionId = 'dynsection-1';
</script>
<script xlink:href="svgpan.js"/>
<svg id="graph" class="graph">
<g id="viewport">
<title>Model::ParkingHall</title>
<polygon fill="white" stroke="none" points="-4,4 -4,-569 635,-569 635,4 -4,4"/>
<!-- Node2 -->
<g id="node1" class="node"><title>Node2</title>
<polygon fill="#bfbfbf" stroke="black" points="210.5,-0.5 210.5,-167.5 341.5,-167.5 341.5,-0.5 210.5,-0.5"/>
<text text-anchor="middle" x="276" y="-155.5" font-family="Helvetica,sans-Serif" font-size="10.00">Model::ParkingHall</text>
<polyline fill="none" stroke="black" points="210.5,-148.5 341.5,-148.5 "/>
<text text-anchor="middle" x="276" y="-136.5" font-family="Helvetica,sans-Serif" font-size="10.00"> </text>
<polyline fill="none" stroke="black" points="210.5,-129.5 341.5,-129.5 "/>
<text text-anchor="start" x="218.5" y="-117.5" font-family="Helvetica,sans-Serif" font-size="10.00">+ ParkingHall()</text>
<text text-anchor="start" x="218.5" y="-106.5" font-family="Helvetica,sans-Serif" font-size="10.00">+ ParkingHall()</text>
<text text-anchor="start" x="218.5" y="-95.5" font-family="Helvetica,sans-Serif" font-size="10.00">+ getId()</text>
<text text-anchor="start" x="218.5" y="-84.5" font-family="Helvetica,sans-Serif" font-size="10.00">+ getName()</text>
<text text-anchor="start" x="218.5" y="-73.5" font-family="Helvetica,sans-Serif" font-size="10.00">+ getCarCount()</text>
<text text-anchor="start" x="218.5" y="-62.5" font-family="Helvetica,sans-Serif" font-size="10.00">+ getParkingSpaceCount()</text>
<text text-anchor="start" x="218.5" y="-51.5" font-family="Helvetica,sans-Serif" font-size="10.00">+ isPlayerOwned()</text>
<text text-anchor="start" x="218.5" y="-40.5" font-family="Helvetica,sans-Serif" font-size="10.00">+ getLongitude()</text>
<text text-anchor="start" x="218.5" y="-29.5" font-family="Helvetica,sans-Serif" font-size="10.00">+ getLatitude()</text>
<text text-anchor="start" x="218.5" y="-18.5" font-family="Helvetica,sans-Serif" font-size="10.00">+ getLayout()</text>
<text text-anchor="start" x="218.5" y="-7.5" font-family="Helvetica,sans-Serif" font-size="10.00">and 14 more...</text>
</g>
<!-- Node3 -->
<g id="node2" class="node"><title>Node3</title>
<g id="a_node2"><a xlink:href="class_interface_1_1_parking_hall_interface.html" target="_top" xlink:title="{Interface::ParkingHallInterface\n||+ ParkingHallInterface()\l+ ~ParkingHallInterface()\l+ getId()\l+ getName()\l+ getCarCount()\l+ getParkingSpaceCount()\l+ isPlayerOwned()\l+ getLongitude()\l+ getLatitude()\l+ isInTampere()\l+ getLayout()\l+ getMonetaryValue()\l}">
<polygon fill="white" stroke="black" points="0,-281.5 0,-459.5 146,-459.5 146,-281.5 0,-281.5"/>
<text text-anchor="middle" x="73" y="-447.5" font-family="Helvetica,sans-Serif" font-size="10.00">Interface::ParkingHallInterface</text>
<polyline fill="none" stroke="black" points="0,-440.5 146,-440.5 "/>
<text text-anchor="middle" x="73" y="-428.5" font-family="Helvetica,sans-Serif" font-size="10.00"> </text>
<polyline fill="none" stroke="black" points="0,-421.5 146,-421.5 "/>
<text text-anchor="start" x="8" y="-409.5" font-family="Helvetica,sans-Serif" font-size="10.00">+ ParkingHallInterface()</text>
<text text-anchor="start" x="8" y="-398.5" font-family="Helvetica,sans-Serif" font-size="10.00">+ ~ParkingHallInterface()</text>
<text text-anchor="start" x="8" y="-387.5" font-family="Helvetica,sans-Serif" font-size="10.00">+ getId()</text>
<text text-anchor="start" x="8" y="-376.5" font-family="Helvetica,sans-Serif" font-size="10.00">+ getName()</text>
<text text-anchor="start" x="8" y="-365.5" font-family="Helvetica,sans-Serif" font-size="10.00">+ getCarCount()</text>
<text text-anchor="start" x="8" y="-354.5" font-family="Helvetica,sans-Serif" font-size="10.00">+ getParkingSpaceCount()</text>
<text text-anchor="start" x="8" y="-343.5" font-family="Helvetica,sans-Serif" font-size="10.00">+ isPlayerOwned()</text>
<text text-anchor="start" x="8" y="-332.5" font-family="Helvetica,sans-Serif" font-size="10.00">+ getLongitude()</text>
<text text-anchor="start" x="8" y="-321.5" font-family="Helvetica,sans-Serif" font-size="10.00">+ getLatitude()</text>
<text text-anchor="start" x="8" y="-310.5" font-family="Helvetica,sans-Serif" font-size="10.00">+ isInTampere()</text>
<text text-anchor="start" x="8" y="-299.5" font-family="Helvetica,sans-Serif" font-size="10.00">+ getLayout()</text>
<text text-anchor="start" x="8" y="-288.5" font-family="Helvetica,sans-Serif" font-size="10.00">+ getMonetaryValue()</text>
</a>
</g>
</g>
<!-- Node3&#45;&gt;Node2 -->
<g id="edge1" class="edge"><title>Node3&#45;&gt;Node2</title>
<path fill="none" stroke="midnightblue" d="M118.339,-272.325C133.668,-243.417 152.017,-212.429 172,-186 183.309,-171.043 196.843,-156.238 210.35,-142.763"/>
<polygon fill="none" stroke="midnightblue" points="115.218,-270.74 113.68,-281.223 121.419,-273.987 115.218,-270.74"/>
</g>
<!-- Node4 -->
<g id="node3" class="node"><title>Node4</title>
<polygon fill="white" stroke="#bfbfbf" points="164.5,-342 164.5,-399 209.5,-399 209.5,-342 164.5,-342"/>
<text text-anchor="middle" x="187" y="-387" font-family="Helvetica,sans-Serif" font-size="10.00">double</text>
<polyline fill="none" stroke="#bfbfbf" points="164.5,-380 209.5,-380 "/>
<text text-anchor="middle" x="187" y="-368" font-family="Helvetica,sans-Serif" font-size="10.00"> </text>
<polyline fill="none" stroke="#bfbfbf" points="164.5,-361 209.5,-361 "/>
<text text-anchor="middle" x="187" y="-349" font-family="Helvetica,sans-Serif" font-size="10.00"> </text>
</g>
<!-- Node4&#45;&gt;Node2 -->
<g id="edge2" class="edge"><title>Node4&#45;&gt;Node2</title>
<path fill="none" stroke="#404040" d="M181.375,-341.993C175.107,-305.136 168.247,-238.305 188,-186 191.832,-175.854 197.187,-166.053 203.385,-156.808"/>
<polygon fill="none" stroke="#404040" points="203.419,-156.76 203.662,-149.553 210.407,-147.005 210.165,-154.212 203.419,-156.76"/>
<text text-anchor="middle" x="212" y="-227.5" font-family="Helvetica,sans-Serif" font-size="10.00"> &#45;latitude_</text>
<text text-anchor="middle" x="212" y="-216.5" font-family="Helvetica,sans-Serif" font-size="10.00">&#45;longitude_</text>
</g>
<!-- Node5 -->
<g id="node4" class="node"><title>Node5</title>
<polygon fill="white" stroke="#bfbfbf" points="263,-507.5 263,-564.5 313,-564.5 313,-507.5 263,-507.5"/>
<text text-anchor="middle" x="288" y="-552.5" font-family="Helvetica,sans-Serif" font-size="10.00">QString</text>
<polyline fill="none" stroke="#bfbfbf" points="263,-545.5 313,-545.5 "/>
<text text-anchor="middle" x="288" y="-533.5" font-family="Helvetica,sans-Serif" font-size="10.00"> </text>
<polyline fill="none" stroke="#bfbfbf" points="263,-526.5 313,-526.5 "/>
<text text-anchor="middle" x="288" y="-514.5" font-family="Helvetica,sans-Serif" font-size="10.00"> </text>
</g>
<!-- Node5&#45;&gt;Node2 -->
<g id="edge3" class="edge"><title>Node5&#45;&gt;Node2</title>
<path fill="none" stroke="#404040" d="M274.439,-507.231C268.419,-493.394 262.022,-476.194 259,-460 241.411,-365.742 249.655,-255.963 259.848,-179.639"/>
<polygon fill="none" stroke="#404040" points="259.857,-179.571 256.714,-173.081 261.497,-167.684 264.639,-174.174 259.857,-179.571"/>
<text text-anchor="middle" x="282" y="-395.5" font-family="Helvetica,sans-Serif" font-size="10.00"> &#45;address_</text>
<text text-anchor="middle" x="282" y="-384.5" font-family="Helvetica,sans-Serif" font-size="10.00">&#45;name_</text>
<text text-anchor="middle" x="282" y="-373.5" font-family="Helvetica,sans-Serif" font-size="10.00">&#45;layout_</text>
<text text-anchor="middle" x="282" y="-362.5" font-family="Helvetica,sans-Serif" font-size="10.00">&#45;id_</text>
<text text-anchor="middle" x="282" y="-351.5" font-family="Helvetica,sans-Serif" font-size="10.00">&#45;city_</text>
<text text-anchor="middle" x="282" y="-340.5" font-family="Helvetica,sans-Serif" font-size="10.00">&#45;street_</text>
</g>
<!-- Node6 -->
<g id="node5" class="node"><title>Node6</title>
<polygon fill="white" stroke="#bfbfbf" points="314.5,-342 314.5,-399 427.5,-399 427.5,-342 314.5,-342"/>
<text text-anchor="middle" x="371" y="-387" font-family="Helvetica,sans-Serif" font-size="10.00">std::vector&lt; QString &gt;</text>
<polyline fill="none" stroke="#bfbfbf" points="314.5,-380 427.5,-380 "/>
<text text-anchor="middle" x="371" y="-368" font-family="Helvetica,sans-Serif" font-size="10.00"> </text>
<polyline fill="none" stroke="#bfbfbf" points="314.5,-361 427.5,-361 "/>
<text text-anchor="middle" x="371" y="-349" font-family="Helvetica,sans-Serif" font-size="10.00"> </text>
</g>
<!-- Node5&#45;&gt;Node6 -->
<g id="edge5" class="edge"><title>Node5&#45;&gt;Node6</title>
<path fill="none" stroke="#404040" d="M302.08,-507.264C315.655,-480.524 336.314,-439.827 351.475,-409.962"/>
<polygon fill="none" stroke="#404040" points="351.558,-409.798 350.707,-402.638 356.99,-399.098 357.841,-406.259 351.558,-409.798"/>
<text text-anchor="middle" x="339.5" y="-481" font-family="Helvetica,sans-Serif" font-size="10.00"> +elements</text>
</g>
<!-- Node6&#45;&gt;Node2 -->
<g id="edge4" class="edge"><title>Node6&#45;&gt;Node2</title>
<path fill="none" stroke="#404040" d="M361.805,-341.962C349.345,-304.65 326.475,-236.159 307.478,-179.267"/>
<polygon fill="none" stroke="#404040" points="307.412,-179.07 301.717,-174.646 303.611,-167.688 309.306,-172.112 307.412,-179.07"/>
<text text-anchor="middle" x="353" y="-222" font-family="Helvetica,sans-Serif" font-size="10.00"> &#45;types_</text>
</g>
<!-- Node7 -->
<g id="node6" class="node"><title>Node7</title>
<polygon fill="white" stroke="#bfbfbf" points="445.5,-342 445.5,-399 474.5,-399 474.5,-342 445.5,-342"/>
<text text-anchor="middle" x="460" y="-387" font-family="Helvetica,sans-Serif" font-size="10.00">int</text>
<polyline fill="none" stroke="#bfbfbf" points="445.5,-380 474.5,-380 "/>
<text text-anchor="middle" x="460" y="-368" font-family="Helvetica,sans-Serif" font-size="10.00"> </text>
<polyline fill="none" stroke="#bfbfbf" points="445.5,-361 474.5,-361 "/>
<text text-anchor="middle" x="460" y="-349" font-family="Helvetica,sans-Serif" font-size="10.00"> </text>
</g>
<!-- Node7&#45;&gt;Node2 -->
<g id="edge6" class="edge"><title>Node7&#45;&gt;Node2</title>
<path fill="none" stroke="#404040" d="M455.416,-341.764C451.747,-323.789 445.597,-300.229 436,-281 431.474,-271.932 427.76,-271.339 422,-263 399.212,-230.012 399.636,-217.632 375,-186 367.34,-176.165 358.824,-166.257 350.093,-156.694"/>
<polygon fill="none" stroke="#404040" points="349.849,-156.432 342.833,-154.762 341.677,-147.644 348.692,-149.314 349.849,-156.432"/>
<text text-anchor="start" x="422" y="-255" font-family="Helvetica,sans-Serif" font-size="10.00"> &#45;parkingOccupiedCount</text>
<text text-anchor="middle" x="474.5" y="-244" font-family="Helvetica,sans-Serif" font-size="10.00">_</text>
<text text-anchor="middle" x="474.5" y="-233" font-family="Helvetica,sans-Serif" font-size="10.00">&#45;postnumber_</text>
<text text-anchor="start" x="422" y="-222" font-family="Helvetica,sans-Serif" font-size="10.00">&#45;parkingSpaceCount</text>
<text text-anchor="middle" x="474.5" y="-211" font-family="Helvetica,sans-Serif" font-size="10.00">_</text>
<text text-anchor="start" x="422" y="-200" font-family="Helvetica,sans-Serif" font-size="10.00">&#45;parkingVacantParking</text>
<text text-anchor="middle" x="474.5" y="-189" font-family="Helvetica,sans-Serif" font-size="10.00">Count_</text>
</g>
<!-- Node8 -->
<g id="node7" class="node"><title>Node8</title>
<polygon fill="white" stroke="#bfbfbf" points="531.5,-342 531.5,-399 566.5,-399 566.5,-342 531.5,-342"/>
<text text-anchor="middle" x="549" y="-387" font-family="Helvetica,sans-Serif" font-size="10.00">bool</text>
<polyline fill="none" stroke="#bfbfbf" points="531.5,-380 566.5,-380 "/>
<text text-anchor="middle" x="549" y="-368" font-family="Helvetica,sans-Serif" font-size="10.00"> </text>
<polyline fill="none" stroke="#bfbfbf" points="531.5,-361 566.5,-361 "/>
<text text-anchor="middle" x="549" y="-349" font-family="Helvetica,sans-Serif" font-size="10.00"> </text>
</g>
<!-- Node8&#45;&gt;Node2 -->
<g id="edge7" class="edge"><title>Node8&#45;&gt;Node2</title>
<path fill="none" stroke="#404040" d="M553.749,-341.73C558.786,-302.74 561.833,-231.463 527,-186 485.66,-132.044 410.856,-106.815 353.629,-95.0766"/>
<polygon fill="none" stroke="#404040" points="353.485,-95.0488 346.834,-97.8372 341.703,-92.771 348.353,-89.9826 353.485,-95.0488"/>
<text text-anchor="middle" x="592.5" y="-222" font-family="Helvetica,sans-Serif" font-size="10.00"> &#45;isPlayerOwned_</text>
</g>
</g>
</svg>
        <g id="navigator" transform="translate(0 0)" fill="#404254">
                <rect fill="#f2f5e9" fill-opacity="0.5" stroke="#606060" stroke-width=".5" x="0" y="0" width="60" height="60"/>
                <use id="zoomplus" xlink:href="#zoomPlus" x="17" y="9" onmousedown="handleZoom(evt,'in')"/>
                <use id="zoomminus" xlink:href="#zoomMin" x="42" y="9" onmousedown="handleZoom(evt,'out')"/>
                <use id="reset" xlink:href="#resetDef" x="30" y="36" onmousedown="handleReset()"/>
                <g id="arrowUp" xlink:href="#dirArrow" transform="translate(30 24)" onmousedown="handlePan(0,-1)">
                  <use xlink:href="#rim" fill="#404040">
                        <set attributeName="fill" to="#808080" begin="arrowUp.mouseover" end="arrowUp.mouseout"/>
                  </use>
                  <path fill="none" stroke="white" stroke-width="1.5" d="M0,-3.0v7 M-2.5,-0.5L0,-3.0L2.5,-0.5"/>
                </g>
                <g id="arrowRight" xlink:href="#dirArrow" transform="rotate(90) translate(36 -43)" onmousedown="handlePan(1,0)">
                  <use xlink:href="#rim" fill="#404040">
                        <set attributeName="fill" to="#808080" begin="arrowRight.mouseover" end="arrowRight.mouseout"/>
                  </use>
                  <path fill="none" stroke="white" stroke-width="1.5" d="M0,-3.0v7 M-2.5,-0.5L0,-3.0L2.5,-0.5"/>
                </g>
                <g id="arrowDown" xlink:href="#dirArrow" transform="rotate(180) translate(-30 -48)" onmousedown="handlePan(0,1)">
                  <use xlink:href="#rim" fill="#404040">
                        <set attributeName="fill" to="#808080" begin="arrowDown.mouseover" end="arrowDown.mouseout"/>
                  </use>
                  <path fill="none" stroke="white" stroke-width="1.5" d="M0,-3.0v7 M-2.5,-0.5L0,-3.0L2.5,-0.5"/>
                </g>
                <g id="arrowLeft" xlink:href="#dirArrow" transform="rotate(270) translate(-36 17)" onmousedown="handlePan(-1,0)">
                  <use xlink:href="#rim" fill="#404040">
                        <set attributeName="fill" to="#808080" begin="arrowLeft.mouseover" end="arrowLeft.mouseout"/>
                  </use>
                  <path fill="none" stroke="white" stroke-width="1.5" d="M0,-3.0v7 M-2.5,-0.5L0,-3.0L2.5,-0.5"/>
                </g>
        </g>
        <svg viewBox="0 0 15 15" width="100%" height="30px" preserveAspectRatio="xMaxYMin meet">
         <g id="arrow_out" transform="scale(0.3 0.3)">
          <a xlink:href="class_model_1_1_parking_hall__coll__graph_org.svg" target="_base">
           <rect id="button" ry="5" rx="5" y="6" x="6" height="38" width="38"
                fill="#f2f5e9" fill-opacity="0.5" stroke="#606060" stroke-width="1.0"/>
           <path id="arrow"
             d="M 11.500037,31.436501 C 11.940474,20.09759 22.043105,11.32322 32.158766,21.979434 L 37.068811,17.246167 C 37.068811,17.246167 37.088388,32 37.088388,32 L 22.160133,31.978069 C 22.160133,31.978069 26.997745,27.140456 26.997745,27.140456 C 18.528582,18.264221 13.291696,25.230495 11.500037,31.436501 z"
             style="fill:#404040;"/>
          </a>
         </g>
        </svg>
</svg>
