<?xml version="1.0" encoding="UTF-8" standalone="no"?>
<!DOCTYPE svg PUBLIC "-//W3C//DTD SVG 1.1//EN"
 "http://www.w3.org/Graphics/SVG/1.1/DTD/svg11.dtd">
<!-- Generated by graphviz version 2.38.0 (20140413.2041)
 -->
<!-- Title: View::ViewSideDisplayManager Pages: 1 -->
<!--zoomable 347 -->
<svg id="main" version="1.1" xmlns="http://www.w3.org/2000/svg" xmlns:xlink="http://www.w3.org/1999/xlink" xml:space="preserve" onload="init(evt)">
<style type="text/css"><![CDATA[
.edge:hover path { stroke: red; }
.edge:hover polygon { stroke: red; fill: red; }
]]></style>
<script type="text/javascript"><![CDATA[
var edges = document.getElementsByTagName('g');
if (edges && edges.length) {
  for (var i=0;i<edges.length;i++) {
    if (edges[i].id.substr(0,4)=='edge') {
      edges[i].setAttribute('class','edge');
    }
  }
}
]]></script>
        <defs>
                <circle id="rim" cx="0" cy="0" r="7"/>
                <circle id="rim2" cx="0" cy="0" r="3.5"/>
                <g id="zoomPlus">
                        <use xlink:href="#rim" fill="#404040">
                                <set attributeName="fill" to="#808080" begin="zoomplus.mouseover" end="zoomplus.mouseout"/>
                        </use>
                        <path d="M-4,0h8M0,-4v8" fill="none" stroke="white" stroke-width="1.5" pointer-events="none"/>
                </g>
                <g id="zoomMin">
                        <use xlink:href="#rim" fill="#404040">
                                <set attributeName="fill" to="#808080" begin="zoomminus.mouseover" end="zoomminus.mouseout"/>
                        </use>
                        <path d="M-4,0h8" fill="none" stroke="white" stroke-width="1.5" pointer-events="none"/>
                </g>
                <g id="dirArrow">
                        <path fill="none" stroke="white" stroke-width="1.5" d="M0,-3.0v7 M-2.5,-0.5L0,-3.0L2.5,-0.5"/>
                </g>
               <g id="resetDef">
                       <use xlink:href="#rim2" fill="#404040">
                               <set attributeName="fill" to="#808080" begin="reset.mouseover" end="reset.mouseout"/>
                       </use>
               </g>
        </defs>

<script type="text/javascript">
var viewWidth = 1371;
var viewHeight = 347;
var sectionId = 'dynsection-1';
</script>
<script xlink:href="svgpan.js"/>
<svg id="graph" class="graph">
<g id="viewport">
<title>View::ViewSideDisplayManager</title>
<polygon fill="white" stroke="none" points="-4,4 -4,-343 1366.5,-343 1366.5,4 -4,4"/>
<!-- Node2 -->
<g id="node1" class="node"><title>Node2</title>
<polygon fill="#bfbfbf" stroke="black" points="591,-0.5 591,-200.5 758,-200.5 758,-0.5 591,-0.5"/>
<text text-anchor="middle" x="674.5" y="-188.5" font-family="Helvetica,sans-Serif" font-size="10.00">View::ViewSideDisplayManager</text>
<polyline fill="none" stroke="black" points="591,-181.5 758,-181.5 "/>
<text text-anchor="middle" x="674.5" y="-169.5" font-family="Helvetica,sans-Serif" font-size="10.00"> </text>
<polyline fill="none" stroke="black" points="591,-162.5 758,-162.5 "/>
<text text-anchor="start" x="599" y="-150.5" font-family="Helvetica,sans-Serif" font-size="10.00">+ ViewSideDisplayManager()</text>
<text text-anchor="start" x="599" y="-139.5" font-family="Helvetica,sans-Serif" font-size="10.00">+ ~ViewSideDisplayManager()</text>
<text text-anchor="start" x="599" y="-128.5" font-family="Helvetica,sans-Serif" font-size="10.00">+ initAllDisplays()</text>
<text text-anchor="start" x="599" y="-117.5" font-family="Helvetica,sans-Serif" font-size="10.00">+ changeSelectedActor()</text>
<text text-anchor="start" x="599" y="-106.5" font-family="Helvetica,sans-Serif" font-size="10.00">+ setSelectedWeapon()</text>
<text text-anchor="start" x="599" y="-95.5" font-family="Helvetica,sans-Serif" font-size="10.00">+ updatePortraitDisplay()</text>
<text text-anchor="start" x="599" y="-84.5" font-family="Helvetica,sans-Serif" font-size="10.00">+ updateHitPointOrAmmoDisplay()</text>
<text text-anchor="start" x="599" y="-73.5" font-family="Helvetica,sans-Serif" font-size="10.00">+ updateWeaponDisplay()</text>
<text text-anchor="start" x="599" y="-62.5" font-family="Helvetica,sans-Serif" font-size="10.00">+ updateMissionDisplay()</text>
<text text-anchor="start" x="599" y="-51.5" font-family="Helvetica,sans-Serif" font-size="10.00">+ setMissionLabelsVisible()</text>
<text text-anchor="start" x="599" y="-40.5" font-family="Helvetica,sans-Serif" font-size="10.00">and 13 more...</text>
<text text-anchor="start" x="599" y="-29.5" font-family="Helvetica,sans-Serif" font-size="10.00">+ startMissionButtonPushed()</text>
<text text-anchor="start" x="599" y="-18.5" font-family="Helvetica,sans-Serif" font-size="10.00">&#45; getIndex()</text>
<text text-anchor="start" x="599" y="-7.5" font-family="Helvetica,sans-Serif" font-size="10.00">&#45; getDisplay()</text>
</g>
<!-- Node3 -->
<g id="node2" class="node"><title>Node3</title>
<g id="a_node2"><a xlink:href="class_q_widget.html" target="_top" xlink:title="{QWidget\n||}">
<polygon fill="white" stroke="black" points="0,-276 0,-333 55,-333 55,-276 0,-276"/>
<text text-anchor="middle" x="27.5" y="-321" font-family="Helvetica,sans-Serif" font-size="10.00">QWidget</text>
<polyline fill="none" stroke="black" points="0,-314 55,-314 "/>
<text text-anchor="middle" x="27.5" y="-302" font-family="Helvetica,sans-Serif" font-size="10.00"> </text>
<polyline fill="none" stroke="black" points="0,-295 55,-295 "/>
<text text-anchor="middle" x="27.5" y="-283" font-family="Helvetica,sans-Serif" font-size="10.00"> </text>
</a>
</g>
</g>
<!-- Node3&#45;&gt;Node2 -->
<g id="edge1" class="edge"><title>Node3&#45;&gt;Node2</title>
<path fill="none" stroke="midnightblue" d="M63.2206,-270.157C63.3137,-270.104 63.4068,-270.052 63.5,-270 236.551,-173.369 468.569,-129.3 590.901,-111.666"/>
<polygon fill="none" stroke="midnightblue" points="61.1746,-267.314 54.77,-275.754 65.0399,-273.15 61.1746,-267.314"/>
</g>
<!-- Node4 -->
<g id="node3" class="node"><title>Node4</title>
<polygon fill="white" stroke="#bfbfbf" points="73,-276 73,-333 214,-333 214,-276 73,-276"/>
<text text-anchor="middle" x="143.5" y="-321" font-family="Helvetica,sans-Serif" font-size="10.00">vector&lt; QGraphicsScene * &gt;</text>
<polyline fill="none" stroke="#bfbfbf" points="73,-314 214,-314 "/>
<text text-anchor="middle" x="143.5" y="-302" font-family="Helvetica,sans-Serif" font-size="10.00"> </text>
<polyline fill="none" stroke="#bfbfbf" points="73,-295 214,-295 "/>
<text text-anchor="middle" x="143.5" y="-283" font-family="Helvetica,sans-Serif" font-size="10.00"> </text>
</g>
<!-- Node4&#45;&gt;Node2 -->
<g id="edge2" class="edge"><title>Node4&#45;&gt;Node2</title>
<path fill="none" stroke="#404040" d="M208.098,-275.906C212.964,-273.889 217.805,-271.902 222.5,-270 344.577,-220.549 487.254,-168.262 579.145,-135.288"/>
<polygon fill="none" stroke="#404040" points="579.355,-135.213 583.654,-129.423 590.652,-131.165 586.353,-136.954 579.355,-135.213"/>
<text text-anchor="middle" x="370.5" y="-233" font-family="Helvetica,sans-Serif" font-size="10.00"> &#45;displays_</text>
</g>
<!-- Node5 -->
<g id="node4" class="node"><title>Node5</title>
<polygon fill="white" stroke="#bfbfbf" points="232,-270.5 232,-338.5 383,-338.5 383,-270.5 232,-270.5"/>
<text text-anchor="start" x="240" y="-326.5" font-family="Helvetica,sans-Serif" font-size="10.00">vector&lt; View::ViewSideDisplay</text>
<text text-anchor="middle" x="307.5" y="-315.5" font-family="Helvetica,sans-Serif" font-size="10.00">MouseSensitivePixmap * &gt;</text>
<polyline fill="none" stroke="#bfbfbf" points="232,-308.5 383,-308.5 "/>
<text text-anchor="middle" x="307.5" y="-296.5" font-family="Helvetica,sans-Serif" font-size="10.00"> </text>
<polyline fill="none" stroke="#bfbfbf" points="232,-289.5 383,-289.5 "/>
<text text-anchor="middle" x="307.5" y="-277.5" font-family="Helvetica,sans-Serif" font-size="10.00"> </text>
</g>
<!-- Node5&#45;&gt;Node2 -->
<g id="edge3" class="edge"><title>Node5&#45;&gt;Node2</title>
<path fill="none" stroke="#404040" d="M367.692,-270.37C425.407,-238.603 513.412,-190.164 580.391,-153.299"/>
<polygon fill="none" stroke="#404040" points="580.439,-153.272 583.767,-146.874 590.952,-147.485 587.625,-153.883 580.439,-153.272"/>
<text text-anchor="middle" x="481.5" y="-233" font-family="Helvetica,sans-Serif" font-size="10.00"> &#45;pictures_</text>
</g>
<!-- Node6 -->
<g id="node5" class="node"><title>Node6</title>
<polygon fill="white" stroke="#bfbfbf" points="401.5,-276 401.5,-333 535.5,-333 535.5,-276 401.5,-276"/>
<text text-anchor="middle" x="468.5" y="-321" font-family="Helvetica,sans-Serif" font-size="10.00">ViewSideDisplayManager *</text>
<polyline fill="none" stroke="#bfbfbf" points="401.5,-314 535.5,-314 "/>
<text text-anchor="middle" x="468.5" y="-302" font-family="Helvetica,sans-Serif" font-size="10.00"> </text>
<polyline fill="none" stroke="#bfbfbf" points="401.5,-295 535.5,-295 "/>
<text text-anchor="middle" x="468.5" y="-283" font-family="Helvetica,sans-Serif" font-size="10.00"> </text>
</g>
<!-- Node6&#45;&gt;Node2 -->
<g id="edge4" class="edge"><title>Node6&#45;&gt;Node2</title>
<path fill="none" stroke="#404040" d="M496.711,-275.836C518.87,-254.108 551.049,-222.554 581.958,-192.245"/>
<polygon fill="none" stroke="#404040" points="582.065,-192.14 583.548,-185.083 590.633,-183.739 589.15,-190.795 582.065,-192.14"/>
<text text-anchor="middle" x="560.5" y="-233" font-family="Helvetica,sans-Serif" font-size="10.00"> &#45;ui</text>
</g>
<!-- Node7 -->
<g id="node6" class="node"><title>Node7</title>
<polygon fill="white" stroke="#bfbfbf" points="554,-276 554,-333 639,-333 639,-276 554,-276"/>
<text text-anchor="middle" x="596.5" y="-321" font-family="Helvetica,sans-Serif" font-size="10.00">vector&lt; bool &gt; *</text>
<polyline fill="none" stroke="#bfbfbf" points="554,-314 639,-314 "/>
<text text-anchor="middle" x="596.5" y="-302" font-family="Helvetica,sans-Serif" font-size="10.00"> </text>
<polyline fill="none" stroke="#bfbfbf" points="554,-295 639,-295 "/>
<text text-anchor="middle" x="596.5" y="-283" font-family="Helvetica,sans-Serif" font-size="10.00"> </text>
</g>
<!-- Node7&#45;&gt;Node2 -->
<g id="edge5" class="edge"><title>Node7&#45;&gt;Node2</title>
<path fill="none" stroke="#404040" d="M584.15,-275.936C578.367,-259.151 574.026,-237.457 580.5,-219 581.927,-214.933 583.56,-210.901 585.368,-206.918"/>
<polygon fill="none" stroke="#404040" points="585.54,-206.572 584.638,-199.417 590.895,-195.833 591.797,-202.987 585.54,-206.572"/>
<text text-anchor="middle" x="625.5" y="-244" font-family="Helvetica,sans-Serif" font-size="10.00"> &#45;selectedWeapons_</text>
<text text-anchor="middle" x="625.5" y="-233" font-family="Helvetica,sans-Serif" font-size="10.00">&#45;deadActors_</text>
<text text-anchor="middle" x="625.5" y="-222" font-family="Helvetica,sans-Serif" font-size="10.00">&#45;selectedActors_</text>
</g>
<!-- Node8 -->
<g id="node7" class="node"><title>Node8</title>
<polygon fill="white" stroke="#bfbfbf" points="657,-276 657,-333 692,-333 692,-276 657,-276"/>
<text text-anchor="middle" x="674.5" y="-321" font-family="Helvetica,sans-Serif" font-size="10.00">bool</text>
<polyline fill="none" stroke="#bfbfbf" points="657,-314 692,-314 "/>
<text text-anchor="middle" x="674.5" y="-302" font-family="Helvetica,sans-Serif" font-size="10.00"> </text>
<polyline fill="none" stroke="#bfbfbf" points="657,-295 692,-295 "/>
<text text-anchor="middle" x="674.5" y="-283" font-family="Helvetica,sans-Serif" font-size="10.00"> </text>
</g>
<!-- Node8&#45;&gt;Node2 -->
<g id="edge6" class="edge"><title>Node8&#45;&gt;Node2</title>
<path fill="none" stroke="#404040" d="M674.5,-275.836C674.5,-259.09 674.5,-236.508 674.5,-213.157"/>
<polygon fill="none" stroke="#404040" points="674.5,-212.903 670.5,-206.903 674.5,-200.903 678.5,-206.903 674.5,-212.903"/>
<text text-anchor="middle" x="720.5" y="-233" font-family="Helvetica,sans-Serif" font-size="10.00"> &#45;missionInProgress_</text>
</g>
<!-- Node9 -->
<g id="node8" class="node"><title>Node9</title>
<polygon fill="white" stroke="#bfbfbf" points="710,-276 710,-333 843,-333 843,-276 710,-276"/>
<text text-anchor="middle" x="776.5" y="-321" font-family="Helvetica,sans-Serif" font-size="10.00">map&lt; QString, QPixmap &gt;</text>
<polyline fill="none" stroke="#bfbfbf" points="710,-314 843,-314 "/>
<text text-anchor="middle" x="776.5" y="-302" font-family="Helvetica,sans-Serif" font-size="10.00"> </text>
<polyline fill="none" stroke="#bfbfbf" points="710,-295 843,-295 "/>
<text text-anchor="middle" x="776.5" y="-283" font-family="Helvetica,sans-Serif" font-size="10.00"> </text>
</g>
<!-- Node9&#45;&gt;Node2 -->
<g id="edge7" class="edge"><title>Node9&#45;&gt;Node2</title>
<path fill="none" stroke="#404040" d="M777.394,-275.919C777.027,-258.93 774.865,-237.028 767.5,-219 766.316,-216.102 765.038,-213.218 763.678,-210.351"/>
<polygon fill="none" stroke="#404040" points="763.532,-210.066 757.231,-206.559 758.045,-199.394 764.345,-202.901 763.532,-210.066"/>
<text text-anchor="middle" x="820.5" y="-233" font-family="Helvetica,sans-Serif" font-size="10.00"> &#45;weaponImageMap_</text>
</g>
<!-- Node10 -->
<g id="node9" class="node"><title>Node10</title>
<polygon fill="white" stroke="#bfbfbf" points="861,-276 861,-333 966,-333 966,-276 861,-276"/>
<text text-anchor="middle" x="913.5" y="-321" font-family="Helvetica,sans-Serif" font-size="10.00">vector&lt; QPainter * &gt;</text>
<polyline fill="none" stroke="#bfbfbf" points="861,-314 966,-314 "/>
<text text-anchor="middle" x="913.5" y="-302" font-family="Helvetica,sans-Serif" font-size="10.00"> </text>
<polyline fill="none" stroke="#bfbfbf" points="861,-295 966,-295 "/>
<text text-anchor="middle" x="913.5" y="-283" font-family="Helvetica,sans-Serif" font-size="10.00"> </text>
</g>
<!-- Node10&#45;&gt;Node2 -->
<g id="edge8" class="edge"><title>Node10&#45;&gt;Node2</title>
<path fill="none" stroke="#404040" d="M903.55,-275.618C896.19,-257.881 884.79,-235.272 869.5,-219 841.293,-188.98 803.734,-163.929 769.112,-144.777"/>
<polygon fill="none" stroke="#404040" points="769.031,-144.732 761.85,-145.396 758.476,-139.023 765.656,-138.359 769.031,-144.732"/>
<text text-anchor="middle" x="928.5" y="-238.5" font-family="Helvetica,sans-Serif" font-size="10.00"> &#45;hpPainters_</text>
<text text-anchor="middle" x="928.5" y="-227.5" font-family="Helvetica,sans-Serif" font-size="10.00">&#45;ammoPainters_</text>
</g>
<!-- Node11 -->
<g id="node10" class="node"><title>Node11</title>
<polygon fill="white" stroke="#bfbfbf" points="984,-276 984,-333 1091,-333 1091,-276 984,-276"/>
<text text-anchor="middle" x="1037.5" y="-321" font-family="Helvetica,sans-Serif" font-size="10.00">vector&lt; QPixmap * &gt;</text>
<polyline fill="none" stroke="#bfbfbf" points="984,-314 1091,-314 "/>
<text text-anchor="middle" x="1037.5" y="-302" font-family="Helvetica,sans-Serif" font-size="10.00"> </text>
<polyline fill="none" stroke="#bfbfbf" points="984,-295 1091,-295 "/>
<text text-anchor="middle" x="1037.5" y="-283" font-family="Helvetica,sans-Serif" font-size="10.00"> </text>
</g>
<!-- Node11&#45;&gt;Node2 -->
<g id="edge9" class="edge"><title>Node11&#45;&gt;Node2</title>
<path fill="none" stroke="#404040" d="M1020.19,-275.651C1007.71,-257.473 989.418,-234.352 968.5,-219 908.76,-175.156 830.409,-144.905 769.614,-126.089"/>
<polygon fill="none" stroke="#404040" points="769.571,-126.076 762.669,-128.162 758.088,-122.593 764.991,-120.506 769.571,-126.076"/>
<text text-anchor="middle" x="1035" y="-238.5" font-family="Helvetica,sans-Serif" font-size="10.00"> &#45;hpImages_</text>
<text text-anchor="middle" x="1035" y="-227.5" font-family="Helvetica,sans-Serif" font-size="10.00">&#45;ammoImages_</text>
</g>
<!-- Node12 -->
<g id="node11" class="node"><title>Node12</title>
<polygon fill="white" stroke="#bfbfbf" points="1109,-276 1109,-333 1210,-333 1210,-276 1109,-276"/>
<text text-anchor="middle" x="1159.5" y="-321" font-family="Helvetica,sans-Serif" font-size="10.00">vector&lt; QPixmap &gt;</text>
<polyline fill="none" stroke="#bfbfbf" points="1109,-314 1210,-314 "/>
<text text-anchor="middle" x="1159.5" y="-302" font-family="Helvetica,sans-Serif" font-size="10.00"> </text>
<polyline fill="none" stroke="#bfbfbf" points="1109,-295 1210,-295 "/>
<text text-anchor="middle" x="1159.5" y="-283" font-family="Helvetica,sans-Serif" font-size="10.00"> </text>
</g>
<!-- Node12&#45;&gt;Node2 -->
<g id="edge10" class="edge"><title>Node12&#45;&gt;Node2</title>
<path fill="none" stroke="#404040" d="M1137.43,-275.938C1121.25,-257.412 1097.77,-233.769 1072.5,-219 977.4,-163.414 853.929,-132.312 769.898,-116.276"/>
<polygon fill="none" stroke="#404040" points="769.848,-116.267 763.216,-119.099 758.052,-114.066 764.684,-111.234 769.848,-116.267"/>
<text text-anchor="middle" x="1151" y="-233" font-family="Helvetica,sans-Serif" font-size="10.00"> &#45;portraitImages_</text>
</g>
<!-- Node13 -->
<g id="node12" class="node"><title>Node13</title>
<polygon fill="white" stroke="#bfbfbf" points="1228.5,-276 1228.5,-333 1362.5,-333 1362.5,-276 1228.5,-276"/>
<text text-anchor="middle" x="1295.5" y="-321" font-family="Helvetica,sans-Serif" font-size="10.00">vector&lt; QGraphicsView * &gt;</text>
<polyline fill="none" stroke="#bfbfbf" points="1228.5,-314 1362.5,-314 "/>
<text text-anchor="middle" x="1295.5" y="-302" font-family="Helvetica,sans-Serif" font-size="10.00"> </text>
<polyline fill="none" stroke="#bfbfbf" points="1228.5,-295 1362.5,-295 "/>
<text text-anchor="middle" x="1295.5" y="-283" font-family="Helvetica,sans-Serif" font-size="10.00"> </text>
</g>
<!-- Node13&#45;&gt;Node2 -->
<g id="edge11" class="edge"><title>Node13&#45;&gt;Node2</title>
<path fill="none" stroke="#404040" d="M1268.83,-275.952C1249.14,-257.187 1220.79,-233.252 1191.5,-219 1054.03,-152.101 877.303,-122.549 770.134,-110.044"/>
<polygon fill="none" stroke="#404040" points="769.983,-110.026 763.57,-113.324 758.06,-108.672 764.473,-105.375 769.983,-110.026"/>
<text text-anchor="middle" x="1258" y="-233" font-family="Helvetica,sans-Serif" font-size="10.00"> &#45;views_</text>
</g>
</g>
</svg>
        <g id="navigator" transform="translate(0 0)" fill="#404254">
                <rect fill="#f2f5e9" fill-opacity="0.5" stroke="#606060" stroke-width=".5" x="0" y="0" width="60" height="60"/>
                <use id="zoomplus" xlink:href="#zoomPlus" x="17" y="9" onmousedown="handleZoom(evt,'in')"/>
                <use id="zoomminus" xlink:href="#zoomMin" x="42" y="9" onmousedown="handleZoom(evt,'out')"/>
                <use id="reset" xlink:href="#resetDef" x="30" y="36" onmousedown="handleReset()"/>
                <g id="arrowUp" xlink:href="#dirArrow" transform="translate(30 24)" onmousedown="handlePan(0,-1)">
                  <use xlink:href="#rim" fill="#404040">
                        <set attributeName="fill" to="#808080" begin="arrowUp.mouseover" end="arrowUp.mouseout"/>
                  </use>
                  <path fill="none" stroke="white" stroke-width="1.5" d="M0,-3.0v7 M-2.5,-0.5L0,-3.0L2.5,-0.5"/>
                </g>
                <g id="arrowRight" xlink:href="#dirArrow" transform="rotate(90) translate(36 -43)" onmousedown="handlePan(1,0)">
                  <use xlink:href="#rim" fill="#404040">
                        <set attributeName="fill" to="#808080" begin="arrowRight.mouseover" end="arrowRight.mouseout"/>
                  </use>
                  <path fill="none" stroke="white" stroke-width="1.5" d="M0,-3.0v7 M-2.5,-0.5L0,-3.0L2.5,-0.5"/>
                </g>
                <g id="arrowDown" xlink:href="#dirArrow" transform="rotate(180) translate(-30 -48)" onmousedown="handlePan(0,1)">
                  <use xlink:href="#rim" fill="#404040">
                        <set attributeName="fill" to="#808080" begin="arrowDown.mouseover" end="arrowDown.mouseout"/>
                  </use>
                  <path fill="none" stroke="white" stroke-width="1.5" d="M0,-3.0v7 M-2.5,-0.5L0,-3.0L2.5,-0.5"/>
                </g>
                <g id="arrowLeft" xlink:href="#dirArrow" transform="rotate(270) translate(-36 17)" onmousedown="handlePan(-1,0)">
                  <use xlink:href="#rim" fill="#404040">
                        <set attributeName="fill" to="#808080" begin="arrowLeft.mouseover" end="arrowLeft.mouseout"/>
                  </use>
                  <path fill="none" stroke="white" stroke-width="1.5" d="M0,-3.0v7 M-2.5,-0.5L0,-3.0L2.5,-0.5"/>
                </g>
        </g>
        <svg viewBox="0 0 15 15" width="100%" height="30px" preserveAspectRatio="xMaxYMin meet">
         <g id="arrow_out" transform="scale(0.3 0.3)">
          <a xlink:href="class_view_1_1_view_side_display_manager__coll__graph_org.svg" target="_base">
           <rect id="button" ry="5" rx="5" y="6" x="6" height="38" width="38"
                fill="#f2f5e9" fill-opacity="0.5" stroke="#606060" stroke-width="1.0"/>
           <path id="arrow"
             d="M 11.500037,31.436501 C 11.940474,20.09759 22.043105,11.32322 32.158766,21.979434 L 37.068811,17.246167 C 37.068811,17.246167 37.088388,32 37.088388,32 L 22.160133,31.978069 C 22.160133,31.978069 26.997745,27.140456 26.997745,27.140456 C 18.528582,18.264221 13.291696,25.230495 11.500037,31.436501 z"
             style="fill:#404040;"/>
          </a>
         </g>
        </svg>
</svg>
