<?xml version="1.0" encoding="UTF-8" standalone="no"?>
<!DOCTYPE svg PUBLIC "-//W3C//DTD SVG 1.1//EN"
 "http://www.w3.org/Graphics/SVG/1.1/DTD/svg11.dtd">
<!-- Generated by graphviz version 2.38.0 (20140413.2041)
 -->
<!-- Title: Model::ParkingHall Pages: 1 -->
<svg width="619pt" height="468pt"
 viewBox="0.00 0.00 619.00 468.00" xmlns="http://www.w3.org/2000/svg" xmlns:xlink="http://www.w3.org/1999/xlink">
<g id="graph0" class="graph" transform="scale(1 1) rotate(0) translate(4 464)">
<title>Model::ParkingHall</title>
<polygon fill="white" stroke="none" points="-4,4 -4,-464 615,-464 615,4 -4,4"/>
<!-- Node2 -->
<g id="node1" class="node"><title>Node2</title>
<polygon fill="#bfbfbf" stroke="black" points="234.5,-0.5 234.5,-167.5 365.5,-167.5 365.5,-0.5 234.5,-0.5"/>
<text text-anchor="middle" x="300" y="-155.5" font-family="Helvetica,sans-Serif" font-size="10.00">Model::ParkingHall</text>
<polyline fill="none" stroke="black" points="234.5,-148.5 365.5,-148.5 "/>
<text text-anchor="middle" x="300" y="-136.5" font-family="Helvetica,sans-Serif" font-size="10.00"> </text>
<polyline fill="none" stroke="black" points="234.5,-129.5 365.5,-129.5 "/>
<text text-anchor="start" x="242.5" y="-117.5" font-family="Helvetica,sans-Serif" font-size="10.00">+ ParkingHall()</text>
<text text-anchor="start" x="242.5" y="-106.5" font-family="Helvetica,sans-Serif" font-size="10.00">+ ParkingHall()</text>
<text text-anchor="start" x="242.5" y="-95.5" font-family="Helvetica,sans-Serif" font-size="10.00">+ getId()</text>
<text text-anchor="start" x="242.5" y="-84.5" font-family="Helvetica,sans-Serif" font-size="10.00">+ getName()</text>
<text text-anchor="start" x="242.5" y="-73.5" font-family="Helvetica,sans-Serif" font-size="10.00">+ getCarCount()</text>
<text text-anchor="start" x="242.5" y="-62.5" font-family="Helvetica,sans-Serif" font-size="10.00">+ getParkingSpaceCount()</text>
<text text-anchor="start" x="242.5" y="-51.5" font-family="Helvetica,sans-Serif" font-size="10.00">+ isPlayerOwned()</text>
<text text-anchor="start" x="242.5" y="-40.5" font-family="Helvetica,sans-Serif" font-size="10.00">+ getLongitude()</text>
<text text-anchor="start" x="242.5" y="-29.5" font-family="Helvetica,sans-Serif" font-size="10.00">+ getLatitude()</text>
<text text-anchor="start" x="242.5" y="-18.5" font-family="Helvetica,sans-Serif" font-size="10.00">+ getLayout()</text>
<text text-anchor="start" x="242.5" y="-7.5" font-family="Helvetica,sans-Serif" font-size="10.00">and 14 more...</text>
</g>
<!-- Node3 -->
<g id="node2" class="node"><title>Node3</title>
<g id="a_node2"><a xlink:href="class_interface_1_1_parking_hall_interface.html" target="_top" xlink:title="{Interface::ParkingHallInterface\n||+ ParkingHallInterface()\l+ ~ParkingHallInterface()\l+ getId()\l+ getName()\l+ getCarCount()\l+ getParkingSpaceCount()\l+ isPlayerOwned()\l+ getLongitude()\l+ getLatitude()\l+ isInTampere()\l+ getLayout()\l+ getMonetaryValue()\l}">
<polygon fill="white" stroke="black" points="0,-281.5 0,-459.5 146,-459.5 146,-281.5 0,-281.5"/>
<text text-anchor="middle" x="73" y="-447.5" font-family="Helvetica,sans-Serif" font-size="10.00">Interface::ParkingHallInterface</text>
<polyline fill="none" stroke="black" points="0,-440.5 146,-440.5 "/>
<text text-anchor="middle" x="73" y="-428.5" font-family="Helvetica,sans-Serif" font-size="10.00"> </text>
<polyline fill="none" stroke="black" points="0,-421.5 146,-421.5 "/>
<text text-anchor="start" x="8" y="-409.5" font-family="Helvetica,sans-Serif" font-size="10.00">+ ParkingHallInterface()</text>
<text text-anchor="start" x="8" y="-398.5" font-family="Helvetica,sans-Serif" font-size="10.00">+ ~ParkingHallInterface()</text>
<text text-anchor="start" x="8" y="-387.5" font-family="Helvetica,sans-Serif" font-size="10.00">+ getId()</text>
<text text-anchor="start" x="8" y="-376.5" font-family="Helvetica,sans-Serif" font-size="10.00">+ getName()</text>
<text text-anchor="start" x="8" y="-365.5" font-family="Helvetica,sans-Serif" font-size="10.00">+ getCarCount()</text>
<text text-anchor="start" x="8" y="-354.5" font-family="Helvetica,sans-Serif" font-size="10.00">+ getParkingSpaceCount()</text>
<text text-anchor="start" x="8" y="-343.5" font-family="Helvetica,sans-Serif" font-size="10.00">+ isPlayerOwned()</text>
<text text-anchor="start" x="8" y="-332.5" font-family="Helvetica,sans-Serif" font-size="10.00">+ getLongitude()</text>
<text text-anchor="start" x="8" y="-321.5" font-family="Helvetica,sans-Serif" font-size="10.00">+ getLatitude()</text>
<text text-anchor="start" x="8" y="-310.5" font-family="Helvetica,sans-Serif" font-size="10.00">+ isInTampere()</text>
<text text-anchor="start" x="8" y="-299.5" font-family="Helvetica,sans-Serif" font-size="10.00">+ getLayout()</text>
<text text-anchor="start" x="8" y="-288.5" font-family="Helvetica,sans-Serif" font-size="10.00">+ getMonetaryValue()</text>
</a>
</g>
</g>
<!-- Node3&#45;&gt;Node2 -->
<g id="edge1" class="edge"><title>Node3&#45;&gt;Node2</title>
<path fill="none" stroke="midnightblue" d="M123.518,-272.245C140.617,-243.194 161.007,-212.146 183,-186 198.114,-168.032 216.565,-150.547 234.306,-135.315"/>
<polygon fill="none" stroke="midnightblue" points="120.318,-270.785 118.318,-281.189 126.37,-274.303 120.318,-270.785"/>
</g>
<!-- Node4 -->
<g id="node3" class="node"><title>Node4</title>
<polygon fill="white" stroke="#bfbfbf" points="164.5,-342 164.5,-399 209.5,-399 209.5,-342 164.5,-342"/>
<text text-anchor="middle" x="187" y="-387" font-family="Helvetica,sans-Serif" font-size="10.00">double</text>
<polyline fill="none" stroke="#bfbfbf" points="164.5,-380 209.5,-380 "/>
<text text-anchor="middle" x="187" y="-368" font-family="Helvetica,sans-Serif" font-size="10.00"> </text>
<polyline fill="none" stroke="#bfbfbf" points="164.5,-361 209.5,-361 "/>
<text text-anchor="middle" x="187" y="-349" font-family="Helvetica,sans-Serif" font-size="10.00"> </text>
</g>
<!-- Node4&#45;&gt;Node2 -->
<g id="edge2" class="edge"><title>Node4&#45;&gt;Node2</title>
<path fill="none" stroke="#404040" d="M184.35,-341.969C181.932,-304.793 181.704,-237.297 205,-186 210.543,-173.794 218.17,-162.12 226.712,-151.322"/>
<polygon fill="none" stroke="#404040" points="226.741,-151.287 227.51,-144.117 234.424,-142.069 233.655,-149.239 226.741,-151.287"/>
<text text-anchor="middle" x="229" y="-227.5" font-family="Helvetica,sans-Serif" font-size="10.00"> &#45;latitude_</text>
<text text-anchor="middle" x="229" y="-216.5" font-family="Helvetica,sans-Serif" font-size="10.00">&#45;longitude_</text>
</g>
<!-- Node5 -->
<g id="node4" class="node"><title>Node5</title>
<polygon fill="white" stroke="#bfbfbf" points="228,-342 228,-399 278,-399 278,-342 228,-342"/>
<text text-anchor="middle" x="253" y="-387" font-family="Helvetica,sans-Serif" font-size="10.00">QString</text>
<polyline fill="none" stroke="#bfbfbf" points="228,-380 278,-380 "/>
<text text-anchor="middle" x="253" y="-368" font-family="Helvetica,sans-Serif" font-size="10.00"> </text>
<polyline fill="none" stroke="#bfbfbf" points="228,-361 278,-361 "/>
<text text-anchor="middle" x="253" y="-349" font-family="Helvetica,sans-Serif" font-size="10.00"> </text>
</g>
<!-- Node5&#45;&gt;Node2 -->
<g id="edge3" class="edge"><title>Node5&#45;&gt;Node2</title>
<path fill="none" stroke="#404040" d="M253.057,-341.864C253.597,-305.705 256.175,-240.529 267,-186 267.432,-183.822 267.897,-181.625 268.39,-179.416"/>
<polygon fill="none" stroke="#404040" points="268.445,-179.189 265.973,-172.415 271.274,-167.527 273.747,-174.301 268.445,-179.189"/>
<text text-anchor="middle" x="290" y="-249.5" font-family="Helvetica,sans-Serif" font-size="10.00"> &#45;address_</text>
<text text-anchor="middle" x="290" y="-238.5" font-family="Helvetica,sans-Serif" font-size="10.00">&#45;name_</text>
<text text-anchor="middle" x="290" y="-227.5" font-family="Helvetica,sans-Serif" font-size="10.00">&#45;layout_</text>
<text text-anchor="middle" x="290" y="-216.5" font-family="Helvetica,sans-Serif" font-size="10.00">&#45;id_</text>
<text text-anchor="middle" x="290" y="-205.5" font-family="Helvetica,sans-Serif" font-size="10.00">&#45;city_</text>
<text text-anchor="middle" x="290" y="-194.5" font-family="Helvetica,sans-Serif" font-size="10.00">&#45;street_</text>
</g>
<!-- Node6 -->
<g id="node5" class="node"><title>Node6</title>
<polygon fill="white" stroke="#bfbfbf" points="296.5,-342 296.5,-399 389.5,-399 389.5,-342 296.5,-342"/>
<text text-anchor="middle" x="343" y="-387" font-family="Helvetica,sans-Serif" font-size="10.00">vector&lt; QString &gt;</text>
<polyline fill="none" stroke="#bfbfbf" points="296.5,-380 389.5,-380 "/>
<text text-anchor="middle" x="343" y="-368" font-family="Helvetica,sans-Serif" font-size="10.00"> </text>
<polyline fill="none" stroke="#bfbfbf" points="296.5,-361 389.5,-361 "/>
<text text-anchor="middle" x="343" y="-349" font-family="Helvetica,sans-Serif" font-size="10.00"> </text>
</g>
<!-- Node6&#45;&gt;Node2 -->
<g id="edge4" class="edge"><title>Node6&#45;&gt;Node2</title>
<path fill="none" stroke="#404040" d="M338.838,-341.962C333.21,-304.728 322.89,-236.445 314.302,-179.624"/>
<polygon fill="none" stroke="#404040" points="314.291,-179.553 309.439,-174.218 312.498,-167.688 317.349,-173.023 314.291,-179.553"/>
<text text-anchor="middle" x="345" y="-222" font-family="Helvetica,sans-Serif" font-size="10.00"> &#45;types_</text>
</g>
<!-- Node7 -->
<g id="node6" class="node"><title>Node7</title>
<polygon fill="white" stroke="#bfbfbf" points="407.5,-342 407.5,-399 436.5,-399 436.5,-342 407.5,-342"/>
<text text-anchor="middle" x="422" y="-387" font-family="Helvetica,sans-Serif" font-size="10.00">int</text>
<polyline fill="none" stroke="#bfbfbf" points="407.5,-380 436.5,-380 "/>
<text text-anchor="middle" x="422" y="-368" font-family="Helvetica,sans-Serif" font-size="10.00"> </text>
<polyline fill="none" stroke="#bfbfbf" points="407.5,-361 436.5,-361 "/>
<text text-anchor="middle" x="422" y="-349" font-family="Helvetica,sans-Serif" font-size="10.00"> </text>
</g>
<!-- Node7&#45;&gt;Node2 -->
<g id="edge5" class="edge"><title>Node7&#45;&gt;Node2</title>
<path fill="none" stroke="#404040" d="M414.897,-341.892C410.298,-324.383 404.057,-301.288 398,-281 385.295,-238.443 386.341,-225.981 367,-186 365.763,-183.443 364.47,-180.874 363.131,-178.303"/>
<polygon fill="none" stroke="#404040" points="363.118,-178.28 356.738,-174.92 357.386,-167.738 363.766,-171.098 363.118,-178.28"/>
<text text-anchor="start" x="393" y="-255" font-family="Helvetica,sans-Serif" font-size="10.00"> &#45;parkingOccupiedCount</text>
<text text-anchor="middle" x="445.5" y="-244" font-family="Helvetica,sans-Serif" font-size="10.00">_</text>
<text text-anchor="middle" x="445.5" y="-233" font-family="Helvetica,sans-Serif" font-size="10.00">&#45;postnumber_</text>
<text text-anchor="start" x="393" y="-222" font-family="Helvetica,sans-Serif" font-size="10.00">&#45;parkingSpaceCount</text>
<text text-anchor="middle" x="445.5" y="-211" font-family="Helvetica,sans-Serif" font-size="10.00">_</text>
<text text-anchor="start" x="393" y="-200" font-family="Helvetica,sans-Serif" font-size="10.00">&#45;parkingVacantParking</text>
<text text-anchor="middle" x="445.5" y="-189" font-family="Helvetica,sans-Serif" font-size="10.00">Count_</text>
</g>
<!-- Node8 -->
<g id="node7" class="node"><title>Node8</title>
<polygon fill="white" stroke="#bfbfbf" points="522.5,-342 522.5,-399 557.5,-399 557.5,-342 522.5,-342"/>
<text text-anchor="middle" x="540" y="-387" font-family="Helvetica,sans-Serif" font-size="10.00">bool</text>
<polyline fill="none" stroke="#bfbfbf" points="522.5,-380 557.5,-380 "/>
<text text-anchor="middle" x="540" y="-368" font-family="Helvetica,sans-Serif" font-size="10.00"> </text>
<polyline fill="none" stroke="#bfbfbf" points="522.5,-361 557.5,-361 "/>
<text text-anchor="middle" x="540" y="-349" font-family="Helvetica,sans-Serif" font-size="10.00"> </text>
</g>
<!-- Node8&#45;&gt;Node2 -->
<g id="edge6" class="edge"><title>Node8&#45;&gt;Node2</title>
<path fill="none" stroke="#404040" d="M541.396,-341.886C541.912,-303.084 537.406,-232.03 502,-186 471.234,-146.002 420.348,-120.694 377.348,-105.414"/>
<polygon fill="none" stroke="#404040" points="377.101,-105.33 370.131,-107.182 365.742,-101.461 372.711,-99.6093 377.101,-105.33"/>
<text text-anchor="middle" x="572.5" y="-222" font-family="Helvetica,sans-Serif" font-size="10.00"> &#45;isPlayerOwned_</text>
</g>
</g>
</svg>
