<?xml version="1.0" encoding="UTF-8" standalone="no"?>
<!DOCTYPE svg PUBLIC "-//W3C//DTD SVG 1.1//EN"
 "http://www.w3.org/Graphics/SVG/1.1/DTD/svg11.dtd">
<!-- Generated by graphviz version 2.38.0 (20140413.2041)
 -->
<!-- Title: View::ActionScenePC::moved Pages: 1 -->
<svg width="419pt" height="88pt"
 viewBox="0.00 0.00 419.00 88.00" xmlns="http://www.w3.org/2000/svg" xmlns:xlink="http://www.w3.org/1999/xlink">
<g id="graph0" class="graph" transform="scale(1 1) rotate(0) translate(4 84)">
<title>View::ActionScenePC::moved</title>
<polygon fill="white" stroke="none" points="-4,4 -4,-84 415,-84 415,4 -4,4"/>
<!-- Node43 -->
<g id="node1" class="node"><title>Node43</title>
<polygon fill="#bfbfbf" stroke="black" points="0,-22.5 0,-52.5 113,-52.5 113,-22.5 0,-22.5"/>
<text text-anchor="start" x="8" y="-40.5" font-family="Helvetica,sans-Serif" font-size="10.00">View::ActionScenePC</text>
<text text-anchor="middle" x="56.5" y="-29.5" font-family="Helvetica,sans-Serif" font-size="10.00">::moved</text>
</g>
<!-- Node44 -->
<g id="node2" class="node"><title>Node44</title>
<g id="a_node2"><a xlink:href="class_view_1_1_action_scene_p_c.html#ad27f69a4e9c1a4f89e7306294d182d51" target="_top" xlink:title="View::ActionScenePC\l::step">
<polygon fill="white" stroke="black" points="149,-44.5 149,-74.5 262,-74.5 262,-44.5 149,-44.5"/>
<text text-anchor="start" x="157" y="-62.5" font-family="Helvetica,sans-Serif" font-size="10.00">View::ActionScenePC</text>
<text text-anchor="middle" x="205.5" y="-51.5" font-family="Helvetica,sans-Serif" font-size="10.00">::step</text>
</a>
</g>
</g>
<!-- Node43&#45;&gt;Node44 -->
<g id="edge1" class="edge"><title>Node43&#45;&gt;Node44</title>
<path fill="none" stroke="midnightblue" d="M123.078,-47.3143C131.681,-48.6018 140.43,-49.9113 148.847,-51.171"/>
<polygon fill="midnightblue" stroke="midnightblue" points="123.482,-43.836 113.074,-45.8173 122.446,-50.7589 123.482,-43.836"/>
</g>
<!-- Node46 -->
<g id="node4" class="node"><title>Node46</title>
<g id="a_node4"><a xlink:href="class_view_1_1_action_scene_p_c.html#a7afaff64d6ed89491e87924461270084" target="_top" xlink:title="View::ActionScenePC\l::type">
<polygon fill="white" stroke="black" points="298,-0.5 298,-30.5 411,-30.5 411,-0.5 298,-0.5"/>
<text text-anchor="start" x="306" y="-18.5" font-family="Helvetica,sans-Serif" font-size="10.00">View::ActionScenePC</text>
<text text-anchor="middle" x="354.5" y="-7.5" font-family="Helvetica,sans-Serif" font-size="10.00">::type</text>
</a>
</g>
</g>
<!-- Node43&#45;&gt;Node46 -->
<g id="edge4" class="edge"><title>Node43&#45;&gt;Node46</title>
<path fill="none" stroke="midnightblue" d="M123.376,-32.6038C175.781,-28.7088 248.289,-23.3198 297.823,-19.6381"/>
<polygon fill="midnightblue" stroke="midnightblue" points="122.888,-29.1303 113.175,-33.362 123.407,-36.1111 122.888,-29.1303"/>
</g>
<!-- Node45 -->
<g id="node3" class="node"><title>Node45</title>
<g id="a_node3"><a xlink:href="class_view_1_1_action_scene_p_c.html#a714b6915be90d0961d30be1cc19056b9" target="_top" xlink:title="View::ActionScenePC\l::ActionScenePC">
<polygon fill="white" stroke="black" points="298,-49.5 298,-79.5 411,-79.5 411,-49.5 298,-49.5"/>
<text text-anchor="start" x="306" y="-67.5" font-family="Helvetica,sans-Serif" font-size="10.00">View::ActionScenePC</text>
<text text-anchor="middle" x="354.5" y="-56.5" font-family="Helvetica,sans-Serif" font-size="10.00">::ActionScenePC</text>
</a>
</g>
</g>
<!-- Node44&#45;&gt;Node45 -->
<g id="edge2" class="edge"><title>Node44&#45;&gt;Node45</title>
<path fill="none" stroke="midnightblue" d="M272.078,-61.7305C280.681,-62.0231 289.43,-62.3207 297.847,-62.607"/>
<polygon fill="midnightblue" stroke="midnightblue" points="272.188,-58.2323 262.074,-61.3903 271.95,-65.2283 272.188,-58.2323"/>
</g>
<!-- Node44&#45;&gt;Node46 -->
<g id="edge3" class="edge"><title>Node44&#45;&gt;Node46</title>
<path fill="none" stroke="midnightblue" d="M266.317,-41.5955C278.509,-37.9462 291.222,-34.141 303.049,-30.6009"/>
<polygon fill="midnightblue" stroke="midnightblue" points="265.254,-38.2602 256.678,-44.4808 267.262,-44.9662 265.254,-38.2602"/>
</g>
</g>
</svg>
