<?xml version="1.0" encoding="UTF-8" standalone="no"?>
<!DOCTYPE svg PUBLIC "-//W3C//DTD SVG 1.1//EN"
 "http://www.w3.org/Graphics/SVG/1.1/DTD/svg11.dtd">
<!-- Generated by graphviz version 2.38.0 (20140413.2041)
 -->
<!-- Title: View::ActionScene::addFloor Pages: 1 -->
<svg width="395pt" height="102pt"
 viewBox="0.00 0.00 395.00 102.35" xmlns="http://www.w3.org/2000/svg" xmlns:xlink="http://www.w3.org/1999/xlink">
<g id="graph0" class="graph" transform="scale(1 1) rotate(0) translate(4 98.3545)">
<title>View::ActionScene::addFloor</title>
<polygon fill="white" stroke="none" points="-4,4 -4,-98.3545 391,-98.3545 391,4 -4,4"/>
<!-- Node54 -->
<g id="node1" class="node"><title>Node54</title>
<polygon fill="#bfbfbf" stroke="black" points="0,-49.5 0,-79.5 105,-79.5 105,-49.5 0,-49.5"/>
<text text-anchor="start" x="8" y="-67.5" font-family="Helvetica,sans-Serif" font-size="10.00">View::ActionScene::</text>
<text text-anchor="middle" x="52.5" y="-56.5" font-family="Helvetica,sans-Serif" font-size="10.00">addFloor</text>
</g>
<!-- Node55 -->
<g id="node2" class="node"><title>Node55</title>
<g id="a_node2"><a xlink:href="class_view_1_1_action_scene.html#ade415911403812f06b29a9e1933ea678" target="_top" xlink:title="View::ActionScene::\lActionScene">
<polygon fill="white" stroke="black" points="282,-49.5 282,-79.5 387,-79.5 387,-49.5 282,-49.5"/>
<text text-anchor="start" x="290" y="-67.5" font-family="Helvetica,sans-Serif" font-size="10.00">View::ActionScene::</text>
<text text-anchor="middle" x="334.5" y="-56.5" font-family="Helvetica,sans-Serif" font-size="10.00">ActionScene</text>
</a>
</g>
</g>
<!-- Node54&#45;&gt;Node55 -->
<g id="edge1" class="edge"><title>Node54&#45;&gt;Node55</title>
<path fill="none" stroke="midnightblue" d="M106.703,-82.2434C117.908,-85.2597 129.746,-87.9238 141,-89.5 187.216,-95.9727 199.784,-95.9727 246,-89.5 260.551,-87.4621 276.077,-83.6055 289.95,-79.5206"/>
<polygon fill="midnightblue" stroke="midnightblue" points="107.624,-78.8668 97.0498,-79.5206 105.724,-85.6039 107.624,-78.8668"/>
</g>
<!-- Node56 -->
<g id="node3" class="node"><title>Node56</title>
<g id="a_node3"><a xlink:href="class_view_1_1_action_scene.html#acb081c1f39c5139bcdfcde6ef14fdefe" target="_top" xlink:title="View::ActionScene::\laddExit">
<polygon fill="white" stroke="black" points="141,-49.5 141,-79.5 246,-79.5 246,-49.5 141,-49.5"/>
<text text-anchor="start" x="149" y="-67.5" font-family="Helvetica,sans-Serif" font-size="10.00">View::ActionScene::</text>
<text text-anchor="middle" x="193.5" y="-56.5" font-family="Helvetica,sans-Serif" font-size="10.00">addExit</text>
</a>
</g>
</g>
<!-- Node54&#45;&gt;Node56 -->
<g id="edge2" class="edge"><title>Node54&#45;&gt;Node56</title>
<path fill="none" stroke="midnightblue" d="M115.441,-64.5C123.878,-64.5 132.466,-64.5 140.698,-64.5"/>
<polygon fill="midnightblue" stroke="midnightblue" points="115.259,-61.0001 105.258,-64.5 115.258,-68.0001 115.259,-61.0001"/>
</g>
<!-- Node57 -->
<g id="node4" class="node"><title>Node57</title>
<g id="a_node4"><a xlink:href="class_view_1_1_action_scene.html#a3204a5607fe245f150aaa71dd7fcf4eb" target="_top" xlink:title="View::ActionScene::\laddGuard">
<polygon fill="white" stroke="black" points="141,-0.5 141,-30.5 246,-30.5 246,-0.5 141,-0.5"/>
<text text-anchor="start" x="149" y="-18.5" font-family="Helvetica,sans-Serif" font-size="10.00">View::ActionScene::</text>
<text text-anchor="middle" x="193.5" y="-7.5" font-family="Helvetica,sans-Serif" font-size="10.00">addGuard</text>
</a>
</g>
</g>
<!-- Node54&#45;&gt;Node57 -->
<g id="edge4" class="edge"><title>Node54&#45;&gt;Node57</title>
<path fill="none" stroke="midnightblue" d="M106.08,-45.9645C120.435,-40.9041 135.815,-35.4823 149.563,-30.6359"/>
<polygon fill="midnightblue" stroke="midnightblue" points="104.606,-42.7729 96.3388,-49.3986 106.934,-49.3747 104.606,-42.7729"/>
</g>
<!-- Node56&#45;&gt;Node55 -->
<g id="edge3" class="edge"><title>Node56&#45;&gt;Node55</title>
<path fill="none" stroke="midnightblue" d="M256.441,-64.5C264.878,-64.5 273.466,-64.5 281.698,-64.5"/>
<polygon fill="midnightblue" stroke="midnightblue" points="256.259,-61.0001 246.258,-64.5 256.258,-68.0001 256.259,-61.0001"/>
</g>
<!-- Node57&#45;&gt;Node55 -->
<g id="edge5" class="edge"><title>Node57&#45;&gt;Node55</title>
<path fill="none" stroke="midnightblue" d="M247.08,-34.0355C261.435,-39.0959 276.815,-44.5177 290.563,-49.3641"/>
<polygon fill="midnightblue" stroke="midnightblue" points="247.934,-30.6253 237.339,-30.6014 245.606,-37.2271 247.934,-30.6253"/>
</g>
</g>
</svg>
