<?xml version="1.0" encoding="UTF-8" standalone="no"?>
<!DOCTYPE svg PUBLIC "-//W3C//DTD SVG 1.1//EN"
 "http://www.w3.org/Graphics/SVG/1.1/DTD/svg11.dtd">
<!-- Generated by graphviz version 2.38.0 (20140413.2041)
 -->
<!-- Title: Model::mapGenerator::GetSurroundingWallCount Pages: 1 -->
<svg width="289pt" height="88pt"
 viewBox="0.00 0.00 289.00 88.00" xmlns="http://www.w3.org/2000/svg" xmlns:xlink="http://www.w3.org/1999/xlink">
<g id="graph0" class="graph" transform="scale(1 1) rotate(0) translate(4 84)">
<title>Model::mapGenerator::GetSurroundingWallCount</title>
<polygon fill="white" stroke="none" points="-4,4 -4,-84 285,-84 285,4 -4,4"/>
<!-- Node44 -->
<g id="node1" class="node"><title>Node44</title>
<polygon fill="#bfbfbf" stroke="black" points="0,-24.5 0,-54.5 135,-54.5 135,-24.5 0,-24.5"/>
<text text-anchor="start" x="8" y="-42.5" font-family="Helvetica,sans-Serif" font-size="10.00">Model::mapGenerator</text>
<text text-anchor="middle" x="67.5" y="-31.5" font-family="Helvetica,sans-Serif" font-size="10.00">::GetSurroundingWallCount</text>
</g>
<!-- Node45 -->
<g id="node2" class="node"><title>Node45</title>
<g id="a_node2"><a xlink:href="class_model_1_1map_generator.html#a02b91ca9a47b993e6fa14b9b0ad317f2" target="_top" xlink:title="Get tile from point in tile coordinates. ">
<polygon fill="white" stroke="black" points="171,-49.5 171,-79.5 281,-79.5 281,-49.5 171,-49.5"/>
<text text-anchor="start" x="179" y="-67.5" font-family="Helvetica,sans-Serif" font-size="10.00">Model::mapGenerator</text>
<text text-anchor="middle" x="226" y="-56.5" font-family="Helvetica,sans-Serif" font-size="10.00">::getTile</text>
</a>
</g>
</g>
<!-- Node44&#45;&gt;Node45 -->
<g id="edge1" class="edge"><title>Node44&#45;&gt;Node45</title>
<path fill="none" stroke="midnightblue" d="M135.324,-50.1748C143.711,-51.5145 152.277,-52.8829 160.625,-54.2165"/>
<polygon fill="midnightblue" stroke="midnightblue" points="160.247,-57.7004 170.674,-55.8217 161.351,-50.788 160.247,-57.7004"/>
</g>
<!-- Node46 -->
<g id="node3" class="node"><title>Node46</title>
<g id="a_node3"><a xlink:href="class_model_1_1map_generator.html#a244ad56297f00ce2ab892d3b2a14ffac" target="_top" xlink:title="Model::mapGenerator\l::isInMapRange">
<polygon fill="white" stroke="black" points="171,-0.5 171,-30.5 281,-30.5 281,-0.5 171,-0.5"/>
<text text-anchor="start" x="179" y="-18.5" font-family="Helvetica,sans-Serif" font-size="10.00">Model::mapGenerator</text>
<text text-anchor="middle" x="226" y="-7.5" font-family="Helvetica,sans-Serif" font-size="10.00">::isInMapRange</text>
</a>
</g>
</g>
<!-- Node44&#45;&gt;Node46 -->
<g id="edge2" class="edge"><title>Node44&#45;&gt;Node46</title>
<path fill="none" stroke="midnightblue" d="M135.324,-29.2522C143.711,-27.966 152.277,-26.6524 160.625,-25.3721"/>
<polygon fill="midnightblue" stroke="midnightblue" points="161.32,-28.8066 170.674,-23.8311 160.259,-21.8875 161.32,-28.8066"/>
</g>
</g>
</svg>
