<?xml version="1.0" encoding="UTF-8" standalone="no"?>
<!DOCTYPE svg PUBLIC "-//W3C//DTD SVG 1.1//EN"
 "http://www.w3.org/Graphics/SVG/1.1/DTD/svg11.dtd">
<!-- Generated by graphviz version 2.38.0 (20140413.2041)
 -->
<!-- Title: Model::Player::reduceMoney Pages: 1 -->
<svg width="285pt" height="88pt"
 viewBox="0.00 0.00 285.00 88.00" xmlns="http://www.w3.org/2000/svg" xmlns:xlink="http://www.w3.org/1999/xlink">
<g id="graph0" class="graph" transform="scale(1 1) rotate(0) translate(4 84)">
<title>Model::Player::reduceMoney</title>
<polygon fill="white" stroke="none" points="-4,4 -4,-84 281,-84 281,4 -4,4"/>
<!-- Node46 -->
<g id="node1" class="node"><title>Node46</title>
<polygon fill="#bfbfbf" stroke="black" points="0,-30 0,-49 141,-49 141,-30 0,-30"/>
<text text-anchor="middle" x="70.5" y="-37" font-family="Helvetica,sans-Serif" font-size="10.00">Model::Player::reduceMoney</text>
</g>
<!-- Node47 -->
<g id="node2" class="node"><title>Node47</title>
<g id="a_node2"><a xlink:href="class_model_1_1_player_party.html#a53b10685aae564a3efd860b75b1fd2b4" target="_top" xlink:title="Model::PlayerParty\l::healCyborg">
<polygon fill="white" stroke="black" points="177,-49.5 177,-79.5 277,-79.5 277,-49.5 177,-49.5"/>
<text text-anchor="start" x="185" y="-67.5" font-family="Helvetica,sans-Serif" font-size="10.00">Model::PlayerParty</text>
<text text-anchor="middle" x="227" y="-56.5" font-family="Helvetica,sans-Serif" font-size="10.00">::healCyborg</text>
</a>
</g>
</g>
<!-- Node46&#45;&gt;Node47 -->
<g id="edge1" class="edge"><title>Node46&#45;&gt;Node47</title>
<path fill="none" stroke="midnightblue" d="M140.544,-50.6722C152.79,-52.6537 165.314,-54.6802 176.866,-56.5496"/>
<polygon fill="midnightblue" stroke="midnightblue" points="140.781,-47.1651 130.351,-49.0227 139.663,-54.0752 140.781,-47.1651"/>
</g>
<!-- Node48 -->
<g id="node3" class="node"><title>Node48</title>
<g id="a_node3"><a xlink:href="class_model_1_1_player_party.html#a9d78fcd7e163b6ec2354f48d008ae191" target="_top" xlink:title="Model::PlayerParty\l::reloadWeapon">
<polygon fill="white" stroke="black" points="177,-0.5 177,-30.5 277,-30.5 277,-0.5 177,-0.5"/>
<text text-anchor="start" x="185" y="-18.5" font-family="Helvetica,sans-Serif" font-size="10.00">Model::PlayerParty</text>
<text text-anchor="middle" x="227" y="-7.5" font-family="Helvetica,sans-Serif" font-size="10.00">::reloadWeapon</text>
</a>
</g>
</g>
<!-- Node46&#45;&gt;Node48 -->
<g id="edge2" class="edge"><title>Node46&#45;&gt;Node48</title>
<path fill="none" stroke="midnightblue" d="M142.938,-28.4029C154.317,-26.6352 165.865,-24.8413 176.587,-23.1757"/>
<polygon fill="midnightblue" stroke="midnightblue" points="142.351,-24.952 133.006,-29.9456 143.425,-31.8691 142.351,-24.952"/>
</g>
</g>
</svg>
