<?xml version="1.0" encoding="UTF-8" standalone="no"?>
<!DOCTYPE svg PUBLIC "-//W3C//DTD SVG 1.1//EN"
 "http://www.w3.org/Graphics/SVG/1.1/DTD/svg11.dtd">
<!-- Generated by graphviz version 2.38.0 (20140413.2041)
 -->
<!-- Title: View::CityScapeParkingHall::getY Pages: 1 -->
<svg width="325pt" height="137pt"
 viewBox="0.00 0.00 325.00 137.00" xmlns="http://www.w3.org/2000/svg" xmlns:xlink="http://www.w3.org/1999/xlink">
<g id="graph0" class="graph" transform="scale(1 1) rotate(0) translate(4 133)">
<title>View::CityScapeParkingHall::getY</title>
<polygon fill="white" stroke="none" points="-4,4 -4,-133 321,-133 321,4 -4,4"/>
<!-- Node14 -->
<g id="node1" class="node"><title>Node14</title>
<polygon fill="#bfbfbf" stroke="black" points="0,-49.5 0,-79.5 138,-79.5 138,-49.5 0,-49.5"/>
<text text-anchor="start" x="8" y="-67.5" font-family="Helvetica,sans-Serif" font-size="10.00">View::CityScapeParkingHall</text>
<text text-anchor="middle" x="69" y="-56.5" font-family="Helvetica,sans-Serif" font-size="10.00">::getY</text>
</g>
<!-- Node15 -->
<g id="node2" class="node"><title>Node15</title>
<g id="a_node2"><a xlink:href="class_view_1_1_city_scape.html#ae229758379e42e2a876a571439ed2e71" target="_top" xlink:title="View::CityScape::addParking\lHalls">
<polygon fill="white" stroke="black" points="174,-98.5 174,-128.5 317,-128.5 317,-98.5 174,-98.5"/>
<text text-anchor="start" x="182" y="-116.5" font-family="Helvetica,sans-Serif" font-size="10.00">View::CityScape::addParking</text>
<text text-anchor="middle" x="245.5" y="-105.5" font-family="Helvetica,sans-Serif" font-size="10.00">Halls</text>
</a>
</g>
</g>
<!-- Node14&#45;&gt;Node15 -->
<g id="edge1" class="edge"><title>Node14&#45;&gt;Node15</title>
<path fill="none" stroke="midnightblue" d="M133.465,-82.3212C152.306,-87.6118 172.749,-93.3522 190.898,-98.4484"/>
<polygon fill="midnightblue" stroke="midnightblue" points="134.353,-78.9353 123.78,-79.6014 132.461,-85.6746 134.353,-78.9353"/>
</g>
<!-- Node16 -->
<g id="node3" class="node"><title>Node16</title>
<g id="a_node3"><a xlink:href="class_view_1_1_city_scape_parking_hall.html#a95a22798f57214a1741f260ad8692512" target="_top" xlink:title="View::CityScapeParkingHall\l::CityScapeParkingHall">
<polygon fill="white" stroke="black" points="176.5,-49.5 176.5,-79.5 314.5,-79.5 314.5,-49.5 176.5,-49.5"/>
<text text-anchor="start" x="184.5" y="-67.5" font-family="Helvetica,sans-Serif" font-size="10.00">View::CityScapeParkingHall</text>
<text text-anchor="middle" x="245.5" y="-56.5" font-family="Helvetica,sans-Serif" font-size="10.00">::CityScapeParkingHall</text>
</a>
</g>
</g>
<!-- Node14&#45;&gt;Node16 -->
<g id="edge2" class="edge"><title>Node14&#45;&gt;Node16</title>
<path fill="none" stroke="midnightblue" d="M148.29,-64.5C157.644,-64.5 167.136,-64.5 176.331,-64.5"/>
<polygon fill="midnightblue" stroke="midnightblue" points="148.216,-61.0001 138.216,-64.5 148.216,-68.0001 148.216,-61.0001"/>
</g>
<!-- Node17 -->
<g id="node4" class="node"><title>Node17</title>
<g id="a_node4"><a xlink:href="class_view_1_1_city_scape_parking_hall.html#a8e5feee06e843eefee8e4f77ed6c108f" target="_top" xlink:title="View::CityScapeParkingHall\l::hoverEnterEvent">
<polygon fill="white" stroke="black" points="176.5,-0.5 176.5,-30.5 314.5,-30.5 314.5,-0.5 176.5,-0.5"/>
<text text-anchor="start" x="184.5" y="-18.5" font-family="Helvetica,sans-Serif" font-size="10.00">View::CityScapeParkingHall</text>
<text text-anchor="middle" x="245.5" y="-7.5" font-family="Helvetica,sans-Serif" font-size="10.00">::hoverEnterEvent</text>
</a>
</g>
</g>
<!-- Node14&#45;&gt;Node17 -->
<g id="edge3" class="edge"><title>Node14&#45;&gt;Node17</title>
<path fill="none" stroke="midnightblue" d="M133.465,-46.6788C152.306,-41.3882 172.749,-35.6478 190.898,-30.5516"/>
<polygon fill="midnightblue" stroke="midnightblue" points="132.461,-43.3254 123.78,-49.3986 134.353,-50.0647 132.461,-43.3254"/>
</g>
</g>
</svg>
