<?xml version="1.0" encoding="UTF-8" standalone="no"?>
<!DOCTYPE svg PUBLIC "-//W3C//DTD SVG 1.1//EN"
 "http://www.w3.org/Graphics/SVG/1.1/DTD/svg11.dtd">
<!-- Generated by graphviz version 2.38.0 (20140413.2041)
 -->
<!-- Title: View::CityScape Pages: 1 -->
<svg width="894pt" height="805pt"
 viewBox="0.00 0.00 893.50 805.00" xmlns="http://www.w3.org/2000/svg" xmlns:xlink="http://www.w3.org/1999/xlink">
<g id="graph0" class="graph" transform="scale(1 1) rotate(0) translate(4 801)">
<title>View::CityScape</title>
<polygon fill="white" stroke="none" points="-4,4 -4,-801 889.5,-801 889.5,4 -4,4"/>
<!-- Node2 -->
<g id="node1" class="node"><title>Node2</title>
<polygon fill="#bfbfbf" stroke="black" points="121,-0.5 121,-145.5 294,-145.5 294,-0.5 121,-0.5"/>
<text text-anchor="middle" x="207.5" y="-133.5" font-family="Helvetica,sans-Serif" font-size="10.00">View::CityScape</text>
<polyline fill="none" stroke="black" points="121,-126.5 294,-126.5 "/>
<text text-anchor="middle" x="207.5" y="-114.5" font-family="Helvetica,sans-Serif" font-size="10.00"> </text>
<polyline fill="none" stroke="black" points="121,-107.5 294,-107.5 "/>
<text text-anchor="start" x="129" y="-95.5" font-family="Helvetica,sans-Serif" font-size="10.00">+ CityScape()</text>
<text text-anchor="start" x="129" y="-84.5" font-family="Helvetica,sans-Serif" font-size="10.00">+ ~CityScape()</text>
<text text-anchor="start" x="129" y="-73.5" font-family="Helvetica,sans-Serif" font-size="10.00">+ initCityScape()</text>
<text text-anchor="start" x="129" y="-62.5" font-family="Helvetica,sans-Serif" font-size="10.00">+ addParkingHalls()</text>
<text text-anchor="start" x="129" y="-51.5" font-family="Helvetica,sans-Serif" font-size="10.00">+ updateParkingHall()</text>
<text text-anchor="start" x="129" y="-40.5" font-family="Helvetica,sans-Serif" font-size="10.00">+ resizeMap()</text>
<text text-anchor="start" x="129" y="-29.5" font-family="Helvetica,sans-Serif" font-size="10.00">+ parkingHallInformationRequested()</text>
<text text-anchor="start" x="129" y="-18.5" font-family="Helvetica,sans-Serif" font-size="10.00">+ parkingHallSelectRequested()</text>
<text text-anchor="start" x="129" y="-7.5" font-family="Helvetica,sans-Serif" font-size="10.00">+ missionSelectRequested()</text>
</g>
<!-- Node3 -->
<g id="node2" class="node"><title>Node3</title>
<g id="a_node2"><a xlink:href="class_q_graphics_scene.html" target="_top" xlink:title="{QGraphicsScene\n||}">
<polygon fill="white" stroke="black" points="0,-210 0,-267 91,-267 91,-210 0,-210"/>
<text text-anchor="middle" x="45.5" y="-255" font-family="Helvetica,sans-Serif" font-size="10.00">QGraphicsScene</text>
<polyline fill="none" stroke="black" points="0,-248 91,-248 "/>
<text text-anchor="middle" x="45.5" y="-236" font-family="Helvetica,sans-Serif" font-size="10.00"> </text>
<polyline fill="none" stroke="black" points="0,-229 91,-229 "/>
<text text-anchor="middle" x="45.5" y="-217" font-family="Helvetica,sans-Serif" font-size="10.00"> </text>
</a>
</g>
</g>
<!-- Node3&#45;&gt;Node2 -->
<g id="edge1" class="edge"><title>Node3&#45;&gt;Node2</title>
<path fill="none" stroke="midnightblue" d="M80.2619,-202.416C96.7319,-185.794 117.037,-165.301 136.551,-145.606"/>
<polygon fill="none" stroke="midnightblue" points="77.5333,-200.197 72.9811,-209.764 82.5058,-205.124 77.5333,-200.197"/>
</g>
<!-- Node4 -->
<g id="node3" class="node"><title>Node4</title>
<polygon fill="white" stroke="#bfbfbf" points="109,-210 109,-267 154,-267 154,-210 109,-210"/>
<text text-anchor="middle" x="131.5" y="-255" font-family="Helvetica,sans-Serif" font-size="10.00">double</text>
<polyline fill="none" stroke="#bfbfbf" points="109,-248 154,-248 "/>
<text text-anchor="middle" x="131.5" y="-236" font-family="Helvetica,sans-Serif" font-size="10.00"> </text>
<polyline fill="none" stroke="#bfbfbf" points="109,-229 154,-229 "/>
<text text-anchor="middle" x="131.5" y="-217" font-family="Helvetica,sans-Serif" font-size="10.00"> </text>
</g>
<!-- Node4&#45;&gt;Node2 -->
<g id="edge2" class="edge"><title>Node4&#45;&gt;Node2</title>
<path fill="none" stroke="#404040" d="M127.573,-209.821C126.628,-195.695 127.145,-178.483 132.5,-164 133.446,-161.443 134.498,-158.906 135.643,-156.395"/>
<polygon fill="none" stroke="#404040" points="135.724,-156.238 134.914,-149.072 141.216,-145.568 142.027,-152.734 135.724,-156.238"/>
<text text-anchor="middle" x="163" y="-178" font-family="Helvetica,sans-Serif" font-size="10.00"> &#45;cityImageY_</text>
<text text-anchor="middle" x="163" y="-167" font-family="Helvetica,sans-Serif" font-size="10.00">&#45;cityImageX_</text>
</g>
<!-- Node5 -->
<g id="node4" class="node"><title>Node5</title>
<polygon fill="white" stroke="#bfbfbf" points="181.5,-596 181.5,-653 231.5,-653 231.5,-596 181.5,-596"/>
<text text-anchor="middle" x="206.5" y="-641" font-family="Helvetica,sans-Serif" font-size="10.00">QString</text>
<polyline fill="none" stroke="#bfbfbf" points="181.5,-634 231.5,-634 "/>
<text text-anchor="middle" x="206.5" y="-622" font-family="Helvetica,sans-Serif" font-size="10.00"> </text>
<polyline fill="none" stroke="#bfbfbf" points="181.5,-615 231.5,-615 "/>
<text text-anchor="middle" x="206.5" y="-603" font-family="Helvetica,sans-Serif" font-size="10.00"> </text>
</g>
<!-- Node5&#45;&gt;Node2 -->
<g id="edge3" class="edge"><title>Node5&#45;&gt;Node2</title>
<path fill="none" stroke="#404040" d="M206.55,-595.874C206.695,-516.259 207.118,-283.998 207.347,-157.862"/>
<polygon fill="none" stroke="#404040" points="207.348,-157.624 203.359,-151.617 207.37,-145.624 211.359,-151.631 207.348,-157.624"/>
<text text-anchor="middle" x="256.5" y="-294" font-family="Helvetica,sans-Serif" font-size="10.00"> &#45;selectedParkingHall_</text>
</g>
<!-- Node7 -->
<g id="node6" class="node"><title>Node7</title>
<g id="a_node6"><a xlink:href="class_view_1_1_city_scape_parking_hall.html" target="_top" xlink:title="{View::CityScapeParkingHall\n||+ CityScapeParkingHall()\l+ ~CityScapeParkingHall()\l+ getId()\l+ getX()\l+ getY()\l+ hoverEnterEvent()\l+ hoverLeaveEvent()\l+ mousePressEvent()\l+ setSelectionState()\l+ updateStatusDisplay()\l}">
<polygon fill="white" stroke="black" points="384.5,-320.5 384.5,-476.5 522.5,-476.5 522.5,-320.5 384.5,-320.5"/>
<text text-anchor="middle" x="453.5" y="-464.5" font-family="Helvetica,sans-Serif" font-size="10.00">View::CityScapeParkingHall</text>
<polyline fill="none" stroke="black" points="384.5,-457.5 522.5,-457.5 "/>
<text text-anchor="middle" x="453.5" y="-445.5" font-family="Helvetica,sans-Serif" font-size="10.00"> </text>
<polyline fill="none" stroke="black" points="384.5,-438.5 522.5,-438.5 "/>
<text text-anchor="start" x="392.5" y="-426.5" font-family="Helvetica,sans-Serif" font-size="10.00">+ CityScapeParkingHall()</text>
<text text-anchor="start" x="392.5" y="-415.5" font-family="Helvetica,sans-Serif" font-size="10.00">+ ~CityScapeParkingHall()</text>
<text text-anchor="start" x="392.5" y="-404.5" font-family="Helvetica,sans-Serif" font-size="10.00">+ getId()</text>
<text text-anchor="start" x="392.5" y="-393.5" font-family="Helvetica,sans-Serif" font-size="10.00">+ getX()</text>
<text text-anchor="start" x="392.5" y="-382.5" font-family="Helvetica,sans-Serif" font-size="10.00">+ getY()</text>
<text text-anchor="start" x="392.5" y="-371.5" font-family="Helvetica,sans-Serif" font-size="10.00">+ hoverEnterEvent()</text>
<text text-anchor="start" x="392.5" y="-360.5" font-family="Helvetica,sans-Serif" font-size="10.00">+ hoverLeaveEvent()</text>
<text text-anchor="start" x="392.5" y="-349.5" font-family="Helvetica,sans-Serif" font-size="10.00">+ mousePressEvent()</text>
<text text-anchor="start" x="392.5" y="-338.5" font-family="Helvetica,sans-Serif" font-size="10.00">+ setSelectionState()</text>
<text text-anchor="start" x="392.5" y="-327.5" font-family="Helvetica,sans-Serif" font-size="10.00">+ updateStatusDisplay()</text>
</a>
</g>
</g>
<!-- Node5&#45;&gt;Node7 -->
<g id="edge11" class="edge"><title>Node5&#45;&gt;Node7</title>
<path fill="none" stroke="#404040" d="M218.25,-595.85C224.11,-583.447 231.803,-568.953 240.5,-557 275.393,-509.044 329.181,-469.437 373.973,-441.936"/>
<polygon fill="none" stroke="#404040" points="373.987,-441.928 377.06,-435.404 384.263,-435.732 381.19,-442.255 373.987,-441.928"/>
<text text-anchor="middle" x="305" y="-514.5" font-family="Helvetica,sans-Serif" font-size="10.00"> &#45;id_</text>
</g>
<!-- Node6 -->
<g id="node5" class="node"><title>Node6</title>
<polygon fill="white" stroke="#bfbfbf" points="235.5,-204.5 235.5,-272.5 359.5,-272.5 359.5,-204.5 235.5,-204.5"/>
<text text-anchor="start" x="243.5" y="-260.5" font-family="Helvetica,sans-Serif" font-size="10.00">std::vector&lt; View::</text>
<text text-anchor="middle" x="297.5" y="-249.5" font-family="Helvetica,sans-Serif" font-size="10.00">CityScapeParkingHall *&gt;</text>
<polyline fill="none" stroke="#bfbfbf" points="235.5,-242.5 359.5,-242.5 "/>
<text text-anchor="middle" x="297.5" y="-230.5" font-family="Helvetica,sans-Serif" font-size="10.00"> </text>
<polyline fill="none" stroke="#bfbfbf" points="235.5,-223.5 359.5,-223.5 "/>
<text text-anchor="middle" x="297.5" y="-211.5" font-family="Helvetica,sans-Serif" font-size="10.00"> </text>
</g>
<!-- Node6&#45;&gt;Node2 -->
<g id="edge4" class="edge"><title>Node6&#45;&gt;Node2</title>
<path fill="none" stroke="#404040" d="M279.287,-204.413C271.546,-190.35 262.141,-173.265 252.724,-156.156"/>
<polygon fill="none" stroke="#404040" points="252.66,-156.04 246.262,-152.713 246.873,-145.528 253.271,-148.855 252.66,-156.04"/>
<text text-anchor="middle" x="301" y="-172.5" font-family="Helvetica,sans-Serif" font-size="10.00"> &#45;parkingHalls_</text>
</g>
<!-- Node7&#45;&gt;Node6 -->
<g id="edge5" class="edge"><title>Node7&#45;&gt;Node6</title>
<path fill="none" stroke="#404040" d="M384.168,-327.279C368.815,-311.729 353.008,-295.72 339.167,-281.701"/>
<polygon fill="none" stroke="#404040" points="338.811,-281.34 331.749,-279.881 330.38,-272.801 337.442,-274.26 338.811,-281.34"/>
<text text-anchor="middle" x="382" y="-294" font-family="Helvetica,sans-Serif" font-size="10.00"> +elements</text>
</g>
<!-- Node8 -->
<g id="node7" class="node"><title>Node8</title>
<g id="a_node7"><a xlink:href="class_q_object.html" target="_top" xlink:title="{QObject\n||}">
<polygon fill="white" stroke="black" points="250,-596 250,-653 303,-653 303,-596 250,-596"/>
<text text-anchor="middle" x="276.5" y="-641" font-family="Helvetica,sans-Serif" font-size="10.00">QObject</text>
<polyline fill="none" stroke="black" points="250,-634 303,-634 "/>
<text text-anchor="middle" x="276.5" y="-622" font-family="Helvetica,sans-Serif" font-size="10.00"> </text>
<polyline fill="none" stroke="black" points="250,-615 303,-615 "/>
<text text-anchor="middle" x="276.5" y="-603" font-family="Helvetica,sans-Serif" font-size="10.00"> </text>
</a>
</g>
</g>
<!-- Node8&#45;&gt;Node7 -->
<g id="edge6" class="edge"><title>Node8&#45;&gt;Node7</title>
<path fill="none" stroke="midnightblue" d="M293.718,-586.825C298.952,-576.853 305.042,-566.258 311.5,-557 332.984,-526.2 359.891,-494.941 384.489,-468.477"/>
<polygon fill="none" stroke="midnightblue" points="290.591,-585.252 289.167,-595.751 296.828,-588.432 290.591,-585.252"/>
</g>
<!-- Node9 -->
<g id="node8" class="node"><title>Node9</title>
<g id="a_node8"><a xlink:href="class_q_graphics_pixmap_item.html" target="_top" xlink:title="{QGraphicsPixmapItem\n||}">
<polygon fill="white" stroke="black" points="321,-596 321,-653 436,-653 436,-596 321,-596"/>
<text text-anchor="middle" x="378.5" y="-641" font-family="Helvetica,sans-Serif" font-size="10.00">QGraphicsPixmapItem</text>
<polyline fill="none" stroke="black" points="321,-634 436,-634 "/>
<text text-anchor="middle" x="378.5" y="-622" font-family="Helvetica,sans-Serif" font-size="10.00"> </text>
<polyline fill="none" stroke="black" points="321,-615 436,-615 "/>
<text text-anchor="middle" x="378.5" y="-603" font-family="Helvetica,sans-Serif" font-size="10.00"> </text>
</a>
</g>
</g>
<!-- Node9&#45;&gt;Node7 -->
<g id="edge7" class="edge"><title>Node9&#45;&gt;Node7</title>
<path fill="none" stroke="midnightblue" d="M391.044,-586.035C400.981,-556.357 415.199,-513.893 427.56,-476.975"/>
<polygon fill="none" stroke="midnightblue" points="387.703,-584.989 387.847,-595.583 394.341,-587.212 387.703,-584.989"/>
</g>
<!-- Node10 -->
<g id="node9" class="node"><title>Node10</title>
<g id="a_node9"><a xlink:href="class_view_1_1_city_scape_status_display.html" target="_top" xlink:title="{View::CityScapeStatusDisplay\n||+ CityScapeStatusDisplay()\l+ ~CityScapeStatusDisplay()\l+ setFieldValues()\l+ getName()\l+ getParkedCars()\l+ getParkingSpaces()\l+ getEnemyActivity()\l+ getWorth()\l}">
<polygon fill="white" stroke="black" points="454,-557.5 454,-691.5 603,-691.5 603,-557.5 454,-557.5"/>
<text text-anchor="middle" x="528.5" y="-679.5" font-family="Helvetica,sans-Serif" font-size="10.00">View::CityScapeStatusDisplay</text>
<polyline fill="none" stroke="black" points="454,-672.5 603,-672.5 "/>
<text text-anchor="middle" x="528.5" y="-660.5" font-family="Helvetica,sans-Serif" font-size="10.00"> </text>
<polyline fill="none" stroke="black" points="454,-653.5 603,-653.5 "/>
<text text-anchor="start" x="462" y="-641.5" font-family="Helvetica,sans-Serif" font-size="10.00">+ CityScapeStatusDisplay()</text>
<text text-anchor="start" x="462" y="-630.5" font-family="Helvetica,sans-Serif" font-size="10.00">+ ~CityScapeStatusDisplay()</text>
<text text-anchor="start" x="462" y="-619.5" font-family="Helvetica,sans-Serif" font-size="10.00">+ setFieldValues()</text>
<text text-anchor="start" x="462" y="-608.5" font-family="Helvetica,sans-Serif" font-size="10.00">+ getName()</text>
<text text-anchor="start" x="462" y="-597.5" font-family="Helvetica,sans-Serif" font-size="10.00">+ getParkedCars()</text>
<text text-anchor="start" x="462" y="-586.5" font-family="Helvetica,sans-Serif" font-size="10.00">+ getParkingSpaces()</text>
<text text-anchor="start" x="462" y="-575.5" font-family="Helvetica,sans-Serif" font-size="10.00">+ getEnemyActivity()</text>
<text text-anchor="start" x="462" y="-564.5" font-family="Helvetica,sans-Serif" font-size="10.00">+ getWorth()</text>
</a>
</g>
</g>
<!-- Node10&#45;&gt;Node7 -->
<g id="edge8" class="edge"><title>Node10&#45;&gt;Node7</title>
<path fill="none" stroke="#404040" d="M506.302,-557.202C499.059,-535.571 490.898,-511.195 483.196,-488.191"/>
<polygon fill="none" stroke="#404040" points="483.148,-488.048 477.45,-483.629 479.338,-476.669 485.036,-481.088 483.148,-488.048"/>
<text text-anchor="middle" x="522" y="-514.5" font-family="Helvetica,sans-Serif" font-size="10.00"> &#45;display_</text>
</g>
<!-- Node11 -->
<g id="node10" class="node"><title>Node11</title>
<g id="a_node10"><a xlink:href="class_q_widget.html" target="_top" xlink:title="{QWidget\n||}">
<polygon fill="white" stroke="black" points="446,-739.5 446,-796.5 501,-796.5 501,-739.5 446,-739.5"/>
<text text-anchor="middle" x="473.5" y="-784.5" font-family="Helvetica,sans-Serif" font-size="10.00">QWidget</text>
<polyline fill="none" stroke="black" points="446,-777.5 501,-777.5 "/>
<text text-anchor="middle" x="473.5" y="-765.5" font-family="Helvetica,sans-Serif" font-size="10.00"> </text>
<polyline fill="none" stroke="black" points="446,-758.5 501,-758.5 "/>
<text text-anchor="middle" x="473.5" y="-746.5" font-family="Helvetica,sans-Serif" font-size="10.00"> </text>
</a>
</g>
</g>
<!-- Node11&#45;&gt;Node10 -->
<g id="edge9" class="edge"><title>Node11&#45;&gt;Node10</title>
<path fill="none" stroke="midnightblue" d="M487.901,-729.95C492.459,-718.223 497.644,-704.884 502.748,-691.753"/>
<polygon fill="none" stroke="midnightblue" points="484.596,-728.793 484.235,-739.381 491.12,-731.329 484.596,-728.793"/>
</g>
<!-- Node12 -->
<g id="node11" class="node"><title>Node12</title>
<polygon fill="white" stroke="#bfbfbf" points="519,-739.5 519,-796.5 648,-796.5 648,-739.5 519,-739.5"/>
<text text-anchor="middle" x="583.5" y="-784.5" font-family="Helvetica,sans-Serif" font-size="10.00">CityScapeStatusDisplay *</text>
<polyline fill="none" stroke="#bfbfbf" points="519,-777.5 648,-777.5 "/>
<text text-anchor="middle" x="583.5" y="-765.5" font-family="Helvetica,sans-Serif" font-size="10.00"> </text>
<polyline fill="none" stroke="#bfbfbf" points="519,-758.5 648,-758.5 "/>
<text text-anchor="middle" x="583.5" y="-746.5" font-family="Helvetica,sans-Serif" font-size="10.00"> </text>
</g>
<!-- Node12&#45;&gt;Node10 -->
<g id="edge10" class="edge"><title>Node12&#45;&gt;Node10</title>
<path fill="none" stroke="#404040" d="M572.765,-739.381C568.654,-728.806 563.736,-716.153 558.696,-703.185"/>
<polygon fill="none" stroke="#404040" points="558.599,-702.937 552.697,-698.794 554.252,-691.753 560.154,-695.896 558.599,-702.937"/>
<text text-anchor="middle" x="571.5" y="-713" font-family="Helvetica,sans-Serif" font-size="10.00"> &#45;ui</text>
</g>
<!-- Node13 -->
<g id="node12" class="node"><title>Node13</title>
<polygon fill="white" stroke="#bfbfbf" points="621,-596 621,-653 650,-653 650,-596 621,-596"/>
<text text-anchor="middle" x="635.5" y="-641" font-family="Helvetica,sans-Serif" font-size="10.00">int</text>
<polyline fill="none" stroke="#bfbfbf" points="621,-634 650,-634 "/>
<text text-anchor="middle" x="635.5" y="-622" font-family="Helvetica,sans-Serif" font-size="10.00"> </text>
<polyline fill="none" stroke="#bfbfbf" points="621,-615 650,-615 "/>
<text text-anchor="middle" x="635.5" y="-603" font-family="Helvetica,sans-Serif" font-size="10.00"> </text>
</g>
<!-- Node13&#45;&gt;Node7 -->
<g id="edge12" class="edge"><title>Node13&#45;&gt;Node7</title>
<path fill="none" stroke="#404040" d="M628.472,-595.713C624.592,-583.284 619.011,-568.805 611.5,-557 589.924,-523.091 559.879,-490.793 531.776,-464.372"/>
<polygon fill="none" stroke="#404040" points="531.542,-464.155 524.421,-463.017 522.733,-456.006 529.854,-457.144 531.542,-464.155"/>
<text text-anchor="middle" x="624" y="-520" font-family="Helvetica,sans-Serif" font-size="10.00"> &#45;latitude_</text>
<text text-anchor="middle" x="624" y="-509" font-family="Helvetica,sans-Serif" font-size="10.00">&#45;longtitude_</text>
</g>
<!-- Node14 -->
<g id="node13" class="node"><title>Node14</title>
<polygon fill="white" stroke="#bfbfbf" points="668.5,-596 668.5,-653 794.5,-653 794.5,-596 668.5,-596"/>
<text text-anchor="middle" x="731.5" y="-641" font-family="Helvetica,sans-Serif" font-size="10.00">QGraphicsProxyWidget *</text>
<polyline fill="none" stroke="#bfbfbf" points="668.5,-634 794.5,-634 "/>
<text text-anchor="middle" x="731.5" y="-622" font-family="Helvetica,sans-Serif" font-size="10.00"> </text>
<polyline fill="none" stroke="#bfbfbf" points="668.5,-615 794.5,-615 "/>
<text text-anchor="middle" x="731.5" y="-603" font-family="Helvetica,sans-Serif" font-size="10.00"> </text>
</g>
<!-- Node14&#45;&gt;Node7 -->
<g id="edge13" class="edge"><title>Node14&#45;&gt;Node7</title>
<path fill="none" stroke="#404040" d="M720.471,-595.982C707.901,-567.558 684.949,-523.45 653.5,-495 619.348,-464.106 573.415,-441.225 534.18,-425.617"/>
<polygon fill="none" stroke="#404040" points="533.968,-425.535 526.929,-427.102 522.775,-421.207 529.814,-419.64 533.968,-425.535"/>
<text text-anchor="middle" x="721.5" y="-514.5" font-family="Helvetica,sans-Serif" font-size="10.00"> &#45;displayProxy_</text>
</g>
<!-- Node15 -->
<g id="node14" class="node"><title>Node15</title>
<polygon fill="white" stroke="#bfbfbf" points="813,-596 813,-653 848,-653 848,-596 813,-596"/>
<text text-anchor="middle" x="830.5" y="-641" font-family="Helvetica,sans-Serif" font-size="10.00">bool</text>
<polyline fill="none" stroke="#bfbfbf" points="813,-634 848,-634 "/>
<text text-anchor="middle" x="830.5" y="-622" font-family="Helvetica,sans-Serif" font-size="10.00"> </text>
<polyline fill="none" stroke="#bfbfbf" points="813,-615 848,-615 "/>
<text text-anchor="middle" x="830.5" y="-603" font-family="Helvetica,sans-Serif" font-size="10.00"> </text>
</g>
<!-- Node15&#45;&gt;Node7 -->
<g id="edge14" class="edge"><title>Node15&#45;&gt;Node7</title>
<path fill="none" stroke="#404040" d="M822.951,-595.97C813.307,-566.23 793.633,-519.785 759.5,-495 692.624,-446.439 600.363,-422.081 534.674,-410.187"/>
<polygon fill="none" stroke="#404040" points="534.552,-410.166 527.955,-413.078 522.729,-408.109 529.326,-405.197 534.552,-410.166"/>
<text text-anchor="middle" x="840.5" y="-531" font-family="Helvetica,sans-Serif" font-size="10.00"> &#45;isPlayerOwned_</text>
<text text-anchor="start" x="795.5" y="-520" font-family="Helvetica,sans-Serif" font-size="10.00">&#45;deSelectionEnabled</text>
<text text-anchor="middle" x="840.5" y="-509" font-family="Helvetica,sans-Serif" font-size="10.00">_</text>
<text text-anchor="middle" x="840.5" y="-498" font-family="Helvetica,sans-Serif" font-size="10.00">&#45;selected_</text>
</g>
<!-- Node16 -->
<g id="node15" class="node"><title>Node16</title>
<polygon fill="white" stroke="#bfbfbf" points="378,-210 378,-267 435,-267 435,-210 378,-210"/>
<text text-anchor="middle" x="406.5" y="-255" font-family="Helvetica,sans-Serif" font-size="10.00">QImage *</text>
<polyline fill="none" stroke="#bfbfbf" points="378,-248 435,-248 "/>
<text text-anchor="middle" x="406.5" y="-236" font-family="Helvetica,sans-Serif" font-size="10.00"> </text>
<polyline fill="none" stroke="#bfbfbf" points="378,-229 435,-229 "/>
<text text-anchor="middle" x="406.5" y="-217" font-family="Helvetica,sans-Serif" font-size="10.00"> </text>
</g>
<!-- Node16&#45;&gt;Node2 -->
<g id="edge15" class="edge"><title>Node16&#45;&gt;Node2</title>
<path fill="none" stroke="#404040" d="M383.185,-209.977C370.374,-195.569 353.808,-178.053 337.5,-164 326.94,-154.9 315.454,-145.87 303.826,-137.238"/>
<polygon fill="none" stroke="#404040" points="303.73,-137.169 296.526,-136.859 294.041,-130.089 301.245,-130.399 303.73,-137.169"/>
<text text-anchor="middle" x="404.5" y="-172.5" font-family="Helvetica,sans-Serif" font-size="10.00"> &#45;backgroundImage_</text>
</g>
</g>
</svg>
