<?xml version="1.0" encoding="UTF-8" standalone="no"?>
<!DOCTYPE svg PUBLIC "-//W3C//DTD SVG 1.1//EN"
 "http://www.w3.org/Graphics/SVG/1.1/DTD/svg11.dtd">
<!-- Generated by graphviz version 2.38.0 (20140413.2041)
 -->
<!-- Title: Model::mapProcessor::setTileDistance Pages: 1 -->
<svg width="571pt" height="61pt"
 viewBox="0.00 0.00 571.00 61.00" xmlns="http://www.w3.org/2000/svg" xmlns:xlink="http://www.w3.org/1999/xlink">
<g id="graph0" class="graph" transform="scale(1 1) rotate(0) translate(4 57)">
<title>Model::mapProcessor::setTileDistance</title>
<polygon fill="white" stroke="none" points="-4,4 -4,-57 567,-57 567,4 -4,4"/>
<!-- Node91 -->
<g id="node1" class="node"><title>Node91</title>
<polygon fill="#bfbfbf" stroke="black" points="0,-0.5 0,-30.5 112,-30.5 112,-0.5 0,-0.5"/>
<text text-anchor="start" x="8" y="-18.5" font-family="Helvetica,sans-Serif" font-size="10.00">Model::mapProcessor</text>
<text text-anchor="middle" x="56" y="-7.5" font-family="Helvetica,sans-Serif" font-size="10.00">::setTileDistance</text>
</g>
<!-- Node92 -->
<g id="node2" class="node"><title>Node92</title>
<g id="a_node2"><a xlink:href="class_model_1_1map_processor.html#ae1e80cb097c8e31a337b3a20ff653cc2" target="_top" xlink:title="Model::mapProcessor\l::calculateDistanceMap">
<polygon fill="white" stroke="black" points="148,-0.5 148,-30.5 267,-30.5 267,-0.5 148,-0.5"/>
<text text-anchor="start" x="156" y="-18.5" font-family="Helvetica,sans-Serif" font-size="10.00">Model::mapProcessor</text>
<text text-anchor="middle" x="207.5" y="-7.5" font-family="Helvetica,sans-Serif" font-size="10.00">::calculateDistanceMap</text>
</a>
</g>
</g>
<!-- Node91&#45;&gt;Node92 -->
<g id="edge1" class="edge"><title>Node91&#45;&gt;Node92</title>
<path fill="none" stroke="midnightblue" d="M122.482,-15.5C130.966,-15.5 139.612,-15.5 147.973,-15.5"/>
<polygon fill="midnightblue" stroke="midnightblue" points="122.244,-12.0001 112.244,-15.5 122.243,-19.0001 122.244,-12.0001"/>
</g>
<!-- Node93 -->
<g id="node3" class="node"><title>Node93</title>
<g id="a_node3"><a xlink:href="class_model_1_1map_processor.html#a3719cc265240be889e98f9830602a067" target="_top" xlink:title="Model::mapProcessor\l::getMedialMap">
<polygon fill="white" stroke="black" points="303,-22.5 303,-52.5 415,-52.5 415,-22.5 303,-22.5"/>
<text text-anchor="start" x="311" y="-40.5" font-family="Helvetica,sans-Serif" font-size="10.00">Model::mapProcessor</text>
<text text-anchor="middle" x="359" y="-29.5" font-family="Helvetica,sans-Serif" font-size="10.00">::getMedialMap</text>
</a>
</g>
</g>
<!-- Node92&#45;&gt;Node93 -->
<g id="edge2" class="edge"><title>Node92&#45;&gt;Node93</title>
<path fill="none" stroke="midnightblue" d="M277.201,-25.6099C285.824,-26.8787 294.554,-28.1634 302.929,-29.3959"/>
<polygon fill="midnightblue" stroke="midnightblue" points="277.56,-22.1251 267.157,-24.1318 276.541,-29.0505 277.56,-22.1251"/>
</g>
<!-- Node94 -->
<g id="node4" class="node"><title>Node94</title>
<g id="a_node4"><a xlink:href="class_model_1_1map_processor.html#a7be8a27aaad96e187b4dba60fde5031a" target="_top" xlink:title="Model::mapProcessor\l::placeEnemies">
<polygon fill="white" stroke="black" points="451,-0.5 451,-30.5 563,-30.5 563,-0.5 451,-0.5"/>
<text text-anchor="start" x="459" y="-18.5" font-family="Helvetica,sans-Serif" font-size="10.00">Model::mapProcessor</text>
<text text-anchor="middle" x="507" y="-7.5" font-family="Helvetica,sans-Serif" font-size="10.00">::placeEnemies</text>
</a>
</g>
</g>
<!-- Node92&#45;&gt;Node94 -->
<g id="edge4" class="edge"><title>Node92&#45;&gt;Node94</title>
<path fill="none" stroke="midnightblue" d="M277.312,-13.8738C285.96,-13.7195 294.685,-13.588 303,-13.5 352.775,-12.9733 365.225,-12.9531 415,-13.5 426.535,-13.6267 438.891,-13.8438 450.662,-14.0894"/>
<polygon fill="midnightblue" stroke="midnightblue" points="277.157,-10.376 267.225,-14.0643 277.289,-17.3748 277.157,-10.376"/>
</g>
<!-- Node93&#45;&gt;Node94 -->
<g id="edge3" class="edge"><title>Node93&#45;&gt;Node94</title>
<path fill="none" stroke="midnightblue" d="M425.131,-27.6857C433.676,-26.3982 442.366,-25.0887 450.726,-23.829"/>
<polygon fill="midnightblue" stroke="midnightblue" points="424.563,-24.2317 415.196,-29.1827 425.606,-31.1536 424.563,-24.2317"/>
</g>
</g>
</svg>
