<?xml version="1.0" encoding="UTF-8" standalone="no"?>
<!DOCTYPE svg PUBLIC "-//W3C//DTD SVG 1.1//EN"
 "http://www.w3.org/Graphics/SVG/1.1/DTD/svg11.dtd">
<!-- Generated by graphviz version 2.38.0 (20140413.2041)
 -->
<!-- Title: View::ActionScene::checkShotCollision Pages: 1 -->
<svg width="268pt" height="88pt"
 viewBox="0.00 0.00 268.00 88.00" xmlns="http://www.w3.org/2000/svg" xmlns:xlink="http://www.w3.org/1999/xlink">
<g id="graph0" class="graph" transform="scale(1 1) rotate(0) translate(4 84)">
<title>View::ActionScene::checkShotCollision</title>
<polygon fill="white" stroke="none" points="-4,4 -4,-84 264,-84 264,4 -4,4"/>
<!-- Node94 -->
<g id="node1" class="node"><title>Node94</title>
<polygon fill="#bfbfbf" stroke="black" points="0,-24.5 0,-54.5 105,-54.5 105,-24.5 0,-24.5"/>
<text text-anchor="start" x="8" y="-42.5" font-family="Helvetica,sans-Serif" font-size="10.00">View::ActionScene::</text>
<text text-anchor="middle" x="52.5" y="-31.5" font-family="Helvetica,sans-Serif" font-size="10.00">checkShotCollision</text>
</g>
<!-- Node95 -->
<g id="node2" class="node"><title>Node95</title>
<g id="a_node2"><a xlink:href="class_view_1_1_action_scene_n_p_c.html#a9065e80ab1349445972a44657234a35f" target="_top" xlink:title="View::ActionSceneNPC\l::getId">
<polygon fill="white" stroke="black" points="141,-49.5 141,-79.5 260,-79.5 260,-49.5 141,-49.5"/>
<text text-anchor="start" x="149" y="-67.5" font-family="Helvetica,sans-Serif" font-size="10.00">View::ActionSceneNPC</text>
<text text-anchor="middle" x="200.5" y="-56.5" font-family="Helvetica,sans-Serif" font-size="10.00">::getId</text>
</a>
</g>
</g>
<!-- Node94&#45;&gt;Node95 -->
<g id="edge1" class="edge"><title>Node94&#45;&gt;Node95</title>
<path fill="none" stroke="midnightblue" d="M105.385,-48.3845C113.633,-49.7967 122.274,-51.2763 130.835,-52.7422"/>
<polygon fill="midnightblue" stroke="midnightblue" points="130.372,-56.2139 140.82,-54.452 131.554,-49.3143 130.372,-56.2139"/>
</g>
<!-- Node96 -->
<g id="node3" class="node"><title>Node96</title>
<g id="a_node3"><a xlink:href="class_view_1_1_action_scene_n_p_c.html#a5d04b31e451848aec804ce99864800ca" target="_top" xlink:title="View::ActionSceneNPC\l::isDead">
<polygon fill="white" stroke="black" points="141,-0.5 141,-30.5 260,-30.5 260,-0.5 141,-0.5"/>
<text text-anchor="start" x="149" y="-18.5" font-family="Helvetica,sans-Serif" font-size="10.00">View::ActionSceneNPC</text>
<text text-anchor="middle" x="200.5" y="-7.5" font-family="Helvetica,sans-Serif" font-size="10.00">::isDead</text>
</a>
</g>
</g>
<!-- Node94&#45;&gt;Node96 -->
<g id="edge2" class="edge"><title>Node94&#45;&gt;Node96</title>
<path fill="none" stroke="midnightblue" d="M105.385,-30.9709C113.633,-29.6152 122.274,-28.1948 130.835,-26.7875"/>
<polygon fill="midnightblue" stroke="midnightblue" points="131.52,-30.2219 140.82,-25.1461 130.384,-23.3146 131.52,-30.2219"/>
</g>
</g>
</svg>
