<?xml version="1.0" encoding="UTF-8" standalone="no"?>
<!DOCTYPE svg PUBLIC "-//W3C//DTD SVG 1.1//EN"
 "http://www.w3.org/Graphics/SVG/1.1/DTD/svg11.dtd">
<!-- Generated by graphviz version 2.38.0 (20140413.2041)
 -->
<!-- Title: View::HeadQuartersUI::sellWeaponButtonPushed Pages: 1 -->
<svg width="441pt" height="39pt"
 viewBox="0.00 0.00 441.00 39.00" xmlns="http://www.w3.org/2000/svg" xmlns:xlink="http://www.w3.org/1999/xlink">
<g id="graph0" class="graph" transform="scale(1 1) rotate(0) translate(4 35)">
<title>View::HeadQuartersUI::sellWeaponButtonPushed</title>
<polygon fill="white" stroke="none" points="-4,4 -4,-35 437,-35 437,4 -4,4"/>
<!-- Node79 -->
<g id="node1" class="node"><title>Node79</title>
<polygon fill="#bfbfbf" stroke="black" points="0,-0.5 0,-30.5 135,-30.5 135,-0.5 0,-0.5"/>
<text text-anchor="start" x="8" y="-18.5" font-family="Helvetica,sans-Serif" font-size="10.00">View::HeadQuartersUI</text>
<text text-anchor="middle" x="67.5" y="-7.5" font-family="Helvetica,sans-Serif" font-size="10.00">::sellWeaponButtonPushed</text>
</g>
<!-- Node80 -->
<g id="node2" class="node"><title>Node80</title>
<g id="a_node2"><a xlink:href="class_view_1_1_head_quarters_u_i.html#a504906d7f958448301b500a3762ff618" target="_top" xlink:title="View::HeadQuartersUI\l::connectShopUI">
<polygon fill="white" stroke="black" points="171,-0.5 171,-30.5 284,-30.5 284,-0.5 171,-0.5"/>
<text text-anchor="start" x="179" y="-18.5" font-family="Helvetica,sans-Serif" font-size="10.00">View::HeadQuartersUI</text>
<text text-anchor="middle" x="227.5" y="-7.5" font-family="Helvetica,sans-Serif" font-size="10.00">::connectShopUI</text>
</a>
</g>
</g>
<!-- Node79&#45;&gt;Node80 -->
<g id="edge1" class="edge"><title>Node79&#45;&gt;Node80</title>
<path fill="none" stroke="midnightblue" d="M145.077,-15.5C153.655,-15.5 162.271,-15.5 170.521,-15.5"/>
<polygon fill="midnightblue" stroke="midnightblue" points="145.048,-12.0001 135.048,-15.5 145.048,-19.0001 145.048,-12.0001"/>
</g>
<!-- Node81 -->
<g id="node3" class="node"><title>Node81</title>
<g id="a_node3"><a xlink:href="class_view_1_1_head_quarters_u_i.html#a98db9788c668433314da83b183101f0c" target="_top" xlink:title="View::HeadQuartersUI\l::HeadQuartersUI">
<polygon fill="white" stroke="black" points="320,-0.5 320,-30.5 433,-30.5 433,-0.5 320,-0.5"/>
<text text-anchor="start" x="328" y="-18.5" font-family="Helvetica,sans-Serif" font-size="10.00">View::HeadQuartersUI</text>
<text text-anchor="middle" x="376.5" y="-7.5" font-family="Helvetica,sans-Serif" font-size="10.00">::HeadQuartersUI</text>
</a>
</g>
</g>
<!-- Node80&#45;&gt;Node81 -->
<g id="edge2" class="edge"><title>Node80&#45;&gt;Node81</title>
<path fill="none" stroke="midnightblue" d="M294.078,-15.5C302.681,-15.5 311.43,-15.5 319.847,-15.5"/>
<polygon fill="midnightblue" stroke="midnightblue" points="294.074,-12.0001 284.074,-15.5 294.074,-19.0001 294.074,-12.0001"/>
</g>
</g>
</svg>
