<?xml version="1.0" encoding="UTF-8" standalone="no"?>
<!DOCTYPE svg PUBLIC "-//W3C//DTD SVG 1.1//EN"
 "http://www.w3.org/Graphics/SVG/1.1/DTD/svg11.dtd">
<!-- Generated by graphviz version 2.38.0 (20140413.2041)
 -->
<!-- Title: View::ViewSideDisplayManager::getIndex Pages: 1 -->
<svg width="736pt" height="284pt"
 viewBox="0.00 0.00 736.00 284.00" xmlns="http://www.w3.org/2000/svg" xmlns:xlink="http://www.w3.org/1999/xlink">
<g id="graph0" class="graph" transform="scale(1 1) rotate(0) translate(4 280)">
<title>View::ViewSideDisplayManager::getIndex</title>
<polygon fill="white" stroke="none" points="-4,4 -4,-280 732,-280 732,4 -4,4"/>
<!-- Node22 -->
<g id="node1" class="node"><title>Node22</title>
<polygon fill="#bfbfbf" stroke="black" points="0,-98.5 0,-128.5 154,-128.5 154,-98.5 0,-98.5"/>
<text text-anchor="start" x="8" y="-116.5" font-family="Helvetica,sans-Serif" font-size="10.00">View::ViewSideDisplayManager</text>
<text text-anchor="middle" x="77" y="-105.5" font-family="Helvetica,sans-Serif" font-size="10.00">::getIndex</text>
</g>
<!-- Node23 -->
<g id="node2" class="node"><title>Node23</title>
<g id="a_node2"><a xlink:href="class_view_1_1_view_side_display_manager.html#a03bec5a21a27ffb9d4252fd304b003e8" target="_top" xlink:title="View::ViewSideDisplayManager\l::getDisplay">
<polygon fill="white" stroke="black" points="192,-196.5 192,-226.5 346,-226.5 346,-196.5 192,-196.5"/>
<text text-anchor="start" x="200" y="-214.5" font-family="Helvetica,sans-Serif" font-size="10.00">View::ViewSideDisplayManager</text>
<text text-anchor="middle" x="269" y="-203.5" font-family="Helvetica,sans-Serif" font-size="10.00">::getDisplay</text>
</a>
</g>
</g>
<!-- Node22&#45;&gt;Node23 -->
<g id="edge1" class="edge"><title>Node22&#45;&gt;Node23</title>
<path fill="none" stroke="midnightblue" d="M105.375,-134.811C127.278,-151.046 159.303,-173.004 190,-187.5 196.918,-190.767 204.388,-193.724 211.87,-196.355"/>
<polygon fill="midnightblue" stroke="midnightblue" points="107.311,-131.888 97.214,-128.679 103.106,-137.485 107.311,-131.888"/>
</g>
<!-- Node29 -->
<g id="node8" class="node"><title>Node29</title>
<g id="a_node8"><a xlink:href="class_view_1_1_view_side_display_manager.html#ad4f1a49660b763f9140d9b535c7382a6" target="_top" xlink:title="View::ViewSideDisplayManager\l::getMouseSensitivePixmap">
<polygon fill="white" stroke="black" points="192,-147.5 192,-177.5 346,-177.5 346,-147.5 192,-147.5"/>
<text text-anchor="start" x="200" y="-165.5" font-family="Helvetica,sans-Serif" font-size="10.00">View::ViewSideDisplayManager</text>
<text text-anchor="middle" x="269" y="-154.5" font-family="Helvetica,sans-Serif" font-size="10.00">::getMouseSensitivePixmap</text>
</a>
</g>
</g>
<!-- Node22&#45;&gt;Node29 -->
<g id="edge8" class="edge"><title>Node22&#45;&gt;Node29</title>
<path fill="none" stroke="midnightblue" d="M146.05,-131.05C166.915,-136.431 189.67,-142.299 209.813,-147.494"/>
<polygon fill="midnightblue" stroke="midnightblue" points="146.855,-127.643 136.297,-128.535 145.107,-134.421 146.855,-127.643"/>
</g>
<!-- Node30 -->
<g id="node9" class="node"><title>Node30</title>
<g id="a_node9"><a xlink:href="class_view_1_1_view_side_display_manager.html#a4850c6ab9b8e1f57e63162fa96a71ff6" target="_top" xlink:title="View::ViewSideDisplayManager\l::updateHitPointOrAmmoDisplay">
<polygon fill="white" stroke="black" points="190,-98.5 190,-128.5 348,-128.5 348,-98.5 190,-98.5"/>
<text text-anchor="start" x="198" y="-116.5" font-family="Helvetica,sans-Serif" font-size="10.00">View::ViewSideDisplayManager</text>
<text text-anchor="middle" x="269" y="-105.5" font-family="Helvetica,sans-Serif" font-size="10.00">::updateHitPointOrAmmoDisplay</text>
</a>
</g>
</g>
<!-- Node22&#45;&gt;Node30 -->
<g id="edge9" class="edge"><title>Node22&#45;&gt;Node30</title>
<path fill="none" stroke="midnightblue" d="M164.194,-113.5C172.773,-113.5 181.447,-113.5 189.936,-113.5"/>
<polygon fill="midnightblue" stroke="midnightblue" points="164.186,-110 154.185,-113.5 164.185,-117 164.186,-110"/>
</g>
<!-- Node31 -->
<g id="node10" class="node"><title>Node31</title>
<g id="a_node10"><a xlink:href="class_view_1_1_view_side_display_manager.html#a0632dc63992f2cf08f8c5cbeffa999fa" target="_top" xlink:title="View::ViewSideDisplayManager\l::updatePortraitDisplay">
<polygon fill="white" stroke="black" points="192,-49.5 192,-79.5 346,-79.5 346,-49.5 192,-49.5"/>
<text text-anchor="start" x="200" y="-67.5" font-family="Helvetica,sans-Serif" font-size="10.00">View::ViewSideDisplayManager</text>
<text text-anchor="middle" x="269" y="-56.5" font-family="Helvetica,sans-Serif" font-size="10.00">::updatePortraitDisplay</text>
</a>
</g>
</g>
<!-- Node22&#45;&gt;Node31 -->
<g id="edge10" class="edge"><title>Node22&#45;&gt;Node31</title>
<path fill="none" stroke="midnightblue" d="M146.05,-95.9502C166.915,-90.5694 189.67,-84.701 209.813,-79.5062"/>
<polygon fill="midnightblue" stroke="midnightblue" points="145.107,-92.579 136.297,-98.4654 146.855,-99.3572 145.107,-92.579"/>
</g>
<!-- Node32 -->
<g id="node11" class="node"><title>Node32</title>
<g id="a_node11"><a xlink:href="class_view_1_1_view_side_display_manager.html#ab59ef4f3ccf31ab8d82fc1c1d55421c3" target="_top" xlink:title="View::ViewSideDisplayManager\l::updateWeaponDisplay">
<polygon fill="white" stroke="black" points="192,-0.5 192,-30.5 346,-30.5 346,-0.5 192,-0.5"/>
<text text-anchor="start" x="200" y="-18.5" font-family="Helvetica,sans-Serif" font-size="10.00">View::ViewSideDisplayManager</text>
<text text-anchor="middle" x="269" y="-7.5" font-family="Helvetica,sans-Serif" font-size="10.00">::updateWeaponDisplay</text>
</a>
</g>
</g>
<!-- Node22&#45;&gt;Node32 -->
<g id="edge11" class="edge"><title>Node22&#45;&gt;Node32</title>
<path fill="none" stroke="midnightblue" d="M105.867,-92.3085C127.808,-76.3885 159.653,-54.9316 190,-40.5 197.705,-36.8358 206.083,-33.5158 214.396,-30.5801"/>
<polygon fill="midnightblue" stroke="midnightblue" points="103.664,-89.5837 97.6791,-98.3262 107.81,-95.2242 103.664,-89.5837"/>
</g>
<!-- Node24 -->
<g id="node3" class="node"><title>Node24</title>
<g id="a_node3"><a xlink:href="class_view_1_1_view_side_display_manager.html#af8744ac5c83cd4bd7a085c68f3ed8bd1" target="_top" xlink:title="View::ViewSideDisplayManager\l::changeSelectedActor">
<polygon fill="white" stroke="black" points="384,-220.5 384,-250.5 538,-250.5 538,-220.5 384,-220.5"/>
<text text-anchor="start" x="392" y="-238.5" font-family="Helvetica,sans-Serif" font-size="10.00">View::ViewSideDisplayManager</text>
<text text-anchor="middle" x="461" y="-227.5" font-family="Helvetica,sans-Serif" font-size="10.00">::changeSelectedActor</text>
</a>
</g>
</g>
<!-- Node23&#45;&gt;Node24 -->
<g id="edge2" class="edge"><title>Node23&#45;&gt;Node24</title>
<path fill="none" stroke="midnightblue" d="M356.135,-222.38C365.361,-223.546 374.699,-224.725 383.797,-225.874"/>
<polygon fill="midnightblue" stroke="midnightblue" points="356.545,-218.904 346.185,-221.123 355.668,-225.849 356.545,-218.904"/>
</g>
<!-- Node27 -->
<g id="node6" class="node"><title>Node27</title>
<g id="a_node6"><a xlink:href="class_view_1_1_view_side_display_manager.html#a5cb0bcdc7216d8bbb5e1e07a2f229048" target="_top" xlink:title="View::ViewSideDisplayManager\l::setSelectedWeapon">
<polygon fill="white" stroke="black" points="384,-171.5 384,-201.5 538,-201.5 538,-171.5 384,-171.5"/>
<text text-anchor="start" x="392" y="-189.5" font-family="Helvetica,sans-Serif" font-size="10.00">View::ViewSideDisplayManager</text>
<text text-anchor="middle" x="461" y="-178.5" font-family="Helvetica,sans-Serif" font-size="10.00">::setSelectedWeapon</text>
</a>
</g>
</g>
<!-- Node23&#45;&gt;Node27 -->
<g id="edge5" class="edge"><title>Node23&#45;&gt;Node27</title>
<path fill="none" stroke="midnightblue" d="M356.135,-200.166C365.361,-198.953 374.699,-197.724 383.797,-196.527"/>
<polygon fill="midnightblue" stroke="midnightblue" points="355.643,-196.701 346.185,-201.476 356.557,-203.641 355.643,-196.701"/>
</g>
<!-- Node25 -->
<g id="node4" class="node"><title>Node25</title>
<g id="a_node4"><a xlink:href="class_view_1_1_view_side_display_manager.html#a0399212235e7ef837918e2c34c03265f" target="_top" xlink:title="View::ViewSideDisplayManager\l::missionFinishSelections">
<polygon fill="white" stroke="black" points="574,-196.5 574,-226.5 728,-226.5 728,-196.5 574,-196.5"/>
<text text-anchor="start" x="582" y="-214.5" font-family="Helvetica,sans-Serif" font-size="10.00">View::ViewSideDisplayManager</text>
<text text-anchor="middle" x="651" y="-203.5" font-family="Helvetica,sans-Serif" font-size="10.00">::missionFinishSelections</text>
</a>
</g>
</g>
<!-- Node24&#45;&gt;Node25 -->
<g id="edge3" class="edge"><title>Node24&#45;&gt;Node25</title>
<path fill="none" stroke="midnightblue" d="M548.146,-224.503C556.67,-223.414 565.281,-222.315 573.696,-221.241"/>
<polygon fill="midnightblue" stroke="midnightblue" points="547.672,-221.035 538.196,-225.773 548.559,-227.978 547.672,-221.035"/>
</g>
<!-- Node26 -->
<g id="node5" class="node"><title>Node26</title>
<g id="a_node5"><a xlink:href="class_view_1_1_view_side_display_manager.html#a3443e9c81874ddb7c62b5073e4580e7c" target="_top" xlink:title="View::ViewSideDisplayManager\l::missionStartActorSelection">
<polygon fill="white" stroke="black" points="574,-245.5 574,-275.5 728,-275.5 728,-245.5 574,-245.5"/>
<text text-anchor="start" x="582" y="-263.5" font-family="Helvetica,sans-Serif" font-size="10.00">View::ViewSideDisplayManager</text>
<text text-anchor="middle" x="651" y="-252.5" font-family="Helvetica,sans-Serif" font-size="10.00">::missionStartActorSelection</text>
</a>
</g>
</g>
<!-- Node24&#45;&gt;Node26 -->
<g id="edge4" class="edge"><title>Node24&#45;&gt;Node26</title>
<path fill="none" stroke="midnightblue" d="M548.146,-246.956C556.67,-248.089 565.281,-249.234 573.696,-250.353"/>
<polygon fill="midnightblue" stroke="midnightblue" points="548.57,-243.481 538.196,-245.632 547.647,-250.42 548.57,-243.481"/>
</g>
<!-- Node27&#45;&gt;Node25 -->
<g id="edge7" class="edge"><title>Node27&#45;&gt;Node25</title>
<path fill="none" stroke="midnightblue" d="M548.146,-197.956C556.67,-199.089 565.281,-200.234 573.696,-201.353"/>
<polygon fill="midnightblue" stroke="midnightblue" points="548.57,-194.481 538.196,-196.632 547.647,-201.42 548.57,-194.481"/>
</g>
<!-- Node28 -->
<g id="node7" class="node"><title>Node28</title>
<g id="a_node7"><a xlink:href="class_view_1_1_view_side_display_manager.html#ab0451ac52b6696138cbf5d7b82821ef6" target="_top" xlink:title="View::ViewSideDisplayManager\l::missionStartWeaponSelection">
<polygon fill="white" stroke="black" points="574,-147.5 574,-177.5 728,-177.5 728,-147.5 574,-147.5"/>
<text text-anchor="start" x="582" y="-165.5" font-family="Helvetica,sans-Serif" font-size="10.00">View::ViewSideDisplayManager</text>
<text text-anchor="middle" x="651" y="-154.5" font-family="Helvetica,sans-Serif" font-size="10.00">::missionStartWeaponSelection</text>
</a>
</g>
</g>
<!-- Node27&#45;&gt;Node28 -->
<g id="edge6" class="edge"><title>Node27&#45;&gt;Node28</title>
<path fill="none" stroke="midnightblue" d="M548.146,-175.503C556.67,-174.414 565.281,-173.315 573.696,-172.241"/>
<polygon fill="midnightblue" stroke="midnightblue" points="547.672,-172.035 538.196,-176.773 548.559,-178.978 547.672,-172.035"/>
</g>
</g>
</svg>
