<?xml version="1.0" encoding="UTF-8" standalone="no"?>
<!DOCTYPE svg PUBLIC "-//W3C//DTD SVG 1.1//EN"
 "http://www.w3.org/Graphics/SVG/1.1/DTD/svg11.dtd">
<!-- Generated by graphviz version 2.38.0 (20140413.2041)
 -->
<!-- Title: View::ActionSceneEnemyProjectileExplosion Pages: 1 -->
<!--zoomable 331 -->
<svg id="main" version="1.1" xmlns="http://www.w3.org/2000/svg" xmlns:xlink="http://www.w3.org/1999/xlink" xml:space="preserve" onload="init(evt)">
<style type="text/css"><![CDATA[
.edge:hover path { stroke: red; }
.edge:hover polygon { stroke: red; fill: red; }
]]></style>
<script type="text/javascript"><![CDATA[
var edges = document.getElementsByTagName('g');
if (edges && edges.length) {
  for (var i=0;i<edges.length;i++) {
    if (edges[i].id.substr(0,4)=='edge') {
      edges[i].setAttribute('class','edge');
    }
  }
}
]]></script>
        <defs>
                <circle id="rim" cx="0" cy="0" r="7"/>
                <circle id="rim2" cx="0" cy="0" r="3.5"/>
                <g id="zoomPlus">
                        <use xlink:href="#rim" fill="#404040">
                                <set attributeName="fill" to="#808080" begin="zoomplus.mouseover" end="zoomplus.mouseout"/>
                        </use>
                        <path d="M-4,0h8M0,-4v8" fill="none" stroke="white" stroke-width="1.5" pointer-events="none"/>
                </g>
                <g id="zoomMin">
                        <use xlink:href="#rim" fill="#404040">
                                <set attributeName="fill" to="#808080" begin="zoomminus.mouseover" end="zoomminus.mouseout"/>
                        </use>
                        <path d="M-4,0h8" fill="none" stroke="white" stroke-width="1.5" pointer-events="none"/>
                </g>
                <g id="dirArrow">
                        <path fill="none" stroke="white" stroke-width="1.5" d="M0,-3.0v7 M-2.5,-0.5L0,-3.0L2.5,-0.5"/>
                </g>
               <g id="resetDef">
                       <use xlink:href="#rim2" fill="#404040">
                               <set attributeName="fill" to="#808080" begin="reset.mouseover" end="reset.mouseout"/>
                       </use>
               </g>
        </defs>

<script type="text/javascript">
var viewWidth = 509;
var viewHeight = 331;
var sectionId = 'dynsection-1';
</script>
<script xlink:href="svgpan.js"/>
<svg id="graph" class="graph">
<g id="viewport">
<title>View::ActionSceneEnemyProjectileExplosion</title>
<polygon fill="white" stroke="none" points="-4,4 -4,-327 504.5,-327 504.5,4 -4,4"/>
<!-- Node3 -->
<g id="node1" class="node"><title>Node3</title>
<polygon fill="#bfbfbf" stroke="black" points="180.5,-0.5 180.5,-112.5 350.5,-112.5 350.5,-0.5 180.5,-0.5"/>
<text text-anchor="start" x="188.5" y="-100.5" font-family="Helvetica,sans-Serif" font-size="10.00">View::ActionSceneEnemyProjectile</text>
<text text-anchor="middle" x="265.5" y="-89.5" font-family="Helvetica,sans-Serif" font-size="10.00">Explosion</text>
<polyline fill="none" stroke="black" points="180.5,-82.5 350.5,-82.5 "/>
<text text-anchor="middle" x="265.5" y="-70.5" font-family="Helvetica,sans-Serif" font-size="10.00"> </text>
<polyline fill="none" stroke="black" points="180.5,-63.5 350.5,-63.5 "/>
<text text-anchor="start" x="188.5" y="-51.5" font-family="Helvetica,sans-Serif" font-size="10.00">+ ActionSceneEnemyProjectile</text>
<text text-anchor="start" x="188.5" y="-40.5" font-family="Helvetica,sans-Serif" font-size="10.00">Explosion()</text>
<text text-anchor="start" x="188.5" y="-29.5" font-family="Helvetica,sans-Serif" font-size="10.00">+ ~ActionSceneEnemyProjectile</text>
<text text-anchor="start" x="188.5" y="-18.5" font-family="Helvetica,sans-Serif" font-size="10.00">Explosion()</text>
<text text-anchor="start" x="188.5" y="-7.5" font-family="Helvetica,sans-Serif" font-size="10.00">+ nextFrame()</text>
</g>
<!-- Node4 -->
<g id="node2" class="node"><title>Node4</title>
<g id="a_node2"><a xlink:href="class_q_object.html" target="_top" xlink:title="{QObject\n||}">
<polygon fill="white" stroke="black" points="0,-160.5 0,-217.5 53,-217.5 53,-160.5 0,-160.5"/>
<text text-anchor="middle" x="26.5" y="-205.5" font-family="Helvetica,sans-Serif" font-size="10.00">QObject</text>
<polyline fill="none" stroke="black" points="0,-198.5 53,-198.5 "/>
<text text-anchor="middle" x="26.5" y="-186.5" font-family="Helvetica,sans-Serif" font-size="10.00"> </text>
<polyline fill="none" stroke="black" points="0,-179.5 53,-179.5 "/>
<text text-anchor="middle" x="26.5" y="-167.5" font-family="Helvetica,sans-Serif" font-size="10.00"> </text>
</a>
</g>
</g>
<!-- Node4&#45;&gt;Node3 -->
<g id="edge1" class="edge"><title>Node4&#45;&gt;Node3</title>
<path fill="none" stroke="midnightblue" d="M61.242,-160.166C61.328,-160.11 61.414,-160.055 61.5,-160 99.0365,-135.931 142.978,-113.222 180.447,-95.3253"/>
<polygon fill="none" stroke="midnightblue" points="59.4528,-157.148 53.2152,-165.712 63.432,-162.907 59.4528,-157.148"/>
</g>
<!-- Node5 -->
<g id="node3" class="node"><title>Node5</title>
<g id="a_node3"><a xlink:href="class_q_graphics_pixmap_item.html" target="_top" xlink:title="{QGraphicsPixmapItem\n||}">
<polygon fill="white" stroke="black" points="71,-160.5 71,-217.5 186,-217.5 186,-160.5 71,-160.5"/>
<text text-anchor="middle" x="128.5" y="-205.5" font-family="Helvetica,sans-Serif" font-size="10.00">QGraphicsPixmapItem</text>
<polyline fill="none" stroke="black" points="71,-198.5 186,-198.5 "/>
<text text-anchor="middle" x="128.5" y="-186.5" font-family="Helvetica,sans-Serif" font-size="10.00"> </text>
<polyline fill="none" stroke="black" points="71,-179.5 186,-179.5 "/>
<text text-anchor="middle" x="128.5" y="-167.5" font-family="Helvetica,sans-Serif" font-size="10.00"> </text>
</a>
</g>
</g>
<!-- Node5&#45;&gt;Node3 -->
<g id="edge2" class="edge"><title>Node5&#45;&gt;Node3</title>
<path fill="none" stroke="midnightblue" d="M165.018,-153.215C178.124,-140.731 193.243,-126.328 207.71,-112.548"/>
<polygon fill="none" stroke="midnightblue" points="162.381,-150.893 157.554,-160.324 167.209,-155.961 162.381,-150.893"/>
</g>
<!-- Node6 -->
<g id="node4" class="node"><title>Node6</title>
<polygon fill="white" stroke="#bfbfbf" points="204.5,-160.5 204.5,-217.5 328.5,-217.5 328.5,-160.5 204.5,-160.5"/>
<text text-anchor="middle" x="266.5" y="-205.5" font-family="Helvetica,sans-Serif" font-size="10.00">std::vector&lt; QPixmap *&gt;</text>
<polyline fill="none" stroke="#bfbfbf" points="204.5,-198.5 328.5,-198.5 "/>
<text text-anchor="middle" x="266.5" y="-186.5" font-family="Helvetica,sans-Serif" font-size="10.00"> </text>
<polyline fill="none" stroke="#bfbfbf" points="204.5,-179.5 328.5,-179.5 "/>
<text text-anchor="middle" x="266.5" y="-167.5" font-family="Helvetica,sans-Serif" font-size="10.00"> </text>
</g>
<!-- Node6&#45;&gt;Node3 -->
<g id="edge3" class="edge"><title>Node6&#45;&gt;Node3</title>
<path fill="none" stroke="#404040" d="M266.288,-160.324C266.207,-149.778 266.111,-137.246 266.014,-124.62"/>
<polygon fill="none" stroke="#404040" points="266.014,-124.548 261.968,-118.579 265.922,-112.548 269.968,-118.517 266.014,-124.548"/>
<text text-anchor="middle" x="309.5" y="-134" font-family="Helvetica,sans-Serif" font-size="10.00"> &#45;explosionFrames_</text>
</g>
<!-- Node7 -->
<g id="node5" class="node"><title>Node7</title>
<polygon fill="white" stroke="#bfbfbf" points="234.5,-265.5 234.5,-322.5 298.5,-322.5 298.5,-265.5 234.5,-265.5"/>
<text text-anchor="middle" x="266.5" y="-310.5" font-family="Helvetica,sans-Serif" font-size="10.00">QPixmap *</text>
<polyline fill="none" stroke="#bfbfbf" points="234.5,-303.5 298.5,-303.5 "/>
<text text-anchor="middle" x="266.5" y="-291.5" font-family="Helvetica,sans-Serif" font-size="10.00"> </text>
<polyline fill="none" stroke="#bfbfbf" points="234.5,-284.5 298.5,-284.5 "/>
<text text-anchor="middle" x="266.5" y="-272.5" font-family="Helvetica,sans-Serif" font-size="10.00"> </text>
</g>
<!-- Node7&#45;&gt;Node6 -->
<g id="edge4" class="edge"><title>Node7&#45;&gt;Node6</title>
<path fill="none" stroke="#404040" d="M266.5,-265.398C266.5,-254.545 266.5,-241.873 266.5,-230.049"/>
<polygon fill="none" stroke="#404040" points="266.5,-229.678 262.5,-223.678 266.5,-217.678 270.5,-223.678 266.5,-229.678"/>
<text text-anchor="middle" x="291" y="-239" font-family="Helvetica,sans-Serif" font-size="10.00"> +elements</text>
</g>
<!-- Node8 -->
<g id="node6" class="node"><title>Node8</title>
<polygon fill="white" stroke="#bfbfbf" points="347,-160.5 347,-217.5 402,-217.5 402,-160.5 347,-160.5"/>
<text text-anchor="middle" x="374.5" y="-205.5" font-family="Helvetica,sans-Serif" font-size="10.00">QTimer *</text>
<polyline fill="none" stroke="#bfbfbf" points="347,-198.5 402,-198.5 "/>
<text text-anchor="middle" x="374.5" y="-186.5" font-family="Helvetica,sans-Serif" font-size="10.00"> </text>
<polyline fill="none" stroke="#bfbfbf" points="347,-179.5 402,-179.5 "/>
<text text-anchor="middle" x="374.5" y="-167.5" font-family="Helvetica,sans-Serif" font-size="10.00"> </text>
</g>
<!-- Node8&#45;&gt;Node3 -->
<g id="edge5" class="edge"><title>Node8&#45;&gt;Node3</title>
<path fill="none" stroke="#404040" d="M366.906,-160.214C363.45,-150.44 358.715,-139.727 352.5,-131 350.333,-127.957 348.013,-124.964 345.572,-122.028"/>
<polygon fill="none" stroke="#404040" points="345.393,-121.827 338.416,-120.004 337.415,-112.862 344.392,-114.685 345.393,-121.827"/>
<text text-anchor="middle" x="388" y="-134" font-family="Helvetica,sans-Serif" font-size="10.00"> &#45;animTimer_</text>
</g>
<!-- Node9 -->
<g id="node7" class="node"><title>Node9</title>
<polygon fill="white" stroke="#bfbfbf" points="440,-160.5 440,-217.5 469,-217.5 469,-160.5 440,-160.5"/>
<text text-anchor="middle" x="454.5" y="-205.5" font-family="Helvetica,sans-Serif" font-size="10.00">int</text>
<polyline fill="none" stroke="#bfbfbf" points="440,-198.5 469,-198.5 "/>
<text text-anchor="middle" x="454.5" y="-186.5" font-family="Helvetica,sans-Serif" font-size="10.00"> </text>
<polyline fill="none" stroke="#bfbfbf" points="440,-179.5 469,-179.5 "/>
<text text-anchor="middle" x="454.5" y="-167.5" font-family="Helvetica,sans-Serif" font-size="10.00"> </text>
</g>
<!-- Node9&#45;&gt;Node3 -->
<g id="edge6" class="edge"><title>Node9&#45;&gt;Node3</title>
<path fill="none" stroke="#404040" d="M442.311,-160.396C436.78,-150.191 429.452,-139.139 420.5,-131 403.424,-115.475 382.484,-102.614 361.583,-92.2266"/>
<polygon fill="none" stroke="#404040" points="361.506,-92.19 354.368,-93.2143 350.677,-87.0193 357.815,-85.995 361.506,-92.19"/>
<text text-anchor="middle" x="465.5" y="-134" font-family="Helvetica,sans-Serif" font-size="10.00"> &#45;frameCounter_</text>
</g>
</g>
</svg>
        <g id="navigator" transform="translate(0 0)" fill="#404254">
                <rect fill="#f2f5e9" fill-opacity="0.5" stroke="#606060" stroke-width=".5" x="0" y="0" width="60" height="60"/>
                <use id="zoomplus" xlink:href="#zoomPlus" x="17" y="9" onmousedown="handleZoom(evt,'in')"/>
                <use id="zoomminus" xlink:href="#zoomMin" x="42" y="9" onmousedown="handleZoom(evt,'out')"/>
                <use id="reset" xlink:href="#resetDef" x="30" y="36" onmousedown="handleReset()"/>
                <g id="arrowUp" xlink:href="#dirArrow" transform="translate(30 24)" onmousedown="handlePan(0,-1)">
                  <use xlink:href="#rim" fill="#404040">
                        <set attributeName="fill" to="#808080" begin="arrowUp.mouseover" end="arrowUp.mouseout"/>
                  </use>
                  <path fill="none" stroke="white" stroke-width="1.5" d="M0,-3.0v7 M-2.5,-0.5L0,-3.0L2.5,-0.5"/>
                </g>
                <g id="arrowRight" xlink:href="#dirArrow" transform="rotate(90) translate(36 -43)" onmousedown="handlePan(1,0)">
                  <use xlink:href="#rim" fill="#404040">
                        <set attributeName="fill" to="#808080" begin="arrowRight.mouseover" end="arrowRight.mouseout"/>
                  </use>
                  <path fill="none" stroke="white" stroke-width="1.5" d="M0,-3.0v7 M-2.5,-0.5L0,-3.0L2.5,-0.5"/>
                </g>
                <g id="arrowDown" xlink:href="#dirArrow" transform="rotate(180) translate(-30 -48)" onmousedown="handlePan(0,1)">
                  <use xlink:href="#rim" fill="#404040">
                        <set attributeName="fill" to="#808080" begin="arrowDown.mouseover" end="arrowDown.mouseout"/>
                  </use>
                  <path fill="none" stroke="white" stroke-width="1.5" d="M0,-3.0v7 M-2.5,-0.5L0,-3.0L2.5,-0.5"/>
                </g>
                <g id="arrowLeft" xlink:href="#dirArrow" transform="rotate(270) translate(-36 17)" onmousedown="handlePan(-1,0)">
                  <use xlink:href="#rim" fill="#404040">
                        <set attributeName="fill" to="#808080" begin="arrowLeft.mouseover" end="arrowLeft.mouseout"/>
                  </use>
                  <path fill="none" stroke="white" stroke-width="1.5" d="M0,-3.0v7 M-2.5,-0.5L0,-3.0L2.5,-0.5"/>
                </g>
        </g>
        <svg viewBox="0 0 15 15" width="100%" height="30px" preserveAspectRatio="xMaxYMin meet">
         <g id="arrow_out" transform="scale(0.3 0.3)">
          <a xlink:href="class_view_1_1_action_scene_enemy_projectile_explosion__coll__graph_org.svg" target="_base">
           <rect id="button" ry="5" rx="5" y="6" x="6" height="38" width="38"
                fill="#f2f5e9" fill-opacity="0.5" stroke="#606060" stroke-width="1.0"/>
           <path id="arrow"
             d="M 11.500037,31.436501 C 11.940474,20.09759 22.043105,11.32322 32.158766,21.979434 L 37.068811,17.246167 C 37.068811,17.246167 37.088388,32 37.088388,32 L 22.160133,31.978069 C 22.160133,31.978069 26.997745,27.140456 26.997745,27.140456 C 18.528582,18.264221 13.291696,25.230495 11.500037,31.436501 z"
             style="fill:#404040;"/>
          </a>
         </g>
        </svg>
</svg>
