<?xml version="1.0" encoding="UTF-8" standalone="no"?>
<!DOCTYPE svg PUBLIC "-//W3C//DTD SVG 1.1//EN"
 "http://www.w3.org/Graphics/SVG/1.1/DTD/svg11.dtd">
<!-- Generated by graphviz version 2.38.0 (20140413.2041)
 -->
<!-- Title: View::ActionSceneEnemyProjectile Pages: 1 -->
<svg width="623pt" height="331pt"
 viewBox="0.00 0.00 622.50 331.00" xmlns="http://www.w3.org/2000/svg" xmlns:xlink="http://www.w3.org/1999/xlink">
<g id="graph0" class="graph" transform="scale(1 1) rotate(0) translate(4 327)">
<title>View::ActionSceneEnemyProjectile</title>
<polygon fill="white" stroke="none" points="-4,4 -4,-327 618.5,-327 618.5,4 -4,4"/>
<!-- Node3 -->
<g id="node1" class="node"><title>Node3</title>
<polygon fill="#bfbfbf" stroke="black" points="233.5,-0.5 233.5,-101.5 403.5,-101.5 403.5,-0.5 233.5,-0.5"/>
<text text-anchor="middle" x="318.5" y="-89.5" font-family="Helvetica,sans-Serif" font-size="10.00">View::ActionSceneEnemyProjectile</text>
<polyline fill="none" stroke="black" points="233.5,-82.5 403.5,-82.5 "/>
<text text-anchor="middle" x="318.5" y="-70.5" font-family="Helvetica,sans-Serif" font-size="10.00"> </text>
<polyline fill="none" stroke="black" points="233.5,-63.5 403.5,-63.5 "/>
<text text-anchor="start" x="241.5" y="-51.5" font-family="Helvetica,sans-Serif" font-size="10.00">+ ActionSceneEnemyProjectile()</text>
<text text-anchor="start" x="241.5" y="-40.5" font-family="Helvetica,sans-Serif" font-size="10.00">+ ~ActionSceneEnemyProjectile()</text>
<text text-anchor="start" x="241.5" y="-29.5" font-family="Helvetica,sans-Serif" font-size="10.00">+ setPosition()</text>
<text text-anchor="start" x="241.5" y="-18.5" font-family="Helvetica,sans-Serif" font-size="10.00">+ nextFrame()</text>
<text text-anchor="start" x="241.5" y="-7.5" font-family="Helvetica,sans-Serif" font-size="10.00">+ move()</text>
</g>
<!-- Node4 -->
<g id="node2" class="node"><title>Node4</title>
<g id="a_node2"><a xlink:href="class_q_object.html" target="_top" xlink:title="{QObject\n||}">
<polygon fill="white" stroke="black" points="0,-160.5 0,-217.5 53,-217.5 53,-160.5 0,-160.5"/>
<text text-anchor="middle" x="26.5" y="-205.5" font-family="Helvetica,sans-Serif" font-size="10.00">QObject</text>
<polyline fill="none" stroke="black" points="0,-198.5 53,-198.5 "/>
<text text-anchor="middle" x="26.5" y="-186.5" font-family="Helvetica,sans-Serif" font-size="10.00"> </text>
<polyline fill="none" stroke="black" points="0,-179.5 53,-179.5 "/>
<text text-anchor="middle" x="26.5" y="-167.5" font-family="Helvetica,sans-Serif" font-size="10.00"> </text>
</a>
</g>
</g>
<!-- Node4&#45;&gt;Node3 -->
<g id="edge1" class="edge"><title>Node4&#45;&gt;Node3</title>
<path fill="none" stroke="midnightblue" d="M61.2366,-160.157C61.3244,-160.105 61.4122,-160.052 61.5,-160 116,-127.606 182.02,-100.084 233.498,-80.9316"/>
<polygon fill="none" stroke="midnightblue" points="59.5239,-157.094 53.0932,-165.514 63.3711,-162.942 59.5239,-157.094"/>
</g>
<!-- Node5 -->
<g id="node3" class="node"><title>Node5</title>
<g id="a_node3"><a xlink:href="class_q_graphics_pixmap_item.html" target="_top" xlink:title="{QGraphicsPixmapItem\n||}">
<polygon fill="white" stroke="black" points="71,-160.5 71,-217.5 186,-217.5 186,-160.5 71,-160.5"/>
<text text-anchor="middle" x="128.5" y="-205.5" font-family="Helvetica,sans-Serif" font-size="10.00">QGraphicsPixmapItem</text>
<polyline fill="none" stroke="black" points="71,-198.5 186,-198.5 "/>
<text text-anchor="middle" x="128.5" y="-186.5" font-family="Helvetica,sans-Serif" font-size="10.00"> </text>
<polyline fill="none" stroke="black" points="71,-179.5 186,-179.5 "/>
<text text-anchor="middle" x="128.5" y="-167.5" font-family="Helvetica,sans-Serif" font-size="10.00"> </text>
</a>
</g>
</g>
<!-- Node5&#45;&gt;Node3 -->
<g id="edge2" class="edge"><title>Node5&#45;&gt;Node3</title>
<path fill="none" stroke="midnightblue" d="M175.211,-154.565C197.42,-138.668 224.424,-119.338 248.977,-101.764"/>
<polygon fill="none" stroke="midnightblue" points="173.044,-151.812 166.949,-160.478 177.118,-157.504 173.044,-151.812"/>
</g>
<!-- Node6 -->
<g id="node4" class="node"><title>Node6</title>
<polygon fill="white" stroke="#bfbfbf" points="204.5,-160.5 204.5,-217.5 328.5,-217.5 328.5,-160.5 204.5,-160.5"/>
<text text-anchor="middle" x="266.5" y="-205.5" font-family="Helvetica,sans-Serif" font-size="10.00">std::vector&lt; QPixmap *&gt;</text>
<polyline fill="none" stroke="#bfbfbf" points="204.5,-198.5 328.5,-198.5 "/>
<text text-anchor="middle" x="266.5" y="-186.5" font-family="Helvetica,sans-Serif" font-size="10.00"> </text>
<polyline fill="none" stroke="#bfbfbf" points="204.5,-179.5 328.5,-179.5 "/>
<text text-anchor="middle" x="266.5" y="-167.5" font-family="Helvetica,sans-Serif" font-size="10.00"> </text>
</g>
<!-- Node6&#45;&gt;Node3 -->
<g id="edge3" class="edge"><title>Node6&#45;&gt;Node3</title>
<path fill="none" stroke="#404040" d="M263.066,-160.201C262.476,-147.615 263.15,-132.737 267.5,-120 268.372,-117.447 269.379,-114.912 270.499,-112.405"/>
<polygon fill="none" stroke="#404040" points="270.554,-112.297 269.745,-105.131 276.048,-101.628 276.857,-108.793 270.554,-112.297"/>
<text text-anchor="middle" x="308" y="-128.5" font-family="Helvetica,sans-Serif" font-size="10.00"> &#45;lightningFrames_</text>
</g>
<!-- Node7 -->
<g id="node5" class="node"><title>Node7</title>
<polygon fill="white" stroke="#bfbfbf" points="234.5,-265.5 234.5,-322.5 298.5,-322.5 298.5,-265.5 234.5,-265.5"/>
<text text-anchor="middle" x="266.5" y="-310.5" font-family="Helvetica,sans-Serif" font-size="10.00">QPixmap *</text>
<polyline fill="none" stroke="#bfbfbf" points="234.5,-303.5 298.5,-303.5 "/>
<text text-anchor="middle" x="266.5" y="-291.5" font-family="Helvetica,sans-Serif" font-size="10.00"> </text>
<polyline fill="none" stroke="#bfbfbf" points="234.5,-284.5 298.5,-284.5 "/>
<text text-anchor="middle" x="266.5" y="-272.5" font-family="Helvetica,sans-Serif" font-size="10.00"> </text>
</g>
<!-- Node7&#45;&gt;Node6 -->
<g id="edge4" class="edge"><title>Node7&#45;&gt;Node6</title>
<path fill="none" stroke="#404040" d="M266.5,-265.398C266.5,-254.545 266.5,-241.873 266.5,-230.049"/>
<polygon fill="none" stroke="#404040" points="266.5,-229.678 262.5,-223.678 266.5,-217.678 270.5,-223.678 266.5,-229.678"/>
<text text-anchor="middle" x="291" y="-239" font-family="Helvetica,sans-Serif" font-size="10.00"> +elements</text>
</g>
<!-- Node8 -->
<g id="node6" class="node"><title>Node8</title>
<polygon fill="white" stroke="#bfbfbf" points="347,-160.5 347,-217.5 402,-217.5 402,-160.5 347,-160.5"/>
<text text-anchor="middle" x="374.5" y="-205.5" font-family="Helvetica,sans-Serif" font-size="10.00">QTimer *</text>
<polyline fill="none" stroke="#bfbfbf" points="347,-198.5 402,-198.5 "/>
<text text-anchor="middle" x="374.5" y="-186.5" font-family="Helvetica,sans-Serif" font-size="10.00"> </text>
<polyline fill="none" stroke="#bfbfbf" points="347,-179.5 402,-179.5 "/>
<text text-anchor="middle" x="374.5" y="-167.5" font-family="Helvetica,sans-Serif" font-size="10.00"> </text>
</g>
<!-- Node8&#45;&gt;Node3 -->
<g id="edge5" class="edge"><title>Node8&#45;&gt;Node3</title>
<path fill="none" stroke="#404040" d="M364.312,-160.414C359.637,-148.005 353.934,-133.208 348.5,-120 347.541,-117.669 346.554,-115.299 345.548,-112.907"/>
<polygon fill="none" stroke="#404040" points="345.451,-112.68 339.419,-108.729 340.745,-101.641 346.778,-105.592 345.451,-112.68"/>
<text text-anchor="middle" x="386.5" y="-128.5" font-family="Helvetica,sans-Serif" font-size="10.00"> &#45;moveTimer_</text>
</g>
<!-- Node9 -->
<g id="node7" class="node"><title>Node9</title>
<polygon fill="white" stroke="#bfbfbf" points="437,-160.5 437,-217.5 466,-217.5 466,-160.5 437,-160.5"/>
<text text-anchor="middle" x="451.5" y="-205.5" font-family="Helvetica,sans-Serif" font-size="10.00">int</text>
<polyline fill="none" stroke="#bfbfbf" points="437,-198.5 466,-198.5 "/>
<text text-anchor="middle" x="451.5" y="-186.5" font-family="Helvetica,sans-Serif" font-size="10.00"> </text>
<polyline fill="none" stroke="#bfbfbf" points="437,-179.5 466,-179.5 "/>
<text text-anchor="middle" x="451.5" y="-167.5" font-family="Helvetica,sans-Serif" font-size="10.00"> </text>
</g>
<!-- Node9&#45;&gt;Node3 -->
<g id="edge6" class="edge"><title>Node9&#45;&gt;Node3</title>
<path fill="none" stroke="#404040" d="M442.368,-160.211C437.106,-147.046 429.524,-131.685 419.5,-120 416.575,-116.591 413.44,-113.279 410.15,-110.072"/>
<polygon fill="none" stroke="#404040" points="409.982,-109.918 402.853,-108.831 401.115,-101.832 408.244,-102.92 409.982,-109.918"/>
<text text-anchor="middle" x="467" y="-134" font-family="Helvetica,sans-Serif" font-size="10.00"> &#45;range_</text>
<text text-anchor="middle" x="467" y="-123" font-family="Helvetica,sans-Serif" font-size="10.00">&#45;frameCounter_</text>
</g>
<!-- Node10 -->
<g id="node8" class="node"><title>Node10</title>
<polygon fill="white" stroke="#bfbfbf" points="484.5,-160.5 484.5,-217.5 614.5,-217.5 614.5,-160.5 484.5,-160.5"/>
<text text-anchor="middle" x="549.5" y="-205.5" font-family="Helvetica,sans-Serif" font-size="10.00">QList&lt; QGraphicsItem * &gt;</text>
<polyline fill="none" stroke="#bfbfbf" points="484.5,-198.5 614.5,-198.5 "/>
<text text-anchor="middle" x="549.5" y="-186.5" font-family="Helvetica,sans-Serif" font-size="10.00"> </text>
<polyline fill="none" stroke="#bfbfbf" points="484.5,-179.5 614.5,-179.5 "/>
<text text-anchor="middle" x="549.5" y="-167.5" font-family="Helvetica,sans-Serif" font-size="10.00"> </text>
</g>
<!-- Node10&#45;&gt;Node3 -->
<g id="edge7" class="edge"><title>Node10&#45;&gt;Node3</title>
<path fill="none" stroke="#404040" d="M536.561,-160.408C528.91,-146.648 518.055,-130.703 504.5,-120 478.658,-99.596 446.121,-84.9418 415.515,-74.5909"/>
<polygon fill="none" stroke="#404040" points="415.315,-74.5261 408.375,-76.4845 403.898,-70.8315 410.838,-68.8731 415.315,-74.5261"/>
<text text-anchor="middle" x="548.5" y="-128.5" font-family="Helvetica,sans-Serif" font-size="10.00"> &#45;colliders_</text>
</g>
</g>
</svg>
