<?xml version="1.0" encoding="UTF-8" standalone="no"?>
<!DOCTYPE svg PUBLIC "-//W3C//DTD SVG 1.1//EN"
 "http://www.w3.org/Graphics/SVG/1.1/DTD/svg11.dtd">
<!-- Generated by graphviz version 2.38.0 (20140413.2041)
 -->
<!-- Title: View::ActionSceneEndMissionDisplay Pages: 1 -->
<svg width="244pt" height="193pt"
 viewBox="0.00 0.00 243.50 193.00" xmlns="http://www.w3.org/2000/svg" xmlns:xlink="http://www.w3.org/1999/xlink">
<g id="graph0" class="graph" transform="scale(1 1) rotate(0) translate(4 189)">
<title>View::ActionSceneEndMissionDisplay</title>
<polygon fill="white" stroke="none" points="-4,4 -4,-189 239.5,-189 239.5,4 -4,4"/>
<!-- Node2 -->
<g id="node1" class="node"><title>Node2</title>
<polygon fill="#bfbfbf" stroke="black" points="2.5,-0.5 2.5,-79.5 178.5,-79.5 178.5,-0.5 2.5,-0.5"/>
<text text-anchor="start" x="10.5" y="-67.5" font-family="Helvetica,sans-Serif" font-size="10.00">View::ActionSceneEndMission</text>
<text text-anchor="middle" x="90.5" y="-56.5" font-family="Helvetica,sans-Serif" font-size="10.00">Display</text>
<polyline fill="none" stroke="black" points="2.5,-49.5 178.5,-49.5 "/>
<text text-anchor="middle" x="90.5" y="-37.5" font-family="Helvetica,sans-Serif" font-size="10.00"> </text>
<polyline fill="none" stroke="black" points="2.5,-30.5 178.5,-30.5 "/>
<text text-anchor="start" x="10.5" y="-18.5" font-family="Helvetica,sans-Serif" font-size="10.00">+ ActionSceneEndMissionDisplay()</text>
<text text-anchor="start" x="10.5" y="-7.5" font-family="Helvetica,sans-Serif" font-size="10.00">+ ~ActionSceneEndMissionDisplay()</text>
</g>
<!-- Node3 -->
<g id="node2" class="node"><title>Node3</title>
<g id="a_node2"><a xlink:href="class_q_widget.html" target="_top" xlink:title="{QWidget\n||}">
<polygon fill="white" stroke="black" points="0,-127.5 0,-184.5 55,-184.5 55,-127.5 0,-127.5"/>
<text text-anchor="middle" x="27.5" y="-172.5" font-family="Helvetica,sans-Serif" font-size="10.00">QWidget</text>
<polyline fill="none" stroke="black" points="0,-165.5 55,-165.5 "/>
<text text-anchor="middle" x="27.5" y="-153.5" font-family="Helvetica,sans-Serif" font-size="10.00"> </text>
<polyline fill="none" stroke="black" points="0,-146.5 55,-146.5 "/>
<text text-anchor="middle" x="27.5" y="-134.5" font-family="Helvetica,sans-Serif" font-size="10.00"> </text>
</a>
</g>
</g>
<!-- Node3&#45;&gt;Node2 -->
<g id="edge1" class="edge"><title>Node3&#45;&gt;Node2</title>
<path fill="none" stroke="midnightblue" d="M47.5964,-118.635C54.4868,-106.167 62.2189,-92.1754 69.2013,-79.5406"/>
<polygon fill="none" stroke="midnightblue" points="44.5241,-116.958 42.7505,-127.404 50.6508,-120.344 44.5241,-116.958"/>
</g>
<!-- Node4 -->
<g id="node3" class="node"><title>Node4</title>
<polygon fill="white" stroke="#bfbfbf" points="73.5,-127.5 73.5,-184.5 235.5,-184.5 235.5,-127.5 73.5,-127.5"/>
<text text-anchor="middle" x="154.5" y="-172.5" font-family="Helvetica,sans-Serif" font-size="10.00">ActionSceneEndMissionDisplay *</text>
<polyline fill="none" stroke="#bfbfbf" points="73.5,-165.5 235.5,-165.5 "/>
<text text-anchor="middle" x="154.5" y="-153.5" font-family="Helvetica,sans-Serif" font-size="10.00"> </text>
<polyline fill="none" stroke="#bfbfbf" points="73.5,-146.5 235.5,-146.5 "/>
<text text-anchor="middle" x="154.5" y="-134.5" font-family="Helvetica,sans-Serif" font-size="10.00"> </text>
</g>
<!-- Node4&#45;&gt;Node2 -->
<g id="edge2" class="edge"><title>Node4&#45;&gt;Node2</title>
<path fill="none" stroke="#404040" d="M139.007,-127.404C132.707,-116.181 125.231,-102.864 118.058,-90.0876"/>
<polygon fill="none" stroke="#404040" points="118.011,-90.0044 111.586,-86.7306 112.137,-79.5406 118.562,-82.8143 118.011,-90.0044"/>
<text text-anchor="middle" x="135.5" y="-101" font-family="Helvetica,sans-Serif" font-size="10.00"> &#45;ui</text>
</g>
</g>
</svg>
