<?xml version="1.0" encoding="UTF-8" standalone="no"?>
<!DOCTYPE svg PUBLIC "-//W3C//DTD SVG 1.1//EN"
 "http://www.w3.org/Graphics/SVG/1.1/DTD/svg11.dtd">
<!-- Generated by graphviz version 2.38.0 (20140413.2041)
 -->
<!-- Title: Model::mapProcessor::getDistance Pages: 1 -->
<svg width="266pt" height="88pt"
 viewBox="0.00 0.00 266.00 88.00" xmlns="http://www.w3.org/2000/svg" xmlns:xlink="http://www.w3.org/1999/xlink">
<g id="graph0" class="graph" transform="scale(1 1) rotate(0) translate(4 84)">
<title>Model::mapProcessor::getDistance</title>
<polygon fill="white" stroke="none" points="-4,4 -4,-84 262,-84 262,4 -4,4"/>
<!-- Node17 -->
<g id="node1" class="node"><title>Node17</title>
<polygon fill="#bfbfbf" stroke="black" points="0,-24.5 0,-54.5 112,-54.5 112,-24.5 0,-24.5"/>
<text text-anchor="start" x="8" y="-42.5" font-family="Helvetica,sans-Serif" font-size="10.00">Model::mapProcessor</text>
<text text-anchor="middle" x="56" y="-31.5" font-family="Helvetica,sans-Serif" font-size="10.00">::getDistance</text>
</g>
<!-- Node18 -->
<g id="node2" class="node"><title>Node18</title>
<g id="a_node2"><a xlink:href="class_model_1_1map_generator.html#af153f95aea5145100546ad86ac4b9d02" target="_top" xlink:title="Model::mapGenerator\l::indexToX">
<polygon fill="white" stroke="black" points="148,-49.5 148,-79.5 258,-79.5 258,-49.5 148,-49.5"/>
<text text-anchor="start" x="156" y="-67.5" font-family="Helvetica,sans-Serif" font-size="10.00">Model::mapGenerator</text>
<text text-anchor="middle" x="203" y="-56.5" font-family="Helvetica,sans-Serif" font-size="10.00">::indexToX</text>
</a>
</g>
</g>
<!-- Node17&#45;&gt;Node18 -->
<g id="edge1" class="edge"><title>Node17&#45;&gt;Node18</title>
<path fill="none" stroke="midnightblue" d="M112.232,-49.0227C120.63,-50.4708 129.357,-51.9754 137.925,-53.4525"/>
<polygon fill="midnightblue" stroke="midnightblue" points="137.431,-56.9189 147.88,-55.169 138.62,-50.0207 137.431,-56.9189"/>
</g>
<!-- Node19 -->
<g id="node3" class="node"><title>Node19</title>
<g id="a_node3"><a xlink:href="class_model_1_1map_generator.html#a73020896792ce1a6aa4dd0ce2b9c5caf" target="_top" xlink:title="Model::mapGenerator\l::indexToY">
<polygon fill="white" stroke="black" points="148,-0.5 148,-30.5 258,-30.5 258,-0.5 148,-0.5"/>
<text text-anchor="start" x="156" y="-18.5" font-family="Helvetica,sans-Serif" font-size="10.00">Model::mapGenerator</text>
<text text-anchor="middle" x="203" y="-7.5" font-family="Helvetica,sans-Serif" font-size="10.00">::indexToY</text>
</a>
</g>
</g>
<!-- Node17&#45;&gt;Node19 -->
<g id="edge2" class="edge"><title>Node17&#45;&gt;Node19</title>
<path fill="none" stroke="midnightblue" d="M112.232,-30.3582C120.63,-28.9681 129.357,-27.5236 137.925,-26.1056"/>
<polygon fill="midnightblue" stroke="midnightblue" points="138.586,-29.5438 147.88,-24.4578 137.443,-22.6378 138.586,-29.5438"/>
</g>
</g>
</svg>
