<?xml version="1.0" encoding="UTF-8" standalone="no"?>
<!DOCTYPE svg PUBLIC "-//W3C//DTD SVG 1.1//EN"
 "http://www.w3.org/Graphics/SVG/1.1/DTD/svg11.dtd">
<!-- Generated by graphviz version 2.38.0 (20140413.2041)
 -->
<!-- Title: Model::Model::sellEquipment Pages: 1 -->
<svg width="330pt" height="176pt"
 viewBox="0.00 0.00 330.00 175.50" xmlns="http://www.w3.org/2000/svg" xmlns:xlink="http://www.w3.org/1999/xlink">
<g id="graph0" class="graph" transform="scale(1 1) rotate(0) translate(4 171.5)">
<title>Model::Model::sellEquipment</title>
<polygon fill="white" stroke="none" points="-4,4 -4,-171.5 326,-171.5 326,4 -4,4"/>
<!-- Node58 -->
<g id="node1" class="node"><title>Node58</title>
<polygon fill="#bfbfbf" stroke="black" points="0,-68.5 0,-87.5 143,-87.5 143,-68.5 0,-68.5"/>
<text text-anchor="middle" x="71.5" y="-75.5" font-family="Helvetica,sans-Serif" font-size="10.00">Model::Model::sellEquipment</text>
</g>
<!-- Node59 -->
<g id="node2" class="node"><title>Node59</title>
<g id="a_node2"><a xlink:href="class_interface_1_1_equipment_interface.html#aa1daaba013f75438fa61ba36de568dfc" target="_top" xlink:title="getName palauttaa kyseisen tavaran nimen. ">
<polygon fill="white" stroke="black" points="179,-137 179,-167 322,-167 322,-137 179,-137"/>
<text text-anchor="start" x="187" y="-155" font-family="Helvetica,sans-Serif" font-size="10.00">Interface::EquipmentInterface</text>
<text text-anchor="middle" x="250.5" y="-144" font-family="Helvetica,sans-Serif" font-size="10.00">::getName</text>
</a>
</g>
</g>
<!-- Node58&#45;&gt;Node59 -->
<g id="edge1" class="edge"><title>Node58&#45;&gt;Node59</title>
<path fill="none" stroke="midnightblue" d="M91.4566,-87.6814C112.538,-98.2631 147.746,-115.389 179,-128 183.676,-129.887 188.564,-131.756 193.49,-133.569"/>
<polygon fill="midnightblue" stroke="midnightblue" points="192.37,-136.885 202.965,-136.975 194.739,-130.298 192.37,-136.885"/>
</g>
<!-- Node60 -->
<g id="node3" class="node"><title>Node60</title>
<g id="a_node3"><a xlink:href="class_interface_1_1_equipment_interface.html#ace854f7b94a063252c87cf6b2e57d48d" target="_top" xlink:title="getPrice palauttaa tavaran hinnan. ">
<polygon fill="white" stroke="black" points="179,-88 179,-118 322,-118 322,-88 179,-88"/>
<text text-anchor="start" x="187" y="-106" font-family="Helvetica,sans-Serif" font-size="10.00">Interface::EquipmentInterface</text>
<text text-anchor="middle" x="250.5" y="-95" font-family="Helvetica,sans-Serif" font-size="10.00">::getPrice</text>
</a>
</g>
</g>
<!-- Node58&#45;&gt;Node60 -->
<g id="edge2" class="edge"><title>Node58&#45;&gt;Node60</title>
<path fill="none" stroke="midnightblue" d="M139.921,-87.5227C149.347,-88.8541 159.112,-90.2333 168.753,-91.5951"/>
<polygon fill="midnightblue" stroke="midnightblue" points="168.345,-95.0721 178.736,-93.0051 169.324,-88.1409 168.345,-95.0721"/>
</g>
<!-- Node61 -->
<g id="node4" class="node"><title>Node61</title>
<g id="a_node4"><a xlink:href="class_model_1_1_cyber_teekkari.html#a92758b882cb853cc3d12d72570658db7" target="_top" xlink:title="getWeapon palauttaa viitteen Actorin aseeseen, slotissa 1 tai 2. ">
<polygon fill="white" stroke="black" points="195,-39 195,-69 306,-69 306,-39 195,-39"/>
<text text-anchor="start" x="203" y="-57" font-family="Helvetica,sans-Serif" font-size="10.00">Model::CyberTeekkari</text>
<text text-anchor="middle" x="250.5" y="-46" font-family="Helvetica,sans-Serif" font-size="10.00">::getWeapon</text>
</a>
</g>
</g>
<!-- Node58&#45;&gt;Node61 -->
<g id="edge3" class="edge"><title>Node58&#45;&gt;Node61</title>
<path fill="none" stroke="midnightblue" d="M142.709,-68.4801C156.554,-66.6029 171.022,-64.641 184.679,-62.7893"/>
<polygon fill="midnightblue" stroke="midnightblue" points="185.501,-66.2099 194.94,-61.3979 184.561,-59.2734 185.501,-66.2099"/>
</g>
<!-- Node62 -->
<g id="node5" class="node"><title>Node62</title>
<g id="a_node5"><a xlink:href="class_model_1_1_player.html#a0fc19cc3413063d0f26bf86b7967823e" target="_top" xlink:title="getWeapon palauttaa viitteen Actorin aseeseen, slotissa 1 tai 2. ">
<polygon fill="white" stroke="black" points="184.5,-0.5 184.5,-19.5 316.5,-19.5 316.5,-0.5 184.5,-0.5"/>
<text text-anchor="middle" x="250.5" y="-7.5" font-family="Helvetica,sans-Serif" font-size="10.00">Model::Player::getWeapon</text>
</a>
</g>
</g>
<!-- Node58&#45;&gt;Node62 -->
<g id="edge4" class="edge"><title>Node58&#45;&gt;Node62</title>
<path fill="none" stroke="midnightblue" d="M91.3879,-68.4653C112.409,-58.0963 147.565,-41.4723 179,-30 186.395,-27.3012 194.334,-24.7386 202.121,-22.404"/>
<polygon fill="midnightblue" stroke="midnightblue" points="203.227,-25.7277 211.853,-19.5758 201.273,-19.0058 203.227,-25.7277"/>
</g>
</g>
</svg>
