<?xml version="1.0" encoding="UTF-8" standalone="no"?>
<!DOCTYPE svg PUBLIC "-//W3C//DTD SVG 1.1//EN"
 "http://www.w3.org/Graphics/SVG/1.1/DTD/svg11.dtd">
<!-- Generated by graphviz version 2.38.0 (20140413.2041)
 -->
<!-- Title: Model::PlayerParty::actorShot Pages: 1 -->
<svg width="416pt" height="127pt"
 viewBox="0.00 0.00 416.00 126.50" xmlns="http://www.w3.org/2000/svg" xmlns:xlink="http://www.w3.org/1999/xlink">
<g id="graph0" class="graph" transform="scale(1 1) rotate(0) translate(4 122.5)">
<title>Model::PlayerParty::actorShot</title>
<polygon fill="white" stroke="none" points="-4,4 -4,-122.5 412,-122.5 412,4 -4,4"/>
<!-- Node10 -->
<g id="node1" class="node"><title>Node10</title>
<polygon fill="#bfbfbf" stroke="black" points="0,-39 0,-69 100,-69 100,-39 0,-39"/>
<text text-anchor="start" x="8" y="-57" font-family="Helvetica,sans-Serif" font-size="10.00">Model::PlayerParty</text>
<text text-anchor="middle" x="50" y="-46" font-family="Helvetica,sans-Serif" font-size="10.00">::actorShot</text>
</g>
<!-- Node11 -->
<g id="node2" class="node"><title>Node11</title>
<g id="a_node2"><a xlink:href="class_model_1_1_player_party.html#ab33abac5217cb3fa2bda54d9f307d220" target="_top" xlink:title="Model::PlayerParty\l::getActor">
<polygon fill="white" stroke="black" points="141.5,-88 141.5,-118 241.5,-118 241.5,-88 141.5,-88"/>
<text text-anchor="start" x="149.5" y="-106" font-family="Helvetica,sans-Serif" font-size="10.00">Model::PlayerParty</text>
<text text-anchor="middle" x="191.5" y="-95" font-family="Helvetica,sans-Serif" font-size="10.00">::getActor</text>
</a>
</g>
</g>
<!-- Node10&#45;&gt;Node11 -->
<g id="edge1" class="edge"><title>Node10&#45;&gt;Node11</title>
<path fill="none" stroke="midnightblue" d="M93.9929,-69.1014C107.782,-73.9451 123.217,-79.3664 137.628,-84.4285"/>
<polygon fill="midnightblue" stroke="midnightblue" points="136.814,-87.8522 147.409,-87.8641 139.134,-81.2478 136.814,-87.8522"/>
</g>
<!-- Node12 -->
<g id="node3" class="node"><title>Node12</title>
<g id="a_node3"><a xlink:href="class_model_1_1_cyber_teekkari.html#a3c24a4b1f28a4ddb5a3d41c2e8a0b889" target="_top" xlink:title="Model::CyberTeekkari\l::shoot">
<polygon fill="white" stroke="black" points="136,-39 136,-69 247,-69 247,-39 136,-39"/>
<text text-anchor="start" x="144" y="-57" font-family="Helvetica,sans-Serif" font-size="10.00">Model::CyberTeekkari</text>
<text text-anchor="middle" x="191.5" y="-46" font-family="Helvetica,sans-Serif" font-size="10.00">::shoot</text>
</a>
</g>
</g>
<!-- Node10&#45;&gt;Node12 -->
<g id="edge2" class="edge"><title>Node10&#45;&gt;Node12</title>
<path fill="none" stroke="midnightblue" d="M100.182,-54C108.325,-54 116.877,-54 125.34,-54"/>
<polygon fill="midnightblue" stroke="midnightblue" points="125.583,-57.5001 135.583,-54 125.583,-50.5001 125.583,-57.5001"/>
</g>
<!-- Node14 -->
<g id="node5" class="node"><title>Node14</title>
<g id="a_node5"><a xlink:href="class_model_1_1_player.html#a0717b17761f50c25ef6070239a031b2b" target="_top" xlink:title="Model::Player::shoot">
<polygon fill="white" stroke="black" points="138,-0.5 138,-19.5 245,-19.5 245,-0.5 138,-0.5"/>
<text text-anchor="middle" x="191.5" y="-7.5" font-family="Helvetica,sans-Serif" font-size="10.00">Model::Player::shoot</text>
</a>
</g>
</g>
<!-- Node10&#45;&gt;Node14 -->
<g id="edge4" class="edge"><title>Node10&#45;&gt;Node14</title>
<path fill="none" stroke="midnightblue" d="M98.6178,-38.9808C115.482,-33.6617 134.271,-27.7353 150.442,-22.6346"/>
<polygon fill="midnightblue" stroke="midnightblue" points="151.648,-25.9243 160.132,-19.5783 149.543,-19.2485 151.648,-25.9243"/>
</g>
<!-- Node13 -->
<g id="node4" class="node"><title>Node13</title>
<g id="a_node4"><a xlink:href="class_model_1_1_equipment.html#a0d31eb054954f0d6f03e199aef81f9dd" target="_top" xlink:title="Model::Equipment::shoot">
<polygon fill="white" stroke="black" points="283,-22.5 283,-41.5 408,-41.5 408,-22.5 283,-22.5"/>
<text text-anchor="middle" x="345.5" y="-29.5" font-family="Helvetica,sans-Serif" font-size="10.00">Model::Equipment::shoot</text>
</a>
</g>
</g>
<!-- Node12&#45;&gt;Node13 -->
<g id="edge3" class="edge"><title>Node12&#45;&gt;Node13</title>
<path fill="none" stroke="midnightblue" d="M247.375,-46.0575C255.627,-44.8632 264.239,-43.6168 272.778,-42.3807"/>
<polygon fill="midnightblue" stroke="midnightblue" points="273.349,-45.8348 282.744,-40.9383 272.346,-38.907 273.349,-45.8348"/>
</g>
<!-- Node14&#45;&gt;Node13 -->
<g id="edge5" class="edge"><title>Node14&#45;&gt;Node13</title>
<path fill="none" stroke="midnightblue" d="M245.236,-17.6328C254.177,-18.927 263.594,-20.29 272.922,-21.64"/>
<polygon fill="midnightblue" stroke="midnightblue" points="272.584,-25.1275 282.982,-23.0961 273.587,-18.1997 272.584,-25.1275"/>
</g>
</g>
</svg>
