<?xml version="1.0" encoding="UTF-8" standalone="no"?>
<!DOCTYPE svg PUBLIC "-//W3C//DTD SVG 1.1//EN"
 "http://www.w3.org/Graphics/SVG/1.1/DTD/svg11.dtd">
<!-- Generated by graphviz version 2.38.0 (20140413.2041)
 -->
<!-- Title: Model::Player::setDead Pages: 1 -->
<svg width="429pt" height="39pt"
 viewBox="0.00 0.00 429.00 39.00" xmlns="http://www.w3.org/2000/svg" xmlns:xlink="http://www.w3.org/1999/xlink">
<g id="graph0" class="graph" transform="scale(1 1) rotate(0) translate(4 35)">
<title>Model::Player::setDead</title>
<polygon fill="white" stroke="none" points="-4,4 -4,-35 425,-35 425,4 -4,4"/>
<!-- Node55 -->
<g id="node1" class="node"><title>Node55</title>
<polygon fill="#bfbfbf" stroke="black" points="0,-6 0,-25 119,-25 119,-6 0,-6"/>
<text text-anchor="middle" x="59.5" y="-13" font-family="Helvetica,sans-Serif" font-size="10.00">Model::Player::setDead</text>
</g>
<!-- Node56 -->
<g id="node2" class="node"><title>Node56</title>
<g id="a_node2"><a xlink:href="class_model_1_1_player.html#a0470a457ee9b06bb927b7304df06cad4" target="_top" xlink:title="Model::Player::receivedHit">
<polygon fill="white" stroke="black" points="155,-6 155,-25 285,-25 285,-6 155,-6"/>
<text text-anchor="middle" x="220" y="-13" font-family="Helvetica,sans-Serif" font-size="10.00">Model::Player::receivedHit</text>
</a>
</g>
</g>
<!-- Node55&#45;&gt;Node56 -->
<g id="edge1" class="edge"><title>Node55&#45;&gt;Node56</title>
<path fill="none" stroke="midnightblue" d="M129.297,-15.5C137.771,-15.5 146.406,-15.5 154.807,-15.5"/>
<polygon fill="midnightblue" stroke="midnightblue" points="129.069,-12.0001 119.069,-15.5 129.069,-19.0001 129.069,-12.0001"/>
</g>
<!-- Node57 -->
<g id="node3" class="node"><title>Node57</title>
<g id="a_node3"><a xlink:href="class_model_1_1_player_party.html#aa1e19103d6fa60e0d9778011d68c6174" target="_top" xlink:title="Model::PlayerParty\l::actorHit">
<polygon fill="white" stroke="black" points="321,-0.5 321,-30.5 421,-30.5 421,-0.5 321,-0.5"/>
<text text-anchor="start" x="329" y="-18.5" font-family="Helvetica,sans-Serif" font-size="10.00">Model::PlayerParty</text>
<text text-anchor="middle" x="371" y="-7.5" font-family="Helvetica,sans-Serif" font-size="10.00">::actorHit</text>
</a>
</g>
</g>
<!-- Node56&#45;&gt;Node57 -->
<g id="edge2" class="edge"><title>Node56&#45;&gt;Node57</title>
<path fill="none" stroke="midnightblue" d="M295.229,-15.5C303.922,-15.5 312.621,-15.5 320.851,-15.5"/>
<polygon fill="midnightblue" stroke="midnightblue" points="295.054,-12.0001 285.054,-15.5 295.054,-19.0001 295.054,-12.0001"/>
</g>
</g>
</svg>
