<?xml version="1.0" encoding="UTF-8" standalone="no"?>
<!DOCTYPE svg PUBLIC "-//W3C//DTD SVG 1.1//EN"
 "http://www.w3.org/Graphics/SVG/1.1/DTD/svg11.dtd">
<!-- Generated by graphviz version 2.38.0 (20140413.2041)
 -->
<!-- Title: View::ViewSideDisplayMouseSensitivePixmap::weaponSelectedByMouse Pages: 1 -->
<svg width="383pt" height="50pt"
 viewBox="0.00 0.00 383.00 50.00" xmlns="http://www.w3.org/2000/svg" xmlns:xlink="http://www.w3.org/1999/xlink">
<g id="graph0" class="graph" transform="scale(1 1) rotate(0) translate(4 46)">
<title>View::ViewSideDisplayMouseSensitivePixmap::weaponSelectedByMouse</title>
<polygon fill="white" stroke="none" points="-4,4 -4,-46 379,-46 379,4 -4,4"/>
<!-- Node8 -->
<g id="node1" class="node"><title>Node8</title>
<polygon fill="#bfbfbf" stroke="black" points="0,-0.5 0,-41.5 166,-41.5 166,-0.5 0,-0.5"/>
<text text-anchor="start" x="8" y="-29.5" font-family="Helvetica,sans-Serif" font-size="10.00">View::ViewSideDisplayMouse</text>
<text text-anchor="start" x="8" y="-18.5" font-family="Helvetica,sans-Serif" font-size="10.00">SensitivePixmap::weaponSelected</text>
<text text-anchor="middle" x="83" y="-7.5" font-family="Helvetica,sans-Serif" font-size="10.00">ByMouse</text>
</g>
<!-- Node9 -->
<g id="node2" class="node"><title>Node9</title>
<g id="a_node2"><a xlink:href="class_view_1_1_view_side_display_mouse_sensitive_pixmap.html#afe3681c2d26baaa9ba104d4281f381ab" target="_top" xlink:title="View::ViewSideDisplayMouse\lSensitivePixmap::mousePressEvent">
<polygon fill="white" stroke="black" points="202,-6 202,-36 375,-36 375,-6 202,-6"/>
<text text-anchor="start" x="210" y="-24" font-family="Helvetica,sans-Serif" font-size="10.00">View::ViewSideDisplayMouse</text>
<text text-anchor="middle" x="288.5" y="-13" font-family="Helvetica,sans-Serif" font-size="10.00">SensitivePixmap::mousePressEvent</text>
</a>
</g>
</g>
<!-- Node8&#45;&gt;Node9 -->
<g id="edge1" class="edge"><title>Node8&#45;&gt;Node9</title>
<path fill="none" stroke="midnightblue" d="M176.399,-21C184.82,-21 193.328,-21 201.688,-21"/>
<polygon fill="midnightblue" stroke="midnightblue" points="176.185,-17.5001 166.185,-21 176.185,-24.5001 176.185,-17.5001"/>
</g>
</g>
</svg>
