<?xml version="1.0" encoding="UTF-8" standalone="no"?>
<!DOCTYPE svg PUBLIC "-//W3C//DTD SVG 1.1//EN"
 "http://www.w3.org/Graphics/SVG/1.1/DTD/svg11.dtd">
<!-- Generated by graphviz version 2.38.0 (20140413.2041)
 -->
<!-- Title: View::ActionSceneFeet::setPosition Pages: 1 -->
<svg width="578pt" height="235pt"
 viewBox="0.00 0.00 578.00 235.00" xmlns="http://www.w3.org/2000/svg" xmlns:xlink="http://www.w3.org/1999/xlink">
<g id="graph0" class="graph" transform="scale(1 1) rotate(0) translate(4 231)">
<title>View::ActionSceneFeet::setPosition</title>
<polygon fill="white" stroke="none" points="-4,4 -4,-231 574,-231 574,4 -4,4"/>
<!-- Node12 -->
<g id="node1" class="node"><title>Node12</title>
<polygon fill="#bfbfbf" stroke="black" points="0,-122.5 0,-152.5 119,-152.5 119,-122.5 0,-122.5"/>
<text text-anchor="start" x="8" y="-140.5" font-family="Helvetica,sans-Serif" font-size="10.00">View::ActionSceneFeet</text>
<text text-anchor="middle" x="59.5" y="-129.5" font-family="Helvetica,sans-Serif" font-size="10.00">::setPosition</text>
</g>
<!-- Node13 -->
<g id="node2" class="node"><title>Node13</title>
<g id="a_node2"><a xlink:href="class_view_1_1_action_scene_n_p_c.html#a45581b8b064bede18865c19bc640fd7b" target="_top" xlink:title="View::ActionSceneNPC\l::addFeet">
<polygon fill="white" stroke="black" points="155,-196.5 155,-226.5 274,-226.5 274,-196.5 155,-196.5"/>
<text text-anchor="start" x="163" y="-214.5" font-family="Helvetica,sans-Serif" font-size="10.00">View::ActionSceneNPC</text>
<text text-anchor="middle" x="214.5" y="-203.5" font-family="Helvetica,sans-Serif" font-size="10.00">::addFeet</text>
</a>
</g>
</g>
<!-- Node12&#45;&gt;Node13 -->
<g id="edge1" class="edge"><title>Node12&#45;&gt;Node13</title>
<path fill="none" stroke="midnightblue" d="M96.684,-157.706C114.11,-167.162 135.428,-178.334 155,-187.5 161.462,-190.526 168.414,-193.563 175.19,-196.41"/>
<polygon fill="midnightblue" stroke="midnightblue" points="97.8923,-154.377 87.4389,-152.652 94.5347,-160.52 97.8923,-154.377"/>
</g>
<!-- Node16 -->
<g id="node5" class="node"><title>Node16</title>
<g id="a_node5"><a xlink:href="class_view_1_1_action_scene_p_c.html#a90cf78b1e2bb7bb5ce58ec4de40de44b" target="_top" xlink:title="View::ActionScenePC\l::addFeet">
<polygon fill="white" stroke="black" points="158,-147.5 158,-177.5 271,-177.5 271,-147.5 158,-147.5"/>
<text text-anchor="start" x="166" y="-165.5" font-family="Helvetica,sans-Serif" font-size="10.00">View::ActionScenePC</text>
<text text-anchor="middle" x="214.5" y="-154.5" font-family="Helvetica,sans-Serif" font-size="10.00">::addFeet</text>
</a>
</g>
</g>
<!-- Node12&#45;&gt;Node16 -->
<g id="edge4" class="edge"><title>Node12&#45;&gt;Node16</title>
<path fill="none" stroke="midnightblue" d="M129.171,-148.721C138.806,-150.295 148.609,-151.897 157.959,-153.425"/>
<polygon fill="midnightblue" stroke="midnightblue" points="129.65,-145.253 119.216,-147.094 128.521,-152.161 129.65,-145.253"/>
</g>
<!-- Node17 -->
<g id="node6" class="node"><title>Node17</title>
<g id="a_node6"><a xlink:href="class_view_1_1_action_scene_n_p_c.html#a90dd5d58856a5c950c68a667037169e2" target="_top" xlink:title="View::ActionSceneNPC\l::step">
<polygon fill="white" stroke="black" points="155,-98.5 155,-128.5 274,-128.5 274,-98.5 155,-98.5"/>
<text text-anchor="start" x="163" y="-116.5" font-family="Helvetica,sans-Serif" font-size="10.00">View::ActionSceneNPC</text>
<text text-anchor="middle" x="214.5" y="-105.5" font-family="Helvetica,sans-Serif" font-size="10.00">::step</text>
</a>
</g>
</g>
<!-- Node12&#45;&gt;Node17 -->
<g id="edge5" class="edge"><title>Node12&#45;&gt;Node17</title>
<path fill="none" stroke="midnightblue" d="M129.213,-126.721C137.803,-125.374 146.525,-124.006 154.941,-122.686"/>
<polygon fill="midnightblue" stroke="midnightblue" points="128.553,-123.282 119.216,-128.29 129.638,-130.198 128.553,-123.282"/>
</g>
<!-- Node19 -->
<g id="node8" class="node"><title>Node19</title>
<g id="a_node8"><a xlink:href="class_view_1_1_action_scene_p_c.html#ad27f69a4e9c1a4f89e7306294d182d51" target="_top" xlink:title="View::ActionScenePC\l::step">
<polygon fill="white" stroke="black" points="158,-49.5 158,-79.5 271,-79.5 271,-49.5 158,-49.5"/>
<text text-anchor="start" x="166" y="-67.5" font-family="Helvetica,sans-Serif" font-size="10.00">View::ActionScenePC</text>
<text text-anchor="middle" x="214.5" y="-56.5" font-family="Helvetica,sans-Serif" font-size="10.00">::step</text>
</a>
</g>
</g>
<!-- Node12&#45;&gt;Node19 -->
<g id="edge7" class="edge"><title>Node12&#45;&gt;Node19</title>
<path fill="none" stroke="midnightblue" d="M97.1057,-117.553C114.471,-108.341 135.617,-97.4798 155,-88.5 161.574,-85.4544 168.647,-82.384 175.524,-79.504"/>
<polygon fill="midnightblue" stroke="midnightblue" points="95.0547,-114.68 87.8828,-122.479 98.3525,-120.855 95.0547,-114.68"/>
</g>
<!-- Node14 -->
<g id="node3" class="node"><title>Node14</title>
<g id="a_node3"><a xlink:href="class_view_1_1_action_scene.html#a2da7a8314a9d50cdccf82159f58e5097" target="_top" xlink:title="View::ActionScene::\lspawnEnemy">
<polygon fill="white" stroke="black" points="317,-196.5 317,-226.5 422,-226.5 422,-196.5 317,-196.5"/>
<text text-anchor="start" x="325" y="-214.5" font-family="Helvetica,sans-Serif" font-size="10.00">View::ActionScene::</text>
<text text-anchor="middle" x="369.5" y="-203.5" font-family="Helvetica,sans-Serif" font-size="10.00">spawnEnemy</text>
</a>
</g>
</g>
<!-- Node13&#45;&gt;Node14 -->
<g id="edge2" class="edge"><title>Node13&#45;&gt;Node14</title>
<path fill="none" stroke="midnightblue" d="M284.499,-211.5C295.319,-211.5 306.341,-211.5 316.688,-211.5"/>
<polygon fill="midnightblue" stroke="midnightblue" points="284.216,-208 274.216,-211.5 284.216,-215 284.216,-208"/>
</g>
<!-- Node15 -->
<g id="node4" class="node"><title>Node15</title>
<g id="a_node4"><a xlink:href="class_view_1_1_action_scene.html#af2fabc7baae61ac07ca1a0a5d46814cf" target="_top" xlink:title="View::ActionScene::\laddEnemies">
<polygon fill="white" stroke="black" points="465,-196.5 465,-226.5 570,-226.5 570,-196.5 465,-196.5"/>
<text text-anchor="start" x="473" y="-214.5" font-family="Helvetica,sans-Serif" font-size="10.00">View::ActionScene::</text>
<text text-anchor="middle" x="517.5" y="-203.5" font-family="Helvetica,sans-Serif" font-size="10.00">addEnemies</text>
</a>
</g>
</g>
<!-- Node14&#45;&gt;Node15 -->
<g id="edge3" class="edge"><title>Node14&#45;&gt;Node15</title>
<path fill="none" stroke="midnightblue" d="M432.551,-211.5C443.291,-211.5 454.354,-211.5 464.782,-211.5"/>
<polygon fill="midnightblue" stroke="midnightblue" points="432.385,-208 422.385,-211.5 432.385,-215 432.385,-208"/>
</g>
<!-- Node18 -->
<g id="node7" class="node"><title>Node18</title>
<g id="a_node7"><a xlink:href="class_view_1_1_action_scene_n_p_c.html#a6cee892789b8a4623ea1fbec509b538d" target="_top" xlink:title="View::ActionSceneNPC\l::ActionSceneNPC">
<polygon fill="white" stroke="black" points="310,-98.5 310,-128.5 429,-128.5 429,-98.5 310,-98.5"/>
<text text-anchor="start" x="318" y="-116.5" font-family="Helvetica,sans-Serif" font-size="10.00">View::ActionSceneNPC</text>
<text text-anchor="middle" x="369.5" y="-105.5" font-family="Helvetica,sans-Serif" font-size="10.00">::ActionSceneNPC</text>
</a>
</g>
</g>
<!-- Node17&#45;&gt;Node18 -->
<g id="edge6" class="edge"><title>Node17&#45;&gt;Node18</title>
<path fill="none" stroke="midnightblue" d="M284.493,-113.5C292.993,-113.5 301.617,-113.5 309.941,-113.5"/>
<polygon fill="midnightblue" stroke="midnightblue" points="284.216,-110 274.216,-113.5 284.216,-117 284.216,-110"/>
</g>
<!-- Node20 -->
<g id="node9" class="node"><title>Node20</title>
<g id="a_node9"><a xlink:href="class_view_1_1_action_scene_p_c.html#a714b6915be90d0961d30be1cc19056b9" target="_top" xlink:title="View::ActionScenePC\l::ActionScenePC">
<polygon fill="white" stroke="black" points="313,-49.5 313,-79.5 426,-79.5 426,-49.5 313,-49.5"/>
<text text-anchor="start" x="321" y="-67.5" font-family="Helvetica,sans-Serif" font-size="10.00">View::ActionScenePC</text>
<text text-anchor="middle" x="369.5" y="-56.5" font-family="Helvetica,sans-Serif" font-size="10.00">::ActionScenePC</text>
</a>
</g>
</g>
<!-- Node19&#45;&gt;Node20 -->
<g id="edge8" class="edge"><title>Node19&#45;&gt;Node20</title>
<path fill="none" stroke="midnightblue" d="M281.18,-64.5C291.739,-64.5 302.578,-64.5 312.872,-64.5"/>
<polygon fill="midnightblue" stroke="midnightblue" points="281.169,-61.0001 271.169,-64.5 281.169,-68.0001 281.169,-61.0001"/>
</g>
<!-- Node21 -->
<g id="node10" class="node"><title>Node21</title>
<g id="a_node10"><a xlink:href="class_view_1_1_action_scene_p_c.html#a7afaff64d6ed89491e87924461270084" target="_top" xlink:title="View::ActionScenePC\l::type">
<polygon fill="white" stroke="black" points="313,-0.5 313,-30.5 426,-30.5 426,-0.5 313,-0.5"/>
<text text-anchor="start" x="321" y="-18.5" font-family="Helvetica,sans-Serif" font-size="10.00">View::ActionScenePC</text>
<text text-anchor="middle" x="369.5" y="-7.5" font-family="Helvetica,sans-Serif" font-size="10.00">::type</text>
</a>
</g>
</g>
<!-- Node19&#45;&gt;Node21 -->
<g id="edge9" class="edge"><title>Node19&#45;&gt;Node21</title>
<path fill="none" stroke="midnightblue" d="M272.513,-46.2409C288.65,-41.0727 306.027,-35.5076 321.502,-30.5516"/>
<polygon fill="midnightblue" stroke="midnightblue" points="271.109,-43.0152 262.653,-49.3986 273.245,-49.6817 271.109,-43.0152"/>
</g>
</g>
</svg>
