<?xml version="1.0" encoding="UTF-8" standalone="no"?>
<!DOCTYPE svg PUBLIC "-//W3C//DTD SVG 1.1//EN"
 "http://www.w3.org/Graphics/SVG/1.1/DTD/svg11.dtd">
<!-- Generated by graphviz version 2.38.0 (20140413.2041)
 -->
<!-- Title: View::ActionScene::enemyWandered Pages: 1 -->
<svg width="536pt" height="61pt"
 viewBox="0.00 0.00 536.00 61.00" xmlns="http://www.w3.org/2000/svg" xmlns:xlink="http://www.w3.org/1999/xlink">
<g id="graph0" class="graph" transform="scale(1 1) rotate(0) translate(4 57)">
<title>View::ActionScene::enemyWandered</title>
<polygon fill="white" stroke="none" points="-4,4 -4,-57 532,-57 532,4 -4,4"/>
<!-- Node145 -->
<g id="node1" class="node"><title>Node145</title>
<polygon fill="#bfbfbf" stroke="black" points="0,-0.5 0,-30.5 105,-30.5 105,-0.5 0,-0.5"/>
<text text-anchor="start" x="8" y="-18.5" font-family="Helvetica,sans-Serif" font-size="10.00">View::ActionScene::</text>
<text text-anchor="middle" x="52.5" y="-7.5" font-family="Helvetica,sans-Serif" font-size="10.00">enemyWandered</text>
</g>
<!-- Node146 -->
<g id="node2" class="node"><title>Node146</title>
<g id="a_node2"><a xlink:href="class_view_1_1_action_scene.html#a03d6bd779731feb9bc256844ec3fb0ae" target="_top" xlink:title="View::ActionScene::\lenemyPatrolled">
<polygon fill="white" stroke="black" points="141,-22.5 141,-52.5 246,-52.5 246,-22.5 141,-22.5"/>
<text text-anchor="start" x="149" y="-40.5" font-family="Helvetica,sans-Serif" font-size="10.00">View::ActionScene::</text>
<text text-anchor="middle" x="193.5" y="-29.5" font-family="Helvetica,sans-Serif" font-size="10.00">enemyPatrolled</text>
</a>
</g>
</g>
<!-- Node145&#45;&gt;Node146 -->
<g id="edge1" class="edge"><title>Node145&#45;&gt;Node146</title>
<path fill="none" stroke="midnightblue" d="M115.163,-25.2596C123.69,-26.6091 132.375,-27.9839 140.698,-29.3012"/>
<polygon fill="midnightblue" stroke="midnightblue" points="115.683,-21.7984 105.258,-23.692 114.588,-28.7123 115.683,-21.7984"/>
</g>
<!-- Node147 -->
<g id="node3" class="node"><title>Node147</title>
<g id="a_node3"><a xlink:href="class_view_1_1_action_scene.html#a2da7a8314a9d50cdccf82159f58e5097" target="_top" xlink:title="View::ActionScene::\lspawnEnemy">
<polygon fill="white" stroke="black" points="282,-0.5 282,-30.5 387,-30.5 387,-0.5 282,-0.5"/>
<text text-anchor="start" x="290" y="-18.5" font-family="Helvetica,sans-Serif" font-size="10.00">View::ActionScene::</text>
<text text-anchor="middle" x="334.5" y="-7.5" font-family="Helvetica,sans-Serif" font-size="10.00">spawnEnemy</text>
</a>
</g>
</g>
<!-- Node145&#45;&gt;Node147 -->
<g id="edge4" class="edge"><title>Node145&#45;&gt;Node147</title>
<path fill="none" stroke="midnightblue" d="M115.342,-13.9104C123.959,-13.7403 132.7,-13.5948 141,-13.5 187.664,-12.9668 199.336,-12.9668 246,-13.5 257.547,-13.632 269.95,-13.8618 281.683,-14.1199"/>
<polygon fill="midnightblue" stroke="midnightblue" points="115.242,-10.4116 105.317,-14.1199 115.388,-17.4101 115.242,-10.4116"/>
</g>
<!-- Node146&#45;&gt;Node147 -->
<g id="edge2" class="edge"><title>Node146&#45;&gt;Node147</title>
<path fill="none" stroke="midnightblue" d="M256.163,-27.7404C264.69,-26.3909 273.375,-25.0161 281.698,-23.6988"/>
<polygon fill="midnightblue" stroke="midnightblue" points="255.588,-24.2877 246.258,-29.308 256.683,-31.2016 255.588,-24.2877"/>
</g>
<!-- Node148 -->
<g id="node4" class="node"><title>Node148</title>
<g id="a_node4"><a xlink:href="class_view_1_1_action_scene.html#af2fabc7baae61ac07ca1a0a5d46814cf" target="_top" xlink:title="View::ActionScene::\laddEnemies">
<polygon fill="white" stroke="black" points="423,-0.5 423,-30.5 528,-30.5 528,-0.5 423,-0.5"/>
<text text-anchor="start" x="431" y="-18.5" font-family="Helvetica,sans-Serif" font-size="10.00">View::ActionScene::</text>
<text text-anchor="middle" x="475.5" y="-7.5" font-family="Helvetica,sans-Serif" font-size="10.00">addEnemies</text>
</a>
</g>
</g>
<!-- Node147&#45;&gt;Node148 -->
<g id="edge3" class="edge"><title>Node147&#45;&gt;Node148</title>
<path fill="none" stroke="midnightblue" d="M397.441,-15.5C405.878,-15.5 414.466,-15.5 422.698,-15.5"/>
<polygon fill="midnightblue" stroke="midnightblue" points="397.259,-12.0001 387.258,-15.5 397.258,-19.0001 397.259,-12.0001"/>
</g>
</g>
</svg>
