<?xml version="1.0" encoding="UTF-8" standalone="no"?>
<!DOCTYPE svg PUBLIC "-//W3C//DTD SVG 1.1//EN"
 "http://www.w3.org/Graphics/SVG/1.1/DTD/svg11.dtd">
<!-- Generated by graphviz version 2.38.0 (20140413.2041)
 -->
<!-- Title: View::ActionScenePC Pages: 1 -->
<svg width="194pt" height="413pt"
 viewBox="0.00 0.00 194.00 413.00" xmlns="http://www.w3.org/2000/svg" xmlns:xlink="http://www.w3.org/1999/xlink">
<g id="graph0" class="graph" transform="scale(1 1) rotate(0) translate(4 409)">
<title>View::ActionScenePC</title>
<polygon fill="white" stroke="none" points="-4,4 -4,-409 190,-409 190,4 -4,4"/>
<!-- Node0 -->
<g id="node1" class="node"><title>Node0</title>
<polygon fill="#bfbfbf" stroke="black" points="21,-0.5 21,-310.5 134,-310.5 134,-0.5 21,-0.5"/>
<text text-anchor="middle" x="77.5" y="-298.5" font-family="Helvetica,sans-Serif" font-size="10.00">View::ActionScenePC</text>
<polyline fill="none" stroke="black" points="21,-291.5 134,-291.5 "/>
<text text-anchor="start" x="29" y="-279.5" font-family="Helvetica,sans-Serif" font-size="10.00">&#45; id_</text>
<text text-anchor="start" x="29" y="-268.5" font-family="Helvetica,sans-Serif" font-size="10.00">&#45; inScene_</text>
<text text-anchor="start" x="29" y="-257.5" font-family="Helvetica,sans-Serif" font-size="10.00">&#45; dead_</text>
<text text-anchor="start" x="29" y="-246.5" font-family="Helvetica,sans-Serif" font-size="10.00">&#45; dx_</text>
<text text-anchor="start" x="29" y="-235.5" font-family="Helvetica,sans-Serif" font-size="10.00">&#45; dy_</text>
<text text-anchor="start" x="29" y="-224.5" font-family="Helvetica,sans-Serif" font-size="10.00">&#45; run_</text>
<text text-anchor="start" x="29" y="-213.5" font-family="Helvetica,sans-Serif" font-size="10.00">&#45; onPoint_</text>
<text text-anchor="start" x="29" y="-202.5" font-family="Helvetica,sans-Serif" font-size="10.00">&#45; moveTimer_</text>
<text text-anchor="start" x="29" y="-191.5" font-family="Helvetica,sans-Serif" font-size="10.00">&#45; muzzleTimer_</text>
<text text-anchor="start" x="29" y="-180.5" font-family="Helvetica,sans-Serif" font-size="10.00">&#45; shootTimer_</text>
<text text-anchor="start" x="29" y="-169.5" font-family="Helvetica,sans-Serif" font-size="10.00">and 17 more...</text>
<polyline fill="none" stroke="black" points="21,-162.5 134,-162.5 "/>
<text text-anchor="start" x="29" y="-150.5" font-family="Helvetica,sans-Serif" font-size="10.00">+ ActionScenePC()</text>
<text text-anchor="start" x="29" y="-139.5" font-family="Helvetica,sans-Serif" font-size="10.00">+ ~ActionScenePC()</text>
<text text-anchor="start" x="29" y="-128.5" font-family="Helvetica,sans-Serif" font-size="10.00">+ getX()</text>
<text text-anchor="start" x="29" y="-117.5" font-family="Helvetica,sans-Serif" font-size="10.00">+ getY()</text>
<text text-anchor="start" x="29" y="-106.5" font-family="Helvetica,sans-Serif" font-size="10.00">+ rotate()</text>
<text text-anchor="start" x="29" y="-95.5" font-family="Helvetica,sans-Serif" font-size="10.00">+ moveToPoint()</text>
<text text-anchor="start" x="29" y="-84.5" font-family="Helvetica,sans-Serif" font-size="10.00">+ addFeet()</text>
<text text-anchor="start" x="29" y="-73.5" font-family="Helvetica,sans-Serif" font-size="10.00">+ rotateFeet()</text>
<text text-anchor="start" x="29" y="-62.5" font-family="Helvetica,sans-Serif" font-size="10.00">+ removeFeet()</text>
<text text-anchor="start" x="29" y="-51.5" font-family="Helvetica,sans-Serif" font-size="10.00">+ setDead()</text>
<text text-anchor="start" x="29" y="-40.5" font-family="Helvetica,sans-Serif" font-size="10.00">and 20 more...</text>
<text text-anchor="start" x="29" y="-29.5" font-family="Helvetica,sans-Serif" font-size="10.00">+ step()</text>
<text text-anchor="start" x="29" y="-18.5" font-family="Helvetica,sans-Serif" font-size="10.00">+ shoot()</text>
<text text-anchor="start" x="29" y="-7.5" font-family="Helvetica,sans-Serif" font-size="10.00">+ hideMuzzle()</text>
</g>
<!-- Node1 -->
<g id="node2" class="node"><title>Node1</title>
<g id="a_node2"><a xlink:href="class_q_object.html" target="_top" xlink:title="{QObject\n||}">
<polygon fill="white" stroke="black" points="0,-347.5 0,-404.5 53,-404.5 53,-347.5 0,-347.5"/>
<text text-anchor="middle" x="26.5" y="-392.5" font-family="Helvetica,sans-Serif" font-size="10.00">QObject</text>
<polyline fill="none" stroke="black" points="0,-385.5 53,-385.5 "/>
<text text-anchor="middle" x="26.5" y="-373.5" font-family="Helvetica,sans-Serif" font-size="10.00"> </text>
<polyline fill="none" stroke="black" points="0,-366.5 53,-366.5 "/>
<text text-anchor="middle" x="26.5" y="-354.5" font-family="Helvetica,sans-Serif" font-size="10.00"> </text>
</a>
</g>
</g>
<!-- Node1&#45;&gt;Node0 -->
<g id="edge1" class="edge"><title>Node1&#45;&gt;Node0</title>
<path fill="none" stroke="midnightblue" d="M35.2405,-337.553C37.141,-329.41 39.2645,-320.313 41.5205,-310.648"/>
<polygon fill="none" stroke="midnightblue" points="31.8239,-336.793 32.9592,-347.327 38.6407,-338.384 31.8239,-336.793"/>
</g>
<!-- Node2 -->
<g id="node3" class="node"><title>Node2</title>
<g id="a_node3"><a xlink:href="class_q_graphics_pixmap_item.html" target="_top" xlink:title="{QGraphicsPixmapItem\n||}">
<polygon fill="white" stroke="black" points="71,-347.5 71,-404.5 186,-404.5 186,-347.5 71,-347.5"/>
<text text-anchor="middle" x="128.5" y="-392.5" font-family="Helvetica,sans-Serif" font-size="10.00">QGraphicsPixmapItem</text>
<polyline fill="none" stroke="black" points="71,-385.5 186,-385.5 "/>
<text text-anchor="middle" x="128.5" y="-373.5" font-family="Helvetica,sans-Serif" font-size="10.00"> </text>
<polyline fill="none" stroke="black" points="71,-366.5 186,-366.5 "/>
<text text-anchor="middle" x="128.5" y="-354.5" font-family="Helvetica,sans-Serif" font-size="10.00"> </text>
</a>
</g>
</g>
<!-- Node2&#45;&gt;Node0 -->
<g id="edge2" class="edge"><title>Node2&#45;&gt;Node0</title>
<path fill="none" stroke="midnightblue" d="M119.76,-337.553C117.859,-329.41 115.735,-320.313 113.48,-310.648"/>
<polygon fill="none" stroke="midnightblue" points="116.359,-338.384 122.041,-347.327 123.176,-336.793 116.359,-338.384"/>
</g>
</g>
</svg>
