<?xml version="1.0" encoding="UTF-8" standalone="no"?>
<!DOCTYPE svg PUBLIC "-//W3C//DTD SVG 1.1//EN"
 "http://www.w3.org/Graphics/SVG/1.1/DTD/svg11.dtd">
<!-- Generated by graphviz version 2.38.0 (20140413.2041)
 -->
<!-- Title: Model::Equipment::increaseUpgradeLevel Pages: 1 -->
<svg width="495pt" height="78pt"
 viewBox="0.00 0.00 495.00 77.50" xmlns="http://www.w3.org/2000/svg" xmlns:xlink="http://www.w3.org/1999/xlink">
<g id="graph0" class="graph" transform="scale(1 1) rotate(0) translate(4 73.5)">
<title>Model::Equipment::increaseUpgradeLevel</title>
<polygon fill="white" stroke="none" points="-4,4 -4,-73.5 491,-73.5 491,4 -4,4"/>
<!-- Node40 -->
<g id="node1" class="node"><title>Node40</title>
<polygon fill="#bfbfbf" stroke="black" points="0,-17 0,-47 138,-47 138,-17 0,-17"/>
<text text-anchor="start" x="8" y="-35" font-family="Helvetica,sans-Serif" font-size="10.00">Model::Equipment::increase</text>
<text text-anchor="middle" x="69" y="-24" font-family="Helvetica,sans-Serif" font-size="10.00">UpgradeLevel</text>
</g>
<!-- Node41 -->
<g id="node2" class="node"><title>Node41</title>
<g id="a_node2"><a xlink:href="class_model_1_1_cyber_teekkari.html#a970088d796bb90c510e477270f0c02f2" target="_top" xlink:title="Model::CyberTeekkari\l::buyUpgrade">
<polygon fill="white" stroke="black" points="185.5,-39 185.5,-69 296.5,-69 296.5,-39 185.5,-39"/>
<text text-anchor="start" x="193.5" y="-57" font-family="Helvetica,sans-Serif" font-size="10.00">Model::CyberTeekkari</text>
<text text-anchor="middle" x="241" y="-46" font-family="Helvetica,sans-Serif" font-size="10.00">::buyUpgrade</text>
</a>
</g>
</g>
<!-- Node40&#45;&gt;Node41 -->
<g id="edge1" class="edge"><title>Node40&#45;&gt;Node41</title>
<path fill="none" stroke="midnightblue" d="M148.189,-42.1185C160.766,-43.7462 173.544,-45.3998 185.411,-46.9355"/>
<polygon fill="midnightblue" stroke="midnightblue" points="148.532,-38.6339 138.166,-40.8215 147.634,-45.576 148.532,-38.6339"/>
</g>
<!-- Node43 -->
<g id="node4" class="node"><title>Node43</title>
<g id="a_node4"><a xlink:href="class_model_1_1_player.html#aa6f794265ed4142993311792aefdd9dc" target="_top" xlink:title="Model::Player::buyUpgrade">
<polygon fill="white" stroke="black" points="174,-0.5 174,-19.5 308,-19.5 308,-0.5 174,-0.5"/>
<text text-anchor="middle" x="241" y="-7.5" font-family="Helvetica,sans-Serif" font-size="10.00">Model::Player::buyUpgrade</text>
</a>
</g>
</g>
<!-- Node40&#45;&gt;Node43 -->
<g id="edge3" class="edge"><title>Node40&#45;&gt;Node43</title>
<path fill="none" stroke="midnightblue" d="M148.149,-21.8866C156.708,-20.779 165.36,-19.6594 173.754,-18.573"/>
<polygon fill="midnightblue" stroke="midnightblue" points="147.634,-18.424 138.166,-23.1785 148.532,-25.3661 147.634,-18.424"/>
</g>
<!-- Node42 -->
<g id="node3" class="node"><title>Node42</title>
<g id="a_node3"><a xlink:href="class_model_1_1_model.html#a1e5c842c7a2cd9e8dbb8798bf733d748" target="_top" xlink:title="buyEquipment ostaa tavaran (Equipment) joko pelaajalle tai cyberteekkarille. ">
<polygon fill="white" stroke="black" points="344,-22.5 344,-41.5 487,-41.5 487,-22.5 344,-22.5"/>
<text text-anchor="middle" x="415.5" y="-29.5" font-family="Helvetica,sans-Serif" font-size="10.00">Model::Model::buyEquipment</text>
</a>
</g>
</g>
<!-- Node41&#45;&gt;Node42 -->
<g id="edge2" class="edge"><title>Node41&#45;&gt;Node42</title>
<path fill="none" stroke="midnightblue" d="M306.616,-45.7591C318.762,-44.21 331.521,-42.5829 343.84,-41.0117"/>
<polygon fill="midnightblue" stroke="midnightblue" points="306.057,-42.302 296.58,-47.0391 306.943,-49.2457 306.057,-42.302"/>
</g>
<!-- Node43&#45;&gt;Node42 -->
<g id="edge4" class="edge"><title>Node43&#45;&gt;Node42</title>
<path fill="none" stroke="midnightblue" d="M318.163,-19.7135C326.72,-20.8049 335.412,-21.9134 343.894,-22.9952"/>
<polygon fill="midnightblue" stroke="midnightblue" points="318.562,-16.2362 308.2,-18.4429 317.676,-23.1799 318.562,-16.2362"/>
</g>
</g>
</svg>
