<?xml version="1.0" encoding="UTF-8" standalone="no"?>
<!DOCTYPE svg PUBLIC "-//W3C//DTD SVG 1.1//EN"
 "http://www.w3.org/Graphics/SVG/1.1/DTD/svg11.dtd">
<!-- Generated by graphviz version 2.38.0 (20140413.2041)
 -->
<!-- Title: View::ActionSceneNPC::getId Pages: 1 -->
<svg width="572pt" height="137pt"
 viewBox="0.00 0.00 572.00 137.00" xmlns="http://www.w3.org/2000/svg" xmlns:xlink="http://www.w3.org/1999/xlink">
<g id="graph0" class="graph" transform="scale(1 1) rotate(0) translate(4 133)">
<title>View::ActionSceneNPC::getId</title>
<polygon fill="white" stroke="none" points="-4,4 -4,-133 568,-133 568,4 -4,4"/>
<!-- Node24 -->
<g id="node1" class="node"><title>Node24</title>
<polygon fill="#bfbfbf" stroke="black" points="0,-49.5 0,-79.5 119,-79.5 119,-49.5 0,-49.5"/>
<text text-anchor="start" x="8" y="-67.5" font-family="Helvetica,sans-Serif" font-size="10.00">View::ActionSceneNPC</text>
<text text-anchor="middle" x="59.5" y="-56.5" font-family="Helvetica,sans-Serif" font-size="10.00">::getId</text>
</g>
<!-- Node25 -->
<g id="node2" class="node"><title>Node25</title>
<g id="a_node2"><a xlink:href="class_view_1_1_action_scene.html#aae98cc0bf8648ab049ff79a902701e73" target="_top" xlink:title="View::ActionScene::\lcheckShotCollision">
<polygon fill="white" stroke="black" points="166,-98.5 166,-128.5 271,-128.5 271,-98.5 166,-98.5"/>
<text text-anchor="start" x="174" y="-116.5" font-family="Helvetica,sans-Serif" font-size="10.00">View::ActionScene::</text>
<text text-anchor="middle" x="218.5" y="-105.5" font-family="Helvetica,sans-Serif" font-size="10.00">checkShotCollision</text>
</a>
</g>
</g>
<!-- Node24&#45;&gt;Node25 -->
<g id="edge1" class="edge"><title>Node24&#45;&gt;Node25</title>
<path fill="none" stroke="midnightblue" d="M118.535,-82.6129C135.226,-87.8222 153.244,-93.4457 169.274,-98.4484"/>
<polygon fill="midnightblue" stroke="midnightblue" points="119.475,-79.2397 108.886,-79.6014 117.389,-85.9219 119.475,-79.2397"/>
</g>
<!-- Node28 -->
<g id="node5" class="node"><title>Node28</title>
<g id="a_node5"><a xlink:href="class_view_1_1_action_scene.html#a2406dfeb3e69091ae05e23ef396d08e3" target="_top" xlink:title="View::ActionScene::\lenemyAttacked">
<polygon fill="white" stroke="black" points="166,-49.5 166,-79.5 271,-79.5 271,-49.5 166,-49.5"/>
<text text-anchor="start" x="174" y="-67.5" font-family="Helvetica,sans-Serif" font-size="10.00">View::ActionScene::</text>
<text text-anchor="middle" x="218.5" y="-56.5" font-family="Helvetica,sans-Serif" font-size="10.00">enemyAttacked</text>
</a>
</g>
</g>
<!-- Node24&#45;&gt;Node28 -->
<g id="edge4" class="edge"><title>Node24&#45;&gt;Node28</title>
<path fill="none" stroke="midnightblue" d="M129.583,-64.5C141.816,-64.5 154.357,-64.5 165.997,-64.5"/>
<polygon fill="midnightblue" stroke="midnightblue" points="129.408,-61.0001 119.408,-64.5 129.408,-68.0001 129.408,-61.0001"/>
</g>
<!-- Node31 -->
<g id="node8" class="node"><title>Node31</title>
<g id="a_node8"><a xlink:href="class_view_1_1_action_scene.html#a8ecad0a68a274799549da0adce49ea09" target="_top" xlink:title="View::ActionScene::\lupdateEnemyLineOfSight">
<polygon fill="white" stroke="black" points="155,-0.5 155,-30.5 282,-30.5 282,-0.5 155,-0.5"/>
<text text-anchor="start" x="163" y="-18.5" font-family="Helvetica,sans-Serif" font-size="10.00">View::ActionScene::</text>
<text text-anchor="middle" x="218.5" y="-7.5" font-family="Helvetica,sans-Serif" font-size="10.00">updateEnemyLineOfSight</text>
</a>
</g>
</g>
<!-- Node24&#45;&gt;Node31 -->
<g id="edge7" class="edge"><title>Node24&#45;&gt;Node31</title>
<path fill="none" stroke="midnightblue" d="M118.535,-46.3871C135.226,-41.1778 153.244,-35.5543 169.274,-30.5516"/>
<polygon fill="midnightblue" stroke="midnightblue" points="117.389,-43.0781 108.886,-49.3986 119.475,-49.7603 117.389,-43.0781"/>
</g>
<!-- Node26 -->
<g id="node3" class="node"><title>Node26</title>
<g id="a_node3"><a xlink:href="class_view_1_1_action_scene.html#a5ef79714e0a56179cf0518071879a2dd" target="_top" xlink:title="View::ActionScene::\lshootTheShot">
<polygon fill="white" stroke="black" points="318,-98.5 318,-128.5 423,-128.5 423,-98.5 318,-98.5"/>
<text text-anchor="start" x="326" y="-116.5" font-family="Helvetica,sans-Serif" font-size="10.00">View::ActionScene::</text>
<text text-anchor="middle" x="370.5" y="-105.5" font-family="Helvetica,sans-Serif" font-size="10.00">shootTheShot</text>
</a>
</g>
</g>
<!-- Node25&#45;&gt;Node26 -->
<g id="edge2" class="edge"><title>Node25&#45;&gt;Node26</title>
<path fill="none" stroke="midnightblue" d="M281.193,-113.5C293.352,-113.5 305.994,-113.5 317.783,-113.5"/>
<polygon fill="midnightblue" stroke="midnightblue" points="281.122,-110 271.121,-113.5 281.121,-117 281.122,-110"/>
</g>
<!-- Node27 -->
<g id="node4" class="node"><title>Node27</title>
<g id="a_node4"><a xlink:href="class_view_1_1_action_scene.html#a9c9751aa5663b998d81840048e13c9be" target="_top" xlink:title="View::ActionScene::\linitPCs">
<polygon fill="white" stroke="black" points="459,-98.5 459,-128.5 564,-128.5 564,-98.5 459,-98.5"/>
<text text-anchor="start" x="467" y="-116.5" font-family="Helvetica,sans-Serif" font-size="10.00">View::ActionScene::</text>
<text text-anchor="middle" x="511.5" y="-105.5" font-family="Helvetica,sans-Serif" font-size="10.00">initPCs</text>
</a>
</g>
</g>
<!-- Node26&#45;&gt;Node27 -->
<g id="edge3" class="edge"><title>Node26&#45;&gt;Node27</title>
<path fill="none" stroke="midnightblue" d="M433.441,-113.5C441.878,-113.5 450.466,-113.5 458.698,-113.5"/>
<polygon fill="midnightblue" stroke="midnightblue" points="433.259,-110 423.258,-113.5 433.258,-117 433.259,-110"/>
</g>
<!-- Node29 -->
<g id="node6" class="node"><title>Node29</title>
<g id="a_node6"><a xlink:href="class_view_1_1_action_scene.html#a2da7a8314a9d50cdccf82159f58e5097" target="_top" xlink:title="View::ActionScene::\lspawnEnemy">
<polygon fill="white" stroke="black" points="318,-25.5 318,-55.5 423,-55.5 423,-25.5 318,-25.5"/>
<text text-anchor="start" x="326" y="-43.5" font-family="Helvetica,sans-Serif" font-size="10.00">View::ActionScene::</text>
<text text-anchor="middle" x="370.5" y="-32.5" font-family="Helvetica,sans-Serif" font-size="10.00">spawnEnemy</text>
</a>
</g>
</g>
<!-- Node28&#45;&gt;Node29 -->
<g id="edge5" class="edge"><title>Node28&#45;&gt;Node29</title>
<path fill="none" stroke="midnightblue" d="M281.193,-54.6292C293.352,-52.6836 305.994,-50.661 317.783,-48.7747"/>
<polygon fill="midnightblue" stroke="midnightblue" points="280.443,-51.2045 271.121,-56.2406 281.549,-58.1166 280.443,-51.2045"/>
</g>
<!-- Node30 -->
<g id="node7" class="node"><title>Node30</title>
<g id="a_node7"><a xlink:href="class_view_1_1_action_scene.html#af2fabc7baae61ac07ca1a0a5d46814cf" target="_top" xlink:title="View::ActionScene::\laddEnemies">
<polygon fill="white" stroke="black" points="459,-25.5 459,-55.5 564,-55.5 564,-25.5 459,-25.5"/>
<text text-anchor="start" x="467" y="-43.5" font-family="Helvetica,sans-Serif" font-size="10.00">View::ActionScene::</text>
<text text-anchor="middle" x="511.5" y="-32.5" font-family="Helvetica,sans-Serif" font-size="10.00">addEnemies</text>
</a>
</g>
</g>
<!-- Node29&#45;&gt;Node30 -->
<g id="edge6" class="edge"><title>Node29&#45;&gt;Node30</title>
<path fill="none" stroke="midnightblue" d="M433.441,-40.5C441.878,-40.5 450.466,-40.5 458.698,-40.5"/>
<polygon fill="midnightblue" stroke="midnightblue" points="433.259,-37.0001 423.258,-40.5 433.258,-44.0001 433.259,-37.0001"/>
</g>
<!-- Node31&#45;&gt;Node29 -->
<g id="edge8" class="edge"><title>Node31&#45;&gt;Node29</title>
<path fill="none" stroke="midnightblue" d="M292.342,-27.6403C300.982,-29.0804 309.66,-30.5267 317.918,-31.903"/>
<polygon fill="midnightblue" stroke="midnightblue" points="292.684,-24.1491 282.244,-25.9574 291.533,-31.0538 292.684,-24.1491"/>
</g>
</g>
</svg>
