<?xml version="1.0" encoding="UTF-8" standalone="no"?>
<!DOCTYPE svg PUBLIC "-//W3C//DTD SVG 1.1//EN"
 "http://www.w3.org/Graphics/SVG/1.1/DTD/svg11.dtd">
<!-- Generated by graphviz version 2.38.0 (20140413.2041)
 -->
<!-- Title: Model::parkSpaceInserter::getWallTiles Pages: 1 -->
<svg width="453pt" height="110pt"
 viewBox="0.00 0.00 453.00 110.00" xmlns="http://www.w3.org/2000/svg" xmlns:xlink="http://www.w3.org/1999/xlink">
<g id="graph0" class="graph" transform="scale(1 1) rotate(0) translate(4 106)">
<title>Model::parkSpaceInserter::getWallTiles</title>
<polygon fill="white" stroke="none" points="-4,4 -4,-106 449,-106 449,4 -4,4"/>
<!-- Node49 -->
<g id="node1" class="node"><title>Node49</title>
<polygon fill="#bfbfbf" stroke="black" points="0,-49.5 0,-79.5 128,-79.5 128,-49.5 0,-49.5"/>
<text text-anchor="start" x="8" y="-67.5" font-family="Helvetica,sans-Serif" font-size="10.00">Model::parkSpaceInserter</text>
<text text-anchor="middle" x="64" y="-56.5" font-family="Helvetica,sans-Serif" font-size="10.00">::getWallTiles</text>
</g>
<!-- Node50 -->
<g id="node2" class="node"><title>Node50</title>
<g id="a_node2"><a xlink:href="class_model_1_1map_generator.html#a92598d66736c2be4ca83aeedfe478b9d" target="_top" xlink:title="Model::mapGenerator\l::GetSurroundingWallCount">
<polygon fill="white" stroke="black" points="164,-49.5 164,-79.5 299,-79.5 299,-49.5 164,-49.5"/>
<text text-anchor="start" x="172" y="-67.5" font-family="Helvetica,sans-Serif" font-size="10.00">Model::mapGenerator</text>
<text text-anchor="middle" x="231.5" y="-56.5" font-family="Helvetica,sans-Serif" font-size="10.00">::GetSurroundingWallCount</text>
</a>
</g>
</g>
<!-- Node49&#45;&gt;Node50 -->
<g id="edge1" class="edge"><title>Node49&#45;&gt;Node50</title>
<path fill="none" stroke="midnightblue" d="M128.041,-64.5C136.445,-64.5 145.137,-64.5 153.742,-64.5"/>
<polygon fill="midnightblue" stroke="midnightblue" points="153.781,-68.0001 163.781,-64.5 153.781,-61.0001 153.781,-68.0001"/>
</g>
<!-- Node51 -->
<g id="node3" class="node"><title>Node51</title>
<g id="a_node3"><a xlink:href="class_model_1_1map_generator.html#a02b91ca9a47b993e6fa14b9b0ad317f2" target="_top" xlink:title="Get tile from point in tile coordinates. ">
<polygon fill="white" stroke="black" points="335,-71.5 335,-101.5 445,-101.5 445,-71.5 335,-71.5"/>
<text text-anchor="start" x="343" y="-89.5" font-family="Helvetica,sans-Serif" font-size="10.00">Model::mapGenerator</text>
<text text-anchor="middle" x="390" y="-78.5" font-family="Helvetica,sans-Serif" font-size="10.00">::getTile</text>
</a>
</g>
</g>
<!-- Node49&#45;&gt;Node51 -->
<g id="edge4" class="edge"><title>Node49&#45;&gt;Node51</title>
<path fill="none" stroke="midnightblue" d="M114.399,-79.5256C130.101,-83.6108 147.64,-87.4662 164,-89.5 217.769,-96.1841 279.32,-94.745 324.437,-92.0227"/>
<polygon fill="midnightblue" stroke="midnightblue" points="324.915,-95.4994 334.67,-91.3664 324.467,-88.5137 324.915,-95.4994"/>
</g>
<!-- Node53 -->
<g id="node5" class="node"><title>Node53</title>
<g id="a_node5"><a xlink:href="class_model_1_1map_generator.html#aaac1161126a56490862e3b5fffffbded" target="_top" xlink:title="Model::mapGenerator\l::indexAt">
<polygon fill="white" stroke="black" points="176.5,-0.5 176.5,-30.5 286.5,-30.5 286.5,-0.5 176.5,-0.5"/>
<text text-anchor="start" x="184.5" y="-18.5" font-family="Helvetica,sans-Serif" font-size="10.00">Model::mapGenerator</text>
<text text-anchor="middle" x="231.5" y="-7.5" font-family="Helvetica,sans-Serif" font-size="10.00">::indexAt</text>
</a>
</g>
</g>
<!-- Node49&#45;&gt;Node53 -->
<g id="edge5" class="edge"><title>Node49&#45;&gt;Node53</title>
<path fill="none" stroke="midnightblue" d="M116.006,-49.3986C133.075,-44.3449 152.268,-38.6624 169.991,-33.4152"/>
<polygon fill="midnightblue" stroke="midnightblue" points="171.068,-36.7466 179.663,-30.5516 169.08,-30.0346 171.068,-36.7466"/>
</g>
<!-- Node50&#45;&gt;Node51 -->
<g id="edge2" class="edge"><title>Node50&#45;&gt;Node51</title>
<path fill="none" stroke="midnightblue" d="M299.324,-73.8938C307.711,-75.0728 316.277,-76.277 324.625,-77.4505"/>
<polygon fill="midnightblue" stroke="midnightblue" points="324.284,-80.9369 334.674,-78.8631 325.259,-74.005 324.284,-80.9369"/>
</g>
<!-- Node52 -->
<g id="node4" class="node"><title>Node52</title>
<g id="a_node4"><a xlink:href="class_model_1_1map_generator.html#a244ad56297f00ce2ab892d3b2a14ffac" target="_top" xlink:title="Model::mapGenerator\l::isInMapRange">
<polygon fill="white" stroke="black" points="335,-11.5 335,-41.5 445,-41.5 445,-11.5 335,-11.5"/>
<text text-anchor="start" x="343" y="-29.5" font-family="Helvetica,sans-Serif" font-size="10.00">Model::mapGenerator</text>
<text text-anchor="middle" x="390" y="-18.5" font-family="Helvetica,sans-Serif" font-size="10.00">::isInMapRange</text>
</a>
</g>
</g>
<!-- Node50&#45;&gt;Node52 -->
<g id="edge3" class="edge"><title>Node50&#45;&gt;Node52</title>
<path fill="none" stroke="midnightblue" d="M294.353,-49.4814C304.413,-47.0386 314.852,-44.5039 324.964,-42.0488"/>
<polygon fill="midnightblue" stroke="midnightblue" points="326.048,-45.3873 334.94,-39.6265 324.396,-38.585 326.048,-45.3873"/>
</g>
<!-- Node53&#45;&gt;Node52 -->
<g id="edge6" class="edge"><title>Node53&#45;&gt;Node52</title>
<path fill="none" stroke="midnightblue" d="M286.797,-19.3164C299.057,-20.1781 312.186,-21.1009 324.81,-21.9882"/>
<polygon fill="midnightblue" stroke="midnightblue" points="324.578,-25.4805 334.799,-22.6904 325.069,-18.4977 324.578,-25.4805"/>
</g>
</g>
</svg>
