<?xml version="1.0" encoding="UTF-8" standalone="no"?>
<!DOCTYPE svg PUBLIC "-//W3C//DTD SVG 1.1//EN"
 "http://www.w3.org/Graphics/SVG/1.1/DTD/svg11.dtd">
<!-- Generated by graphviz version 2.38.0 (20140413.2041)
 -->
<!-- Title: Model::XmlParkingDataReader::readParkingFacility Pages: 1 -->
<svg width="342pt" height="333pt"
 viewBox="0.00 0.00 342.00 333.00" xmlns="http://www.w3.org/2000/svg" xmlns:xlink="http://www.w3.org/1999/xlink">
<g id="graph0" class="graph" transform="scale(1 1) rotate(0) translate(4 329)">
<title>Model::XmlParkingDataReader::readParkingFacility</title>
<polygon fill="white" stroke="none" points="-4,4 -4,-329 338,-329 338,4 -4,4"/>
<!-- Node36 -->
<g id="node1" class="node"><title>Node36</title>
<polygon fill="#bfbfbf" stroke="black" points="0,-147.5 0,-177.5 149,-177.5 149,-147.5 0,-147.5"/>
<text text-anchor="start" x="8" y="-165.5" font-family="Helvetica,sans-Serif" font-size="10.00">Model::XmlParkingDataReader</text>
<text text-anchor="middle" x="74.5" y="-154.5" font-family="Helvetica,sans-Serif" font-size="10.00">::readParkingFacility</text>
</g>
<!-- Node37 -->
<g id="node2" class="node"><title>Node37</title>
<g id="a_node2"><a xlink:href="class_model_1_1_xml_parking_data_reader.html#aae704a9ba880d6a19a2a0444097b15ab" target="_top" xlink:title="Model::XmlParkingDataReader\l::readAddress">
<polygon fill="white" stroke="black" points="185,-294.5 185,-324.5 334,-324.5 334,-294.5 185,-294.5"/>
<text text-anchor="start" x="193" y="-312.5" font-family="Helvetica,sans-Serif" font-size="10.00">Model::XmlParkingDataReader</text>
<text text-anchor="middle" x="259.5" y="-301.5" font-family="Helvetica,sans-Serif" font-size="10.00">::readAddress</text>
</a>
</g>
</g>
<!-- Node36&#45;&gt;Node37 -->
<g id="edge1" class="edge"><title>Node36&#45;&gt;Node37</title>
<path fill="none" stroke="midnightblue" d="M85.0538,-177.695C102.054,-203.529 140.026,-256.066 185,-285.5 187.422,-287.085 189.957,-288.573 192.57,-289.97"/>
<polygon fill="midnightblue" stroke="midnightblue" points="191.169,-293.18 201.697,-294.372 194.21,-286.875 191.169,-293.18"/>
</g>
<!-- Node38 -->
<g id="node3" class="node"><title>Node38</title>
<g id="a_node3"><a xlink:href="class_model_1_1_xml_parking_data_reader.html#a226e8bd44f4dc5197f54a17353741a95" target="_top" xlink:title="Model::XmlParkingDataReader\l::readID">
<polygon fill="white" stroke="black" points="185,-245.5 185,-275.5 334,-275.5 334,-245.5 185,-245.5"/>
<text text-anchor="start" x="193" y="-263.5" font-family="Helvetica,sans-Serif" font-size="10.00">Model::XmlParkingDataReader</text>
<text text-anchor="middle" x="259.5" y="-252.5" font-family="Helvetica,sans-Serif" font-size="10.00">::readID</text>
</a>
</g>
</g>
<!-- Node36&#45;&gt;Node38 -->
<g id="edge2" class="edge"><title>Node36&#45;&gt;Node38</title>
<path fill="none" stroke="midnightblue" d="M94.2806,-177.598C115.334,-193.932 150.993,-219.864 185,-236.5 188.798,-238.358 192.775,-240.122 196.828,-241.787"/>
<polygon fill="midnightblue" stroke="midnightblue" points="195.788,-245.138 206.377,-245.491 198.319,-238.612 195.788,-245.138"/>
</g>
<!-- Node39 -->
<g id="node4" class="node"><title>Node39</title>
<g id="a_node4"><a xlink:href="class_model_1_1_xml_parking_data_reader.html#a241c64ab027e7296e55808dc1f8aff71" target="_top" xlink:title="Model::XmlParkingDataReader\l::readLayout">
<polygon fill="white" stroke="black" points="185,-196.5 185,-226.5 334,-226.5 334,-196.5 185,-196.5"/>
<text text-anchor="start" x="193" y="-214.5" font-family="Helvetica,sans-Serif" font-size="10.00">Model::XmlParkingDataReader</text>
<text text-anchor="middle" x="259.5" y="-203.5" font-family="Helvetica,sans-Serif" font-size="10.00">::readLayout</text>
</a>
</g>
</g>
<!-- Node36&#45;&gt;Node39 -->
<g id="edge3" class="edge"><title>Node36&#45;&gt;Node39</title>
<path fill="none" stroke="midnightblue" d="M131.899,-177.601C151.035,-182.725 172.586,-188.496 192.408,-193.803"/>
<polygon fill="midnightblue" stroke="midnightblue" points="191.722,-197.243 202.287,-196.448 193.533,-190.481 191.722,-197.243"/>
</g>
<!-- Node40 -->
<g id="node5" class="node"><title>Node40</title>
<g id="a_node5"><a xlink:href="class_model_1_1_xml_parking_data_reader.html#af4db9c2514f34f268b6781e401311a5f" target="_top" xlink:title="Model::XmlParkingDataReader\l::readLocation">
<polygon fill="white" stroke="black" points="185,-147.5 185,-177.5 334,-177.5 334,-147.5 185,-147.5"/>
<text text-anchor="start" x="193" y="-165.5" font-family="Helvetica,sans-Serif" font-size="10.00">Model::XmlParkingDataReader</text>
<text text-anchor="middle" x="259.5" y="-154.5" font-family="Helvetica,sans-Serif" font-size="10.00">::readLocation</text>
</a>
</g>
</g>
<!-- Node36&#45;&gt;Node40 -->
<g id="edge4" class="edge"><title>Node36&#45;&gt;Node40</title>
<path fill="none" stroke="midnightblue" d="M149.142,-162.5C157.474,-162.5 166.011,-162.5 174.463,-162.5"/>
<polygon fill="midnightblue" stroke="midnightblue" points="174.711,-166 184.711,-162.5 174.711,-159 174.711,-166"/>
</g>
<!-- Node41 -->
<g id="node6" class="node"><title>Node41</title>
<g id="a_node6"><a xlink:href="class_model_1_1_xml_parking_data_reader.html#adc4169c3dcc95489397dfad5a2220b6b" target="_top" xlink:title="Model::XmlParkingDataReader\l::readName">
<polygon fill="white" stroke="black" points="185,-98.5 185,-128.5 334,-128.5 334,-98.5 185,-98.5"/>
<text text-anchor="start" x="193" y="-116.5" font-family="Helvetica,sans-Serif" font-size="10.00">Model::XmlParkingDataReader</text>
<text text-anchor="middle" x="259.5" y="-105.5" font-family="Helvetica,sans-Serif" font-size="10.00">::readName</text>
</a>
</g>
</g>
<!-- Node36&#45;&gt;Node41 -->
<g id="edge5" class="edge"><title>Node36&#45;&gt;Node41</title>
<path fill="none" stroke="midnightblue" d="M131.899,-147.399C151.035,-142.275 172.586,-136.504 192.408,-131.197"/>
<polygon fill="midnightblue" stroke="midnightblue" points="193.533,-134.519 202.287,-128.552 191.722,-127.757 193.533,-134.519"/>
</g>
<!-- Node42 -->
<g id="node7" class="node"><title>Node42</title>
<g id="a_node7"><a xlink:href="class_model_1_1_xml_parking_data_reader.html#a479a315d0f55537bd38506f7482f4c9b" target="_top" xlink:title="Model::XmlParkingDataReader\l::readTotalParkingCapacity">
<polygon fill="white" stroke="black" points="185,-49.5 185,-79.5 334,-79.5 334,-49.5 185,-49.5"/>
<text text-anchor="start" x="193" y="-67.5" font-family="Helvetica,sans-Serif" font-size="10.00">Model::XmlParkingDataReader</text>
<text text-anchor="middle" x="259.5" y="-56.5" font-family="Helvetica,sans-Serif" font-size="10.00">::readTotalParkingCapacity</text>
</a>
</g>
</g>
<!-- Node36&#45;&gt;Node42 -->
<g id="edge6" class="edge"><title>Node36&#45;&gt;Node42</title>
<path fill="none" stroke="midnightblue" d="M94.7393,-147.411C115.904,-131.366 151.39,-106.065 185,-89.5 189.379,-87.3418 193.99,-85.2939 198.679,-83.3683"/>
<polygon fill="midnightblue" stroke="midnightblue" points="200.322,-86.4846 208.368,-79.5912 197.779,-79.9627 200.322,-86.4846"/>
</g>
<!-- Node43 -->
<g id="node8" class="node"><title>Node43</title>
<g id="a_node8"><a xlink:href="class_model_1_1_xml_parking_data_reader.html#a02caf6c8202524558b575f599e514846" target="_top" xlink:title="Model::XmlParkingDataReader\l::readType">
<polygon fill="white" stroke="black" points="185,-0.5 185,-30.5 334,-30.5 334,-0.5 185,-0.5"/>
<text text-anchor="start" x="193" y="-18.5" font-family="Helvetica,sans-Serif" font-size="10.00">Model::XmlParkingDataReader</text>
<text text-anchor="middle" x="259.5" y="-7.5" font-family="Helvetica,sans-Serif" font-size="10.00">::readType</text>
</a>
</g>
</g>
<!-- Node36&#45;&gt;Node43 -->
<g id="edge7" class="edge"><title>Node36&#45;&gt;Node43</title>
<path fill="none" stroke="midnightblue" d="M85.1224,-147.49C102.226,-121.959 140.35,-69.9836 185,-40.5 187.958,-38.5469 191.083,-36.7313 194.311,-35.0455"/>
<polygon fill="midnightblue" stroke="midnightblue" points="196.086,-38.0774 203.624,-30.632 193.089,-31.7519 196.086,-38.0774"/>
</g>
</g>
</svg>
