<?xml version="1.0" encoding="UTF-8" standalone="no"?>
<!DOCTYPE svg PUBLIC "-//W3C//DTD SVG 1.1//EN"
 "http://www.w3.org/Graphics/SVG/1.1/DTD/svg11.dtd">
<!-- Generated by graphviz version 2.38.0 (20140413.2041)
 -->
<!-- Title: View::HeadQuartersUI::HeadQuartersUI Pages: 1 -->
<!--zoomable 519 -->
<svg id="main" version="1.1" xmlns="http://www.w3.org/2000/svg" xmlns:xlink="http://www.w3.org/1999/xlink" xml:space="preserve" onload="init(evt)">
<style type="text/css"><![CDATA[
.edge:hover path { stroke: red; }
.edge:hover polygon { stroke: red; fill: red; }
]]></style>
<script type="text/javascript"><![CDATA[
var edges = document.getElementsByTagName('g');
if (edges && edges.length) {
  for (var i=0;i<edges.length;i++) {
    if (edges[i].id.substr(0,4)=='edge') {
      edges[i].setAttribute('class','edge');
    }
  }
}
]]></script>
        <defs>
                <circle id="rim" cx="0" cy="0" r="7"/>
                <circle id="rim2" cx="0" cy="0" r="3.5"/>
                <g id="zoomPlus">
                        <use xlink:href="#rim" fill="#404040">
                                <set attributeName="fill" to="#808080" begin="zoomplus.mouseover" end="zoomplus.mouseout"/>
                        </use>
                        <path d="M-4,0h8M0,-4v8" fill="none" stroke="white" stroke-width="1.5" pointer-events="none"/>
                </g>
                <g id="zoomMin">
                        <use xlink:href="#rim" fill="#404040">
                                <set attributeName="fill" to="#808080" begin="zoomminus.mouseover" end="zoomminus.mouseout"/>
                        </use>
                        <path d="M-4,0h8" fill="none" stroke="white" stroke-width="1.5" pointer-events="none"/>
                </g>
                <g id="dirArrow">
                        <path fill="none" stroke="white" stroke-width="1.5" d="M0,-3.0v7 M-2.5,-0.5L0,-3.0L2.5,-0.5"/>
                </g>
               <g id="resetDef">
                       <use xlink:href="#rim2" fill="#404040">
                               <set attributeName="fill" to="#808080" begin="reset.mouseover" end="reset.mouseout"/>
                       </use>
               </g>
        </defs>

<script type="text/javascript">
var viewWidth = 642;
var viewHeight = 519;
var sectionId = 'dynsection-2';
</script>
<script xlink:href="svgpan.js"/>
<svg id="graph" class="graph">
<g id="viewport">
<title>View::HeadQuartersUI::HeadQuartersUI</title>
<polygon fill="white" stroke="none" points="-4,4 -4,-515 638,-515 638,4 -4,4"/>
<!-- Node0 -->
<g id="node1" class="node"><title>Node0</title>
<polygon fill="#bfbfbf" stroke="black" points="0,-220.5 0,-250.5 113,-250.5 113,-220.5 0,-220.5"/>
<text text-anchor="start" x="8" y="-238.5" font-family="Helvetica,sans-Serif" font-size="10.00">View::HeadQuartersUI</text>
<text text-anchor="middle" x="56.5" y="-227.5" font-family="Helvetica,sans-Serif" font-size="10.00">::HeadQuartersUI</text>
</g>
<!-- Node1 -->
<g id="node2" class="node"><title>Node1</title>
<g id="a_node2"><a xlink:href="class_view_1_1_head_quarters_u_i.html#a504906d7f958448301b500a3762ff618" target="_top" xlink:title="View::HeadQuartersUI\l::connectShopUI">
<polygon fill="white" stroke="black" points="149,-245.5 149,-275.5 262,-275.5 262,-245.5 149,-245.5"/>
<text text-anchor="start" x="157" y="-263.5" font-family="Helvetica,sans-Serif" font-size="10.00">View::HeadQuartersUI</text>
<text text-anchor="middle" x="205.5" y="-252.5" font-family="Helvetica,sans-Serif" font-size="10.00">::connectShopUI</text>
</a>
</g>
</g>
<!-- Node0&#45;&gt;Node1 -->
<g id="edge1" class="edge"><title>Node0&#45;&gt;Node1</title>
<path fill="none" stroke="midnightblue" d="M113.074,-244.951C121.489,-246.383 130.238,-247.87 138.842,-249.334"/>
<polygon fill="midnightblue" stroke="midnightblue" points="138.402,-252.809 148.847,-251.035 139.575,-245.908 138.402,-252.809"/>
</g>
<!-- Node13 -->
<g id="node14" class="node"><title>Node13</title>
<g id="a_node14"><a xlink:href="class_view_1_1_head_quarters_u_i.html#a271f79323ad881ddeca195bb7b42260c" target="_top" xlink:title="View::HeadQuartersUI\l::initShopUI">
<polygon fill="white" stroke="black" points="149,-196.5 149,-226.5 262,-226.5 262,-196.5 149,-196.5"/>
<text text-anchor="start" x="157" y="-214.5" font-family="Helvetica,sans-Serif" font-size="10.00">View::HeadQuartersUI</text>
<text text-anchor="middle" x="205.5" y="-203.5" font-family="Helvetica,sans-Serif" font-size="10.00">::initShopUI</text>
</a>
</g>
</g>
<!-- Node0&#45;&gt;Node13 -->
<g id="edge14" class="edge"><title>Node0&#45;&gt;Node13</title>
<path fill="none" stroke="midnightblue" d="M113.074,-226.427C121.489,-225.053 130.238,-223.624 138.842,-222.22"/>
<polygon fill="midnightblue" stroke="midnightblue" points="139.542,-225.652 148.847,-220.586 138.414,-218.743 139.542,-225.652"/>
</g>
<!-- Node2 -->
<g id="node3" class="node"><title>Node2</title>
<g id="a_node3"><a xlink:href="class_view_1_1_head_quarters_u_i.html#aff18dfc969b4d5079c89e83b281288f1" target="_top" xlink:title="View::HeadQuartersUI\l::changeSelectedWeaponItem">
<polygon fill="white" stroke="black" points="306.5,-480.5 306.5,-510.5 453.5,-510.5 453.5,-480.5 306.5,-480.5"/>
<text text-anchor="start" x="314.5" y="-498.5" font-family="Helvetica,sans-Serif" font-size="10.00">View::HeadQuartersUI</text>
<text text-anchor="middle" x="380" y="-487.5" font-family="Helvetica,sans-Serif" font-size="10.00">::changeSelectedWeaponItem</text>
</a>
</g>
</g>
<!-- Node1&#45;&gt;Node2 -->
<g id="edge2" class="edge"><title>Node1&#45;&gt;Node2</title>
<path fill="none" stroke="midnightblue" d="M208.606,-275.542C214.805,-314.072 236.575,-417.098 298,-471.5 299.321,-472.67 300.697,-473.783 302.119,-474.842"/>
<polygon fill="midnightblue" stroke="midnightblue" points="300.408,-477.902 310.72,-480.333 304.174,-472.001 300.408,-477.902"/>
</g>
<!-- Node3 -->
<g id="node4" class="node"><title>Node3</title>
<g id="a_node4"><a xlink:href="class_view_1_1_head_quarters_u_i.html#a74e58fc4ef5564c3d7af04c703a5d640" target="_top" xlink:title="View::HeadQuartersUI\l::changeSelectedCyberItem">
<polygon fill="white" stroke="black" points="311.5,-431.5 311.5,-461.5 448.5,-461.5 448.5,-431.5 311.5,-431.5"/>
<text text-anchor="start" x="319.5" y="-449.5" font-family="Helvetica,sans-Serif" font-size="10.00">View::HeadQuartersUI</text>
<text text-anchor="middle" x="380" y="-438.5" font-family="Helvetica,sans-Serif" font-size="10.00">::changeSelectedCyberItem</text>
</a>
</g>
</g>
<!-- Node1&#45;&gt;Node3 -->
<g id="edge3" class="edge"><title>Node1&#45;&gt;Node3</title>
<path fill="none" stroke="midnightblue" d="M210.757,-275.545C220.591,-307.541 247.963,-382.666 298,-422.5 299.771,-423.91 301.624,-425.238 303.541,-426.487"/>
<polygon fill="midnightblue" stroke="midnightblue" points="301.888,-429.574 312.31,-431.481 305.353,-423.491 301.888,-429.574"/>
</g>
<!-- Node4 -->
<g id="node5" class="node"><title>Node4</title>
<g id="a_node5"><a xlink:href="class_view_1_1_head_quarters_u_i.html#a27b2fed9322bb80d6633f442a3fd9035" target="_top" xlink:title="View::HeadQuartersUI\l::cyberListViewItemDoubleClicked">
<polygon fill="white" stroke="black" points="298,-382.5 298,-412.5 462,-412.5 462,-382.5 298,-382.5"/>
<text text-anchor="start" x="306" y="-400.5" font-family="Helvetica,sans-Serif" font-size="10.00">View::HeadQuartersUI</text>
<text text-anchor="middle" x="380" y="-389.5" font-family="Helvetica,sans-Serif" font-size="10.00">::cyberListViewItemDoubleClicked</text>
</a>
</g>
</g>
<!-- Node1&#45;&gt;Node4 -->
<g id="edge4" class="edge"><title>Node1&#45;&gt;Node4</title>
<path fill="none" stroke="midnightblue" d="M215.87,-275.774C230.659,-298.707 261.513,-342.052 298,-367.5 303.702,-371.477 309.995,-374.997 316.479,-378.096"/>
<polygon fill="midnightblue" stroke="midnightblue" points="315.506,-381.493 326.067,-382.339 318.338,-375.092 315.506,-381.493"/>
</g>
<!-- Node5 -->
<g id="node6" class="node"><title>Node5</title>
<g id="a_node6"><a xlink:href="class_view_1_1_head_quarters_u_i.html#aa3952e9dea601b9d54dcfebaf658b685" target="_top" xlink:title="View::HeadQuartersUI\l::buyUpgradeButtonPushed">
<polygon fill="white" stroke="black" points="498,-360.5 498,-390.5 634,-390.5 634,-360.5 498,-360.5"/>
<text text-anchor="start" x="506" y="-378.5" font-family="Helvetica,sans-Serif" font-size="10.00">View::HeadQuartersUI</text>
<text text-anchor="middle" x="566" y="-367.5" font-family="Helvetica,sans-Serif" font-size="10.00">::buyUpgradeButtonPushed</text>
</a>
</g>
</g>
<!-- Node1&#45;&gt;Node5 -->
<g id="edge9" class="edge"><title>Node1&#45;&gt;Node5</title>
<path fill="none" stroke="midnightblue" d="M220.374,-275.802C237.012,-293.091 266.607,-320.623 298,-334.5 358.268,-361.14 432.809,-370.888 487.802,-374.262"/>
<polygon fill="midnightblue" stroke="midnightblue" points="487.655,-377.759 497.835,-374.82 488.044,-370.77 487.655,-377.759"/>
</g>
<!-- Node6 -->
<g id="node7" class="node"><title>Node6</title>
<g id="a_node7"><a xlink:href="class_view_1_1_head_quarters_u_i.html#a7db26615e6cda19cb873cfff36834535" target="_top" xlink:title="View::HeadQuartersUI\l::buyWeaponButtonPushed">
<polygon fill="white" stroke="black" points="312,-294.5 312,-324.5 448,-324.5 448,-294.5 312,-294.5"/>
<text text-anchor="start" x="320" y="-312.5" font-family="Helvetica,sans-Serif" font-size="10.00">View::HeadQuartersUI</text>
<text text-anchor="middle" x="380" y="-301.5" font-family="Helvetica,sans-Serif" font-size="10.00">::buyWeaponButtonPushed</text>
</a>
</g>
</g>
<!-- Node1&#45;&gt;Node6 -->
<g id="edge6" class="edge"><title>Node1&#45;&gt;Node6</title>
<path fill="none" stroke="midnightblue" d="M259.663,-275.601C277.537,-280.679 297.644,-286.39 316.188,-291.658"/>
<polygon fill="midnightblue" stroke="midnightblue" points="315.436,-295.083 326.012,-294.448 317.349,-288.349 315.436,-295.083"/>
</g>
<!-- Node7 -->
<g id="node8" class="node"><title>Node7</title>
<g id="a_node8"><a xlink:href="class_view_1_1_head_quarters_u_i.html#a3e01c68b5fdd117642dd01db0465605c" target="_top" xlink:title="View::HeadQuartersUI\l::sellWeaponButtonPushed">
<polygon fill="white" stroke="black" points="312.5,-245.5 312.5,-275.5 447.5,-275.5 447.5,-245.5 312.5,-245.5"/>
<text text-anchor="start" x="320.5" y="-263.5" font-family="Helvetica,sans-Serif" font-size="10.00">View::HeadQuartersUI</text>
<text text-anchor="middle" x="380" y="-252.5" font-family="Helvetica,sans-Serif" font-size="10.00">::sellWeaponButtonPushed</text>
</a>
</g>
</g>
<!-- Node1&#45;&gt;Node7 -->
<g id="edge7" class="edge"><title>Node1&#45;&gt;Node7</title>
<path fill="none" stroke="midnightblue" d="M262.03,-260.5C274.823,-260.5 288.653,-260.5 302.171,-260.5"/>
<polygon fill="midnightblue" stroke="midnightblue" points="302.425,-264 312.425,-260.5 302.425,-257 302.425,-264"/>
</g>
<!-- Node8 -->
<g id="node9" class="node"><title>Node8</title>
<g id="a_node9"><a xlink:href="class_view_1_1_head_quarters_u_i.html#a0508cada4f9b06a59e32f4967b1a3070" target="_top" xlink:title="View::HeadQuartersUI\l::reloadWeaponButtonPushed">
<polygon fill="white" stroke="black" points="307,-196.5 307,-226.5 453,-226.5 453,-196.5 307,-196.5"/>
<text text-anchor="start" x="315" y="-214.5" font-family="Helvetica,sans-Serif" font-size="10.00">View::HeadQuartersUI</text>
<text text-anchor="middle" x="380" y="-203.5" font-family="Helvetica,sans-Serif" font-size="10.00">::reloadWeaponButtonPushed</text>
</a>
</g>
</g>
<!-- Node1&#45;&gt;Node8 -->
<g id="edge8" class="edge"><title>Node1&#45;&gt;Node8</title>
<path fill="none" stroke="midnightblue" d="M259.663,-245.399C277.537,-240.321 297.644,-234.61 316.188,-229.342"/>
<polygon fill="midnightblue" stroke="midnightblue" points="317.349,-232.651 326.012,-226.552 315.436,-225.917 317.349,-232.651"/>
</g>
<!-- Node9 -->
<g id="node10" class="node"><title>Node9</title>
<g id="a_node10"><a xlink:href="class_view_1_1_head_quarters_u_i.html#a6068a9afa900ab4c5bc0d36a48c466e8" target="_top" xlink:title="View::HeadQuartersUI\l::changeSelectedResearch">
<polygon fill="white" stroke="black" points="313,-147.5 313,-177.5 447,-177.5 447,-147.5 313,-147.5"/>
<text text-anchor="start" x="321" y="-165.5" font-family="Helvetica,sans-Serif" font-size="10.00">View::HeadQuartersUI</text>
<text text-anchor="middle" x="380" y="-154.5" font-family="Helvetica,sans-Serif" font-size="10.00">::changeSelectedResearch</text>
</a>
</g>
</g>
<!-- Node1&#45;&gt;Node9 -->
<g id="edge10" class="edge"><title>Node1&#45;&gt;Node9</title>
<path fill="none" stroke="midnightblue" d="M248.214,-245.395C253.091,-242.795 257.812,-239.836 262,-236.5 283.137,-219.663 275.979,-203.163 298,-187.5 300.698,-185.581 303.548,-183.806 306.502,-182.164"/>
<polygon fill="midnightblue" stroke="midnightblue" points="308.229,-185.215 315.627,-177.631 305.114,-178.946 308.229,-185.215"/>
</g>
<!-- Node10 -->
<g id="node11" class="node"><title>Node10</title>
<g id="a_node11"><a xlink:href="class_view_1_1_head_quarters_u_i.html#aa4cf289bec574f4ba216570e3815e683" target="_top" xlink:title="View::HeadQuartersUI\l::hireActorButtonPushed">
<polygon fill="white" stroke="black" points="318.5,-98.5 318.5,-128.5 441.5,-128.5 441.5,-98.5 318.5,-98.5"/>
<text text-anchor="start" x="326.5" y="-116.5" font-family="Helvetica,sans-Serif" font-size="10.00">View::HeadQuartersUI</text>
<text text-anchor="middle" x="380" y="-105.5" font-family="Helvetica,sans-Serif" font-size="10.00">::hireActorButtonPushed</text>
</a>
</g>
</g>
<!-- Node1&#45;&gt;Node10 -->
<g id="edge11" class="edge"><title>Node1&#45;&gt;Node10</title>
<path fill="none" stroke="midnightblue" d="M250.844,-245.46C254.935,-242.9 258.755,-239.933 262,-236.5 293.878,-202.782 264.337,-170.435 298,-138.5 301.487,-135.192 305.402,-132.322 309.58,-129.83"/>
<polygon fill="midnightblue" stroke="midnightblue" points="311.196,-132.935 318.47,-125.231 307.98,-126.717 311.196,-132.935"/>
</g>
<!-- Node11 -->
<g id="node12" class="node"><title>Node11</title>
<g id="a_node12"><a xlink:href="class_view_1_1_head_quarters_u_i.html#a1b2bf2db6fd353931c27a1b92e9a46aa" target="_top" xlink:title="View::HeadQuartersUI\l::retireActorButtonPushed">
<polygon fill="white" stroke="black" points="315.5,-49.5 315.5,-79.5 444.5,-79.5 444.5,-49.5 315.5,-49.5"/>
<text text-anchor="start" x="323.5" y="-67.5" font-family="Helvetica,sans-Serif" font-size="10.00">View::HeadQuartersUI</text>
<text text-anchor="middle" x="380" y="-56.5" font-family="Helvetica,sans-Serif" font-size="10.00">::retireActorButtonPushed</text>
</a>
</g>
</g>
<!-- Node1&#45;&gt;Node11 -->
<g id="edge12" class="edge"><title>Node1&#45;&gt;Node11</title>
<path fill="none" stroke="midnightblue" d="M251.779,-245.466C255.587,-242.916 259.087,-239.948 262,-236.5 305.405,-185.115 251.866,-138.45 298,-89.5 300.628,-86.7121 303.558,-84.2326 306.703,-82.0278"/>
<polygon fill="midnightblue" stroke="midnightblue" points="308.666,-84.9325 315.468,-76.8093 305.085,-78.9178 308.666,-84.9325"/>
</g>
<!-- Node12 -->
<g id="node13" class="node"><title>Node12</title>
<g id="a_node13"><a xlink:href="class_view_1_1_head_quarters_u_i.html#a3edd37b9b061955835597c8cac015c21" target="_top" xlink:title="View::HeadQuartersUI\l::healActorButtonPushed">
<polygon fill="white" stroke="black" points="317.5,-0.5 317.5,-30.5 442.5,-30.5 442.5,-0.5 317.5,-0.5"/>
<text text-anchor="start" x="325.5" y="-18.5" font-family="Helvetica,sans-Serif" font-size="10.00">View::HeadQuartersUI</text>
<text text-anchor="middle" x="380" y="-7.5" font-family="Helvetica,sans-Serif" font-size="10.00">::healActorButtonPushed</text>
</a>
</g>
</g>
<!-- Node1&#45;&gt;Node12 -->
<g id="edge13" class="edge"><title>Node1&#45;&gt;Node12</title>
<path fill="none" stroke="midnightblue" d="M252.253,-245.459C255.916,-242.914 259.255,-239.95 262,-236.5 317.149,-167.197 239.165,-106.703 298,-40.5 301.052,-37.0657 304.564,-34.0973 308.379,-31.5321"/>
<polygon fill="midnightblue" stroke="midnightblue" points="310.194,-34.5261 317.153,-26.5364 306.731,-28.4431 310.194,-34.5261"/>
</g>
<!-- Node4&#45;&gt;Node5 -->
<g id="edge5" class="edge"><title>Node4&#45;&gt;Node5</title>
<path fill="none" stroke="midnightblue" d="M462.241,-387.786C470.728,-386.772 479.338,-385.742 487.779,-384.733"/>
<polygon fill="midnightblue" stroke="midnightblue" points="488.456,-388.177 497.97,-383.514 487.625,-381.227 488.456,-388.177"/>
</g>
</g>
</svg>
        <g id="navigator" transform="translate(0 0)" fill="#404254">
                <rect fill="#f2f5e9" fill-opacity="0.5" stroke="#606060" stroke-width=".5" x="0" y="0" width="60" height="60"/>
                <use id="zoomplus" xlink:href="#zoomPlus" x="17" y="9" onmousedown="handleZoom(evt,'in')"/>
                <use id="zoomminus" xlink:href="#zoomMin" x="42" y="9" onmousedown="handleZoom(evt,'out')"/>
                <use id="reset" xlink:href="#resetDef" x="30" y="36" onmousedown="handleReset()"/>
                <g id="arrowUp" xlink:href="#dirArrow" transform="translate(30 24)" onmousedown="handlePan(0,-1)">
                  <use xlink:href="#rim" fill="#404040">
                        <set attributeName="fill" to="#808080" begin="arrowUp.mouseover" end="arrowUp.mouseout"/>
                  </use>
                  <path fill="none" stroke="white" stroke-width="1.5" d="M0,-3.0v7 M-2.5,-0.5L0,-3.0L2.5,-0.5"/>
                </g>
                <g id="arrowRight" xlink:href="#dirArrow" transform="rotate(90) translate(36 -43)" onmousedown="handlePan(1,0)">
                  <use xlink:href="#rim" fill="#404040">
                        <set attributeName="fill" to="#808080" begin="arrowRight.mouseover" end="arrowRight.mouseout"/>
                  </use>
                  <path fill="none" stroke="white" stroke-width="1.5" d="M0,-3.0v7 M-2.5,-0.5L0,-3.0L2.5,-0.5"/>
                </g>
                <g id="arrowDown" xlink:href="#dirArrow" transform="rotate(180) translate(-30 -48)" onmousedown="handlePan(0,1)">
                  <use xlink:href="#rim" fill="#404040">
                        <set attributeName="fill" to="#808080" begin="arrowDown.mouseover" end="arrowDown.mouseout"/>
                  </use>
                  <path fill="none" stroke="white" stroke-width="1.5" d="M0,-3.0v7 M-2.5,-0.5L0,-3.0L2.5,-0.5"/>
                </g>
                <g id="arrowLeft" xlink:href="#dirArrow" transform="rotate(270) translate(-36 17)" onmousedown="handlePan(-1,0)">
                  <use xlink:href="#rim" fill="#404040">
                        <set attributeName="fill" to="#808080" begin="arrowLeft.mouseover" end="arrowLeft.mouseout"/>
                  </use>
                  <path fill="none" stroke="white" stroke-width="1.5" d="M0,-3.0v7 M-2.5,-0.5L0,-3.0L2.5,-0.5"/>
                </g>
        </g>
        <svg viewBox="0 0 15 15" width="100%" height="30px" preserveAspectRatio="xMaxYMin meet">
         <g id="arrow_out" transform="scale(0.3 0.3)">
          <a xlink:href="class_view_1_1_head_quarters_u_i_a98db9788c668433314da83b183101f0c_cgraph_org.svg" target="_base">
           <rect id="button" ry="5" rx="5" y="6" x="6" height="38" width="38"
                fill="#f2f5e9" fill-opacity="0.5" stroke="#606060" stroke-width="1.0"/>
           <path id="arrow"
             d="M 11.500037,31.436501 C 11.940474,20.09759 22.043105,11.32322 32.158766,21.979434 L 37.068811,17.246167 C 37.068811,17.246167 37.088388,32 37.088388,32 L 22.160133,31.978069 C 22.160133,31.978069 26.997745,27.140456 26.997745,27.140456 C 18.528582,18.264221 13.291696,25.230495 11.500037,31.436501 z"
             style="fill:#404040;"/>
          </a>
         </g>
        </svg>
</svg>
