<?xml version="1.0" encoding="UTF-8" standalone="no"?>
<!DOCTYPE svg PUBLIC "-//W3C//DTD SVG 1.1//EN"
 "http://www.w3.org/Graphics/SVG/1.1/DTD/svg11.dtd">
<!-- Generated by graphviz version 2.38.0 (20140413.2041)
 -->
<!-- Title: Model::ParkingHall Pages: 1 -->
<!--zoomable 479 -->
<svg id="main" version="1.1" xmlns="http://www.w3.org/2000/svg" xmlns:xlink="http://www.w3.org/1999/xlink" xml:space="preserve" onload="init(evt)">
<style type="text/css"><![CDATA[
.edge:hover path { stroke: red; }
.edge:hover polygon { stroke: red; fill: red; }
]]></style>
<script type="text/javascript"><![CDATA[
var edges = document.getElementsByTagName('g');
if (edges && edges.length) {
  for (var i=0;i<edges.length;i++) {
    if (edges[i].id.substr(0,4)=='edge') {
      edges[i].setAttribute('class','edge');
    }
  }
}
]]></script>
        <defs>
                <circle id="rim" cx="0" cy="0" r="7"/>
                <circle id="rim2" cx="0" cy="0" r="3.5"/>
                <g id="zoomPlus">
                        <use xlink:href="#rim" fill="#404040">
                                <set attributeName="fill" to="#808080" begin="zoomplus.mouseover" end="zoomplus.mouseout"/>
                        </use>
                        <path d="M-4,0h8M0,-4v8" fill="none" stroke="white" stroke-width="1.5" pointer-events="none"/>
                </g>
                <g id="zoomMin">
                        <use xlink:href="#rim" fill="#404040">
                                <set attributeName="fill" to="#808080" begin="zoomminus.mouseover" end="zoomminus.mouseout"/>
                        </use>
                        <path d="M-4,0h8" fill="none" stroke="white" stroke-width="1.5" pointer-events="none"/>
                </g>
                <g id="dirArrow">
                        <path fill="none" stroke="white" stroke-width="1.5" d="M0,-3.0v7 M-2.5,-0.5L0,-3.0L2.5,-0.5"/>
                </g>
               <g id="resetDef">
                       <use xlink:href="#rim2" fill="#404040">
                               <set attributeName="fill" to="#808080" begin="reset.mouseover" end="reset.mouseout"/>
                       </use>
               </g>
        </defs>

<script type="text/javascript">
var viewWidth = 620;
var viewHeight = 479;
var sectionId = 'dynsection-1';
</script>
<script xlink:href="svgpan.js"/>
<svg id="graph" class="graph">
<g id="viewport">
<title>Model::ParkingHall</title>
<polygon fill="white" stroke="none" points="-4,4 -4,-475 616,-475 616,4 -4,4"/>
<!-- Node2 -->
<g id="node1" class="node"><title>Node2</title>
<polygon fill="#bfbfbf" stroke="black" points="234.5,-0.5 234.5,-167.5 365.5,-167.5 365.5,-0.5 234.5,-0.5"/>
<text text-anchor="middle" x="300" y="-155.5" font-family="Helvetica,sans-Serif" font-size="10.00">Model::ParkingHall</text>
<polyline fill="none" stroke="black" points="234.5,-148.5 365.5,-148.5 "/>
<text text-anchor="middle" x="300" y="-136.5" font-family="Helvetica,sans-Serif" font-size="10.00"> </text>
<polyline fill="none" stroke="black" points="234.5,-129.5 365.5,-129.5 "/>
<text text-anchor="start" x="242.5" y="-117.5" font-family="Helvetica,sans-Serif" font-size="10.00">+ ParkingHall()</text>
<text text-anchor="start" x="242.5" y="-106.5" font-family="Helvetica,sans-Serif" font-size="10.00">+ ParkingHall()</text>
<text text-anchor="start" x="242.5" y="-95.5" font-family="Helvetica,sans-Serif" font-size="10.00">+ getId()</text>
<text text-anchor="start" x="242.5" y="-84.5" font-family="Helvetica,sans-Serif" font-size="10.00">+ getName()</text>
<text text-anchor="start" x="242.5" y="-73.5" font-family="Helvetica,sans-Serif" font-size="10.00">+ getCarCount()</text>
<text text-anchor="start" x="242.5" y="-62.5" font-family="Helvetica,sans-Serif" font-size="10.00">+ getParkingSpaceCount()</text>
<text text-anchor="start" x="242.5" y="-51.5" font-family="Helvetica,sans-Serif" font-size="10.00">+ isPlayerOwned()</text>
<text text-anchor="start" x="242.5" y="-40.5" font-family="Helvetica,sans-Serif" font-size="10.00">+ getLongitude()</text>
<text text-anchor="start" x="242.5" y="-29.5" font-family="Helvetica,sans-Serif" font-size="10.00">+ getLatitude()</text>
<text text-anchor="start" x="242.5" y="-18.5" font-family="Helvetica,sans-Serif" font-size="10.00">+ getLayout()</text>
<text text-anchor="start" x="242.5" y="-7.5" font-family="Helvetica,sans-Serif" font-size="10.00">and 15 more...</text>
</g>
<!-- Node3 -->
<g id="node2" class="node"><title>Node3</title>
<g id="a_node2"><a xlink:href="class_interface_1_1_parking_hall_interface.html" target="_top" xlink:title="{Interface::ParkingHallInterface\n||+ ParkingHallInterface()\l+ ~ParkingHallInterface()\l+ getId()\l+ getName()\l+ getCarCount()\l+ getParkingSpaceCount()\l+ isPlayerOwned()\l+ getLongitude()\l+ getLatitude()\l+ isInTampere()\l+ getLayout()\l+ getMonetaryValue()\l+ getEnemyCount()\l}">
<polygon fill="white" stroke="black" points="0,-281.5 0,-470.5 146,-470.5 146,-281.5 0,-281.5"/>
<text text-anchor="middle" x="73" y="-458.5" font-family="Helvetica,sans-Serif" font-size="10.00">Interface::ParkingHallInterface</text>
<polyline fill="none" stroke="black" points="0,-451.5 146,-451.5 "/>
<text text-anchor="middle" x="73" y="-439.5" font-family="Helvetica,sans-Serif" font-size="10.00"> </text>
<polyline fill="none" stroke="black" points="0,-432.5 146,-432.5 "/>
<text text-anchor="start" x="8" y="-420.5" font-family="Helvetica,sans-Serif" font-size="10.00">+ ParkingHallInterface()</text>
<text text-anchor="start" x="8" y="-409.5" font-family="Helvetica,sans-Serif" font-size="10.00">+ ~ParkingHallInterface()</text>
<text text-anchor="start" x="8" y="-398.5" font-family="Helvetica,sans-Serif" font-size="10.00">+ getId()</text>
<text text-anchor="start" x="8" y="-387.5" font-family="Helvetica,sans-Serif" font-size="10.00">+ getName()</text>
<text text-anchor="start" x="8" y="-376.5" font-family="Helvetica,sans-Serif" font-size="10.00">+ getCarCount()</text>
<text text-anchor="start" x="8" y="-365.5" font-family="Helvetica,sans-Serif" font-size="10.00">+ getParkingSpaceCount()</text>
<text text-anchor="start" x="8" y="-354.5" font-family="Helvetica,sans-Serif" font-size="10.00">+ isPlayerOwned()</text>
<text text-anchor="start" x="8" y="-343.5" font-family="Helvetica,sans-Serif" font-size="10.00">+ getLongitude()</text>
<text text-anchor="start" x="8" y="-332.5" font-family="Helvetica,sans-Serif" font-size="10.00">+ getLatitude()</text>
<text text-anchor="start" x="8" y="-321.5" font-family="Helvetica,sans-Serif" font-size="10.00">+ isInTampere()</text>
<text text-anchor="start" x="8" y="-310.5" font-family="Helvetica,sans-Serif" font-size="10.00">+ getLayout()</text>
<text text-anchor="start" x="8" y="-299.5" font-family="Helvetica,sans-Serif" font-size="10.00">+ getMonetaryValue()</text>
<text text-anchor="start" x="8" y="-288.5" font-family="Helvetica,sans-Serif" font-size="10.00">+ getEnemyCount()</text>
</a>
</g>
</g>
<!-- Node3&#45;&gt;Node2 -->
<g id="edge1" class="edge"><title>Node3&#45;&gt;Node2</title>
<path fill="none" stroke="midnightblue" d="M123.741,-272.462C140.409,-243.178 160.29,-212.145 182,-186 197.332,-167.536 216.265,-149.703 234.443,-134.294"/>
<polygon fill="none" stroke="midnightblue" points="120.518,-271.054 118.674,-281.487 126.622,-274.481 120.518,-271.054"/>
</g>
<!-- Node4 -->
<g id="node3" class="node"><title>Node4</title>
<polygon fill="white" stroke="#bfbfbf" points="164.5,-347.5 164.5,-404.5 209.5,-404.5 209.5,-347.5 164.5,-347.5"/>
<text text-anchor="middle" x="187" y="-392.5" font-family="Helvetica,sans-Serif" font-size="10.00">double</text>
<polyline fill="none" stroke="#bfbfbf" points="164.5,-385.5 209.5,-385.5 "/>
<text text-anchor="middle" x="187" y="-373.5" font-family="Helvetica,sans-Serif" font-size="10.00"> </text>
<polyline fill="none" stroke="#bfbfbf" points="164.5,-366.5 209.5,-366.5 "/>
<text text-anchor="middle" x="187" y="-354.5" font-family="Helvetica,sans-Serif" font-size="10.00"> </text>
</g>
<!-- Node4&#45;&gt;Node2 -->
<g id="edge2" class="edge"><title>Node4&#45;&gt;Node2</title>
<path fill="none" stroke="#404040" d="M184.214,-347.299C181.553,-309.156 180.952,-239.154 205,-186 210.526,-173.786 218.143,-162.107 226.68,-151.308"/>
<polygon fill="none" stroke="#404040" points="226.709,-151.273 227.476,-144.103 234.389,-142.053 233.623,-149.223 226.709,-151.273"/>
<text text-anchor="middle" x="229" y="-227.5" font-family="Helvetica,sans-Serif" font-size="10.00"> &#45;latitude_</text>
<text text-anchor="middle" x="229" y="-216.5" font-family="Helvetica,sans-Serif" font-size="10.00">&#45;longitude_</text>
</g>
<!-- Node5 -->
<g id="node4" class="node"><title>Node5</title>
<polygon fill="white" stroke="#bfbfbf" points="228,-347.5 228,-404.5 278,-404.5 278,-347.5 228,-347.5"/>
<text text-anchor="middle" x="253" y="-392.5" font-family="Helvetica,sans-Serif" font-size="10.00">QString</text>
<polyline fill="none" stroke="#bfbfbf" points="228,-385.5 278,-385.5 "/>
<text text-anchor="middle" x="253" y="-373.5" font-family="Helvetica,sans-Serif" font-size="10.00"> </text>
<polyline fill="none" stroke="#bfbfbf" points="228,-366.5 278,-366.5 "/>
<text text-anchor="middle" x="253" y="-354.5" font-family="Helvetica,sans-Serif" font-size="10.00"> </text>
</g>
<!-- Node5&#45;&gt;Node2 -->
<g id="edge3" class="edge"><title>Node5&#45;&gt;Node2</title>
<path fill="none" stroke="#404040" d="M252.702,-347.481C252.796,-310.427 254.719,-242.609 266,-186 266.429,-183.848 266.891,-181.679 267.382,-179.498"/>
<polygon fill="none" stroke="#404040" points="267.401,-179.42 264.949,-172.639 270.265,-167.767 272.718,-174.548 267.401,-179.42"/>
<text text-anchor="middle" x="289" y="-249.5" font-family="Helvetica,sans-Serif" font-size="10.00"> &#45;address_</text>
<text text-anchor="middle" x="289" y="-238.5" font-family="Helvetica,sans-Serif" font-size="10.00">&#45;name_</text>
<text text-anchor="middle" x="289" y="-227.5" font-family="Helvetica,sans-Serif" font-size="10.00">&#45;layout_</text>
<text text-anchor="middle" x="289" y="-216.5" font-family="Helvetica,sans-Serif" font-size="10.00">&#45;id_</text>
<text text-anchor="middle" x="289" y="-205.5" font-family="Helvetica,sans-Serif" font-size="10.00">&#45;city_</text>
<text text-anchor="middle" x="289" y="-194.5" font-family="Helvetica,sans-Serif" font-size="10.00">&#45;street_</text>
</g>
<!-- Node6 -->
<g id="node5" class="node"><title>Node6</title>
<polygon fill="white" stroke="#bfbfbf" points="296.5,-347.5 296.5,-404.5 389.5,-404.5 389.5,-347.5 296.5,-347.5"/>
<text text-anchor="middle" x="343" y="-392.5" font-family="Helvetica,sans-Serif" font-size="10.00">vector&lt; QString &gt;</text>
<polyline fill="none" stroke="#bfbfbf" points="296.5,-385.5 389.5,-385.5 "/>
<text text-anchor="middle" x="343" y="-373.5" font-family="Helvetica,sans-Serif" font-size="10.00"> </text>
<polyline fill="none" stroke="#bfbfbf" points="296.5,-366.5 389.5,-366.5 "/>
<text text-anchor="middle" x="343" y="-354.5" font-family="Helvetica,sans-Serif" font-size="10.00"> </text>
</g>
<!-- Node6&#45;&gt;Node2 -->
<g id="edge4" class="edge"><title>Node6&#45;&gt;Node2</title>
<path fill="none" stroke="#404040" d="M338.916,-347.456C333.248,-309.229 322.714,-238.187 314.034,-179.647"/>
<polygon fill="none" stroke="#404040" points="314.029,-179.611 309.192,-174.263 312.268,-167.741 317.105,-173.089 314.029,-179.611"/>
<text text-anchor="middle" x="344" y="-222" font-family="Helvetica,sans-Serif" font-size="10.00"> &#45;types_</text>
</g>
<!-- Node7 -->
<g id="node6" class="node"><title>Node7</title>
<polygon fill="white" stroke="#bfbfbf" points="407.5,-347.5 407.5,-404.5 436.5,-404.5 436.5,-347.5 407.5,-347.5"/>
<text text-anchor="middle" x="422" y="-392.5" font-family="Helvetica,sans-Serif" font-size="10.00">int</text>
<polyline fill="none" stroke="#bfbfbf" points="407.5,-385.5 436.5,-385.5 "/>
<text text-anchor="middle" x="422" y="-373.5" font-family="Helvetica,sans-Serif" font-size="10.00"> </text>
<polyline fill="none" stroke="#bfbfbf" points="407.5,-366.5 436.5,-366.5 "/>
<text text-anchor="middle" x="422" y="-354.5" font-family="Helvetica,sans-Serif" font-size="10.00"> </text>
</g>
<!-- Node7&#45;&gt;Node2 -->
<g id="edge5" class="edge"><title>Node7&#45;&gt;Node2</title>
<path fill="none" stroke="#404040" d="M415.504,-347.293C410.955,-328.493 404.542,-303.128 398,-281 385.369,-238.275 385.454,-226.082 366,-186 364.746,-183.416 363.437,-180.82 362.082,-178.219"/>
<polygon fill="none" stroke="#404040" points="362.004,-178.074 355.627,-174.707 356.282,-167.526 362.659,-170.892 362.004,-178.074"/>
<text text-anchor="start" x="393" y="-255" font-family="Helvetica,sans-Serif" font-size="10.00"> &#45;parkingOccupiedCount</text>
<text text-anchor="middle" x="445.5" y="-244" font-family="Helvetica,sans-Serif" font-size="10.00">_</text>
<text text-anchor="middle" x="445.5" y="-233" font-family="Helvetica,sans-Serif" font-size="10.00">&#45;postnumber_</text>
<text text-anchor="start" x="393" y="-222" font-family="Helvetica,sans-Serif" font-size="10.00">&#45;parkingSpaceCount</text>
<text text-anchor="middle" x="445.5" y="-211" font-family="Helvetica,sans-Serif" font-size="10.00">_</text>
<text text-anchor="start" x="393" y="-200" font-family="Helvetica,sans-Serif" font-size="10.00">&#45;parkingVacantParking</text>
<text text-anchor="middle" x="445.5" y="-189" font-family="Helvetica,sans-Serif" font-size="10.00">Count_</text>
</g>
<!-- Node8 -->
<g id="node7" class="node"><title>Node8</title>
<polygon fill="white" stroke="#bfbfbf" points="522.5,-347.5 522.5,-404.5 557.5,-404.5 557.5,-347.5 522.5,-347.5"/>
<text text-anchor="middle" x="540" y="-392.5" font-family="Helvetica,sans-Serif" font-size="10.00">bool</text>
<polyline fill="none" stroke="#bfbfbf" points="522.5,-385.5 557.5,-385.5 "/>
<text text-anchor="middle" x="540" y="-373.5" font-family="Helvetica,sans-Serif" font-size="10.00"> </text>
<polyline fill="none" stroke="#bfbfbf" points="522.5,-366.5 557.5,-366.5 "/>
<text text-anchor="middle" x="540" y="-354.5" font-family="Helvetica,sans-Serif" font-size="10.00"> </text>
</g>
<!-- Node8&#45;&gt;Node2 -->
<g id="edge6" class="edge"><title>Node8&#45;&gt;Node2</title>
<path fill="none" stroke="#404040" d="M541.624,-347.24C542.491,-307.444 538.491,-233.725 502,-186 471.35,-145.913 420.463,-120.606 377.434,-105.349"/>
<polygon fill="none" stroke="#404040" points="377.181,-105.263 370.213,-107.12 365.819,-101.402 372.787,-99.5449 377.181,-105.263"/>
<text text-anchor="middle" x="573.5" y="-222" font-family="Helvetica,sans-Serif" font-size="10.00"> &#45;isPlayerOwned_</text>
</g>
</g>
</svg>
        <g id="navigator" transform="translate(0 0)" fill="#404254">
                <rect fill="#f2f5e9" fill-opacity="0.5" stroke="#606060" stroke-width=".5" x="0" y="0" width="60" height="60"/>
                <use id="zoomplus" xlink:href="#zoomPlus" x="17" y="9" onmousedown="handleZoom(evt,'in')"/>
                <use id="zoomminus" xlink:href="#zoomMin" x="42" y="9" onmousedown="handleZoom(evt,'out')"/>
                <use id="reset" xlink:href="#resetDef" x="30" y="36" onmousedown="handleReset()"/>
                <g id="arrowUp" xlink:href="#dirArrow" transform="translate(30 24)" onmousedown="handlePan(0,-1)">
                  <use xlink:href="#rim" fill="#404040">
                        <set attributeName="fill" to="#808080" begin="arrowUp.mouseover" end="arrowUp.mouseout"/>
                  </use>
                  <path fill="none" stroke="white" stroke-width="1.5" d="M0,-3.0v7 M-2.5,-0.5L0,-3.0L2.5,-0.5"/>
                </g>
                <g id="arrowRight" xlink:href="#dirArrow" transform="rotate(90) translate(36 -43)" onmousedown="handlePan(1,0)">
                  <use xlink:href="#rim" fill="#404040">
                        <set attributeName="fill" to="#808080" begin="arrowRight.mouseover" end="arrowRight.mouseout"/>
                  </use>
                  <path fill="none" stroke="white" stroke-width="1.5" d="M0,-3.0v7 M-2.5,-0.5L0,-3.0L2.5,-0.5"/>
                </g>
                <g id="arrowDown" xlink:href="#dirArrow" transform="rotate(180) translate(-30 -48)" onmousedown="handlePan(0,1)">
                  <use xlink:href="#rim" fill="#404040">
                        <set attributeName="fill" to="#808080" begin="arrowDown.mouseover" end="arrowDown.mouseout"/>
                  </use>
                  <path fill="none" stroke="white" stroke-width="1.5" d="M0,-3.0v7 M-2.5,-0.5L0,-3.0L2.5,-0.5"/>
                </g>
                <g id="arrowLeft" xlink:href="#dirArrow" transform="rotate(270) translate(-36 17)" onmousedown="handlePan(-1,0)">
                  <use xlink:href="#rim" fill="#404040">
                        <set attributeName="fill" to="#808080" begin="arrowLeft.mouseover" end="arrowLeft.mouseout"/>
                  </use>
                  <path fill="none" stroke="white" stroke-width="1.5" d="M0,-3.0v7 M-2.5,-0.5L0,-3.0L2.5,-0.5"/>
                </g>
        </g>
        <svg viewBox="0 0 15 15" width="100%" height="30px" preserveAspectRatio="xMaxYMin meet">
         <g id="arrow_out" transform="scale(0.3 0.3)">
          <a xlink:href="class_model_1_1_parking_hall__coll__graph_org.svg" target="_base">
           <rect id="button" ry="5" rx="5" y="6" x="6" height="38" width="38"
                fill="#f2f5e9" fill-opacity="0.5" stroke="#606060" stroke-width="1.0"/>
           <path id="arrow"
             d="M 11.500037,31.436501 C 11.940474,20.09759 22.043105,11.32322 32.158766,21.979434 L 37.068811,17.246167 C 37.068811,17.246167 37.088388,32 37.088388,32 L 22.160133,31.978069 C 22.160133,31.978069 26.997745,27.140456 26.997745,27.140456 C 18.528582,18.264221 13.291696,25.230495 11.500037,31.436501 z"
             style="fill:#404040;"/>
          </a>
         </g>
        </svg>
</svg>
