<?xml version="1.0" encoding="UTF-8" standalone="no"?>
<!DOCTYPE svg PUBLIC "-//W3C//DTD SVG 1.1//EN"
 "http://www.w3.org/Graphics/SVG/1.1/DTD/svg11.dtd">
<!-- Generated by graphviz version 2.38.0 (20140413.2041)
 -->
<!-- Title: View::ActionSceneEnemyProjectileExplosion::ActionSceneEnemyProjectileExplosion Pages: 1 -->
<svg width="406pt" height="50pt"
 viewBox="0.00 0.00 406.00 50.00" xmlns="http://www.w3.org/2000/svg" xmlns:xlink="http://www.w3.org/1999/xlink">
<g id="graph0" class="graph" transform="scale(1 1) rotate(0) translate(4 46)">
<title>View::ActionSceneEnemyProjectileExplosion::ActionSceneEnemyProjectileExplosion</title>
<polygon fill="white" stroke="none" points="-4,4 -4,-46 402,-46 402,4 -4,4"/>
<!-- Node0 -->
<g id="node1" class="node"><title>Node0</title>
<polygon fill="#bfbfbf" stroke="black" points="0,-0.5 0,-41.5 192,-41.5 192,-0.5 0,-0.5"/>
<text text-anchor="start" x="8" y="-29.5" font-family="Helvetica,sans-Serif" font-size="10.00">View::ActionSceneEnemyProjectile</text>
<text text-anchor="start" x="8" y="-18.5" font-family="Helvetica,sans-Serif" font-size="10.00">Explosion::ActionSceneEnemyProjectile</text>
<text text-anchor="middle" x="96" y="-7.5" font-family="Helvetica,sans-Serif" font-size="10.00">Explosion</text>
</g>
<!-- Node1 -->
<g id="node2" class="node"><title>Node1</title>
<g id="a_node2"><a xlink:href="class_view_1_1_action_scene_enemy_projectile_explosion.html#a1359cd7c716b87a8a5e70b1b1c15c9f8" target="_top" xlink:title="View::ActionSceneEnemyProjectile\lExplosion::nextFrame">
<polygon fill="white" stroke="black" points="228,-6 228,-36 398,-36 398,-6 228,-6"/>
<text text-anchor="start" x="236" y="-24" font-family="Helvetica,sans-Serif" font-size="10.00">View::ActionSceneEnemyProjectile</text>
<text text-anchor="middle" x="313" y="-13" font-family="Helvetica,sans-Serif" font-size="10.00">Explosion::nextFrame</text>
</a>
</g>
</g>
<!-- Node0&#45;&gt;Node1 -->
<g id="edge1" class="edge"><title>Node0&#45;&gt;Node1</title>
<path fill="none" stroke="midnightblue" d="M192.241,-21C200.706,-21 209.273,-21 217.729,-21"/>
<polygon fill="midnightblue" stroke="midnightblue" points="217.975,-24.5001 227.975,-21 217.974,-17.5001 217.975,-24.5001"/>
</g>
</g>
</svg>
