<?xml version="1.0" encoding="UTF-8" standalone="no"?>
<!DOCTYPE svg PUBLIC "-//W3C//DTD SVG 1.1//EN"
 "http://www.w3.org/Graphics/SVG/1.1/DTD/svg11.dtd">
<!-- Generated by graphviz version 2.38.0 (20140413.2041)
 -->
<!-- Title: View::ActionScene::checkBlockedDirection Pages: 1 -->
<svg width="273pt" height="88pt"
 viewBox="0.00 0.00 273.00 88.00" xmlns="http://www.w3.org/2000/svg" xmlns:xlink="http://www.w3.org/1999/xlink">
<g id="graph0" class="graph" transform="scale(1 1) rotate(0) translate(4 84)">
<title>View::ActionScene::checkBlockedDirection</title>
<polygon fill="white" stroke="none" points="-4,4 -4,-84 269,-84 269,4 -4,4"/>
<!-- Node83 -->
<g id="node1" class="node"><title>Node83</title>
<polygon fill="#bfbfbf" stroke="black" points="0,-24.5 0,-54.5 116,-54.5 116,-24.5 0,-24.5"/>
<text text-anchor="start" x="8" y="-42.5" font-family="Helvetica,sans-Serif" font-size="10.00">View::ActionScene::</text>
<text text-anchor="middle" x="58" y="-31.5" font-family="Helvetica,sans-Serif" font-size="10.00">checkBlockedDirection</text>
</g>
<!-- Node84 -->
<g id="node2" class="node"><title>Node84</title>
<g id="a_node2"><a xlink:href="class_view_1_1_action_scene_p_c.html#ab11636de093176287ad05e2c12c33ca1" target="_top" xlink:title="View::ActionScenePC\l::getId">
<polygon fill="white" stroke="black" points="152,-49.5 152,-79.5 265,-79.5 265,-49.5 152,-49.5"/>
<text text-anchor="start" x="160" y="-67.5" font-family="Helvetica,sans-Serif" font-size="10.00">View::ActionScenePC</text>
<text text-anchor="middle" x="208.5" y="-56.5" font-family="Helvetica,sans-Serif" font-size="10.00">::getId</text>
</a>
</g>
</g>
<!-- Node83&#45;&gt;Node84 -->
<g id="edge1" class="edge"><title>Node83&#45;&gt;Node84</title>
<path fill="none" stroke="midnightblue" d="M116.414,-49.1657C124.653,-50.5528 133.185,-51.989 141.573,-53.4012"/>
<polygon fill="midnightblue" stroke="midnightblue" points="141.262,-56.8979 151.704,-55.1067 142.424,-49.9951 141.262,-56.8979"/>
</g>
<!-- Node85 -->
<g id="node3" class="node"><title>Node85</title>
<g id="a_node3"><a xlink:href="class_view_1_1_action_scene_p_c.html#a55bd5a020b147cf53f8f37ff664489a0" target="_top" xlink:title="View::ActionScenePC\l::obstacleHit">
<polygon fill="white" stroke="black" points="152,-0.5 152,-30.5 265,-30.5 265,-0.5 152,-0.5"/>
<text text-anchor="start" x="160" y="-18.5" font-family="Helvetica,sans-Serif" font-size="10.00">View::ActionScenePC</text>
<text text-anchor="middle" x="208.5" y="-7.5" font-family="Helvetica,sans-Serif" font-size="10.00">::obstacleHit</text>
</a>
</g>
</g>
<!-- Node83&#45;&gt;Node85 -->
<g id="edge2" class="edge"><title>Node83&#45;&gt;Node85</title>
<path fill="none" stroke="midnightblue" d="M116.414,-30.221C124.653,-28.8893 133.185,-27.5105 141.573,-26.1549"/>
<polygon fill="midnightblue" stroke="midnightblue" points="142.39,-29.5683 151.704,-24.5175 141.274,-22.6579 142.39,-29.5683"/>
</g>
</g>
</svg>
