<?xml version="1.0" encoding="UTF-8" standalone="no"?>
<!DOCTYPE svg PUBLIC "-//W3C//DTD SVG 1.1//EN"
 "http://www.w3.org/Graphics/SVG/1.1/DTD/svg11.dtd">
<!-- Generated by graphviz version 2.38.0 (20140413.2041)
 -->
<!-- Title: View::CityScapeParkingHall Pages: 1 -->
<svg width="194pt" height="336pt"
 viewBox="0.00 0.00 194.00 336.00" xmlns="http://www.w3.org/2000/svg" xmlns:xlink="http://www.w3.org/1999/xlink">
<g id="graph0" class="graph" transform="scale(1 1) rotate(0) translate(4 332)">
<title>View::CityScapeParkingHall</title>
<polygon fill="white" stroke="none" points="-4,4 -4,-332 190,-332 190,4 -4,4"/>
<!-- Node0 -->
<g id="node1" class="node"><title>Node0</title>
<polygon fill="#bfbfbf" stroke="black" points="8.5,-0.5 8.5,-233.5 146.5,-233.5 146.5,-0.5 8.5,-0.5"/>
<text text-anchor="middle" x="77.5" y="-221.5" font-family="Helvetica,sans-Serif" font-size="10.00">View::CityScapeParkingHall</text>
<polyline fill="none" stroke="black" points="8.5,-214.5 146.5,-214.5 "/>
<text text-anchor="start" x="16.5" y="-202.5" font-family="Helvetica,sans-Serif" font-size="10.00">&#45; id_</text>
<text text-anchor="start" x="16.5" y="-191.5" font-family="Helvetica,sans-Serif" font-size="10.00">&#45; isPlayerOwned_</text>
<text text-anchor="start" x="16.5" y="-180.5" font-family="Helvetica,sans-Serif" font-size="10.00">&#45; selected_</text>
<text text-anchor="start" x="16.5" y="-169.5" font-family="Helvetica,sans-Serif" font-size="10.00">&#45; deSelectionEnabled_</text>
<text text-anchor="start" x="16.5" y="-158.5" font-family="Helvetica,sans-Serif" font-size="10.00">&#45; latitude_</text>
<text text-anchor="start" x="16.5" y="-147.5" font-family="Helvetica,sans-Serif" font-size="10.00">&#45; longtitude_</text>
<text text-anchor="start" x="16.5" y="-136.5" font-family="Helvetica,sans-Serif" font-size="10.00">&#45; display_</text>
<text text-anchor="start" x="16.5" y="-125.5" font-family="Helvetica,sans-Serif" font-size="10.00">&#45; displayProxy_</text>
<polyline fill="none" stroke="black" points="8.5,-118.5 146.5,-118.5 "/>
<text text-anchor="start" x="16.5" y="-106.5" font-family="Helvetica,sans-Serif" font-size="10.00">+ CityScapeParkingHall()</text>
<text text-anchor="start" x="16.5" y="-95.5" font-family="Helvetica,sans-Serif" font-size="10.00">+ ~CityScapeParkingHall()</text>
<text text-anchor="start" x="16.5" y="-84.5" font-family="Helvetica,sans-Serif" font-size="10.00">+ getId()</text>
<text text-anchor="start" x="16.5" y="-73.5" font-family="Helvetica,sans-Serif" font-size="10.00">+ getX()</text>
<text text-anchor="start" x="16.5" y="-62.5" font-family="Helvetica,sans-Serif" font-size="10.00">+ getY()</text>
<text text-anchor="start" x="16.5" y="-51.5" font-family="Helvetica,sans-Serif" font-size="10.00">+ hoverEnterEvent()</text>
<text text-anchor="start" x="16.5" y="-40.5" font-family="Helvetica,sans-Serif" font-size="10.00">+ hoverLeaveEvent()</text>
<text text-anchor="start" x="16.5" y="-29.5" font-family="Helvetica,sans-Serif" font-size="10.00">+ mousePressEvent()</text>
<text text-anchor="start" x="16.5" y="-18.5" font-family="Helvetica,sans-Serif" font-size="10.00">+ setSelectionState()</text>
<text text-anchor="start" x="16.5" y="-7.5" font-family="Helvetica,sans-Serif" font-size="10.00">+ updateStatusDisplay()</text>
</g>
<!-- Node1 -->
<g id="node2" class="node"><title>Node1</title>
<g id="a_node2"><a xlink:href="class_q_object.html" target="_top" xlink:title="{QObject\n||}">
<polygon fill="white" stroke="black" points="0,-270.5 0,-327.5 53,-327.5 53,-270.5 0,-270.5"/>
<text text-anchor="middle" x="26.5" y="-315.5" font-family="Helvetica,sans-Serif" font-size="10.00">QObject</text>
<polyline fill="none" stroke="black" points="0,-308.5 53,-308.5 "/>
<text text-anchor="middle" x="26.5" y="-296.5" font-family="Helvetica,sans-Serif" font-size="10.00"> </text>
<polyline fill="none" stroke="black" points="0,-289.5 53,-289.5 "/>
<text text-anchor="middle" x="26.5" y="-277.5" font-family="Helvetica,sans-Serif" font-size="10.00"> </text>
</a>
</g>
</g>
<!-- Node1&#45;&gt;Node0 -->
<g id="edge1" class="edge"><title>Node1&#45;&gt;Node0</title>
<path fill="none" stroke="midnightblue" d="M37.1494,-260.414C39.4681,-252.23 42.0382,-243.159 44.726,-233.673"/>
<polygon fill="none" stroke="midnightblue" points="33.7156,-259.694 34.357,-270.269 40.4505,-261.602 33.7156,-259.694"/>
</g>
<!-- Node2 -->
<g id="node3" class="node"><title>Node2</title>
<g id="a_node3"><a xlink:href="class_q_graphics_pixmap_item.html" target="_top" xlink:title="{QGraphicsPixmapItem\n||}">
<polygon fill="white" stroke="black" points="71,-270.5 71,-327.5 186,-327.5 186,-270.5 71,-270.5"/>
<text text-anchor="middle" x="128.5" y="-315.5" font-family="Helvetica,sans-Serif" font-size="10.00">QGraphicsPixmapItem</text>
<polyline fill="none" stroke="black" points="71,-308.5 186,-308.5 "/>
<text text-anchor="middle" x="128.5" y="-296.5" font-family="Helvetica,sans-Serif" font-size="10.00"> </text>
<polyline fill="none" stroke="black" points="71,-289.5 186,-289.5 "/>
<text text-anchor="middle" x="128.5" y="-277.5" font-family="Helvetica,sans-Serif" font-size="10.00"> </text>
</a>
</g>
</g>
<!-- Node2&#45;&gt;Node0 -->
<g id="edge2" class="edge"><title>Node2&#45;&gt;Node0</title>
<path fill="none" stroke="midnightblue" d="M117.851,-260.414C115.532,-252.23 112.962,-243.159 110.274,-233.673"/>
<polygon fill="none" stroke="midnightblue" points="114.549,-261.602 120.643,-270.269 121.284,-259.694 114.549,-261.602"/>
</g>
</g>
</svg>
