<?xml version="1.0" encoding="UTF-8" standalone="no"?>
<!DOCTYPE svg PUBLIC "-//W3C//DTD SVG 1.1//EN"
 "http://www.w3.org/Graphics/SVG/1.1/DTD/svg11.dtd">
<!-- Generated by graphviz version 2.38.0 (20140413.2041)
 -->
<!-- Title: Model::mapGenerator::GetSurroundingWallCount Pages: 1 -->
<svg width="781pt" height="149pt"
 viewBox="0.00 0.00 781.00 149.00" xmlns="http://www.w3.org/2000/svg" xmlns:xlink="http://www.w3.org/1999/xlink">
<g id="graph0" class="graph" transform="scale(1 1) rotate(0) translate(4 145)">
<title>Model::mapGenerator::GetSurroundingWallCount</title>
<polygon fill="white" stroke="none" points="-4,4 -4,-145 777,-145 777,4 -4,4"/>
<!-- Node47 -->
<g id="node1" class="node"><title>Node47</title>
<polygon fill="#bfbfbf" stroke="black" points="0,-44.5 0,-74.5 135,-74.5 135,-44.5 0,-44.5"/>
<text text-anchor="start" x="8" y="-62.5" font-family="Helvetica,sans-Serif" font-size="10.00">Model::mapGenerator</text>
<text text-anchor="middle" x="67.5" y="-51.5" font-family="Helvetica,sans-Serif" font-size="10.00">::GetSurroundingWallCount</text>
</g>
<!-- Node48 -->
<g id="node2" class="node"><title>Node48</title>
<g id="a_node2"><a xlink:href="class_model_1_1map_processor.html#ae1e80cb097c8e31a337b3a20ff653cc2" target="_top" xlink:title="Model::mapProcessor\l::calculateDistanceMap">
<polygon fill="white" stroke="black" points="175.5,-88.5 175.5,-118.5 294.5,-118.5 294.5,-88.5 175.5,-88.5"/>
<text text-anchor="start" x="183.5" y="-106.5" font-family="Helvetica,sans-Serif" font-size="10.00">Model::mapProcessor</text>
<text text-anchor="middle" x="235" y="-95.5" font-family="Helvetica,sans-Serif" font-size="10.00">::calculateDistanceMap</text>
</a>
</g>
</g>
<!-- Node47&#45;&gt;Node48 -->
<g id="edge1" class="edge"><title>Node47&#45;&gt;Node48</title>
<path fill="none" stroke="midnightblue" d="M134.678,-77.0941C148.855,-80.8632 163.709,-84.8122 177.481,-88.4738"/>
<polygon fill="midnightblue" stroke="midnightblue" points="135.556,-73.7062 124.993,-74.5192 133.758,-80.4712 135.556,-73.7062"/>
</g>
<!-- Node51 -->
<g id="node5" class="node"><title>Node51</title>
<g id="a_node5"><a xlink:href="class_model_1_1map_generator.html#a08a1dc669cda9401647f81d61611931d" target="_top" xlink:title="Generate new hall with enemyCount. ">
<polygon fill="white" stroke="black" points="663,-22.5 663,-52.5 773,-52.5 773,-22.5 663,-22.5"/>
<text text-anchor="start" x="671" y="-40.5" font-family="Helvetica,sans-Serif" font-size="10.00">Model::mapGenerator</text>
<text text-anchor="middle" x="718" y="-29.5" font-family="Helvetica,sans-Serif" font-size="10.00">::generateHall</text>
</a>
</g>
</g>
<!-- Node47&#45;&gt;Node51 -->
<g id="edge5" class="edge"><title>Node47&#45;&gt;Node51</title>
<path fill="none" stroke="midnightblue" d="M145.255,-56.8961C278.11,-52.3891 547.732,-43.2423 662.887,-39.3358"/>
<polygon fill="midnightblue" stroke="midnightblue" points="145.031,-53.4016 135.156,-57.2387 145.268,-60.3976 145.031,-53.4016"/>
</g>
<!-- Node52 -->
<g id="node6" class="node"><title>Node52</title>
<g id="a_node6"><a xlink:href="class_model_1_1park_space_inserter.html#a60ef5f3d1e5b3b726cc1ec9d4a200151" target="_top" xlink:title="Model::parkSpaceInserter\l::getWallTiles">
<polygon fill="white" stroke="black" points="171,-0.5 171,-30.5 299,-30.5 299,-0.5 171,-0.5"/>
<text text-anchor="start" x="179" y="-18.5" font-family="Helvetica,sans-Serif" font-size="10.00">Model::parkSpaceInserter</text>
<text text-anchor="middle" x="235" y="-7.5" font-family="Helvetica,sans-Serif" font-size="10.00">::getWallTiles</text>
</a>
</g>
</g>
<!-- Node47&#45;&gt;Node52 -->
<g id="edge6" class="edge"><title>Node47&#45;&gt;Node52</title>
<path fill="none" stroke="midnightblue" d="M134.678,-41.9059C148.855,-38.1368 163.709,-34.1878 177.481,-30.5262"/>
<polygon fill="midnightblue" stroke="midnightblue" points="133.758,-38.5288 124.993,-44.4808 135.556,-45.2938 133.758,-38.5288"/>
</g>
<!-- Node49 -->
<g id="node3" class="node"><title>Node49</title>
<g id="a_node3"><a xlink:href="class_model_1_1map_processor.html#a7be8a27aaad96e187b4dba60fde5031a" target="_top" xlink:title="Model::mapProcessor\l::placeEnemies">
<polygon fill="white" stroke="black" points="507,-110.5 507,-140.5 619,-140.5 619,-110.5 507,-110.5"/>
<text text-anchor="start" x="515" y="-128.5" font-family="Helvetica,sans-Serif" font-size="10.00">Model::mapProcessor</text>
<text text-anchor="middle" x="563" y="-117.5" font-family="Helvetica,sans-Serif" font-size="10.00">::placeEnemies</text>
</a>
</g>
</g>
<!-- Node48&#45;&gt;Node49 -->
<g id="edge2" class="edge"><title>Node48&#45;&gt;Node49</title>
<path fill="none" stroke="midnightblue" d="M295.169,-120.973C308.177,-124.102 321.963,-126.879 335,-128.5 393.277,-135.745 460.615,-133.54 506.724,-130.431"/>
<polygon fill="midnightblue" stroke="midnightblue" points="295.95,-117.561 285.399,-118.526 294.249,-124.351 295.95,-117.561"/>
</g>
<!-- Node50 -->
<g id="node4" class="node"><title>Node50</title>
<g id="a_node4"><a xlink:href="class_model_1_1map_processor.html#a3719cc265240be889e98f9830602a067" target="_top" xlink:title="Model::mapProcessor\l::getMedialMap">
<polygon fill="white" stroke="black" points="343,-88.5 343,-118.5 455,-118.5 455,-88.5 343,-88.5"/>
<text text-anchor="start" x="351" y="-106.5" font-family="Helvetica,sans-Serif" font-size="10.00">Model::mapProcessor</text>
<text text-anchor="middle" x="399" y="-95.5" font-family="Helvetica,sans-Serif" font-size="10.00">::getMedialMap</text>
</a>
</g>
</g>
<!-- Node48&#45;&gt;Node50 -->
<g id="edge3" class="edge"><title>Node48&#45;&gt;Node50</title>
<path fill="none" stroke="midnightblue" d="M304.983,-103.5C317.637,-103.5 330.692,-103.5 342.874,-103.5"/>
<polygon fill="midnightblue" stroke="midnightblue" points="304.944,-100 294.944,-103.5 304.944,-107 304.944,-100"/>
</g>
<!-- Node50&#45;&gt;Node49 -->
<g id="edge4" class="edge"><title>Node50&#45;&gt;Node49</title>
<path fill="none" stroke="midnightblue" d="M465.234,-112.359C479.068,-114.238 493.54,-116.203 506.951,-118.024"/>
<polygon fill="midnightblue" stroke="midnightblue" points="465.678,-108.887 455.298,-111.01 464.736,-115.824 465.678,-108.887"/>
</g>
<!-- Node53 -->
<g id="node7" class="node"><title>Node53</title>
<g id="a_node7"><a xlink:href="class_model_1_1park_space_inserter.html#a20265678d0e7cfc25daef80afaa1ba86" target="_top" xlink:title="Model::parkSpaceInserter\l::addParkingSpaces_">
<polygon fill="white" stroke="black" points="335,-0.5 335,-30.5 463,-30.5 463,-0.5 335,-0.5"/>
<text text-anchor="start" x="343" y="-18.5" font-family="Helvetica,sans-Serif" font-size="10.00">Model::parkSpaceInserter</text>
<text text-anchor="middle" x="399" y="-7.5" font-family="Helvetica,sans-Serif" font-size="10.00">::addParkingSpaces_</text>
</a>
</g>
</g>
<!-- Node52&#45;&gt;Node53 -->
<g id="edge7" class="edge"><title>Node52&#45;&gt;Node53</title>
<path fill="none" stroke="midnightblue" d="M309.374,-15.5C317.865,-15.5 326.469,-15.5 334.808,-15.5"/>
<polygon fill="midnightblue" stroke="midnightblue" points="309.097,-12.0001 299.097,-15.5 309.097,-19.0001 309.097,-12.0001"/>
</g>
<!-- Node54 -->
<g id="node8" class="node"><title>Node54</title>
<g id="a_node8"><a xlink:href="class_model_1_1park_space_inserter.html#a85f30f97e1864f0c4b3afe8f8dea7ae3" target="_top" xlink:title="Model::parkSpaceInserter\l::addSpaces">
<polygon fill="white" stroke="black" points="499,-0.5 499,-30.5 627,-30.5 627,-0.5 499,-0.5"/>
<text text-anchor="start" x="507" y="-18.5" font-family="Helvetica,sans-Serif" font-size="10.00">Model::parkSpaceInserter</text>
<text text-anchor="middle" x="563" y="-7.5" font-family="Helvetica,sans-Serif" font-size="10.00">::addSpaces</text>
</a>
</g>
</g>
<!-- Node53&#45;&gt;Node54 -->
<g id="edge8" class="edge"><title>Node53&#45;&gt;Node54</title>
<path fill="none" stroke="midnightblue" d="M473.374,-15.5C481.865,-15.5 490.469,-15.5 498.808,-15.5"/>
<polygon fill="midnightblue" stroke="midnightblue" points="473.097,-12.0001 463.097,-15.5 473.097,-19.0001 473.097,-12.0001"/>
</g>
<!-- Node54&#45;&gt;Node51 -->
<g id="edge9" class="edge"><title>Node54&#45;&gt;Node51</title>
<path fill="none" stroke="midnightblue" d="M637.194,-26.0247C645.825,-27.2657 654.513,-28.5149 662.816,-29.7088"/>
<polygon fill="midnightblue" stroke="midnightblue" points="637.511,-22.5342 627.114,-24.5753 636.514,-29.463 637.511,-22.5342"/>
</g>
</g>
</svg>
