<?xml version="1.0" encoding="UTF-8" standalone="no"?>
<!DOCTYPE svg PUBLIC "-//W3C//DTD SVG 1.1//EN"
 "http://www.w3.org/Graphics/SVG/1.1/DTD/svg11.dtd">
<!-- Generated by graphviz version 2.38.0 (20140413.2041)
 -->
<!-- Title: Model::PlayerParty::setParkingHallOwnership Pages: 1 -->
<svg width="303pt" height="78pt"
 viewBox="0.00 0.00 303.00 77.50" xmlns="http://www.w3.org/2000/svg" xmlns:xlink="http://www.w3.org/1999/xlink">
<g id="graph0" class="graph" transform="scale(1 1) rotate(0) translate(4 73.5)">
<title>Model::PlayerParty::setParkingHallOwnership</title>
<polygon fill="white" stroke="none" points="-4,4 -4,-73.5 299,-73.5 299,4 -4,4"/>
<!-- Node60 -->
<g id="node1" class="node"><title>Node60</title>
<polygon fill="#bfbfbf" stroke="black" points="0,-22.5 0,-52.5 131,-52.5 131,-22.5 0,-22.5"/>
<text text-anchor="start" x="8" y="-40.5" font-family="Helvetica,sans-Serif" font-size="10.00">Model::PlayerParty</text>
<text text-anchor="middle" x="65.5" y="-29.5" font-family="Helvetica,sans-Serif" font-size="10.00">::setParkingHallOwnership</text>
</g>
<!-- Node61 -->
<g id="node2" class="node"><title>Node61</title>
<g id="a_node2"><a xlink:href="class_model_1_1_player.html#a75a763995ccd5a97eec6c31fac6e1a4e" target="_top" xlink:title="Model::Player::addMoney">
<polygon fill="white" stroke="black" points="167,-50 167,-69 295,-69 295,-50 167,-50"/>
<text text-anchor="middle" x="231" y="-57" font-family="Helvetica,sans-Serif" font-size="10.00">Model::Player::addMoney</text>
</a>
</g>
</g>
<!-- Node60&#45;&gt;Node61 -->
<g id="edge1" class="edge"><title>Node60&#45;&gt;Node61</title>
<path fill="none" stroke="midnightblue" d="M131.12,-46.195C139.588,-47.3345 148.313,-48.5085 156.91,-49.6652"/>
<polygon fill="midnightblue" stroke="midnightblue" points="156.541,-53.147 166.918,-51.0119 157.474,-46.2096 156.541,-53.147"/>
</g>
<!-- Node62 -->
<g id="node3" class="node"><title>Node62</title>
<g id="a_node3"><a xlink:href="class_model_1_1_player_party.html#ab33abac5217cb3fa2bda54d9f307d220" target="_top" xlink:title="Model::PlayerParty\l::getActor">
<polygon fill="white" stroke="black" points="181,-0.5 181,-30.5 281,-30.5 281,-0.5 181,-0.5"/>
<text text-anchor="start" x="189" y="-18.5" font-family="Helvetica,sans-Serif" font-size="10.00">Model::PlayerParty</text>
<text text-anchor="middle" x="231" y="-7.5" font-family="Helvetica,sans-Serif" font-size="10.00">::getActor</text>
</a>
</g>
</g>
<!-- Node60&#45;&gt;Node62 -->
<g id="edge2" class="edge"><title>Node60&#45;&gt;Node62</title>
<path fill="none" stroke="midnightblue" d="M131.12,-28.805C144.22,-27.0423 157.935,-25.1969 170.835,-23.461"/>
<polygon fill="midnightblue" stroke="midnightblue" points="171.535,-26.8984 180.979,-22.0961 170.602,-19.961 171.535,-26.8984"/>
</g>
</g>
</svg>
