<?xml version="1.0" encoding="UTF-8" standalone="no"?>
<!DOCTYPE svg PUBLIC "-//W3C//DTD SVG 1.1//EN"
 "http://www.w3.org/Graphics/SVG/1.1/DTD/svg11.dtd">
<!-- Generated by graphviz version 2.38.0 (20140413.2041)
 -->
<!-- Title: View::CityScape Pages: 1 -->
<svg width="181pt" height="292pt"
 viewBox="0.00 0.00 181.00 292.00" xmlns="http://www.w3.org/2000/svg" xmlns:xlink="http://www.w3.org/1999/xlink">
<g id="graph0" class="graph" transform="scale(1 1) rotate(0) translate(4 288)">
<title>View::CityScape</title>
<polygon fill="white" stroke="none" points="-4,4 -4,-288 177,-288 177,4 -4,4"/>
<!-- Node0 -->
<g id="node1" class="node"><title>Node0</title>
<polygon fill="#bfbfbf" stroke="black" points="0,-0.5 0,-189.5 173,-189.5 173,-0.5 0,-0.5"/>
<text text-anchor="middle" x="86.5" y="-177.5" font-family="Helvetica,sans-Serif" font-size="10.00">View::CityScape</text>
<polyline fill="none" stroke="black" points="0,-170.5 173,-170.5 "/>
<text text-anchor="start" x="8" y="-158.5" font-family="Helvetica,sans-Serif" font-size="10.00">&#45; backgroundImage_</text>
<text text-anchor="start" x="8" y="-147.5" font-family="Helvetica,sans-Serif" font-size="10.00">&#45; parkingHalls_</text>
<text text-anchor="start" x="8" y="-136.5" font-family="Helvetica,sans-Serif" font-size="10.00">&#45; selectedParkingHall_</text>
<text text-anchor="start" x="8" y="-125.5" font-family="Helvetica,sans-Serif" font-size="10.00">&#45; cityImageX_</text>
<text text-anchor="start" x="8" y="-114.5" font-family="Helvetica,sans-Serif" font-size="10.00">&#45; cityImageY_</text>
<polyline fill="none" stroke="black" points="0,-107.5 173,-107.5 "/>
<text text-anchor="start" x="8" y="-95.5" font-family="Helvetica,sans-Serif" font-size="10.00">+ CityScape()</text>
<text text-anchor="start" x="8" y="-84.5" font-family="Helvetica,sans-Serif" font-size="10.00">+ ~CityScape()</text>
<text text-anchor="start" x="8" y="-73.5" font-family="Helvetica,sans-Serif" font-size="10.00">+ initCityScape()</text>
<text text-anchor="start" x="8" y="-62.5" font-family="Helvetica,sans-Serif" font-size="10.00">+ addParkingHalls()</text>
<text text-anchor="start" x="8" y="-51.5" font-family="Helvetica,sans-Serif" font-size="10.00">+ updateParkingHall()</text>
<text text-anchor="start" x="8" y="-40.5" font-family="Helvetica,sans-Serif" font-size="10.00">+ resizeMap()</text>
<text text-anchor="start" x="8" y="-29.5" font-family="Helvetica,sans-Serif" font-size="10.00">+ parkingHallInformationRequested()</text>
<text text-anchor="start" x="8" y="-18.5" font-family="Helvetica,sans-Serif" font-size="10.00">+ parkingHallSelectRequested()</text>
<text text-anchor="start" x="8" y="-7.5" font-family="Helvetica,sans-Serif" font-size="10.00">+ missionSelectRequested()</text>
</g>
<!-- Node1 -->
<g id="node2" class="node"><title>Node1</title>
<g id="a_node2"><a xlink:href="class_q_graphics_scene.html" target="_top" xlink:title="{QGraphicsScene\n||}">
<polygon fill="white" stroke="black" points="41,-226.5 41,-283.5 132,-283.5 132,-226.5 41,-226.5"/>
<text text-anchor="middle" x="86.5" y="-271.5" font-family="Helvetica,sans-Serif" font-size="10.00">QGraphicsScene</text>
<polyline fill="none" stroke="black" points="41,-264.5 132,-264.5 "/>
<text text-anchor="middle" x="86.5" y="-252.5" font-family="Helvetica,sans-Serif" font-size="10.00"> </text>
<polyline fill="none" stroke="black" points="41,-245.5 132,-245.5 "/>
<text text-anchor="middle" x="86.5" y="-233.5" font-family="Helvetica,sans-Serif" font-size="10.00"> </text>
</a>
</g>
</g>
<!-- Node1&#45;&gt;Node0 -->
<g id="edge1" class="edge"><title>Node1&#45;&gt;Node0</title>
<path fill="none" stroke="midnightblue" d="M86.5,-216.215C86.5,-208.012 86.5,-198.986 86.5,-189.678"/>
<polygon fill="none" stroke="midnightblue" points="83.0001,-216.478 86.5,-226.479 90.0001,-216.479 83.0001,-216.478"/>
</g>
</g>
</svg>
