<?xml version="1.0" encoding="UTF-8" standalone="no"?>
<!DOCTYPE svg PUBLIC "-//W3C//DTD SVG 1.1//EN"
 "http://www.w3.org/Graphics/SVG/1.1/DTD/svg11.dtd">
<!-- Generated by graphviz version 2.38.0 (20140413.2041)
 -->
<!-- Title: View::ActionSceneNPC Pages: 1 -->
<!--zoomable 496 -->
<svg id="main" version="1.1" xmlns="http://www.w3.org/2000/svg" xmlns:xlink="http://www.w3.org/1999/xlink" xml:space="preserve" onload="init(evt)">
<style type="text/css"><![CDATA[
.edge:hover path { stroke: red; }
.edge:hover polygon { stroke: red; fill: red; }
]]></style>
<script type="text/javascript"><![CDATA[
var edges = document.getElementsByTagName('g');
if (edges && edges.length) {
  for (var i=0;i<edges.length;i++) {
    if (edges[i].id.substr(0,4)=='edge') {
      edges[i].setAttribute('class','edge');
    }
  }
}
]]></script>
        <defs>
                <circle id="rim" cx="0" cy="0" r="7"/>
                <circle id="rim2" cx="0" cy="0" r="3.5"/>
                <g id="zoomPlus">
                        <use xlink:href="#rim" fill="#404040">
                                <set attributeName="fill" to="#808080" begin="zoomplus.mouseover" end="zoomplus.mouseout"/>
                        </use>
                        <path d="M-4,0h8M0,-4v8" fill="none" stroke="white" stroke-width="1.5" pointer-events="none"/>
                </g>
                <g id="zoomMin">
                        <use xlink:href="#rim" fill="#404040">
                                <set attributeName="fill" to="#808080" begin="zoomminus.mouseover" end="zoomminus.mouseout"/>
                        </use>
                        <path d="M-4,0h8" fill="none" stroke="white" stroke-width="1.5" pointer-events="none"/>
                </g>
                <g id="dirArrow">
                        <path fill="none" stroke="white" stroke-width="1.5" d="M0,-3.0v7 M-2.5,-0.5L0,-3.0L2.5,-0.5"/>
                </g>
               <g id="resetDef">
                       <use xlink:href="#rim2" fill="#404040">
                               <set attributeName="fill" to="#808080" begin="reset.mouseover" end="reset.mouseout"/>
                       </use>
               </g>
        </defs>

<script type="text/javascript">
var viewWidth = 833;
var viewHeight = 496;
var sectionId = 'dynsection-1';
</script>
<script xlink:href="svgpan.js"/>
<svg id="graph" class="graph">
<g id="viewport">
<title>View::ActionSceneNPC</title>
<polygon fill="white" stroke="none" points="-4,4 -4,-492 828.5,-492 828.5,4 -4,4"/>
<!-- Node3 -->
<g id="node1" class="node"><title>Node3</title>
<polygon fill="#bfbfbf" stroke="black" points="438,-0.5 438,-200.5 557,-200.5 557,-0.5 438,-0.5"/>
<text text-anchor="middle" x="497.5" y="-188.5" font-family="Helvetica,sans-Serif" font-size="10.00">View::ActionSceneNPC</text>
<polyline fill="none" stroke="black" points="438,-181.5 557,-181.5 "/>
<text text-anchor="middle" x="497.5" y="-169.5" font-family="Helvetica,sans-Serif" font-size="10.00"> </text>
<polyline fill="none" stroke="black" points="438,-162.5 557,-162.5 "/>
<text text-anchor="start" x="446" y="-150.5" font-family="Helvetica,sans-Serif" font-size="10.00">+ ActionSceneNPC()</text>
<text text-anchor="start" x="446" y="-139.5" font-family="Helvetica,sans-Serif" font-size="10.00">+ ~ActionSceneNPC()</text>
<text text-anchor="start" x="446" y="-128.5" font-family="Helvetica,sans-Serif" font-size="10.00">+ getX()</text>
<text text-anchor="start" x="446" y="-117.5" font-family="Helvetica,sans-Serif" font-size="10.00">+ getY()</text>
<text text-anchor="start" x="446" y="-106.5" font-family="Helvetica,sans-Serif" font-size="10.00">+ moveToPoint()</text>
<text text-anchor="start" x="446" y="-95.5" font-family="Helvetica,sans-Serif" font-size="10.00">+ addFeet()</text>
<text text-anchor="start" x="446" y="-84.5" font-family="Helvetica,sans-Serif" font-size="10.00">+ rotateFeet()</text>
<text text-anchor="start" x="446" y="-73.5" font-family="Helvetica,sans-Serif" font-size="10.00">+ removeFeet()</text>
<text text-anchor="start" x="446" y="-62.5" font-family="Helvetica,sans-Serif" font-size="10.00">+ setDead()</text>
<text text-anchor="start" x="446" y="-51.5" font-family="Helvetica,sans-Serif" font-size="10.00">+ setRunSpeed()</text>
<text text-anchor="start" x="446" y="-40.5" font-family="Helvetica,sans-Serif" font-size="10.00">and 7 more...</text>
<text text-anchor="start" x="446" y="-29.5" font-family="Helvetica,sans-Serif" font-size="10.00">+ step()</text>
<text text-anchor="start" x="446" y="-18.5" font-family="Helvetica,sans-Serif" font-size="10.00">+ aiAction()</text>
<text text-anchor="start" x="446" y="-7.5" font-family="Helvetica,sans-Serif" font-size="10.00">+ unleashEnemy()</text>
</g>
<!-- Node4 -->
<g id="node2" class="node"><title>Node4</title>
<g id="a_node2"><a xlink:href="class_q_object.html" target="_top" xlink:title="{QObject\n||}">
<polygon fill="white" stroke="black" points="47,-292.5 47,-349.5 100,-349.5 100,-292.5 47,-292.5"/>
<text text-anchor="middle" x="73.5" y="-337.5" font-family="Helvetica,sans-Serif" font-size="10.00">QObject</text>
<polyline fill="none" stroke="black" points="47,-330.5 100,-330.5 "/>
<text text-anchor="middle" x="73.5" y="-318.5" font-family="Helvetica,sans-Serif" font-size="10.00"> </text>
<polyline fill="none" stroke="black" points="47,-311.5 100,-311.5 "/>
<text text-anchor="middle" x="73.5" y="-299.5" font-family="Helvetica,sans-Serif" font-size="10.00"> </text>
</a>
</g>
</g>
<!-- Node4&#45;&gt;Node3 -->
<g id="edge1" class="edge"><title>Node4&#45;&gt;Node3</title>
<path fill="none" stroke="midnightblue" d="M80.4009,-282.508C86.1473,-261.199 96.4269,-235.55 114.5,-219 205.805,-135.391 355.304,-111.244 437.929,-104.292"/>
<polygon fill="none" stroke="midnightblue" points="76.9942,-281.705 77.999,-292.252 83.7907,-283.38 76.9942,-281.705"/>
</g>
<!-- Node5 -->
<g id="node3" class="node"><title>Node5</title>
<g id="a_node3"><a xlink:href="class_q_graphics_pixmap_item.html" target="_top" xlink:title="{QGraphicsPixmapItem\n||}">
<polygon fill="white" stroke="black" points="0,-430.5 0,-487.5 115,-487.5 115,-430.5 0,-430.5"/>
<text text-anchor="middle" x="57.5" y="-475.5" font-family="Helvetica,sans-Serif" font-size="10.00">QGraphicsPixmapItem</text>
<polyline fill="none" stroke="black" points="0,-468.5 115,-468.5 "/>
<text text-anchor="middle" x="57.5" y="-456.5" font-family="Helvetica,sans-Serif" font-size="10.00"> </text>
<polyline fill="none" stroke="black" points="0,-449.5 115,-449.5 "/>
<text text-anchor="middle" x="57.5" y="-437.5" font-family="Helvetica,sans-Serif" font-size="10.00"> </text>
</a>
</g>
</g>
<!-- Node5&#45;&gt;Node3 -->
<g id="edge2" class="edge"><title>Node5&#45;&gt;Node3</title>
<path fill="none" stroke="midnightblue" d="M78.9597,-421.825C104.375,-381.199 149.834,-315.071 201.5,-270 274.243,-206.541 374.581,-155.496 437.737,-126.838"/>
<polygon fill="none" stroke="midnightblue" points="75.9784,-419.991 73.6945,-430.337 81.9316,-423.674 75.9784,-419.991"/>
</g>
<!-- Node9 -->
<g id="node7" class="node"><title>Node9</title>
<g id="a_node7"><a xlink:href="class_view_1_1_action_scene_feet.html" target="_top" xlink:title="{View::ActionSceneFeet\n||+ ActionSceneFeet()\l+ ~ActionSceneFeet()\l+ setPosition()\l+ setRunning()\l+ nextFrame()\l}">
<polygon fill="white" stroke="black" points="211,-270.5 211,-371.5 330,-371.5 330,-270.5 211,-270.5"/>
<text text-anchor="middle" x="270.5" y="-359.5" font-family="Helvetica,sans-Serif" font-size="10.00">View::ActionSceneFeet</text>
<polyline fill="none" stroke="black" points="211,-352.5 330,-352.5 "/>
<text text-anchor="middle" x="270.5" y="-340.5" font-family="Helvetica,sans-Serif" font-size="10.00"> </text>
<polyline fill="none" stroke="black" points="211,-333.5 330,-333.5 "/>
<text text-anchor="start" x="219" y="-321.5" font-family="Helvetica,sans-Serif" font-size="10.00">+ ActionSceneFeet()</text>
<text text-anchor="start" x="219" y="-310.5" font-family="Helvetica,sans-Serif" font-size="10.00">+ ~ActionSceneFeet()</text>
<text text-anchor="start" x="219" y="-299.5" font-family="Helvetica,sans-Serif" font-size="10.00">+ setPosition()</text>
<text text-anchor="start" x="219" y="-288.5" font-family="Helvetica,sans-Serif" font-size="10.00">+ setRunning()</text>
<text text-anchor="start" x="219" y="-277.5" font-family="Helvetica,sans-Serif" font-size="10.00">+ nextFrame()</text>
</a>
</g>
</g>
<!-- Node5&#45;&gt;Node9 -->
<g id="edge7" class="edge"><title>Node5&#45;&gt;Node9</title>
<path fill="none" stroke="midnightblue" d="M117.105,-425.402C124.704,-421.001 132.328,-416.463 139.5,-412 163.28,-397.204 188.796,-379.993 210.934,-364.607"/>
<polygon fill="none" stroke="midnightblue" points="115.16,-422.482 108.225,-430.492 118.641,-428.556 115.16,-422.482"/>
</g>
<!-- Node6 -->
<g id="node4" class="node"><title>Node6</title>
<polygon fill="white" stroke="#bfbfbf" points="484,-292.5 484,-349.5 529,-349.5 529,-292.5 484,-292.5"/>
<text text-anchor="middle" x="506.5" y="-337.5" font-family="Helvetica,sans-Serif" font-size="10.00">double</text>
<polyline fill="none" stroke="#bfbfbf" points="484,-330.5 529,-330.5 "/>
<text text-anchor="middle" x="506.5" y="-318.5" font-family="Helvetica,sans-Serif" font-size="10.00"> </text>
<polyline fill="none" stroke="#bfbfbf" points="484,-311.5 529,-311.5 "/>
<text text-anchor="middle" x="506.5" y="-299.5" font-family="Helvetica,sans-Serif" font-size="10.00"> </text>
</g>
<!-- Node6&#45;&gt;Node3 -->
<g id="edge3" class="edge"><title>Node6&#45;&gt;Node3</title>
<path fill="none" stroke="#404040" d="M502.535,-292.271C500.957,-279.965 499.323,-265.288 498.5,-252 497.714,-239.321 497.191,-226.03 496.859,-212.816"/>
<polygon fill="none" stroke="#404040" points="496.857,-212.721 492.732,-206.806 496.606,-200.723 500.73,-206.638 496.857,-212.721"/>
<text text-anchor="middle" x="523.5" y="-244" font-family="Helvetica,sans-Serif" font-size="10.00"> &#45;stepSize_</text>
<text text-anchor="middle" x="523.5" y="-233" font-family="Helvetica,sans-Serif" font-size="10.00">&#45;dy_</text>
<text text-anchor="middle" x="523.5" y="-222" font-family="Helvetica,sans-Serif" font-size="10.00">&#45;dx_</text>
</g>
<!-- Node7 -->
<g id="node5" class="node"><title>Node7</title>
<polygon fill="white" stroke="#bfbfbf" points="547,-292.5 547,-349.5 600,-349.5 600,-292.5 547,-292.5"/>
<text text-anchor="middle" x="573.5" y="-337.5" font-family="Helvetica,sans-Serif" font-size="10.00">QPointF</text>
<polyline fill="none" stroke="#bfbfbf" points="547,-330.5 600,-330.5 "/>
<text text-anchor="middle" x="573.5" y="-318.5" font-family="Helvetica,sans-Serif" font-size="10.00"> </text>
<polyline fill="none" stroke="#bfbfbf" points="547,-311.5 600,-311.5 "/>
<text text-anchor="middle" x="573.5" y="-299.5" font-family="Helvetica,sans-Serif" font-size="10.00"> </text>
</g>
<!-- Node7&#45;&gt;Node3 -->
<g id="edge4" class="edge"><title>Node7&#45;&gt;Node3</title>
<path fill="none" stroke="#404040" d="M567.931,-292.208C563.51,-271.717 556.717,-243.299 548.5,-219 547.739,-216.749 546.952,-214.48 546.144,-212.201"/>
<polygon fill="none" stroke="#404040" points="546.069,-211.996 540.246,-207.742 541.935,-200.731 547.757,-204.986 546.069,-211.996"/>
<text text-anchor="middle" x="586" y="-233" font-family="Helvetica,sans-Serif" font-size="10.00"> &#45;moveDest_</text>
</g>
<!-- Node8 -->
<g id="node6" class="node"><title>Node8</title>
<polygon fill="white" stroke="#bfbfbf" points="622.5,-292.5 622.5,-349.5 672.5,-349.5 672.5,-292.5 622.5,-292.5"/>
<text text-anchor="middle" x="647.5" y="-337.5" font-family="Helvetica,sans-Serif" font-size="10.00">QString</text>
<polyline fill="none" stroke="#bfbfbf" points="622.5,-330.5 672.5,-330.5 "/>
<text text-anchor="middle" x="647.5" y="-318.5" font-family="Helvetica,sans-Serif" font-size="10.00"> </text>
<polyline fill="none" stroke="#bfbfbf" points="622.5,-311.5 672.5,-311.5 "/>
<text text-anchor="middle" x="647.5" y="-299.5" font-family="Helvetica,sans-Serif" font-size="10.00"> </text>
</g>
<!-- Node8&#45;&gt;Node3 -->
<g id="edge5" class="edge"><title>Node8&#45;&gt;Node3</title>
<path fill="none" stroke="#404040" d="M643.192,-292.314C638.996,-271.103 631.189,-241.717 617.5,-219 603.859,-196.363 584.833,-175.025 565.946,-156.905"/>
<polygon fill="none" stroke="#404040" points="565.771,-156.74 558.656,-155.565 557.005,-148.545 564.12,-149.721 565.771,-156.74"/>
<text text-anchor="middle" x="654" y="-233" font-family="Helvetica,sans-Serif" font-size="10.00"> &#45;aiMode_</text>
</g>
<!-- Node9&#45;&gt;Node3 -->
<g id="edge6" class="edge"><title>Node9&#45;&gt;Node3</title>
<path fill="none" stroke="#404040" d="M322.01,-270.419C353.591,-240.021 394.408,-200.732 428.729,-167.696"/>
<polygon fill="none" stroke="#404040" points="429.118,-167.322 430.667,-160.279 437.763,-159 436.215,-166.043 429.118,-167.322"/>
<text text-anchor="middle" x="384.5" y="-233" font-family="Helvetica,sans-Serif" font-size="10.00"> &#45;feet_</text>
</g>
<!-- Node10 -->
<g id="node8" class="node"><title>Node10</title>
<polygon fill="white" stroke="#bfbfbf" points="258,-430.5 258,-487.5 287,-487.5 287,-430.5 258,-430.5"/>
<text text-anchor="middle" x="272.5" y="-475.5" font-family="Helvetica,sans-Serif" font-size="10.00">int</text>
<polyline fill="none" stroke="#bfbfbf" points="258,-468.5 287,-468.5 "/>
<text text-anchor="middle" x="272.5" y="-456.5" font-family="Helvetica,sans-Serif" font-size="10.00"> </text>
<polyline fill="none" stroke="#bfbfbf" points="258,-449.5 287,-449.5 "/>
<text text-anchor="middle" x="272.5" y="-437.5" font-family="Helvetica,sans-Serif" font-size="10.00"> </text>
</g>
<!-- Node10&#45;&gt;Node9 -->
<g id="edge8" class="edge"><title>Node10&#45;&gt;Node9</title>
<path fill="none" stroke="#404040" d="M271.85,-430.271C271.722,-424.247 271.597,-417.91 271.5,-412 271.35,-402.875 271.217,-393.229 271.1,-383.774"/>
<polygon fill="none" stroke="#404040" points="271.097,-383.515 267.027,-377.563 270.956,-371.516 275.026,-377.469 271.097,-383.515"/>
<text text-anchor="middle" x="306.5" y="-398.5" font-family="Helvetica,sans-Serif" font-size="10.00"> &#45;frameCounter_</text>
</g>
<!-- Node11 -->
<g id="node9" class="node"><title>Node11</title>
<polygon fill="white" stroke="#bfbfbf" points="375,-430.5 375,-487.5 410,-487.5 410,-430.5 375,-430.5"/>
<text text-anchor="middle" x="392.5" y="-475.5" font-family="Helvetica,sans-Serif" font-size="10.00">bool</text>
<polyline fill="none" stroke="#bfbfbf" points="375,-468.5 410,-468.5 "/>
<text text-anchor="middle" x="392.5" y="-456.5" font-family="Helvetica,sans-Serif" font-size="10.00"> </text>
<polyline fill="none" stroke="#bfbfbf" points="375,-449.5 410,-449.5 "/>
<text text-anchor="middle" x="392.5" y="-437.5" font-family="Helvetica,sans-Serif" font-size="10.00"> </text>
</g>
<!-- Node11&#45;&gt;Node3 -->
<g id="edge12" class="edge"><title>Node11&#45;&gt;Node3</title>
<path fill="none" stroke="#404040" d="M401.518,-430.426C403.315,-424.393 405.083,-418.013 406.5,-412 421.181,-349.7 413.246,-331.637 430.5,-270 435.831,-250.956 442.58,-231.112 449.73,-212.008"/>
<polygon fill="none" stroke="#404040" points="449.827,-211.754 448.226,-204.723 454.101,-200.541 455.702,-207.572 449.827,-211.754"/>
<text text-anchor="middle" x="452.5" y="-335" font-family="Helvetica,sans-Serif" font-size="10.00"> &#45;moving_</text>
<text text-anchor="middle" x="452.5" y="-324" font-family="Helvetica,sans-Serif" font-size="10.00">&#45;dead_</text>
<text text-anchor="middle" x="452.5" y="-313" font-family="Helvetica,sans-Serif" font-size="10.00">&#45;run_</text>
<text text-anchor="middle" x="452.5" y="-302" font-family="Helvetica,sans-Serif" font-size="10.00">&#45;inScene_</text>
</g>
<!-- Node11&#45;&gt;Node9 -->
<g id="edge9" class="edge"><title>Node11&#45;&gt;Node9</title>
<path fill="none" stroke="#404040" d="M374.792,-432.362C365.385,-419.285 353.344,-403.362 341.5,-390 338.698,-386.839 335.774,-383.653 332.778,-380.478"/>
<polygon fill="none" stroke="#404040" points="332.523,-380.213 325.477,-378.677 324.185,-371.583 331.231,-373.119 332.523,-380.213"/>
<text text-anchor="middle" x="381" y="-398.5" font-family="Helvetica,sans-Serif" font-size="10.00"> &#45;running_</text>
</g>
<!-- Node12 -->
<g id="node10" class="node"><title>Node12</title>
<polygon fill="white" stroke="#bfbfbf" points="133,-430.5 133,-487.5 240,-487.5 240,-430.5 133,-430.5"/>
<text text-anchor="middle" x="186.5" y="-475.5" font-family="Helvetica,sans-Serif" font-size="10.00">vector&lt; QPixmap * &gt;</text>
<polyline fill="none" stroke="#bfbfbf" points="133,-468.5 240,-468.5 "/>
<text text-anchor="middle" x="186.5" y="-456.5" font-family="Helvetica,sans-Serif" font-size="10.00"> </text>
<polyline fill="none" stroke="#bfbfbf" points="133,-449.5 240,-449.5 "/>
<text text-anchor="middle" x="186.5" y="-437.5" font-family="Helvetica,sans-Serif" font-size="10.00"> </text>
</g>
<!-- Node12&#45;&gt;Node9 -->
<g id="edge10" class="edge"><title>Node12&#45;&gt;Node9</title>
<path fill="none" stroke="#404040" d="M191.532,-430.344C194.628,-417.506 199.4,-402.384 206.5,-390 208.144,-387.132 209.933,-384.29 211.832,-381.487"/>
<polygon fill="none" stroke="#404040" points="212.034,-381.212 212.358,-374.008 219.132,-371.537 218.808,-378.741 212.034,-381.212"/>
<text text-anchor="middle" x="237" y="-404" font-family="Helvetica,sans-Serif" font-size="10.00"> &#45;runFrames_</text>
<text text-anchor="middle" x="237" y="-393" font-family="Helvetica,sans-Serif" font-size="10.00">&#45;walkFrames_</text>
</g>
<!-- Node13 -->
<g id="node11" class="node"><title>Node13</title>
<polygon fill="white" stroke="#bfbfbf" points="691,-292.5 691,-349.5 746,-349.5 746,-292.5 691,-292.5"/>
<text text-anchor="middle" x="718.5" y="-337.5" font-family="Helvetica,sans-Serif" font-size="10.00">QTimer *</text>
<polyline fill="none" stroke="#bfbfbf" points="691,-330.5 746,-330.5 "/>
<text text-anchor="middle" x="718.5" y="-318.5" font-family="Helvetica,sans-Serif" font-size="10.00"> </text>
<polyline fill="none" stroke="#bfbfbf" points="691,-311.5 746,-311.5 "/>
<text text-anchor="middle" x="718.5" y="-299.5" font-family="Helvetica,sans-Serif" font-size="10.00"> </text>
</g>
<!-- Node13&#45;&gt;Node3 -->
<g id="edge11" class="edge"><title>Node13&#45;&gt;Node3</title>
<path fill="none" stroke="#404040" d="M712.794,-292.318C707.21,-270.554 696.939,-240.433 679.5,-219 649.794,-182.491 605.638,-153.597 568.259,-133.598"/>
<polygon fill="none" stroke="#404040" points="568.047,-133.487 560.877,-134.258 557.408,-127.937 564.578,-127.166 568.047,-133.487"/>
<text text-anchor="middle" x="733" y="-244" font-family="Helvetica,sans-Serif" font-size="10.00"> &#45;moveTimer_</text>
<text text-anchor="middle" x="733" y="-233" font-family="Helvetica,sans-Serif" font-size="10.00">&#45;unleashTimer_</text>
<text text-anchor="middle" x="733" y="-222" font-family="Helvetica,sans-Serif" font-size="10.00">&#45;aiTimer_</text>
</g>
<!-- Node14 -->
<g id="node12" class="node"><title>Node14</title>
<polygon fill="white" stroke="#bfbfbf" points="790.5,-292.5 790.5,-349.5 822.5,-349.5 822.5,-292.5 790.5,-292.5"/>
<text text-anchor="middle" x="806.5" y="-337.5" font-family="Helvetica,sans-Serif" font-size="10.00">uint</text>
<polyline fill="none" stroke="#bfbfbf" points="790.5,-330.5 822.5,-330.5 "/>
<text text-anchor="middle" x="806.5" y="-318.5" font-family="Helvetica,sans-Serif" font-size="10.00"> </text>
<polyline fill="none" stroke="#bfbfbf" points="790.5,-311.5 822.5,-311.5 "/>
<text text-anchor="middle" x="806.5" y="-299.5" font-family="Helvetica,sans-Serif" font-size="10.00"> </text>
</g>
<!-- Node14&#45;&gt;Node3 -->
<g id="edge13" class="edge"><title>Node14&#45;&gt;Node3</title>
<path fill="none" stroke="#404040" d="M802.835,-292.419C798.557,-270.126 789.475,-239.231 770.5,-219 716.723,-161.664 630.272,-130.958 569.079,-115.491"/>
<polygon fill="none" stroke="#404040" points="568.854,-115.437 562.078,-117.904 557.194,-112.598 563.97,-110.131 568.854,-115.437"/>
<text text-anchor="middle" x="807.5" y="-238.5" font-family="Helvetica,sans-Serif" font-size="10.00"> &#45;id_</text>
<text text-anchor="middle" x="807.5" y="-227.5" font-family="Helvetica,sans-Serif" font-size="10.00">&#45;target_</text>
</g>
</g>
</svg>
        <g id="navigator" transform="translate(0 0)" fill="#404254">
                <rect fill="#f2f5e9" fill-opacity="0.5" stroke="#606060" stroke-width=".5" x="0" y="0" width="60" height="60"/>
                <use id="zoomplus" xlink:href="#zoomPlus" x="17" y="9" onmousedown="handleZoom(evt,'in')"/>
                <use id="zoomminus" xlink:href="#zoomMin" x="42" y="9" onmousedown="handleZoom(evt,'out')"/>
                <use id="reset" xlink:href="#resetDef" x="30" y="36" onmousedown="handleReset()"/>
                <g id="arrowUp" xlink:href="#dirArrow" transform="translate(30 24)" onmousedown="handlePan(0,-1)">
                  <use xlink:href="#rim" fill="#404040">
                        <set attributeName="fill" to="#808080" begin="arrowUp.mouseover" end="arrowUp.mouseout"/>
                  </use>
                  <path fill="none" stroke="white" stroke-width="1.5" d="M0,-3.0v7 M-2.5,-0.5L0,-3.0L2.5,-0.5"/>
                </g>
                <g id="arrowRight" xlink:href="#dirArrow" transform="rotate(90) translate(36 -43)" onmousedown="handlePan(1,0)">
                  <use xlink:href="#rim" fill="#404040">
                        <set attributeName="fill" to="#808080" begin="arrowRight.mouseover" end="arrowRight.mouseout"/>
                  </use>
                  <path fill="none" stroke="white" stroke-width="1.5" d="M0,-3.0v7 M-2.5,-0.5L0,-3.0L2.5,-0.5"/>
                </g>
                <g id="arrowDown" xlink:href="#dirArrow" transform="rotate(180) translate(-30 -48)" onmousedown="handlePan(0,1)">
                  <use xlink:href="#rim" fill="#404040">
                        <set attributeName="fill" to="#808080" begin="arrowDown.mouseover" end="arrowDown.mouseout"/>
                  </use>
                  <path fill="none" stroke="white" stroke-width="1.5" d="M0,-3.0v7 M-2.5,-0.5L0,-3.0L2.5,-0.5"/>
                </g>
                <g id="arrowLeft" xlink:href="#dirArrow" transform="rotate(270) translate(-36 17)" onmousedown="handlePan(-1,0)">
                  <use xlink:href="#rim" fill="#404040">
                        <set attributeName="fill" to="#808080" begin="arrowLeft.mouseover" end="arrowLeft.mouseout"/>
                  </use>
                  <path fill="none" stroke="white" stroke-width="1.5" d="M0,-3.0v7 M-2.5,-0.5L0,-3.0L2.5,-0.5"/>
                </g>
        </g>
        <svg viewBox="0 0 15 15" width="100%" height="30px" preserveAspectRatio="xMaxYMin meet">
         <g id="arrow_out" transform="scale(0.3 0.3)">
          <a xlink:href="class_view_1_1_action_scene_n_p_c__coll__graph_org.svg" target="_base">
           <rect id="button" ry="5" rx="5" y="6" x="6" height="38" width="38"
                fill="#f2f5e9" fill-opacity="0.5" stroke="#606060" stroke-width="1.0"/>
           <path id="arrow"
             d="M 11.500037,31.436501 C 11.940474,20.09759 22.043105,11.32322 32.158766,21.979434 L 37.068811,17.246167 C 37.068811,17.246167 37.088388,32 37.088388,32 L 22.160133,31.978069 C 22.160133,31.978069 26.997745,27.140456 26.997745,27.140456 C 18.528582,18.264221 13.291696,25.230495 11.500037,31.436501 z"
             style="fill:#404040;"/>
          </a>
         </g>
        </svg>
</svg>
