<?xml version="1.0" encoding="UTF-8" standalone="no"?>
<!DOCTYPE svg PUBLIC "-//W3C//DTD SVG 1.1//EN"
 "http://www.w3.org/Graphics/SVG/1.1/DTD/svg11.dtd">
<!-- Generated by graphviz version 2.38.0 (20140413.2041)
 -->
<!-- Title: Interface::EquipmentInterface::getPrice Pages: 1 -->
<svg width="370pt" height="66pt"
 viewBox="0.00 0.00 370.00 66.00" xmlns="http://www.w3.org/2000/svg" xmlns:xlink="http://www.w3.org/1999/xlink">
<g id="graph0" class="graph" transform="scale(1 1) rotate(0) translate(4 62)">
<title>Interface::EquipmentInterface::getPrice</title>
<polygon fill="white" stroke="none" points="-4,4 -4,-62 366,-62 366,4 -4,4"/>
<!-- Node30 -->
<g id="node1" class="node"><title>Node30</title>
<polygon fill="#bfbfbf" stroke="black" points="0,-14 0,-44 143,-44 143,-14 0,-14"/>
<text text-anchor="start" x="8" y="-32" font-family="Helvetica,sans-Serif" font-size="10.00">Interface::EquipmentInterface</text>
<text text-anchor="middle" x="71.5" y="-21" font-family="Helvetica,sans-Serif" font-size="10.00">::getPrice</text>
</g>
<!-- Node31 -->
<g id="node2" class="node"><title>Node31</title>
<g id="a_node2"><a xlink:href="class_model_1_1_model.html#a75dfb78e7b2f94c3fcd64f8bf1134b52" target="_top" xlink:title="Model::Model::calculateAdditionalCost">
<polygon fill="white" stroke="black" points="179,-38.5 179,-57.5 362,-57.5 362,-38.5 179,-38.5"/>
<text text-anchor="middle" x="270.5" y="-45.5" font-family="Helvetica,sans-Serif" font-size="10.00">Model::Model::calculateAdditionalCost</text>
</a>
</g>
</g>
<!-- Node30&#45;&gt;Node31 -->
<g id="edge1" class="edge"><title>Node30&#45;&gt;Node31</title>
<path fill="none" stroke="midnightblue" d="M153.242,-36.7873C161.672,-37.6003 170.281,-38.4307 178.812,-39.2535"/>
<polygon fill="midnightblue" stroke="midnightblue" points="153.355,-33.282 143.065,-35.8058 152.683,-40.2497 153.355,-33.282"/>
</g>
<!-- Node32 -->
<g id="node3" class="node"><title>Node32</title>
<g id="a_node3"><a xlink:href="class_model_1_1_model.html#aad175b8da07e96f096661ed7419d4890" target="_top" xlink:title="sellEquipment myy tavaran joko pelaajalta tai cyberteekkarilta. Vain aseet kelpaavat myytäväksi...">
<polygon fill="white" stroke="black" points="199,-0.5 199,-19.5 342,-19.5 342,-0.5 199,-0.5"/>
<text text-anchor="middle" x="270.5" y="-7.5" font-family="Helvetica,sans-Serif" font-size="10.00">Model::Model::sellEquipment</text>
</a>
</g>
</g>
<!-- Node30&#45;&gt;Node32 -->
<g id="edge2" class="edge"><title>Node30&#45;&gt;Node32</title>
<path fill="none" stroke="midnightblue" d="M153.377,-21.1997C168.428,-19.748 184.047,-18.2416 198.765,-16.8221"/>
<polygon fill="midnightblue" stroke="midnightblue" points="152.683,-17.7503 143.065,-22.1942 153.355,-24.718 152.683,-17.7503"/>
</g>
</g>
</svg>
