<?xml version="1.0" encoding="UTF-8" standalone="no"?>
<!DOCTYPE svg PUBLIC "-//W3C//DTD SVG 1.1//EN"
 "http://www.w3.org/Graphics/SVG/1.1/DTD/svg11.dtd">
<!-- Generated by graphviz version 2.38.0 (20140413.2041)
 -->
<!-- Title: Model::Player::getStat Pages: 1 -->
<svg width="301pt" height="225pt"
 viewBox="0.00 0.00 301.00 224.50" xmlns="http://www.w3.org/2000/svg" xmlns:xlink="http://www.w3.org/1999/xlink">
<g id="graph0" class="graph" transform="scale(1 1) rotate(0) translate(4 220.5)">
<title>Model::Player::getStat</title>
<polygon fill="white" stroke="none" points="-4,4 -4,-220.5 297,-220.5 297,4 -4,4"/>
<!-- Node19 -->
<g id="node1" class="node"><title>Node19</title>
<polygon fill="#bfbfbf" stroke="black" points="0,-93.5 0,-112.5 114,-112.5 114,-93.5 0,-93.5"/>
<text text-anchor="middle" x="57" y="-100.5" font-family="Helvetica,sans-Serif" font-size="10.00">Model::Player::getStat</text>
</g>
<!-- Node20 -->
<g id="node2" class="node"><title>Node20</title>
<g id="a_node2"><a xlink:href="class_interface_1_1_equipment_interface.html#ab0320958208820b425f52c97eadf2ab0" target="_top" xlink:title="getAccuracy palauttaa equipmentin ampumisnopeuden. ">
<polygon fill="white" stroke="black" points="150,-186 150,-216 293,-216 293,-186 150,-186"/>
<text text-anchor="start" x="158" y="-204" font-family="Helvetica,sans-Serif" font-size="10.00">Interface::EquipmentInterface</text>
<text text-anchor="middle" x="221.5" y="-193" font-family="Helvetica,sans-Serif" font-size="10.00">::getAccuracy</text>
</a>
</g>
</g>
<!-- Node19&#45;&gt;Node20 -->
<g id="edge1" class="edge"><title>Node19&#45;&gt;Node20</title>
<path fill="none" stroke="midnightblue" d="M67.6367,-112.702C83.5231,-128.22 116.771,-158.728 150,-177 153.096,-178.703 156.335,-180.315 159.65,-181.837"/>
<polygon fill="midnightblue" stroke="midnightblue" points="158.57,-185.182 169.141,-185.889 161.318,-178.744 158.57,-185.182"/>
</g>
<!-- Node21 -->
<g id="node3" class="node"><title>Node21</title>
<g id="a_node3"><a xlink:href="class_interface_1_1_equipment_interface.html#afb616d9719d5934118696d81a84a21d5" target="_top" xlink:title="getDamage ">
<polygon fill="white" stroke="black" points="150,-137 150,-167 293,-167 293,-137 150,-137"/>
<text text-anchor="start" x="158" y="-155" font-family="Helvetica,sans-Serif" font-size="10.00">Interface::EquipmentInterface</text>
<text text-anchor="middle" x="221.5" y="-144" font-family="Helvetica,sans-Serif" font-size="10.00">::getDamage</text>
</a>
</g>
</g>
<!-- Node19&#45;&gt;Node21 -->
<g id="edge2" class="edge"><title>Node19&#45;&gt;Node21</title>
<path fill="none" stroke="midnightblue" d="M89.7174,-112.564C109.931,-118.659 136.759,-126.749 160.854,-134.014"/>
<polygon fill="midnightblue" stroke="midnightblue" points="160.048,-137.427 170.633,-136.963 162.069,-130.725 160.048,-137.427"/>
</g>
<!-- Node22 -->
<g id="node4" class="node"><title>Node22</title>
<g id="a_node4"><a xlink:href="class_interface_1_1_equipment_interface.html#a5a33b76327b54afb1693a7130118d994" target="_top" xlink:title="getRange ">
<polygon fill="white" stroke="black" points="150,-88 150,-118 293,-118 293,-88 150,-88"/>
<text text-anchor="start" x="158" y="-106" font-family="Helvetica,sans-Serif" font-size="10.00">Interface::EquipmentInterface</text>
<text text-anchor="middle" x="221.5" y="-95" font-family="Helvetica,sans-Serif" font-size="10.00">::getRange</text>
</a>
</g>
</g>
<!-- Node19&#45;&gt;Node22 -->
<g id="edge3" class="edge"><title>Node19&#45;&gt;Node22</title>
<path fill="none" stroke="midnightblue" d="M114.379,-103C122.614,-103 131.227,-103 139.832,-103"/>
<polygon fill="midnightblue" stroke="midnightblue" points="139.906,-106.5 149.905,-103 139.905,-99.5001 139.906,-106.5"/>
</g>
<!-- Node23 -->
<g id="node5" class="node"><title>Node23</title>
<g id="a_node5"><a xlink:href="class_interface_1_1_equipment_interface.html#a3291bb7c169624680e8148243da593b8" target="_top" xlink:title="getRate ">
<polygon fill="white" stroke="black" points="150,-39 150,-69 293,-69 293,-39 150,-39"/>
<text text-anchor="start" x="158" y="-57" font-family="Helvetica,sans-Serif" font-size="10.00">Interface::EquipmentInterface</text>
<text text-anchor="middle" x="221.5" y="-46" font-family="Helvetica,sans-Serif" font-size="10.00">::getRate</text>
</a>
</g>
</g>
<!-- Node19&#45;&gt;Node23 -->
<g id="edge4" class="edge"><title>Node19&#45;&gt;Node23</title>
<path fill="none" stroke="midnightblue" d="M89.7174,-93.436C109.931,-87.3408 136.759,-79.2512 160.854,-71.9857"/>
<polygon fill="midnightblue" stroke="midnightblue" points="162.069,-75.275 170.633,-69.037 160.048,-68.5731 162.069,-75.275"/>
</g>
<!-- Node24 -->
<g id="node6" class="node"><title>Node24</title>
<g id="a_node6"><a xlink:href="class_model_1_1_player.html#a0fc19cc3413063d0f26bf86b7967823e" target="_top" xlink:title="getWeapon palauttaa viitteen Actorin aseeseen, slotissa 1 tai 2. ">
<polygon fill="white" stroke="black" points="155.5,-0.5 155.5,-19.5 287.5,-19.5 287.5,-0.5 155.5,-0.5"/>
<text text-anchor="middle" x="221.5" y="-7.5" font-family="Helvetica,sans-Serif" font-size="10.00">Model::Player::getWeapon</text>
</a>
</g>
</g>
<!-- Node19&#45;&gt;Node24 -->
<g id="edge5" class="edge"><title>Node19&#45;&gt;Node24</title>
<path fill="none" stroke="midnightblue" d="M67.3039,-93.4904C82.9766,-77.9953 116.25,-47.2967 150,-30 155.295,-27.2864 161.008,-24.8968 166.81,-22.8034"/>
<polygon fill="midnightblue" stroke="midnightblue" points="168.21,-26.0264 176.599,-19.5551 166.006,-19.3826 168.21,-26.0264"/>
</g>
</g>
</svg>
