<?xml version="1.0" encoding="UTF-8" standalone="no"?>
<!DOCTYPE svg PUBLIC "-//W3C//DTD SVG 1.1//EN"
 "http://www.w3.org/Graphics/SVG/1.1/DTD/svg11.dtd">
<!-- Generated by graphviz version 2.38.0 (20140413.2041)
 -->
<!-- Title: Model::mapGenerator::generateHall Pages: 1 -->
<svg width="1091pt" height="643pt"
 viewBox="0.00 0.00 1091.00 642.50" xmlns="http://www.w3.org/2000/svg" xmlns:xlink="http://www.w3.org/1999/xlink">
<g id="graph0" class="graph" transform="scale(1 1) rotate(0) translate(4 638.5)">
<title>Model::mapGenerator::generateHall</title>
<polygon fill="white" stroke="none" points="-4,4 -4,-638.5 1087,-638.5 1087,4 -4,4"/>
<!-- Node2 -->
<g id="node1" class="node"><title>Node2</title>
<polygon fill="#bfbfbf" stroke="black" points="0,-137.5 0,-167.5 110,-167.5 110,-137.5 0,-137.5"/>
<text text-anchor="start" x="8" y="-155.5" font-family="Helvetica,sans-Serif" font-size="10.00">Model::mapGenerator</text>
<text text-anchor="middle" x="55" y="-144.5" font-family="Helvetica,sans-Serif" font-size="10.00">::generateHall</text>
</g>
<!-- Node3 -->
<g id="node2" class="node"><title>Node3</title>
<g id="a_node2"><a xlink:href="class_model_1_1park_space_inserter.html#a85f30f97e1864f0c4b3afe8f8dea7ae3" target="_top" xlink:title="Model::parkSpaceInserter\l::addSpaces">
<polygon fill="white" stroke="black" points="146,-260.5 146,-290.5 274,-290.5 274,-260.5 146,-260.5"/>
<text text-anchor="start" x="154" y="-278.5" font-family="Helvetica,sans-Serif" font-size="10.00">Model::parkSpaceInserter</text>
<text text-anchor="middle" x="210" y="-267.5" font-family="Helvetica,sans-Serif" font-size="10.00">::addSpaces</text>
</a>
</g>
</g>
<!-- Node2&#45;&gt;Node3 -->
<g id="edge1" class="edge"><title>Node2&#45;&gt;Node3</title>
<path fill="none" stroke="midnightblue" d="M74.7608,-167.582C101.602,-189.161 151.116,-228.966 181.926,-253.735"/>
<polygon fill="midnightblue" stroke="midnightblue" points="180.099,-256.757 190.086,-260.294 184.485,-251.301 180.099,-256.757"/>
</g>
<!-- Node6 -->
<g id="node5" class="node"><title>Node6</title>
<g id="a_node5"><a xlink:href="class_model_1_1map_generator.html#a92598d66736c2be4ca83aeedfe478b9d" target="_top" xlink:title="Model::mapGenerator\l::GetSurroundingWallCount">
<polygon fill="white" stroke="black" points="802,-142.5 802,-172.5 937,-172.5 937,-142.5 802,-142.5"/>
<text text-anchor="start" x="810" y="-160.5" font-family="Helvetica,sans-Serif" font-size="10.00">Model::mapGenerator</text>
<text text-anchor="middle" x="869.5" y="-149.5" font-family="Helvetica,sans-Serif" font-size="10.00">::GetSurroundingWallCount</text>
</a>
</g>
</g>
<!-- Node2&#45;&gt;Node6 -->
<g id="edge37" class="edge"><title>Node2&#45;&gt;Node6</title>
<path fill="none" stroke="midnightblue" d="M110.093,-140.36C172.944,-127.337 279.933,-108.5 373,-108.5 373,-108.5 373,-108.5 539,-108.5 640.242,-108.5 666.47,-108.965 766,-127.5 781.925,-130.466 798.918,-134.901 814.395,-139.457"/>
<polygon fill="midnightblue" stroke="midnightblue" points="813.736,-142.914 824.321,-142.455 815.76,-136.213 813.736,-142.914"/>
</g>
<!-- Node8 -->
<g id="node7" class="node"><title>Node8</title>
<g id="a_node7"><a xlink:href="class_model_1_1map_generator.html#a02b91ca9a47b993e6fa14b9b0ad317f2" target="_top" xlink:title="Get tile from point in tile coordinates. ">
<polygon fill="white" stroke="black" points="973,-428.5 973,-458.5 1083,-458.5 1083,-428.5 973,-428.5"/>
<text text-anchor="start" x="981" y="-446.5" font-family="Helvetica,sans-Serif" font-size="10.00">Model::mapGenerator</text>
<text text-anchor="middle" x="1028" y="-435.5" font-family="Helvetica,sans-Serif" font-size="10.00">::getTile</text>
</a>
</g>
</g>
<!-- Node2&#45;&gt;Node8 -->
<g id="edge38" class="edge"><title>Node2&#45;&gt;Node8</title>
<path fill="none" stroke="midnightblue" d="M58.223,-167.721C71.1197,-249.652 143.893,-634.5 373,-634.5 373,-634.5 373,-634.5 703,-634.5 813.498,-634.5 846.308,-613.625 937,-550.5 969.152,-528.121 996.533,-491.435 1012.38,-467.374"/>
<polygon fill="midnightblue" stroke="midnightblue" points="1015.41,-469.131 1017.88,-458.827 1009.52,-465.345 1015.41,-469.131"/>
</g>
<!-- Node13 -->
<g id="node12" class="node"><title>Node13</title>
<g id="a_node12"><a xlink:href="class_model_1_1map_generator.html#a180f1510b8d7eb4af5dc919eeaddfa69" target="_top" xlink:title="Model::mapGenerator\l::setTile">
<polygon fill="white" stroke="black" points="647,-137.5 647,-167.5 757,-167.5 757,-137.5 647,-137.5"/>
<text text-anchor="start" x="655" y="-155.5" font-family="Helvetica,sans-Serif" font-size="10.00">Model::mapGenerator</text>
<text text-anchor="middle" x="702" y="-144.5" font-family="Helvetica,sans-Serif" font-size="10.00">::setTile</text>
</a>
</g>
</g>
<!-- Node2&#45;&gt;Node13 -->
<g id="edge39" class="edge"><title>Node2&#45;&gt;Node13</title>
<path fill="none" stroke="midnightblue" d="M110.159,-152.5C228.435,-152.5 509.385,-152.5 636.526,-152.5"/>
<polygon fill="midnightblue" stroke="midnightblue" points="636.877,-156 646.877,-152.5 636.877,-149 636.877,-156"/>
</g>
<!-- Node17 -->
<g id="node16" class="node"><title>Node17</title>
<g id="a_node16"><a xlink:href="class_model_1_1layout_generator.html#a6b14394cdb9e6040233a91220cddcc93" target="_top" xlink:title="Model::layoutGenerator\l::generateHall">
<polygon fill="white" stroke="black" points="479,-49.5 479,-79.5 597,-79.5 597,-49.5 479,-49.5"/>
<text text-anchor="start" x="487" y="-67.5" font-family="Helvetica,sans-Serif" font-size="10.00">Model::layoutGenerator</text>
<text text-anchor="middle" x="538" y="-56.5" font-family="Helvetica,sans-Serif" font-size="10.00">::generateHall</text>
</a>
</g>
</g>
<!-- Node2&#45;&gt;Node17 -->
<g id="edge31" class="edge"><title>Node2&#45;&gt;Node17</title>
<path fill="none" stroke="midnightblue" d="M73.5586,-137.362C90.7559,-123.512 118.339,-103.805 146,-94.5 254.38,-58.0396 388.854,-56.5082 468.529,-59.7672"/>
<polygon fill="midnightblue" stroke="midnightblue" points="468.775,-63.2816 478.922,-60.2324 469.088,-56.2886 468.775,-63.2816"/>
</g>
<!-- Node4 -->
<g id="node3" class="node"><title>Node4</title>
<g id="a_node3"><a xlink:href="class_model_1_1park_space_inserter.html#a20265678d0e7cfc25daef80afaa1ba86" target="_top" xlink:title="Model::parkSpaceInserter\l::addParkingSpaces_">
<polygon fill="white" stroke="black" points="474,-260.5 474,-290.5 602,-290.5 602,-260.5 474,-260.5"/>
<text text-anchor="start" x="482" y="-278.5" font-family="Helvetica,sans-Serif" font-size="10.00">Model::parkSpaceInserter</text>
<text text-anchor="middle" x="538" y="-267.5" font-family="Helvetica,sans-Serif" font-size="10.00">::addParkingSpaces_</text>
</a>
</g>
</g>
<!-- Node3&#45;&gt;Node4 -->
<g id="edge2" class="edge"><title>Node3&#45;&gt;Node4</title>
<path fill="none" stroke="midnightblue" d="M274.243,-275.5C328.566,-275.5 406.909,-275.5 463.907,-275.5"/>
<polygon fill="midnightblue" stroke="midnightblue" points="463.933,-279 473.933,-275.5 463.933,-272 463.933,-279"/>
</g>
<!-- Node14 -->
<g id="node13" class="node"><title>Node14</title>
<g id="a_node13"><a xlink:href="class_model_1_1park_space_inserter.html#ada0688360de1fb7d5bd138f2f645bea6" target="_top" xlink:title="Model::parkSpaceInserter\l::removeBlockedSpaces">
<polygon fill="white" stroke="black" points="310,-359.5 310,-389.5 438,-389.5 438,-359.5 310,-359.5"/>
<text text-anchor="start" x="318" y="-377.5" font-family="Helvetica,sans-Serif" font-size="10.00">Model::parkSpaceInserter</text>
<text text-anchor="middle" x="374" y="-366.5" font-family="Helvetica,sans-Serif" font-size="10.00">::removeBlockedSpaces</text>
</a>
</g>
</g>
<!-- Node3&#45;&gt;Node14 -->
<g id="edge18" class="edge"><title>Node3&#45;&gt;Node14</title>
<path fill="none" stroke="midnightblue" d="M235.604,-290.536C263.398,-307.521 308.778,-335.253 339.72,-354.162"/>
<polygon fill="midnightblue" stroke="midnightblue" points="338.072,-357.257 348.43,-359.485 341.722,-351.284 338.072,-357.257"/>
</g>
<!-- Node5 -->
<g id="node4" class="node"><title>Node5</title>
<g id="a_node4"><a xlink:href="class_model_1_1park_space_inserter.html#a60ef5f3d1e5b3b726cc1ec9d4a200151" target="_top" xlink:title="Model::parkSpaceInserter\l::getWallTiles">
<polygon fill="white" stroke="black" points="638,-186.5 638,-216.5 766,-216.5 766,-186.5 638,-186.5"/>
<text text-anchor="start" x="646" y="-204.5" font-family="Helvetica,sans-Serif" font-size="10.00">Model::parkSpaceInserter</text>
<text text-anchor="middle" x="702" y="-193.5" font-family="Helvetica,sans-Serif" font-size="10.00">::getWallTiles</text>
</a>
</g>
</g>
<!-- Node4&#45;&gt;Node5 -->
<g id="edge3" class="edge"><title>Node4&#45;&gt;Node5</title>
<path fill="none" stroke="midnightblue" d="M572.174,-260.346C597.264,-248.886 631.893,-233.068 658.929,-220.718"/>
<polygon fill="midnightblue" stroke="midnightblue" points="660.506,-223.845 668.148,-216.507 657.597,-217.478 660.506,-223.845"/>
</g>
<!-- Node9 -->
<g id="node8" class="node"><title>Node9</title>
<g id="a_node8"><a xlink:href="class_model_1_1map_generator.html#aaac1161126a56490862e3b5fffffbded" target="_top" xlink:title="Model::mapGenerator\l::indexAt">
<polygon fill="white" stroke="black" points="814.5,-230.5 814.5,-260.5 924.5,-260.5 924.5,-230.5 814.5,-230.5"/>
<text text-anchor="start" x="822.5" y="-248.5" font-family="Helvetica,sans-Serif" font-size="10.00">Model::mapGenerator</text>
<text text-anchor="middle" x="869.5" y="-237.5" font-family="Helvetica,sans-Serif" font-size="10.00">::indexAt</text>
</a>
</g>
</g>
<!-- Node4&#45;&gt;Node9 -->
<g id="edge15" class="edge"><title>Node4&#45;&gt;Node9</title>
<path fill="none" stroke="midnightblue" d="M602.083,-268.219C614.007,-266.92 626.381,-265.624 638,-264.5 694.106,-259.072 757.992,-253.883 804.254,-250.304"/>
<polygon fill="midnightblue" stroke="midnightblue" points="804.735,-253.778 814.437,-249.52 804.197,-246.798 804.735,-253.778"/>
</g>
<!-- Node10 -->
<g id="node9" class="node"><title>Node10</title>
<g id="a_node9"><a xlink:href="class_model_1_1map_generator.html#a918049786b708772ca97df76389955a7" target="_top" xlink:title="Model::mapGenerator\l::getClosestEdge">
<polygon fill="white" stroke="black" points="647,-274.5 647,-304.5 757,-304.5 757,-274.5 647,-274.5"/>
<text text-anchor="start" x="655" y="-292.5" font-family="Helvetica,sans-Serif" font-size="10.00">Model::mapGenerator</text>
<text text-anchor="middle" x="702" y="-281.5" font-family="Helvetica,sans-Serif" font-size="10.00">::getClosestEdge</text>
</a>
</g>
</g>
<!-- Node4&#45;&gt;Node10 -->
<g id="edge10" class="edge"><title>Node4&#45;&gt;Node10</title>
<path fill="none" stroke="midnightblue" d="M602.097,-280.953C613.389,-281.929 625.168,-282.947 636.498,-283.926"/>
<polygon fill="midnightblue" stroke="midnightblue" points="636.486,-287.438 646.75,-284.812 637.089,-280.464 636.486,-287.438"/>
</g>
<!-- Node11 -->
<g id="node10" class="node"><title>Node11</title>
<g id="a_node10"><a xlink:href="class_model_1_1map_generator.html#af153f95aea5145100546ad86ac4b9d02" target="_top" xlink:title="Model::mapGenerator\l::indexToX">
<polygon fill="white" stroke="black" points="647,-362.5 647,-392.5 757,-392.5 757,-362.5 647,-362.5"/>
<text text-anchor="start" x="655" y="-380.5" font-family="Helvetica,sans-Serif" font-size="10.00">Model::mapGenerator</text>
<text text-anchor="middle" x="702" y="-369.5" font-family="Helvetica,sans-Serif" font-size="10.00">::indexToX</text>
</a>
</g>
</g>
<!-- Node4&#45;&gt;Node11 -->
<g id="edge13" class="edge"><title>Node4&#45;&gt;Node11</title>
<path fill="none" stroke="midnightblue" d="M562.904,-290.55C590.781,-308.103 637.015,-337.213 668.227,-356.865"/>
<polygon fill="midnightblue" stroke="midnightblue" points="666.671,-360.021 676.998,-362.388 670.401,-354.098 666.671,-360.021"/>
</g>
<!-- Node12 -->
<g id="node11" class="node"><title>Node12</title>
<g id="a_node11"><a xlink:href="class_model_1_1map_generator.html#a73020896792ce1a6aa4dd0ce2b9c5caf" target="_top" xlink:title="Model::mapGenerator\l::indexToY">
<polygon fill="white" stroke="black" points="647,-411.5 647,-441.5 757,-441.5 757,-411.5 647,-411.5"/>
<text text-anchor="start" x="655" y="-429.5" font-family="Helvetica,sans-Serif" font-size="10.00">Model::mapGenerator</text>
<text text-anchor="middle" x="702" y="-418.5" font-family="Helvetica,sans-Serif" font-size="10.00">::indexToY</text>
</a>
</g>
</g>
<!-- Node4&#45;&gt;Node12 -->
<g id="edge14" class="edge"><title>Node4&#45;&gt;Node12</title>
<path fill="none" stroke="midnightblue" d="M547.373,-290.825C562.344,-316.926 596.09,-370.212 638,-401.5 640.466,-403.341 643.086,-405.067 645.803,-406.682"/>
<polygon fill="midnightblue" stroke="midnightblue" points="644.27,-409.832 654.738,-411.468 647.575,-403.661 644.27,-409.832"/>
</g>
<!-- Node4&#45;&gt;Node13 -->
<g id="edge16" class="edge"><title>Node4&#45;&gt;Node13</title>
<path fill="none" stroke="midnightblue" d="M556.935,-260.348C569.854,-249.18 587.493,-233.402 602,-218.5 619.15,-200.884 617.892,-190.646 638,-176.5 640.094,-175.027 642.29,-173.63 644.556,-172.308"/>
<polygon fill="midnightblue" stroke="midnightblue" points="646.346,-175.321 653.569,-167.57 643.089,-169.125 646.346,-175.321"/>
</g>
<!-- Node5&#45;&gt;Node6 -->
<g id="edge4" class="edge"><title>Node5&#45;&gt;Node6</title>
<path fill="none" stroke="midnightblue" d="M759.493,-186.481C773.264,-182.82 788.117,-178.871 802.295,-175.101"/>
<polygon fill="midnightblue" stroke="midnightblue" points="803.216,-178.478 811.981,-172.526 801.417,-171.713 803.216,-178.478"/>
</g>
<!-- Node5&#45;&gt;Node8 -->
<g id="edge7" class="edge"><title>Node5&#45;&gt;Node8</title>
<path fill="none" stroke="midnightblue" d="M766.081,-189.797C817.071,-183.988 888.158,-184.58 937,-220.5 1001.9,-268.231 1020.1,-370.711 1025.12,-418.281"/>
<polygon fill="midnightblue" stroke="midnightblue" points="1021.65,-418.72 1026.07,-428.347 1028.62,-418.062 1021.65,-418.72"/>
</g>
<!-- Node5&#45;&gt;Node9 -->
<g id="edge8" class="edge"><title>Node5&#45;&gt;Node9</title>
<path fill="none" stroke="midnightblue" d="M759.493,-216.519C774.088,-220.399 789.898,-224.603 804.832,-228.573"/>
<polygon fill="midnightblue" stroke="midnightblue" points="803.933,-231.956 814.497,-231.143 805.732,-225.191 803.933,-231.956"/>
</g>
<!-- Node7 -->
<g id="node6" class="node"><title>Node7</title>
<g id="a_node6"><a xlink:href="class_model_1_1map_generator.html#a244ad56297f00ce2ab892d3b2a14ffac" target="_top" xlink:title="Model::mapGenerator\l::isInMapRange">
<polygon fill="white" stroke="black" points="973,-142.5 973,-172.5 1083,-172.5 1083,-142.5 973,-142.5"/>
<text text-anchor="start" x="981" y="-160.5" font-family="Helvetica,sans-Serif" font-size="10.00">Model::mapGenerator</text>
<text text-anchor="middle" x="1028" y="-149.5" font-family="Helvetica,sans-Serif" font-size="10.00">::isInMapRange</text>
</a>
</g>
</g>
<!-- Node6&#45;&gt;Node7 -->
<g id="edge5" class="edge"><title>Node6&#45;&gt;Node7</title>
<path fill="none" stroke="midnightblue" d="M937.324,-157.5C945.711,-157.5 954.277,-157.5 962.625,-157.5"/>
<polygon fill="midnightblue" stroke="midnightblue" points="962.674,-161 972.674,-157.5 962.674,-154 962.674,-161"/>
</g>
<!-- Node6&#45;&gt;Node8 -->
<g id="edge6" class="edge"><title>Node6&#45;&gt;Node8</title>
<path fill="none" stroke="midnightblue" d="M917.02,-172.551C924.407,-176.515 931.433,-181.435 937,-187.5 999.043,-255.103 1018.78,-368.023 1024.66,-418.172"/>
<polygon fill="midnightblue" stroke="midnightblue" points="1021.22,-418.862 1025.78,-428.427 1028.18,-418.108 1021.22,-418.862"/>
</g>
<!-- Node9&#45;&gt;Node7 -->
<g id="edge9" class="edge"><title>Node9&#45;&gt;Node7</title>
<path fill="none" stroke="midnightblue" d="M897.403,-230.372C923.348,-215.784 962.776,-193.613 991.329,-177.558"/>
<polygon fill="midnightblue" stroke="midnightblue" points="993.185,-180.529 1000.19,-172.577 989.754,-174.428 993.185,-180.529"/>
</g>
<!-- Node10&#45;&gt;Node8 -->
<g id="edge11" class="edge"><title>Node10&#45;&gt;Node8</title>
<path fill="none" stroke="midnightblue" d="M734.656,-304.547C793.694,-332.608 920.531,-392.894 986.014,-424.019"/>
<polygon fill="midnightblue" stroke="midnightblue" points="984.681,-427.261 995.215,-428.392 987.686,-420.938 984.681,-427.261"/>
</g>
<!-- Node10&#45;&gt;Node9 -->
<g id="edge12" class="edge"><title>Node10&#45;&gt;Node9</title>
<path fill="none" stroke="midnightblue" d="M757.191,-275.093C772.271,-271.084 788.792,-266.691 804.384,-262.546"/>
<polygon fill="midnightblue" stroke="midnightblue" points="805.705,-265.816 814.47,-259.864 803.907,-259.051 805.705,-265.816"/>
</g>
<!-- Node13&#45;&gt;Node9 -->
<g id="edge17" class="edge"><title>Node13&#45;&gt;Node9</title>
<path fill="none" stroke="midnightblue" d="M746.612,-167.617C753.218,-170.334 759.869,-173.322 766,-176.5 792.663,-190.321 820.818,-209.661 840.859,-224.351"/>
<polygon fill="midnightblue" stroke="midnightblue" points="838.807,-227.186 848.924,-230.332 842.977,-221.563 838.807,-227.186"/>
</g>
<!-- Node14&#45;&gt;Node8 -->
<g id="edge19" class="edge"><title>Node14&#45;&gt;Node8</title>
<path fill="none" stroke="midnightblue" d="M386.606,-389.647C403.972,-411.659 438.49,-452.966 474,-481.5 539.837,-534.403 556.485,-555.396 638,-577.5 776.27,-614.994 936.655,-511.487 999.63,-464.902"/>
<polygon fill="midnightblue" stroke="midnightblue" points="1001.96,-467.529 1007.86,-458.727 997.758,-461.931 1001.96,-467.529"/>
</g>
<!-- Node14&#45;&gt;Node9 -->
<g id="edge21" class="edge"><title>Node14&#45;&gt;Node9</title>
<path fill="none" stroke="midnightblue" d="M438.084,-372.919C517.203,-369.098 655.838,-356.26 766,-313.5 794.568,-302.411 823.315,-282.388 843.065,-266.93"/>
<polygon fill="midnightblue" stroke="midnightblue" points="845.326,-269.603 850.951,-260.624 840.955,-264.136 845.326,-269.603"/>
</g>
<!-- Node14&#45;&gt;Node11 -->
<g id="edge29" class="edge"><title>Node14&#45;&gt;Node11</title>
<path fill="none" stroke="midnightblue" d="M438.243,-375.082C495.448,-375.608 579.29,-376.38 636.792,-376.909"/>
<polygon fill="midnightblue" stroke="midnightblue" points="636.822,-380.409 646.854,-377.002 636.886,-373.41 636.822,-380.409"/>
</g>
<!-- Node14&#45;&gt;Node12 -->
<g id="edge30" class="edge"><title>Node14&#45;&gt;Node12</title>
<path fill="none" stroke="midnightblue" d="M438.106,-384.728C450.028,-386.652 462.396,-388.642 474,-390.5 528.945,-399.297 591.389,-409.192 636.857,-416.379"/>
<polygon fill="midnightblue" stroke="midnightblue" points="636.448,-419.858 646.872,-417.962 637.541,-412.944 636.448,-419.858"/>
</g>
<!-- Node14&#45;&gt;Node13 -->
<g id="edge20" class="edge"><title>Node14&#45;&gt;Node13</title>
<path fill="none" stroke="midnightblue" d="M383.833,-359.219C399.246,-333.7 433.319,-282.102 474,-250.5 522.998,-212.437 589.032,-186.114 637.244,-170.409"/>
<polygon fill="midnightblue" stroke="midnightblue" points="638.48,-173.688 646.943,-167.313 636.352,-167.019 638.48,-173.688"/>
</g>
<!-- Node15 -->
<g id="node14" class="node"><title>Node15</title>
<g id="a_node14"><a xlink:href="class_model_1_1park_space_inserter.html#ab81abccc02f65eed8d54e0d56b234e18" target="_top" xlink:title="Model::parkSpaceInserter\l::floodFill">
<polygon fill="white" stroke="black" points="474,-441.5 474,-471.5 602,-471.5 602,-441.5 474,-441.5"/>
<text text-anchor="start" x="482" y="-459.5" font-family="Helvetica,sans-Serif" font-size="10.00">Model::parkSpaceInserter</text>
<text text-anchor="middle" x="538" y="-448.5" font-family="Helvetica,sans-Serif" font-size="10.00">::floodFill</text>
</a>
</g>
</g>
<!-- Node14&#45;&gt;Node15 -->
<g id="edge22" class="edge"><title>Node14&#45;&gt;Node15</title>
<path fill="none" stroke="midnightblue" d="M403.013,-389.588C422.755,-400.13 449.868,-414.422 474,-426.5 481.008,-430.007 488.497,-433.658 495.776,-437.155"/>
<polygon fill="midnightblue" stroke="midnightblue" points="494.3,-440.328 504.832,-441.48 497.317,-434.012 494.3,-440.328"/>
</g>
<!-- Node15&#45;&gt;Node8 -->
<g id="edge23" class="edge"><title>Node15&#45;&gt;Node8</title>
<path fill="none" stroke="midnightblue" d="M599.942,-471.511C612.454,-474.004 625.593,-476.199 638,-477.5 752.21,-489.48 885.596,-470.719 962.775,-456.654"/>
<polygon fill="midnightblue" stroke="midnightblue" points="963.629,-460.056 972.823,-454.791 962.353,-453.173 963.629,-460.056"/>
</g>
<!-- Node15&#45;&gt;Node9 -->
<g id="edge28" class="edge"><title>Node15&#45;&gt;Node9</title>
<path fill="none" stroke="midnightblue" d="M602.07,-471.286C650.667,-479.018 717.525,-481.352 766,-450.5 830.175,-409.656 855.663,-315.492 864.456,-270.421"/>
<polygon fill="midnightblue" stroke="midnightblue" points="867.899,-271.048 866.26,-260.581 861.014,-269.786 867.899,-271.048"/>
</g>
<!-- Node15&#45;&gt;Node11 -->
<g id="edge26" class="edge"><title>Node15&#45;&gt;Node11</title>
<path fill="none" stroke="midnightblue" d="M563.712,-441.471C583.433,-429.797 611.974,-413.611 638,-401.5 641.76,-399.75 645.687,-398.025 649.662,-396.351"/>
<polygon fill="midnightblue" stroke="midnightblue" points="651.033,-399.571 658.968,-392.55 648.387,-393.091 651.033,-399.571"/>
</g>
<!-- Node15&#45;&gt;Node12 -->
<g id="edge27" class="edge"><title>Node15&#45;&gt;Node12</title>
<path fill="none" stroke="midnightblue" d="M602.097,-444.815C613.504,-442.703 625.409,-440.498 636.845,-438.381"/>
<polygon fill="midnightblue" stroke="midnightblue" points="637.555,-441.809 646.75,-436.546 636.28,-434.926 637.555,-441.809"/>
</g>
<!-- Node15&#45;&gt;Node13 -->
<g id="edge24" class="edge"><title>Node15&#45;&gt;Node13</title>
<path fill="none" stroke="midnightblue" d="M545.764,-441.09C557.887,-413.173 583.751,-352.234 602,-299.5 620.628,-245.672 599.35,-218.341 638,-176.5 638.893,-175.533 639.83,-174.604 640.804,-173.713"/>
<polygon fill="midnightblue" stroke="midnightblue" points="643.051,-176.402 648.918,-167.58 638.83,-170.818 643.051,-176.402"/>
</g>
<!-- Node16 -->
<g id="node15" class="node"><title>Node16</title>
<g id="a_node15"><a xlink:href="class_model_1_1park_space_inserter.html#ab86507374576bb3c92a1356507065806" target="_top" xlink:title="Model::parkSpaceInserter\l::getRelativeDirection">
<polygon fill="white" stroke="black" points="638,-537.5 638,-567.5 766,-567.5 766,-537.5 638,-537.5"/>
<text text-anchor="start" x="646" y="-555.5" font-family="Helvetica,sans-Serif" font-size="10.00">Model::parkSpaceInserter</text>
<text text-anchor="middle" x="702" y="-544.5" font-family="Helvetica,sans-Serif" font-size="10.00">::getRelativeDirection</text>
</a>
</g>
</g>
<!-- Node15&#45;&gt;Node16 -->
<g id="edge25" class="edge"><title>Node15&#45;&gt;Node16</title>
<path fill="none" stroke="midnightblue" d="M559.688,-471.564C579.343,-485.565 609.974,-506.594 638,-522.5 644.374,-526.118 651.254,-529.701 658.045,-533.064"/>
<polygon fill="midnightblue" stroke="midnightblue" points="656.668,-536.286 667.194,-537.496 659.72,-529.986 656.668,-536.286"/>
</g>
<!-- Node17&#45;&gt;Node13 -->
<g id="edge36" class="edge"><title>Node17&#45;&gt;Node13</title>
<path fill="none" stroke="midnightblue" d="M566.849,-79.6277C593.705,-94.2165 634.519,-116.387 664.075,-132.442"/>
<polygon fill="midnightblue" stroke="midnightblue" points="662.786,-135.725 673.244,-137.423 666.127,-129.574 662.786,-135.725"/>
</g>
<!-- Node18 -->
<g id="node17" class="node"><title>Node18</title>
<g id="a_node17"><a xlink:href="class_model_1_1layout_generator.html#a80d0ad4662419fe534bc7af4aa700bfb" target="_top" xlink:title="Model::layoutGenerator\l::randomRoom">
<polygon fill="white" stroke="black" points="643,-49.5 643,-79.5 761,-79.5 761,-49.5 643,-49.5"/>
<text text-anchor="start" x="651" y="-67.5" font-family="Helvetica,sans-Serif" font-size="10.00">Model::layoutGenerator</text>
<text text-anchor="middle" x="702" y="-56.5" font-family="Helvetica,sans-Serif" font-size="10.00">::randomRoom</text>
</a>
</g>
</g>
<!-- Node17&#45;&gt;Node18 -->
<g id="edge32" class="edge"><title>Node17&#45;&gt;Node18</title>
<path fill="none" stroke="midnightblue" d="M597.028,-64.5C608.544,-64.5 620.736,-64.5 632.561,-64.5"/>
<polygon fill="midnightblue" stroke="midnightblue" points="632.833,-68.0001 642.833,-64.5 632.832,-61.0001 632.833,-68.0001"/>
</g>
<!-- Node19 -->
<g id="node18" class="node"><title>Node19</title>
<g id="a_node18"><a xlink:href="class_model_1_1layout_generator.html#aa1cf644a00a6eeed01f192be1905dbb5" target="_top" xlink:title="Model::layoutGenerator\l::roomOk">
<polygon fill="white" stroke="black" points="643,-0.5 643,-30.5 761,-30.5 761,-0.5 643,-0.5"/>
<text text-anchor="start" x="651" y="-18.5" font-family="Helvetica,sans-Serif" font-size="10.00">Model::layoutGenerator</text>
<text text-anchor="middle" x="702" y="-7.5" font-family="Helvetica,sans-Serif" font-size="10.00">::roomOk</text>
</a>
</g>
</g>
<!-- Node17&#45;&gt;Node19 -->
<g id="edge35" class="edge"><title>Node17&#45;&gt;Node19</title>
<path fill="none" stroke="midnightblue" d="M588.927,-49.3986C605.481,-44.3917 624.075,-38.7676 641.288,-33.561"/>
<polygon fill="midnightblue" stroke="midnightblue" points="642.679,-36.7969 651.238,-30.5516 640.653,-30.0967 642.679,-36.7969"/>
</g>
<!-- Node18&#45;&gt;Node7 -->
<g id="edge34" class="edge"><title>Node18&#45;&gt;Node7</title>
<path fill="none" stroke="midnightblue" d="M755.416,-79.5454C812.59,-95.9564 904.045,-122.207 964.808,-139.648"/>
<polygon fill="midnightblue" stroke="midnightblue" points="964.081,-143.081 974.659,-142.476 966.013,-136.353 964.081,-143.081"/>
</g>
<!-- Node18&#45;&gt;Node9 -->
<g id="edge33" class="edge"><title>Node18&#45;&gt;Node9</title>
<path fill="none" stroke="midnightblue" d="M719.969,-79.7258C733.205,-92.0002 751.682,-110.035 766,-127.5 784.287,-149.807 783.5,-159.37 802,-181.5 814.51,-196.466 830.16,-211.67 843.134,-223.502"/>
<polygon fill="midnightblue" stroke="midnightblue" points="841.037,-226.323 850.815,-230.401 845.714,-221.115 841.037,-226.323"/>
</g>
</g>
</svg>
