<?xml version="1.0" encoding="UTF-8" standalone="no"?>
<!DOCTYPE svg PUBLIC "-//W3C//DTD SVG 1.1//EN"
 "http://www.w3.org/Graphics/SVG/1.1/DTD/svg11.dtd">
<!-- Generated by graphviz version 2.38.0 (20140413.2041)
 -->
<!-- Title: Model::PlayerParty Pages: 1 -->
<!--zoomable 441 -->
<svg id="main" version="1.1" xmlns="http://www.w3.org/2000/svg" xmlns:xlink="http://www.w3.org/1999/xlink" xml:space="preserve" onload="init(evt)">
<style type="text/css"><![CDATA[
.edge:hover path { stroke: red; }
.edge:hover polygon { stroke: red; fill: red; }
]]></style>
<script type="text/javascript"><![CDATA[
var edges = document.getElementsByTagName('g');
if (edges && edges.length) {
  for (var i=0;i<edges.length;i++) {
    if (edges[i].id.substr(0,4)=='edge') {
      edges[i].setAttribute('class','edge');
    }
  }
}
]]></script>
        <defs>
                <circle id="rim" cx="0" cy="0" r="7"/>
                <circle id="rim2" cx="0" cy="0" r="3.5"/>
                <g id="zoomPlus">
                        <use xlink:href="#rim" fill="#404040">
                                <set attributeName="fill" to="#808080" begin="zoomplus.mouseover" end="zoomplus.mouseout"/>
                        </use>
                        <path d="M-4,0h8M0,-4v8" fill="none" stroke="white" stroke-width="1.5" pointer-events="none"/>
                </g>
                <g id="zoomMin">
                        <use xlink:href="#rim" fill="#404040">
                                <set attributeName="fill" to="#808080" begin="zoomminus.mouseover" end="zoomminus.mouseout"/>
                        </use>
                        <path d="M-4,0h8" fill="none" stroke="white" stroke-width="1.5" pointer-events="none"/>
                </g>
                <g id="dirArrow">
                        <path fill="none" stroke="white" stroke-width="1.5" d="M0,-3.0v7 M-2.5,-0.5L0,-3.0L2.5,-0.5"/>
                </g>
               <g id="resetDef">
                       <use xlink:href="#rim2" fill="#404040">
                               <set attributeName="fill" to="#808080" begin="reset.mouseover" end="reset.mouseout"/>
                       </use>
               </g>
        </defs>

<script type="text/javascript">
var viewWidth = 574;
var viewHeight = 441;
var sectionId = 'dynsection-0';
</script>
<script xlink:href="svgpan.js"/>
<svg id="graph" class="graph">
<g id="viewport">
<title>Model::PlayerParty</title>
<polygon fill="white" stroke="none" points="-4,4 -4,-437 569.5,-437 569.5,4 -4,4"/>
<!-- Node1 -->
<g id="node1" class="node"><title>Node1</title>
<polygon fill="#bfbfbf" stroke="black" points="184,-0.5 184,-167.5 305,-167.5 305,-0.5 184,-0.5"/>
<text text-anchor="middle" x="244.5" y="-155.5" font-family="Helvetica,sans-Serif" font-size="10.00">Model::PlayerParty</text>
<polyline fill="none" stroke="black" points="184,-148.5 305,-148.5 "/>
<text text-anchor="middle" x="244.5" y="-136.5" font-family="Helvetica,sans-Serif" font-size="10.00"> </text>
<polyline fill="none" stroke="black" points="184,-129.5 305,-129.5 "/>
<text text-anchor="start" x="192" y="-117.5" font-family="Helvetica,sans-Serif" font-size="10.00">+ PlayerParty()</text>
<text text-anchor="start" x="192" y="-106.5" font-family="Helvetica,sans-Serif" font-size="10.00">+ addMoney()</text>
<text text-anchor="start" x="192" y="-95.5" font-family="Helvetica,sans-Serif" font-size="10.00">+ reduceMoney()</text>
<text text-anchor="start" x="192" y="-84.5" font-family="Helvetica,sans-Serif" font-size="10.00">+ getActor()</text>
<text text-anchor="start" x="192" y="-73.5" font-family="Helvetica,sans-Serif" font-size="10.00">+ getUpgrades()</text>
<text text-anchor="start" x="192" y="-62.5" font-family="Helvetica,sans-Serif" font-size="10.00">+ getParty()</text>
<text text-anchor="start" x="192" y="-51.5" font-family="Helvetica,sans-Serif" font-size="10.00">+ commenceResearch()</text>
<text text-anchor="start" x="192" y="-40.5" font-family="Helvetica,sans-Serif" font-size="10.00">+ healCyborg()</text>
<text text-anchor="start" x="192" y="-29.5" font-family="Helvetica,sans-Serif" font-size="10.00">+ hireCyborg()</text>
<text text-anchor="start" x="192" y="-18.5" font-family="Helvetica,sans-Serif" font-size="10.00">+ retireCyborg()</text>
<text text-anchor="start" x="192" y="-7.5" font-family="Helvetica,sans-Serif" font-size="10.00">and 7 more...</text>
</g>
<!-- Node2 -->
<g id="node2" class="node"><title>Node2</title>
<polygon fill="white" stroke="#bfbfbf" points="0,-243 0,-311 163,-311 163,-243 0,-243"/>
<text text-anchor="start" x="8" y="-299" font-family="Helvetica,sans-Serif" font-size="10.00">std::vector&lt; std::shared</text>
<text text-anchor="middle" x="81.5" y="-288" font-family="Helvetica,sans-Serif" font-size="10.00">_ptr&lt; Interface::ActorInterface &gt; &gt;</text>
<polyline fill="none" stroke="#bfbfbf" points="0,-281 163,-281 "/>
<text text-anchor="middle" x="81.5" y="-269" font-family="Helvetica,sans-Serif" font-size="10.00"> </text>
<polyline fill="none" stroke="#bfbfbf" points="0,-262 163,-262 "/>
<text text-anchor="middle" x="81.5" y="-250" font-family="Helvetica,sans-Serif" font-size="10.00"> </text>
</g>
<!-- Node2&#45;&gt;Node1 -->
<g id="edge1" class="edge"><title>Node2&#45;&gt;Node1</title>
<path fill="none" stroke="#404040" d="M106.132,-242.987C119.265,-225.734 135.894,-204.43 151.5,-186 159.182,-176.927 167.401,-167.556 175.656,-158.348"/>
<polygon fill="none" stroke="#404040" points="175.864,-158.118 176.915,-150.983 183.904,-149.21 182.853,-156.344 175.864,-158.118"/>
<text text-anchor="middle" x="168.5" y="-200" font-family="Helvetica,sans-Serif" font-size="10.00"> &#45;party_</text>
</g>
<!-- Node3 -->
<g id="node3" class="node"><title>Node3</title>
<polygon fill="white" stroke="#bfbfbf" points="27.5,-364.5 27.5,-432.5 135.5,-432.5 135.5,-364.5 27.5,-364.5"/>
<text text-anchor="start" x="35.5" y="-420.5" font-family="Helvetica,sans-Serif" font-size="10.00">shared_ptr&lt; Interface</text>
<text text-anchor="middle" x="81.5" y="-409.5" font-family="Helvetica,sans-Serif" font-size="10.00">::ActorInterface &gt;</text>
<polyline fill="none" stroke="#bfbfbf" points="27.5,-402.5 135.5,-402.5 "/>
<text text-anchor="middle" x="81.5" y="-390.5" font-family="Helvetica,sans-Serif" font-size="10.00"> </text>
<polyline fill="none" stroke="#bfbfbf" points="27.5,-383.5 135.5,-383.5 "/>
<text text-anchor="middle" x="81.5" y="-371.5" font-family="Helvetica,sans-Serif" font-size="10.00"> </text>
</g>
<!-- Node3&#45;&gt;Node2 -->
<g id="edge2" class="edge"><title>Node3&#45;&gt;Node2</title>
<path fill="none" stroke="#404040" d="M81.5,-364.213C81.5,-351.523 81.5,-336.837 81.5,-323.223"/>
<polygon fill="none" stroke="#404040" points="81.5001,-323.109 77.5,-317.109 81.5,-311.109 85.5,-317.109 81.5001,-323.109"/>
<text text-anchor="middle" x="106" y="-338" font-family="Helvetica,sans-Serif" font-size="10.00"> +elements</text>
</g>
<!-- Node4 -->
<g id="node4" class="node"><title>Node4</title>
<polygon fill="white" stroke="#bfbfbf" points="211.5,-370 211.5,-427 261.5,-427 261.5,-370 211.5,-370"/>
<text text-anchor="middle" x="236.5" y="-415" font-family="Helvetica,sans-Serif" font-size="10.00">QString</text>
<polyline fill="none" stroke="#bfbfbf" points="211.5,-408 261.5,-408 "/>
<text text-anchor="middle" x="236.5" y="-396" font-family="Helvetica,sans-Serif" font-size="10.00"> </text>
<polyline fill="none" stroke="#bfbfbf" points="211.5,-389 261.5,-389 "/>
<text text-anchor="middle" x="236.5" y="-377" font-family="Helvetica,sans-Serif" font-size="10.00"> </text>
</g>
<!-- Node4&#45;&gt;Node1 -->
<g id="edge3" class="edge"><title>Node4&#45;&gt;Node1</title>
<path fill="none" stroke="#404040" d="M224.282,-369.794C218.221,-354.544 211.557,-335.092 208.5,-317 200.882,-271.911 206.855,-221.785 215.97,-179.696"/>
<polygon fill="none" stroke="#404040" points="216.022,-179.466 213.452,-172.729 218.683,-167.765 221.253,-174.502 216.022,-179.466"/>
<text text-anchor="middle" x="254.5" y="-274.5" font-family="Helvetica,sans-Serif" font-size="10.00"> &#45;nextResearchArea_</text>
</g>
<!-- Node6 -->
<g id="node6" class="node"><title>Node6</title>
<polygon fill="white" stroke="#bfbfbf" points="310,-237.5 310,-316.5 441,-316.5 441,-237.5 310,-237.5"/>
<text text-anchor="start" x="318" y="-304.5" font-family="Helvetica,sans-Serif" font-size="10.00">std::map&lt; QString,</text>
<text text-anchor="start" x="318" y="-293.5" font-family="Helvetica,sans-Serif" font-size="10.00"> std::shared_ptr&lt; Interface</text>
<text text-anchor="middle" x="375.5" y="-282.5" font-family="Helvetica,sans-Serif" font-size="10.00">::ParkingHallInterface &gt; &gt;</text>
<polyline fill="none" stroke="#bfbfbf" points="310,-275.5 441,-275.5 "/>
<text text-anchor="middle" x="375.5" y="-263.5" font-family="Helvetica,sans-Serif" font-size="10.00"> </text>
<polyline fill="none" stroke="#bfbfbf" points="310,-256.5 441,-256.5 "/>
<text text-anchor="middle" x="375.5" y="-244.5" font-family="Helvetica,sans-Serif" font-size="10.00"> </text>
</g>
<!-- Node4&#45;&gt;Node6 -->
<g id="edge6" class="edge"><title>Node4&#45;&gt;Node6</title>
<path fill="none" stroke="#404040" d="M261.672,-375.859C278.294,-361.57 300.721,-342.288 321.274,-324.619"/>
<polygon fill="none" stroke="#404040" points="321.458,-324.461 323.4,-317.516 330.557,-316.638 328.615,-323.582 321.458,-324.461"/>
<text text-anchor="middle" x="322" y="-338" font-family="Helvetica,sans-Serif" font-size="10.00"> +keys</text>
</g>
<!-- Node5 -->
<g id="node5" class="node"><title>Node5</title>
<polygon fill="white" stroke="#bfbfbf" points="459,-248.5 459,-305.5 488,-305.5 488,-248.5 459,-248.5"/>
<text text-anchor="middle" x="473.5" y="-293.5" font-family="Helvetica,sans-Serif" font-size="10.00">int</text>
<polyline fill="none" stroke="#bfbfbf" points="459,-286.5 488,-286.5 "/>
<text text-anchor="middle" x="473.5" y="-274.5" font-family="Helvetica,sans-Serif" font-size="10.00"> </text>
<polyline fill="none" stroke="#bfbfbf" points="459,-267.5 488,-267.5 "/>
<text text-anchor="middle" x="473.5" y="-255.5" font-family="Helvetica,sans-Serif" font-size="10.00"> </text>
</g>
<!-- Node5&#45;&gt;Node1 -->
<g id="edge4" class="edge"><title>Node5&#45;&gt;Node1</title>
<path fill="none" stroke="#404040" d="M469.256,-248.48C465.049,-229.105 456.906,-203.589 441.5,-186 408.515,-148.341 358.096,-122.857 316.523,-106.908"/>
<polygon fill="none" stroke="#404040" points="316.307,-106.828 309.291,-108.495 305.054,-102.66 312.07,-100.993 316.307,-106.828"/>
<text text-anchor="start" x="460.5" y="-211" font-family="Helvetica,sans-Serif" font-size="10.00"> &#45;upgradeResearchLevel</text>
<text text-anchor="middle" x="513" y="-200" font-family="Helvetica,sans-Serif" font-size="10.00">_</text>
<text text-anchor="middle" x="513" y="-189" font-family="Helvetica,sans-Serif" font-size="10.00">&#45;weaponResearchLevel_</text>
</g>
<!-- Node6&#45;&gt;Node1 -->
<g id="edge5" class="edge"><title>Node6&#45;&gt;Node1</title>
<path fill="none" stroke="#404040" d="M348.99,-237.348C337.115,-220.033 322.55,-198.799 308.109,-177.743"/>
<polygon fill="none" stroke="#404040" points="308.055,-177.665 301.363,-174.979 301.268,-167.769 307.96,-170.454 308.055,-177.665"/>
<text text-anchor="middle" x="385.5" y="-200" font-family="Helvetica,sans-Serif" font-size="10.00"> &#45;capturedParkingHalls_</text>
</g>
<!-- Node7 -->
<g id="node7" class="node"><title>Node7</title>
<polygon fill="white" stroke="#bfbfbf" points="316.5,-364.5 316.5,-432.5 434.5,-432.5 434.5,-364.5 316.5,-364.5"/>
<text text-anchor="start" x="324.5" y="-420.5" font-family="Helvetica,sans-Serif" font-size="10.00">shared_ptr&lt; Interface</text>
<text text-anchor="middle" x="375.5" y="-409.5" font-family="Helvetica,sans-Serif" font-size="10.00">::ParkingHallInterface &gt;</text>
<polyline fill="none" stroke="#bfbfbf" points="316.5,-402.5 434.5,-402.5 "/>
<text text-anchor="middle" x="375.5" y="-390.5" font-family="Helvetica,sans-Serif" font-size="10.00"> </text>
<polyline fill="none" stroke="#bfbfbf" points="316.5,-383.5 434.5,-383.5 "/>
<text text-anchor="middle" x="375.5" y="-371.5" font-family="Helvetica,sans-Serif" font-size="10.00"> </text>
</g>
<!-- Node7&#45;&gt;Node6 -->
<g id="edge7" class="edge"><title>Node7&#45;&gt;Node6</title>
<path fill="none" stroke="#404040" d="M375.5,-364.213C375.5,-353.244 375.5,-340.784 375.5,-328.814"/>
<polygon fill="none" stroke="#404040" points="375.5,-328.6 371.5,-322.6 375.5,-316.6 379.5,-322.6 375.5,-328.6"/>
<text text-anchor="middle" x="400" y="-338" font-family="Helvetica,sans-Serif" font-size="10.00"> +elements</text>
</g>
</g>
</svg>
        <g id="navigator" transform="translate(0 0)" fill="#404254">
                <rect fill="#f2f5e9" fill-opacity="0.5" stroke="#606060" stroke-width=".5" x="0" y="0" width="60" height="60"/>
                <use id="zoomplus" xlink:href="#zoomPlus" x="17" y="9" onmousedown="handleZoom(evt,'in')"/>
                <use id="zoomminus" xlink:href="#zoomMin" x="42" y="9" onmousedown="handleZoom(evt,'out')"/>
                <use id="reset" xlink:href="#resetDef" x="30" y="36" onmousedown="handleReset()"/>
                <g id="arrowUp" xlink:href="#dirArrow" transform="translate(30 24)" onmousedown="handlePan(0,-1)">
                  <use xlink:href="#rim" fill="#404040">
                        <set attributeName="fill" to="#808080" begin="arrowUp.mouseover" end="arrowUp.mouseout"/>
                  </use>
                  <path fill="none" stroke="white" stroke-width="1.5" d="M0,-3.0v7 M-2.5,-0.5L0,-3.0L2.5,-0.5"/>
                </g>
                <g id="arrowRight" xlink:href="#dirArrow" transform="rotate(90) translate(36 -43)" onmousedown="handlePan(1,0)">
                  <use xlink:href="#rim" fill="#404040">
                        <set attributeName="fill" to="#808080" begin="arrowRight.mouseover" end="arrowRight.mouseout"/>
                  </use>
                  <path fill="none" stroke="white" stroke-width="1.5" d="M0,-3.0v7 M-2.5,-0.5L0,-3.0L2.5,-0.5"/>
                </g>
                <g id="arrowDown" xlink:href="#dirArrow" transform="rotate(180) translate(-30 -48)" onmousedown="handlePan(0,1)">
                  <use xlink:href="#rim" fill="#404040">
                        <set attributeName="fill" to="#808080" begin="arrowDown.mouseover" end="arrowDown.mouseout"/>
                  </use>
                  <path fill="none" stroke="white" stroke-width="1.5" d="M0,-3.0v7 M-2.5,-0.5L0,-3.0L2.5,-0.5"/>
                </g>
                <g id="arrowLeft" xlink:href="#dirArrow" transform="rotate(270) translate(-36 17)" onmousedown="handlePan(-1,0)">
                  <use xlink:href="#rim" fill="#404040">
                        <set attributeName="fill" to="#808080" begin="arrowLeft.mouseover" end="arrowLeft.mouseout"/>
                  </use>
                  <path fill="none" stroke="white" stroke-width="1.5" d="M0,-3.0v7 M-2.5,-0.5L0,-3.0L2.5,-0.5"/>
                </g>
        </g>
        <svg viewBox="0 0 15 15" width="100%" height="30px" preserveAspectRatio="xMaxYMin meet">
         <g id="arrow_out" transform="scale(0.3 0.3)">
          <a xlink:href="class_model_1_1_player_party__coll__graph_org.svg" target="_base">
           <rect id="button" ry="5" rx="5" y="6" x="6" height="38" width="38"
                fill="#f2f5e9" fill-opacity="0.5" stroke="#606060" stroke-width="1.0"/>
           <path id="arrow"
             d="M 11.500037,31.436501 C 11.940474,20.09759 22.043105,11.32322 32.158766,21.979434 L 37.068811,17.246167 C 37.068811,17.246167 37.088388,32 37.088388,32 L 22.160133,31.978069 C 22.160133,31.978069 26.997745,27.140456 26.997745,27.140456 C 18.528582,18.264221 13.291696,25.230495 11.500037,31.436501 z"
             style="fill:#404040;"/>
          </a>
         </g>
        </svg>
</svg>
