<?xml version="1.0" encoding="UTF-8" standalone="no"?>
<!DOCTYPE svg PUBLIC "-//W3C//DTD SVG 1.1//EN"
 "http://www.w3.org/Graphics/SVG/1.1/DTD/svg11.dtd">
<!-- Generated by graphviz version 2.38.0 (20140413.2041)
 -->
<!-- Title: Model::PlayerParty::retireCyborg Pages: 1 -->
<svg width="255pt" height="88pt"
 viewBox="0.00 0.00 255.00 88.00" xmlns="http://www.w3.org/2000/svg" xmlns:xlink="http://www.w3.org/1999/xlink">
<g id="graph0" class="graph" transform="scale(1 1) rotate(0) translate(4 84)">
<title>Model::PlayerParty::retireCyborg</title>
<polygon fill="white" stroke="none" points="-4,4 -4,-84 251,-84 251,4 -4,4"/>
<!-- Node56 -->
<g id="node1" class="node"><title>Node56</title>
<polygon fill="#bfbfbf" stroke="black" points="0,-24.5 0,-54.5 100,-54.5 100,-24.5 0,-24.5"/>
<text text-anchor="start" x="8" y="-42.5" font-family="Helvetica,sans-Serif" font-size="10.00">Model::PlayerParty</text>
<text text-anchor="middle" x="50" y="-31.5" font-family="Helvetica,sans-Serif" font-size="10.00">::retireCyborg</text>
</g>
<!-- Node57 -->
<g id="node2" class="node"><title>Node57</title>
<g id="a_node2"><a xlink:href="class_model_1_1_player_party.html#ab33abac5217cb3fa2bda54d9f307d220" target="_top" xlink:title="Model::PlayerParty\l::getActor">
<polygon fill="white" stroke="black" points="141.5,-49.5 141.5,-79.5 241.5,-79.5 241.5,-49.5 141.5,-49.5"/>
<text text-anchor="start" x="149.5" y="-67.5" font-family="Helvetica,sans-Serif" font-size="10.00">Model::PlayerParty</text>
<text text-anchor="middle" x="191.5" y="-56.5" font-family="Helvetica,sans-Serif" font-size="10.00">::getActor</text>
</a>
</g>
</g>
<!-- Node56&#45;&gt;Node57 -->
<g id="edge1" class="edge"><title>Node56&#45;&gt;Node57</title>
<path fill="none" stroke="midnightblue" d="M100.182,-48.3141C110.288,-50.1251 121.026,-52.0495 131.439,-53.9156"/>
<polygon fill="midnightblue" stroke="midnightblue" points="130.831,-57.3623 141.291,-55.6813 132.066,-50.4721 130.831,-57.3623"/>
</g>
<!-- Node58 -->
<g id="node3" class="node"><title>Node58</title>
<g id="a_node3"><a xlink:href="class_model_1_1_cyber_teekkari.html#a77b3323185bc503e56f72a9a54911fc0" target="_top" xlink:title="Model::CyberTeekkari\l::setDead">
<polygon fill="white" stroke="black" points="136,-0.5 136,-30.5 247,-30.5 247,-0.5 136,-0.5"/>
<text text-anchor="start" x="144" y="-18.5" font-family="Helvetica,sans-Serif" font-size="10.00">Model::CyberTeekkari</text>
<text text-anchor="middle" x="191.5" y="-7.5" font-family="Helvetica,sans-Serif" font-size="10.00">::setDead</text>
</a>
</g>
</g>
<!-- Node56&#45;&gt;Node58 -->
<g id="edge2" class="edge"><title>Node56&#45;&gt;Node58</title>
<path fill="none" stroke="midnightblue" d="M100.182,-31.0385C108.414,-29.6223 117.065,-28.1339 125.619,-26.6624"/>
<polygon fill="midnightblue" stroke="midnightblue" points="126.322,-30.093 135.583,-24.948 125.135,-23.1943 126.322,-30.093"/>
</g>
</g>
</svg>
