<?xml version="1.0" encoding="UTF-8" standalone="no"?>
<!DOCTYPE svg PUBLIC "-//W3C//DTD SVG 1.1//EN"
 "http://www.w3.org/Graphics/SVG/1.1/DTD/svg11.dtd">
<!-- Generated by graphviz version 2.38.0 (20140413.2041)
 -->
<!-- Title: View::CityScape::initCityScape Pages: 1 -->
<svg width="312pt" height="66pt"
 viewBox="0.00 0.00 312.00 66.00" xmlns="http://www.w3.org/2000/svg" xmlns:xlink="http://www.w3.org/1999/xlink">
<g id="graph0" class="graph" transform="scale(1 1) rotate(0) translate(4 62)">
<title>View::CityScape::initCityScape</title>
<polygon fill="white" stroke="none" points="-4,4 -4,-62 308,-62 308,4 -4,4"/>
<!-- Node13 -->
<g id="node1" class="node"><title>Node13</title>
<polygon fill="#bfbfbf" stroke="black" points="0,-14 0,-44 125,-44 125,-14 0,-14"/>
<text text-anchor="start" x="8" y="-32" font-family="Helvetica,sans-Serif" font-size="10.00">View::CityScape::initCity</text>
<text text-anchor="middle" x="62.5" y="-21" font-family="Helvetica,sans-Serif" font-size="10.00">Scape</text>
</g>
<!-- Node14 -->
<g id="node2" class="node"><title>Node14</title>
<g id="a_node2"><a xlink:href="class_view_1_1_view.html#a3864eb93def76d37cc1416bbb49e8193" target="_top" xlink:title="View::View::createCityScape">
<polygon fill="white" stroke="black" points="161,-38.5 161,-57.5 304,-57.5 304,-38.5 161,-38.5"/>
<text text-anchor="middle" x="232.5" y="-45.5" font-family="Helvetica,sans-Serif" font-size="10.00">View::View::createCityScape</text>
</a>
</g>
</g>
<!-- Node13&#45;&gt;Node14 -->
<g id="edge1" class="edge"><title>Node13&#45;&gt;Node14</title>
<path fill="none" stroke="midnightblue" d="M135.304,-37.1207C143.754,-38.0764 152.373,-39.0511 160.808,-40.0051"/>
<polygon fill="midnightblue" stroke="midnightblue" points="135.433,-33.6131 125.103,-35.967 134.646,-40.5687 135.433,-33.6131"/>
</g>
<!-- Node15 -->
<g id="node3" class="node"><title>Node15</title>
<g id="a_node3"><a xlink:href="class_view_1_1_view.html#a2817964f9b91d81fd5cc2e955c20583f" target="_top" xlink:title="View::View::missionEnded">
<polygon fill="white" stroke="black" points="166.5,-0.5 166.5,-19.5 298.5,-19.5 298.5,-0.5 166.5,-0.5"/>
<text text-anchor="middle" x="232.5" y="-7.5" font-family="Helvetica,sans-Serif" font-size="10.00">View::View::missionEnded</text>
</a>
</g>
</g>
<!-- Node13&#45;&gt;Node15 -->
<g id="edge2" class="edge"><title>Node13&#45;&gt;Node15</title>
<path fill="none" stroke="midnightblue" d="M135.277,-20.8824C145.557,-19.7197 156.087,-18.5288 166.233,-17.3814"/>
<polygon fill="midnightblue" stroke="midnightblue" points="134.646,-17.4313 125.103,-22.033 135.433,-24.3869 134.646,-17.4313"/>
</g>
</g>
</svg>
