<?xml version="1.0" encoding="UTF-8" standalone="no"?>
<!DOCTYPE svg PUBLIC "-//W3C//DTD SVG 1.1//EN"
 "http://www.w3.org/Graphics/SVG/1.1/DTD/svg11.dtd">
<!-- Generated by graphviz version 2.38.0 (20140413.2041)
 -->
<!-- Title: View::HeadQuartersUI::buyWeaponButtonPushed Pages: 1 -->
<svg width="442pt" height="39pt"
 viewBox="0.00 0.00 442.00 39.00" xmlns="http://www.w3.org/2000/svg" xmlns:xlink="http://www.w3.org/1999/xlink">
<g id="graph0" class="graph" transform="scale(1 1) rotate(0) translate(4 35)">
<title>View::HeadQuartersUI::buyWeaponButtonPushed</title>
<polygon fill="white" stroke="none" points="-4,4 -4,-35 438,-35 438,4 -4,4"/>
<!-- Node23 -->
<g id="node1" class="node"><title>Node23</title>
<polygon fill="#bfbfbf" stroke="black" points="0,-0.5 0,-30.5 136,-30.5 136,-0.5 0,-0.5"/>
<text text-anchor="start" x="8" y="-18.5" font-family="Helvetica,sans-Serif" font-size="10.00">View::HeadQuartersUI</text>
<text text-anchor="middle" x="68" y="-7.5" font-family="Helvetica,sans-Serif" font-size="10.00">::buyWeaponButtonPushed</text>
</g>
<!-- Node24 -->
<g id="node2" class="node"><title>Node24</title>
<g id="a_node2"><a xlink:href="class_view_1_1_head_quarters_u_i.html#a504906d7f958448301b500a3762ff618" target="_top" xlink:title="View::HeadQuartersUI\l::connectShopUI">
<polygon fill="white" stroke="black" points="172,-0.5 172,-30.5 285,-30.5 285,-0.5 172,-0.5"/>
<text text-anchor="start" x="180" y="-18.5" font-family="Helvetica,sans-Serif" font-size="10.00">View::HeadQuartersUI</text>
<text text-anchor="middle" x="228.5" y="-7.5" font-family="Helvetica,sans-Serif" font-size="10.00">::connectShopUI</text>
</a>
</g>
</g>
<!-- Node23&#45;&gt;Node24 -->
<g id="edge1" class="edge"><title>Node23&#45;&gt;Node24</title>
<path fill="none" stroke="midnightblue" d="M146.247,-15.5C154.824,-15.5 163.431,-15.5 171.668,-15.5"/>
<polygon fill="midnightblue" stroke="midnightblue" points="146.218,-12.0001 136.218,-15.5 146.218,-19.0001 146.218,-12.0001"/>
</g>
<!-- Node25 -->
<g id="node3" class="node"><title>Node25</title>
<g id="a_node3"><a xlink:href="class_view_1_1_head_quarters_u_i.html#a98db9788c668433314da83b183101f0c" target="_top" xlink:title="View::HeadQuartersUI\l::HeadQuartersUI">
<polygon fill="white" stroke="black" points="321,-0.5 321,-30.5 434,-30.5 434,-0.5 321,-0.5"/>
<text text-anchor="start" x="329" y="-18.5" font-family="Helvetica,sans-Serif" font-size="10.00">View::HeadQuartersUI</text>
<text text-anchor="middle" x="377.5" y="-7.5" font-family="Helvetica,sans-Serif" font-size="10.00">::HeadQuartersUI</text>
</a>
</g>
</g>
<!-- Node24&#45;&gt;Node25 -->
<g id="edge2" class="edge"><title>Node24&#45;&gt;Node25</title>
<path fill="none" stroke="midnightblue" d="M295.078,-15.5C303.681,-15.5 312.43,-15.5 320.847,-15.5"/>
<polygon fill="midnightblue" stroke="midnightblue" points="295.074,-12.0001 285.074,-15.5 295.074,-19.0001 295.074,-12.0001"/>
</g>
</g>
</svg>
