<?xml version="1.0" encoding="UTF-8" standalone="no"?>
<!DOCTYPE svg PUBLIC "-//W3C//DTD SVG 1.1//EN"
 "http://www.w3.org/Graphics/SVG/1.1/DTD/svg11.dtd">
<!-- Generated by graphviz version 2.38.0 (20140413.2041)
 -->
<!-- Title: View::CityScape Pages: 1 -->
<svg width="516pt" height="281pt"
 viewBox="0.00 0.00 515.50 281.00" xmlns="http://www.w3.org/2000/svg" xmlns:xlink="http://www.w3.org/1999/xlink">
<g id="graph0" class="graph" transform="scale(1 1) rotate(0) translate(4 277)">
<title>View::CityScape</title>
<polygon fill="white" stroke="none" points="-4,4 -4,-277 511.5,-277 511.5,4 -4,4"/>
<!-- Node2 -->
<g id="node1" class="node"><title>Node2</title>
<polygon fill="#bfbfbf" stroke="black" points="129,-0.5 129,-145.5 302,-145.5 302,-0.5 129,-0.5"/>
<text text-anchor="middle" x="215.5" y="-133.5" font-family="Helvetica,sans-Serif" font-size="10.00">View::CityScape</text>
<polyline fill="none" stroke="black" points="129,-126.5 302,-126.5 "/>
<text text-anchor="middle" x="215.5" y="-114.5" font-family="Helvetica,sans-Serif" font-size="10.00"> </text>
<polyline fill="none" stroke="black" points="129,-107.5 302,-107.5 "/>
<text text-anchor="start" x="137" y="-95.5" font-family="Helvetica,sans-Serif" font-size="10.00">+ CityScape()</text>
<text text-anchor="start" x="137" y="-84.5" font-family="Helvetica,sans-Serif" font-size="10.00">+ ~CityScape()</text>
<text text-anchor="start" x="137" y="-73.5" font-family="Helvetica,sans-Serif" font-size="10.00">+ initCityScape()</text>
<text text-anchor="start" x="137" y="-62.5" font-family="Helvetica,sans-Serif" font-size="10.00">+ addParkingHalls()</text>
<text text-anchor="start" x="137" y="-51.5" font-family="Helvetica,sans-Serif" font-size="10.00">+ updateParkingHall()</text>
<text text-anchor="start" x="137" y="-40.5" font-family="Helvetica,sans-Serif" font-size="10.00">+ resizeMap()</text>
<text text-anchor="start" x="137" y="-29.5" font-family="Helvetica,sans-Serif" font-size="10.00">+ parkingHallInformationRequested()</text>
<text text-anchor="start" x="137" y="-18.5" font-family="Helvetica,sans-Serif" font-size="10.00">+ parkingHallSelectRequested()</text>
<text text-anchor="start" x="137" y="-7.5" font-family="Helvetica,sans-Serif" font-size="10.00">+ missionSelectRequested()</text>
</g>
<!-- Node3 -->
<g id="node2" class="node"><title>Node3</title>
<g id="a_node2"><a xlink:href="class_q_graphics_scene.html" target="_top" xlink:title="{QGraphicsScene\n||}">
<polygon fill="white" stroke="black" points="0,-210 0,-267 91,-267 91,-210 0,-210"/>
<text text-anchor="middle" x="45.5" y="-255" font-family="Helvetica,sans-Serif" font-size="10.00">QGraphicsScene</text>
<polyline fill="none" stroke="black" points="0,-248 91,-248 "/>
<text text-anchor="middle" x="45.5" y="-236" font-family="Helvetica,sans-Serif" font-size="10.00"> </text>
<polyline fill="none" stroke="black" points="0,-229 91,-229 "/>
<text text-anchor="middle" x="45.5" y="-217" font-family="Helvetica,sans-Serif" font-size="10.00"> </text>
</a>
</g>
</g>
<!-- Node3&#45;&gt;Node2 -->
<g id="edge1" class="edge"><title>Node3&#45;&gt;Node2</title>
<path fill="none" stroke="midnightblue" d="M81.9786,-202.416C99.2619,-185.794 120.57,-165.301 141.048,-145.606"/>
<polygon fill="none" stroke="midnightblue" points="79.1195,-200.31 74.3382,-209.764 83.9719,-205.355 79.1195,-200.31"/>
</g>
<!-- Node4 -->
<g id="node3" class="node"><title>Node4</title>
<polygon fill="white" stroke="#bfbfbf" points="109,-210 109,-267 154,-267 154,-210 109,-210"/>
<text text-anchor="middle" x="131.5" y="-255" font-family="Helvetica,sans-Serif" font-size="10.00">double</text>
<polyline fill="none" stroke="#bfbfbf" points="109,-248 154,-248 "/>
<text text-anchor="middle" x="131.5" y="-236" font-family="Helvetica,sans-Serif" font-size="10.00"> </text>
<polyline fill="none" stroke="#bfbfbf" points="109,-229 154,-229 "/>
<text text-anchor="middle" x="131.5" y="-217" font-family="Helvetica,sans-Serif" font-size="10.00"> </text>
</g>
<!-- Node4&#45;&gt;Node2 -->
<g id="edge2" class="edge"><title>Node4&#45;&gt;Node2</title>
<path fill="none" stroke="#404040" d="M136.121,-209.78C139.103,-195.643 143.718,-178.434 150.5,-164 151.727,-161.387 153.034,-158.772 154.406,-156.164"/>
<polygon fill="none" stroke="#404040" points="154.513,-155.973 153.956,-148.784 160.379,-145.505 160.935,-152.695 154.513,-155.973"/>
<text text-anchor="middle" x="181" y="-178" font-family="Helvetica,sans-Serif" font-size="10.00"> &#45;cityImageY_</text>
<text text-anchor="middle" x="181" y="-167" font-family="Helvetica,sans-Serif" font-size="10.00">&#45;cityImageX_</text>
</g>
<!-- Node5 -->
<g id="node4" class="node"><title>Node5</title>
<polygon fill="white" stroke="#bfbfbf" points="190.5,-210 190.5,-267 240.5,-267 240.5,-210 190.5,-210"/>
<text text-anchor="middle" x="215.5" y="-255" font-family="Helvetica,sans-Serif" font-size="10.00">QString</text>
<polyline fill="none" stroke="#bfbfbf" points="190.5,-248 240.5,-248 "/>
<text text-anchor="middle" x="215.5" y="-236" font-family="Helvetica,sans-Serif" font-size="10.00"> </text>
<polyline fill="none" stroke="#bfbfbf" points="190.5,-229 240.5,-229 "/>
<text text-anchor="middle" x="215.5" y="-217" font-family="Helvetica,sans-Serif" font-size="10.00"> </text>
</g>
<!-- Node5&#45;&gt;Node2 -->
<g id="edge3" class="edge"><title>Node5&#45;&gt;Node2</title>
<path fill="none" stroke="#404040" d="M215.5,-209.764C215.5,-195.196 215.5,-176.486 215.5,-157.642"/>
<polygon fill="none" stroke="#404040" points="215.5,-157.606 211.5,-151.606 215.5,-145.606 219.5,-151.606 215.5,-157.606"/>
<text text-anchor="middle" x="264.5" y="-172.5" font-family="Helvetica,sans-Serif" font-size="10.00"> &#45;selectedParkingHall_</text>
</g>
<!-- Node6 -->
<g id="node5" class="node"><title>Node6</title>
<polygon fill="white" stroke="#bfbfbf" points="258.5,-204.5 258.5,-272.5 414.5,-272.5 414.5,-204.5 258.5,-204.5"/>
<text text-anchor="start" x="266.5" y="-260.5" font-family="Helvetica,sans-Serif" font-size="10.00">vector&lt; View::CityScapeParking</text>
<text text-anchor="middle" x="336.5" y="-249.5" font-family="Helvetica,sans-Serif" font-size="10.00">Hall * &gt;</text>
<polyline fill="none" stroke="#bfbfbf" points="258.5,-242.5 414.5,-242.5 "/>
<text text-anchor="middle" x="336.5" y="-230.5" font-family="Helvetica,sans-Serif" font-size="10.00"> </text>
<polyline fill="none" stroke="#bfbfbf" points="258.5,-223.5 414.5,-223.5 "/>
<text text-anchor="middle" x="336.5" y="-211.5" font-family="Helvetica,sans-Serif" font-size="10.00"> </text>
</g>
<!-- Node6&#45;&gt;Node2 -->
<g id="edge4" class="edge"><title>Node6&#45;&gt;Node2</title>
<path fill="none" stroke="#404040" d="M330.628,-204.413C327.278,-191.157 322.165,-176.173 314.5,-164 312.644,-161.051 310.665,-158.14 308.584,-155.27"/>
<polygon fill="none" stroke="#404040" points="308.505,-155.167 301.667,-152.878 301.15,-145.685 307.988,-147.974 308.505,-155.167"/>
<text text-anchor="middle" x="358" y="-172.5" font-family="Helvetica,sans-Serif" font-size="10.00"> &#45;parkingHalls_</text>
</g>
<!-- Node7 -->
<g id="node6" class="node"><title>Node7</title>
<polygon fill="white" stroke="#bfbfbf" points="433,-210 433,-267 490,-267 490,-210 433,-210"/>
<text text-anchor="middle" x="461.5" y="-255" font-family="Helvetica,sans-Serif" font-size="10.00">QImage *</text>
<polyline fill="none" stroke="#bfbfbf" points="433,-248 490,-248 "/>
<text text-anchor="middle" x="461.5" y="-236" font-family="Helvetica,sans-Serif" font-size="10.00"> </text>
<polyline fill="none" stroke="#bfbfbf" points="433,-229 490,-229 "/>
<text text-anchor="middle" x="461.5" y="-217" font-family="Helvetica,sans-Serif" font-size="10.00"> </text>
</g>
<!-- Node7&#45;&gt;Node2 -->
<g id="edge5" class="edge"><title>Node7&#45;&gt;Node2</title>
<path fill="none" stroke="#404040" d="M440.333,-209.702C428.075,-194.87 411.698,-177.04 394.5,-164 369.787,-145.261 340.574,-128.658 312.994,-114.976"/>
<polygon fill="none" stroke="#404040" points="312.903,-114.931 305.758,-115.904 302.111,-109.683 309.257,-108.71 312.903,-114.931"/>
<text text-anchor="middle" x="463.5" y="-172.5" font-family="Helvetica,sans-Serif" font-size="10.00"> &#45;backgroundImage_</text>
</g>
</g>
</svg>
