<?xml version="1.0" encoding="UTF-8" standalone="no"?>
<!DOCTYPE svg PUBLIC "-//W3C//DTD SVG 1.1//EN"
 "http://www.w3.org/Graphics/SVG/1.1/DTD/svg11.dtd">
<!-- Generated by graphviz version 2.38.0 (20140413.2041)
 -->
<!-- Title: View::ViewSideDisplayManager Pages: 1 -->
<!--zoomable 612 -->
<svg id="main" version="1.1" xmlns="http://www.w3.org/2000/svg" xmlns:xlink="http://www.w3.org/1999/xlink" xml:space="preserve" onload="init(evt)">
<style type="text/css"><![CDATA[
.edge:hover path { stroke: red; }
.edge:hover polygon { stroke: red; fill: red; }
]]></style>
<script type="text/javascript"><![CDATA[
var edges = document.getElementsByTagName('g');
if (edges && edges.length) {
  for (var i=0;i<edges.length;i++) {
    if (edges[i].id.substr(0,4)=='edge') {
      edges[i].setAttribute('class','edge');
    }
  }
}
]]></script>
        <defs>
                <circle id="rim" cx="0" cy="0" r="7"/>
                <circle id="rim2" cx="0" cy="0" r="3.5"/>
                <g id="zoomPlus">
                        <use xlink:href="#rim" fill="#404040">
                                <set attributeName="fill" to="#808080" begin="zoomplus.mouseover" end="zoomplus.mouseout"/>
                        </use>
                        <path d="M-4,0h8M0,-4v8" fill="none" stroke="white" stroke-width="1.5" pointer-events="none"/>
                </g>
                <g id="zoomMin">
                        <use xlink:href="#rim" fill="#404040">
                                <set attributeName="fill" to="#808080" begin="zoomminus.mouseover" end="zoomminus.mouseout"/>
                        </use>
                        <path d="M-4,0h8" fill="none" stroke="white" stroke-width="1.5" pointer-events="none"/>
                </g>
                <g id="dirArrow">
                        <path fill="none" stroke="white" stroke-width="1.5" d="M0,-3.0v7 M-2.5,-0.5L0,-3.0L2.5,-0.5"/>
                </g>
               <g id="resetDef">
                       <use xlink:href="#rim2" fill="#404040">
                               <set attributeName="fill" to="#808080" begin="reset.mouseover" end="reset.mouseout"/>
                       </use>
               </g>
        </defs>

<script type="text/javascript">
var viewWidth = 1519;
var viewHeight = 612;
var sectionId = 'dynsection-1';
</script>
<script xlink:href="svgpan.js"/>
<svg id="graph" class="graph">
<g id="viewport">
<title>View::ViewSideDisplayManager</title>
<polygon fill="white" stroke="none" points="-4,4 -4,-608 1515,-608 1515,4 -4,4"/>
<!-- Node2 -->
<g id="node1" class="node"><title>Node2</title>
<polygon fill="#bfbfbf" stroke="black" points="631,-0.5 631,-200.5 798,-200.5 798,-0.5 631,-0.5"/>
<text text-anchor="middle" x="714.5" y="-188.5" font-family="Helvetica,sans-Serif" font-size="10.00">View::ViewSideDisplayManager</text>
<polyline fill="none" stroke="black" points="631,-181.5 798,-181.5 "/>
<text text-anchor="middle" x="714.5" y="-169.5" font-family="Helvetica,sans-Serif" font-size="10.00"> </text>
<polyline fill="none" stroke="black" points="631,-162.5 798,-162.5 "/>
<text text-anchor="start" x="639" y="-150.5" font-family="Helvetica,sans-Serif" font-size="10.00">+ ViewSideDisplayManager()</text>
<text text-anchor="start" x="639" y="-139.5" font-family="Helvetica,sans-Serif" font-size="10.00">+ ~ViewSideDisplayManager()</text>
<text text-anchor="start" x="639" y="-128.5" font-family="Helvetica,sans-Serif" font-size="10.00">+ initAllDisplays()</text>
<text text-anchor="start" x="639" y="-117.5" font-family="Helvetica,sans-Serif" font-size="10.00">+ changeSelectedActor()</text>
<text text-anchor="start" x="639" y="-106.5" font-family="Helvetica,sans-Serif" font-size="10.00">+ setSelectedWeapon()</text>
<text text-anchor="start" x="639" y="-95.5" font-family="Helvetica,sans-Serif" font-size="10.00">+ updatePortraitDisplay()</text>
<text text-anchor="start" x="639" y="-84.5" font-family="Helvetica,sans-Serif" font-size="10.00">+ updateHitPointOrAmmoDisplay()</text>
<text text-anchor="start" x="639" y="-73.5" font-family="Helvetica,sans-Serif" font-size="10.00">+ updateWeaponDisplay()</text>
<text text-anchor="start" x="639" y="-62.5" font-family="Helvetica,sans-Serif" font-size="10.00">+ updateMissionDisplay()</text>
<text text-anchor="start" x="639" y="-51.5" font-family="Helvetica,sans-Serif" font-size="10.00">+ setMissionLabelsVisible()</text>
<text text-anchor="start" x="639" y="-40.5" font-family="Helvetica,sans-Serif" font-size="10.00">and 13 more...</text>
<text text-anchor="start" x="639" y="-29.5" font-family="Helvetica,sans-Serif" font-size="10.00">+ startMissionButtonPushed()</text>
<text text-anchor="start" x="639" y="-18.5" font-family="Helvetica,sans-Serif" font-size="10.00">&#45; getIndex()</text>
<text text-anchor="start" x="639" y="-7.5" font-family="Helvetica,sans-Serif" font-size="10.00">&#45; getDisplay()</text>
</g>
<!-- Node3 -->
<g id="node2" class="node"><title>Node3</title>
<g id="a_node2"><a xlink:href="class_q_widget.html" target="_top" xlink:title="{QWidget\n||}">
<polygon fill="white" stroke="black" points="0,-281.5 0,-338.5 55,-338.5 55,-281.5 0,-281.5"/>
<text text-anchor="middle" x="27.5" y="-326.5" font-family="Helvetica,sans-Serif" font-size="10.00">QWidget</text>
<polyline fill="none" stroke="black" points="0,-319.5 55,-319.5 "/>
<text text-anchor="middle" x="27.5" y="-307.5" font-family="Helvetica,sans-Serif" font-size="10.00"> </text>
<polyline fill="none" stroke="black" points="0,-300.5 55,-300.5 "/>
<text text-anchor="middle" x="27.5" y="-288.5" font-family="Helvetica,sans-Serif" font-size="10.00"> </text>
</a>
</g>
</g>
<!-- Node3&#45;&gt;Node2 -->
<g id="edge1" class="edge"><title>Node3&#45;&gt;Node2</title>
<path fill="none" stroke="midnightblue" d="M57.9234,-274.475C60.056,-272.845 62.2536,-271.335 64.5,-270 140.027,-225.104 170.495,-241.228 255.5,-219 386.411,-184.767 538.605,-146.012 630.676,-122.682"/>
<polygon fill="none" stroke="midnightblue" points="55.3529,-272.07 50.0542,-281.244 59.9178,-277.376 55.3529,-272.07"/>
</g>
<!-- Node4 -->
<g id="node3" class="node"><title>Node4</title>
<polygon fill="white" stroke="#bfbfbf" points="73.5,-281.5 73.5,-338.5 231.5,-338.5 231.5,-281.5 73.5,-281.5"/>
<text text-anchor="middle" x="152.5" y="-326.5" font-family="Helvetica,sans-Serif" font-size="10.00">std::vector&lt; QGraphicsScene *&gt;</text>
<polyline fill="none" stroke="#bfbfbf" points="73.5,-319.5 231.5,-319.5 "/>
<text text-anchor="middle" x="152.5" y="-307.5" font-family="Helvetica,sans-Serif" font-size="10.00"> </text>
<polyline fill="none" stroke="#bfbfbf" points="73.5,-300.5 231.5,-300.5 "/>
<text text-anchor="middle" x="152.5" y="-288.5" font-family="Helvetica,sans-Serif" font-size="10.00"> </text>
</g>
<!-- Node4&#45;&gt;Node2 -->
<g id="edge2" class="edge"><title>Node4&#45;&gt;Node2</title>
<path fill="none" stroke="#404040" d="M200.425,-281.371C234.988,-262.191 283.169,-236.958 327.5,-219 424.376,-179.756 539.44,-146.422 618.786,-125.395"/>
<polygon fill="none" stroke="#404040" points="619.111,-125.309 623.895,-119.914 630.716,-122.254 625.931,-127.65 619.111,-125.309"/>
<text text-anchor="middle" x="351.5" y="-233" font-family="Helvetica,sans-Serif" font-size="10.00"> &#45;displays_</text>
</g>
<!-- Node5 -->
<g id="node4" class="node"><title>Node5</title>
<polygon fill="white" stroke="#bfbfbf" points="103.5,-414 103.5,-471 201.5,-471 201.5,-414 103.5,-414"/>
<text text-anchor="middle" x="152.5" y="-459" font-family="Helvetica,sans-Serif" font-size="10.00">QGraphicsScene *</text>
<polyline fill="none" stroke="#bfbfbf" points="103.5,-452 201.5,-452 "/>
<text text-anchor="middle" x="152.5" y="-440" font-family="Helvetica,sans-Serif" font-size="10.00"> </text>
<polyline fill="none" stroke="#bfbfbf" points="103.5,-433 201.5,-433 "/>
<text text-anchor="middle" x="152.5" y="-421" font-family="Helvetica,sans-Serif" font-size="10.00"> </text>
</g>
<!-- Node5&#45;&gt;Node4 -->
<g id="edge3" class="edge"><title>Node5&#45;&gt;Node4</title>
<path fill="none" stroke="#404040" d="M152.5,-413.824C152.5,-395.484 152.5,-371.137 152.5,-350.738"/>
<polygon fill="none" stroke="#404040" points="152.5,-350.636 148.5,-344.636 152.5,-338.636 156.5,-344.636 152.5,-350.636"/>
<text text-anchor="middle" x="177" y="-371" font-family="Helvetica,sans-Serif" font-size="10.00"> +elements</text>
</g>
<!-- Node6 -->
<g id="node5" class="node"><title>Node6</title>
<polygon fill="white" stroke="#bfbfbf" points="249.5,-281.5 249.5,-338.5 373.5,-338.5 373.5,-281.5 249.5,-281.5"/>
<text text-anchor="middle" x="311.5" y="-326.5" font-family="Helvetica,sans-Serif" font-size="10.00">std::vector&lt; QPixmap *&gt;</text>
<polyline fill="none" stroke="#bfbfbf" points="249.5,-319.5 373.5,-319.5 "/>
<text text-anchor="middle" x="311.5" y="-307.5" font-family="Helvetica,sans-Serif" font-size="10.00"> </text>
<polyline fill="none" stroke="#bfbfbf" points="249.5,-300.5 373.5,-300.5 "/>
<text text-anchor="middle" x="311.5" y="-288.5" font-family="Helvetica,sans-Serif" font-size="10.00"> </text>
</g>
<!-- Node6&#45;&gt;Node2 -->
<g id="edge4" class="edge"><title>Node6&#45;&gt;Node2</title>
<path fill="none" stroke="#404040" d="M341.716,-281.25C363.757,-262.013 394.991,-236.762 425.5,-219 487.044,-183.169 561.606,-153.149 619.578,-132.422"/>
<polygon fill="none" stroke="#404040" points="619.63,-132.404 623.952,-126.632 630.943,-128.401 626.62,-134.173 619.63,-132.404"/>
<text text-anchor="middle" x="459" y="-238.5" font-family="Helvetica,sans-Serif" font-size="10.00"> &#45;hpImages_</text>
<text text-anchor="middle" x="459" y="-227.5" font-family="Helvetica,sans-Serif" font-size="10.00">&#45;ammoImages_</text>
</g>
<!-- Node7 -->
<g id="node6" class="node"><title>Node7</title>
<polygon fill="white" stroke="#bfbfbf" points="279.5,-414 279.5,-471 343.5,-471 343.5,-414 279.5,-414"/>
<text text-anchor="middle" x="311.5" y="-459" font-family="Helvetica,sans-Serif" font-size="10.00">QPixmap *</text>
<polyline fill="none" stroke="#bfbfbf" points="279.5,-452 343.5,-452 "/>
<text text-anchor="middle" x="311.5" y="-440" font-family="Helvetica,sans-Serif" font-size="10.00"> </text>
<polyline fill="none" stroke="#bfbfbf" points="279.5,-433 343.5,-433 "/>
<text text-anchor="middle" x="311.5" y="-421" font-family="Helvetica,sans-Serif" font-size="10.00"> </text>
</g>
<!-- Node7&#45;&gt;Node6 -->
<g id="edge5" class="edge"><title>Node7&#45;&gt;Node6</title>
<path fill="none" stroke="#404040" d="M311.5,-413.824C311.5,-395.484 311.5,-371.137 311.5,-350.738"/>
<polygon fill="none" stroke="#404040" points="311.5,-350.636 307.5,-344.636 311.5,-338.636 315.5,-344.636 311.5,-350.636"/>
<text text-anchor="middle" x="336" y="-371" font-family="Helvetica,sans-Serif" font-size="10.00"> +elements</text>
</g>
<!-- Node8 -->
<g id="node7" class="node"><title>Node8</title>
<polygon fill="white" stroke="#bfbfbf" points="391.5,-281.5 391.5,-338.5 511.5,-338.5 511.5,-281.5 391.5,-281.5"/>
<text text-anchor="middle" x="451.5" y="-326.5" font-family="Helvetica,sans-Serif" font-size="10.00">std::vector&lt; QPixmap &gt;</text>
<polyline fill="none" stroke="#bfbfbf" points="391.5,-319.5 511.5,-319.5 "/>
<text text-anchor="middle" x="451.5" y="-307.5" font-family="Helvetica,sans-Serif" font-size="10.00"> </text>
<polyline fill="none" stroke="#bfbfbf" points="391.5,-300.5 511.5,-300.5 "/>
<text text-anchor="middle" x="451.5" y="-288.5" font-family="Helvetica,sans-Serif" font-size="10.00"> </text>
</g>
<!-- Node8&#45;&gt;Node2 -->
<g id="edge6" class="edge"><title>Node8&#45;&gt;Node2</title>
<path fill="none" stroke="#404040" d="M471.166,-281.469C485.479,-262.574 506.04,-237.643 527.5,-219 555.586,-194.601 589.246,-171.817 620.22,-152.93"/>
<polygon fill="none" stroke="#404040" points="620.327,-152.865 623.406,-146.344 630.609,-146.677 627.531,-153.198 620.327,-152.865"/>
<text text-anchor="middle" x="564" y="-233" font-family="Helvetica,sans-Serif" font-size="10.00"> &#45;portraitImages_</text>
</g>
<!-- Node9 -->
<g id="node8" class="node"><title>Node9</title>
<polygon fill="white" stroke="#bfbfbf" points="459,-414 459,-471 516,-471 516,-414 459,-414"/>
<text text-anchor="middle" x="487.5" y="-459" font-family="Helvetica,sans-Serif" font-size="10.00">QPixmap</text>
<polyline fill="none" stroke="#bfbfbf" points="459,-452 516,-452 "/>
<text text-anchor="middle" x="487.5" y="-440" font-family="Helvetica,sans-Serif" font-size="10.00"> </text>
<polyline fill="none" stroke="#bfbfbf" points="459,-433 516,-433 "/>
<text text-anchor="middle" x="487.5" y="-421" font-family="Helvetica,sans-Serif" font-size="10.00"> </text>
</g>
<!-- Node9&#45;&gt;Node8 -->
<g id="edge7" class="edge"><title>Node9&#45;&gt;Node8</title>
<path fill="none" stroke="#404040" d="M468.131,-413.849C461.896,-403.417 455.761,-391.13 452.5,-379 450.098,-370.064 449.073,-360.225 448.807,-350.875"/>
<polygon fill="none" stroke="#404040" points="448.808,-350.558 444.832,-344.542 448.857,-338.558 452.832,-344.574 448.808,-350.558"/>
<text text-anchor="middle" x="477" y="-371" font-family="Helvetica,sans-Serif" font-size="10.00"> +elements</text>
</g>
<!-- Node10 -->
<g id="node9" class="node"><title>Node10</title>
<polygon fill="white" stroke="#bfbfbf" points="529.5,-276 529.5,-344 629.5,-344 629.5,-276 529.5,-276"/>
<text text-anchor="start" x="537.5" y="-332" font-family="Helvetica,sans-Serif" font-size="10.00">std::map&lt; QString,</text>
<text text-anchor="middle" x="579.5" y="-321" font-family="Helvetica,sans-Serif" font-size="10.00"> QPixmap &gt;</text>
<polyline fill="none" stroke="#bfbfbf" points="529.5,-314 629.5,-314 "/>
<text text-anchor="middle" x="579.5" y="-302" font-family="Helvetica,sans-Serif" font-size="10.00"> </text>
<polyline fill="none" stroke="#bfbfbf" points="529.5,-295 629.5,-295 "/>
<text text-anchor="middle" x="579.5" y="-283" font-family="Helvetica,sans-Serif" font-size="10.00"> </text>
</g>
<!-- Node9&#45;&gt;Node10 -->
<g id="edge10" class="edge"><title>Node9&#45;&gt;Node10</title>
<path fill="none" stroke="#404040" d="M504.276,-413.846C512.974,-399.883 523.96,-382.807 534.5,-368 537.843,-363.304 541.427,-358.467 545.059,-353.69"/>
<polygon fill="none" stroke="#404040" points="545.185,-353.527 545.688,-346.334 552.522,-344.031 552.019,-351.225 545.185,-353.527"/>
<text text-anchor="middle" x="559" y="-371" font-family="Helvetica,sans-Serif" font-size="10.00"> +elements</text>
</g>
<!-- Node10&#45;&gt;Node2 -->
<g id="edge8" class="edge"><title>Node10&#45;&gt;Node2</title>
<path fill="none" stroke="#404040" d="M592.246,-275.934C599.545,-258.472 609.441,-236.992 620.5,-219 622.205,-216.227 623.966,-213.445 625.774,-210.662"/>
<polygon fill="none" stroke="#404040" points="625.838,-210.568 625.851,-203.357 632.512,-200.595 632.499,-207.806 625.838,-210.568"/>
<text text-anchor="middle" x="665.5" y="-233" font-family="Helvetica,sans-Serif" font-size="10.00"> &#45;weaponImageMap_</text>
</g>
<!-- Node11 -->
<g id="node10" class="node"><title>Node11</title>
<polygon fill="white" stroke="#bfbfbf" points="570.5,-414 570.5,-471 620.5,-471 620.5,-414 570.5,-414"/>
<text text-anchor="middle" x="595.5" y="-459" font-family="Helvetica,sans-Serif" font-size="10.00">QString</text>
<polyline fill="none" stroke="#bfbfbf" points="570.5,-452 620.5,-452 "/>
<text text-anchor="middle" x="595.5" y="-440" font-family="Helvetica,sans-Serif" font-size="10.00"> </text>
<polyline fill="none" stroke="#bfbfbf" points="570.5,-433 620.5,-433 "/>
<text text-anchor="middle" x="595.5" y="-421" font-family="Helvetica,sans-Serif" font-size="10.00"> </text>
</g>
<!-- Node11&#45;&gt;Node10 -->
<g id="edge9" class="edge"><title>Node11&#45;&gt;Node10</title>
<path fill="none" stroke="#404040" d="M592.107,-413.824C590.06,-397.13 587.403,-375.459 585.056,-356.318"/>
<polygon fill="none" stroke="#404040" points="585.029,-356.095 580.328,-350.626 583.569,-344.184 588.269,-349.652 585.029,-356.095"/>
<text text-anchor="middle" x="603" y="-371" font-family="Helvetica,sans-Serif" font-size="10.00"> +keys</text>
</g>
<!-- Node12 -->
<g id="node11" class="node"><title>Node12</title>
<polygon fill="white" stroke="#bfbfbf" points="647.5,-281.5 647.5,-338.5 781.5,-338.5 781.5,-281.5 647.5,-281.5"/>
<text text-anchor="middle" x="714.5" y="-326.5" font-family="Helvetica,sans-Serif" font-size="10.00">ViewSideDisplayManager *</text>
<polyline fill="none" stroke="#bfbfbf" points="647.5,-319.5 781.5,-319.5 "/>
<text text-anchor="middle" x="714.5" y="-307.5" font-family="Helvetica,sans-Serif" font-size="10.00"> </text>
<polyline fill="none" stroke="#bfbfbf" points="647.5,-300.5 781.5,-300.5 "/>
<text text-anchor="middle" x="714.5" y="-288.5" font-family="Helvetica,sans-Serif" font-size="10.00"> </text>
</g>
<!-- Node12&#45;&gt;Node2 -->
<g id="edge11" class="edge"><title>Node12&#45;&gt;Node2</title>
<path fill="none" stroke="#404040" d="M714.5,-281.446C714.5,-263.363 714.5,-238.399 714.5,-212.818"/>
<polygon fill="none" stroke="#404040" points="714.5,-212.642 710.5,-206.642 714.5,-200.642 718.5,-206.642 714.5,-212.642"/>
<text text-anchor="middle" x="721.5" y="-233" font-family="Helvetica,sans-Serif" font-size="10.00"> &#45;ui</text>
</g>
<!-- Node13 -->
<g id="node12" class="node"><title>Node13</title>
<polygon fill="white" stroke="#bfbfbf" points="799.5,-281.5 799.5,-338.5 921.5,-338.5 921.5,-281.5 799.5,-281.5"/>
<text text-anchor="middle" x="860.5" y="-326.5" font-family="Helvetica,sans-Serif" font-size="10.00">std::vector&lt; QPainter *&gt;</text>
<polyline fill="none" stroke="#bfbfbf" points="799.5,-319.5 921.5,-319.5 "/>
<text text-anchor="middle" x="860.5" y="-307.5" font-family="Helvetica,sans-Serif" font-size="10.00"> </text>
<polyline fill="none" stroke="#bfbfbf" points="799.5,-300.5 921.5,-300.5 "/>
<text text-anchor="middle" x="860.5" y="-288.5" font-family="Helvetica,sans-Serif" font-size="10.00"> </text>
</g>
<!-- Node13&#45;&gt;Node2 -->
<g id="edge12" class="edge"><title>Node13&#45;&gt;Node2</title>
<path fill="none" stroke="#404040" d="M841.112,-281.446C828.044,-262.872 809.867,-237.038 791.358,-210.733"/>
<polygon fill="none" stroke="#404040" points="791.163,-210.456 784.439,-207.851 784.258,-200.642 790.982,-203.247 791.163,-210.456"/>
<text text-anchor="middle" x="853.5" y="-238.5" font-family="Helvetica,sans-Serif" font-size="10.00"> &#45;hpPainters_</text>
<text text-anchor="middle" x="853.5" y="-227.5" font-family="Helvetica,sans-Serif" font-size="10.00">&#45;ammoPainters_</text>
</g>
<!-- Node14 -->
<g id="node13" class="node"><title>Node14</title>
<polygon fill="white" stroke="#bfbfbf" points="829.5,-414 829.5,-471 891.5,-471 891.5,-414 829.5,-414"/>
<text text-anchor="middle" x="860.5" y="-459" font-family="Helvetica,sans-Serif" font-size="10.00">QPainter *</text>
<polyline fill="none" stroke="#bfbfbf" points="829.5,-452 891.5,-452 "/>
<text text-anchor="middle" x="860.5" y="-440" font-family="Helvetica,sans-Serif" font-size="10.00"> </text>
<polyline fill="none" stroke="#bfbfbf" points="829.5,-433 891.5,-433 "/>
<text text-anchor="middle" x="860.5" y="-421" font-family="Helvetica,sans-Serif" font-size="10.00"> </text>
</g>
<!-- Node14&#45;&gt;Node13 -->
<g id="edge13" class="edge"><title>Node14&#45;&gt;Node13</title>
<path fill="none" stroke="#404040" d="M860.5,-413.824C860.5,-395.484 860.5,-371.137 860.5,-350.738"/>
<polygon fill="none" stroke="#404040" points="860.5,-350.636 856.5,-344.636 860.5,-338.636 864.5,-344.636 860.5,-350.636"/>
<text text-anchor="middle" x="885" y="-371" font-family="Helvetica,sans-Serif" font-size="10.00"> +elements</text>
</g>
<!-- Node15 -->
<g id="node14" class="node"><title>Node15</title>
<polygon fill="white" stroke="#bfbfbf" points="939.5,-270.5 939.5,-349.5 1097.5,-349.5 1097.5,-270.5 939.5,-270.5"/>
<text text-anchor="start" x="947.5" y="-337.5" font-family="Helvetica,sans-Serif" font-size="10.00">std::vector&lt; View::</text>
<text text-anchor="start" x="947.5" y="-326.5" font-family="Helvetica,sans-Serif" font-size="10.00">ViewSideDisplayMouseSensitive</text>
<text text-anchor="middle" x="1018.5" y="-315.5" font-family="Helvetica,sans-Serif" font-size="10.00">Pixmap *&gt;</text>
<polyline fill="none" stroke="#bfbfbf" points="939.5,-308.5 1097.5,-308.5 "/>
<text text-anchor="middle" x="1018.5" y="-296.5" font-family="Helvetica,sans-Serif" font-size="10.00"> </text>
<polyline fill="none" stroke="#bfbfbf" points="939.5,-289.5 1097.5,-289.5 "/>
<text text-anchor="middle" x="1018.5" y="-277.5" font-family="Helvetica,sans-Serif" font-size="10.00"> </text>
</g>
<!-- Node15&#45;&gt;Node2 -->
<g id="edge14" class="edge"><title>Node15&#45;&gt;Node2</title>
<path fill="none" stroke="#404040" d="M965.943,-270.392C943.743,-254.285 917.516,-235.517 893.5,-219 866.205,-200.228 836.222,-180.287 808.73,-162.265"/>
<polygon fill="none" stroke="#404040" points="808.368,-162.029 801.158,-162.091 798.327,-155.459 805.537,-155.396 808.368,-162.029"/>
<text text-anchor="middle" x="962.5" y="-233" font-family="Helvetica,sans-Serif" font-size="10.00"> &#45;pictures_</text>
</g>
<!-- Node16 -->
<g id="node15" class="node"><title>Node16</title>
<g id="a_node15"><a xlink:href="class_view_1_1_view_side_display_mouse_sensitive_pixmap.html" target="_top" xlink:title="{View::ViewSideDisplayMouse\lSensitivePixmap\n||+ ViewSideDisplayMouseSensitive\lPixmap()\l+ mousePressEvent()\l}">
<polygon fill="white" stroke="black" points="935,-397.5 935,-487.5 1102,-487.5 1102,-397.5 935,-397.5"/>
<text text-anchor="start" x="943" y="-475.5" font-family="Helvetica,sans-Serif" font-size="10.00">View::ViewSideDisplayMouse</text>
<text text-anchor="middle" x="1018.5" y="-464.5" font-family="Helvetica,sans-Serif" font-size="10.00">SensitivePixmap</text>
<polyline fill="none" stroke="black" points="935,-457.5 1102,-457.5 "/>
<text text-anchor="middle" x="1018.5" y="-445.5" font-family="Helvetica,sans-Serif" font-size="10.00"> </text>
<polyline fill="none" stroke="black" points="935,-438.5 1102,-438.5 "/>
<text text-anchor="start" x="943" y="-426.5" font-family="Helvetica,sans-Serif" font-size="10.00">+ ViewSideDisplayMouseSensitive</text>
<text text-anchor="start" x="943" y="-415.5" font-family="Helvetica,sans-Serif" font-size="10.00">Pixmap()</text>
<text text-anchor="start" x="943" y="-404.5" font-family="Helvetica,sans-Serif" font-size="10.00">+ mousePressEvent()</text>
</a>
</g>
</g>
<!-- Node16&#45;&gt;Node15 -->
<g id="edge15" class="edge"><title>Node16&#45;&gt;Node15</title>
<path fill="none" stroke="#404040" d="M1018.5,-397.319C1018.5,-386.024 1018.5,-373.785 1018.5,-362.172"/>
<polygon fill="none" stroke="#404040" points="1018.5,-361.889 1014.5,-355.889 1018.5,-349.889 1022.5,-355.889 1018.5,-361.889"/>
<text text-anchor="middle" x="1043" y="-371" font-family="Helvetica,sans-Serif" font-size="10.00"> +elements</text>
</g>
<!-- Node17 -->
<g id="node16" class="node"><title>Node17</title>
<g id="a_node16"><a xlink:href="class_q_object.html" target="_top" xlink:title="{QObject\n||}">
<polygon fill="white" stroke="black" points="890,-546.5 890,-603.5 943,-603.5 943,-546.5 890,-546.5"/>
<text text-anchor="middle" x="916.5" y="-591.5" font-family="Helvetica,sans-Serif" font-size="10.00">QObject</text>
<polyline fill="none" stroke="black" points="890,-584.5 943,-584.5 "/>
<text text-anchor="middle" x="916.5" y="-572.5" font-family="Helvetica,sans-Serif" font-size="10.00"> </text>
<polyline fill="none" stroke="black" points="890,-565.5 943,-565.5 "/>
<text text-anchor="middle" x="916.5" y="-553.5" font-family="Helvetica,sans-Serif" font-size="10.00"> </text>
</a>
</g>
</g>
<!-- Node17&#45;&gt;Node16 -->
<g id="edge16" class="edge"><title>Node17&#45;&gt;Node16</title>
<path fill="none" stroke="midnightblue" d="M944.317,-538.411C956.581,-522.72 971.116,-504.124 984.056,-487.568"/>
<polygon fill="none" stroke="midnightblue" points="941.532,-536.29 938.132,-546.324 947.047,-540.601 941.532,-536.29"/>
</g>
<!-- Node18 -->
<g id="node17" class="node"><title>Node18</title>
<g id="a_node17"><a xlink:href="class_q_graphics_pixmap_item.html" target="_top" xlink:title="{QGraphicsPixmapItem\n||}">
<polygon fill="white" stroke="black" points="961,-546.5 961,-603.5 1076,-603.5 1076,-546.5 961,-546.5"/>
<text text-anchor="middle" x="1018.5" y="-591.5" font-family="Helvetica,sans-Serif" font-size="10.00">QGraphicsPixmapItem</text>
<polyline fill="none" stroke="black" points="961,-584.5 1076,-584.5 "/>
<text text-anchor="middle" x="1018.5" y="-572.5" font-family="Helvetica,sans-Serif" font-size="10.00"> </text>
<polyline fill="none" stroke="black" points="961,-565.5 1076,-565.5 "/>
<text text-anchor="middle" x="1018.5" y="-553.5" font-family="Helvetica,sans-Serif" font-size="10.00"> </text>
</a>
</g>
</g>
<!-- Node18&#45;&gt;Node16 -->
<g id="edge17" class="edge"><title>Node18&#45;&gt;Node16</title>
<path fill="none" stroke="midnightblue" d="M1018.5,-536.233C1018.5,-521.019 1018.5,-503.364 1018.5,-487.568"/>
<polygon fill="none" stroke="midnightblue" points="1015,-536.324 1018.5,-546.324 1022,-536.324 1015,-536.324"/>
</g>
<!-- Node19 -->
<g id="node18" class="node"><title>Node19</title>
<polygon fill="white" stroke="#bfbfbf" points="1094,-546.5 1094,-603.5 1123,-603.5 1123,-546.5 1094,-546.5"/>
<text text-anchor="middle" x="1108.5" y="-591.5" font-family="Helvetica,sans-Serif" font-size="10.00">int</text>
<polyline fill="none" stroke="#bfbfbf" points="1094,-584.5 1123,-584.5 "/>
<text text-anchor="middle" x="1108.5" y="-572.5" font-family="Helvetica,sans-Serif" font-size="10.00"> </text>
<polyline fill="none" stroke="#bfbfbf" points="1094,-565.5 1123,-565.5 "/>
<text text-anchor="middle" x="1108.5" y="-553.5" font-family="Helvetica,sans-Serif" font-size="10.00"> </text>
</g>
<!-- Node19&#45;&gt;Node16 -->
<g id="edge18" class="edge"><title>Node19&#45;&gt;Node16</title>
<path fill="none" stroke="#404040" d="M1093.84,-552.742C1083.53,-537.797 1069.25,-517.088 1055.89,-497.716"/>
<polygon fill="none" stroke="#404040" points="1055.83,-497.623 1049.13,-494.955 1049.01,-487.745 1055.71,-490.413 1055.83,-497.623"/>
<text text-anchor="middle" x="1103.5" y="-520" font-family="Helvetica,sans-Serif" font-size="10.00"> &#45;charId_</text>
<text text-anchor="middle" x="1103.5" y="-509" font-family="Helvetica,sans-Serif" font-size="10.00">&#45;slotNumber_</text>
</g>
<!-- Node20 -->
<g id="node19" class="node"><title>Node20</title>
<polygon fill="white" stroke="#bfbfbf" points="1159,-414 1159,-471 1194,-471 1194,-414 1159,-414"/>
<text text-anchor="middle" x="1176.5" y="-459" font-family="Helvetica,sans-Serif" font-size="10.00">bool</text>
<polyline fill="none" stroke="#bfbfbf" points="1159,-452 1194,-452 "/>
<text text-anchor="middle" x="1176.5" y="-440" font-family="Helvetica,sans-Serif" font-size="10.00"> </text>
<polyline fill="none" stroke="#bfbfbf" points="1159,-433 1194,-433 "/>
<text text-anchor="middle" x="1176.5" y="-421" font-family="Helvetica,sans-Serif" font-size="10.00"> </text>
</g>
<!-- Node20&#45;&gt;Node2 -->
<g id="edge19" class="edge"><title>Node20&#45;&gt;Node2</title>
<path fill="none" stroke="#404040" d="M1165.86,-413.898C1147.62,-366.804 1111.82,-275.45 1106.5,-270 1025.72,-187.291 897.729,-142.801 810.123,-120.671"/>
<polygon fill="none" stroke="#404040" points="809.959,-120.631 803.176,-123.079 798.307,-117.76 805.09,-115.312 809.959,-120.631"/>
<text text-anchor="middle" x="1186.5" y="-307.5" font-family="Helvetica,sans-Serif" font-size="10.00"> &#45;missionInProgress_</text>
</g>
<!-- Node21 -->
<g id="node20" class="node"><title>Node21</title>
<polygon fill="white" stroke="#bfbfbf" points="1243.5,-281.5 1243.5,-338.5 1341.5,-338.5 1341.5,-281.5 1243.5,-281.5"/>
<text text-anchor="middle" x="1292.5" y="-326.5" font-family="Helvetica,sans-Serif" font-size="10.00">std::vector&lt; bool &gt;</text>
<polyline fill="none" stroke="#bfbfbf" points="1243.5,-319.5 1341.5,-319.5 "/>
<text text-anchor="middle" x="1292.5" y="-307.5" font-family="Helvetica,sans-Serif" font-size="10.00"> </text>
<polyline fill="none" stroke="#bfbfbf" points="1243.5,-300.5 1341.5,-300.5 "/>
<text text-anchor="middle" x="1292.5" y="-288.5" font-family="Helvetica,sans-Serif" font-size="10.00"> </text>
</g>
<!-- Node20&#45;&gt;Node21 -->
<g id="edge21" class="edge"><title>Node20&#45;&gt;Node21</title>
<path fill="none" stroke="#404040" d="M1194.12,-421.68C1211.46,-402.166 1238.37,-371.891 1259.67,-347.934"/>
<polygon fill="none" stroke="#404040" points="1259.84,-347.737 1260.84,-340.595 1267.82,-338.768 1266.82,-345.91 1259.84,-347.737"/>
<text text-anchor="middle" x="1266" y="-371" font-family="Helvetica,sans-Serif" font-size="10.00"> +elements</text>
</g>
<!-- Node21&#45;&gt;Node2 -->
<g id="edge20" class="edge"><title>Node21&#45;&gt;Node2</title>
<path fill="none" stroke="#404040" d="M1254.8,-281.336C1226.48,-261.635 1186.08,-235.78 1147.5,-219 1036.07,-170.539 899.663,-137.508 810.092,-119.097"/>
<polygon fill="none" stroke="#404040" points="810.077,-119.094 803.401,-121.82 798.317,-116.706 804.994,-113.98 810.077,-119.094"/>
<text text-anchor="middle" x="1254.5" y="-244" font-family="Helvetica,sans-Serif" font-size="10.00"> &#45;selectedWeapons_</text>
<text text-anchor="middle" x="1254.5" y="-233" font-family="Helvetica,sans-Serif" font-size="10.00">&#45;deadActors_</text>
<text text-anchor="middle" x="1254.5" y="-222" font-family="Helvetica,sans-Serif" font-size="10.00">&#45;selectedActors_</text>
</g>
<!-- Node22 -->
<g id="node21" class="node"><title>Node22</title>
<polygon fill="white" stroke="#bfbfbf" points="1360,-281.5 1360,-338.5 1511,-338.5 1511,-281.5 1360,-281.5"/>
<text text-anchor="middle" x="1435.5" y="-326.5" font-family="Helvetica,sans-Serif" font-size="10.00">std::vector&lt; QGraphicsView *&gt;</text>
<polyline fill="none" stroke="#bfbfbf" points="1360,-319.5 1511,-319.5 "/>
<text text-anchor="middle" x="1435.5" y="-307.5" font-family="Helvetica,sans-Serif" font-size="10.00"> </text>
<polyline fill="none" stroke="#bfbfbf" points="1360,-300.5 1511,-300.5 "/>
<text text-anchor="middle" x="1435.5" y="-288.5" font-family="Helvetica,sans-Serif" font-size="10.00"> </text>
</g>
<!-- Node22&#45;&gt;Node2 -->
<g id="edge22" class="edge"><title>Node22&#45;&gt;Node2</title>
<path fill="none" stroke="#404040" d="M1403.22,-281.486C1377.74,-261.195 1340.45,-234.521 1303.5,-219 1138.29,-149.606 929.472,-120.43 810.037,-108.747"/>
<polygon fill="none" stroke="#404040" points="809.999,-108.744 803.647,-112.156 798.054,-107.605 804.406,-104.192 809.999,-108.744"/>
<text text-anchor="middle" x="1379" y="-233" font-family="Helvetica,sans-Serif" font-size="10.00"> &#45;views_</text>
</g>
<!-- Node23 -->
<g id="node22" class="node"><title>Node23</title>
<polygon fill="white" stroke="#bfbfbf" points="1390,-414 1390,-471 1481,-471 1481,-414 1390,-414"/>
<text text-anchor="middle" x="1435.5" y="-459" font-family="Helvetica,sans-Serif" font-size="10.00">QGraphicsView *</text>
<polyline fill="none" stroke="#bfbfbf" points="1390,-452 1481,-452 "/>
<text text-anchor="middle" x="1435.5" y="-440" font-family="Helvetica,sans-Serif" font-size="10.00"> </text>
<polyline fill="none" stroke="#bfbfbf" points="1390,-433 1481,-433 "/>
<text text-anchor="middle" x="1435.5" y="-421" font-family="Helvetica,sans-Serif" font-size="10.00"> </text>
</g>
<!-- Node23&#45;&gt;Node22 -->
<g id="edge23" class="edge"><title>Node23&#45;&gt;Node22</title>
<path fill="none" stroke="#404040" d="M1435.5,-413.824C1435.5,-395.484 1435.5,-371.137 1435.5,-350.738"/>
<polygon fill="none" stroke="#404040" points="1435.5,-350.636 1431.5,-344.636 1435.5,-338.636 1439.5,-344.636 1435.5,-350.636"/>
<text text-anchor="middle" x="1460" y="-371" font-family="Helvetica,sans-Serif" font-size="10.00"> +elements</text>
</g>
</g>
</svg>
        <g id="navigator" transform="translate(0 0)" fill="#404254">
                <rect fill="#f2f5e9" fill-opacity="0.5" stroke="#606060" stroke-width=".5" x="0" y="0" width="60" height="60"/>
                <use id="zoomplus" xlink:href="#zoomPlus" x="17" y="9" onmousedown="handleZoom(evt,'in')"/>
                <use id="zoomminus" xlink:href="#zoomMin" x="42" y="9" onmousedown="handleZoom(evt,'out')"/>
                <use id="reset" xlink:href="#resetDef" x="30" y="36" onmousedown="handleReset()"/>
                <g id="arrowUp" xlink:href="#dirArrow" transform="translate(30 24)" onmousedown="handlePan(0,-1)">
                  <use xlink:href="#rim" fill="#404040">
                        <set attributeName="fill" to="#808080" begin="arrowUp.mouseover" end="arrowUp.mouseout"/>
                  </use>
                  <path fill="none" stroke="white" stroke-width="1.5" d="M0,-3.0v7 M-2.5,-0.5L0,-3.0L2.5,-0.5"/>
                </g>
                <g id="arrowRight" xlink:href="#dirArrow" transform="rotate(90) translate(36 -43)" onmousedown="handlePan(1,0)">
                  <use xlink:href="#rim" fill="#404040">
                        <set attributeName="fill" to="#808080" begin="arrowRight.mouseover" end="arrowRight.mouseout"/>
                  </use>
                  <path fill="none" stroke="white" stroke-width="1.5" d="M0,-3.0v7 M-2.5,-0.5L0,-3.0L2.5,-0.5"/>
                </g>
                <g id="arrowDown" xlink:href="#dirArrow" transform="rotate(180) translate(-30 -48)" onmousedown="handlePan(0,1)">
                  <use xlink:href="#rim" fill="#404040">
                        <set attributeName="fill" to="#808080" begin="arrowDown.mouseover" end="arrowDown.mouseout"/>
                  </use>
                  <path fill="none" stroke="white" stroke-width="1.5" d="M0,-3.0v7 M-2.5,-0.5L0,-3.0L2.5,-0.5"/>
                </g>
                <g id="arrowLeft" xlink:href="#dirArrow" transform="rotate(270) translate(-36 17)" onmousedown="handlePan(-1,0)">
                  <use xlink:href="#rim" fill="#404040">
                        <set attributeName="fill" to="#808080" begin="arrowLeft.mouseover" end="arrowLeft.mouseout"/>
                  </use>
                  <path fill="none" stroke="white" stroke-width="1.5" d="M0,-3.0v7 M-2.5,-0.5L0,-3.0L2.5,-0.5"/>
                </g>
        </g>
        <svg viewBox="0 0 15 15" width="100%" height="30px" preserveAspectRatio="xMaxYMin meet">
         <g id="arrow_out" transform="scale(0.3 0.3)">
          <a xlink:href="class_view_1_1_view_side_display_manager__coll__graph_org.svg" target="_base">
           <rect id="button" ry="5" rx="5" y="6" x="6" height="38" width="38"
                fill="#f2f5e9" fill-opacity="0.5" stroke="#606060" stroke-width="1.0"/>
           <path id="arrow"
             d="M 11.500037,31.436501 C 11.940474,20.09759 22.043105,11.32322 32.158766,21.979434 L 37.068811,17.246167 C 37.068811,17.246167 37.088388,32 37.088388,32 L 22.160133,31.978069 C 22.160133,31.978069 26.997745,27.140456 26.997745,27.140456 C 18.528582,18.264221 13.291696,25.230495 11.500037,31.436501 z"
             style="fill:#404040;"/>
          </a>
         </g>
        </svg>
</svg>
