<?xml version="1.0" encoding="UTF-8" standalone="no"?>
<!DOCTYPE svg PUBLIC "-//W3C//DTD SVG 1.1//EN"
 "http://www.w3.org/Graphics/SVG/1.1/DTD/svg11.dtd">
<!-- Generated by graphviz version 2.38.0 (20140413.2041)
 -->
<!-- Title: View::ActionSceneNPC::patrolled Pages: 1 -->
<svg width="592pt" height="61pt"
 viewBox="0.00 0.00 592.00 61.00" xmlns="http://www.w3.org/2000/svg" xmlns:xlink="http://www.w3.org/1999/xlink">
<g id="graph0" class="graph" transform="scale(1 1) rotate(0) translate(4 57)">
<title>View::ActionSceneNPC::patrolled</title>
<polygon fill="white" stroke="none" points="-4,4 -4,-57 588,-57 588,4 -4,4"/>
<!-- Node70 -->
<g id="node1" class="node"><title>Node70</title>
<polygon fill="#bfbfbf" stroke="black" points="0,-22.5 0,-52.5 119,-52.5 119,-22.5 0,-22.5"/>
<text text-anchor="start" x="8" y="-40.5" font-family="Helvetica,sans-Serif" font-size="10.00">View::ActionSceneNPC</text>
<text text-anchor="middle" x="59.5" y="-29.5" font-family="Helvetica,sans-Serif" font-size="10.00">::patrolled</text>
</g>
<!-- Node71 -->
<g id="node2" class="node"><title>Node71</title>
<g id="a_node2"><a xlink:href="class_view_1_1_action_scene_n_p_c.html#a7f7da8c4b3de3481b49a32c186c4e1cd" target="_top" xlink:title="View::ActionSceneNPC\l::aiAction">
<polygon fill="white" stroke="black" points="155,-22.5 155,-52.5 274,-52.5 274,-22.5 155,-22.5"/>
<text text-anchor="start" x="163" y="-40.5" font-family="Helvetica,sans-Serif" font-size="10.00">View::ActionSceneNPC</text>
<text text-anchor="middle" x="214.5" y="-29.5" font-family="Helvetica,sans-Serif" font-size="10.00">::aiAction</text>
</a>
</g>
</g>
<!-- Node70&#45;&gt;Node71 -->
<g id="edge1" class="edge"><title>Node70&#45;&gt;Node71</title>
<path fill="none" stroke="midnightblue" d="M129.493,-37.5C137.993,-37.5 146.617,-37.5 154.941,-37.5"/>
<polygon fill="midnightblue" stroke="midnightblue" points="129.216,-34.0001 119.216,-37.5 129.216,-41.0001 129.216,-34.0001"/>
</g>
<!-- Node72 -->
<g id="node3" class="node"><title>Node72</title>
<g id="a_node3"><a xlink:href="class_view_1_1_action_scene_n_p_c.html#a6cee892789b8a4623ea1fbec509b538d" target="_top" xlink:title="View::ActionSceneNPC\l::ActionSceneNPC">
<polygon fill="white" stroke="black" points="465,-22.5 465,-52.5 584,-52.5 584,-22.5 465,-22.5"/>
<text text-anchor="start" x="473" y="-40.5" font-family="Helvetica,sans-Serif" font-size="10.00">View::ActionSceneNPC</text>
<text text-anchor="middle" x="524.5" y="-29.5" font-family="Helvetica,sans-Serif" font-size="10.00">::ActionSceneNPC</text>
</a>
</g>
</g>
<!-- Node71&#45;&gt;Node72 -->
<g id="edge2" class="edge"><title>Node71&#45;&gt;Node72</title>
<path fill="none" stroke="midnightblue" d="M284.308,-39.9392C292.957,-40.1708 301.684,-40.368 310,-40.5 362.882,-41.3392 376.118,-41.3392 429,-40.5 440.571,-40.3164 452.935,-40.0064 464.779,-39.6535"/>
<polygon fill="midnightblue" stroke="midnightblue" points="284.316,-36.4381 274.221,-39.6535 284.118,-43.4353 284.316,-36.4381"/>
</g>
<!-- Node73 -->
<g id="node4" class="node"><title>Node73</title>
<g id="a_node4"><a xlink:href="class_view_1_1_action_scene_n_p_c.html#aa74e1b0bfedf0221b7d3aad65efe5caa" target="_top" xlink:title="View::ActionSceneNPC\l::unleashEnemy">
<polygon fill="white" stroke="black" points="310,-0.5 310,-30.5 429,-30.5 429,-0.5 310,-0.5"/>
<text text-anchor="start" x="318" y="-18.5" font-family="Helvetica,sans-Serif" font-size="10.00">View::ActionSceneNPC</text>
<text text-anchor="middle" x="369.5" y="-7.5" font-family="Helvetica,sans-Serif" font-size="10.00">::unleashEnemy</text>
</a>
</g>
</g>
<!-- Node71&#45;&gt;Node73 -->
<g id="edge3" class="edge"><title>Node71&#45;&gt;Node73</title>
<path fill="none" stroke="midnightblue" d="M284.213,-27.6197C292.803,-26.3845 301.525,-25.1303 309.941,-23.9203"/>
<polygon fill="midnightblue" stroke="midnightblue" points="283.616,-24.1694 274.216,-29.0571 284.613,-31.0982 283.616,-24.1694"/>
</g>
<!-- Node73&#45;&gt;Node72 -->
<g id="edge4" class="edge"><title>Node73&#45;&gt;Node72</title>
<path fill="none" stroke="midnightblue" d="M439.213,-25.3803C447.803,-26.6155 456.525,-27.8697 464.941,-29.0797"/>
<polygon fill="midnightblue" stroke="midnightblue" points="439.613,-21.9018 429.216,-23.9429 438.616,-28.8306 439.613,-21.9018"/>
</g>
</g>
</svg>
