<?xml version="1.0" encoding="UTF-8" standalone="no"?>
<!DOCTYPE svg PUBLIC "-//W3C//DTD SVG 1.1//EN"
 "http://www.w3.org/Graphics/SVG/1.1/DTD/svg11.dtd">
<!-- Generated by graphviz version 2.38.0 (20140413.2041)
 -->
<!-- Title: View::ActionScene::enemyAttacked Pages: 1 -->
<svg width="578pt" height="333pt"
 viewBox="0.00 0.00 578.00 333.00" xmlns="http://www.w3.org/2000/svg" xmlns:xlink="http://www.w3.org/1999/xlink">
<g id="graph0" class="graph" transform="scale(1 1) rotate(0) translate(4 329)">
<title>View::ActionScene::enemyAttacked</title>
<polygon fill="white" stroke="none" points="-4,4 -4,-329 574,-329 574,4 -4,4"/>
<!-- Node108 -->
<g id="node1" class="node"><title>Node108</title>
<polygon fill="#bfbfbf" stroke="black" points="0,-147.5 0,-177.5 105,-177.5 105,-147.5 0,-147.5"/>
<text text-anchor="start" x="8" y="-165.5" font-family="Helvetica,sans-Serif" font-size="10.00">View::ActionScene::</text>
<text text-anchor="middle" x="52.5" y="-154.5" font-family="Helvetica,sans-Serif" font-size="10.00">enemyAttacked</text>
</g>
<!-- Node109 -->
<g id="node2" class="node"><title>Node109</title>
<g id="a_node2"><a xlink:href="class_view_1_1_action_scene.html#a6bfb112aa7244a19a1f1c1e7444a2195" target="_top" xlink:title="View::ActionScene::\lactorWasHit">
<polygon fill="white" stroke="black" points="148,-294.5 148,-324.5 253,-324.5 253,-294.5 148,-294.5"/>
<text text-anchor="start" x="156" y="-312.5" font-family="Helvetica,sans-Serif" font-size="10.00">View::ActionScene::</text>
<text text-anchor="middle" x="200.5" y="-301.5" font-family="Helvetica,sans-Serif" font-size="10.00">actorWasHit</text>
</a>
</g>
</g>
<!-- Node108&#45;&gt;Node109 -->
<g id="edge1" class="edge"><title>Node108&#45;&gt;Node109</title>
<path fill="none" stroke="midnightblue" d="M60.7777,-177.85C73.6197,-203.446 102.616,-255.034 141,-285.5 142.58,-286.754 144.235,-287.952 145.945,-289.095"/>
<polygon fill="midnightblue" stroke="midnightblue" points="144.482,-292.295 154.873,-294.361 148.038,-286.266 144.482,-292.295"/>
</g>
<!-- Node110 -->
<g id="node3" class="node"><title>Node110</title>
<g id="a_node3"><a xlink:href="class_view_1_1_action_scene_n_p_c.html#a9065e80ab1349445972a44657234a35f" target="_top" xlink:title="View::ActionSceneNPC\l::getId">
<polygon fill="white" stroke="black" points="141,-245.5 141,-275.5 260,-275.5 260,-245.5 141,-245.5"/>
<text text-anchor="start" x="149" y="-263.5" font-family="Helvetica,sans-Serif" font-size="10.00">View::ActionSceneNPC</text>
<text text-anchor="middle" x="200.5" y="-252.5" font-family="Helvetica,sans-Serif" font-size="10.00">::getId</text>
</a>
</g>
</g>
<!-- Node108&#45;&gt;Node110 -->
<g id="edge2" class="edge"><title>Node108&#45;&gt;Node110</title>
<path fill="none" stroke="midnightblue" d="M68.4736,-177.741C85.044,-193.96 113.11,-219.567 141,-236.5 143.591,-238.073 146.303,-239.586 149.081,-241.033"/>
<polygon fill="midnightblue" stroke="midnightblue" points="147.582,-244.196 158.105,-245.427 150.646,-237.902 147.582,-244.196"/>
</g>
<!-- Node111 -->
<g id="node4" class="node"><title>Node111</title>
<g id="a_node4"><a xlink:href="class_view_1_1_action_scene_n_p_c.html#ad5b240c242c1f22de0b4c141c8a613ed" target="_top" xlink:title="View::ActionSceneNPC\l::getTarget">
<polygon fill="white" stroke="black" points="141,-196.5 141,-226.5 260,-226.5 260,-196.5 141,-196.5"/>
<text text-anchor="start" x="149" y="-214.5" font-family="Helvetica,sans-Serif" font-size="10.00">View::ActionSceneNPC</text>
<text text-anchor="middle" x="200.5" y="-203.5" font-family="Helvetica,sans-Serif" font-size="10.00">::getTarget</text>
</a>
</g>
</g>
<!-- Node108&#45;&gt;Node111 -->
<g id="edge3" class="edge"><title>Node108&#45;&gt;Node111</title>
<path fill="none" stroke="midnightblue" d="M98.4961,-177.601C113.136,-182.515 129.546,-188.022 144.814,-193.147"/>
<polygon fill="midnightblue" stroke="midnightblue" points="144.058,-196.585 154.652,-196.448 146.286,-189.948 144.058,-196.585"/>
</g>
<!-- Node112 -->
<g id="node5" class="node"><title>Node112</title>
<g id="a_node5"><a xlink:href="class_view_1_1_action_scene_n_p_c.html#a5d04b31e451848aec804ce99864800ca" target="_top" xlink:title="View::ActionSceneNPC\l::isDead">
<polygon fill="white" stroke="black" points="141,-147.5 141,-177.5 260,-177.5 260,-147.5 141,-147.5"/>
<text text-anchor="start" x="149" y="-165.5" font-family="Helvetica,sans-Serif" font-size="10.00">View::ActionSceneNPC</text>
<text text-anchor="middle" x="200.5" y="-154.5" font-family="Helvetica,sans-Serif" font-size="10.00">::isDead</text>
</a>
</g>
</g>
<!-- Node108&#45;&gt;Node112 -->
<g id="edge4" class="edge"><title>Node108&#45;&gt;Node112</title>
<path fill="none" stroke="midnightblue" d="M105.385,-162.5C113.543,-162.5 122.086,-162.5 130.555,-162.5"/>
<polygon fill="midnightblue" stroke="midnightblue" points="130.82,-166 140.82,-162.5 130.82,-159 130.82,-166"/>
</g>
<!-- Node113 -->
<g id="node6" class="node"><title>Node113</title>
<g id="a_node6"><a xlink:href="class_view_1_1_action_scene_n_p_c.html#a2d64f4b6f2eb5eedb8360fb8dc33b606" target="_top" xlink:title="View::ActionSceneNPC\l::moveToPoint">
<polygon fill="white" stroke="black" points="141,-98.5 141,-128.5 260,-128.5 260,-98.5 141,-98.5"/>
<text text-anchor="start" x="149" y="-116.5" font-family="Helvetica,sans-Serif" font-size="10.00">View::ActionSceneNPC</text>
<text text-anchor="middle" x="200.5" y="-105.5" font-family="Helvetica,sans-Serif" font-size="10.00">::moveToPoint</text>
</a>
</g>
</g>
<!-- Node108&#45;&gt;Node113 -->
<g id="edge5" class="edge"><title>Node108&#45;&gt;Node113</title>
<path fill="none" stroke="midnightblue" d="M98.4961,-147.399C113.136,-142.485 129.546,-136.978 144.814,-131.853"/>
<polygon fill="midnightblue" stroke="midnightblue" points="146.286,-135.052 154.652,-128.552 144.058,-128.415 146.286,-135.052"/>
</g>
<!-- Node114 -->
<g id="node7" class="node"><title>Node114</title>
<g id="a_node7"><a xlink:href="class_view_1_1_action_scene_n_p_c.html#a63c01e4d67db25532448053814a4a917" target="_top" xlink:title="View::ActionSceneNPC\l::setAIMode">
<polygon fill="white" stroke="black" points="141,-49.5 141,-79.5 260,-79.5 260,-49.5 141,-49.5"/>
<text text-anchor="start" x="149" y="-67.5" font-family="Helvetica,sans-Serif" font-size="10.00">View::ActionSceneNPC</text>
<text text-anchor="middle" x="200.5" y="-56.5" font-family="Helvetica,sans-Serif" font-size="10.00">::setAIMode</text>
</a>
</g>
</g>
<!-- Node108&#45;&gt;Node114 -->
<g id="edge6" class="edge"><title>Node108&#45;&gt;Node114</title>
<path fill="none" stroke="midnightblue" d="M68.8657,-147.266C85.5472,-131.333 113.502,-106.344 141,-89.5 144.152,-87.5692 147.48,-85.7159 150.884,-83.9529"/>
<polygon fill="midnightblue" stroke="midnightblue" points="152.549,-87.0352 160.002,-79.5058 149.48,-80.7435 152.549,-87.0352"/>
</g>
<!-- Node117 -->
<g id="node10" class="node"><title>Node117</title>
<g id="a_node10"><a xlink:href="class_view_1_1_action_scene_n_p_c.html#ab362917c5b032ed8ec63a503a2b84e6e" target="_top" xlink:title="View::ActionSceneNPC\l::setTarget">
<polygon fill="white" stroke="black" points="141,-0.5 141,-30.5 260,-30.5 260,-0.5 141,-0.5"/>
<text text-anchor="start" x="149" y="-18.5" font-family="Helvetica,sans-Serif" font-size="10.00">View::ActionSceneNPC</text>
<text text-anchor="middle" x="200.5" y="-7.5" font-family="Helvetica,sans-Serif" font-size="10.00">::setTarget</text>
</a>
</g>
</g>
<!-- Node108&#45;&gt;Node117 -->
<g id="edge9" class="edge"><title>Node108&#45;&gt;Node117</title>
<path fill="none" stroke="midnightblue" d="M60.8582,-147.337C73.8188,-122.042 102.985,-71.0054 141,-40.5 143.073,-38.8367 145.273,-37.2652 147.558,-35.7829"/>
<polygon fill="midnightblue" stroke="midnightblue" points="149.793,-38.5341 156.703,-30.5028 146.292,-32.472 149.793,-38.5341"/>
</g>
<!-- Node115 -->
<g id="node8" class="node"><title>Node115</title>
<g id="a_node8"><a xlink:href="class_view_1_1_action_scene_n_p_c.html#a32b28c35cccc25fa39d60462235776f3" target="_top" xlink:title="View::ActionSceneNPC\l::setRunSpeed">
<polygon fill="white" stroke="black" points="296,-49.5 296,-79.5 415,-79.5 415,-49.5 296,-49.5"/>
<text text-anchor="start" x="304" y="-67.5" font-family="Helvetica,sans-Serif" font-size="10.00">View::ActionSceneNPC</text>
<text text-anchor="middle" x="355.5" y="-56.5" font-family="Helvetica,sans-Serif" font-size="10.00">::setRunSpeed</text>
</a>
</g>
</g>
<!-- Node114&#45;&gt;Node115 -->
<g id="edge7" class="edge"><title>Node114&#45;&gt;Node115</title>
<path fill="none" stroke="midnightblue" d="M260.216,-64.5C268.544,-64.5 277.169,-64.5 285.667,-64.5"/>
<polygon fill="midnightblue" stroke="midnightblue" points="285.941,-68.0001 295.941,-64.5 285.941,-61.0001 285.941,-68.0001"/>
</g>
<!-- Node116 -->
<g id="node9" class="node"><title>Node116</title>
<g id="a_node9"><a xlink:href="class_view_1_1_action_scene_feet.html#a160793a00dcf4b16bcda158571f56773" target="_top" xlink:title="View::ActionSceneFeet\l::setRunning">
<polygon fill="white" stroke="black" points="451,-49.5 451,-79.5 570,-79.5 570,-49.5 451,-49.5"/>
<text text-anchor="start" x="459" y="-67.5" font-family="Helvetica,sans-Serif" font-size="10.00">View::ActionSceneFeet</text>
<text text-anchor="middle" x="510.5" y="-56.5" font-family="Helvetica,sans-Serif" font-size="10.00">::setRunning</text>
</a>
</g>
</g>
<!-- Node115&#45;&gt;Node116 -->
<g id="edge8" class="edge"><title>Node115&#45;&gt;Node116</title>
<path fill="none" stroke="midnightblue" d="M415.216,-64.5C423.544,-64.5 432.169,-64.5 440.667,-64.5"/>
<polygon fill="midnightblue" stroke="midnightblue" points="440.941,-68.0001 450.941,-64.5 440.941,-61.0001 440.941,-68.0001"/>
</g>
</g>
</svg>
