<?xml version="1.0" encoding="UTF-8" standalone="no"?>
<!DOCTYPE svg PUBLIC "-//W3C//DTD SVG 1.1//EN"
 "http://www.w3.org/Graphics/SVG/1.1/DTD/svg11.dtd">
<!-- Generated by graphviz version 2.38.0 (20140413.2041)
 -->
<!-- Title: View::ActionScene::updateEnemyLineOfSight Pages: 1 -->
<svg width="417pt" height="39pt"
 viewBox="0.00 0.00 417.00 39.00" xmlns="http://www.w3.org/2000/svg" xmlns:xlink="http://www.w3.org/1999/xlink">
<g id="graph0" class="graph" transform="scale(1 1) rotate(0) translate(4 35)">
<title>View::ActionScene::updateEnemyLineOfSight</title>
<polygon fill="white" stroke="none" points="-4,4 -4,-35 413,-35 413,4 -4,4"/>
<!-- Node245 -->
<g id="node1" class="node"><title>Node245</title>
<polygon fill="#bfbfbf" stroke="black" points="0,-0.5 0,-30.5 127,-30.5 127,-0.5 0,-0.5"/>
<text text-anchor="start" x="8" y="-18.5" font-family="Helvetica,sans-Serif" font-size="10.00">View::ActionScene::</text>
<text text-anchor="middle" x="63.5" y="-7.5" font-family="Helvetica,sans-Serif" font-size="10.00">updateEnemyLineOfSight</text>
</g>
<!-- Node246 -->
<g id="node2" class="node"><title>Node246</title>
<g id="a_node2"><a xlink:href="class_view_1_1_action_scene.html#a2da7a8314a9d50cdccf82159f58e5097" target="_top" xlink:title="View::ActionScene::\lspawnEnemy">
<polygon fill="white" stroke="black" points="163,-0.5 163,-30.5 268,-30.5 268,-0.5 163,-0.5"/>
<text text-anchor="start" x="171" y="-18.5" font-family="Helvetica,sans-Serif" font-size="10.00">View::ActionScene::</text>
<text text-anchor="middle" x="215.5" y="-7.5" font-family="Helvetica,sans-Serif" font-size="10.00">spawnEnemy</text>
</a>
</g>
</g>
<!-- Node245&#45;&gt;Node246 -->
<g id="edge1" class="edge"><title>Node245&#45;&gt;Node246</title>
<path fill="none" stroke="midnightblue" d="M137.342,-15.5C145.982,-15.5 154.66,-15.5 162.918,-15.5"/>
<polygon fill="midnightblue" stroke="midnightblue" points="137.244,-12.0001 127.244,-15.5 137.244,-19.0001 137.244,-12.0001"/>
</g>
<!-- Node247 -->
<g id="node3" class="node"><title>Node247</title>
<g id="a_node3"><a xlink:href="class_view_1_1_action_scene.html#af2fabc7baae61ac07ca1a0a5d46814cf" target="_top" xlink:title="View::ActionScene::\laddEnemies">
<polygon fill="white" stroke="black" points="304,-0.5 304,-30.5 409,-30.5 409,-0.5 304,-0.5"/>
<text text-anchor="start" x="312" y="-18.5" font-family="Helvetica,sans-Serif" font-size="10.00">View::ActionScene::</text>
<text text-anchor="middle" x="356.5" y="-7.5" font-family="Helvetica,sans-Serif" font-size="10.00">addEnemies</text>
</a>
</g>
</g>
<!-- Node246&#45;&gt;Node247 -->
<g id="edge2" class="edge"><title>Node246&#45;&gt;Node247</title>
<path fill="none" stroke="midnightblue" d="M278.441,-15.5C286.878,-15.5 295.466,-15.5 303.698,-15.5"/>
<polygon fill="midnightblue" stroke="midnightblue" points="278.259,-12.0001 268.258,-15.5 278.258,-19.0001 278.259,-12.0001"/>
</g>
</g>
</svg>
