<?xml version="1.0" encoding="UTF-8" standalone="no"?>
<!DOCTYPE svg PUBLIC "-//W3C//DTD SVG 1.1//EN"
 "http://www.w3.org/Graphics/SVG/1.1/DTD/svg11.dtd">
<!-- Generated by graphviz version 2.38.0 (20140413.2041)
 -->
<!-- Title: View::ActionSceneNPC::ActionSceneNPC Pages: 1 -->
<svg width="437pt" height="148pt"
 viewBox="0.00 0.00 437.00 148.00" xmlns="http://www.w3.org/2000/svg" xmlns:xlink="http://www.w3.org/1999/xlink">
<g id="graph0" class="graph" transform="scale(1 1) rotate(0) translate(4 144)">
<title>View::ActionSceneNPC::ActionSceneNPC</title>
<polygon fill="white" stroke="none" points="-4,4 -4,-144 433,-144 433,4 -4,4"/>
<!-- Node0 -->
<g id="node1" class="node"><title>Node0</title>
<polygon fill="#bfbfbf" stroke="black" points="0,-87.5 0,-117.5 119,-117.5 119,-87.5 0,-87.5"/>
<text text-anchor="start" x="8" y="-105.5" font-family="Helvetica,sans-Serif" font-size="10.00">View::ActionSceneNPC</text>
<text text-anchor="middle" x="59.5" y="-94.5" font-family="Helvetica,sans-Serif" font-size="10.00">::ActionSceneNPC</text>
</g>
<!-- Node1 -->
<g id="node2" class="node"><title>Node1</title>
<g id="a_node2"><a xlink:href="class_view_1_1_action_scene_n_p_c.html#a7f7da8c4b3de3481b49a32c186c4e1cd" target="_top" xlink:title="View::ActionSceneNPC\l::aiAction">
<polygon fill="white" stroke="black" points="310,-109.5 310,-139.5 429,-139.5 429,-109.5 310,-109.5"/>
<text text-anchor="start" x="318" y="-127.5" font-family="Helvetica,sans-Serif" font-size="10.00">View::ActionSceneNPC</text>
<text text-anchor="middle" x="369.5" y="-116.5" font-family="Helvetica,sans-Serif" font-size="10.00">::aiAction</text>
</a>
</g>
</g>
<!-- Node0&#45;&gt;Node1 -->
<g id="edge1" class="edge"><title>Node0&#45;&gt;Node1</title>
<path fill="none" stroke="midnightblue" d="M107.612,-117.524C122.598,-121.609 139.349,-125.465 155,-127.5 203.053,-133.749 257.701,-132.834 299.678,-130.442"/>
<polygon fill="midnightblue" stroke="midnightblue" points="300.025,-133.927 309.792,-129.823 299.597,-126.94 300.025,-133.927"/>
</g>
<!-- Node2 -->
<g id="node3" class="node"><title>Node2</title>
<g id="a_node3"><a xlink:href="class_view_1_1_action_scene_n_p_c.html#a90dd5d58856a5c950c68a667037169e2" target="_top" xlink:title="View::ActionSceneNPC\l::step">
<polygon fill="white" stroke="black" points="155,-38.5 155,-68.5 274,-68.5 274,-38.5 155,-38.5"/>
<text text-anchor="start" x="163" y="-56.5" font-family="Helvetica,sans-Serif" font-size="10.00">View::ActionSceneNPC</text>
<text text-anchor="middle" x="214.5" y="-45.5" font-family="Helvetica,sans-Serif" font-size="10.00">::step</text>
</a>
</g>
</g>
<!-- Node0&#45;&gt;Node2 -->
<g id="edge2" class="edge"><title>Node0&#45;&gt;Node2</title>
<path fill="none" stroke="midnightblue" d="M107.653,-87.3986C123.141,-82.4385 140.52,-76.8726 156.649,-71.7071"/>
<polygon fill="midnightblue" stroke="midnightblue" points="158.046,-74.9349 166.502,-68.5516 155.911,-68.2684 158.046,-74.9349"/>
</g>
<!-- Node5 -->
<g id="node6" class="node"><title>Node5</title>
<g id="a_node6"><a xlink:href="class_view_1_1_action_scene_n_p_c.html#aa74e1b0bfedf0221b7d3aad65efe5caa" target="_top" xlink:title="View::ActionSceneNPC\l::unleashEnemy">
<polygon fill="white" stroke="black" points="155,-87.5 155,-117.5 274,-117.5 274,-87.5 155,-87.5"/>
<text text-anchor="start" x="163" y="-105.5" font-family="Helvetica,sans-Serif" font-size="10.00">View::ActionSceneNPC</text>
<text text-anchor="middle" x="214.5" y="-94.5" font-family="Helvetica,sans-Serif" font-size="10.00">::unleashEnemy</text>
</a>
</g>
</g>
<!-- Node0&#45;&gt;Node5 -->
<g id="edge5" class="edge"><title>Node0&#45;&gt;Node5</title>
<path fill="none" stroke="midnightblue" d="M119.216,-102.5C127.544,-102.5 136.169,-102.5 144.667,-102.5"/>
<polygon fill="midnightblue" stroke="midnightblue" points="144.941,-106 154.941,-102.5 144.941,-99.0001 144.941,-106"/>
</g>
<!-- Node3 -->
<g id="node4" class="node"><title>Node3</title>
<g id="a_node4"><a xlink:href="class_view_1_1_action_scene_feet.html#a74dfcd6e4a0b5d3fc3dd27079107ecdc" target="_top" xlink:title="View::ActionSceneFeet\l::setPosition">
<polygon fill="white" stroke="black" points="310,-49.5 310,-79.5 429,-79.5 429,-49.5 310,-49.5"/>
<text text-anchor="start" x="318" y="-67.5" font-family="Helvetica,sans-Serif" font-size="10.00">View::ActionSceneFeet</text>
<text text-anchor="middle" x="369.5" y="-56.5" font-family="Helvetica,sans-Serif" font-size="10.00">::setPosition</text>
</a>
</g>
</g>
<!-- Node2&#45;&gt;Node3 -->
<g id="edge3" class="edge"><title>Node2&#45;&gt;Node3</title>
<path fill="none" stroke="midnightblue" d="M274.216,-57.7214C282.635,-58.3267 291.359,-58.9539 299.947,-59.5714"/>
<polygon fill="midnightblue" stroke="midnightblue" points="299.716,-63.0637 309.941,-60.2899 300.218,-56.0817 299.716,-63.0637"/>
</g>
<!-- Node4 -->
<g id="node5" class="node"><title>Node4</title>
<g id="a_node5"><a xlink:href="class_view_1_1_action_scene_feet.html#adb3d6be92f4099f725c0f604f6d892d6" target="_top" xlink:title="View::ActionSceneFeet\l::nextFrame">
<polygon fill="white" stroke="black" points="310,-0.5 310,-30.5 429,-30.5 429,-0.5 310,-0.5"/>
<text text-anchor="start" x="318" y="-18.5" font-family="Helvetica,sans-Serif" font-size="10.00">View::ActionSceneFeet</text>
<text text-anchor="middle" x="369.5" y="-7.5" font-family="Helvetica,sans-Serif" font-size="10.00">::nextFrame</text>
</a>
</g>
</g>
<!-- Node2&#45;&gt;Node4 -->
<g id="edge4" class="edge"><title>Node2&#45;&gt;Node4</title>
<path fill="none" stroke="midnightblue" d="M274.216,-38.9169C282.727,-36.8031 291.549,-34.6121 300.227,-32.4566"/>
<polygon fill="midnightblue" stroke="midnightblue" points="301.079,-35.8514 309.941,-30.0441 299.392,-29.0578 301.079,-35.8514"/>
</g>
<!-- Node5&#45;&gt;Node1 -->
<g id="edge6" class="edge"><title>Node5&#45;&gt;Node1</title>
<path fill="none" stroke="midnightblue" d="M274.216,-110.943C282.635,-112.153 291.359,-113.408 299.947,-114.643"/>
<polygon fill="midnightblue" stroke="midnightblue" points="299.545,-118.121 309.941,-116.08 300.541,-111.192 299.545,-118.121"/>
</g>
</g>
</svg>
