<?xml version="1.0" encoding="UTF-8" standalone="no"?>
<!DOCTYPE svg PUBLIC "-//W3C//DTD SVG 1.1//EN"
 "http://www.w3.org/Graphics/SVG/1.1/DTD/svg11.dtd">
<!-- Generated by graphviz version 2.38.0 (20140413.2041)
 -->
<!-- Title: Model::layoutGenerator::generateHall Pages: 1 -->
<svg width="572pt" height="137pt"
 viewBox="0.00 0.00 572.00 137.00" xmlns="http://www.w3.org/2000/svg" xmlns:xlink="http://www.w3.org/1999/xlink">
<g id="graph0" class="graph" transform="scale(1 1) rotate(0) translate(4 133)">
<title>Model::layoutGenerator::generateHall</title>
<polygon fill="white" stroke="none" points="-4,4 -4,-133 568,-133 568,4 -4,4"/>
<!-- Node2 -->
<g id="node1" class="node"><title>Node2</title>
<polygon fill="#bfbfbf" stroke="black" points="0,-49.5 0,-79.5 118,-79.5 118,-49.5 0,-49.5"/>
<text text-anchor="start" x="8" y="-67.5" font-family="Helvetica,sans-Serif" font-size="10.00">Model::layoutGenerator</text>
<text text-anchor="middle" x="59" y="-56.5" font-family="Helvetica,sans-Serif" font-size="10.00">::generateHall</text>
</g>
<!-- Node3 -->
<g id="node2" class="node"><title>Node3</title>
<g id="a_node2"><a xlink:href="class_model_1_1layout_generator.html#a80d0ad4662419fe534bc7af4aa700bfb" target="_top" xlink:title="Model::layoutGenerator\l::randomRoom">
<polygon fill="white" stroke="black" points="154,-98.5 154,-128.5 272,-128.5 272,-98.5 154,-98.5"/>
<text text-anchor="start" x="162" y="-116.5" font-family="Helvetica,sans-Serif" font-size="10.00">Model::layoutGenerator</text>
<text text-anchor="middle" x="213" y="-105.5" font-family="Helvetica,sans-Serif" font-size="10.00">::randomRoom</text>
</a>
</g>
</g>
<!-- Node2&#45;&gt;Node3 -->
<g id="edge1" class="edge"><title>Node2&#45;&gt;Node3</title>
<path fill="none" stroke="midnightblue" d="M106.845,-79.6014C122.232,-84.5615 139.497,-90.1274 155.521,-95.2929"/>
<polygon fill="midnightblue" stroke="midnightblue" points="154.718,-98.7113 165.309,-98.4484 156.866,-92.049 154.718,-98.7113"/>
</g>
<!-- Node6 -->
<g id="node5" class="node"><title>Node6</title>
<g id="a_node5"><a xlink:href="class_model_1_1layout_generator.html#aa1cf644a00a6eeed01f192be1905dbb5" target="_top" xlink:title="Model::layoutGenerator\l::roomOk">
<polygon fill="white" stroke="black" points="154,-49.5 154,-79.5 272,-79.5 272,-49.5 154,-49.5"/>
<text text-anchor="start" x="162" y="-67.5" font-family="Helvetica,sans-Serif" font-size="10.00">Model::layoutGenerator</text>
<text text-anchor="middle" x="213" y="-56.5" font-family="Helvetica,sans-Serif" font-size="10.00">::roomOk</text>
</a>
</g>
</g>
<!-- Node2&#45;&gt;Node6 -->
<g id="edge5" class="edge"><title>Node2&#45;&gt;Node6</title>
<path fill="none" stroke="midnightblue" d="M118.332,-64.5C126.606,-64.5 135.175,-64.5 143.617,-64.5"/>
<polygon fill="midnightblue" stroke="midnightblue" points="143.824,-68.0001 153.824,-64.5 143.824,-61.0001 143.824,-68.0001"/>
</g>
<!-- Node7 -->
<g id="node6" class="node"><title>Node7</title>
<g id="a_node6"><a xlink:href="class_model_1_1map_generator.html#a180f1510b8d7eb4af5dc919eeaddfa69" target="_top" xlink:title="Model::mapGenerator\l::setTile">
<polygon fill="white" stroke="black" points="158,-0.5 158,-30.5 268,-30.5 268,-0.5 158,-0.5"/>
<text text-anchor="start" x="166" y="-18.5" font-family="Helvetica,sans-Serif" font-size="10.00">Model::mapGenerator</text>
<text text-anchor="middle" x="213" y="-7.5" font-family="Helvetica,sans-Serif" font-size="10.00">::setTile</text>
</a>
</g>
</g>
<!-- Node2&#45;&gt;Node7 -->
<g id="edge6" class="edge"><title>Node2&#45;&gt;Node7</title>
<path fill="none" stroke="midnightblue" d="M106.845,-49.3986C122.232,-44.4385 139.497,-38.8726 155.521,-33.7071"/>
<polygon fill="midnightblue" stroke="midnightblue" points="156.866,-36.951 165.309,-30.5516 154.718,-30.2887 156.866,-36.951"/>
</g>
<!-- Node4 -->
<g id="node3" class="node"><title>Node4</title>
<g id="a_node3"><a xlink:href="class_model_1_1map_generator.html#a244ad56297f00ce2ab892d3b2a14ffac" target="_top" xlink:title="Model::mapGenerator\l::isInMapRange">
<polygon fill="white" stroke="black" points="454,-76.5 454,-106.5 564,-106.5 564,-76.5 454,-76.5"/>
<text text-anchor="start" x="462" y="-94.5" font-family="Helvetica,sans-Serif" font-size="10.00">Model::mapGenerator</text>
<text text-anchor="middle" x="509" y="-83.5" font-family="Helvetica,sans-Serif" font-size="10.00">::isInMapRange</text>
</a>
</g>
</g>
<!-- Node3&#45;&gt;Node4 -->
<g id="edge2" class="edge"><title>Node3&#45;&gt;Node4</title>
<path fill="none" stroke="midnightblue" d="M272.085,-109.154C321.401,-105.463 392.103,-100.173 443.235,-96.3464"/>
<polygon fill="midnightblue" stroke="midnightblue" points="443.8,-99.814 453.511,-95.5774 443.277,-92.8335 443.8,-99.814"/>
</g>
<!-- Node5 -->
<g id="node4" class="node"><title>Node5</title>
<g id="a_node4"><a xlink:href="class_model_1_1map_generator.html#aaac1161126a56490862e3b5fffffbded" target="_top" xlink:title="Model::mapGenerator\l::indexAt">
<polygon fill="white" stroke="black" points="308,-54.5 308,-84.5 418,-84.5 418,-54.5 308,-54.5"/>
<text text-anchor="start" x="316" y="-72.5" font-family="Helvetica,sans-Serif" font-size="10.00">Model::mapGenerator</text>
<text text-anchor="middle" x="363" y="-61.5" font-family="Helvetica,sans-Serif" font-size="10.00">::indexAt</text>
</a>
</g>
</g>
<!-- Node3&#45;&gt;Node5 -->
<g id="edge3" class="edge"><title>Node3&#45;&gt;Node5</title>
<path fill="none" stroke="midnightblue" d="M264.519,-98.4808C276.479,-94.9252 289.351,-91.0982 301.697,-87.4279"/>
<polygon fill="midnightblue" stroke="midnightblue" points="302.869,-90.7309 311.457,-84.5262 300.875,-84.0211 302.869,-90.7309"/>
</g>
<!-- Node5&#45;&gt;Node4 -->
<g id="edge4" class="edge"><title>Node5&#45;&gt;Node4</title>
<path fill="none" stroke="midnightblue" d="M418.03,-77.7546C426.405,-79.034 435.126,-80.3664 443.7,-81.6763"/>
<polygon fill="midnightblue" stroke="midnightblue" points="443.253,-85.1487 453.667,-83.1992 444.311,-78.229 443.253,-85.1487"/>
</g>
<!-- Node7&#45;&gt;Node5 -->
<g id="edge7" class="edge"><title>Node7&#45;&gt;Node5</title>
<path fill="none" stroke="midnightblue" d="M255.226,-30.542C272.554,-36.8643 292.886,-44.2828 311.132,-50.9402"/>
<polygon fill="midnightblue" stroke="midnightblue" points="310.144,-54.3054 320.738,-54.4451 312.544,-47.7294 310.144,-54.3054"/>
</g>
</g>
</svg>
