<?xml version="1.0" encoding="UTF-8" standalone="no"?>
<!DOCTYPE svg PUBLIC "-//W3C//DTD SVG 1.1//EN"
 "http://www.w3.org/Graphics/SVG/1.1/DTD/svg11.dtd">
<!-- Generated by graphviz version 2.38.0 (20140413.2041)
 -->
<!-- Title: View::CityScape::parkingHallSelectCompleted Pages: 1 -->
<svg width="475pt" height="39pt"
 viewBox="0.00 0.00 475.00 39.00" xmlns="http://www.w3.org/2000/svg" xmlns:xlink="http://www.w3.org/1999/xlink">
<g id="graph0" class="graph" transform="scale(1 1) rotate(0) translate(4 35)">
<title>View::CityScape::parkingHallSelectCompleted</title>
<polygon fill="white" stroke="none" points="-4,4 -4,-35 471,-35 471,4 -4,4"/>
<!-- Node31 -->
<g id="node1" class="node"><title>Node31</title>
<polygon fill="#bfbfbf" stroke="black" points="0,-0.5 0,-30.5 126,-30.5 126,-0.5 0,-0.5"/>
<text text-anchor="start" x="8" y="-18.5" font-family="Helvetica,sans-Serif" font-size="10.00">View::CityScape::parking</text>
<text text-anchor="middle" x="63" y="-7.5" font-family="Helvetica,sans-Serif" font-size="10.00">HallSelectCompleted</text>
</g>
<!-- Node32 -->
<g id="node2" class="node"><title>Node32</title>
<g id="a_node2"><a xlink:href="class_view_1_1_city_scape.html#a48c22a3695750e5ce104cd8ab548ba3e" target="_top" xlink:title="View::CityScape::parking\lHallSelectRequested">
<polygon fill="white" stroke="black" points="162,-0.5 162,-30.5 288,-30.5 288,-0.5 162,-0.5"/>
<text text-anchor="start" x="170" y="-18.5" font-family="Helvetica,sans-Serif" font-size="10.00">View::CityScape::parking</text>
<text text-anchor="middle" x="225" y="-7.5" font-family="Helvetica,sans-Serif" font-size="10.00">HallSelectRequested</text>
</a>
</g>
</g>
<!-- Node31&#45;&gt;Node32 -->
<g id="edge1" class="edge"><title>Node31&#45;&gt;Node32</title>
<path fill="none" stroke="midnightblue" d="M136.545,-15.5C144.996,-15.5 153.559,-15.5 161.852,-15.5"/>
<polygon fill="midnightblue" stroke="midnightblue" points="136.318,-12.0001 126.318,-15.5 136.318,-19.0001 136.318,-12.0001"/>
</g>
<!-- Node33 -->
<g id="node3" class="node"><title>Node33</title>
<g id="a_node3"><a xlink:href="class_view_1_1_city_scape.html#ae229758379e42e2a876a571439ed2e71" target="_top" xlink:title="View::CityScape::addParking\lHalls">
<polygon fill="white" stroke="black" points="324,-0.5 324,-30.5 467,-30.5 467,-0.5 324,-0.5"/>
<text text-anchor="start" x="332" y="-18.5" font-family="Helvetica,sans-Serif" font-size="10.00">View::CityScape::addParking</text>
<text text-anchor="middle" x="395.5" y="-7.5" font-family="Helvetica,sans-Serif" font-size="10.00">Halls</text>
</a>
</g>
</g>
<!-- Node32&#45;&gt;Node33 -->
<g id="edge2" class="edge"><title>Node32&#45;&gt;Node33</title>
<path fill="none" stroke="midnightblue" d="M298.472,-15.5C306.926,-15.5 315.541,-15.5 323.968,-15.5"/>
<polygon fill="midnightblue" stroke="midnightblue" points="298.264,-12.0001 288.264,-15.5 298.264,-19.0001 298.264,-12.0001"/>
</g>
</g>
</svg>
