<?xml version="1.0" encoding="UTF-8" standalone="no"?>
<!DOCTYPE svg PUBLIC "-//W3C//DTD SVG 1.1//EN"
 "http://www.w3.org/Graphics/SVG/1.1/DTD/svg11.dtd">
<!-- Generated by graphviz version 2.38.0 (20140413.2041)
 -->
<!-- Title: Model::Equipment Pages: 1 -->
<!--zoomable 479 -->
<svg id="main" version="1.1" xmlns="http://www.w3.org/2000/svg" xmlns:xlink="http://www.w3.org/1999/xlink" xml:space="preserve" onload="init(evt)">
<style type="text/css"><![CDATA[
.edge:hover path { stroke: red; }
.edge:hover polygon { stroke: red; fill: red; }
]]></style>
<script type="text/javascript"><![CDATA[
var edges = document.getElementsByTagName('g');
if (edges && edges.length) {
  for (var i=0;i<edges.length;i++) {
    if (edges[i].id.substr(0,4)=='edge') {
      edges[i].setAttribute('class','edge');
    }
  }
}
]]></script>
        <defs>
                <circle id="rim" cx="0" cy="0" r="7"/>
                <circle id="rim2" cx="0" cy="0" r="3.5"/>
                <g id="zoomPlus">
                        <use xlink:href="#rim" fill="#404040">
                                <set attributeName="fill" to="#808080" begin="zoomplus.mouseover" end="zoomplus.mouseout"/>
                        </use>
                        <path d="M-4,0h8M0,-4v8" fill="none" stroke="white" stroke-width="1.5" pointer-events="none"/>
                </g>
                <g id="zoomMin">
                        <use xlink:href="#rim" fill="#404040">
                                <set attributeName="fill" to="#808080" begin="zoomminus.mouseover" end="zoomminus.mouseout"/>
                        </use>
                        <path d="M-4,0h8" fill="none" stroke="white" stroke-width="1.5" pointer-events="none"/>
                </g>
                <g id="dirArrow">
                        <path fill="none" stroke="white" stroke-width="1.5" d="M0,-3.0v7 M-2.5,-0.5L0,-3.0L2.5,-0.5"/>
                </g>
               <g id="resetDef">
                       <use xlink:href="#rim2" fill="#404040">
                               <set attributeName="fill" to="#808080" begin="reset.mouseover" end="reset.mouseout"/>
                       </use>
               </g>
        </defs>

<script type="text/javascript">
var viewWidth = 451;
var viewHeight = 479;
var sectionId = 'dynsection-1';
</script>
<script xlink:href="svgpan.js"/>
<svg id="graph" class="graph">
<g id="viewport">
<title>Model::Equipment</title>
<polygon fill="white" stroke="none" points="-4,4 -4,-475 446.5,-475 446.5,4 -4,4"/>
<!-- Node2 -->
<g id="node1" class="node"><title>Node2</title>
<polygon fill="#bfbfbf" stroke="black" points="158,-0.5 158,-167.5 313,-167.5 313,-0.5 158,-0.5"/>
<text text-anchor="middle" x="235.5" y="-155.5" font-family="Helvetica,sans-Serif" font-size="10.00">Model::Equipment</text>
<polyline fill="none" stroke="black" points="158,-148.5 313,-148.5 "/>
<text text-anchor="middle" x="235.5" y="-136.5" font-family="Helvetica,sans-Serif" font-size="10.00"> </text>
<polyline fill="none" stroke="black" points="158,-129.5 313,-129.5 "/>
<text text-anchor="start" x="166" y="-117.5" font-family="Helvetica,sans-Serif" font-size="10.00">+ Equipment()</text>
<text text-anchor="start" x="166" y="-106.5" font-family="Helvetica,sans-Serif" font-size="10.00">+ Equipment()</text>
<text text-anchor="start" x="166" y="-95.5" font-family="Helvetica,sans-Serif" font-size="10.00">+ Equipment()</text>
<text text-anchor="start" x="166" y="-84.5" font-family="Helvetica,sans-Serif" font-size="10.00">+ Equipment()</text>
<text text-anchor="start" x="166" y="-73.5" font-family="Helvetica,sans-Serif" font-size="10.00">+ getPrice()</text>
<text text-anchor="start" x="166" y="-62.5" font-family="Helvetica,sans-Serif" font-size="10.00">+ getName()</text>
<text text-anchor="start" x="166" y="-51.5" font-family="Helvetica,sans-Serif" font-size="10.00">+ getType()</text>
<text text-anchor="start" x="166" y="-40.5" font-family="Helvetica,sans-Serif" font-size="10.00">+ getAmmo()</text>
<text text-anchor="start" x="166" y="-29.5" font-family="Helvetica,sans-Serif" font-size="10.00">+ getMaximumAmmoCapacity()</text>
<text text-anchor="start" x="166" y="-18.5" font-family="Helvetica,sans-Serif" font-size="10.00">+ getUpgradeLevel()</text>
<text text-anchor="start" x="166" y="-7.5" font-family="Helvetica,sans-Serif" font-size="10.00">and 12 more...</text>
</g>
<!-- Node3 -->
<g id="node2" class="node"><title>Node3</title>
<g id="a_node2"><a xlink:href="class_interface_1_1_equipment_interface.html" target="_top" xlink:title="EquipmentInterface on rajapintaluokka, josta peritään tavaroita (Equipment). ">
<polygon fill="white" stroke="black" points="0,-303.5 0,-470.5 155,-470.5 155,-303.5 0,-303.5"/>
<text text-anchor="middle" x="77.5" y="-458.5" font-family="Helvetica,sans-Serif" font-size="10.00">Interface::EquipmentInterface</text>
<polyline fill="none" stroke="black" points="0,-451.5 155,-451.5 "/>
<text text-anchor="middle" x="77.5" y="-439.5" font-family="Helvetica,sans-Serif" font-size="10.00"> </text>
<polyline fill="none" stroke="black" points="0,-432.5 155,-432.5 "/>
<text text-anchor="start" x="8" y="-420.5" font-family="Helvetica,sans-Serif" font-size="10.00">+ EquipmentInterface()</text>
<text text-anchor="start" x="8" y="-409.5" font-family="Helvetica,sans-Serif" font-size="10.00">+ ~EquipmentInterface()</text>
<text text-anchor="start" x="8" y="-398.5" font-family="Helvetica,sans-Serif" font-size="10.00">+ getPrice()</text>
<text text-anchor="start" x="8" y="-387.5" font-family="Helvetica,sans-Serif" font-size="10.00">+ getName()</text>
<text text-anchor="start" x="8" y="-376.5" font-family="Helvetica,sans-Serif" font-size="10.00">+ getType()</text>
<text text-anchor="start" x="8" y="-365.5" font-family="Helvetica,sans-Serif" font-size="10.00">+ getAmmo()</text>
<text text-anchor="start" x="8" y="-354.5" font-family="Helvetica,sans-Serif" font-size="10.00">+ getMaximumAmmoCapacity()</text>
<text text-anchor="start" x="8" y="-343.5" font-family="Helvetica,sans-Serif" font-size="10.00">+ getUpgradeLevel()</text>
<text text-anchor="start" x="8" y="-332.5" font-family="Helvetica,sans-Serif" font-size="10.00">+ getRange()</text>
<text text-anchor="start" x="8" y="-321.5" font-family="Helvetica,sans-Serif" font-size="10.00">+ getDamage()</text>
<text text-anchor="start" x="8" y="-310.5" font-family="Helvetica,sans-Serif" font-size="10.00">and 8 more...</text>
</a>
</g>
</g>
<!-- Node3&#45;&gt;Node2 -->
<g id="edge1" class="edge"><title>Node3&#45;&gt;Node2</title>
<path fill="none" stroke="midnightblue" d="M125.623,-294.323C146.794,-253.991 171.475,-206.971 192.077,-167.724"/>
<polygon fill="none" stroke="midnightblue" points="122.432,-292.871 120.883,-303.352 128.63,-296.125 122.432,-292.871"/>
</g>
<!-- Node4 -->
<g id="node3" class="node"><title>Node4</title>
<polygon fill="white" stroke="#bfbfbf" points="173,-358.5 173,-415.5 218,-415.5 218,-358.5 173,-358.5"/>
<text text-anchor="middle" x="195.5" y="-403.5" font-family="Helvetica,sans-Serif" font-size="10.00">double</text>
<polyline fill="none" stroke="#bfbfbf" points="173,-396.5 218,-396.5 "/>
<text text-anchor="middle" x="195.5" y="-384.5" font-family="Helvetica,sans-Serif" font-size="10.00"> </text>
<polyline fill="none" stroke="#bfbfbf" points="173,-377.5 218,-377.5 "/>
<text text-anchor="middle" x="195.5" y="-365.5" font-family="Helvetica,sans-Serif" font-size="10.00"> </text>
</g>
<!-- Node4&#45;&gt;Node2 -->
<g id="edge2" class="edge"><title>Node4&#45;&gt;Node2</title>
<path fill="none" stroke="#404040" d="M192.496,-358.199C189.001,-319.29 185.057,-246.561 196.5,-186 196.914,-183.81 197.373,-181.605 197.873,-179.393"/>
<polygon fill="none" stroke="#404040" points="197.934,-179.151 195.54,-172.349 200.899,-167.523 203.293,-174.325 197.934,-179.151"/>
<text text-anchor="middle" x="225" y="-238.5" font-family="Helvetica,sans-Serif" font-size="10.00"> &#45;accuracy_</text>
<text text-anchor="middle" x="225" y="-227.5" font-family="Helvetica,sans-Serif" font-size="10.00">&#45;effectValue_</text>
</g>
<!-- Node5 -->
<g id="node4" class="node"><title>Node5</title>
<polygon fill="white" stroke="#bfbfbf" points="250.5,-358.5 250.5,-415.5 300.5,-415.5 300.5,-358.5 250.5,-358.5"/>
<text text-anchor="middle" x="275.5" y="-403.5" font-family="Helvetica,sans-Serif" font-size="10.00">QString</text>
<polyline fill="none" stroke="#bfbfbf" points="250.5,-396.5 300.5,-396.5 "/>
<text text-anchor="middle" x="275.5" y="-384.5" font-family="Helvetica,sans-Serif" font-size="10.00"> </text>
<polyline fill="none" stroke="#bfbfbf" points="250.5,-377.5 300.5,-377.5 "/>
<text text-anchor="middle" x="275.5" y="-365.5" font-family="Helvetica,sans-Serif" font-size="10.00"> </text>
</g>
<!-- Node5&#45;&gt;Node2 -->
<g id="edge3" class="edge"><title>Node5&#45;&gt;Node2</title>
<path fill="none" stroke="#404040" d="M273.055,-358.428C269.494,-319.787 262.334,-247.371 253.5,-186 253.19,-183.846 252.868,-181.667 252.537,-179.472"/>
<polygon fill="none" stroke="#404040" points="252.536,-179.462 247.659,-174.151 250.685,-167.606 255.563,-172.917 252.536,-179.462"/>
<text text-anchor="middle" x="284.5" y="-244" font-family="Helvetica,sans-Serif" font-size="10.00"> &#45;name_</text>
<text text-anchor="middle" x="284.5" y="-233" font-family="Helvetica,sans-Serif" font-size="10.00">&#45;type_</text>
<text text-anchor="middle" x="284.5" y="-222" font-family="Helvetica,sans-Serif" font-size="10.00">&#45;effect_</text>
</g>
<!-- Node6 -->
<g id="node5" class="node"><title>Node6</title>
<polygon fill="white" stroke="#bfbfbf" points="320,-358.5 320,-415.5 349,-415.5 349,-358.5 320,-358.5"/>
<text text-anchor="middle" x="334.5" y="-403.5" font-family="Helvetica,sans-Serif" font-size="10.00">int</text>
<polyline fill="none" stroke="#bfbfbf" points="320,-396.5 349,-396.5 "/>
<text text-anchor="middle" x="334.5" y="-384.5" font-family="Helvetica,sans-Serif" font-size="10.00"> </text>
<polyline fill="none" stroke="#bfbfbf" points="320,-377.5 349,-377.5 "/>
<text text-anchor="middle" x="334.5" y="-365.5" font-family="Helvetica,sans-Serif" font-size="10.00"> </text>
</g>
<!-- Node6&#45;&gt;Node2 -->
<g id="edge4" class="edge"><title>Node6&#45;&gt;Node2</title>
<path fill="none" stroke="#404040" d="M334.678,-358.447C334.049,-318.899 329.54,-244.377 306.5,-186 305.509,-183.489 304.444,-180.981 303.314,-178.481"/>
<polygon fill="none" stroke="#404040" points="303.258,-178.368 297.025,-174.741 297.976,-167.593 304.209,-171.219 303.258,-178.368"/>
<text text-anchor="middle" x="386" y="-277" font-family="Helvetica,sans-Serif" font-size="10.00"> &#45;damage_</text>
<text text-anchor="middle" x="386" y="-266" font-family="Helvetica,sans-Serif" font-size="10.00">&#45;range_</text>
<text text-anchor="middle" x="386" y="-255" font-family="Helvetica,sans-Serif" font-size="10.00">&#45;currentAmmo_</text>
<text text-anchor="middle" x="386" y="-244" font-family="Helvetica,sans-Serif" font-size="10.00">&#45;minTechLvl_</text>
<text text-anchor="middle" x="386" y="-233" font-family="Helvetica,sans-Serif" font-size="10.00">&#45;price_</text>
<text text-anchor="start" x="329.5" y="-222" font-family="Helvetica,sans-Serif" font-size="10.00">&#45;maximumAmmoCapacity</text>
<text text-anchor="middle" x="386" y="-211" font-family="Helvetica,sans-Serif" font-size="10.00">_</text>
<text text-anchor="middle" x="386" y="-200" font-family="Helvetica,sans-Serif" font-size="10.00">&#45;rate_</text>
<text text-anchor="middle" x="386" y="-189" font-family="Helvetica,sans-Serif" font-size="10.00">&#45;upgradeLevel_</text>
</g>
</g>
</svg>
        <g id="navigator" transform="translate(0 0)" fill="#404254">
                <rect fill="#f2f5e9" fill-opacity="0.5" stroke="#606060" stroke-width=".5" x="0" y="0" width="60" height="60"/>
                <use id="zoomplus" xlink:href="#zoomPlus" x="17" y="9" onmousedown="handleZoom(evt,'in')"/>
                <use id="zoomminus" xlink:href="#zoomMin" x="42" y="9" onmousedown="handleZoom(evt,'out')"/>
                <use id="reset" xlink:href="#resetDef" x="30" y="36" onmousedown="handleReset()"/>
                <g id="arrowUp" xlink:href="#dirArrow" transform="translate(30 24)" onmousedown="handlePan(0,-1)">
                  <use xlink:href="#rim" fill="#404040">
                        <set attributeName="fill" to="#808080" begin="arrowUp.mouseover" end="arrowUp.mouseout"/>
                  </use>
                  <path fill="none" stroke="white" stroke-width="1.5" d="M0,-3.0v7 M-2.5,-0.5L0,-3.0L2.5,-0.5"/>
                </g>
                <g id="arrowRight" xlink:href="#dirArrow" transform="rotate(90) translate(36 -43)" onmousedown="handlePan(1,0)">
                  <use xlink:href="#rim" fill="#404040">
                        <set attributeName="fill" to="#808080" begin="arrowRight.mouseover" end="arrowRight.mouseout"/>
                  </use>
                  <path fill="none" stroke="white" stroke-width="1.5" d="M0,-3.0v7 M-2.5,-0.5L0,-3.0L2.5,-0.5"/>
                </g>
                <g id="arrowDown" xlink:href="#dirArrow" transform="rotate(180) translate(-30 -48)" onmousedown="handlePan(0,1)">
                  <use xlink:href="#rim" fill="#404040">
                        <set attributeName="fill" to="#808080" begin="arrowDown.mouseover" end="arrowDown.mouseout"/>
                  </use>
                  <path fill="none" stroke="white" stroke-width="1.5" d="M0,-3.0v7 M-2.5,-0.5L0,-3.0L2.5,-0.5"/>
                </g>
                <g id="arrowLeft" xlink:href="#dirArrow" transform="rotate(270) translate(-36 17)" onmousedown="handlePan(-1,0)">
                  <use xlink:href="#rim" fill="#404040">
                        <set attributeName="fill" to="#808080" begin="arrowLeft.mouseover" end="arrowLeft.mouseout"/>
                  </use>
                  <path fill="none" stroke="white" stroke-width="1.5" d="M0,-3.0v7 M-2.5,-0.5L0,-3.0L2.5,-0.5"/>
                </g>
        </g>
        <svg viewBox="0 0 15 15" width="100%" height="30px" preserveAspectRatio="xMaxYMin meet">
         <g id="arrow_out" transform="scale(0.3 0.3)">
          <a xlink:href="class_model_1_1_equipment__coll__graph_org.svg" target="_base">
           <rect id="button" ry="5" rx="5" y="6" x="6" height="38" width="38"
                fill="#f2f5e9" fill-opacity="0.5" stroke="#606060" stroke-width="1.0"/>
           <path id="arrow"
             d="M 11.500037,31.436501 C 11.940474,20.09759 22.043105,11.32322 32.158766,21.979434 L 37.068811,17.246167 C 37.068811,17.246167 37.088388,32 37.088388,32 L 22.160133,31.978069 C 22.160133,31.978069 26.997745,27.140456 26.997745,27.140456 C 18.528582,18.264221 13.291696,25.230495 11.500037,31.436501 z"
             style="fill:#404040;"/>
          </a>
         </g>
        </svg>
</svg>
