<?xml version="1.0" encoding="UTF-8" standalone="no"?>
<!DOCTYPE svg PUBLIC "-//W3C//DTD SVG 1.1//EN"
 "http://www.w3.org/Graphics/SVG/1.1/DTD/svg11.dtd">
<!-- Generated by graphviz version 2.38.0 (20140413.2041)
 -->
<!-- Title: Model::parkSpaceInserter Pages: 1 -->
<!--zoomable 650 -->
<svg id="main" version="1.1" xmlns="http://www.w3.org/2000/svg" xmlns:xlink="http://www.w3.org/1999/xlink" xml:space="preserve" onload="init(evt)">
<style type="text/css"><![CDATA[
.edge:hover path { stroke: red; }
.edge:hover polygon { stroke: red; fill: red; }
]]></style>
<script type="text/javascript"><![CDATA[
var edges = document.getElementsByTagName('g');
if (edges && edges.length) {
  for (var i=0;i<edges.length;i++) {
    if (edges[i].id.substr(0,4)=='edge') {
      edges[i].setAttribute('class','edge');
    }
  }
}
]]></script>
        <defs>
                <circle id="rim" cx="0" cy="0" r="7"/>
                <circle id="rim2" cx="0" cy="0" r="3.5"/>
                <g id="zoomPlus">
                        <use xlink:href="#rim" fill="#404040">
                                <set attributeName="fill" to="#808080" begin="zoomplus.mouseover" end="zoomplus.mouseout"/>
                        </use>
                        <path d="M-4,0h8M0,-4v8" fill="none" stroke="white" stroke-width="1.5" pointer-events="none"/>
                </g>
                <g id="zoomMin">
                        <use xlink:href="#rim" fill="#404040">
                                <set attributeName="fill" to="#808080" begin="zoomminus.mouseover" end="zoomminus.mouseout"/>
                        </use>
                        <path d="M-4,0h8" fill="none" stroke="white" stroke-width="1.5" pointer-events="none"/>
                </g>
                <g id="dirArrow">
                        <path fill="none" stroke="white" stroke-width="1.5" d="M0,-3.0v7 M-2.5,-0.5L0,-3.0L2.5,-0.5"/>
                </g>
               <g id="resetDef">
                       <use xlink:href="#rim2" fill="#404040">
                               <set attributeName="fill" to="#808080" begin="reset.mouseover" end="reset.mouseout"/>
                       </use>
               </g>
        </defs>

<script type="text/javascript">
var viewWidth = 716;
var viewHeight = 650;
var sectionId = 'dynsection-0';
</script>
<script xlink:href="svgpan.js"/>
<svg id="graph" class="graph">
<g id="viewport">
<title>Model::parkSpaceInserter</title>
<polygon fill="white" stroke="none" points="-4,4 -4,-646 711.5,-646 711.5,4 -4,4"/>
<!-- Node1 -->
<g id="node1" class="node"><title>Node1</title>
<polygon fill="#bfbfbf" stroke="black" points="321.5,-507.5 321.5,-630.5 449.5,-630.5 449.5,-507.5 321.5,-507.5"/>
<text text-anchor="middle" x="385.5" y="-618.5" font-family="Helvetica,sans-Serif" font-size="10.00">Model::parkSpaceInserter</text>
<polyline fill="none" stroke="black" points="321.5,-611.5 449.5,-611.5 "/>
<text text-anchor="middle" x="385.5" y="-599.5" font-family="Helvetica,sans-Serif" font-size="10.00"> </text>
<polyline fill="none" stroke="black" points="321.5,-592.5 449.5,-592.5 "/>
<text text-anchor="start" x="329.5" y="-580.5" font-family="Helvetica,sans-Serif" font-size="10.00">+ parkSpaceInserter()</text>
<text text-anchor="start" x="329.5" y="-569.5" font-family="Helvetica,sans-Serif" font-size="10.00">+ addSpaces()</text>
<text text-anchor="start" x="329.5" y="-558.5" font-family="Helvetica,sans-Serif" font-size="10.00">&#45; addParkingSpaces_()</text>
<text text-anchor="start" x="329.5" y="-547.5" font-family="Helvetica,sans-Serif" font-size="10.00">&#45; getWallTiles()</text>
<text text-anchor="start" x="329.5" y="-536.5" font-family="Helvetica,sans-Serif" font-size="10.00">&#45; removeBlockedSpaces()</text>
<text text-anchor="start" x="329.5" y="-525.5" font-family="Helvetica,sans-Serif" font-size="10.00">&#45; floodFill()</text>
<text text-anchor="start" x="329.5" y="-514.5" font-family="Helvetica,sans-Serif" font-size="10.00">&#45; getRelativeDirection()</text>
</g>
<!-- Node2 -->
<g id="node2" class="node"><title>Node2</title>
<g id="a_node2"><a xlink:href="class_model_1_1map_generator.html" target="_top" xlink:title="{Model::mapGenerator\n||+ mapGenerator()\l+ getTile()\l+ getHeight()\l+ getWidth()\l+ getStartX()\l+ getStartY()\l+ generateHall()\l+ getLayout()\l&#45; getMedialMap()\l&#45; getDistanceMap()\l&#45; isInMapRange()\l&#45; GetSurroundingWallCount()\l&#45; getClosestEdge()\l&#45; indexToX()\l&#45; indexToY()\l&#45; indexAt()\l&#45; setTile()\l&#45; setTile()\l&#45; getTile()\l&#45; printLayout()\l}">
<polygon fill="white" stroke="black" points="238,-138.5 238,-404.5 379,-404.5 379,-138.5 238,-138.5"/>
<text text-anchor="middle" x="308.5" y="-392.5" font-family="Helvetica,sans-Serif" font-size="10.00">Model::mapGenerator</text>
<polyline fill="none" stroke="black" points="238,-385.5 379,-385.5 "/>
<text text-anchor="middle" x="308.5" y="-373.5" font-family="Helvetica,sans-Serif" font-size="10.00"> </text>
<polyline fill="none" stroke="black" points="238,-366.5 379,-366.5 "/>
<text text-anchor="start" x="246" y="-354.5" font-family="Helvetica,sans-Serif" font-size="10.00">+ mapGenerator()</text>
<text text-anchor="start" x="246" y="-343.5" font-family="Helvetica,sans-Serif" font-size="10.00">+ getTile()</text>
<text text-anchor="start" x="246" y="-332.5" font-family="Helvetica,sans-Serif" font-size="10.00">+ getHeight()</text>
<text text-anchor="start" x="246" y="-321.5" font-family="Helvetica,sans-Serif" font-size="10.00">+ getWidth()</text>
<text text-anchor="start" x="246" y="-310.5" font-family="Helvetica,sans-Serif" font-size="10.00">+ getStartX()</text>
<text text-anchor="start" x="246" y="-299.5" font-family="Helvetica,sans-Serif" font-size="10.00">+ getStartY()</text>
<text text-anchor="start" x="246" y="-288.5" font-family="Helvetica,sans-Serif" font-size="10.00">+ generateHall()</text>
<text text-anchor="start" x="246" y="-277.5" font-family="Helvetica,sans-Serif" font-size="10.00">+ getLayout()</text>
<text text-anchor="start" x="246" y="-266.5" font-family="Helvetica,sans-Serif" font-size="10.00">&#45; getMedialMap()</text>
<text text-anchor="start" x="246" y="-255.5" font-family="Helvetica,sans-Serif" font-size="10.00">&#45; getDistanceMap()</text>
<text text-anchor="start" x="246" y="-244.5" font-family="Helvetica,sans-Serif" font-size="10.00">&#45; isInMapRange()</text>
<text text-anchor="start" x="246" y="-233.5" font-family="Helvetica,sans-Serif" font-size="10.00">&#45; GetSurroundingWallCount()</text>
<text text-anchor="start" x="246" y="-222.5" font-family="Helvetica,sans-Serif" font-size="10.00">&#45; getClosestEdge()</text>
<text text-anchor="start" x="246" y="-211.5" font-family="Helvetica,sans-Serif" font-size="10.00">&#45; indexToX()</text>
<text text-anchor="start" x="246" y="-200.5" font-family="Helvetica,sans-Serif" font-size="10.00">&#45; indexToY()</text>
<text text-anchor="start" x="246" y="-189.5" font-family="Helvetica,sans-Serif" font-size="10.00">&#45; indexAt()</text>
<text text-anchor="start" x="246" y="-178.5" font-family="Helvetica,sans-Serif" font-size="10.00">&#45; setTile()</text>
<text text-anchor="start" x="246" y="-167.5" font-family="Helvetica,sans-Serif" font-size="10.00">&#45; setTile()</text>
<text text-anchor="start" x="246" y="-156.5" font-family="Helvetica,sans-Serif" font-size="10.00">&#45; getTile()</text>
<text text-anchor="start" x="246" y="-145.5" font-family="Helvetica,sans-Serif" font-size="10.00">&#45; printLayout()</text>
</a>
</g>
</g>
<!-- Node1&#45;&gt;Node2 -->
<g id="edge11" class="edge"><title>Node1&#45;&gt;Node2</title>
<path fill="none" stroke="#404040" d="M321.608,-507.251C315.066,-498.095 309.4,-488.259 305.5,-478 298.178,-458.743 294.312,-437.719 292.715,-416.704"/>
<polygon fill="none" stroke="#404040" points="292.714,-416.676 288.383,-410.91 292.041,-404.695 296.371,-410.461 292.714,-416.676"/>
<text text-anchor="middle" x="351" y="-448" font-family="Helvetica,sans-Serif" font-size="10.00"> &#45;parkSpaceInserter_</text>
</g>
<!-- Node2&#45;&gt;Node1 -->
<g id="edge1" class="edge"><title>Node2&#45;&gt;Node1</title>
<path fill="none" stroke="#404040" d="M379.176,-371.387C387.952,-387.944 395.564,-405.46 400.5,-423 406.981,-446.027 406.631,-471.818 403.611,-495.192"/>
<polygon fill="none" stroke="#404040" points="403.594,-495.301 406.658,-501.829 401.81,-507.167 398.747,-500.639 403.594,-495.301"/>
<text text-anchor="middle" x="422" y="-448" font-family="Helvetica,sans-Serif" font-size="10.00"> &#45;map_</text>
</g>
<!-- Node9 -->
<g id="node9" class="node"><title>Node9</title>
<g id="a_node9"><a xlink:href="class_model_1_1layout_generator.html" target="_top" xlink:title="{Model::layoutGenerator\n||+ layoutGenerator()\l+ generateHall()\l&#45; roomOk()\l&#45; randomRoom()\l}">
<polygon fill="white" stroke="black" points="145.5,-0.5 145.5,-90.5 263.5,-90.5 263.5,-0.5 145.5,-0.5"/>
<text text-anchor="middle" x="204.5" y="-78.5" font-family="Helvetica,sans-Serif" font-size="10.00">Model::layoutGenerator</text>
<polyline fill="none" stroke="black" points="145.5,-71.5 263.5,-71.5 "/>
<text text-anchor="middle" x="204.5" y="-59.5" font-family="Helvetica,sans-Serif" font-size="10.00"> </text>
<polyline fill="none" stroke="black" points="145.5,-52.5 263.5,-52.5 "/>
<text text-anchor="start" x="153.5" y="-40.5" font-family="Helvetica,sans-Serif" font-size="10.00">+ layoutGenerator()</text>
<text text-anchor="start" x="153.5" y="-29.5" font-family="Helvetica,sans-Serif" font-size="10.00">+ generateHall()</text>
<text text-anchor="start" x="153.5" y="-18.5" font-family="Helvetica,sans-Serif" font-size="10.00">&#45; roomOk()</text>
<text text-anchor="start" x="153.5" y="-7.5" font-family="Helvetica,sans-Serif" font-size="10.00">&#45; randomRoom()</text>
</a>
</g>
</g>
<!-- Node2&#45;&gt;Node9 -->
<g id="edge9" class="edge"><title>Node2&#45;&gt;Node9</title>
<path fill="none" stroke="#404040" d="M299.451,-138.42C296.09,-128.118 291.841,-118.169 286.5,-109 282.657,-102.402 277.818,-96.2681 272.421,-90.626"/>
<polygon fill="none" stroke="#404040" points="272.233,-90.447 265.13,-89.204 263.545,-82.1692 270.649,-83.4121 272.233,-90.447"/>
<text text-anchor="middle" x="328" y="-112" font-family="Helvetica,sans-Serif" font-size="10.00"> &#45;mapGenerator_</text>
</g>
<!-- Node3 -->
<g id="node3" class="node"><title>Node3</title>
<g id="a_node3"><a xlink:href="class_interface_1_1_parkin_hall_layout_interface.html" target="_top" xlink:title="{Interface::ParkinHallLayout\lInterface\n||+ ParkinHallLayoutInterface()\l+ generateHall()\l+ getLayout()\l+ getTile()\l+ getStartX()\l+ getStartY()\l+ getHeight()\l+ getWidth()\l}">
<polygon fill="white" stroke="black" points="47.5,-496.5 47.5,-641.5 189.5,-641.5 189.5,-496.5 47.5,-496.5"/>
<text text-anchor="start" x="55.5" y="-629.5" font-family="Helvetica,sans-Serif" font-size="10.00">Interface::ParkinHallLayout</text>
<text text-anchor="middle" x="118.5" y="-618.5" font-family="Helvetica,sans-Serif" font-size="10.00">Interface</text>
<polyline fill="none" stroke="black" points="47.5,-611.5 189.5,-611.5 "/>
<text text-anchor="middle" x="118.5" y="-599.5" font-family="Helvetica,sans-Serif" font-size="10.00"> </text>
<polyline fill="none" stroke="black" points="47.5,-592.5 189.5,-592.5 "/>
<text text-anchor="start" x="55.5" y="-580.5" font-family="Helvetica,sans-Serif" font-size="10.00">+ ParkinHallLayoutInterface()</text>
<text text-anchor="start" x="55.5" y="-569.5" font-family="Helvetica,sans-Serif" font-size="10.00">+ generateHall()</text>
<text text-anchor="start" x="55.5" y="-558.5" font-family="Helvetica,sans-Serif" font-size="10.00">+ getLayout()</text>
<text text-anchor="start" x="55.5" y="-547.5" font-family="Helvetica,sans-Serif" font-size="10.00">+ getTile()</text>
<text text-anchor="start" x="55.5" y="-536.5" font-family="Helvetica,sans-Serif" font-size="10.00">+ getStartX()</text>
<text text-anchor="start" x="55.5" y="-525.5" font-family="Helvetica,sans-Serif" font-size="10.00">+ getStartY()</text>
<text text-anchor="start" x="55.5" y="-514.5" font-family="Helvetica,sans-Serif" font-size="10.00">+ getHeight()</text>
<text text-anchor="start" x="55.5" y="-503.5" font-family="Helvetica,sans-Serif" font-size="10.00">+ getWidth()</text>
</a>
</g>
</g>
<!-- Node3&#45;&gt;Node2 -->
<g id="edge2" class="edge"><title>Node3&#45;&gt;Node2</title>
<path fill="none" stroke="midnightblue" d="M170.006,-487.894C190.905,-455.392 215.384,-417.321 237.901,-382.3"/>
<polygon fill="none" stroke="midnightblue" points="166.958,-486.163 164.494,-496.468 172.846,-489.949 166.958,-486.163"/>
</g>
<!-- Node4 -->
<g id="node4" class="node"><title>Node4</title>
<polygon fill="white" stroke="#bfbfbf" points="207.5,-540.5 207.5,-597.5 303.5,-597.5 303.5,-540.5 207.5,-540.5"/>
<text text-anchor="middle" x="255.5" y="-585.5" font-family="Helvetica,sans-Serif" font-size="10.00">vector&lt; TileType &gt;</text>
<polyline fill="none" stroke="#bfbfbf" points="207.5,-578.5 303.5,-578.5 "/>
<text text-anchor="middle" x="255.5" y="-566.5" font-family="Helvetica,sans-Serif" font-size="10.00"> </text>
<polyline fill="none" stroke="#bfbfbf" points="207.5,-559.5 303.5,-559.5 "/>
<text text-anchor="middle" x="255.5" y="-547.5" font-family="Helvetica,sans-Serif" font-size="10.00"> </text>
</g>
<!-- Node4&#45;&gt;Node2 -->
<g id="edge3" class="edge"><title>Node4&#45;&gt;Node2</title>
<path fill="none" stroke="#404040" d="M253.037,-540.237C251.048,-510.877 249.588,-463.32 256.5,-423 256.853,-420.939 257.231,-418.869 257.632,-416.792"/>
<polygon fill="none" stroke="#404040" points="257.678,-416.572 255.007,-409.874 260.162,-404.832 262.833,-411.53 257.678,-416.572"/>
<text text-anchor="middle" x="271.5" y="-448" font-family="Helvetica,sans-Serif" font-size="10.00"> &#45;tiles_</text>
</g>
<!-- Node5 -->
<g id="node5" class="node"><title>Node5</title>
<polygon fill="white" stroke="#bfbfbf" points="468,-535 468,-603 571,-603 571,-535 468,-535"/>
<text text-anchor="start" x="476" y="-591" font-family="Helvetica,sans-Serif" font-size="10.00">unique_ptr&lt; Model::</text>
<text text-anchor="middle" x="519.5" y="-580" font-family="Helvetica,sans-Serif" font-size="10.00">mapProcessor &gt;</text>
<polyline fill="none" stroke="#bfbfbf" points="468,-573 571,-573 "/>
<text text-anchor="middle" x="519.5" y="-561" font-family="Helvetica,sans-Serif" font-size="10.00"> </text>
<polyline fill="none" stroke="#bfbfbf" points="468,-554 571,-554 "/>
<text text-anchor="middle" x="519.5" y="-542" font-family="Helvetica,sans-Serif" font-size="10.00"> </text>
</g>
<!-- Node5&#45;&gt;Node2 -->
<g id="edge4" class="edge"><title>Node5&#45;&gt;Node2</title>
<path fill="none" stroke="#404040" d="M504.346,-534.78C489.933,-504.545 466.75,-459.233 441.5,-423 425.277,-399.721 405.929,-376.034 387.082,-354.551"/>
<polygon fill="none" stroke="#404040" points="387.006,-354.466 380.033,-352.63 379.046,-345.487 386.019,-347.323 387.006,-354.466"/>
<text text-anchor="middle" x="513" y="-448" font-family="Helvetica,sans-Serif" font-size="10.00"> &#45;mapProcessor_</text>
</g>
<!-- Node6 -->
<g id="node6" class="node"><title>Node6</title>
<polygon fill="white" stroke="#bfbfbf" points="0,-540.5 0,-597.5 29,-597.5 29,-540.5 0,-540.5"/>
<text text-anchor="middle" x="14.5" y="-585.5" font-family="Helvetica,sans-Serif" font-size="10.00">int</text>
<polyline fill="none" stroke="#bfbfbf" points="0,-578.5 29,-578.5 "/>
<text text-anchor="middle" x="14.5" y="-566.5" font-family="Helvetica,sans-Serif" font-size="10.00"> </text>
<polyline fill="none" stroke="#bfbfbf" points="0,-559.5 29,-559.5 "/>
<text text-anchor="middle" x="14.5" y="-547.5" font-family="Helvetica,sans-Serif" font-size="10.00"> </text>
</g>
<!-- Node6&#45;&gt;Node2 -->
<g id="edge5" class="edge"><title>Node6&#45;&gt;Node2</title>
<path fill="none" stroke="#404040" d="M20.9181,-540.216C24.8119,-526.361 30.5803,-509.685 38.5,-496 83.2316,-418.705 165.411,-356.58 227.402,-317.635"/>
<polygon fill="none" stroke="#404040" points="227.742,-317.424 230.739,-310.866 237.946,-311.11 234.949,-317.669 227.742,-317.424"/>
<text text-anchor="middle" x="127" y="-470" font-family="Helvetica,sans-Serif" font-size="10.00"> &#45;startX</text>
<text text-anchor="middle" x="127" y="-459" font-family="Helvetica,sans-Serif" font-size="10.00">&#45;startY</text>
<text text-anchor="middle" x="127" y="-448" font-family="Helvetica,sans-Serif" font-size="10.00">&#45;height_</text>
<text text-anchor="middle" x="127" y="-437" font-family="Helvetica,sans-Serif" font-size="10.00">&#45;width_</text>
<text text-anchor="middle" x="127" y="-426" font-family="Helvetica,sans-Serif" font-size="10.00">&#45;maxRoomCount</text>
</g>
<!-- Node6&#45;&gt;Node9 -->
<g id="edge10" class="edge"><title>Node6&#45;&gt;Node9</title>
<path fill="none" stroke="#404040" d="M20.1023,-540.406C26.3645,-510.984 37.3688,-463.188 50.5,-423 88.6531,-306.234 146.057,-174.323 178.937,-101.758"/>
<polygon fill="none" stroke="#404040" points="179.028,-101.556 177.871,-94.4379 183.996,-90.6321 185.154,-97.7498 179.028,-101.556"/>
<text text-anchor="middle" x="192.5" y="-280" font-family="Helvetica,sans-Serif" font-size="10.00"> &#45;height_</text>
<text text-anchor="middle" x="192.5" y="-269" font-family="Helvetica,sans-Serif" font-size="10.00">&#45;width_</text>
<text text-anchor="middle" x="192.5" y="-258" font-family="Helvetica,sans-Serif" font-size="10.00">&#45;maxRooms_</text>
</g>
<!-- Node7 -->
<g id="node7" class="node"><title>Node7</title>
<polygon fill="white" stroke="#bfbfbf" points="589.5,-540.5 589.5,-597.5 635.5,-597.5 635.5,-540.5 589.5,-540.5"/>
<text text-anchor="middle" x="612.5" y="-585.5" font-family="Helvetica,sans-Serif" font-size="10.00">Layout</text>
<polyline fill="none" stroke="#bfbfbf" points="589.5,-578.5 635.5,-578.5 "/>
<text text-anchor="middle" x="612.5" y="-566.5" font-family="Helvetica,sans-Serif" font-size="10.00"> </text>
<polyline fill="none" stroke="#bfbfbf" points="589.5,-559.5 635.5,-559.5 "/>
<text text-anchor="middle" x="612.5" y="-547.5" font-family="Helvetica,sans-Serif" font-size="10.00"> </text>
</g>
<!-- Node7&#45;&gt;Node2 -->
<g id="edge6" class="edge"><title>Node7&#45;&gt;Node2</title>
<path fill="none" stroke="#404040" d="M607.001,-540.436C599.585,-509.068 583.796,-457.701 554.5,-423 510.327,-370.676 443.136,-331.303 390.131,-305.978"/>
<polygon fill="none" stroke="#404040" points="389.917,-305.877 382.787,-306.955 379.05,-300.788 386.18,-299.71 389.917,-305.877"/>
<text text-anchor="middle" x="606.5" y="-448" font-family="Helvetica,sans-Serif" font-size="10.00"> &#45;layout_</text>
</g>
<!-- Node8 -->
<g id="node8" class="node"><title>Node8</title>
<polygon fill="white" stroke="#bfbfbf" points="653.5,-540.5 653.5,-597.5 707.5,-597.5 707.5,-540.5 653.5,-540.5"/>
<text text-anchor="middle" x="680.5" y="-585.5" font-family="Helvetica,sans-Serif" font-size="10.00">mt19937</text>
<polyline fill="none" stroke="#bfbfbf" points="653.5,-578.5 707.5,-578.5 "/>
<text text-anchor="middle" x="680.5" y="-566.5" font-family="Helvetica,sans-Serif" font-size="10.00"> </text>
<polyline fill="none" stroke="#bfbfbf" points="653.5,-559.5 707.5,-559.5 "/>
<text text-anchor="middle" x="680.5" y="-547.5" font-family="Helvetica,sans-Serif" font-size="10.00"> </text>
</g>
<!-- Node8&#45;&gt;Node2 -->
<g id="edge7" class="edge"><title>Node8&#45;&gt;Node2</title>
<path fill="none" stroke="#404040" d="M677.27,-540.448C672.214,-508.615 659.663,-456.347 629.5,-423 566.042,-352.842 463.079,-312.679 390.919,-291.783"/>
<polygon fill="none" stroke="#404040" points="390.716,-291.725 383.856,-293.948 379.166,-288.47 386.026,-286.248 390.716,-291.725"/>
<text text-anchor="middle" x="671.5" y="-448" font-family="Helvetica,sans-Serif" font-size="10.00"> &#45;rng</text>
</g>
<!-- Node9&#45;&gt;Node2 -->
<g id="edge8" class="edge"><title>Node9&#45;&gt;Node2</title>
<path fill="none" stroke="#404040" d="M200.942,-90.6998C201.292,-100.52 202.57,-110.754 205.5,-120 211.537,-139.049 220.857,-157.853 231.475,-175.375"/>
<polygon fill="none" stroke="#404040" points="231.476,-175.376 238.056,-178.327 237.862,-185.535 231.283,-182.584 231.476,-175.376"/>
<text text-anchor="middle" x="246" y="-112" font-family="Helvetica,sans-Serif" font-size="10.00"> &#45;layoutGenerator_</text>
</g>
</g>
</svg>
        <g id="navigator" transform="translate(0 0)" fill="#404254">
                <rect fill="#f2f5e9" fill-opacity="0.5" stroke="#606060" stroke-width=".5" x="0" y="0" width="60" height="60"/>
                <use id="zoomplus" xlink:href="#zoomPlus" x="17" y="9" onmousedown="handleZoom(evt,'in')"/>
                <use id="zoomminus" xlink:href="#zoomMin" x="42" y="9" onmousedown="handleZoom(evt,'out')"/>
                <use id="reset" xlink:href="#resetDef" x="30" y="36" onmousedown="handleReset()"/>
                <g id="arrowUp" xlink:href="#dirArrow" transform="translate(30 24)" onmousedown="handlePan(0,-1)">
                  <use xlink:href="#rim" fill="#404040">
                        <set attributeName="fill" to="#808080" begin="arrowUp.mouseover" end="arrowUp.mouseout"/>
                  </use>
                  <path fill="none" stroke="white" stroke-width="1.5" d="M0,-3.0v7 M-2.5,-0.5L0,-3.0L2.5,-0.5"/>
                </g>
                <g id="arrowRight" xlink:href="#dirArrow" transform="rotate(90) translate(36 -43)" onmousedown="handlePan(1,0)">
                  <use xlink:href="#rim" fill="#404040">
                        <set attributeName="fill" to="#808080" begin="arrowRight.mouseover" end="arrowRight.mouseout"/>
                  </use>
                  <path fill="none" stroke="white" stroke-width="1.5" d="M0,-3.0v7 M-2.5,-0.5L0,-3.0L2.5,-0.5"/>
                </g>
                <g id="arrowDown" xlink:href="#dirArrow" transform="rotate(180) translate(-30 -48)" onmousedown="handlePan(0,1)">
                  <use xlink:href="#rim" fill="#404040">
                        <set attributeName="fill" to="#808080" begin="arrowDown.mouseover" end="arrowDown.mouseout"/>
                  </use>
                  <path fill="none" stroke="white" stroke-width="1.5" d="M0,-3.0v7 M-2.5,-0.5L0,-3.0L2.5,-0.5"/>
                </g>
                <g id="arrowLeft" xlink:href="#dirArrow" transform="rotate(270) translate(-36 17)" onmousedown="handlePan(-1,0)">
                  <use xlink:href="#rim" fill="#404040">
                        <set attributeName="fill" to="#808080" begin="arrowLeft.mouseover" end="arrowLeft.mouseout"/>
                  </use>
                  <path fill="none" stroke="white" stroke-width="1.5" d="M0,-3.0v7 M-2.5,-0.5L0,-3.0L2.5,-0.5"/>
                </g>
        </g>
        <svg viewBox="0 0 15 15" width="100%" height="30px" preserveAspectRatio="xMaxYMin meet">
         <g id="arrow_out" transform="scale(0.3 0.3)">
          <a xlink:href="class_model_1_1park_space_inserter__coll__graph_org.svg" target="_base">
           <rect id="button" ry="5" rx="5" y="6" x="6" height="38" width="38"
                fill="#f2f5e9" fill-opacity="0.5" stroke="#606060" stroke-width="1.0"/>
           <path id="arrow"
             d="M 11.500037,31.436501 C 11.940474,20.09759 22.043105,11.32322 32.158766,21.979434 L 37.068811,17.246167 C 37.068811,17.246167 37.088388,32 37.088388,32 L 22.160133,31.978069 C 22.160133,31.978069 26.997745,27.140456 26.997745,27.140456 C 18.528582,18.264221 13.291696,25.230495 11.500037,31.436501 z"
             style="fill:#404040;"/>
          </a>
         </g>
        </svg>
</svg>
