<?xml version="1.0" encoding="UTF-8" standalone="no"?>
<!DOCTYPE svg PUBLIC "-//W3C//DTD SVG 1.1//EN"
 "http://www.w3.org/Graphics/SVG/1.1/DTD/svg11.dtd">
<!-- Generated by graphviz version 2.38.0 (20140413.2041)
 -->
<!-- Title: View::HeadQuartersUI::connectShopUI Pages: 1 -->
<!--zoomable 515 -->
<svg id="main" version="1.1" xmlns="http://www.w3.org/2000/svg" xmlns:xlink="http://www.w3.org/1999/xlink" xml:space="preserve" onload="init(evt)">
<style type="text/css"><![CDATA[
.edge:hover path { stroke: red; }
.edge:hover polygon { stroke: red; fill: red; }
]]></style>
<script type="text/javascript"><![CDATA[
var edges = document.getElementsByTagName('g');
if (edges && edges.length) {
  for (var i=0;i<edges.length;i++) {
    if (edges[i].id.substr(0,4)=='edge') {
      edges[i].setAttribute('class','edge');
    }
  }
}
]]></script>
        <defs>
                <circle id="rim" cx="0" cy="0" r="7"/>
                <circle id="rim2" cx="0" cy="0" r="3.5"/>
                <g id="zoomPlus">
                        <use xlink:href="#rim" fill="#404040">
                                <set attributeName="fill" to="#808080" begin="zoomplus.mouseover" end="zoomplus.mouseout"/>
                        </use>
                        <path d="M-4,0h8M0,-4v8" fill="none" stroke="white" stroke-width="1.5" pointer-events="none"/>
                </g>
                <g id="zoomMin">
                        <use xlink:href="#rim" fill="#404040">
                                <set attributeName="fill" to="#808080" begin="zoomminus.mouseover" end="zoomminus.mouseout"/>
                        </use>
                        <path d="M-4,0h8" fill="none" stroke="white" stroke-width="1.5" pointer-events="none"/>
                </g>
                <g id="dirArrow">
                        <path fill="none" stroke="white" stroke-width="1.5" d="M0,-3.0v7 M-2.5,-0.5L0,-3.0L2.5,-0.5"/>
                </g>
               <g id="resetDef">
                       <use xlink:href="#rim2" fill="#404040">
                               <set attributeName="fill" to="#808080" begin="reset.mouseover" end="reset.mouseout"/>
                       </use>
               </g>
        </defs>

<script type="text/javascript">
var viewWidth = 493;
var viewHeight = 515;
var sectionId = 'dynsection-8';
</script>
<script xlink:href="svgpan.js"/>
<svg id="graph" class="graph">
<g id="viewport">
<title>View::HeadQuartersUI::connectShopUI</title>
<polygon fill="white" stroke="none" points="-4,4 -4,-511.428 489,-511.428 489,4 -4,4"/>
<!-- Node38 -->
<g id="node1" class="node"><title>Node38</title>
<polygon fill="#bfbfbf" stroke="black" points="0,-245.5 0,-275.5 113,-275.5 113,-245.5 0,-245.5"/>
<text text-anchor="start" x="8" y="-263.5" font-family="Helvetica,sans-Serif" font-size="10.00">View::HeadQuartersUI</text>
<text text-anchor="middle" x="56.5" y="-252.5" font-family="Helvetica,sans-Serif" font-size="10.00">::connectShopUI</text>
</g>
<!-- Node39 -->
<g id="node2" class="node"><title>Node39</title>
<g id="a_node2"><a xlink:href="class_view_1_1_head_quarters_u_i.html#aa3952e9dea601b9d54dcfebaf658b685" target="_top" xlink:title="View::HeadQuartersUI\l::buyUpgradeButtonPushed">
<polygon fill="white" stroke="black" points="349,-365.5 349,-395.5 485,-395.5 485,-365.5 349,-365.5"/>
<text text-anchor="start" x="357" y="-383.5" font-family="Helvetica,sans-Serif" font-size="10.00">View::HeadQuartersUI</text>
<text text-anchor="middle" x="417" y="-372.5" font-family="Helvetica,sans-Serif" font-size="10.00">::buyUpgradeButtonPushed</text>
</a>
</g>
</g>
<!-- Node38&#45;&gt;Node39 -->
<g id="edge1" class="edge"><title>Node38&#45;&gt;Node39</title>
<path fill="none" stroke="midnightblue" d="M58.3463,-275.533C61.591,-317.05 77.0128,-433.391 149,-481.5 209.602,-522 245.524,-509.063 313,-481.5 350.994,-465.98 382.552,-428.943 400.345,-404.296"/>
<polygon fill="midnightblue" stroke="midnightblue" points="403.398,-406.038 406.264,-395.839 397.663,-402.024 403.398,-406.038"/>
</g>
<!-- Node40 -->
<g id="node3" class="node"><title>Node40</title>
<g id="a_node3"><a xlink:href="class_view_1_1_head_quarters_u_i.html#a7db26615e6cda19cb873cfff36834535" target="_top" xlink:title="View::HeadQuartersUI\l::buyWeaponButtonPushed">
<polygon fill="white" stroke="black" points="163,-441.5 163,-471.5 299,-471.5 299,-441.5 163,-441.5"/>
<text text-anchor="start" x="171" y="-459.5" font-family="Helvetica,sans-Serif" font-size="10.00">View::HeadQuartersUI</text>
<text text-anchor="middle" x="231" y="-448.5" font-family="Helvetica,sans-Serif" font-size="10.00">::buyWeaponButtonPushed</text>
</a>
</g>
</g>
<!-- Node38&#45;&gt;Node40 -->
<g id="edge2" class="edge"><title>Node38&#45;&gt;Node40</title>
<path fill="none" stroke="midnightblue" d="M61.2672,-275.698C70.365,-309.2 96.7427,-389.81 149,-432.5 150.576,-433.787 152.219,-435.006 153.917,-436.159"/>
<polygon fill="midnightblue" stroke="midnightblue" points="152.421,-439.339 162.814,-441.397 155.972,-433.307 152.421,-439.339"/>
</g>
<!-- Node41 -->
<g id="node4" class="node"><title>Node41</title>
<g id="a_node4"><a xlink:href="class_view_1_1_head_quarters_u_i.html#a74e58fc4ef5564c3d7af04c703a5d640" target="_top" xlink:title="View::HeadQuartersUI\l::changeSelectedCyberItem">
<polygon fill="white" stroke="black" points="162.5,-392.5 162.5,-422.5 299.5,-422.5 299.5,-392.5 162.5,-392.5"/>
<text text-anchor="start" x="170.5" y="-410.5" font-family="Helvetica,sans-Serif" font-size="10.00">View::HeadQuartersUI</text>
<text text-anchor="middle" x="231" y="-399.5" font-family="Helvetica,sans-Serif" font-size="10.00">::changeSelectedCyberItem</text>
</a>
</g>
</g>
<!-- Node38&#45;&gt;Node41 -->
<g id="edge3" class="edge"><title>Node38&#45;&gt;Node41</title>
<path fill="none" stroke="midnightblue" d="M64.7549,-275.861C77.8604,-301.946 107.978,-354.851 149,-383.5 151.157,-385.006 153.409,-386.419 155.733,-387.745"/>
<polygon fill="midnightblue" stroke="midnightblue" points="154.497,-391.042 165,-392.435 157.658,-384.796 154.497,-391.042"/>
</g>
<!-- Node42 -->
<g id="node5" class="node"><title>Node42</title>
<g id="a_node5"><a xlink:href="class_view_1_1_head_quarters_u_i.html#a6068a9afa900ab4c5bc0d36a48c466e8" target="_top" xlink:title="View::HeadQuartersUI\l::changeSelectedResearch">
<polygon fill="white" stroke="black" points="164,-343.5 164,-373.5 298,-373.5 298,-343.5 164,-343.5"/>
<text text-anchor="start" x="172" y="-361.5" font-family="Helvetica,sans-Serif" font-size="10.00">View::HeadQuartersUI</text>
<text text-anchor="middle" x="231" y="-350.5" font-family="Helvetica,sans-Serif" font-size="10.00">::changeSelectedResearch</text>
</a>
</g>
</g>
<!-- Node38&#45;&gt;Node42 -->
<g id="edge4" class="edge"><title>Node38&#45;&gt;Node42</title>
<path fill="none" stroke="midnightblue" d="M72.3451,-275.655C89.4204,-292.288 118.982,-318.717 149,-334.5 152.479,-336.329 156.117,-338.038 159.842,-339.632"/>
<polygon fill="midnightblue" stroke="midnightblue" points="158.658,-342.928 169.244,-343.361 161.239,-336.421 158.658,-342.928"/>
</g>
<!-- Node43 -->
<g id="node6" class="node"><title>Node43</title>
<g id="a_node6"><a xlink:href="class_view_1_1_head_quarters_u_i.html#aff18dfc969b4d5079c89e83b281288f1" target="_top" xlink:title="View::HeadQuartersUI\l::changeSelectedWeaponItem">
<polygon fill="white" stroke="black" points="157.5,-294.5 157.5,-324.5 304.5,-324.5 304.5,-294.5 157.5,-294.5"/>
<text text-anchor="start" x="165.5" y="-312.5" font-family="Helvetica,sans-Serif" font-size="10.00">View::HeadQuartersUI</text>
<text text-anchor="middle" x="231" y="-301.5" font-family="Helvetica,sans-Serif" font-size="10.00">::changeSelectedWeaponItem</text>
</a>
</g>
</g>
<!-- Node38&#45;&gt;Node43 -->
<g id="edge5" class="edge"><title>Node38&#45;&gt;Node43</title>
<path fill="none" stroke="midnightblue" d="M110.663,-275.601C128.537,-280.679 148.644,-286.39 167.188,-291.658"/>
<polygon fill="midnightblue" stroke="midnightblue" points="166.436,-295.083 177.012,-294.448 168.349,-288.349 166.436,-295.083"/>
</g>
<!-- Node44 -->
<g id="node7" class="node"><title>Node44</title>
<g id="a_node7"><a xlink:href="class_view_1_1_head_quarters_u_i.html#a27b2fed9322bb80d6633f442a3fd9035" target="_top" xlink:title="View::HeadQuartersUI\l::cyberListViewItemDoubleClicked">
<polygon fill="white" stroke="black" points="149,-245.5 149,-275.5 313,-275.5 313,-245.5 149,-245.5"/>
<text text-anchor="start" x="157" y="-263.5" font-family="Helvetica,sans-Serif" font-size="10.00">View::HeadQuartersUI</text>
<text text-anchor="middle" x="231" y="-252.5" font-family="Helvetica,sans-Serif" font-size="10.00">::cyberListViewItemDoubleClicked</text>
</a>
</g>
</g>
<!-- Node38&#45;&gt;Node44 -->
<g id="edge6" class="edge"><title>Node38&#45;&gt;Node44</title>
<path fill="none" stroke="midnightblue" d="M113.03,-260.5C121.241,-260.5 129.88,-260.5 138.59,-260.5"/>
<polygon fill="midnightblue" stroke="midnightblue" points="138.825,-264 148.825,-260.5 138.825,-257 138.825,-264"/>
</g>
<!-- Node45 -->
<g id="node8" class="node"><title>Node45</title>
<g id="a_node8"><a xlink:href="class_view_1_1_head_quarters_u_i.html#a3edd37b9b061955835597c8cac015c21" target="_top" xlink:title="View::HeadQuartersUI\l::healActorButtonPushed">
<polygon fill="white" stroke="black" points="168.5,-196.5 168.5,-226.5 293.5,-226.5 293.5,-196.5 168.5,-196.5"/>
<text text-anchor="start" x="176.5" y="-214.5" font-family="Helvetica,sans-Serif" font-size="10.00">View::HeadQuartersUI</text>
<text text-anchor="middle" x="231" y="-203.5" font-family="Helvetica,sans-Serif" font-size="10.00">::healActorButtonPushed</text>
</a>
</g>
</g>
<!-- Node38&#45;&gt;Node45 -->
<g id="edge8" class="edge"><title>Node38&#45;&gt;Node45</title>
<path fill="none" stroke="midnightblue" d="M110.663,-245.399C128.537,-240.321 148.644,-234.61 167.188,-229.342"/>
<polygon fill="midnightblue" stroke="midnightblue" points="168.349,-232.651 177.012,-226.552 166.436,-225.917 168.349,-232.651"/>
</g>
<!-- Node46 -->
<g id="node9" class="node"><title>Node46</title>
<g id="a_node9"><a xlink:href="class_view_1_1_head_quarters_u_i.html#aa4cf289bec574f4ba216570e3815e683" target="_top" xlink:title="View::HeadQuartersUI\l::hireActorButtonPushed">
<polygon fill="white" stroke="black" points="169.5,-147.5 169.5,-177.5 292.5,-177.5 292.5,-147.5 169.5,-147.5"/>
<text text-anchor="start" x="177.5" y="-165.5" font-family="Helvetica,sans-Serif" font-size="10.00">View::HeadQuartersUI</text>
<text text-anchor="middle" x="231" y="-154.5" font-family="Helvetica,sans-Serif" font-size="10.00">::hireActorButtonPushed</text>
</a>
</g>
</g>
<!-- Node38&#45;&gt;Node46 -->
<g id="edge9" class="edge"><title>Node38&#45;&gt;Node46</title>
<path fill="none" stroke="midnightblue" d="M72.7291,-245.327C89.9154,-228.968 119.358,-203.173 149,-187.5 153.249,-185.253 157.731,-183.173 162.32,-181.254"/>
<polygon fill="midnightblue" stroke="midnightblue" points="163.8,-184.433 171.844,-177.537 161.255,-177.912 163.8,-184.433"/>
</g>
<!-- Node47 -->
<g id="node10" class="node"><title>Node47</title>
<g id="a_node10"><a xlink:href="class_view_1_1_head_quarters_u_i.html#a0508cada4f9b06a59e32f4967b1a3070" target="_top" xlink:title="View::HeadQuartersUI\l::reloadWeaponButtonPushed">
<polygon fill="white" stroke="black" points="158,-98.5 158,-128.5 304,-128.5 304,-98.5 158,-98.5"/>
<text text-anchor="start" x="166" y="-116.5" font-family="Helvetica,sans-Serif" font-size="10.00">View::HeadQuartersUI</text>
<text text-anchor="middle" x="231" y="-105.5" font-family="Helvetica,sans-Serif" font-size="10.00">::reloadWeaponButtonPushed</text>
</a>
</g>
</g>
<!-- Node38&#45;&gt;Node47 -->
<g id="edge10" class="edge"><title>Node38&#45;&gt;Node47</title>
<path fill="none" stroke="midnightblue" d="M64.8226,-245.314C78.0304,-219.516 108.298,-167.15 149,-138.5 151.854,-136.491 154.875,-134.639 158.007,-132.933"/>
<polygon fill="midnightblue" stroke="midnightblue" points="159.632,-136.035 167.082,-128.502 156.56,-129.745 159.632,-136.035"/>
</g>
<!-- Node48 -->
<g id="node11" class="node"><title>Node48</title>
<g id="a_node11"><a xlink:href="class_view_1_1_head_quarters_u_i.html#a1b2bf2db6fd353931c27a1b92e9a46aa" target="_top" xlink:title="View::HeadQuartersUI\l::retireActorButtonPushed">
<polygon fill="white" stroke="black" points="166.5,-49.5 166.5,-79.5 295.5,-79.5 295.5,-49.5 166.5,-49.5"/>
<text text-anchor="start" x="174.5" y="-67.5" font-family="Helvetica,sans-Serif" font-size="10.00">View::HeadQuartersUI</text>
<text text-anchor="middle" x="231" y="-56.5" font-family="Helvetica,sans-Serif" font-size="10.00">::retireActorButtonPushed</text>
</a>
</g>
</g>
<!-- Node38&#45;&gt;Node48 -->
<g id="edge11" class="edge"><title>Node38&#45;&gt;Node48</title>
<path fill="none" stroke="midnightblue" d="M61.3295,-245.432C70.5531,-212.209 97.1688,-132.228 149,-89.5 151.693,-87.2796 154.583,-85.256 157.61,-83.4119"/>
<polygon fill="midnightblue" stroke="midnightblue" points="159.289,-86.4828 166.451,-78.6754 155.984,-80.3124 159.289,-86.4828"/>
</g>
<!-- Node49 -->
<g id="node12" class="node"><title>Node49</title>
<g id="a_node12"><a xlink:href="class_view_1_1_head_quarters_u_i.html#a3e01c68b5fdd117642dd01db0465605c" target="_top" xlink:title="View::HeadQuartersUI\l::sellWeaponButtonPushed">
<polygon fill="white" stroke="black" points="163.5,-0.5 163.5,-30.5 298.5,-30.5 298.5,-0.5 163.5,-0.5"/>
<text text-anchor="start" x="171.5" y="-18.5" font-family="Helvetica,sans-Serif" font-size="10.00">View::HeadQuartersUI</text>
<text text-anchor="middle" x="231" y="-7.5" font-family="Helvetica,sans-Serif" font-size="10.00">::sellWeaponButtonPushed</text>
</a>
</g>
</g>
<!-- Node38&#45;&gt;Node49 -->
<g id="edge12" class="edge"><title>Node38&#45;&gt;Node49</title>
<path fill="none" stroke="midnightblue" d="M59.3518,-245.451C65.0249,-205.873 85.8046,-97.9727 149,-40.5 150.725,-38.9312 152.547,-37.4608 154.447,-36.0826"/>
<polygon fill="midnightblue" stroke="midnightblue" points="156.586,-38.8731 163.22,-30.6119 152.883,-32.9333 156.586,-38.8731"/>
</g>
<!-- Node44&#45;&gt;Node39 -->
<g id="edge7" class="edge"><title>Node44&#45;&gt;Node39</title>
<path fill="none" stroke="midnightblue" d="M291.696,-275.553C299.087,-278.385 306.367,-281.683 313,-285.5 346.279,-304.651 377.675,-336.3 396.86,-357.755"/>
<polygon fill="midnightblue" stroke="midnightblue" points="394.368,-360.222 403.593,-365.432 399.63,-355.606 394.368,-360.222"/>
</g>
</g>
</svg>
        <g id="navigator" transform="translate(0 0)" fill="#404254">
                <rect fill="#f2f5e9" fill-opacity="0.5" stroke="#606060" stroke-width=".5" x="0" y="0" width="60" height="60"/>
                <use id="zoomplus" xlink:href="#zoomPlus" x="17" y="9" onmousedown="handleZoom(evt,'in')"/>
                <use id="zoomminus" xlink:href="#zoomMin" x="42" y="9" onmousedown="handleZoom(evt,'out')"/>
                <use id="reset" xlink:href="#resetDef" x="30" y="36" onmousedown="handleReset()"/>
                <g id="arrowUp" xlink:href="#dirArrow" transform="translate(30 24)" onmousedown="handlePan(0,-1)">
                  <use xlink:href="#rim" fill="#404040">
                        <set attributeName="fill" to="#808080" begin="arrowUp.mouseover" end="arrowUp.mouseout"/>
                  </use>
                  <path fill="none" stroke="white" stroke-width="1.5" d="M0,-3.0v7 M-2.5,-0.5L0,-3.0L2.5,-0.5"/>
                </g>
                <g id="arrowRight" xlink:href="#dirArrow" transform="rotate(90) translate(36 -43)" onmousedown="handlePan(1,0)">
                  <use xlink:href="#rim" fill="#404040">
                        <set attributeName="fill" to="#808080" begin="arrowRight.mouseover" end="arrowRight.mouseout"/>
                  </use>
                  <path fill="none" stroke="white" stroke-width="1.5" d="M0,-3.0v7 M-2.5,-0.5L0,-3.0L2.5,-0.5"/>
                </g>
                <g id="arrowDown" xlink:href="#dirArrow" transform="rotate(180) translate(-30 -48)" onmousedown="handlePan(0,1)">
                  <use xlink:href="#rim" fill="#404040">
                        <set attributeName="fill" to="#808080" begin="arrowDown.mouseover" end="arrowDown.mouseout"/>
                  </use>
                  <path fill="none" stroke="white" stroke-width="1.5" d="M0,-3.0v7 M-2.5,-0.5L0,-3.0L2.5,-0.5"/>
                </g>
                <g id="arrowLeft" xlink:href="#dirArrow" transform="rotate(270) translate(-36 17)" onmousedown="handlePan(-1,0)">
                  <use xlink:href="#rim" fill="#404040">
                        <set attributeName="fill" to="#808080" begin="arrowLeft.mouseover" end="arrowLeft.mouseout"/>
                  </use>
                  <path fill="none" stroke="white" stroke-width="1.5" d="M0,-3.0v7 M-2.5,-0.5L0,-3.0L2.5,-0.5"/>
                </g>
        </g>
        <svg viewBox="0 0 15 15" width="100%" height="30px" preserveAspectRatio="xMaxYMin meet">
         <g id="arrow_out" transform="scale(0.3 0.3)">
          <a xlink:href="class_view_1_1_head_quarters_u_i_a504906d7f958448301b500a3762ff618_cgraph_org.svg" target="_base">
           <rect id="button" ry="5" rx="5" y="6" x="6" height="38" width="38"
                fill="#f2f5e9" fill-opacity="0.5" stroke="#606060" stroke-width="1.0"/>
           <path id="arrow"
             d="M 11.500037,31.436501 C 11.940474,20.09759 22.043105,11.32322 32.158766,21.979434 L 37.068811,17.246167 C 37.068811,17.246167 37.088388,32 37.088388,32 L 22.160133,31.978069 C 22.160133,31.978069 26.997745,27.140456 26.997745,27.140456 C 18.528582,18.264221 13.291696,25.230495 11.500037,31.436501 z"
             style="fill:#404040;"/>
          </a>
         </g>
        </svg>
</svg>
