<?xml version="1.0" encoding="UTF-8" standalone="no"?>
<!DOCTYPE svg PUBLIC "-//W3C//DTD SVG 1.1//EN"
 "http://www.w3.org/Graphics/SVG/1.1/DTD/svg11.dtd">
<!-- Generated by graphviz version 2.38.0 (20140413.2041)
 -->
<!-- Title: Model::mapGenerator::indexAt Pages: 1 -->
<svg width="920pt" height="470pt"
 viewBox="0.00 0.00 920.00 469.61" xmlns="http://www.w3.org/2000/svg" xmlns:xlink="http://www.w3.org/1999/xlink">
<g id="graph0" class="graph" transform="scale(1 1) rotate(0) translate(4 465.615)">
<title>Model::mapGenerator::indexAt</title>
<polygon fill="white" stroke="none" points="-4,4 -4,-465.615 916,-465.615 916,4 -4,4"/>
<!-- Node74 -->
<g id="node1" class="node"><title>Node74</title>
<polygon fill="#bfbfbf" stroke="black" points="0,-202.5 0,-232.5 110,-232.5 110,-202.5 0,-202.5"/>
<text text-anchor="start" x="8" y="-220.5" font-family="Helvetica,sans-Serif" font-size="10.00">Model::mapGenerator</text>
<text text-anchor="middle" x="55" y="-209.5" font-family="Helvetica,sans-Serif" font-size="10.00">::indexAt</text>
</g>
<!-- Node75 -->
<g id="node2" class="node"><title>Node75</title>
<g id="a_node2"><a xlink:href="class_model_1_1park_space_inserter.html#a20265678d0e7cfc25daef80afaa1ba86" target="_top" xlink:title="Model::parkSpaceInserter\l::addParkingSpaces_">
<polygon fill="white" stroke="black" points="310,-164.5 310,-194.5 438,-194.5 438,-164.5 310,-164.5"/>
<text text-anchor="start" x="318" y="-182.5" font-family="Helvetica,sans-Serif" font-size="10.00">Model::parkSpaceInserter</text>
<text text-anchor="middle" x="374" y="-171.5" font-family="Helvetica,sans-Serif" font-size="10.00">::addParkingSpaces_</text>
</a>
</g>
</g>
<!-- Node74&#45;&gt;Node75 -->
<g id="edge1" class="edge"><title>Node74&#45;&gt;Node75</title>
<path fill="none" stroke="midnightblue" d="M120.539,-225.398C164.27,-229.044 223.135,-230.616 274,-220.5 287.137,-217.887 316.819,-205.241 340.276,-194.676"/>
<polygon fill="midnightblue" stroke="midnightblue" points="120.597,-221.889 110.325,-224.486 119.974,-228.861 120.597,-221.889"/>
</g>
<!-- Node78 -->
<g id="node5" class="node"><title>Node78</title>
<g id="a_node5"><a xlink:href="class_model_1_1map_processor.html#ae1e80cb097c8e31a337b3a20ff653cc2" target="_top" xlink:title="Model::mapProcessor\l::calculateDistanceMap">
<polygon fill="white" stroke="black" points="314.5,-92.5 314.5,-122.5 433.5,-122.5 433.5,-92.5 314.5,-92.5"/>
<text text-anchor="start" x="322.5" y="-110.5" font-family="Helvetica,sans-Serif" font-size="10.00">Model::mapProcessor</text>
<text text-anchor="middle" x="374" y="-99.5" font-family="Helvetica,sans-Serif" font-size="10.00">::calculateDistanceMap</text>
</a>
</g>
</g>
<!-- Node74&#45;&gt;Node78 -->
<g id="edge4" class="edge"><title>Node74&#45;&gt;Node78</title>
<path fill="none" stroke="midnightblue" d="M70.5836,-193.597C86.1068,-170.579 112.966,-137.036 146,-121.5 198.881,-96.6294 266.488,-95.8362 314.12,-99.5934"/>
<polygon fill="midnightblue" stroke="midnightblue" points="67.5431,-191.852 65.0131,-202.14 73.4068,-195.675 67.5431,-191.852"/>
</g>
<!-- Node79 -->
<g id="node6" class="node"><title>Node79</title>
<g id="a_node6"><a xlink:href="class_model_1_1map_processor.html#a7be8a27aaad96e187b4dba60fde5031a" target="_top" xlink:title="Model::mapProcessor\l::placeEnemies">
<polygon fill="white" stroke="black" points="646,-104.5 646,-134.5 758,-134.5 758,-104.5 646,-104.5"/>
<text text-anchor="start" x="654" y="-122.5" font-family="Helvetica,sans-Serif" font-size="10.00">Model::mapProcessor</text>
<text text-anchor="middle" x="702" y="-111.5" font-family="Helvetica,sans-Serif" font-size="10.00">::placeEnemies</text>
</a>
</g>
</g>
<!-- Node74&#45;&gt;Node79 -->
<g id="edge16" class="edge"><title>Node74&#45;&gt;Node79</title>
<path fill="none" stroke="midnightblue" d="M66.1225,-193.005C79.6085,-163.865 106.458,-116.415 146,-94.5 317.044,0.295136 565.282,-70.745 661.152,-104.4"/>
<polygon fill="midnightblue" stroke="midnightblue" points="62.7759,-191.917 61.9108,-202.476 69.172,-194.761 62.7759,-191.917"/>
</g>
<!-- Node81 -->
<g id="node8" class="node"><title>Node81</title>
<g id="a_node8"><a xlink:href="class_model_1_1park_space_inserter.html#ab81abccc02f65eed8d54e0d56b234e18" target="_top" xlink:title="Model::parkSpaceInserter\l::floodFill">
<polygon fill="white" stroke="black" points="310,-328.5 310,-358.5 438,-358.5 438,-328.5 310,-328.5"/>
<text text-anchor="start" x="318" y="-346.5" font-family="Helvetica,sans-Serif" font-size="10.00">Model::parkSpaceInserter</text>
<text text-anchor="middle" x="374" y="-335.5" font-family="Helvetica,sans-Serif" font-size="10.00">::floodFill</text>
</a>
</g>
</g>
<!-- Node74&#45;&gt;Node81 -->
<g id="edge8" class="edge"><title>Node74&#45;&gt;Node81</title>
<path fill="none" stroke="midnightblue" d="M72.199,-240.912C88.3069,-262.223 115.038,-292.696 146,-308.5 196.966,-334.514 262.121,-342.362 309.543,-344.235"/>
<polygon fill="midnightblue" stroke="midnightblue" points="74.9012,-238.679 66.1627,-232.688 69.258,-242.821 74.9012,-238.679"/>
</g>
<!-- Node82 -->
<g id="node9" class="node"><title>Node82</title>
<g id="a_node9"><a xlink:href="class_model_1_1park_space_inserter.html#ada0688360de1fb7d5bd138f2f645bea6" target="_top" xlink:title="Model::parkSpaceInserter\l::removeBlockedSpaces">
<polygon fill="white" stroke="black" points="474,-309.5 474,-339.5 602,-339.5 602,-309.5 474,-309.5"/>
<text text-anchor="start" x="482" y="-327.5" font-family="Helvetica,sans-Serif" font-size="10.00">Model::parkSpaceInserter</text>
<text text-anchor="middle" x="538" y="-316.5" font-family="Helvetica,sans-Serif" font-size="10.00">::removeBlockedSpaces</text>
</a>
</g>
</g>
<!-- Node74&#45;&gt;Node82 -->
<g id="edge21" class="edge"><title>Node74&#45;&gt;Node82</title>
<path fill="none" stroke="midnightblue" d="M58.9391,-242.763C65.5644,-286.742 86.0936,-376.407 146,-415.5 254.686,-486.425 317.337,-465.286 438,-417.5 477.684,-401.784 510.742,-361.801 526.706,-339.723"/>
<polygon fill="midnightblue" stroke="midnightblue" points="62.3742,-242.051 57.5387,-232.624 55.44,-243.009 62.3742,-242.051"/>
</g>
<!-- Node83 -->
<g id="node10" class="node"><title>Node83</title>
<g id="a_node10"><a xlink:href="class_model_1_1map_generator.html#a918049786b708772ca97df76389955a7" target="_top" xlink:title="Model::mapGenerator\l::getClosestEdge">
<polygon fill="white" stroke="black" points="155,-131.5 155,-161.5 265,-161.5 265,-131.5 155,-131.5"/>
<text text-anchor="start" x="163" y="-149.5" font-family="Helvetica,sans-Serif" font-size="10.00">Model::mapGenerator</text>
<text text-anchor="middle" x="210" y="-138.5" font-family="Helvetica,sans-Serif" font-size="10.00">::getClosestEdge</text>
</a>
</g>
</g>
<!-- Node74&#45;&gt;Node83 -->
<g id="edge11" class="edge"><title>Node74&#45;&gt;Node83</title>
<path fill="none" stroke="midnightblue" d="M93.1211,-197.527C109.207,-189.134 128.361,-179.486 146,-171.5 153.504,-168.103 161.614,-164.694 169.439,-161.534"/>
<polygon fill="midnightblue" stroke="midnightblue" points="91.2617,-194.55 84.0392,-202.302 94.5192,-200.746 91.2617,-194.55"/>
</g>
<!-- Node84 -->
<g id="node11" class="node"><title>Node84</title>
<g id="a_node11"><a xlink:href="class_model_1_1park_space_inserter.html#a60ef5f3d1e5b3b726cc1ec9d4a200151" target="_top" xlink:title="Model::parkSpaceInserter\l::getWallTiles">
<polygon fill="white" stroke="black" points="146,-180.5 146,-210.5 274,-210.5 274,-180.5 146,-180.5"/>
<text text-anchor="start" x="154" y="-198.5" font-family="Helvetica,sans-Serif" font-size="10.00">Model::parkSpaceInserter</text>
<text text-anchor="middle" x="210" y="-187.5" font-family="Helvetica,sans-Serif" font-size="10.00">::getWallTiles</text>
</a>
</g>
</g>
<!-- Node74&#45;&gt;Node84 -->
<g id="edge14" class="edge"><title>Node74&#45;&gt;Node84</title>
<path fill="none" stroke="midnightblue" d="M120.509,-208.224C128.922,-207.014 137.534,-205.776 145.924,-204.57"/>
<polygon fill="midnightblue" stroke="midnightblue" points="119.773,-204.794 110.373,-209.682 120.769,-211.723 119.773,-204.794"/>
</g>
<!-- Node85 -->
<g id="node12" class="node"><title>Node85</title>
<g id="a_node12"><a xlink:href="class_model_1_1map_generator.html#ac0c4107b40d558b076daad46cfc8404c" target="_top" xlink:title="Model::mapGenerator\l::printLayout">
<polygon fill="white" stroke="black" points="155,-0.5 155,-30.5 265,-30.5 265,-0.5 155,-0.5"/>
<text text-anchor="start" x="163" y="-18.5" font-family="Helvetica,sans-Serif" font-size="10.00">Model::mapGenerator</text>
<text text-anchor="middle" x="210" y="-7.5" font-family="Helvetica,sans-Serif" font-size="10.00">::printLayout</text>
</a>
</g>
</g>
<!-- Node74&#45;&gt;Node85 -->
<g id="edge17" class="edge"><title>Node74&#45;&gt;Node85</title>
<path fill="none" stroke="midnightblue" d="M63.4911,-192.278C75.4984,-155.679 102.253,-87.6297 146,-45.5 152.195,-39.5337 159.8,-34.5692 167.556,-30.5098"/>
<polygon fill="midnightblue" stroke="midnightblue" points="60.0497,-191.552 60.3643,-202.142 66.7225,-193.667 60.0497,-191.552"/>
</g>
<!-- Node86 -->
<g id="node13" class="node"><title>Node86</title>
<g id="a_node13"><a xlink:href="class_model_1_1layout_generator.html#a80d0ad4662419fe534bc7af4aa700bfb" target="_top" xlink:title="Model::layoutGenerator\l::randomRoom">
<polygon fill="white" stroke="black" points="151,-375.5 151,-405.5 269,-405.5 269,-375.5 151,-375.5"/>
<text text-anchor="start" x="159" y="-393.5" font-family="Helvetica,sans-Serif" font-size="10.00">Model::layoutGenerator</text>
<text text-anchor="middle" x="210" y="-382.5" font-family="Helvetica,sans-Serif" font-size="10.00">::randomRoom</text>
</a>
</g>
</g>
<!-- Node74&#45;&gt;Node86 -->
<g id="edge18" class="edge"><title>Node74&#45;&gt;Node86</title>
<path fill="none" stroke="midnightblue" d="M68.1882,-241.362C83.5337,-269.774 112.039,-317.517 146,-350.5 155.945,-360.158 168.582,-368.731 179.924,-375.438"/>
<polygon fill="midnightblue" stroke="midnightblue" points="71.2757,-239.714 63.4997,-232.518 65.0909,-242.992 71.2757,-239.714"/>
</g>
<!-- Node88 -->
<g id="node15" class="node"><title>Node88</title>
<g id="a_node15"><a xlink:href="class_model_1_1map_generator.html#a180f1510b8d7eb4af5dc919eeaddfa69" target="_top" xlink:title="Model::mapGenerator\l::setTile">
<polygon fill="white" stroke="black" points="155,-268.5 155,-298.5 265,-298.5 265,-268.5 155,-268.5"/>
<text text-anchor="start" x="163" y="-286.5" font-family="Helvetica,sans-Serif" font-size="10.00">Model::mapGenerator</text>
<text text-anchor="middle" x="210" y="-275.5" font-family="Helvetica,sans-Serif" font-size="10.00">::setTile</text>
</a>
</g>
</g>
<!-- Node74&#45;&gt;Node88 -->
<g id="edge22" class="edge"><title>Node74&#45;&gt;Node88</title>
<path fill="none" stroke="midnightblue" d="M100.477,-236.686C123.907,-246.793 152.228,-259.01 174.062,-268.429"/>
<polygon fill="midnightblue" stroke="midnightblue" points="101.67,-233.389 91.1013,-232.642 98.8971,-239.816 101.67,-233.389"/>
</g>
<!-- Node76 -->
<g id="node3" class="node"><title>Node76</title>
<g id="a_node3"><a xlink:href="class_model_1_1park_space_inserter.html#a85f30f97e1864f0c4b3afe8f8dea7ae3" target="_top" xlink:title="Model::parkSpaceInserter\l::addSpaces">
<polygon fill="white" stroke="black" points="638,-202.5 638,-232.5 766,-232.5 766,-202.5 638,-202.5"/>
<text text-anchor="start" x="646" y="-220.5" font-family="Helvetica,sans-Serif" font-size="10.00">Model::parkSpaceInserter</text>
<text text-anchor="middle" x="702" y="-209.5" font-family="Helvetica,sans-Serif" font-size="10.00">::addSpaces</text>
</a>
</g>
</g>
<!-- Node75&#45;&gt;Node76 -->
<g id="edge2" class="edge"><title>Node75&#45;&gt;Node76</title>
<path fill="none" stroke="midnightblue" d="M448.278,-188.042C505.322,-194.691 583.662,-203.823 637.933,-210.149"/>
<polygon fill="midnightblue" stroke="midnightblue" points="448.581,-184.553 438.243,-186.872 447.77,-191.506 448.581,-184.553"/>
</g>
<!-- Node77 -->
<g id="node4" class="node"><title>Node77</title>
<g id="a_node4"><a xlink:href="class_model_1_1map_generator.html#a08a1dc669cda9401647f81d61611931d" target="_top" xlink:title="Generate new hall with enemyCount. ">
<polygon fill="white" stroke="black" points="802,-246.5 802,-276.5 912,-276.5 912,-246.5 802,-246.5"/>
<text text-anchor="start" x="810" y="-264.5" font-family="Helvetica,sans-Serif" font-size="10.00">Model::mapGenerator</text>
<text text-anchor="middle" x="857" y="-253.5" font-family="Helvetica,sans-Serif" font-size="10.00">::generateHall</text>
</a>
</g>
</g>
<!-- Node76&#45;&gt;Node77 -->
<g id="edge3" class="edge"><title>Node76&#45;&gt;Node77</title>
<path fill="none" stroke="midnightblue" d="M764.936,-235.312C777.814,-239.015 791.262,-242.883 803.75,-246.474"/>
<polygon fill="midnightblue" stroke="midnightblue" points="765.804,-231.919 755.226,-232.519 763.869,-238.647 765.804,-231.919"/>
</g>
<!-- Node78&#45;&gt;Node79 -->
<g id="edge5" class="edge"><title>Node78&#45;&gt;Node79</title>
<path fill="none" stroke="midnightblue" d="M443.822,-110.033C503.948,-112.247 590.098,-115.418 645.801,-117.468"/>
<polygon fill="midnightblue" stroke="midnightblue" points="443.781,-106.53 433.659,-109.659 443.523,-113.525 443.781,-106.53"/>
</g>
<!-- Node80 -->
<g id="node7" class="node"><title>Node80</title>
<g id="a_node7"><a xlink:href="class_model_1_1map_processor.html#a3719cc265240be889e98f9830602a067" target="_top" xlink:title="Model::mapProcessor\l::getMedialMap">
<polygon fill="white" stroke="black" points="482,-126.5 482,-156.5 594,-156.5 594,-126.5 482,-126.5"/>
<text text-anchor="start" x="490" y="-144.5" font-family="Helvetica,sans-Serif" font-size="10.00">Model::mapProcessor</text>
<text text-anchor="middle" x="538" y="-133.5" font-family="Helvetica,sans-Serif" font-size="10.00">::getMedialMap</text>
</a>
</g>
</g>
<!-- Node78&#45;&gt;Node80 -->
<g id="edge6" class="edge"><title>Node78&#45;&gt;Node80</title>
<path fill="none" stroke="midnightblue" d="M443.983,-121.978C456.637,-124.634 469.692,-127.374 481.874,-129.93"/>
<polygon fill="midnightblue" stroke="midnightblue" points="444.45,-118.5 433.944,-119.871 443.012,-125.35 444.45,-118.5"/>
</g>
<!-- Node80&#45;&gt;Node79 -->
<g id="edge7" class="edge"><title>Node80&#45;&gt;Node79</title>
<path fill="none" stroke="midnightblue" d="M604.234,-132.641C618.068,-130.762 632.54,-128.797 645.951,-126.976"/>
<polygon fill="midnightblue" stroke="midnightblue" points="603.736,-129.176 594.298,-133.99 604.678,-136.113 603.736,-129.176"/>
</g>
<!-- Node81&#45;&gt;Node82 -->
<g id="edge9" class="edge"><title>Node81&#45;&gt;Node82</title>
<path fill="none" stroke="midnightblue" d="M448.094,-334.927C456.676,-333.921 465.378,-332.9 473.808,-331.911"/>
<polygon fill="midnightblue" stroke="midnightblue" points="447.621,-331.459 438.097,-336.1 448.437,-338.411 447.621,-331.459"/>
</g>
<!-- Node82&#45;&gt;Node76 -->
<g id="edge10" class="edge"><title>Node82&#45;&gt;Node76</title>
<path fill="none" stroke="midnightblue" d="M570.324,-303.81C601.966,-282.911 650.082,-251.131 678.249,-232.527"/>
<polygon fill="midnightblue" stroke="midnightblue" points="568.282,-300.965 561.867,-309.396 572.14,-306.806 568.282,-300.965"/>
</g>
<!-- Node83&#45;&gt;Node75 -->
<g id="edge12" class="edge"><title>Node83&#45;&gt;Node75</title>
<path fill="none" stroke="midnightblue" d="M275.245,-159.587C286.616,-161.903 298.447,-164.313 309.789,-166.624"/>
<polygon fill="midnightblue" stroke="midnightblue" points="275.892,-156.147 265.394,-157.58 274.494,-163.006 275.892,-156.147"/>
</g>
<!-- Node83&#45;&gt;Node78 -->
<g id="edge13" class="edge"><title>Node83&#45;&gt;Node78</title>
<path fill="none" stroke="midnightblue" d="M275.136,-131.06C288.057,-127.949 301.578,-124.694 314.302,-121.631"/>
<polygon fill="midnightblue" stroke="midnightblue" points="274.297,-127.662 265.394,-133.405 275.936,-134.467 274.297,-127.662"/>
</g>
<!-- Node84&#45;&gt;Node75 -->
<g id="edge15" class="edge"><title>Node84&#45;&gt;Node75</title>
<path fill="none" stroke="midnightblue" d="M284.094,-188.281C292.676,-187.433 301.378,-186.574 309.808,-185.741"/>
<polygon fill="midnightblue" stroke="midnightblue" points="283.705,-184.802 274.097,-189.268 284.393,-191.768 283.705,-184.802"/>
</g>
<!-- Node87 -->
<g id="node14" class="node"><title>Node87</title>
<g id="a_node14"><a xlink:href="class_model_1_1layout_generator.html#a6b14394cdb9e6040233a91220cddcc93" target="_top" xlink:title="Model::layoutGenerator\l::generateHall">
<polygon fill="white" stroke="black" points="315,-377.5 315,-407.5 433,-407.5 433,-377.5 315,-377.5"/>
<text text-anchor="start" x="323" y="-395.5" font-family="Helvetica,sans-Serif" font-size="10.00">Model::layoutGenerator</text>
<text text-anchor="middle" x="374" y="-384.5" font-family="Helvetica,sans-Serif" font-size="10.00">::generateHall</text>
</a>
</g>
</g>
<!-- Node86&#45;&gt;Node87 -->
<g id="edge19" class="edge"><title>Node86&#45;&gt;Node87</title>
<path fill="none" stroke="midnightblue" d="M279.296,-391.343C291.118,-391.489 303.311,-391.64 314.833,-391.782"/>
<polygon fill="midnightblue" stroke="midnightblue" points="279.071,-387.84 269.028,-391.216 278.984,-394.84 279.071,-387.84"/>
</g>
<!-- Node87&#45;&gt;Node77 -->
<g id="edge20" class="edge"><title>Node87&#45;&gt;Node77</title>
<path fill="none" stroke="midnightblue" d="M443.393,-382.226C488.755,-374.757 549.391,-363.515 602,-349.5 680.241,-328.656 769.097,-295.645 818.242,-276.533"/>
<polygon fill="midnightblue" stroke="midnightblue" points="442.681,-378.796 433.373,-383.855 443.805,-385.705 442.681,-378.796"/>
</g>
<!-- Node88&#45;&gt;Node75 -->
<g id="edge25" class="edge"><title>Node88&#45;&gt;Node75</title>
<path fill="none" stroke="midnightblue" d="M258.688,-263.62C264.067,-260.566 269.297,-257.186 274,-253.5 293.887,-237.914 290.113,-225.086 310,-209.5 317.342,-203.746 325.967,-198.739 334.438,-194.551"/>
<polygon fill="midnightblue" stroke="midnightblue" points="256.763,-260.678 249.562,-268.449 260.037,-266.865 256.763,-260.678"/>
</g>
<!-- Node88&#45;&gt;Node77 -->
<g id="edge28" class="edge"><title>Node88&#45;&gt;Node77</title>
<path fill="none" stroke="midnightblue" d="M275.513,-281.3C402.685,-276.962 683.635,-267.379 801.877,-263.346"/>
<polygon fill="midnightblue" stroke="midnightblue" points="275.034,-277.814 265.159,-281.653 275.273,-284.81 275.034,-277.814"/>
</g>
<!-- Node88&#45;&gt;Node79 -->
<g id="edge24" class="edge"><title>Node88&#45;&gt;Node79</title>
<path fill="none" stroke="midnightblue" d="M259.883,-264.866C275.776,-259.039 293.556,-252.762 310,-247.5 438.272,-206.456 475.809,-213.555 602,-166.5 626.423,-157.393 653.059,-144.573 672.544,-134.622"/>
<polygon fill="midnightblue" stroke="midnightblue" points="258.426,-261.673 250.26,-268.423 260.853,-268.239 258.426,-261.673"/>
</g>
<!-- Node88&#45;&gt;Node81 -->
<g id="edge27" class="edge"><title>Node88&#45;&gt;Node81</title>
<path fill="none" stroke="midnightblue" d="M261.409,-302.17C284.248,-310.629 310.891,-320.497 332.415,-328.468"/>
<polygon fill="midnightblue" stroke="midnightblue" points="262.473,-298.832 251.879,-298.641 260.041,-305.396 262.473,-298.832"/>
</g>
<!-- Node88&#45;&gt;Node82 -->
<g id="edge26" class="edge"><title>Node88&#45;&gt;Node82</title>
<path fill="none" stroke="midnightblue" d="M275.258,-291.582C332.75,-298.812 416.541,-309.35 473.729,-316.543"/>
<polygon fill="midnightblue" stroke="midnightblue" points="275.557,-288.092 265.198,-290.316 274.683,-295.037 275.557,-288.092"/>
</g>
<!-- Node88&#45;&gt;Node87 -->
<g id="edge23" class="edge"><title>Node88&#45;&gt;Node87</title>
<path fill="none" stroke="midnightblue" d="M232.401,-305.777C251.375,-324.519 280.57,-350.99 310,-368.5 315.532,-371.792 321.595,-374.777 327.706,-377.435"/>
<polygon fill="midnightblue" stroke="midnightblue" points="234.703,-303.129 225.166,-298.514 229.744,-308.069 234.703,-303.129"/>
</g>
</g>
</svg>
