<?xml version="1.0" encoding="UTF-8" standalone="no"?>
<!DOCTYPE svg PUBLIC "-//W3C//DTD SVG 1.1//EN"
 "http://www.w3.org/Graphics/SVG/1.1/DTD/svg11.dtd">
<!-- Generated by graphviz version 2.38.0 (20140413.2041)
 -->
<!-- Title: Model::mapGenerator::isInMapRange Pages: 1 -->
<svg width="1091pt" height="491pt"
 viewBox="0.00 0.00 1091.00 491.21" xmlns="http://www.w3.org/2000/svg" xmlns:xlink="http://www.w3.org/1999/xlink">
<g id="graph0" class="graph" transform="scale(1 1) rotate(0) translate(4 487.21)">
<title>Model::mapGenerator::isInMapRange</title>
<polygon fill="white" stroke="none" points="-4,4 -4,-487.21 1087,-487.21 1087,4 -4,4"/>
<!-- Node112 -->
<g id="node1" class="node"><title>Node112</title>
<polygon fill="#bfbfbf" stroke="black" points="0,-199.145 0,-229.145 110,-229.145 110,-199.145 0,-199.145"/>
<text text-anchor="start" x="8" y="-217.145" font-family="Helvetica,sans-Serif" font-size="10.00">Model::mapGenerator</text>
<text text-anchor="middle" x="55" y="-206.145" font-family="Helvetica,sans-Serif" font-size="10.00">::isInMapRange</text>
</g>
<!-- Node113 -->
<g id="node2" class="node"><title>Node113</title>
<g id="a_node2"><a xlink:href="class_model_1_1map_generator.html#a92598d66736c2be4ca83aeedfe478b9d" target="_top" xlink:title="Model::mapGenerator\l::GetSurroundingWallCount">
<polygon fill="white" stroke="black" points="146,-287.145 146,-317.145 281,-317.145 281,-287.145 146,-287.145"/>
<text text-anchor="start" x="154" y="-305.145" font-family="Helvetica,sans-Serif" font-size="10.00">Model::mapGenerator</text>
<text text-anchor="middle" x="213.5" y="-294.145" font-family="Helvetica,sans-Serif" font-size="10.00">::GetSurroundingWallCount</text>
</a>
</g>
</g>
<!-- Node112&#45;&gt;Node113 -->
<g id="edge1" class="edge"><title>Node112&#45;&gt;Node113</title>
<path fill="none" stroke="midnightblue" d="M91.7698,-234.258C120.348,-250.328 159.773,-272.496 185.686,-287.068"/>
<polygon fill="midnightblue" stroke="midnightblue" points="93.3353,-231.123 82.9033,-229.273 89.9044,-237.225 93.3353,-231.123"/>
</g>
<!-- Node121 -->
<g id="node10" class="node"><title>Node121</title>
<g id="a_node10"><a xlink:href="class_model_1_1map_generator.html#aaac1161126a56490862e3b5fffffbded" target="_top" xlink:title="Model::mapGenerator\l::indexAt">
<polygon fill="white" stroke="black" points="158.5,-199.145 158.5,-229.145 268.5,-229.145 268.5,-199.145 158.5,-199.145"/>
<text text-anchor="start" x="166.5" y="-217.145" font-family="Helvetica,sans-Serif" font-size="10.00">Model::mapGenerator</text>
<text text-anchor="middle" x="213.5" y="-206.145" font-family="Helvetica,sans-Serif" font-size="10.00">::indexAt</text>
</a>
</g>
</g>
<!-- Node112&#45;&gt;Node121 -->
<g id="edge11" class="edge"><title>Node112&#45;&gt;Node121</title>
<path fill="none" stroke="midnightblue" d="M120.665,-214.145C133.176,-214.145 146.165,-214.145 158.299,-214.145"/>
<polygon fill="midnightblue" stroke="midnightblue" points="120.297,-210.645 110.297,-214.145 120.297,-217.645 120.297,-210.645"/>
</g>
<!-- Node126 -->
<g id="node15" class="node"><title>Node126</title>
<g id="a_node15"><a xlink:href="class_model_1_1layout_generator.html#a80d0ad4662419fe534bc7af4aa700bfb" target="_top" xlink:title="Model::layoutGenerator\l::randomRoom">
<polygon fill="white" stroke="black" points="322,-2.14503 322,-32.145 440,-32.145 440,-2.14503 322,-2.14503"/>
<text text-anchor="start" x="330" y="-20.145" font-family="Helvetica,sans-Serif" font-size="10.00">Model::layoutGenerator</text>
<text text-anchor="middle" x="381" y="-9.14503" font-family="Helvetica,sans-Serif" font-size="10.00">::randomRoom</text>
</a>
</g>
</g>
<!-- Node112&#45;&gt;Node126 -->
<g id="edge34" class="edge"><title>Node112&#45;&gt;Node126</title>
<path fill="none" stroke="midnightblue" d="M83.4013,-193.005C129.62,-158.045 226.871,-87.4573 317,-41.145 323.246,-37.9355 330.025,-34.912 336.744,-32.1637"/>
<polygon fill="midnightblue" stroke="midnightblue" points="81.2209,-190.266 75.3783,-199.104 85.4573,-195.838 81.2209,-190.266"/>
</g>
<!-- Node114 -->
<g id="node3" class="node"><title>Node114</title>
<g id="a_node3"><a xlink:href="class_model_1_1map_processor.html#ae1e80cb097c8e31a337b3a20ff653cc2" target="_top" xlink:title="Model::mapProcessor\l::calculateDistanceMap">
<polygon fill="white" stroke="black" points="485.5,-435.145 485.5,-465.145 604.5,-465.145 604.5,-435.145 485.5,-435.145"/>
<text text-anchor="start" x="493.5" y="-453.145" font-family="Helvetica,sans-Serif" font-size="10.00">Model::mapProcessor</text>
<text text-anchor="middle" x="545" y="-442.145" font-family="Helvetica,sans-Serif" font-size="10.00">::calculateDistanceMap</text>
</a>
</g>
</g>
<!-- Node113&#45;&gt;Node114 -->
<g id="edge2" class="edge"><title>Node113&#45;&gt;Node114</title>
<path fill="none" stroke="midnightblue" d="M221.774,-327.1C234.255,-364.752 263.702,-434.797 317,-464.145 375.28,-496.236 455.184,-480.017 502.996,-465.181"/>
<polygon fill="midnightblue" stroke="midnightblue" points="225.057,-325.874 218.698,-317.4 218.385,-327.991 225.057,-325.874"/>
</g>
<!-- Node117 -->
<g id="node6" class="node"><title>Node117</title>
<g id="a_node6"><a xlink:href="class_model_1_1map_generator.html#a08a1dc669cda9401647f81d61611931d" target="_top" xlink:title="Generate new hall with enemyCount. ">
<polygon fill="white" stroke="black" points="973,-115.145 973,-145.145 1083,-145.145 1083,-115.145 973,-115.145"/>
<text text-anchor="start" x="981" y="-133.145" font-family="Helvetica,sans-Serif" font-size="10.00">Model::mapGenerator</text>
<text text-anchor="middle" x="1028" y="-122.145" font-family="Helvetica,sans-Serif" font-size="10.00">::generateHall</text>
</a>
</g>
</g>
<!-- Node113&#45;&gt;Node117 -->
<g id="edge6" class="edge"><title>Node113&#45;&gt;Node117</title>
<path fill="none" stroke="midnightblue" d="M291.605,-307.947C336.528,-310.049 394.167,-310.551 445,-304.145 668.952,-275.924 726.579,-259.84 937,-178.145 960.111,-169.172 984.861,-155.658 1002.55,-145.253"/>
<polygon fill="midnightblue" stroke="midnightblue" points="291.511,-304.438 281.347,-307.429 291.158,-311.429 291.511,-304.438"/>
</g>
<!-- Node118 -->
<g id="node7" class="node"><title>Node118</title>
<g id="a_node7"><a xlink:href="class_model_1_1park_space_inserter.html#a60ef5f3d1e5b3b726cc1ec9d4a200151" target="_top" xlink:title="Model::parkSpaceInserter\l::getWallTiles">
<polygon fill="white" stroke="black" points="317,-265.145 317,-295.145 445,-295.145 445,-265.145 317,-265.145"/>
<text text-anchor="start" x="325" y="-283.145" font-family="Helvetica,sans-Serif" font-size="10.00">Model::parkSpaceInserter</text>
<text text-anchor="middle" x="381" y="-272.145" font-family="Helvetica,sans-Serif" font-size="10.00">::getWallTiles</text>
</a>
</g>
</g>
<!-- Node113&#45;&gt;Node118 -->
<g id="edge7" class="edge"><title>Node113&#45;&gt;Node118</title>
<path fill="none" stroke="midnightblue" d="M291.337,-291.931C299.908,-290.792 308.563,-289.641 316.933,-288.529"/>
<polygon fill="midnightblue" stroke="midnightblue" points="290.79,-288.473 281.338,-293.26 291.712,-295.412 290.79,-288.473"/>
</g>
<!-- Node115 -->
<g id="node4" class="node"><title>Node115</title>
<g id="a_node4"><a xlink:href="class_model_1_1map_processor.html#a7be8a27aaad96e187b4dba60fde5031a" target="_top" xlink:title="Model::mapProcessor\l::placeEnemies">
<polygon fill="white" stroke="black" points="817,-369.145 817,-399.145 929,-399.145 929,-369.145 817,-369.145"/>
<text text-anchor="start" x="825" y="-387.145" font-family="Helvetica,sans-Serif" font-size="10.00">Model::mapProcessor</text>
<text text-anchor="middle" x="873" y="-376.145" font-family="Helvetica,sans-Serif" font-size="10.00">::placeEnemies</text>
</a>
</g>
</g>
<!-- Node114&#45;&gt;Node115 -->
<g id="edge3" class="edge"><title>Node114&#45;&gt;Node115</title>
<path fill="none" stroke="midnightblue" d="M614.909,-450.758C660.488,-449.617 721.171,-445.12 773,-431.145 799.453,-424.012 827.47,-410.033 846.923,-399.166"/>
<polygon fill="midnightblue" stroke="midnightblue" points="614.765,-447.26 604.838,-450.962 614.907,-454.259 614.765,-447.26"/>
</g>
<!-- Node116 -->
<g id="node5" class="node"><title>Node116</title>
<g id="a_node5"><a xlink:href="class_model_1_1map_processor.html#a3719cc265240be889e98f9830602a067" target="_top" xlink:title="Model::mapProcessor\l::getMedialMap">
<polygon fill="white" stroke="black" points="653,-391.145 653,-421.145 765,-421.145 765,-391.145 653,-391.145"/>
<text text-anchor="start" x="661" y="-409.145" font-family="Helvetica,sans-Serif" font-size="10.00">Model::mapProcessor</text>
<text text-anchor="middle" x="709" y="-398.145" font-family="Helvetica,sans-Serif" font-size="10.00">::getMedialMap</text>
</a>
</g>
</g>
<!-- Node114&#45;&gt;Node116 -->
<g id="edge4" class="edge"><title>Node114&#45;&gt;Node116</title>
<path fill="none" stroke="midnightblue" d="M611.234,-432.427C625.068,-428.67 639.54,-424.739 652.951,-421.097"/>
<polygon fill="midnightblue" stroke="midnightblue" points="610.031,-429.127 601.298,-435.126 611.866,-435.882 610.031,-429.127"/>
</g>
<!-- Node116&#45;&gt;Node115 -->
<g id="edge5" class="edge"><title>Node116&#45;&gt;Node115</title>
<path fill="none" stroke="midnightblue" d="M775.234,-397.286C789.068,-395.407 803.54,-393.442 816.951,-391.621"/>
<polygon fill="midnightblue" stroke="midnightblue" points="774.736,-393.821 765.298,-398.635 775.678,-400.758 774.736,-393.821"/>
</g>
<!-- Node119 -->
<g id="node8" class="node"><title>Node119</title>
<g id="a_node8"><a xlink:href="class_model_1_1park_space_inserter.html#a20265678d0e7cfc25daef80afaa1ba86" target="_top" xlink:title="Model::parkSpaceInserter\l::addParkingSpaces_">
<polygon fill="white" stroke="black" points="481,-221.145 481,-251.145 609,-251.145 609,-221.145 481,-221.145"/>
<text text-anchor="start" x="489" y="-239.145" font-family="Helvetica,sans-Serif" font-size="10.00">Model::parkSpaceInserter</text>
<text text-anchor="middle" x="545" y="-228.145" font-family="Helvetica,sans-Serif" font-size="10.00">::addParkingSpaces_</text>
</a>
</g>
</g>
<!-- Node118&#45;&gt;Node119 -->
<g id="edge8" class="edge"><title>Node118&#45;&gt;Node119</title>
<path fill="none" stroke="midnightblue" d="M447.179,-262.442C460.935,-258.706 475.325,-254.798 488.676,-251.171"/>
<polygon fill="midnightblue" stroke="midnightblue" points="446.031,-259.127 437.298,-265.126 447.866,-265.882 446.031,-259.127"/>
</g>
<!-- Node120 -->
<g id="node9" class="node"><title>Node120</title>
<g id="a_node9"><a xlink:href="class_model_1_1park_space_inserter.html#a85f30f97e1864f0c4b3afe8f8dea7ae3" target="_top" xlink:title="Model::parkSpaceInserter\l::addSpaces">
<polygon fill="white" stroke="black" points="809,-139.145 809,-169.145 937,-169.145 937,-139.145 809,-139.145"/>
<text text-anchor="start" x="817" y="-157.145" font-family="Helvetica,sans-Serif" font-size="10.00">Model::parkSpaceInserter</text>
<text text-anchor="middle" x="873" y="-146.145" font-family="Helvetica,sans-Serif" font-size="10.00">::addSpaces</text>
</a>
</g>
</g>
<!-- Node119&#45;&gt;Node120 -->
<g id="edge9" class="edge"><title>Node119&#45;&gt;Node120</title>
<path fill="none" stroke="midnightblue" d="M615.691,-218.615C674.176,-203.904 756.827,-183.115 812.31,-169.159"/>
<polygon fill="midnightblue" stroke="midnightblue" points="614.638,-215.271 605.793,-221.105 616.345,-222.06 614.638,-215.271"/>
</g>
<!-- Node120&#45;&gt;Node117 -->
<g id="edge10" class="edge"><title>Node120&#45;&gt;Node117</title>
<path fill="none" stroke="midnightblue" d="M947.194,-142.664C955.825,-141.31 964.513,-139.947 972.816,-138.645"/>
<polygon fill="midnightblue" stroke="midnightblue" points="946.451,-139.237 937.114,-144.245 947.536,-146.153 946.451,-139.237"/>
</g>
<!-- Node121&#45;&gt;Node114 -->
<g id="edge13" class="edge"><title>Node121&#45;&gt;Node114</title>
<path fill="none" stroke="midnightblue" d="M244.194,-235.724C257.318,-246.725 271.822,-261.154 281,-277.145 315.988,-338.108 263.802,-385.204 317,-431.145 341.357,-452.179 426.49,-454.148 485.28,-452.791"/>
<polygon fill="midnightblue" stroke="midnightblue" points="246.245,-232.881 236.261,-229.334 241.853,-238.333 246.245,-232.881"/>
</g>
<!-- Node121&#45;&gt;Node115 -->
<g id="edge21" class="edge"><title>Node121&#45;&gt;Node115</title>
<path fill="none" stroke="midnightblue" d="M238.24,-236.276C265.559,-261.537 307.849,-299.927 317,-304.145 405.412,-344.892 694.426,-370.8 816.638,-380.185"/>
<polygon fill="midnightblue" stroke="midnightblue" points="240.347,-233.457 230.634,-229.225 235.588,-238.59 240.347,-233.457"/>
</g>
<!-- Node121&#45;&gt;Node118 -->
<g id="edge20" class="edge"><title>Node121&#45;&gt;Node118</title>
<path fill="none" stroke="midnightblue" d="M261.937,-233.062C287.41,-243.221 318.38,-255.571 342.208,-265.074"/>
<polygon fill="midnightblue" stroke="midnightblue" points="263.054,-229.74 252.469,-229.287 260.461,-236.242 263.054,-229.74"/>
</g>
<!-- Node121&#45;&gt;Node119 -->
<g id="edge12" class="edge"><title>Node121&#45;&gt;Node119</title>
<path fill="none" stroke="midnightblue" d="M278.757,-218.435C337.172,-222.336 422.865,-228.057 480.913,-231.933"/>
<polygon fill="midnightblue" stroke="midnightblue" points="278.752,-214.927 268.541,-217.753 278.286,-221.912 278.752,-214.927"/>
</g>
<!-- Node122 -->
<g id="node11" class="node"><title>Node122</title>
<g id="a_node11"><a xlink:href="class_model_1_1park_space_inserter.html#ab81abccc02f65eed8d54e0d56b234e18" target="_top" xlink:title="Model::parkSpaceInserter\l::floodFill">
<polygon fill="white" stroke="black" points="481,-95.145 481,-125.145 609,-125.145 609,-95.145 481,-95.145"/>
<text text-anchor="start" x="489" y="-113.145" font-family="Helvetica,sans-Serif" font-size="10.00">Model::parkSpaceInserter</text>
<text text-anchor="middle" x="545" y="-102.145" font-family="Helvetica,sans-Serif" font-size="10.00">::floodFill</text>
</a>
</g>
</g>
<!-- Node121&#45;&gt;Node122 -->
<g id="edge14" class="edge"><title>Node121&#45;&gt;Node122</title>
<path fill="none" stroke="midnightblue" d="M235.478,-191.898C254.729,-173.04 285.035,-147.062 317,-134.145 369.359,-112.987 433.763,-107.948 480.58,-107.638"/>
<polygon fill="midnightblue" stroke="midnightblue" points="232.997,-189.429 228.419,-198.984 237.956,-194.37 232.997,-189.429"/>
</g>
<!-- Node123 -->
<g id="node12" class="node"><title>Node123</title>
<g id="a_node12"><a xlink:href="class_model_1_1park_space_inserter.html#ada0688360de1fb7d5bd138f2f645bea6" target="_top" xlink:title="Model::parkSpaceInserter\l::removeBlockedSpaces">
<polygon fill="white" stroke="black" points="645,-139.145 645,-169.145 773,-169.145 773,-139.145 645,-139.145"/>
<text text-anchor="start" x="653" y="-157.145" font-family="Helvetica,sans-Serif" font-size="10.00">Model::parkSpaceInserter</text>
<text text-anchor="middle" x="709" y="-146.145" font-family="Helvetica,sans-Serif" font-size="10.00">::removeBlockedSpaces</text>
</a>
</g>
</g>
<!-- Node121&#45;&gt;Node123 -->
<g id="edge26" class="edge"><title>Node121&#45;&gt;Node123</title>
<path fill="none" stroke="midnightblue" d="M249.023,-194.136C268.342,-184.028 293.257,-172.744 317,-167.145 430.042,-140.488 566.524,-143.643 644.695,-148.677"/>
<polygon fill="midnightblue" stroke="midnightblue" points="247.17,-191.158 240.017,-198.974 250.483,-197.325 247.17,-191.158"/>
</g>
<!-- Node124 -->
<g id="node13" class="node"><title>Node124</title>
<g id="a_node13"><a xlink:href="class_model_1_1map_generator.html#a918049786b708772ca97df76389955a7" target="_top" xlink:title="Model::mapGenerator\l::getClosestEdge">
<polygon fill="white" stroke="black" points="326,-391.145 326,-421.145 436,-421.145 436,-391.145 326,-391.145"/>
<text text-anchor="start" x="334" y="-409.145" font-family="Helvetica,sans-Serif" font-size="10.00">Model::mapGenerator</text>
<text text-anchor="middle" x="381" y="-398.145" font-family="Helvetica,sans-Serif" font-size="10.00">::getClosestEdge</text>
</a>
</g>
</g>
<!-- Node121&#45;&gt;Node124 -->
<g id="edge17" class="edge"><title>Node121&#45;&gt;Node124</title>
<path fill="none" stroke="midnightblue" d="M242.8,-235.766C255.876,-246.944 270.742,-261.508 281,-277.145 306.681,-316.292 285.515,-341.494 317,-376.145 322.458,-382.152 329.375,-387.07 336.612,-391.057"/>
<polygon fill="midnightblue" stroke="midnightblue" points="244.882,-232.945 234.947,-229.264 240.418,-238.337 244.882,-232.945"/>
</g>
<!-- Node125 -->
<g id="node14" class="node"><title>Node125</title>
<g id="a_node14"><a xlink:href="class_model_1_1map_generator.html#ac0c4107b40d558b076daad46cfc8404c" target="_top" xlink:title="Model::mapGenerator\l::printLayout">
<polygon fill="white" stroke="black" points="326,-51.145 326,-81.145 436,-81.145 436,-51.145 326,-51.145"/>
<text text-anchor="start" x="334" y="-69.145" font-family="Helvetica,sans-Serif" font-size="10.00">Model::mapGenerator</text>
<text text-anchor="middle" x="381" y="-58.145" font-family="Helvetica,sans-Serif" font-size="10.00">::printLayout</text>
</a>
</g>
</g>
<!-- Node121&#45;&gt;Node125 -->
<g id="edge22" class="edge"><title>Node121&#45;&gt;Node125</title>
<path fill="none" stroke="midnightblue" d="M230.472,-190.515C248.888,-164.672 281.251,-123.322 317,-96.145 324.522,-90.4266 333.309,-85.4077 341.892,-81.1931"/>
<polygon fill="midnightblue" stroke="midnightblue" points="227.427,-188.762 224.557,-198.961 233.161,-192.778 227.427,-188.762"/>
</g>
<!-- Node121&#45;&gt;Node126 -->
<g id="edge23" class="edge"><title>Node121&#45;&gt;Node126</title>
<path fill="none" stroke="midnightblue" d="M232.51,-190.928C246.636,-172.153 266.3,-144.727 281,-119.145 300.023,-86.0407 289.094,-67.2036 317,-41.145 320.678,-37.7101 324.899,-34.752 329.375,-32.2074"/>
<polygon fill="midnightblue" stroke="midnightblue" points="229.71,-188.828 226.447,-198.908 235.284,-193.063 229.71,-188.828"/>
</g>
<!-- Node128 -->
<g id="node17" class="node"><title>Node128</title>
<g id="a_node17"><a xlink:href="class_model_1_1map_generator.html#a180f1510b8d7eb4af5dc919eeaddfa69" target="_top" xlink:title="Model::mapGenerator\l::setTile">
<polygon fill="white" stroke="black" points="326,-177.145 326,-207.145 436,-207.145 436,-177.145 326,-177.145"/>
<text text-anchor="start" x="334" y="-195.145" font-family="Helvetica,sans-Serif" font-size="10.00">Model::mapGenerator</text>
<text text-anchor="middle" x="381" y="-184.145" font-family="Helvetica,sans-Serif" font-size="10.00">::setTile</text>
</a>
</g>
</g>
<!-- Node121&#45;&gt;Node128 -->
<g id="edge27" class="edge"><title>Node121&#45;&gt;Node128</title>
<path fill="none" stroke="midnightblue" d="M278.783,-205.6C294.381,-203.526 310.901,-201.33 325.97,-199.327"/>
<polygon fill="midnightblue" stroke="midnightblue" points="278.142,-202.154 268.691,-206.941 279.065,-209.093 278.142,-202.154"/>
</g>
<!-- Node122&#45;&gt;Node123 -->
<g id="edge15" class="edge"><title>Node122&#45;&gt;Node123</title>
<path fill="none" stroke="midnightblue" d="M611.179,-127.848C624.935,-131.584 639.325,-135.492 652.676,-139.119"/>
<polygon fill="midnightblue" stroke="midnightblue" points="611.866,-124.408 601.298,-125.164 610.031,-131.163 611.866,-124.408"/>
</g>
<!-- Node123&#45;&gt;Node120 -->
<g id="edge16" class="edge"><title>Node123&#45;&gt;Node120</title>
<path fill="none" stroke="midnightblue" d="M783.374,-154.145C791.865,-154.145 800.469,-154.145 808.808,-154.145"/>
<polygon fill="midnightblue" stroke="midnightblue" points="783.097,-150.645 773.097,-154.145 783.097,-157.645 783.097,-150.645"/>
</g>
<!-- Node124&#45;&gt;Node114 -->
<g id="edge19" class="edge"><title>Node124&#45;&gt;Node114</title>
<path fill="none" stroke="midnightblue" d="M446.422,-423.642C460.396,-427.438 475.057,-431.42 488.644,-435.11"/>
<polygon fill="midnightblue" stroke="midnightblue" points="446.962,-420.162 436.394,-420.919 445.127,-426.918 446.962,-420.162"/>
</g>
<!-- Node124&#45;&gt;Node119 -->
<g id="edge18" class="edge"><title>Node124&#45;&gt;Node119</title>
<path fill="none" stroke="midnightblue" d="M403.423,-383.664C436.9,-348.534 500.749,-281.532 529.423,-251.442"/>
<polygon fill="midnightblue" stroke="midnightblue" points="400.741,-381.405 396.376,-391.059 405.809,-386.234 400.741,-381.405"/>
</g>
<!-- Node127 -->
<g id="node16" class="node"><title>Node127</title>
<g id="a_node16"><a xlink:href="class_model_1_1layout_generator.html#a6b14394cdb9e6040233a91220cddcc93" target="_top" xlink:title="Model::layoutGenerator\l::generateHall">
<polygon fill="white" stroke="black" points="486,-46.145 486,-76.145 604,-76.145 604,-46.145 486,-46.145"/>
<text text-anchor="start" x="494" y="-64.145" font-family="Helvetica,sans-Serif" font-size="10.00">Model::layoutGenerator</text>
<text text-anchor="middle" x="545" y="-53.145" font-family="Helvetica,sans-Serif" font-size="10.00">::generateHall</text>
</a>
</g>
</g>
<!-- Node126&#45;&gt;Node127 -->
<g id="edge24" class="edge"><title>Node126&#45;&gt;Node127</title>
<path fill="none" stroke="midnightblue" d="M447.179,-34.8479C460.935,-38.5842 475.325,-42.4925 488.676,-46.1188"/>
<polygon fill="midnightblue" stroke="midnightblue" points="447.866,-31.4078 437.298,-32.1643 446.031,-38.1631 447.866,-31.4078"/>
</g>
<!-- Node127&#45;&gt;Node117 -->
<g id="edge25" class="edge"><title>Node127&#45;&gt;Node117</title>
<path fill="none" stroke="midnightblue" d="M613.948,-70.8923C710.295,-84.7133 884.677,-109.729 972.845,-122.376"/>
<polygon fill="midnightblue" stroke="midnightblue" points="614.416,-67.4236 604.02,-69.468 613.421,-74.3526 614.416,-67.4236"/>
</g>
<!-- Node128&#45;&gt;Node115 -->
<g id="edge29" class="edge"><title>Node128&#45;&gt;Node115</title>
<path fill="none" stroke="midnightblue" d="M408.246,-213.523C427.444,-228.298 454.634,-247.497 481,-260.145 603.209,-318.77 644.369,-305.412 773,-348.145 792.612,-354.66 814.2,-362.438 832.197,-369.094"/>
<polygon fill="midnightblue" stroke="midnightblue" points="410.31,-210.694 400.277,-207.289 405.997,-216.207 410.31,-210.694"/>
</g>
<!-- Node128&#45;&gt;Node117 -->
<g id="edge33" class="edge"><title>Node128&#45;&gt;Node117</title>
<path fill="none" stroke="midnightblue" d="M396.676,-168.377C423.41,-125.17 477.62,-38.0031 481,-36.145 660.956,62.787 920.51,-68.6763 1001.73,-115.053"/>
<polygon fill="midnightblue" stroke="midnightblue" points="393.548,-166.781 391.266,-177.127 399.502,-170.462 393.548,-166.781"/>
</g>
<!-- Node128&#45;&gt;Node119 -->
<g id="edge30" class="edge"><title>Node128&#45;&gt;Node119</title>
<path fill="none" stroke="midnightblue" d="M446.422,-209.642C460.396,-213.438 475.057,-217.42 488.644,-221.11"/>
<polygon fill="midnightblue" stroke="midnightblue" points="446.962,-206.162 436.394,-206.919 445.127,-212.918 446.962,-206.162"/>
</g>
<!-- Node128&#45;&gt;Node122 -->
<g id="edge32" class="edge"><title>Node128&#45;&gt;Node122</title>
<path fill="none" stroke="midnightblue" d="M420.652,-172.58C449.338,-158.06 487.882,-138.551 514.201,-125.228"/>
<polygon fill="midnightblue" stroke="midnightblue" points="419.055,-169.466 411.713,-177.105 422.216,-175.712 419.055,-169.466"/>
</g>
<!-- Node128&#45;&gt;Node123 -->
<g id="edge31" class="edge"><title>Node128&#45;&gt;Node123</title>
<path fill="none" stroke="midnightblue" d="M446.204,-185.964C491.7,-181.436 554.153,-174.92 609,-168.145 620.629,-166.709 633.008,-165.056 644.933,-163.402"/>
<polygon fill="midnightblue" stroke="midnightblue" points="445.789,-182.488 436.182,-186.957 446.479,-189.454 445.789,-182.488"/>
</g>
<!-- Node128&#45;&gt;Node127 -->
<g id="edge28" class="edge"><title>Node128&#45;&gt;Node127</title>
<path fill="none" stroke="midnightblue" d="M398.468,-168.784C416.37,-144.889 447.006,-108.108 481,-85.145 485.946,-81.8037 491.422,-78.8412 497.02,-76.2392"/>
<polygon fill="midnightblue" stroke="midnightblue" points="395.566,-166.824 392.466,-176.955 401.207,-170.968 395.566,-166.824"/>
</g>
</g>
</svg>
