<?xml version="1.0" encoding="UTF-8" standalone="no"?>
<!DOCTYPE svg PUBLIC "-//W3C//DTD SVG 1.1//EN"
 "http://www.w3.org/Graphics/SVG/1.1/DTD/svg11.dtd">
<!-- Generated by graphviz version 2.38.0 (20140413.2041)
 -->
<!-- Title: Model::CyberTeekkari::buyUpgrade Pages: 1 -->
<svg width="295pt" height="78pt"
 viewBox="0.00 0.00 295.00 77.50" xmlns="http://www.w3.org/2000/svg" xmlns:xlink="http://www.w3.org/1999/xlink">
<g id="graph0" class="graph" transform="scale(1 1) rotate(0) translate(4 73.5)">
<title>Model::CyberTeekkari::buyUpgrade</title>
<polygon fill="white" stroke="none" points="-4,4 -4,-73.5 291,-73.5 291,4 -4,4"/>
<!-- Node2 -->
<g id="node1" class="node"><title>Node2</title>
<polygon fill="#bfbfbf" stroke="black" points="0,-22.5 0,-52.5 111,-52.5 111,-22.5 0,-22.5"/>
<text text-anchor="start" x="8" y="-40.5" font-family="Helvetica,sans-Serif" font-size="10.00">Model::CyberTeekkari</text>
<text text-anchor="middle" x="55.5" y="-29.5" font-family="Helvetica,sans-Serif" font-size="10.00">::buyUpgrade</text>
</g>
<!-- Node3 -->
<g id="node2" class="node"><title>Node3</title>
<g id="a_node2"><a xlink:href="class_model_1_1_equipment.html#a8be8a33c92616dddefffa429c812e5a6" target="_top" xlink:title="getName palauttaa kyseisen tavaran nimen. ">
<polygon fill="white" stroke="black" points="147,-50 147,-69 287,-69 287,-50 147,-50"/>
<text text-anchor="middle" x="217" y="-57" font-family="Helvetica,sans-Serif" font-size="10.00">Model::Equipment::getName</text>
</a>
</g>
</g>
<!-- Node2&#45;&gt;Node3 -->
<g id="edge1" class="edge"><title>Node2&#45;&gt;Node3</title>
<path fill="none" stroke="midnightblue" d="M111.391,-45.0712C119.616,-46.2057 128.234,-47.3944 136.842,-48.5817"/>
<polygon fill="midnightblue" stroke="midnightblue" points="136.535,-52.0724 146.92,-49.9717 137.492,-45.1381 136.535,-52.0724"/>
</g>
<!-- Node4 -->
<g id="node3" class="node"><title>Node4</title>
<g id="a_node3"><a xlink:href="class_model_1_1_equipment.html#a21933fbc1922db1718fe4d6be6c9bc2f" target="_top" xlink:title="Model::Equipment::increase\lUpgradeLevel">
<polygon fill="white" stroke="black" points="148,-0.5 148,-30.5 286,-30.5 286,-0.5 148,-0.5"/>
<text text-anchor="start" x="156" y="-18.5" font-family="Helvetica,sans-Serif" font-size="10.00">Model::Equipment::increase</text>
<text text-anchor="middle" x="217" y="-7.5" font-family="Helvetica,sans-Serif" font-size="10.00">UpgradeLevel</text>
</a>
</g>
</g>
<!-- Node2&#45;&gt;Node4 -->
<g id="edge2" class="edge"><title>Node2&#45;&gt;Node4</title>
<path fill="none" stroke="midnightblue" d="M111.391,-29.9288C119.902,-28.7549 128.833,-27.523 137.74,-26.2945"/>
<polygon fill="midnightblue" stroke="midnightblue" points="138.333,-29.7459 147.761,-24.9122 137.377,-22.8115 138.333,-29.7459"/>
</g>
</g>
</svg>
