<?xml version="1.0" encoding="UTF-8" standalone="no"?>
<!DOCTYPE svg PUBLIC "-//W3C//DTD SVG 1.1//EN"
 "http://www.w3.org/Graphics/SVG/1.1/DTD/svg11.dtd">
<!-- Generated by graphviz version 2.38.0 (20140413.2041)
 -->
<!-- Title: View::ActionScene::enemyHitSignal Pages: 1 -->
<svg width="536pt" height="39pt"
 viewBox="0.00 0.00 536.00 39.00" xmlns="http://www.w3.org/2000/svg" xmlns:xlink="http://www.w3.org/1999/xlink">
<g id="graph0" class="graph" transform="scale(1 1) rotate(0) translate(4 35)">
<title>View::ActionScene::enemyHitSignal</title>
<polygon fill="white" stroke="none" points="-4,4 -4,-35 532,-35 532,4 -4,4"/>
<!-- Node122 -->
<g id="node1" class="node"><title>Node122</title>
<polygon fill="#bfbfbf" stroke="black" points="0,-0.5 0,-30.5 105,-30.5 105,-0.5 0,-0.5"/>
<text text-anchor="start" x="8" y="-18.5" font-family="Helvetica,sans-Serif" font-size="10.00">View::ActionScene::</text>
<text text-anchor="middle" x="52.5" y="-7.5" font-family="Helvetica,sans-Serif" font-size="10.00">enemyHitSignal</text>
</g>
<!-- Node123 -->
<g id="node2" class="node"><title>Node123</title>
<g id="a_node2"><a xlink:href="class_view_1_1_action_scene.html#aae98cc0bf8648ab049ff79a902701e73" target="_top" xlink:title="View::ActionScene::\lcheckShotCollision">
<polygon fill="white" stroke="black" points="141,-0.5 141,-30.5 246,-30.5 246,-0.5 141,-0.5"/>
<text text-anchor="start" x="149" y="-18.5" font-family="Helvetica,sans-Serif" font-size="10.00">View::ActionScene::</text>
<text text-anchor="middle" x="193.5" y="-7.5" font-family="Helvetica,sans-Serif" font-size="10.00">checkShotCollision</text>
</a>
</g>
</g>
<!-- Node122&#45;&gt;Node123 -->
<g id="edge1" class="edge"><title>Node122&#45;&gt;Node123</title>
<path fill="none" stroke="midnightblue" d="M115.441,-15.5C123.878,-15.5 132.466,-15.5 140.698,-15.5"/>
<polygon fill="midnightblue" stroke="midnightblue" points="115.259,-12.0001 105.258,-15.5 115.258,-19.0001 115.259,-12.0001"/>
</g>
<!-- Node124 -->
<g id="node3" class="node"><title>Node124</title>
<g id="a_node3"><a xlink:href="class_view_1_1_action_scene.html#a5ef79714e0a56179cf0518071879a2dd" target="_top" xlink:title="View::ActionScene::\lshootTheShot">
<polygon fill="white" stroke="black" points="282,-0.5 282,-30.5 387,-30.5 387,-0.5 282,-0.5"/>
<text text-anchor="start" x="290" y="-18.5" font-family="Helvetica,sans-Serif" font-size="10.00">View::ActionScene::</text>
<text text-anchor="middle" x="334.5" y="-7.5" font-family="Helvetica,sans-Serif" font-size="10.00">shootTheShot</text>
</a>
</g>
</g>
<!-- Node123&#45;&gt;Node124 -->
<g id="edge2" class="edge"><title>Node123&#45;&gt;Node124</title>
<path fill="none" stroke="midnightblue" d="M256.441,-15.5C264.878,-15.5 273.466,-15.5 281.698,-15.5"/>
<polygon fill="midnightblue" stroke="midnightblue" points="256.259,-12.0001 246.258,-15.5 256.258,-19.0001 256.259,-12.0001"/>
</g>
<!-- Node125 -->
<g id="node4" class="node"><title>Node125</title>
<g id="a_node4"><a xlink:href="class_view_1_1_action_scene.html#a9c9751aa5663b998d81840048e13c9be" target="_top" xlink:title="View::ActionScene::\linitPCs">
<polygon fill="white" stroke="black" points="423,-0.5 423,-30.5 528,-30.5 528,-0.5 423,-0.5"/>
<text text-anchor="start" x="431" y="-18.5" font-family="Helvetica,sans-Serif" font-size="10.00">View::ActionScene::</text>
<text text-anchor="middle" x="475.5" y="-7.5" font-family="Helvetica,sans-Serif" font-size="10.00">initPCs</text>
</a>
</g>
</g>
<!-- Node124&#45;&gt;Node125 -->
<g id="edge3" class="edge"><title>Node124&#45;&gt;Node125</title>
<path fill="none" stroke="midnightblue" d="M397.441,-15.5C405.878,-15.5 414.466,-15.5 422.698,-15.5"/>
<polygon fill="midnightblue" stroke="midnightblue" points="397.259,-12.0001 387.258,-15.5 397.258,-19.0001 397.259,-12.0001"/>
</g>
</g>
</svg>
