<?xml version="1.0" encoding="UTF-8" standalone="no"?>
<!DOCTYPE svg PUBLIC "-//W3C//DTD SVG 1.1//EN"
 "http://www.w3.org/Graphics/SVG/1.1/DTD/svg11.dtd">
<!-- Generated by graphviz version 2.38.0 (20140413.2041)
 -->
<!-- Title: Model::PlayerParty::healCyborg Pages: 1 -->
<svg width="285pt" height="166pt"
 viewBox="0.00 0.00 285.00 165.50" xmlns="http://www.w3.org/2000/svg" xmlns:xlink="http://www.w3.org/1999/xlink">
<g id="graph0" class="graph" transform="scale(1 1) rotate(0) translate(4 161.5)">
<title>Model::PlayerParty::healCyborg</title>
<polygon fill="white" stroke="none" points="-4,4 -4,-161.5 281,-161.5 281,4 -4,4"/>
<!-- Node40 -->
<g id="node1" class="node"><title>Node40</title>
<polygon fill="#bfbfbf" stroke="black" points="0,-61 0,-91 100,-91 100,-61 0,-61"/>
<text text-anchor="start" x="8" y="-79" font-family="Helvetica,sans-Serif" font-size="10.00">Model::PlayerParty</text>
<text text-anchor="middle" x="50" y="-68" font-family="Helvetica,sans-Serif" font-size="10.00">::healCyborg</text>
</g>
<!-- Node41 -->
<g id="node2" class="node"><title>Node41</title>
<g id="a_node2"><a xlink:href="class_model_1_1_player_party.html#ab33abac5217cb3fa2bda54d9f307d220" target="_top" xlink:title="Model::PlayerParty\l::getActor">
<polygon fill="white" stroke="black" points="156.5,-127 156.5,-157 256.5,-157 256.5,-127 156.5,-127"/>
<text text-anchor="start" x="164.5" y="-145" font-family="Helvetica,sans-Serif" font-size="10.00">Model::PlayerParty</text>
<text text-anchor="middle" x="206.5" y="-134" font-family="Helvetica,sans-Serif" font-size="10.00">::getActor</text>
</a>
</g>
</g>
<!-- Node40&#45;&gt;Node41 -->
<g id="edge1" class="edge"><title>Node40&#45;&gt;Node41</title>
<path fill="none" stroke="midnightblue" d="M80.5498,-91.1897C96.7388,-99.2728 117.267,-109.138 136,-117 141.099,-119.14 146.452,-121.268 151.83,-123.329"/>
<polygon fill="midnightblue" stroke="midnightblue" points="150.893,-126.715 161.485,-126.95 153.351,-120.161 150.893,-126.715"/>
</g>
<!-- Node42 -->
<g id="node3" class="node"><title>Node42</title>
<g id="a_node3"><a xlink:href="class_model_1_1_player.html#ac07882d93b2cb812e28a0c5488217983" target="_top" xlink:title="Model::Player::healAmount">
<polygon fill="white" stroke="black" points="139.5,-88.5 139.5,-107.5 273.5,-107.5 273.5,-88.5 139.5,-88.5"/>
<text text-anchor="middle" x="206.5" y="-95.5" font-family="Helvetica,sans-Serif" font-size="10.00">Model::Player::healAmount</text>
</a>
</g>
</g>
<!-- Node40&#45;&gt;Node42 -->
<g id="edge2" class="edge"><title>Node40&#45;&gt;Node42</title>
<path fill="none" stroke="midnightblue" d="M100.31,-83.0214C109.648,-84.3512 119.617,-85.7707 129.557,-87.1861"/>
<polygon fill="midnightblue" stroke="midnightblue" points="129.069,-90.6518 139.463,-88.5966 130.056,-83.7217 129.069,-90.6518"/>
</g>
<!-- Node43 -->
<g id="node4" class="node"><title>Node43</title>
<g id="a_node4"><a xlink:href="class_model_1_1_cyber_teekkari.html#a1ed0532bce2499eddbde70aa51f36f80" target="_top" xlink:title="Model::CyberTeekkari\l::healAmount">
<polygon fill="white" stroke="black" points="151,-39 151,-69 262,-69 262,-39 151,-39"/>
<text text-anchor="start" x="159" y="-57" font-family="Helvetica,sans-Serif" font-size="10.00">Model::CyberTeekkari</text>
<text text-anchor="middle" x="206.5" y="-46" font-family="Helvetica,sans-Serif" font-size="10.00">::healAmount</text>
</a>
</g>
</g>
<!-- Node40&#45;&gt;Node43 -->
<g id="edge3" class="edge"><title>Node40&#45;&gt;Node43</title>
<path fill="none" stroke="midnightblue" d="M100.31,-68.9786C113.117,-67.1548 127.11,-65.1624 140.588,-63.2432"/>
<polygon fill="midnightblue" stroke="midnightblue" points="141.359,-66.6687 150.766,-61.7939 140.372,-59.7386 141.359,-66.6687"/>
</g>
<!-- Node44 -->
<g id="node5" class="node"><title>Node44</title>
<g id="a_node5"><a xlink:href="class_model_1_1_player.html#ae8fcb8a8968fcfaeb7691c5af5a6b198" target="_top" xlink:title="Model::Player::reduceMoney">
<polygon fill="white" stroke="black" points="136,-0.5 136,-19.5 277,-19.5 277,-0.5 136,-0.5"/>
<text text-anchor="middle" x="206.5" y="-7.5" font-family="Helvetica,sans-Serif" font-size="10.00">Model::Player::reduceMoney</text>
</a>
</g>
</g>
<!-- Node40&#45;&gt;Node44 -->
<g id="edge4" class="edge"><title>Node40&#45;&gt;Node44</title>
<path fill="none" stroke="midnightblue" d="M75.5972,-60.8462C92.2083,-51.0788 114.877,-38.6362 136,-30 142.712,-27.2559 149.932,-24.7321 157.09,-22.4688"/>
<polygon fill="midnightblue" stroke="midnightblue" points="158.198,-25.7903 166.758,-19.5478 156.173,-19.0895 158.198,-25.7903"/>
</g>
</g>
</svg>
