<?xml version="1.0" encoding="UTF-8" standalone="no"?>
<!DOCTYPE svg PUBLIC "-//W3C//DTD SVG 1.1//EN"
 "http://www.w3.org/Graphics/SVG/1.1/DTD/svg11.dtd">
<!-- Generated by graphviz version 2.38.0 (20140413.2041)
 -->
<!-- Title: Model::CyberTeekkari Pages: 1 -->
<!--zoomable 716 -->
<svg id="main" version="1.1" xmlns="http://www.w3.org/2000/svg" xmlns:xlink="http://www.w3.org/1999/xlink" xml:space="preserve" onload="init(evt)">
<style type="text/css"><![CDATA[
.edge:hover path { stroke: red; }
.edge:hover polygon { stroke: red; fill: red; }
]]></style>
<script type="text/javascript"><![CDATA[
var edges = document.getElementsByTagName('g');
if (edges && edges.length) {
  for (var i=0;i<edges.length;i++) {
    if (edges[i].id.substr(0,4)=='edge') {
      edges[i].setAttribute('class','edge');
    }
  }
}
]]></script>
        <defs>
                <circle id="rim" cx="0" cy="0" r="7"/>
                <circle id="rim2" cx="0" cy="0" r="3.5"/>
                <g id="zoomPlus">
                        <use xlink:href="#rim" fill="#404040">
                                <set attributeName="fill" to="#808080" begin="zoomplus.mouseover" end="zoomplus.mouseout"/>
                        </use>
                        <path d="M-4,0h8M0,-4v8" fill="none" stroke="white" stroke-width="1.5" pointer-events="none"/>
                </g>
                <g id="zoomMin">
                        <use xlink:href="#rim" fill="#404040">
                                <set attributeName="fill" to="#808080" begin="zoomminus.mouseover" end="zoomminus.mouseout"/>
                        </use>
                        <path d="M-4,0h8" fill="none" stroke="white" stroke-width="1.5" pointer-events="none"/>
                </g>
                <g id="dirArrow">
                        <path fill="none" stroke="white" stroke-width="1.5" d="M0,-3.0v7 M-2.5,-0.5L0,-3.0L2.5,-0.5"/>
                </g>
               <g id="resetDef">
                       <use xlink:href="#rim2" fill="#404040">
                               <set attributeName="fill" to="#808080" begin="reset.mouseover" end="reset.mouseout"/>
                       </use>
               </g>
        </defs>

<script type="text/javascript">
var viewWidth = 723;
var viewHeight = 716;
var sectionId = 'dynsection-1';
</script>
<script xlink:href="svgpan.js"/>
<svg id="graph" class="graph">
<g id="viewport">
<title>Model::CyberTeekkari</title>
<polygon fill="white" stroke="none" points="-4,4 -4,-712 719,-712 719,4 -4,4"/>
<!-- Node2 -->
<g id="node1" class="node"><title>Node2</title>
<polygon fill="#bfbfbf" stroke="black" points="407,-0.5 407,-167.5 518,-167.5 518,-0.5 407,-0.5"/>
<text text-anchor="middle" x="462.5" y="-155.5" font-family="Helvetica,sans-Serif" font-size="10.00">Model::CyberTeekkari</text>
<polyline fill="none" stroke="black" points="407,-148.5 518,-148.5 "/>
<text text-anchor="middle" x="462.5" y="-136.5" font-family="Helvetica,sans-Serif" font-size="10.00"> </text>
<polyline fill="none" stroke="black" points="407,-129.5 518,-129.5 "/>
<text text-anchor="start" x="415" y="-117.5" font-family="Helvetica,sans-Serif" font-size="10.00">+ CyberTeekkari()</text>
<text text-anchor="start" x="415" y="-106.5" font-family="Helvetica,sans-Serif" font-size="10.00">+ isDead()</text>
<text text-anchor="start" x="415" y="-95.5" font-family="Helvetica,sans-Serif" font-size="10.00">+ getHitPoints()</text>
<text text-anchor="start" x="415" y="-84.5" font-family="Helvetica,sans-Serif" font-size="10.00">+ getMoney()</text>
<text text-anchor="start" x="415" y="-73.5" font-family="Helvetica,sans-Serif" font-size="10.00">+ fullHeal()</text>
<text text-anchor="start" x="415" y="-62.5" font-family="Helvetica,sans-Serif" font-size="10.00">+ getWeapon()</text>
<text text-anchor="start" x="415" y="-51.5" font-family="Helvetica,sans-Serif" font-size="10.00">+ getUpgrades()</text>
<text text-anchor="start" x="415" y="-40.5" font-family="Helvetica,sans-Serif" font-size="10.00">+ getStat()</text>
<text text-anchor="start" x="415" y="-29.5" font-family="Helvetica,sans-Serif" font-size="10.00">+ setDead()</text>
<text text-anchor="start" x="415" y="-18.5" font-family="Helvetica,sans-Serif" font-size="10.00">+ setAlive()</text>
<text text-anchor="start" x="415" y="-7.5" font-family="Helvetica,sans-Serif" font-size="10.00">and 8 more...</text>
</g>
<!-- Node3 -->
<g id="node2" class="node"><title>Node3</title>
<g id="a_node2"><a xlink:href="class_interface_1_1_actor_interface.html" target="_top" xlink:title="ActorInterface on rajapintaluokka, josta perit채채n Player ja Cyberteekkari. ">
<polygon fill="white" stroke="black" points="91,-226.5 91,-404.5 210,-404.5 210,-226.5 91,-226.5"/>
<text text-anchor="middle" x="150.5" y="-392.5" font-family="Helvetica,sans-Serif" font-size="10.00">Interface::ActorInterface</text>
<polyline fill="none" stroke="black" points="91,-385.5 210,-385.5 "/>
<text text-anchor="middle" x="150.5" y="-373.5" font-family="Helvetica,sans-Serif" font-size="10.00"> </text>
<polyline fill="none" stroke="black" points="91,-366.5 210,-366.5 "/>
<text text-anchor="start" x="99" y="-354.5" font-family="Helvetica,sans-Serif" font-size="10.00">+ ActorInterface()</text>
<text text-anchor="start" x="99" y="-343.5" font-family="Helvetica,sans-Serif" font-size="10.00">+ ~ActorInterface()</text>
<text text-anchor="start" x="99" y="-332.5" font-family="Helvetica,sans-Serif" font-size="10.00">+ isDead()</text>
<text text-anchor="start" x="99" y="-321.5" font-family="Helvetica,sans-Serif" font-size="10.00">+ getHitPoints()</text>
<text text-anchor="start" x="99" y="-310.5" font-family="Helvetica,sans-Serif" font-size="10.00">+ getMoney()</text>
<text text-anchor="start" x="99" y="-299.5" font-family="Helvetica,sans-Serif" font-size="10.00">+ fullHeal()</text>
<text text-anchor="start" x="99" y="-288.5" font-family="Helvetica,sans-Serif" font-size="10.00">+ getWeapon()</text>
<text text-anchor="start" x="99" y="-277.5" font-family="Helvetica,sans-Serif" font-size="10.00">+ getUpgrades()</text>
<text text-anchor="start" x="99" y="-266.5" font-family="Helvetica,sans-Serif" font-size="10.00">+ getStat()</text>
<text text-anchor="start" x="99" y="-255.5" font-family="Helvetica,sans-Serif" font-size="10.00">+ reloadWeapon()</text>
<text text-anchor="start" x="99" y="-244.5" font-family="Helvetica,sans-Serif" font-size="10.00">+ getTurnIncome()</text>
<text text-anchor="start" x="99" y="-233.5" font-family="Helvetica,sans-Serif" font-size="10.00">+ getArmor()</text>
</a>
</g>
</g>
<!-- Node3&#45;&gt;Node2 -->
<g id="edge1" class="edge"><title>Node3&#45;&gt;Node2</title>
<path fill="none" stroke="midnightblue" d="M217.722,-226.686C217.981,-226.456 218.24,-226.228 218.5,-226 276.074,-175.523 354.443,-134.067 406.665,-109.467"/>
<polygon fill="none" stroke="midnightblue" points="215.216,-224.238 210.314,-233.631 220.004,-229.345 215.216,-224.238"/>
</g>
<!-- Node4 -->
<g id="node3" class="node"><title>Node4</title>
<g id="a_node3"><a xlink:href="class_model_1_1_equipment.html" target="_top" xlink:title="{Model::Equipment\n||+ Equipment()\l+ Equipment()\l+ Equipment()\l+ Equipment()\l+ getPrice()\l+ getName()\l+ getType()\l+ getAmmo()\l+ getMaximumAmmoCapacity()\l+ getUpgradeLevel()\land 12 more...\l}">
<polygon fill="white" stroke="black" points="228,-232 228,-399 383,-399 383,-232 228,-232"/>
<text text-anchor="middle" x="305.5" y="-387" font-family="Helvetica,sans-Serif" font-size="10.00">Model::Equipment</text>
<polyline fill="none" stroke="black" points="228,-380 383,-380 "/>
<text text-anchor="middle" x="305.5" y="-368" font-family="Helvetica,sans-Serif" font-size="10.00"> </text>
<polyline fill="none" stroke="black" points="228,-361 383,-361 "/>
<text text-anchor="start" x="236" y="-349" font-family="Helvetica,sans-Serif" font-size="10.00">+ Equipment()</text>
<text text-anchor="start" x="236" y="-338" font-family="Helvetica,sans-Serif" font-size="10.00">+ Equipment()</text>
<text text-anchor="start" x="236" y="-327" font-family="Helvetica,sans-Serif" font-size="10.00">+ Equipment()</text>
<text text-anchor="start" x="236" y="-316" font-family="Helvetica,sans-Serif" font-size="10.00">+ Equipment()</text>
<text text-anchor="start" x="236" y="-305" font-family="Helvetica,sans-Serif" font-size="10.00">+ getPrice()</text>
<text text-anchor="start" x="236" y="-294" font-family="Helvetica,sans-Serif" font-size="10.00">+ getName()</text>
<text text-anchor="start" x="236" y="-283" font-family="Helvetica,sans-Serif" font-size="10.00">+ getType()</text>
<text text-anchor="start" x="236" y="-272" font-family="Helvetica,sans-Serif" font-size="10.00">+ getAmmo()</text>
<text text-anchor="start" x="236" y="-261" font-family="Helvetica,sans-Serif" font-size="10.00">+ getMaximumAmmoCapacity()</text>
<text text-anchor="start" x="236" y="-250" font-family="Helvetica,sans-Serif" font-size="10.00">+ getUpgradeLevel()</text>
<text text-anchor="start" x="236" y="-239" font-family="Helvetica,sans-Serif" font-size="10.00">and 12 more...</text>
</a>
</g>
</g>
<!-- Node4&#45;&gt;Node2 -->
<g id="edge2" class="edge"><title>Node4&#45;&gt;Node2</title>
<path fill="none" stroke="#404040" d="M352.043,-231.837C361.414,-216.358 371.475,-200.496 381.5,-186 387.151,-177.828 393.266,-169.467 399.515,-161.226"/>
<polygon fill="none" stroke="#404040" points="399.582,-161.139 400.066,-153.945 406.894,-151.625 406.409,-158.819 399.582,-161.139"/>
<text text-anchor="middle" x="415" y="-200" font-family="Helvetica,sans-Serif" font-size="10.00"> &#45;weaponSlot1_</text>
<text text-anchor="middle" x="415" y="-189" font-family="Helvetica,sans-Serif" font-size="10.00">&#45;weaponSlot2_</text>
</g>
<!-- Node5 -->
<g id="node4" class="node"><title>Node5</title>
<g id="a_node4"><a xlink:href="class_interface_1_1_equipment_interface.html" target="_top" xlink:title="EquipmentInterface on rajapintaluokka, josta perit채채n tavaroita (Equipment). ">
<polygon fill="white" stroke="black" points="0,-540.5 0,-707.5 155,-707.5 155,-540.5 0,-540.5"/>
<text text-anchor="middle" x="77.5" y="-695.5" font-family="Helvetica,sans-Serif" font-size="10.00">Interface::EquipmentInterface</text>
<polyline fill="none" stroke="black" points="0,-688.5 155,-688.5 "/>
<text text-anchor="middle" x="77.5" y="-676.5" font-family="Helvetica,sans-Serif" font-size="10.00"> </text>
<polyline fill="none" stroke="black" points="0,-669.5 155,-669.5 "/>
<text text-anchor="start" x="8" y="-657.5" font-family="Helvetica,sans-Serif" font-size="10.00">+ EquipmentInterface()</text>
<text text-anchor="start" x="8" y="-646.5" font-family="Helvetica,sans-Serif" font-size="10.00">+ ~EquipmentInterface()</text>
<text text-anchor="start" x="8" y="-635.5" font-family="Helvetica,sans-Serif" font-size="10.00">+ getPrice()</text>
<text text-anchor="start" x="8" y="-624.5" font-family="Helvetica,sans-Serif" font-size="10.00">+ getName()</text>
<text text-anchor="start" x="8" y="-613.5" font-family="Helvetica,sans-Serif" font-size="10.00">+ getType()</text>
<text text-anchor="start" x="8" y="-602.5" font-family="Helvetica,sans-Serif" font-size="10.00">+ getAmmo()</text>
<text text-anchor="start" x="8" y="-591.5" font-family="Helvetica,sans-Serif" font-size="10.00">+ getMaximumAmmoCapacity()</text>
<text text-anchor="start" x="8" y="-580.5" font-family="Helvetica,sans-Serif" font-size="10.00">+ getUpgradeLevel()</text>
<text text-anchor="start" x="8" y="-569.5" font-family="Helvetica,sans-Serif" font-size="10.00">+ getRange()</text>
<text text-anchor="start" x="8" y="-558.5" font-family="Helvetica,sans-Serif" font-size="10.00">+ getDamage()</text>
<text text-anchor="start" x="8" y="-547.5" font-family="Helvetica,sans-Serif" font-size="10.00">and 8 more...</text>
</a>
</g>
</g>
<!-- Node5&#45;&gt;Node4 -->
<g id="edge3" class="edge"><title>Node5&#45;&gt;Node4</title>
<path fill="none" stroke="midnightblue" d="M114.906,-531.238C132.989,-494.575 157.375,-453.833 187.5,-423 198.634,-411.604 205.914,-414.768 218.5,-405 221.649,-402.556 224.797,-400.003 227.928,-397.37"/>
<polygon fill="none" stroke="midnightblue" points="111.647,-529.936 110.444,-540.462 117.949,-532.984 111.647,-529.936"/>
</g>
<!-- Node6 -->
<g id="node5" class="node"><title>Node6</title>
<polygon fill="white" stroke="#bfbfbf" points="173,-595.5 173,-652.5 218,-652.5 218,-595.5 173,-595.5"/>
<text text-anchor="middle" x="195.5" y="-640.5" font-family="Helvetica,sans-Serif" font-size="10.00">double</text>
<polyline fill="none" stroke="#bfbfbf" points="173,-633.5 218,-633.5 "/>
<text text-anchor="middle" x="195.5" y="-621.5" font-family="Helvetica,sans-Serif" font-size="10.00"> </text>
<polyline fill="none" stroke="#bfbfbf" points="173,-614.5 218,-614.5 "/>
<text text-anchor="middle" x="195.5" y="-602.5" font-family="Helvetica,sans-Serif" font-size="10.00"> </text>
</g>
<!-- Node6&#45;&gt;Node4 -->
<g id="edge4" class="edge"><title>Node6&#45;&gt;Node4</title>
<path fill="none" stroke="#404040" d="M192.142,-595.173C188.51,-555.292 186.135,-480.368 210.5,-423 213.456,-416.041 217.056,-409.228 221.107,-402.624"/>
<polygon fill="none" stroke="#404040" points="221.218,-402.455 221.174,-395.244 227.813,-392.429 227.857,-399.64 221.218,-402.455"/>
<text text-anchor="middle" x="239" y="-475.5" font-family="Helvetica,sans-Serif" font-size="10.00"> &#45;accuracy_</text>
<text text-anchor="middle" x="239" y="-464.5" font-family="Helvetica,sans-Serif" font-size="10.00">&#45;effectValue_</text>
</g>
<!-- Node7 -->
<g id="node6" class="node"><title>Node7</title>
<polygon fill="white" stroke="#bfbfbf" points="250.5,-595.5 250.5,-652.5 300.5,-652.5 300.5,-595.5 250.5,-595.5"/>
<text text-anchor="middle" x="275.5" y="-640.5" font-family="Helvetica,sans-Serif" font-size="10.00">QString</text>
<polyline fill="none" stroke="#bfbfbf" points="250.5,-633.5 300.5,-633.5 "/>
<text text-anchor="middle" x="275.5" y="-621.5" font-family="Helvetica,sans-Serif" font-size="10.00"> </text>
<polyline fill="none" stroke="#bfbfbf" points="250.5,-614.5 300.5,-614.5 "/>
<text text-anchor="middle" x="275.5" y="-602.5" font-family="Helvetica,sans-Serif" font-size="10.00"> </text>
</g>
<!-- Node7&#45;&gt;Node4 -->
<g id="edge5" class="edge"><title>Node7&#45;&gt;Node4</title>
<path fill="none" stroke="#404040" d="M273.377,-595.343C270.916,-556.602 268.179,-484.068 276.5,-423 277.03,-419.108 277.662,-415.156 278.375,-411.179"/>
<polygon fill="none" stroke="#404040" points="278.414,-410.98 275.652,-404.319 280.738,-399.207 283.5,-405.868 278.414,-410.98"/>
<text text-anchor="middle" x="294.5" y="-481" font-family="Helvetica,sans-Serif" font-size="10.00"> &#45;name_</text>
<text text-anchor="middle" x="294.5" y="-470" font-family="Helvetica,sans-Serif" font-size="10.00">&#45;type_</text>
<text text-anchor="middle" x="294.5" y="-459" font-family="Helvetica,sans-Serif" font-size="10.00">&#45;effect_</text>
</g>
<!-- Node8 -->
<g id="node7" class="node"><title>Node8</title>
<polygon fill="white" stroke="#bfbfbf" points="384,-595.5 384,-652.5 413,-652.5 413,-595.5 384,-595.5"/>
<text text-anchor="middle" x="398.5" y="-640.5" font-family="Helvetica,sans-Serif" font-size="10.00">int</text>
<polyline fill="none" stroke="#bfbfbf" points="384,-633.5 413,-633.5 "/>
<text text-anchor="middle" x="398.5" y="-621.5" font-family="Helvetica,sans-Serif" font-size="10.00"> </text>
<polyline fill="none" stroke="#bfbfbf" points="384,-614.5 413,-614.5 "/>
<text text-anchor="middle" x="398.5" y="-602.5" font-family="Helvetica,sans-Serif" font-size="10.00"> </text>
</g>
<!-- Node8&#45;&gt;Node2 -->
<g id="edge7" class="edge"><title>Node8&#45;&gt;Node2</title>
<path fill="none" stroke="#404040" d="M413.205,-600.427C425.206,-580.646 441.309,-550.656 448.5,-522 464.132,-459.703 465.215,-288.807 464.153,-180.113"/>
<polygon fill="none" stroke="#404040" points="464.15,-179.832 460.086,-173.875 464.021,-167.833 468.085,-173.789 464.15,-179.832"/>
<text text-anchor="middle" x="489.5" y="-318.5" font-family="Helvetica,sans-Serif" font-size="10.00"> &#45;hitPoints_</text>
<text text-anchor="middle" x="489.5" y="-307.5" font-family="Helvetica,sans-Serif" font-size="10.00">&#45;money_</text>
</g>
<!-- Node8&#45;&gt;Node4 -->
<g id="edge6" class="edge"><title>Node8&#45;&gt;Node4</title>
<path fill="none" stroke="#404040" d="M383.916,-604.862C369.19,-585.53 347.022,-553.434 335.5,-522 322.735,-487.175 315.385,-447.155 311.159,-411.739"/>
<polygon fill="none" stroke="#404040" points="311.115,-411.346 306.478,-405.824 309.791,-399.419 314.429,-404.941 311.115,-411.346"/>
<text text-anchor="middle" x="392" y="-514" font-family="Helvetica,sans-Serif" font-size="10.00"> &#45;damage_</text>
<text text-anchor="middle" x="392" y="-503" font-family="Helvetica,sans-Serif" font-size="10.00">&#45;range_</text>
<text text-anchor="middle" x="392" y="-492" font-family="Helvetica,sans-Serif" font-size="10.00">&#45;currentAmmo_</text>
<text text-anchor="middle" x="392" y="-481" font-family="Helvetica,sans-Serif" font-size="10.00">&#45;minTechLvl_</text>
<text text-anchor="middle" x="392" y="-470" font-family="Helvetica,sans-Serif" font-size="10.00">&#45;price_</text>
<text text-anchor="start" x="335.5" y="-459" font-family="Helvetica,sans-Serif" font-size="10.00">&#45;maximumAmmoCapacity</text>
<text text-anchor="middle" x="392" y="-448" font-family="Helvetica,sans-Serif" font-size="10.00">_</text>
<text text-anchor="middle" x="392" y="-437" font-family="Helvetica,sans-Serif" font-size="10.00">&#45;rate_</text>
<text text-anchor="middle" x="392" y="-426" font-family="Helvetica,sans-Serif" font-size="10.00">&#45;upgradeLevel_</text>
</g>
<!-- Node9 -->
<g id="node8" class="node"><title>Node9</title>
<polygon fill="white" stroke="#bfbfbf" points="531,-287 531,-344 566,-344 566,-287 531,-287"/>
<text text-anchor="middle" x="548.5" y="-332" font-family="Helvetica,sans-Serif" font-size="10.00">bool</text>
<polyline fill="none" stroke="#bfbfbf" points="531,-325 566,-325 "/>
<text text-anchor="middle" x="548.5" y="-313" font-family="Helvetica,sans-Serif" font-size="10.00"> </text>
<polyline fill="none" stroke="#bfbfbf" points="531,-306 566,-306 "/>
<text text-anchor="middle" x="548.5" y="-294" font-family="Helvetica,sans-Serif" font-size="10.00"> </text>
</g>
<!-- Node9&#45;&gt;Node2 -->
<g id="edge8" class="edge"><title>Node9&#45;&gt;Node2</title>
<path fill="none" stroke="#404040" d="M538.687,-286.945C532.422,-269.456 524.081,-246.365 516.5,-226 510.834,-210.779 504.747,-194.665 498.776,-178.984"/>
<polygon fill="none" stroke="#404040" points="498.733,-178.872 492.857,-174.692 494.455,-167.661 500.331,-171.841 498.733,-178.872"/>
<text text-anchor="middle" x="525" y="-194.5" font-family="Helvetica,sans-Serif" font-size="10.00"> &#45;alive_</text>
</g>
<!-- Node10 -->
<g id="node9" class="node"><title>Node10</title>
<polygon fill="white" stroke="#bfbfbf" points="584,-276 584,-355 715,-355 715,-276 584,-276"/>
<text text-anchor="start" x="592" y="-343" font-family="Helvetica,sans-Serif" font-size="10.00">vector&lt; std::shared</text>
<text text-anchor="start" x="592" y="-332" font-family="Helvetica,sans-Serif" font-size="10.00">_ptr&lt; Interface::Equipment</text>
<text text-anchor="middle" x="649.5" y="-321" font-family="Helvetica,sans-Serif" font-size="10.00">Interface &gt; &gt;</text>
<polyline fill="none" stroke="#bfbfbf" points="584,-314 715,-314 "/>
<text text-anchor="middle" x="649.5" y="-302" font-family="Helvetica,sans-Serif" font-size="10.00"> </text>
<polyline fill="none" stroke="#bfbfbf" points="584,-295 715,-295 "/>
<text text-anchor="middle" x="649.5" y="-283" font-family="Helvetica,sans-Serif" font-size="10.00"> </text>
</g>
<!-- Node10&#45;&gt;Node2 -->
<g id="edge9" class="edge"><title>Node10&#45;&gt;Node2</title>
<path fill="none" stroke="#404040" d="M617.989,-275.828C592.849,-244.973 556.825,-200.763 525.782,-162.664"/>
<polygon fill="none" stroke="#404040" points="525.586,-162.424 518.695,-160.299 518.006,-153.121 524.897,-155.246 525.586,-162.424"/>
<text text-anchor="middle" x="588.5" y="-194.5" font-family="Helvetica,sans-Serif" font-size="10.00"> &#45;upgrades_</text>
</g>
</g>
</svg>
        <g id="navigator" transform="translate(0 0)" fill="#404254">
                <rect fill="#f2f5e9" fill-opacity="0.5" stroke="#606060" stroke-width=".5" x="0" y="0" width="60" height="60"/>
                <use id="zoomplus" xlink:href="#zoomPlus" x="17" y="9" onmousedown="handleZoom(evt,'in')"/>
                <use id="zoomminus" xlink:href="#zoomMin" x="42" y="9" onmousedown="handleZoom(evt,'out')"/>
                <use id="reset" xlink:href="#resetDef" x="30" y="36" onmousedown="handleReset()"/>
                <g id="arrowUp" xlink:href="#dirArrow" transform="translate(30 24)" onmousedown="handlePan(0,-1)">
                  <use xlink:href="#rim" fill="#404040">
                        <set attributeName="fill" to="#808080" begin="arrowUp.mouseover" end="arrowUp.mouseout"/>
                  </use>
                  <path fill="none" stroke="white" stroke-width="1.5" d="M0,-3.0v7 M-2.5,-0.5L0,-3.0L2.5,-0.5"/>
                </g>
                <g id="arrowRight" xlink:href="#dirArrow" transform="rotate(90) translate(36 -43)" onmousedown="handlePan(1,0)">
                  <use xlink:href="#rim" fill="#404040">
                        <set attributeName="fill" to="#808080" begin="arrowRight.mouseover" end="arrowRight.mouseout"/>
                  </use>
                  <path fill="none" stroke="white" stroke-width="1.5" d="M0,-3.0v7 M-2.5,-0.5L0,-3.0L2.5,-0.5"/>
                </g>
                <g id="arrowDown" xlink:href="#dirArrow" transform="rotate(180) translate(-30 -48)" onmousedown="handlePan(0,1)">
                  <use xlink:href="#rim" fill="#404040">
                        <set attributeName="fill" to="#808080" begin="arrowDown.mouseover" end="arrowDown.mouseout"/>
                  </use>
                  <path fill="none" stroke="white" stroke-width="1.5" d="M0,-3.0v7 M-2.5,-0.5L0,-3.0L2.5,-0.5"/>
                </g>
                <g id="arrowLeft" xlink:href="#dirArrow" transform="rotate(270) translate(-36 17)" onmousedown="handlePan(-1,0)">
                  <use xlink:href="#rim" fill="#404040">
                        <set attributeName="fill" to="#808080" begin="arrowLeft.mouseover" end="arrowLeft.mouseout"/>
                  </use>
                  <path fill="none" stroke="white" stroke-width="1.5" d="M0,-3.0v7 M-2.5,-0.5L0,-3.0L2.5,-0.5"/>
                </g>
        </g>
        <svg viewBox="0 0 15 15" width="100%" height="30px" preserveAspectRatio="xMaxYMin meet">
         <g id="arrow_out" transform="scale(0.3 0.3)">
          <a xlink:href="class_model_1_1_cyber_teekkari__coll__graph_org.svg" target="_base">
           <rect id="button" ry="5" rx="5" y="6" x="6" height="38" width="38"
                fill="#f2f5e9" fill-opacity="0.5" stroke="#606060" stroke-width="1.0"/>
           <path id="arrow"
             d="M 11.500037,31.436501 C 11.940474,20.09759 22.043105,11.32322 32.158766,21.979434 L 37.068811,17.246167 C 37.068811,17.246167 37.088388,32 37.088388,32 L 22.160133,31.978069 C 22.160133,31.978069 26.997745,27.140456 26.997745,27.140456 C 18.528582,18.264221 13.291696,25.230495 11.500037,31.436501 z"
             style="fill:#404040;"/>
          </a>
         </g>
        </svg>
</svg>
