<?xml version="1.0" encoding="UTF-8" standalone="no"?>
<!DOCTYPE svg PUBLIC "-//W3C//DTD SVG 1.1//EN"
 "http://www.w3.org/Graphics/SVG/1.1/DTD/svg11.dtd">
<!-- Generated by graphviz version 2.38.0 (20140413.2041)
 -->
<!-- Title: View::CityScapeParkingHall Pages: 1 -->
<!--zoomable 485 -->
<svg id="main" version="1.1" xmlns="http://www.w3.org/2000/svg" xmlns:xlink="http://www.w3.org/1999/xlink" xml:space="preserve" onload="init(evt)">
<style type="text/css"><![CDATA[
.edge:hover path { stroke: red; }
.edge:hover polygon { stroke: red; fill: red; }
]]></style>
<script type="text/javascript"><![CDATA[
var edges = document.getElementsByTagName('g');
if (edges && edges.length) {
  for (var i=0;i<edges.length;i++) {
    if (edges[i].id.substr(0,4)=='edge') {
      edges[i].setAttribute('class','edge');
    }
  }
}
]]></script>
        <defs>
                <circle id="rim" cx="0" cy="0" r="7"/>
                <circle id="rim2" cx="0" cy="0" r="3.5"/>
                <g id="zoomPlus">
                        <use xlink:href="#rim" fill="#404040">
                                <set attributeName="fill" to="#808080" begin="zoomplus.mouseover" end="zoomplus.mouseout"/>
                        </use>
                        <path d="M-4,0h8M0,-4v8" fill="none" stroke="white" stroke-width="1.5" pointer-events="none"/>
                </g>
                <g id="zoomMin">
                        <use xlink:href="#rim" fill="#404040">
                                <set attributeName="fill" to="#808080" begin="zoomminus.mouseover" end="zoomminus.mouseout"/>
                        </use>
                        <path d="M-4,0h8" fill="none" stroke="white" stroke-width="1.5" pointer-events="none"/>
                </g>
                <g id="dirArrow">
                        <path fill="none" stroke="white" stroke-width="1.5" d="M0,-3.0v7 M-2.5,-0.5L0,-3.0L2.5,-0.5"/>
                </g>
               <g id="resetDef">
                       <use xlink:href="#rim2" fill="#404040">
                               <set attributeName="fill" to="#808080" begin="reset.mouseover" end="reset.mouseout"/>
                       </use>
               </g>
        </defs>

<script type="text/javascript">
var viewWidth = 718;
var viewHeight = 485;
var sectionId = 'dynsection-1';
</script>
<script xlink:href="svgpan.js"/>
<svg id="graph" class="graph">
<g id="viewport">
<title>View::CityScapeParkingHall</title>
<polygon fill="white" stroke="none" points="-4,4 -4,-481 713.5,-481 713.5,4 -4,4"/>
<!-- Node3 -->
<g id="node1" class="node"><title>Node3</title>
<polygon fill="#bfbfbf" stroke="black" points="327.5,-0.5 327.5,-156.5 465.5,-156.5 465.5,-0.5 327.5,-0.5"/>
<text text-anchor="middle" x="396.5" y="-144.5" font-family="Helvetica,sans-Serif" font-size="10.00">View::CityScapeParkingHall</text>
<polyline fill="none" stroke="black" points="327.5,-137.5 465.5,-137.5 "/>
<text text-anchor="middle" x="396.5" y="-125.5" font-family="Helvetica,sans-Serif" font-size="10.00"> </text>
<polyline fill="none" stroke="black" points="327.5,-118.5 465.5,-118.5 "/>
<text text-anchor="start" x="335.5" y="-106.5" font-family="Helvetica,sans-Serif" font-size="10.00">+ CityScapeParkingHall()</text>
<text text-anchor="start" x="335.5" y="-95.5" font-family="Helvetica,sans-Serif" font-size="10.00">+ ~CityScapeParkingHall()</text>
<text text-anchor="start" x="335.5" y="-84.5" font-family="Helvetica,sans-Serif" font-size="10.00">+ getId()</text>
<text text-anchor="start" x="335.5" y="-73.5" font-family="Helvetica,sans-Serif" font-size="10.00">+ getX()</text>
<text text-anchor="start" x="335.5" y="-62.5" font-family="Helvetica,sans-Serif" font-size="10.00">+ getY()</text>
<text text-anchor="start" x="335.5" y="-51.5" font-family="Helvetica,sans-Serif" font-size="10.00">+ hoverEnterEvent()</text>
<text text-anchor="start" x="335.5" y="-40.5" font-family="Helvetica,sans-Serif" font-size="10.00">+ hoverLeaveEvent()</text>
<text text-anchor="start" x="335.5" y="-29.5" font-family="Helvetica,sans-Serif" font-size="10.00">+ mousePressEvent()</text>
<text text-anchor="start" x="335.5" y="-18.5" font-family="Helvetica,sans-Serif" font-size="10.00">+ setSelectionState()</text>
<text text-anchor="start" x="335.5" y="-7.5" font-family="Helvetica,sans-Serif" font-size="10.00">+ updateStatusDisplay()</text>
</g>
<!-- Node4 -->
<g id="node2" class="node"><title>Node4</title>
<g id="a_node2"><a xlink:href="class_q_object.html" target="_top" xlink:title="{QObject\n||}">
<polygon fill="white" stroke="black" points="0,-276 0,-333 53,-333 53,-276 0,-276"/>
<text text-anchor="middle" x="26.5" y="-321" font-family="Helvetica,sans-Serif" font-size="10.00">QObject</text>
<polyline fill="none" stroke="black" points="0,-314 53,-314 "/>
<text text-anchor="middle" x="26.5" y="-302" font-family="Helvetica,sans-Serif" font-size="10.00"> </text>
<polyline fill="none" stroke="black" points="0,-295 53,-295 "/>
<text text-anchor="middle" x="26.5" y="-283" font-family="Helvetica,sans-Serif" font-size="10.00"> </text>
</a>
</g>
</g>
<!-- Node4&#45;&gt;Node3 -->
<g id="edge1" class="edge"><title>Node4&#45;&gt;Node3</title>
<path fill="none" stroke="midnightblue" d="M40.4993,-266.818C45.8576,-256.225 52.8203,-245.298 61.5,-237 137.685,-164.168 253.742,-120.014 327.319,-97.6845"/>
<polygon fill="none" stroke="midnightblue" points="37.2856,-265.427 36.2007,-275.967 43.6211,-268.404 37.2856,-265.427"/>
</g>
<!-- Node5 -->
<g id="node3" class="node"><title>Node5</title>
<g id="a_node3"><a xlink:href="class_q_graphics_pixmap_item.html" target="_top" xlink:title="{QGraphicsPixmapItem\n||}">
<polygon fill="white" stroke="black" points="71,-276 71,-333 186,-333 186,-276 71,-276"/>
<text text-anchor="middle" x="128.5" y="-321" font-family="Helvetica,sans-Serif" font-size="10.00">QGraphicsPixmapItem</text>
<polyline fill="none" stroke="black" points="71,-314 186,-314 "/>
<text text-anchor="middle" x="128.5" y="-302" font-family="Helvetica,sans-Serif" font-size="10.00"> </text>
<polyline fill="none" stroke="black" points="71,-295 186,-295 "/>
<text text-anchor="middle" x="128.5" y="-283" font-family="Helvetica,sans-Serif" font-size="10.00"> </text>
</a>
</g>
</g>
<!-- Node5&#45;&gt;Node3 -->
<g id="edge2" class="edge"><title>Node5&#45;&gt;Node3</title>
<path fill="none" stroke="midnightblue" d="M161.635,-268.453C171.905,-258.049 183.436,-246.816 194.5,-237 237.079,-199.223 287.579,-159.848 327.434,-129.918"/>
<polygon fill="none" stroke="midnightblue" points="158.891,-266.253 154.404,-275.851 163.897,-271.146 158.891,-266.253"/>
</g>
<!-- Node6 -->
<g id="node4" class="node"><title>Node6</title>
<g id="a_node4"><a xlink:href="class_view_1_1_city_scape_status_display.html" target="_top" xlink:title="{View::CityScapeStatusDisplay\n||+ CityScapeStatusDisplay()\l+ ~CityScapeStatusDisplay()\l+ setFieldValues()\l+ getName()\l+ getParkedCars()\l+ getParkingSpaces()\l+ getEnemyActivity()\l+ getWorth()\l}">
<polygon fill="white" stroke="black" points="204,-237.5 204,-371.5 353,-371.5 353,-237.5 204,-237.5"/>
<text text-anchor="middle" x="278.5" y="-359.5" font-family="Helvetica,sans-Serif" font-size="10.00">View::CityScapeStatusDisplay</text>
<polyline fill="none" stroke="black" points="204,-352.5 353,-352.5 "/>
<text text-anchor="middle" x="278.5" y="-340.5" font-family="Helvetica,sans-Serif" font-size="10.00"> </text>
<polyline fill="none" stroke="black" points="204,-333.5 353,-333.5 "/>
<text text-anchor="start" x="212" y="-321.5" font-family="Helvetica,sans-Serif" font-size="10.00">+ CityScapeStatusDisplay()</text>
<text text-anchor="start" x="212" y="-310.5" font-family="Helvetica,sans-Serif" font-size="10.00">+ ~CityScapeStatusDisplay()</text>
<text text-anchor="start" x="212" y="-299.5" font-family="Helvetica,sans-Serif" font-size="10.00">+ setFieldValues()</text>
<text text-anchor="start" x="212" y="-288.5" font-family="Helvetica,sans-Serif" font-size="10.00">+ getName()</text>
<text text-anchor="start" x="212" y="-277.5" font-family="Helvetica,sans-Serif" font-size="10.00">+ getParkedCars()</text>
<text text-anchor="start" x="212" y="-266.5" font-family="Helvetica,sans-Serif" font-size="10.00">+ getParkingSpaces()</text>
<text text-anchor="start" x="212" y="-255.5" font-family="Helvetica,sans-Serif" font-size="10.00">+ getEnemyActivity()</text>
<text text-anchor="start" x="212" y="-244.5" font-family="Helvetica,sans-Serif" font-size="10.00">+ getWorth()</text>
</a>
</g>
</g>
<!-- Node6&#45;&gt;Node3 -->
<g id="edge3" class="edge"><title>Node6&#45;&gt;Node3</title>
<path fill="none" stroke="#404040" d="M313.425,-237.202C324.924,-215.373 337.896,-190.749 350.111,-167.561"/>
<polygon fill="none" stroke="#404040" points="350.256,-167.286 349.513,-160.113 355.849,-156.669 356.591,-163.842 350.256,-167.286"/>
<text text-anchor="middle" x="367" y="-194.5" font-family="Helvetica,sans-Serif" font-size="10.00"> &#45;display_</text>
</g>
<!-- Node7 -->
<g id="node5" class="node"><title>Node7</title>
<g id="a_node5"><a xlink:href="class_q_widget.html" target="_top" xlink:title="{QWidget\n||}">
<polygon fill="white" stroke="black" points="196,-419.5 196,-476.5 251,-476.5 251,-419.5 196,-419.5"/>
<text text-anchor="middle" x="223.5" y="-464.5" font-family="Helvetica,sans-Serif" font-size="10.00">QWidget</text>
<polyline fill="none" stroke="black" points="196,-457.5 251,-457.5 "/>
<text text-anchor="middle" x="223.5" y="-445.5" font-family="Helvetica,sans-Serif" font-size="10.00"> </text>
<polyline fill="none" stroke="black" points="196,-438.5 251,-438.5 "/>
<text text-anchor="middle" x="223.5" y="-426.5" font-family="Helvetica,sans-Serif" font-size="10.00"> </text>
</a>
</g>
</g>
<!-- Node7&#45;&gt;Node6 -->
<g id="edge4" class="edge"><title>Node7&#45;&gt;Node6</title>
<path fill="none" stroke="midnightblue" d="M237.901,-409.95C242.459,-398.223 247.644,-384.884 252.748,-371.753"/>
<polygon fill="none" stroke="midnightblue" points="234.596,-408.793 234.235,-419.381 241.12,-411.329 234.596,-408.793"/>
</g>
<!-- Node8 -->
<g id="node6" class="node"><title>Node8</title>
<polygon fill="white" stroke="#bfbfbf" points="269,-419.5 269,-476.5 398,-476.5 398,-419.5 269,-419.5"/>
<text text-anchor="middle" x="333.5" y="-464.5" font-family="Helvetica,sans-Serif" font-size="10.00">CityScapeStatusDisplay *</text>
<polyline fill="none" stroke="#bfbfbf" points="269,-457.5 398,-457.5 "/>
<text text-anchor="middle" x="333.5" y="-445.5" font-family="Helvetica,sans-Serif" font-size="10.00"> </text>
<polyline fill="none" stroke="#bfbfbf" points="269,-438.5 398,-438.5 "/>
<text text-anchor="middle" x="333.5" y="-426.5" font-family="Helvetica,sans-Serif" font-size="10.00"> </text>
</g>
<!-- Node8&#45;&gt;Node6 -->
<g id="edge5" class="edge"><title>Node8&#45;&gt;Node6</title>
<path fill="none" stroke="#404040" d="M322.765,-419.381C318.654,-408.806 313.736,-396.153 308.696,-383.185"/>
<polygon fill="none" stroke="#404040" points="308.599,-382.937 302.697,-378.794 304.252,-371.753 310.154,-375.896 308.599,-382.937"/>
<text text-anchor="middle" x="321.5" y="-393" font-family="Helvetica,sans-Serif" font-size="10.00"> &#45;ui</text>
</g>
<!-- Node9 -->
<g id="node7" class="node"><title>Node9</title>
<polygon fill="white" stroke="#bfbfbf" points="371.5,-276 371.5,-333 421.5,-333 421.5,-276 371.5,-276"/>
<text text-anchor="middle" x="396.5" y="-321" font-family="Helvetica,sans-Serif" font-size="10.00">QString</text>
<polyline fill="none" stroke="#bfbfbf" points="371.5,-314 421.5,-314 "/>
<text text-anchor="middle" x="396.5" y="-302" font-family="Helvetica,sans-Serif" font-size="10.00"> </text>
<polyline fill="none" stroke="#bfbfbf" points="371.5,-295 421.5,-295 "/>
<text text-anchor="middle" x="396.5" y="-283" font-family="Helvetica,sans-Serif" font-size="10.00"> </text>
</g>
<!-- Node9&#45;&gt;Node3 -->
<g id="edge6" class="edge"><title>Node9&#45;&gt;Node3</title>
<path fill="none" stroke="#404040" d="M396.5,-275.583C396.5,-248.915 396.5,-207.258 396.5,-169.187"/>
<polygon fill="none" stroke="#404040" points="396.5,-168.975 392.5,-162.975 396.5,-156.975 400.5,-162.975 396.5,-168.975"/>
<text text-anchor="middle" x="406" y="-194.5" font-family="Helvetica,sans-Serif" font-size="10.00"> &#45;id_</text>
</g>
<!-- Node10 -->
<g id="node8" class="node"><title>Node10</title>
<polygon fill="white" stroke="#bfbfbf" points="440,-276 440,-333 469,-333 469,-276 440,-276"/>
<text text-anchor="middle" x="454.5" y="-321" font-family="Helvetica,sans-Serif" font-size="10.00">int</text>
<polyline fill="none" stroke="#bfbfbf" points="440,-314 469,-314 "/>
<text text-anchor="middle" x="454.5" y="-302" font-family="Helvetica,sans-Serif" font-size="10.00"> </text>
<polyline fill="none" stroke="#bfbfbf" points="440,-295 469,-295 "/>
<text text-anchor="middle" x="454.5" y="-283" font-family="Helvetica,sans-Serif" font-size="10.00"> </text>
</g>
<!-- Node10&#45;&gt;Node3 -->
<g id="edge7" class="edge"><title>Node10&#45;&gt;Node3</title>
<path fill="none" stroke="#404040" d="M447.272,-275.583C440.336,-248.799 429.487,-206.897 419.594,-168.692"/>
<polygon fill="none" stroke="#404040" points="419.569,-168.592 414.192,-163.786 416.561,-156.975 421.937,-161.781 419.569,-168.592"/>
<text text-anchor="middle" x="458" y="-200" font-family="Helvetica,sans-Serif" font-size="10.00"> &#45;latitude_</text>
<text text-anchor="middle" x="458" y="-189" font-family="Helvetica,sans-Serif" font-size="10.00">&#45;longtitude_</text>
</g>
<!-- Node11 -->
<g id="node9" class="node"><title>Node11</title>
<polygon fill="white" stroke="#bfbfbf" points="487.5,-276 487.5,-333 613.5,-333 613.5,-276 487.5,-276"/>
<text text-anchor="middle" x="550.5" y="-321" font-family="Helvetica,sans-Serif" font-size="10.00">QGraphicsProxyWidget *</text>
<polyline fill="none" stroke="#bfbfbf" points="487.5,-314 613.5,-314 "/>
<text text-anchor="middle" x="550.5" y="-302" font-family="Helvetica,sans-Serif" font-size="10.00"> </text>
<polyline fill="none" stroke="#bfbfbf" points="487.5,-295 613.5,-295 "/>
<text text-anchor="middle" x="550.5" y="-283" font-family="Helvetica,sans-Serif" font-size="10.00"> </text>
</g>
<!-- Node11&#45;&gt;Node3 -->
<g id="edge8" class="edge"><title>Node11&#45;&gt;Node3</title>
<path fill="none" stroke="#404040" d="M539.843,-275.84C528.799,-248.87 510.013,-207.311 487.5,-175 483.204,-168.834 478.514,-162.68 473.602,-156.636"/>
<polygon fill="none" stroke="#404040" points="473.436,-156.438 466.516,-154.411 465.725,-147.243 472.646,-149.27 473.436,-156.438"/>
<text text-anchor="middle" x="548.5" y="-194.5" font-family="Helvetica,sans-Serif" font-size="10.00"> &#45;displayProxy_</text>
</g>
<!-- Node12 -->
<g id="node10" class="node"><title>Node12</title>
<polygon fill="white" stroke="#bfbfbf" points="632,-276 632,-333 667,-333 667,-276 632,-276"/>
<text text-anchor="middle" x="649.5" y="-321" font-family="Helvetica,sans-Serif" font-size="10.00">bool</text>
<polyline fill="none" stroke="#bfbfbf" points="632,-314 667,-314 "/>
<text text-anchor="middle" x="649.5" y="-302" font-family="Helvetica,sans-Serif" font-size="10.00"> </text>
<polyline fill="none" stroke="#bfbfbf" points="632,-295 667,-295 "/>
<text text-anchor="middle" x="649.5" y="-283" font-family="Helvetica,sans-Serif" font-size="10.00"> </text>
</g>
<!-- Node12&#45;&gt;Node3 -->
<g id="edge9" class="edge"><title>Node12&#45;&gt;Node3</title>
<path fill="none" stroke="#404040" d="M642.273,-275.937C633.465,-247.265 615.988,-202.761 586.5,-175 555.318,-145.645 513.384,-123.284 476.844,-107.607"/>
<polygon fill="none" stroke="#404040" points="476.77,-107.576 469.692,-108.958 465.695,-102.956 472.772,-101.574 476.77,-107.576"/>
<text text-anchor="middle" x="664.5" y="-211" font-family="Helvetica,sans-Serif" font-size="10.00"> &#45;isPlayerOwned_</text>
<text text-anchor="start" x="619.5" y="-200" font-family="Helvetica,sans-Serif" font-size="10.00">&#45;deSelectionEnabled</text>
<text text-anchor="middle" x="664.5" y="-189" font-family="Helvetica,sans-Serif" font-size="10.00">_</text>
<text text-anchor="middle" x="664.5" y="-178" font-family="Helvetica,sans-Serif" font-size="10.00">&#45;selected_</text>
</g>
</g>
</svg>
        <g id="navigator" transform="translate(0 0)" fill="#404254">
                <rect fill="#f2f5e9" fill-opacity="0.5" stroke="#606060" stroke-width=".5" x="0" y="0" width="60" height="60"/>
                <use id="zoomplus" xlink:href="#zoomPlus" x="17" y="9" onmousedown="handleZoom(evt,'in')"/>
                <use id="zoomminus" xlink:href="#zoomMin" x="42" y="9" onmousedown="handleZoom(evt,'out')"/>
                <use id="reset" xlink:href="#resetDef" x="30" y="36" onmousedown="handleReset()"/>
                <g id="arrowUp" xlink:href="#dirArrow" transform="translate(30 24)" onmousedown="handlePan(0,-1)">
                  <use xlink:href="#rim" fill="#404040">
                        <set attributeName="fill" to="#808080" begin="arrowUp.mouseover" end="arrowUp.mouseout"/>
                  </use>
                  <path fill="none" stroke="white" stroke-width="1.5" d="M0,-3.0v7 M-2.5,-0.5L0,-3.0L2.5,-0.5"/>
                </g>
                <g id="arrowRight" xlink:href="#dirArrow" transform="rotate(90) translate(36 -43)" onmousedown="handlePan(1,0)">
                  <use xlink:href="#rim" fill="#404040">
                        <set attributeName="fill" to="#808080" begin="arrowRight.mouseover" end="arrowRight.mouseout"/>
                  </use>
                  <path fill="none" stroke="white" stroke-width="1.5" d="M0,-3.0v7 M-2.5,-0.5L0,-3.0L2.5,-0.5"/>
                </g>
                <g id="arrowDown" xlink:href="#dirArrow" transform="rotate(180) translate(-30 -48)" onmousedown="handlePan(0,1)">
                  <use xlink:href="#rim" fill="#404040">
                        <set attributeName="fill" to="#808080" begin="arrowDown.mouseover" end="arrowDown.mouseout"/>
                  </use>
                  <path fill="none" stroke="white" stroke-width="1.5" d="M0,-3.0v7 M-2.5,-0.5L0,-3.0L2.5,-0.5"/>
                </g>
                <g id="arrowLeft" xlink:href="#dirArrow" transform="rotate(270) translate(-36 17)" onmousedown="handlePan(-1,0)">
                  <use xlink:href="#rim" fill="#404040">
                        <set attributeName="fill" to="#808080" begin="arrowLeft.mouseover" end="arrowLeft.mouseout"/>
                  </use>
                  <path fill="none" stroke="white" stroke-width="1.5" d="M0,-3.0v7 M-2.5,-0.5L0,-3.0L2.5,-0.5"/>
                </g>
        </g>
        <svg viewBox="0 0 15 15" width="100%" height="30px" preserveAspectRatio="xMaxYMin meet">
         <g id="arrow_out" transform="scale(0.3 0.3)">
          <a xlink:href="class_view_1_1_city_scape_parking_hall__coll__graph_org.svg" target="_base">
           <rect id="button" ry="5" rx="5" y="6" x="6" height="38" width="38"
                fill="#f2f5e9" fill-opacity="0.5" stroke="#606060" stroke-width="1.0"/>
           <path id="arrow"
             d="M 11.500037,31.436501 C 11.940474,20.09759 22.043105,11.32322 32.158766,21.979434 L 37.068811,17.246167 C 37.068811,17.246167 37.088388,32 37.088388,32 L 22.160133,31.978069 C 22.160133,31.978069 26.997745,27.140456 26.997745,27.140456 C 18.528582,18.264221 13.291696,25.230495 11.500037,31.436501 z"
             style="fill:#404040;"/>
          </a>
         </g>
        </svg>
</svg>
