<?xml version="1.0" encoding="UTF-8" standalone="no"?>
<!DOCTYPE svg PUBLIC "-//W3C//DTD SVG 1.1//EN"
 "http://www.w3.org/Graphics/SVG/1.1/DTD/svg11.dtd">
<!-- Generated by graphviz version 2.38.0 (20140413.2041)
 -->
<!-- Title: Model::XmlParkingDataReader::readName Pages: 1 -->
<svg width="527pt" height="39pt"
 viewBox="0.00 0.00 527.00 39.00" xmlns="http://www.w3.org/2000/svg" xmlns:xlink="http://www.w3.org/1999/xlink">
<g id="graph0" class="graph" transform="scale(1 1) rotate(0) translate(4 35)">
<title>Model::XmlParkingDataReader::readName</title>
<polygon fill="white" stroke="none" points="-4,4 -4,-35 523,-35 523,4 -4,4"/>
<!-- Node33 -->
<g id="node1" class="node"><title>Node33</title>
<polygon fill="#bfbfbf" stroke="black" points="0,-0.5 0,-30.5 149,-30.5 149,-0.5 0,-0.5"/>
<text text-anchor="start" x="8" y="-18.5" font-family="Helvetica,sans-Serif" font-size="10.00">Model::XmlParkingDataReader</text>
<text text-anchor="middle" x="74.5" y="-7.5" font-family="Helvetica,sans-Serif" font-size="10.00">::readName</text>
</g>
<!-- Node34 -->
<g id="node2" class="node"><title>Node34</title>
<g id="a_node2"><a xlink:href="class_model_1_1_xml_parking_data_reader.html#abe911a1e93429b10377b24c8ed6c6b49" target="_top" xlink:title="Model::XmlParkingDataReader\l::readParkingFacility">
<polygon fill="white" stroke="black" points="185,-0.5 185,-30.5 334,-30.5 334,-0.5 185,-0.5"/>
<text text-anchor="start" x="193" y="-18.5" font-family="Helvetica,sans-Serif" font-size="10.00">Model::XmlParkingDataReader</text>
<text text-anchor="middle" x="259.5" y="-7.5" font-family="Helvetica,sans-Serif" font-size="10.00">::readParkingFacility</text>
</a>
</g>
</g>
<!-- Node33&#45;&gt;Node34 -->
<g id="edge1" class="edge"><title>Node33&#45;&gt;Node34</title>
<path fill="none" stroke="midnightblue" d="M159.387,-15.5C167.838,-15.5 176.376,-15.5 184.711,-15.5"/>
<polygon fill="midnightblue" stroke="midnightblue" points="159.142,-12.0001 149.142,-15.5 159.142,-19.0001 159.142,-12.0001"/>
</g>
<!-- Node35 -->
<g id="node3" class="node"><title>Node35</title>
<g id="a_node3"><a xlink:href="class_model_1_1_xml_parking_data_reader.html#a958856af3d12a7d30f717591ff178a50" target="_top" xlink:title="Model::XmlParkingDataReader\l::read">
<polygon fill="white" stroke="black" points="370,-0.5 370,-30.5 519,-30.5 519,-0.5 370,-0.5"/>
<text text-anchor="start" x="378" y="-18.5" font-family="Helvetica,sans-Serif" font-size="10.00">Model::XmlParkingDataReader</text>
<text text-anchor="middle" x="444.5" y="-7.5" font-family="Helvetica,sans-Serif" font-size="10.00">::read</text>
</a>
</g>
</g>
<!-- Node34&#45;&gt;Node35 -->
<g id="edge2" class="edge"><title>Node34&#45;&gt;Node35</title>
<path fill="none" stroke="midnightblue" d="M344.387,-15.5C352.838,-15.5 361.376,-15.5 369.711,-15.5"/>
<polygon fill="midnightblue" stroke="midnightblue" points="344.142,-12.0001 334.142,-15.5 344.142,-19.0001 344.142,-12.0001"/>
</g>
</g>
</svg>
