<?xml version="1.0" encoding="UTF-8" standalone="no"?>
<!DOCTYPE svg PUBLIC "-//W3C//DTD SVG 1.1//EN"
 "http://www.w3.org/Graphics/SVG/1.1/DTD/svg11.dtd">
<!-- Generated by graphviz version 2.38.0 (20140413.2041)
 -->
<!-- Title: View::CityScapeParkingHall::updateStatusDisplay Pages: 1 -->
<svg width="331pt" height="284pt"
 viewBox="0.00 0.00 331.00 284.00" xmlns="http://www.w3.org/2000/svg" xmlns:xlink="http://www.w3.org/1999/xlink">
<g id="graph0" class="graph" transform="scale(1 1) rotate(0) translate(4 280)">
<title>View::CityScapeParkingHall::updateStatusDisplay</title>
<polygon fill="white" stroke="none" points="-4,4 -4,-280 327,-280 327,4 -4,4"/>
<!-- Node43 -->
<g id="node1" class="node"><title>Node43</title>
<polygon fill="#bfbfbf" stroke="black" points="0,-122.5 0,-152.5 138,-152.5 138,-122.5 0,-122.5"/>
<text text-anchor="start" x="8" y="-140.5" font-family="Helvetica,sans-Serif" font-size="10.00">View::CityScapeParkingHall</text>
<text text-anchor="middle" x="69" y="-129.5" font-family="Helvetica,sans-Serif" font-size="10.00">::updateStatusDisplay</text>
</g>
<!-- Node44 -->
<g id="node2" class="node"><title>Node44</title>
<g id="a_node2"><a xlink:href="class_view_1_1_city_scape_status_display.html#a7c4b61a061562d9f0b2364c95cc55609" target="_top" xlink:title="View::CityScapeStatusDisplay\l::getEnemyActivity">
<polygon fill="white" stroke="black" points="174,-245.5 174,-275.5 323,-275.5 323,-245.5 174,-245.5"/>
<text text-anchor="start" x="182" y="-263.5" font-family="Helvetica,sans-Serif" font-size="10.00">View::CityScapeStatusDisplay</text>
<text text-anchor="middle" x="248.5" y="-252.5" font-family="Helvetica,sans-Serif" font-size="10.00">::getEnemyActivity</text>
</a>
</g>
</g>
<!-- Node43&#45;&gt;Node44 -->
<g id="edge1" class="edge"><title>Node43&#45;&gt;Node44</title>
<path fill="none" stroke="midnightblue" d="M82.1678,-152.774C100.106,-174.339 135.686,-213.628 174,-236.5 176.824,-238.186 179.78,-239.769 182.818,-241.253"/>
<polygon fill="midnightblue" stroke="midnightblue" points="181.568,-244.528 192.125,-245.414 184.425,-238.137 181.568,-244.528"/>
</g>
<!-- Node45 -->
<g id="node3" class="node"><title>Node45</title>
<g id="a_node3"><a xlink:href="class_view_1_1_city_scape_status_display.html#ae6e22300979f1bb7517db2c72d338b77" target="_top" xlink:title="View::CityScapeStatusDisplay\l::getName">
<polygon fill="white" stroke="black" points="174,-196.5 174,-226.5 323,-226.5 323,-196.5 174,-196.5"/>
<text text-anchor="start" x="182" y="-214.5" font-family="Helvetica,sans-Serif" font-size="10.00">View::CityScapeStatusDisplay</text>
<text text-anchor="middle" x="248.5" y="-203.5" font-family="Helvetica,sans-Serif" font-size="10.00">::getName</text>
</a>
</g>
</g>
<!-- Node43&#45;&gt;Node45 -->
<g id="edge2" class="edge"><title>Node43&#45;&gt;Node45</title>
<path fill="none" stroke="midnightblue" d="M98.6771,-152.556C119.31,-163.074 147.973,-177.048 174,-187.5 178.706,-189.39 183.624,-191.245 188.589,-193.034"/>
<polygon fill="midnightblue" stroke="midnightblue" points="187.556,-196.38 198.151,-196.385 189.871,-189.774 187.556,-196.38"/>
</g>
<!-- Node46 -->
<g id="node4" class="node"><title>Node46</title>
<g id="a_node4"><a xlink:href="class_view_1_1_city_scape_status_display.html#a0a2b02d8b7d878ba822822f4d71f40d6" target="_top" xlink:title="View::CityScapeStatusDisplay\l::getParkedCars">
<polygon fill="white" stroke="black" points="174,-147.5 174,-177.5 323,-177.5 323,-147.5 174,-147.5"/>
<text text-anchor="start" x="182" y="-165.5" font-family="Helvetica,sans-Serif" font-size="10.00">View::CityScapeStatusDisplay</text>
<text text-anchor="middle" x="248.5" y="-154.5" font-family="Helvetica,sans-Serif" font-size="10.00">::getParkedCars</text>
</a>
</g>
</g>
<!-- Node43&#45;&gt;Node46 -->
<g id="edge3" class="edge"><title>Node43&#45;&gt;Node46</title>
<path fill="none" stroke="midnightblue" d="M138.118,-147.094C146.551,-148.282 155.246,-149.506 163.877,-150.722"/>
<polygon fill="midnightblue" stroke="midnightblue" points="163.568,-154.213 173.959,-152.142 164.544,-147.281 163.568,-154.213"/>
</g>
<!-- Node47 -->
<g id="node5" class="node"><title>Node47</title>
<g id="a_node5"><a xlink:href="class_view_1_1_city_scape_status_display.html#ad8a0b28cc0ebb4c212c0fb3c9c8a3a9c" target="_top" xlink:title="View::CityScapeStatusDisplay\l::getParkingSpaces">
<polygon fill="white" stroke="black" points="174,-98.5 174,-128.5 323,-128.5 323,-98.5 174,-98.5"/>
<text text-anchor="start" x="182" y="-116.5" font-family="Helvetica,sans-Serif" font-size="10.00">View::CityScapeStatusDisplay</text>
<text text-anchor="middle" x="248.5" y="-105.5" font-family="Helvetica,sans-Serif" font-size="10.00">::getParkingSpaces</text>
</a>
</g>
</g>
<!-- Node43&#45;&gt;Node47 -->
<g id="edge4" class="edge"><title>Node43&#45;&gt;Node47</title>
<path fill="none" stroke="midnightblue" d="M138.118,-128.29C146.551,-127.149 155.246,-125.974 163.877,-124.807"/>
<polygon fill="midnightblue" stroke="midnightblue" points="164.518,-128.252 173.959,-123.444 163.58,-121.315 164.518,-128.252"/>
</g>
<!-- Node48 -->
<g id="node6" class="node"><title>Node48</title>
<g id="a_node6"><a xlink:href="class_view_1_1_city_scape_status_display.html#afaae08f29892d84518b12124292e14ab" target="_top" xlink:title="View::CityScapeStatusDisplay\l::getWorth">
<polygon fill="white" stroke="black" points="174,-49.5 174,-79.5 323,-79.5 323,-49.5 174,-49.5"/>
<text text-anchor="start" x="182" y="-67.5" font-family="Helvetica,sans-Serif" font-size="10.00">View::CityScapeStatusDisplay</text>
<text text-anchor="middle" x="248.5" y="-56.5" font-family="Helvetica,sans-Serif" font-size="10.00">::getWorth</text>
</a>
</g>
</g>
<!-- Node43&#45;&gt;Node48 -->
<g id="edge5" class="edge"><title>Node43&#45;&gt;Node48</title>
<path fill="none" stroke="midnightblue" d="M100.577,-122.362C121.104,-112.455 148.886,-99.5348 174,-89.5 179.533,-87.2894 185.346,-85.0968 191.178,-82.9819"/>
<polygon fill="midnightblue" stroke="midnightblue" points="192.712,-86.1513 200.965,-79.5067 190.37,-79.5548 192.712,-86.1513"/>
</g>
<!-- Node49 -->
<g id="node7" class="node"><title>Node49</title>
<g id="a_node7"><a xlink:href="class_view_1_1_city_scape_status_display.html#ac5685e881d2b5797c52e3dcde72c90b1" target="_top" xlink:title="View::CityScapeStatusDisplay\l::setFieldValues">
<polygon fill="white" stroke="black" points="174,-0.5 174,-30.5 323,-30.5 323,-0.5 174,-0.5"/>
<text text-anchor="start" x="182" y="-18.5" font-family="Helvetica,sans-Serif" font-size="10.00">View::CityScapeStatusDisplay</text>
<text text-anchor="middle" x="248.5" y="-7.5" font-family="Helvetica,sans-Serif" font-size="10.00">::setFieldValues</text>
</a>
</g>
</g>
<!-- Node43&#45;&gt;Node49 -->
<g id="edge6" class="edge"><title>Node43&#45;&gt;Node49</title>
<path fill="none" stroke="midnightblue" d="M82.578,-122.257C100.739,-101.147 136.288,-63.0661 174,-40.5 177.416,-38.4562 181.021,-36.5513 184.728,-34.7804"/>
<polygon fill="midnightblue" stroke="midnightblue" points="186.358,-37.8869 194.097,-30.6516 183.535,-31.4812 186.358,-37.8869"/>
</g>
</g>
</svg>
