<?xml version="1.0" encoding="UTF-8" standalone="no"?>
<!DOCTYPE svg PUBLIC "-//W3C//DTD SVG 1.1//EN"
 "http://www.w3.org/Graphics/SVG/1.1/DTD/svg11.dtd">
<!-- Generated by graphviz version 2.38.0 (20140413.2041)
 -->
<!-- Title: View::ActionScene::spawnEnemy Pages: 1 -->
<svg width="896pt" height="463pt"
 viewBox="0.00 0.00 896.00 463.00" xmlns="http://www.w3.org/2000/svg" xmlns:xlink="http://www.w3.org/1999/xlink">
<g id="graph0" class="graph" transform="scale(1 1) rotate(0) translate(4 459)">
<title>View::ActionScene::spawnEnemy</title>
<polygon fill="white" stroke="none" points="-4,4 -4,-459 892,-459 892,4 -4,4"/>
<!-- Node216 -->
<g id="node1" class="node"><title>Node216</title>
<polygon fill="#bfbfbf" stroke="black" points="0,-248.5 0,-278.5 105,-278.5 105,-248.5 0,-248.5"/>
<text text-anchor="start" x="8" y="-266.5" font-family="Helvetica,sans-Serif" font-size="10.00">View::ActionScene::</text>
<text text-anchor="middle" x="52.5" y="-255.5" font-family="Helvetica,sans-Serif" font-size="10.00">spawnEnemy</text>
</g>
<!-- Node217 -->
<g id="node2" class="node"><title>Node217</title>
<g id="a_node2"><a xlink:href="class_view_1_1_action_scene_n_p_c.html#a45581b8b064bede18865c19bc640fd7b" target="_top" xlink:title="View::ActionSceneNPC\l::addFeet">
<polygon fill="white" stroke="black" points="141,-382.5 141,-412.5 260,-412.5 260,-382.5 141,-382.5"/>
<text text-anchor="start" x="149" y="-400.5" font-family="Helvetica,sans-Serif" font-size="10.00">View::ActionSceneNPC</text>
<text text-anchor="middle" x="200.5" y="-389.5" font-family="Helvetica,sans-Serif" font-size="10.00">::addFeet</text>
</a>
</g>
</g>
<!-- Node216&#45;&gt;Node217 -->
<g id="edge1" class="edge"><title>Node216&#45;&gt;Node217</title>
<path fill="none" stroke="midnightblue" d="M69.9643,-278.611C95.7045,-302.236 145.608,-348.038 175.399,-375.38"/>
<polygon fill="midnightblue" stroke="midnightblue" points="173.138,-378.055 182.872,-382.239 177.871,-372.898 173.138,-378.055"/>
</g>
<!-- Node219 -->
<g id="node4" class="node"><title>Node219</title>
<g id="a_node4"><a xlink:href="class_view_1_1_action_scene.html#a2406dfeb3e69091ae05e23ef396d08e3" target="_top" xlink:title="View::ActionScene::\lenemyAttacked">
<polygon fill="white" stroke="black" points="307,-197.5 307,-227.5 412,-227.5 412,-197.5 307,-197.5"/>
<text text-anchor="start" x="315" y="-215.5" font-family="Helvetica,sans-Serif" font-size="10.00">View::ActionScene::</text>
<text text-anchor="middle" x="359.5" y="-204.5" font-family="Helvetica,sans-Serif" font-size="10.00">enemyAttacked</text>
</a>
</g>
</g>
<!-- Node216&#45;&gt;Node219 -->
<g id="edge3" class="edge"><title>Node216&#45;&gt;Node219</title>
<path fill="none" stroke="midnightblue" d="M105.239,-254.849C158.119,-246.006 240.254,-232.272 296.562,-222.857"/>
<polygon fill="midnightblue" stroke="midnightblue" points="297.476,-226.253 306.762,-221.151 296.322,-219.348 297.476,-226.253"/>
</g>
<!-- Node229 -->
<g id="node14" class="node"><title>Node229</title>
<g id="a_node14"><a xlink:href="class_view_1_1_action_scene.html#a03d6bd779731feb9bc256844ec3fb0ae" target="_top" xlink:title="View::ActionScene::\lenemyPatrolled">
<polygon fill="white" stroke="black" points="148,-292.5 148,-322.5 253,-322.5 253,-292.5 148,-292.5"/>
<text text-anchor="start" x="156" y="-310.5" font-family="Helvetica,sans-Serif" font-size="10.00">View::ActionScene::</text>
<text text-anchor="middle" x="200.5" y="-299.5" font-family="Helvetica,sans-Serif" font-size="10.00">enemyPatrolled</text>
</a>
</g>
</g>
<!-- Node216&#45;&gt;Node229 -->
<g id="edge13" class="edge"><title>Node216&#45;&gt;Node229</title>
<path fill="none" stroke="midnightblue" d="M103.337,-278.519C115.069,-282.055 127.693,-285.859 139.81,-289.511"/>
<polygon fill="midnightblue" stroke="midnightblue" points="138.808,-292.865 149.392,-292.399 140.828,-286.162 138.808,-292.865"/>
</g>
<!-- Node230 -->
<g id="node15" class="node"><title>Node230</title>
<g id="a_node15"><a xlink:href="class_view_1_1_action_scene.html#a4d0be71c24a8d12a73a86fb6d917cc51" target="_top" xlink:title="View::ActionScene::\lenemyWandered">
<polygon fill="white" stroke="black" points="307,-248.5 307,-278.5 412,-278.5 412,-248.5 307,-248.5"/>
<text text-anchor="start" x="315" y="-266.5" font-family="Helvetica,sans-Serif" font-size="10.00">View::ActionScene::</text>
<text text-anchor="middle" x="359.5" y="-255.5" font-family="Helvetica,sans-Serif" font-size="10.00">enemyWandered</text>
</a>
</g>
</g>
<!-- Node216&#45;&gt;Node230 -->
<g id="edge20" class="edge"><title>Node216&#45;&gt;Node230</title>
<path fill="none" stroke="midnightblue" d="M105.239,-263.5C158.119,-263.5 240.254,-263.5 296.562,-263.5"/>
<polygon fill="midnightblue" stroke="midnightblue" points="296.762,-267 306.762,-263.5 296.762,-260 296.762,-267"/>
</g>
<!-- Node232 -->
<g id="node17" class="node"><title>Node232</title>
<g id="a_node17"><a xlink:href="class_view_1_1_action_scene.html#a8ecad0a68a274799549da0adce49ea09" target="_top" xlink:title="View::ActionScene::\lupdateEnemyLineOfSight">
<polygon fill="white" stroke="black" points="296,-147.5 296,-177.5 423,-177.5 423,-147.5 296,-147.5"/>
<text text-anchor="start" x="304" y="-165.5" font-family="Helvetica,sans-Serif" font-size="10.00">View::ActionScene::</text>
<text text-anchor="middle" x="359.5" y="-154.5" font-family="Helvetica,sans-Serif" font-size="10.00">updateEnemyLineOfSight</text>
</a>
</g>
</g>
<!-- Node216&#45;&gt;Node232 -->
<g id="edge21" class="edge"><title>Node216&#45;&gt;Node232</title>
<path fill="none" stroke="midnightblue" d="M85.5155,-248.425C101.908,-241.007 122.303,-232.237 141,-225.5 189.724,-207.945 245.898,-191.774 288.952,-180.212"/>
<polygon fill="midnightblue" stroke="midnightblue" points="290.004,-183.554 298.765,-177.595 288.2,-176.79 290.004,-183.554"/>
</g>
<!-- Node218 -->
<g id="node3" class="node"><title>Node218</title>
<g id="a_node3"><a xlink:href="class_view_1_1_action_scene_feet.html#a74dfcd6e4a0b5d3fc3dd27079107ecdc" target="_top" xlink:title="View::ActionSceneFeet\l::setPosition">
<polygon fill="white" stroke="black" points="300,-424.5 300,-454.5 419,-454.5 419,-424.5 300,-424.5"/>
<text text-anchor="start" x="308" y="-442.5" font-family="Helvetica,sans-Serif" font-size="10.00">View::ActionSceneFeet</text>
<text text-anchor="middle" x="359.5" y="-431.5" font-family="Helvetica,sans-Serif" font-size="10.00">::setPosition</text>
</a>
</g>
</g>
<!-- Node217&#45;&gt;Node218 -->
<g id="edge2" class="edge"><title>Node217&#45;&gt;Node218</title>
<path fill="none" stroke="midnightblue" d="M257.737,-412.544C268.966,-415.548 280.857,-418.729 292.383,-421.813"/>
<polygon fill="midnightblue" stroke="midnightblue" points="291.827,-425.287 302.392,-424.49 293.636,-418.525 291.827,-425.287"/>
</g>
<!-- Node220 -->
<g id="node5" class="node"><title>Node220</title>
<g id="a_node5"><a xlink:href="class_view_1_1_action_scene.html#a6bfb112aa7244a19a1f1c1e7444a2195" target="_top" xlink:title="View::ActionScene::\lactorWasHit">
<polygon fill="white" stroke="black" points="466,-245.5 466,-275.5 571,-275.5 571,-245.5 466,-245.5"/>
<text text-anchor="start" x="474" y="-263.5" font-family="Helvetica,sans-Serif" font-size="10.00">View::ActionScene::</text>
<text text-anchor="middle" x="518.5" y="-252.5" font-family="Helvetica,sans-Serif" font-size="10.00">actorWasHit</text>
</a>
</g>
</g>
<!-- Node219&#45;&gt;Node220 -->
<g id="edge4" class="edge"><title>Node219&#45;&gt;Node220</title>
<path fill="none" stroke="midnightblue" d="M409.745,-227.556C425.235,-232.292 442.499,-237.57 458.589,-242.489"/>
<polygon fill="midnightblue" stroke="midnightblue" points="457.843,-245.921 468.43,-245.498 459.89,-239.227 457.843,-245.921"/>
</g>
<!-- Node221 -->
<g id="node6" class="node"><title>Node221</title>
<g id="a_node6"><a xlink:href="class_view_1_1_action_scene_n_p_c.html#a9065e80ab1349445972a44657234a35f" target="_top" xlink:title="View::ActionSceneNPC\l::getId">
<polygon fill="white" stroke="black" points="459,-196.5 459,-226.5 578,-226.5 578,-196.5 459,-196.5"/>
<text text-anchor="start" x="467" y="-214.5" font-family="Helvetica,sans-Serif" font-size="10.00">View::ActionSceneNPC</text>
<text text-anchor="middle" x="518.5" y="-203.5" font-family="Helvetica,sans-Serif" font-size="10.00">::getId</text>
</a>
</g>
</g>
<!-- Node219&#45;&gt;Node221 -->
<g id="edge5" class="edge"><title>Node219&#45;&gt;Node221</title>
<path fill="none" stroke="midnightblue" d="M412.343,-212.17C423.996,-212.096 436.538,-212.016 448.76,-211.938"/>
<polygon fill="midnightblue" stroke="midnightblue" points="448.947,-215.437 458.925,-211.873 448.903,-208.437 448.947,-215.437"/>
</g>
<!-- Node222 -->
<g id="node7" class="node"><title>Node222</title>
<g id="a_node7"><a xlink:href="class_view_1_1_action_scene_n_p_c.html#ad5b240c242c1f22de0b4c141c8a613ed" target="_top" xlink:title="View::ActionSceneNPC\l::getTarget">
<polygon fill="white" stroke="black" points="459,-147.5 459,-177.5 578,-177.5 578,-147.5 459,-147.5"/>
<text text-anchor="start" x="467" y="-165.5" font-family="Helvetica,sans-Serif" font-size="10.00">View::ActionSceneNPC</text>
<text text-anchor="middle" x="518.5" y="-154.5" font-family="Helvetica,sans-Serif" font-size="10.00">::getTarget</text>
</a>
</g>
</g>
<!-- Node219&#45;&gt;Node222 -->
<g id="edge6" class="edge"><title>Node219&#45;&gt;Node222</title>
<path fill="none" stroke="midnightblue" d="M407.605,-197.498C424.141,-192.232 442.901,-186.258 460.182,-180.754"/>
<polygon fill="midnightblue" stroke="midnightblue" points="461.691,-183.947 470.157,-177.577 459.566,-177.277 461.691,-183.947"/>
</g>
<!-- Node223 -->
<g id="node8" class="node"><title>Node223</title>
<g id="a_node8"><a xlink:href="class_view_1_1_action_scene_n_p_c.html#a5d04b31e451848aec804ce99864800ca" target="_top" xlink:title="View::ActionSceneNPC\l::isDead">
<polygon fill="white" stroke="black" points="459,-49.5 459,-79.5 578,-79.5 578,-49.5 459,-49.5"/>
<text text-anchor="start" x="467" y="-67.5" font-family="Helvetica,sans-Serif" font-size="10.00">View::ActionSceneNPC</text>
<text text-anchor="middle" x="518.5" y="-56.5" font-family="Helvetica,sans-Serif" font-size="10.00">::isDead</text>
</a>
</g>
</g>
<!-- Node219&#45;&gt;Node223 -->
<g id="edge7" class="edge"><title>Node219&#45;&gt;Node223</title>
<path fill="none" stroke="midnightblue" d="M408.879,-197.328C414.071,-194.318 418.934,-190.742 423,-186.5 455.112,-153.005 426.806,-121.916 459,-88.5 459.921,-87.5439 460.886,-86.6246 461.888,-85.7407"/>
<polygon fill="midnightblue" stroke="midnightblue" points="464.211,-88.3768 470.199,-79.636 460.067,-82.7351 464.211,-88.3768"/>
</g>
<!-- Node224 -->
<g id="node9" class="node"><title>Node224</title>
<g id="a_node9"><a xlink:href="class_view_1_1_action_scene_n_p_c.html#a2d64f4b6f2eb5eedb8360fb8dc33b606" target="_top" xlink:title="View::ActionSceneNPC\l::moveToPoint">
<polygon fill="white" stroke="black" points="459,-343.5 459,-373.5 578,-373.5 578,-343.5 459,-343.5"/>
<text text-anchor="start" x="467" y="-361.5" font-family="Helvetica,sans-Serif" font-size="10.00">View::ActionSceneNPC</text>
<text text-anchor="middle" x="518.5" y="-350.5" font-family="Helvetica,sans-Serif" font-size="10.00">::moveToPoint</text>
</a>
</g>
</g>
<!-- Node219&#45;&gt;Node224 -->
<g id="edge8" class="edge"><title>Node219&#45;&gt;Node224</title>
<path fill="none" stroke="midnightblue" d="M408.525,-227.533C413.841,-230.573 418.83,-234.195 423,-238.5 454.413,-270.934 427.744,-300.915 459,-333.5 460.376,-334.935 461.848,-336.291 463.395,-337.574"/>
<polygon fill="midnightblue" stroke="midnightblue" points="461.472,-340.5 471.667,-343.384 465.496,-334.772 461.472,-340.5"/>
</g>
<!-- Node225 -->
<g id="node10" class="node"><title>Node225</title>
<g id="a_node10"><a xlink:href="class_view_1_1_action_scene_n_p_c.html#a63c01e4d67db25532448053814a4a917" target="_top" xlink:title="View::ActionSceneNPC\l::setAIMode">
<polygon fill="white" stroke="black" points="459,-294.5 459,-324.5 578,-324.5 578,-294.5 459,-294.5"/>
<text text-anchor="start" x="467" y="-312.5" font-family="Helvetica,sans-Serif" font-size="10.00">View::ActionSceneNPC</text>
<text text-anchor="middle" x="518.5" y="-301.5" font-family="Helvetica,sans-Serif" font-size="10.00">::setAIMode</text>
</a>
</g>
</g>
<!-- Node219&#45;&gt;Node225 -->
<g id="edge9" class="edge"><title>Node219&#45;&gt;Node225</title>
<path fill="none" stroke="midnightblue" d="M404.768,-227.534C411.188,-230.657 417.482,-234.301 423,-238.5 443.66,-254.221 438.416,-268.679 459,-284.5 461.299,-286.267 463.741,-287.934 466.274,-289.504"/>
<polygon fill="midnightblue" stroke="midnightblue" points="464.716,-292.643 475.153,-294.467 468.132,-286.533 464.716,-292.643"/>
</g>
<!-- Node228 -->
<g id="node13" class="node"><title>Node228</title>
<g id="a_node13"><a xlink:href="class_view_1_1_action_scene_n_p_c.html#ab362917c5b032ed8ec63a503a2b84e6e" target="_top" xlink:title="View::ActionSceneNPC\l::setTarget">
<polygon fill="white" stroke="black" points="459,-98.5 459,-128.5 578,-128.5 578,-98.5 459,-98.5"/>
<text text-anchor="start" x="467" y="-116.5" font-family="Helvetica,sans-Serif" font-size="10.00">View::ActionSceneNPC</text>
<text text-anchor="middle" x="518.5" y="-105.5" font-family="Helvetica,sans-Serif" font-size="10.00">::setTarget</text>
</a>
</g>
</g>
<!-- Node219&#45;&gt;Node228 -->
<g id="edge12" class="edge"><title>Node219&#45;&gt;Node228</title>
<path fill="none" stroke="midnightblue" d="M405.208,-197.454C411.499,-194.347 417.639,-190.71 423,-186.5 444.254,-169.81 437.705,-154.138 459,-137.5 460.757,-136.127 462.604,-134.821 464.514,-133.58"/>
<polygon fill="midnightblue" stroke="midnightblue" points="466.318,-136.58 473.225,-128.546 462.816,-130.519 466.318,-136.58"/>
</g>
<!-- Node226 -->
<g id="node11" class="node"><title>Node226</title>
<g id="a_node11"><a xlink:href="class_view_1_1_action_scene_n_p_c.html#a32b28c35cccc25fa39d60462235776f3" target="_top" xlink:title="View::ActionSceneNPC\l::setRunSpeed">
<polygon fill="white" stroke="black" points="614,-294.5 614,-324.5 733,-324.5 733,-294.5 614,-294.5"/>
<text text-anchor="start" x="622" y="-312.5" font-family="Helvetica,sans-Serif" font-size="10.00">View::ActionSceneNPC</text>
<text text-anchor="middle" x="673.5" y="-301.5" font-family="Helvetica,sans-Serif" font-size="10.00">::setRunSpeed</text>
</a>
</g>
</g>
<!-- Node225&#45;&gt;Node226 -->
<g id="edge10" class="edge"><title>Node225&#45;&gt;Node226</title>
<path fill="none" stroke="midnightblue" d="M578.216,-309.5C586.544,-309.5 595.169,-309.5 603.667,-309.5"/>
<polygon fill="midnightblue" stroke="midnightblue" points="603.941,-313 613.941,-309.5 603.941,-306 603.941,-313"/>
</g>
<!-- Node227 -->
<g id="node12" class="node"><title>Node227</title>
<g id="a_node12"><a xlink:href="class_view_1_1_action_scene_feet.html#a160793a00dcf4b16bcda158571f56773" target="_top" xlink:title="View::ActionSceneFeet\l::setRunning">
<polygon fill="white" stroke="black" points="769,-294.5 769,-324.5 888,-324.5 888,-294.5 769,-294.5"/>
<text text-anchor="start" x="777" y="-312.5" font-family="Helvetica,sans-Serif" font-size="10.00">View::ActionSceneFeet</text>
<text text-anchor="middle" x="828.5" y="-301.5" font-family="Helvetica,sans-Serif" font-size="10.00">::setRunning</text>
</a>
</g>
</g>
<!-- Node226&#45;&gt;Node227 -->
<g id="edge11" class="edge"><title>Node226&#45;&gt;Node227</title>
<path fill="none" stroke="midnightblue" d="M733.216,-309.5C741.544,-309.5 750.169,-309.5 758.667,-309.5"/>
<polygon fill="midnightblue" stroke="midnightblue" points="758.941,-313 768.941,-309.5 758.941,-306 758.941,-313"/>
</g>
<!-- Node229&#45;&gt;Node224 -->
<g id="edge18" class="edge"><title>Node229&#45;&gt;Node224</title>
<path fill="none" stroke="midnightblue" d="M216.175,-322.686C233.448,-339.361 263.874,-365.143 296,-375.5 347.872,-392.223 409.97,-385.304 455.198,-375.748"/>
<polygon fill="midnightblue" stroke="midnightblue" points="456.151,-379.122 465.159,-373.544 454.639,-372.287 456.151,-379.122"/>
</g>
<!-- Node229&#45;&gt;Node225 -->
<g id="edge19" class="edge"><title>Node229&#45;&gt;Node225</title>
<path fill="none" stroke="midnightblue" d="M253.327,-307.828C306.597,-308.165 389.834,-308.692 448.617,-309.064"/>
<polygon fill="midnightblue" stroke="midnightblue" points="448.907,-312.566 458.929,-309.129 448.952,-305.566 448.907,-312.566"/>
</g>
<!-- Node229&#45;&gt;Node230 -->
<g id="edge14" class="edge"><title>Node229&#45;&gt;Node230</title>
<path fill="none" stroke="midnightblue" d="M253.343,-292.971C267.349,-289.046 282.64,-284.76 297.115,-280.704"/>
<polygon fill="midnightblue" stroke="midnightblue" points="298.295,-284.008 306.979,-277.939 296.406,-277.267 298.295,-284.008"/>
</g>
<!-- Node231 -->
<g id="node16" class="node"><title>Node231</title>
<g id="a_node16"><a xlink:href="class_view_1_1_action_scene_n_p_c.html#aebeb555dcc879bbab68a98565c5f8307" target="_top" xlink:title="View::ActionSceneNPC\l::getMoving">
<polygon fill="white" stroke="black" points="300,-336.5 300,-366.5 419,-366.5 419,-336.5 300,-336.5"/>
<text text-anchor="start" x="308" y="-354.5" font-family="Helvetica,sans-Serif" font-size="10.00">View::ActionSceneNPC</text>
<text text-anchor="middle" x="359.5" y="-343.5" font-family="Helvetica,sans-Serif" font-size="10.00">::getMoving</text>
</a>
</g>
</g>
<!-- Node229&#45;&gt;Node231 -->
<g id="edge17" class="edge"><title>Node229&#45;&gt;Node231</title>
<path fill="none" stroke="midnightblue" d="M253.343,-322.029C266.639,-325.756 281.094,-329.806 294.908,-333.678"/>
<polygon fill="midnightblue" stroke="midnightblue" points="294.255,-337.13 304.829,-336.458 296.144,-330.39 294.255,-337.13"/>
</g>
<!-- Node230&#45;&gt;Node224 -->
<g id="edge15" class="edge"><title>Node230&#45;&gt;Node224</title>
<path fill="none" stroke="midnightblue" d="M379.313,-278.725C398.563,-293.848 429.719,-317.089 459,-333.5 462.425,-335.42 466.026,-337.288 469.69,-339.083"/>
<polygon fill="midnightblue" stroke="midnightblue" points="468.317,-342.305 478.857,-343.378 471.287,-335.966 468.317,-342.305"/>
</g>
<!-- Node230&#45;&gt;Node225 -->
<g id="edge16" class="edge"><title>Node230&#45;&gt;Node225</title>
<path fill="none" stroke="midnightblue" d="M411.908,-278.562C426.077,-282.714 441.588,-287.258 456.254,-291.555"/>
<polygon fill="midnightblue" stroke="midnightblue" points="455.664,-295.03 466.245,-294.483 457.633,-288.312 455.664,-295.03"/>
</g>
<!-- Node232&#45;&gt;Node221 -->
<g id="edge23" class="edge"><title>Node232&#45;&gt;Node221</title>
<path fill="none" stroke="midnightblue" d="M408.886,-177.601C424.929,-182.608 442.949,-188.232 459.631,-193.439"/>
<polygon fill="midnightblue" stroke="midnightblue" points="458.685,-196.81 469.274,-196.448 460.77,-190.128 458.685,-196.81"/>
</g>
<!-- Node232&#45;&gt;Node222 -->
<g id="edge24" class="edge"><title>Node232&#45;&gt;Node222</title>
<path fill="none" stroke="midnightblue" d="M423.002,-162.5C431.391,-162.5 440.035,-162.5 448.528,-162.5"/>
<polygon fill="midnightblue" stroke="midnightblue" points="448.786,-166 458.786,-162.5 448.786,-159 448.786,-166"/>
</g>
<!-- Node232&#45;&gt;Node223 -->
<g id="edge22" class="edge"><title>Node232&#45;&gt;Node223</title>
<path fill="none" stroke="midnightblue" d="M377.705,-147.413C396.656,-131.327 428.503,-105.832 459,-88.5 461.815,-86.8998 464.759,-85.3498 467.763,-83.8595"/>
<polygon fill="midnightblue" stroke="midnightblue" points="469.326,-86.9928 476.893,-79.5778 466.353,-80.6551 469.326,-86.9928"/>
</g>
<!-- Node232&#45;&gt;Node225 -->
<g id="edge27" class="edge"><title>Node232&#45;&gt;Node225</title>
<path fill="none" stroke="midnightblue" d="M410.095,-177.599C414.824,-180.378 419.247,-183.651 423,-187.5 455.105,-220.422 427.282,-251.205 459,-284.5 460.371,-285.939 461.839,-287.3 463.383,-288.586"/>
<polygon fill="midnightblue" stroke="midnightblue" points="461.451,-291.507 471.641,-294.409 465.485,-285.786 461.451,-291.507"/>
</g>
<!-- Node232&#45;&gt;Node228 -->
<g id="edge26" class="edge"><title>Node232&#45;&gt;Node228</title>
<path fill="none" stroke="midnightblue" d="M408.886,-147.399C424.929,-142.392 442.949,-136.768 459.631,-131.561"/>
<polygon fill="midnightblue" stroke="midnightblue" points="460.77,-134.872 469.274,-128.552 458.685,-128.19 460.77,-134.872"/>
</g>
<!-- Node233 -->
<g id="node18" class="node"><title>Node233</title>
<g id="a_node18"><a xlink:href="class_view_1_1_action_scene.html#a62ad930d90fc2b1bb64d0852d9073c9b" target="_top" xlink:title="View::ActionScene::\lcheckBlockedView">
<polygon fill="white" stroke="black" points="466,-0.5 466,-30.5 571,-30.5 571,-0.5 466,-0.5"/>
<text text-anchor="start" x="474" y="-18.5" font-family="Helvetica,sans-Serif" font-size="10.00">View::ActionScene::</text>
<text text-anchor="middle" x="518.5" y="-7.5" font-family="Helvetica,sans-Serif" font-size="10.00">checkBlockedView</text>
</a>
</g>
</g>
<!-- Node232&#45;&gt;Node233 -->
<g id="edge25" class="edge"><title>Node232&#45;&gt;Node233</title>
<path fill="none" stroke="midnightblue" d="M369.183,-147.19C384.362,-121.654 418.041,-70.1516 459,-39.5 460.821,-38.1373 462.73,-36.8379 464.702,-35.6006"/>
<polygon fill="midnightblue" stroke="midnightblue" points="466.657,-38.5167 473.663,-30.5689 463.23,-32.413 466.657,-38.5167"/>
</g>
</g>
</svg>
