<?xml version="1.0" encoding="UTF-8" standalone="no"?>
<!DOCTYPE svg PUBLIC "-//W3C//DTD SVG 1.1//EN"
 "http://www.w3.org/Graphics/SVG/1.1/DTD/svg11.dtd">
<!-- Generated by graphviz version 2.38.0 (20140413.2041)
 -->
<!-- Title: Model::layoutGenerator Pages: 1 -->
<!--zoomable 970 -->
<svg id="main" version="1.1" xmlns="http://www.w3.org/2000/svg" xmlns:xlink="http://www.w3.org/1999/xlink" xml:space="preserve" onload="init(evt)">
<style type="text/css"><![CDATA[
.edge:hover path { stroke: red; }
.edge:hover polygon { stroke: red; fill: red; }
]]></style>
<script type="text/javascript"><![CDATA[
var edges = document.getElementsByTagName('g');
if (edges && edges.length) {
  for (var i=0;i<edges.length;i++) {
    if (edges[i].id.substr(0,4)=='edge') {
      edges[i].setAttribute('class','edge');
    }
  }
}
]]></script>
        <defs>
                <circle id="rim" cx="0" cy="0" r="7"/>
                <circle id="rim2" cx="0" cy="0" r="3.5"/>
                <g id="zoomPlus">
                        <use xlink:href="#rim" fill="#404040">
                                <set attributeName="fill" to="#808080" begin="zoomplus.mouseover" end="zoomplus.mouseout"/>
                        </use>
                        <path d="M-4,0h8M0,-4v8" fill="none" stroke="white" stroke-width="1.5" pointer-events="none"/>
                </g>
                <g id="zoomMin">
                        <use xlink:href="#rim" fill="#404040">
                                <set attributeName="fill" to="#808080" begin="zoomminus.mouseover" end="zoomminus.mouseout"/>
                        </use>
                        <path d="M-4,0h8" fill="none" stroke="white" stroke-width="1.5" pointer-events="none"/>
                </g>
                <g id="dirArrow">
                        <path fill="none" stroke="white" stroke-width="1.5" d="M0,-3.0v7 M-2.5,-0.5L0,-3.0L2.5,-0.5"/>
                </g>
               <g id="resetDef">
                       <use xlink:href="#rim2" fill="#404040">
                               <set attributeName="fill" to="#808080" begin="reset.mouseover" end="reset.mouseout"/>
                       </use>
               </g>
        </defs>

<script type="text/javascript">
var viewWidth = 890;
var viewHeight = 970;
var sectionId = 'dynsection-0';
</script>
<script xlink:href="svgpan.js"/>
<svg id="graph" class="graph">
<g id="viewport">
<title>Model::layoutGenerator</title>
<polygon fill="white" stroke="none" points="-4,4 -4,-966 885.998,-966 885.998,4 -4,4"/>
<!-- Node1 -->
<g id="node1" class="node"><title>Node1</title>
<polygon fill="#bfbfbf" stroke="black" points="629.998,-717 629.998,-807 747.998,-807 747.998,-717 629.998,-717"/>
<text text-anchor="middle" x="688.998" y="-795" font-family="Helvetica,sans-Serif" font-size="10.00">Model::layoutGenerator</text>
<polyline fill="none" stroke="black" points="629.998,-788 747.998,-788 "/>
<text text-anchor="middle" x="688.998" y="-776" font-family="Helvetica,sans-Serif" font-size="10.00"> </text>
<polyline fill="none" stroke="black" points="629.998,-769 747.998,-769 "/>
<text text-anchor="start" x="637.998" y="-757" font-family="Helvetica,sans-Serif" font-size="10.00">+ layoutGenerator()</text>
<text text-anchor="start" x="637.998" y="-746" font-family="Helvetica,sans-Serif" font-size="10.00">+ generateHall()</text>
<text text-anchor="start" x="637.998" y="-735" font-family="Helvetica,sans-Serif" font-size="10.00">&#45; roomOk()</text>
<text text-anchor="start" x="637.998" y="-724" font-family="Helvetica,sans-Serif" font-size="10.00">&#45; randomRoom()</text>
</g>
<!-- Node2 -->
<g id="node2" class="node"><title>Node2</title>
<g id="a_node2"><a xlink:href="class_model_1_1map_generator.html" target="_top" xlink:title="{Model::mapGenerator\n||+ mapGenerator()\l+ getTile()\l+ getHeight()\l+ getWidth()\l+ getStartX()\l+ getStartY()\l+ generateHall()\l+ getLayout()\l&#45; getMedialMap()\l&#45; getDistanceMap()\l&#45; isInMapRange()\l&#45; GetSurroundingWallCount()\l&#45; getClosestEdge()\l&#45; indexToX()\l&#45; indexToY()\l&#45; indexAt()\l&#45; setTile()\l&#45; setTile()\l&#45; getTile()\l&#45; printLayout()\l}">
<polygon fill="white" stroke="black" points="423.498,-364.5 423.498,-630.5 564.498,-630.5 564.498,-364.5 423.498,-364.5"/>
<text text-anchor="middle" x="493.998" y="-618.5" font-family="Helvetica,sans-Serif" font-size="10.00">Model::mapGenerator</text>
<polyline fill="none" stroke="black" points="423.498,-611.5 564.498,-611.5 "/>
<text text-anchor="middle" x="493.998" y="-599.5" font-family="Helvetica,sans-Serif" font-size="10.00"> </text>
<polyline fill="none" stroke="black" points="423.498,-592.5 564.498,-592.5 "/>
<text text-anchor="start" x="431.498" y="-580.5" font-family="Helvetica,sans-Serif" font-size="10.00">+ mapGenerator()</text>
<text text-anchor="start" x="431.498" y="-569.5" font-family="Helvetica,sans-Serif" font-size="10.00">+ getTile()</text>
<text text-anchor="start" x="431.498" y="-558.5" font-family="Helvetica,sans-Serif" font-size="10.00">+ getHeight()</text>
<text text-anchor="start" x="431.498" y="-547.5" font-family="Helvetica,sans-Serif" font-size="10.00">+ getWidth()</text>
<text text-anchor="start" x="431.498" y="-536.5" font-family="Helvetica,sans-Serif" font-size="10.00">+ getStartX()</text>
<text text-anchor="start" x="431.498" y="-525.5" font-family="Helvetica,sans-Serif" font-size="10.00">+ getStartY()</text>
<text text-anchor="start" x="431.498" y="-514.5" font-family="Helvetica,sans-Serif" font-size="10.00">+ generateHall()</text>
<text text-anchor="start" x="431.498" y="-503.5" font-family="Helvetica,sans-Serif" font-size="10.00">+ getLayout()</text>
<text text-anchor="start" x="431.498" y="-492.5" font-family="Helvetica,sans-Serif" font-size="10.00">&#45; getMedialMap()</text>
<text text-anchor="start" x="431.498" y="-481.5" font-family="Helvetica,sans-Serif" font-size="10.00">&#45; getDistanceMap()</text>
<text text-anchor="start" x="431.498" y="-470.5" font-family="Helvetica,sans-Serif" font-size="10.00">&#45; isInMapRange()</text>
<text text-anchor="start" x="431.498" y="-459.5" font-family="Helvetica,sans-Serif" font-size="10.00">&#45; GetSurroundingWallCount()</text>
<text text-anchor="start" x="431.498" y="-448.5" font-family="Helvetica,sans-Serif" font-size="10.00">&#45; getClosestEdge()</text>
<text text-anchor="start" x="431.498" y="-437.5" font-family="Helvetica,sans-Serif" font-size="10.00">&#45; indexToX()</text>
<text text-anchor="start" x="431.498" y="-426.5" font-family="Helvetica,sans-Serif" font-size="10.00">&#45; indexToY()</text>
<text text-anchor="start" x="431.498" y="-415.5" font-family="Helvetica,sans-Serif" font-size="10.00">&#45; indexAt()</text>
<text text-anchor="start" x="431.498" y="-404.5" font-family="Helvetica,sans-Serif" font-size="10.00">&#45; setTile()</text>
<text text-anchor="start" x="431.498" y="-393.5" font-family="Helvetica,sans-Serif" font-size="10.00">&#45; setTile()</text>
<text text-anchor="start" x="431.498" y="-382.5" font-family="Helvetica,sans-Serif" font-size="10.00">&#45; getTile()</text>
<text text-anchor="start" x="431.498" y="-371.5" font-family="Helvetica,sans-Serif" font-size="10.00">&#45; printLayout()</text>
</a>
</g>
</g>
<!-- Node1&#45;&gt;Node2 -->
<g id="edge15" class="edge"><title>Node1&#45;&gt;Node2</title>
<path fill="none" stroke="#404040" d="M649.088,-716.899C638.884,-707.004 627.521,-697.061 615.998,-689 600.685,-678.288 591.283,-684.143 577.998,-671 568.842,-661.942 560.536,-651.686 553.031,-640.799"/>
<polygon fill="none" stroke="#404040" points="552.948,-640.673 546.312,-637.852 546.363,-630.641 553,-633.462 552.948,-640.673"/>
<text text-anchor="middle" x="618.498" y="-657.5" font-family="Helvetica,sans-Serif" font-size="10.00"> &#45;layoutGenerator_</text>
</g>
<!-- Node2&#45;&gt;Node1 -->
<g id="edge1" class="edge"><title>Node2&#45;&gt;Node1</title>
<path fill="none" stroke="#404040" d="M564.752,-545.484C599.328,-571.966 638.633,-607.951 662.998,-649 672.985,-665.827 679.137,-686.189 682.925,-704.912"/>
<polygon fill="none" stroke="#404040" points="682.961,-705.116 687.962,-710.311 685.089,-716.926 680.089,-711.73 682.961,-705.116"/>
<text text-anchor="middle" x="709.498" y="-657.5" font-family="Helvetica,sans-Serif" font-size="10.00"> &#45;mapGenerator_</text>
</g>
<!-- Node5 -->
<g id="node5" class="node"><title>Node5</title>
<g id="a_node5"><a xlink:href="class_model_1_1map_processor.html" target="_top" xlink:title="{Model::mapProcessor\n||+ mapProcessor()\l+ placeEnemies()\l+ getEnemies()\l&#45; getDistanceMap()\l&#45; getMedialMap()\l&#45; calculateDistanceMap()\l&#45; getTile()\l&#45; getTile()\l&#45; setTileDistance()\l&#45; getTileDistance()\l&#45; getTileClosest()\l&#45; getTileClosest()\l&#45; setTileClosest()\l&#45; getDistance()\l}">
<polygon fill="white" stroke="black" points="170.498,-116.5 170.498,-316.5 295.498,-316.5 295.498,-116.5 170.498,-116.5"/>
<text text-anchor="middle" x="232.998" y="-304.5" font-family="Helvetica,sans-Serif" font-size="10.00">Model::mapProcessor</text>
<polyline fill="none" stroke="black" points="170.498,-297.5 295.498,-297.5 "/>
<text text-anchor="middle" x="232.998" y="-285.5" font-family="Helvetica,sans-Serif" font-size="10.00"> </text>
<polyline fill="none" stroke="black" points="170.498,-278.5 295.498,-278.5 "/>
<text text-anchor="start" x="178.498" y="-266.5" font-family="Helvetica,sans-Serif" font-size="10.00">+ mapProcessor()</text>
<text text-anchor="start" x="178.498" y="-255.5" font-family="Helvetica,sans-Serif" font-size="10.00">+ placeEnemies()</text>
<text text-anchor="start" x="178.498" y="-244.5" font-family="Helvetica,sans-Serif" font-size="10.00">+ getEnemies()</text>
<text text-anchor="start" x="178.498" y="-233.5" font-family="Helvetica,sans-Serif" font-size="10.00">&#45; getDistanceMap()</text>
<text text-anchor="start" x="178.498" y="-222.5" font-family="Helvetica,sans-Serif" font-size="10.00">&#45; getMedialMap()</text>
<text text-anchor="start" x="178.498" y="-211.5" font-family="Helvetica,sans-Serif" font-size="10.00">&#45; calculateDistanceMap()</text>
<text text-anchor="start" x="178.498" y="-200.5" font-family="Helvetica,sans-Serif" font-size="10.00">&#45; getTile()</text>
<text text-anchor="start" x="178.498" y="-189.5" font-family="Helvetica,sans-Serif" font-size="10.00">&#45; getTile()</text>
<text text-anchor="start" x="178.498" y="-178.5" font-family="Helvetica,sans-Serif" font-size="10.00">&#45; setTileDistance()</text>
<text text-anchor="start" x="178.498" y="-167.5" font-family="Helvetica,sans-Serif" font-size="10.00">&#45; getTileDistance()</text>
<text text-anchor="start" x="178.498" y="-156.5" font-family="Helvetica,sans-Serif" font-size="10.00">&#45; getTileClosest()</text>
<text text-anchor="start" x="178.498" y="-145.5" font-family="Helvetica,sans-Serif" font-size="10.00">&#45; getTileClosest()</text>
<text text-anchor="start" x="178.498" y="-134.5" font-family="Helvetica,sans-Serif" font-size="10.00">&#45; setTileClosest()</text>
<text text-anchor="start" x="178.498" y="-123.5" font-family="Helvetica,sans-Serif" font-size="10.00">&#45; getDistance()</text>
</a>
</g>
</g>
<!-- Node2&#45;&gt;Node5 -->
<g id="edge5" class="edge"><title>Node2&#45;&gt;Node5</title>
<path fill="none" stroke="#404040" d="M423.12,-440.668C390.916,-413.702 353.328,-379.89 322.998,-346 316.274,-338.488 309.614,-330.461 303.138,-322.226"/>
<polygon fill="none" stroke="#404040" points="302.953,-321.987 296.123,-319.676 295.628,-312.482 302.459,-314.793 302.953,-321.987"/>
<text text-anchor="middle" x="348.998" y="-338" font-family="Helvetica,sans-Serif" font-size="10.00"> &#45;generator_</text>
</g>
<!-- Node13 -->
<g id="node13" class="node"><title>Node13</title>
<g id="a_node13"><a xlink:href="class_model_1_1park_space_inserter.html" target="_top" xlink:title="{Model::parkSpaceInserter\n||+ parkSpaceInserter()\l+ addSpaces()\l&#45; addParkingSpaces_()\l&#45; getWallTiles()\l&#45; removeBlockedSpaces()\l&#45; floodFill()\l&#45; getRelativeDirection()\l}">
<polygon fill="white" stroke="black" points="345.998,-155 345.998,-278 473.998,-278 473.998,-155 345.998,-155"/>
<text text-anchor="middle" x="409.998" y="-266" font-family="Helvetica,sans-Serif" font-size="10.00">Model::parkSpaceInserter</text>
<polyline fill="none" stroke="black" points="345.998,-259 473.998,-259 "/>
<text text-anchor="middle" x="409.998" y="-247" font-family="Helvetica,sans-Serif" font-size="10.00"> </text>
<polyline fill="none" stroke="black" points="345.998,-240 473.998,-240 "/>
<text text-anchor="start" x="353.998" y="-228" font-family="Helvetica,sans-Serif" font-size="10.00">+ parkSpaceInserter()</text>
<text text-anchor="start" x="353.998" y="-217" font-family="Helvetica,sans-Serif" font-size="10.00">+ addSpaces()</text>
<text text-anchor="start" x="353.998" y="-206" font-family="Helvetica,sans-Serif" font-size="10.00">&#45; addParkingSpaces_()</text>
<text text-anchor="start" x="353.998" y="-195" font-family="Helvetica,sans-Serif" font-size="10.00">&#45; getWallTiles()</text>
<text text-anchor="start" x="353.998" y="-184" font-family="Helvetica,sans-Serif" font-size="10.00">&#45; removeBlockedSpaces()</text>
<text text-anchor="start" x="353.998" y="-173" font-family="Helvetica,sans-Serif" font-size="10.00">&#45; floodFill()</text>
<text text-anchor="start" x="353.998" y="-162" font-family="Helvetica,sans-Serif" font-size="10.00">&#45; getRelativeDirection()</text>
</a>
</g>
</g>
<!-- Node2&#45;&gt;Node13 -->
<g id="edge17" class="edge"><title>Node2&#45;&gt;Node13</title>
<path fill="none" stroke="#404040" d="M479.884,-364.315C477.633,-354.301 475.023,-344.431 471.998,-335 467.085,-319.686 460.248,-303.998 452.901,-289.275"/>
<polygon fill="none" stroke="#404040" points="452.704,-288.893 446.4,-285.392 447.206,-278.227 453.511,-281.727 452.704,-288.893"/>
<text text-anchor="middle" x="490.498" y="-338" font-family="Helvetica,sans-Serif" font-size="10.00"> &#45;map_</text>
</g>
<!-- Node3 -->
<g id="node3" class="node"><title>Node3</title>
<g id="a_node3"><a xlink:href="class_interface_1_1_parkin_hall_layout_interface.html" target="_top" xlink:title="{Interface::ParkinHallLayout\lInterface\n||+ ParkinHallLayoutInterface()\l+ generateHall()\l+ getLayout()\l+ getTile()\l+ getStartX()\l+ getStartY()\l+ getHeight()\l+ getWidth()\l}">
<polygon fill="white" stroke="black" points="224.998,-689.5 224.998,-834.5 366.998,-834.5 366.998,-689.5 224.998,-689.5"/>
<text text-anchor="start" x="232.998" y="-822.5" font-family="Helvetica,sans-Serif" font-size="10.00">Interface::ParkinHallLayout</text>
<text text-anchor="middle" x="295.998" y="-811.5" font-family="Helvetica,sans-Serif" font-size="10.00">Interface</text>
<polyline fill="none" stroke="black" points="224.998,-804.5 366.998,-804.5 "/>
<text text-anchor="middle" x="295.998" y="-792.5" font-family="Helvetica,sans-Serif" font-size="10.00"> </text>
<polyline fill="none" stroke="black" points="224.998,-785.5 366.998,-785.5 "/>
<text text-anchor="start" x="232.998" y="-773.5" font-family="Helvetica,sans-Serif" font-size="10.00">+ ParkinHallLayoutInterface()</text>
<text text-anchor="start" x="232.998" y="-762.5" font-family="Helvetica,sans-Serif" font-size="10.00">+ generateHall()</text>
<text text-anchor="start" x="232.998" y="-751.5" font-family="Helvetica,sans-Serif" font-size="10.00">+ getLayout()</text>
<text text-anchor="start" x="232.998" y="-740.5" font-family="Helvetica,sans-Serif" font-size="10.00">+ getTile()</text>
<text text-anchor="start" x="232.998" y="-729.5" font-family="Helvetica,sans-Serif" font-size="10.00">+ getStartX()</text>
<text text-anchor="start" x="232.998" y="-718.5" font-family="Helvetica,sans-Serif" font-size="10.00">+ getStartY()</text>
<text text-anchor="start" x="232.998" y="-707.5" font-family="Helvetica,sans-Serif" font-size="10.00">+ getHeight()</text>
<text text-anchor="start" x="232.998" y="-696.5" font-family="Helvetica,sans-Serif" font-size="10.00">+ getWidth()</text>
</a>
</g>
</g>
<!-- Node3&#45;&gt;Node2 -->
<g id="edge2" class="edge"><title>Node3&#45;&gt;Node2</title>
<path fill="none" stroke="midnightblue" d="M356.273,-681.09C377.401,-653.079 401.323,-621.364 423.232,-592.319"/>
<polygon fill="none" stroke="midnightblue" points="353.33,-679.179 350.102,-689.271 358.918,-683.395 353.33,-679.179"/>
</g>
<!-- Node4 -->
<g id="node4" class="node"><title>Node4</title>
<polygon fill="white" stroke="#bfbfbf" points="395.998,-0.5 395.998,-68.5 511.998,-68.5 511.998,-0.5 395.998,-0.5"/>
<text text-anchor="start" x="403.998" y="-56.5" font-family="Helvetica,sans-Serif" font-size="10.00">std::unique_ptr&lt; Model</text>
<text text-anchor="middle" x="453.998" y="-45.5" font-family="Helvetica,sans-Serif" font-size="10.00">::mapProcessor &gt;</text>
<polyline fill="none" stroke="#bfbfbf" points="395.998,-38.5 511.998,-38.5 "/>
<text text-anchor="middle" x="453.998" y="-26.5" font-family="Helvetica,sans-Serif" font-size="10.00"> </text>
<polyline fill="none" stroke="#bfbfbf" points="395.998,-19.5 511.998,-19.5 "/>
<text text-anchor="start" x="403.998" y="-7.5" font-family="Helvetica,sans-Serif" font-size="10.00">+ operator&#45;&gt;()</text>
</g>
<!-- Node4&#45;&gt;Node2 -->
<g id="edge3" class="edge"><title>Node4&#45;&gt;Node2</title>
<path fill="none" stroke="#404040" d="M467.836,-68.6752C473.318,-83.0078 479.205,-100.106 482.998,-116 506.885,-216.114 515.446,-243.22 509.998,-346 509.888,-348.075 509.769,-350.164 509.643,-352.267"/>
<polygon fill="none" stroke="#404040" points="509.631,-352.45 513.226,-358.701 508.839,-364.424 505.244,-358.173 509.631,-352.45"/>
<text text-anchor="middle" x="549.498" y="-214" font-family="Helvetica,sans-Serif" font-size="10.00"> &#45;mapProcessor_</text>
</g>
<!-- Node5&#45;&gt;Node4 -->
<g id="edge4" class="edge"><title>Node5&#45;&gt;Node4</title>
<path fill="none" stroke="#404040" d="M295.596,-152.519C308.909,-140.014 323.139,-127.276 336.998,-116 354.185,-102.017 373.722,-87.9315 391.842,-75.5386"/>
<polygon fill="none" stroke="#404040" points="392.09,-75.3712 394.817,-68.6957 402.028,-68.6457 399.301,-75.3212 392.09,-75.3712"/>
<text text-anchor="middle" x="385.498" y="-90" font-family="Helvetica,sans-Serif" font-size="10.00"> +ptr</text>
</g>
<!-- Node6 -->
<g id="node6" class="node"><title>Node6</title>
<polygon fill="white" stroke="#bfbfbf" points="17.4978,-463.5 17.4978,-531.5 178.498,-531.5 178.498,-463.5 17.4978,-463.5"/>
<text text-anchor="start" x="25.4978" y="-519.5" font-family="Helvetica,sans-Serif" font-size="10.00">std::vector&lt; Model</text>
<text text-anchor="middle" x="97.9978" y="-508.5" font-family="Helvetica,sans-Serif" font-size="10.00">::mapProcessor::DistanceNode &gt;</text>
<polyline fill="none" stroke="#bfbfbf" points="17.4978,-501.5 178.498,-501.5 "/>
<text text-anchor="middle" x="97.9978" y="-489.5" font-family="Helvetica,sans-Serif" font-size="10.00"> </text>
<polyline fill="none" stroke="#bfbfbf" points="17.4978,-482.5 178.498,-482.5 "/>
<text text-anchor="middle" x="97.9978" y="-470.5" font-family="Helvetica,sans-Serif" font-size="10.00"> </text>
</g>
<!-- Node6&#45;&gt;Node5 -->
<g id="edge6" class="edge"><title>Node6&#45;&gt;Node5</title>
<path fill="none" stroke="#404040" d="M111.294,-463.29C124.743,-430.34 146.552,-378.599 167.998,-335 169.257,-332.441 170.544,-329.858 171.853,-327.259"/>
<polygon fill="none" stroke="#404040" points="171.887,-327.193 171.057,-320.03 177.35,-316.509 178.18,-323.672 171.887,-327.193"/>
<text text-anchor="middle" x="198.998" y="-338" font-family="Helvetica,sans-Serif" font-size="10.00"> &#45;distanceMap</text>
</g>
<!-- Node7 -->
<g id="node7" class="node"><title>Node7</title>
<g id="a_node7"><a xlink:href="struct_model_1_1map_processor_1_1_distance_node.html" target="_top" xlink:title="{Model::mapProcessor\l::DistanceNode\n||}">
<polygon fill="white" stroke="black" points="28.9978,-728 28.9978,-796 140.998,-796 140.998,-728 28.9978,-728"/>
<text text-anchor="start" x="36.9978" y="-784" font-family="Helvetica,sans-Serif" font-size="10.00">Model::mapProcessor</text>
<text text-anchor="middle" x="84.9978" y="-773" font-family="Helvetica,sans-Serif" font-size="10.00">::DistanceNode</text>
<polyline fill="none" stroke="black" points="28.9978,-766 140.998,-766 "/>
<text text-anchor="middle" x="84.9978" y="-754" font-family="Helvetica,sans-Serif" font-size="10.00"> </text>
<polyline fill="none" stroke="black" points="28.9978,-747 140.998,-747 "/>
<text text-anchor="middle" x="84.9978" y="-735" font-family="Helvetica,sans-Serif" font-size="10.00"> </text>
</a>
</g>
</g>
<!-- Node7&#45;&gt;Node6 -->
<g id="edge7" class="edge"><title>Node7&#45;&gt;Node6</title>
<path fill="none" stroke="#404040" d="M86.6442,-727.754C88.948,-681.235 93.1418,-596.553 95.7369,-544.153"/>
<polygon fill="none" stroke="#404040" points="95.7505,-543.875 92.0523,-537.684 96.3442,-531.889 100.042,-538.08 95.7505,-543.875"/>
<text text-anchor="middle" x="115.498" y="-657.5" font-family="Helvetica,sans-Serif" font-size="10.00"> +elements</text>
</g>
<!-- Node8 -->
<g id="node8" class="node"><title>Node8</title>
<polygon fill="white" stroke="#bfbfbf" points="395.498,-904.5 395.498,-961.5 424.498,-961.5 424.498,-904.5 395.498,-904.5"/>
<text text-anchor="middle" x="409.998" y="-949.5" font-family="Helvetica,sans-Serif" font-size="10.00">int</text>
<polyline fill="none" stroke="#bfbfbf" points="395.498,-942.5 424.498,-942.5 "/>
<text text-anchor="middle" x="409.998" y="-930.5" font-family="Helvetica,sans-Serif" font-size="10.00"> </text>
<polyline fill="none" stroke="#bfbfbf" points="395.498,-923.5 424.498,-923.5 "/>
<text text-anchor="middle" x="409.998" y="-911.5" font-family="Helvetica,sans-Serif" font-size="10.00"> </text>
</g>
<!-- Node8&#45;&gt;Node1 -->
<g id="edge20" class="edge"><title>Node8&#45;&gt;Node1</title>
<path fill="none" stroke="#404040" d="M424.5,-929.193C451.148,-923.641 509.186,-909.7 552.998,-886 586.041,-868.125 617.519,-840.593 641.854,-816.106"/>
<polygon fill="none" stroke="#404040" points="642.112,-815.841 643.434,-808.752 650.486,-807.245 649.164,-814.334 642.112,-815.841"/>
<text text-anchor="middle" x="627.998" y="-878" font-family="Helvetica,sans-Serif" font-size="10.00"> &#45;height_</text>
<text text-anchor="middle" x="627.998" y="-867" font-family="Helvetica,sans-Serif" font-size="10.00">&#45;width_</text>
<text text-anchor="middle" x="627.998" y="-856" font-family="Helvetica,sans-Serif" font-size="10.00">&#45;maxRooms_</text>
</g>
<!-- Node8&#45;&gt;Node2 -->
<g id="edge12" class="edge"><title>Node8&#45;&gt;Node2</title>
<path fill="none" stroke="#404040" d="M424.687,-923.578C448.353,-909.049 494.077,-876.772 511.998,-835 537.568,-775.397 537.617,-704.312 529.453,-642.867"/>
<polygon fill="none" stroke="#404040" points="529.413,-642.592 524.605,-637.219 527.715,-630.713 532.524,-636.087 529.413,-642.592"/>
<text text-anchor="middle" x="571.498" y="-781.5" font-family="Helvetica,sans-Serif" font-size="10.00"> &#45;startX</text>
<text text-anchor="middle" x="571.498" y="-770.5" font-family="Helvetica,sans-Serif" font-size="10.00">&#45;startY</text>
<text text-anchor="middle" x="571.498" y="-759.5" font-family="Helvetica,sans-Serif" font-size="10.00">&#45;height_</text>
<text text-anchor="middle" x="571.498" y="-748.5" font-family="Helvetica,sans-Serif" font-size="10.00">&#45;width_</text>
<text text-anchor="middle" x="571.498" y="-737.5" font-family="Helvetica,sans-Serif" font-size="10.00">&#45;maxRoomCount</text>
</g>
<!-- Node8&#45;&gt;Node5 -->
<g id="edge11" class="edge"><title>Node8&#45;&gt;Node5</title>
<path fill="none" stroke="#404040" d="M395.485,-930.727C330.563,-924.704 67.8832,-896.753 19.9978,-835 -8.98803,-797.62 0.13558,-378.501 7.99777,-364 39.8217,-305.304 106.474,-266.427 159.017,-243.566"/>
<polygon fill="none" stroke="#404040" points="159.279,-243.456 163.253,-237.438 170.336,-238.791 166.362,-244.809 159.279,-243.456"/>
<text text-anchor="middle" x="16.9978" y="-663" font-family="Helvetica,sans-Serif" font-size="10.00"> &#45;width</text>
<text text-anchor="middle" x="16.9978" y="-652" font-family="Helvetica,sans-Serif" font-size="10.00">&#45;height</text>
</g>
<!-- Node8&#45;&gt;Node7 -->
<g id="edge8" class="edge"><title>Node8&#45;&gt;Node7</title>
<path fill="none" stroke="#404040" d="M395.347,-929.114C353.875,-920.43 233.286,-891.586 149.998,-835 138.039,-826.875 126.791,-816.102 117.122,-805.371"/>
<polygon fill="none" stroke="#404040" points="116.892,-805.105 109.944,-803.175 109.053,-796.019 116.001,-797.949 116.892,-805.105"/>
<text text-anchor="middle" x="267.998" y="-872.5" font-family="Helvetica,sans-Serif" font-size="10.00"> +distance</text>
<text text-anchor="middle" x="267.998" y="-861.5" font-family="Helvetica,sans-Serif" font-size="10.00">+closest</text>
</g>
<!-- Node9 -->
<g id="node9" class="node"><title>Node9</title>
<polygon fill="white" stroke="#bfbfbf" points="196.998,-469 196.998,-526 306.998,-526 306.998,-469 196.998,-469"/>
<text text-anchor="middle" x="251.998" y="-514" font-family="Helvetica,sans-Serif" font-size="10.00">std::vector&lt; QPoint &gt;</text>
<polyline fill="none" stroke="#bfbfbf" points="196.998,-507 306.998,-507 "/>
<text text-anchor="middle" x="251.998" y="-495" font-family="Helvetica,sans-Serif" font-size="10.00"> </text>
<polyline fill="none" stroke="#bfbfbf" points="196.998,-488 306.998,-488 "/>
<text text-anchor="middle" x="251.998" y="-476" font-family="Helvetica,sans-Serif" font-size="10.00"> </text>
</g>
<!-- Node9&#45;&gt;Node5 -->
<g id="edge9" class="edge"><title>Node9&#45;&gt;Node5</title>
<path fill="none" stroke="#404040" d="M247.754,-468.846C243.351,-438.721 236.732,-389.069 233.998,-346 233.641,-340.382 233.345,-334.622 233.101,-328.804"/>
<polygon fill="none" stroke="#404040" points="233.101,-328.799 228.888,-322.946 232.671,-316.807 236.883,-322.659 233.101,-328.799"/>
<text text-anchor="middle" x="258.498" y="-338" font-family="Helvetica,sans-Serif" font-size="10.00"> &#45;enemies_</text>
</g>
<!-- Node10 -->
<g id="node10" class="node"><title>Node10</title>
<polygon fill="white" stroke="#bfbfbf" points="159.498,-733.5 159.498,-790.5 206.498,-790.5 206.498,-733.5 159.498,-733.5"/>
<text text-anchor="middle" x="182.998" y="-778.5" font-family="Helvetica,sans-Serif" font-size="10.00">QPoint</text>
<polyline fill="none" stroke="#bfbfbf" points="159.498,-771.5 206.498,-771.5 "/>
<text text-anchor="middle" x="182.998" y="-759.5" font-family="Helvetica,sans-Serif" font-size="10.00"> </text>
<polyline fill="none" stroke="#bfbfbf" points="159.498,-752.5 206.498,-752.5 "/>
<text text-anchor="middle" x="182.998" y="-740.5" font-family="Helvetica,sans-Serif" font-size="10.00"> </text>
</g>
<!-- Node10&#45;&gt;Node9 -->
<g id="edge10" class="edge"><title>Node10&#45;&gt;Node9</title>
<path fill="none" stroke="#404040" d="M190.252,-733.404C202.546,-686.632 227.514,-591.644 241.644,-537.889"/>
<polygon fill="none" stroke="#404040" points="241.687,-537.726 239.344,-530.906 244.738,-526.12 247.081,-532.94 241.687,-537.726"/>
<text text-anchor="middle" x="236.498" y="-657.5" font-family="Helvetica,sans-Serif" font-size="10.00"> +elements</text>
</g>
<!-- Node11 -->
<g id="node11" class="node"><title>Node11</title>
<polygon fill="white" stroke="#bfbfbf" points="384.998,-733.5 384.998,-790.5 430.998,-790.5 430.998,-733.5 384.998,-733.5"/>
<text text-anchor="middle" x="407.998" y="-778.5" font-family="Helvetica,sans-Serif" font-size="10.00">Layout</text>
<polyline fill="none" stroke="#bfbfbf" points="384.998,-771.5 430.998,-771.5 "/>
<text text-anchor="middle" x="407.998" y="-759.5" font-family="Helvetica,sans-Serif" font-size="10.00"> </text>
<polyline fill="none" stroke="#bfbfbf" points="384.998,-752.5 430.998,-752.5 "/>
<text text-anchor="middle" x="407.998" y="-740.5" font-family="Helvetica,sans-Serif" font-size="10.00"> </text>
</g>
<!-- Node11&#45;&gt;Node2 -->
<g id="edge13" class="edge"><title>Node11&#45;&gt;Node2</title>
<path fill="none" stroke="#404040" d="M415.736,-733.261C422.184,-710.52 431.772,-677.547 440.998,-649 441.732,-646.727 442.478,-644.435 443.232,-642.13"/>
<polygon fill="none" stroke="#404040" points="443.308,-641.901 441.393,-634.949 447.073,-630.507 448.989,-637.459 443.308,-641.901"/>
<text text-anchor="middle" x="459.998" y="-657.5" font-family="Helvetica,sans-Serif" font-size="10.00"> &#45;layout_</text>
</g>
<!-- Node12 -->
<g id="node12" class="node"><title>Node12</title>
<polygon fill="white" stroke="#bfbfbf" points="448.998,-733.5 448.998,-790.5 502.998,-790.5 502.998,-733.5 448.998,-733.5"/>
<text text-anchor="middle" x="475.998" y="-778.5" font-family="Helvetica,sans-Serif" font-size="10.00">mt19937</text>
<polyline fill="none" stroke="#bfbfbf" points="448.998,-771.5 502.998,-771.5 "/>
<text text-anchor="middle" x="475.998" y="-759.5" font-family="Helvetica,sans-Serif" font-size="10.00"> </text>
<polyline fill="none" stroke="#bfbfbf" points="448.998,-752.5 502.998,-752.5 "/>
<text text-anchor="middle" x="475.998" y="-740.5" font-family="Helvetica,sans-Serif" font-size="10.00"> </text>
</g>
<!-- Node12&#45;&gt;Node2 -->
<g id="edge14" class="edge"><title>Node12&#45;&gt;Node2</title>
<path fill="none" stroke="#404040" d="M477.89,-733.404C479.424,-711.032 481.715,-677.627 484.091,-642.981"/>
<polygon fill="none" stroke="#404040" points="484.112,-642.662 480.532,-636.403 484.933,-630.69 488.513,-636.95 484.112,-642.662"/>
<text text-anchor="middle" x="493.998" y="-657.5" font-family="Helvetica,sans-Serif" font-size="10.00"> &#45;rng</text>
</g>
<!-- Node13&#45;&gt;Node2 -->
<g id="edge16" class="edge"><title>Node13&#45;&gt;Node2</title>
<path fill="none" stroke="#404040" d="M382.845,-278.004C376.63,-299.709 373.724,-324.197 380.998,-346 388.773,-369.306 401.731,-391.906 416.154,-412.203"/>
<polygon fill="none" stroke="#404040" points="416.23,-412.306 423.006,-414.771 423.337,-421.975 416.56,-419.509 416.23,-412.306"/>
<text text-anchor="middle" x="426.498" y="-338" font-family="Helvetica,sans-Serif" font-size="10.00"> &#45;parkSpaceInserter_</text>
</g>
<!-- Node14 -->
<g id="node14" class="node"><title>Node14</title>
<polygon fill="white" stroke="#bfbfbf" points="765.998,-733.5 765.998,-790.5 881.998,-790.5 881.998,-733.5 765.998,-733.5"/>
<text text-anchor="middle" x="823.998" y="-778.5" font-family="Helvetica,sans-Serif" font-size="10.00">std::vector&lt; TileType &gt;</text>
<polyline fill="none" stroke="#bfbfbf" points="765.998,-771.5 881.998,-771.5 "/>
<text text-anchor="middle" x="823.998" y="-759.5" font-family="Helvetica,sans-Serif" font-size="10.00"> </text>
<polyline fill="none" stroke="#bfbfbf" points="765.998,-752.5 881.998,-752.5 "/>
<text text-anchor="middle" x="823.998" y="-740.5" font-family="Helvetica,sans-Serif" font-size="10.00"> </text>
</g>
<!-- Node14&#45;&gt;Node2 -->
<g id="edge18" class="edge"><title>Node14&#45;&gt;Node2</title>
<path fill="none" stroke="#404040" d="M810.261,-733.117C797.244,-708.756 775.863,-673.544 749.998,-649 698.828,-600.444 629.228,-560.8 575.515,-534.412"/>
<polygon fill="none" stroke="#404040" points="575.45,-534.381 568.306,-535.364 564.651,-529.148 571.795,-528.165 575.45,-534.381"/>
<text text-anchor="middle" x="784.998" y="-657.5" font-family="Helvetica,sans-Serif" font-size="10.00"> &#45;tiles_</text>
</g>
<!-- Node15 -->
<g id="node15" class="node"><title>Node15</title>
<polygon fill="white" stroke="#bfbfbf" points="797.498,-904.5 797.498,-961.5 850.498,-961.5 850.498,-904.5 797.498,-904.5"/>
<text text-anchor="middle" x="823.998" y="-949.5" font-family="Helvetica,sans-Serif" font-size="10.00">TileType</text>
<polyline fill="none" stroke="#bfbfbf" points="797.498,-942.5 850.498,-942.5 "/>
<text text-anchor="middle" x="823.998" y="-930.5" font-family="Helvetica,sans-Serif" font-size="10.00"> </text>
<polyline fill="none" stroke="#bfbfbf" points="797.498,-923.5 850.498,-923.5 "/>
<text text-anchor="middle" x="823.998" y="-911.5" font-family="Helvetica,sans-Serif" font-size="10.00"> </text>
</g>
<!-- Node15&#45;&gt;Node14 -->
<g id="edge19" class="edge"><title>Node15&#45;&gt;Node14</title>
<path fill="none" stroke="#404040" d="M823.998,-904.471C823.998,-876.85 823.998,-834.027 823.998,-802.728"/>
<polygon fill="none" stroke="#404040" points="823.998,-802.517 819.998,-796.517 823.998,-790.517 827.998,-796.517 823.998,-802.517"/>
<text text-anchor="middle" x="848.498" y="-867" font-family="Helvetica,sans-Serif" font-size="10.00"> +elements</text>
</g>
</g>
</svg>
        <g id="navigator" transform="translate(0 0)" fill="#404254">
                <rect fill="#f2f5e9" fill-opacity="0.5" stroke="#606060" stroke-width=".5" x="0" y="0" width="60" height="60"/>
                <use id="zoomplus" xlink:href="#zoomPlus" x="17" y="9" onmousedown="handleZoom(evt,'in')"/>
                <use id="zoomminus" xlink:href="#zoomMin" x="42" y="9" onmousedown="handleZoom(evt,'out')"/>
                <use id="reset" xlink:href="#resetDef" x="30" y="36" onmousedown="handleReset()"/>
                <g id="arrowUp" xlink:href="#dirArrow" transform="translate(30 24)" onmousedown="handlePan(0,-1)">
                  <use xlink:href="#rim" fill="#404040">
                        <set attributeName="fill" to="#808080" begin="arrowUp.mouseover" end="arrowUp.mouseout"/>
                  </use>
                  <path fill="none" stroke="white" stroke-width="1.5" d="M0,-3.0v7 M-2.5,-0.5L0,-3.0L2.5,-0.5"/>
                </g>
                <g id="arrowRight" xlink:href="#dirArrow" transform="rotate(90) translate(36 -43)" onmousedown="handlePan(1,0)">
                  <use xlink:href="#rim" fill="#404040">
                        <set attributeName="fill" to="#808080" begin="arrowRight.mouseover" end="arrowRight.mouseout"/>
                  </use>
                  <path fill="none" stroke="white" stroke-width="1.5" d="M0,-3.0v7 M-2.5,-0.5L0,-3.0L2.5,-0.5"/>
                </g>
                <g id="arrowDown" xlink:href="#dirArrow" transform="rotate(180) translate(-30 -48)" onmousedown="handlePan(0,1)">
                  <use xlink:href="#rim" fill="#404040">
                        <set attributeName="fill" to="#808080" begin="arrowDown.mouseover" end="arrowDown.mouseout"/>
                  </use>
                  <path fill="none" stroke="white" stroke-width="1.5" d="M0,-3.0v7 M-2.5,-0.5L0,-3.0L2.5,-0.5"/>
                </g>
                <g id="arrowLeft" xlink:href="#dirArrow" transform="rotate(270) translate(-36 17)" onmousedown="handlePan(-1,0)">
                  <use xlink:href="#rim" fill="#404040">
                        <set attributeName="fill" to="#808080" begin="arrowLeft.mouseover" end="arrowLeft.mouseout"/>
                  </use>
                  <path fill="none" stroke="white" stroke-width="1.5" d="M0,-3.0v7 M-2.5,-0.5L0,-3.0L2.5,-0.5"/>
                </g>
        </g>
        <svg viewBox="0 0 15 15" width="100%" height="30px" preserveAspectRatio="xMaxYMin meet">
         <g id="arrow_out" transform="scale(0.3 0.3)">
          <a xlink:href="class_model_1_1layout_generator__coll__graph_org.svg" target="_base">
           <rect id="button" ry="5" rx="5" y="6" x="6" height="38" width="38"
                fill="#f2f5e9" fill-opacity="0.5" stroke="#606060" stroke-width="1.0"/>
           <path id="arrow"
             d="M 11.500037,31.436501 C 11.940474,20.09759 22.043105,11.32322 32.158766,21.979434 L 37.068811,17.246167 C 37.068811,17.246167 37.088388,32 37.088388,32 L 22.160133,31.978069 C 22.160133,31.978069 26.997745,27.140456 26.997745,27.140456 C 18.528582,18.264221 13.291696,25.230495 11.500037,31.436501 z"
             style="fill:#404040;"/>
          </a>
         </g>
        </svg>
</svg>
