<?xml version="1.0" encoding="UTF-8" standalone="no"?>
<!DOCTYPE svg PUBLIC "-//W3C//DTD SVG 1.1//EN"
 "http://www.w3.org/Graphics/SVG/1.1/DTD/svg11.dtd">
<!-- Generated by graphviz version 2.38.0 (20140413.2041)
 -->
<!-- Title: View::ActionScenePC Pages: 1 -->
<!--zoomable 529 -->
<svg id="main" version="1.1" xmlns="http://www.w3.org/2000/svg" xmlns:xlink="http://www.w3.org/1999/xlink" xml:space="preserve" onload="init(evt)">
<style type="text/css"><![CDATA[
.edge:hover path { stroke: red; }
.edge:hover polygon { stroke: red; fill: red; }
]]></style>
<script type="text/javascript"><![CDATA[
var edges = document.getElementsByTagName('g');
if (edges && edges.length) {
  for (var i=0;i<edges.length;i++) {
    if (edges[i].id.substr(0,4)=='edge') {
      edges[i].setAttribute('class','edge');
    }
  }
}
]]></script>
        <defs>
                <circle id="rim" cx="0" cy="0" r="7"/>
                <circle id="rim2" cx="0" cy="0" r="3.5"/>
                <g id="zoomPlus">
                        <use xlink:href="#rim" fill="#404040">
                                <set attributeName="fill" to="#808080" begin="zoomplus.mouseover" end="zoomplus.mouseout"/>
                        </use>
                        <path d="M-4,0h8M0,-4v8" fill="none" stroke="white" stroke-width="1.5" pointer-events="none"/>
                </g>
                <g id="zoomMin">
                        <use xlink:href="#rim" fill="#404040">
                                <set attributeName="fill" to="#808080" begin="zoomminus.mouseover" end="zoomminus.mouseout"/>
                        </use>
                        <path d="M-4,0h8" fill="none" stroke="white" stroke-width="1.5" pointer-events="none"/>
                </g>
                <g id="dirArrow">
                        <path fill="none" stroke="white" stroke-width="1.5" d="M0,-3.0v7 M-2.5,-0.5L0,-3.0L2.5,-0.5"/>
                </g>
               <g id="resetDef">
                       <use xlink:href="#rim2" fill="#404040">
                               <set attributeName="fill" to="#808080" begin="reset.mouseover" end="reset.mouseout"/>
                       </use>
               </g>
        </defs>

<script type="text/javascript">
var viewWidth = 1122;
var viewHeight = 529;
var sectionId = 'dynsection-1';
</script>
<script xlink:href="svgpan.js"/>
<svg id="graph" class="graph">
<g id="viewport">
<title>View::ActionScenePC</title>
<polygon fill="white" stroke="none" points="-4,4 -4,-525 1117.5,-525 1117.5,4 -4,4"/>
<!-- Node3 -->
<g id="node1" class="node"><title>Node3</title>
<polygon fill="#bfbfbf" stroke="black" points="392,-0.5 392,-200.5 505,-200.5 505,-0.5 392,-0.5"/>
<text text-anchor="middle" x="448.5" y="-188.5" font-family="Helvetica,sans-Serif" font-size="10.00">View::ActionScenePC</text>
<polyline fill="none" stroke="black" points="392,-181.5 505,-181.5 "/>
<text text-anchor="middle" x="448.5" y="-169.5" font-family="Helvetica,sans-Serif" font-size="10.00"> </text>
<polyline fill="none" stroke="black" points="392,-162.5 505,-162.5 "/>
<text text-anchor="start" x="400" y="-150.5" font-family="Helvetica,sans-Serif" font-size="10.00">+ ActionScenePC()</text>
<text text-anchor="start" x="400" y="-139.5" font-family="Helvetica,sans-Serif" font-size="10.00">+ ~ActionScenePC()</text>
<text text-anchor="start" x="400" y="-128.5" font-family="Helvetica,sans-Serif" font-size="10.00">+ getX()</text>
<text text-anchor="start" x="400" y="-117.5" font-family="Helvetica,sans-Serif" font-size="10.00">+ getY()</text>
<text text-anchor="start" x="400" y="-106.5" font-family="Helvetica,sans-Serif" font-size="10.00">+ rotate()</text>
<text text-anchor="start" x="400" y="-95.5" font-family="Helvetica,sans-Serif" font-size="10.00">+ moveToPoint()</text>
<text text-anchor="start" x="400" y="-84.5" font-family="Helvetica,sans-Serif" font-size="10.00">+ addFeet()</text>
<text text-anchor="start" x="400" y="-73.5" font-family="Helvetica,sans-Serif" font-size="10.00">+ rotateFeet()</text>
<text text-anchor="start" x="400" y="-62.5" font-family="Helvetica,sans-Serif" font-size="10.00">+ removeFeet()</text>
<text text-anchor="start" x="400" y="-51.5" font-family="Helvetica,sans-Serif" font-size="10.00">+ setDead()</text>
<text text-anchor="start" x="400" y="-40.5" font-family="Helvetica,sans-Serif" font-size="10.00">and 20 more...</text>
<text text-anchor="start" x="400" y="-29.5" font-family="Helvetica,sans-Serif" font-size="10.00">+ step()</text>
<text text-anchor="start" x="400" y="-18.5" font-family="Helvetica,sans-Serif" font-size="10.00">+ shoot()</text>
<text text-anchor="start" x="400" y="-7.5" font-family="Helvetica,sans-Serif" font-size="10.00">+ hideMuzzle()</text>
</g>
<!-- Node4 -->
<g id="node2" class="node"><title>Node4</title>
<g id="a_node2"><a xlink:href="class_q_object.html" target="_top" xlink:title="{QObject\n||}">
<polygon fill="white" stroke="black" points="0,-325.5 0,-382.5 53,-382.5 53,-325.5 0,-325.5"/>
<text text-anchor="middle" x="26.5" y="-370.5" font-family="Helvetica,sans-Serif" font-size="10.00">QObject</text>
<polyline fill="none" stroke="black" points="0,-363.5 53,-363.5 "/>
<text text-anchor="middle" x="26.5" y="-351.5" font-family="Helvetica,sans-Serif" font-size="10.00"> </text>
<polyline fill="none" stroke="black" points="0,-344.5 53,-344.5 "/>
<text text-anchor="middle" x="26.5" y="-332.5" font-family="Helvetica,sans-Serif" font-size="10.00"> </text>
</a>
</g>
</g>
<!-- Node4&#45;&gt;Node3 -->
<g id="edge1" class="edge"><title>Node4&#45;&gt;Node3</title>
<path fill="none" stroke="midnightblue" d="M28.652,-315.212C32.3325,-285.317 42.0603,-244.496 67.5,-219 155.749,-130.555 308.962,-108.418 391.657,-103.053"/>
<polygon fill="none" stroke="midnightblue" points="25.1577,-314.974 27.5866,-325.287 32.1189,-315.711 25.1577,-314.974"/>
</g>
<!-- Node5 -->
<g id="node3" class="node"><title>Node5</title>
<g id="a_node3"><a xlink:href="class_q_graphics_pixmap_item.html" target="_top" xlink:title="{QGraphicsPixmapItem\n||}">
<polygon fill="white" stroke="black" points="37,-463.5 37,-520.5 152,-520.5 152,-463.5 37,-463.5"/>
<text text-anchor="middle" x="94.5" y="-508.5" font-family="Helvetica,sans-Serif" font-size="10.00">QGraphicsPixmapItem</text>
<polyline fill="none" stroke="black" points="37,-501.5 152,-501.5 "/>
<text text-anchor="middle" x="94.5" y="-489.5" font-family="Helvetica,sans-Serif" font-size="10.00"> </text>
<polyline fill="none" stroke="black" points="37,-482.5 152,-482.5 "/>
<text text-anchor="middle" x="94.5" y="-470.5" font-family="Helvetica,sans-Serif" font-size="10.00"> </text>
</a>
</g>
</g>
<!-- Node5&#45;&gt;Node3 -->
<g id="edge2" class="edge"><title>Node5&#45;&gt;Node3</title>
<path fill="none" stroke="midnightblue" d="M82.265,-453.455C66.3119,-396.767 45.9859,-288.575 96.5,-219 164.632,-125.158 310.977,-105.191 391.864,-101.607"/>
<polygon fill="none" stroke="midnightblue" points="78.9149,-454.469 85.075,-463.089 85.635,-452.509 78.9149,-454.469"/>
</g>
<!-- Node9 -->
<g id="node7" class="node"><title>Node9</title>
<g id="a_node7"><a xlink:href="class_view_1_1_action_scene_feet.html" target="_top" xlink:title="{View::ActionSceneFeet\n||+ ActionSceneFeet()\l+ ~ActionSceneFeet()\l+ setPosition()\l+ setRunning()\l+ nextFrame()\l}">
<polygon fill="white" stroke="black" points="315,-303.5 315,-404.5 434,-404.5 434,-303.5 315,-303.5"/>
<text text-anchor="middle" x="374.5" y="-392.5" font-family="Helvetica,sans-Serif" font-size="10.00">View::ActionSceneFeet</text>
<polyline fill="none" stroke="black" points="315,-385.5 434,-385.5 "/>
<text text-anchor="middle" x="374.5" y="-373.5" font-family="Helvetica,sans-Serif" font-size="10.00"> </text>
<polyline fill="none" stroke="black" points="315,-366.5 434,-366.5 "/>
<text text-anchor="start" x="323" y="-354.5" font-family="Helvetica,sans-Serif" font-size="10.00">+ ActionSceneFeet()</text>
<text text-anchor="start" x="323" y="-343.5" font-family="Helvetica,sans-Serif" font-size="10.00">+ ~ActionSceneFeet()</text>
<text text-anchor="start" x="323" y="-332.5" font-family="Helvetica,sans-Serif" font-size="10.00">+ setPosition()</text>
<text text-anchor="start" x="323" y="-321.5" font-family="Helvetica,sans-Serif" font-size="10.00">+ setRunning()</text>
<text text-anchor="start" x="323" y="-310.5" font-family="Helvetica,sans-Serif" font-size="10.00">+ nextFrame()</text>
</a>
</g>
</g>
<!-- Node5&#45;&gt;Node9 -->
<g id="edge7" class="edge"><title>Node5&#45;&gt;Node9</title>
<path fill="none" stroke="midnightblue" d="M155.458,-458.952C180.438,-446.631 209.914,-433.111 237.5,-423 266.854,-412.241 277.254,-418.399 305.5,-405 308.574,-403.542 311.653,-401.942 314.711,-400.238"/>
<polygon fill="none" stroke="midnightblue" points="153.861,-455.838 146.47,-463.429 156.981,-462.103 153.861,-455.838"/>
</g>
<!-- Node6 -->
<g id="node4" class="node"><title>Node6</title>
<polygon fill="white" stroke="#bfbfbf" points="110,-325.5 110,-382.5 155,-382.5 155,-325.5 110,-325.5"/>
<text text-anchor="middle" x="132.5" y="-370.5" font-family="Helvetica,sans-Serif" font-size="10.00">double</text>
<polyline fill="none" stroke="#bfbfbf" points="110,-363.5 155,-363.5 "/>
<text text-anchor="middle" x="132.5" y="-351.5" font-family="Helvetica,sans-Serif" font-size="10.00"> </text>
<polyline fill="none" stroke="#bfbfbf" points="110,-344.5 155,-344.5 "/>
<text text-anchor="middle" x="132.5" y="-332.5" font-family="Helvetica,sans-Serif" font-size="10.00"> </text>
</g>
<!-- Node6&#45;&gt;Node3 -->
<g id="edge3" class="edge"><title>Node6&#45;&gt;Node3</title>
<path fill="none" stroke="#404040" d="M117.523,-325.452C103.953,-296.341 89.2032,-250.387 111.5,-219 172.214,-133.533 299.884,-109.714 379.482,-103.387"/>
<polygon fill="none" stroke="#404040" points="379.856,-103.361 385.559,-98.9482 391.826,-102.515 386.123,-106.928 379.856,-103.361"/>
<text text-anchor="middle" x="167" y="-271.5" font-family="Helvetica,sans-Serif" font-size="10.00"> &#45;stepSize_</text>
<text text-anchor="start" x="111.5" y="-260.5" font-family="Helvetica,sans-Serif" font-size="10.00">&#45;currentWeaponAccuracy</text>
<text text-anchor="middle" x="167" y="-249.5" font-family="Helvetica,sans-Serif" font-size="10.00">_</text>
<text text-anchor="middle" x="167" y="-238.5" font-family="Helvetica,sans-Serif" font-size="10.00">&#45;dy_</text>
<text text-anchor="middle" x="167" y="-227.5" font-family="Helvetica,sans-Serif" font-size="10.00">&#45;dx_</text>
</g>
<!-- Node7 -->
<g id="node5" class="node"><title>Node7</title>
<polygon fill="white" stroke="#bfbfbf" points="175,-325.5 175,-382.5 228,-382.5 228,-325.5 175,-325.5"/>
<text text-anchor="middle" x="201.5" y="-370.5" font-family="Helvetica,sans-Serif" font-size="10.00">QPointF</text>
<polyline fill="none" stroke="#bfbfbf" points="175,-363.5 228,-363.5 "/>
<text text-anchor="middle" x="201.5" y="-351.5" font-family="Helvetica,sans-Serif" font-size="10.00"> </text>
<polyline fill="none" stroke="#bfbfbf" points="175,-344.5 228,-344.5 "/>
<text text-anchor="middle" x="201.5" y="-332.5" font-family="Helvetica,sans-Serif" font-size="10.00"> </text>
</g>
<!-- Node7&#45;&gt;Node3 -->
<g id="edge4" class="edge"><title>Node7&#45;&gt;Node3</title>
<path fill="none" stroke="#404040" d="M212.172,-325.367C216.785,-313.078 222.118,-298.389 226.5,-285 235.995,-255.99 226.708,-243.054 245.5,-219 279.978,-174.868 335.998,-144.242 380.464,-125.348"/>
<polygon fill="none" stroke="#404040" points="380.697,-125.252 384.721,-119.267 391.792,-120.679 387.769,-126.663 380.697,-125.252"/>
<text text-anchor="middle" x="273" y="-260.5" font-family="Helvetica,sans-Serif" font-size="10.00"> &#45;moveDest_</text>
<text text-anchor="middle" x="273" y="-249.5" font-family="Helvetica,sans-Serif" font-size="10.00">&#45;prevPos_</text>
<text text-anchor="middle" x="273" y="-238.5" font-family="Helvetica,sans-Serif" font-size="10.00">&#45;targetPt_</text>
</g>
<!-- Node8 -->
<g id="node6" class="node"><title>Node8</title>
<polygon fill="white" stroke="#bfbfbf" points="246.5,-325.5 246.5,-382.5 296.5,-382.5 296.5,-325.5 246.5,-325.5"/>
<text text-anchor="middle" x="271.5" y="-370.5" font-family="Helvetica,sans-Serif" font-size="10.00">QString</text>
<polyline fill="none" stroke="#bfbfbf" points="246.5,-363.5 296.5,-363.5 "/>
<text text-anchor="middle" x="271.5" y="-351.5" font-family="Helvetica,sans-Serif" font-size="10.00"> </text>
<polyline fill="none" stroke="#bfbfbf" points="246.5,-344.5 296.5,-344.5 "/>
<text text-anchor="middle" x="271.5" y="-332.5" font-family="Helvetica,sans-Serif" font-size="10.00"> </text>
</g>
<!-- Node8&#45;&gt;Node3 -->
<g id="edge5" class="edge"><title>Node8&#45;&gt;Node3</title>
<path fill="none" stroke="#404040" d="M286.25,-325.356C292.39,-313.191 299.286,-298.601 304.5,-285 315.426,-256.498 307.589,-245.05 323.5,-219 338.918,-193.757 361.186,-170.416 382.668,-151.3"/>
<polygon fill="none" stroke="#404040" points="382.74,-151.238 384.651,-144.284 391.804,-143.374 389.894,-150.327 382.74,-151.238"/>
<text text-anchor="middle" x="362.5" y="-249.5" font-family="Helvetica,sans-Serif" font-size="10.00"> &#45;currentWeapon_</text>
</g>
<!-- Node9&#45;&gt;Node3 -->
<g id="edge6" class="edge"><title>Node9&#45;&gt;Node3</title>
<path fill="none" stroke="#404040" d="M398.499,-303.322C401.043,-297.221 403.446,-291.017 405.5,-285 413.403,-261.848 420.358,-236.568 426.244,-212.377"/>
<polygon fill="none" stroke="#404040" points="426.267,-212.277 423.766,-205.513 429.047,-200.603 431.548,-207.366 426.267,-212.277"/>
<text text-anchor="middle" x="438.5" y="-249.5" font-family="Helvetica,sans-Serif" font-size="10.00"> &#45;feet_</text>
</g>
<!-- Node10 -->
<g id="node8" class="node"><title>Node10</title>
<polygon fill="white" stroke="#bfbfbf" points="355,-463.5 355,-520.5 384,-520.5 384,-463.5 355,-463.5"/>
<text text-anchor="middle" x="369.5" y="-508.5" font-family="Helvetica,sans-Serif" font-size="10.00">int</text>
<polyline fill="none" stroke="#bfbfbf" points="355,-501.5 384,-501.5 "/>
<text text-anchor="middle" x="369.5" y="-489.5" font-family="Helvetica,sans-Serif" font-size="10.00"> </text>
<polyline fill="none" stroke="#bfbfbf" points="355,-482.5 384,-482.5 "/>
<text text-anchor="middle" x="369.5" y="-470.5" font-family="Helvetica,sans-Serif" font-size="10.00"> </text>
</g>
<!-- Node10&#45;&gt;Node3 -->
<g id="edge12" class="edge"><title>Node10&#45;&gt;Node3</title>
<path fill="none" stroke="#404040" d="M384.35,-485.326C406.993,-476.337 448.389,-458.464 456.5,-445 468.333,-425.359 463.065,-305.393 456.971,-212.704"/>
<polygon fill="none" stroke="#404040" points="456.968,-212.657 452.576,-206.937 456.166,-200.684 460.558,-206.403 456.968,-212.657"/>
<text text-anchor="middle" x="489" y="-357" font-family="Helvetica,sans-Serif" font-size="10.00"> &#45;fireDelay_</text>
<text text-anchor="middle" x="489" y="-346" font-family="Helvetica,sans-Serif" font-size="10.00">&#45;target_</text>
</g>
<!-- Node10&#45;&gt;Node9 -->
<g id="edge8" class="edge"><title>Node10&#45;&gt;Node9</title>
<path fill="none" stroke="#404040" d="M354.83,-482.133C343.08,-474.094 327.452,-461.062 320.5,-445 316.616,-436.027 317.28,-432.232 320.5,-423 321.387,-420.456 322.414,-417.935 323.556,-415.447"/>
<polygon fill="none" stroke="#404040" points="323.596,-415.373 322.882,-408.197 329.231,-404.779 329.945,-411.954 323.596,-415.373"/>
<text text-anchor="middle" x="355.5" y="-431.5" font-family="Helvetica,sans-Serif" font-size="10.00"> &#45;frameCounter_</text>
</g>
<!-- Node11 -->
<g id="node9" class="node"><title>Node11</title>
<polygon fill="white" stroke="#bfbfbf" points="449,-463.5 449,-520.5 484,-520.5 484,-463.5 449,-463.5"/>
<text text-anchor="middle" x="466.5" y="-508.5" font-family="Helvetica,sans-Serif" font-size="10.00">bool</text>
<polyline fill="none" stroke="#bfbfbf" points="449,-501.5 484,-501.5 "/>
<text text-anchor="middle" x="466.5" y="-489.5" font-family="Helvetica,sans-Serif" font-size="10.00"> </text>
<polyline fill="none" stroke="#bfbfbf" points="449,-482.5 484,-482.5 "/>
<text text-anchor="middle" x="466.5" y="-470.5" font-family="Helvetica,sans-Serif" font-size="10.00"> </text>
</g>
<!-- Node11&#45;&gt;Node3 -->
<g id="edge14" class="edge"><title>Node11&#45;&gt;Node3</title>
<path fill="none" stroke="#404040" d="M484.014,-471.88C497.754,-455.495 515.8,-430.554 523.5,-405 536.579,-361.594 531.534,-347.616 523.5,-303 518.054,-272.758 508.355,-241.129 497.702,-212.132"/>
<polygon fill="none" stroke="#404040" points="497.639,-211.966 491.784,-207.758 493.416,-200.734 499.272,-204.942 497.639,-211.966"/>
<text text-anchor="start" x="532.5" y="-384.5" font-family="Helvetica,sans-Serif" font-size="10.00"> &#45;currentWeaponAmmo</text>
<text text-anchor="middle" x="583" y="-373.5" font-family="Helvetica,sans-Serif" font-size="10.00">_</text>
<text text-anchor="middle" x="583" y="-362.5" font-family="Helvetica,sans-Serif" font-size="10.00">&#45;onPoint_</text>
<text text-anchor="middle" x="583" y="-351.5" font-family="Helvetica,sans-Serif" font-size="10.00">&#45;shootingNow_</text>
<text text-anchor="middle" x="583" y="-340.5" font-family="Helvetica,sans-Serif" font-size="10.00">&#45;dead_</text>
<text text-anchor="middle" x="583" y="-329.5" font-family="Helvetica,sans-Serif" font-size="10.00">&#45;run_</text>
<text text-anchor="middle" x="583" y="-318.5" font-family="Helvetica,sans-Serif" font-size="10.00">&#45;inScene_</text>
</g>
<!-- Node11&#45;&gt;Node9 -->
<g id="edge9" class="edge"><title>Node11&#45;&gt;Node9</title>
<path fill="none" stroke="#404040" d="M448.979,-465.099C439.347,-450.861 426.97,-432.564 415.082,-414.99"/>
<polygon fill="none" stroke="#404040" points="414.887,-414.702 408.212,-411.974 408.163,-404.763 414.838,-407.491 414.887,-414.702"/>
<text text-anchor="middle" x="456" y="-431.5" font-family="Helvetica,sans-Serif" font-size="10.00"> &#45;running_</text>
</g>
<!-- Node12 -->
<g id="node10" class="node"><title>Node12</title>
<polygon fill="white" stroke="#bfbfbf" points="182,-463.5 182,-520.5 289,-520.5 289,-463.5 182,-463.5"/>
<text text-anchor="middle" x="235.5" y="-508.5" font-family="Helvetica,sans-Serif" font-size="10.00">vector&lt; QPixmap * &gt;</text>
<polyline fill="none" stroke="#bfbfbf" points="182,-501.5 289,-501.5 "/>
<text text-anchor="middle" x="235.5" y="-489.5" font-family="Helvetica,sans-Serif" font-size="10.00"> </text>
<polyline fill="none" stroke="#bfbfbf" points="182,-482.5 289,-482.5 "/>
<text text-anchor="middle" x="235.5" y="-470.5" font-family="Helvetica,sans-Serif" font-size="10.00"> </text>
</g>
<!-- Node12&#45;&gt;Node9 -->
<g id="edge10" class="edge"><title>Node12&#45;&gt;Node9</title>
<path fill="none" stroke="#404040" d="M236.851,-463.249C238.877,-449.614 243.448,-433.83 253.5,-423 268.058,-407.315 280.345,-413.947 304.061,-404.747"/>
<polygon fill="none" stroke="#404040" points="304.065,-404.745 307.841,-398.601 314.964,-399.723 311.189,-405.867 304.065,-404.745"/>
<text text-anchor="middle" x="284" y="-437" font-family="Helvetica,sans-Serif" font-size="10.00"> &#45;runFrames_</text>
<text text-anchor="middle" x="284" y="-426" font-family="Helvetica,sans-Serif" font-size="10.00">&#45;walkFrames_</text>
</g>
<!-- Node13 -->
<g id="node11" class="node"><title>Node13</title>
<polygon fill="white" stroke="#bfbfbf" points="674.5,-325.5 674.5,-382.5 796.5,-382.5 796.5,-325.5 674.5,-325.5"/>
<text text-anchor="middle" x="735.5" y="-370.5" font-family="Helvetica,sans-Serif" font-size="10.00">QGraphicsPixmapItem *</text>
<polyline fill="none" stroke="#bfbfbf" points="674.5,-363.5 796.5,-363.5 "/>
<text text-anchor="middle" x="735.5" y="-351.5" font-family="Helvetica,sans-Serif" font-size="10.00"> </text>
<polyline fill="none" stroke="#bfbfbf" points="674.5,-344.5 796.5,-344.5 "/>
<text text-anchor="middle" x="735.5" y="-332.5" font-family="Helvetica,sans-Serif" font-size="10.00"> </text>
</g>
<!-- Node13&#45;&gt;Node3 -->
<g id="edge11" class="edge"><title>Node13&#45;&gt;Node3</title>
<path fill="none" stroke="#404040" d="M703.965,-325.366C658.629,-285.637 573.965,-211.445 514.567,-159.395"/>
<polygon fill="none" stroke="#404040" points="514.286,-159.149 507.137,-158.203 505.261,-151.24 512.41,-152.186 514.286,-159.149"/>
<text text-anchor="middle" x="685" y="-249.5" font-family="Helvetica,sans-Serif" font-size="10.00"> &#45;muzzleFlash_</text>
</g>
<!-- Node14 -->
<g id="node12" class="node"><title>Node14</title>
<polygon fill="white" stroke="#bfbfbf" points="815,-325.5 815,-382.5 870,-382.5 870,-325.5 815,-325.5"/>
<text text-anchor="middle" x="842.5" y="-370.5" font-family="Helvetica,sans-Serif" font-size="10.00">QTimer *</text>
<polyline fill="none" stroke="#bfbfbf" points="815,-363.5 870,-363.5 "/>
<text text-anchor="middle" x="842.5" y="-351.5" font-family="Helvetica,sans-Serif" font-size="10.00"> </text>
<polyline fill="none" stroke="#bfbfbf" points="815,-344.5 870,-344.5 "/>
<text text-anchor="middle" x="842.5" y="-332.5" font-family="Helvetica,sans-Serif" font-size="10.00"> </text>
</g>
<!-- Node14&#45;&gt;Node3 -->
<g id="edge13" class="edge"><title>Node14&#45;&gt;Node3</title>
<path fill="none" stroke="#404040" d="M823.931,-325.242C802.621,-295.298 765.078,-248.02 722.5,-219 658.079,-175.093 574.612,-142.177 516.812,-122.518"/>
<polygon fill="none" stroke="#404040" points="516.624,-122.455 509.665,-124.343 505.246,-118.644 512.205,-116.757 516.624,-122.455"/>
<text text-anchor="middle" x="822.5" y="-260.5" font-family="Helvetica,sans-Serif" font-size="10.00"> &#45;moveTimer_</text>
<text text-anchor="middle" x="822.5" y="-249.5" font-family="Helvetica,sans-Serif" font-size="10.00">&#45;muzzleTimer_</text>
<text text-anchor="middle" x="822.5" y="-238.5" font-family="Helvetica,sans-Serif" font-size="10.00">&#45;shootTimer_</text>
</g>
<!-- Node15 -->
<g id="node13" class="node"><title>Node15</title>
<polygon fill="white" stroke="#bfbfbf" points="892.5,-325.5 892.5,-382.5 924.5,-382.5 924.5,-325.5 892.5,-325.5"/>
<text text-anchor="middle" x="908.5" y="-370.5" font-family="Helvetica,sans-Serif" font-size="10.00">uint</text>
<polyline fill="none" stroke="#bfbfbf" points="892.5,-363.5 924.5,-363.5 "/>
<text text-anchor="middle" x="908.5" y="-351.5" font-family="Helvetica,sans-Serif" font-size="10.00"> </text>
<polyline fill="none" stroke="#bfbfbf" points="892.5,-344.5 924.5,-344.5 "/>
<text text-anchor="middle" x="908.5" y="-332.5" font-family="Helvetica,sans-Serif" font-size="10.00"> </text>
</g>
<!-- Node15&#45;&gt;Node3 -->
<g id="edge15" class="edge"><title>Node15&#45;&gt;Node3</title>
<path fill="none" stroke="#404040" d="M905.526,-325.337C900.801,-295.022 888.761,-246.987 858.5,-219 763.489,-131.127 607.102,-108.472 517.432,-102.942"/>
<polygon fill="none" stroke="#404040" points="517.217,-102.93 511.006,-106.594 505.235,-102.27 511.446,-98.6062 517.217,-102.93"/>
<text text-anchor="middle" x="946.5" y="-277" font-family="Helvetica,sans-Serif" font-size="10.00"> &#45;id_</text>
<text text-anchor="start" x="896.5" y="-266" font-family="Helvetica,sans-Serif" font-size="10.00">&#45;currentWeaponRateOf</text>
<text text-anchor="middle" x="946.5" y="-255" font-family="Helvetica,sans-Serif" font-size="10.00">Fire_</text>
<text text-anchor="start" x="896.5" y="-244" font-family="Helvetica,sans-Serif" font-size="10.00">&#45;currentWeaponRange</text>
<text text-anchor="middle" x="946.5" y="-233" font-family="Helvetica,sans-Serif" font-size="10.00">_</text>
<text text-anchor="middle" x="946.5" y="-222" font-family="Helvetica,sans-Serif" font-size="10.00">&#45;currentWeaponSlot_</text>
</g>
<!-- Node16 -->
<g id="node14" class="node"><title>Node16</title>
<polygon fill="white" stroke="#bfbfbf" points="981,-325.5 981,-382.5 1082,-382.5 1082,-325.5 981,-325.5"/>
<text text-anchor="middle" x="1031.5" y="-370.5" font-family="Helvetica,sans-Serif" font-size="10.00">vector&lt; QPixmap &gt;</text>
<polyline fill="none" stroke="#bfbfbf" points="981,-363.5 1082,-363.5 "/>
<text text-anchor="middle" x="1031.5" y="-351.5" font-family="Helvetica,sans-Serif" font-size="10.00"> </text>
<polyline fill="none" stroke="#bfbfbf" points="981,-344.5 1082,-344.5 "/>
<text text-anchor="middle" x="1031.5" y="-332.5" font-family="Helvetica,sans-Serif" font-size="10.00"> </text>
</g>
<!-- Node16&#45;&gt;Node3 -->
<g id="edge16" class="edge"><title>Node16&#45;&gt;Node3</title>
<path fill="none" stroke="#404040" d="M1033.18,-325.26C1033.41,-294.876 1028.77,-246.78 1000.5,-219 932.625,-152.31 649.978,-119.178 517.54,-107.073"/>
<polygon fill="none" stroke="#404040" points="517.157,-107.038 510.823,-110.486 505.205,-105.966 511.538,-102.518 517.157,-107.038"/>
<text text-anchor="middle" x="1072" y="-255" font-family="Helvetica,sans-Serif" font-size="10.00"> &#45;weaponPixmaps_</text>
<text text-anchor="middle" x="1072" y="-244" font-family="Helvetica,sans-Serif" font-size="10.00">&#45;muzzlePixmaps_</text>
</g>
</g>
</svg>
        <g id="navigator" transform="translate(0 0)" fill="#404254">
                <rect fill="#f2f5e9" fill-opacity="0.5" stroke="#606060" stroke-width=".5" x="0" y="0" width="60" height="60"/>
                <use id="zoomplus" xlink:href="#zoomPlus" x="17" y="9" onmousedown="handleZoom(evt,'in')"/>
                <use id="zoomminus" xlink:href="#zoomMin" x="42" y="9" onmousedown="handleZoom(evt,'out')"/>
                <use id="reset" xlink:href="#resetDef" x="30" y="36" onmousedown="handleReset()"/>
                <g id="arrowUp" xlink:href="#dirArrow" transform="translate(30 24)" onmousedown="handlePan(0,-1)">
                  <use xlink:href="#rim" fill="#404040">
                        <set attributeName="fill" to="#808080" begin="arrowUp.mouseover" end="arrowUp.mouseout"/>
                  </use>
                  <path fill="none" stroke="white" stroke-width="1.5" d="M0,-3.0v7 M-2.5,-0.5L0,-3.0L2.5,-0.5"/>
                </g>
                <g id="arrowRight" xlink:href="#dirArrow" transform="rotate(90) translate(36 -43)" onmousedown="handlePan(1,0)">
                  <use xlink:href="#rim" fill="#404040">
                        <set attributeName="fill" to="#808080" begin="arrowRight.mouseover" end="arrowRight.mouseout"/>
                  </use>
                  <path fill="none" stroke="white" stroke-width="1.5" d="M0,-3.0v7 M-2.5,-0.5L0,-3.0L2.5,-0.5"/>
                </g>
                <g id="arrowDown" xlink:href="#dirArrow" transform="rotate(180) translate(-30 -48)" onmousedown="handlePan(0,1)">
                  <use xlink:href="#rim" fill="#404040">
                        <set attributeName="fill" to="#808080" begin="arrowDown.mouseover" end="arrowDown.mouseout"/>
                  </use>
                  <path fill="none" stroke="white" stroke-width="1.5" d="M0,-3.0v7 M-2.5,-0.5L0,-3.0L2.5,-0.5"/>
                </g>
                <g id="arrowLeft" xlink:href="#dirArrow" transform="rotate(270) translate(-36 17)" onmousedown="handlePan(-1,0)">
                  <use xlink:href="#rim" fill="#404040">
                        <set attributeName="fill" to="#808080" begin="arrowLeft.mouseover" end="arrowLeft.mouseout"/>
                  </use>
                  <path fill="none" stroke="white" stroke-width="1.5" d="M0,-3.0v7 M-2.5,-0.5L0,-3.0L2.5,-0.5"/>
                </g>
        </g>
        <svg viewBox="0 0 15 15" width="100%" height="30px" preserveAspectRatio="xMaxYMin meet">
         <g id="arrow_out" transform="scale(0.3 0.3)">
          <a xlink:href="class_view_1_1_action_scene_p_c__coll__graph_org.svg" target="_base">
           <rect id="button" ry="5" rx="5" y="6" x="6" height="38" width="38"
                fill="#f2f5e9" fill-opacity="0.5" stroke="#606060" stroke-width="1.0"/>
           <path id="arrow"
             d="M 11.500037,31.436501 C 11.940474,20.09759 22.043105,11.32322 32.158766,21.979434 L 37.068811,17.246167 C 37.068811,17.246167 37.088388,32 37.088388,32 L 22.160133,31.978069 C 22.160133,31.978069 26.997745,27.140456 26.997745,27.140456 C 18.528582,18.264221 13.291696,25.230495 11.500037,31.436501 z"
             style="fill:#404040;"/>
          </a>
         </g>
        </svg>
</svg>
