<?xml version="1.0" encoding="UTF-8" standalone="no"?>
<!DOCTYPE svg PUBLIC "-//W3C//DTD SVG 1.1//EN"
 "http://www.w3.org/Graphics/SVG/1.1/DTD/svg11.dtd">
<!-- Generated by graphviz version 2.38.0 (20140413.2041)
 -->
<!-- Title: View::CityScapeStatusDisplay Pages: 1 -->
<svg width="210pt" height="248pt"
 viewBox="0.00 0.00 210.00 248.00" xmlns="http://www.w3.org/2000/svg" xmlns:xlink="http://www.w3.org/1999/xlink">
<g id="graph0" class="graph" transform="scale(1 1) rotate(0) translate(4 244)">
<title>View::CityScapeStatusDisplay</title>
<polygon fill="white" stroke="none" points="-4,4 -4,-244 206,-244 206,4 -4,4"/>
<!-- Node2 -->
<g id="node1" class="node"><title>Node2</title>
<polygon fill="#bfbfbf" stroke="black" points="8,-0.5 8,-134.5 157,-134.5 157,-0.5 8,-0.5"/>
<text text-anchor="middle" x="82.5" y="-122.5" font-family="Helvetica,sans-Serif" font-size="10.00">View::CityScapeStatusDisplay</text>
<polyline fill="none" stroke="black" points="8,-115.5 157,-115.5 "/>
<text text-anchor="middle" x="82.5" y="-103.5" font-family="Helvetica,sans-Serif" font-size="10.00"> </text>
<polyline fill="none" stroke="black" points="8,-96.5 157,-96.5 "/>
<text text-anchor="start" x="16" y="-84.5" font-family="Helvetica,sans-Serif" font-size="10.00">+ CityScapeStatusDisplay()</text>
<text text-anchor="start" x="16" y="-73.5" font-family="Helvetica,sans-Serif" font-size="10.00">+ ~CityScapeStatusDisplay()</text>
<text text-anchor="start" x="16" y="-62.5" font-family="Helvetica,sans-Serif" font-size="10.00">+ setFieldValues()</text>
<text text-anchor="start" x="16" y="-51.5" font-family="Helvetica,sans-Serif" font-size="10.00">+ getName()</text>
<text text-anchor="start" x="16" y="-40.5" font-family="Helvetica,sans-Serif" font-size="10.00">+ getParkedCars()</text>
<text text-anchor="start" x="16" y="-29.5" font-family="Helvetica,sans-Serif" font-size="10.00">+ getParkingSpaces()</text>
<text text-anchor="start" x="16" y="-18.5" font-family="Helvetica,sans-Serif" font-size="10.00">+ getEnemyActivity()</text>
<text text-anchor="start" x="16" y="-7.5" font-family="Helvetica,sans-Serif" font-size="10.00">+ getWorth()</text>
</g>
<!-- Node3 -->
<g id="node2" class="node"><title>Node3</title>
<g id="a_node2"><a xlink:href="class_q_widget.html" target="_top" xlink:title="{QWidget\n||}">
<polygon fill="white" stroke="black" points="0,-182.5 0,-239.5 55,-239.5 55,-182.5 0,-182.5"/>
<text text-anchor="middle" x="27.5" y="-227.5" font-family="Helvetica,sans-Serif" font-size="10.00">QWidget</text>
<polyline fill="none" stroke="black" points="0,-220.5 55,-220.5 "/>
<text text-anchor="middle" x="27.5" y="-208.5" font-family="Helvetica,sans-Serif" font-size="10.00"> </text>
<polyline fill="none" stroke="black" points="0,-201.5 55,-201.5 "/>
<text text-anchor="middle" x="27.5" y="-189.5" font-family="Helvetica,sans-Serif" font-size="10.00"> </text>
</a>
</g>
</g>
<!-- Node3&#45;&gt;Node2 -->
<g id="edge1" class="edge"><title>Node3&#45;&gt;Node2</title>
<path fill="none" stroke="midnightblue" d="M41.9011,-172.95C46.4594,-161.223 51.6441,-147.884 56.7481,-134.753"/>
<polygon fill="none" stroke="midnightblue" points="38.5958,-171.793 38.2351,-182.381 45.1203,-174.329 38.5958,-171.793"/>
</g>
<!-- Node4 -->
<g id="node3" class="node"><title>Node4</title>
<polygon fill="white" stroke="#bfbfbf" points="73,-182.5 73,-239.5 202,-239.5 202,-182.5 73,-182.5"/>
<text text-anchor="middle" x="137.5" y="-227.5" font-family="Helvetica,sans-Serif" font-size="10.00">CityScapeStatusDisplay *</text>
<polyline fill="none" stroke="#bfbfbf" points="73,-220.5 202,-220.5 "/>
<text text-anchor="middle" x="137.5" y="-208.5" font-family="Helvetica,sans-Serif" font-size="10.00"> </text>
<polyline fill="none" stroke="#bfbfbf" points="73,-201.5 202,-201.5 "/>
<text text-anchor="middle" x="137.5" y="-189.5" font-family="Helvetica,sans-Serif" font-size="10.00"> </text>
</g>
<!-- Node4&#45;&gt;Node2 -->
<g id="edge2" class="edge"><title>Node4&#45;&gt;Node2</title>
<path fill="none" stroke="#404040" d="M126.765,-182.381C122.654,-171.806 117.736,-159.153 112.696,-146.185"/>
<polygon fill="none" stroke="#404040" points="112.599,-145.937 106.697,-141.794 108.252,-134.753 114.154,-138.896 112.599,-145.937"/>
<text text-anchor="middle" x="124.5" y="-156" font-family="Helvetica,sans-Serif" font-size="10.00"> &#45;ui</text>
</g>
</g>
</svg>
