<?xml version="1.0" encoding="UTF-8" standalone="no"?>
<!DOCTYPE svg PUBLIC "-//W3C//DTD SVG 1.1//EN"
 "http://www.w3.org/Graphics/SVG/1.1/DTD/svg11.dtd">
<!-- Generated by graphviz version 2.38.0 (20140413.2041)
 -->
<!-- Title: Model::Equipment::reload Pages: 1 -->
<svg width="317pt" height="78pt"
 viewBox="0.00 0.00 317.00 77.50" xmlns="http://www.w3.org/2000/svg" xmlns:xlink="http://www.w3.org/1999/xlink">
<g id="graph0" class="graph" transform="scale(1 1) rotate(0) translate(4 73.5)">
<title>Model::Equipment::reload</title>
<polygon fill="white" stroke="none" points="-4,4 -4,-73.5 313,-73.5 313,4 -4,4"/>
<!-- Node47 -->
<g id="node1" class="node"><title>Node47</title>
<polygon fill="#bfbfbf" stroke="black" points="0,-28 0,-47 128,-47 128,-28 0,-28"/>
<text text-anchor="middle" x="64" y="-35" font-family="Helvetica,sans-Serif" font-size="10.00">Model::Equipment::reload</text>
</g>
<!-- Node48 -->
<g id="node2" class="node"><title>Node48</title>
<g id="a_node2"><a xlink:href="class_model_1_1_player.html#ad88f13bf7bb8b6945cc67c5888254846" target="_top" xlink:title="reloadWeapon lataa actorin aseen halutulla ammusmäärällä. ">
<polygon fill="white" stroke="black" points="164,-50 164,-69 309,-69 309,-50 164,-50"/>
<text text-anchor="middle" x="236.5" y="-57" font-family="Helvetica,sans-Serif" font-size="10.00">Model::Player::reloadWeapon</text>
</a>
</g>
</g>
<!-- Node47&#45;&gt;Node48 -->
<g id="edge1" class="edge"><title>Node47&#45;&gt;Node48</title>
<path fill="none" stroke="midnightblue" d="M137.969,-46.9153C146.542,-48.0216 155.285,-49.1497 163.84,-50.2536"/>
<polygon fill="midnightblue" stroke="midnightblue" points="138.369,-43.4381 128.003,-45.6295 137.473,-50.3805 138.369,-43.4381"/>
</g>
<!-- Node49 -->
<g id="node3" class="node"><title>Node49</title>
<g id="a_node3"><a xlink:href="class_model_1_1_cyber_teekkari.html#ac1b9d1897cda69da51480021fbf80055" target="_top" xlink:title="reloadWeapon lataa actorin aseen halutulla ammusmäärällä. ">
<polygon fill="white" stroke="black" points="181,-0.5 181,-30.5 292,-30.5 292,-0.5 181,-0.5"/>
<text text-anchor="start" x="189" y="-18.5" font-family="Helvetica,sans-Serif" font-size="10.00">Model::CyberTeekkari</text>
<text text-anchor="middle" x="236.5" y="-7.5" font-family="Helvetica,sans-Serif" font-size="10.00">::reloadWeapon</text>
</a>
</g>
</g>
<!-- Node47&#45;&gt;Node49 -->
<g id="edge2" class="edge"><title>Node47&#45;&gt;Node49</title>
<path fill="none" stroke="midnightblue" d="M138.303,-28.0415C152.591,-26.1979 167.336,-24.2954 180.889,-22.5466"/>
<polygon fill="midnightblue" stroke="midnightblue" points="137.473,-24.6195 128.003,-29.3705 138.369,-31.5619 137.473,-24.6195"/>
</g>
</g>
</svg>
