<?xml version="1.0" encoding="UTF-8" standalone="no"?>
<!DOCTYPE svg PUBLIC "-//W3C//DTD SVG 1.1//EN"
 "http://www.w3.org/Graphics/SVG/1.1/DTD/svg11.dtd">
<!-- Generated by graphviz version 2.38.0 (20140413.2041)
 -->
<!-- Title: Model::Model::calculateAdditionalCost Pages: 1 -->
<svg width="373pt" height="137pt"
 viewBox="0.00 0.00 373.00 137.00" xmlns="http://www.w3.org/2000/svg" xmlns:xlink="http://www.w3.org/1999/xlink">
<g id="graph0" class="graph" transform="scale(1 1) rotate(0) translate(4 133)">
<title>Model::Model::calculateAdditionalCost</title>
<polygon fill="white" stroke="none" points="-4,4 -4,-133 369,-133 369,4 -4,4"/>
<!-- Node14 -->
<g id="node1" class="node"><title>Node14</title>
<polygon fill="#bfbfbf" stroke="black" points="0,-55 0,-74 183,-74 183,-55 0,-55"/>
<text text-anchor="middle" x="91.5" y="-62" font-family="Helvetica,sans-Serif" font-size="10.00">Model::Model::calculateAdditionalCost</text>
</g>
<!-- Node15 -->
<g id="node2" class="node"><title>Node15</title>
<g id="a_node2"><a xlink:href="class_interface_1_1_equipment_interface.html#a3ed3cd94017850c3f0832bb76989ffdf" target="_top" xlink:title="getAmmo palauttaa sen hetkisen määrän ammuksia. ">
<polygon fill="white" stroke="black" points="220.5,-98.5 220.5,-128.5 363.5,-128.5 363.5,-98.5 220.5,-98.5"/>
<text text-anchor="start" x="228.5" y="-116.5" font-family="Helvetica,sans-Serif" font-size="10.00">Interface::EquipmentInterface</text>
<text text-anchor="middle" x="292" y="-105.5" font-family="Helvetica,sans-Serif" font-size="10.00">::getAmmo</text>
</a>
</g>
</g>
<!-- Node14&#45;&gt;Node15 -->
<g id="edge1" class="edge"><title>Node14&#45;&gt;Node15</title>
<path fill="none" stroke="midnightblue" d="M131.244,-74.064C156.485,-80.2947 190.168,-88.6094 220.097,-95.9974"/>
<polygon fill="midnightblue" stroke="midnightblue" points="219.538,-99.4644 230.085,-98.463 221.215,-92.6684 219.538,-99.4644"/>
</g>
<!-- Node16 -->
<g id="node3" class="node"><title>Node16</title>
<g id="a_node3"><a xlink:href="class_interface_1_1_equipment_interface.html#ab1f84a427430d2be47745e9d62c08d17" target="_top" xlink:title="getMaximumAmmoCapacity palauttaa ammuksien mahdollisen maksimimäärän. ">
<polygon fill="white" stroke="black" points="219,-49.5 219,-79.5 365,-79.5 365,-49.5 219,-49.5"/>
<text text-anchor="start" x="227" y="-67.5" font-family="Helvetica,sans-Serif" font-size="10.00">Interface::EquipmentInterface</text>
<text text-anchor="middle" x="292" y="-56.5" font-family="Helvetica,sans-Serif" font-size="10.00">::getMaximumAmmoCapacity</text>
</a>
</g>
</g>
<!-- Node14&#45;&gt;Node16 -->
<g id="edge2" class="edge"><title>Node14&#45;&gt;Node16</title>
<path fill="none" stroke="midnightblue" d="M183.037,-64.5C191.542,-64.5 200.133,-64.5 208.558,-64.5"/>
<polygon fill="midnightblue" stroke="midnightblue" points="208.735,-68.0001 218.735,-64.5 208.735,-61.0001 208.735,-68.0001"/>
</g>
<!-- Node17 -->
<g id="node4" class="node"><title>Node17</title>
<g id="a_node4"><a xlink:href="class_interface_1_1_equipment_interface.html#ace854f7b94a063252c87cf6b2e57d48d" target="_top" xlink:title="getPrice palauttaa tavaran hinnan. ">
<polygon fill="white" stroke="black" points="220.5,-0.5 220.5,-30.5 363.5,-30.5 363.5,-0.5 220.5,-0.5"/>
<text text-anchor="start" x="228.5" y="-18.5" font-family="Helvetica,sans-Serif" font-size="10.00">Interface::EquipmentInterface</text>
<text text-anchor="middle" x="292" y="-7.5" font-family="Helvetica,sans-Serif" font-size="10.00">::getPrice</text>
</a>
</g>
</g>
<!-- Node14&#45;&gt;Node17 -->
<g id="edge3" class="edge"><title>Node14&#45;&gt;Node17</title>
<path fill="none" stroke="midnightblue" d="M131.244,-54.936C156.485,-48.7053 190.168,-40.3906 220.097,-33.0026"/>
<polygon fill="midnightblue" stroke="midnightblue" points="221.215,-36.3316 230.085,-30.537 219.538,-29.5356 221.215,-36.3316"/>
</g>
</g>
</svg>
