<?xml version="1.0" encoding="UTF-8" standalone="no"?>
<!DOCTYPE svg PUBLIC "-//W3C//DTD SVG 1.1//EN"
 "http://www.w3.org/Graphics/SVG/1.1/DTD/svg11.dtd">
<!-- Generated by graphviz version 2.38.0 (20140413.2041)
 -->
<!-- Title: View::ActionSceneEnemyProjectileExplosion::nextFrame Pages: 1 -->
<svg width="406pt" height="50pt"
 viewBox="0.00 0.00 406.00 50.00" xmlns="http://www.w3.org/2000/svg" xmlns:xlink="http://www.w3.org/1999/xlink">
<g id="graph0" class="graph" transform="scale(1 1) rotate(0) translate(4 46)">
<title>View::ActionSceneEnemyProjectileExplosion::nextFrame</title>
<polygon fill="white" stroke="none" points="-4,4 -4,-46 402,-46 402,4 -4,4"/>
<!-- Node6 -->
<g id="node1" class="node"><title>Node6</title>
<polygon fill="#bfbfbf" stroke="black" points="0,-6 0,-36 170,-36 170,-6 0,-6"/>
<text text-anchor="start" x="8" y="-24" font-family="Helvetica,sans-Serif" font-size="10.00">View::ActionSceneEnemyProjectile</text>
<text text-anchor="middle" x="85" y="-13" font-family="Helvetica,sans-Serif" font-size="10.00">Explosion::nextFrame</text>
</g>
<!-- Node7 -->
<g id="node2" class="node"><title>Node7</title>
<g id="a_node2"><a xlink:href="class_view_1_1_action_scene_enemy_projectile_explosion.html#ac12219ed22e8021fc210be31a4c257ef" target="_top" xlink:title="View::ActionSceneEnemyProjectile\lExplosion::ActionSceneEnemyProjectile\lExplosion">
<polygon fill="white" stroke="black" points="206,-0.5 206,-41.5 398,-41.5 398,-0.5 206,-0.5"/>
<text text-anchor="start" x="214" y="-29.5" font-family="Helvetica,sans-Serif" font-size="10.00">View::ActionSceneEnemyProjectile</text>
<text text-anchor="start" x="214" y="-18.5" font-family="Helvetica,sans-Serif" font-size="10.00">Explosion::ActionSceneEnemyProjectile</text>
<text text-anchor="middle" x="302" y="-7.5" font-family="Helvetica,sans-Serif" font-size="10.00">Explosion</text>
</a>
</g>
</g>
<!-- Node6&#45;&gt;Node7 -->
<g id="edge1" class="edge"><title>Node6&#45;&gt;Node7</title>
<path fill="none" stroke="midnightblue" d="M180.066,-21C188.656,-21 197.363,-21 205.962,-21"/>
<polygon fill="midnightblue" stroke="midnightblue" points="180.048,-17.5001 170.048,-21 180.048,-24.5001 180.048,-17.5001"/>
</g>
</g>
</svg>
