<?xml version="1.0" encoding="UTF-8" standalone="no"?>
<!DOCTYPE svg PUBLIC "-//W3C//DTD SVG 1.1//EN"
 "http://www.w3.org/Graphics/SVG/1.1/DTD/svg11.dtd">
<!-- Generated by graphviz version 2.38.0 (20140413.2041)
 -->
<!-- Title: View::ActionSceneNPC Pages: 1 -->
<!--zoomable 601 -->
<svg id="main" version="1.1" xmlns="http://www.w3.org/2000/svg" xmlns:xlink="http://www.w3.org/1999/xlink" xml:space="preserve" onload="init(evt)">
<style type="text/css"><![CDATA[
.edge:hover path { stroke: red; }
.edge:hover polygon { stroke: red; fill: red; }
]]></style>
<script type="text/javascript"><![CDATA[
var edges = document.getElementsByTagName('g');
if (edges && edges.length) {
  for (var i=0;i<edges.length;i++) {
    if (edges[i].id.substr(0,4)=='edge') {
      edges[i].setAttribute('class','edge');
    }
  }
}
]]></script>
        <defs>
                <circle id="rim" cx="0" cy="0" r="7"/>
                <circle id="rim2" cx="0" cy="0" r="3.5"/>
                <g id="zoomPlus">
                        <use xlink:href="#rim" fill="#404040">
                                <set attributeName="fill" to="#808080" begin="zoomplus.mouseover" end="zoomplus.mouseout"/>
                        </use>
                        <path d="M-4,0h8M0,-4v8" fill="none" stroke="white" stroke-width="1.5" pointer-events="none"/>
                </g>
                <g id="zoomMin">
                        <use xlink:href="#rim" fill="#404040">
                                <set attributeName="fill" to="#808080" begin="zoomminus.mouseover" end="zoomminus.mouseout"/>
                        </use>
                        <path d="M-4,0h8" fill="none" stroke="white" stroke-width="1.5" pointer-events="none"/>
                </g>
                <g id="dirArrow">
                        <path fill="none" stroke="white" stroke-width="1.5" d="M0,-3.0v7 M-2.5,-0.5L0,-3.0L2.5,-0.5"/>
                </g>
               <g id="resetDef">
                       <use xlink:href="#rim2" fill="#404040">
                               <set attributeName="fill" to="#808080" begin="reset.mouseover" end="reset.mouseout"/>
                       </use>
               </g>
        </defs>

<script type="text/javascript">
var viewWidth = 842;
var viewHeight = 601;
var sectionId = 'dynsection-1';
</script>
<script xlink:href="svgpan.js"/>
<svg id="graph" class="graph">
<g id="viewport">
<title>View::ActionSceneNPC</title>
<polygon fill="white" stroke="none" points="-4,4 -4,-597 837.5,-597 837.5,4 -4,4"/>
<!-- Node3 -->
<g id="node1" class="node"><title>Node3</title>
<polygon fill="#bfbfbf" stroke="black" points="447,-0.5 447,-200.5 566,-200.5 566,-0.5 447,-0.5"/>
<text text-anchor="middle" x="506.5" y="-188.5" font-family="Helvetica,sans-Serif" font-size="10.00">View::ActionSceneNPC</text>
<polyline fill="none" stroke="black" points="447,-181.5 566,-181.5 "/>
<text text-anchor="middle" x="506.5" y="-169.5" font-family="Helvetica,sans-Serif" font-size="10.00"> </text>
<polyline fill="none" stroke="black" points="447,-162.5 566,-162.5 "/>
<text text-anchor="start" x="455" y="-150.5" font-family="Helvetica,sans-Serif" font-size="10.00">+ ActionSceneNPC()</text>
<text text-anchor="start" x="455" y="-139.5" font-family="Helvetica,sans-Serif" font-size="10.00">+ ~ActionSceneNPC()</text>
<text text-anchor="start" x="455" y="-128.5" font-family="Helvetica,sans-Serif" font-size="10.00">+ getX()</text>
<text text-anchor="start" x="455" y="-117.5" font-family="Helvetica,sans-Serif" font-size="10.00">+ getY()</text>
<text text-anchor="start" x="455" y="-106.5" font-family="Helvetica,sans-Serif" font-size="10.00">+ moveToPoint()</text>
<text text-anchor="start" x="455" y="-95.5" font-family="Helvetica,sans-Serif" font-size="10.00">+ addFeet()</text>
<text text-anchor="start" x="455" y="-84.5" font-family="Helvetica,sans-Serif" font-size="10.00">+ rotateFeet()</text>
<text text-anchor="start" x="455" y="-73.5" font-family="Helvetica,sans-Serif" font-size="10.00">+ removeFeet()</text>
<text text-anchor="start" x="455" y="-62.5" font-family="Helvetica,sans-Serif" font-size="10.00">+ setDead()</text>
<text text-anchor="start" x="455" y="-51.5" font-family="Helvetica,sans-Serif" font-size="10.00">+ setRunSpeed()</text>
<text text-anchor="start" x="455" y="-40.5" font-family="Helvetica,sans-Serif" font-size="10.00">and 7 more...</text>
<text text-anchor="start" x="455" y="-29.5" font-family="Helvetica,sans-Serif" font-size="10.00">+ step()</text>
<text text-anchor="start" x="455" y="-18.5" font-family="Helvetica,sans-Serif" font-size="10.00">+ aiAction()</text>
<text text-anchor="start" x="455" y="-7.5" font-family="Helvetica,sans-Serif" font-size="10.00">+ unleashEnemy()</text>
</g>
<!-- Node4 -->
<g id="node2" class="node"><title>Node4</title>
<g id="a_node2"><a xlink:href="class_q_object.html" target="_top" xlink:title="{QObject\n||}">
<polygon fill="white" stroke="black" points="56,-292.5 56,-349.5 109,-349.5 109,-292.5 56,-292.5"/>
<text text-anchor="middle" x="82.5" y="-337.5" font-family="Helvetica,sans-Serif" font-size="10.00">QObject</text>
<polyline fill="none" stroke="black" points="56,-330.5 109,-330.5 "/>
<text text-anchor="middle" x="82.5" y="-318.5" font-family="Helvetica,sans-Serif" font-size="10.00"> </text>
<polyline fill="none" stroke="black" points="56,-311.5 109,-311.5 "/>
<text text-anchor="middle" x="82.5" y="-299.5" font-family="Helvetica,sans-Serif" font-size="10.00"> </text>
</a>
</g>
</g>
<!-- Node4&#45;&gt;Node3 -->
<g id="edge1" class="edge"><title>Node4&#45;&gt;Node3</title>
<path fill="none" stroke="midnightblue" d="M89.4009,-282.508C95.1473,-261.199 105.427,-235.55 123.5,-219 214.805,-135.391 364.304,-111.244 446.929,-104.292"/>
<polygon fill="none" stroke="midnightblue" points="85.9942,-281.705 86.999,-292.252 92.7907,-283.38 85.9942,-281.705"/>
</g>
<!-- Node5 -->
<g id="node3" class="node"><title>Node5</title>
<g id="a_node3"><a xlink:href="class_q_graphics_pixmap_item.html" target="_top" xlink:title="{QGraphicsPixmapItem\n||}">
<polygon fill="white" stroke="black" points="0,-430.5 0,-487.5 115,-487.5 115,-430.5 0,-430.5"/>
<text text-anchor="middle" x="57.5" y="-475.5" font-family="Helvetica,sans-Serif" font-size="10.00">QGraphicsPixmapItem</text>
<polyline fill="none" stroke="black" points="0,-468.5 115,-468.5 "/>
<text text-anchor="middle" x="57.5" y="-456.5" font-family="Helvetica,sans-Serif" font-size="10.00"> </text>
<polyline fill="none" stroke="black" points="0,-449.5 115,-449.5 "/>
<text text-anchor="middle" x="57.5" y="-437.5" font-family="Helvetica,sans-Serif" font-size="10.00"> </text>
</a>
</g>
</g>
<!-- Node5&#45;&gt;Node3 -->
<g id="edge2" class="edge"><title>Node5&#45;&gt;Node3</title>
<path fill="none" stroke="midnightblue" d="M84.1709,-422.119C119.902,-374.616 182.097,-294.05 210.5,-270 284.058,-207.716 383.946,-156.435 446.813,-127.396"/>
<polygon fill="none" stroke="midnightblue" points="81.2359,-420.199 78.0341,-430.298 86.8352,-424.4 81.2359,-420.199"/>
</g>
<!-- Node9 -->
<g id="node7" class="node"><title>Node9</title>
<g id="a_node7"><a xlink:href="class_view_1_1_action_scene_feet.html" target="_top" xlink:title="{View::ActionSceneFeet\n||+ ActionSceneFeet()\l+ ~ActionSceneFeet()\l+ setPosition()\l+ setRunning()\l+ nextFrame()\l}">
<polygon fill="white" stroke="black" points="220,-270.5 220,-371.5 339,-371.5 339,-270.5 220,-270.5"/>
<text text-anchor="middle" x="279.5" y="-359.5" font-family="Helvetica,sans-Serif" font-size="10.00">View::ActionSceneFeet</text>
<polyline fill="none" stroke="black" points="220,-352.5 339,-352.5 "/>
<text text-anchor="middle" x="279.5" y="-340.5" font-family="Helvetica,sans-Serif" font-size="10.00"> </text>
<polyline fill="none" stroke="black" points="220,-333.5 339,-333.5 "/>
<text text-anchor="start" x="228" y="-321.5" font-family="Helvetica,sans-Serif" font-size="10.00">+ ActionSceneFeet()</text>
<text text-anchor="start" x="228" y="-310.5" font-family="Helvetica,sans-Serif" font-size="10.00">+ ~ActionSceneFeet()</text>
<text text-anchor="start" x="228" y="-299.5" font-family="Helvetica,sans-Serif" font-size="10.00">+ setPosition()</text>
<text text-anchor="start" x="228" y="-288.5" font-family="Helvetica,sans-Serif" font-size="10.00">+ setRunning()</text>
<text text-anchor="start" x="228" y="-277.5" font-family="Helvetica,sans-Serif" font-size="10.00">+ nextFrame()</text>
</a>
</g>
</g>
<!-- Node5&#45;&gt;Node9 -->
<g id="edge7" class="edge"><title>Node5&#45;&gt;Node9</title>
<path fill="none" stroke="midnightblue" d="M123.965,-425.71C132.318,-421.271 140.671,-416.64 148.5,-412 172.475,-397.791 197.923,-380.785 219.95,-365.401"/>
<polygon fill="none" stroke="midnightblue" points="122.162,-422.703 114.927,-430.442 125.409,-428.904 122.162,-422.703"/>
</g>
<!-- Node6 -->
<g id="node4" class="node"><title>Node6</title>
<polygon fill="white" stroke="#bfbfbf" points="493,-292.5 493,-349.5 538,-349.5 538,-292.5 493,-292.5"/>
<text text-anchor="middle" x="515.5" y="-337.5" font-family="Helvetica,sans-Serif" font-size="10.00">double</text>
<polyline fill="none" stroke="#bfbfbf" points="493,-330.5 538,-330.5 "/>
<text text-anchor="middle" x="515.5" y="-318.5" font-family="Helvetica,sans-Serif" font-size="10.00"> </text>
<polyline fill="none" stroke="#bfbfbf" points="493,-311.5 538,-311.5 "/>
<text text-anchor="middle" x="515.5" y="-299.5" font-family="Helvetica,sans-Serif" font-size="10.00"> </text>
</g>
<!-- Node6&#45;&gt;Node3 -->
<g id="edge3" class="edge"><title>Node6&#45;&gt;Node3</title>
<path fill="none" stroke="#404040" d="M511.535,-292.271C509.957,-279.965 508.323,-265.288 507.5,-252 506.714,-239.321 506.191,-226.03 505.859,-212.816"/>
<polygon fill="none" stroke="#404040" points="505.857,-212.721 501.732,-206.806 505.606,-200.723 509.73,-206.638 505.857,-212.721"/>
<text text-anchor="middle" x="532.5" y="-244" font-family="Helvetica,sans-Serif" font-size="10.00"> &#45;stepSize_</text>
<text text-anchor="middle" x="532.5" y="-233" font-family="Helvetica,sans-Serif" font-size="10.00">&#45;dy_</text>
<text text-anchor="middle" x="532.5" y="-222" font-family="Helvetica,sans-Serif" font-size="10.00">&#45;dx_</text>
</g>
<!-- Node7 -->
<g id="node5" class="node"><title>Node7</title>
<polygon fill="white" stroke="#bfbfbf" points="556,-292.5 556,-349.5 609,-349.5 609,-292.5 556,-292.5"/>
<text text-anchor="middle" x="582.5" y="-337.5" font-family="Helvetica,sans-Serif" font-size="10.00">QPointF</text>
<polyline fill="none" stroke="#bfbfbf" points="556,-330.5 609,-330.5 "/>
<text text-anchor="middle" x="582.5" y="-318.5" font-family="Helvetica,sans-Serif" font-size="10.00"> </text>
<polyline fill="none" stroke="#bfbfbf" points="556,-311.5 609,-311.5 "/>
<text text-anchor="middle" x="582.5" y="-299.5" font-family="Helvetica,sans-Serif" font-size="10.00"> </text>
</g>
<!-- Node7&#45;&gt;Node3 -->
<g id="edge4" class="edge"><title>Node7&#45;&gt;Node3</title>
<path fill="none" stroke="#404040" d="M576.931,-292.208C572.51,-271.717 565.717,-243.299 557.5,-219 556.739,-216.749 555.952,-214.48 555.144,-212.201"/>
<polygon fill="none" stroke="#404040" points="555.069,-211.996 549.246,-207.742 550.935,-200.731 556.757,-204.986 555.069,-211.996"/>
<text text-anchor="middle" x="595" y="-233" font-family="Helvetica,sans-Serif" font-size="10.00"> &#45;moveDest_</text>
</g>
<!-- Node8 -->
<g id="node6" class="node"><title>Node8</title>
<polygon fill="white" stroke="#bfbfbf" points="631.5,-292.5 631.5,-349.5 681.5,-349.5 681.5,-292.5 631.5,-292.5"/>
<text text-anchor="middle" x="656.5" y="-337.5" font-family="Helvetica,sans-Serif" font-size="10.00">QString</text>
<polyline fill="none" stroke="#bfbfbf" points="631.5,-330.5 681.5,-330.5 "/>
<text text-anchor="middle" x="656.5" y="-318.5" font-family="Helvetica,sans-Serif" font-size="10.00"> </text>
<polyline fill="none" stroke="#bfbfbf" points="631.5,-311.5 681.5,-311.5 "/>
<text text-anchor="middle" x="656.5" y="-299.5" font-family="Helvetica,sans-Serif" font-size="10.00"> </text>
</g>
<!-- Node8&#45;&gt;Node3 -->
<g id="edge5" class="edge"><title>Node8&#45;&gt;Node3</title>
<path fill="none" stroke="#404040" d="M652.192,-292.314C647.996,-271.103 640.189,-241.717 626.5,-219 612.859,-196.363 593.833,-175.025 574.946,-156.905"/>
<polygon fill="none" stroke="#404040" points="574.771,-156.74 567.656,-155.565 566.005,-148.545 573.12,-149.721 574.771,-156.74"/>
<text text-anchor="middle" x="663" y="-233" font-family="Helvetica,sans-Serif" font-size="10.00"> &#45;aiMode_</text>
</g>
<!-- Node9&#45;&gt;Node3 -->
<g id="edge6" class="edge"><title>Node9&#45;&gt;Node3</title>
<path fill="none" stroke="#404040" d="M331.01,-270.419C362.591,-240.021 403.408,-200.732 437.729,-167.696"/>
<polygon fill="none" stroke="#404040" points="438.118,-167.322 439.667,-160.279 446.763,-159 445.215,-166.043 438.118,-167.322"/>
<text text-anchor="middle" x="393.5" y="-233" font-family="Helvetica,sans-Serif" font-size="10.00"> &#45;feet_</text>
</g>
<!-- Node10 -->
<g id="node8" class="node"><title>Node10</title>
<polygon fill="white" stroke="#bfbfbf" points="133.5,-430.5 133.5,-487.5 257.5,-487.5 257.5,-430.5 133.5,-430.5"/>
<text text-anchor="middle" x="195.5" y="-475.5" font-family="Helvetica,sans-Serif" font-size="10.00">std::vector&lt; QPixmap *&gt;</text>
<polyline fill="none" stroke="#bfbfbf" points="133.5,-468.5 257.5,-468.5 "/>
<text text-anchor="middle" x="195.5" y="-456.5" font-family="Helvetica,sans-Serif" font-size="10.00"> </text>
<polyline fill="none" stroke="#bfbfbf" points="133.5,-449.5 257.5,-449.5 "/>
<text text-anchor="middle" x="195.5" y="-437.5" font-family="Helvetica,sans-Serif" font-size="10.00"> </text>
</g>
<!-- Node10&#45;&gt;Node9 -->
<g id="edge8" class="edge"><title>Node10&#45;&gt;Node9</title>
<path fill="none" stroke="#404040" d="M200.019,-430.319C202.903,-417.476 207.464,-402.356 214.5,-390 216.111,-387.171 217.866,-384.369 219.732,-381.609"/>
<polygon fill="none" stroke="#404040" points="219.817,-381.492 220.142,-374.288 226.916,-371.817 226.592,-379.021 219.817,-381.492"/>
<text text-anchor="middle" x="245" y="-404" font-family="Helvetica,sans-Serif" font-size="10.00"> &#45;runFrames_</text>
<text text-anchor="middle" x="245" y="-393" font-family="Helvetica,sans-Serif" font-size="10.00">&#45;walkFrames_</text>
</g>
<!-- Node11 -->
<g id="node9" class="node"><title>Node11</title>
<polygon fill="white" stroke="#bfbfbf" points="163.5,-535.5 163.5,-592.5 227.5,-592.5 227.5,-535.5 163.5,-535.5"/>
<text text-anchor="middle" x="195.5" y="-580.5" font-family="Helvetica,sans-Serif" font-size="10.00">QPixmap *</text>
<polyline fill="none" stroke="#bfbfbf" points="163.5,-573.5 227.5,-573.5 "/>
<text text-anchor="middle" x="195.5" y="-561.5" font-family="Helvetica,sans-Serif" font-size="10.00"> </text>
<polyline fill="none" stroke="#bfbfbf" points="163.5,-554.5 227.5,-554.5 "/>
<text text-anchor="middle" x="195.5" y="-542.5" font-family="Helvetica,sans-Serif" font-size="10.00"> </text>
</g>
<!-- Node11&#45;&gt;Node10 -->
<g id="edge9" class="edge"><title>Node11&#45;&gt;Node10</title>
<path fill="none" stroke="#404040" d="M195.5,-535.398C195.5,-524.545 195.5,-511.873 195.5,-500.049"/>
<polygon fill="none" stroke="#404040" points="195.5,-499.678 191.5,-493.678 195.5,-487.678 199.5,-493.678 195.5,-499.678"/>
<text text-anchor="middle" x="220" y="-509" font-family="Helvetica,sans-Serif" font-size="10.00"> +elements</text>
</g>
<!-- Node12 -->
<g id="node10" class="node"><title>Node12</title>
<polygon fill="white" stroke="#bfbfbf" points="276,-430.5 276,-487.5 305,-487.5 305,-430.5 276,-430.5"/>
<text text-anchor="middle" x="290.5" y="-475.5" font-family="Helvetica,sans-Serif" font-size="10.00">int</text>
<polyline fill="none" stroke="#bfbfbf" points="276,-468.5 305,-468.5 "/>
<text text-anchor="middle" x="290.5" y="-456.5" font-family="Helvetica,sans-Serif" font-size="10.00"> </text>
<polyline fill="none" stroke="#bfbfbf" points="276,-449.5 305,-449.5 "/>
<text text-anchor="middle" x="290.5" y="-437.5" font-family="Helvetica,sans-Serif" font-size="10.00"> </text>
</g>
<!-- Node12&#45;&gt;Node9 -->
<g id="edge10" class="edge"><title>Node12&#45;&gt;Node9</title>
<path fill="none" stroke="#404040" d="M283.554,-430.421C282.302,-424.388 281.179,-418.009 280.5,-412 279.475,-402.931 278.865,-393.316 278.535,-383.875"/>
<polygon fill="none" stroke="#404040" points="278.529,-383.623 274.391,-377.717 278.251,-371.626 282.389,-377.532 278.529,-383.623"/>
<text text-anchor="middle" x="315.5" y="-398.5" font-family="Helvetica,sans-Serif" font-size="10.00"> &#45;frameCounter_</text>
</g>
<!-- Node13 -->
<g id="node11" class="node"><title>Node13</title>
<polygon fill="white" stroke="#bfbfbf" points="384,-430.5 384,-487.5 419,-487.5 419,-430.5 384,-430.5"/>
<text text-anchor="middle" x="401.5" y="-475.5" font-family="Helvetica,sans-Serif" font-size="10.00">bool</text>
<polyline fill="none" stroke="#bfbfbf" points="384,-468.5 419,-468.5 "/>
<text text-anchor="middle" x="401.5" y="-456.5" font-family="Helvetica,sans-Serif" font-size="10.00"> </text>
<polyline fill="none" stroke="#bfbfbf" points="384,-449.5 419,-449.5 "/>
<text text-anchor="middle" x="401.5" y="-437.5" font-family="Helvetica,sans-Serif" font-size="10.00"> </text>
</g>
<!-- Node13&#45;&gt;Node3 -->
<g id="edge13" class="edge"><title>Node13&#45;&gt;Node3</title>
<path fill="none" stroke="#404040" d="M410.518,-430.426C412.315,-424.393 414.083,-418.013 415.5,-412 430.181,-349.7 422.246,-331.637 439.5,-270 444.831,-250.956 451.58,-231.112 458.73,-212.008"/>
<polygon fill="none" stroke="#404040" points="458.827,-211.754 457.226,-204.723 463.101,-200.541 464.702,-207.572 458.827,-211.754"/>
<text text-anchor="middle" x="461.5" y="-335" font-family="Helvetica,sans-Serif" font-size="10.00"> &#45;moving_</text>
<text text-anchor="middle" x="461.5" y="-324" font-family="Helvetica,sans-Serif" font-size="10.00">&#45;dead_</text>
<text text-anchor="middle" x="461.5" y="-313" font-family="Helvetica,sans-Serif" font-size="10.00">&#45;run_</text>
<text text-anchor="middle" x="461.5" y="-302" font-family="Helvetica,sans-Serif" font-size="10.00">&#45;inScene_</text>
</g>
<!-- Node13&#45;&gt;Node9 -->
<g id="edge11" class="edge"><title>Node13&#45;&gt;Node9</title>
<path fill="none" stroke="#404040" d="M383.792,-432.362C374.385,-419.285 362.344,-403.362 350.5,-390 347.698,-386.839 344.774,-383.653 341.778,-380.478"/>
<polygon fill="none" stroke="#404040" points="341.523,-380.213 334.477,-378.677 333.185,-371.583 340.231,-373.119 341.523,-380.213"/>
<text text-anchor="middle" x="390" y="-398.5" font-family="Helvetica,sans-Serif" font-size="10.00"> &#45;running_</text>
</g>
<!-- Node14 -->
<g id="node12" class="node"><title>Node14</title>
<polygon fill="white" stroke="#bfbfbf" points="700,-292.5 700,-349.5 755,-349.5 755,-292.5 700,-292.5"/>
<text text-anchor="middle" x="727.5" y="-337.5" font-family="Helvetica,sans-Serif" font-size="10.00">QTimer *</text>
<polyline fill="none" stroke="#bfbfbf" points="700,-330.5 755,-330.5 "/>
<text text-anchor="middle" x="727.5" y="-318.5" font-family="Helvetica,sans-Serif" font-size="10.00"> </text>
<polyline fill="none" stroke="#bfbfbf" points="700,-311.5 755,-311.5 "/>
<text text-anchor="middle" x="727.5" y="-299.5" font-family="Helvetica,sans-Serif" font-size="10.00"> </text>
</g>
<!-- Node14&#45;&gt;Node3 -->
<g id="edge12" class="edge"><title>Node14&#45;&gt;Node3</title>
<path fill="none" stroke="#404040" d="M721.794,-292.318C716.21,-270.554 705.939,-240.433 688.5,-219 658.794,-182.491 614.638,-153.597 577.259,-133.598"/>
<polygon fill="none" stroke="#404040" points="577.047,-133.487 569.877,-134.258 566.408,-127.937 573.578,-127.166 577.047,-133.487"/>
<text text-anchor="middle" x="742" y="-244" font-family="Helvetica,sans-Serif" font-size="10.00"> &#45;moveTimer_</text>
<text text-anchor="middle" x="742" y="-233" font-family="Helvetica,sans-Serif" font-size="10.00">&#45;unleashTimer_</text>
<text text-anchor="middle" x="742" y="-222" font-family="Helvetica,sans-Serif" font-size="10.00">&#45;aiTimer_</text>
</g>
<!-- Node15 -->
<g id="node13" class="node"><title>Node15</title>
<polygon fill="white" stroke="#bfbfbf" points="799.5,-292.5 799.5,-349.5 831.5,-349.5 831.5,-292.5 799.5,-292.5"/>
<text text-anchor="middle" x="815.5" y="-337.5" font-family="Helvetica,sans-Serif" font-size="10.00">uint</text>
<polyline fill="none" stroke="#bfbfbf" points="799.5,-330.5 831.5,-330.5 "/>
<text text-anchor="middle" x="815.5" y="-318.5" font-family="Helvetica,sans-Serif" font-size="10.00"> </text>
<polyline fill="none" stroke="#bfbfbf" points="799.5,-311.5 831.5,-311.5 "/>
<text text-anchor="middle" x="815.5" y="-299.5" font-family="Helvetica,sans-Serif" font-size="10.00"> </text>
</g>
<!-- Node15&#45;&gt;Node3 -->
<g id="edge14" class="edge"><title>Node15&#45;&gt;Node3</title>
<path fill="none" stroke="#404040" d="M811.835,-292.419C807.557,-270.126 798.475,-239.231 779.5,-219 725.723,-161.664 639.272,-130.958 578.079,-115.491"/>
<polygon fill="none" stroke="#404040" points="577.854,-115.437 571.078,-117.904 566.194,-112.598 572.97,-110.131 577.854,-115.437"/>
<text text-anchor="middle" x="816.5" y="-238.5" font-family="Helvetica,sans-Serif" font-size="10.00"> &#45;id_</text>
<text text-anchor="middle" x="816.5" y="-227.5" font-family="Helvetica,sans-Serif" font-size="10.00">&#45;target_</text>
</g>
</g>
</svg>
        <g id="navigator" transform="translate(0 0)" fill="#404254">
                <rect fill="#f2f5e9" fill-opacity="0.5" stroke="#606060" stroke-width=".5" x="0" y="0" width="60" height="60"/>
                <use id="zoomplus" xlink:href="#zoomPlus" x="17" y="9" onmousedown="handleZoom(evt,'in')"/>
                <use id="zoomminus" xlink:href="#zoomMin" x="42" y="9" onmousedown="handleZoom(evt,'out')"/>
                <use id="reset" xlink:href="#resetDef" x="30" y="36" onmousedown="handleReset()"/>
                <g id="arrowUp" xlink:href="#dirArrow" transform="translate(30 24)" onmousedown="handlePan(0,-1)">
                  <use xlink:href="#rim" fill="#404040">
                        <set attributeName="fill" to="#808080" begin="arrowUp.mouseover" end="arrowUp.mouseout"/>
                  </use>
                  <path fill="none" stroke="white" stroke-width="1.5" d="M0,-3.0v7 M-2.5,-0.5L0,-3.0L2.5,-0.5"/>
                </g>
                <g id="arrowRight" xlink:href="#dirArrow" transform="rotate(90) translate(36 -43)" onmousedown="handlePan(1,0)">
                  <use xlink:href="#rim" fill="#404040">
                        <set attributeName="fill" to="#808080" begin="arrowRight.mouseover" end="arrowRight.mouseout"/>
                  </use>
                  <path fill="none" stroke="white" stroke-width="1.5" d="M0,-3.0v7 M-2.5,-0.5L0,-3.0L2.5,-0.5"/>
                </g>
                <g id="arrowDown" xlink:href="#dirArrow" transform="rotate(180) translate(-30 -48)" onmousedown="handlePan(0,1)">
                  <use xlink:href="#rim" fill="#404040">
                        <set attributeName="fill" to="#808080" begin="arrowDown.mouseover" end="arrowDown.mouseout"/>
                  </use>
                  <path fill="none" stroke="white" stroke-width="1.5" d="M0,-3.0v7 M-2.5,-0.5L0,-3.0L2.5,-0.5"/>
                </g>
                <g id="arrowLeft" xlink:href="#dirArrow" transform="rotate(270) translate(-36 17)" onmousedown="handlePan(-1,0)">
                  <use xlink:href="#rim" fill="#404040">
                        <set attributeName="fill" to="#808080" begin="arrowLeft.mouseover" end="arrowLeft.mouseout"/>
                  </use>
                  <path fill="none" stroke="white" stroke-width="1.5" d="M0,-3.0v7 M-2.5,-0.5L0,-3.0L2.5,-0.5"/>
                </g>
        </g>
        <svg viewBox="0 0 15 15" width="100%" height="30px" preserveAspectRatio="xMaxYMin meet">
         <g id="arrow_out" transform="scale(0.3 0.3)">
          <a xlink:href="class_view_1_1_action_scene_n_p_c__coll__graph_org.svg" target="_base">
           <rect id="button" ry="5" rx="5" y="6" x="6" height="38" width="38"
                fill="#f2f5e9" fill-opacity="0.5" stroke="#606060" stroke-width="1.0"/>
           <path id="arrow"
             d="M 11.500037,31.436501 C 11.940474,20.09759 22.043105,11.32322 32.158766,21.979434 L 37.068811,17.246167 C 37.068811,17.246167 37.088388,32 37.088388,32 L 22.160133,31.978069 C 22.160133,31.978069 26.997745,27.140456 26.997745,27.140456 C 18.528582,18.264221 13.291696,25.230495 11.500037,31.436501 z"
             style="fill:#404040;"/>
          </a>
         </g>
        </svg>
</svg>
