<?xml version="1.0" encoding="UTF-8" standalone="no"?>
<!DOCTYPE svg PUBLIC "-//W3C//DTD SVG 1.1//EN"
 "http://www.w3.org/Graphics/SVG/1.1/DTD/svg11.dtd">
<!-- Generated by graphviz version 2.38.0 (20140413.2041)
 -->
<!-- Title: View::ActionScene::partyKilled Pages: 1 -->
<svg width="446pt" height="88pt"
 viewBox="0.00 0.00 446.00 88.00" xmlns="http://www.w3.org/2000/svg" xmlns:xlink="http://www.w3.org/1999/xlink">
<g id="graph0" class="graph" transform="scale(1 1) rotate(0) translate(4 84)">
<title>View::ActionScene::partyKilled</title>
<polygon fill="white" stroke="none" points="-4,4 -4,-84 442,-84 442,4 -4,4"/>
<!-- Node183 -->
<g id="node1" class="node"><title>Node183</title>
<polygon fill="#bfbfbf" stroke="black" points="0,-24.5 0,-54.5 105,-54.5 105,-24.5 0,-24.5"/>
<text text-anchor="start" x="8" y="-42.5" font-family="Helvetica,sans-Serif" font-size="10.00">View::ActionScene::</text>
<text text-anchor="middle" x="52.5" y="-31.5" font-family="Helvetica,sans-Serif" font-size="10.00">partyKilled</text>
</g>
<!-- Node184 -->
<g id="node2" class="node"><title>Node184</title>
<g id="a_node2"><a xlink:href="class_view_1_1_action_scene.html#a727e0df9d7bcbf8c55214ccc532a8d4f" target="_top" xlink:title="View::ActionScene::\lremoveDeadActor">
<polygon fill="white" stroke="black" points="166.5,-49.5 166.5,-79.5 271.5,-79.5 271.5,-49.5 166.5,-49.5"/>
<text text-anchor="start" x="174.5" y="-67.5" font-family="Helvetica,sans-Serif" font-size="10.00">View::ActionScene::</text>
<text text-anchor="middle" x="219" y="-56.5" font-family="Helvetica,sans-Serif" font-size="10.00">removeDeadActor</text>
</a>
</g>
</g>
<!-- Node183&#45;&gt;Node184 -->
<g id="edge1" class="edge"><title>Node183&#45;&gt;Node184</title>
<path fill="none" stroke="midnightblue" d="M105.097,-47.3416C121.249,-49.7963 139.242,-52.5307 156.032,-55.0823"/>
<polygon fill="midnightblue" stroke="midnightblue" points="155.891,-58.601 166.303,-56.6433 156.942,-51.6805 155.891,-58.601"/>
</g>
<!-- Node186 -->
<g id="node4" class="node"><title>Node186</title>
<g id="a_node4"><a xlink:href="class_view_1_1_action_scene_big_explosion.html#a414c6886ec563230da882dc949c61143" target="_top" xlink:title="View::ActionSceneBigExplosion\l::setPosition">
<polygon fill="white" stroke="black" points="141,-0.5 141,-30.5 297,-30.5 297,-0.5 141,-0.5"/>
<text text-anchor="start" x="149" y="-18.5" font-family="Helvetica,sans-Serif" font-size="10.00">View::ActionSceneBigExplosion</text>
<text text-anchor="middle" x="219" y="-7.5" font-family="Helvetica,sans-Serif" font-size="10.00">::setPosition</text>
</a>
</g>
</g>
<!-- Node183&#45;&gt;Node186 -->
<g id="edge3" class="edge"><title>Node183&#45;&gt;Node186</title>
<path fill="none" stroke="midnightblue" d="M105.097,-31.9721C113.381,-30.7636 122.149,-29.4844 130.99,-28.1945"/>
<polygon fill="midnightblue" stroke="midnightblue" points="131.591,-31.6439 140.981,-26.7368 130.581,-24.7172 131.591,-31.6439"/>
</g>
<!-- Node185 -->
<g id="node3" class="node"><title>Node185</title>
<g id="a_node3"><a xlink:href="class_view_1_1_action_scene.html#a56189cc242c97e67527875fd1231557f" target="_top" xlink:title="View::ActionScene::\laddRemoveParty">
<polygon fill="white" stroke="black" points="333,-49.5 333,-79.5 438,-79.5 438,-49.5 333,-49.5"/>
<text text-anchor="start" x="341" y="-67.5" font-family="Helvetica,sans-Serif" font-size="10.00">View::ActionScene::</text>
<text text-anchor="middle" x="385.5" y="-56.5" font-family="Helvetica,sans-Serif" font-size="10.00">addRemoveParty</text>
</a>
</g>
</g>
<!-- Node184&#45;&gt;Node185 -->
<g id="edge2" class="edge"><title>Node184&#45;&gt;Node185</title>
<path fill="none" stroke="midnightblue" d="M271.597,-64.5C287.749,-64.5 305.742,-64.5 322.532,-64.5"/>
<polygon fill="midnightblue" stroke="midnightblue" points="322.803,-68.0001 332.803,-64.5 322.803,-61.0001 322.803,-68.0001"/>
</g>
</g>
</svg>
