<?xml version="1.0" encoding="UTF-8" standalone="no"?>
<!DOCTYPE svg PUBLIC "-//W3C//DTD SVG 1.1//EN"
 "http://www.w3.org/Graphics/SVG/1.1/DTD/svg11.dtd">
<!-- Generated by graphviz version 2.38.0 (20140413.2041)
 -->
<!-- Title: View::ActionSceneBigExplosion Pages: 1 -->
<svg width="661pt" height="309pt"
 viewBox="0.00 0.00 660.50 309.00" xmlns="http://www.w3.org/2000/svg" xmlns:xlink="http://www.w3.org/1999/xlink">
<g id="graph0" class="graph" transform="scale(1 1) rotate(0) translate(4 305)">
<title>View::ActionSceneBigExplosion</title>
<polygon fill="white" stroke="none" points="-4,4 -4,-305 656.5,-305 656.5,4 -4,4"/>
<!-- Node3 -->
<g id="node1" class="node"><title>Node3</title>
<polygon fill="#bfbfbf" stroke="black" points="296.5,-0.5 296.5,-90.5 452.5,-90.5 452.5,-0.5 296.5,-0.5"/>
<text text-anchor="middle" x="374.5" y="-78.5" font-family="Helvetica,sans-Serif" font-size="10.00">View::ActionSceneBigExplosion</text>
<polyline fill="none" stroke="black" points="296.5,-71.5 452.5,-71.5 "/>
<text text-anchor="middle" x="374.5" y="-59.5" font-family="Helvetica,sans-Serif" font-size="10.00"> </text>
<polyline fill="none" stroke="black" points="296.5,-52.5 452.5,-52.5 "/>
<text text-anchor="start" x="304.5" y="-40.5" font-family="Helvetica,sans-Serif" font-size="10.00">+ ActionSceneBigExplosion()</text>
<text text-anchor="start" x="304.5" y="-29.5" font-family="Helvetica,sans-Serif" font-size="10.00">+ ~ActionSceneBigExplosion()</text>
<text text-anchor="start" x="304.5" y="-18.5" font-family="Helvetica,sans-Serif" font-size="10.00">+ setPosition()</text>
<text text-anchor="start" x="304.5" y="-7.5" font-family="Helvetica,sans-Serif" font-size="10.00">+ nextFrame()</text>
</g>
<!-- Node4 -->
<g id="node2" class="node"><title>Node4</title>
<g id="a_node2"><a xlink:href="class_q_object.html" target="_top" xlink:title="{QObject\n||}">
<polygon fill="white" stroke="black" points="0,-138.5 0,-195.5 53,-195.5 53,-138.5 0,-138.5"/>
<text text-anchor="middle" x="26.5" y="-183.5" font-family="Helvetica,sans-Serif" font-size="10.00">QObject</text>
<polyline fill="none" stroke="black" points="0,-176.5 53,-176.5 "/>
<text text-anchor="middle" x="26.5" y="-164.5" font-family="Helvetica,sans-Serif" font-size="10.00"> </text>
<polyline fill="none" stroke="black" points="0,-157.5 53,-157.5 "/>
<text text-anchor="middle" x="26.5" y="-145.5" font-family="Helvetica,sans-Serif" font-size="10.00"> </text>
</a>
</g>
</g>
<!-- Node4&#45;&gt;Node3 -->
<g id="edge1" class="edge"><title>Node4&#45;&gt;Node3</title>
<path fill="none" stroke="midnightblue" d="M62.6347,-138.083C143.677,-97.0669 233.462,-73.7101 296.375,-60.4864"/>
<polygon fill="none" stroke="midnightblue" points="60.5825,-135.204 53.3057,-142.904 63.7964,-141.422 60.5825,-135.204"/>
</g>
<!-- Node5 -->
<g id="node3" class="node"><title>Node5</title>
<g id="a_node3"><a xlink:href="class_q_graphics_pixmap_item.html" target="_top" xlink:title="{QGraphicsPixmapItem\n||}">
<polygon fill="white" stroke="black" points="71,-138.5 71,-195.5 186,-195.5 186,-138.5 71,-138.5"/>
<text text-anchor="middle" x="128.5" y="-183.5" font-family="Helvetica,sans-Serif" font-size="10.00">QGraphicsPixmapItem</text>
<polyline fill="none" stroke="black" points="71,-176.5 186,-176.5 "/>
<text text-anchor="middle" x="128.5" y="-164.5" font-family="Helvetica,sans-Serif" font-size="10.00"> </text>
<polyline fill="none" stroke="black" points="71,-157.5 186,-157.5 "/>
<text text-anchor="middle" x="128.5" y="-145.5" font-family="Helvetica,sans-Serif" font-size="10.00"> </text>
</a>
</g>
</g>
<!-- Node5&#45;&gt;Node3 -->
<g id="edge2" class="edge"><title>Node5&#45;&gt;Node3</title>
<path fill="none" stroke="midnightblue" d="M194.327,-134.023C225.655,-118.805 263.347,-100.495 296.141,-84.5646"/>
<polygon fill="none" stroke="midnightblue" points="192.712,-130.917 185.246,-138.434 195.77,-137.213 192.712,-130.917"/>
</g>
<!-- Node6 -->
<g id="node4" class="node"><title>Node6</title>
<polygon fill="white" stroke="#bfbfbf" points="204.5,-138.5 204.5,-195.5 328.5,-195.5 328.5,-138.5 204.5,-138.5"/>
<text text-anchor="middle" x="266.5" y="-183.5" font-family="Helvetica,sans-Serif" font-size="10.00">std::vector&lt; QPixmap *&gt;</text>
<polyline fill="none" stroke="#bfbfbf" points="204.5,-176.5 328.5,-176.5 "/>
<text text-anchor="middle" x="266.5" y="-164.5" font-family="Helvetica,sans-Serif" font-size="10.00"> </text>
<polyline fill="none" stroke="#bfbfbf" points="204.5,-157.5 328.5,-157.5 "/>
<text text-anchor="middle" x="266.5" y="-145.5" font-family="Helvetica,sans-Serif" font-size="10.00"> </text>
</g>
<!-- Node6&#45;&gt;Node3 -->
<g id="edge3" class="edge"><title>Node6&#45;&gt;Node3</title>
<path fill="none" stroke="#404040" d="M271.31,-138.479C274.009,-128.514 278.161,-117.606 284.5,-109 287.001,-105.604 289.745,-102.327 292.669,-99.1751"/>
<polygon fill="none" stroke="#404040" points="292.796,-99.0501 294.259,-91.989 301.34,-90.624 299.876,-97.6851 292.796,-99.0501"/>
<text text-anchor="middle" x="327.5" y="-112" font-family="Helvetica,sans-Serif" font-size="10.00"> &#45;explosionFrames_</text>
</g>
<!-- Node7 -->
<g id="node5" class="node"><title>Node7</title>
<polygon fill="white" stroke="#bfbfbf" points="234.5,-243.5 234.5,-300.5 298.5,-300.5 298.5,-243.5 234.5,-243.5"/>
<text text-anchor="middle" x="266.5" y="-288.5" font-family="Helvetica,sans-Serif" font-size="10.00">QPixmap *</text>
<polyline fill="none" stroke="#bfbfbf" points="234.5,-281.5 298.5,-281.5 "/>
<text text-anchor="middle" x="266.5" y="-269.5" font-family="Helvetica,sans-Serif" font-size="10.00"> </text>
<polyline fill="none" stroke="#bfbfbf" points="234.5,-262.5 298.5,-262.5 "/>
<text text-anchor="middle" x="266.5" y="-250.5" font-family="Helvetica,sans-Serif" font-size="10.00"> </text>
</g>
<!-- Node7&#45;&gt;Node6 -->
<g id="edge4" class="edge"><title>Node7&#45;&gt;Node6</title>
<path fill="none" stroke="#404040" d="M266.5,-243.398C266.5,-232.545 266.5,-219.873 266.5,-208.049"/>
<polygon fill="none" stroke="#404040" points="266.5,-207.678 262.5,-201.678 266.5,-195.678 270.5,-201.678 266.5,-207.678"/>
<text text-anchor="middle" x="291" y="-217" font-family="Helvetica,sans-Serif" font-size="10.00"> +elements</text>
</g>
<!-- Node8 -->
<g id="node6" class="node"><title>Node8</title>
<polygon fill="white" stroke="#bfbfbf" points="347,-138.5 347,-195.5 402,-195.5 402,-138.5 347,-138.5"/>
<text text-anchor="middle" x="374.5" y="-183.5" font-family="Helvetica,sans-Serif" font-size="10.00">QTimer *</text>
<polyline fill="none" stroke="#bfbfbf" points="347,-176.5 402,-176.5 "/>
<text text-anchor="middle" x="374.5" y="-164.5" font-family="Helvetica,sans-Serif" font-size="10.00"> </text>
<polyline fill="none" stroke="#bfbfbf" points="347,-157.5 402,-157.5 "/>
<text text-anchor="middle" x="374.5" y="-145.5" font-family="Helvetica,sans-Serif" font-size="10.00"> </text>
</g>
<!-- Node8&#45;&gt;Node3 -->
<g id="edge5" class="edge"><title>Node8&#45;&gt;Node3</title>
<path fill="none" stroke="#404040" d="M374.5,-138.284C374.5,-127.735 374.5,-115.294 374.5,-103.035"/>
<polygon fill="none" stroke="#404040" points="374.5,-102.912 370.5,-96.9125 374.5,-90.9125 378.5,-96.9124 374.5,-102.912"/>
<text text-anchor="middle" x="403" y="-112" font-family="Helvetica,sans-Serif" font-size="10.00"> &#45;animTimer_</text>
</g>
<!-- Node9 -->
<g id="node7" class="node"><title>Node9</title>
<polygon fill="white" stroke="#bfbfbf" points="440,-138.5 440,-195.5 469,-195.5 469,-138.5 440,-138.5"/>
<text text-anchor="middle" x="454.5" y="-183.5" font-family="Helvetica,sans-Serif" font-size="10.00">int</text>
<polyline fill="none" stroke="#bfbfbf" points="440,-176.5 469,-176.5 "/>
<text text-anchor="middle" x="454.5" y="-164.5" font-family="Helvetica,sans-Serif" font-size="10.00"> </text>
<polyline fill="none" stroke="#bfbfbf" points="440,-157.5 469,-157.5 "/>
<text text-anchor="middle" x="454.5" y="-145.5" font-family="Helvetica,sans-Serif" font-size="10.00"> </text>
</g>
<!-- Node9&#45;&gt;Node3 -->
<g id="edge6" class="edge"><title>Node9&#45;&gt;Node3</title>
<path fill="none" stroke="#404040" d="M446.207,-138.321C442.704,-128.663 438.118,-117.997 432.5,-109 430.662,-106.057 428.675,-103.129 426.581,-100.238"/>
<polygon fill="none" stroke="#404040" points="426.454,-100.074 419.619,-97.7765 419.111,-90.5833 425.946,-92.8813 426.454,-100.074"/>
<text text-anchor="middle" x="473.5" y="-112" font-family="Helvetica,sans-Serif" font-size="10.00"> &#45;frameCounter_</text>
</g>
<!-- Node10 -->
<g id="node8" class="node"><title>Node10</title>
<polygon fill="white" stroke="#bfbfbf" points="530,-138.5 530,-195.5 565,-195.5 565,-138.5 530,-138.5"/>
<text text-anchor="middle" x="547.5" y="-183.5" font-family="Helvetica,sans-Serif" font-size="10.00">bool</text>
<polyline fill="none" stroke="#bfbfbf" points="530,-176.5 565,-176.5 "/>
<text text-anchor="middle" x="547.5" y="-164.5" font-family="Helvetica,sans-Serif" font-size="10.00"> </text>
<polyline fill="none" stroke="#bfbfbf" points="530,-157.5 565,-157.5 "/>
<text text-anchor="middle" x="547.5" y="-145.5" font-family="Helvetica,sans-Serif" font-size="10.00"> </text>
</g>
<!-- Node10&#45;&gt;Node3 -->
<g id="edge7" class="edge"><title>Node10&#45;&gt;Node3</title>
<path fill="none" stroke="#404040" d="M534.879,-138.318C529.176,-128.103 521.645,-117.065 512.5,-109 498.341,-96.5139 481.273,-86.1162 464.041,-77.6174"/>
<polygon fill="none" stroke="#404040" points="463.584,-77.4032 456.453,-78.4744 452.722,-72.3038 459.853,-71.2326 463.584,-77.4032"/>
<text text-anchor="middle" x="555.5" y="-112" font-family="Helvetica,sans-Serif" font-size="10.00"> &#45;deathMarker_</text>
</g>
<!-- Node11 -->
<g id="node9" class="node"><title>Node11</title>
<polygon fill="white" stroke="#bfbfbf" points="620.5,-138.5 620.5,-195.5 652.5,-195.5 652.5,-138.5 620.5,-138.5"/>
<text text-anchor="middle" x="636.5" y="-183.5" font-family="Helvetica,sans-Serif" font-size="10.00">uint</text>
<polyline fill="none" stroke="#bfbfbf" points="620.5,-176.5 652.5,-176.5 "/>
<text text-anchor="middle" x="636.5" y="-164.5" font-family="Helvetica,sans-Serif" font-size="10.00"> </text>
<polyline fill="none" stroke="#bfbfbf" points="620.5,-157.5 652.5,-157.5 "/>
<text text-anchor="middle" x="636.5" y="-145.5" font-family="Helvetica,sans-Serif" font-size="10.00"> </text>
</g>
<!-- Node11&#45;&gt;Node3 -->
<g id="edge8" class="edge"><title>Node11&#45;&gt;Node3</title>
<path fill="none" stroke="#404040" d="M620.587,-138.477C613.248,-127.912 603.671,-116.582 592.5,-109 554.615,-83.2863 506.163,-68.0369 464.563,-59.051"/>
<polygon fill="none" stroke="#404040" points="464.498,-59.0378 457.816,-61.7491 452.743,-56.624 459.425,-53.9126 464.498,-59.0378"/>
<text text-anchor="middle" x="626" y="-112" font-family="Helvetica,sans-Serif" font-size="10.00"> &#45;deathId_</text>
</g>
</g>
</svg>
