<?xml version="1.0" encoding="UTF-8" standalone="no"?>
<!DOCTYPE svg PUBLIC "-//W3C//DTD SVG 1.1//EN"
 "http://www.w3.org/Graphics/SVG/1.1/DTD/svg11.dtd">
<!-- Generated by graphviz version 2.38.0 (20140413.2041)
 -->
<!-- Title: View::ActionScenePC::ActionScenePC Pages: 1 -->
<svg width="425pt" height="161pt"
 viewBox="0.00 0.00 425.00 161.00" xmlns="http://www.w3.org/2000/svg" xmlns:xlink="http://www.w3.org/1999/xlink">
<g id="graph0" class="graph" transform="scale(1 1) rotate(0) translate(4 157)">
<title>View::ActionScenePC::ActionScenePC</title>
<polygon fill="white" stroke="none" points="-4,4 -4,-157 421,-157 421,4 -4,4"/>
<!-- Node0 -->
<g id="node1" class="node"><title>Node0</title>
<polygon fill="#bfbfbf" stroke="black" points="0,-73.5 0,-103.5 113,-103.5 113,-73.5 0,-73.5"/>
<text text-anchor="start" x="8" y="-91.5" font-family="Helvetica,sans-Serif" font-size="10.00">View::ActionScenePC</text>
<text text-anchor="middle" x="56.5" y="-80.5" font-family="Helvetica,sans-Serif" font-size="10.00">::ActionScenePC</text>
</g>
<!-- Node1 -->
<g id="node2" class="node"><title>Node1</title>
<g id="a_node2"><a xlink:href="class_view_1_1_action_scene_p_c.html#ab0c2529512176e7ac24a155e6e3b4b30" target="_top" xlink:title="View::ActionScenePC\l::hideMuzzle">
<polygon fill="white" stroke="black" points="149,-122.5 149,-152.5 262,-152.5 262,-122.5 149,-122.5"/>
<text text-anchor="start" x="157" y="-140.5" font-family="Helvetica,sans-Serif" font-size="10.00">View::ActionScenePC</text>
<text text-anchor="middle" x="205.5" y="-129.5" font-family="Helvetica,sans-Serif" font-size="10.00">::hideMuzzle</text>
</a>
</g>
</g>
<!-- Node0&#45;&gt;Node1 -->
<g id="edge1" class="edge"><title>Node0&#45;&gt;Node1</title>
<path fill="none" stroke="midnightblue" d="M102.804,-103.601C117.544,-108.515 134.067,-114.022 149.44,-119.147"/>
<polygon fill="midnightblue" stroke="midnightblue" points="148.752,-122.606 159.345,-122.448 150.965,-115.966 148.752,-122.606"/>
</g>
<!-- Node2 -->
<g id="node3" class="node"><title>Node2</title>
<g id="a_node3"><a xlink:href="class_view_1_1_action_scene_p_c.html#a3a24db19c0ac423905ab2cb31d387575" target="_top" xlink:title="View::ActionScenePC\l::shoot">
<polygon fill="white" stroke="black" points="149,-73.5 149,-103.5 262,-103.5 262,-73.5 149,-73.5"/>
<text text-anchor="start" x="157" y="-91.5" font-family="Helvetica,sans-Serif" font-size="10.00">View::ActionScenePC</text>
<text text-anchor="middle" x="205.5" y="-80.5" font-family="Helvetica,sans-Serif" font-size="10.00">::shoot</text>
</a>
</g>
</g>
<!-- Node0&#45;&gt;Node2 -->
<g id="edge2" class="edge"><title>Node0&#45;&gt;Node2</title>
<path fill="none" stroke="midnightblue" d="M113.074,-88.5C121.489,-88.5 130.238,-88.5 138.842,-88.5"/>
<polygon fill="midnightblue" stroke="midnightblue" points="138.847,-92.0001 148.847,-88.5 138.847,-85.0001 138.847,-92.0001"/>
</g>
<!-- Node3 -->
<g id="node4" class="node"><title>Node3</title>
<g id="a_node4"><a xlink:href="class_view_1_1_action_scene_p_c.html#ad27f69a4e9c1a4f89e7306294d182d51" target="_top" xlink:title="View::ActionScenePC\l::step">
<polygon fill="white" stroke="black" points="149,-24.5 149,-54.5 262,-54.5 262,-24.5 149,-24.5"/>
<text text-anchor="start" x="157" y="-42.5" font-family="Helvetica,sans-Serif" font-size="10.00">View::ActionScenePC</text>
<text text-anchor="middle" x="205.5" y="-31.5" font-family="Helvetica,sans-Serif" font-size="10.00">::step</text>
</a>
</g>
</g>
<!-- Node0&#45;&gt;Node3 -->
<g id="edge3" class="edge"><title>Node0&#45;&gt;Node3</title>
<path fill="none" stroke="midnightblue" d="M102.804,-73.3986C117.544,-68.4853 134.067,-62.9776 149.44,-57.8534"/>
<polygon fill="midnightblue" stroke="midnightblue" points="150.965,-61.0343 159.345,-54.5516 148.752,-54.3935 150.965,-61.0343"/>
</g>
<!-- Node4 -->
<g id="node5" class="node"><title>Node4</title>
<g id="a_node5"><a xlink:href="class_view_1_1_action_scene_feet.html#a74dfcd6e4a0b5d3fc3dd27079107ecdc" target="_top" xlink:title="View::ActionSceneFeet\l::setPosition">
<polygon fill="white" stroke="black" points="298,-49.5 298,-79.5 417,-79.5 417,-49.5 298,-49.5"/>
<text text-anchor="start" x="306" y="-67.5" font-family="Helvetica,sans-Serif" font-size="10.00">View::ActionSceneFeet</text>
<text text-anchor="middle" x="357.5" y="-56.5" font-family="Helvetica,sans-Serif" font-size="10.00">::setPosition</text>
</a>
</g>
</g>
<!-- Node3&#45;&gt;Node4 -->
<g id="edge4" class="edge"><title>Node3&#45;&gt;Node4</title>
<path fill="none" stroke="midnightblue" d="M262.354,-48.8091C270.676,-50.196 279.335,-51.6391 287.882,-53.0637"/>
<polygon fill="midnightblue" stroke="midnightblue" points="287.399,-56.5313 297.838,-54.723 288.55,-49.6266 287.399,-56.5313"/>
</g>
<!-- Node5 -->
<g id="node6" class="node"><title>Node5</title>
<g id="a_node6"><a xlink:href="class_view_1_1_action_scene_feet.html#adb3d6be92f4099f725c0f604f6d892d6" target="_top" xlink:title="View::ActionSceneFeet\l::nextFrame">
<polygon fill="white" stroke="black" points="298,-0.5 298,-30.5 417,-30.5 417,-0.5 298,-0.5"/>
<text text-anchor="start" x="306" y="-18.5" font-family="Helvetica,sans-Serif" font-size="10.00">View::ActionSceneFeet</text>
<text text-anchor="middle" x="357.5" y="-7.5" font-family="Helvetica,sans-Serif" font-size="10.00">::nextFrame</text>
</a>
</g>
</g>
<!-- Node3&#45;&gt;Node5 -->
<g id="edge5" class="edge"><title>Node3&#45;&gt;Node5</title>
<path fill="none" stroke="midnightblue" d="M262.354,-30.5633C270.676,-29.2318 279.335,-27.8464 287.882,-26.4788"/>
<polygon fill="midnightblue" stroke="midnightblue" points="288.517,-29.9219 297.838,-24.8859 287.411,-23.0098 288.517,-29.9219"/>
</g>
</g>
</svg>
