<?xml version="1.0" encoding="UTF-8" standalone="no"?>
<!DOCTYPE svg PUBLIC "-//W3C//DTD SVG 1.1//EN"
 "http://www.w3.org/Graphics/SVG/1.1/DTD/svg11.dtd">
<!-- Generated by graphviz version 2.38.0 (20140413.2041)
 -->
<!-- Title: Model::mapProcessor Pages: 1 -->
<!--zoomable 760 -->
<svg id="main" version="1.1" xmlns="http://www.w3.org/2000/svg" xmlns:xlink="http://www.w3.org/1999/xlink" xml:space="preserve" onload="init(evt)">
<style type="text/css"><![CDATA[
.edge:hover path { stroke: red; }
.edge:hover polygon { stroke: red; fill: red; }
]]></style>
<script type="text/javascript"><![CDATA[
var edges = document.getElementsByTagName('g');
if (edges && edges.length) {
  for (var i=0;i<edges.length;i++) {
    if (edges[i].id.substr(0,4)=='edge') {
      edges[i].setAttribute('class','edge');
    }
  }
}
]]></script>
        <defs>
                <circle id="rim" cx="0" cy="0" r="7"/>
                <circle id="rim2" cx="0" cy="0" r="3.5"/>
                <g id="zoomPlus">
                        <use xlink:href="#rim" fill="#404040">
                                <set attributeName="fill" to="#808080" begin="zoomplus.mouseover" end="zoomplus.mouseout"/>
                        </use>
                        <path d="M-4,0h8M0,-4v8" fill="none" stroke="white" stroke-width="1.5" pointer-events="none"/>
                </g>
                <g id="zoomMin">
                        <use xlink:href="#rim" fill="#404040">
                                <set attributeName="fill" to="#808080" begin="zoomminus.mouseover" end="zoomminus.mouseout"/>
                        </use>
                        <path d="M-4,0h8" fill="none" stroke="white" stroke-width="1.5" pointer-events="none"/>
                </g>
                <g id="dirArrow">
                        <path fill="none" stroke="white" stroke-width="1.5" d="M0,-3.0v7 M-2.5,-0.5L0,-3.0L2.5,-0.5"/>
                </g>
               <g id="resetDef">
                       <use xlink:href="#rim2" fill="#404040">
                               <set attributeName="fill" to="#808080" begin="reset.mouseover" end="reset.mouseout"/>
                       </use>
               </g>
        </defs>

<script type="text/javascript">
var viewWidth = 1035;
var viewHeight = 760;
var sectionId = 'dynsection-0';
</script>
<script xlink:href="svgpan.js"/>
<svg id="graph" class="graph">
<g id="viewport">
<title>Model::mapProcessor</title>
<polygon fill="white" stroke="none" points="-4,4 -4,-756 1031,-756 1031,4 -4,4"/>
<!-- Node1 -->
<g id="node1" class="node"><title>Node1</title>
<polygon fill="#bfbfbf" stroke="black" points="743.5,-0.5 743.5,-200.5 868.5,-200.5 868.5,-0.5 743.5,-0.5"/>
<text text-anchor="middle" x="806" y="-188.5" font-family="Helvetica,sans-Serif" font-size="10.00">Model::mapProcessor</text>
<polyline fill="none" stroke="black" points="743.5,-181.5 868.5,-181.5 "/>
<text text-anchor="middle" x="806" y="-169.5" font-family="Helvetica,sans-Serif" font-size="10.00"> </text>
<polyline fill="none" stroke="black" points="743.5,-162.5 868.5,-162.5 "/>
<text text-anchor="start" x="751.5" y="-150.5" font-family="Helvetica,sans-Serif" font-size="10.00">+ mapProcessor()</text>
<text text-anchor="start" x="751.5" y="-139.5" font-family="Helvetica,sans-Serif" font-size="10.00">+ placeEnemies()</text>
<text text-anchor="start" x="751.5" y="-128.5" font-family="Helvetica,sans-Serif" font-size="10.00">+ getEnemies()</text>
<text text-anchor="start" x="751.5" y="-117.5" font-family="Helvetica,sans-Serif" font-size="10.00">&#45; getDistanceMap()</text>
<text text-anchor="start" x="751.5" y="-106.5" font-family="Helvetica,sans-Serif" font-size="10.00">&#45; getMedialMap()</text>
<text text-anchor="start" x="751.5" y="-95.5" font-family="Helvetica,sans-Serif" font-size="10.00">&#45; calculateDistanceMap()</text>
<text text-anchor="start" x="751.5" y="-84.5" font-family="Helvetica,sans-Serif" font-size="10.00">&#45; getTile()</text>
<text text-anchor="start" x="751.5" y="-73.5" font-family="Helvetica,sans-Serif" font-size="10.00">&#45; getTile()</text>
<text text-anchor="start" x="751.5" y="-62.5" font-family="Helvetica,sans-Serif" font-size="10.00">&#45; setTileDistance()</text>
<text text-anchor="start" x="751.5" y="-51.5" font-family="Helvetica,sans-Serif" font-size="10.00">&#45; getTileDistance()</text>
<text text-anchor="start" x="751.5" y="-40.5" font-family="Helvetica,sans-Serif" font-size="10.00">&#45; getTileClosest()</text>
<text text-anchor="start" x="751.5" y="-29.5" font-family="Helvetica,sans-Serif" font-size="10.00">&#45; getTileClosest()</text>
<text text-anchor="start" x="751.5" y="-18.5" font-family="Helvetica,sans-Serif" font-size="10.00">&#45; setTileClosest()</text>
<text text-anchor="start" x="751.5" y="-7.5" font-family="Helvetica,sans-Serif" font-size="10.00">&#45; getDistance()</text>
</g>
<!-- Node2 -->
<g id="node2" class="node"><title>Node2</title>
<g id="a_node2"><a xlink:href="class_model_1_1map_generator.html" target="_top" xlink:title="{Model::mapGenerator\n||+ mapGenerator()\l+ getTile()\l+ getHeight()\l+ getWidth()\l+ getStartX()\l+ getStartY()\l+ generateHall()\l+ getLayout()\l&#45; getMedialMap()\l&#45; getDistanceMap()\l&#45; isInMapRange()\l&#45; GetSurroundingWallCount()\l&#45; getClosestEdge()\l&#45; indexToX()\l&#45; indexToY()\l&#45; indexAt()\l&#45; setTile()\l&#45; setTile()\l&#45; getTile()\l&#45; printLayout()\l}">
<polygon fill="white" stroke="black" points="311.5,-248.5 311.5,-514.5 452.5,-514.5 452.5,-248.5 311.5,-248.5"/>
<text text-anchor="middle" x="382" y="-502.5" font-family="Helvetica,sans-Serif" font-size="10.00">Model::mapGenerator</text>
<polyline fill="none" stroke="black" points="311.5,-495.5 452.5,-495.5 "/>
<text text-anchor="middle" x="382" y="-483.5" font-family="Helvetica,sans-Serif" font-size="10.00"> </text>
<polyline fill="none" stroke="black" points="311.5,-476.5 452.5,-476.5 "/>
<text text-anchor="start" x="319.5" y="-464.5" font-family="Helvetica,sans-Serif" font-size="10.00">+ mapGenerator()</text>
<text text-anchor="start" x="319.5" y="-453.5" font-family="Helvetica,sans-Serif" font-size="10.00">+ getTile()</text>
<text text-anchor="start" x="319.5" y="-442.5" font-family="Helvetica,sans-Serif" font-size="10.00">+ getHeight()</text>
<text text-anchor="start" x="319.5" y="-431.5" font-family="Helvetica,sans-Serif" font-size="10.00">+ getWidth()</text>
<text text-anchor="start" x="319.5" y="-420.5" font-family="Helvetica,sans-Serif" font-size="10.00">+ getStartX()</text>
<text text-anchor="start" x="319.5" y="-409.5" font-family="Helvetica,sans-Serif" font-size="10.00">+ getStartY()</text>
<text text-anchor="start" x="319.5" y="-398.5" font-family="Helvetica,sans-Serif" font-size="10.00">+ generateHall()</text>
<text text-anchor="start" x="319.5" y="-387.5" font-family="Helvetica,sans-Serif" font-size="10.00">+ getLayout()</text>
<text text-anchor="start" x="319.5" y="-376.5" font-family="Helvetica,sans-Serif" font-size="10.00">&#45; getMedialMap()</text>
<text text-anchor="start" x="319.5" y="-365.5" font-family="Helvetica,sans-Serif" font-size="10.00">&#45; getDistanceMap()</text>
<text text-anchor="start" x="319.5" y="-354.5" font-family="Helvetica,sans-Serif" font-size="10.00">&#45; isInMapRange()</text>
<text text-anchor="start" x="319.5" y="-343.5" font-family="Helvetica,sans-Serif" font-size="10.00">&#45; GetSurroundingWallCount()</text>
<text text-anchor="start" x="319.5" y="-332.5" font-family="Helvetica,sans-Serif" font-size="10.00">&#45; getClosestEdge()</text>
<text text-anchor="start" x="319.5" y="-321.5" font-family="Helvetica,sans-Serif" font-size="10.00">&#45; indexToX()</text>
<text text-anchor="start" x="319.5" y="-310.5" font-family="Helvetica,sans-Serif" font-size="10.00">&#45; indexToY()</text>
<text text-anchor="start" x="319.5" y="-299.5" font-family="Helvetica,sans-Serif" font-size="10.00">&#45; indexAt()</text>
<text text-anchor="start" x="319.5" y="-288.5" font-family="Helvetica,sans-Serif" font-size="10.00">&#45; setTile()</text>
<text text-anchor="start" x="319.5" y="-277.5" font-family="Helvetica,sans-Serif" font-size="10.00">&#45; setTile()</text>
<text text-anchor="start" x="319.5" y="-266.5" font-family="Helvetica,sans-Serif" font-size="10.00">&#45; getTile()</text>
<text text-anchor="start" x="319.5" y="-255.5" font-family="Helvetica,sans-Serif" font-size="10.00">&#45; printLayout()</text>
</a>
</g>
</g>
<!-- Node2&#45;&gt;Node1 -->
<g id="edge1" class="edge"><title>Node2&#45;&gt;Node1</title>
<path fill="none" stroke="#404040" d="M452.968,-333.802C530.693,-282.657 654.705,-201.055 733.163,-149.428"/>
<polygon fill="none" stroke="#404040" points="733.423,-149.257 736.236,-142.618 743.447,-142.661 740.634,-149.301 733.423,-149.257"/>
<text text-anchor="middle" x="646" y="-222" font-family="Helvetica,sans-Serif" font-size="10.00"> &#45;generator_</text>
</g>
<!-- Node9 -->
<g id="node9" class="node"><title>Node9</title>
<g id="a_node9"><a xlink:href="class_model_1_1layout_generator.html" target="_top" xlink:title="{Model::layoutGenerator\n||+ layoutGenerator()\l+ generateHall()\l&#45; roomOk()\l&#45; randomRoom()\l}">
<polygon fill="white" stroke="black" points="219,-55.5 219,-145.5 337,-145.5 337,-55.5 219,-55.5"/>
<text text-anchor="middle" x="278" y="-133.5" font-family="Helvetica,sans-Serif" font-size="10.00">Model::layoutGenerator</text>
<polyline fill="none" stroke="black" points="219,-126.5 337,-126.5 "/>
<text text-anchor="middle" x="278" y="-114.5" font-family="Helvetica,sans-Serif" font-size="10.00"> </text>
<polyline fill="none" stroke="black" points="219,-107.5 337,-107.5 "/>
<text text-anchor="start" x="227" y="-95.5" font-family="Helvetica,sans-Serif" font-size="10.00">+ layoutGenerator()</text>
<text text-anchor="start" x="227" y="-84.5" font-family="Helvetica,sans-Serif" font-size="10.00">+ generateHall()</text>
<text text-anchor="start" x="227" y="-73.5" font-family="Helvetica,sans-Serif" font-size="10.00">&#45; roomOk()</text>
<text text-anchor="start" x="227" y="-62.5" font-family="Helvetica,sans-Serif" font-size="10.00">&#45; randomRoom()</text>
</a>
</g>
</g>
<!-- Node2&#45;&gt;Node9 -->
<g id="edge9" class="edge"><title>Node2&#45;&gt;Node9</title>
<path fill="none" stroke="#404040" d="M311.192,-338.429C274.515,-312.332 233.258,-275.168 213,-230 201.86,-205.161 211.955,-178.205 227.238,-155.426"/>
<polygon fill="none" stroke="#404040" points="227.296,-155.345 227.558,-148.138 234.311,-145.609 234.049,-152.815 227.296,-155.345"/>
<text text-anchor="middle" x="249.5" y="-222" font-family="Helvetica,sans-Serif" font-size="10.00"> &#45;mapGenerator_</text>
</g>
<!-- Node10 -->
<g id="node10" class="node"><title>Node10</title>
<g id="a_node10"><a xlink:href="class_model_1_1park_space_inserter.html" target="_top" xlink:title="{Model::parkSpaceInserter\n||+ parkSpaceInserter()\l+ addSpaces()\l&#45; addParkingSpaces_()\l&#45; getWallTiles()\l&#45; removeBlockedSpaces()\l&#45; floodFill()\l&#45; getRelativeDirection()\l}">
<polygon fill="white" stroke="black" points="364,-39 364,-162 492,-162 492,-39 364,-39"/>
<text text-anchor="middle" x="428" y="-150" font-family="Helvetica,sans-Serif" font-size="10.00">Model::parkSpaceInserter</text>
<polyline fill="none" stroke="black" points="364,-143 492,-143 "/>
<text text-anchor="middle" x="428" y="-131" font-family="Helvetica,sans-Serif" font-size="10.00"> </text>
<polyline fill="none" stroke="black" points="364,-124 492,-124 "/>
<text text-anchor="start" x="372" y="-112" font-family="Helvetica,sans-Serif" font-size="10.00">+ parkSpaceInserter()</text>
<text text-anchor="start" x="372" y="-101" font-family="Helvetica,sans-Serif" font-size="10.00">+ addSpaces()</text>
<text text-anchor="start" x="372" y="-90" font-family="Helvetica,sans-Serif" font-size="10.00">&#45; addParkingSpaces_()</text>
<text text-anchor="start" x="372" y="-79" font-family="Helvetica,sans-Serif" font-size="10.00">&#45; getWallTiles()</text>
<text text-anchor="start" x="372" y="-68" font-family="Helvetica,sans-Serif" font-size="10.00">&#45; removeBlockedSpaces()</text>
<text text-anchor="start" x="372" y="-57" font-family="Helvetica,sans-Serif" font-size="10.00">&#45; floodFill()</text>
<text text-anchor="start" x="372" y="-46" font-family="Helvetica,sans-Serif" font-size="10.00">&#45; getRelativeDirection()</text>
</a>
</g>
</g>
<!-- Node2&#45;&gt;Node10 -->
<g id="edge12" class="edge"><title>Node2&#45;&gt;Node10</title>
<path fill="none" stroke="#404040" d="M374.884,-248.315C375.769,-238.35 377.101,-228.487 379,-219 382.012,-203.951 386.995,-188.422 392.658,-173.779"/>
<polygon fill="none" stroke="#404040" points="392.821,-173.377 391.363,-166.314 397.321,-162.252 398.779,-169.315 392.821,-173.377"/>
<text text-anchor="middle" x="394.5" y="-222" font-family="Helvetica,sans-Serif" font-size="10.00"> &#45;map_</text>
</g>
<!-- Node3 -->
<g id="node3" class="node"><title>Node3</title>
<g id="a_node3"><a xlink:href="class_interface_1_1_parkin_hall_layout_interface.html" target="_top" xlink:title="{Interface::ParkinHallLayout\lInterface\n||+ ParkinHallLayoutInterface()\l+ generateHall()\l+ getLayout()\l+ getTile()\l+ getStartX()\l+ getStartY()\l+ getHeight()\l+ getWidth()\l}">
<polygon fill="white" stroke="black" points="0,-606.5 0,-751.5 142,-751.5 142,-606.5 0,-606.5"/>
<text text-anchor="start" x="8" y="-739.5" font-family="Helvetica,sans-Serif" font-size="10.00">Interface::ParkinHallLayout</text>
<text text-anchor="middle" x="71" y="-728.5" font-family="Helvetica,sans-Serif" font-size="10.00">Interface</text>
<polyline fill="none" stroke="black" points="0,-721.5 142,-721.5 "/>
<text text-anchor="middle" x="71" y="-709.5" font-family="Helvetica,sans-Serif" font-size="10.00"> </text>
<polyline fill="none" stroke="black" points="0,-702.5 142,-702.5 "/>
<text text-anchor="start" x="8" y="-690.5" font-family="Helvetica,sans-Serif" font-size="10.00">+ ParkinHallLayoutInterface()</text>
<text text-anchor="start" x="8" y="-679.5" font-family="Helvetica,sans-Serif" font-size="10.00">+ generateHall()</text>
<text text-anchor="start" x="8" y="-668.5" font-family="Helvetica,sans-Serif" font-size="10.00">+ getLayout()</text>
<text text-anchor="start" x="8" y="-657.5" font-family="Helvetica,sans-Serif" font-size="10.00">+ getTile()</text>
<text text-anchor="start" x="8" y="-646.5" font-family="Helvetica,sans-Serif" font-size="10.00">+ getStartX()</text>
<text text-anchor="start" x="8" y="-635.5" font-family="Helvetica,sans-Serif" font-size="10.00">+ getStartY()</text>
<text text-anchor="start" x="8" y="-624.5" font-family="Helvetica,sans-Serif" font-size="10.00">+ getHeight()</text>
<text text-anchor="start" x="8" y="-613.5" font-family="Helvetica,sans-Serif" font-size="10.00">+ getWidth()</text>
</a>
</g>
</g>
<!-- Node3&#45;&gt;Node2 -->
<g id="edge2" class="edge"><title>Node3&#45;&gt;Node2</title>
<path fill="none" stroke="midnightblue" d="M149.889,-603.043C199.583,-555.826 263.192,-495.387 311.251,-449.723"/>
<polygon fill="none" stroke="midnightblue" points="147.188,-600.781 142.35,-610.206 152.01,-605.855 147.188,-600.781"/>
</g>
<!-- Node4 -->
<g id="node4" class="node"><title>Node4</title>
<polygon fill="white" stroke="#bfbfbf" points="160,-650.5 160,-707.5 256,-707.5 256,-650.5 160,-650.5"/>
<text text-anchor="middle" x="208" y="-695.5" font-family="Helvetica,sans-Serif" font-size="10.00">vector&lt; TileType &gt;</text>
<polyline fill="none" stroke="#bfbfbf" points="160,-688.5 256,-688.5 "/>
<text text-anchor="middle" x="208" y="-676.5" font-family="Helvetica,sans-Serif" font-size="10.00"> </text>
<polyline fill="none" stroke="#bfbfbf" points="160,-669.5 256,-669.5 "/>
<text text-anchor="middle" x="208" y="-657.5" font-family="Helvetica,sans-Serif" font-size="10.00"> </text>
</g>
<!-- Node4&#45;&gt;Node2 -->
<g id="edge3" class="edge"><title>Node4&#45;&gt;Node2</title>
<path fill="none" stroke="#404040" d="M222.603,-650.492C238.318,-621.142 264.259,-573.405 288,-533 293.444,-523.735 299.15,-514.2 304.945,-504.642"/>
<polygon fill="none" stroke="#404040" points="305.018,-504.521 304.722,-497.316 311.26,-494.272 311.555,-501.477 305.018,-504.521"/>
<text text-anchor="middle" x="303" y="-558" font-family="Helvetica,sans-Serif" font-size="10.00"> &#45;tiles_</text>
</g>
<!-- Node5 -->
<g id="node5" class="node"><title>Node5</title>
<polygon fill="white" stroke="#bfbfbf" points="274.5,-645 274.5,-713 377.5,-713 377.5,-645 274.5,-645"/>
<text text-anchor="start" x="282.5" y="-701" font-family="Helvetica,sans-Serif" font-size="10.00">unique_ptr&lt; Model::</text>
<text text-anchor="middle" x="326" y="-690" font-family="Helvetica,sans-Serif" font-size="10.00">mapProcessor &gt;</text>
<polyline fill="none" stroke="#bfbfbf" points="274.5,-683 377.5,-683 "/>
<text text-anchor="middle" x="326" y="-671" font-family="Helvetica,sans-Serif" font-size="10.00"> </text>
<polyline fill="none" stroke="#bfbfbf" points="274.5,-664 377.5,-664 "/>
<text text-anchor="middle" x="326" y="-652" font-family="Helvetica,sans-Serif" font-size="10.00"> </text>
</g>
<!-- Node5&#45;&gt;Node2 -->
<g id="edge4" class="edge"><title>Node5&#45;&gt;Node2</title>
<path fill="none" stroke="#404040" d="M325.083,-644.665C324.661,-627.701 324.208,-606.753 324,-588 323.728,-563.557 319.529,-557.032 324,-533 324.405,-530.823 324.84,-528.638 325.303,-526.446"/>
<polygon fill="none" stroke="#404040" points="325.322,-526.365 322.782,-519.616 328.035,-514.676 330.575,-521.425 325.322,-526.365"/>
<text text-anchor="middle" x="361.5" y="-558" font-family="Helvetica,sans-Serif" font-size="10.00"> &#45;mapProcessor_</text>
</g>
<!-- Node6 -->
<g id="node6" class="node"><title>Node6</title>
<polygon fill="white" stroke="#bfbfbf" points="602.5,-650.5 602.5,-707.5 631.5,-707.5 631.5,-650.5 602.5,-650.5"/>
<text text-anchor="middle" x="617" y="-695.5" font-family="Helvetica,sans-Serif" font-size="10.00">int</text>
<polyline fill="none" stroke="#bfbfbf" points="602.5,-688.5 631.5,-688.5 "/>
<text text-anchor="middle" x="617" y="-676.5" font-family="Helvetica,sans-Serif" font-size="10.00"> </text>
<polyline fill="none" stroke="#bfbfbf" points="602.5,-669.5 631.5,-669.5 "/>
<text text-anchor="middle" x="617" y="-657.5" font-family="Helvetica,sans-Serif" font-size="10.00"> </text>
</g>
<!-- Node6&#45;&gt;Node1 -->
<g id="edge14" class="edge"><title>Node6&#45;&gt;Node1</title>
<path fill="none" stroke="#404040" d="M631.802,-676.308C686.791,-669.133 880.048,-635.796 956,-515 1019.17,-414.541 1002.06,-357.364 956,-248 939.873,-209.707 908.305,-176.436 878.273,-151.322"/>
<polygon fill="none" stroke="#404040" points="877.91,-151.027 870.731,-150.347 868.598,-143.459 875.777,-144.139 877.91,-151.027"/>
<text text-anchor="middle" x="1012" y="-384.5" font-family="Helvetica,sans-Serif" font-size="10.00"> &#45;width</text>
<text text-anchor="middle" x="1012" y="-373.5" font-family="Helvetica,sans-Serif" font-size="10.00">&#45;height</text>
</g>
<!-- Node6&#45;&gt;Node2 -->
<g id="edge5" class="edge"><title>Node6&#45;&gt;Node2</title>
<path fill="none" stroke="#404040" d="M602.478,-664.252C584.646,-647.09 553.835,-616.511 530,-588 527.856,-585.436 494.346,-538.926 459.755,-490.805"/>
<polygon fill="none" stroke="#404040" points="459.604,-490.595 452.854,-488.057 452.601,-480.85 459.35,-483.388 459.604,-490.595"/>
<text text-anchor="middle" x="566.5" y="-580" font-family="Helvetica,sans-Serif" font-size="10.00"> &#45;startX</text>
<text text-anchor="middle" x="566.5" y="-569" font-family="Helvetica,sans-Serif" font-size="10.00">&#45;startY</text>
<text text-anchor="middle" x="566.5" y="-558" font-family="Helvetica,sans-Serif" font-size="10.00">&#45;height_</text>
<text text-anchor="middle" x="566.5" y="-547" font-family="Helvetica,sans-Serif" font-size="10.00">&#45;width_</text>
<text text-anchor="middle" x="566.5" y="-536" font-family="Helvetica,sans-Serif" font-size="10.00">&#45;maxRoomCount</text>
</g>
<!-- Node6&#45;&gt;Node9 -->
<g id="edge10" class="edge"><title>Node6&#45;&gt;Node9</title>
<path fill="none" stroke="#404040" d="M618.25,-650.488C622.254,-556.186 632.831,-250.11 603,-219 564.756,-179.117 403.694,-227.118 355,-201 335.772,-190.686 319.825,-173.271 307.527,-155.867"/>
<polygon fill="none" stroke="#404040" points="307.382,-155.65 300.721,-152.886 300.71,-145.675 307.371,-148.439 307.382,-155.65"/>
<text text-anchor="middle" x="653" y="-390" font-family="Helvetica,sans-Serif" font-size="10.00"> &#45;height_</text>
<text text-anchor="middle" x="653" y="-379" font-family="Helvetica,sans-Serif" font-size="10.00">&#45;width_</text>
<text text-anchor="middle" x="653" y="-368" font-family="Helvetica,sans-Serif" font-size="10.00">&#45;maxRooms_</text>
</g>
<!-- Node7 -->
<g id="node7" class="node"><title>Node7</title>
<polygon fill="white" stroke="#bfbfbf" points="397,-650.5 397,-707.5 443,-707.5 443,-650.5 397,-650.5"/>
<text text-anchor="middle" x="420" y="-695.5" font-family="Helvetica,sans-Serif" font-size="10.00">Layout</text>
<polyline fill="none" stroke="#bfbfbf" points="397,-688.5 443,-688.5 "/>
<text text-anchor="middle" x="420" y="-676.5" font-family="Helvetica,sans-Serif" font-size="10.00"> </text>
<polyline fill="none" stroke="#bfbfbf" points="397,-669.5 443,-669.5 "/>
<text text-anchor="middle" x="420" y="-657.5" font-family="Helvetica,sans-Serif" font-size="10.00"> </text>
</g>
<!-- Node7&#45;&gt;Node2 -->
<g id="edge6" class="edge"><title>Node7&#45;&gt;Node2</title>
<path fill="none" stroke="#404040" d="M416.459,-650.465C412.739,-621.539 406.595,-573.76 400.517,-526.494"/>
<polygon fill="none" stroke="#404040" points="400.505,-526.402 395.773,-520.961 398.975,-514.5 403.707,-519.941 400.505,-526.402"/>
<text text-anchor="middle" x="427" y="-558" font-family="Helvetica,sans-Serif" font-size="10.00"> &#45;layout_</text>
</g>
<!-- Node8 -->
<g id="node8" class="node"><title>Node8</title>
<polygon fill="white" stroke="#bfbfbf" points="461,-650.5 461,-707.5 515,-707.5 515,-650.5 461,-650.5"/>
<text text-anchor="middle" x="488" y="-695.5" font-family="Helvetica,sans-Serif" font-size="10.00">mt19937</text>
<polyline fill="none" stroke="#bfbfbf" points="461,-688.5 515,-688.5 "/>
<text text-anchor="middle" x="488" y="-676.5" font-family="Helvetica,sans-Serif" font-size="10.00"> </text>
<polyline fill="none" stroke="#bfbfbf" points="461,-669.5 515,-669.5 "/>
<text text-anchor="middle" x="488" y="-657.5" font-family="Helvetica,sans-Serif" font-size="10.00"> </text>
</g>
<!-- Node8&#45;&gt;Node2 -->
<g id="edge7" class="edge"><title>Node8&#45;&gt;Node2</title>
<path fill="none" stroke="#404040" d="M482.205,-650.326C475.693,-620.837 464.16,-572.986 450,-533 449.159,-530.625 448.295,-528.235 447.412,-525.835"/>
<polygon fill="none" stroke="#404040" points="447.385,-525.764 441.522,-521.566 443.142,-514.539 449.005,-518.737 447.385,-525.764"/>
<text text-anchor="middle" x="476" y="-558" font-family="Helvetica,sans-Serif" font-size="10.00"> &#45;rng</text>
</g>
<!-- Node9&#45;&gt;Node2 -->
<g id="edge8" class="edge"><title>Node9&#45;&gt;Node2</title>
<path fill="none" stroke="#404040" d="M278.63,-145.614C280.096,-170.883 283.853,-202.863 293,-230 296.634,-240.781 301.112,-251.632 306.108,-262.3"/>
<polygon fill="none" stroke="#404040" points="306.232,-262.553 312.456,-266.194 311.489,-273.34 305.265,-269.699 306.232,-262.553"/>
<text text-anchor="middle" x="333.5" y="-222" font-family="Helvetica,sans-Serif" font-size="10.00"> &#45;layoutGenerator_</text>
</g>
<!-- Node10&#45;&gt;Node2 -->
<g id="edge11" class="edge"><title>Node10&#45;&gt;Node2</title>
<path fill="none" stroke="#404040" d="M422.665,-162.135C420.438,-183.632 417.536,-207.953 414,-230 413.673,-232.04 413.336,-234.094 412.991,-236.16"/>
<polygon fill="none" stroke="#404040" points="412.972,-236.27 415.891,-242.864 410.927,-248.095 408.008,-241.501 412.972,-236.27"/>
<text text-anchor="middle" x="461.5" y="-222" font-family="Helvetica,sans-Serif" font-size="10.00"> &#45;parkSpaceInserter_</text>
</g>
<!-- Node11 -->
<g id="node11" class="node"><title>Node11</title>
<polygon fill="white" stroke="#bfbfbf" points="693,-353 693,-410 783,-410 783,-353 693,-353"/>
<text text-anchor="middle" x="738" y="-398" font-family="Helvetica,sans-Serif" font-size="10.00">vector&lt; QPoint &gt;</text>
<polyline fill="none" stroke="#bfbfbf" points="693,-391 783,-391 "/>
<text text-anchor="middle" x="738" y="-379" font-family="Helvetica,sans-Serif" font-size="10.00"> </text>
<polyline fill="none" stroke="#bfbfbf" points="693,-372 783,-372 "/>
<text text-anchor="middle" x="738" y="-360" font-family="Helvetica,sans-Serif" font-size="10.00"> </text>
</g>
<!-- Node11&#45;&gt;Node1 -->
<g id="edge13" class="edge"><title>Node11&#45;&gt;Node1</title>
<path fill="none" stroke="#404040" d="M744.706,-352.985C752.68,-320.271 766.482,-263.642 778.972,-212.394"/>
<polygon fill="none" stroke="#404040" points="779.022,-212.189 776.557,-205.413 781.864,-200.53 784.329,-207.307 779.022,-212.189"/>
<text text-anchor="middle" x="801.5" y="-222" font-family="Helvetica,sans-Serif" font-size="10.00"> &#45;enemies_</text>
</g>
<!-- Node12 -->
<g id="node12" class="node"><title>Node12</title>
<polygon fill="white" stroke="#bfbfbf" points="801,-347.5 801,-415.5 947,-415.5 947,-347.5 801,-347.5"/>
<text text-anchor="start" x="809" y="-403.5" font-family="Helvetica,sans-Serif" font-size="10.00">vector&lt; Model::mapProcessor</text>
<text text-anchor="middle" x="874" y="-392.5" font-family="Helvetica,sans-Serif" font-size="10.00">::DistanceNode &gt;</text>
<polyline fill="none" stroke="#bfbfbf" points="801,-385.5 947,-385.5 "/>
<text text-anchor="middle" x="874" y="-373.5" font-family="Helvetica,sans-Serif" font-size="10.00"> </text>
<polyline fill="none" stroke="#bfbfbf" points="801,-366.5 947,-366.5 "/>
<text text-anchor="middle" x="874" y="-354.5" font-family="Helvetica,sans-Serif" font-size="10.00"> </text>
</g>
<!-- Node12&#45;&gt;Node1 -->
<g id="edge15" class="edge"><title>Node12&#45;&gt;Node1</title>
<path fill="none" stroke="#404040" d="M865.932,-347.399C857.824,-314.129 844.869,-260.978 833.076,-212.59"/>
<polygon fill="none" stroke="#404040" points="833.027,-212.391 827.72,-207.508 830.186,-200.732 835.493,-205.614 833.027,-212.391"/>
<text text-anchor="middle" x="867" y="-222" font-family="Helvetica,sans-Serif" font-size="10.00"> &#45;distanceMap</text>
</g>
</g>
</svg>
        <g id="navigator" transform="translate(0 0)" fill="#404254">
                <rect fill="#f2f5e9" fill-opacity="0.5" stroke="#606060" stroke-width=".5" x="0" y="0" width="60" height="60"/>
                <use id="zoomplus" xlink:href="#zoomPlus" x="17" y="9" onmousedown="handleZoom(evt,'in')"/>
                <use id="zoomminus" xlink:href="#zoomMin" x="42" y="9" onmousedown="handleZoom(evt,'out')"/>
                <use id="reset" xlink:href="#resetDef" x="30" y="36" onmousedown="handleReset()"/>
                <g id="arrowUp" xlink:href="#dirArrow" transform="translate(30 24)" onmousedown="handlePan(0,-1)">
                  <use xlink:href="#rim" fill="#404040">
                        <set attributeName="fill" to="#808080" begin="arrowUp.mouseover" end="arrowUp.mouseout"/>
                  </use>
                  <path fill="none" stroke="white" stroke-width="1.5" d="M0,-3.0v7 M-2.5,-0.5L0,-3.0L2.5,-0.5"/>
                </g>
                <g id="arrowRight" xlink:href="#dirArrow" transform="rotate(90) translate(36 -43)" onmousedown="handlePan(1,0)">
                  <use xlink:href="#rim" fill="#404040">
                        <set attributeName="fill" to="#808080" begin="arrowRight.mouseover" end="arrowRight.mouseout"/>
                  </use>
                  <path fill="none" stroke="white" stroke-width="1.5" d="M0,-3.0v7 M-2.5,-0.5L0,-3.0L2.5,-0.5"/>
                </g>
                <g id="arrowDown" xlink:href="#dirArrow" transform="rotate(180) translate(-30 -48)" onmousedown="handlePan(0,1)">
                  <use xlink:href="#rim" fill="#404040">
                        <set attributeName="fill" to="#808080" begin="arrowDown.mouseover" end="arrowDown.mouseout"/>
                  </use>
                  <path fill="none" stroke="white" stroke-width="1.5" d="M0,-3.0v7 M-2.5,-0.5L0,-3.0L2.5,-0.5"/>
                </g>
                <g id="arrowLeft" xlink:href="#dirArrow" transform="rotate(270) translate(-36 17)" onmousedown="handlePan(-1,0)">
                  <use xlink:href="#rim" fill="#404040">
                        <set attributeName="fill" to="#808080" begin="arrowLeft.mouseover" end="arrowLeft.mouseout"/>
                  </use>
                  <path fill="none" stroke="white" stroke-width="1.5" d="M0,-3.0v7 M-2.5,-0.5L0,-3.0L2.5,-0.5"/>
                </g>
        </g>
        <svg viewBox="0 0 15 15" width="100%" height="30px" preserveAspectRatio="xMaxYMin meet">
         <g id="arrow_out" transform="scale(0.3 0.3)">
          <a xlink:href="class_model_1_1map_processor__coll__graph_org.svg" target="_base">
           <rect id="button" ry="5" rx="5" y="6" x="6" height="38" width="38"
                fill="#f2f5e9" fill-opacity="0.5" stroke="#606060" stroke-width="1.0"/>
           <path id="arrow"
             d="M 11.500037,31.436501 C 11.940474,20.09759 22.043105,11.32322 32.158766,21.979434 L 37.068811,17.246167 C 37.068811,17.246167 37.088388,32 37.088388,32 L 22.160133,31.978069 C 22.160133,31.978069 26.997745,27.140456 26.997745,27.140456 C 18.528582,18.264221 13.291696,25.230495 11.500037,31.436501 z"
             style="fill:#404040;"/>
          </a>
         </g>
        </svg>
</svg>
