<?xml version="1.0" encoding="UTF-8" standalone="no"?>
<!DOCTYPE svg PUBLIC "-//W3C//DTD SVG 1.1//EN"
 "http://www.w3.org/Graphics/SVG/1.1/DTD/svg11.dtd">
<!-- Generated by graphviz version 2.38.0 (20140413.2041)
 -->
<!-- Title: View::HeadQuartersUI Pages: 1 -->
<svg width="1038pt" height="515pt"
 viewBox="0.00 0.00 1037.50 515.00" xmlns="http://www.w3.org/2000/svg" xmlns:xlink="http://www.w3.org/1999/xlink">
<g id="graph0" class="graph" transform="scale(1 1) rotate(0) translate(4 511)">
<title>View::HeadQuartersUI</title>
<polygon fill="white" stroke="none" points="-4,4 -4,-511 1033.5,-511 1033.5,4 -4,4"/>
<!-- Node2 -->
<g id="node1" class="node"><title>Node2</title>
<polygon fill="#bfbfbf" stroke="black" points="392,-0.5 392,-266.5 565,-266.5 565,-0.5 392,-0.5"/>
<text text-anchor="middle" x="478.5" y="-254.5" font-family="Helvetica,sans-Serif" font-size="10.00">View::HeadQuartersUI</text>
<polyline fill="none" stroke="black" points="392,-247.5 565,-247.5 "/>
<text text-anchor="middle" x="478.5" y="-235.5" font-family="Helvetica,sans-Serif" font-size="10.00"> </text>
<polyline fill="none" stroke="black" points="392,-228.5 565,-228.5 "/>
<text text-anchor="start" x="400" y="-216.5" font-family="Helvetica,sans-Serif" font-size="10.00">+ HeadQuartersUI()</text>
<text text-anchor="start" x="400" y="-205.5" font-family="Helvetica,sans-Serif" font-size="10.00">+ ~HeadQuartersUI()</text>
<text text-anchor="start" x="400" y="-194.5" font-family="Helvetica,sans-Serif" font-size="10.00">+ setEquipmentLists()</text>
<text text-anchor="start" x="400" y="-183.5" font-family="Helvetica,sans-Serif" font-size="10.00">+ setUIActorData()</text>
<text text-anchor="start" x="400" y="-172.5" font-family="Helvetica,sans-Serif" font-size="10.00">+ selectedActorChanged()</text>
<text text-anchor="start" x="400" y="-161.5" font-family="Helvetica,sans-Serif" font-size="10.00">+ changeSelectedWeaponItem()</text>
<text text-anchor="start" x="400" y="-150.5" font-family="Helvetica,sans-Serif" font-size="10.00">+ changeSelectedCyberItem()</text>
<text text-anchor="start" x="400" y="-139.5" font-family="Helvetica,sans-Serif" font-size="10.00">+ cyberListViewItemDoubleClicked()</text>
<text text-anchor="start" x="400" y="-128.5" font-family="Helvetica,sans-Serif" font-size="10.00">+ buyWeaponButtonPushed()</text>
<text text-anchor="start" x="400" y="-117.5" font-family="Helvetica,sans-Serif" font-size="10.00">+ sellWeaponButtonPushed()</text>
<text text-anchor="start" x="400" y="-106.5" font-family="Helvetica,sans-Serif" font-size="10.00">+ reloadWeaponButtonPushed()</text>
<text text-anchor="start" x="400" y="-95.5" font-family="Helvetica,sans-Serif" font-size="10.00">+ buyUpgradeButtonPushed()</text>
<text text-anchor="start" x="400" y="-84.5" font-family="Helvetica,sans-Serif" font-size="10.00">+ changeSelectedResearch()</text>
<text text-anchor="start" x="400" y="-73.5" font-family="Helvetica,sans-Serif" font-size="10.00">+ hireActorButtonPushed()</text>
<text text-anchor="start" x="400" y="-62.5" font-family="Helvetica,sans-Serif" font-size="10.00">+ retireActorButtonPushed()</text>
<text text-anchor="start" x="400" y="-51.5" font-family="Helvetica,sans-Serif" font-size="10.00">+ healActorButtonPushed()</text>
<text text-anchor="start" x="400" y="-40.5" font-family="Helvetica,sans-Serif" font-size="10.00">+ setResearchLevels()</text>
<text text-anchor="start" x="400" y="-29.5" font-family="Helvetica,sans-Serif" font-size="10.00">+ setResearchArea()</text>
<text text-anchor="start" x="400" y="-18.5" font-family="Helvetica,sans-Serif" font-size="10.00">&#45; initShopUI()</text>
<text text-anchor="start" x="400" y="-7.5" font-family="Helvetica,sans-Serif" font-size="10.00">&#45; connectShopUI()</text>
</g>
<!-- Node3 -->
<g id="node2" class="node"><title>Node3</title>
<g id="a_node2"><a xlink:href="class_q_widget.html" target="_top" xlink:title="{QWidget\n||}">
<polygon fill="white" stroke="black" points="0,-340.5 0,-397.5 55,-397.5 55,-340.5 0,-340.5"/>
<text text-anchor="middle" x="27.5" y="-385.5" font-family="Helvetica,sans-Serif" font-size="10.00">QWidget</text>
<polyline fill="none" stroke="black" points="0,-378.5 55,-378.5 "/>
<text text-anchor="middle" x="27.5" y="-366.5" font-family="Helvetica,sans-Serif" font-size="10.00"> </text>
<polyline fill="none" stroke="black" points="0,-359.5 55,-359.5 "/>
<text text-anchor="middle" x="27.5" y="-347.5" font-family="Helvetica,sans-Serif" font-size="10.00"> </text>
</a>
</g>
</g>
<!-- Node3&#45;&gt;Node2 -->
<g id="edge1" class="edge"><title>Node3&#45;&gt;Node2</title>
<path fill="none" stroke="midnightblue" d="M42.8627,-331.258C51.1227,-315.228 62.6885,-297.32 77.5,-285 169.541,-208.442 304.416,-168.653 391.844,-149.665"/>
<polygon fill="none" stroke="midnightblue" points="39.6298,-329.902 38.3819,-340.423 45.9185,-332.977 39.6298,-329.902"/>
</g>
<!-- Node4 -->
<g id="node3" class="node"><title>Node4</title>
<polygon fill="white" stroke="#bfbfbf" points="119.5,-449.5 119.5,-506.5 169.5,-506.5 169.5,-449.5 119.5,-449.5"/>
<text text-anchor="middle" x="144.5" y="-494.5" font-family="Helvetica,sans-Serif" font-size="10.00">QString</text>
<polyline fill="none" stroke="#bfbfbf" points="119.5,-487.5 169.5,-487.5 "/>
<text text-anchor="middle" x="144.5" y="-475.5" font-family="Helvetica,sans-Serif" font-size="10.00"> </text>
<polyline fill="none" stroke="#bfbfbf" points="119.5,-468.5 169.5,-468.5 "/>
<text text-anchor="middle" x="144.5" y="-456.5" font-family="Helvetica,sans-Serif" font-size="10.00"> </text>
</g>
<!-- Node4&#45;&gt;Node2 -->
<g id="edge2" class="edge"><title>Node4&#45;&gt;Node2</title>
<path fill="none" stroke="#404040" d="M123.152,-449.429C103.003,-419.784 78.8591,-372.06 100.5,-336 160.716,-235.664 289.718,-182.545 380.196,-156.506"/>
<polygon fill="none" stroke="#404040" points="380.308,-156.474 385.006,-151.004 391.863,-153.236 387.165,-158.707 380.308,-156.474"/>
<text text-anchor="start" x="100.5" y="-388.5" font-family="Helvetica,sans-Serif" font-size="10.00"> &#45;selectedWeaponItem</text>
<text text-anchor="middle" x="151.5" y="-377.5" font-family="Helvetica,sans-Serif" font-size="10.00">_</text>
<text text-anchor="start" x="100.5" y="-366.5" font-family="Helvetica,sans-Serif" font-size="10.00">&#45;selectedResearchArea</text>
<text text-anchor="middle" x="151.5" y="-355.5" font-family="Helvetica,sans-Serif" font-size="10.00">_</text>
<text text-anchor="middle" x="151.5" y="-344.5" font-family="Helvetica,sans-Serif" font-size="10.00">&#45;selectedUpgradeItem_</text>
</g>
<!-- Node5 -->
<g id="node4" class="node"><title>Node5</title>
<polygon fill="white" stroke="#bfbfbf" points="212,-340.5 212,-397.5 325,-397.5 325,-340.5 212,-340.5"/>
<text text-anchor="middle" x="268.5" y="-385.5" font-family="Helvetica,sans-Serif" font-size="10.00">std::vector&lt; QString &gt;</text>
<polyline fill="none" stroke="#bfbfbf" points="212,-378.5 325,-378.5 "/>
<text text-anchor="middle" x="268.5" y="-366.5" font-family="Helvetica,sans-Serif" font-size="10.00"> </text>
<polyline fill="none" stroke="#bfbfbf" points="212,-359.5 325,-359.5 "/>
<text text-anchor="middle" x="268.5" y="-347.5" font-family="Helvetica,sans-Serif" font-size="10.00"> </text>
</g>
<!-- Node4&#45;&gt;Node5 -->
<g id="edge4" class="edge"><title>Node4&#45;&gt;Node5</title>
<path fill="none" stroke="#404040" d="M169.593,-455.347C186.135,-441.073 208.188,-422.043 227.272,-405.575"/>
<polygon fill="none" stroke="#404040" points="227.28,-405.569 229.209,-398.621 236.365,-397.729 234.436,-404.677 227.28,-405.569"/>
<text text-anchor="middle" x="235" y="-423" font-family="Helvetica,sans-Serif" font-size="10.00"> +elements</text>
</g>
<!-- Node5&#45;&gt;Node2 -->
<g id="edge3" class="edge"><title>Node5&#45;&gt;Node2</title>
<path fill="none" stroke="#404040" d="M260.417,-340.34C257.062,-323.439 255.724,-301.9 264.5,-285 289.3,-237.24 336.983,-201.452 381.055,-176.783"/>
<polygon fill="none" stroke="#404040" points="381.324,-176.637 384.687,-170.258 391.868,-170.908 388.506,-177.287 381.324,-176.637"/>
<text text-anchor="middle" x="306" y="-299" font-family="Helvetica,sans-Serif" font-size="10.00"> &#45;currentUpgrades_</text>
</g>
<!-- Node6 -->
<g id="node5" class="node"><title>Node6</title>
<polygon fill="white" stroke="#bfbfbf" points="397,-449.5 397,-506.5 426,-506.5 426,-449.5 397,-449.5"/>
<text text-anchor="middle" x="411.5" y="-494.5" font-family="Helvetica,sans-Serif" font-size="10.00">int</text>
<polyline fill="none" stroke="#bfbfbf" points="397,-487.5 426,-487.5 "/>
<text text-anchor="middle" x="411.5" y="-475.5" font-family="Helvetica,sans-Serif" font-size="10.00"> </text>
<polyline fill="none" stroke="#bfbfbf" points="397,-468.5 426,-468.5 "/>
<text text-anchor="middle" x="411.5" y="-456.5" font-family="Helvetica,sans-Serif" font-size="10.00"> </text>
</g>
<!-- Node6&#45;&gt;Node2 -->
<g id="edge5" class="edge"><title>Node6&#45;&gt;Node2</title>
<path fill="none" stroke="#404040" d="M396.836,-456.845C387.255,-442.379 375.606,-421.985 370.5,-402 363.239,-373.58 363.356,-364.45 370.5,-336 375.409,-316.451 382.62,-296.728 391.027,-277.67"/>
<polygon fill="none" stroke="#404040" points="391.127,-277.451 389.977,-270.332 396.107,-266.533 397.256,-273.651 391.127,-277.451"/>
<text text-anchor="start" x="370.5" y="-394" font-family="Helvetica,sans-Serif" font-size="10.00"> &#45;upgradeResearchLevel</text>
<text text-anchor="middle" x="422.5" y="-383" font-family="Helvetica,sans-Serif" font-size="10.00">_</text>
<text text-anchor="start" x="370.5" y="-372" font-family="Helvetica,sans-Serif" font-size="10.00">&#45;weaponResearchLevel</text>
<text text-anchor="middle" x="422.5" y="-361" font-family="Helvetica,sans-Serif" font-size="10.00">_</text>
<text text-anchor="middle" x="422.5" y="-350" font-family="Helvetica,sans-Serif" font-size="10.00">&#45;expenses_</text>
<text text-anchor="middle" x="422.5" y="-339" font-family="Helvetica,sans-Serif" font-size="10.00">&#45;money_</text>
</g>
<!-- Node8 -->
<g id="node7" class="node"><title>Node8</title>
<polygon fill="white" stroke="#bfbfbf" points="483.5,-340.5 483.5,-397.5 573.5,-397.5 573.5,-340.5 483.5,-340.5"/>
<text text-anchor="middle" x="528.5" y="-385.5" font-family="Helvetica,sans-Serif" font-size="10.00">std::vector&lt; int &gt;</text>
<polyline fill="none" stroke="#bfbfbf" points="483.5,-378.5 573.5,-378.5 "/>
<text text-anchor="middle" x="528.5" y="-366.5" font-family="Helvetica,sans-Serif" font-size="10.00"> </text>
<polyline fill="none" stroke="#bfbfbf" points="483.5,-359.5 573.5,-359.5 "/>
<text text-anchor="middle" x="528.5" y="-347.5" font-family="Helvetica,sans-Serif" font-size="10.00"> </text>
</g>
<!-- Node6&#45;&gt;Node8 -->
<g id="edge8" class="edge"><title>Node6&#45;&gt;Node8</title>
<path fill="none" stroke="#404040" d="M426.318,-463.448C442.029,-449.08 467.505,-425.781 489.089,-406.043"/>
<polygon fill="none" stroke="#404040" points="489.205,-405.936 490.933,-398.935 498.06,-397.838 496.332,-404.839 489.205,-405.936"/>
<text text-anchor="middle" x="499" y="-423" font-family="Helvetica,sans-Serif" font-size="10.00"> +elements</text>
</g>
<!-- Node7 -->
<g id="node6" class="node"><title>Node7</title>
<polygon fill="white" stroke="#bfbfbf" points="592,-340.5 592,-397.5 627,-397.5 627,-340.5 592,-340.5"/>
<text text-anchor="middle" x="609.5" y="-385.5" font-family="Helvetica,sans-Serif" font-size="10.00">bool</text>
<polyline fill="none" stroke="#bfbfbf" points="592,-378.5 627,-378.5 "/>
<text text-anchor="middle" x="609.5" y="-366.5" font-family="Helvetica,sans-Serif" font-size="10.00"> </text>
<polyline fill="none" stroke="#bfbfbf" points="592,-359.5 627,-359.5 "/>
<text text-anchor="middle" x="609.5" y="-347.5" font-family="Helvetica,sans-Serif" font-size="10.00"> </text>
</g>
<!-- Node7&#45;&gt;Node2 -->
<g id="edge6" class="edge"><title>Node7&#45;&gt;Node2</title>
<path fill="none" stroke="#404040" d="M603.517,-340.256C599.377,-323.719 593.064,-302.59 584.5,-285 580.467,-276.717 575.998,-268.39 571.243,-260.136"/>
<polygon fill="none" stroke="#404040" points="571.193,-260.052 564.693,-256.928 565.077,-249.727 571.577,-252.851 571.193,-260.052"/>
<text text-anchor="middle" x="635.5" y="-304.5" font-family="Helvetica,sans-Serif" font-size="10.00"> &#45;equipmentSet_</text>
<text text-anchor="middle" x="635.5" y="-293.5" font-family="Helvetica,sans-Serif" font-size="10.00">&#45;selectedIsDead_</text>
</g>
<!-- Node8&#45;&gt;Node2 -->
<g id="edge7" class="edge"><title>Node8&#45;&gt;Node2</title>
<path fill="none" stroke="#404040" d="M494.357,-340.457C488.311,-333.796 482.876,-326.205 479.5,-318 474.39,-305.581 470.935,-292.277 468.73,-278.716"/>
<polygon fill="none" stroke="#404040" points="468.72,-278.639 463.948,-273.232 467.103,-266.748 471.875,-272.155 468.72,-278.639"/>
<text text-anchor="middle" x="532" y="-299" font-family="Helvetica,sans-Serif" font-size="10.00"> &#45;currentUpgradeLevels_</text>
</g>
<!-- Node9 -->
<g id="node8" class="node"><title>Node9</title>
<polygon fill="white" stroke="#bfbfbf" points="645.5,-340.5 645.5,-397.5 759.5,-397.5 759.5,-340.5 645.5,-340.5"/>
<text text-anchor="middle" x="702.5" y="-385.5" font-family="Helvetica,sans-Serif" font-size="10.00">std::vector&lt; QLabel *&gt;</text>
<polyline fill="none" stroke="#bfbfbf" points="645.5,-378.5 759.5,-378.5 "/>
<text text-anchor="middle" x="702.5" y="-366.5" font-family="Helvetica,sans-Serif" font-size="10.00"> </text>
<polyline fill="none" stroke="#bfbfbf" points="645.5,-359.5 759.5,-359.5 "/>
<text text-anchor="middle" x="702.5" y="-347.5" font-family="Helvetica,sans-Serif" font-size="10.00"> </text>
</g>
<!-- Node9&#45;&gt;Node2 -->
<g id="edge9" class="edge"><title>Node9&#45;&gt;Node2</title>
<path fill="none" stroke="#404040" d="M698.649,-340.309C695.233,-323.19 688.932,-301.429 677.5,-285 651.041,-246.975 611.959,-214.455 575.419,-189.477"/>
<polygon fill="none" stroke="#404040" points="575.166,-189.307 567.955,-189.295 565.193,-182.633 572.404,-182.646 575.166,-189.307"/>
<text text-anchor="middle" x="731" y="-299" font-family="Helvetica,sans-Serif" font-size="10.00"> &#45;upgradeLabels_</text>
</g>
<!-- Node10 -->
<g id="node9" class="node"><title>Node10</title>
<polygon fill="white" stroke="#bfbfbf" points="675.5,-449.5 675.5,-506.5 729.5,-506.5 729.5,-449.5 675.5,-449.5"/>
<text text-anchor="middle" x="702.5" y="-494.5" font-family="Helvetica,sans-Serif" font-size="10.00">QLabel *</text>
<polyline fill="none" stroke="#bfbfbf" points="675.5,-487.5 729.5,-487.5 "/>
<text text-anchor="middle" x="702.5" y="-475.5" font-family="Helvetica,sans-Serif" font-size="10.00"> </text>
<polyline fill="none" stroke="#bfbfbf" points="675.5,-468.5 729.5,-468.5 "/>
<text text-anchor="middle" x="702.5" y="-456.5" font-family="Helvetica,sans-Serif" font-size="10.00"> </text>
</g>
<!-- Node10&#45;&gt;Node9 -->
<g id="edge10" class="edge"><title>Node10&#45;&gt;Node9</title>
<path fill="none" stroke="#404040" d="M702.5,-449.445C702.5,-437.432 702.5,-423.117 702.5,-409.969"/>
<polygon fill="none" stroke="#404040" points="702.5,-409.834 698.5,-403.834 702.5,-397.834 706.5,-403.834 702.5,-409.834"/>
<text text-anchor="middle" x="727" y="-423" font-family="Helvetica,sans-Serif" font-size="10.00"> +elements</text>
</g>
<!-- Node11 -->
<g id="node10" class="node"><title>Node11</title>
<polygon fill="white" stroke="#bfbfbf" points="777.5,-340.5 777.5,-397.5 919.5,-397.5 919.5,-340.5 777.5,-340.5"/>
<text text-anchor="middle" x="848.5" y="-385.5" font-family="Helvetica,sans-Serif" font-size="10.00">std::vector&lt; QPushButton *&gt;</text>
<polyline fill="none" stroke="#bfbfbf" points="777.5,-378.5 919.5,-378.5 "/>
<text text-anchor="middle" x="848.5" y="-366.5" font-family="Helvetica,sans-Serif" font-size="10.00"> </text>
<polyline fill="none" stroke="#bfbfbf" points="777.5,-359.5 919.5,-359.5 "/>
<text text-anchor="middle" x="848.5" y="-347.5" font-family="Helvetica,sans-Serif" font-size="10.00"> </text>
</g>
<!-- Node11&#45;&gt;Node2 -->
<g id="edge11" class="edge"><title>Node11&#45;&gt;Node2</title>
<path fill="none" stroke="#404040" d="M827.357,-340.229C813.169,-322.868 793.322,-300.871 772.5,-285 712.413,-239.202 636.297,-200.68 576.57,-174.076"/>
<polygon fill="none" stroke="#404040" points="576.216,-173.92 569.112,-175.161 565.234,-169.081 572.338,-167.84 576.216,-173.92"/>
<text text-anchor="middle" x="842.5" y="-310" font-family="Helvetica,sans-Serif" font-size="10.00"> &#45;reloadButtons_</text>
<text text-anchor="middle" x="842.5" y="-299" font-family="Helvetica,sans-Serif" font-size="10.00">&#45;buyButtons_</text>
<text text-anchor="middle" x="842.5" y="-288" font-family="Helvetica,sans-Serif" font-size="10.00">&#45;sellButtons_</text>
</g>
<!-- Node12 -->
<g id="node11" class="node"><title>Node12</title>
<polygon fill="white" stroke="#bfbfbf" points="807.5,-449.5 807.5,-506.5 889.5,-506.5 889.5,-449.5 807.5,-449.5"/>
<text text-anchor="middle" x="848.5" y="-494.5" font-family="Helvetica,sans-Serif" font-size="10.00">QPushButton *</text>
<polyline fill="none" stroke="#bfbfbf" points="807.5,-487.5 889.5,-487.5 "/>
<text text-anchor="middle" x="848.5" y="-475.5" font-family="Helvetica,sans-Serif" font-size="10.00"> </text>
<polyline fill="none" stroke="#bfbfbf" points="807.5,-468.5 889.5,-468.5 "/>
<text text-anchor="middle" x="848.5" y="-456.5" font-family="Helvetica,sans-Serif" font-size="10.00"> </text>
</g>
<!-- Node12&#45;&gt;Node11 -->
<g id="edge12" class="edge"><title>Node12&#45;&gt;Node11</title>
<path fill="none" stroke="#404040" d="M848.5,-449.445C848.5,-437.432 848.5,-423.117 848.5,-409.969"/>
<polygon fill="none" stroke="#404040" points="848.5,-409.834 844.5,-403.834 848.5,-397.834 852.5,-403.834 848.5,-409.834"/>
<text text-anchor="middle" x="873" y="-423" font-family="Helvetica,sans-Serif" font-size="10.00"> +elements</text>
</g>
<!-- Node13 -->
<g id="node12" class="node"><title>Node13</title>
<polygon fill="white" stroke="#bfbfbf" points="937.5,-340.5 937.5,-397.5 1029.5,-397.5 1029.5,-340.5 937.5,-340.5"/>
<text text-anchor="middle" x="983.5" y="-385.5" font-family="Helvetica,sans-Serif" font-size="10.00">HeadQuartersUI *</text>
<polyline fill="none" stroke="#bfbfbf" points="937.5,-378.5 1029.5,-378.5 "/>
<text text-anchor="middle" x="983.5" y="-366.5" font-family="Helvetica,sans-Serif" font-size="10.00"> </text>
<polyline fill="none" stroke="#bfbfbf" points="937.5,-359.5 1029.5,-359.5 "/>
<text text-anchor="middle" x="983.5" y="-347.5" font-family="Helvetica,sans-Serif" font-size="10.00"> </text>
</g>
<!-- Node13&#45;&gt;Node2 -->
<g id="edge13" class="edge"><title>Node13&#45;&gt;Node2</title>
<path fill="none" stroke="#404040" d="M954.936,-340.144C935.69,-322.529 909.055,-300.284 882.5,-285 784.454,-228.57 661.359,-186.313 576.968,-161.163"/>
<polygon fill="none" stroke="#404040" points="576.833,-161.123 569.947,-163.262 565.324,-157.728 572.21,-155.589 576.833,-161.123"/>
<text text-anchor="middle" x="936.5" y="-299" font-family="Helvetica,sans-Serif" font-size="10.00"> &#45;ui</text>
</g>
</g>
</svg>
