<?xml version="1.0" encoding="UTF-8" standalone="no"?>
<!DOCTYPE svg PUBLIC "-//W3C//DTD SVG 1.1//EN"
 "http://www.w3.org/Graphics/SVG/1.1/DTD/svg11.dtd">
<!-- Generated by graphviz version 2.38.0 (20140413.2041)
 -->
<!-- Title: Model::mapGenerator Pages: 1 -->
<svg width="573pt" height="683pt"
 viewBox="0.00 0.00 573.00 683.00" xmlns="http://www.w3.org/2000/svg" xmlns:xlink="http://www.w3.org/1999/xlink">
<g id="graph0" class="graph" transform="scale(1 1) rotate(0) translate(4 679)">
<title>Model::mapGenerator</title>
<polygon fill="white" stroke="none" points="-4,4 -4,-679 569,-679 569,4 -4,4"/>
<!-- Node2 -->
<g id="node1" class="node"><title>Node2</title>
<polygon fill="#bfbfbf" stroke="black" points="188.5,-171.5 188.5,-437.5 329.5,-437.5 329.5,-171.5 188.5,-171.5"/>
<text text-anchor="middle" x="259" y="-425.5" font-family="Helvetica,sans-Serif" font-size="10.00">Model::mapGenerator</text>
<polyline fill="none" stroke="black" points="188.5,-418.5 329.5,-418.5 "/>
<text text-anchor="middle" x="259" y="-406.5" font-family="Helvetica,sans-Serif" font-size="10.00"> </text>
<polyline fill="none" stroke="black" points="188.5,-399.5 329.5,-399.5 "/>
<text text-anchor="start" x="196.5" y="-387.5" font-family="Helvetica,sans-Serif" font-size="10.00">+ mapGenerator()</text>
<text text-anchor="start" x="196.5" y="-376.5" font-family="Helvetica,sans-Serif" font-size="10.00">+ getTile()</text>
<text text-anchor="start" x="196.5" y="-365.5" font-family="Helvetica,sans-Serif" font-size="10.00">+ getHeight()</text>
<text text-anchor="start" x="196.5" y="-354.5" font-family="Helvetica,sans-Serif" font-size="10.00">+ getWidth()</text>
<text text-anchor="start" x="196.5" y="-343.5" font-family="Helvetica,sans-Serif" font-size="10.00">+ getStartX()</text>
<text text-anchor="start" x="196.5" y="-332.5" font-family="Helvetica,sans-Serif" font-size="10.00">+ getStartY()</text>
<text text-anchor="start" x="196.5" y="-321.5" font-family="Helvetica,sans-Serif" font-size="10.00">+ generateHall()</text>
<text text-anchor="start" x="196.5" y="-310.5" font-family="Helvetica,sans-Serif" font-size="10.00">+ getLayout()</text>
<text text-anchor="start" x="196.5" y="-299.5" font-family="Helvetica,sans-Serif" font-size="10.00">&#45; getMedialMap()</text>
<text text-anchor="start" x="196.5" y="-288.5" font-family="Helvetica,sans-Serif" font-size="10.00">&#45; getDistanceMap()</text>
<text text-anchor="start" x="196.5" y="-277.5" font-family="Helvetica,sans-Serif" font-size="10.00">&#45; isInMapRange()</text>
<text text-anchor="start" x="196.5" y="-266.5" font-family="Helvetica,sans-Serif" font-size="10.00">&#45; GetSurroundingWallCount()</text>
<text text-anchor="start" x="196.5" y="-255.5" font-family="Helvetica,sans-Serif" font-size="10.00">&#45; getClosestEdge()</text>
<text text-anchor="start" x="196.5" y="-244.5" font-family="Helvetica,sans-Serif" font-size="10.00">&#45; indexToX()</text>
<text text-anchor="start" x="196.5" y="-233.5" font-family="Helvetica,sans-Serif" font-size="10.00">&#45; indexToY()</text>
<text text-anchor="start" x="196.5" y="-222.5" font-family="Helvetica,sans-Serif" font-size="10.00">&#45; indexAt()</text>
<text text-anchor="start" x="196.5" y="-211.5" font-family="Helvetica,sans-Serif" font-size="10.00">&#45; setTile()</text>
<text text-anchor="start" x="196.5" y="-200.5" font-family="Helvetica,sans-Serif" font-size="10.00">&#45; setTile()</text>
<text text-anchor="start" x="196.5" y="-189.5" font-family="Helvetica,sans-Serif" font-size="10.00">&#45; getTile()</text>
<text text-anchor="start" x="196.5" y="-178.5" font-family="Helvetica,sans-Serif" font-size="10.00">&#45; printLayout()</text>
</g>
<!-- Node9 -->
<g id="node8" class="node"><title>Node9</title>
<g id="a_node8"><a xlink:href="class_model_1_1layout_generator.html" target="_top" xlink:title="{Model::layoutGenerator\n||+ layoutGenerator()\l+ generateHall()\l&#45; roomOk()\l&#45; randomRoom()\l}">
<polygon fill="white" stroke="black" points="0,-17 0,-107 118,-107 118,-17 0,-17"/>
<text text-anchor="middle" x="59" y="-95" font-family="Helvetica,sans-Serif" font-size="10.00">Model::layoutGenerator</text>
<polyline fill="none" stroke="black" points="0,-88 118,-88 "/>
<text text-anchor="middle" x="59" y="-76" font-family="Helvetica,sans-Serif" font-size="10.00"> </text>
<polyline fill="none" stroke="black" points="0,-69 118,-69 "/>
<text text-anchor="start" x="8" y="-57" font-family="Helvetica,sans-Serif" font-size="10.00">+ layoutGenerator()</text>
<text text-anchor="start" x="8" y="-46" font-family="Helvetica,sans-Serif" font-size="10.00">+ generateHall()</text>
<text text-anchor="start" x="8" y="-35" font-family="Helvetica,sans-Serif" font-size="10.00">&#45; roomOk()</text>
<text text-anchor="start" x="8" y="-24" font-family="Helvetica,sans-Serif" font-size="10.00">&#45; randomRoom()</text>
</a>
</g>
</g>
<!-- Node2&#45;&gt;Node9 -->
<g id="edge8" class="edge"><title>Node2&#45;&gt;Node9</title>
<path fill="none" stroke="#404040" d="M188.273,-201.053C173.277,-180.979 157.097,-160.445 141,-142 133.379,-133.267 124.948,-124.391 116.477,-115.894"/>
<polygon fill="none" stroke="#404040" points="116.208,-115.629 109.128,-114.261 107.667,-107.199 114.747,-108.567 116.208,-115.629"/>
<text text-anchor="middle" x="185.5" y="-145" font-family="Helvetica,sans-Serif" font-size="10.00"> &#45;mapGenerator_</text>
</g>
<!-- Node10 -->
<g id="node9" class="node"><title>Node10</title>
<g id="a_node9"><a xlink:href="class_model_1_1park_space_inserter.html" target="_top" xlink:title="{Model::parkSpaceInserter\n||+ parkSpaceInserter()\l+ addSpaces()\l&#45; addParkingSpaces_()\l&#45; getWallTiles()\l&#45; removeBlockedSpaces()\l&#45; floodFill()\l&#45; getRelativeDirection()\l}">
<polygon fill="white" stroke="black" points="222,-0.5 222,-123.5 350,-123.5 350,-0.5 222,-0.5"/>
<text text-anchor="middle" x="286" y="-111.5" font-family="Helvetica,sans-Serif" font-size="10.00">Model::parkSpaceInserter</text>
<polyline fill="none" stroke="black" points="222,-104.5 350,-104.5 "/>
<text text-anchor="middle" x="286" y="-92.5" font-family="Helvetica,sans-Serif" font-size="10.00"> </text>
<polyline fill="none" stroke="black" points="222,-85.5 350,-85.5 "/>
<text text-anchor="start" x="230" y="-73.5" font-family="Helvetica,sans-Serif" font-size="10.00">+ parkSpaceInserter()</text>
<text text-anchor="start" x="230" y="-62.5" font-family="Helvetica,sans-Serif" font-size="10.00">+ addSpaces()</text>
<text text-anchor="start" x="230" y="-51.5" font-family="Helvetica,sans-Serif" font-size="10.00">&#45; addParkingSpaces_()</text>
<text text-anchor="start" x="230" y="-40.5" font-family="Helvetica,sans-Serif" font-size="10.00">&#45; getWallTiles()</text>
<text text-anchor="start" x="230" y="-29.5" font-family="Helvetica,sans-Serif" font-size="10.00">&#45; removeBlockedSpaces()</text>
<text text-anchor="start" x="230" y="-18.5" font-family="Helvetica,sans-Serif" font-size="10.00">&#45; floodFill()</text>
<text text-anchor="start" x="230" y="-7.5" font-family="Helvetica,sans-Serif" font-size="10.00">&#45; getRelativeDirection()</text>
</a>
</g>
</g>
<!-- Node2&#45;&gt;Node10 -->
<g id="edge11" class="edge"><title>Node2&#45;&gt;Node10</title>
<path fill="none" stroke="#404040" d="M252.227,-171.381C253.033,-161.4 254.254,-151.516 256,-142 256.4,-139.822 256.856,-137.626 257.362,-135.422"/>
<polygon fill="none" stroke="#404040" points="257.417,-135.214 255.086,-128.39 260.489,-123.613 262.82,-130.437 257.417,-135.214"/>
<text text-anchor="middle" x="271.5" y="-145" font-family="Helvetica,sans-Serif" font-size="10.00"> &#45;map_</text>
</g>
<!-- Node3 -->
<g id="node2" class="node"><title>Node3</title>
<g id="a_node2"><a xlink:href="class_interface_1_1_parkin_hall_layout_interface.html" target="_top" xlink:title="{Interface::ParkinHallLayout\lInterface\n||+ ParkinHallLayoutInterface()\l+ generateHall()\l+ getLayout()\l+ getTile()\l+ getStartX()\l+ getStartY()\l+ getHeight()\l+ getWidth()\l}">
<polygon fill="white" stroke="black" points="51,-529.5 51,-674.5 193,-674.5 193,-529.5 51,-529.5"/>
<text text-anchor="start" x="59" y="-662.5" font-family="Helvetica,sans-Serif" font-size="10.00">Interface::ParkinHallLayout</text>
<text text-anchor="middle" x="122" y="-651.5" font-family="Helvetica,sans-Serif" font-size="10.00">Interface</text>
<polyline fill="none" stroke="black" points="51,-644.5 193,-644.5 "/>
<text text-anchor="middle" x="122" y="-632.5" font-family="Helvetica,sans-Serif" font-size="10.00"> </text>
<polyline fill="none" stroke="black" points="51,-625.5 193,-625.5 "/>
<text text-anchor="start" x="59" y="-613.5" font-family="Helvetica,sans-Serif" font-size="10.00">+ ParkinHallLayoutInterface()</text>
<text text-anchor="start" x="59" y="-602.5" font-family="Helvetica,sans-Serif" font-size="10.00">+ generateHall()</text>
<text text-anchor="start" x="59" y="-591.5" font-family="Helvetica,sans-Serif" font-size="10.00">+ getLayout()</text>
<text text-anchor="start" x="59" y="-580.5" font-family="Helvetica,sans-Serif" font-size="10.00">+ getTile()</text>
<text text-anchor="start" x="59" y="-569.5" font-family="Helvetica,sans-Serif" font-size="10.00">+ getStartX()</text>
<text text-anchor="start" x="59" y="-558.5" font-family="Helvetica,sans-Serif" font-size="10.00">+ getStartY()</text>
<text text-anchor="start" x="59" y="-547.5" font-family="Helvetica,sans-Serif" font-size="10.00">+ getHeight()</text>
<text text-anchor="start" x="59" y="-536.5" font-family="Helvetica,sans-Serif" font-size="10.00">+ getWidth()</text>
</a>
</g>
</g>
<!-- Node3&#45;&gt;Node2 -->
<g id="edge1" class="edge"><title>Node3&#45;&gt;Node2</title>
<path fill="none" stroke="midnightblue" d="M159.452,-520.22C171.292,-494.681 184.702,-465.756 197.756,-437.598"/>
<polygon fill="none" stroke="midnightblue" points="156.195,-518.923 155.164,-529.468 162.545,-521.867 156.195,-518.923"/>
</g>
<!-- Node4 -->
<g id="node3" class="node"><title>Node4</title>
<polygon fill="white" stroke="#bfbfbf" points="211,-573.5 211,-630.5 307,-630.5 307,-573.5 211,-573.5"/>
<text text-anchor="middle" x="259" y="-618.5" font-family="Helvetica,sans-Serif" font-size="10.00">vector&lt; TileType &gt;</text>
<polyline fill="none" stroke="#bfbfbf" points="211,-611.5 307,-611.5 "/>
<text text-anchor="middle" x="259" y="-599.5" font-family="Helvetica,sans-Serif" font-size="10.00"> </text>
<polyline fill="none" stroke="#bfbfbf" points="211,-592.5 307,-592.5 "/>
<text text-anchor="middle" x="259" y="-580.5" font-family="Helvetica,sans-Serif" font-size="10.00"> </text>
</g>
<!-- Node4&#45;&gt;Node2 -->
<g id="edge2" class="edge"><title>Node4&#45;&gt;Node2</title>
<path fill="none" stroke="#404040" d="M259,-573.465C259,-544.6 259,-496.963 259,-449.794"/>
<polygon fill="none" stroke="#404040" points="259,-449.5 255,-443.5 259,-437.5 263,-443.5 259,-449.5"/>
<text text-anchor="middle" x="274" y="-481" font-family="Helvetica,sans-Serif" font-size="10.00"> &#45;tiles_</text>
</g>
<!-- Node5 -->
<g id="node4" class="node"><title>Node5</title>
<polygon fill="white" stroke="#bfbfbf" points="325.5,-568 325.5,-636 428.5,-636 428.5,-568 325.5,-568"/>
<text text-anchor="start" x="333.5" y="-624" font-family="Helvetica,sans-Serif" font-size="10.00">unique_ptr&lt; Model::</text>
<text text-anchor="middle" x="377" y="-613" font-family="Helvetica,sans-Serif" font-size="10.00">mapProcessor &gt;</text>
<polyline fill="none" stroke="#bfbfbf" points="325.5,-606 428.5,-606 "/>
<text text-anchor="middle" x="377" y="-594" font-family="Helvetica,sans-Serif" font-size="10.00"> </text>
<polyline fill="none" stroke="#bfbfbf" points="325.5,-587 428.5,-587 "/>
<text text-anchor="middle" x="377" y="-575" font-family="Helvetica,sans-Serif" font-size="10.00"> </text>
</g>
<!-- Node5&#45;&gt;Node2 -->
<g id="edge3" class="edge"><title>Node5&#45;&gt;Node2</title>
<path fill="none" stroke="#404040" d="M363.807,-567.963C352.081,-538.598 334.087,-493.536 316.299,-448.991"/>
<polygon fill="none" stroke="#404040" points="316.236,-448.832 310.296,-444.743 311.785,-437.687 317.725,-441.776 316.236,-448.832"/>
<text text-anchor="middle" x="376.5" y="-481" font-family="Helvetica,sans-Serif" font-size="10.00"> &#45;mapProcessor_</text>
</g>
<!-- Node6 -->
<g id="node5" class="node"><title>Node6</title>
<polygon fill="white" stroke="#bfbfbf" points="3.5,-573.5 3.5,-630.5 32.5,-630.5 32.5,-573.5 3.5,-573.5"/>
<text text-anchor="middle" x="18" y="-618.5" font-family="Helvetica,sans-Serif" font-size="10.00">int</text>
<polyline fill="none" stroke="#bfbfbf" points="3.5,-611.5 32.5,-611.5 "/>
<text text-anchor="middle" x="18" y="-599.5" font-family="Helvetica,sans-Serif" font-size="10.00"> </text>
<polyline fill="none" stroke="#bfbfbf" points="3.5,-592.5 32.5,-592.5 "/>
<text text-anchor="middle" x="18" y="-580.5" font-family="Helvetica,sans-Serif" font-size="10.00"> </text>
</g>
<!-- Node6&#45;&gt;Node2 -->
<g id="edge4" class="edge"><title>Node6&#45;&gt;Node2</title>
<path fill="none" stroke="#404040" d="M25.3832,-573.33C29.4887,-559.657 35.1559,-543.107 42,-529 73.4819,-464.11 131.052,-406.175 178.986,-365.558"/>
<polygon fill="none" stroke="#404040" points="179.223,-365.36 181.264,-358.444 188.434,-357.669 186.392,-364.585 179.223,-365.36"/>
<text text-anchor="middle" x="124.5" y="-503" font-family="Helvetica,sans-Serif" font-size="10.00"> &#45;startX</text>
<text text-anchor="middle" x="124.5" y="-492" font-family="Helvetica,sans-Serif" font-size="10.00">&#45;startY</text>
<text text-anchor="middle" x="124.5" y="-481" font-family="Helvetica,sans-Serif" font-size="10.00">&#45;height_</text>
<text text-anchor="middle" x="124.5" y="-470" font-family="Helvetica,sans-Serif" font-size="10.00">&#45;width_</text>
<text text-anchor="middle" x="124.5" y="-459" font-family="Helvetica,sans-Serif" font-size="10.00">&#45;maxRoomCount</text>
</g>
<!-- Node6&#45;&gt;Node9 -->
<g id="edge9" class="edge"><title>Node6&#45;&gt;Node9</title>
<path fill="none" stroke="#404040" d="M20.118,-573.208C26.5586,-488.694 45.9998,-233.589 54.7046,-119.364"/>
<polygon fill="none" stroke="#404040" points="54.7251,-119.093 51.1927,-112.807 55.6371,-107.128 59.1695,-113.415 54.7251,-119.093"/>
<text text-anchor="middle" x="80" y="-313" font-family="Helvetica,sans-Serif" font-size="10.00"> &#45;height_</text>
<text text-anchor="middle" x="80" y="-302" font-family="Helvetica,sans-Serif" font-size="10.00">&#45;width_</text>
<text text-anchor="middle" x="80" y="-291" font-family="Helvetica,sans-Serif" font-size="10.00">&#45;maxRooms_</text>
</g>
<!-- Node7 -->
<g id="node6" class="node"><title>Node7</title>
<polygon fill="white" stroke="#bfbfbf" points="447,-573.5 447,-630.5 493,-630.5 493,-573.5 447,-573.5"/>
<text text-anchor="middle" x="470" y="-618.5" font-family="Helvetica,sans-Serif" font-size="10.00">Layout</text>
<polyline fill="none" stroke="#bfbfbf" points="447,-611.5 493,-611.5 "/>
<text text-anchor="middle" x="470" y="-599.5" font-family="Helvetica,sans-Serif" font-size="10.00"> </text>
<polyline fill="none" stroke="#bfbfbf" points="447,-592.5 493,-592.5 "/>
<text text-anchor="middle" x="470" y="-580.5" font-family="Helvetica,sans-Serif" font-size="10.00"> </text>
</g>
<!-- Node7&#45;&gt;Node2 -->
<g id="edge5" class="edge"><title>Node7&#45;&gt;Node2</title>
<path fill="none" stroke="#404040" d="M464.173,-573.342C456.846,-542.802 442.204,-493.056 418,-456 396.619,-423.265 366.748,-392.537 338.663,-367.489"/>
<polygon fill="none" stroke="#404040" points="338.643,-367.472 331.494,-366.524 329.62,-359.561 336.768,-360.509 338.643,-367.472"/>
<text text-anchor="middle" x="464" y="-481" font-family="Helvetica,sans-Serif" font-size="10.00"> &#45;layout_</text>
</g>
<!-- Node8 -->
<g id="node7" class="node"><title>Node8</title>
<polygon fill="white" stroke="#bfbfbf" points="511,-573.5 511,-630.5 565,-630.5 565,-573.5 511,-573.5"/>
<text text-anchor="middle" x="538" y="-618.5" font-family="Helvetica,sans-Serif" font-size="10.00">mt19937</text>
<polyline fill="none" stroke="#bfbfbf" points="511,-611.5 565,-611.5 "/>
<text text-anchor="middle" x="538" y="-599.5" font-family="Helvetica,sans-Serif" font-size="10.00"> </text>
<polyline fill="none" stroke="#bfbfbf" points="511,-592.5 565,-592.5 "/>
<text text-anchor="middle" x="538" y="-580.5" font-family="Helvetica,sans-Serif" font-size="10.00"> </text>
</g>
<!-- Node8&#45;&gt;Node2 -->
<g id="edge6" class="edge"><title>Node8&#45;&gt;Node2</title>
<path fill="none" stroke="#404040" d="M533.736,-573.347C527.769,-542.131 514.421,-491.129 487,-456 448.473,-406.643 389.049,-368.168 340.526,-342.478"/>
<polygon fill="none" stroke="#404040" points="340.369,-342.397 333.201,-343.184 329.718,-336.87 336.886,-336.083 340.369,-342.397"/>
<text text-anchor="middle" x="526" y="-481" font-family="Helvetica,sans-Serif" font-size="10.00"> &#45;rng</text>
</g>
<!-- Node9&#45;&gt;Node2 -->
<g id="edge7" class="edge"><title>Node9&#45;&gt;Node2</title>
<path fill="none" stroke="#404040" d="M51.8055,-107.447C51.3046,-122.599 53.0326,-139.188 60,-153 63.4781,-159.895 124.847,-205.82 178.523,-245.146"/>
<polygon fill="none" stroke="#404040" points="178.755,-245.316 185.96,-245.63 188.44,-252.401 181.236,-252.087 178.755,-245.316"/>
<text text-anchor="middle" x="100.5" y="-145" font-family="Helvetica,sans-Serif" font-size="10.00"> &#45;layoutGenerator_</text>
</g>
<!-- Node10&#45;&gt;Node2 -->
<g id="edge10" class="edge"><title>Node10&#45;&gt;Node2</title>
<path fill="none" stroke="#404040" d="M290.236,-123.796C290.548,-129.942 290.813,-136.094 291,-142 291.18,-147.683 291.138,-153.457 290.909,-159.275"/>
<polygon fill="none" stroke="#404040" points="290.908,-159.284 294.54,-165.514 290.185,-171.262 286.554,-165.032 290.908,-159.284"/>
<text text-anchor="middle" x="337.5" y="-145" font-family="Helvetica,sans-Serif" font-size="10.00"> &#45;parkSpaceInserter_</text>
</g>
</g>
</svg>
