<?xml version="1.0" encoding="UTF-8" standalone="no"?>
<!DOCTYPE svg PUBLIC "-//W3C//DTD SVG 1.1//EN"
 "http://www.w3.org/Graphics/SVG/1.1/DTD/svg11.dtd">
<!-- Generated by graphviz version 2.38.0 (20140413.2041)
 -->
<!-- Title: Model::parkSpaceInserter::floodFill Pages: 1 -->
<svg width="592pt" height="274pt"
 viewBox="0.00 0.00 592.00 274.00" xmlns="http://www.w3.org/2000/svg" xmlns:xlink="http://www.w3.org/1999/xlink">
<g id="graph0" class="graph" transform="scale(1 1) rotate(0) translate(4 270)">
<title>Model::parkSpaceInserter::floodFill</title>
<polygon fill="white" stroke="none" points="-4,4 -4,-270 588,-270 588,4 -4,4"/>
<!-- Node31 -->
<g id="node1" class="node"><title>Node31</title>
<polygon fill="#bfbfbf" stroke="black" points="0,-120.5 0,-150.5 128,-150.5 128,-120.5 0,-120.5"/>
<text text-anchor="start" x="8" y="-138.5" font-family="Helvetica,sans-Serif" font-size="10.00">Model::parkSpaceInserter</text>
<text text-anchor="middle" x="64" y="-127.5" font-family="Helvetica,sans-Serif" font-size="10.00">::floodFill</text>
</g>
<!-- Node32 -->
<g id="node2" class="node"><title>Node32</title>
<g id="a_node2"><a xlink:href="class_model_1_1park_space_inserter.html#ab86507374576bb3c92a1356507065806" target="_top" xlink:title="Model::parkSpaceInserter\l::getRelativeDirection">
<polygon fill="white" stroke="black" points="164,-235.5 164,-265.5 292,-265.5 292,-235.5 164,-235.5"/>
<text text-anchor="start" x="172" y="-253.5" font-family="Helvetica,sans-Serif" font-size="10.00">Model::parkSpaceInserter</text>
<text text-anchor="middle" x="228" y="-242.5" font-family="Helvetica,sans-Serif" font-size="10.00">::getRelativeDirection</text>
</a>
</g>
</g>
<!-- Node31&#45;&gt;Node32 -->
<g id="edge1" class="edge"><title>Node31&#45;&gt;Node32</title>
<path fill="none" stroke="midnightblue" d="M78.0245,-150.614C95.7462,-170.382 129.249,-205.019 164,-226.5 166.604,-228.11 169.334,-229.641 172.136,-231.093"/>
<polygon fill="midnightblue" stroke="midnightblue" points="170.737,-234.304 181.269,-235.46 173.757,-227.989 170.737,-234.304"/>
</g>
<!-- Node33 -->
<g id="node3" class="node"><title>Node33</title>
<g id="a_node3"><a xlink:href="class_model_1_1map_generator.html#a02b91ca9a47b993e6fa14b9b0ad317f2" target="_top" xlink:title="Get tile from point in tile coordinates. ">
<polygon fill="white" stroke="black" points="173,-186.5 173,-216.5 283,-216.5 283,-186.5 173,-186.5"/>
<text text-anchor="start" x="181" y="-204.5" font-family="Helvetica,sans-Serif" font-size="10.00">Model::mapGenerator</text>
<text text-anchor="middle" x="228" y="-193.5" font-family="Helvetica,sans-Serif" font-size="10.00">::getTile</text>
</a>
</g>
</g>
<!-- Node31&#45;&gt;Node33 -->
<g id="edge2" class="edge"><title>Node31&#45;&gt;Node33</title>
<path fill="none" stroke="midnightblue" d="M102.166,-150.642C125.422,-160.116 155.576,-172.401 180.422,-182.524"/>
<polygon fill="midnightblue" stroke="midnightblue" points="179.425,-185.897 190.007,-186.429 182.066,-179.414 179.425,-185.897"/>
</g>
<!-- Node34 -->
<g id="node4" class="node"><title>Node34</title>
<g id="a_node4"><a xlink:href="class_model_1_1map_generator.html#aaac1161126a56490862e3b5fffffbded" target="_top" xlink:title="Model::mapGenerator\l::indexAt">
<polygon fill="white" stroke="black" points="328,-71.5 328,-101.5 438,-101.5 438,-71.5 328,-71.5"/>
<text text-anchor="start" x="336" y="-89.5" font-family="Helvetica,sans-Serif" font-size="10.00">Model::mapGenerator</text>
<text text-anchor="middle" x="383" y="-78.5" font-family="Helvetica,sans-Serif" font-size="10.00">::indexAt</text>
</a>
</g>
</g>
<!-- Node31&#45;&gt;Node34 -->
<g id="edge3" class="edge"><title>Node31&#45;&gt;Node34</title>
<path fill="none" stroke="midnightblue" d="M128.283,-145.431C174.462,-150.503 238.133,-152.943 292,-138.5 314.709,-132.411 337.615,-119.051 354.635,-107.398"/>
<polygon fill="midnightblue" stroke="midnightblue" points="356.822,-110.138 362.967,-101.507 352.781,-104.422 356.822,-110.138"/>
</g>
<!-- Node36 -->
<g id="node6" class="node"><title>Node36</title>
<g id="a_node6"><a xlink:href="class_model_1_1map_generator.html#af153f95aea5145100546ad86ac4b9d02" target="_top" xlink:title="Model::mapGenerator\l::indexToX">
<polygon fill="white" stroke="black" points="173,-98.5 173,-128.5 283,-128.5 283,-98.5 173,-98.5"/>
<text text-anchor="start" x="181" y="-116.5" font-family="Helvetica,sans-Serif" font-size="10.00">Model::mapGenerator</text>
<text text-anchor="middle" x="228" y="-105.5" font-family="Helvetica,sans-Serif" font-size="10.00">::indexToX</text>
</a>
</g>
</g>
<!-- Node31&#45;&gt;Node36 -->
<g id="edge5" class="edge"><title>Node31&#45;&gt;Node36</title>
<path fill="none" stroke="midnightblue" d="M128.097,-126.931C139.389,-125.398 151.168,-123.798 162.498,-122.259"/>
<polygon fill="midnightblue" stroke="midnightblue" points="163.312,-125.681 172.75,-120.867 162.37,-118.745 163.312,-125.681"/>
</g>
<!-- Node37 -->
<g id="node7" class="node"><title>Node37</title>
<g id="a_node7"><a xlink:href="class_model_1_1map_generator.html#a73020896792ce1a6aa4dd0ce2b9c5caf" target="_top" xlink:title="Model::mapGenerator\l::indexToY">
<polygon fill="white" stroke="black" points="173,-49.5 173,-79.5 283,-79.5 283,-49.5 173,-49.5"/>
<text text-anchor="start" x="181" y="-67.5" font-family="Helvetica,sans-Serif" font-size="10.00">Model::mapGenerator</text>
<text text-anchor="middle" x="228" y="-56.5" font-family="Helvetica,sans-Serif" font-size="10.00">::indexToY</text>
</a>
</g>
</g>
<!-- Node31&#45;&gt;Node37 -->
<g id="edge6" class="edge"><title>Node31&#45;&gt;Node37</title>
<path fill="none" stroke="midnightblue" d="M96.4483,-120.328C115.805,-111.129 141.194,-99.3137 164,-89.5 168.677,-87.4876 173.572,-85.4413 178.478,-83.4301"/>
<polygon fill="midnightblue" stroke="midnightblue" points="179.919,-86.6228 187.873,-79.6238 177.291,-80.135 179.919,-86.6228"/>
</g>
<!-- Node38 -->
<g id="node8" class="node"><title>Node38</title>
<g id="a_node8"><a xlink:href="class_model_1_1map_generator.html#a180f1510b8d7eb4af5dc919eeaddfa69" target="_top" xlink:title="Model::mapGenerator\l::setTile">
<polygon fill="white" stroke="black" points="173,-0.5 173,-30.5 283,-30.5 283,-0.5 173,-0.5"/>
<text text-anchor="start" x="181" y="-18.5" font-family="Helvetica,sans-Serif" font-size="10.00">Model::mapGenerator</text>
<text text-anchor="middle" x="228" y="-7.5" font-family="Helvetica,sans-Serif" font-size="10.00">::setTile</text>
</a>
</g>
</g>
<!-- Node31&#45;&gt;Node38 -->
<g id="edge7" class="edge"><title>Node31&#45;&gt;Node38</title>
<path fill="none" stroke="midnightblue" d="M77.3318,-120.456C94.7834,-99.9845 128.532,-63.2976 164,-40.5 166.96,-38.5972 170.089,-36.7978 173.306,-35.1036"/>
<polygon fill="midnightblue" stroke="midnightblue" points="175.08,-38.1326 182.539,-30.609 172.016,-31.8386 175.08,-38.1326"/>
</g>
<!-- Node35 -->
<g id="node5" class="node"><title>Node35</title>
<g id="a_node5"><a xlink:href="class_model_1_1map_generator.html#a244ad56297f00ce2ab892d3b2a14ffac" target="_top" xlink:title="Model::mapGenerator\l::isInMapRange">
<polygon fill="white" stroke="black" points="474,-71.5 474,-101.5 584,-101.5 584,-71.5 474,-71.5"/>
<text text-anchor="start" x="482" y="-89.5" font-family="Helvetica,sans-Serif" font-size="10.00">Model::mapGenerator</text>
<text text-anchor="middle" x="529" y="-78.5" font-family="Helvetica,sans-Serif" font-size="10.00">::isInMapRange</text>
</a>
</g>
</g>
<!-- Node34&#45;&gt;Node35 -->
<g id="edge4" class="edge"><title>Node34&#45;&gt;Node35</title>
<path fill="none" stroke="midnightblue" d="M438.03,-86.5C446.314,-86.5 454.936,-86.5 463.42,-86.5"/>
<polygon fill="midnightblue" stroke="midnightblue" points="463.667,-90.0001 473.667,-86.5 463.667,-83.0001 463.667,-90.0001"/>
</g>
<!-- Node38&#45;&gt;Node34 -->
<g id="edge8" class="edge"><title>Node38&#45;&gt;Node34</title>
<path fill="none" stroke="midnightblue" d="M268.561,-30.5344C276.386,-33.6941 284.496,-37.1027 292,-40.5 309.639,-48.486 328.793,-58.1338 344.879,-66.5271"/>
<polygon fill="midnightblue" stroke="midnightblue" points="343.481,-69.7462 353.961,-71.3019 346.738,-63.5504 343.481,-69.7462"/>
</g>
</g>
</svg>
