<?xml version="1.0" encoding="UTF-8" standalone="no"?>
<!DOCTYPE svg PUBLIC "-//W3C//DTD SVG 1.1//EN"
 "http://www.w3.org/Graphics/SVG/1.1/DTD/svg11.dtd">
<!-- Generated by graphviz version 2.38.0 (20140413.2041)
 -->
<!-- Title: View::CityScape::addParkingHalls Pages: 1 -->
<svg width="325pt" height="235pt"
 viewBox="0.00 0.00 325.00 235.00" xmlns="http://www.w3.org/2000/svg" xmlns:xlink="http://www.w3.org/1999/xlink">
<g id="graph0" class="graph" transform="scale(1 1) rotate(0) translate(4 231)">
<title>View::CityScape::addParkingHalls</title>
<polygon fill="white" stroke="none" points="-4,4 -4,-231 321,-231 321,4 -4,4"/>
<!-- Node4 -->
<g id="node1" class="node"><title>Node4</title>
<polygon fill="#bfbfbf" stroke="black" points="0,-98.5 0,-128.5 143,-128.5 143,-98.5 0,-98.5"/>
<text text-anchor="start" x="8" y="-116.5" font-family="Helvetica,sans-Serif" font-size="10.00">View::CityScape::addParking</text>
<text text-anchor="middle" x="71.5" y="-105.5" font-family="Helvetica,sans-Serif" font-size="10.00">Halls</text>
</g>
<!-- Node5 -->
<g id="node2" class="node"><title>Node5</title>
<g id="a_node2"><a xlink:href="class_view_1_1_city_scape_parking_hall.html#a62488b42247af8bb68e960e1719df8ee" target="_top" xlink:title="View::CityScapeParkingHall\l::getX">
<polygon fill="white" stroke="black" points="179,-196.5 179,-226.5 317,-226.5 317,-196.5 179,-196.5"/>
<text text-anchor="start" x="187" y="-214.5" font-family="Helvetica,sans-Serif" font-size="10.00">View::CityScapeParkingHall</text>
<text text-anchor="middle" x="248" y="-203.5" font-family="Helvetica,sans-Serif" font-size="10.00">::getX</text>
</a>
</g>
</g>
<!-- Node4&#45;&gt;Node5 -->
<g id="edge1" class="edge"><title>Node4&#45;&gt;Node5</title>
<path fill="none" stroke="midnightblue" d="M91.1437,-128.781C111.67,-145.034 146.134,-170.67 179,-187.5 182.474,-189.279 186.109,-190.98 189.817,-192.597"/>
<polygon fill="midnightblue" stroke="midnightblue" points="188.547,-195.859 199.126,-196.436 191.216,-189.388 188.547,-195.859"/>
</g>
<!-- Node6 -->
<g id="node3" class="node"><title>Node6</title>
<g id="a_node3"><a xlink:href="class_view_1_1_city_scape_parking_hall.html#ab7bd1bf8519e9ed8ae777549f3d6b9cb" target="_top" xlink:title="View::CityScapeParkingHall\l::getY">
<polygon fill="white" stroke="black" points="179,-147.5 179,-177.5 317,-177.5 317,-147.5 179,-147.5"/>
<text text-anchor="start" x="187" y="-165.5" font-family="Helvetica,sans-Serif" font-size="10.00">View::CityScapeParkingHall</text>
<text text-anchor="middle" x="248" y="-154.5" font-family="Helvetica,sans-Serif" font-size="10.00">::getY</text>
</a>
</g>
</g>
<!-- Node4&#45;&gt;Node6 -->
<g id="edge2" class="edge"><title>Node4&#45;&gt;Node6</title>
<path fill="none" stroke="midnightblue" d="M126.28,-128.601C144.443,-133.702 164.888,-139.443 183.719,-144.73"/>
<polygon fill="midnightblue" stroke="midnightblue" points="182.824,-148.115 193.398,-147.448 184.717,-141.375 182.824,-148.115"/>
</g>
<!-- Node7 -->
<g id="node4" class="node"><title>Node7</title>
<g id="a_node4"><a xlink:href="class_view_1_1_city_scape.html#a7e513ea47343c6d639aa5382f729ce0b" target="_top" xlink:title="View::CityScape::mission\lSelectRequested">
<polygon fill="white" stroke="black" points="184,-98.5 184,-128.5 312,-128.5 312,-98.5 184,-98.5"/>
<text text-anchor="start" x="192" y="-116.5" font-family="Helvetica,sans-Serif" font-size="10.00">View::CityScape::mission</text>
<text text-anchor="middle" x="248" y="-105.5" font-family="Helvetica,sans-Serif" font-size="10.00">SelectRequested</text>
</a>
</g>
</g>
<!-- Node4&#45;&gt;Node7 -->
<g id="edge3" class="edge"><title>Node4&#45;&gt;Node7</title>
<path fill="none" stroke="midnightblue" d="M143.224,-113.5C153.286,-113.5 163.652,-113.5 173.76,-113.5"/>
<polygon fill="midnightblue" stroke="midnightblue" points="173.762,-117 183.762,-113.5 173.761,-110 173.762,-117"/>
</g>
<!-- Node8 -->
<g id="node5" class="node"><title>Node8</title>
<g id="a_node5"><a xlink:href="class_view_1_1_city_scape.html#a28f26c5eab36f128e4a612672563ca95" target="_top" xlink:title="View::CityScape::parking\lHallInformationRequested">
<polygon fill="white" stroke="black" points="184.5,-49.5 184.5,-79.5 311.5,-79.5 311.5,-49.5 184.5,-49.5"/>
<text text-anchor="start" x="192.5" y="-67.5" font-family="Helvetica,sans-Serif" font-size="10.00">View::CityScape::parking</text>
<text text-anchor="middle" x="248" y="-56.5" font-family="Helvetica,sans-Serif" font-size="10.00">HallInformationRequested</text>
</a>
</g>
</g>
<!-- Node4&#45;&gt;Node8 -->
<g id="edge4" class="edge"><title>Node4&#45;&gt;Node8</title>
<path fill="none" stroke="midnightblue" d="M126.28,-98.3986C144.443,-93.2981 164.888,-87.5571 183.719,-82.2695"/>
<polygon fill="midnightblue" stroke="midnightblue" points="184.717,-85.6248 193.398,-79.5516 182.824,-78.8854 184.717,-85.6248"/>
</g>
<!-- Node9 -->
<g id="node6" class="node"><title>Node9</title>
<g id="a_node6"><a xlink:href="class_view_1_1_city_scape.html#a48c22a3695750e5ce104cd8ab548ba3e" target="_top" xlink:title="View::CityScape::parking\lHallSelectRequested">
<polygon fill="white" stroke="black" points="185,-0.5 185,-30.5 311,-30.5 311,-0.5 185,-0.5"/>
<text text-anchor="start" x="193" y="-18.5" font-family="Helvetica,sans-Serif" font-size="10.00">View::CityScape::parking</text>
<text text-anchor="middle" x="248" y="-7.5" font-family="Helvetica,sans-Serif" font-size="10.00">HallSelectRequested</text>
</a>
</g>
</g>
<!-- Node4&#45;&gt;Node9 -->
<g id="edge5" class="edge"><title>Node4&#45;&gt;Node9</title>
<path fill="none" stroke="midnightblue" d="M91.5994,-98.2341C112.235,-82.2739 146.533,-57.2624 179,-40.5 183.181,-38.3415 187.591,-36.2801 192.076,-34.3334"/>
<polygon fill="midnightblue" stroke="midnightblue" points="193.431,-37.5607 201.334,-30.5044 190.755,-31.0921 193.431,-37.5607"/>
</g>
</g>
</svg>
