<?xml version="1.0" encoding="UTF-8" standalone="no"?>
<!DOCTYPE svg PUBLIC "-//W3C//DTD SVG 1.1//EN"
 "http://www.w3.org/Graphics/SVG/1.1/DTD/svg11.dtd">
<!-- Generated by graphviz version 2.38.0 (20140413.2041)
 -->
<!-- Title: View::HeadQuartersUI::UIReloadWeaponSignal Pages: 1 -->
<svg width="613pt" height="39pt"
 viewBox="0.00 0.00 613.00 39.00" xmlns="http://www.w3.org/2000/svg" xmlns:xlink="http://www.w3.org/1999/xlink">
<g id="graph0" class="graph" transform="scale(1 1) rotate(0) translate(4 35)">
<title>View::HeadQuartersUI::UIReloadWeaponSignal</title>
<polygon fill="white" stroke="none" points="-4,4 -4,-35 609,-35 609,4 -4,4"/>
<!-- Node113 -->
<g id="node1" class="node"><title>Node113</title>
<polygon fill="#bfbfbf" stroke="black" points="0,-0.5 0,-30.5 125,-30.5 125,-0.5 0,-0.5"/>
<text text-anchor="start" x="8" y="-18.5" font-family="Helvetica,sans-Serif" font-size="10.00">View::HeadQuartersUI</text>
<text text-anchor="middle" x="62.5" y="-7.5" font-family="Helvetica,sans-Serif" font-size="10.00">::UIReloadWeaponSignal</text>
</g>
<!-- Node114 -->
<g id="node2" class="node"><title>Node114</title>
<g id="a_node2"><a xlink:href="class_view_1_1_head_quarters_u_i.html#a0508cada4f9b06a59e32f4967b1a3070" target="_top" xlink:title="View::HeadQuartersUI\l::reloadWeaponButtonPushed">
<polygon fill="white" stroke="black" points="161,-0.5 161,-30.5 307,-30.5 307,-0.5 161,-0.5"/>
<text text-anchor="start" x="169" y="-18.5" font-family="Helvetica,sans-Serif" font-size="10.00">View::HeadQuartersUI</text>
<text text-anchor="middle" x="234" y="-7.5" font-family="Helvetica,sans-Serif" font-size="10.00">::reloadWeaponButtonPushed</text>
</a>
</g>
</g>
<!-- Node113&#45;&gt;Node114 -->
<g id="edge1" class="edge"><title>Node113&#45;&gt;Node114</title>
<path fill="none" stroke="midnightblue" d="M135.319,-15.5C143.727,-15.5 152.309,-15.5 160.723,-15.5"/>
<polygon fill="midnightblue" stroke="midnightblue" points="135.173,-12.0001 125.173,-15.5 135.173,-19.0001 135.173,-12.0001"/>
</g>
<!-- Node115 -->
<g id="node3" class="node"><title>Node115</title>
<g id="a_node3"><a xlink:href="class_view_1_1_head_quarters_u_i.html#a504906d7f958448301b500a3762ff618" target="_top" xlink:title="View::HeadQuartersUI\l::connectShopUI">
<polygon fill="white" stroke="black" points="343,-0.5 343,-30.5 456,-30.5 456,-0.5 343,-0.5"/>
<text text-anchor="start" x="351" y="-18.5" font-family="Helvetica,sans-Serif" font-size="10.00">View::HeadQuartersUI</text>
<text text-anchor="middle" x="399.5" y="-7.5" font-family="Helvetica,sans-Serif" font-size="10.00">::connectShopUI</text>
</a>
</g>
</g>
<!-- Node114&#45;&gt;Node115 -->
<g id="edge2" class="edge"><title>Node114&#45;&gt;Node115</title>
<path fill="none" stroke="midnightblue" d="M317.337,-15.5C325.998,-15.5 334.65,-15.5 342.904,-15.5"/>
<polygon fill="midnightblue" stroke="midnightblue" points="317.189,-12.0001 307.189,-15.5 317.189,-19.0001 317.189,-12.0001"/>
</g>
<!-- Node116 -->
<g id="node4" class="node"><title>Node116</title>
<g id="a_node4"><a xlink:href="class_view_1_1_head_quarters_u_i.html#a98db9788c668433314da83b183101f0c" target="_top" xlink:title="View::HeadQuartersUI\l::HeadQuartersUI">
<polygon fill="white" stroke="black" points="492,-0.5 492,-30.5 605,-30.5 605,-0.5 492,-0.5"/>
<text text-anchor="start" x="500" y="-18.5" font-family="Helvetica,sans-Serif" font-size="10.00">View::HeadQuartersUI</text>
<text text-anchor="middle" x="548.5" y="-7.5" font-family="Helvetica,sans-Serif" font-size="10.00">::HeadQuartersUI</text>
</a>
</g>
</g>
<!-- Node115&#45;&gt;Node116 -->
<g id="edge3" class="edge"><title>Node115&#45;&gt;Node116</title>
<path fill="none" stroke="midnightblue" d="M466.078,-15.5C474.681,-15.5 483.43,-15.5 491.847,-15.5"/>
<polygon fill="midnightblue" stroke="midnightblue" points="466.074,-12.0001 456.074,-15.5 466.074,-19.0001 466.074,-12.0001"/>
</g>
</g>
</svg>
