<?xml version="1.0" encoding="UTF-8" standalone="no"?>
<!DOCTYPE svg PUBLIC "-//W3C//DTD SVG 1.1//EN"
 "http://www.w3.org/Graphics/SVG/1.1/DTD/svg11.dtd">
<!-- Generated by graphviz version 2.38.0 (20140413.2041)
 -->
<!-- Title: Model::Equipment::getName Pages: 1 -->
<svg width="497pt" height="78pt"
 viewBox="0.00 0.00 497.00 77.50" xmlns="http://www.w3.org/2000/svg" xmlns:xlink="http://www.w3.org/1999/xlink">
<g id="graph0" class="graph" transform="scale(1 1) rotate(0) translate(4 73.5)">
<title>Model::Equipment::getName</title>
<polygon fill="white" stroke="none" points="-4,4 -4,-73.5 493,-73.5 493,4 -4,4"/>
<!-- Node25 -->
<g id="node1" class="node"><title>Node25</title>
<polygon fill="#bfbfbf" stroke="black" points="0,-22.5 0,-41.5 140,-41.5 140,-22.5 0,-22.5"/>
<text text-anchor="middle" x="70" y="-29.5" font-family="Helvetica,sans-Serif" font-size="10.00">Model::Equipment::getName</text>
</g>
<!-- Node26 -->
<g id="node2" class="node"><title>Node26</title>
<g id="a_node2"><a xlink:href="class_model_1_1_cyber_teekkari.html#a970088d796bb90c510e477270f0c02f2" target="_top" xlink:title="Model::CyberTeekkari\l::buyUpgrade">
<polygon fill="white" stroke="black" points="187.5,-39 187.5,-69 298.5,-69 298.5,-39 187.5,-39"/>
<text text-anchor="start" x="195.5" y="-57" font-family="Helvetica,sans-Serif" font-size="10.00">Model::CyberTeekkari</text>
<text text-anchor="middle" x="243" y="-46" font-family="Helvetica,sans-Serif" font-size="10.00">::buyUpgrade</text>
</a>
</g>
</g>
<!-- Node25&#45;&gt;Node26 -->
<g id="edge1" class="edge"><title>Node25&#45;&gt;Node26</title>
<path fill="none" stroke="midnightblue" d="M150.113,-42.1783C162.726,-43.801 175.525,-45.4476 187.404,-46.976"/>
<polygon fill="midnightblue" stroke="midnightblue" points="150.424,-38.6896 140.059,-40.8848 149.531,-45.6323 150.424,-38.6896"/>
</g>
<!-- Node28 -->
<g id="node4" class="node"><title>Node28</title>
<g id="a_node4"><a xlink:href="class_model_1_1_player.html#aa6f794265ed4142993311792aefdd9dc" target="_top" xlink:title="Model::Player::buyUpgrade">
<polygon fill="white" stroke="black" points="176,-0.5 176,-19.5 310,-19.5 310,-0.5 176,-0.5"/>
<text text-anchor="middle" x="243" y="-7.5" font-family="Helvetica,sans-Serif" font-size="10.00">Model::Player::buyUpgrade</text>
</a>
</g>
</g>
<!-- Node25&#45;&gt;Node28 -->
<g id="edge3" class="edge"><title>Node25&#45;&gt;Node28</title>
<path fill="none" stroke="midnightblue" d="M150.074,-21.8268C158.656,-20.7226 167.325,-19.6073 175.733,-18.5256"/>
<polygon fill="midnightblue" stroke="midnightblue" points="149.531,-18.3677 140.059,-23.1152 150.424,-25.3104 149.531,-18.3677"/>
</g>
<!-- Node27 -->
<g id="node3" class="node"><title>Node27</title>
<g id="a_node3"><a xlink:href="class_model_1_1_model.html#a1e5c842c7a2cd9e8dbb8798bf733d748" target="_top" xlink:title="buyEquipment ostaa tavaran (Equipment) joko pelaajalle tai cyberteekkarille. ">
<polygon fill="white" stroke="black" points="346,-22.5 346,-41.5 489,-41.5 489,-22.5 346,-22.5"/>
<text text-anchor="middle" x="417.5" y="-29.5" font-family="Helvetica,sans-Serif" font-size="10.00">Model::Model::buyEquipment</text>
</a>
</g>
</g>
<!-- Node26&#45;&gt;Node27 -->
<g id="edge2" class="edge"><title>Node26&#45;&gt;Node27</title>
<path fill="none" stroke="midnightblue" d="M308.616,-45.7591C320.762,-44.21 333.521,-42.5829 345.84,-41.0117"/>
<polygon fill="midnightblue" stroke="midnightblue" points="308.057,-42.302 298.58,-47.0391 308.943,-49.2457 308.057,-42.302"/>
</g>
<!-- Node28&#45;&gt;Node27 -->
<g id="edge4" class="edge"><title>Node28&#45;&gt;Node27</title>
<path fill="none" stroke="midnightblue" d="M320.163,-19.7135C328.72,-20.8049 337.412,-21.9134 345.894,-22.9952"/>
<polygon fill="midnightblue" stroke="midnightblue" points="320.562,-16.2362 310.2,-18.4429 319.676,-23.1799 320.562,-16.2362"/>
</g>
</g>
</svg>
