<?xml version="1.0" encoding="UTF-8" standalone="no"?>
<!DOCTYPE svg PUBLIC "-//W3C//DTD SVG 1.1//EN"
 "http://www.w3.org/Graphics/SVG/1.1/DTD/svg11.dtd">
<!-- Generated by graphviz version 2.38.0 (20140413.2041)
 -->
<!-- Title: View::HeadQuartersUI::UIBuyWeaponSignal Pages: 1 -->
<svg width="591pt" height="39pt"
 viewBox="0.00 0.00 591.00 39.00" xmlns="http://www.w3.org/2000/svg" xmlns:xlink="http://www.w3.org/1999/xlink">
<g id="graph0" class="graph" transform="scale(1 1) rotate(0) translate(4 35)">
<title>View::HeadQuartersUI::UIBuyWeaponSignal</title>
<polygon fill="white" stroke="none" points="-4,4 -4,-35 587,-35 587,4 -4,4"/>
<!-- Node98 -->
<g id="node1" class="node"><title>Node98</title>
<polygon fill="#bfbfbf" stroke="black" points="0,-0.5 0,-30.5 113,-30.5 113,-0.5 0,-0.5"/>
<text text-anchor="start" x="8" y="-18.5" font-family="Helvetica,sans-Serif" font-size="10.00">View::HeadQuartersUI</text>
<text text-anchor="middle" x="56.5" y="-7.5" font-family="Helvetica,sans-Serif" font-size="10.00">::UIBuyWeaponSignal</text>
</g>
<!-- Node99 -->
<g id="node2" class="node"><title>Node99</title>
<g id="a_node2"><a xlink:href="class_view_1_1_head_quarters_u_i.html#a7db26615e6cda19cb873cfff36834535" target="_top" xlink:title="View::HeadQuartersUI\l::buyWeaponButtonPushed">
<polygon fill="white" stroke="black" points="149,-0.5 149,-30.5 285,-30.5 285,-0.5 149,-0.5"/>
<text text-anchor="start" x="157" y="-18.5" font-family="Helvetica,sans-Serif" font-size="10.00">View::HeadQuartersUI</text>
<text text-anchor="middle" x="217" y="-7.5" font-family="Helvetica,sans-Serif" font-size="10.00">::buyWeaponButtonPushed</text>
</a>
</g>
</g>
<!-- Node98&#45;&gt;Node99 -->
<g id="edge1" class="edge"><title>Node98&#45;&gt;Node99</title>
<path fill="none" stroke="midnightblue" d="M123.506,-15.5C131.911,-15.5 140.521,-15.5 148.942,-15.5"/>
<polygon fill="midnightblue" stroke="midnightblue" points="123.381,-12.0001 113.381,-15.5 123.381,-19.0001 123.381,-12.0001"/>
</g>
<!-- Node100 -->
<g id="node3" class="node"><title>Node100</title>
<g id="a_node3"><a xlink:href="class_view_1_1_head_quarters_u_i.html#a504906d7f958448301b500a3762ff618" target="_top" xlink:title="View::HeadQuartersUI\l::connectShopUI">
<polygon fill="white" stroke="black" points="321,-0.5 321,-30.5 434,-30.5 434,-0.5 321,-0.5"/>
<text text-anchor="start" x="329" y="-18.5" font-family="Helvetica,sans-Serif" font-size="10.00">View::HeadQuartersUI</text>
<text text-anchor="middle" x="377.5" y="-7.5" font-family="Helvetica,sans-Serif" font-size="10.00">::connectShopUI</text>
</a>
</g>
</g>
<!-- Node99&#45;&gt;Node100 -->
<g id="edge2" class="edge"><title>Node99&#45;&gt;Node100</title>
<path fill="none" stroke="midnightblue" d="M295.247,-15.5C303.824,-15.5 312.431,-15.5 320.668,-15.5"/>
<polygon fill="midnightblue" stroke="midnightblue" points="295.218,-12.0001 285.218,-15.5 295.218,-19.0001 295.218,-12.0001"/>
</g>
<!-- Node101 -->
<g id="node4" class="node"><title>Node101</title>
<g id="a_node4"><a xlink:href="class_view_1_1_head_quarters_u_i.html#a98db9788c668433314da83b183101f0c" target="_top" xlink:title="View::HeadQuartersUI\l::HeadQuartersUI">
<polygon fill="white" stroke="black" points="470,-0.5 470,-30.5 583,-30.5 583,-0.5 470,-0.5"/>
<text text-anchor="start" x="478" y="-18.5" font-family="Helvetica,sans-Serif" font-size="10.00">View::HeadQuartersUI</text>
<text text-anchor="middle" x="526.5" y="-7.5" font-family="Helvetica,sans-Serif" font-size="10.00">::HeadQuartersUI</text>
</a>
</g>
</g>
<!-- Node100&#45;&gt;Node101 -->
<g id="edge3" class="edge"><title>Node100&#45;&gt;Node101</title>
<path fill="none" stroke="midnightblue" d="M444.078,-15.5C452.681,-15.5 461.43,-15.5 469.847,-15.5"/>
<polygon fill="midnightblue" stroke="midnightblue" points="444.074,-12.0001 434.074,-15.5 444.074,-19.0001 444.074,-12.0001"/>
</g>
</g>
</svg>
