<?xml version="1.0" encoding="UTF-8" standalone="no"?>
<!DOCTYPE svg PUBLIC "-//W3C//DTD SVG 1.1//EN"
 "http://www.w3.org/Graphics/SVG/1.1/DTD/svg11.dtd">
<!-- Generated by graphviz version 2.38.0 (20140413.2041)
 -->
<!-- Title: View::ViewSideDisplayManager::missionFinishSelections Pages: 1 -->
<svg width="732pt" height="88pt"
 viewBox="0.00 0.00 732.00 88.00" xmlns="http://www.w3.org/2000/svg" xmlns:xlink="http://www.w3.org/1999/xlink">
<g id="graph0" class="graph" transform="scale(1 1) rotate(0) translate(4 84)">
<title>View::ViewSideDisplayManager::missionFinishSelections</title>
<polygon fill="white" stroke="none" points="-4,4 -4,-84 728,-84 728,4 -4,4"/>
<!-- Node52 -->
<g id="node1" class="node"><title>Node52</title>
<polygon fill="#bfbfbf" stroke="black" points="0,-24.5 0,-54.5 154,-54.5 154,-24.5 0,-24.5"/>
<text text-anchor="start" x="8" y="-42.5" font-family="Helvetica,sans-Serif" font-size="10.00">View::ViewSideDisplayManager</text>
<text text-anchor="middle" x="77" y="-31.5" font-family="Helvetica,sans-Serif" font-size="10.00">::missionFinishSelections</text>
</g>
<!-- Node53 -->
<g id="node2" class="node"><title>Node53</title>
<g id="a_node2"><a xlink:href="class_view_1_1_view_side_display_manager.html#af8744ac5c83cd4bd7a085c68f3ed8bd1" target="_top" xlink:title="View::ViewSideDisplayManager\l::changeSelectedActor">
<polygon fill="white" stroke="black" points="190,-49.5 190,-79.5 344,-79.5 344,-49.5 190,-49.5"/>
<text text-anchor="start" x="198" y="-67.5" font-family="Helvetica,sans-Serif" font-size="10.00">View::ViewSideDisplayManager</text>
<text text-anchor="middle" x="267" y="-56.5" font-family="Helvetica,sans-Serif" font-size="10.00">::changeSelectedActor</text>
</a>
</g>
</g>
<!-- Node52&#45;&gt;Node53 -->
<g id="edge1" class="edge"><title>Node52&#45;&gt;Node53</title>
<path fill="none" stroke="midnightblue" d="M154.196,-49.6324C162.609,-50.7512 171.219,-51.8962 179.744,-53.0298"/>
<polygon fill="midnightblue" stroke="midnightblue" points="179.322,-56.5043 189.696,-54.3532 180.244,-49.5654 179.322,-56.5043"/>
</g>
<!-- Node56 -->
<g id="node5" class="node"><title>Node56</title>
<g id="a_node5"><a xlink:href="class_view_1_1_view_side_display_manager.html#a5cb0bcdc7216d8bbb5e1e07a2f229048" target="_top" xlink:title="View::ViewSideDisplayManager\l::setSelectedWeapon">
<polygon fill="white" stroke="black" points="190,-0.5 190,-30.5 344,-30.5 344,-0.5 190,-0.5"/>
<text text-anchor="start" x="198" y="-18.5" font-family="Helvetica,sans-Serif" font-size="10.00">View::ViewSideDisplayManager</text>
<text text-anchor="middle" x="267" y="-7.5" font-family="Helvetica,sans-Serif" font-size="10.00">::setSelectedWeapon</text>
</a>
</g>
</g>
<!-- Node52&#45;&gt;Node56 -->
<g id="edge4" class="edge"><title>Node52&#45;&gt;Node56</title>
<path fill="none" stroke="midnightblue" d="M154.196,-29.7729C162.609,-28.6989 171.219,-27.5997 179.744,-26.5114"/>
<polygon fill="midnightblue" stroke="midnightblue" points="180.219,-29.9792 189.696,-25.241 179.333,-23.0356 180.219,-29.9792"/>
</g>
<!-- Node54 -->
<g id="node3" class="node"><title>Node54</title>
<g id="a_node3"><a xlink:href="class_view_1_1_view_side_display_manager.html#a03bec5a21a27ffb9d4252fd304b003e8" target="_top" xlink:title="View::ViewSideDisplayManager\l::getDisplay">
<polygon fill="white" stroke="black" points="380,-24.5 380,-54.5 534,-54.5 534,-24.5 380,-24.5"/>
<text text-anchor="start" x="388" y="-42.5" font-family="Helvetica,sans-Serif" font-size="10.00">View::ViewSideDisplayManager</text>
<text text-anchor="middle" x="457" y="-31.5" font-family="Helvetica,sans-Serif" font-size="10.00">::getDisplay</text>
</a>
</g>
</g>
<!-- Node53&#45;&gt;Node54 -->
<g id="edge2" class="edge"><title>Node53&#45;&gt;Node54</title>
<path fill="none" stroke="midnightblue" d="M344.196,-54.3676C352.609,-53.2488 361.219,-52.1038 369.744,-50.9702"/>
<polygon fill="midnightblue" stroke="midnightblue" points="370.244,-54.4346 379.696,-49.6468 369.322,-47.4957 370.244,-54.4346"/>
</g>
<!-- Node55 -->
<g id="node4" class="node"><title>Node55</title>
<g id="a_node4"><a xlink:href="class_view_1_1_view_side_display_manager.html#abca30c6d51d72600c52da502dcd61093" target="_top" xlink:title="View::ViewSideDisplayManager\l::getIndex">
<polygon fill="white" stroke="black" points="570,-24.5 570,-54.5 724,-54.5 724,-24.5 570,-24.5"/>
<text text-anchor="start" x="578" y="-42.5" font-family="Helvetica,sans-Serif" font-size="10.00">View::ViewSideDisplayManager</text>
<text text-anchor="middle" x="647" y="-31.5" font-family="Helvetica,sans-Serif" font-size="10.00">::getIndex</text>
</a>
</g>
</g>
<!-- Node54&#45;&gt;Node55 -->
<g id="edge3" class="edge"><title>Node54&#45;&gt;Node55</title>
<path fill="none" stroke="midnightblue" d="M534.196,-39.5C542.517,-39.5 551.032,-39.5 559.466,-39.5"/>
<polygon fill="midnightblue" stroke="midnightblue" points="559.696,-43.0001 569.696,-39.5 559.696,-36.0001 559.696,-43.0001"/>
</g>
<!-- Node56&#45;&gt;Node54 -->
<g id="edge5" class="edge"><title>Node56&#45;&gt;Node54</title>
<path fill="none" stroke="midnightblue" d="M344.196,-25.2271C352.609,-26.3011 361.219,-27.4003 369.744,-28.4886"/>
<polygon fill="midnightblue" stroke="midnightblue" points="369.333,-31.9644 379.696,-29.759 370.219,-25.0208 369.333,-31.9644"/>
</g>
</g>
</svg>
