<?xml version="1.0" encoding="UTF-8" standalone="no"?>
<!DOCTYPE svg PUBLIC "-//W3C//DTD SVG 1.1//EN"
 "http://www.w3.org/Graphics/SVG/1.1/DTD/svg11.dtd">
<!-- Generated by graphviz version 2.38.0 (20140413.2041)
 -->
<!-- Title: View::HeadQuartersUI::UIBuyUpgradeSignal Pages: 1 -->
<svg width="791pt" height="61pt"
 viewBox="0.00 0.00 791.00 61.00" xmlns="http://www.w3.org/2000/svg" xmlns:xlink="http://www.w3.org/1999/xlink">
<g id="graph0" class="graph" transform="scale(1 1) rotate(0) translate(4 57)">
<title>View::HeadQuartersUI::UIBuyUpgradeSignal</title>
<polygon fill="white" stroke="none" points="-4,4 -4,-57 787,-57 787,4 -4,4"/>
<!-- Node92 -->
<g id="node1" class="node"><title>Node92</title>
<polygon fill="#bfbfbf" stroke="black" points="0,-22.5 0,-52.5 113,-52.5 113,-22.5 0,-22.5"/>
<text text-anchor="start" x="8" y="-40.5" font-family="Helvetica,sans-Serif" font-size="10.00">View::HeadQuartersUI</text>
<text text-anchor="middle" x="56.5" y="-29.5" font-family="Helvetica,sans-Serif" font-size="10.00">::UIBuyUpgradeSignal</text>
</g>
<!-- Node93 -->
<g id="node2" class="node"><title>Node93</title>
<g id="a_node2"><a xlink:href="class_view_1_1_head_quarters_u_i.html#aa3952e9dea601b9d54dcfebaf658b685" target="_top" xlink:title="View::HeadQuartersUI\l::buyUpgradeButtonPushed">
<polygon fill="white" stroke="black" points="149,-22.5 149,-52.5 285,-52.5 285,-22.5 149,-22.5"/>
<text text-anchor="start" x="157" y="-40.5" font-family="Helvetica,sans-Serif" font-size="10.00">View::HeadQuartersUI</text>
<text text-anchor="middle" x="217" y="-29.5" font-family="Helvetica,sans-Serif" font-size="10.00">::buyUpgradeButtonPushed</text>
</a>
</g>
</g>
<!-- Node92&#45;&gt;Node93 -->
<g id="edge1" class="edge"><title>Node92&#45;&gt;Node93</title>
<path fill="none" stroke="midnightblue" d="M123.506,-37.5C131.911,-37.5 140.521,-37.5 148.942,-37.5"/>
<polygon fill="midnightblue" stroke="midnightblue" points="123.381,-34.0001 113.381,-37.5 123.381,-41.0001 123.381,-34.0001"/>
</g>
<!-- Node94 -->
<g id="node3" class="node"><title>Node94</title>
<g id="a_node3"><a xlink:href="class_view_1_1_head_quarters_u_i.html#a504906d7f958448301b500a3762ff618" target="_top" xlink:title="View::HeadQuartersUI\l::connectShopUI">
<polygon fill="white" stroke="black" points="521,-22.5 521,-52.5 634,-52.5 634,-22.5 521,-22.5"/>
<text text-anchor="start" x="529" y="-40.5" font-family="Helvetica,sans-Serif" font-size="10.00">View::HeadQuartersUI</text>
<text text-anchor="middle" x="577.5" y="-29.5" font-family="Helvetica,sans-Serif" font-size="10.00">::connectShopUI</text>
</a>
</g>
</g>
<!-- Node93&#45;&gt;Node94 -->
<g id="edge2" class="edge"><title>Node93&#45;&gt;Node94</title>
<path fill="none" stroke="midnightblue" d="M295.206,-39.9928C303.906,-40.2011 312.643,-40.3783 321,-40.5 393.881,-41.5612 412.121,-41.6944 485,-40.5 496.601,-40.3099 509.026,-39.9842 520.862,-39.6158"/>
<polygon fill="midnightblue" stroke="midnightblue" points="295.12,-36.4896 285.035,-39.7353 294.943,-43.4873 295.12,-36.4896"/>
</g>
<!-- Node96 -->
<g id="node5" class="node"><title>Node96</title>
<g id="a_node5"><a xlink:href="class_view_1_1_head_quarters_u_i.html#a27b2fed9322bb80d6633f442a3fd9035" target="_top" xlink:title="View::HeadQuartersUI\l::cyberListViewItemDoubleClicked">
<polygon fill="white" stroke="black" points="321,-0.5 321,-30.5 485,-30.5 485,-0.5 321,-0.5"/>
<text text-anchor="start" x="329" y="-18.5" font-family="Helvetica,sans-Serif" font-size="10.00">View::HeadQuartersUI</text>
<text text-anchor="middle" x="403" y="-7.5" font-family="Helvetica,sans-Serif" font-size="10.00">::cyberListViewItemDoubleClicked</text>
</a>
</g>
</g>
<!-- Node93&#45;&gt;Node96 -->
<g id="edge4" class="edge"><title>Node93&#45;&gt;Node96</title>
<path fill="none" stroke="midnightblue" d="M295.392,-28.2466C303.824,-27.2384 312.425,-26.2101 320.9,-25.1967"/>
<polygon fill="midnightblue" stroke="midnightblue" points="294.723,-24.8016 285.209,-29.4641 295.554,-31.7521 294.723,-24.8016"/>
</g>
<!-- Node95 -->
<g id="node4" class="node"><title>Node95</title>
<g id="a_node4"><a xlink:href="class_view_1_1_head_quarters_u_i.html#a98db9788c668433314da83b183101f0c" target="_top" xlink:title="View::HeadQuartersUI\l::HeadQuartersUI">
<polygon fill="white" stroke="black" points="670,-22.5 670,-52.5 783,-52.5 783,-22.5 670,-22.5"/>
<text text-anchor="start" x="678" y="-40.5" font-family="Helvetica,sans-Serif" font-size="10.00">View::HeadQuartersUI</text>
<text text-anchor="middle" x="726.5" y="-29.5" font-family="Helvetica,sans-Serif" font-size="10.00">::HeadQuartersUI</text>
</a>
</g>
</g>
<!-- Node94&#45;&gt;Node95 -->
<g id="edge3" class="edge"><title>Node94&#45;&gt;Node95</title>
<path fill="none" stroke="midnightblue" d="M644.078,-37.5C652.681,-37.5 661.43,-37.5 669.847,-37.5"/>
<polygon fill="midnightblue" stroke="midnightblue" points="644.074,-34.0001 634.074,-37.5 644.074,-41.0001 644.074,-34.0001"/>
</g>
<!-- Node96&#45;&gt;Node94 -->
<g id="edge5" class="edge"><title>Node96&#45;&gt;Node94</title>
<path fill="none" stroke="midnightblue" d="M495.384,-27.1548C504.051,-28.2601 512.649,-29.3567 520.825,-30.3995"/>
<polygon fill="midnightblue" stroke="midnightblue" points="495.561,-23.6491 485.199,-25.8558 494.676,-30.5929 495.561,-23.6491"/>
</g>
</g>
</svg>
