<?xml version="1.0" encoding="UTF-8" standalone="no"?>
<!DOCTYPE svg PUBLIC "-//W3C//DTD SVG 1.1//EN"
 "http://www.w3.org/Graphics/SVG/1.1/DTD/svg11.dtd">
<!-- Generated by graphviz version 2.38.0 (20140413.2041)
 -->
<!-- Title: View::ActionScenePC::step Pages: 1 -->
<svg width="276pt" height="88pt"
 viewBox="0.00 0.00 276.00 88.00" xmlns="http://www.w3.org/2000/svg" xmlns:xlink="http://www.w3.org/1999/xlink">
<g id="graph0" class="graph" transform="scale(1 1) rotate(0) translate(4 84)">
<title>View::ActionScenePC::step</title>
<polygon fill="white" stroke="none" points="-4,4 -4,-84 272,-84 272,4 -4,4"/>
<!-- Node95 -->
<g id="node1" class="node"><title>Node95</title>
<polygon fill="#bfbfbf" stroke="black" points="0,-24.5 0,-54.5 113,-54.5 113,-24.5 0,-24.5"/>
<text text-anchor="start" x="8" y="-42.5" font-family="Helvetica,sans-Serif" font-size="10.00">View::ActionScenePC</text>
<text text-anchor="middle" x="56.5" y="-31.5" font-family="Helvetica,sans-Serif" font-size="10.00">::step</text>
</g>
<!-- Node96 -->
<g id="node2" class="node"><title>Node96</title>
<g id="a_node2"><a xlink:href="class_view_1_1_action_scene_feet.html#adb3d6be92f4099f725c0f604f6d892d6" target="_top" xlink:title="View::ActionSceneFeet\l::nextFrame">
<polygon fill="white" stroke="black" points="149,-49.5 149,-79.5 268,-79.5 268,-49.5 149,-49.5"/>
<text text-anchor="start" x="157" y="-67.5" font-family="Helvetica,sans-Serif" font-size="10.00">View::ActionSceneFeet</text>
<text text-anchor="middle" x="208.5" y="-56.5" font-family="Helvetica,sans-Serif" font-size="10.00">::nextFrame</text>
</a>
</g>
</g>
<!-- Node95&#45;&gt;Node96 -->
<g id="edge1" class="edge"><title>Node95&#45;&gt;Node96</title>
<path fill="none" stroke="midnightblue" d="M113.354,-48.8091C121.676,-50.196 130.335,-51.6391 138.882,-53.0637"/>
<polygon fill="midnightblue" stroke="midnightblue" points="138.399,-56.5313 148.838,-54.723 139.55,-49.6266 138.399,-56.5313"/>
</g>
<!-- Node97 -->
<g id="node3" class="node"><title>Node97</title>
<g id="a_node3"><a xlink:href="class_view_1_1_action_scene_feet.html#a74dfcd6e4a0b5d3fc3dd27079107ecdc" target="_top" xlink:title="View::ActionSceneFeet\l::setPosition">
<polygon fill="white" stroke="black" points="149,-0.5 149,-30.5 268,-30.5 268,-0.5 149,-0.5"/>
<text text-anchor="start" x="157" y="-18.5" font-family="Helvetica,sans-Serif" font-size="10.00">View::ActionSceneFeet</text>
<text text-anchor="middle" x="208.5" y="-7.5" font-family="Helvetica,sans-Serif" font-size="10.00">::setPosition</text>
</a>
</g>
</g>
<!-- Node95&#45;&gt;Node97 -->
<g id="edge2" class="edge"><title>Node95&#45;&gt;Node97</title>
<path fill="none" stroke="midnightblue" d="M113.354,-30.5633C121.676,-29.2318 130.335,-27.8464 138.882,-26.4788"/>
<polygon fill="midnightblue" stroke="midnightblue" points="139.517,-29.9219 148.838,-24.8859 138.411,-23.0098 139.517,-29.9219"/>
</g>
</g>
</svg>
