<?xml version="1.0" encoding="UTF-8" standalone="no"?>
<!DOCTYPE svg PUBLIC "-//W3C//DTD SVG 1.1//EN"
 "http://www.w3.org/Graphics/SVG/1.1/DTD/svg11.dtd">
<!-- Generated by graphviz version 2.38.0 (20140413.2041)
 -->
<!-- Title: Model::layoutGenerator Pages: 1 -->
<svg width="800pt" height="766pt"
 viewBox="0.00 0.00 800.00 766.00" xmlns="http://www.w3.org/2000/svg" xmlns:xlink="http://www.w3.org/1999/xlink">
<g id="graph0" class="graph" transform="scale(1 1) rotate(0) translate(4 762)">
<title>Model::layoutGenerator</title>
<polygon fill="white" stroke="none" points="-4,4 -4,-762 796,-762 796,4 -4,4"/>
<!-- Node1 -->
<g id="node1" class="node"><title>Node1</title>
<polygon fill="#bfbfbf" stroke="black" points="429,-513 429,-603 547,-603 547,-513 429,-513"/>
<text text-anchor="middle" x="488" y="-591" font-family="Helvetica,sans-Serif" font-size="10.00">Model::layoutGenerator</text>
<polyline fill="none" stroke="black" points="429,-584 547,-584 "/>
<text text-anchor="middle" x="488" y="-572" font-family="Helvetica,sans-Serif" font-size="10.00"> </text>
<polyline fill="none" stroke="black" points="429,-565 547,-565 "/>
<text text-anchor="start" x="437" y="-553" font-family="Helvetica,sans-Serif" font-size="10.00">+ layoutGenerator()</text>
<text text-anchor="start" x="437" y="-542" font-family="Helvetica,sans-Serif" font-size="10.00">+ generateHall()</text>
<text text-anchor="start" x="437" y="-531" font-family="Helvetica,sans-Serif" font-size="10.00">&#45; roomOk()</text>
<text text-anchor="start" x="437" y="-520" font-family="Helvetica,sans-Serif" font-size="10.00">&#45; randomRoom()</text>
</g>
<!-- Node2 -->
<g id="node2" class="node"><title>Node2</title>
<g id="a_node2"><a xlink:href="class_model_1_1map_generator.html" target="_top" xlink:title="{Model::mapGenerator\n||+ mapGenerator()\l+ getTile()\l+ getHeight()\l+ getWidth()\l+ getStartX()\l+ getStartY()\l+ generateHall()\l+ getLayout()\l&#45; getMedialMap()\l&#45; getDistanceMap()\l&#45; isInMapRange()\l&#45; GetSurroundingWallCount()\l&#45; getClosestEdge()\l&#45; indexToX()\l&#45; indexToY()\l&#45; indexAt()\l&#45; setTile()\l&#45; setTile()\l&#45; getTile()\l&#45; printLayout()\l}">
<polygon fill="white" stroke="black" points="372.5,-171.5 372.5,-437.5 513.5,-437.5 513.5,-171.5 372.5,-171.5"/>
<text text-anchor="middle" x="443" y="-425.5" font-family="Helvetica,sans-Serif" font-size="10.00">Model::mapGenerator</text>
<polyline fill="none" stroke="black" points="372.5,-418.5 513.5,-418.5 "/>
<text text-anchor="middle" x="443" y="-406.5" font-family="Helvetica,sans-Serif" font-size="10.00"> </text>
<polyline fill="none" stroke="black" points="372.5,-399.5 513.5,-399.5 "/>
<text text-anchor="start" x="380.5" y="-387.5" font-family="Helvetica,sans-Serif" font-size="10.00">+ mapGenerator()</text>
<text text-anchor="start" x="380.5" y="-376.5" font-family="Helvetica,sans-Serif" font-size="10.00">+ getTile()</text>
<text text-anchor="start" x="380.5" y="-365.5" font-family="Helvetica,sans-Serif" font-size="10.00">+ getHeight()</text>
<text text-anchor="start" x="380.5" y="-354.5" font-family="Helvetica,sans-Serif" font-size="10.00">+ getWidth()</text>
<text text-anchor="start" x="380.5" y="-343.5" font-family="Helvetica,sans-Serif" font-size="10.00">+ getStartX()</text>
<text text-anchor="start" x="380.5" y="-332.5" font-family="Helvetica,sans-Serif" font-size="10.00">+ getStartY()</text>
<text text-anchor="start" x="380.5" y="-321.5" font-family="Helvetica,sans-Serif" font-size="10.00">+ generateHall()</text>
<text text-anchor="start" x="380.5" y="-310.5" font-family="Helvetica,sans-Serif" font-size="10.00">+ getLayout()</text>
<text text-anchor="start" x="380.5" y="-299.5" font-family="Helvetica,sans-Serif" font-size="10.00">&#45; getMedialMap()</text>
<text text-anchor="start" x="380.5" y="-288.5" font-family="Helvetica,sans-Serif" font-size="10.00">&#45; getDistanceMap()</text>
<text text-anchor="start" x="380.5" y="-277.5" font-family="Helvetica,sans-Serif" font-size="10.00">&#45; isInMapRange()</text>
<text text-anchor="start" x="380.5" y="-266.5" font-family="Helvetica,sans-Serif" font-size="10.00">&#45; GetSurroundingWallCount()</text>
<text text-anchor="start" x="380.5" y="-255.5" font-family="Helvetica,sans-Serif" font-size="10.00">&#45; getClosestEdge()</text>
<text text-anchor="start" x="380.5" y="-244.5" font-family="Helvetica,sans-Serif" font-size="10.00">&#45; indexToX()</text>
<text text-anchor="start" x="380.5" y="-233.5" font-family="Helvetica,sans-Serif" font-size="10.00">&#45; indexToY()</text>
<text text-anchor="start" x="380.5" y="-222.5" font-family="Helvetica,sans-Serif" font-size="10.00">&#45; indexAt()</text>
<text text-anchor="start" x="380.5" y="-211.5" font-family="Helvetica,sans-Serif" font-size="10.00">&#45; setTile()</text>
<text text-anchor="start" x="380.5" y="-200.5" font-family="Helvetica,sans-Serif" font-size="10.00">&#45; setTile()</text>
<text text-anchor="start" x="380.5" y="-189.5" font-family="Helvetica,sans-Serif" font-size="10.00">&#45; getTile()</text>
<text text-anchor="start" x="380.5" y="-178.5" font-family="Helvetica,sans-Serif" font-size="10.00">&#45; printLayout()</text>
</a>
</g>
</g>
<!-- Node1&#45;&gt;Node2 -->
<g id="edge8" class="edge"><title>Node1&#45;&gt;Node2</title>
<path fill="none" stroke="#404040" d="M428.752,-518.137C412.451,-504.146 396.837,-486.843 388,-467 385.496,-461.377 383.761,-455.603 382.686,-449.739"/>
<polygon fill="none" stroke="#404040" points="382.663,-449.527 378.041,-443.991 381.373,-437.596 385.995,-443.132 382.663,-449.527"/>
<text text-anchor="middle" x="428.5" y="-459" font-family="Helvetica,sans-Serif" font-size="10.00"> &#45;layoutGenerator_</text>
</g>
<!-- Node2&#45;&gt;Node1 -->
<g id="edge1" class="edge"><title>Node2&#45;&gt;Node1</title>
<path fill="none" stroke="#404040" d="M469.709,-437.57C470.848,-443.795 471.951,-449.963 473,-456 475.514,-470.463 477.971,-486.138 480.145,-500.727"/>
<polygon fill="none" stroke="#404040" points="480.156,-500.804 484.986,-506.159 481.9,-512.677 477.07,-507.321 480.156,-500.804"/>
<text text-anchor="middle" x="511.5" y="-459" font-family="Helvetica,sans-Serif" font-size="10.00"> &#45;mapGenerator_</text>
</g>
<!-- Node9 -->
<g id="node9" class="node"><title>Node9</title>
<g id="a_node9"><a xlink:href="class_model_1_1park_space_inserter.html" target="_top" xlink:title="{Model::parkSpaceInserter\n||+ parkSpaceInserter()\l+ addSpaces()\l&#45; addParkingSpaces_()\l&#45; getWallTiles()\l&#45; removeBlockedSpaces()\l&#45; floodFill()\l&#45; getRelativeDirection()\l}">
<polygon fill="white" stroke="black" points="379,-0.5 379,-123.5 507,-123.5 507,-0.5 379,-0.5"/>
<text text-anchor="middle" x="443" y="-111.5" font-family="Helvetica,sans-Serif" font-size="10.00">Model::parkSpaceInserter</text>
<polyline fill="none" stroke="black" points="379,-104.5 507,-104.5 "/>
<text text-anchor="middle" x="443" y="-92.5" font-family="Helvetica,sans-Serif" font-size="10.00"> </text>
<polyline fill="none" stroke="black" points="379,-85.5 507,-85.5 "/>
<text text-anchor="start" x="387" y="-73.5" font-family="Helvetica,sans-Serif" font-size="10.00">+ parkSpaceInserter()</text>
<text text-anchor="start" x="387" y="-62.5" font-family="Helvetica,sans-Serif" font-size="10.00">+ addSpaces()</text>
<text text-anchor="start" x="387" y="-51.5" font-family="Helvetica,sans-Serif" font-size="10.00">&#45; addParkingSpaces_()</text>
<text text-anchor="start" x="387" y="-40.5" font-family="Helvetica,sans-Serif" font-size="10.00">&#45; getWallTiles()</text>
<text text-anchor="start" x="387" y="-29.5" font-family="Helvetica,sans-Serif" font-size="10.00">&#45; removeBlockedSpaces()</text>
<text text-anchor="start" x="387" y="-18.5" font-family="Helvetica,sans-Serif" font-size="10.00">&#45; floodFill()</text>
<text text-anchor="start" x="387" y="-7.5" font-family="Helvetica,sans-Serif" font-size="10.00">&#45; getRelativeDirection()</text>
</a>
</g>
</g>
<!-- Node2&#45;&gt;Node9 -->
<g id="edge10" class="edge"><title>Node2&#45;&gt;Node9</title>
<path fill="none" stroke="#404040" d="M410.499,-171.305C410.494,-161.389 411.25,-151.537 413,-142 413.4,-139.822 413.856,-137.626 414.362,-135.422"/>
<polygon fill="none" stroke="#404040" points="414.417,-135.214 412.086,-128.39 417.489,-123.613 419.82,-130.437 414.417,-135.214"/>
<text text-anchor="middle" x="428.5" y="-145" font-family="Helvetica,sans-Serif" font-size="10.00"> &#45;map_</text>
</g>
<!-- Node3 -->
<g id="node3" class="node"><title>Node3</title>
<g id="a_node3"><a xlink:href="class_interface_1_1_parkin_hall_layout_interface.html" target="_top" xlink:title="{Interface::ParkinHallLayout\lInterface\n||+ ParkinHallLayoutInterface()\l+ generateHall()\l+ getLayout()\l+ getTile()\l+ getStartX()\l+ getStartY()\l+ getHeight()\l+ getWidth()\l}">
<polygon fill="white" stroke="black" points="0,-485.5 0,-630.5 142,-630.5 142,-485.5 0,-485.5"/>
<text text-anchor="start" x="8" y="-618.5" font-family="Helvetica,sans-Serif" font-size="10.00">Interface::ParkinHallLayout</text>
<text text-anchor="middle" x="71" y="-607.5" font-family="Helvetica,sans-Serif" font-size="10.00">Interface</text>
<polyline fill="none" stroke="black" points="0,-600.5 142,-600.5 "/>
<text text-anchor="middle" x="71" y="-588.5" font-family="Helvetica,sans-Serif" font-size="10.00"> </text>
<polyline fill="none" stroke="black" points="0,-581.5 142,-581.5 "/>
<text text-anchor="start" x="8" y="-569.5" font-family="Helvetica,sans-Serif" font-size="10.00">+ ParkinHallLayoutInterface()</text>
<text text-anchor="start" x="8" y="-558.5" font-family="Helvetica,sans-Serif" font-size="10.00">+ generateHall()</text>
<text text-anchor="start" x="8" y="-547.5" font-family="Helvetica,sans-Serif" font-size="10.00">+ getLayout()</text>
<text text-anchor="start" x="8" y="-536.5" font-family="Helvetica,sans-Serif" font-size="10.00">+ getTile()</text>
<text text-anchor="start" x="8" y="-525.5" font-family="Helvetica,sans-Serif" font-size="10.00">+ getStartX()</text>
<text text-anchor="start" x="8" y="-514.5" font-family="Helvetica,sans-Serif" font-size="10.00">+ getStartY()</text>
<text text-anchor="start" x="8" y="-503.5" font-family="Helvetica,sans-Serif" font-size="10.00">+ getHeight()</text>
<text text-anchor="start" x="8" y="-492.5" font-family="Helvetica,sans-Serif" font-size="10.00">+ getWidth()</text>
</a>
</g>
</g>
<!-- Node3&#45;&gt;Node2 -->
<g id="edge2" class="edge"><title>Node3&#45;&gt;Node2</title>
<path fill="none" stroke="midnightblue" d="M150.467,-485.4C150.645,-485.266 150.822,-485.133 151,-485 222.965,-431.195 311.625,-378.412 372.248,-344.165"/>
<polygon fill="none" stroke="midnightblue" points="148.213,-482.718 142.432,-491.597 152.488,-488.261 148.213,-482.718"/>
</g>
<!-- Node4 -->
<g id="node4" class="node"><title>Node4</title>
<polygon fill="white" stroke="#bfbfbf" points="160,-529.5 160,-586.5 256,-586.5 256,-529.5 160,-529.5"/>
<text text-anchor="middle" x="208" y="-574.5" font-family="Helvetica,sans-Serif" font-size="10.00">vector&lt; TileType &gt;</text>
<polyline fill="none" stroke="#bfbfbf" points="160,-567.5 256,-567.5 "/>
<text text-anchor="middle" x="208" y="-555.5" font-family="Helvetica,sans-Serif" font-size="10.00"> </text>
<polyline fill="none" stroke="#bfbfbf" points="160,-548.5 256,-548.5 "/>
<text text-anchor="middle" x="208" y="-536.5" font-family="Helvetica,sans-Serif" font-size="10.00"> </text>
</g>
<!-- Node4&#45;&gt;Node2 -->
<g id="edge3" class="edge"><title>Node4&#45;&gt;Node2</title>
<path fill="none" stroke="#404040" d="M221.986,-529.342C233.389,-508.145 250.719,-478.766 270,-456 297.396,-423.651 331.933,-392.175 362.931,-366.441"/>
<polygon fill="none" stroke="#404040" points="363.151,-366.26 365.25,-359.361 372.425,-358.645 370.327,-365.544 363.151,-366.26"/>
<text text-anchor="middle" x="285" y="-459" font-family="Helvetica,sans-Serif" font-size="10.00"> &#45;tiles_</text>
</g>
<!-- Node5 -->
<g id="node5" class="node"><title>Node5</title>
<polygon fill="white" stroke="#bfbfbf" points="274.5,-524 274.5,-592 377.5,-592 377.5,-524 274.5,-524"/>
<text text-anchor="start" x="282.5" y="-580" font-family="Helvetica,sans-Serif" font-size="10.00">unique_ptr&lt; Model::</text>
<text text-anchor="middle" x="326" y="-569" font-family="Helvetica,sans-Serif" font-size="10.00">mapProcessor &gt;</text>
<polyline fill="none" stroke="#bfbfbf" points="274.5,-562 377.5,-562 "/>
<text text-anchor="middle" x="326" y="-550" font-family="Helvetica,sans-Serif" font-size="10.00"> </text>
<polyline fill="none" stroke="#bfbfbf" points="274.5,-543 377.5,-543 "/>
<text text-anchor="middle" x="326" y="-531" font-family="Helvetica,sans-Serif" font-size="10.00"> </text>
</g>
<!-- Node5&#45;&gt;Node2 -->
<g id="edge4" class="edge"><title>Node5&#45;&gt;Node2</title>
<path fill="none" stroke="#404040" d="M310.307,-523.895C302.984,-503.774 297.549,-477.838 306,-456 318.266,-424.305 340.655,-395.181 363.829,-371.17"/>
<polygon fill="none" stroke="#404040" points="363.926,-371.072 365.318,-363.996 372.385,-362.56 370.993,-369.635 363.926,-371.072"/>
<text text-anchor="middle" x="343.5" y="-459" font-family="Helvetica,sans-Serif" font-size="10.00"> &#45;mapProcessor_</text>
</g>
<!-- Node6 -->
<g id="node6" class="node"><title>Node6</title>
<polygon fill="white" stroke="#bfbfbf" points="526.5,-700.5 526.5,-757.5 555.5,-757.5 555.5,-700.5 526.5,-700.5"/>
<text text-anchor="middle" x="541" y="-745.5" font-family="Helvetica,sans-Serif" font-size="10.00">int</text>
<polyline fill="none" stroke="#bfbfbf" points="526.5,-738.5 555.5,-738.5 "/>
<text text-anchor="middle" x="541" y="-726.5" font-family="Helvetica,sans-Serif" font-size="10.00"> </text>
<polyline fill="none" stroke="#bfbfbf" points="526.5,-719.5 555.5,-719.5 "/>
<text text-anchor="middle" x="541" y="-707.5" font-family="Helvetica,sans-Serif" font-size="10.00"> </text>
</g>
<!-- Node6&#45;&gt;Node1 -->
<g id="edge11" class="edge"><title>Node6&#45;&gt;Node1</title>
<path fill="none" stroke="#404040" d="M526.356,-709.236C520.771,-701.238 514.833,-691.557 511,-682 502.545,-660.917 497.16,-636.537 493.748,-615.07"/>
<polygon fill="none" stroke="#404040" points="493.741,-615.024 488.914,-609.667 492.003,-603.151 496.83,-608.508 493.741,-615.024"/>
<text text-anchor="middle" x="540" y="-674" font-family="Helvetica,sans-Serif" font-size="10.00"> &#45;height_</text>
<text text-anchor="middle" x="540" y="-663" font-family="Helvetica,sans-Serif" font-size="10.00">&#45;width_</text>
<text text-anchor="middle" x="540" y="-652" font-family="Helvetica,sans-Serif" font-size="10.00">&#45;maxRooms_</text>
</g>
<!-- Node6&#45;&gt;Node2 -->
<g id="edge5" class="edge"><title>Node6&#45;&gt;Node2</title>
<path fill="none" stroke="#404040" d="M555.521,-709.402C560.864,-701.428 566.274,-691.722 569,-682 596.197,-585.013 589.544,-549.47 552,-456 543.985,-436.045 532.754,-416.279 520.525,-397.955"/>
<polygon fill="none" stroke="#404040" points="520.435,-397.825 513.742,-395.142 513.643,-387.932 520.337,-390.614 520.435,-397.825"/>
<text text-anchor="middle" x="622.5" y="-577.5" font-family="Helvetica,sans-Serif" font-size="10.00"> &#45;startX</text>
<text text-anchor="middle" x="622.5" y="-566.5" font-family="Helvetica,sans-Serif" font-size="10.00">&#45;startY</text>
<text text-anchor="middle" x="622.5" y="-555.5" font-family="Helvetica,sans-Serif" font-size="10.00">&#45;height_</text>
<text text-anchor="middle" x="622.5" y="-544.5" font-family="Helvetica,sans-Serif" font-size="10.00">&#45;width_</text>
<text text-anchor="middle" x="622.5" y="-533.5" font-family="Helvetica,sans-Serif" font-size="10.00">&#45;maxRoomCount</text>
</g>
<!-- Node7 -->
<g id="node7" class="node"><title>Node7</title>
<polygon fill="white" stroke="#bfbfbf" points="674,-529.5 674,-586.5 720,-586.5 720,-529.5 674,-529.5"/>
<text text-anchor="middle" x="697" y="-574.5" font-family="Helvetica,sans-Serif" font-size="10.00">Layout</text>
<polyline fill="none" stroke="#bfbfbf" points="674,-567.5 720,-567.5 "/>
<text text-anchor="middle" x="697" y="-555.5" font-family="Helvetica,sans-Serif" font-size="10.00"> </text>
<polyline fill="none" stroke="#bfbfbf" points="674,-548.5 720,-548.5 "/>
<text text-anchor="middle" x="697" y="-536.5" font-family="Helvetica,sans-Serif" font-size="10.00"> </text>
</g>
<!-- Node7&#45;&gt;Node2 -->
<g id="edge6" class="edge"><title>Node7&#45;&gt;Node2</title>
<path fill="none" stroke="#404040" d="M686.031,-529.454C679.65,-515.341 670.744,-498.362 660,-485 621.193,-436.735 567.661,-392.286 523.478,-359.694"/>
<polygon fill="none" stroke="#404040" points="523.319,-359.578 516.114,-359.273 513.624,-352.506 520.829,-352.81 523.319,-359.578"/>
<text text-anchor="middle" x="660" y="-459" font-family="Helvetica,sans-Serif" font-size="10.00"> &#45;layout_</text>
</g>
<!-- Node8 -->
<g id="node8" class="node"><title>Node8</title>
<polygon fill="white" stroke="#bfbfbf" points="738,-529.5 738,-586.5 792,-586.5 792,-529.5 738,-529.5"/>
<text text-anchor="middle" x="765" y="-574.5" font-family="Helvetica,sans-Serif" font-size="10.00">mt19937</text>
<polyline fill="none" stroke="#bfbfbf" points="738,-567.5 792,-567.5 "/>
<text text-anchor="middle" x="765" y="-555.5" font-family="Helvetica,sans-Serif" font-size="10.00"> </text>
<polyline fill="none" stroke="#bfbfbf" points="738,-548.5 792,-548.5 "/>
<text text-anchor="middle" x="765" y="-536.5" font-family="Helvetica,sans-Serif" font-size="10.00"> </text>
</g>
<!-- Node8&#45;&gt;Node2 -->
<g id="edge7" class="edge"><title>Node8&#45;&gt;Node2</title>
<path fill="none" stroke="#404040" d="M755.29,-529.208C749.301,-514.86 740.54,-497.741 729,-485 671.643,-421.673 586.892,-372.271 524.532,-341.465"/>
<polygon fill="none" stroke="#404040" points="524.341,-341.372 517.196,-342.342 513.552,-336.118 520.698,-335.149 524.341,-341.372"/>
<text text-anchor="middle" x="721" y="-459" font-family="Helvetica,sans-Serif" font-size="10.00"> &#45;rng</text>
</g>
<!-- Node9&#45;&gt;Node2 -->
<g id="edge9" class="edge"><title>Node9&#45;&gt;Node2</title>
<path fill="none" stroke="#404040" d="M447.236,-123.796C447.548,-129.942 447.813,-136.094 448,-142 448.179,-147.66 448.299,-153.432 448.367,-159.262"/>
<polygon fill="none" stroke="#404040" points="448.367,-159.296 452.403,-165.272 448.439,-171.296 444.403,-165.32 448.367,-159.296"/>
<text text-anchor="middle" x="494.5" y="-145" font-family="Helvetica,sans-Serif" font-size="10.00"> &#45;parkSpaceInserter_</text>
</g>
</g>
</svg>
