<?xml version="1.0" encoding="UTF-8" standalone="no"?>
<!DOCTYPE svg PUBLIC "-//W3C//DTD SVG 1.1//EN"
 "http://www.w3.org/Graphics/SVG/1.1/DTD/svg11.dtd">
<!-- Generated by graphviz version 2.38.0 (20140413.2041)
 -->
<!-- Title: View::HeadQuartersUI::buyUpgradeButtonPushed Pages: 1 -->
<svg width="642pt" height="61pt"
 viewBox="0.00 0.00 642.00 61.00" xmlns="http://www.w3.org/2000/svg" xmlns:xlink="http://www.w3.org/1999/xlink">
<g id="graph0" class="graph" transform="scale(1 1) rotate(0) translate(4 57)">
<title>View::HeadQuartersUI::buyUpgradeButtonPushed</title>
<polygon fill="white" stroke="none" points="-4,4 -4,-57 638,-57 638,4 -4,4"/>
<!-- Node18 -->
<g id="node1" class="node"><title>Node18</title>
<polygon fill="#bfbfbf" stroke="black" points="0,-22.5 0,-52.5 136,-52.5 136,-22.5 0,-22.5"/>
<text text-anchor="start" x="8" y="-40.5" font-family="Helvetica,sans-Serif" font-size="10.00">View::HeadQuartersUI</text>
<text text-anchor="middle" x="68" y="-29.5" font-family="Helvetica,sans-Serif" font-size="10.00">::buyUpgradeButtonPushed</text>
</g>
<!-- Node19 -->
<g id="node2" class="node"><title>Node19</title>
<g id="a_node2"><a xlink:href="class_view_1_1_head_quarters_u_i.html#a504906d7f958448301b500a3762ff618" target="_top" xlink:title="View::HeadQuartersUI\l::connectShopUI">
<polygon fill="white" stroke="black" points="372,-22.5 372,-52.5 485,-52.5 485,-22.5 372,-22.5"/>
<text text-anchor="start" x="380" y="-40.5" font-family="Helvetica,sans-Serif" font-size="10.00">View::HeadQuartersUI</text>
<text text-anchor="middle" x="428.5" y="-29.5" font-family="Helvetica,sans-Serif" font-size="10.00">::connectShopUI</text>
</a>
</g>
</g>
<!-- Node18&#45;&gt;Node19 -->
<g id="edge1" class="edge"><title>Node18&#45;&gt;Node19</title>
<path fill="none" stroke="midnightblue" d="M146.206,-39.9928C154.906,-40.2011 163.643,-40.3783 172,-40.5 244.881,-41.5612 263.121,-41.6944 336,-40.5 347.601,-40.3099 360.026,-39.9842 371.862,-39.6158"/>
<polygon fill="midnightblue" stroke="midnightblue" points="146.12,-36.4896 136.035,-39.7353 145.943,-43.4873 146.12,-36.4896"/>
</g>
<!-- Node21 -->
<g id="node4" class="node"><title>Node21</title>
<g id="a_node4"><a xlink:href="class_view_1_1_head_quarters_u_i.html#a27b2fed9322bb80d6633f442a3fd9035" target="_top" xlink:title="View::HeadQuartersUI\l::cyberListViewItemDoubleClicked">
<polygon fill="white" stroke="black" points="172,-0.5 172,-30.5 336,-30.5 336,-0.5 172,-0.5"/>
<text text-anchor="start" x="180" y="-18.5" font-family="Helvetica,sans-Serif" font-size="10.00">View::HeadQuartersUI</text>
<text text-anchor="middle" x="254" y="-7.5" font-family="Helvetica,sans-Serif" font-size="10.00">::cyberListViewItemDoubleClicked</text>
</a>
</g>
</g>
<!-- Node18&#45;&gt;Node21 -->
<g id="edge3" class="edge"><title>Node18&#45;&gt;Node21</title>
<path fill="none" stroke="midnightblue" d="M146.392,-28.2466C154.824,-27.2384 163.425,-26.2101 171.9,-25.1967"/>
<polygon fill="midnightblue" stroke="midnightblue" points="145.723,-24.8016 136.209,-29.4641 146.554,-31.7521 145.723,-24.8016"/>
</g>
<!-- Node20 -->
<g id="node3" class="node"><title>Node20</title>
<g id="a_node3"><a xlink:href="class_view_1_1_head_quarters_u_i.html#a98db9788c668433314da83b183101f0c" target="_top" xlink:title="View::HeadQuartersUI\l::HeadQuartersUI">
<polygon fill="white" stroke="black" points="521,-22.5 521,-52.5 634,-52.5 634,-22.5 521,-22.5"/>
<text text-anchor="start" x="529" y="-40.5" font-family="Helvetica,sans-Serif" font-size="10.00">View::HeadQuartersUI</text>
<text text-anchor="middle" x="577.5" y="-29.5" font-family="Helvetica,sans-Serif" font-size="10.00">::HeadQuartersUI</text>
</a>
</g>
</g>
<!-- Node19&#45;&gt;Node20 -->
<g id="edge2" class="edge"><title>Node19&#45;&gt;Node20</title>
<path fill="none" stroke="midnightblue" d="M495.078,-37.5C503.681,-37.5 512.43,-37.5 520.847,-37.5"/>
<polygon fill="midnightblue" stroke="midnightblue" points="495.074,-34.0001 485.074,-37.5 495.074,-41.0001 495.074,-34.0001"/>
</g>
<!-- Node21&#45;&gt;Node19 -->
<g id="edge4" class="edge"><title>Node21&#45;&gt;Node19</title>
<path fill="none" stroke="midnightblue" d="M346.384,-27.1548C355.051,-28.2601 363.649,-29.3567 371.825,-30.3995"/>
<polygon fill="midnightblue" stroke="midnightblue" points="346.561,-23.6491 336.199,-25.8558 345.676,-30.5929 346.561,-23.6491"/>
</g>
</g>
</svg>
