<?xml version="1.0" encoding="UTF-8" standalone="no"?>
<!DOCTYPE svg PUBLIC "-//W3C//DTD SVG 1.1//EN"
 "http://www.w3.org/Graphics/SVG/1.1/DTD/svg11.dtd">
<!-- Generated by graphviz version 2.38.0 (20140413.2041)
 -->
<!-- Title: Model::mapGenerator::getClosestEdge Pages: 1 -->
<svg width="410pt" height="88pt"
 viewBox="0.00 0.00 410.00 88.00" xmlns="http://www.w3.org/2000/svg" xmlns:xlink="http://www.w3.org/1999/xlink">
<g id="graph0" class="graph" transform="scale(1 1) rotate(0) translate(4 84)">
<title>Model::mapGenerator::getClosestEdge</title>
<polygon fill="white" stroke="none" points="-4,4 -4,-84 406,-84 406,4 -4,4"/>
<!-- Node21 -->
<g id="node1" class="node"><title>Node21</title>
<polygon fill="#bfbfbf" stroke="black" points="0,-24.5 0,-54.5 110,-54.5 110,-24.5 0,-24.5"/>
<text text-anchor="start" x="8" y="-42.5" font-family="Helvetica,sans-Serif" font-size="10.00">Model::mapGenerator</text>
<text text-anchor="middle" x="55" y="-31.5" font-family="Helvetica,sans-Serif" font-size="10.00">::getClosestEdge</text>
</g>
<!-- Node22 -->
<g id="node2" class="node"><title>Node22</title>
<g id="a_node2"><a xlink:href="class_model_1_1map_generator.html#a02b91ca9a47b993e6fa14b9b0ad317f2" target="_top" xlink:title="Get tile from point in tile coordinates. ">
<polygon fill="white" stroke="black" points="146,-49.5 146,-79.5 256,-79.5 256,-49.5 146,-49.5"/>
<text text-anchor="start" x="154" y="-67.5" font-family="Helvetica,sans-Serif" font-size="10.00">Model::mapGenerator</text>
<text text-anchor="middle" x="201" y="-56.5" font-family="Helvetica,sans-Serif" font-size="10.00">::getTile</text>
</a>
</g>
</g>
<!-- Node21&#45;&gt;Node22 -->
<g id="edge1" class="edge"><title>Node21&#45;&gt;Node22</title>
<path fill="none" stroke="midnightblue" d="M110.03,-48.8802C118.405,-50.3341 127.126,-51.8482 135.7,-53.3367"/>
<polygon fill="midnightblue" stroke="midnightblue" points="135.216,-56.805 145.667,-55.0672 136.413,-49.9082 135.216,-56.805"/>
</g>
<!-- Node23 -->
<g id="node3" class="node"><title>Node23</title>
<g id="a_node3"><a xlink:href="class_model_1_1map_generator.html#aaac1161126a56490862e3b5fffffbded" target="_top" xlink:title="Model::mapGenerator\l::indexAt">
<polygon fill="white" stroke="black" points="146,-0.5 146,-30.5 256,-30.5 256,-0.5 146,-0.5"/>
<text text-anchor="start" x="154" y="-18.5" font-family="Helvetica,sans-Serif" font-size="10.00">Model::mapGenerator</text>
<text text-anchor="middle" x="201" y="-7.5" font-family="Helvetica,sans-Serif" font-size="10.00">::indexAt</text>
</a>
</g>
</g>
<!-- Node21&#45;&gt;Node23 -->
<g id="edge2" class="edge"><title>Node21&#45;&gt;Node23</title>
<path fill="none" stroke="midnightblue" d="M110.03,-30.495C118.405,-29.0992 127.126,-27.6457 135.7,-26.2167"/>
<polygon fill="midnightblue" stroke="midnightblue" points="136.379,-29.6519 145.667,-24.5555 135.228,-22.7472 136.379,-29.6519"/>
</g>
<!-- Node24 -->
<g id="node4" class="node"><title>Node24</title>
<g id="a_node4"><a xlink:href="class_model_1_1map_generator.html#a244ad56297f00ce2ab892d3b2a14ffac" target="_top" xlink:title="Model::mapGenerator\l::isInMapRange">
<polygon fill="white" stroke="black" points="292,-0.5 292,-30.5 402,-30.5 402,-0.5 292,-0.5"/>
<text text-anchor="start" x="300" y="-18.5" font-family="Helvetica,sans-Serif" font-size="10.00">Model::mapGenerator</text>
<text text-anchor="middle" x="347" y="-7.5" font-family="Helvetica,sans-Serif" font-size="10.00">::isInMapRange</text>
</a>
</g>
</g>
<!-- Node23&#45;&gt;Node24 -->
<g id="edge3" class="edge"><title>Node23&#45;&gt;Node24</title>
<path fill="none" stroke="midnightblue" d="M256.03,-15.5C264.314,-15.5 272.936,-15.5 281.42,-15.5"/>
<polygon fill="midnightblue" stroke="midnightblue" points="281.667,-19.0001 291.667,-15.5 281.667,-12.0001 281.667,-19.0001"/>
</g>
</g>
</svg>
