<?xml version="1.0" encoding="UTF-8" standalone="no"?>
<!DOCTYPE svg PUBLIC "-//W3C//DTD SVG 1.1//EN"
 "http://www.w3.org/Graphics/SVG/1.1/DTD/svg11.dtd">
<!-- Generated by graphviz version 2.38.0 (20140413.2041)
 -->
<!-- Title: View::ViewSideDisplayManager::setMissionLabelsVisible Pages: 1 -->
<svg width="480pt" height="88pt"
 viewBox="0.00 0.00 480.00 88.00" xmlns="http://www.w3.org/2000/svg" xmlns:xlink="http://www.w3.org/1999/xlink">
<g id="graph0" class="graph" transform="scale(1 1) rotate(0) translate(4 84)">
<title>View::ViewSideDisplayManager::setMissionLabelsVisible</title>
<polygon fill="white" stroke="none" points="-4,4 -4,-84 476,-84 476,4 -4,4"/>
<!-- Node71 -->
<g id="node1" class="node"><title>Node71</title>
<polygon fill="#bfbfbf" stroke="black" points="0,-24.5 0,-54.5 154,-54.5 154,-24.5 0,-24.5"/>
<text text-anchor="start" x="8" y="-42.5" font-family="Helvetica,sans-Serif" font-size="10.00">View::ViewSideDisplayManager</text>
<text text-anchor="middle" x="77" y="-31.5" font-family="Helvetica,sans-Serif" font-size="10.00">::setMissionLabelsVisible</text>
</g>
<!-- Node72 -->
<g id="node2" class="node"><title>Node72</title>
<g id="a_node2"><a xlink:href="class_view_1_1_view_side_display_manager.html#abab63b804da95de877fc6ff678deaef5" target="_top" xlink:title="View::ViewSideDisplayManager\l::initAllDisplays">
<polygon fill="white" stroke="black" points="190,-49.5 190,-79.5 344,-79.5 344,-49.5 190,-49.5"/>
<text text-anchor="start" x="198" y="-67.5" font-family="Helvetica,sans-Serif" font-size="10.00">View::ViewSideDisplayManager</text>
<text text-anchor="middle" x="267" y="-56.5" font-family="Helvetica,sans-Serif" font-size="10.00">::initAllDisplays</text>
</a>
</g>
</g>
<!-- Node71&#45;&gt;Node72 -->
<g id="edge1" class="edge"><title>Node71&#45;&gt;Node72</title>
<path fill="none" stroke="midnightblue" d="M164.146,-50.9555C172.67,-52.0891 181.281,-53.2342 189.696,-54.3532"/>
<polygon fill="midnightblue" stroke="midnightblue" points="164.57,-47.4812 154.196,-49.6324 163.647,-54.4201 164.57,-47.4812"/>
</g>
<!-- Node74 -->
<g id="node4" class="node"><title>Node74</title>
<g id="a_node4"><a xlink:href="class_view_1_1_view_side_display_manager.html#a6ca9a3244500aec9cfd699d1bd2c773a" target="_top" xlink:title="View::ViewSideDisplayManager\l::updateMissionDisplay">
<polygon fill="white" stroke="black" points="190,-0.5 190,-30.5 344,-30.5 344,-0.5 190,-0.5"/>
<text text-anchor="start" x="198" y="-18.5" font-family="Helvetica,sans-Serif" font-size="10.00">View::ViewSideDisplayManager</text>
<text text-anchor="middle" x="267" y="-7.5" font-family="Helvetica,sans-Serif" font-size="10.00">::updateMissionDisplay</text>
</a>
</g>
</g>
<!-- Node71&#45;&gt;Node74 -->
<g id="edge3" class="edge"><title>Node71&#45;&gt;Node74</title>
<path fill="none" stroke="midnightblue" d="M164.146,-28.5027C172.67,-27.4145 181.281,-26.3152 189.696,-25.241"/>
<polygon fill="midnightblue" stroke="midnightblue" points="163.672,-25.0346 154.196,-29.7729 164.559,-31.9783 163.672,-25.0346"/>
</g>
<!-- Node73 -->
<g id="node3" class="node"><title>Node73</title>
<g id="a_node3"><a xlink:href="class_view_1_1_view.html#a9d10d5054148916f34d329f68186fee0" target="_top" xlink:title="View::View::initUI">
<polygon fill="white" stroke="black" points="380,-55 380,-74 472,-74 472,-55 380,-55"/>
<text text-anchor="middle" x="426" y="-62" font-family="Helvetica,sans-Serif" font-size="10.00">View::View::initUI</text>
</a>
</g>
</g>
<!-- Node72&#45;&gt;Node73 -->
<g id="edge2" class="edge"><title>Node72&#45;&gt;Node73</title>
<path fill="none" stroke="midnightblue" d="M354.475,-64.5C363.198,-64.5 371.789,-64.5 379.81,-64.5"/>
<polygon fill="midnightblue" stroke="midnightblue" points="354.201,-61.0001 344.2,-64.5 354.2,-68.0001 354.201,-61.0001"/>
</g>
</g>
</svg>
