<?xml version="1.0" encoding="UTF-8" standalone="no"?>
<!DOCTYPE svg PUBLIC "-//W3C//DTD SVG 1.1//EN"
 "http://www.w3.org/Graphics/SVG/1.1/DTD/svg11.dtd">
<!-- Generated by graphviz version 2.38.0 (20140413.2041)
 -->
<!-- Title: View::ActionScene::setLayout Pages: 1 -->
<svg width="254pt" height="137pt"
 viewBox="0.00 0.00 254.00 137.00" xmlns="http://www.w3.org/2000/svg" xmlns:xlink="http://www.w3.org/1999/xlink">
<g id="graph0" class="graph" transform="scale(1 1) rotate(0) translate(4 133)">
<title>View::ActionScene::setLayout</title>
<polygon fill="white" stroke="none" points="-4,4 -4,-133 250,-133 250,4 -4,4"/>
<!-- Node198 -->
<g id="node1" class="node"><title>Node198</title>
<polygon fill="#bfbfbf" stroke="black" points="0,-49.5 0,-79.5 105,-79.5 105,-49.5 0,-49.5"/>
<text text-anchor="start" x="8" y="-67.5" font-family="Helvetica,sans-Serif" font-size="10.00">View::ActionScene::</text>
<text text-anchor="middle" x="52.5" y="-56.5" font-family="Helvetica,sans-Serif" font-size="10.00">setLayout</text>
</g>
<!-- Node199 -->
<g id="node2" class="node"><title>Node199</title>
<g id="a_node2"><a xlink:href="class_view_1_1_action_scene.html#a34eb494f4520e8562583b0b77548f3c7" target="_top" xlink:title="View::ActionScene::\laddHorizontalCar">
<polygon fill="white" stroke="black" points="141,-98.5 141,-128.5 246,-128.5 246,-98.5 141,-98.5"/>
<text text-anchor="start" x="149" y="-116.5" font-family="Helvetica,sans-Serif" font-size="10.00">View::ActionScene::</text>
<text text-anchor="middle" x="193.5" y="-105.5" font-family="Helvetica,sans-Serif" font-size="10.00">addHorizontalCar</text>
</a>
</g>
</g>
<!-- Node198&#45;&gt;Node199 -->
<g id="edge1" class="edge"><title>Node198&#45;&gt;Node199</title>
<path fill="none" stroke="midnightblue" d="M96.3388,-79.6014C110.079,-84.4451 125.458,-89.8664 139.817,-94.9285"/>
<polygon fill="midnightblue" stroke="midnightblue" points="138.969,-98.3403 149.563,-98.3641 141.296,-91.7385 138.969,-98.3403"/>
</g>
<!-- Node200 -->
<g id="node3" class="node"><title>Node200</title>
<g id="a_node3"><a xlink:href="class_view_1_1_action_scene.html#a95bf2c943d3fc76d283347c09aa02042" target="_top" xlink:title="View::ActionScene::\laddVerticalCar">
<polygon fill="white" stroke="black" points="141,-49.5 141,-79.5 246,-79.5 246,-49.5 141,-49.5"/>
<text text-anchor="start" x="149" y="-67.5" font-family="Helvetica,sans-Serif" font-size="10.00">View::ActionScene::</text>
<text text-anchor="middle" x="193.5" y="-56.5" font-family="Helvetica,sans-Serif" font-size="10.00">addVerticalCar</text>
</a>
</g>
</g>
<!-- Node198&#45;&gt;Node200 -->
<g id="edge2" class="edge"><title>Node198&#45;&gt;Node200</title>
<path fill="none" stroke="midnightblue" d="M105.258,-64.5C113.49,-64.5 122.077,-64.5 130.514,-64.5"/>
<polygon fill="midnightblue" stroke="midnightblue" points="130.698,-68.0001 140.698,-64.5 130.698,-61.0001 130.698,-68.0001"/>
</g>
<!-- Node201 -->
<g id="node4" class="node"><title>Node201</title>
<g id="a_node4"><a xlink:href="class_view_1_1_action_scene.html#a7d948b7e77fdfed87ed015564ce5b1dd" target="_top" xlink:title="View::ActionScene::\lresizeScene">
<polygon fill="white" stroke="black" points="141,-0.5 141,-30.5 246,-30.5 246,-0.5 141,-0.5"/>
<text text-anchor="start" x="149" y="-18.5" font-family="Helvetica,sans-Serif" font-size="10.00">View::ActionScene::</text>
<text text-anchor="middle" x="193.5" y="-7.5" font-family="Helvetica,sans-Serif" font-size="10.00">resizeScene</text>
</a>
</g>
</g>
<!-- Node198&#45;&gt;Node201 -->
<g id="edge3" class="edge"><title>Node198&#45;&gt;Node201</title>
<path fill="none" stroke="midnightblue" d="M96.3388,-49.3986C110.079,-44.5549 125.458,-39.1336 139.817,-34.0715"/>
<polygon fill="midnightblue" stroke="midnightblue" points="141.296,-37.2615 149.563,-30.6359 138.969,-30.6597 141.296,-37.2615"/>
</g>
</g>
</svg>
