<?xml version="1.0" encoding="UTF-8" standalone="no"?>
<!DOCTYPE svg PUBLIC "-//W3C//DTD SVG 1.1//EN"
 "http://www.w3.org/Graphics/SVG/1.1/DTD/svg11.dtd">
<!-- Generated by graphviz version 2.38.0 (20140413.2041)
 -->
<!-- Title: Controller/controller.cc Pages: 1 -->
<svg width="722pt" height="364pt"
 viewBox="0.00 0.00 721.69 364.00" xmlns="http://www.w3.org/2000/svg" xmlns:xlink="http://www.w3.org/1999/xlink">
<g id="graph0" class="graph" transform="scale(1 1) rotate(0) translate(4 360)">
<title>Controller/controller.cc</title>
<polygon fill="white" stroke="none" points="-4,4 -4,-360 717.688,-360 717.688,4 -4,4"/>
<!-- Node0 -->
<g id="node1" class="node"><title>Node0</title>
<polygon fill="#bfbfbf" stroke="black" points="35.5,-336.5 35.5,-355.5 149.5,-355.5 149.5,-336.5 35.5,-336.5"/>
<text text-anchor="middle" x="92.5" y="-343.5" font-family="Helvetica,sans-Serif" font-size="10.00">Controller/controller.cc</text>
</g>
<!-- Node1 -->
<g id="node2" class="node"><title>Node1</title>
<g id="a_node2"><a xlink:href="controller_8hh.html" target="_top" xlink:title="controller.hh">
<polygon fill="white" stroke="black" points="18.5,-280.5 18.5,-299.5 88.5,-299.5 88.5,-280.5 18.5,-280.5"/>
<text text-anchor="middle" x="53.5" y="-287.5" font-family="Helvetica,sans-Serif" font-size="10.00">controller.hh</text>
</a>
</g>
</g>
<!-- Node0&#45;&gt;Node1 -->
<g id="edge1" class="edge"><title>Node0&#45;&gt;Node1</title>
<path fill="none" stroke="midnightblue" d="M86.0599,-336.083C80.5511,-328.455 72.4688,-317.264 65.735,-307.941"/>
<polygon fill="midnightblue" stroke="midnightblue" points="68.5126,-305.809 59.8202,-299.751 62.8378,-309.907 68.5126,-305.809"/>
</g>
<!-- Node14 -->
<g id="node15" class="node"><title>Node14</title>
<polygon fill="white" stroke="#bfbfbf" points="106.5,-280.5 106.5,-299.5 158.5,-299.5 158.5,-280.5 106.5,-280.5"/>
<text text-anchor="middle" x="132.5" y="-287.5" font-family="Helvetica,sans-Serif" font-size="10.00">QDebug</text>
</g>
<!-- Node0&#45;&gt;Node14 -->
<g id="edge29" class="edge"><title>Node0&#45;&gt;Node14</title>
<path fill="none" stroke="midnightblue" d="M99.1052,-336.083C104.755,-328.455 113.045,-317.264 119.951,-307.941"/>
<polygon fill="midnightblue" stroke="midnightblue" points="122.878,-309.87 126.018,-299.751 117.253,-305.703 122.878,-309.87"/>
</g>
<!-- Node2 -->
<g id="node3" class="node"><title>Node2</title>
<g id="a_node3"><a xlink:href="controllerinterface_8hh.html" target="_top" xlink:title="Interface/controllerinterface.hh">
<polygon fill="white" stroke="black" points="48.5,-224.5 48.5,-243.5 194.5,-243.5 194.5,-224.5 48.5,-224.5"/>
<text text-anchor="middle" x="121.5" y="-231.5" font-family="Helvetica,sans-Serif" font-size="10.00">Interface/controllerinterface.hh</text>
</a>
</g>
</g>
<!-- Node1&#45;&gt;Node2 -->
<g id="edge2" class="edge"><title>Node1&#45;&gt;Node2</title>
<path fill="none" stroke="midnightblue" d="M64.4254,-280.324C74.6746,-272.185 90.2206,-259.839 102.501,-250.087"/>
<polygon fill="midnightblue" stroke="midnightblue" points="104.721,-252.794 110.376,-243.834 100.368,-247.312 104.721,-252.794"/>
</g>
<!-- Node12 -->
<g id="node13" class="node"><title>Node12</title>
<polygon fill="white" stroke="#bfbfbf" points="0,-56.5 0,-75.5 47,-75.5 47,-56.5 0,-56.5"/>
<text text-anchor="middle" x="23.5" y="-63.5" font-family="Helvetica,sans-Serif" font-size="10.00">QPoint</text>
</g>
<!-- Node1&#45;&gt;Node12 -->
<g id="edge28" class="edge"><title>Node1&#45;&gt;Node12</title>
<path fill="none" stroke="midnightblue" d="M50.1452,-280.179C46.8797,-271.209 42.048,-256.841 39.5,-244 28.2147,-187.127 24.876,-118.373 23.8984,-85.8282"/>
<polygon fill="midnightblue" stroke="midnightblue" points="27.3905,-85.472 23.6348,-75.5652 20.3929,-85.6518 27.3905,-85.472"/>
</g>
<!-- Node3 -->
<g id="node4" class="node"><title>Node3</title>
<g id="a_node4"><a xlink:href="modelinterface_8hh.html" target="_top" xlink:title="Määrittelee modellin operaatioiden rajapintaluokan. ">
<polygon fill="white" stroke="black" points="324,-168.5 324,-187.5 417,-187.5 417,-168.5 324,-168.5"/>
<text text-anchor="middle" x="370.5" y="-175.5" font-family="Helvetica,sans-Serif" font-size="10.00">modelinterface.hh</text>
</a>
</g>
</g>
<!-- Node2&#45;&gt;Node3 -->
<g id="edge3" class="edge"><title>Node2&#45;&gt;Node3</title>
<path fill="none" stroke="midnightblue" d="M160.955,-224.444C204.392,-215.023 274.286,-199.866 321.276,-189.675"/>
<polygon fill="midnightblue" stroke="midnightblue" points="322.199,-193.056 331.23,-187.516 320.715,-186.215 322.199,-193.056"/>
</g>
<!-- Node11 -->
<g id="node12" class="node"><title>Node11</title>
<g id="a_node12"><a xlink:href="parkinghalllayoutinterface_8hh.html" target="_top" xlink:title="parkinghalllayoutinterface.hh">
<polygon fill="white" stroke="black" points="51.5,-112.5 51.5,-131.5 191.5,-131.5 191.5,-112.5 51.5,-112.5"/>
<text text-anchor="middle" x="121.5" y="-119.5" font-family="Helvetica,sans-Serif" font-size="10.00">parkinghalllayoutinterface.hh</text>
</a>
</g>
</g>
<!-- Node2&#45;&gt;Node11 -->
<g id="edge26" class="edge"><title>Node2&#45;&gt;Node11</title>
<path fill="none" stroke="midnightblue" d="M121.5,-224.368C121.5,-206.617 121.5,-165.666 121.5,-141.597"/>
<polygon fill="midnightblue" stroke="midnightblue" points="125,-141.591 121.5,-131.591 118,-141.591 125,-141.591"/>
</g>
<!-- Node2&#45;&gt;Node12 -->
<g id="edge27" class="edge"><title>Node2&#45;&gt;Node12</title>
<path fill="none" stroke="midnightblue" d="M112.815,-224.349C96.6939,-207.827 62.0127,-170.028 42.5,-132 34.9522,-117.29 29.9635,-99.1274 26.9998,-85.7439"/>
<polygon fill="midnightblue" stroke="midnightblue" points="30.4012,-84.9063 24.975,-75.8065 23.5421,-86.304 30.4012,-84.9063"/>
</g>
<!-- Node13 -->
<g id="node14" class="node"><title>Node13</title>
<g id="a_node14"><a xlink:href="viewinterface_8hh.html" target="_top" xlink:title="Määrittelee näkymän operaatioiden rajapintaluokan. ">
<polygon fill="white" stroke="black" points="496,-168.5 496,-187.5 581,-187.5 581,-168.5 496,-168.5"/>
<text text-anchor="middle" x="538.5" y="-175.5" font-family="Helvetica,sans-Serif" font-size="10.00">viewinterface.hh</text>
</a>
</g>
</g>
<!-- Node2&#45;&gt;Node13 -->
<g id="edge18" class="edge"><title>Node2&#45;&gt;Node13</title>
<path fill="none" stroke="midnightblue" d="M187.575,-224.444C270.155,-213.75 409.834,-195.662 485.676,-185.84"/>
<polygon fill="midnightblue" stroke="midnightblue" points="486.474,-189.266 495.942,-184.511 485.575,-182.324 486.474,-189.266"/>
</g>
<!-- Node4 -->
<g id="node5" class="node"><title>Node4</title>
<polygon fill="white" stroke="#bfbfbf" points="330.5,-56.5 330.5,-75.5 372.5,-75.5 372.5,-56.5 330.5,-56.5"/>
<text text-anchor="middle" x="351.5" y="-63.5" font-family="Helvetica,sans-Serif" font-size="10.00">vector</text>
</g>
<!-- Node3&#45;&gt;Node4 -->
<g id="edge4" class="edge"><title>Node3&#45;&gt;Node4</title>
<path fill="none" stroke="midnightblue" d="M369.009,-168.368C365.943,-150.617 358.87,-109.666 354.712,-85.5974"/>
<polygon fill="midnightblue" stroke="midnightblue" points="358.135,-84.8498 352.984,-75.5914 351.237,-86.0413 358.135,-84.8498"/>
</g>
<!-- Node5 -->
<g id="node6" class="node"><title>Node5</title>
<polygon fill="white" stroke="#bfbfbf" points="453.5,-56.5 453.5,-75.5 505.5,-75.5 505.5,-56.5 453.5,-56.5"/>
<text text-anchor="middle" x="479.5" y="-63.5" font-family="Helvetica,sans-Serif" font-size="10.00">memory</text>
</g>
<!-- Node3&#45;&gt;Node5 -->
<g id="edge5" class="edge"><title>Node3&#45;&gt;Node5</title>
<path fill="none" stroke="midnightblue" d="M374.867,-168.242C381.77,-154.99 396.209,-129.534 413.5,-112 425.489,-99.8426 441.211,-88.9708 454.303,-80.9599"/>
<polygon fill="midnightblue" stroke="midnightblue" points="456.452,-83.7556 463.28,-75.6549 452.891,-77.7293 456.452,-83.7556"/>
</g>
<!-- Node6 -->
<g id="node7" class="node"><title>Node6</title>
<polygon fill="white" stroke="#bfbfbf" points="456,-112.5 456,-131.5 491,-131.5 491,-112.5 456,-112.5"/>
<text text-anchor="middle" x="473.5" y="-119.5" font-family="Helvetica,sans-Serif" font-size="10.00">map</text>
</g>
<!-- Node3&#45;&gt;Node6 -->
<g id="edge6" class="edge"><title>Node3&#45;&gt;Node6</title>
<path fill="none" stroke="midnightblue" d="M387.049,-168.324C403.492,-159.703 428.935,-146.364 447.968,-136.386"/>
<polygon fill="midnightblue" stroke="midnightblue" points="449.761,-139.398 456.992,-131.655 446.511,-133.198 449.761,-139.398"/>
</g>
<!-- Node7 -->
<g id="node8" class="node"><title>Node7</title>
<g id="a_node8"><a xlink:href="parkinghallinterface_8hh.html" target="_top" xlink:title="parkinghallinterface.hh">
<polygon fill="white" stroke="black" points="210,-112.5 210,-131.5 323,-131.5 323,-112.5 210,-112.5"/>
<text text-anchor="middle" x="266.5" y="-119.5" font-family="Helvetica,sans-Serif" font-size="10.00">parkinghallinterface.hh</text>
</a>
</g>
</g>
<!-- Node3&#45;&gt;Node7 -->
<g id="edge7" class="edge"><title>Node3&#45;&gt;Node7</title>
<path fill="none" stroke="midnightblue" d="M353.791,-168.324C337.188,-159.703 311.498,-146.364 292.28,-136.386"/>
<polygon fill="midnightblue" stroke="midnightblue" points="293.656,-133.156 283.168,-131.655 290.43,-139.369 293.656,-133.156"/>
</g>
<!-- Node9 -->
<g id="node10" class="node"><title>Node9</title>
<g id="a_node10"><a xlink:href="actorinterface_8hh.html" target="_top" xlink:title="Määrittelee yhden toimijan operaatioiden rajapintaluokan. ">
<polygon fill="white" stroke="black" points="586,-112.5 586,-131.5 675,-131.5 675,-112.5 586,-112.5"/>
<text text-anchor="middle" x="630.5" y="-119.5" font-family="Helvetica,sans-Serif" font-size="10.00">actorinterface.hh</text>
</a>
</g>
</g>
<!-- Node3&#45;&gt;Node9 -->
<g id="edge9" class="edge"><title>Node3&#45;&gt;Node9</title>
<path fill="none" stroke="midnightblue" d="M411.698,-168.444C457.149,-159.004 530.342,-143.802 579.409,-133.611"/>
<polygon fill="midnightblue" stroke="midnightblue" points="580.416,-136.977 589.495,-131.516 578.992,-130.123 580.416,-136.977"/>
</g>
<!-- Node10 -->
<g id="node11" class="node"><title>Node10</title>
<g id="a_node11"><a xlink:href="equipmentinterface_8hh.html" target="_top" xlink:title="Määrittelee yhden tavaran (Equipment) operaatioiden rajapintaluokan. ">
<polygon fill="white" stroke="black" points="523.5,-56.5 523.5,-75.5 675.5,-75.5 675.5,-56.5 523.5,-56.5"/>
<text text-anchor="middle" x="599.5" y="-63.5" font-family="Helvetica,sans-Serif" font-size="10.00">Interface/equipmentinterface.hh</text>
</a>
</g>
</g>
<!-- Node3&#45;&gt;Node10 -->
<g id="edge14" class="edge"><title>Node3&#45;&gt;Node10</title>
<path fill="none" stroke="midnightblue" d="M378.489,-168.081C391.441,-154.144 418.416,-127.226 446.5,-112 476.241,-95.8759 512.447,-84.8922 542.17,-77.8152"/>
<polygon fill="midnightblue" stroke="midnightblue" points="543.02,-81.2114 551.983,-75.5632 541.454,-74.3887 543.02,-81.2114"/>
</g>
<!-- Node3&#45;&gt;Node11 -->
<g id="edge15" class="edge"><title>Node3&#45;&gt;Node11</title>
<path fill="none" stroke="midnightblue" d="M331.045,-168.444C287.608,-159.023 217.714,-143.866 170.724,-133.675"/>
<polygon fill="midnightblue" stroke="midnightblue" points="171.285,-130.215 160.77,-131.516 169.801,-137.056 171.285,-130.215"/>
</g>
<!-- Node8 -->
<g id="node9" class="node"><title>Node8</title>
<polygon fill="white" stroke="#bfbfbf" points="626.5,-0.5 626.5,-19.5 676.5,-19.5 676.5,-0.5 626.5,-0.5"/>
<text text-anchor="middle" x="651.5" y="-7.5" font-family="Helvetica,sans-Serif" font-size="10.00">QString</text>
</g>
<!-- Node7&#45;&gt;Node8 -->
<g id="edge8" class="edge"><title>Node7&#45;&gt;Node8</title>
<path fill="none" stroke="midnightblue" d="M271.182,-112.046C279.285,-97.5488 297.397,-69.231 321.5,-56 371.623,-28.4853 541.257,-16.626 615.83,-12.6547"/>
<polygon fill="midnightblue" stroke="midnightblue" points="616.31,-16.1347 626.117,-12.1251 615.95,-9.14395 616.31,-16.1347"/>
</g>
<!-- Node9&#45;&gt;Node5 -->
<g id="edge11" class="edge"><title>Node9&#45;&gt;Node5</title>
<path fill="none" stroke="midnightblue" d="M606.574,-112.444C581.281,-103.399 541.198,-89.064 512.82,-78.9158"/>
<polygon fill="midnightblue" stroke="midnightblue" points="513.909,-75.5882 503.314,-75.5164 511.552,-82.1794 513.909,-75.5882"/>
</g>
<!-- Node9&#45;&gt;Node8 -->
<g id="edge10" class="edge"><title>Node9&#45;&gt;Node8</title>
<path fill="none" stroke="midnightblue" d="M647.133,-112.464C659.988,-104.841 676.839,-92.356 684.5,-76 692.413,-59.1059 680.272,-40.1163 668.548,-27.0458"/>
<polygon fill="midnightblue" stroke="midnightblue" points="670.953,-24.4982 661.485,-19.744 665.922,-29.3651 670.953,-24.4982"/>
</g>
<!-- Node9&#45;&gt;Node10 -->
<g id="edge12" class="edge"><title>Node9&#45;&gt;Node10</title>
<path fill="none" stroke="midnightblue" d="M625.381,-112.083C621.092,-104.613 614.842,-93.7244 609.558,-84.5199"/>
<polygon fill="midnightblue" stroke="midnightblue" points="612.538,-82.6811 604.524,-75.7511 606.467,-86.1662 612.538,-82.6811"/>
</g>
<!-- Node10&#45;&gt;Node8 -->
<g id="edge13" class="edge"><title>Node10&#45;&gt;Node8</title>
<path fill="none" stroke="midnightblue" d="M608.087,-56.083C615.659,-48.2195 626.878,-36.5688 636.014,-27.0813"/>
<polygon fill="midnightblue" stroke="midnightblue" points="638.658,-29.3821 643.073,-19.7511 633.615,-24.5266 638.658,-29.3821"/>
</g>
<!-- Node11&#45;&gt;Node4 -->
<g id="edge16" class="edge"><title>Node11&#45;&gt;Node4</title>
<path fill="none" stroke="midnightblue" d="M157.944,-112.444C202.784,-101.916 278.147,-84.222 320.39,-74.3042"/>
<polygon fill="midnightblue" stroke="midnightblue" points="321.442,-77.6524 330.377,-71.9593 319.842,-70.8377 321.442,-77.6524"/>
</g>
<!-- Node11&#45;&gt;Node12 -->
<g id="edge17" class="edge"><title>Node11&#45;&gt;Node12</title>
<path fill="none" stroke="midnightblue" d="M105.755,-112.324C90.1813,-103.743 66.1227,-90.486 48.0407,-80.5224"/>
<polygon fill="midnightblue" stroke="midnightblue" points="49.6539,-77.4152 39.2063,-75.6545 46.2756,-83.546 49.6539,-77.4152"/>
</g>
<!-- Node13&#45;&gt;Node4 -->
<g id="edge22" class="edge"><title>Node13&#45;&gt;Node4</title>
<path fill="none" stroke="midnightblue" d="M535.675,-168.456C530.64,-154.55 518.796,-127.061 499.5,-112 465.169,-85.2024 414.943,-74.298 382.737,-69.9045"/>
<polygon fill="midnightblue" stroke="midnightblue" points="382.908,-66.3991 372.555,-68.6505 382.052,-73.3466 382.908,-66.3991"/>
</g>
<!-- Node13&#45;&gt;Node5 -->
<g id="edge23" class="edge"><title>Node13&#45;&gt;Node5</title>
<path fill="none" stroke="midnightblue" d="M539.856,-168.435C541.488,-155.436 542.947,-130.305 533.5,-112 526.92,-99.25 514.994,-88.7197 504.021,-81.0596"/>
<polygon fill="midnightblue" stroke="midnightblue" points="505.835,-78.0646 495.545,-75.544 502.018,-83.9318 505.835,-78.0646"/>
</g>
<!-- Node13&#45;&gt;Node6 -->
<g id="edge24" class="edge"><title>Node13&#45;&gt;Node6</title>
<path fill="none" stroke="midnightblue" d="M528.057,-168.324C518.354,-160.263 503.685,-148.077 492,-138.369"/>
<polygon fill="midnightblue" stroke="midnightblue" points="494.062,-135.532 484.133,-131.834 489.589,-140.916 494.062,-135.532"/>
</g>
<!-- Node13&#45;&gt;Node8 -->
<g id="edge25" class="edge"><title>Node13&#45;&gt;Node8</title>
<path fill="none" stroke="midnightblue" d="M581.011,-171.061C623.985,-164.084 686.06,-150.998 700.5,-132 720.94,-105.109 714.087,-86.9247 700.5,-56 695.11,-43.732 684.542,-33.3414 674.596,-25.6461"/>
<polygon fill="midnightblue" stroke="midnightblue" points="676.328,-22.5811 666.161,-19.598 672.248,-28.2697 676.328,-22.5811"/>
</g>
<!-- Node13&#45;&gt;Node9 -->
<g id="edge19" class="edge"><title>Node13&#45;&gt;Node9</title>
<path fill="none" stroke="midnightblue" d="M553.281,-168.324C567.767,-159.822 590.073,-146.729 606.993,-136.797"/>
<polygon fill="midnightblue" stroke="midnightblue" points="608.903,-139.735 615.755,-131.655 605.359,-133.698 608.903,-139.735"/>
</g>
<!-- Node13&#45;&gt;Node10 -->
<g id="edge20" class="edge"><title>Node13&#45;&gt;Node10</title>
<path fill="none" stroke="midnightblue" d="M581.11,-176.559C614.907,-173.676 660.206,-163.619 683.5,-132 700.205,-109.325 667.077,-90.5699 637.632,-79.1283"/>
<polygon fill="midnightblue" stroke="midnightblue" points="638.458,-75.703 627.865,-75.5334 636.04,-82.2721 638.458,-75.703"/>
</g>
<!-- Node13&#45;&gt;Node11 -->
<g id="edge21" class="edge"><title>Node13&#45;&gt;Node11</title>
<path fill="none" stroke="midnightblue" d="M495.833,-171.475C425.649,-162.386 284.915,-144.162 197.417,-132.831"/>
<polygon fill="midnightblue" stroke="midnightblue" points="197.649,-129.332 187.282,-131.519 196.75,-136.274 197.649,-129.332"/>
</g>
</g>
</svg>
