<?xml version="1.0" encoding="UTF-8" standalone="no"?>
<!DOCTYPE svg PUBLIC "-//W3C//DTD SVG 1.1//EN"
 "http://www.w3.org/Graphics/SVG/1.1/DTD/svg11.dtd">
<!-- Generated by graphviz version 2.38.0 (20140413.2041)
 -->
<!-- Title: Controller/controller.cc Pages: 1 -->
<svg width="1168pt" height="364pt"
 viewBox="0.00 0.00 1167.72 364.00" xmlns="http://www.w3.org/2000/svg" xmlns:xlink="http://www.w3.org/1999/xlink">
<g id="graph0" class="graph" transform="scale(1 1) rotate(0) translate(4 360)">
<title>Controller/controller.cc</title>
<polygon fill="white" stroke="none" points="-4,4 -4,-360 1163.72,-360 1163.72,4 -4,4"/>
<!-- Node0 -->
<g id="node1" class="node"><title>Node0</title>
<polygon fill="#bfbfbf" stroke="black" points="565.725,-336.5 565.725,-355.5 679.725,-355.5 679.725,-336.5 565.725,-336.5"/>
<text text-anchor="middle" x="622.725" y="-343.5" font-family="Helvetica,sans-Serif" font-size="10.00">Controller/controller.cc</text>
</g>
<!-- Node1 -->
<g id="node2" class="node"><title>Node1</title>
<g id="a_node2"><a xlink:href="controller_8hh.html" target="_top" xlink:title="controller.hh">
<polygon fill="white" stroke="black" points="484.725,-280.5 484.725,-299.5 554.725,-299.5 554.725,-280.5 484.725,-280.5"/>
<text text-anchor="middle" x="519.725" y="-287.5" font-family="Helvetica,sans-Serif" font-size="10.00">controller.hh</text>
</a>
</g>
</g>
<!-- Node0&#45;&gt;Node1 -->
<g id="edge1" class="edge"><title>Node0&#45;&gt;Node1</title>
<path fill="none" stroke="midnightblue" d="M606.176,-336.324C589.733,-327.703 564.29,-314.364 545.257,-304.386"/>
<polygon fill="midnightblue" stroke="midnightblue" points="546.714,-301.198 536.233,-299.655 543.464,-307.398 546.714,-301.198"/>
</g>
<!-- Node14 -->
<g id="node15" class="node"><title>Node14</title>
<g id="a_node15"><a xlink:href="roomgenerator_8hh.html" target="_top" xlink:title="Model/roomgenerator.hh">
<polygon fill="white" stroke="black" points="640.725,-224.5 640.725,-243.5 762.725,-243.5 762.725,-224.5 640.725,-224.5"/>
<text text-anchor="middle" x="701.725" y="-231.5" font-family="Helvetica,sans-Serif" font-size="10.00">Model/roomgenerator.hh</text>
</a>
</g>
</g>
<!-- Node0&#45;&gt;Node14 -->
<g id="edge29" class="edge"><title>Node0&#45;&gt;Node14</title>
<path fill="none" stroke="midnightblue" d="M623.515,-336.255C625.077,-323.022 629.54,-297.589 641.725,-280 650.529,-267.291 664.073,-256.691 676.067,-248.977"/>
<polygon fill="midnightblue" stroke="midnightblue" points="678.101,-251.837 684.832,-243.654 674.468,-245.854 678.101,-251.837"/>
</g>
<!-- Node20 -->
<g id="node21" class="node"><title>Node20</title>
<polygon fill="white" stroke="#bfbfbf" points="650.725,-280.5 650.725,-299.5 702.725,-299.5 702.725,-280.5 650.725,-280.5"/>
<text text-anchor="middle" x="676.725" y="-287.5" font-family="Helvetica,sans-Serif" font-size="10.00">QDebug</text>
</g>
<!-- Node0&#45;&gt;Node20 -->
<g id="edge44" class="edge"><title>Node0&#45;&gt;Node20</title>
<path fill="none" stroke="midnightblue" d="M631.642,-336.083C639.505,-328.22 651.156,-316.569 660.644,-307.081"/>
<polygon fill="midnightblue" stroke="midnightblue" points="663.378,-309.297 667.974,-299.751 658.428,-304.347 663.378,-309.297"/>
</g>
<!-- Node2 -->
<g id="node3" class="node"><title>Node2</title>
<g id="a_node3"><a xlink:href="controllerinterface_8hh.html" target="_top" xlink:title="Interface/controllerinterface.hh">
<polygon fill="white" stroke="black" points="345.725,-224.5 345.725,-243.5 491.725,-243.5 491.725,-224.5 345.725,-224.5"/>
<text text-anchor="middle" x="418.725" y="-231.5" font-family="Helvetica,sans-Serif" font-size="10.00">Interface/controllerinterface.hh</text>
</a>
</g>
</g>
<!-- Node1&#45;&gt;Node2 -->
<g id="edge2" class="edge"><title>Node1&#45;&gt;Node2</title>
<path fill="none" stroke="midnightblue" d="M503.498,-280.324C487.374,-271.703 462.425,-258.364 443.761,-248.386"/>
<polygon fill="midnightblue" stroke="midnightblue" points="445.381,-245.283 434.912,-243.655 442.081,-251.456 445.381,-245.283"/>
</g>
<!-- Node12 -->
<g id="node13" class="node"><title>Node12</title>
<polygon fill="white" stroke="#bfbfbf" points="572.225,-56.5 572.225,-75.5 619.225,-75.5 619.225,-56.5 572.225,-56.5"/>
<text text-anchor="middle" x="595.725" y="-63.5" font-family="Helvetica,sans-Serif" font-size="10.00">QPoint</text>
</g>
<!-- Node1&#45;&gt;Node12 -->
<g id="edge28" class="edge"><title>Node1&#45;&gt;Node12</title>
<path fill="none" stroke="midnightblue" d="M522.704,-280.297C533.934,-247.494 573.855,-130.884 589.434,-85.3774"/>
<polygon fill="midnightblue" stroke="midnightblue" points="592.756,-86.4783 592.684,-75.8837 586.133,-84.2111 592.756,-86.4783"/>
</g>
<!-- Node3 -->
<g id="node4" class="node"><title>Node3</title>
<g id="a_node4"><a xlink:href="modelinterface_8hh.html" target="_top" xlink:title="Määrittelee modellin operaatioiden rajapintaluokan. ">
<polygon fill="white" stroke="black" points="322.225,-168.5 322.225,-187.5 415.225,-187.5 415.225,-168.5 322.225,-168.5"/>
<text text-anchor="middle" x="368.725" y="-175.5" font-family="Helvetica,sans-Serif" font-size="10.00">modelinterface.hh</text>
</a>
</g>
</g>
<!-- Node2&#45;&gt;Node3 -->
<g id="edge3" class="edge"><title>Node2&#45;&gt;Node3</title>
<path fill="none" stroke="midnightblue" d="M410.468,-224.083C403.26,-216.298 392.615,-204.801 383.879,-195.367"/>
<polygon fill="midnightblue" stroke="midnightblue" points="386.19,-192.711 376.828,-187.751 381.054,-197.467 386.19,-192.711"/>
</g>
<!-- Node11 -->
<g id="node12" class="node"><title>Node11</title>
<g id="a_node12"><a xlink:href="parkinghalllayoutinterface_8hh.html" target="_top" xlink:title="parkinghalllayoutinterface.hh">
<polygon fill="white" stroke="black" points="661.725,-112.5 661.725,-131.5 801.725,-131.5 801.725,-112.5 661.725,-112.5"/>
<text text-anchor="middle" x="731.725" y="-119.5" font-family="Helvetica,sans-Serif" font-size="10.00">parkinghalllayoutinterface.hh</text>
</a>
</g>
</g>
<!-- Node2&#45;&gt;Node11 -->
<g id="edge26" class="edge"><title>Node2&#45;&gt;Node11</title>
<path fill="none" stroke="midnightblue" d="M437.925,-224.313C467.407,-211.156 525.768,-185.82 576.725,-168 614.077,-154.937 657.386,-142.593 688.713,-134.149"/>
<polygon fill="midnightblue" stroke="midnightblue" points="689.684,-137.513 698.441,-131.549 687.876,-130.75 689.684,-137.513"/>
</g>
<!-- Node2&#45;&gt;Node12 -->
<g id="edge27" class="edge"><title>Node2&#45;&gt;Node12</title>
<path fill="none" stroke="midnightblue" d="M428.241,-224.075C456.947,-197.153 542.93,-116.514 579.248,-82.4534"/>
<polygon fill="midnightblue" stroke="midnightblue" points="581.689,-84.9619 586.589,-75.5681 576.901,-79.856 581.689,-84.9619"/>
</g>
<!-- Node13 -->
<g id="node14" class="node"><title>Node13</title>
<g id="a_node14"><a xlink:href="viewinterface_8hh.html" target="_top" xlink:title="Määrittelee näkymän operaatioiden rajapintaluokan. ">
<polygon fill="white" stroke="black" points="178.225,-168.5 178.225,-187.5 263.225,-187.5 263.225,-168.5 178.225,-168.5"/>
<text text-anchor="middle" x="220.725" y="-175.5" font-family="Helvetica,sans-Serif" font-size="10.00">viewinterface.hh</text>
</a>
</g>
</g>
<!-- Node2&#45;&gt;Node13 -->
<g id="edge18" class="edge"><title>Node2&#45;&gt;Node13</title>
<path fill="none" stroke="midnightblue" d="M387.351,-224.444C353.462,-215.201 299.322,-200.436 262.001,-190.257"/>
<polygon fill="midnightblue" stroke="midnightblue" points="262.52,-186.771 251.952,-187.516 260.679,-193.524 262.52,-186.771"/>
</g>
<!-- Node4 -->
<g id="node5" class="node"><title>Node4</title>
<polygon fill="white" stroke="#bfbfbf" points="765.725,-56.5 765.725,-75.5 807.725,-75.5 807.725,-56.5 765.725,-56.5"/>
<text text-anchor="middle" x="786.725" y="-63.5" font-family="Helvetica,sans-Serif" font-size="10.00">vector</text>
</g>
<!-- Node3&#45;&gt;Node4 -->
<g id="edge4" class="edge"><title>Node3&#45;&gt;Node4</title>
<path fill="none" stroke="midnightblue" d="M401.177,-168.46C479.587,-147.826 678.55,-95.4671 755.59,-75.1933"/>
<polygon fill="midnightblue" stroke="midnightblue" points="756.847,-78.4819 765.627,-72.5522 755.065,-71.7124 756.847,-78.4819"/>
</g>
<!-- Node5 -->
<g id="node6" class="node"><title>Node5</title>
<polygon fill="white" stroke="#bfbfbf" points="271.725,-56.5 271.725,-75.5 323.725,-75.5 323.725,-56.5 271.725,-56.5"/>
<text text-anchor="middle" x="297.725" y="-63.5" font-family="Helvetica,sans-Serif" font-size="10.00">memory</text>
</g>
<!-- Node3&#45;&gt;Node5 -->
<g id="edge5" class="edge"><title>Node3&#45;&gt;Node5</title>
<path fill="none" stroke="midnightblue" d="M363.883,-168.457C356.705,-155.905 342.692,-131.824 329.725,-112 323.559,-102.574 316.312,-92.3204 310.275,-83.9851"/>
<polygon fill="midnightblue" stroke="midnightblue" points="313.035,-81.8302 304.308,-75.8231 307.384,-85.9615 313.035,-81.8302"/>
</g>
<!-- Node6 -->
<g id="node7" class="node"><title>Node6</title>
<polygon fill="white" stroke="#bfbfbf" points="286.225,-112.5 286.225,-131.5 321.225,-131.5 321.225,-112.5 286.225,-112.5"/>
<text text-anchor="middle" x="303.725" y="-119.5" font-family="Helvetica,sans-Serif" font-size="10.00">map</text>
</g>
<!-- Node3&#45;&gt;Node6 -->
<g id="edge6" class="edge"><title>Node3&#45;&gt;Node6</title>
<path fill="none" stroke="midnightblue" d="M358.282,-168.324C348.579,-160.263 333.91,-148.077 322.225,-138.369"/>
<polygon fill="midnightblue" stroke="midnightblue" points="324.287,-135.532 314.358,-131.834 319.814,-140.916 324.287,-135.532"/>
</g>
<!-- Node7 -->
<g id="node8" class="node"><title>Node7</title>
<g id="a_node8"><a xlink:href="parkinghallinterface_8hh.html" target="_top" xlink:title="parkinghallinterface.hh">
<polygon fill="white" stroke="black" points="378.225,-112.5 378.225,-131.5 491.225,-131.5 491.225,-112.5 378.225,-112.5"/>
<text text-anchor="middle" x="434.725" y="-119.5" font-family="Helvetica,sans-Serif" font-size="10.00">parkinghallinterface.hh</text>
</a>
</g>
</g>
<!-- Node3&#45;&gt;Node7 -->
<g id="edge7" class="edge"><title>Node3&#45;&gt;Node7</title>
<path fill="none" stroke="midnightblue" d="M379.329,-168.324C389.181,-160.263 404.076,-148.077 415.94,-138.369"/>
<polygon fill="midnightblue" stroke="midnightblue" points="418.405,-140.875 423.928,-131.834 413.972,-135.457 418.405,-140.875"/>
</g>
<!-- Node9 -->
<g id="node10" class="node"><title>Node9</title>
<g id="a_node10"><a xlink:href="actorinterface_8hh.html" target="_top" xlink:title="Määrittelee yhden toimijan operaatioiden rajapintaluokan. ">
<polygon fill="white" stroke="black" points="102.225,-112.5 102.225,-131.5 191.225,-131.5 191.225,-112.5 102.225,-112.5"/>
<text text-anchor="middle" x="146.725" y="-119.5" font-family="Helvetica,sans-Serif" font-size="10.00">actorinterface.hh</text>
</a>
</g>
</g>
<!-- Node3&#45;&gt;Node9 -->
<g id="edge9" class="edge"><title>Node3&#45;&gt;Node9</title>
<path fill="none" stroke="midnightblue" d="M333.548,-168.444C295.146,-159.102 233.549,-144.119 191.67,-133.933"/>
<polygon fill="midnightblue" stroke="midnightblue" points="192.281,-130.479 181.737,-131.516 190.626,-137.281 192.281,-130.479"/>
</g>
<!-- Node10 -->
<g id="node11" class="node"><title>Node10</title>
<g id="a_node11"><a xlink:href="equipmentinterface_8hh.html" target="_top" xlink:title="Määrittelee yhden tavaran (Equipment) operaatioiden rajapintaluokan. ">
<polygon fill="white" stroke="black" points="11.7249,-56.5 11.7249,-75.5 163.725,-75.5 163.725,-56.5 11.7249,-56.5"/>
<text text-anchor="middle" x="87.7249" y="-63.5" font-family="Helvetica,sans-Serif" font-size="10.00">Interface/equipmentinterface.hh</text>
</a>
</g>
</g>
<!-- Node3&#45;&gt;Node10 -->
<g id="edge14" class="edge"><title>Node3&#45;&gt;Node10</title>
<path fill="none" stroke="midnightblue" d="M322.129,-172.537C247.522,-164.935 108.038,-148.671 92.7249,-132 81.4987,-119.778 81.4919,-100.234 83.5354,-85.7638"/>
<polygon fill="midnightblue" stroke="midnightblue" points="86.9843,-86.3605 85.3459,-75.8931 80.0991,-85.0976 86.9843,-86.3605"/>
</g>
<!-- Node3&#45;&gt;Node11 -->
<g id="edge15" class="edge"><title>Node3&#45;&gt;Node11</title>
<path fill="none" stroke="midnightblue" d="M415.438,-170.051C478.715,-160.638 592.068,-143.775 664.496,-133.001"/>
<polygon fill="midnightblue" stroke="midnightblue" points="665.059,-136.456 674.435,-131.522 664.029,-129.532 665.059,-136.456"/>
</g>
<!-- Node8 -->
<g id="node9" class="node"><title>Node8</title>
<polygon fill="white" stroke="#bfbfbf" points="114.725,-0.5 114.725,-19.5 164.725,-19.5 164.725,-0.5 114.725,-0.5"/>
<text text-anchor="middle" x="139.725" y="-7.5" font-family="Helvetica,sans-Serif" font-size="10.00">QString</text>
</g>
<!-- Node7&#45;&gt;Node8 -->
<g id="edge8" class="edge"><title>Node7&#45;&gt;Node8</title>
<path fill="none" stroke="midnightblue" d="M424.092,-112.475C406.258,-98.5956 368.726,-71.1453 332.725,-56 280.032,-33.8326 214.438,-21.484 174.886,-15.5466"/>
<polygon fill="midnightblue" stroke="midnightblue" points="175.332,-12.0748 164.934,-14.106 174.33,-19.0026 175.332,-12.0748"/>
</g>
<!-- Node9&#45;&gt;Node5 -->
<g id="edge11" class="edge"><title>Node9&#45;&gt;Node5</title>
<path fill="none" stroke="midnightblue" d="M170.651,-112.444C195.944,-103.399 236.027,-89.064 264.405,-78.9158"/>
<polygon fill="midnightblue" stroke="midnightblue" points="265.673,-82.1794 273.91,-75.5164 263.316,-75.5882 265.673,-82.1794"/>
</g>
<!-- Node9&#45;&gt;Node8 -->
<g id="edge10" class="edge"><title>Node9&#45;&gt;Node8</title>
<path fill="none" stroke="midnightblue" d="M154.37,-112.301C164.257,-99.9539 179.456,-76.5604 172.725,-56 169.235,-45.3397 162.152,-35.1174 155.439,-27.1175"/>
<polygon fill="midnightblue" stroke="midnightblue" points="158.03,-24.7633 148.745,-19.66 152.82,-29.4395 158.03,-24.7633"/>
</g>
<!-- Node9&#45;&gt;Node10 -->
<g id="edge12" class="edge"><title>Node9&#45;&gt;Node10</title>
<path fill="none" stroke="midnightblue" d="M137.246,-112.324C128.524,-104.341 115.381,-92.3128 104.827,-82.6529"/>
<polygon fill="midnightblue" stroke="midnightblue" points="107.117,-80.0036 97.3768,-75.8339 102.39,-85.1674 107.117,-80.0036"/>
</g>
<!-- Node10&#45;&gt;Node8 -->
<g id="edge13" class="edge"><title>Node10&#45;&gt;Node8</title>
<path fill="none" stroke="midnightblue" d="M96.3117,-56.083C103.884,-48.2195 115.103,-36.5688 124.239,-27.0813"/>
<polygon fill="midnightblue" stroke="midnightblue" points="126.883,-29.3821 131.298,-19.7511 121.84,-24.5266 126.883,-29.3821"/>
</g>
<!-- Node11&#45;&gt;Node4 -->
<g id="edge16" class="edge"><title>Node11&#45;&gt;Node4</title>
<path fill="none" stroke="midnightblue" d="M740.807,-112.083C748.896,-104.141 760.92,-92.3354 770.635,-82.7973"/>
<polygon fill="midnightblue" stroke="midnightblue" points="773.128,-85.2545 777.812,-75.7511 768.224,-80.2595 773.128,-85.2545"/>
</g>
<!-- Node11&#45;&gt;Node12 -->
<g id="edge17" class="edge"><title>Node11&#45;&gt;Node12</title>
<path fill="none" stroke="midnightblue" d="M710.175,-112.444C687.694,-103.517 652.237,-89.4387 626.745,-79.3168"/>
<polygon fill="midnightblue" stroke="midnightblue" points="627.76,-75.9539 617.174,-75.5164 625.176,-82.4598 627.76,-75.9539"/>
</g>
<!-- Node13&#45;&gt;Node4 -->
<g id="edge22" class="edge"><title>Node13&#45;&gt;Node4</title>
<path fill="none" stroke="midnightblue" d="M225.205,-168.382C233.286,-153.843 251.807,-124.778 276.725,-112 298.112,-101.033 647.51,-76.469 755.308,-69.1177"/>
<polygon fill="midnightblue" stroke="midnightblue" points="755.797,-72.5926 765.536,-68.4225 755.322,-65.6088 755.797,-72.5926"/>
</g>
<!-- Node13&#45;&gt;Node5 -->
<g id="edge23" class="edge"><title>Node13&#45;&gt;Node5</title>
<path fill="none" stroke="midnightblue" d="M222.259,-168.328C224.905,-155.19 231.279,-129.881 243.725,-112 252.087,-99.9871 264.466,-89.353 275.264,-81.4426"/>
<polygon fill="midnightblue" stroke="midnightblue" points="277.281,-84.3027 283.476,-75.7082 273.274,-78.5633 277.281,-84.3027"/>
</g>
<!-- Node13&#45;&gt;Node6 -->
<g id="edge24" class="edge"><title>Node13&#45;&gt;Node6</title>
<path fill="none" stroke="midnightblue" d="M234.06,-168.324C246.887,-159.979 266.51,-147.212 281.665,-137.352"/>
<polygon fill="midnightblue" stroke="midnightblue" points="283.949,-140.042 290.423,-131.655 280.132,-134.174 283.949,-140.042"/>
</g>
<!-- Node13&#45;&gt;Node8 -->
<g id="edge25" class="edge"><title>Node13&#45;&gt;Node8</title>
<path fill="none" stroke="midnightblue" d="M178.203,-173.768C122.433,-166.814 28.6195,-144.917 2.72492,-76 -13.7257,-32.2175 58.6388,-17.8988 104.468,-13.2353"/>
<polygon fill="midnightblue" stroke="midnightblue" points="104.997,-16.7018 114.64,-12.312 104.364,-9.73044 104.997,-16.7018"/>
</g>
<!-- Node13&#45;&gt;Node9 -->
<g id="edge19" class="edge"><title>Node13&#45;&gt;Node9</title>
<path fill="none" stroke="midnightblue" d="M208.836,-168.324C197.575,-160.107 180.438,-147.602 167.016,-137.807"/>
<polygon fill="midnightblue" stroke="midnightblue" points="168.972,-134.901 158.831,-131.834 164.845,-140.556 168.972,-134.901"/>
</g>
<!-- Node13&#45;&gt;Node10 -->
<g id="edge20" class="edge"><title>Node13&#45;&gt;Node10</title>
<path fill="none" stroke="midnightblue" d="M178.081,-170.959C135.385,-163.934 74.0232,-150.843 59.7249,-132 48.5303,-117.247 60.2226,-97.3355 71.733,-83.4529"/>
<polygon fill="midnightblue" stroke="midnightblue" points="74.6177,-85.4774 78.6701,-75.6882 69.3976,-80.8136 74.6177,-85.4774"/>
</g>
<!-- Node13&#45;&gt;Node11 -->
<g id="edge21" class="edge"><title>Node13&#45;&gt;Node11</title>
<path fill="none" stroke="midnightblue" d="M263.414,-172.489C348.781,-163.468 541.74,-143.077 651.472,-131.481"/>
<polygon fill="midnightblue" stroke="midnightblue" points="651.923,-134.953 661.5,-130.421 651.187,-127.991 651.923,-134.953"/>
</g>
<!-- Node14&#45;&gt;Node4 -->
<g id="edge31" class="edge"><title>Node14&#45;&gt;Node4</title>
<path fill="none" stroke="midnightblue" d="M763.027,-233.881C849.14,-233.655 999.284,-227.424 1033.72,-188 1098.67,-113.662 897.672,-80.4811 817.881,-70.4612"/>
<polygon fill="midnightblue" stroke="midnightblue" points="818.25,-66.9804 807.901,-69.25 817.407,-73.9294 818.25,-66.9804"/>
</g>
<!-- Node14&#45;&gt;Node5 -->
<g id="edge34" class="edge"><title>Node14&#45;&gt;Node5</title>
<path fill="none" stroke="midnightblue" d="M665.648,-224.487C639.615,-217.311 604.338,-205.397 576.725,-188 536.042,-162.368 541.945,-135.012 499.725,-112 446.649,-83.0713 376.09,-72.7305 333.952,-69.0402"/>
<polygon fill="midnightblue" stroke="midnightblue" points="334.126,-65.5431 323.879,-68.2381 333.57,-72.521 334.126,-65.5431"/>
</g>
<!-- Node14&#45;&gt;Node6 -->
<g id="edge30" class="edge"><title>Node14&#45;&gt;Node6</title>
<path fill="none" stroke="midnightblue" d="M640.456,-229.981C536.775,-224.283 335.692,-210.458 312.725,-188 300.652,-176.195 299.542,-156.27 300.747,-141.586"/>
<polygon fill="midnightblue" stroke="midnightblue" points="304.229,-141.952 301.977,-131.599 297.281,-141.096 304.229,-141.952"/>
</g>
<!-- Node14&#45;&gt;Node11 -->
<g id="edge35" class="edge"><title>Node14&#45;&gt;Node11</title>
<path fill="none" stroke="midnightblue" d="M695.445,-224.338C687.064,-211.639 674.213,-187.375 682.725,-168 688.115,-155.732 698.683,-145.341 708.629,-137.646"/>
<polygon fill="midnightblue" stroke="midnightblue" points="710.976,-140.27 717.064,-131.598 706.897,-134.581 710.976,-140.27"/>
</g>
<!-- Node15 -->
<g id="node16" class="node"><title>Node15</title>
<polygon fill="white" stroke="#bfbfbf" points="1081.72,-168.5 1081.72,-187.5 1159.72,-187.5 1159.72,-168.5 1081.72,-168.5"/>
<text text-anchor="middle" x="1120.72" y="-175.5" font-family="Helvetica,sans-Serif" font-size="10.00">unordered_set</text>
</g>
<!-- Node14&#45;&gt;Node15 -->
<g id="edge32" class="edge"><title>Node14&#45;&gt;Node15</title>
<path fill="none" stroke="midnightblue" d="M763.037,-226.331C835.827,-218.214 960.829,-203.639 1067.72,-188 1069,-187.814 1070.29,-187.622 1071.59,-187.424"/>
<polygon fill="midnightblue" stroke="midnightblue" points="1072.35,-190.848 1081.68,-185.838 1071.26,-183.933 1072.35,-190.848"/>
</g>
<!-- Node16 -->
<g id="node17" class="node"><title>Node16</title>
<polygon fill="white" stroke="#bfbfbf" points="586.225,-168.5 586.225,-187.5 635.225,-187.5 635.225,-168.5 586.225,-168.5"/>
<text text-anchor="middle" x="610.725" y="-175.5" font-family="Helvetica,sans-Serif" font-size="10.00">random</text>
</g>
<!-- Node14&#45;&gt;Node16 -->
<g id="edge33" class="edge"><title>Node14&#45;&gt;Node16</title>
<path fill="none" stroke="midnightblue" d="M687.104,-224.324C672.776,-215.822 650.712,-202.729 633.976,-192.797"/>
<polygon fill="midnightblue" stroke="midnightblue" points="635.695,-189.748 625.309,-187.655 632.123,-195.768 635.695,-189.748"/>
</g>
<!-- Node17 -->
<g id="node18" class="node"><title>Node17</title>
<g id="a_node18"><a xlink:href="mapprocessor_8hh.html" target="_top" xlink:title="mapprocessor.hh">
<polygon fill="white" stroke="black" points="807.725,-168.5 807.725,-187.5 899.725,-187.5 899.725,-168.5 807.725,-168.5"/>
<text text-anchor="middle" x="853.725" y="-175.5" font-family="Helvetica,sans-Serif" font-size="10.00">mapprocessor.hh</text>
</a>
</g>
</g>
<!-- Node14&#45;&gt;Node17 -->
<g id="edge36" class="edge"><title>Node14&#45;&gt;Node17</title>
<path fill="none" stroke="midnightblue" d="M725.81,-224.444C751.27,-215.399 791.619,-201.064 820.184,-190.916"/>
<polygon fill="midnightblue" stroke="midnightblue" points="821.501,-194.162 829.753,-187.516 819.158,-187.566 821.501,-194.162"/>
</g>
<!-- Node18 -->
<g id="node19" class="node"><title>Node18</title>
<g id="a_node19"><a xlink:href="layoutgenerator_8hh.html" target="_top" xlink:title="layoutgenerator.hh">
<polygon fill="white" stroke="black" points="692.225,-168.5 692.225,-187.5 789.225,-187.5 789.225,-168.5 692.225,-168.5"/>
<text text-anchor="middle" x="740.725" y="-175.5" font-family="Helvetica,sans-Serif" font-size="10.00">layoutgenerator.hh</text>
</a>
</g>
</g>
<!-- Node14&#45;&gt;Node18 -->
<g id="edge39" class="edge"><title>Node14&#45;&gt;Node18</title>
<path fill="none" stroke="midnightblue" d="M708.165,-224.083C713.674,-216.455 721.756,-205.264 728.49,-195.941"/>
<polygon fill="midnightblue" stroke="midnightblue" points="731.387,-197.907 734.405,-187.751 725.712,-193.809 731.387,-197.907"/>
</g>
<!-- Node19 -->
<g id="node20" class="node"><title>Node19</title>
<g id="a_node20"><a xlink:href="parkspaceinserter_8hh.html" target="_top" xlink:title="parkspaceinserter.hh">
<polygon fill="white" stroke="black" points="918.225,-168.5 918.225,-187.5 1025.22,-187.5 1025.22,-168.5 918.225,-168.5"/>
<text text-anchor="middle" x="971.725" y="-175.5" font-family="Helvetica,sans-Serif" font-size="10.00">parkspaceinserter.hh</text>
</a>
</g>
</g>
<!-- Node14&#45;&gt;Node19 -->
<g id="edge41" class="edge"><title>Node14&#45;&gt;Node19</title>
<path fill="none" stroke="midnightblue" d="M744.507,-224.444C791.904,-214.964 868.351,-199.675 919.308,-189.483"/>
<polygon fill="midnightblue" stroke="midnightblue" points="920.023,-192.91 929.143,-187.516 918.651,-186.046 920.023,-192.91"/>
</g>
<!-- Node17&#45;&gt;Node4 -->
<g id="edge37" class="edge"><title>Node17&#45;&gt;Node4</title>
<path fill="none" stroke="midnightblue" d="M848.468,-168.368C837.46,-150.296 811.805,-108.176 797.267,-84.3074"/>
<polygon fill="midnightblue" stroke="midnightblue" points="800.149,-82.3112 791.958,-75.5914 794.171,-85.9526 800.149,-82.3112"/>
</g>
<!-- Node17&#45;&gt;Node11 -->
<g id="edge38" class="edge"><title>Node17&#45;&gt;Node11</title>
<path fill="none" stroke="midnightblue" d="M834.394,-168.444C814.405,-159.596 782.982,-145.687 760.161,-135.586"/>
<polygon fill="midnightblue" stroke="midnightblue" points="761.527,-132.363 750.966,-131.516 758.693,-138.764 761.527,-132.363"/>
</g>
<!-- Node18&#45;&gt;Node11 -->
<g id="edge40" class="edge"><title>Node18&#45;&gt;Node11</title>
<path fill="none" stroke="midnightblue" d="M739.239,-168.083C738.046,-160.927 736.331,-150.635 734.84,-141.691"/>
<polygon fill="midnightblue" stroke="midnightblue" points="738.28,-141.04 733.183,-131.751 731.375,-142.19 738.28,-141.04"/>
</g>
<!-- Node19&#45;&gt;Node4 -->
<g id="edge42" class="edge"><title>Node19&#45;&gt;Node4</title>
<path fill="none" stroke="midnightblue" d="M957.208,-168.368C925.327,-149.412 848.953,-104.001 810.173,-80.9424"/>
<polygon fill="midnightblue" stroke="midnightblue" points="811.558,-77.6938 801.174,-75.5914 807.981,-83.7106 811.558,-77.6938"/>
</g>
<!-- Node19&#45;&gt;Node11 -->
<g id="edge43" class="edge"><title>Node19&#45;&gt;Node11</title>
<path fill="none" stroke="midnightblue" d="M933.696,-168.444C891.917,-159.043 824.743,-143.929 779.455,-133.739"/>
<polygon fill="midnightblue" stroke="midnightblue" points="780.1,-130.297 769.576,-131.516 778.563,-137.126 780.1,-130.297"/>
</g>
</g>
</svg>
