<?xml version="1.0" encoding="UTF-8" standalone="no"?>
<!DOCTYPE svg PUBLIC "-//W3C//DTD SVG 1.1//EN"
 "http://www.w3.org/Graphics/SVG/1.1/DTD/svg11.dtd">
<!-- Generated by graphviz version 2.38.0 (20140413.2041)
 -->
<!-- Title: Interface/controllerinterface.hh Pages: 1 -->
<svg width="386pt" height="140pt"
 viewBox="0.00 0.00 386.00 140.00" xmlns="http://www.w3.org/2000/svg" xmlns:xlink="http://www.w3.org/1999/xlink">
<g id="graph0" class="graph" transform="scale(1 1) rotate(0) translate(4 136)">
<title>Interface/controllerinterface.hh</title>
<polygon fill="white" stroke="none" points="-4,4 -4,-136 382,-136 382,4 -4,4"/>
<!-- Node12 -->
<g id="node1" class="node"><title>Node12</title>
<polygon fill="#bfbfbf" stroke="black" points="137,-112.5 137,-131.5 283,-131.5 283,-112.5 137,-112.5"/>
<text text-anchor="middle" x="210" y="-119.5" font-family="Helvetica,sans-Serif" font-size="10.00">Interface/controllerinterface.hh</text>
</g>
<!-- Node13 -->
<g id="node2" class="node"><title>Node13</title>
<g id="a_node2"><a xlink:href="controller_8hh.html" target="_top" xlink:title="Controller/controller.hh">
<polygon fill="white" stroke="black" points="35,-56.5 35,-75.5 149,-75.5 149,-56.5 35,-56.5"/>
<text text-anchor="middle" x="92" y="-63.5" font-family="Helvetica,sans-Serif" font-size="10.00">Controller/controller.hh</text>
</a>
</g>
</g>
<!-- Node12&#45;&gt;Node13 -->
<g id="edge1" class="edge"><title>Node12&#45;&gt;Node13</title>
<path fill="none" stroke="midnightblue" d="M182.1,-108.232C160.027,-98.1312 129.824,-84.3091 110.61,-75.5164"/>
<polygon fill="midnightblue" stroke="midnightblue" points="180.753,-111.465 191.303,-112.444 183.666,-105.1 180.753,-111.465"/>
</g>
<!-- Node16 -->
<g id="node5" class="node"><title>Node16</title>
<g id="a_node5"><a xlink:href="model_8hh.html" target="_top" xlink:title="Model/model.hh">
<polygon fill="white" stroke="black" points="167,-56.5 167,-75.5 253,-75.5 253,-56.5 167,-56.5"/>
<text text-anchor="middle" x="210" y="-63.5" font-family="Helvetica,sans-Serif" font-size="10.00">Model/model.hh</text>
</a>
</g>
</g>
<!-- Node12&#45;&gt;Node16 -->
<g id="edge4" class="edge"><title>Node12&#45;&gt;Node16</title>
<path fill="none" stroke="midnightblue" d="M210,-101.805C210,-92.9102 210,-82.7798 210,-75.7511"/>
<polygon fill="midnightblue" stroke="midnightblue" points="206.5,-102.083 210,-112.083 213.5,-102.083 206.5,-102.083"/>
</g>
<!-- Node18 -->
<g id="node7" class="node"><title>Node18</title>
<g id="a_node7"><a xlink:href="view_8hh.html" target="_top" xlink:title="View/view.hh">
<polygon fill="white" stroke="black" points="271,-56.5 271,-75.5 343,-75.5 343,-56.5 271,-56.5"/>
<text text-anchor="middle" x="307" y="-63.5" font-family="Helvetica,sans-Serif" font-size="10.00">View/view.hh</text>
</a>
</g>
</g>
<!-- Node12&#45;&gt;Node18 -->
<g id="edge7" class="edge"><title>Node12&#45;&gt;Node18</title>
<path fill="none" stroke="midnightblue" d="M234.335,-107.453C252.243,-97.4835 276.054,-84.2279 291.454,-75.6545"/>
<polygon fill="midnightblue" stroke="midnightblue" points="232.62,-104.402 225.585,-112.324 236.025,-110.518 232.62,-104.402"/>
</g>
<!-- Node14 -->
<g id="node3" class="node"><title>Node14</title>
<g id="a_node3"><a xlink:href="controller_8cc.html" target="_top" xlink:title="Controller/controller.cc">
<polygon fill="white" stroke="black" points="0,-0.5 0,-19.5 114,-19.5 114,-0.5 0,-0.5"/>
<text text-anchor="middle" x="57" y="-7.5" font-family="Helvetica,sans-Serif" font-size="10.00">Controller/controller.cc</text>
</a>
</g>
</g>
<!-- Node13&#45;&gt;Node14 -->
<g id="edge2" class="edge"><title>Node13&#45;&gt;Node14</title>
<path fill="none" stroke="midnightblue" d="M80.6999,-47.5656C74.6781,-38.2747 67.5314,-27.2484 62.672,-19.7511"/>
<polygon fill="midnightblue" stroke="midnightblue" points="77.8444,-49.5951 86.2205,-56.083 83.7185,-45.7878 77.8444,-49.5951"/>
</g>
<!-- Node15 -->
<g id="node4" class="node"><title>Node15</title>
<g id="a_node4"><a xlink:href="main_8cc.html" target="_top" xlink:title="main.cc">
<polygon fill="white" stroke="black" points="132.5,-0.5 132.5,-19.5 183.5,-19.5 183.5,-0.5 132.5,-0.5"/>
<text text-anchor="middle" x="158" y="-7.5" font-family="Helvetica,sans-Serif" font-size="10.00">main.cc</text>
</a>
</g>
</g>
<!-- Node13&#45;&gt;Node15 -->
<g id="edge3" class="edge"><title>Node13&#45;&gt;Node15</title>
<path fill="none" stroke="midnightblue" d="M110.554,-49.8197C122.378,-40.1452 137.286,-27.9481 147.203,-19.8339"/>
<polygon fill="midnightblue" stroke="midnightblue" points="108.127,-47.2827 102.604,-56.324 112.56,-52.7004 108.127,-47.2827"/>
</g>
<!-- Node16&#45;&gt;Node15 -->
<g id="edge5" class="edge"><title>Node16&#45;&gt;Node15</title>
<path fill="none" stroke="midnightblue" d="M194.321,-48.7175C185.155,-39.1997 173.947,-27.5608 166.427,-19.7511"/>
<polygon fill="midnightblue" stroke="midnightblue" points="191.956,-51.3075 201.413,-56.083 196.998,-46.452 191.956,-51.3075"/>
</g>
<!-- Node17 -->
<g id="node6" class="node"><title>Node17</title>
<g id="a_node6"><a xlink:href="model_8cc.html" target="_top" xlink:title="Model/model.cc">
<polygon fill="white" stroke="black" points="202,-0.5 202,-19.5 288,-19.5 288,-0.5 202,-0.5"/>
<text text-anchor="middle" x="245" y="-7.5" font-family="Helvetica,sans-Serif" font-size="10.00">Model/model.cc</text>
</a>
</g>
</g>
<!-- Node16&#45;&gt;Node17 -->
<g id="edge6" class="edge"><title>Node16&#45;&gt;Node17</title>
<path fill="none" stroke="midnightblue" d="M221.3,-47.5656C227.322,-38.2747 234.469,-27.2484 239.328,-19.7511"/>
<polygon fill="midnightblue" stroke="midnightblue" points="218.281,-45.7878 215.78,-56.083 224.156,-49.5951 218.281,-45.7878"/>
</g>
<!-- Node18&#45;&gt;Node15 -->
<g id="edge8" class="edge"><title>Node18&#45;&gt;Node15</title>
<path fill="none" stroke="midnightblue" d="M273.629,-52.9058C245.616,-42.7536 206.304,-28.5063 181.499,-19.5164"/>
<polygon fill="midnightblue" stroke="midnightblue" points="272.796,-56.3267 283.391,-56.4435 275.181,-49.7456 272.796,-56.3267"/>
</g>
<!-- Node19 -->
<g id="node8" class="node"><title>Node19</title>
<g id="a_node8"><a xlink:href="view_8cc.html" target="_top" xlink:title="View/view.cc">
<polygon fill="white" stroke="black" points="306,-0.5 306,-19.5 378,-19.5 378,-0.5 306,-0.5"/>
<text text-anchor="middle" x="342" y="-7.5" font-family="Helvetica,sans-Serif" font-size="10.00">View/view.cc</text>
</a>
</g>
</g>
<!-- Node18&#45;&gt;Node19 -->
<g id="edge9" class="edge"><title>Node18&#45;&gt;Node19</title>
<path fill="none" stroke="midnightblue" d="M318.3,-47.5656C324.322,-38.2747 331.469,-27.2484 336.328,-19.7511"/>
<polygon fill="midnightblue" stroke="midnightblue" points="315.281,-45.7878 312.78,-56.083 321.156,-49.5951 315.281,-45.7878"/>
</g>
</g>
</svg>
