<?xml version="1.0" encoding="UTF-8" standalone="no"?>
<!DOCTYPE svg PUBLIC "-//W3C//DTD SVG 1.1//EN"
 "http://www.w3.org/Graphics/SVG/1.1/DTD/svg11.dtd">
<!-- Generated by graphviz version 2.38.0 (20140413.2041)
 -->
<!-- Title: Interface/controllerinterface.hh Pages: 1 -->
<svg width="720pt" height="252pt"
 viewBox="0.00 0.00 719.91 252.00" xmlns="http://www.w3.org/2000/svg" xmlns:xlink="http://www.w3.org/1999/xlink">
<g id="graph0" class="graph" transform="scale(1 1) rotate(0) translate(4 248)">
<title>Interface/controllerinterface.hh</title>
<polygon fill="white" stroke="none" points="-4,4 -4,-248 715.905,-248 715.905,4 -4,4"/>
<!-- Node0 -->
<g id="node1" class="node"><title>Node0</title>
<polygon fill="#bfbfbf" stroke="black" points="107.405,-224.5 107.405,-243.5 253.405,-243.5 253.405,-224.5 107.405,-224.5"/>
<text text-anchor="middle" x="180.405" y="-231.5" font-family="Helvetica,sans-Serif" font-size="10.00">Interface/controllerinterface.hh</text>
</g>
<!-- Node1 -->
<g id="node2" class="node"><title>Node1</title>
<g id="a_node2"><a xlink:href="modelinterface_8hh.html" target="_top" xlink:title="Määrittelee modellin operaatioiden rajapintaluokan. ">
<polygon fill="white" stroke="black" points="358.905,-168.5 358.905,-187.5 451.905,-187.5 451.905,-168.5 358.905,-168.5"/>
<text text-anchor="middle" x="405.405" y="-175.5" font-family="Helvetica,sans-Serif" font-size="10.00">modelinterface.hh</text>
</a>
</g>
</g>
<!-- Node0&#45;&gt;Node1 -->
<g id="edge1" class="edge"><title>Node0&#45;&gt;Node1</title>
<path fill="none" stroke="midnightblue" d="M216.057,-224.444C255.061,-215.083 317.672,-200.056 360.122,-189.868"/>
<polygon fill="midnightblue" stroke="midnightblue" points="361.013,-193.254 369.92,-187.516 359.379,-186.447 361.013,-193.254"/>
</g>
<!-- Node9 -->
<g id="node10" class="node"><title>Node9</title>
<g id="a_node10"><a xlink:href="parkinghalllayoutinterface_8hh.html" target="_top" xlink:title="parkinghalllayoutinterface.hh">
<polygon fill="white" stroke="black" points="12.4053,-112.5 12.4053,-131.5 152.405,-131.5 152.405,-112.5 12.4053,-112.5"/>
<text text-anchor="middle" x="82.4053" y="-119.5" font-family="Helvetica,sans-Serif" font-size="10.00">parkinghalllayoutinterface.hh</text>
</a>
</g>
</g>
<!-- Node0&#45;&gt;Node9 -->
<g id="edge24" class="edge"><title>Node0&#45;&gt;Node9</title>
<path fill="none" stroke="midnightblue" d="M172.715,-224.368C156.399,-206.055 118.085,-163.049 96.9827,-139.362"/>
<polygon fill="midnightblue" stroke="midnightblue" points="99.3249,-136.73 90.0595,-131.591 94.0982,-141.386 99.3249,-136.73"/>
</g>
<!-- Node10 -->
<g id="node11" class="node"><title>Node10</title>
<polygon fill="white" stroke="#bfbfbf" points="9.90529,-56.5 9.90529,-75.5 56.9053,-75.5 56.9053,-56.5 9.90529,-56.5"/>
<text text-anchor="middle" x="33.4053" y="-63.5" font-family="Helvetica,sans-Serif" font-size="10.00">QPoint</text>
</g>
<!-- Node0&#45;&gt;Node10 -->
<g id="edge25" class="edge"><title>Node0&#45;&gt;Node10</title>
<path fill="none" stroke="midnightblue" d="M145.242,-224.402C102.958,-211.967 33.8766,-184.471 3.40529,-132 -5.89852,-115.979 5.80377,-96.5774 17.2039,-83.1639"/>
<polygon fill="midnightblue" stroke="midnightblue" points="19.8961,-85.4066 24.0725,-75.6697 14.7356,-80.6769 19.8961,-85.4066"/>
</g>
<!-- Node11 -->
<g id="node12" class="node"><title>Node11</title>
<g id="a_node12"><a xlink:href="viewinterface_8hh.html" target="_top" xlink:title="Määrittelee näkymän operaatioiden rajapintaluokan. ">
<polygon fill="white" stroke="black" points="194.905,-168.5 194.905,-187.5 279.905,-187.5 279.905,-168.5 194.905,-168.5"/>
<text text-anchor="middle" x="237.405" y="-175.5" font-family="Helvetica,sans-Serif" font-size="10.00">viewinterface.hh</text>
</a>
</g>
</g>
<!-- Node0&#45;&gt;Node11 -->
<g id="edge16" class="edge"><title>Node0&#45;&gt;Node11</title>
<path fill="none" stroke="midnightblue" d="M189.563,-224.324C197.907,-216.42 210.438,-204.548 220.582,-194.938"/>
<polygon fill="midnightblue" stroke="midnightblue" points="223.228,-197.252 228.081,-187.834 218.414,-192.171 223.228,-197.252"/>
</g>
<!-- Node2 -->
<g id="node3" class="node"><title>Node2</title>
<polygon fill="white" stroke="#bfbfbf" points="148.405,-56.5 148.405,-75.5 190.405,-75.5 190.405,-56.5 148.405,-56.5"/>
<text text-anchor="middle" x="169.405" y="-63.5" font-family="Helvetica,sans-Serif" font-size="10.00">vector</text>
</g>
<!-- Node1&#45;&gt;Node2 -->
<g id="edge2" class="edge"><title>Node1&#45;&gt;Node2</title>
<path fill="none" stroke="midnightblue" d="M402.697,-168.301C397.83,-154.172 386.22,-126.371 366.405,-112 316.506,-75.8101 242.302,-68.0996 200.662,-66.8231"/>
<polygon fill="midnightblue" stroke="midnightblue" points="200.634,-63.3219 190.566,-66.6214 200.494,-70.3205 200.634,-63.3219"/>
</g>
<!-- Node3 -->
<g id="node4" class="node"><title>Node3</title>
<polygon fill="white" stroke="#bfbfbf" points="525.405,-56.5 525.405,-75.5 577.405,-75.5 577.405,-56.5 525.405,-56.5"/>
<text text-anchor="middle" x="551.405" y="-63.5" font-family="Helvetica,sans-Serif" font-size="10.00">memory</text>
</g>
<!-- Node1&#45;&gt;Node3 -->
<g id="edge3" class="edge"><title>Node1&#45;&gt;Node3</title>
<path fill="none" stroke="midnightblue" d="M452.114,-176.308C485.662,-173.053 528.8,-162.622 551.405,-132 561.136,-118.819 559.829,-99.6815 556.875,-85.5839"/>
<polygon fill="midnightblue" stroke="midnightblue" points="560.185,-84.3994 554.332,-75.5684 553.401,-86.1223 560.185,-84.3994"/>
</g>
<!-- Node4 -->
<g id="node5" class="node"><title>Node4</title>
<polygon fill="white" stroke="#bfbfbf" points="322.905,-112.5 322.905,-131.5 357.905,-131.5 357.905,-112.5 322.905,-112.5"/>
<text text-anchor="middle" x="340.405" y="-119.5" font-family="Helvetica,sans-Serif" font-size="10.00">map</text>
</g>
<!-- Node1&#45;&gt;Node4 -->
<g id="edge4" class="edge"><title>Node1&#45;&gt;Node4</title>
<path fill="none" stroke="midnightblue" d="M394.962,-168.324C385.259,-160.263 370.59,-148.077 358.906,-138.369"/>
<polygon fill="midnightblue" stroke="midnightblue" points="360.967,-135.532 351.039,-131.834 356.494,-140.916 360.967,-135.532"/>
</g>
<!-- Node5 -->
<g id="node6" class="node"><title>Node5</title>
<g id="a_node6"><a xlink:href="parkinghallinterface_8hh.html" target="_top" xlink:title="parkinghallinterface.hh">
<polygon fill="white" stroke="black" points="598.905,-112.5 598.905,-131.5 711.905,-131.5 711.905,-112.5 598.905,-112.5"/>
<text text-anchor="middle" x="655.405" y="-119.5" font-family="Helvetica,sans-Serif" font-size="10.00">parkinghallinterface.hh</text>
</a>
</g>
</g>
<!-- Node1&#45;&gt;Node5 -->
<g id="edge5" class="edge"><title>Node1&#45;&gt;Node5</title>
<path fill="none" stroke="midnightblue" d="M445.019,-168.444C488.63,-159.023 558.805,-143.866 605.983,-133.675"/>
<polygon fill="midnightblue" stroke="midnightblue" points="606.942,-137.049 615.977,-131.516 605.464,-130.207 606.942,-137.049"/>
</g>
<!-- Node7 -->
<g id="node8" class="node"><title>Node7</title>
<g id="a_node8"><a xlink:href="actorinterface_8hh.html" target="_top" xlink:title="Määrittelee yhden toimijan operaatioiden rajapintaluokan. ">
<polygon fill="white" stroke="black" points="452.905,-112.5 452.905,-131.5 541.905,-131.5 541.905,-112.5 452.905,-112.5"/>
<text text-anchor="middle" x="497.405" y="-119.5" font-family="Helvetica,sans-Serif" font-size="10.00">actorinterface.hh</text>
</a>
</g>
</g>
<!-- Node1&#45;&gt;Node7 -->
<g id="edge7" class="edge"><title>Node1&#45;&gt;Node7</title>
<path fill="none" stroke="midnightblue" d="M420.187,-168.324C434.672,-159.822 456.978,-146.729 473.898,-136.797"/>
<polygon fill="midnightblue" stroke="midnightblue" points="475.808,-139.735 482.661,-131.655 472.265,-133.698 475.808,-139.735"/>
</g>
<!-- Node8 -->
<g id="node9" class="node"><title>Node8</title>
<g id="a_node9"><a xlink:href="equipmentinterface_8hh.html" target="_top" xlink:title="Määrittelee yhden tavaran (Equipment) operaatioiden rajapintaluokan. ">
<polygon fill="white" stroke="black" points="317.405,-56.5 317.405,-75.5 469.405,-75.5 469.405,-56.5 317.405,-56.5"/>
<text text-anchor="middle" x="393.405" y="-63.5" font-family="Helvetica,sans-Serif" font-size="10.00">Interface/equipmentinterface.hh</text>
</a>
</g>
</g>
<!-- Node1&#45;&gt;Node8 -->
<g id="edge12" class="edge"><title>Node1&#45;&gt;Node8</title>
<path fill="none" stroke="midnightblue" d="M404.942,-168.148C404.238,-155.62 402.728,-132.012 400.405,-112 399.39,-103.253 397.933,-93.5994 396.611,-85.4838"/>
<polygon fill="midnightblue" stroke="midnightblue" points="400.059,-84.8794 394.946,-75.5998 393.156,-86.0423 400.059,-84.8794"/>
</g>
<!-- Node1&#45;&gt;Node9 -->
<g id="edge13" class="edge"><title>Node1&#45;&gt;Node9</title>
<path fill="none" stroke="midnightblue" d="M358.783,-169.206C302.02,-159.716 206,-143.663 143.406,-133.198"/>
<polygon fill="midnightblue" stroke="midnightblue" points="143.716,-129.702 133.276,-131.505 142.562,-136.606 143.716,-129.702"/>
</g>
<!-- Node6 -->
<g id="node7" class="node"><title>Node6</title>
<polygon fill="white" stroke="#bfbfbf" points="420.405,-0.5 420.405,-19.5 470.405,-19.5 470.405,-0.5 420.405,-0.5"/>
<text text-anchor="middle" x="445.405" y="-7.5" font-family="Helvetica,sans-Serif" font-size="10.00">QString</text>
</g>
<!-- Node5&#45;&gt;Node6 -->
<g id="edge6" class="edge"><title>Node5&#45;&gt;Node6</title>
<path fill="none" stroke="midnightblue" d="M648.293,-112.114C636.728,-98.223 612.498,-71.3669 586.405,-56 553.032,-36.3455 510.078,-24.2355 480.395,-17.5994"/>
<polygon fill="midnightblue" stroke="midnightblue" points="480.998,-14.1492 470.486,-15.477 479.532,-20.994 480.998,-14.1492"/>
</g>
<!-- Node7&#45;&gt;Node3 -->
<g id="edge9" class="edge"><title>Node7&#45;&gt;Node3</title>
<path fill="none" stroke="midnightblue" d="M506.322,-112.083C514.186,-104.22 525.836,-92.5688 535.324,-83.0813"/>
<polygon fill="midnightblue" stroke="midnightblue" points="538.058,-85.2971 542.654,-75.7511 533.108,-80.3473 538.058,-85.2971"/>
</g>
<!-- Node7&#45;&gt;Node6 -->
<g id="edge8" class="edge"><title>Node7&#45;&gt;Node6</title>
<path fill="none" stroke="midnightblue" d="M495.853,-112.233C493.361,-99.4021 487.773,-74.9762 478.405,-56 473.429,-45.9202 466.185,-35.7332 459.75,-27.6069"/>
<polygon fill="midnightblue" stroke="midnightblue" points="462.294,-25.1898 453.232,-19.7004 456.893,-29.6427 462.294,-25.1898"/>
</g>
<!-- Node7&#45;&gt;Node8 -->
<g id="edge10" class="edge"><title>Node7&#45;&gt;Node8</title>
<path fill="none" stroke="midnightblue" d="M480.696,-112.324C464.093,-103.703 438.403,-90.3643 419.185,-80.3855"/>
<polygon fill="midnightblue" stroke="midnightblue" points="420.561,-77.1565 410.073,-75.6545 417.335,-83.3689 420.561,-77.1565"/>
</g>
<!-- Node8&#45;&gt;Node6 -->
<g id="edge11" class="edge"><title>Node8&#45;&gt;Node6</title>
<path fill="none" stroke="midnightblue" d="M401.992,-56.083C409.564,-48.2195 420.783,-36.5688 429.92,-27.0813"/>
<polygon fill="midnightblue" stroke="midnightblue" points="432.563,-29.3821 436.978,-19.7511 427.521,-24.5266 432.563,-29.3821"/>
</g>
<!-- Node9&#45;&gt;Node2 -->
<g id="edge14" class="edge"><title>Node9&#45;&gt;Node2</title>
<path fill="none" stroke="midnightblue" d="M96.3833,-112.324C109.955,-103.9 130.785,-90.9709 146.73,-81.0741"/>
<polygon fill="midnightblue" stroke="midnightblue" points="148.811,-83.9019 155.462,-75.6545 145.12,-77.9544 148.811,-83.9019"/>
</g>
<!-- Node9&#45;&gt;Node10 -->
<g id="edge15" class="edge"><title>Node9&#45;&gt;Node10</title>
<path fill="none" stroke="midnightblue" d="M74.3139,-112.083C67.2499,-104.298 56.8177,-92.8015 48.2564,-83.3665"/>
<polygon fill="midnightblue" stroke="midnightblue" points="50.658,-80.8047 41.3461,-75.7511 45.474,-85.5087 50.658,-80.8047"/>
</g>
<!-- Node11&#45;&gt;Node2 -->
<g id="edge20" class="edge"><title>Node11&#45;&gt;Node2</title>
<path fill="none" stroke="midnightblue" d="M230.456,-168.291C223.504,-159.407 212.683,-145.106 204.405,-132 194.588,-116.457 184.784,-97.9254 178.061,-84.634"/>
<polygon fill="midnightblue" stroke="midnightblue" points="181.165,-83.0154 173.57,-75.6276 174.9,-86.1387 181.165,-83.0154"/>
</g>
<!-- Node11&#45;&gt;Node3 -->
<g id="edge21" class="edge"><title>Node11&#45;&gt;Node3</title>
<path fill="none" stroke="midnightblue" d="M244.814,-168.21C257.362,-153.95 284.288,-125.965 313.405,-112 348.564,-95.1372 457.688,-79.0899 515.158,-71.5264"/>
<polygon fill="midnightblue" stroke="midnightblue" points="515.793,-74.9735 525.259,-70.2146 514.891,-68.0318 515.793,-74.9735"/>
</g>
<!-- Node11&#45;&gt;Node4 -->
<g id="edge22" class="edge"><title>Node11&#45;&gt;Node4</title>
<path fill="none" stroke="midnightblue" d="M253.954,-168.324C270.397,-159.703 295.84,-146.364 314.874,-136.386"/>
<polygon fill="midnightblue" stroke="midnightblue" points="316.666,-139.398 323.898,-131.655 313.416,-133.198 316.666,-139.398"/>
</g>
<!-- Node11&#45;&gt;Node6 -->
<g id="edge23" class="edge"><title>Node11&#45;&gt;Node6</title>
<path fill="none" stroke="midnightblue" d="M239.241,-168.128C242.174,-155.168 248.702,-130.582 259.405,-112 275.912,-83.3426 280.827,-74.2529 308.405,-56 339.642,-35.3259 381.165,-23.4463 410.279,-17.1434"/>
<polygon fill="midnightblue" stroke="midnightblue" points="411.309,-20.5051 420.402,-15.0676 409.903,-13.6478 411.309,-20.5051"/>
</g>
<!-- Node11&#45;&gt;Node7 -->
<g id="edge17" class="edge"><title>Node11&#45;&gt;Node7</title>
<path fill="none" stroke="midnightblue" d="M278.603,-168.444C324.054,-159.004 397.247,-143.802 446.315,-133.611"/>
<polygon fill="midnightblue" stroke="midnightblue" points="447.321,-136.977 456.4,-131.516 445.897,-130.123 447.321,-136.977"/>
</g>
<!-- Node11&#45;&gt;Node8 -->
<g id="edge18" class="edge"><title>Node11&#45;&gt;Node8</title>
<path fill="none" stroke="midnightblue" d="M241.112,-168.194C247.326,-154.414 261.089,-127.706 280.405,-112 299.657,-96.3466 325.043,-85.5824 346.875,-78.517"/>
<polygon fill="midnightblue" stroke="midnightblue" points="348.088,-81.806 356.622,-75.5267 346.035,-75.1138 348.088,-81.806"/>
</g>
<!-- Node11&#45;&gt;Node9 -->
<g id="edge19" class="edge"><title>Node11&#45;&gt;Node9</title>
<path fill="none" stroke="midnightblue" d="M212.845,-168.444C186.883,-159.399 145.737,-145.064 116.608,-134.916"/>
<polygon fill="midnightblue" stroke="midnightblue" points="117.445,-131.501 106.851,-131.516 115.142,-138.112 117.445,-131.501"/>
</g>
</g>
</svg>
