<?xml version="1.0" encoding="UTF-8" standalone="no"?>
<!DOCTYPE svg PUBLIC "-//W3C//DTD SVG 1.1//EN"
 "http://www.w3.org/Graphics/SVG/1.1/DTD/svg11.dtd">
<!-- Generated by graphviz version 2.38.0 (20140413.2041)
 -->
<!-- Title: Controller/controller.hh Pages: 1 -->
<svg width="725pt" height="308pt"
 viewBox="0.00 0.00 725.19 308.00" xmlns="http://www.w3.org/2000/svg" xmlns:xlink="http://www.w3.org/1999/xlink">
<g id="graph0" class="graph" transform="scale(1 1) rotate(0) translate(4 304)">
<title>Controller/controller.hh</title>
<polygon fill="white" stroke="none" points="-4,4 -4,-304 721.188,-304 721.188,4 -4,4"/>
<!-- Node0 -->
<g id="node1" class="node"><title>Node0</title>
<polygon fill="#bfbfbf" stroke="black" points="0,-280.5 0,-299.5 114,-299.5 114,-280.5 0,-280.5"/>
<text text-anchor="middle" x="57" y="-287.5" font-family="Helvetica,sans-Serif" font-size="10.00">Controller/controller.hh</text>
</g>
<!-- Node1 -->
<g id="node2" class="node"><title>Node1</title>
<g id="a_node2"><a xlink:href="controllerinterface_8hh.html" target="_top" xlink:title="Interface/controllerinterface.hh">
<polygon fill="white" stroke="black" points="52,-224.5 52,-243.5 198,-243.5 198,-224.5 52,-224.5"/>
<text text-anchor="middle" x="125" y="-231.5" font-family="Helvetica,sans-Serif" font-size="10.00">Interface/controllerinterface.hh</text>
</a>
</g>
</g>
<!-- Node0&#45;&gt;Node1 -->
<g id="edge1" class="edge"><title>Node0&#45;&gt;Node1</title>
<path fill="none" stroke="midnightblue" d="M67.9254,-280.324C78.1746,-272.185 93.7206,-259.839 106.001,-250.087"/>
<polygon fill="midnightblue" stroke="midnightblue" points="108.221,-252.794 113.876,-243.834 103.868,-247.312 108.221,-252.794"/>
</g>
<!-- Node11 -->
<g id="node12" class="node"><title>Node11</title>
<polygon fill="white" stroke="#bfbfbf" points="3.5,-56.5 3.5,-75.5 50.5,-75.5 50.5,-56.5 3.5,-56.5"/>
<text text-anchor="middle" x="27" y="-63.5" font-family="Helvetica,sans-Serif" font-size="10.00">QPoint</text>
</g>
<!-- Node0&#45;&gt;Node11 -->
<g id="edge27" class="edge"><title>Node0&#45;&gt;Node11</title>
<path fill="none" stroke="midnightblue" d="M53.6452,-280.179C50.3797,-271.209 45.548,-256.841 43,-244 31.7147,-187.127 28.376,-118.373 27.3984,-85.8282"/>
<polygon fill="midnightblue" stroke="midnightblue" points="30.8905,-85.472 27.1348,-75.5652 23.8929,-85.6518 30.8905,-85.472"/>
</g>
<!-- Node2 -->
<g id="node3" class="node"><title>Node2</title>
<g id="a_node3"><a xlink:href="modelinterface_8hh.html" target="_top" xlink:title="Määrittelee modellin operaatioiden rajapintaluokan. ">
<polygon fill="white" stroke="black" points="327.5,-168.5 327.5,-187.5 420.5,-187.5 420.5,-168.5 327.5,-168.5"/>
<text text-anchor="middle" x="374" y="-175.5" font-family="Helvetica,sans-Serif" font-size="10.00">modelinterface.hh</text>
</a>
</g>
</g>
<!-- Node1&#45;&gt;Node2 -->
<g id="edge2" class="edge"><title>Node1&#45;&gt;Node2</title>
<path fill="none" stroke="midnightblue" d="M164.455,-224.444C207.892,-215.023 277.786,-199.866 324.776,-189.675"/>
<polygon fill="midnightblue" stroke="midnightblue" points="325.699,-193.056 334.73,-187.516 324.215,-186.215 325.699,-193.056"/>
</g>
<!-- Node10 -->
<g id="node11" class="node"><title>Node10</title>
<g id="a_node11"><a xlink:href="parkinghalllayoutinterface_8hh.html" target="_top" xlink:title="parkinghalllayoutinterface.hh">
<polygon fill="white" stroke="black" points="55,-112.5 55,-131.5 195,-131.5 195,-112.5 55,-112.5"/>
<text text-anchor="middle" x="125" y="-119.5" font-family="Helvetica,sans-Serif" font-size="10.00">parkinghalllayoutinterface.hh</text>
</a>
</g>
</g>
<!-- Node1&#45;&gt;Node10 -->
<g id="edge25" class="edge"><title>Node1&#45;&gt;Node10</title>
<path fill="none" stroke="midnightblue" d="M125,-224.368C125,-206.617 125,-165.666 125,-141.597"/>
<polygon fill="midnightblue" stroke="midnightblue" points="128.5,-141.591 125,-131.591 121.5,-141.591 128.5,-141.591"/>
</g>
<!-- Node1&#45;&gt;Node11 -->
<g id="edge26" class="edge"><title>Node1&#45;&gt;Node11</title>
<path fill="none" stroke="midnightblue" d="M116.315,-224.349C100.194,-207.827 65.5127,-170.028 46,-132 38.4522,-117.29 33.4635,-99.1274 30.4998,-85.7439"/>
<polygon fill="midnightblue" stroke="midnightblue" points="33.9012,-84.9063 28.475,-75.8065 27.0421,-86.304 33.9012,-84.9063"/>
</g>
<!-- Node12 -->
<g id="node13" class="node"><title>Node12</title>
<g id="a_node13"><a xlink:href="viewinterface_8hh.html" target="_top" xlink:title="Määrittelee näkymän operaatioiden rajapintaluokan. ">
<polygon fill="white" stroke="black" points="499.5,-168.5 499.5,-187.5 584.5,-187.5 584.5,-168.5 499.5,-168.5"/>
<text text-anchor="middle" x="542" y="-175.5" font-family="Helvetica,sans-Serif" font-size="10.00">viewinterface.hh</text>
</a>
</g>
</g>
<!-- Node1&#45;&gt;Node12 -->
<g id="edge17" class="edge"><title>Node1&#45;&gt;Node12</title>
<path fill="none" stroke="midnightblue" d="M191.075,-224.444C273.655,-213.75 413.334,-195.662 489.176,-185.84"/>
<polygon fill="midnightblue" stroke="midnightblue" points="489.974,-189.266 499.442,-184.511 489.075,-182.324 489.974,-189.266"/>
</g>
<!-- Node3 -->
<g id="node4" class="node"><title>Node3</title>
<polygon fill="white" stroke="#bfbfbf" points="334,-56.5 334,-75.5 376,-75.5 376,-56.5 334,-56.5"/>
<text text-anchor="middle" x="355" y="-63.5" font-family="Helvetica,sans-Serif" font-size="10.00">vector</text>
</g>
<!-- Node2&#45;&gt;Node3 -->
<g id="edge3" class="edge"><title>Node2&#45;&gt;Node3</title>
<path fill="none" stroke="midnightblue" d="M372.509,-168.368C369.443,-150.617 362.37,-109.666 358.212,-85.5974"/>
<polygon fill="midnightblue" stroke="midnightblue" points="361.635,-84.8498 356.484,-75.5914 354.737,-86.0413 361.635,-84.8498"/>
</g>
<!-- Node4 -->
<g id="node5" class="node"><title>Node4</title>
<polygon fill="white" stroke="#bfbfbf" points="457,-56.5 457,-75.5 509,-75.5 509,-56.5 457,-56.5"/>
<text text-anchor="middle" x="483" y="-63.5" font-family="Helvetica,sans-Serif" font-size="10.00">memory</text>
</g>
<!-- Node2&#45;&gt;Node4 -->
<g id="edge4" class="edge"><title>Node2&#45;&gt;Node4</title>
<path fill="none" stroke="midnightblue" d="M378.367,-168.242C385.27,-154.99 399.709,-129.534 417,-112 428.989,-99.8426 444.711,-88.9708 457.803,-80.9599"/>
<polygon fill="midnightblue" stroke="midnightblue" points="459.952,-83.7556 466.78,-75.6549 456.391,-77.7293 459.952,-83.7556"/>
</g>
<!-- Node5 -->
<g id="node6" class="node"><title>Node5</title>
<polygon fill="white" stroke="#bfbfbf" points="459.5,-112.5 459.5,-131.5 494.5,-131.5 494.5,-112.5 459.5,-112.5"/>
<text text-anchor="middle" x="477" y="-119.5" font-family="Helvetica,sans-Serif" font-size="10.00">map</text>
</g>
<!-- Node2&#45;&gt;Node5 -->
<g id="edge5" class="edge"><title>Node2&#45;&gt;Node5</title>
<path fill="none" stroke="midnightblue" d="M390.549,-168.324C406.992,-159.703 432.435,-146.364 451.468,-136.386"/>
<polygon fill="midnightblue" stroke="midnightblue" points="453.261,-139.398 460.492,-131.655 450.011,-133.198 453.261,-139.398"/>
</g>
<!-- Node6 -->
<g id="node7" class="node"><title>Node6</title>
<g id="a_node7"><a xlink:href="parkinghallinterface_8hh.html" target="_top" xlink:title="parkinghallinterface.hh">
<polygon fill="white" stroke="black" points="213.5,-112.5 213.5,-131.5 326.5,-131.5 326.5,-112.5 213.5,-112.5"/>
<text text-anchor="middle" x="270" y="-119.5" font-family="Helvetica,sans-Serif" font-size="10.00">parkinghallinterface.hh</text>
</a>
</g>
</g>
<!-- Node2&#45;&gt;Node6 -->
<g id="edge6" class="edge"><title>Node2&#45;&gt;Node6</title>
<path fill="none" stroke="midnightblue" d="M357.291,-168.324C340.688,-159.703 314.998,-146.364 295.78,-136.386"/>
<polygon fill="midnightblue" stroke="midnightblue" points="297.156,-133.156 286.668,-131.655 293.93,-139.369 297.156,-133.156"/>
</g>
<!-- Node8 -->
<g id="node9" class="node"><title>Node8</title>
<g id="a_node9"><a xlink:href="actorinterface_8hh.html" target="_top" xlink:title="Määrittelee yhden toimijan operaatioiden rajapintaluokan. ">
<polygon fill="white" stroke="black" points="589.5,-112.5 589.5,-131.5 678.5,-131.5 678.5,-112.5 589.5,-112.5"/>
<text text-anchor="middle" x="634" y="-119.5" font-family="Helvetica,sans-Serif" font-size="10.00">actorinterface.hh</text>
</a>
</g>
</g>
<!-- Node2&#45;&gt;Node8 -->
<g id="edge8" class="edge"><title>Node2&#45;&gt;Node8</title>
<path fill="none" stroke="midnightblue" d="M415.198,-168.444C460.649,-159.004 533.842,-143.802 582.909,-133.611"/>
<polygon fill="midnightblue" stroke="midnightblue" points="583.916,-136.977 592.995,-131.516 582.492,-130.123 583.916,-136.977"/>
</g>
<!-- Node9 -->
<g id="node10" class="node"><title>Node9</title>
<g id="a_node10"><a xlink:href="equipmentinterface_8hh.html" target="_top" xlink:title="Määrittelee yhden tavaran (Equipment) operaatioiden rajapintaluokan. ">
<polygon fill="white" stroke="black" points="527,-56.5 527,-75.5 679,-75.5 679,-56.5 527,-56.5"/>
<text text-anchor="middle" x="603" y="-63.5" font-family="Helvetica,sans-Serif" font-size="10.00">Interface/equipmentinterface.hh</text>
</a>
</g>
</g>
<!-- Node2&#45;&gt;Node9 -->
<g id="edge13" class="edge"><title>Node2&#45;&gt;Node9</title>
<path fill="none" stroke="midnightblue" d="M381.989,-168.081C394.941,-154.144 421.916,-127.226 450,-112 479.741,-95.8759 515.947,-84.8922 545.67,-77.8152"/>
<polygon fill="midnightblue" stroke="midnightblue" points="546.52,-81.2114 555.483,-75.5632 544.954,-74.3887 546.52,-81.2114"/>
</g>
<!-- Node2&#45;&gt;Node10 -->
<g id="edge14" class="edge"><title>Node2&#45;&gt;Node10</title>
<path fill="none" stroke="midnightblue" d="M334.545,-168.444C291.108,-159.023 221.214,-143.866 174.224,-133.675"/>
<polygon fill="midnightblue" stroke="midnightblue" points="174.785,-130.215 164.27,-131.516 173.301,-137.056 174.785,-130.215"/>
</g>
<!-- Node7 -->
<g id="node8" class="node"><title>Node7</title>
<polygon fill="white" stroke="#bfbfbf" points="630,-0.5 630,-19.5 680,-19.5 680,-0.5 630,-0.5"/>
<text text-anchor="middle" x="655" y="-7.5" font-family="Helvetica,sans-Serif" font-size="10.00">QString</text>
</g>
<!-- Node6&#45;&gt;Node7 -->
<g id="edge7" class="edge"><title>Node6&#45;&gt;Node7</title>
<path fill="none" stroke="midnightblue" d="M274.682,-112.046C282.785,-97.5488 300.897,-69.231 325,-56 375.123,-28.4853 544.757,-16.626 619.33,-12.6547"/>
<polygon fill="midnightblue" stroke="midnightblue" points="619.81,-16.1347 629.617,-12.1251 619.45,-9.14395 619.81,-16.1347"/>
</g>
<!-- Node8&#45;&gt;Node4 -->
<g id="edge10" class="edge"><title>Node8&#45;&gt;Node4</title>
<path fill="none" stroke="midnightblue" d="M610.074,-112.444C584.781,-103.399 544.698,-89.064 516.32,-78.9158"/>
<polygon fill="midnightblue" stroke="midnightblue" points="517.409,-75.5882 506.814,-75.5164 515.052,-82.1794 517.409,-75.5882"/>
</g>
<!-- Node8&#45;&gt;Node7 -->
<g id="edge9" class="edge"><title>Node8&#45;&gt;Node7</title>
<path fill="none" stroke="midnightblue" d="M650.633,-112.464C663.488,-104.841 680.339,-92.356 688,-76 695.913,-59.1059 683.772,-40.1163 672.048,-27.0458"/>
<polygon fill="midnightblue" stroke="midnightblue" points="674.453,-24.4982 664.985,-19.744 669.422,-29.3651 674.453,-24.4982"/>
</g>
<!-- Node8&#45;&gt;Node9 -->
<g id="edge11" class="edge"><title>Node8&#45;&gt;Node9</title>
<path fill="none" stroke="midnightblue" d="M628.881,-112.083C624.592,-104.613 618.342,-93.7244 613.058,-84.5199"/>
<polygon fill="midnightblue" stroke="midnightblue" points="616.038,-82.6811 608.024,-75.7511 609.967,-86.1662 616.038,-82.6811"/>
</g>
<!-- Node9&#45;&gt;Node7 -->
<g id="edge12" class="edge"><title>Node9&#45;&gt;Node7</title>
<path fill="none" stroke="midnightblue" d="M611.587,-56.083C619.159,-48.2195 630.378,-36.5688 639.514,-27.0813"/>
<polygon fill="midnightblue" stroke="midnightblue" points="642.158,-29.3821 646.573,-19.7511 637.115,-24.5266 642.158,-29.3821"/>
</g>
<!-- Node10&#45;&gt;Node3 -->
<g id="edge15" class="edge"><title>Node10&#45;&gt;Node3</title>
<path fill="none" stroke="midnightblue" d="M161.444,-112.444C206.284,-101.916 281.647,-84.222 323.89,-74.3042"/>
<polygon fill="midnightblue" stroke="midnightblue" points="324.942,-77.6524 333.877,-71.9593 323.342,-70.8377 324.942,-77.6524"/>
</g>
<!-- Node10&#45;&gt;Node11 -->
<g id="edge16" class="edge"><title>Node10&#45;&gt;Node11</title>
<path fill="none" stroke="midnightblue" d="M109.255,-112.324C93.6813,-103.743 69.6227,-90.486 51.5407,-80.5224"/>
<polygon fill="midnightblue" stroke="midnightblue" points="53.1539,-77.4152 42.7063,-75.6545 49.7756,-83.546 53.1539,-77.4152"/>
</g>
<!-- Node12&#45;&gt;Node3 -->
<g id="edge21" class="edge"><title>Node12&#45;&gt;Node3</title>
<path fill="none" stroke="midnightblue" d="M539.175,-168.456C534.14,-154.55 522.296,-127.061 503,-112 468.669,-85.2024 418.443,-74.298 386.237,-69.9045"/>
<polygon fill="midnightblue" stroke="midnightblue" points="386.408,-66.3991 376.055,-68.6505 385.552,-73.3466 386.408,-66.3991"/>
</g>
<!-- Node12&#45;&gt;Node4 -->
<g id="edge22" class="edge"><title>Node12&#45;&gt;Node4</title>
<path fill="none" stroke="midnightblue" d="M543.356,-168.435C544.988,-155.436 546.447,-130.305 537,-112 530.42,-99.25 518.494,-88.7197 507.521,-81.0596"/>
<polygon fill="midnightblue" stroke="midnightblue" points="509.335,-78.0646 499.045,-75.544 505.518,-83.9318 509.335,-78.0646"/>
</g>
<!-- Node12&#45;&gt;Node5 -->
<g id="edge23" class="edge"><title>Node12&#45;&gt;Node5</title>
<path fill="none" stroke="midnightblue" d="M531.557,-168.324C521.854,-160.263 507.185,-148.077 495.5,-138.369"/>
<polygon fill="midnightblue" stroke="midnightblue" points="497.562,-135.532 487.633,-131.834 493.089,-140.916 497.562,-135.532"/>
</g>
<!-- Node12&#45;&gt;Node7 -->
<g id="edge24" class="edge"><title>Node12&#45;&gt;Node7</title>
<path fill="none" stroke="midnightblue" d="M584.511,-171.061C627.485,-164.084 689.56,-150.998 704,-132 724.44,-105.109 717.587,-86.9247 704,-56 698.61,-43.732 688.042,-33.3414 678.096,-25.6461"/>
<polygon fill="midnightblue" stroke="midnightblue" points="679.828,-22.5811 669.661,-19.598 675.748,-28.2697 679.828,-22.5811"/>
</g>
<!-- Node12&#45;&gt;Node8 -->
<g id="edge18" class="edge"><title>Node12&#45;&gt;Node8</title>
<path fill="none" stroke="midnightblue" d="M556.781,-168.324C571.267,-159.822 593.573,-146.729 610.493,-136.797"/>
<polygon fill="midnightblue" stroke="midnightblue" points="612.403,-139.735 619.255,-131.655 608.859,-133.698 612.403,-139.735"/>
</g>
<!-- Node12&#45;&gt;Node9 -->
<g id="edge19" class="edge"><title>Node12&#45;&gt;Node9</title>
<path fill="none" stroke="midnightblue" d="M584.61,-176.559C618.407,-173.676 663.706,-163.619 687,-132 703.705,-109.325 670.577,-90.5699 641.132,-79.1283"/>
<polygon fill="midnightblue" stroke="midnightblue" points="641.958,-75.703 631.365,-75.5334 639.54,-82.2721 641.958,-75.703"/>
</g>
<!-- Node12&#45;&gt;Node10 -->
<g id="edge20" class="edge"><title>Node12&#45;&gt;Node10</title>
<path fill="none" stroke="midnightblue" d="M499.333,-171.475C429.149,-162.386 288.415,-144.162 200.917,-132.831"/>
<polygon fill="midnightblue" stroke="midnightblue" points="201.149,-129.332 190.782,-131.519 200.25,-136.274 201.149,-129.332"/>
</g>
</g>
</svg>
