<?xml version="1.0" encoding="UTF-8" standalone="no"?>
<!DOCTYPE svg PUBLIC "-//W3C//DTD SVG 1.1//EN"
 "http://www.w3.org/Graphics/SVG/1.1/DTD/svg11.dtd">
<!-- Generated by graphviz version 2.38.0 (20140413.2041)
 -->
<!-- Title: Model/cyberteekkari.hh Pages: 1 -->
<svg width="351pt" height="252pt"
 viewBox="0.00 0.00 351.13 252.00" xmlns="http://www.w3.org/2000/svg" xmlns:xlink="http://www.w3.org/1999/xlink">
<g id="graph0" class="graph" transform="scale(1 1) rotate(0) translate(4 248)">
<title>Model/cyberteekkari.hh</title>
<polygon fill="white" stroke="none" points="-4,4 -4,-248 347.129,-248 347.129,4 -4,4"/>
<!-- Node6 -->
<g id="node1" class="node"><title>Node6</title>
<polygon fill="#bfbfbf" stroke="black" points="102.129,-224.5 102.129,-243.5 220.129,-243.5 220.129,-224.5 102.129,-224.5"/>
<text text-anchor="middle" x="161.129" y="-231.5" font-family="Helvetica,sans-Serif" font-size="10.00">Model/cyberteekkari.hh</text>
</g>
<!-- Node7 -->
<g id="node2" class="node"><title>Node7</title>
<g id="a_node2"><a xlink:href="player_8hh.html" target="_top" xlink:title="Model/player.hh">
<polygon fill="white" stroke="black" points="83.1289,-168.5 83.1289,-187.5 169.129,-187.5 169.129,-168.5 83.1289,-168.5"/>
<text text-anchor="middle" x="126.129" y="-175.5" font-family="Helvetica,sans-Serif" font-size="10.00">Model/player.hh</text>
</a>
</g>
</g>
<!-- Node6&#45;&gt;Node7 -->
<g id="edge1" class="edge"><title>Node6&#45;&gt;Node7</title>
<path fill="none" stroke="midnightblue" d="M149.829,-215.566C143.807,-206.275 136.66,-195.248 131.801,-187.751"/>
<polygon fill="midnightblue" stroke="midnightblue" points="146.973,-217.595 155.349,-224.083 152.847,-213.788 146.973,-217.595"/>
</g>
<!-- Node8 -->
<g id="node3" class="node"><title>Node8</title>
<g id="a_node3"><a xlink:href="model_8hh.html" target="_top" xlink:title="Model/model.hh">
<polygon fill="white" stroke="black" points="66.1289,-56.5 66.1289,-75.5 152.129,-75.5 152.129,-56.5 66.1289,-56.5"/>
<text text-anchor="middle" x="109.129" y="-63.5" font-family="Helvetica,sans-Serif" font-size="10.00">Model/model.hh</text>
</a>
</g>
</g>
<!-- Node6&#45;&gt;Node8 -->
<g id="edge9" class="edge"><title>Node6&#45;&gt;Node8</title>
<path fill="none" stroke="midnightblue" d="M121.688,-221.168C82.8253,-207.065 26.0443,-179.26 3.12891,-132 -11.4697,-101.892 30.4685,-84.4148 65.8327,-75.3102"/>
<polygon fill="midnightblue" stroke="midnightblue" points="120.556,-224.479 131.151,-224.461 122.857,-217.868 120.556,-224.479"/>
</g>
<!-- Node11 -->
<g id="node6" class="node"><title>Node11</title>
<g id="a_node6"><a xlink:href="playerparty_8hh.html" target="_top" xlink:title="Model/playerparty.hh">
<polygon fill="white" stroke="black" points="154.629,-112.5 154.629,-131.5 261.629,-131.5 261.629,-112.5 154.629,-112.5"/>
<text text-anchor="middle" x="208.129" y="-119.5" font-family="Helvetica,sans-Serif" font-size="10.00">Model/playerparty.hh</text>
</a>
</g>
</g>
<!-- Node6&#45;&gt;Node11 -->
<g id="edge10" class="edge"><title>Node6&#45;&gt;Node11</title>
<path fill="none" stroke="midnightblue" d="M168.821,-214.998C179.076,-190.997 196.82,-149.468 204.458,-131.591"/>
<polygon fill="midnightblue" stroke="midnightblue" points="165.528,-213.798 164.817,-224.368 171.965,-216.548 165.528,-213.798"/>
</g>
<!-- Node14 -->
<g id="node9" class="node"><title>Node14</title>
<g id="a_node9"><a xlink:href="cyberteekkari_8cc.html" target="_top" xlink:title="Model/cyberteekkari.cc">
<polygon fill="white" stroke="black" points="225.129,-168.5 225.129,-187.5 343.129,-187.5 343.129,-168.5 225.129,-168.5"/>
<text text-anchor="middle" x="284.129" y="-175.5" font-family="Helvetica,sans-Serif" font-size="10.00">Model/cyberteekkari.cc</text>
</a>
</g>
</g>
<!-- Node6&#45;&gt;Node14 -->
<g id="edge11" class="edge"><title>Node6&#45;&gt;Node14</title>
<path fill="none" stroke="midnightblue" d="M189.902,-220.368C212.936,-210.255 244.613,-196.349 264.73,-187.516"/>
<polygon fill="midnightblue" stroke="midnightblue" points="188.368,-217.219 180.619,-224.444 191.182,-223.628 188.368,-217.219"/>
</g>
<!-- Node7&#45;&gt;Node8 -->
<g id="edge2" class="edge"><title>Node7&#45;&gt;Node8</title>
<path fill="none" stroke="midnightblue" d="M123.246,-158.348C119.523,-134.254 113.195,-93.3079 110.457,-75.5914"/>
<polygon fill="midnightblue" stroke="midnightblue" points="119.809,-159.02 124.795,-168.368 126.726,-157.951 119.809,-159.02"/>
</g>
<!-- Node7&#45;&gt;Node11 -->
<g id="edge5" class="edge"><title>Node7&#45;&gt;Node11</title>
<path fill="none" stroke="midnightblue" d="M147.962,-162.622C162.942,-152.757 182.326,-139.992 194.987,-131.655"/>
<polygon fill="midnightblue" stroke="midnightblue" points="145.73,-159.901 139.304,-168.324 149.58,-165.747 145.73,-159.901"/>
</g>
<!-- Node13 -->
<g id="node8" class="node"><title>Node13</title>
<g id="a_node8"><a xlink:href="player_8cc.html" target="_top" xlink:title="Model/player.cc">
<polygon fill="white" stroke="black" points="12.1289,-112.5 12.1289,-131.5 98.1289,-131.5 98.1289,-112.5 12.1289,-112.5"/>
<text text-anchor="middle" x="55.1289" y="-119.5" font-family="Helvetica,sans-Serif" font-size="10.00">Model/player.cc</text>
</a>
</g>
</g>
<!-- Node7&#45;&gt;Node13 -->
<g id="edge8" class="edge"><title>Node7&#45;&gt;Node13</title>
<path fill="none" stroke="midnightblue" d="M106.539,-162.101C93.7613,-152.382 77.5162,-140.027 66.7438,-131.834"/>
<polygon fill="midnightblue" stroke="midnightblue" points="104.643,-165.056 114.722,-168.324 108.881,-159.484 104.643,-165.056"/>
</g>
<!-- Node9 -->
<g id="node4" class="node"><title>Node9</title>
<g id="a_node4"><a xlink:href="main_8cc.html" target="_top" xlink:title="main.cc">
<polygon fill="white" stroke="black" points="40.6289,-0.5 40.6289,-19.5 91.6289,-19.5 91.6289,-0.5 40.6289,-0.5"/>
<text text-anchor="middle" x="66.1289" y="-7.5" font-family="Helvetica,sans-Serif" font-size="10.00">main.cc</text>
</a>
</g>
</g>
<!-- Node8&#45;&gt;Node9 -->
<g id="edge3" class="edge"><title>Node8&#45;&gt;Node9</title>
<path fill="none" stroke="midnightblue" d="M95.7065,-48.144C88.2148,-38.7357 79.1918,-27.4046 73.0974,-19.7511"/>
<polygon fill="midnightblue" stroke="midnightblue" points="93.061,-50.4404 102.028,-56.083 98.537,-46.0799 93.061,-50.4404"/>
</g>
<!-- Node10 -->
<g id="node5" class="node"><title>Node10</title>
<g id="a_node5"><a xlink:href="model_8cc.html" target="_top" xlink:title="Model/model.cc">
<polygon fill="white" stroke="black" points="110.129,-0.5 110.129,-19.5 196.129,-19.5 196.129,-0.5 110.129,-0.5"/>
<text text-anchor="middle" x="153.129" y="-7.5" font-family="Helvetica,sans-Serif" font-size="10.00">Model/model.cc</text>
</a>
</g>
</g>
<!-- Node8&#45;&gt;Node10 -->
<g id="edge4" class="edge"><title>Node8&#45;&gt;Node10</title>
<path fill="none" stroke="midnightblue" d="M122.863,-48.144C130.529,-38.7357 139.762,-27.4046 145.998,-19.7511"/>
<polygon fill="midnightblue" stroke="midnightblue" points="119.998,-46.1198 116.395,-56.083 125.425,-50.5415 119.998,-46.1198"/>
</g>
<!-- Node11&#45;&gt;Node8 -->
<g id="edge6" class="edge"><title>Node11&#45;&gt;Node8</title>
<path fill="none" stroke="midnightblue" d="M183.292,-107.453C165.015,-97.4835 140.713,-84.2279 124.995,-75.6545"/>
<polygon fill="midnightblue" stroke="midnightblue" points="181.768,-110.608 192.223,-112.324 185.12,-104.463 181.768,-110.608"/>
</g>
<!-- Node12 -->
<g id="node7" class="node"><title>Node12</title>
<g id="a_node7"><a xlink:href="playerparty_8cc.html" target="_top" xlink:title="Model/playerparty.cc">
<polygon fill="white" stroke="black" points="170.629,-56.5 170.629,-75.5 277.629,-75.5 277.629,-56.5 170.629,-56.5"/>
<text text-anchor="middle" x="224.129" y="-63.5" font-family="Helvetica,sans-Serif" font-size="10.00">Model/playerparty.cc</text>
</a>
</g>
</g>
<!-- Node11&#45;&gt;Node12 -->
<g id="edge7" class="edge"><title>Node11&#45;&gt;Node12</title>
<path fill="none" stroke="midnightblue" d="M213.641,-102.396C216.318,-93.362 219.407,-82.936 221.536,-75.7511"/>
<polygon fill="midnightblue" stroke="midnightblue" points="210.256,-101.501 210.771,-112.083 216.968,-103.489 210.256,-101.501"/>
</g>
</g>
</svg>
