<?xml version="1.0" encoding="UTF-8" standalone="no"?>
<!DOCTYPE svg PUBLIC "-//W3C//DTD SVG 1.1//EN"
 "http://www.w3.org/Graphics/SVG/1.1/DTD/svg11.dtd">
<!-- Generated by graphviz version 2.38.0 (20140413.2041)
 -->
<!-- Title: Model/cyberteekkari.hh Pages: 1 -->
<svg width="282pt" height="196pt"
 viewBox="0.00 0.00 281.50 196.00" xmlns="http://www.w3.org/2000/svg" xmlns:xlink="http://www.w3.org/1999/xlink">
<g id="graph0" class="graph" transform="scale(1 1) rotate(0) translate(4 192)">
<title>Model/cyberteekkari.hh</title>
<polygon fill="white" stroke="none" points="-4,4 -4,-192 277.5,-192 277.5,4 -4,4"/>
<!-- Node0 -->
<g id="node1" class="node"><title>Node0</title>
<polygon fill="#bfbfbf" stroke="black" points="111,-168.5 111,-187.5 229,-187.5 229,-168.5 111,-168.5"/>
<text text-anchor="middle" x="170" y="-175.5" font-family="Helvetica,sans-Serif" font-size="10.00">Model/cyberteekkari.hh</text>
</g>
<!-- Node1 -->
<g id="node2" class="node"><title>Node1</title>
<g id="a_node2"><a xlink:href="actorinterface_8hh.html" target="_top" xlink:title="M채채rittelee yhden toimijan operaatioiden rajapintaluokan. ">
<polygon fill="white" stroke="black" points="0,-112.5 0,-131.5 128,-131.5 128,-112.5 0,-112.5"/>
<text text-anchor="middle" x="64" y="-119.5" font-family="Helvetica,sans-Serif" font-size="10.00">Interface/actorinterface.hh</text>
</a>
</g>
</g>
<!-- Node0&#45;&gt;Node1 -->
<g id="edge1" class="edge"><title>Node0&#45;&gt;Node1</title>
<path fill="none" stroke="midnightblue" d="M152.969,-168.324C135.97,-159.664 109.624,-146.242 90.0074,-136.249"/>
<polygon fill="midnightblue" stroke="midnightblue" points="91.4876,-133.075 80.9885,-131.655 88.3101,-139.312 91.4876,-133.075"/>
</g>
<!-- Node4 -->
<g id="node5" class="node"><title>Node4</title>
<g id="a_node5"><a xlink:href="equipmentinterface_8hh.html" target="_top" xlink:title="M채채rittelee yhden tavaran (Equipment) operaatioiden rajapintaluokan. ">
<polygon fill="white" stroke="black" points="101,-56.5 101,-75.5 253,-75.5 253,-56.5 101,-56.5"/>
<text text-anchor="middle" x="177" y="-63.5" font-family="Helvetica,sans-Serif" font-size="10.00">Interface/equipmentinterface.hh</text>
</a>
</g>
</g>
<!-- Node0&#45;&gt;Node4 -->
<g id="edge6" class="edge"><title>Node0&#45;&gt;Node4</title>
<path fill="none" stroke="midnightblue" d="M170.549,-168.368C171.679,-150.617 174.285,-109.666 175.817,-85.5974"/>
<polygon fill="midnightblue" stroke="midnightblue" points="179.311,-85.7935 176.453,-75.5914 172.325,-85.3489 179.311,-85.7935"/>
</g>
<!-- Node5 -->
<g id="node6" class="node"><title>Node5</title>
<g id="a_node6"><a xlink:href="equipment_8hh.html" target="_top" xlink:title="equipment.hh">
<polygon fill="white" stroke="black" points="198.5,-112.5 198.5,-131.5 273.5,-131.5 273.5,-112.5 198.5,-112.5"/>
<text text-anchor="middle" x="236" y="-119.5" font-family="Helvetica,sans-Serif" font-size="10.00">equipment.hh</text>
</a>
</g>
</g>
<!-- Node0&#45;&gt;Node5 -->
<g id="edge7" class="edge"><title>Node0&#45;&gt;Node5</title>
<path fill="none" stroke="midnightblue" d="M180.604,-168.324C190.456,-160.263 205.351,-148.077 217.215,-138.369"/>
<polygon fill="midnightblue" stroke="midnightblue" points="219.68,-140.875 225.203,-131.834 215.247,-135.457 219.68,-140.875"/>
</g>
<!-- Node2 -->
<g id="node3" class="node"><title>Node2</title>
<polygon fill="white" stroke="#bfbfbf" points="152,-0.5 152,-19.5 202,-19.5 202,-0.5 152,-0.5"/>
<text text-anchor="middle" x="177" y="-7.5" font-family="Helvetica,sans-Serif" font-size="10.00">QString</text>
</g>
<!-- Node1&#45;&gt;Node2 -->
<g id="edge2" class="edge"><title>Node1&#45;&gt;Node2</title>
<path fill="none" stroke="midnightblue" d="M51.2531,-112.328C34.1415,-99.617 7.47765,-75.3382 22,-56 36.3872,-36.8418 100.718,-23.1989 141.847,-16.2517"/>
<polygon fill="midnightblue" stroke="midnightblue" points="142.456,-19.6988 151.76,-14.6304 141.326,-12.7905 142.456,-19.6988"/>
</g>
<!-- Node3 -->
<g id="node4" class="node"><title>Node3</title>
<polygon fill="white" stroke="#bfbfbf" points="31,-56.5 31,-75.5 83,-75.5 83,-56.5 31,-56.5"/>
<text text-anchor="middle" x="57" y="-63.5" font-family="Helvetica,sans-Serif" font-size="10.00">memory</text>
</g>
<!-- Node1&#45;&gt;Node3 -->
<g id="edge3" class="edge"><title>Node1&#45;&gt;Node3</title>
<path fill="none" stroke="midnightblue" d="M62.8441,-112.083C61.9165,-104.927 60.5824,-94.6353 59.4229,-85.6911"/>
<polygon fill="midnightblue" stroke="midnightblue" points="62.891,-85.2181 58.1344,-75.7511 55.9491,-86.1181 62.891,-85.2181"/>
</g>
<!-- Node1&#45;&gt;Node4 -->
<g id="edge4" class="edge"><title>Node1&#45;&gt;Node4</title>
<path fill="none" stroke="midnightblue" d="M81.9052,-112.444C100.254,-103.675 129.005,-89.9355 150.094,-79.8579"/>
<polygon fill="midnightblue" stroke="midnightblue" points="151.665,-82.9862 159.179,-75.5164 148.647,-76.6703 151.665,-82.9862"/>
</g>
<!-- Node4&#45;&gt;Node2 -->
<g id="edge5" class="edge"><title>Node4&#45;&gt;Node2</title>
<path fill="none" stroke="midnightblue" d="M177,-56.083C177,-49.0059 177,-38.8611 177,-29.9865"/>
<polygon fill="midnightblue" stroke="midnightblue" points="180.5,-29.751 177,-19.7511 173.5,-29.7511 180.5,-29.751"/>
</g>
<!-- Node5&#45;&gt;Node2 -->
<g id="edge8" class="edge"><title>Node5&#45;&gt;Node2</title>
<path fill="none" stroke="midnightblue" d="M244.498,-112.171C255.846,-99.2633 273.284,-74.7423 262,-56 251.049,-37.8118 230.008,-26.5899 211.601,-19.9012"/>
<polygon fill="midnightblue" stroke="midnightblue" points="212.599,-16.5449 202.006,-16.72 210.397,-23.1892 212.599,-16.5449"/>
</g>
<!-- Node5&#45;&gt;Node4 -->
<g id="edge9" class="edge"><title>Node5&#45;&gt;Node4</title>
<path fill="none" stroke="midnightblue" d="M226.521,-112.324C217.799,-104.341 204.657,-92.3128 194.102,-82.6529"/>
<polygon fill="midnightblue" stroke="midnightblue" points="196.392,-80.0036 186.652,-75.8339 191.666,-85.1674 196.392,-80.0036"/>
</g>
</g>
</svg>
