<?xml version="1.0" encoding="UTF-8" standalone="no"?>
<!DOCTYPE svg PUBLIC "-//W3C//DTD SVG 1.1//EN"
 "http://www.w3.org/Graphics/SVG/1.1/DTD/svg11.dtd">
<!-- Generated by graphviz version 2.38.0 (20140413.2041)
 -->
<!-- Title: Controller Pages: 1 -->
<svg width="92pt" height="188pt"
 viewBox="0.00 0.00 92.00 188.00" xmlns="http://www.w3.org/2000/svg" xmlns:xlink="http://www.w3.org/1999/xlink">
<g id="graph0" class="graph" transform="scale(1 1) rotate(0) translate(4 184)">
<title>Controller</title>
<polygon fill="white" stroke="none" points="-4,4 -4,-184 88,-184 88,4 -4,4"/>
<!-- dir_b500f500d6f9b315c95ab1cd4a3b5c0d -->
<g id="node1" class="node"><title>dir_b500f500d6f9b315c95ab1cd4a3b5c0d</title>
<g id="a_node1"><a xlink:href="dir_b500f500d6f9b315c95ab1cd4a3b5c0d.html" target="_top" xlink:title="Controller">
<polygon fill="#eeeeff" stroke="black" points="58,-180 0,-180 0,-144 58,-144 58,-180"/>
<text text-anchor="middle" x="29" y="-159.5" font-family="Helvetica,sans-Serif" font-size="10.00">Controller</text>
</a>
</g>
</g>
<!-- dir_b7263c2df3abed61e1897d5e9e534860 -->
<g id="node2" class="node"><title>dir_b7263c2df3abed61e1897d5e9e534860</title>
<g id="a_node2"><a xlink:href="dir_b7263c2df3abed61e1897d5e9e534860.html" target="_top" xlink:title="Interface">
<polygon fill="none" stroke="black" points="56,-36 2,-36 2,-0 56,-0 56,-36"/>
<text text-anchor="middle" x="29" y="-15.5" font-family="Helvetica,sans-Serif" font-size="10.00">Interface</text>
</a>
</g>
</g>
<!-- dir_b500f500d6f9b315c95ab1cd4a3b5c0d&#45;&gt;dir_b7263c2df3abed61e1897d5e9e534860 -->
<g id="edge2" class="edge"><title>dir_b500f500d6f9b315c95ab1cd4a3b5c0d&#45;&gt;dir_b7263c2df3abed61e1897d5e9e534860</title>
<path fill="none" stroke="black" d="M25.7517,-143.888C23.9542,-133.542 21.9053,-120.063 21,-108 19.8026,-92.0449 19.8026,-87.9551 21,-72 21.6366,-63.5179 22.8384,-54.3361 24.1208,-46.0356"/>
<polygon fill="black" stroke="black" points="27.5836,-46.5472 25.7517,-36.1119 20.6763,-45.412 27.5836,-46.5472"/>
<g id="a_edge2&#45;headlabel"><a xlink:href="dir_000000_000001.html" target="_top" xlink:title="1">
<text text-anchor="middle" x="29.8024" y="-48.0546" font-family="Helvetica,sans-Serif" font-size="10.00">1</text>
</a>
</g>
</g>
<!-- dir_312950da3f243a51cc00f4a947545131 -->
<g id="node3" class="node"><title>dir_312950da3f243a51cc00f4a947545131</title>
<g id="a_node3"><a xlink:href="dir_312950da3f243a51cc00f4a947545131.html" target="_top" xlink:title="Model">
<polygon fill="none" stroke="black" points="84,-108 30,-108 30,-72 84,-72 84,-108"/>
<text text-anchor="middle" x="57" y="-87.5" font-family="Helvetica,sans-Serif" font-size="10.00">Model</text>
</a>
</g>
</g>
<!-- dir_b500f500d6f9b315c95ab1cd4a3b5c0d&#45;&gt;dir_312950da3f243a51cc00f4a947545131 -->
<g id="edge3" class="edge"><title>dir_b500f500d6f9b315c95ab1cd4a3b5c0d&#45;&gt;dir_312950da3f243a51cc00f4a947545131</title>
<path fill="none" stroke="black" d="M35.9214,-143.697C39.0747,-135.813 42.8783,-126.304 46.3814,-117.546"/>
<polygon fill="black" stroke="black" points="49.694,-118.689 50.1583,-108.104 43.1946,-116.089 49.694,-118.689"/>
<g id="a_edge3&#45;headlabel"><a xlink:href="dir_000000_000002.html" target="_top" xlink:title="1">
<text text-anchor="middle" x="50.9952" y="-120.581" font-family="Helvetica,sans-Serif" font-size="10.00">1</text>
</a>
</g>
</g>
<!-- dir_312950da3f243a51cc00f4a947545131&#45;&gt;dir_b7263c2df3abed61e1897d5e9e534860 -->
<g id="edge1" class="edge"><title>dir_312950da3f243a51cc00f4a947545131&#45;&gt;dir_b7263c2df3abed61e1897d5e9e534860</title>
<path fill="none" stroke="black" d="M50.0786,-71.6966C46.9253,-63.8132 43.1217,-54.3042 39.6186,-45.5464"/>
<polygon fill="black" stroke="black" points="42.8054,-44.0892 35.8417,-36.1043 36.306,-46.689 42.8054,-44.0892"/>
<g id="a_edge1&#45;headlabel"><a xlink:href="dir_000002_000001.html" target="_top" xlink:title="18">
<text text-anchor="middle" x="46.7765" y="-43.8723" font-family="Helvetica,sans-Serif" font-size="10.00">18</text>
</a>
</g>
</g>
</g>
</svg>
