<?xml version="1.0" encoding="UTF-8" standalone="no"?>
<!DOCTYPE svg PUBLIC "-//W3C//DTD SVG 1.1//EN"
 "http://www.w3.org/Graphics/SVG/1.1/DTD/svg11.dtd">
<!-- Generated by graphviz version 2.38.0 (20140413.2041)
 -->
<!-- Title: Model/equipment.hh Pages: 1 -->
<!--zoomable 308 -->
<svg id="main" version="1.1" xmlns="http://www.w3.org/2000/svg" xmlns:xlink="http://www.w3.org/1999/xlink" xml:space="preserve" onload="init(evt)">
<style type="text/css"><![CDATA[
.edge:hover path { stroke: red; }
.edge:hover polygon { stroke: red; fill: red; }
]]></style>
<script type="text/javascript"><![CDATA[
var edges = document.getElementsByTagName('g');
if (edges && edges.length) {
  for (var i=0;i<edges.length;i++) {
    if (edges[i].id.substr(0,4)=='edge') {
      edges[i].setAttribute('class','edge');
    }
  }
}
]]></script>
        <defs>
                <circle id="rim" cx="0" cy="0" r="7"/>
                <circle id="rim2" cx="0" cy="0" r="3.5"/>
                <g id="zoomPlus">
                        <use xlink:href="#rim" fill="#404040">
                                <set attributeName="fill" to="#808080" begin="zoomplus.mouseover" end="zoomplus.mouseout"/>
                        </use>
                        <path d="M-4,0h8M0,-4v8" fill="none" stroke="white" stroke-width="1.5" pointer-events="none"/>
                </g>
                <g id="zoomMin">
                        <use xlink:href="#rim" fill="#404040">
                                <set attributeName="fill" to="#808080" begin="zoomminus.mouseover" end="zoomminus.mouseout"/>
                        </use>
                        <path d="M-4,0h8" fill="none" stroke="white" stroke-width="1.5" pointer-events="none"/>
                </g>
                <g id="dirArrow">
                        <path fill="none" stroke="white" stroke-width="1.5" d="M0,-3.0v7 M-2.5,-0.5L0,-3.0L2.5,-0.5"/>
                </g>
               <g id="resetDef">
                       <use xlink:href="#rim2" fill="#404040">
                               <set attributeName="fill" to="#808080" begin="reset.mouseover" end="reset.mouseout"/>
                       </use>
               </g>
        </defs>

<script type="text/javascript">
var viewWidth = 621;
var viewHeight = 308;
var sectionId = 'dynsection-1';
</script>
<script xlink:href="svgpan.js"/>
<svg id="graph" class="graph">
<g id="viewport">
<title>Model/equipment.hh</title>
<polygon fill="white" stroke="none" points="-4,4 -4,-304 616.5,-304 616.5,4 -4,4"/>
<!-- Node3 -->
<g id="node1" class="node"><title>Node3</title>
<polygon fill="#bfbfbf" stroke="black" points="284.5,-280.5 284.5,-299.5 388.5,-299.5 388.5,-280.5 284.5,-280.5"/>
<text text-anchor="middle" x="336.5" y="-287.5" font-family="Helvetica,sans-Serif" font-size="10.00">Model/equipment.hh</text>
</g>
<!-- Node4 -->
<g id="node2" class="node"><title>Node4</title>
<g id="a_node2"><a xlink:href="cyberteekkari_8hh.html" target="_top" xlink:title="Model/cyberteekkari.hh">
<polygon fill="white" stroke="black" points="157.5,-224.5 157.5,-243.5 275.5,-243.5 275.5,-224.5 157.5,-224.5"/>
<text text-anchor="middle" x="216.5" y="-231.5" font-family="Helvetica,sans-Serif" font-size="10.00">Model/cyberteekkari.hh</text>
</a>
</g>
</g>
<!-- Node3&#45;&gt;Node4 -->
<g id="edge1" class="edge"><title>Node3&#45;&gt;Node4</title>
<path fill="none" stroke="midnightblue" d="M308.127,-276.232C285.68,-266.131 254.965,-252.309 235.425,-243.516"/>
<polygon fill="midnightblue" stroke="midnightblue" points="306.93,-279.532 317.486,-280.444 309.803,-273.148 306.93,-279.532"/>
</g>
<!-- Node5 -->
<g id="node3" class="node"><title>Node5</title>
<g id="a_node3"><a xlink:href="player_8hh.html" target="_top" xlink:title="Model/player.hh">
<polygon fill="white" stroke="black" points="293.5,-168.5 293.5,-187.5 379.5,-187.5 379.5,-168.5 293.5,-168.5"/>
<text text-anchor="middle" x="336.5" y="-175.5" font-family="Helvetica,sans-Serif" font-size="10.00">Model/player.hh</text>
</a>
</g>
</g>
<!-- Node3&#45;&gt;Node5 -->
<g id="edge13" class="edge"><title>Node3&#45;&gt;Node5</title>
<path fill="none" stroke="midnightblue" d="M336.5,-270.348C336.5,-246.254 336.5,-205.308 336.5,-187.591"/>
<polygon fill="midnightblue" stroke="midnightblue" points="333,-270.368 336.5,-280.368 340,-270.369 333,-270.368"/>
</g>
<!-- Node9 -->
<g id="node7" class="node"><title>Node9</title>
<g id="a_node7"><a xlink:href="playerparty_8hh.html" target="_top" xlink:title="Model/playerparty.hh">
<polygon fill="white" stroke="black" points="0,-112.5 0,-131.5 107,-131.5 107,-112.5 0,-112.5"/>
<text text-anchor="middle" x="53.5" y="-119.5" font-family="Helvetica,sans-Serif" font-size="10.00">Model/playerparty.hh</text>
</a>
</g>
</g>
<!-- Node3&#45;&gt;Node9 -->
<g id="edge17" class="edge"><title>Node3&#45;&gt;Node9</title>
<path fill="none" stroke="midnightblue" d="M274.474,-282.45C236.343,-276.463 187.493,-265.157 148.5,-244 116.723,-226.758 111.627,-216.591 89.5,-188 75.2886,-169.637 63.2641,-144.962 57.3771,-131.93"/>
<polygon fill="midnightblue" stroke="midnightblue" points="274.018,-285.921 284.425,-283.931 275.049,-278.997 274.018,-285.921"/>
</g>
<!-- Node13 -->
<g id="node11" class="node"><title>Node13</title>
<g id="a_node11"><a xlink:href="filemanager_8hh.html" target="_top" xlink:title="Model/filemanager.hh">
<polygon fill="white" stroke="black" points="381,-224.5 381,-243.5 490,-243.5 490,-224.5 381,-224.5"/>
<text text-anchor="middle" x="435.5" y="-231.5" font-family="Helvetica,sans-Serif" font-size="10.00">Model/filemanager.hh</text>
</a>
</g>
</g>
<!-- Node3&#45;&gt;Node13 -->
<g id="edge14" class="edge"><title>Node3&#45;&gt;Node13</title>
<path fill="none" stroke="midnightblue" d="M361.337,-275.453C379.614,-265.483 403.916,-252.228 419.633,-243.655"/>
<polygon fill="midnightblue" stroke="midnightblue" points="359.509,-272.463 352.406,-280.324 362.861,-278.608 359.509,-272.463"/>
</g>
<!-- Node15 -->
<g id="node13" class="node"><title>Node15</title>
<g id="a_node13"><a xlink:href="equipment_8cc.html" target="_top" xlink:title="Model/equipment.cc">
<polygon fill="white" stroke="black" points="508.5,-224.5 508.5,-243.5 612.5,-243.5 612.5,-224.5 508.5,-224.5"/>
<text text-anchor="middle" x="560.5" y="-231.5" font-family="Helvetica,sans-Serif" font-size="10.00">Model/equipment.cc</text>
</a>
</g>
</g>
<!-- Node3&#45;&gt;Node15 -->
<g id="edge18" class="edge"><title>Node3&#45;&gt;Node15</title>
<path fill="none" stroke="midnightblue" d="M381.763,-278.088C424.082,-267.887 486.409,-252.861 525.173,-243.516"/>
<polygon fill="midnightblue" stroke="midnightblue" points="380.895,-274.697 371.993,-280.444 382.535,-281.502 380.895,-274.697"/>
</g>
<!-- Node4&#45;&gt;Node5 -->
<g id="edge2" class="edge"><title>Node4&#45;&gt;Node5</title>
<path fill="none" stroke="midnightblue" d="M244.873,-220.232C267.32,-210.131 298.035,-196.309 317.575,-187.516"/>
<polygon fill="midnightblue" stroke="midnightblue" points="243.197,-217.148 235.514,-224.444 246.07,-223.532 243.197,-217.148"/>
</g>
<!-- Node6 -->
<g id="node4" class="node"><title>Node6</title>
<g id="a_node4"><a xlink:href="model_8hh.html" target="_top" xlink:title="Model/model.hh">
<polygon fill="white" stroke="black" points="150.5,-56.5 150.5,-75.5 236.5,-75.5 236.5,-56.5 150.5,-56.5"/>
<text text-anchor="middle" x="193.5" y="-63.5" font-family="Helvetica,sans-Serif" font-size="10.00">Model/model.hh</text>
</a>
</g>
</g>
<!-- Node4&#45;&gt;Node6 -->
<g id="edge10" class="edge"><title>Node4&#45;&gt;Node6</title>
<path fill="none" stroke="midnightblue" d="M183.906,-219.897C170.397,-212.648 156.122,-202.185 148.5,-188 127.069,-148.12 167.477,-95.8386 185.477,-75.5569"/>
<polygon fill="midnightblue" stroke="midnightblue" points="182.53,-223.121 193.046,-224.408 185.628,-216.844 182.53,-223.121"/>
</g>
<!-- Node4&#45;&gt;Node9 -->
<g id="edge11" class="edge"><title>Node4&#45;&gt;Node9</title>
<path fill="none" stroke="midnightblue" d="M180.676,-220.971C160.512,-213.265 135.455,-202.068 115.5,-188 92.0475,-171.466 70.2787,-145.12 59.8888,-131.609"/>
<polygon fill="midnightblue" stroke="midnightblue" points="179.544,-224.285 190.138,-224.471 181.973,-217.719 179.544,-224.285"/>
</g>
<!-- Node12 -->
<g id="node10" class="node"><title>Node12</title>
<g id="a_node10"><a xlink:href="cyberteekkari_8cc.html" target="_top" xlink:title="Model/cyberteekkari.cc">
<polygon fill="white" stroke="black" points="157.5,-168.5 157.5,-187.5 275.5,-187.5 275.5,-168.5 157.5,-168.5"/>
<text text-anchor="middle" x="216.5" y="-175.5" font-family="Helvetica,sans-Serif" font-size="10.00">Model/cyberteekkari.cc</text>
</a>
</g>
</g>
<!-- Node4&#45;&gt;Node12 -->
<g id="edge12" class="edge"><title>Node4&#45;&gt;Node12</title>
<path fill="none" stroke="midnightblue" d="M216.5,-213.805C216.5,-204.91 216.5,-194.78 216.5,-187.751"/>
<polygon fill="midnightblue" stroke="midnightblue" points="213,-214.083 216.5,-224.083 220,-214.083 213,-214.083"/>
</g>
<!-- Node5&#45;&gt;Node6 -->
<g id="edge3" class="edge"><title>Node5&#45;&gt;Node6</title>
<path fill="none" stroke="midnightblue" d="M317.153,-162.118C286.799,-138.769 228.951,-94.2699 204.669,-75.5914"/>
<polygon fill="midnightblue" stroke="midnightblue" points="315.219,-165.046 325.279,-168.368 319.487,-159.497 315.219,-165.046"/>
</g>
<!-- Node5&#45;&gt;Node9 -->
<g id="edge6" class="edge"><title>Node5&#45;&gt;Node9</title>
<path fill="none" stroke="midnightblue" d="M283.24,-166.837C229.787,-156.638 148.377,-141.104 98.1866,-131.527"/>
<polygon fill="midnightblue" stroke="midnightblue" points="282.732,-170.303 293.21,-168.74 284.044,-163.427 282.732,-170.303"/>
</g>
<!-- Node11 -->
<g id="node9" class="node"><title>Node11</title>
<g id="a_node9"><a xlink:href="player_8cc.html" target="_top" xlink:title="Model/player.cc">
<polygon fill="white" stroke="black" points="293.5,-112.5 293.5,-131.5 379.5,-131.5 379.5,-112.5 293.5,-112.5"/>
<text text-anchor="middle" x="336.5" y="-119.5" font-family="Helvetica,sans-Serif" font-size="10.00">Model/player.cc</text>
</a>
</g>
</g>
<!-- Node5&#45;&gt;Node11 -->
<g id="edge9" class="edge"><title>Node5&#45;&gt;Node11</title>
<path fill="none" stroke="midnightblue" d="M336.5,-157.805C336.5,-148.91 336.5,-138.78 336.5,-131.751"/>
<polygon fill="midnightblue" stroke="midnightblue" points="333,-158.083 336.5,-168.083 340,-158.083 333,-158.083"/>
</g>
<!-- Node7 -->
<g id="node5" class="node"><title>Node7</title>
<g id="a_node5"><a xlink:href="main_8cc.html" target="_top" xlink:title="main.cc">
<polygon fill="white" stroke="black" points="125,-0.5 125,-19.5 176,-19.5 176,-0.5 125,-0.5"/>
<text text-anchor="middle" x="150.5" y="-7.5" font-family="Helvetica,sans-Serif" font-size="10.00">main.cc</text>
</a>
</g>
</g>
<!-- Node6&#45;&gt;Node7 -->
<g id="edge4" class="edge"><title>Node6&#45;&gt;Node7</title>
<path fill="none" stroke="midnightblue" d="M180.078,-48.144C172.586,-38.7357 163.563,-27.4046 157.468,-19.7511"/>
<polygon fill="midnightblue" stroke="midnightblue" points="177.432,-50.4404 186.399,-56.083 182.908,-46.0799 177.432,-50.4404"/>
</g>
<!-- Node8 -->
<g id="node6" class="node"><title>Node8</title>
<g id="a_node6"><a xlink:href="model_8cc.html" target="_top" xlink:title="Model/model.cc">
<polygon fill="white" stroke="black" points="194.5,-0.5 194.5,-19.5 280.5,-19.5 280.5,-0.5 194.5,-0.5"/>
<text text-anchor="middle" x="237.5" y="-7.5" font-family="Helvetica,sans-Serif" font-size="10.00">Model/model.cc</text>
</a>
</g>
</g>
<!-- Node6&#45;&gt;Node8 -->
<g id="edge5" class="edge"><title>Node6&#45;&gt;Node8</title>
<path fill="none" stroke="midnightblue" d="M207.235,-48.144C214.901,-38.7357 224.133,-27.4046 230.369,-19.7511"/>
<polygon fill="midnightblue" stroke="midnightblue" points="204.369,-46.1198 200.766,-56.083 209.796,-50.5415 204.369,-46.1198"/>
</g>
<!-- Node9&#45;&gt;Node6 -->
<g id="edge7" class="edge"><title>Node9&#45;&gt;Node6</title>
<path fill="none" stroke="midnightblue" d="M85.2022,-108.772C111.5,-98.6287 148.216,-84.4669 171.42,-75.5164"/>
<polygon fill="midnightblue" stroke="midnightblue" points="83.7539,-105.579 75.6834,-112.444 86.273,-112.11 83.7539,-105.579"/>
</g>
<!-- Node10 -->
<g id="node8" class="node"><title>Node10</title>
<g id="a_node8"><a xlink:href="playerparty_8cc.html" target="_top" xlink:title="Model/playerparty.cc">
<polygon fill="white" stroke="black" points="0,-56.5 0,-75.5 107,-75.5 107,-56.5 0,-56.5"/>
<text text-anchor="middle" x="53.5" y="-63.5" font-family="Helvetica,sans-Serif" font-size="10.00">Model/playerparty.cc</text>
</a>
</g>
</g>
<!-- Node9&#45;&gt;Node10 -->
<g id="edge8" class="edge"><title>Node9&#45;&gt;Node10</title>
<path fill="none" stroke="midnightblue" d="M53.5,-101.805C53.5,-92.9102 53.5,-82.7798 53.5,-75.7511"/>
<polygon fill="midnightblue" stroke="midnightblue" points="50.0001,-102.083 53.5,-112.083 57.0001,-102.083 50.0001,-102.083"/>
</g>
<!-- Node13&#45;&gt;Node6 -->
<g id="edge15" class="edge"><title>Node13&#45;&gt;Node6</title>
<path fill="none" stroke="midnightblue" d="M472.625,-220.705C500.471,-209.349 531.419,-190.812 516.5,-168 485.426,-120.488 317.206,-87.1534 236.605,-73.6662"/>
<polygon fill="midnightblue" stroke="midnightblue" points="471.059,-217.557 462.985,-224.417 473.575,-224.089 471.059,-217.557"/>
</g>
<!-- Node14 -->
<g id="node12" class="node"><title>Node14</title>
<g id="a_node12"><a xlink:href="filemanager_8cc.html" target="_top" xlink:title="Model/filemanager.cc">
<polygon fill="white" stroke="black" points="398,-168.5 398,-187.5 507,-187.5 507,-168.5 398,-168.5"/>
<text text-anchor="middle" x="452.5" y="-175.5" font-family="Helvetica,sans-Serif" font-size="10.00">Model/filemanager.cc</text>
</a>
</g>
</g>
<!-- Node13&#45;&gt;Node14 -->
<g id="edge16" class="edge"><title>Node13&#45;&gt;Node14</title>
<path fill="none" stroke="midnightblue" d="M441.357,-214.396C444.201,-205.362 447.483,-194.936 449.745,-187.751"/>
<polygon fill="midnightblue" stroke="midnightblue" points="437.972,-213.493 438.307,-224.083 444.649,-215.596 437.972,-213.493"/>
</g>
</g>
</svg>
        <g id="navigator" transform="translate(0 0)" fill="#404254">
                <rect fill="#f2f5e9" fill-opacity="0.5" stroke="#606060" stroke-width=".5" x="0" y="0" width="60" height="60"/>
                <use id="zoomplus" xlink:href="#zoomPlus" x="17" y="9" onmousedown="handleZoom(evt,'in')"/>
                <use id="zoomminus" xlink:href="#zoomMin" x="42" y="9" onmousedown="handleZoom(evt,'out')"/>
                <use id="reset" xlink:href="#resetDef" x="30" y="36" onmousedown="handleReset()"/>
                <g id="arrowUp" xlink:href="#dirArrow" transform="translate(30 24)" onmousedown="handlePan(0,-1)">
                  <use xlink:href="#rim" fill="#404040">
                        <set attributeName="fill" to="#808080" begin="arrowUp.mouseover" end="arrowUp.mouseout"/>
                  </use>
                  <path fill="none" stroke="white" stroke-width="1.5" d="M0,-3.0v7 M-2.5,-0.5L0,-3.0L2.5,-0.5"/>
                </g>
                <g id="arrowRight" xlink:href="#dirArrow" transform="rotate(90) translate(36 -43)" onmousedown="handlePan(1,0)">
                  <use xlink:href="#rim" fill="#404040">
                        <set attributeName="fill" to="#808080" begin="arrowRight.mouseover" end="arrowRight.mouseout"/>
                  </use>
                  <path fill="none" stroke="white" stroke-width="1.5" d="M0,-3.0v7 M-2.5,-0.5L0,-3.0L2.5,-0.5"/>
                </g>
                <g id="arrowDown" xlink:href="#dirArrow" transform="rotate(180) translate(-30 -48)" onmousedown="handlePan(0,1)">
                  <use xlink:href="#rim" fill="#404040">
                        <set attributeName="fill" to="#808080" begin="arrowDown.mouseover" end="arrowDown.mouseout"/>
                  </use>
                  <path fill="none" stroke="white" stroke-width="1.5" d="M0,-3.0v7 M-2.5,-0.5L0,-3.0L2.5,-0.5"/>
                </g>
                <g id="arrowLeft" xlink:href="#dirArrow" transform="rotate(270) translate(-36 17)" onmousedown="handlePan(-1,0)">
                  <use xlink:href="#rim" fill="#404040">
                        <set attributeName="fill" to="#808080" begin="arrowLeft.mouseover" end="arrowLeft.mouseout"/>
                  </use>
                  <path fill="none" stroke="white" stroke-width="1.5" d="M0,-3.0v7 M-2.5,-0.5L0,-3.0L2.5,-0.5"/>
                </g>
        </g>
        <svg viewBox="0 0 15 15" width="100%" height="30px" preserveAspectRatio="xMaxYMin meet">
         <g id="arrow_out" transform="scale(0.3 0.3)">
          <a xlink:href="equipment_8hh__dep__incl_org.svg" target="_base">
           <rect id="button" ry="5" rx="5" y="6" x="6" height="38" width="38"
                fill="#f2f5e9" fill-opacity="0.5" stroke="#606060" stroke-width="1.0"/>
           <path id="arrow"
             d="M 11.500037,31.436501 C 11.940474,20.09759 22.043105,11.32322 32.158766,21.979434 L 37.068811,17.246167 C 37.068811,17.246167 37.088388,32 37.088388,32 L 22.160133,31.978069 C 22.160133,31.978069 26.997745,27.140456 26.997745,27.140456 C 18.528582,18.264221 13.291696,25.230495 11.500037,31.436501 z"
             style="fill:#404040;"/>
          </a>
         </g>
        </svg>
</svg>
