<?xml version="1.0" encoding="UTF-8" standalone="no"?>
<!DOCTYPE svg PUBLIC "-//W3C//DTD SVG 1.1//EN"
 "http://www.w3.org/Graphics/SVG/1.1/DTD/svg11.dtd">
<!-- Generated by graphviz version 2.38.0 (20140413.2041)
 -->
<!-- Title: Model/equipment.hh Pages: 1 -->
<svg width="188pt" height="140pt"
 viewBox="0.00 0.00 188.00 140.00" xmlns="http://www.w3.org/2000/svg" xmlns:xlink="http://www.w3.org/1999/xlink">
<g id="graph0" class="graph" transform="scale(1 1) rotate(0) translate(4 136)">
<title>Model/equipment.hh</title>
<polygon fill="white" stroke="none" points="-4,4 -4,-136 184,-136 184,4 -4,4"/>
<!-- Node0 -->
<g id="node1" class="node"><title>Node0</title>
<polygon fill="#bfbfbf" stroke="black" points="0,-112.5 0,-131.5 104,-131.5 104,-112.5 0,-112.5"/>
<text text-anchor="middle" x="52" y="-119.5" font-family="Helvetica,sans-Serif" font-size="10.00">Model/equipment.hh</text>
</g>
<!-- Node1 -->
<g id="node2" class="node"><title>Node1</title>
<polygon fill="white" stroke="#bfbfbf" points="27,-0.5 27,-19.5 77,-19.5 77,-0.5 27,-0.5"/>
<text text-anchor="middle" x="52" y="-7.5" font-family="Helvetica,sans-Serif" font-size="10.00">QString</text>
</g>
<!-- Node0&#45;&gt;Node1 -->
<g id="edge1" class="edge"><title>Node0&#45;&gt;Node1</title>
<path fill="none" stroke="midnightblue" d="M42.9802,-112.34C34.9277,-103.932 23.7021,-90.3633 19,-76 13.3152,-58.6351 24.5383,-40.1829 35.4065,-27.3928"/>
<polygon fill="midnightblue" stroke="midnightblue" points="38.1267,-29.6054 42.3159,-19.8739 32.9724,-24.8689 38.1267,-29.6054"/>
</g>
<!-- Node2 -->
<g id="node3" class="node"><title>Node2</title>
<g id="a_node3"><a xlink:href="equipmentinterface_8hh.html" target="_top" xlink:title="Määrittelee yhden tavaran (Equipment) operaatioiden rajapintaluokan. ">
<polygon fill="white" stroke="black" points="28,-56.5 28,-75.5 180,-75.5 180,-56.5 28,-56.5"/>
<text text-anchor="middle" x="104" y="-63.5" font-family="Helvetica,sans-Serif" font-size="10.00">Interface/equipmentinterface.hh</text>
</a>
</g>
</g>
<!-- Node0&#45;&gt;Node2 -->
<g id="edge2" class="edge"><title>Node0&#45;&gt;Node2</title>
<path fill="none" stroke="midnightblue" d="M60.5867,-112.083C68.159,-104.22 79.3782,-92.5688 88.5144,-83.0813"/>
<polygon fill="midnightblue" stroke="midnightblue" points="91.1577,-85.3821 95.573,-75.7511 86.1155,-80.5266 91.1577,-85.3821"/>
</g>
<!-- Node2&#45;&gt;Node1 -->
<g id="edge3" class="edge"><title>Node2&#45;&gt;Node1</title>
<path fill="none" stroke="midnightblue" d="M95.4133,-56.083C87.841,-48.2195 76.6218,-36.5688 67.4856,-27.0813"/>
<polygon fill="midnightblue" stroke="midnightblue" points="69.8845,-24.5266 60.427,-19.7511 64.8423,-29.3821 69.8845,-24.5266"/>
</g>
</g>
</svg>
