<?xml version="1.0" encoding="UTF-8" standalone="no"?>
<!DOCTYPE svg PUBLIC "-//W3C//DTD SVG 1.1//EN"
 "http://www.w3.org/Graphics/SVG/1.1/DTD/svg11.dtd">
<!-- Generated by graphviz version 2.38.0 (20140413.2041)
 -->
<!-- Title: Interface/equipmentinterface.hh Pages: 1 -->
<!--zoomable 364 -->
<svg id="main" version="1.1" xmlns="http://www.w3.org/2000/svg" xmlns:xlink="http://www.w3.org/1999/xlink" xml:space="preserve" onload="init(evt)">
<style type="text/css"><![CDATA[
.edge:hover path { stroke: red; }
.edge:hover polygon { stroke: red; fill: red; }
]]></style>
<script type="text/javascript"><![CDATA[
var edges = document.getElementsByTagName('g');
if (edges && edges.length) {
  for (var i=0;i<edges.length;i++) {
    if (edges[i].id.substr(0,4)=='edge') {
      edges[i].setAttribute('class','edge');
    }
  }
}
]]></script>
        <defs>
                <circle id="rim" cx="0" cy="0" r="7"/>
                <circle id="rim2" cx="0" cy="0" r="3.5"/>
                <g id="zoomPlus">
                        <use xlink:href="#rim" fill="#404040">
                                <set attributeName="fill" to="#808080" begin="zoomplus.mouseover" end="zoomplus.mouseout"/>
                        </use>
                        <path d="M-4,0h8M0,-4v8" fill="none" stroke="white" stroke-width="1.5" pointer-events="none"/>
                </g>
                <g id="zoomMin">
                        <use xlink:href="#rim" fill="#404040">
                                <set attributeName="fill" to="#808080" begin="zoomminus.mouseover" end="zoomminus.mouseout"/>
                        </use>
                        <path d="M-4,0h8" fill="none" stroke="white" stroke-width="1.5" pointer-events="none"/>
                </g>
                <g id="dirArrow">
                        <path fill="none" stroke="white" stroke-width="1.5" d="M0,-3.0v7 M-2.5,-0.5L0,-3.0L2.5,-0.5"/>
                </g>
               <g id="resetDef">
                       <use xlink:href="#rim2" fill="#404040">
                               <set attributeName="fill" to="#808080" begin="reset.mouseover" end="reset.mouseout"/>
                       </use>
               </g>
        </defs>

<script type="text/javascript">
var viewWidth = 1174;
var viewHeight = 364;
var sectionId = 'dynsection-1';
</script>
<script xlink:href="svgpan.js"/>
<svg id="graph" class="graph">
<g id="viewport">
<title>Interface/equipmentinterface.hh</title>
<polygon fill="white" stroke="none" points="-4,4 -4,-360 1170.23,-360 1170.23,4 -4,4"/>
<!-- Node2 -->
<g id="node1" class="node"><title>Node2</title>
<polygon fill="#bfbfbf" stroke="black" points="411.746,-336.5 411.746,-355.5 563.746,-355.5 563.746,-336.5 411.746,-336.5"/>
<text text-anchor="middle" x="487.746" y="-343.5" font-family="Helvetica,sans-Serif" font-size="10.00">Interface/equipmentinterface.hh</text>
</g>
<!-- Node3 -->
<g id="node2" class="node"><title>Node3</title>
<g id="a_node2"><a xlink:href="actorinterface_8hh.html" target="_top" xlink:title="Määrittelee yhden toimijan operaatioiden rajapintaluokan. ">
<polygon fill="white" stroke="black" points="282.746,-280.5 282.746,-299.5 410.746,-299.5 410.746,-280.5 282.746,-280.5"/>
<text text-anchor="middle" x="346.746" y="-287.5" font-family="Helvetica,sans-Serif" font-size="10.00">Interface/actorinterface.hh</text>
</a>
</g>
</g>
<!-- Node2&#45;&gt;Node3 -->
<g id="edge1" class="edge"><title>Node2&#45;&gt;Node3</title>
<path fill="none" stroke="midnightblue" d="M455.817,-332.772C429.332,-322.629 392.354,-308.467 368.983,-299.516"/>
<polygon fill="midnightblue" stroke="midnightblue" points="454.814,-336.136 465.404,-336.444 457.317,-329.599 454.814,-336.136"/>
</g>
<!-- Node4 -->
<g id="node3" class="node"><title>Node4</title>
<g id="a_node3"><a xlink:href="modelinterface_8hh.html" target="_top" xlink:title="Määrittelee modellin operaatioiden rajapintaluokan. ">
<polygon fill="white" stroke="black" points="152.246,-224.5 152.246,-243.5 285.246,-243.5 285.246,-224.5 152.246,-224.5"/>
<text text-anchor="middle" x="218.746" y="-231.5" font-family="Helvetica,sans-Serif" font-size="10.00">Interface/modelinterface.hh</text>
</a>
</g>
</g>
<!-- Node2&#45;&gt;Node4 -->
<g id="edge32" class="edge"><title>Node2&#45;&gt;Node4</title>
<path fill="none" stroke="midnightblue" d="M401.55,-339.847C360.517,-334.265 312.15,-322.911 273.746,-300 250.133,-285.913 231.799,-257.983 223.537,-243.762"/>
<polygon fill="midnightblue" stroke="midnightblue" points="401.18,-343.328 411.541,-341.114 402.06,-336.384 401.18,-343.328"/>
</g>
<!-- Node13 -->
<g id="node12" class="node"><title>Node13</title>
<g id="a_node12"><a xlink:href="viewinterface_8hh.html" target="_top" xlink:title="Määrittelee näkymän operaatioiden rajapintaluokan. ">
<polygon fill="white" stroke="black" points="9.24589,-224.5 9.24589,-243.5 134.246,-243.5 134.246,-224.5 9.24589,-224.5"/>
<text text-anchor="middle" x="71.7459" y="-231.5" font-family="Helvetica,sans-Serif" font-size="10.00">Interface/viewinterface.hh</text>
</a>
</g>
</g>
<!-- Node2&#45;&gt;Node13 -->
<g id="edge33" class="edge"><title>Node2&#45;&gt;Node13</title>
<path fill="none" stroke="midnightblue" d="M416.121,-334.918C367.795,-327.314 302.85,-315.534 246.746,-300 188.962,-284 123.303,-257.18 91.3278,-243.534"/>
<polygon fill="midnightblue" stroke="midnightblue" points="415.754,-338.403 426.172,-336.477 416.827,-331.485 415.754,-338.403"/>
</g>
<!-- Node18 -->
<g id="node17" class="node"><title>Node18</title>
<g id="a_node17"><a xlink:href="cyberteekkari_8hh.html" target="_top" xlink:title="Model/cyberteekkari.hh">
<polygon fill="white" stroke="black" points="602.746,-224.5 602.746,-243.5 720.746,-243.5 720.746,-224.5 602.746,-224.5"/>
<text text-anchor="middle" x="661.746" y="-231.5" font-family="Helvetica,sans-Serif" font-size="10.00">Model/cyberteekkari.hh</text>
</a>
</g>
</g>
<!-- Node2&#45;&gt;Node18 -->
<g id="edge46" class="edge"><title>Node2&#45;&gt;Node18</title>
<path fill="none" stroke="midnightblue" d="M543.322,-333.825C567.596,-326.971 595.344,-316.285 616.746,-300 636.844,-284.707 651.298,-257.819 657.839,-243.904"/>
<polygon fill="midnightblue" stroke="midnightblue" points="542.27,-330.483 533.512,-336.444 544.076,-337.246 542.27,-330.483"/>
</g>
<!-- Node20 -->
<g id="node19" class="node"><title>Node20</title>
<g id="a_node19"><a xlink:href="headquartersui_8hh.html" target="_top" xlink:title="View/headquartersui.hh">
<polygon fill="white" stroke="black" points="379.746,-224.5 379.746,-243.5 497.746,-243.5 497.746,-224.5 379.746,-224.5"/>
<text text-anchor="middle" x="438.746" y="-231.5" font-family="Helvetica,sans-Serif" font-size="10.00">View/headquartersui.hh</text>
</a>
</g>
</g>
<!-- Node2&#45;&gt;Node20 -->
<g id="edge53" class="edge"><title>Node2&#45;&gt;Node20</title>
<path fill="none" stroke="midnightblue" d="M474.59,-327.948C468.802,-319.826 462.3,-309.77 457.746,-300 448.805,-280.819 443.044,-256.476 440.411,-243.713"/>
<polygon fill="midnightblue" stroke="midnightblue" points="471.917,-330.22 480.678,-336.177 477.544,-326.056 471.917,-330.22"/>
</g>
<!-- Node22 -->
<g id="node21" class="node"><title>Node22</title>
<g id="a_node21"><a xlink:href="upgradeinterface_8hh.html" target="_top" xlink:title="Interface/upgradeinterface.hh">
<polygon fill="white" stroke="black" points="467.246,-280.5 467.246,-299.5 608.246,-299.5 608.246,-280.5 467.246,-280.5"/>
<text text-anchor="middle" x="537.746" y="-287.5" font-family="Helvetica,sans-Serif" font-size="10.00">Interface/upgradeinterface.hh</text>
</a>
</g>
</g>
<!-- Node2&#45;&gt;Node22 -->
<g id="edge34" class="edge"><title>Node2&#45;&gt;Node22</title>
<path fill="none" stroke="midnightblue" d="M502.822,-328.718C511.635,-319.2 522.412,-307.561 529.643,-299.751"/>
<polygon fill="midnightblue" stroke="midnightblue" points="500.228,-326.367 496.002,-336.083 505.365,-331.123 500.228,-326.367"/>
</g>
<!-- Node27 -->
<g id="node26" class="node"><title>Node27</title>
<g id="a_node26"><a xlink:href="weaponinterface_8hh.html" target="_top" xlink:title="Interface/weaponinterface.hh">
<polygon fill="white" stroke="black" points="664.746,-280.5 664.746,-299.5 804.746,-299.5 804.746,-280.5 664.746,-280.5"/>
<text text-anchor="middle" x="734.746" y="-287.5" font-family="Helvetica,sans-Serif" font-size="10.00">Interface/weaponinterface.hh</text>
</a>
</g>
</g>
<!-- Node2&#45;&gt;Node27 -->
<g id="edge41" class="edge"><title>Node2&#45;&gt;Node27</title>
<path fill="none" stroke="midnightblue" d="M536.773,-334.281C583.449,-324.077 652.777,-308.92 695.791,-299.516"/>
<polygon fill="midnightblue" stroke="midnightblue" points="535.905,-330.888 526.884,-336.444 537.401,-337.727 535.905,-330.888"/>
</g>
<!-- Node30 -->
<g id="node29" class="node"><title>Node30</title>
<g id="a_node29"><a xlink:href="equipment_8hh.html" target="_top" xlink:title="Model/equipment.hh">
<polygon fill="white" stroke="black" points="898.746,-280.5 898.746,-299.5 1002.75,-299.5 1002.75,-280.5 898.746,-280.5"/>
<text text-anchor="middle" x="950.746" y="-287.5" font-family="Helvetica,sans-Serif" font-size="10.00">Model/equipment.hh</text>
</a>
</g>
</g>
<!-- Node2&#45;&gt;Node30 -->
<g id="edge47" class="edge"><title>Node2&#45;&gt;Node30</title>
<path fill="none" stroke="midnightblue" d="M571.013,-335.288C666.109,-324.197 818.798,-306.389 898.498,-297.094"/>
<polygon fill="midnightblue" stroke="midnightblue" points="570.381,-331.838 560.854,-336.473 571.192,-338.791 570.381,-331.838"/>
</g>
<!-- Node3&#45;&gt;Node4 -->
<g id="edge2" class="edge"><title>Node3&#45;&gt;Node4</title>
<path fill="none" stroke="midnightblue" d="M317.123,-276.503C293.127,-266.38 259.962,-252.388 238.933,-243.516"/>
<polygon fill="midnightblue" stroke="midnightblue" points="315.89,-279.781 326.464,-280.444 318.611,-273.332 315.89,-279.781"/>
</g>
<!-- Node3&#45;&gt;Node13 -->
<g id="edge14" class="edge"><title>Node3&#45;&gt;Node13</title>
<path fill="none" stroke="midnightblue" d="M293.138,-278.473C241.165,-268.268 163.308,-252.979 115.117,-243.516"/>
<polygon fill="midnightblue" stroke="midnightblue" points="292.684,-281.951 303.171,-280.444 294.033,-275.082 292.684,-281.951"/>
</g>
<!-- Node14 -->
<g id="node13" class="node"><title>Node14</title>
<g id="a_node13"><a xlink:href="player_8hh.html" target="_top" xlink:title="Model/player.hh">
<polygon fill="white" stroke="black" points="498.746,-168.5 498.746,-187.5 584.746,-187.5 584.746,-168.5 498.746,-168.5"/>
<text text-anchor="middle" x="541.746" y="-175.5" font-family="Helvetica,sans-Serif" font-size="10.00">Model/player.hh</text>
</a>
</g>
</g>
<!-- Node3&#45;&gt;Node14 -->
<g id="edge17" class="edge"><title>Node3&#45;&gt;Node14</title>
<path fill="none" stroke="midnightblue" d="M348.907,-270.51C351.586,-255.882 357.546,-235.986 370.746,-224 380.49,-215.152 453.923,-197.963 501.338,-187.58"/>
<polygon fill="midnightblue" stroke="midnightblue" points="345.437,-270.046 347.432,-280.452 352.362,-271.073 345.437,-270.046"/>
</g>
<!-- Node15 -->
<g id="node14" class="node"><title>Node15</title>
<g id="a_node14"><a xlink:href="playerparty_8hh.html" target="_top" xlink:title="Model/playerparty.hh">
<polygon fill="white" stroke="black" points="755.246,-112.5 755.246,-131.5 862.246,-131.5 862.246,-112.5 755.246,-112.5"/>
<text text-anchor="middle" x="808.746" y="-119.5" font-family="Helvetica,sans-Serif" font-size="10.00">Model/playerparty.hh</text>
</a>
</g>
</g>
<!-- Node3&#45;&gt;Node15 -->
<g id="edge28" class="edge"><title>Node3&#45;&gt;Node15</title>
<path fill="none" stroke="midnightblue" d="M341.226,-270.286C334.661,-243.705 327.607,-195.228 353.746,-168 367.489,-153.684 637.468,-134.271 754.927,-126.463"/>
<polygon fill="midnightblue" stroke="midnightblue" points="337.922,-271.473 343.912,-280.212 344.679,-269.645 337.922,-271.473"/>
</g>
<!-- Node3&#45;&gt;Node18 -->
<g id="edge23" class="edge"><title>Node3&#45;&gt;Node18</title>
<path fill="none" stroke="midnightblue" d="M406.669,-278.727C466.195,-268.523 556.406,-253.058 612.067,-243.516"/>
<polygon fill="midnightblue" stroke="midnightblue" points="405.923,-275.304 396.659,-280.444 407.106,-282.203 405.923,-275.304"/>
</g>
<!-- Node3&#45;&gt;Node20 -->
<g id="edge29" class="edge"><title>Node3&#45;&gt;Node20</title>
<path fill="none" stroke="midnightblue" d="M370.296,-275.177C387.225,-265.241 409.529,-252.149 424.001,-243.655"/>
<polygon fill="midnightblue" stroke="midnightblue" points="368.38,-272.243 361.527,-280.324 371.923,-278.28 368.38,-272.243"/>
</g>
<!-- Node5 -->
<g id="node4" class="node"><title>Node5</title>
<g id="a_node4"><a xlink:href="controllerinterface_8hh.html" target="_top" xlink:title="Interface/controllerinterface.hh">
<polygon fill="white" stroke="black" points="84.7459,-168.5 84.7459,-187.5 230.746,-187.5 230.746,-168.5 84.7459,-168.5"/>
<text text-anchor="middle" x="157.746" y="-175.5" font-family="Helvetica,sans-Serif" font-size="10.00">Interface/controllerinterface.hh</text>
</a>
</g>
</g>
<!-- Node4&#45;&gt;Node5 -->
<g id="edge3" class="edge"><title>Node4&#45;&gt;Node5</title>
<path fill="none" stroke="midnightblue" d="M201.279,-217.537C190.402,-207.909 176.802,-195.869 167.725,-187.834"/>
<polygon fill="midnightblue" stroke="midnightblue" points="199.138,-220.316 208.945,-224.324 203.777,-215.075 199.138,-220.316"/>
</g>
<!-- Node9 -->
<g id="node8" class="node"><title>Node9</title>
<g id="a_node8"><a xlink:href="model_8hh.html" target="_top" xlink:title="Model/model.hh">
<polygon fill="white" stroke="black" points="462.746,-56.5 462.746,-75.5 548.746,-75.5 548.746,-56.5 462.746,-56.5"/>
<text text-anchor="middle" x="505.746" y="-63.5" font-family="Helvetica,sans-Serif" font-size="10.00">Model/model.hh</text>
</a>
</g>
</g>
<!-- Node4&#45;&gt;Node9 -->
<g id="edge13" class="edge"><title>Node4&#45;&gt;Node9</title>
<path fill="none" stroke="midnightblue" d="M231.988,-216.459C244.051,-202.207 262.956,-181.808 282.746,-168 347.228,-123.008 434.971,-90.298 478.681,-75.615"/>
<polygon fill="midnightblue" stroke="midnightblue" points="229.08,-214.484 225.415,-224.424 234.479,-218.939 229.08,-214.484"/>
</g>
<!-- Node6 -->
<g id="node5" class="node"><title>Node6</title>
<g id="a_node5"><a xlink:href="controller_8hh.html" target="_top" xlink:title="Controller/controller.hh">
<polygon fill="white" stroke="black" points="103.746,-112.5 103.746,-131.5 217.746,-131.5 217.746,-112.5 103.746,-112.5"/>
<text text-anchor="middle" x="160.746" y="-119.5" font-family="Helvetica,sans-Serif" font-size="10.00">Controller/controller.hh</text>
</a>
</g>
</g>
<!-- Node5&#45;&gt;Node6 -->
<g id="edge4" class="edge"><title>Node5&#45;&gt;Node6</title>
<path fill="none" stroke="midnightblue" d="M158.812,-157.805C159.306,-148.91 159.869,-138.78 160.26,-131.751"/>
<polygon fill="midnightblue" stroke="midnightblue" points="155.301,-157.904 158.241,-168.083 162.291,-158.293 155.301,-157.904"/>
</g>
<!-- Node5&#45;&gt;Node9 -->
<g id="edge7" class="edge"><title>Node5&#45;&gt;Node9</title>
<path fill="none" stroke="midnightblue" d="M177.856,-162.501C199.505,-147.59 235.465,-124.791 269.746,-112 334.421,-87.8675 414.108,-76.1302 462.366,-70.8475"/>
<polygon fill="midnightblue" stroke="midnightblue" points="175.681,-159.752 169.501,-168.357 179.699,-165.484 175.681,-159.752"/>
</g>
<!-- Node11 -->
<g id="node10" class="node"><title>Node11</title>
<g id="a_node10"><a xlink:href="view_8hh.html" target="_top" xlink:title="View/view.hh">
<polygon fill="white" stroke="black" points="13.7459,-112.5 13.7459,-131.5 85.7459,-131.5 85.7459,-112.5 13.7459,-112.5"/>
<text text-anchor="middle" x="49.7459" y="-119.5" font-family="Helvetica,sans-Serif" font-size="10.00">View/view.hh</text>
</a>
</g>
</g>
<!-- Node5&#45;&gt;Node11 -->
<g id="edge10" class="edge"><title>Node5&#45;&gt;Node11</title>
<path fill="none" stroke="midnightblue" d="M131.198,-163.726C111.2,-153.727 84.3589,-140.307 67.0549,-131.655"/>
<polygon fill="midnightblue" stroke="midnightblue" points="129.884,-166.982 140.394,-168.324 133.015,-160.721 129.884,-166.982"/>
</g>
<!-- Node7 -->
<g id="node6" class="node"><title>Node7</title>
<g id="a_node6"><a xlink:href="controller_8cc.html" target="_top" xlink:title="Controller/controller.cc">
<polygon fill="white" stroke="black" points="103.746,-56.5 103.746,-75.5 217.746,-75.5 217.746,-56.5 103.746,-56.5"/>
<text text-anchor="middle" x="160.746" y="-63.5" font-family="Helvetica,sans-Serif" font-size="10.00">Controller/controller.cc</text>
</a>
</g>
</g>
<!-- Node6&#45;&gt;Node7 -->
<g id="edge5" class="edge"><title>Node6&#45;&gt;Node7</title>
<path fill="none" stroke="midnightblue" d="M160.746,-101.805C160.746,-92.9102 160.746,-82.7798 160.746,-75.7511"/>
<polygon fill="midnightblue" stroke="midnightblue" points="157.246,-102.083 160.746,-112.083 164.246,-102.083 157.246,-102.083"/>
</g>
<!-- Node8 -->
<g id="node7" class="node"><title>Node8</title>
<g id="a_node7"><a xlink:href="main_8cc.html" target="_top" xlink:title="main.cc">
<polygon fill="white" stroke="black" points="220.246,-0.5 220.246,-19.5 271.246,-19.5 271.246,-0.5 220.246,-0.5"/>
<text text-anchor="middle" x="245.746" y="-7.5" font-family="Helvetica,sans-Serif" font-size="10.00">main.cc</text>
</a>
</g>
</g>
<!-- Node6&#45;&gt;Node8 -->
<g id="edge6" class="edge"><title>Node6&#45;&gt;Node8</title>
<path fill="none" stroke="midnightblue" d="M188.74,-107.685C201.991,-100.091 217.009,-89.3999 226.746,-76 239.324,-58.6897 243.621,-33.1394 245.054,-19.8145"/>
<polygon fill="midnightblue" stroke="midnightblue" points="187.069,-104.61 179.935,-112.443 190.396,-110.768 187.069,-104.61"/>
</g>
<!-- Node9&#45;&gt;Node8 -->
<g id="edge8" class="edge"><title>Node9&#45;&gt;Node8</title>
<path fill="none" stroke="midnightblue" d="M454.619,-54.3814C399.452,-42.9237 313.82,-25.1386 271.383,-16.3245"/>
<polygon fill="midnightblue" stroke="midnightblue" points="454.045,-57.8368 464.548,-56.4435 455.469,-50.9831 454.045,-57.8368"/>
</g>
<!-- Node10 -->
<g id="node9" class="node"><title>Node10</title>
<g id="a_node9"><a xlink:href="model_8cc.html" target="_top" xlink:title="Model/model.cc">
<polygon fill="white" stroke="black" points="462.746,-0.5 462.746,-19.5 548.746,-19.5 548.746,-0.5 462.746,-0.5"/>
<text text-anchor="middle" x="505.746" y="-7.5" font-family="Helvetica,sans-Serif" font-size="10.00">Model/model.cc</text>
</a>
</g>
</g>
<!-- Node9&#45;&gt;Node10 -->
<g id="edge9" class="edge"><title>Node9&#45;&gt;Node10</title>
<path fill="none" stroke="midnightblue" d="M505.746,-45.8045C505.746,-36.9102 505.746,-26.7798 505.746,-19.7511"/>
<polygon fill="midnightblue" stroke="midnightblue" points="502.246,-46.083 505.746,-56.083 509.246,-46.083 502.246,-46.083"/>
</g>
<!-- Node11&#45;&gt;Node8 -->
<g id="edge11" class="edge"><title>Node11&#45;&gt;Node8</title>
<path fill="none" stroke="midnightblue" d="M28.0963,-106.416C10.6543,-92.8857 -8.89456,-72.4232 4.74589,-56 31.9407,-23.2573 163.738,-14.2092 220.099,-11.8175"/>
<polygon fill="midnightblue" stroke="midnightblue" points="26.1999,-109.365 36.3348,-112.453 30.3374,-103.719 26.1999,-109.365"/>
</g>
<!-- Node12 -->
<g id="node11" class="node"><title>Node12</title>
<g id="a_node11"><a xlink:href="view_8cc.html" target="_top" xlink:title="View/view.cc">
<polygon fill="white" stroke="black" points="13.7459,-56.5 13.7459,-75.5 85.7459,-75.5 85.7459,-56.5 13.7459,-56.5"/>
<text text-anchor="middle" x="49.7459" y="-63.5" font-family="Helvetica,sans-Serif" font-size="10.00">View/view.cc</text>
</a>
</g>
</g>
<!-- Node11&#45;&gt;Node12 -->
<g id="edge12" class="edge"><title>Node11&#45;&gt;Node12</title>
<path fill="none" stroke="midnightblue" d="M49.7459,-101.805C49.7459,-92.9102 49.7459,-82.7798 49.7459,-75.7511"/>
<polygon fill="midnightblue" stroke="midnightblue" points="46.246,-102.083 49.7459,-112.083 53.246,-102.083 46.246,-102.083"/>
</g>
<!-- Node13&#45;&gt;Node5 -->
<g id="edge15" class="edge"><title>Node13&#45;&gt;Node5</title>
<path fill="none" stroke="midnightblue" d="M94.2006,-218.901C109.97,-208.999 130.559,-196.071 143.963,-187.655"/>
<polygon fill="midnightblue" stroke="midnightblue" points="92.171,-216.042 85.5633,-224.324 95.8934,-221.97 92.171,-216.042"/>
</g>
<!-- Node13&#45;&gt;Node11 -->
<g id="edge16" class="edge"><title>Node13&#45;&gt;Node11</title>
<path fill="none" stroke="midnightblue" d="M68.0155,-214.348C63.1966,-190.254 55.0075,-149.308 51.4642,-131.591"/>
<polygon fill="midnightblue" stroke="midnightblue" points="64.6263,-215.249 70.0196,-224.368 71.4904,-213.876 64.6263,-215.249"/>
</g>
<!-- Node14&#45;&gt;Node9 -->
<g id="edge18" class="edge"><title>Node14&#45;&gt;Node9</title>
<path fill="none" stroke="midnightblue" d="M534.531,-158.863C531.379,-150.704 527.73,-140.921 524.746,-132 518.107,-112.153 511.515,-88.4812 508.114,-75.8983"/>
<polygon fill="midnightblue" stroke="midnightblue" points="531.379,-160.412 538.289,-168.444 537.896,-157.856 531.379,-160.412"/>
</g>
<!-- Node14&#45;&gt;Node15 -->
<g id="edge19" class="edge"><title>Node14&#45;&gt;Node15</title>
<path fill="none" stroke="midnightblue" d="M594.11,-166.41C644.57,-156.204 719.945,-140.96 766.637,-131.516"/>
<polygon fill="midnightblue" stroke="midnightblue" points="593.161,-163.031 584.053,-168.444 594.548,-169.892 593.161,-163.031"/>
</g>
<!-- Node17 -->
<g id="node16" class="node"><title>Node17</title>
<g id="a_node16"><a xlink:href="player_8cc.html" target="_top" xlink:title="Model/player.cc">
<polygon fill="white" stroke="black" points="533.746,-112.5 533.746,-131.5 619.746,-131.5 619.746,-112.5 533.746,-112.5"/>
<text text-anchor="middle" x="576.746" y="-119.5" font-family="Helvetica,sans-Serif" font-size="10.00">Model/player.cc</text>
</a>
</g>
</g>
<!-- Node14&#45;&gt;Node17 -->
<g id="edge22" class="edge"><title>Node14&#45;&gt;Node17</title>
<path fill="none" stroke="midnightblue" d="M553.046,-159.566C559.068,-150.275 566.215,-139.248 571.074,-131.751"/>
<polygon fill="midnightblue" stroke="midnightblue" points="550.027,-157.788 547.525,-168.083 555.901,-161.595 550.027,-157.788"/>
</g>
<!-- Node15&#45;&gt;Node9 -->
<g id="edge20" class="edge"><title>Node15&#45;&gt;Node9</title>
<path fill="none" stroke="midnightblue" d="M750.842,-110.681C691.976,-100.189 602.111,-84.174 549.114,-74.729"/>
<polygon fill="midnightblue" stroke="midnightblue" points="750.276,-114.135 760.735,-112.444 751.504,-107.243 750.276,-114.135"/>
</g>
<!-- Node16 -->
<g id="node15" class="node"><title>Node16</title>
<g id="a_node15"><a xlink:href="playerparty_8cc.html" target="_top" xlink:title="Model/playerparty.cc">
<polygon fill="white" stroke="black" points="755.246,-56.5 755.246,-75.5 862.246,-75.5 862.246,-56.5 755.246,-56.5"/>
<text text-anchor="middle" x="808.746" y="-63.5" font-family="Helvetica,sans-Serif" font-size="10.00">Model/playerparty.cc</text>
</a>
</g>
</g>
<!-- Node15&#45;&gt;Node16 -->
<g id="edge21" class="edge"><title>Node15&#45;&gt;Node16</title>
<path fill="none" stroke="midnightblue" d="M808.746,-101.805C808.746,-92.9102 808.746,-82.7798 808.746,-75.7511"/>
<polygon fill="midnightblue" stroke="midnightblue" points="805.246,-102.083 808.746,-112.083 812.246,-102.083 805.246,-102.083"/>
</g>
<!-- Node18&#45;&gt;Node9 -->
<g id="edge25" class="edge"><title>Node18&#45;&gt;Node9</title>
<path fill="none" stroke="midnightblue" d="M692.605,-220.087C716.063,-208.255 742.331,-189.368 729.746,-168 692.185,-104.225 602.648,-80.5036 548.84,-71.8374"/>
<polygon fill="midnightblue" stroke="midnightblue" points="691.035,-216.958 683.51,-224.416 694.043,-223.279 691.035,-216.958"/>
</g>
<!-- Node18&#45;&gt;Node14 -->
<g id="edge24" class="edge"><title>Node18&#45;&gt;Node14</title>
<path fill="none" stroke="midnightblue" d="M633.373,-220.232C610.926,-210.131 580.211,-196.309 560.671,-187.516"/>
<polygon fill="midnightblue" stroke="midnightblue" points="632.176,-223.532 642.732,-224.444 635.049,-217.148 632.176,-223.532"/>
</g>
<!-- Node18&#45;&gt;Node15 -->
<g id="edge26" class="edge"><title>Node18&#45;&gt;Node15</title>
<path fill="none" stroke="midnightblue" d="M700.896,-221.134C720.84,-213.776 744.635,-202.858 762.746,-188 782.412,-171.866 797.572,-145.346 804.544,-131.704"/>
<polygon fill="midnightblue" stroke="midnightblue" points="699.724,-217.836 691.456,-224.462 702.051,-224.438 699.724,-217.836"/>
</g>
<!-- Node19 -->
<g id="node18" class="node"><title>Node19</title>
<g id="a_node18"><a xlink:href="cyberteekkari_8cc.html" target="_top" xlink:title="Model/cyberteekkari.cc">
<polygon fill="white" stroke="black" points="602.746,-168.5 602.746,-187.5 720.746,-187.5 720.746,-168.5 602.746,-168.5"/>
<text text-anchor="middle" x="661.746" y="-175.5" font-family="Helvetica,sans-Serif" font-size="10.00">Model/cyberteekkari.cc</text>
</a>
</g>
</g>
<!-- Node18&#45;&gt;Node19 -->
<g id="edge27" class="edge"><title>Node18&#45;&gt;Node19</title>
<path fill="none" stroke="midnightblue" d="M661.746,-213.805C661.746,-204.91 661.746,-194.78 661.746,-187.751"/>
<polygon fill="midnightblue" stroke="midnightblue" points="658.246,-214.083 661.746,-224.083 665.246,-214.083 658.246,-214.083"/>
</g>
<!-- Node20&#45;&gt;Node11 -->
<g id="edge30" class="edge"><title>Node20&#45;&gt;Node11</title>
<path fill="none" stroke="midnightblue" d="M405.125,-221.07C365.767,-207.326 298.485,-184.518 239.746,-168 186.717,-153.088 124.454,-138.975 86.0464,-130.656"/>
<polygon fill="midnightblue" stroke="midnightblue" points="404.149,-224.437 414.744,-224.443 406.466,-217.831 404.149,-224.437"/>
</g>
<!-- Node21 -->
<g id="node20" class="node"><title>Node21</title>
<g id="a_node20"><a xlink:href="headquartersui_8cc.html" target="_top" xlink:title="View/headquartersui.cc">
<polygon fill="white" stroke="black" points="362.746,-168.5 362.746,-187.5 480.746,-187.5 480.746,-168.5 362.746,-168.5"/>
<text text-anchor="middle" x="421.746" y="-175.5" font-family="Helvetica,sans-Serif" font-size="10.00">View/headquartersui.cc</text>
</a>
</g>
</g>
<!-- Node20&#45;&gt;Node21 -->
<g id="edge31" class="edge"><title>Node20&#45;&gt;Node21</title>
<path fill="none" stroke="midnightblue" d="M432.889,-214.396C430.045,-205.362 426.763,-194.936 424.501,-187.751"/>
<polygon fill="midnightblue" stroke="midnightblue" points="429.597,-215.596 435.939,-224.083 436.274,-213.493 429.597,-215.596"/>
</g>
<!-- Node22&#45;&gt;Node20 -->
<g id="edge40" class="edge"><title>Node22&#45;&gt;Node20</title>
<path fill="none" stroke="midnightblue" d="M512.909,-275.453C494.632,-265.483 470.33,-252.228 454.612,-243.655"/>
<polygon fill="midnightblue" stroke="midnightblue" points="511.385,-278.608 521.84,-280.324 514.737,-272.463 511.385,-278.608"/>
</g>
<!-- Node23 -->
<g id="node22" class="node"><title>Node23</title>
<g id="a_node22"><a xlink:href="upgrade_8hh.html" target="_top" xlink:title="Model/upgrade.hh">
<polygon fill="white" stroke="black" points="738.746,-224.5 738.746,-243.5 832.746,-243.5 832.746,-224.5 738.746,-224.5"/>
<text text-anchor="middle" x="785.746" y="-231.5" font-family="Helvetica,sans-Serif" font-size="10.00">Model/upgrade.hh</text>
</a>
</g>
</g>
<!-- Node22&#45;&gt;Node23 -->
<g id="edge35" class="edge"><title>Node22&#45;&gt;Node23</title>
<path fill="none" stroke="midnightblue" d="M586.972,-278.281C633.837,-268.077 703.445,-252.92 746.633,-243.516"/>
<polygon fill="midnightblue" stroke="midnightblue" points="586.069,-274.896 577.042,-280.444 587.558,-281.736 586.069,-274.896"/>
</g>
<!-- Node24 -->
<g id="node23" class="node"><title>Node24</title>
<g id="a_node23"><a xlink:href="filemanager_8hh.html" target="_top" xlink:title="Model/filemanager.hh">
<polygon fill="white" stroke="black" points="1037.25,-168.5 1037.25,-187.5 1146.25,-187.5 1146.25,-168.5 1037.25,-168.5"/>
<text text-anchor="middle" x="1091.75" y="-175.5" font-family="Helvetica,sans-Serif" font-size="10.00">Model/filemanager.hh</text>
</a>
</g>
</g>
<!-- Node23&#45;&gt;Node24 -->
<g id="edge36" class="edge"><title>Node23&#45;&gt;Node24</title>
<path fill="none" stroke="midnightblue" d="M842.96,-222.903C900.79,-212.698 989.162,-197.103 1043.54,-187.507"/>
<polygon fill="midnightblue" stroke="midnightblue" points="842.127,-219.496 832.888,-224.681 843.344,-226.39 842.127,-219.496"/>
</g>
<!-- Node26 -->
<g id="node25" class="node"><title>Node26</title>
<g id="a_node25"><a xlink:href="upgrade_8cc.html" target="_top" xlink:title="Model/upgrade.cc">
<polygon fill="white" stroke="black" points="814.746,-168.5 814.746,-187.5 908.746,-187.5 908.746,-168.5 814.746,-168.5"/>
<text text-anchor="middle" x="861.746" y="-175.5" font-family="Helvetica,sans-Serif" font-size="10.00">Model/upgrade.cc</text>
</a>
</g>
</g>
<!-- Node23&#45;&gt;Node26 -->
<g id="edge39" class="edge"><title>Node23&#45;&gt;Node26</title>
<path fill="none" stroke="midnightblue" d="M806.322,-218.38C820.058,-208.62 837.671,-196.106 849.313,-187.834"/>
<polygon fill="midnightblue" stroke="midnightblue" points="804.081,-215.679 797.957,-224.324 808.136,-221.385 804.081,-215.679"/>
</g>
<!-- Node24&#45;&gt;Node9 -->
<g id="edge37" class="edge"><title>Node24&#45;&gt;Node9</title>
<path fill="none" stroke="midnightblue" d="M1057.88,-165.156C1014.89,-150.559 938.179,-125.976 870.746,-112 755.711,-88.1585 617.479,-75.3421 548.823,-70.0188"/>
<polygon fill="midnightblue" stroke="midnightblue" points="1056.95,-168.539 1067.55,-168.464 1059.22,-161.916 1056.95,-168.539"/>
</g>
<!-- Node25 -->
<g id="node24" class="node"><title>Node25</title>
<g id="a_node24"><a xlink:href="filemanager_8cc.html" target="_top" xlink:title="Model/filemanager.cc">
<polygon fill="white" stroke="black" points="1037.25,-112.5 1037.25,-131.5 1146.25,-131.5 1146.25,-112.5 1037.25,-112.5"/>
<text text-anchor="middle" x="1091.75" y="-119.5" font-family="Helvetica,sans-Serif" font-size="10.00">Model/filemanager.cc</text>
</a>
</g>
</g>
<!-- Node24&#45;&gt;Node25 -->
<g id="edge38" class="edge"><title>Node24&#45;&gt;Node25</title>
<path fill="none" stroke="midnightblue" d="M1091.75,-157.805C1091.75,-148.91 1091.75,-138.78 1091.75,-131.751"/>
<polygon fill="midnightblue" stroke="midnightblue" points="1088.25,-158.083 1091.75,-168.083 1095.25,-158.083 1088.25,-158.083"/>
</g>
<!-- Node27&#45;&gt;Node20 -->
<g id="edge45" class="edge"><title>Node27&#45;&gt;Node20</title>
<path fill="none" stroke="midnightblue" d="M677.742,-278.601C621.802,-268.395 537.516,-253.019 485.429,-243.516"/>
<polygon fill="midnightblue" stroke="midnightblue" points="677.378,-282.092 687.844,-280.444 678.634,-275.206 677.378,-282.092"/>
</g>
<!-- Node28 -->
<g id="node27" class="node"><title>Node28</title>
<g id="a_node27"><a xlink:href="weapon_8hh.html" target="_top" xlink:title="Model/weapon.hh">
<polygon fill="white" stroke="black" points="850.746,-224.5 850.746,-243.5 942.746,-243.5 942.746,-224.5 850.746,-224.5"/>
<text text-anchor="middle" x="896.746" y="-231.5" font-family="Helvetica,sans-Serif" font-size="10.00">Model/weapon.hh</text>
</a>
</g>
</g>
<!-- Node27&#45;&gt;Node28 -->
<g id="edge42" class="edge"><title>Node27&#45;&gt;Node28</title>
<path fill="none" stroke="midnightblue" d="M770.23,-277.172C800.734,-267.004 843.99,-252.585 871.197,-243.516"/>
<polygon fill="midnightblue" stroke="midnightblue" points="768.795,-273.961 760.415,-280.444 771.009,-280.602 768.795,-273.961"/>
</g>
<!-- Node28&#45;&gt;Node24 -->
<g id="edge43" class="edge"><title>Node28&#45;&gt;Node24</title>
<path fill="none" stroke="midnightblue" d="M937.556,-221.699C974.359,-211.507 1027.67,-196.743 1060.99,-187.516"/>
<polygon fill="midnightblue" stroke="midnightblue" points="936.347,-218.402 927.644,-224.444 938.216,-225.148 936.347,-218.402"/>
</g>
<!-- Node29 -->
<g id="node28" class="node"><title>Node29</title>
<g id="a_node28"><a xlink:href="weapon_8cc.html" target="_top" xlink:title="Model/weapon.cc">
<polygon fill="white" stroke="black" points="926.746,-168.5 926.746,-187.5 1018.75,-187.5 1018.75,-168.5 926.746,-168.5"/>
<text text-anchor="middle" x="972.746" y="-175.5" font-family="Helvetica,sans-Serif" font-size="10.00">Model/weapon.cc</text>
</a>
</g>
</g>
<!-- Node28&#45;&gt;Node29 -->
<g id="edge44" class="edge"><title>Node28&#45;&gt;Node29</title>
<path fill="none" stroke="midnightblue" d="M917.322,-218.38C931.058,-208.62 948.671,-196.106 960.313,-187.834"/>
<polygon fill="midnightblue" stroke="midnightblue" points="915.081,-215.679 908.957,-224.324 919.136,-221.385 915.081,-215.679"/>
</g>
<!-- Node30&#45;&gt;Node14 -->
<g id="edge49" class="edge"><title>Node30&#45;&gt;Node14</title>
<path fill="none" stroke="midnightblue" d="M888.306,-283.696C792.812,-275.201 618.854,-258.068 593.746,-244 570.044,-230.72 553.11,-201.89 545.787,-187.511"/>
<polygon fill="midnightblue" stroke="midnightblue" points="888.151,-287.196 898.421,-284.59 888.767,-280.223 888.151,-287.196"/>
</g>
<!-- Node30&#45;&gt;Node15 -->
<g id="edge51" class="edge"><title>Node30&#45;&gt;Node15</title>
<path fill="none" stroke="midnightblue" d="M1005.83,-278.313C1081.75,-261.248 1203.9,-223.96 1154.75,-168 1135.78,-146.41 954.841,-132.103 862.459,-126.144"/>
<polygon fill="midnightblue" stroke="midnightblue" points="1004.92,-274.929 995.906,-280.49 1006.42,-281.767 1004.92,-274.929"/>
</g>
<!-- Node30&#45;&gt;Node18 -->
<g id="edge48" class="edge"><title>Node30&#45;&gt;Node18</title>
<path fill="none" stroke="midnightblue" d="M895.091,-278.601C840.473,-268.395 758.18,-253.019 707.325,-243.516"/>
<polygon fill="midnightblue" stroke="midnightblue" points="894.48,-282.047 904.953,-280.444 895.766,-275.166 894.48,-282.047"/>
</g>
<!-- Node30&#45;&gt;Node24 -->
<g id="edge50" class="edge"><title>Node30&#45;&gt;Node24</title>
<path fill="none" stroke="midnightblue" d="M1012.89,-278.476C1034.77,-271.902 1057.84,-261.247 1073.75,-244 1088.35,-228.164 1091.26,-201.513 1091.74,-187.775"/>
<polygon fill="midnightblue" stroke="midnightblue" points="1011.67,-275.184 1002.96,-281.219 1013.53,-281.931 1011.67,-275.184"/>
</g>
<!-- Node31 -->
<g id="node30" class="node"><title>Node31</title>
<g id="a_node30"><a xlink:href="equipment_8cc.html" target="_top" xlink:title="Model/equipment.cc">
<polygon fill="white" stroke="black" points="960.746,-224.5 960.746,-243.5 1064.75,-243.5 1064.75,-224.5 960.746,-224.5"/>
<text text-anchor="middle" x="1012.75" y="-231.5" font-family="Helvetica,sans-Serif" font-size="10.00">Model/equipment.cc</text>
</a>
</g>
</g>
<!-- Node30&#45;&gt;Node31 -->
<g id="edge52" class="edge"><title>Node30&#45;&gt;Node31</title>
<path fill="none" stroke="midnightblue" d="M968.499,-273.537C979.554,-263.909 993.377,-251.869 1002.6,-243.834"/>
<polygon fill="midnightblue" stroke="midnightblue" points="965.949,-271.117 960.707,-280.324 970.547,-276.395 965.949,-271.117"/>
</g>
</g>
</svg>
        <g id="navigator" transform="translate(0 0)" fill="#404254">
                <rect fill="#f2f5e9" fill-opacity="0.5" stroke="#606060" stroke-width=".5" x="0" y="0" width="60" height="60"/>
                <use id="zoomplus" xlink:href="#zoomPlus" x="17" y="9" onmousedown="handleZoom(evt,'in')"/>
                <use id="zoomminus" xlink:href="#zoomMin" x="42" y="9" onmousedown="handleZoom(evt,'out')"/>
                <use id="reset" xlink:href="#resetDef" x="30" y="36" onmousedown="handleReset()"/>
                <g id="arrowUp" xlink:href="#dirArrow" transform="translate(30 24)" onmousedown="handlePan(0,-1)">
                  <use xlink:href="#rim" fill="#404040">
                        <set attributeName="fill" to="#808080" begin="arrowUp.mouseover" end="arrowUp.mouseout"/>
                  </use>
                  <path fill="none" stroke="white" stroke-width="1.5" d="M0,-3.0v7 M-2.5,-0.5L0,-3.0L2.5,-0.5"/>
                </g>
                <g id="arrowRight" xlink:href="#dirArrow" transform="rotate(90) translate(36 -43)" onmousedown="handlePan(1,0)">
                  <use xlink:href="#rim" fill="#404040">
                        <set attributeName="fill" to="#808080" begin="arrowRight.mouseover" end="arrowRight.mouseout"/>
                  </use>
                  <path fill="none" stroke="white" stroke-width="1.5" d="M0,-3.0v7 M-2.5,-0.5L0,-3.0L2.5,-0.5"/>
                </g>
                <g id="arrowDown" xlink:href="#dirArrow" transform="rotate(180) translate(-30 -48)" onmousedown="handlePan(0,1)">
                  <use xlink:href="#rim" fill="#404040">
                        <set attributeName="fill" to="#808080" begin="arrowDown.mouseover" end="arrowDown.mouseout"/>
                  </use>
                  <path fill="none" stroke="white" stroke-width="1.5" d="M0,-3.0v7 M-2.5,-0.5L0,-3.0L2.5,-0.5"/>
                </g>
                <g id="arrowLeft" xlink:href="#dirArrow" transform="rotate(270) translate(-36 17)" onmousedown="handlePan(-1,0)">
                  <use xlink:href="#rim" fill="#404040">
                        <set attributeName="fill" to="#808080" begin="arrowLeft.mouseover" end="arrowLeft.mouseout"/>
                  </use>
                  <path fill="none" stroke="white" stroke-width="1.5" d="M0,-3.0v7 M-2.5,-0.5L0,-3.0L2.5,-0.5"/>
                </g>
        </g>
        <svg viewBox="0 0 15 15" width="100%" height="30px" preserveAspectRatio="xMaxYMin meet">
         <g id="arrow_out" transform="scale(0.3 0.3)">
          <a xlink:href="equipmentinterface_8hh__dep__incl_org.svg" target="_base">
           <rect id="button" ry="5" rx="5" y="6" x="6" height="38" width="38"
                fill="#f2f5e9" fill-opacity="0.5" stroke="#606060" stroke-width="1.0"/>
           <path id="arrow"
             d="M 11.500037,31.436501 C 11.940474,20.09759 22.043105,11.32322 32.158766,21.979434 L 37.068811,17.246167 C 37.068811,17.246167 37.088388,32 37.088388,32 L 22.160133,31.978069 C 22.160133,31.978069 26.997745,27.140456 26.997745,27.140456 C 18.528582,18.264221 13.291696,25.230495 11.500037,31.436501 z"
             style="fill:#404040;"/>
          </a>
         </g>
        </svg>
</svg>
