<?xml version="1.0" encoding="UTF-8" standalone="no"?>
<!DOCTYPE svg PUBLIC "-//W3C//DTD SVG 1.1//EN"
 "http://www.w3.org/Graphics/SVG/1.1/DTD/svg11.dtd">
<!-- Generated by graphviz version 2.38.0 (20140413.2041)
 -->
<!-- Title: Model/filemanager.hh Pages: 1 -->
<svg width="436pt" height="252pt"
 viewBox="0.00 0.00 435.50 252.00" xmlns="http://www.w3.org/2000/svg" xmlns:xlink="http://www.w3.org/1999/xlink">
<g id="graph0" class="graph" transform="scale(1 1) rotate(0) translate(4 248)">
<title>Model/filemanager.hh</title>
<polygon fill="white" stroke="none" points="-4,4 -4,-248 431.5,-248 431.5,4 -4,4"/>
<!-- Node0 -->
<g id="node1" class="node"><title>Node0</title>
<polygon fill="#bfbfbf" stroke="black" points="83.5,-224.5 83.5,-243.5 192.5,-243.5 192.5,-224.5 83.5,-224.5"/>
<text text-anchor="middle" x="138" y="-231.5" font-family="Helvetica,sans-Serif" font-size="10.00">Model/filemanager.hh</text>
</g>
<!-- Node1 -->
<g id="node2" class="node"><title>Node1</title>
<polygon fill="white" stroke="#bfbfbf" points="0,-168.5 0,-187.5 40,-187.5 40,-168.5 0,-168.5"/>
<text text-anchor="middle" x="20" y="-175.5" font-family="Helvetica,sans-Serif" font-size="10.00">QFile</text>
</g>
<!-- Node0&#45;&gt;Node1 -->
<g id="edge1" class="edge"><title>Node0&#45;&gt;Node1</title>
<path fill="none" stroke="midnightblue" d="M119.303,-224.444C100.056,-215.636 69.8475,-201.812 47.7999,-191.722"/>
<polygon fill="midnightblue" stroke="midnightblue" points="49.1595,-188.495 38.61,-187.516 46.2466,-194.86 49.1595,-188.495"/>
</g>
<!-- Node2 -->
<g id="node3" class="node"><title>Node2</title>
<polygon fill="white" stroke="#bfbfbf" points="58,-168.5 58,-187.5 110,-187.5 110,-168.5 58,-168.5"/>
<text text-anchor="middle" x="84" y="-175.5" font-family="Helvetica,sans-Serif" font-size="10.00">memory</text>
</g>
<!-- Node0&#45;&gt;Node2 -->
<g id="edge2" class="edge"><title>Node0&#45;&gt;Node2</title>
<path fill="none" stroke="midnightblue" d="M129.083,-224.083C121.22,-216.22 109.569,-204.569 100.081,-195.081"/>
<polygon fill="midnightblue" stroke="midnightblue" points="102.297,-192.347 92.7511,-187.751 97.3473,-197.297 102.297,-192.347"/>
</g>
<!-- Node3 -->
<g id="node4" class="node"><title>Node3</title>
<g id="a_node4"><a xlink:href="equipment_8hh.html" target="_top" xlink:title="equipment.hh">
<polygon fill="white" stroke="black" points="34.5,-112.5 34.5,-131.5 109.5,-131.5 109.5,-112.5 34.5,-112.5"/>
<text text-anchor="middle" x="72" y="-119.5" font-family="Helvetica,sans-Serif" font-size="10.00">equipment.hh</text>
</a>
</g>
</g>
<!-- Node0&#45;&gt;Node3 -->
<g id="edge3" class="edge"><title>Node0&#45;&gt;Node3</title>
<path fill="none" stroke="midnightblue" d="M136.939,-224.431C135.024,-211.427 130.107,-186.289 119,-168 112.016,-156.499 101.356,-145.959 91.9533,-137.975"/>
<polygon fill="midnightblue" stroke="midnightblue" points="94.1148,-135.222 84.1376,-131.657 89.7142,-140.665 94.1148,-135.222"/>
</g>
<!-- Node6 -->
<g id="node7" class="node"><title>Node6</title>
<g id="a_node7"><a xlink:href="weapon_8hh.html" target="_top" xlink:title="weapon.hh">
<polygon fill="white" stroke="black" points="166.5,-168.5 166.5,-187.5 229.5,-187.5 229.5,-168.5 166.5,-168.5"/>
<text text-anchor="middle" x="198" y="-175.5" font-family="Helvetica,sans-Serif" font-size="10.00">weapon.hh</text>
</a>
</g>
</g>
<!-- Node0&#45;&gt;Node6 -->
<g id="edge7" class="edge"><title>Node0&#45;&gt;Node6</title>
<path fill="none" stroke="midnightblue" d="M147.64,-224.324C156.51,-216.341 169.875,-204.313 180.608,-194.653"/>
<polygon fill="midnightblue" stroke="midnightblue" points="183.093,-197.125 188.185,-187.834 178.41,-191.922 183.093,-197.125"/>
</g>
<!-- Node8 -->
<g id="node9" class="node"><title>Node8</title>
<g id="a_node9"><a xlink:href="upgrade_8hh.html" target="_top" xlink:title="upgrade.hh">
<polygon fill="white" stroke="black" points="286.5,-168.5 286.5,-187.5 351.5,-187.5 351.5,-168.5 286.5,-168.5"/>
<text text-anchor="middle" x="319" y="-175.5" font-family="Helvetica,sans-Serif" font-size="10.00">upgrade.hh</text>
</a>
</g>
</g>
<!-- Node0&#45;&gt;Node8 -->
<g id="edge10" class="edge"><title>Node0&#45;&gt;Node8</title>
<path fill="none" stroke="midnightblue" d="M166.68,-224.444C197.527,-215.241 246.728,-200.562 280.829,-190.388"/>
<polygon fill="midnightblue" stroke="midnightblue" points="281.872,-193.729 290.454,-187.516 279.871,-187.021 281.872,-193.729"/>
</g>
<!-- Node4 -->
<g id="node5" class="node"><title>Node4</title>
<polygon fill="white" stroke="#bfbfbf" points="112,-0.5 112,-19.5 162,-19.5 162,-0.5 112,-0.5"/>
<text text-anchor="middle" x="137" y="-7.5" font-family="Helvetica,sans-Serif" font-size="10.00">QString</text>
</g>
<!-- Node3&#45;&gt;Node4 -->
<g id="edge4" class="edge"><title>Node3&#45;&gt;Node4</title>
<path fill="none" stroke="midnightblue" d="M76.2814,-112.444C82.6426,-99.8769 95.1196,-75.7758 107,-56 112.621,-46.6434 119.323,-36.5051 124.966,-28.2245"/>
<polygon fill="midnightblue" stroke="midnightblue" points="127.976,-30.0247 130.772,-19.8054 122.213,-26.0506 127.976,-30.0247"/>
</g>
<!-- Node5 -->
<g id="node6" class="node"><title>Node5</title>
<g id="a_node6"><a xlink:href="equipmentinterface_8hh.html" target="_top" xlink:title="Määrittelee yhden tavaran (Equipment) operaatioiden rajapintaluokan. ">
<polygon fill="white" stroke="black" points="116,-56.5 116,-75.5 268,-75.5 268,-56.5 116,-56.5"/>
<text text-anchor="middle" x="192" y="-63.5" font-family="Helvetica,sans-Serif" font-size="10.00">Interface/equipmentinterface.hh</text>
</a>
</g>
</g>
<!-- Node3&#45;&gt;Node5 -->
<g id="edge5" class="edge"><title>Node3&#45;&gt;Node5</title>
<path fill="none" stroke="midnightblue" d="M91.0144,-112.444C110.588,-103.636 141.308,-89.8116 163.729,-79.722"/>
<polygon fill="midnightblue" stroke="midnightblue" points="165.392,-82.8119 173.075,-75.5164 162.519,-76.4284 165.392,-82.8119"/>
</g>
<!-- Node5&#45;&gt;Node4 -->
<g id="edge6" class="edge"><title>Node5&#45;&gt;Node4</title>
<path fill="none" stroke="midnightblue" d="M182.918,-56.083C174.829,-48.1409 162.805,-36.3354 153.09,-26.7973"/>
<polygon fill="midnightblue" stroke="midnightblue" points="155.501,-24.2595 145.913,-19.7511 150.597,-29.2545 155.501,-24.2595"/>
</g>
<!-- Node7 -->
<g id="node8" class="node"><title>Node7</title>
<g id="a_node8"><a xlink:href="weaponinterface_8hh.html" target="_top" xlink:title="Interface/weaponinterface.hh">
<polygon fill="white" stroke="black" points="128,-112.5 128,-131.5 268,-131.5 268,-112.5 128,-112.5"/>
<text text-anchor="middle" x="198" y="-119.5" font-family="Helvetica,sans-Serif" font-size="10.00">Interface/weaponinterface.hh</text>
</a>
</g>
</g>
<!-- Node6&#45;&gt;Node7 -->
<g id="edge8" class="edge"><title>Node6&#45;&gt;Node7</title>
<path fill="none" stroke="midnightblue" d="M198,-168.083C198,-161.006 198,-150.861 198,-141.986"/>
<polygon fill="midnightblue" stroke="midnightblue" points="201.5,-141.751 198,-131.751 194.5,-141.751 201.5,-141.751"/>
</g>
<!-- Node7&#45;&gt;Node5 -->
<g id="edge9" class="edge"><title>Node7&#45;&gt;Node5</title>
<path fill="none" stroke="midnightblue" d="M197.009,-112.083C196.214,-104.927 195.071,-94.6353 194.077,-85.6911"/>
<polygon fill="midnightblue" stroke="midnightblue" points="197.555,-85.3034 192.972,-75.7511 190.598,-86.0765 197.555,-85.3034"/>
</g>
<!-- Node9 -->
<g id="node10" class="node"><title>Node9</title>
<g id="a_node10"><a xlink:href="upgradeinterface_8hh.html" target="_top" xlink:title="Interface/upgradeinterface.hh">
<polygon fill="white" stroke="black" points="286.5,-112.5 286.5,-131.5 427.5,-131.5 427.5,-112.5 286.5,-112.5"/>
<text text-anchor="middle" x="357" y="-119.5" font-family="Helvetica,sans-Serif" font-size="10.00">Interface/upgradeinterface.hh</text>
</a>
</g>
</g>
<!-- Node8&#45;&gt;Node9 -->
<g id="edge11" class="edge"><title>Node8&#45;&gt;Node9</title>
<path fill="none" stroke="midnightblue" d="M325.275,-168.083C330.642,-160.455 338.518,-149.264 345.079,-139.941"/>
<polygon fill="midnightblue" stroke="midnightblue" points="347.949,-141.943 350.842,-131.751 342.225,-137.915 347.949,-141.943"/>
</g>
<!-- Node9&#45;&gt;Node5 -->
<g id="edge12" class="edge"><title>Node9&#45;&gt;Node5</title>
<path fill="none" stroke="midnightblue" d="M330.855,-112.444C302.977,-103.32 258.652,-88.8133 227.6,-78.6509"/>
<polygon fill="midnightblue" stroke="midnightblue" points="228.615,-75.3005 218.022,-75.5164 226.438,-81.9533 228.615,-75.3005"/>
</g>
</g>
</svg>
