<?xml version="1.0" encoding="UTF-8" standalone="no"?>
<!DOCTYPE svg PUBLIC "-//W3C//DTD SVG 1.1//EN"
 "http://www.w3.org/Graphics/SVG/1.1/DTD/svg11.dtd">
<!-- Generated by graphviz version 2.38.0 (20140413.2041)
 -->
<!-- Title: View/headquartersui.hh Pages: 1 -->
<svg width="831pt" height="196pt"
 viewBox="0.00 0.00 830.50 196.00" xmlns="http://www.w3.org/2000/svg" xmlns:xlink="http://www.w3.org/1999/xlink">
<g id="graph0" class="graph" transform="scale(1 1) rotate(0) translate(4 192)">
<title>View/headquartersui.hh</title>
<polygon fill="white" stroke="none" points="-4,4 -4,-192 826.5,-192 826.5,4 -4,4"/>
<!-- Node0 -->
<g id="node1" class="node"><title>Node0</title>
<polygon fill="#bfbfbf" stroke="black" points="413,-168.5 413,-187.5 531,-187.5 531,-168.5 413,-168.5"/>
<text text-anchor="middle" x="472" y="-175.5" font-family="Helvetica,sans-Serif" font-size="10.00">View/headquartersui.hh</text>
</g>
<!-- Node1 -->
<g id="node2" class="node"><title>Node1</title>
<g id="a_node2"><a xlink:href="actorinterface_8hh.html" target="_top" xlink:title="M채채rittelee yhden toimijan operaatioiden rajapintaluokan. ">
<polygon fill="white" stroke="black" points="0,-112.5 0,-131.5 128,-131.5 128,-112.5 0,-112.5"/>
<text text-anchor="middle" x="64" y="-119.5" font-family="Helvetica,sans-Serif" font-size="10.00">Interface/actorinterface.hh</text>
</a>
</g>
</g>
<!-- Node0&#45;&gt;Node1 -->
<g id="edge1" class="edge"><title>Node0&#45;&gt;Node1</title>
<path fill="none" stroke="midnightblue" d="M412.673,-169.148C340.124,-159.546 217.278,-143.287 138.452,-132.854"/>
<polygon fill="midnightblue" stroke="midnightblue" points="138.482,-129.327 128.109,-131.485 137.564,-136.267 138.482,-129.327"/>
</g>
<!-- Node4 -->
<g id="node5" class="node"><title>Node4</title>
<g id="a_node5"><a xlink:href="equipmentinterface_8hh.html" target="_top" xlink:title="M채채rittelee yhden tavaran (Equipment) operaatioiden rajapintaluokan. ">
<polygon fill="white" stroke="black" points="135,-56.5 135,-75.5 287,-75.5 287,-56.5 135,-56.5"/>
<text text-anchor="middle" x="211" y="-63.5" font-family="Helvetica,sans-Serif" font-size="10.00">Interface/equipmentinterface.hh</text>
</a>
</g>
</g>
<!-- Node0&#45;&gt;Node4 -->
<g id="edge6" class="edge"><title>Node0&#45;&gt;Node4</title>
<path fill="none" stroke="midnightblue" d="M412.874,-176.779C335.183,-175.087 205.049,-166.945 175,-132 162.084,-116.98 177.617,-96.5911 192.116,-82.6789"/>
<polygon fill="midnightblue" stroke="midnightblue" points="194.788,-84.9834 199.878,-75.6914 190.104,-79.7811 194.788,-84.9834"/>
</g>
<!-- Node5 -->
<g id="node6" class="node"><title>Node5</title>
<g id="a_node6"><a xlink:href="upgradeinterface_8hh.html" target="_top" xlink:title="Interface/upgradeinterface.hh">
<polygon fill="white" stroke="black" points="184.5,-112.5 184.5,-131.5 325.5,-131.5 325.5,-112.5 184.5,-112.5"/>
<text text-anchor="middle" x="255" y="-119.5" font-family="Helvetica,sans-Serif" font-size="10.00">Interface/upgradeinterface.hh</text>
</a>
</g>
</g>
<!-- Node0&#45;&gt;Node5 -->
<g id="edge7" class="edge"><title>Node0&#45;&gt;Node5</title>
<path fill="none" stroke="midnightblue" d="M437.616,-168.444C400.078,-159.102 339.869,-144.119 298.933,-133.933"/>
<polygon fill="midnightblue" stroke="midnightblue" points="299.773,-130.535 289.223,-131.516 298.082,-137.328 299.773,-130.535"/>
</g>
<!-- Node6 -->
<g id="node7" class="node"><title>Node6</title>
<g id="a_node7"><a xlink:href="weaponinterface_8hh.html" target="_top" xlink:title="Interface/weaponinterface.hh">
<polygon fill="white" stroke="black" points="344,-112.5 344,-131.5 484,-131.5 484,-112.5 344,-112.5"/>
<text text-anchor="middle" x="414" y="-119.5" font-family="Helvetica,sans-Serif" font-size="10.00">Interface/weaponinterface.hh</text>
</a>
</g>
</g>
<!-- Node0&#45;&gt;Node6 -->
<g id="edge9" class="edge"><title>Node0&#45;&gt;Node6</title>
<path fill="none" stroke="midnightblue" d="M462.681,-168.324C454.107,-160.341 441.188,-148.313 430.812,-138.653"/>
<polygon fill="midnightblue" stroke="midnightblue" points="433.192,-136.086 423.488,-131.834 428.422,-141.21 433.192,-136.086"/>
</g>
<!-- Node7 -->
<g id="node8" class="node"><title>Node7</title>
<polygon fill="white" stroke="#bfbfbf" points="502.5,-112.5 502.5,-131.5 557.5,-131.5 557.5,-112.5 502.5,-112.5"/>
<text text-anchor="middle" x="530" y="-119.5" font-family="Helvetica,sans-Serif" font-size="10.00">QWidget</text>
</g>
<!-- Node0&#45;&gt;Node7 -->
<g id="edge11" class="edge"><title>Node0&#45;&gt;Node7</title>
<path fill="none" stroke="midnightblue" d="M481.319,-168.324C489.893,-160.341 502.812,-148.313 513.188,-138.653"/>
<polygon fill="midnightblue" stroke="midnightblue" points="515.578,-141.21 520.512,-131.834 510.808,-136.086 515.578,-141.21"/>
</g>
<!-- Node8 -->
<g id="node9" class="node"><title>Node8</title>
<polygon fill="white" stroke="#bfbfbf" points="575.5,-112.5 575.5,-131.5 650.5,-131.5 650.5,-112.5 575.5,-112.5"/>
<text text-anchor="middle" x="613" y="-119.5" font-family="Helvetica,sans-Serif" font-size="10.00">QPushButton</text>
</g>
<!-- Node0&#45;&gt;Node8 -->
<g id="edge12" class="edge"><title>Node0&#45;&gt;Node8</title>
<path fill="none" stroke="midnightblue" d="M494.342,-168.444C517.753,-159.478 554.736,-145.314 581.19,-135.183"/>
<polygon fill="midnightblue" stroke="midnightblue" points="582.676,-138.361 590.763,-131.516 580.172,-131.824 582.676,-138.361"/>
</g>
<!-- Node9 -->
<g id="node10" class="node"><title>Node9</title>
<polygon fill="white" stroke="#bfbfbf" points="668.5,-112.5 668.5,-131.5 715.5,-131.5 715.5,-112.5 668.5,-112.5"/>
<text text-anchor="middle" x="692" y="-119.5" font-family="Helvetica,sans-Serif" font-size="10.00">QLabel</text>
</g>
<!-- Node0&#45;&gt;Node9 -->
<g id="edge13" class="edge"><title>Node0&#45;&gt;Node9</title>
<path fill="none" stroke="midnightblue" d="M509.561,-168.466C545.508,-160.198 601.489,-147.058 658.383,-132.355"/>
<polygon fill="midnightblue" stroke="midnightblue" points="659.464,-135.69 668.262,-129.788 657.704,-128.915 659.464,-135.69"/>
</g>
<!-- Node10 -->
<g id="node11" class="node"><title>Node10</title>
<polygon fill="white" stroke="#bfbfbf" points="733.5,-112.5 733.5,-131.5 822.5,-131.5 822.5,-112.5 733.5,-112.5"/>
<text text-anchor="middle" x="778" y="-119.5" font-family="Helvetica,sans-Serif" font-size="10.00">QListWidgetItem</text>
</g>
<!-- Node0&#45;&gt;Node10 -->
<g id="edge14" class="edge"><title>Node0&#45;&gt;Node10</title>
<path fill="none" stroke="midnightblue" d="M520.487,-168.444C575.652,-158.708 665.54,-142.846 723.201,-132.67"/>
<polygon fill="midnightblue" stroke="midnightblue" points="723.985,-136.086 733.225,-130.902 722.769,-129.193 723.985,-136.086"/>
</g>
<!-- Node2 -->
<g id="node3" class="node"><title>Node2</title>
<polygon fill="white" stroke="#bfbfbf" points="99,-0.5 99,-19.5 149,-19.5 149,-0.5 99,-0.5"/>
<text text-anchor="middle" x="124" y="-7.5" font-family="Helvetica,sans-Serif" font-size="10.00">QString</text>
</g>
<!-- Node1&#45;&gt;Node2 -->
<g id="edge2" class="edge"><title>Node1&#45;&gt;Node2</title>
<path fill="none" stroke="midnightblue" d="M59.9257,-112.416C54.3806,-99.3912 46.2048,-74.228 56,-56 63.6225,-41.8153 77.8966,-31.3516 91.4063,-24.1027"/>
<polygon fill="midnightblue" stroke="midnightblue" points="93.1278,-27.1562 100.546,-19.5916 90.0296,-20.8791 93.1278,-27.1562"/>
</g>
<!-- Node3 -->
<g id="node4" class="node"><title>Node3</title>
<polygon fill="white" stroke="#bfbfbf" points="65,-56.5 65,-75.5 117,-75.5 117,-56.5 65,-56.5"/>
<text text-anchor="middle" x="91" y="-63.5" font-family="Helvetica,sans-Serif" font-size="10.00">memory</text>
</g>
<!-- Node1&#45;&gt;Node3 -->
<g id="edge3" class="edge"><title>Node1&#45;&gt;Node3</title>
<path fill="none" stroke="midnightblue" d="M68.4585,-112.083C72.1543,-104.691 77.5234,-93.9533 82.0945,-84.8111"/>
<polygon fill="midnightblue" stroke="midnightblue" points="85.2828,-86.2606 86.6245,-75.7511 79.0218,-83.1301 85.2828,-86.2606"/>
</g>
<!-- Node1&#45;&gt;Node4 -->
<g id="edge4" class="edge"><title>Node1&#45;&gt;Node4</title>
<path fill="none" stroke="midnightblue" d="M87.2926,-112.444C111.807,-103.438 150.596,-89.1891 178.2,-79.049"/>
<polygon fill="midnightblue" stroke="midnightblue" points="179.637,-82.25 187.816,-75.5164 177.223,-75.6793 179.637,-82.25"/>
</g>
<!-- Node4&#45;&gt;Node2 -->
<g id="edge5" class="edge"><title>Node4&#45;&gt;Node2</title>
<path fill="none" stroke="midnightblue" d="M197.022,-56.324C183.45,-47.9002 162.62,-34.9709 146.675,-25.0741"/>
<polygon fill="midnightblue" stroke="midnightblue" points="148.286,-21.9544 137.943,-19.6545 144.594,-27.9019 148.286,-21.9544"/>
</g>
<!-- Node5&#45;&gt;Node4 -->
<g id="edge8" class="edge"><title>Node5&#45;&gt;Node4</title>
<path fill="none" stroke="midnightblue" d="M247.734,-112.083C241.455,-104.377 232.212,-93.0333 224.569,-83.6531"/>
<polygon fill="midnightblue" stroke="midnightblue" points="227.161,-81.2926 218.131,-75.7511 221.734,-85.7143 227.161,-81.2926"/>
</g>
<!-- Node6&#45;&gt;Node4 -->
<g id="edge10" class="edge"><title>Node6&#45;&gt;Node4</title>
<path fill="none" stroke="midnightblue" d="M381.834,-112.444C346.941,-103.162 291.107,-88.3093 252.829,-78.127"/>
<polygon fill="midnightblue" stroke="midnightblue" points="253.579,-74.7048 243.015,-75.5164 251.78,-81.4696 253.579,-74.7048"/>
</g>
</g>
</svg>
