<?xml version="1.0" encoding="UTF-8" standalone="no"?>
<!DOCTYPE svg PUBLIC "-//W3C//DTD SVG 1.1//EN"
 "http://www.w3.org/Graphics/SVG/1.1/DTD/svg11.dtd">
<!-- Generated by graphviz version 2.38.0 (20140413.2041)
 -->
<!-- Title: View/headquartersui.hh Pages: 1 -->
<svg width="246pt" height="140pt"
 viewBox="0.00 0.00 245.50 140.00" xmlns="http://www.w3.org/2000/svg" xmlns:xlink="http://www.w3.org/1999/xlink">
<g id="graph0" class="graph" transform="scale(1 1) rotate(0) translate(4 136)">
<title>View/headquartersui.hh</title>
<polygon fill="white" stroke="none" points="-4,4 -4,-136 241.5,-136 241.5,4 -4,4"/>
<!-- Node11 -->
<g id="node1" class="node"><title>Node11</title>
<polygon fill="#bfbfbf" stroke="black" points="62.5,-112.5 62.5,-131.5 180.5,-131.5 180.5,-112.5 62.5,-112.5"/>
<text text-anchor="middle" x="121.5" y="-119.5" font-family="Helvetica,sans-Serif" font-size="10.00">View/headquartersui.hh</text>
</g>
<!-- Node12 -->
<g id="node2" class="node"><title>Node12</title>
<g id="a_node2"><a xlink:href="view_8hh.html" target="_top" xlink:title="View/view.hh">
<polygon fill="white" stroke="black" points="29.5,-56.5 29.5,-75.5 101.5,-75.5 101.5,-56.5 29.5,-56.5"/>
<text text-anchor="middle" x="65.5" y="-63.5" font-family="Helvetica,sans-Serif" font-size="10.00">View/view.hh</text>
</a>
</g>
</g>
<!-- Node11&#45;&gt;Node12 -->
<g id="edge1" class="edge"><title>Node11&#45;&gt;Node12</title>
<path fill="none" stroke="midnightblue" d="M105.17,-105.253C95.235,-95.6731 82.9125,-83.7906 74.6611,-75.8339"/>
<polygon fill="midnightblue" stroke="midnightblue" points="102.875,-107.902 112.503,-112.324 107.734,-102.863 102.875,-107.902"/>
</g>
<!-- Node15 -->
<g id="node5" class="node"><title>Node15</title>
<g id="a_node5"><a xlink:href="headquartersui_8cc.html" target="_top" xlink:title="View/headquartersui.cc">
<polygon fill="white" stroke="black" points="119.5,-56.5 119.5,-75.5 237.5,-75.5 237.5,-56.5 119.5,-56.5"/>
<text text-anchor="middle" x="178.5" y="-63.5" font-family="Helvetica,sans-Serif" font-size="10.00">View/headquartersui.cc</text>
</a>
</g>
</g>
<!-- Node11&#45;&gt;Node15 -->
<g id="edge4" class="edge"><title>Node11&#45;&gt;Node15</title>
<path fill="none" stroke="midnightblue" d="M138.121,-105.253C148.234,-95.6731 160.777,-83.7906 169.175,-75.8339"/>
<polygon fill="midnightblue" stroke="midnightblue" points="135.51,-102.906 130.658,-112.324 140.325,-107.987 135.51,-102.906"/>
</g>
<!-- Node13 -->
<g id="node3" class="node"><title>Node13</title>
<g id="a_node3"><a xlink:href="main_8cc.html" target="_top" xlink:title="main.cc">
<polygon fill="white" stroke="black" points="0,-0.5 0,-19.5 51,-19.5 51,-0.5 0,-0.5"/>
<text text-anchor="middle" x="25.5" y="-7.5" font-family="Helvetica,sans-Serif" font-size="10.00">main.cc</text>
</a>
</g>
</g>
<!-- Node12&#45;&gt;Node13 -->
<g id="edge2" class="edge"><title>Node12&#45;&gt;Node13</title>
<path fill="none" stroke="midnightblue" d="M52.8003,-47.8554C45.874,-38.5048 37.5937,-27.3265 31.9823,-19.7511"/>
<polygon fill="midnightblue" stroke="midnightblue" points="50.13,-50.1307 58.8948,-56.083 55.755,-45.9641 50.13,-50.1307"/>
</g>
<!-- Node14 -->
<g id="node4" class="node"><title>Node14</title>
<g id="a_node4"><a xlink:href="view_8cc.html" target="_top" xlink:title="View/view.cc">
<polygon fill="white" stroke="black" points="69.5,-0.5 69.5,-19.5 141.5,-19.5 141.5,-0.5 69.5,-0.5"/>
<text text-anchor="middle" x="105.5" y="-7.5" font-family="Helvetica,sans-Serif" font-size="10.00">View/view.cc</text>
</a>
</g>
</g>
<!-- Node12&#45;&gt;Node14 -->
<g id="edge3" class="edge"><title>Node12&#45;&gt;Node14</title>
<path fill="none" stroke="midnightblue" d="M78.1997,-47.8554C85.126,-38.5048 93.4063,-27.3265 99.0177,-19.7511"/>
<polygon fill="midnightblue" stroke="midnightblue" points="75.245,-45.9641 72.1052,-56.083 80.87,-50.1307 75.245,-45.9641"/>
</g>
</g>
</svg>
