<?xml version="1.0" encoding="UTF-8" standalone="no"?>
<!DOCTYPE svg PUBLIC "-//W3C//DTD SVG 1.1//EN"
 "http://www.w3.org/Graphics/SVG/1.1/DTD/svg11.dtd">
<!-- Generated by graphviz version 2.38.0 (20140413.2041)
 -->
<!-- Title: Graafinen luokkahierarkia Pages: 1 -->
<svg width="274pt" height="66pt"
 viewBox="0.00 0.00 274.00 66.00" xmlns="http://www.w3.org/2000/svg" xmlns:xlink="http://www.w3.org/1999/xlink">
<g id="graph0" class="graph" transform="scale(1 1) rotate(0) translate(4 62)">
<title>Graafinen luokkahierarkia</title>
<polygon fill="white" stroke="none" points="-4,4 -4,-62 270,-62 270,4 -4,4"/>
<!-- Node0 -->
<g id="node1" class="node"><title>Node0</title>
<g id="a_node1"><a xlink:href="class_interface_1_1_actor_interface.html" target="_top" xlink:title="ActorInterface on rajapintaluokka, josta peritään Player ja Cyberteekkari. ">
<polygon fill="white" stroke="black" points="0,-19.5 0,-38.5 119,-38.5 119,-19.5 0,-19.5"/>
<text text-anchor="middle" x="59.5" y="-26.5" font-family="Helvetica,sans-Serif" font-size="10.00">Interface::ActorInterface</text>
</a>
</g>
</g>
<!-- Node1 -->
<g id="node2" class="node"><title>Node1</title>
<g id="a_node2"><a xlink:href="class_model_1_1_cyber_teekkari.html" target="_top" xlink:title="Model::CyberTeekkari">
<polygon fill="white" stroke="black" points="155,-38.5 155,-57.5 266,-57.5 266,-38.5 155,-38.5"/>
<text text-anchor="middle" x="210.5" y="-45.5" font-family="Helvetica,sans-Serif" font-size="10.00">Model::CyberTeekkari</text>
</a>
</g>
</g>
<!-- Node0&#45;&gt;Node1 -->
<g id="edge1" class="edge"><title>Node0&#45;&gt;Node1</title>
<path fill="none" stroke="midnightblue" d="M129.373,-37.7824C137.94,-38.8749 146.607,-39.98 154.917,-41.0397"/>
<polygon fill="midnightblue" stroke="midnightblue" points="129.751,-34.3024 119.389,-36.5093 128.866,-41.2462 129.751,-34.3024"/>
</g>
<!-- Node2 -->
<g id="node3" class="node"><title>Node2</title>
<g id="a_node3"><a xlink:href="class_model_1_1_player.html" target="_top" xlink:title="Model::Player">
<polygon fill="white" stroke="black" points="172,-0.5 172,-19.5 249,-19.5 249,-0.5 172,-0.5"/>
<text text-anchor="middle" x="210.5" y="-7.5" font-family="Helvetica,sans-Serif" font-size="10.00">Model::Player</text>
</a>
</g>
</g>
<!-- Node0&#45;&gt;Node2 -->
<g id="edge2" class="edge"><title>Node0&#45;&gt;Node2</title>
<path fill="none" stroke="midnightblue" d="M129.373,-20.2176C143.899,-18.3652 158.713,-16.4762 171.588,-14.8344"/>
<polygon fill="midnightblue" stroke="midnightblue" points="128.866,-16.7538 119.389,-21.4907 129.751,-23.6976 128.866,-16.7538"/>
</g>
</g>
</svg>
