<?xml version="1.0" encoding="UTF-8" standalone="no"?>
<!DOCTYPE svg PUBLIC "-//W3C//DTD SVG 1.1//EN"
 "http://www.w3.org/Graphics/SVG/1.1/DTD/svg11.dtd">
<!-- Generated by graphviz version 2.38.0 (20140413.2041)
 -->
<!-- Title: Graafinen luokkahierarkia Pages: 1 -->
<svg width="253pt" height="154pt"
 viewBox="0.00 0.00 253.00 153.50" xmlns="http://www.w3.org/2000/svg" xmlns:xlink="http://www.w3.org/1999/xlink">
<g id="graph0" class="graph" transform="scale(1 1) rotate(0) translate(4 149.5)">
<title>Graafinen luokkahierarkia</title>
<polygon fill="white" stroke="none" points="-4,4 -4,-149.5 249,-149.5 249,4 -4,4"/>
<!-- Node0 -->
<g id="node1" class="node"><title>Node0</title>
<g id="a_node1"><a xlink:href="class_q_widget.html" target="_top" xlink:title="QWidget">
<polygon fill="white" stroke="black" points="0,-57.5 0,-76.5 55,-76.5 55,-57.5 0,-57.5"/>
<text text-anchor="middle" x="27.5" y="-64.5" font-family="Helvetica,sans-Serif" font-size="10.00">QWidget</text>
</a>
</g>
</g>
<!-- Node1 -->
<g id="node2" class="node"><title>Node1</title>
<g id="a_node2"><a xlink:href="class_view_1_1_action_scene_end_mission_display.html" target="_top" xlink:title="View::ActionSceneEndMission\lDisplay">
<polygon fill="white" stroke="black" points="93,-115 93,-145 243,-145 243,-115 93,-115"/>
<text text-anchor="start" x="101" y="-133" font-family="Helvetica,sans-Serif" font-size="10.00">View::ActionSceneEndMission</text>
<text text-anchor="middle" x="168" y="-122" font-family="Helvetica,sans-Serif" font-size="10.00">Display</text>
</a>
</g>
</g>
<!-- Node0&#45;&gt;Node1 -->
<g id="edge1" class="edge"><title>Node0&#45;&gt;Node1</title>
<path fill="none" stroke="midnightblue" d="M50.9773,-82.3882C62.579,-89.8799 77.1688,-98.6225 91,-105 98.8205,-108.606 107.311,-111.932 115.687,-114.901"/>
<polygon fill="midnightblue" stroke="midnightblue" points="52.6592,-79.3047 42.3852,-76.7172 48.8032,-85.1469 52.6592,-79.3047"/>
</g>
<!-- Node2 -->
<g id="node3" class="node"><title>Node2</title>
<g id="a_node3"><a xlink:href="class_view_1_1_city_scape_status_display.html" target="_top" xlink:title="View::CityScapeStatusDisplay">
<polygon fill="white" stroke="black" points="93.5,-76.5 93.5,-95.5 242.5,-95.5 242.5,-76.5 93.5,-76.5"/>
<text text-anchor="middle" x="168" y="-83.5" font-family="Helvetica,sans-Serif" font-size="10.00">View::CityScapeStatusDisplay</text>
</a>
</g>
</g>
<!-- Node0&#45;&gt;Node2 -->
<g id="edge2" class="edge"><title>Node0&#45;&gt;Node2</title>
<path fill="none" stroke="midnightblue" d="M65.1509,-72.0279C75.1508,-73.3998 86.3258,-74.9328 97.5091,-76.4669"/>
<polygon fill="midnightblue" stroke="midnightblue" points="65.5871,-68.5551 55.2042,-70.6634 64.6357,-75.4901 65.5871,-68.5551"/>
</g>
<!-- Node3 -->
<g id="node4" class="node"><title>Node3</title>
<g id="a_node4"><a xlink:href="class_view_1_1_head_quarters_u_i.html" target="_top" xlink:title="View::HeadQuartersUI">
<polygon fill="white" stroke="black" points="111.5,-38.5 111.5,-57.5 224.5,-57.5 224.5,-38.5 111.5,-38.5"/>
<text text-anchor="middle" x="168" y="-45.5" font-family="Helvetica,sans-Serif" font-size="10.00">View::HeadQuartersUI</text>
</a>
</g>
</g>
<!-- Node0&#45;&gt;Node3 -->
<g id="edge3" class="edge"><title>Node0&#45;&gt;Node3</title>
<path fill="none" stroke="midnightblue" d="M65.4834,-61.9265C79.5815,-59.9924 95.9774,-57.7432 111.427,-55.6237"/>
<polygon fill="midnightblue" stroke="midnightblue" points="64.6357,-58.5099 55.2042,-63.3366 65.5871,-65.4449 64.6357,-58.5099"/>
</g>
<!-- Node4 -->
<g id="node5" class="node"><title>Node4</title>
<g id="a_node5"><a xlink:href="class_view_1_1_view_side_display_manager.html" target="_top" xlink:title="View::ViewSideDisplayManager">
<polygon fill="white" stroke="black" points="91,-0.5 91,-19.5 245,-19.5 245,-0.5 91,-0.5"/>
<text text-anchor="middle" x="168" y="-7.5" font-family="Helvetica,sans-Serif" font-size="10.00">View::ViewSideDisplayManager</text>
</a>
</g>
</g>
<!-- Node0&#45;&gt;Node4 -->
<g id="edge4" class="edge"><title>Node0&#45;&gt;Node4</title>
<path fill="none" stroke="midnightblue" d="M50.3339,-51.481C61.9576,-43.8101 76.7609,-34.947 91,-29 99.9105,-25.2785 109.724,-22.1599 119.255,-19.5958"/>
<polygon fill="midnightblue" stroke="midnightblue" points="48.0724,-48.786 41.7651,-57.2989 52.0044,-54.5773 48.0724,-48.786"/>
</g>
</g>
</svg>
