<?xml version="1.0" encoding="UTF-8" standalone="no"?>
<!DOCTYPE svg PUBLIC "-//W3C//DTD SVG 1.1//EN"
 "http://www.w3.org/Graphics/SVG/1.1/DTD/svg11.dtd">
<!-- Generated by graphviz version 2.38.0 (20140413.2041)
 -->
<!-- Title: Graafinen luokkahierarkia Pages: 1 -->
<svg width="226pt" height="66pt"
 viewBox="0.00 0.00 226.00 66.00" xmlns="http://www.w3.org/2000/svg" xmlns:xlink="http://www.w3.org/1999/xlink">
<g id="graph0" class="graph" transform="scale(1 1) rotate(0) translate(4 62)">
<title>Graafinen luokkahierarkia</title>
<polygon fill="white" stroke="none" points="-4,4 -4,-62 222,-62 222,4 -4,4"/>
<!-- Node20 -->
<g id="node1" class="node"><title>Node20</title>
<g id="a_node1"><a xlink:href="class_q_main_window.html" target="_top" xlink:title="QMainWindow">
<polygon fill="white" stroke="black" points="18.5,-38.5 18.5,-57.5 98.5,-57.5 98.5,-38.5 18.5,-38.5"/>
<text text-anchor="middle" x="58.5" y="-45.5" font-family="Helvetica,sans-Serif" font-size="10.00">QMainWindow</text>
</a>
</g>
</g>
<!-- Node1 -->
<g id="node2" class="node"><title>Node1</title>
<g id="a_node2"><a xlink:href="class_view_1_1_view.html" target="_top" xlink:title="View::View">
<polygon fill="white" stroke="black" points="153,-19.5 153,-38.5 218,-38.5 218,-19.5 153,-19.5"/>
<text text-anchor="middle" x="185.5" y="-26.5" font-family="Helvetica,sans-Serif" font-size="10.00">View::View</text>
</a>
</g>
</g>
<!-- Node20&#45;&gt;Node1 -->
<g id="edge1" class="edge"><title>Node20&#45;&gt;Node1</title>
<path fill="none" stroke="midnightblue" d="M108.79,-40.508C123.657,-38.2482 139.569,-35.8295 152.95,-33.7957"/>
<polygon fill="midnightblue" stroke="midnightblue" points="108.068,-37.0773 98.7078,-42.0404 109.12,-43.9978 108.068,-37.0773"/>
</g>
<!-- Node0 -->
<g id="node3" class="node"><title>Node0</title>
<g id="a_node3"><a xlink:href="class_interface_1_1_view_interface.html" target="_top" xlink:title="ViewInterface on rajapintaluokka, jota controller käyttää. ">
<polygon fill="white" stroke="black" points="0,-0.5 0,-19.5 117,-19.5 117,-0.5 0,-0.5"/>
<text text-anchor="middle" x="58.5" y="-7.5" font-family="Helvetica,sans-Serif" font-size="10.00">Interface::ViewInterface</text>
</a>
</g>
</g>
<!-- Node0&#45;&gt;Node1 -->
<g id="edge2" class="edge"><title>Node0&#45;&gt;Node1</title>
<path fill="none" stroke="midnightblue" d="M127.335,-20.3109C136.252,-21.6664 145.024,-22.9997 152.917,-24.1994"/>
<polygon fill="midnightblue" stroke="midnightblue" points="127.656,-16.8196 117.243,-18.777 126.604,-23.7401 127.656,-16.8196"/>
</g>
</g>
</svg>
