<?xml version="1.0" encoding="UTF-8" standalone="no"?>
<!DOCTYPE svg PUBLIC "-//W3C//DTD SVG 1.1//EN"
 "http://www.w3.org/Graphics/SVG/1.1/DTD/svg11.dtd">
<!-- Generated by graphviz version 2.38.0 (20140413.2041)
 -->
<!-- Title: Graafinen luokkahierarkia Pages: 1 -->
<svg width="440pt" height="104pt"
 viewBox="0.00 0.00 440.00 104.00" xmlns="http://www.w3.org/2000/svg" xmlns:xlink="http://www.w3.org/1999/xlink">
<g id="graph0" class="graph" transform="scale(1 1) rotate(0) translate(4 100)">
<title>Graafinen luokkahierarkia</title>
<polygon fill="white" stroke="none" points="-4,4 -4,-100 436,-100 436,4 -4,4"/>
<!-- Node0 -->
<g id="node1" class="node"><title>Node0</title>
<g id="a_node1"><a xlink:href="class_interface_1_1_equipment_interface.html" target="_top" xlink:title="EquipmentInterface on rajapintaluokka, josta peritään tavaroita (Equipment). ">
<polygon fill="white" stroke="black" points="0,-38.5 0,-57.5 143,-57.5 143,-38.5 0,-38.5"/>
<text text-anchor="middle" x="71.5" y="-45.5" font-family="Helvetica,sans-Serif" font-size="10.00">Interface::EquipmentInterface</text>
</a>
</g>
</g>
<!-- Node1 -->
<g id="node2" class="node"><title>Node1</title>
<g id="a_node2"><a xlink:href="class_interface_1_1_upgrade_interface.html" target="_top" xlink:title="Interface::UpgradeInterface">
<polygon fill="white" stroke="black" points="179,-76.5 179,-95.5 311,-95.5 311,-76.5 179,-76.5"/>
<text text-anchor="middle" x="245" y="-83.5" font-family="Helvetica,sans-Serif" font-size="10.00">Interface::UpgradeInterface</text>
</a>
</g>
</g>
<!-- Node0&#45;&gt;Node1 -->
<g id="edge1" class="edge"><title>Node0&#45;&gt;Node1</title>
<path fill="none" stroke="midnightblue" d="M125.541,-59.7526C149.791,-65.1258 178.147,-71.4086 201.035,-76.4799"/>
<polygon fill="midnightblue" stroke="midnightblue" points="126.297,-56.3352 115.777,-57.589 124.783,-63.1695 126.297,-56.3352"/>
</g>
<!-- Node3 -->
<g id="node4" class="node"><title>Node3</title>
<g id="a_node4"><a xlink:href="class_interface_1_1_weapon_interface.html" target="_top" xlink:title="Interface::WeaponInterface">
<polygon fill="white" stroke="black" points="179,-38.5 179,-57.5 311,-57.5 311,-38.5 179,-38.5"/>
<text text-anchor="middle" x="245" y="-45.5" font-family="Helvetica,sans-Serif" font-size="10.00">Interface::WeaponInterface</text>
</a>
</g>
</g>
<!-- Node0&#45;&gt;Node3 -->
<g id="edge3" class="edge"><title>Node0&#45;&gt;Node3</title>
<path fill="none" stroke="midnightblue" d="M153.283,-48C161.877,-48 170.538,-48 178.919,-48"/>
<polygon fill="midnightblue" stroke="midnightblue" points="153.246,-44.5001 143.246,-48 153.246,-51.5001 153.246,-44.5001"/>
</g>
<!-- Node5 -->
<g id="node6" class="node"><title>Node5</title>
<g id="a_node6"><a xlink:href="class_model_1_1_equipment.html" target="_top" xlink:title="Model::Equipment">
<polygon fill="white" stroke="black" points="197.5,-0.5 197.5,-19.5 292.5,-19.5 292.5,-0.5 197.5,-0.5"/>
<text text-anchor="middle" x="245" y="-7.5" font-family="Helvetica,sans-Serif" font-size="10.00">Model::Equipment</text>
</a>
</g>
</g>
<!-- Node0&#45;&gt;Node5 -->
<g id="edge5" class="edge"><title>Node0&#45;&gt;Node5</title>
<path fill="none" stroke="midnightblue" d="M125.541,-36.2474C149.791,-30.8742 178.147,-24.5914 201.035,-19.5201"/>
<polygon fill="midnightblue" stroke="midnightblue" points="124.783,-32.8305 115.777,-38.411 126.297,-39.6648 124.783,-32.8305"/>
</g>
<!-- Node2 -->
<g id="node3" class="node"><title>Node2</title>
<g id="a_node3"><a xlink:href="class_model_1_1_upgrade.html" target="_top" xlink:title="Model::Upgrade">
<polygon fill="white" stroke="black" points="347,-76.5 347,-95.5 432,-95.5 432,-76.5 347,-76.5"/>
<text text-anchor="middle" x="389.5" y="-83.5" font-family="Helvetica,sans-Serif" font-size="10.00">Model::Upgrade</text>
</a>
</g>
</g>
<!-- Node1&#45;&gt;Node2 -->
<g id="edge2" class="edge"><title>Node1&#45;&gt;Node2</title>
<path fill="none" stroke="midnightblue" d="M321.558,-86C330.194,-86 338.745,-86 346.702,-86"/>
<polygon fill="midnightblue" stroke="midnightblue" points="321.411,-82.5001 311.411,-86 321.411,-89.5001 321.411,-82.5001"/>
</g>
<!-- Node4 -->
<g id="node5" class="node"><title>Node4</title>
<g id="a_node5"><a xlink:href="class_model_1_1_weapon.html" target="_top" xlink:title="Model::Weapon">
<polygon fill="white" stroke="black" points="347,-38.5 347,-57.5 432,-57.5 432,-38.5 347,-38.5"/>
<text text-anchor="middle" x="389.5" y="-45.5" font-family="Helvetica,sans-Serif" font-size="10.00">Model::Weapon</text>
</a>
</g>
</g>
<!-- Node3&#45;&gt;Node4 -->
<g id="edge4" class="edge"><title>Node3&#45;&gt;Node4</title>
<path fill="none" stroke="midnightblue" d="M321.558,-48C330.194,-48 338.745,-48 346.702,-48"/>
<polygon fill="midnightblue" stroke="midnightblue" points="321.411,-44.5001 311.411,-48 321.411,-51.5001 321.411,-44.5001"/>
</g>
</g>
</svg>
