<?xml version="1.0" encoding="UTF-8" standalone="no"?>
<!DOCTYPE svg PUBLIC "-//W3C//DTD SVG 1.1//EN"
 "http://www.w3.org/Graphics/SVG/1.1/DTD/svg11.dtd">
<!-- Generated by graphviz version 2.38.0 (20140413.2041)
 -->
<!-- Title: Graafinen luokkahierarkia Pages: 1 -->
<svg width="336pt" height="470pt"
 viewBox="0.00 0.00 336.00 470.00" xmlns="http://www.w3.org/2000/svg" xmlns:xlink="http://www.w3.org/1999/xlink">
<g id="graph0" class="graph" transform="scale(1 1) rotate(0) translate(4 466)">
<title>Graafinen luokkahierarkia</title>
<polygon fill="white" stroke="none" points="-4,4 -4,-466 332,-466 332,4 -4,4"/>
<!-- Node33 -->
<g id="node1" class="node"><title>Node33</title>
<g id="a_node1"><a xlink:href="class_interface_1_1_model_interface.html" target="_top" xlink:title="Interface::ModelInterface">
<polygon fill="white" stroke="black" points="0,-442.5 0,-461.5 122,-461.5 122,-442.5 0,-442.5"/>
<text text-anchor="middle" x="61" y="-449.5" font-family="Helvetica,sans-Serif" font-size="10.00">Interface::ModelInterface</text>
</a>
</g>
</g>
<!-- Node1 -->
<g id="node2" class="node"><title>Node1</title>
<g id="a_node2"><a xlink:href="class_model_1_1_model.html" target="_top" xlink:title="Model::Model">
<polygon fill="white" stroke="black" points="205.5,-442.5 205.5,-461.5 280.5,-461.5 280.5,-442.5 205.5,-442.5"/>
<text text-anchor="middle" x="243" y="-449.5" font-family="Helvetica,sans-Serif" font-size="10.00">Model::Model</text>
</a>
</g>
</g>
<!-- Node33&#45;&gt;Node1 -->
<g id="edge1" class="edge"><title>Node33&#45;&gt;Node1</title>
<path fill="none" stroke="midnightblue" d="M132.376,-452C157.37,-452 184.487,-452 205.497,-452"/>
<polygon fill="midnightblue" stroke="midnightblue" points="132.188,-448.5 122.188,-452 132.188,-455.5 132.188,-448.5"/>
</g>
<!-- Node24 -->
<g id="node3" class="node"><title>Node24</title>
<g id="a_node3"><a xlink:href="class_q_graphics_pixmap_item.html" target="_top" xlink:title="QGraphicsPixmapItem">
<polygon fill="white" stroke="black" points="3.5,-174.5 3.5,-193.5 118.5,-193.5 118.5,-174.5 3.5,-174.5"/>
<text text-anchor="middle" x="61" y="-181.5" font-family="Helvetica,sans-Serif" font-size="10.00">QGraphicsPixmapItem</text>
</a>
</g>
</g>
<!-- Node3 -->
<g id="node4" class="node"><title>Node3</title>
<g id="a_node4"><a xlink:href="class_view_1_1_action_scene_big_explosion.html" target="_top" xlink:title="View::ActionSceneBigExplosion">
<polygon fill="white" stroke="black" points="165,-278.5 165,-297.5 321,-297.5 321,-278.5 165,-278.5"/>
<text text-anchor="middle" x="243" y="-285.5" font-family="Helvetica,sans-Serif" font-size="10.00">View::ActionSceneBigExplosion</text>
</a>
</g>
</g>
<!-- Node24&#45;&gt;Node3 -->
<g id="edge2" class="edge"><title>Node24&#45;&gt;Node3</title>
<path fill="none" stroke="midnightblue" d="M76.4341,-201.18C93.7746,-220.667 124.718,-251.944 158,-269 165.585,-272.887 173.956,-275.985 182.388,-278.452"/>
<polygon fill="midnightblue" stroke="midnightblue" points="79.07,-198.878 69.8681,-193.626 73.7868,-203.47 79.07,-198.878"/>
</g>
<!-- Node25 -->
<g id="node5" class="node"><title>Node25</title>
<g id="a_node5"><a xlink:href="class_view_1_1_action_scene_blocking_tile.html" target="_top" xlink:title="View::ActionSceneBlockingTile">
<polygon fill="white" stroke="black" points="167,-38.5 167,-57.5 319,-57.5 319,-38.5 167,-38.5"/>
<text text-anchor="middle" x="243" y="-45.5" font-family="Helvetica,sans-Serif" font-size="10.00">View::ActionSceneBlockingTile</text>
</a>
</g>
</g>
<!-- Node24&#45;&gt;Node25 -->
<g id="edge3" class="edge"><title>Node24&#45;&gt;Node25</title>
<path fill="none" stroke="midnightblue" d="M71.9391,-165.37C86.9494,-139.126 117.953,-91.7219 158,-67 164.234,-63.1515 171.159,-60.0802 178.282,-57.6295"/>
<polygon fill="midnightblue" stroke="midnightblue" points="68.7753,-163.858 66.9839,-174.3 74.8962,-167.254 68.7753,-163.858"/>
</g>
<!-- Node4 -->
<g id="node6" class="node"><title>Node4</title>
<g id="a_node6"><a xlink:href="class_view_1_1_action_scene_enemy_projectile.html" target="_top" xlink:title="View::ActionSceneEnemyProjectile">
<polygon fill="white" stroke="black" points="158,-240.5 158,-259.5 328,-259.5 328,-240.5 158,-240.5"/>
<text text-anchor="middle" x="243" y="-247.5" font-family="Helvetica,sans-Serif" font-size="10.00">View::ActionSceneEnemyProjectile</text>
</a>
</g>
</g>
<!-- Node24&#45;&gt;Node4 -->
<g id="edge4" class="edge"><title>Node24&#45;&gt;Node4</title>
<path fill="none" stroke="midnightblue" d="M88.1259,-198.392C107.074,-208.362 133.558,-221.346 158,-230 169.446,-234.053 182.059,-237.543 193.954,-240.421"/>
<polygon fill="midnightblue" stroke="midnightblue" points="89.6837,-195.257 79.214,-193.633 86.3862,-201.431 89.6837,-195.257"/>
</g>
<!-- Node5 -->
<g id="node7" class="node"><title>Node5</title>
<g id="a_node7"><a xlink:href="class_view_1_1_action_scene_enemy_projectile_explosion.html" target="_top" xlink:title="View::ActionSceneEnemyProjectile\lExplosion">
<polygon fill="white" stroke="black" points="158,-191 158,-221 328,-221 328,-191 158,-191"/>
<text text-anchor="start" x="166" y="-209" font-family="Helvetica,sans-Serif" font-size="10.00">View::ActionSceneEnemyProjectile</text>
<text text-anchor="middle" x="243" y="-198" font-family="Helvetica,sans-Serif" font-size="10.00">Explosion</text>
</a>
</g>
</g>
<!-- Node24&#45;&gt;Node5 -->
<g id="edge5" class="edge"><title>Node24&#45;&gt;Node5</title>
<path fill="none" stroke="midnightblue" d="M128.985,-192.187C138.38,-193.335 148.133,-194.527 157.797,-195.709"/>
<polygon fill="midnightblue" stroke="midnightblue" points="129.304,-188.7 118.953,-190.961 128.455,-195.648 129.304,-188.7"/>
</g>
<!-- Node26 -->
<g id="node8" class="node"><title>Node26</title>
<g id="a_node8"><a xlink:href="class_view_1_1_action_scene_feet.html" target="_top" xlink:title="View::ActionSceneFeet">
<polygon fill="white" stroke="black" points="183.5,-0.5 183.5,-19.5 302.5,-19.5 302.5,-0.5 183.5,-0.5"/>
<text text-anchor="middle" x="243" y="-7.5" font-family="Helvetica,sans-Serif" font-size="10.00">View::ActionSceneFeet</text>
</a>
</g>
</g>
<!-- Node24&#45;&gt;Node26 -->
<g id="edge6" class="edge"><title>Node24&#45;&gt;Node26</title>
<path fill="none" stroke="midnightblue" d="M68.353,-164.626C80.3031,-131.368 109.394,-63.6532 158,-29 165.548,-23.6186 174.367,-19.7294 183.399,-16.9252"/>
<polygon fill="midnightblue" stroke="midnightblue" points="65.0276,-163.533 65.0724,-174.128 71.6444,-165.818 65.0276,-163.533"/>
</g>
<!-- Node6 -->
<g id="node9" class="node"><title>Node6</title>
<g id="a_node9"><a xlink:href="class_view_1_1_action_scene_n_p_c.html" target="_top" xlink:title="View::ActionSceneNPC">
<polygon fill="white" stroke="black" points="183.5,-152.5 183.5,-171.5 302.5,-171.5 302.5,-152.5 183.5,-152.5"/>
<text text-anchor="middle" x="243" y="-159.5" font-family="Helvetica,sans-Serif" font-size="10.00">View::ActionSceneNPC</text>
</a>
</g>
</g>
<!-- Node24&#45;&gt;Node6 -->
<g id="edge7" class="edge"><title>Node24&#45;&gt;Node6</title>
<path fill="none" stroke="midnightblue" d="M129.233,-175.783C146.979,-173.614 165.989,-171.29 183.248,-169.181"/>
<polygon fill="midnightblue" stroke="midnightblue" points="128.455,-172.352 118.953,-177.039 129.304,-179.3 128.455,-172.352"/>
</g>
<!-- Node7 -->
<g id="node10" class="node"><title>Node7</title>
<g id="a_node10"><a xlink:href="class_view_1_1_action_scene_p_c.html" target="_top" xlink:title="View::ActionScenePC">
<polygon fill="white" stroke="black" points="186.5,-114.5 186.5,-133.5 299.5,-133.5 299.5,-114.5 186.5,-114.5"/>
<text text-anchor="middle" x="243" y="-121.5" font-family="Helvetica,sans-Serif" font-size="10.00">View::ActionScenePC</text>
</a>
</g>
</g>
<!-- Node24&#45;&gt;Node7 -->
<g id="edge8" class="edge"><title>Node24&#45;&gt;Node7</title>
<path fill="none" stroke="midnightblue" d="M90.6557,-170.142C109.47,-161.45 134.801,-150.509 158,-143 169.096,-139.409 181.228,-136.242 192.735,-133.574"/>
<polygon fill="midnightblue" stroke="midnightblue" points="89.0274,-167.04 81.4571,-174.452 91.9974,-173.378 89.0274,-167.04"/>
</g>
<!-- Node8 -->
<g id="node11" class="node"><title>Node8</title>
<g id="a_node11"><a xlink:href="class_view_1_1_action_scene_small_explosion.html" target="_top" xlink:title="View::ActionSceneSmallExplosion">
<polygon fill="white" stroke="black" points="159.5,-76.5 159.5,-95.5 326.5,-95.5 326.5,-76.5 159.5,-76.5"/>
<text text-anchor="middle" x="243" y="-83.5" font-family="Helvetica,sans-Serif" font-size="10.00">View::ActionSceneSmallExplosion</text>
</a>
</g>
</g>
<!-- Node24&#45;&gt;Node8 -->
<g id="edge9" class="edge"><title>Node24&#45;&gt;Node8</title>
<path fill="none" stroke="midnightblue" d="M78.0002,-166.724C95.7908,-148.579 126.23,-120.563 158,-105 165.922,-101.119 174.654,-98.0181 183.402,-95.5433"/>
<polygon fill="midnightblue" stroke="midnightblue" points="75.1466,-164.644 70.7569,-174.286 80.2018,-169.486 75.1466,-164.644"/>
</g>
<!-- Node9 -->
<g id="node12" class="node"><title>Node9</title>
<g id="a_node12"><a xlink:href="class_view_1_1_city_scape_parking_hall.html" target="_top" xlink:title="View::CityScapeParkingHall">
<polygon fill="white" stroke="black" points="174,-366.5 174,-385.5 312,-385.5 312,-366.5 174,-366.5"/>
<text text-anchor="middle" x="243" y="-373.5" font-family="Helvetica,sans-Serif" font-size="10.00">View::CityScapeParkingHall</text>
</a>
</g>
</g>
<!-- Node24&#45;&gt;Node9 -->
<g id="edge10" class="edge"><title>Node24&#45;&gt;Node9</title>
<path fill="none" stroke="midnightblue" d="M80.8106,-200.651C93.9143,-213.121 110.957,-231.203 122,-250 147.416,-293.261 120.757,-323.378 158,-357 162.661,-361.208 168.054,-364.547 173.813,-367.188"/>
<polygon fill="midnightblue" stroke="midnightblue" points="82.9669,-197.878 73.2495,-193.656 78.2133,-203.016 82.9669,-197.878"/>
</g>
<!-- Node10 -->
<g id="node13" class="node"><title>Node10</title>
<g id="a_node13"><a xlink:href="class_view_1_1_view_side_display_mouse_sensitive_pixmap.html" target="_top" xlink:title="View::ViewSideDisplayMouse\lSensitivePixmap">
<polygon fill="white" stroke="black" points="170,-317 170,-347 316,-347 316,-317 170,-317"/>
<text text-anchor="start" x="178" y="-335" font-family="Helvetica,sans-Serif" font-size="10.00">View::ViewSideDisplayMouse</text>
<text text-anchor="middle" x="243" y="-324" font-family="Helvetica,sans-Serif" font-size="10.00">SensitivePixmap</text>
</a>
</g>
</g>
<!-- Node24&#45;&gt;Node10 -->
<g id="edge11" class="edge"><title>Node24&#45;&gt;Node10</title>
<path fill="none" stroke="midnightblue" d="M79.0596,-201.079C91.5735,-213.996 108.641,-232.448 122,-250 140.147,-273.843 134.118,-288.906 158,-307 163.094,-310.859 168.777,-314.125 174.719,-316.888"/>
<polygon fill="midnightblue" stroke="midnightblue" points="81.4309,-198.498 71.9302,-193.809 76.433,-203.399 81.4309,-198.498"/>
</g>
<!-- Node0 -->
<g id="node14" class="node"><title>Node0</title>
<g id="a_node14"><a xlink:href="class_q_object.html" target="_top" xlink:title="QObject">
<polygon fill="white" stroke="black" points="34.5,-259.5 34.5,-278.5 87.5,-278.5 87.5,-259.5 34.5,-259.5"/>
<text text-anchor="middle" x="61" y="-266.5" font-family="Helvetica,sans-Serif" font-size="10.00">QObject</text>
</a>
</g>
</g>
<!-- Node0&#45;&gt;Node1 -->
<g id="edge12" class="edge"><title>Node0&#45;&gt;Node1</title>
<path fill="none" stroke="midnightblue" d="M67.6961,-288.482C78.9196,-323.271 107.312,-395.901 158,-433 171.634,-442.979 189.598,-447.85 205.413,-450.179"/>
<polygon fill="midnightblue" stroke="midnightblue" points="70.9426,-287.133 64.649,-278.61 64.2539,-289.197 70.9426,-287.133"/>
</g>
<!-- Node0&#45;&gt;Node3 -->
<g id="edge14" class="edge"><title>Node0&#45;&gt;Node3</title>
<path fill="none" stroke="midnightblue" d="M97.8877,-272.788C117.107,-274.817 141.563,-277.398 164.848,-279.856"/>
<polygon fill="midnightblue" stroke="midnightblue" points="98.1018,-269.291 87.7896,-271.722 97.3669,-276.253 98.1018,-269.291"/>
</g>
<!-- Node0&#45;&gt;Node4 -->
<g id="edge15" class="edge"><title>Node0&#45;&gt;Node4</title>
<path fill="none" stroke="midnightblue" d="M97.9391,-265.206C115.179,-263.387 136.623,-261.123 157.653,-258.903"/>
<polygon fill="midnightblue" stroke="midnightblue" points="97.3669,-261.747 87.7896,-266.278 98.1018,-268.709 97.3669,-261.747"/>
</g>
<!-- Node0&#45;&gt;Node5 -->
<g id="edge16" class="edge"><title>Node0&#45;&gt;Node5</title>
<path fill="none" stroke="midnightblue" d="M94.1095,-255.474C112.636,-247.876 136.461,-238.452 158,-231 167.922,-227.567 178.597,-224.169 188.9,-221.036"/>
<polygon fill="midnightblue" stroke="midnightblue" points="92.5827,-252.318 84.6777,-259.372 95.2563,-258.787 92.5827,-252.318"/>
</g>
<!-- Node0&#45;&gt;Node6 -->
<g id="edge17" class="edge"><title>Node0&#45;&gt;Node6</title>
<path fill="none" stroke="midnightblue" d="M76.0348,-251.512C93.1988,-231.346 124.172,-198.706 158,-181 165.816,-176.909 174.491,-173.695 183.213,-171.17"/>
<polygon fill="midnightblue" stroke="midnightblue" points="73.2538,-249.383 69.5562,-259.311 78.6384,-253.855 73.2538,-249.383"/>
</g>
<!-- Node0&#45;&gt;Node7 -->
<g id="edge18" class="edge"><title>Node0&#45;&gt;Node7</title>
<path fill="none" stroke="midnightblue" d="M79.1787,-252.011C91.7526,-239.139 108.843,-220.704 122,-203 140.55,-178.04 132.806,-161.231 158,-143 166.358,-136.952 176.313,-132.784 186.397,-129.922"/>
<polygon fill="midnightblue" stroke="midnightblue" points="76.5589,-249.682 72.0089,-259.25 81.5325,-254.608 76.5589,-249.682"/>
</g>
<!-- Node0&#45;&gt;Node8 -->
<g id="edge19" class="edge"><title>Node0&#45;&gt;Node8</title>
<path fill="none" stroke="midnightblue" d="M80.6542,-252.256C93.6827,-239.741 110.699,-221.643 122,-203 146.053,-163.319 123.134,-135.617 158,-105 162.382,-101.152 167.378,-98.0361 172.699,-95.5177"/>
<polygon fill="midnightblue" stroke="midnightblue" points="78.056,-249.894 73.1443,-259.281 82.8381,-255.005 78.056,-249.894"/>
</g>
<!-- Node0&#45;&gt;Node9 -->
<g id="edge20" class="edge"><title>Node0&#45;&gt;Node9</title>
<path fill="none" stroke="midnightblue" d="M76.0348,-286.488C93.1988,-306.654 124.172,-339.294 158,-357 165.418,-360.883 173.611,-363.976 181.883,-366.439"/>
<polygon fill="midnightblue" stroke="midnightblue" points="78.6384,-284.145 69.5562,-278.689 73.2538,-288.617 78.6384,-284.145"/>
</g>
<!-- Node0&#45;&gt;Node10 -->
<g id="edge21" class="edge"><title>Node0&#45;&gt;Node10</title>
<path fill="none" stroke="midnightblue" d="M94.1095,-282.526C112.636,-290.124 136.461,-299.548 158,-307 167.922,-310.433 178.597,-313.831 188.9,-316.964"/>
<polygon fill="midnightblue" stroke="midnightblue" points="95.2563,-279.213 84.6777,-278.628 92.5827,-285.682 95.2563,-279.213"/>
</g>
<!-- Node2 -->
<g id="node15" class="node"><title>Node2</title>
<g id="a_node15"><a xlink:href="class_model_1_1_network_manager.html" target="_top" xlink:title="Model::NetworkManager">
<polygon fill="white" stroke="black" points="182,-404.5 182,-423.5 304,-423.5 304,-404.5 182,-404.5"/>
<text text-anchor="middle" x="243" y="-411.5" font-family="Helvetica,sans-Serif" font-size="10.00">Model::NetworkManager</text>
</a>
</g>
</g>
<!-- Node0&#45;&gt;Node2 -->
<g id="edge13" class="edge"><title>Node0&#45;&gt;Node2</title>
<path fill="none" stroke="midnightblue" d="M70.9451,-287.86C85.2399,-315.854 115.963,-367.991 158,-395 165.17,-399.607 173.312,-403.104 181.637,-405.757"/>
<polygon fill="midnightblue" stroke="midnightblue" points="74.0009,-286.144 66.4314,-278.731 67.7259,-289.246 74.0009,-286.144"/>
</g>
</g>
</svg>
