<?xml version="1.0" encoding="UTF-8" standalone="no"?>
<!DOCTYPE svg PUBLIC "-//W3C//DTD SVG 1.1//EN"
 "http://www.w3.org/Graphics/SVG/1.1/DTD/svg11.dtd">
<!-- Generated by graphviz version 2.38.0 (20140413.2041)
 -->
<!-- Title: Model/layoutgenerator.hh Pages: 1 -->
<svg width="711pt" height="196pt"
 viewBox="0.00 0.00 711.00 196.00" xmlns="http://www.w3.org/2000/svg" xmlns:xlink="http://www.w3.org/1999/xlink">
<g id="graph0" class="graph" transform="scale(1 1) rotate(0) translate(4 192)">
<title>Model/layoutgenerator.hh</title>
<polygon fill="white" stroke="none" points="-4,4 -4,-192 707,-192 707,4 -4,4"/>
<!-- Node4 -->
<g id="node1" class="node"><title>Node4</title>
<polygon fill="#bfbfbf" stroke="black" points="124,-168.5 124,-187.5 250,-187.5 250,-168.5 124,-168.5"/>
<text text-anchor="middle" x="187" y="-175.5" font-family="Helvetica,sans-Serif" font-size="10.00">Model/layoutgenerator.hh</text>
</g>
<!-- Node5 -->
<g id="node2" class="node"><title>Node5</title>
<g id="a_node2"><a xlink:href="roomgenerator_8hh.html" target="_top" xlink:title="Model/roomgenerator.hh">
<polygon fill="white" stroke="black" points="197,-112.5 197,-131.5 319,-131.5 319,-112.5 197,-112.5"/>
<text text-anchor="middle" x="258" y="-119.5" font-family="Helvetica,sans-Serif" font-size="10.00">Model/roomgenerator.hh</text>
</a>
</g>
</g>
<!-- Node4&#45;&gt;Node5 -->
<g id="edge1" class="edge"><title>Node4&#45;&gt;Node5</title>
<path fill="none" stroke="midnightblue" d="M206.59,-162.101C219.368,-152.382 235.613,-140.027 246.385,-131.834"/>
<polygon fill="midnightblue" stroke="midnightblue" points="204.248,-159.484 198.407,-168.324 208.486,-165.056 204.248,-159.484"/>
</g>
<!-- Node9 -->
<g id="node6" class="node"><title>Node9</title>
<g id="a_node6"><a xlink:href="layoutgenerator_8cc.html" target="_top" xlink:title="Model/layoutgenerator.cc">
<polygon fill="white" stroke="black" points="0,-56.5 0,-75.5 126,-75.5 126,-56.5 0,-56.5"/>
<text text-anchor="middle" x="63" y="-63.5" font-family="Helvetica,sans-Serif" font-size="10.00">Model/layoutgenerator.cc</text>
</a>
</g>
</g>
<!-- Node4&#45;&gt;Node9 -->
<g id="edge10" class="edge"><title>Node4&#45;&gt;Node9</title>
<path fill="none" stroke="midnightblue" d="M169.54,-161.512C143.044,-138.007 93.5599,-94.1096 72.6849,-75.5914"/>
<polygon fill="midnightblue" stroke="midnightblue" points="167.466,-164.351 177.27,-168.368 172.112,-159.114 167.466,-164.351"/>
</g>
<!-- Node6 -->
<g id="node3" class="node"><title>Node6</title>
<g id="a_node3"><a xlink:href="model_8hh.html" target="_top" xlink:title="Model/model.hh">
<polygon fill="white" stroke="black" points="144,-56.5 144,-75.5 230,-75.5 230,-56.5 144,-56.5"/>
<text text-anchor="middle" x="187" y="-63.5" font-family="Helvetica,sans-Serif" font-size="10.00">Model/model.hh</text>
</a>
</g>
</g>
<!-- Node5&#45;&gt;Node6 -->
<g id="edge2" class="edge"><title>Node5&#45;&gt;Node6</title>
<path fill="none" stroke="midnightblue" d="M238.41,-106.101C225.632,-96.3824 209.387,-84.0269 198.615,-75.8339"/>
<polygon fill="midnightblue" stroke="midnightblue" points="236.514,-109.056 246.593,-112.324 240.752,-103.484 236.514,-109.056"/>
</g>
<!-- Node8 -->
<g id="node5" class="node"><title>Node8</title>
<g id="a_node5"><a xlink:href="model_8cc.html" target="_top" xlink:title="Model/model.cc">
<polygon fill="white" stroke="black" points="215,-0.5 215,-19.5 301,-19.5 301,-0.5 215,-0.5"/>
<text text-anchor="middle" x="258" y="-7.5" font-family="Helvetica,sans-Serif" font-size="10.00">Model/model.cc</text>
</a>
</g>
</g>
<!-- Node5&#45;&gt;Node8 -->
<g id="edge7" class="edge"><title>Node5&#45;&gt;Node8</title>
<path fill="none" stroke="midnightblue" d="M258,-102.348C258,-78.2538 258,-37.3079 258,-19.5914"/>
<polygon fill="midnightblue" stroke="midnightblue" points="254.5,-102.368 258,-112.368 261.5,-102.369 254.5,-102.368"/>
</g>
<!-- Node5&#45;&gt;Node9 -->
<g id="edge5" class="edge"><title>Node5&#45;&gt;Node9</title>
<path fill="none" stroke="midnightblue" d="M217.19,-109.699C180.387,-99.507 127.071,-84.7429 93.7538,-75.5164"/>
<polygon fill="midnightblue" stroke="midnightblue" points="216.53,-113.148 227.102,-112.444 218.398,-106.402 216.53,-113.148"/>
</g>
<!-- Node10 -->
<g id="node7" class="node"><title>Node10</title>
<g id="a_node7"><a xlink:href="mapprocessor_8cc.html" target="_top" xlink:title="Model/mapprocessor.cc">
<polygon fill="white" stroke="black" points="286.5,-56.5 286.5,-75.5 407.5,-75.5 407.5,-56.5 286.5,-56.5"/>
<text text-anchor="middle" x="347" y="-63.5" font-family="Helvetica,sans-Serif" font-size="10.00">Model/mapprocessor.cc</text>
</a>
</g>
</g>
<!-- Node5&#45;&gt;Node10 -->
<g id="edge6" class="edge"><title>Node5&#45;&gt;Node10</title>
<path fill="none" stroke="midnightblue" d="M281.238,-106.901C297.558,-96.9986 318.865,-84.0705 332.736,-75.6545"/>
<polygon fill="midnightblue" stroke="midnightblue" points="279.033,-104.144 272.299,-112.324 282.664,-110.129 279.033,-104.144"/>
</g>
<!-- Node11 -->
<g id="node8" class="node"><title>Node11</title>
<g id="a_node8"><a xlink:href="parkspaceinserter_8cc.html" target="_top" xlink:title="Model/parkspaceinserter.cc">
<polygon fill="white" stroke="black" points="425.5,-56.5 425.5,-75.5 562.5,-75.5 562.5,-56.5 425.5,-56.5"/>
<text text-anchor="middle" x="494" y="-63.5" font-family="Helvetica,sans-Serif" font-size="10.00">Model/parkspaceinserter.cc</text>
</a>
</g>
</g>
<!-- Node5&#45;&gt;Node11 -->
<g id="edge8" class="edge"><title>Node5&#45;&gt;Node11</title>
<path fill="none" stroke="midnightblue" d="M305.406,-110.153C349.997,-99.95 415.854,-84.8809 456.78,-75.5164"/>
<polygon fill="midnightblue" stroke="midnightblue" points="304.362,-106.801 295.395,-112.444 305.924,-113.625 304.362,-106.801"/>
</g>
<!-- Node12 -->
<g id="node9" class="node"><title>Node12</title>
<g id="a_node9"><a xlink:href="roomgenerator_8cc.html" target="_top" xlink:title="Model/roomgenerator.cc">
<polygon fill="white" stroke="black" points="581,-56.5 581,-75.5 703,-75.5 703,-56.5 581,-56.5"/>
<text text-anchor="middle" x="642" y="-63.5" font-family="Helvetica,sans-Serif" font-size="10.00">Model/roomgenerator.cc</text>
</a>
</g>
</g>
<!-- Node5&#45;&gt;Node12 -->
<g id="edge9" class="edge"><title>Node5&#45;&gt;Node12</title>
<path fill="none" stroke="midnightblue" d="M328.812,-111.042C401.337,-100.843 512.884,-85.1569 581.439,-75.5164"/>
<polygon fill="midnightblue" stroke="midnightblue" points="328.261,-107.585 318.846,-112.444 329.236,-114.517 328.261,-107.585"/>
</g>
<!-- Node7 -->
<g id="node4" class="node"><title>Node7</title>
<g id="a_node4"><a xlink:href="main_8cc.html" target="_top" xlink:title="main.cc">
<polygon fill="white" stroke="black" points="145.5,-0.5 145.5,-19.5 196.5,-19.5 196.5,-0.5 145.5,-0.5"/>
<text text-anchor="middle" x="171" y="-7.5" font-family="Helvetica,sans-Serif" font-size="10.00">main.cc</text>
</a>
</g>
</g>
<!-- Node6&#45;&gt;Node7 -->
<g id="edge3" class="edge"><title>Node6&#45;&gt;Node7</title>
<path fill="none" stroke="midnightblue" d="M181.488,-46.3956C178.811,-37.362 175.722,-26.936 173.593,-19.7511"/>
<polygon fill="midnightblue" stroke="midnightblue" points="178.161,-47.4893 184.358,-56.083 184.873,-45.5007 178.161,-47.4893"/>
</g>
<!-- Node6&#45;&gt;Node8 -->
<g id="edge4" class="edge"><title>Node6&#45;&gt;Node8</title>
<path fill="none" stroke="midnightblue" d="M206.59,-50.1008C219.368,-40.3824 235.613,-28.0269 246.385,-19.8339"/>
<polygon fill="midnightblue" stroke="midnightblue" points="204.248,-47.4844 198.407,-56.324 208.486,-53.0561 204.248,-47.4844"/>
</g>
</g>
</svg>
