<?xml version="1.0" encoding="UTF-8" standalone="no"?>
<!DOCTYPE svg PUBLIC "-//W3C//DTD SVG 1.1//EN"
 "http://www.w3.org/Graphics/SVG/1.1/DTD/svg11.dtd">
<!-- Generated by graphviz version 2.38.0 (20140413.2041)
 -->
<!-- Title: Model/layoutgenerator.hh Pages: 1 -->
<!--zoomable 196 -->
<svg id="main" version="1.1" xmlns="http://www.w3.org/2000/svg" xmlns:xlink="http://www.w3.org/1999/xlink" xml:space="preserve" onload="init(evt)">
<style type="text/css"><![CDATA[
.edge:hover path { stroke: red; }
.edge:hover polygon { stroke: red; fill: red; }
]]></style>
<script type="text/javascript"><![CDATA[
var edges = document.getElementsByTagName('g');
if (edges && edges.length) {
  for (var i=0;i<edges.length;i++) {
    if (edges[i].id.substr(0,4)=='edge') {
      edges[i].setAttribute('class','edge');
    }
  }
}
]]></script>
        <defs>
                <circle id="rim" cx="0" cy="0" r="7"/>
                <circle id="rim2" cx="0" cy="0" r="3.5"/>
                <g id="zoomPlus">
                        <use xlink:href="#rim" fill="#404040">
                                <set attributeName="fill" to="#808080" begin="zoomplus.mouseover" end="zoomplus.mouseout"/>
                        </use>
                        <path d="M-4,0h8M0,-4v8" fill="none" stroke="white" stroke-width="1.5" pointer-events="none"/>
                </g>
                <g id="zoomMin">
                        <use xlink:href="#rim" fill="#404040">
                                <set attributeName="fill" to="#808080" begin="zoomminus.mouseover" end="zoomminus.mouseout"/>
                        </use>
                        <path d="M-4,0h8" fill="none" stroke="white" stroke-width="1.5" pointer-events="none"/>
                </g>
                <g id="dirArrow">
                        <path fill="none" stroke="white" stroke-width="1.5" d="M0,-3.0v7 M-2.5,-0.5L0,-3.0L2.5,-0.5"/>
                </g>
               <g id="resetDef">
                       <use xlink:href="#rim2" fill="#404040">
                               <set attributeName="fill" to="#808080" begin="reset.mouseover" end="reset.mouseout"/>
                       </use>
               </g>
        </defs>

<script type="text/javascript">
var viewWidth = 843;
var viewHeight = 196;
var sectionId = 'dynsection-1';
</script>
<script xlink:href="svgpan.js"/>
<svg id="graph" class="graph">
<g id="viewport">
<title>Model/layoutgenerator.hh</title>
<polygon fill="white" stroke="none" points="-4,4 -4,-192 839,-192 839,4 -4,4"/>
<!-- Node4 -->
<g id="node1" class="node"><title>Node4</title>
<polygon fill="#bfbfbf" stroke="black" points="476,-168.5 476,-187.5 602,-187.5 602,-168.5 476,-168.5"/>
<text text-anchor="middle" x="539" y="-175.5" font-family="Helvetica,sans-Serif" font-size="10.00">Model/layoutgenerator.hh</text>
</g>
<!-- Node5 -->
<g id="node2" class="node"><title>Node5</title>
<g id="a_node2"><a xlink:href="roomgenerator_8hh.html" target="_top" xlink:title="Model/roomgenerator.hh">
<polygon fill="white" stroke="black" points="347,-112.5 347,-131.5 469,-131.5 469,-112.5 347,-112.5"/>
<text text-anchor="middle" x="408" y="-119.5" font-family="Helvetica,sans-Serif" font-size="10.00">Model/roomgenerator.hh</text>
</a>
</g>
</g>
<!-- Node4&#45;&gt;Node5 -->
<g id="edge1" class="edge"><title>Node4&#45;&gt;Node5</title>
<path fill="none" stroke="midnightblue" d="M508.683,-164.503C484.124,-154.38 450.182,-140.388 428.66,-131.516"/>
<polygon fill="midnightblue" stroke="midnightblue" points="507.663,-167.868 518.243,-168.444 510.331,-161.397 507.663,-167.868"/>
</g>
<!-- Node10 -->
<g id="node7" class="node"><title>Node10</title>
<g id="a_node7"><a xlink:href="layoutgenerator_8cc.html" target="_top" xlink:title="Model/layoutgenerator.cc">
<polygon fill="white" stroke="black" points="709,-56.5 709,-75.5 835,-75.5 835,-56.5 709,-56.5"/>
<text text-anchor="middle" x="772" y="-63.5" font-family="Helvetica,sans-Serif" font-size="10.00">Model/layoutgenerator.cc</text>
</a>
</g>
</g>
<!-- Node4&#45;&gt;Node10 -->
<g id="edge11" class="edge"><title>Node4&#45;&gt;Node10</title>
<path fill="none" stroke="midnightblue" d="M566.491,-164.021C614.679,-141.272 713.134,-94.791 753.802,-75.5914"/>
<polygon fill="midnightblue" stroke="midnightblue" points="564.832,-160.934 557.283,-168.368 567.82,-167.264 564.832,-160.934"/>
</g>
<!-- Node6 -->
<g id="node3" class="node"><title>Node6</title>
<g id="a_node3"><a xlink:href="controller_8cc.html" target="_top" xlink:title="Controller/controller.cc">
<polygon fill="white" stroke="black" points="0,-56.5 0,-75.5 114,-75.5 114,-56.5 0,-56.5"/>
<text text-anchor="middle" x="57" y="-63.5" font-family="Helvetica,sans-Serif" font-size="10.00">Controller/controller.cc</text>
</a>
</g>
</g>
<!-- Node5&#45;&gt;Node6 -->
<g id="edge2" class="edge"><title>Node5&#45;&gt;Node6</title>
<path fill="none" stroke="midnightblue" d="M342.458,-110.917C276.147,-100.715 174.763,-85.1174 112.357,-75.5164"/>
<polygon fill="midnightblue" stroke="midnightblue" points="341.967,-114.382 352.383,-112.444 343.032,-107.464 341.967,-114.382"/>
</g>
<!-- Node7 -->
<g id="node4" class="node"><title>Node7</title>
<g id="a_node4"><a xlink:href="model_8hh.html" target="_top" xlink:title="Model/model.hh">
<polygon fill="white" stroke="black" points="132,-56.5 132,-75.5 218,-75.5 218,-56.5 132,-56.5"/>
<text text-anchor="middle" x="175" y="-63.5" font-family="Helvetica,sans-Serif" font-size="10.00">Model/model.hh</text>
</a>
</g>
</g>
<!-- Node5&#45;&gt;Node7 -->
<g id="edge3" class="edge"><title>Node5&#45;&gt;Node7</title>
<path fill="none" stroke="midnightblue" d="M361.197,-110.153C317.173,-99.95 252.153,-84.8809 211.747,-75.5164"/>
<polygon fill="midnightblue" stroke="midnightblue" points="360.548,-113.595 371.08,-112.444 362.129,-106.776 360.548,-113.595"/>
</g>
<!-- Node9 -->
<g id="node6" class="node"><title>Node9</title>
<g id="a_node6"><a xlink:href="model_8cc.html" target="_top" xlink:title="Model/model.cc">
<polygon fill="white" stroke="black" points="203,-0.5 203,-19.5 289,-19.5 289,-0.5 203,-0.5"/>
<text text-anchor="middle" x="246" y="-7.5" font-family="Helvetica,sans-Serif" font-size="10.00">Model/model.cc</text>
</a>
</g>
</g>
<!-- Node5&#45;&gt;Node9 -->
<g id="edge8" class="edge"><title>Node5&#45;&gt;Node9</title>
<path fill="none" stroke="midnightblue" d="M336.787,-112.726C311.185,-106.423 283.974,-95.3668 265,-76 249.861,-60.5474 246.669,-33.7288 246.071,-19.8657"/>
<polygon fill="midnightblue" stroke="midnightblue" points="336.351,-116.215 346.875,-114.993 337.885,-109.386 336.351,-116.215"/>
</g>
<!-- Node5&#45;&gt;Node10 -->
<g id="edge6" class="edge"><title>Node5&#45;&gt;Node10</title>
<path fill="none" stroke="midnightblue" d="M475.969,-110.917C544.736,-100.715 649.875,-85.1174 714.593,-75.5164"/>
<polygon fill="midnightblue" stroke="midnightblue" points="475.055,-107.514 465.677,-112.444 476.082,-114.438 475.055,-107.514"/>
</g>
<!-- Node11 -->
<g id="node8" class="node"><title>Node11</title>
<g id="a_node8"><a xlink:href="mapprocessor_8cc.html" target="_top" xlink:title="Model/mapprocessor.cc">
<polygon fill="white" stroke="black" points="274.5,-56.5 274.5,-75.5 395.5,-75.5 395.5,-56.5 274.5,-56.5"/>
<text text-anchor="middle" x="335" y="-63.5" font-family="Helvetica,sans-Serif" font-size="10.00">Model/mapprocessor.cc</text>
</a>
</g>
</g>
<!-- Node5&#45;&gt;Node11 -->
<g id="edge7" class="edge"><title>Node5&#45;&gt;Node11</title>
<path fill="none" stroke="midnightblue" d="M387.858,-106.101C374.721,-96.3824 358.018,-84.0269 346.942,-75.8339"/>
<polygon fill="midnightblue" stroke="midnightblue" points="386.15,-109.191 396.271,-112.324 390.313,-103.563 386.15,-109.191"/>
</g>
<!-- Node12 -->
<g id="node9" class="node"><title>Node12</title>
<g id="a_node9"><a xlink:href="parkspaceinserter_8cc.html" target="_top" xlink:title="Model/parkspaceinserter.cc">
<polygon fill="white" stroke="black" points="413.5,-56.5 413.5,-75.5 550.5,-75.5 550.5,-56.5 413.5,-56.5"/>
<text text-anchor="middle" x="482" y="-63.5" font-family="Helvetica,sans-Serif" font-size="10.00">Model/parkspaceinserter.cc</text>
</a>
</g>
</g>
<!-- Node5&#45;&gt;Node12 -->
<g id="edge9" class="edge"><title>Node5&#45;&gt;Node12</title>
<path fill="none" stroke="midnightblue" d="M428.034,-106.38C441.409,-96.6204 458.559,-84.1057 469.894,-75.8339"/>
<polygon fill="midnightblue" stroke="midnightblue" points="425.904,-103.602 419.889,-112.324 430.03,-109.257 425.904,-103.602"/>
</g>
<!-- Node13 -->
<g id="node10" class="node"><title>Node13</title>
<g id="a_node10"><a xlink:href="roomgenerator_8cc.html" target="_top" xlink:title="Model/roomgenerator.cc">
<polygon fill="white" stroke="black" points="569,-56.5 569,-75.5 691,-75.5 691,-56.5 569,-56.5"/>
<text text-anchor="middle" x="630" y="-63.5" font-family="Helvetica,sans-Serif" font-size="10.00">Model/roomgenerator.cc</text>
</a>
</g>
</g>
<!-- Node5&#45;&gt;Node13 -->
<g id="edge10" class="edge"><title>Node5&#45;&gt;Node13</title>
<path fill="none" stroke="midnightblue" d="M453.125,-110.024C495.06,-99.8232 556.652,-84.8414 594.988,-75.5164"/>
<polygon fill="midnightblue" stroke="midnightblue" points="452.066,-106.679 443.177,-112.444 453.72,-113.481 452.066,-106.679"/>
</g>
<!-- Node8 -->
<g id="node5" class="node"><title>Node8</title>
<g id="a_node5"><a xlink:href="main_8cc.html" target="_top" xlink:title="main.cc">
<polygon fill="white" stroke="black" points="133.5,-0.5 133.5,-19.5 184.5,-19.5 184.5,-0.5 133.5,-0.5"/>
<text text-anchor="middle" x="159" y="-7.5" font-family="Helvetica,sans-Serif" font-size="10.00">main.cc</text>
</a>
</g>
</g>
<!-- Node7&#45;&gt;Node8 -->
<g id="edge4" class="edge"><title>Node7&#45;&gt;Node8</title>
<path fill="none" stroke="midnightblue" d="M169.488,-46.3956C166.811,-37.362 163.722,-26.936 161.593,-19.7511"/>
<polygon fill="midnightblue" stroke="midnightblue" points="166.161,-47.4893 172.358,-56.083 172.873,-45.5007 166.161,-47.4893"/>
</g>
<!-- Node7&#45;&gt;Node9 -->
<g id="edge5" class="edge"><title>Node7&#45;&gt;Node9</title>
<path fill="none" stroke="midnightblue" d="M194.59,-50.1008C207.368,-40.3824 223.613,-28.0269 234.385,-19.8339"/>
<polygon fill="midnightblue" stroke="midnightblue" points="192.248,-47.4844 186.407,-56.324 196.486,-53.0561 192.248,-47.4844"/>
</g>
</g>
</svg>
        <g id="navigator" transform="translate(0 0)" fill="#404254">
                <rect fill="#f2f5e9" fill-opacity="0.5" stroke="#606060" stroke-width=".5" x="0" y="0" width="60" height="60"/>
                <use id="zoomplus" xlink:href="#zoomPlus" x="17" y="9" onmousedown="handleZoom(evt,'in')"/>
                <use id="zoomminus" xlink:href="#zoomMin" x="42" y="9" onmousedown="handleZoom(evt,'out')"/>
                <use id="reset" xlink:href="#resetDef" x="30" y="36" onmousedown="handleReset()"/>
                <g id="arrowUp" xlink:href="#dirArrow" transform="translate(30 24)" onmousedown="handlePan(0,-1)">
                  <use xlink:href="#rim" fill="#404040">
                        <set attributeName="fill" to="#808080" begin="arrowUp.mouseover" end="arrowUp.mouseout"/>
                  </use>
                  <path fill="none" stroke="white" stroke-width="1.5" d="M0,-3.0v7 M-2.5,-0.5L0,-3.0L2.5,-0.5"/>
                </g>
                <g id="arrowRight" xlink:href="#dirArrow" transform="rotate(90) translate(36 -43)" onmousedown="handlePan(1,0)">
                  <use xlink:href="#rim" fill="#404040">
                        <set attributeName="fill" to="#808080" begin="arrowRight.mouseover" end="arrowRight.mouseout"/>
                  </use>
                  <path fill="none" stroke="white" stroke-width="1.5" d="M0,-3.0v7 M-2.5,-0.5L0,-3.0L2.5,-0.5"/>
                </g>
                <g id="arrowDown" xlink:href="#dirArrow" transform="rotate(180) translate(-30 -48)" onmousedown="handlePan(0,1)">
                  <use xlink:href="#rim" fill="#404040">
                        <set attributeName="fill" to="#808080" begin="arrowDown.mouseover" end="arrowDown.mouseout"/>
                  </use>
                  <path fill="none" stroke="white" stroke-width="1.5" d="M0,-3.0v7 M-2.5,-0.5L0,-3.0L2.5,-0.5"/>
                </g>
                <g id="arrowLeft" xlink:href="#dirArrow" transform="rotate(270) translate(-36 17)" onmousedown="handlePan(-1,0)">
                  <use xlink:href="#rim" fill="#404040">
                        <set attributeName="fill" to="#808080" begin="arrowLeft.mouseover" end="arrowLeft.mouseout"/>
                  </use>
                  <path fill="none" stroke="white" stroke-width="1.5" d="M0,-3.0v7 M-2.5,-0.5L0,-3.0L2.5,-0.5"/>
                </g>
        </g>
        <svg viewBox="0 0 15 15" width="100%" height="30px" preserveAspectRatio="xMaxYMin meet">
         <g id="arrow_out" transform="scale(0.3 0.3)">
          <a xlink:href="layoutgenerator_8hh__dep__incl_org.svg" target="_base">
           <rect id="button" ry="5" rx="5" y="6" x="6" height="38" width="38"
                fill="#f2f5e9" fill-opacity="0.5" stroke="#606060" stroke-width="1.0"/>
           <path id="arrow"
             d="M 11.500037,31.436501 C 11.940474,20.09759 22.043105,11.32322 32.158766,21.979434 L 37.068811,17.246167 C 37.068811,17.246167 37.088388,32 37.088388,32 L 22.160133,31.978069 C 22.160133,31.978069 26.997745,27.140456 26.997745,27.140456 C 18.528582,18.264221 13.291696,25.230495 11.500037,31.436501 z"
             style="fill:#404040;"/>
          </a>
         </g>
        </svg>
</svg>
