<?xml version="1.0" encoding="UTF-8" standalone="no"?>
<!DOCTYPE svg PUBLIC "-//W3C//DTD SVG 1.1//EN"
 "http://www.w3.org/Graphics/SVG/1.1/DTD/svg11.dtd">
<!-- Generated by graphviz version 2.38.0 (20140413.2041)
 -->
<!-- Title: main Pages: 1 -->
<svg width="371pt" height="252pt"
 viewBox="0.00 0.00 371.00 251.50" xmlns="http://www.w3.org/2000/svg" xmlns:xlink="http://www.w3.org/1999/xlink">
<g id="graph0" class="graph" transform="scale(1 1) rotate(0) translate(4 247.5)">
<title>main</title>
<polygon fill="white" stroke="none" points="-4,4 -4,-247.5 367,-247.5 367,4 -4,4"/>
<!-- Node0 -->
<g id="node1" class="node"><title>Node0</title>
<polygon fill="#bfbfbf" stroke="black" points="0,-126 0,-145 38,-145 38,-126 0,-126"/>
<text text-anchor="middle" x="19" y="-133" font-family="Helvetica,sans-Serif" font-size="10.00">main</text>
</g>
<!-- Node1 -->
<g id="node2" class="node"><title>Node1</title>
<g id="a_node2"><a xlink:href="class_model_1_1_model.html#a3e514fc4697bfcae2ccfced68dd5e725" target="_top" xlink:title="initModel alustaa Modellin tarvittavilla tiedoilla lukemalla XML&#45;tiedoston sekä tarvittavat konfig&#45;ti...">
<polygon fill="white" stroke="black" points="82,-224 82,-243 202,-243 202,-224 82,-224"/>
<text text-anchor="middle" x="142" y="-231" font-family="Helvetica,sans-Serif" font-size="10.00">Model::Model::initModel</text>
</a>
</g>
</g>
<!-- Node0&#45;&gt;Node1 -->
<g id="edge1" class="edge"><title>Node0&#45;&gt;Node1</title>
<path fill="none" stroke="midnightblue" d="M23.9232,-145.133C31.2264,-161.84 48.5139,-196.16 74,-214.5 76.6988,-216.442 79.5909,-218.186 82.6037,-219.752"/>
<polygon fill="midnightblue" stroke="midnightblue" points="81.3747,-223.037 91.9312,-223.938 84.2403,-216.65 81.3747,-223.037"/>
</g>
<!-- Node2 -->
<g id="node3" class="node"><title>Node2</title>
<g id="a_node3"><a xlink:href="class_model_1_1_model.html#ab690f2d34bac448b2c89cb96e8391439" target="_top" xlink:title="setController asettaa controllerin osoittimen muuttujaan controller_. ">
<polygon fill="white" stroke="black" points="74,-186 74,-205 210,-205 210,-186 74,-186"/>
<text text-anchor="middle" x="142" y="-193" font-family="Helvetica,sans-Serif" font-size="10.00">Model::Model::setController</text>
</a>
</g>
</g>
<!-- Node0&#45;&gt;Node2 -->
<g id="edge2" class="edge"><title>Node0&#45;&gt;Node2</title>
<path fill="none" stroke="midnightblue" d="M30.3655,-145.274C40.6893,-154.524 57.3587,-168.196 74,-176.5 78.6147,-178.803 83.5518,-180.866 88.5756,-182.705"/>
<polygon fill="midnightblue" stroke="midnightblue" points="87.6878,-186.099 98.2819,-185.97 89.9195,-179.464 87.6878,-186.099"/>
</g>
<!-- Node3 -->
<g id="node4" class="node"><title>Node3</title>
<g id="a_node4"><a xlink:href="class_view_1_1_view.html#a8eaab83aacfb592a6cbea40d24a8a9b7" target="_top" xlink:title="setController asettaa controllerin osoittimen muuttujaan controller_. ">
<polygon fill="white" stroke="black" points="79.5,-148 79.5,-167 204.5,-167 204.5,-148 79.5,-148"/>
<text text-anchor="middle" x="142" y="-155" font-family="Helvetica,sans-Serif" font-size="10.00">View::View::setController</text>
</a>
</g>
</g>
<!-- Node0&#45;&gt;Node3 -->
<g id="edge3" class="edge"><title>Node0&#45;&gt;Node3</title>
<path fill="none" stroke="midnightblue" d="M38.1149,-138.794C49.0424,-140.78 63.6773,-143.441 78.474,-146.132"/>
<polygon fill="midnightblue" stroke="midnightblue" points="78.2352,-149.646 88.7001,-147.991 79.4875,-142.758 78.2352,-149.646"/>
</g>
<!-- Node4 -->
<g id="node5" class="node"><title>Node4</title>
<g id="a_node5"><a xlink:href="class_controller_1_1_controller.html#a88b47fffe02698d09b6788d0aaa15ff7" target="_top" xlink:title="Asettaa kontrollerin modelin. ">
<polygon fill="white" stroke="black" points="89.5,-98.5 89.5,-128.5 194.5,-128.5 194.5,-98.5 89.5,-98.5"/>
<text text-anchor="start" x="97.5" y="-116.5" font-family="Helvetica,sans-Serif" font-size="10.00">Controller::Controller</text>
<text text-anchor="middle" x="142" y="-105.5" font-family="Helvetica,sans-Serif" font-size="10.00">::setModel</text>
</a>
</g>
</g>
<!-- Node0&#45;&gt;Node4 -->
<g id="edge4" class="edge"><title>Node0&#45;&gt;Node4</title>
<path fill="none" stroke="midnightblue" d="M38.1149,-132.206C49.3097,-130.171 64.3955,-127.428 79.5601,-124.671"/>
<polygon fill="midnightblue" stroke="midnightblue" points="80.2841,-128.097 89.4966,-122.864 79.0318,-121.21 80.2841,-128.097"/>
</g>
<!-- Node5 -->
<g id="node6" class="node"><title>Node5</title>
<g id="a_node6"><a xlink:href="class_controller_1_1_controller.html#a9bbd9fad2e479248027e6c89618ec103" target="_top" xlink:title="Asettaa kontrollerin näkymän. ">
<polygon fill="white" stroke="black" points="89.5,-49.5 89.5,-79.5 194.5,-79.5 194.5,-49.5 89.5,-49.5"/>
<text text-anchor="start" x="97.5" y="-67.5" font-family="Helvetica,sans-Serif" font-size="10.00">Controller::Controller</text>
<text text-anchor="middle" x="142" y="-56.5" font-family="Helvetica,sans-Serif" font-size="10.00">::setView</text>
</a>
</g>
</g>
<!-- Node0&#45;&gt;Node5 -->
<g id="edge5" class="edge"><title>Node0&#45;&gt;Node5</title>
<path fill="none" stroke="midnightblue" d="M29.1632,-125.912C39.3231,-115.734 56.5875,-99.7339 74,-89.5 77.4536,-87.4702 81.1009,-85.555 84.8383,-83.7576"/>
<polygon fill="midnightblue" stroke="midnightblue" points="86.5626,-86.8202 94.2549,-79.5346 83.6982,-80.4331 86.5626,-86.8202"/>
</g>
<!-- Node6 -->
<g id="node7" class="node"><title>Node6</title>
<g id="a_node7"><a xlink:href="class_controller_1_1_controller.html#a656923ae2095c6e646b5a46495a05179" target="_top" xlink:title="Alustaa näkymän. ">
<polygon fill="white" stroke="black" points="89.5,-0.5 89.5,-30.5 194.5,-30.5 194.5,-0.5 89.5,-0.5"/>
<text text-anchor="start" x="97.5" y="-18.5" font-family="Helvetica,sans-Serif" font-size="10.00">Controller::Controller</text>
<text text-anchor="middle" x="142" y="-7.5" font-family="Helvetica,sans-Serif" font-size="10.00">::startNewGame</text>
</a>
</g>
</g>
<!-- Node0&#45;&gt;Node6 -->
<g id="edge6" class="edge"><title>Node0&#45;&gt;Node6</title>
<path fill="none" stroke="midnightblue" d="M22.9399,-125.975C29.2472,-107.052 45.8375,-64.4883 74,-40.5 75.9848,-38.8094 78.0948,-37.2279 80.2961,-35.7491"/>
<polygon fill="midnightblue" stroke="midnightblue" points="82.3167,-38.6214 89.1678,-30.5398 78.7723,-32.5851 82.3167,-38.6214"/>
</g>
<!-- Node7 -->
<g id="node8" class="node"><title>Node7</title>
<g id="a_node8"><a xlink:href="class_interface_1_1_view_interface.html#a14f12a6ff3216389103c8c40b06234ff" target="_top" xlink:title="initMap kertoo näkymälle, että model on alustettu ja näkymän voi alustaa. ">
<polygon fill="white" stroke="black" points="246,-0.5 246,-30.5 363,-30.5 363,-0.5 246,-0.5"/>
<text text-anchor="start" x="254" y="-18.5" font-family="Helvetica,sans-Serif" font-size="10.00">Interface::ViewInterface</text>
<text text-anchor="middle" x="304.5" y="-7.5" font-family="Helvetica,sans-Serif" font-size="10.00">::initMap</text>
</a>
</g>
</g>
<!-- Node6&#45;&gt;Node7 -->
<g id="edge7" class="edge"><title>Node6&#45;&gt;Node7</title>
<path fill="none" stroke="midnightblue" d="M194.667,-15.5C207.665,-15.5 221.814,-15.5 235.479,-15.5"/>
<polygon fill="midnightblue" stroke="midnightblue" points="235.807,-19.0001 245.807,-15.5 235.807,-12.0001 235.807,-19.0001"/>
</g>
</g>
</svg>
