<?xml version="1.0" encoding="UTF-8" standalone="no"?>
<!DOCTYPE svg PUBLIC "-//W3C//DTD SVG 1.1//EN"
 "http://www.w3.org/Graphics/SVG/1.1/DTD/svg11.dtd">
<!-- Generated by graphviz version 2.38.0 (20140413.2041)
 -->
<!-- Title: Model/mapprocessor.hh Pages: 1 -->
<svg width="217pt" height="140pt"
 viewBox="0.00 0.00 217.00 140.00" xmlns="http://www.w3.org/2000/svg" xmlns:xlink="http://www.w3.org/1999/xlink">
<g id="graph0" class="graph" transform="scale(1 1) rotate(0) translate(4 136)">
<title>Model/mapprocessor.hh</title>
<polygon fill="white" stroke="none" points="-4,4 -4,-136 213,-136 213,4 -4,4"/>
<!-- Node0 -->
<g id="node1" class="node"><title>Node0</title>
<polygon fill="#bfbfbf" stroke="black" points="0,-112.5 0,-131.5 121,-131.5 121,-112.5 0,-112.5"/>
<text text-anchor="middle" x="60.5" y="-119.5" font-family="Helvetica,sans-Serif" font-size="10.00">Model/mapprocessor.hh</text>
</g>
<!-- Node1 -->
<g id="node2" class="node"><title>Node1</title>
<polygon fill="white" stroke="#bfbfbf" points="7.5,-0.5 7.5,-19.5 49.5,-19.5 49.5,-0.5 7.5,-0.5"/>
<text text-anchor="middle" x="28.5" y="-7.5" font-family="Helvetica,sans-Serif" font-size="10.00">vector</text>
</g>
<!-- Node0&#45;&gt;Node1 -->
<g id="edge1" class="edge"><title>Node0&#45;&gt;Node1</title>
<path fill="none" stroke="midnightblue" d="M49.2344,-112.427C39.5337,-104.275 26.2207,-91.0465 20.5,-76 14.8179,-61.0548 17.7923,-42.9153 21.6275,-29.6005"/>
<polygon fill="midnightblue" stroke="midnightblue" points="25.0755,-30.3199 24.8804,-19.7268 18.427,-28.1295 25.0755,-30.3199"/>
</g>
<!-- Node2 -->
<g id="node3" class="node"><title>Node2</title>
<g id="a_node3"><a xlink:href="parkinghalllayoutinterface_8hh.html" target="_top" xlink:title="Interface/parkinghalllayoutinterface.hh">
<polygon fill="white" stroke="black" points="30,-56.5 30,-75.5 209,-75.5 209,-56.5 30,-56.5"/>
<text text-anchor="middle" x="119.5" y="-63.5" font-family="Helvetica,sans-Serif" font-size="10.00">Interface/parkinghalllayoutinterface.hh</text>
</a>
</g>
</g>
<!-- Node0&#45;&gt;Node2 -->
<g id="edge2" class="edge"><title>Node0&#45;&gt;Node2</title>
<path fill="none" stroke="midnightblue" d="M69.9794,-112.324C78.7011,-104.341 91.8435,-92.3128 102.398,-82.6529"/>
<polygon fill="midnightblue" stroke="midnightblue" points="104.834,-85.1674 109.848,-75.8339 100.108,-80.0036 104.834,-85.1674"/>
</g>
<!-- Node2&#45;&gt;Node1 -->
<g id="edge3" class="edge"><title>Node2&#45;&gt;Node1</title>
<path fill="none" stroke="midnightblue" d="M104.879,-56.324C90.5511,-47.8215 68.4875,-34.7288 51.7513,-24.7975"/>
<polygon fill="midnightblue" stroke="midnightblue" points="53.4704,-21.7478 43.0844,-19.6545 49.8982,-27.7677 53.4704,-21.7478"/>
</g>
<!-- Node3 -->
<g id="node4" class="node"><title>Node3</title>
<polygon fill="white" stroke="#bfbfbf" points="96,-0.5 96,-19.5 143,-19.5 143,-0.5 96,-0.5"/>
<text text-anchor="middle" x="119.5" y="-7.5" font-family="Helvetica,sans-Serif" font-size="10.00">QPoint</text>
</g>
<!-- Node2&#45;&gt;Node3 -->
<g id="edge4" class="edge"><title>Node2&#45;&gt;Node3</title>
<path fill="none" stroke="midnightblue" d="M119.5,-56.083C119.5,-49.0059 119.5,-38.8611 119.5,-29.9865"/>
<polygon fill="midnightblue" stroke="midnightblue" points="123,-29.751 119.5,-19.7511 116,-29.7511 123,-29.751"/>
</g>
</g>
</svg>
