<?xml version="1.0" encoding="UTF-8" standalone="no"?>
<!DOCTYPE svg PUBLIC "-//W3C//DTD SVG 1.1//EN"
 "http://www.w3.org/Graphics/SVG/1.1/DTD/svg11.dtd">
<!-- Generated by graphviz version 2.38.0 (20140413.2041)
 -->
<!-- Title: Model/mapprocessor.cc Pages: 1 -->
<svg width="724pt" height="252pt"
 viewBox="0.00 0.00 724.12 252.00" xmlns="http://www.w3.org/2000/svg" xmlns:xlink="http://www.w3.org/1999/xlink">
<g id="graph0" class="graph" transform="scale(1 1) rotate(0) translate(4 248)">
<title>Model/mapprocessor.cc</title>
<polygon fill="white" stroke="none" points="-4,4 -4,-248 720.12,-248 720.12,4 -4,4"/>
<!-- Node0 -->
<g id="node1" class="node"><title>Node0</title>
<polygon fill="#bfbfbf" stroke="black" points="230.62,-224.5 230.62,-243.5 351.62,-243.5 351.62,-224.5 230.62,-224.5"/>
<text text-anchor="middle" x="291.12" y="-231.5" font-family="Helvetica,sans-Serif" font-size="10.00">Model/mapprocessor.cc</text>
</g>
<!-- Node1 -->
<g id="node2" class="node"><title>Node1</title>
<g id="a_node2"><a xlink:href="mapprocessor_8hh.html" target="_top" xlink:title="mapprocessor.hh">
<polygon fill="white" stroke="black" points="624.12,-112.5 624.12,-131.5 716.12,-131.5 716.12,-112.5 624.12,-112.5"/>
<text text-anchor="middle" x="670.12" y="-119.5" font-family="Helvetica,sans-Serif" font-size="10.00">mapprocessor.hh</text>
</a>
</g>
</g>
<!-- Node0&#45;&gt;Node1 -->
<g id="edge1" class="edge"><title>Node0&#45;&gt;Node1</title>
<path fill="none" stroke="midnightblue" d="M295.928,-224.039C304.237,-209.531 322.761,-181.199 347.12,-168 449.999,-112.252 493.915,-147.718 613.996,-132.047"/>
<polygon fill="midnightblue" stroke="midnightblue" points="614.503,-135.51 623.922,-130.658 613.533,-128.578 614.503,-135.51"/>
</g>
<!-- Node2 -->
<g id="node3" class="node"><title>Node2</title>
<polygon fill="white" stroke="#bfbfbf" points="282.12,-0.5 282.12,-19.5 324.12,-19.5 324.12,-0.5 282.12,-0.5"/>
<text text-anchor="middle" x="303.12" y="-7.5" font-family="Helvetica,sans-Serif" font-size="10.00">vector</text>
</g>
<!-- Node0&#45;&gt;Node2 -->
<g id="edge21" class="edge"><title>Node0&#45;&gt;Node2</title>
<path fill="none" stroke="midnightblue" d="M230.346,-229.667C132.489,-221.798 -43.8434,-195.862 10.1202,-112 67.2312,-23.2467 208.841,-11.2061 271.931,-10.427"/>
<polygon fill="midnightblue" stroke="midnightblue" points="272.073,-13.9267 282.061,-10.3922 272.049,-6.92671 272.073,-13.9267"/>
</g>
<!-- Node5 -->
<g id="node6" class="node"><title>Node5</title>
<g id="a_node6"><a xlink:href="roomgenerator_8hh.html" target="_top" xlink:title="roomgenerator.hh">
<polygon fill="white" stroke="black" points="208.12,-168.5 208.12,-187.5 300.12,-187.5 300.12,-168.5 208.12,-168.5"/>
<text text-anchor="middle" x="254.12" y="-175.5" font-family="Helvetica,sans-Serif" font-size="10.00">roomgenerator.hh</text>
</a>
</g>
</g>
<!-- Node0&#45;&gt;Node5 -->
<g id="edge6" class="edge"><title>Node0&#45;&gt;Node5</title>
<path fill="none" stroke="midnightblue" d="M285.01,-224.083C279.838,-216.534 272.274,-205.495 265.926,-196.23"/>
<polygon fill="midnightblue" stroke="midnightblue" points="268.656,-194.022 260.116,-187.751 262.881,-197.979 268.656,-194.022"/>
</g>
<!-- Node6 -->
<g id="node7" class="node"><title>Node6</title>
<polygon fill="white" stroke="#bfbfbf" points="19.6202,-112.5 19.6202,-131.5 54.6202,-131.5 54.6202,-112.5 19.6202,-112.5"/>
<text text-anchor="middle" x="37.1202" y="-119.5" font-family="Helvetica,sans-Serif" font-size="10.00">map</text>
</g>
<!-- Node0&#45;&gt;Node6 -->
<g id="edge20" class="edge"><title>Node0&#45;&gt;Node6</title>
<path fill="none" stroke="midnightblue" d="M271.189,-224.368C226.017,-204.806 115.789,-157.069 64.3685,-134.8"/>
<polygon fill="midnightblue" stroke="midnightblue" points="65.4726,-131.465 54.9052,-130.702 62.6907,-137.888 65.4726,-131.465"/>
</g>
<!-- Node12 -->
<g id="node13" class="node"><title>Node12</title>
<polygon fill="white" stroke="#bfbfbf" points="356.62,-168.5 356.62,-187.5 399.62,-187.5 399.62,-168.5 356.62,-168.5"/>
<text text-anchor="middle" x="378.12" y="-175.5" font-family="Helvetica,sans-Serif" font-size="10.00">queue</text>
</g>
<!-- Node0&#45;&gt;Node12 -->
<g id="edge19" class="edge"><title>Node0&#45;&gt;Node12</title>
<path fill="none" stroke="midnightblue" d="M305.098,-224.324C318.67,-215.9 339.5,-202.971 355.445,-193.074"/>
<polygon fill="midnightblue" stroke="midnightblue" points="357.526,-195.902 364.177,-187.655 353.835,-189.954 357.526,-195.902"/>
</g>
<!-- Node13 -->
<g id="node14" class="node"><title>Node13</title>
<polygon fill="white" stroke="#bfbfbf" points="418.12,-168.5 418.12,-187.5 470.12,-187.5 470.12,-168.5 418.12,-168.5"/>
<text text-anchor="middle" x="444.12" y="-175.5" font-family="Helvetica,sans-Serif" font-size="10.00">QDebug</text>
</g>
<!-- Node0&#45;&gt;Node13 -->
<g id="edge22" class="edge"><title>Node0&#45;&gt;Node13</title>
<path fill="none" stroke="midnightblue" d="M315.363,-224.444C340.991,-215.399 381.605,-201.064 410.359,-190.916"/>
<polygon fill="midnightblue" stroke="midnightblue" points="411.725,-194.145 419.99,-187.516 409.395,-187.544 411.725,-194.145"/>
</g>
<!-- Node1&#45;&gt;Node2 -->
<g id="edge2" class="edge"><title>Node1&#45;&gt;Node2</title>
<path fill="none" stroke="midnightblue" d="M653.578,-112.42C626.536,-98.7098 570.883,-71.8011 521.12,-56 456.096,-35.353 377.082,-21.7825 334.297,-15.3474"/>
<polygon fill="midnightblue" stroke="midnightblue" points="334.633,-11.8593 324.23,-13.8651 333.614,-18.7846 334.633,-11.8593"/>
</g>
<!-- Node3 -->
<g id="node4" class="node"><title>Node3</title>
<g id="a_node4"><a xlink:href="parkinghalllayoutinterface_8hh.html" target="_top" xlink:title="Interface/parkinghalllayoutinterface.hh">
<polygon fill="white" stroke="black" points="333.62,-56.5 333.62,-75.5 512.62,-75.5 512.62,-56.5 333.62,-56.5"/>
<text text-anchor="middle" x="423.12" y="-63.5" font-family="Helvetica,sans-Serif" font-size="10.00">Interface/parkinghalllayoutinterface.hh</text>
</a>
</g>
</g>
<!-- Node1&#45;&gt;Node3 -->
<g id="edge3" class="edge"><title>Node1&#45;&gt;Node3</title>
<path fill="none" stroke="midnightblue" d="M630.982,-112.444C587.894,-103.023 518.561,-87.8656 471.949,-77.6752"/>
<polygon fill="midnightblue" stroke="midnightblue" points="472.592,-74.2331 462.075,-75.5164 471.097,-81.0715 472.592,-74.2331"/>
</g>
<!-- Node3&#45;&gt;Node2 -->
<g id="edge4" class="edge"><title>Node3&#45;&gt;Node2</title>
<path fill="none" stroke="midnightblue" d="M404.106,-56.4435C384.533,-47.6356 353.813,-33.8116 331.391,-23.722"/>
<polygon fill="midnightblue" stroke="midnightblue" points="332.601,-20.4284 322.046,-19.5164 329.728,-26.8119 332.601,-20.4284"/>
</g>
<!-- Node4 -->
<g id="node5" class="node"><title>Node4</title>
<polygon fill="white" stroke="#bfbfbf" points="399.62,-0.5 399.62,-19.5 446.62,-19.5 446.62,-0.5 399.62,-0.5"/>
<text text-anchor="middle" x="423.12" y="-7.5" font-family="Helvetica,sans-Serif" font-size="10.00">QPoint</text>
</g>
<!-- Node3&#45;&gt;Node4 -->
<g id="edge5" class="edge"><title>Node3&#45;&gt;Node4</title>
<path fill="none" stroke="midnightblue" d="M423.12,-56.083C423.12,-49.0059 423.12,-38.8611 423.12,-29.9865"/>
<polygon fill="midnightblue" stroke="midnightblue" points="426.62,-29.751 423.12,-19.7511 419.62,-29.7511 426.62,-29.751"/>
</g>
<!-- Node5&#45;&gt;Node1 -->
<g id="edge13" class="edge"><title>Node5&#45;&gt;Node1</title>
<path fill="none" stroke="midnightblue" d="M300.288,-169.933C304.958,-169.261 309.631,-168.605 314.12,-168 444.384,-150.444 479.996,-150.852 613.703,-132.148"/>
<polygon fill="midnightblue" stroke="midnightblue" points="614.515,-135.568 623.929,-130.707 613.538,-128.636 614.515,-135.568"/>
</g>
<!-- Node5&#45;&gt;Node2 -->
<g id="edge8" class="edge"><title>Node5&#45;&gt;Node2</title>
<path fill="none" stroke="midnightblue" d="M207.77,-169.493C167.913,-161.981 114.883,-149.089 102.12,-132 96.8012,-124.878 97.4545,-119.566 102.12,-112 139.473,-51.428 225.487,-25.9139 271.964,-16.2385"/>
<polygon fill="midnightblue" stroke="midnightblue" points="272.656,-19.6696 281.793,-14.3067 271.306,-12.801 272.656,-19.6696"/>
</g>
<!-- Node5&#45;&gt;Node3 -->
<g id="edge12" class="edge"><title>Node5&#45;&gt;Node3</title>
<path fill="none" stroke="midnightblue" d="M300.271,-169.342C364.695,-158.433 474.402,-138.968 480.12,-132 494.948,-113.928 470.635,-93.7864 449.319,-80.7827"/>
<polygon fill="midnightblue" stroke="midnightblue" points="450.898,-77.6528 440.49,-75.6735 447.392,-83.7115 450.898,-77.6528"/>
</g>
<!-- Node5&#45;&gt;Node6 -->
<g id="edge7" class="edge"><title>Node5&#45;&gt;Node6</title>
<path fill="none" stroke="midnightblue" d="M217.168,-168.42C179.755,-159.637 120.279,-145.412 69.1202,-132 67.6548,-131.616 66.1534,-131.216 64.6389,-130.807"/>
<polygon fill="midnightblue" stroke="midnightblue" points="65.2655,-127.349 54.6948,-128.064 63.404,-134.097 65.2655,-127.349"/>
</g>
<!-- Node7 -->
<g id="node8" class="node"><title>Node7</title>
<polygon fill="white" stroke="#bfbfbf" points="528.12,-112.5 528.12,-131.5 606.12,-131.5 606.12,-112.5 528.12,-112.5"/>
<text text-anchor="middle" x="567.12" y="-119.5" font-family="Helvetica,sans-Serif" font-size="10.00">unordered_set</text>
</g>
<!-- Node5&#45;&gt;Node7 -->
<g id="edge9" class="edge"><title>Node5&#45;&gt;Node7</title>
<path fill="none" stroke="midnightblue" d="M300.304,-169.032C358.496,-158.993 458.091,-141.81 517.749,-131.518"/>
<polygon fill="midnightblue" stroke="midnightblue" points="518.427,-134.952 527.687,-129.803 517.237,-128.054 518.427,-134.952"/>
</g>
<!-- Node8 -->
<g id="node9" class="node"><title>Node8</title>
<polygon fill="white" stroke="#bfbfbf" points="111.62,-112.5 111.62,-131.5 160.62,-131.5 160.62,-112.5 111.62,-112.5"/>
<text text-anchor="middle" x="136.12" y="-119.5" font-family="Helvetica,sans-Serif" font-size="10.00">random</text>
</g>
<!-- Node5&#45;&gt;Node8 -->
<g id="edge10" class="edge"><title>Node5&#45;&gt;Node8</title>
<path fill="none" stroke="midnightblue" d="M235.423,-168.444C216.176,-159.636 185.968,-145.812 163.92,-135.722"/>
<polygon fill="midnightblue" stroke="midnightblue" points="165.28,-132.495 154.73,-131.516 162.367,-138.86 165.28,-132.495"/>
</g>
<!-- Node9 -->
<g id="node10" class="node"><title>Node9</title>
<polygon fill="white" stroke="#bfbfbf" points="179.12,-112.5 179.12,-131.5 231.12,-131.5 231.12,-112.5 179.12,-112.5"/>
<text text-anchor="middle" x="205.12" y="-119.5" font-family="Helvetica,sans-Serif" font-size="10.00">memory</text>
</g>
<!-- Node5&#45;&gt;Node9 -->
<g id="edge11" class="edge"><title>Node5&#45;&gt;Node9</title>
<path fill="none" stroke="midnightblue" d="M246.029,-168.083C238.965,-160.298 228.533,-148.801 219.971,-139.367"/>
<polygon fill="midnightblue" stroke="midnightblue" points="222.373,-136.805 213.061,-131.751 217.189,-141.509 222.373,-136.805"/>
</g>
<!-- Node10 -->
<g id="node11" class="node"><title>Node10</title>
<g id="a_node11"><a xlink:href="layoutgenerator_8hh.html" target="_top" xlink:title="layoutgenerator.hh">
<polygon fill="white" stroke="black" points="374.62,-112.5 374.62,-131.5 471.62,-131.5 471.62,-112.5 374.62,-112.5"/>
<text text-anchor="middle" x="423.12" y="-119.5" font-family="Helvetica,sans-Serif" font-size="10.00">layoutgenerator.hh</text>
</a>
</g>
</g>
<!-- Node5&#45;&gt;Node10 -->
<g id="edge14" class="edge"><title>Node5&#45;&gt;Node10</title>
<path fill="none" stroke="midnightblue" d="M280.899,-168.444C309.453,-159.32 354.853,-144.813 386.657,-134.651"/>
<polygon fill="midnightblue" stroke="midnightblue" points="388.007,-137.894 396.467,-131.516 385.876,-131.226 388.007,-137.894"/>
</g>
<!-- Node11 -->
<g id="node12" class="node"><title>Node11</title>
<g id="a_node12"><a xlink:href="parkspaceinserter_8hh.html" target="_top" xlink:title="parkspaceinserter.hh">
<polygon fill="white" stroke="black" points="249.62,-112.5 249.62,-131.5 356.62,-131.5 356.62,-112.5 249.62,-112.5"/>
<text text-anchor="middle" x="303.12" y="-119.5" font-family="Helvetica,sans-Serif" font-size="10.00">parkspaceinserter.hh</text>
</a>
</g>
</g>
<!-- Node5&#45;&gt;Node11 -->
<g id="edge16" class="edge"><title>Node5&#45;&gt;Node11</title>
<path fill="none" stroke="midnightblue" d="M262.212,-168.083C269.276,-160.298 279.708,-148.801 288.269,-139.367"/>
<polygon fill="midnightblue" stroke="midnightblue" points="291.051,-141.509 295.179,-131.751 285.867,-136.805 291.051,-141.509"/>
</g>
<!-- Node10&#45;&gt;Node3 -->
<g id="edge15" class="edge"><title>Node10&#45;&gt;Node3</title>
<path fill="none" stroke="midnightblue" d="M423.12,-112.083C423.12,-105.006 423.12,-94.8611 423.12,-85.9865"/>
<polygon fill="midnightblue" stroke="midnightblue" points="426.62,-85.751 423.12,-75.7511 419.62,-85.7511 426.62,-85.751"/>
</g>
<!-- Node11&#45;&gt;Node2 -->
<g id="edge17" class="edge"><title>Node11&#45;&gt;Node2</title>
<path fill="none" stroke="midnightblue" d="M303.12,-112.368C303.12,-94.617 303.12,-53.6664 303.12,-29.5974"/>
<polygon fill="midnightblue" stroke="midnightblue" points="306.62,-29.5914 303.12,-19.5914 299.62,-29.5915 306.62,-29.5914"/>
</g>
<!-- Node11&#45;&gt;Node3 -->
<g id="edge18" class="edge"><title>Node11&#45;&gt;Node3</title>
<path fill="none" stroke="midnightblue" d="M322.135,-112.444C341.708,-103.636 372.428,-89.8116 394.849,-79.722"/>
<polygon fill="midnightblue" stroke="midnightblue" points="396.512,-82.8119 404.195,-75.5164 393.639,-76.4284 396.512,-82.8119"/>
</g>
</g>
</svg>
