<?xml version="1.0" encoding="UTF-8" standalone="no"?>
<!DOCTYPE svg PUBLIC "-//W3C//DTD SVG 1.1//EN"
 "http://www.w3.org/Graphics/SVG/1.1/DTD/svg11.dtd">
<!-- Generated by graphviz version 2.38.0 (20140413.2041)
 -->
<!-- Title: Model/mapprocessor.hh Pages: 1 -->
<svg width="712pt" height="196pt"
 viewBox="0.00 0.00 712.00 196.00" xmlns="http://www.w3.org/2000/svg" xmlns:xlink="http://www.w3.org/1999/xlink">
<g id="graph0" class="graph" transform="scale(1 1) rotate(0) translate(4 192)">
<title>Model/mapprocessor.hh</title>
<polygon fill="white" stroke="none" points="-4,4 -4,-192 708,-192 708,4 -4,4"/>
<!-- Node4 -->
<g id="node1" class="node"><title>Node4</title>
<polygon fill="#bfbfbf" stroke="black" points="442.5,-168.5 442.5,-187.5 563.5,-187.5 563.5,-168.5 442.5,-168.5"/>
<text text-anchor="middle" x="503" y="-175.5" font-family="Helvetica,sans-Serif" font-size="10.00">Model/mapprocessor.hh</text>
</g>
<!-- Node5 -->
<g id="node2" class="node"><title>Node5</title>
<g id="a_node2"><a xlink:href="roomgenerator_8hh.html" target="_top" xlink:title="Model/roomgenerator.hh">
<polygon fill="white" stroke="black" points="353,-112.5 353,-131.5 475,-131.5 475,-112.5 353,-112.5"/>
<text text-anchor="middle" x="414" y="-119.5" font-family="Helvetica,sans-Serif" font-size="10.00">Model/roomgenerator.hh</text>
</a>
</g>
</g>
<!-- Node4&#45;&gt;Node5 -->
<g id="edge1" class="edge"><title>Node4&#45;&gt;Node5</title>
<path fill="none" stroke="midnightblue" d="M479.762,-162.901C463.442,-152.999 442.135,-140.071 428.264,-131.655"/>
<polygon fill="midnightblue" stroke="midnightblue" points="478.336,-166.129 488.701,-168.324 481.967,-160.144 478.336,-166.129"/>
</g>
<!-- Node10 -->
<g id="node7" class="node"><title>Node10</title>
<g id="a_node7"><a xlink:href="mapprocessor_8cc.html" target="_top" xlink:title="Model/mapprocessor.cc">
<polygon fill="white" stroke="black" points="442.5,-56.5 442.5,-75.5 563.5,-75.5 563.5,-56.5 442.5,-56.5"/>
<text text-anchor="middle" x="503" y="-63.5" font-family="Helvetica,sans-Serif" font-size="10.00">Model/mapprocessor.cc</text>
</a>
</g>
</g>
<!-- Node4&#45;&gt;Node10 -->
<g id="edge10" class="edge"><title>Node4&#45;&gt;Node10</title>
<path fill="none" stroke="midnightblue" d="M503,-158.348C503,-134.254 503,-93.3079 503,-75.5914"/>
<polygon fill="midnightblue" stroke="midnightblue" points="499.5,-158.368 503,-168.368 506.5,-158.369 499.5,-158.368"/>
</g>
<!-- Node12 -->
<g id="node9" class="node"><title>Node12</title>
<g id="a_node9"><a xlink:href="roomgenerator_8cc.html" target="_top" xlink:title="Model/roomgenerator.cc">
<polygon fill="white" stroke="black" points="582,-56.5 582,-75.5 704,-75.5 704,-56.5 582,-56.5"/>
<text text-anchor="middle" x="643" y="-63.5" font-family="Helvetica,sans-Serif" font-size="10.00">Model/roomgenerator.cc</text>
</a>
</g>
</g>
<!-- Node4&#45;&gt;Node12 -->
<g id="edge11" class="edge"><title>Node4&#45;&gt;Node12</title>
<path fill="none" stroke="midnightblue" d="M521.941,-162.118C551.658,-138.769 608.293,-94.2699 632.065,-75.5914"/>
<polygon fill="midnightblue" stroke="midnightblue" points="519.686,-159.438 513.986,-168.368 524.011,-164.942 519.686,-159.438"/>
</g>
<!-- Node6 -->
<g id="node3" class="node"><title>Node6</title>
<g id="a_node3"><a xlink:href="model_8hh.html" target="_top" xlink:title="Model/model.hh">
<polygon fill="white" stroke="black" points="300,-56.5 300,-75.5 386,-75.5 386,-56.5 300,-56.5"/>
<text text-anchor="middle" x="343" y="-63.5" font-family="Helvetica,sans-Serif" font-size="10.00">Model/model.hh</text>
</a>
</g>
</g>
<!-- Node5&#45;&gt;Node6 -->
<g id="edge2" class="edge"><title>Node5&#45;&gt;Node6</title>
<path fill="none" stroke="midnightblue" d="M394.41,-106.101C381.632,-96.3824 365.387,-84.0269 354.615,-75.8339"/>
<polygon fill="midnightblue" stroke="midnightblue" points="392.514,-109.056 402.593,-112.324 396.752,-103.484 392.514,-109.056"/>
</g>
<!-- Node8 -->
<g id="node5" class="node"><title>Node8</title>
<g id="a_node5"><a xlink:href="model_8cc.html" target="_top" xlink:title="Model/model.cc">
<polygon fill="white" stroke="black" points="371,-0.5 371,-19.5 457,-19.5 457,-0.5 371,-0.5"/>
<text text-anchor="middle" x="414" y="-7.5" font-family="Helvetica,sans-Serif" font-size="10.00">Model/model.cc</text>
</a>
</g>
</g>
<!-- Node5&#45;&gt;Node8 -->
<g id="edge7" class="edge"><title>Node5&#45;&gt;Node8</title>
<path fill="none" stroke="midnightblue" d="M414,-102.348C414,-78.2538 414,-37.3079 414,-19.5914"/>
<polygon fill="midnightblue" stroke="midnightblue" points="410.5,-102.368 414,-112.368 417.5,-102.369 410.5,-102.368"/>
</g>
<!-- Node9 -->
<g id="node6" class="node"><title>Node9</title>
<g id="a_node6"><a xlink:href="layoutgenerator_8cc.html" target="_top" xlink:title="Model/layoutgenerator.cc">
<polygon fill="white" stroke="black" points="0,-56.5 0,-75.5 126,-75.5 126,-56.5 0,-56.5"/>
<text text-anchor="middle" x="63" y="-63.5" font-family="Helvetica,sans-Serif" font-size="10.00">Model/layoutgenerator.cc</text>
</a>
</g>
</g>
<!-- Node5&#45;&gt;Node9 -->
<g id="edge5" class="edge"><title>Node5&#45;&gt;Node9</title>
<path fill="none" stroke="midnightblue" d="M348.458,-110.917C282.147,-100.715 180.763,-85.1174 118.357,-75.5164"/>
<polygon fill="midnightblue" stroke="midnightblue" points="347.967,-114.382 358.383,-112.444 349.032,-107.464 347.967,-114.382"/>
</g>
<!-- Node5&#45;&gt;Node10 -->
<g id="edge6" class="edge"><title>Node5&#45;&gt;Node10</title>
<path fill="none" stroke="midnightblue" d="M437.238,-106.901C453.558,-96.9986 474.865,-84.0705 488.736,-75.6545"/>
<polygon fill="midnightblue" stroke="midnightblue" points="435.033,-104.144 428.299,-112.324 438.664,-110.129 435.033,-104.144"/>
</g>
<!-- Node11 -->
<g id="node8" class="node"><title>Node11</title>
<g id="a_node8"><a xlink:href="parkspaceinserter_8cc.html" target="_top" xlink:title="Model/parkspaceinserter.cc">
<polygon fill="white" stroke="black" points="144.5,-56.5 144.5,-75.5 281.5,-75.5 281.5,-56.5 144.5,-56.5"/>
<text text-anchor="middle" x="213" y="-63.5" font-family="Helvetica,sans-Serif" font-size="10.00">Model/parkspaceinserter.cc</text>
</a>
</g>
</g>
<!-- Node5&#45;&gt;Node11 -->
<g id="edge8" class="edge"><title>Node5&#45;&gt;Node11</title>
<path fill="none" stroke="midnightblue" d="M372.419,-109.829C334.469,-99.6333 279.19,-84.7823 244.7,-75.5164"/>
<polygon fill="midnightblue" stroke="midnightblue" points="371.585,-113.229 382.151,-112.444 373.402,-106.469 371.585,-113.229"/>
</g>
<!-- Node5&#45;&gt;Node12 -->
<g id="edge9" class="edge"><title>Node5&#45;&gt;Node12</title>
<path fill="none" stroke="midnightblue" d="M460.273,-110.088C503.537,-99.8865 567.255,-84.8612 606.884,-75.5164"/>
<polygon fill="midnightblue" stroke="midnightblue" points="459.215,-106.742 450.286,-112.444 460.822,-113.555 459.215,-106.742"/>
</g>
<!-- Node7 -->
<g id="node4" class="node"><title>Node7</title>
<g id="a_node4"><a xlink:href="main_8cc.html" target="_top" xlink:title="main.cc">
<polygon fill="white" stroke="black" points="301.5,-0.5 301.5,-19.5 352.5,-19.5 352.5,-0.5 301.5,-0.5"/>
<text text-anchor="middle" x="327" y="-7.5" font-family="Helvetica,sans-Serif" font-size="10.00">main.cc</text>
</a>
</g>
</g>
<!-- Node6&#45;&gt;Node7 -->
<g id="edge3" class="edge"><title>Node6&#45;&gt;Node7</title>
<path fill="none" stroke="midnightblue" d="M337.488,-46.3956C334.811,-37.362 331.722,-26.936 329.593,-19.7511"/>
<polygon fill="midnightblue" stroke="midnightblue" points="334.161,-47.4893 340.358,-56.083 340.873,-45.5007 334.161,-47.4893"/>
</g>
<!-- Node6&#45;&gt;Node8 -->
<g id="edge4" class="edge"><title>Node6&#45;&gt;Node8</title>
<path fill="none" stroke="midnightblue" d="M362.59,-50.1008C375.368,-40.3824 391.613,-28.0269 402.385,-19.8339"/>
<polygon fill="midnightblue" stroke="midnightblue" points="360.248,-47.4844 354.407,-56.324 364.486,-53.0561 360.248,-47.4844"/>
</g>
</g>
</svg>
