<?xml version="1.0" encoding="UTF-8" standalone="no"?>
<!DOCTYPE svg PUBLIC "-//W3C//DTD SVG 1.1//EN"
 "http://www.w3.org/Graphics/SVG/1.1/DTD/svg11.dtd">
<!-- Generated by graphviz version 2.38.0 (20140413.2041)
 -->
<!-- Title: Model/mapprocessor.hh Pages: 1 -->
<!--zoomable 196 -->
<svg id="main" version="1.1" xmlns="http://www.w3.org/2000/svg" xmlns:xlink="http://www.w3.org/1999/xlink" xml:space="preserve" onload="init(evt)">
<style type="text/css"><![CDATA[
.edge:hover path { stroke: red; }
.edge:hover polygon { stroke: red; fill: red; }
]]></style>
<script type="text/javascript"><![CDATA[
var edges = document.getElementsByTagName('g');
if (edges && edges.length) {
  for (var i=0;i<edges.length;i++) {
    if (edges[i].id.substr(0,4)=='edge') {
      edges[i].setAttribute('class','edge');
    }
  }
}
]]></script>
        <defs>
                <circle id="rim" cx="0" cy="0" r="7"/>
                <circle id="rim2" cx="0" cy="0" r="3.5"/>
                <g id="zoomPlus">
                        <use xlink:href="#rim" fill="#404040">
                                <set attributeName="fill" to="#808080" begin="zoomplus.mouseover" end="zoomplus.mouseout"/>
                        </use>
                        <path d="M-4,0h8M0,-4v8" fill="none" stroke="white" stroke-width="1.5" pointer-events="none"/>
                </g>
                <g id="zoomMin">
                        <use xlink:href="#rim" fill="#404040">
                                <set attributeName="fill" to="#808080" begin="zoomminus.mouseover" end="zoomminus.mouseout"/>
                        </use>
                        <path d="M-4,0h8" fill="none" stroke="white" stroke-width="1.5" pointer-events="none"/>
                </g>
                <g id="dirArrow">
                        <path fill="none" stroke="white" stroke-width="1.5" d="M0,-3.0v7 M-2.5,-0.5L0,-3.0L2.5,-0.5"/>
                </g>
               <g id="resetDef">
                       <use xlink:href="#rim2" fill="#404040">
                               <set attributeName="fill" to="#808080" begin="reset.mouseover" end="reset.mouseout"/>
                       </use>
               </g>
        </defs>

<script type="text/javascript">
var viewWidth = 844;
var viewHeight = 196;
var sectionId = 'dynsection-1';
</script>
<script xlink:href="svgpan.js"/>
<svg id="graph" class="graph">
<g id="viewport">
<title>Model/mapprocessor.hh</title>
<polygon fill="white" stroke="none" points="-4,4 -4,-192 840,-192 840,4 -4,4"/>
<!-- Node4 -->
<g id="node1" class="node"><title>Node4</title>
<polygon fill="#bfbfbf" stroke="black" points="574.5,-168.5 574.5,-187.5 695.5,-187.5 695.5,-168.5 574.5,-168.5"/>
<text text-anchor="middle" x="635" y="-175.5" font-family="Helvetica,sans-Serif" font-size="10.00">Model/mapprocessor.hh</text>
</g>
<!-- Node5 -->
<g id="node2" class="node"><title>Node5</title>
<g id="a_node2"><a xlink:href="roomgenerator_8hh.html" target="_top" xlink:title="Model/roomgenerator.hh">
<polygon fill="white" stroke="black" points="366,-112.5 366,-131.5 488,-131.5 488,-112.5 366,-112.5"/>
<text text-anchor="middle" x="427" y="-119.5" font-family="Helvetica,sans-Serif" font-size="10.00">Model/roomgenerator.hh</text>
</a>
</g>
</g>
<!-- Node4&#45;&gt;Node5 -->
<g id="edge1" class="edge"><title>Node4&#45;&gt;Node5</title>
<path fill="none" stroke="midnightblue" d="M592.222,-165.894C552.942,-155.697 495.571,-140.802 459.804,-131.516"/>
<polygon fill="midnightblue" stroke="midnightblue" points="591.483,-169.318 602.042,-168.444 593.242,-162.543 591.483,-169.318"/>
</g>
<!-- Node11 -->
<g id="node8" class="node"><title>Node11</title>
<g id="a_node8"><a xlink:href="mapprocessor_8cc.html" target="_top" xlink:title="Model/mapprocessor.cc">
<polygon fill="white" stroke="black" points="574.5,-56.5 574.5,-75.5 695.5,-75.5 695.5,-56.5 574.5,-56.5"/>
<text text-anchor="middle" x="635" y="-63.5" font-family="Helvetica,sans-Serif" font-size="10.00">Model/mapprocessor.cc</text>
</a>
</g>
</g>
<!-- Node4&#45;&gt;Node11 -->
<g id="edge11" class="edge"><title>Node4&#45;&gt;Node11</title>
<path fill="none" stroke="midnightblue" d="M635,-158.348C635,-134.254 635,-93.3079 635,-75.5914"/>
<polygon fill="midnightblue" stroke="midnightblue" points="631.5,-158.368 635,-168.368 638.5,-158.369 631.5,-158.368"/>
</g>
<!-- Node13 -->
<g id="node10" class="node"><title>Node13</title>
<g id="a_node10"><a xlink:href="roomgenerator_8cc.html" target="_top" xlink:title="Model/roomgenerator.cc">
<polygon fill="white" stroke="black" points="714,-56.5 714,-75.5 836,-75.5 836,-56.5 714,-56.5"/>
<text text-anchor="middle" x="775" y="-63.5" font-family="Helvetica,sans-Serif" font-size="10.00">Model/roomgenerator.cc</text>
</a>
</g>
</g>
<!-- Node4&#45;&gt;Node13 -->
<g id="edge12" class="edge"><title>Node4&#45;&gt;Node13</title>
<path fill="none" stroke="midnightblue" d="M653.941,-162.118C683.658,-138.769 740.293,-94.2699 764.065,-75.5914"/>
<polygon fill="midnightblue" stroke="midnightblue" points="651.686,-159.438 645.986,-168.368 656.011,-164.942 651.686,-159.438"/>
</g>
<!-- Node6 -->
<g id="node3" class="node"><title>Node6</title>
<g id="a_node3"><a xlink:href="controller_8cc.html" target="_top" xlink:title="Controller/controller.cc">
<polygon fill="white" stroke="black" points="442,-56.5 442,-75.5 556,-75.5 556,-56.5 442,-56.5"/>
<text text-anchor="middle" x="499" y="-63.5" font-family="Helvetica,sans-Serif" font-size="10.00">Controller/controller.cc</text>
</a>
</g>
</g>
<!-- Node5&#45;&gt;Node6 -->
<g id="edge2" class="edge"><title>Node5&#45;&gt;Node6</title>
<path fill="none" stroke="midnightblue" d="M446.866,-106.101C459.823,-96.3824 476.297,-84.0269 487.221,-75.8339"/>
<polygon fill="midnightblue" stroke="midnightblue" points="444.468,-103.524 438.568,-112.324 448.668,-109.124 444.468,-103.524"/>
</g>
<!-- Node7 -->
<g id="node4" class="node"><title>Node7</title>
<g id="a_node4"><a xlink:href="model_8hh.html" target="_top" xlink:title="Model/model.hh">
<polygon fill="white" stroke="black" points="0,-56.5 0,-75.5 86,-75.5 86,-56.5 0,-56.5"/>
<text text-anchor="middle" x="43" y="-63.5" font-family="Helvetica,sans-Serif" font-size="10.00">Model/model.hh</text>
</a>
</g>
</g>
<!-- Node5&#45;&gt;Node7 -->
<g id="edge3" class="edge"><title>Node5&#45;&gt;Node7</title>
<path fill="none" stroke="midnightblue" d="M355.855,-111.623C289.575,-102.79 188.028,-89.0053 100,-76 95.5401,-75.3411 90.8869,-74.6357 86.2462,-73.9206"/>
<polygon fill="midnightblue" stroke="midnightblue" points="355.402,-115.094 365.777,-112.944 356.326,-108.155 355.402,-115.094"/>
</g>
<!-- Node9 -->
<g id="node6" class="node"><title>Node9</title>
<g id="a_node6"><a xlink:href="model_8cc.html" target="_top" xlink:title="Model/model.cc">
<polygon fill="white" stroke="black" points="71,-0.5 71,-19.5 157,-19.5 157,-0.5 71,-0.5"/>
<text text-anchor="middle" x="114" y="-7.5" font-family="Helvetica,sans-Serif" font-size="10.00">Model/model.cc</text>
</a>
</g>
</g>
<!-- Node5&#45;&gt;Node9 -->
<g id="edge8" class="edge"><title>Node5&#45;&gt;Node9</title>
<path fill="none" stroke="midnightblue" d="M355.885,-118.714C279.681,-114.808 165.3,-104.281 133,-76 116.547,-61.5947 113.972,-33.809 113.794,-19.6908"/>
<polygon fill="midnightblue" stroke="midnightblue" points="355.749,-122.211 365.907,-119.2 356.089,-115.219 355.749,-122.211"/>
</g>
<!-- Node10 -->
<g id="node7" class="node"><title>Node10</title>
<g id="a_node7"><a xlink:href="layoutgenerator_8cc.html" target="_top" xlink:title="Model/layoutgenerator.cc">
<polygon fill="white" stroke="black" points="142,-56.5 142,-75.5 268,-75.5 268,-56.5 142,-56.5"/>
<text text-anchor="middle" x="205" y="-63.5" font-family="Helvetica,sans-Serif" font-size="10.00">Model/layoutgenerator.cc</text>
</a>
</g>
</g>
<!-- Node5&#45;&gt;Node10 -->
<g id="edge6" class="edge"><title>Node5&#45;&gt;Node10</title>
<path fill="none" stroke="midnightblue" d="M381.875,-110.024C339.94,-99.8232 278.348,-84.8414 240.012,-75.5164"/>
<polygon fill="midnightblue" stroke="midnightblue" points="381.28,-113.481 391.823,-112.444 382.934,-106.679 381.28,-113.481"/>
</g>
<!-- Node5&#45;&gt;Node11 -->
<g id="edge7" class="edge"><title>Node5&#45;&gt;Node11</title>
<path fill="none" stroke="midnightblue" d="M469.778,-109.894C509.058,-99.6966 566.429,-84.802 602.196,-75.5164"/>
<polygon fill="midnightblue" stroke="midnightblue" points="468.758,-106.543 459.958,-112.444 470.517,-113.318 468.758,-106.543"/>
</g>
<!-- Node12 -->
<g id="node9" class="node"><title>Node12</title>
<g id="a_node9"><a xlink:href="parkspaceinserter_8cc.html" target="_top" xlink:title="Model/parkspaceinserter.cc">
<polygon fill="white" stroke="black" points="286.5,-56.5 286.5,-75.5 423.5,-75.5 423.5,-56.5 286.5,-56.5"/>
<text text-anchor="middle" x="355" y="-63.5" font-family="Helvetica,sans-Serif" font-size="10.00">Model/parkspaceinserter.cc</text>
</a>
</g>
</g>
<!-- Node5&#45;&gt;Node12 -->
<g id="edge9" class="edge"><title>Node5&#45;&gt;Node12</title>
<path fill="none" stroke="midnightblue" d="M407.134,-106.101C394.177,-96.3824 377.703,-84.0269 366.779,-75.8339"/>
<polygon fill="midnightblue" stroke="midnightblue" points="405.332,-109.124 415.432,-112.324 409.532,-103.524 405.332,-109.124"/>
</g>
<!-- Node5&#45;&gt;Node13 -->
<g id="edge10" class="edge"><title>Node5&#45;&gt;Node13</title>
<path fill="none" stroke="midnightblue" d="M492.387,-110.854C558.138,-100.651 658.37,-85.0977 720.116,-75.5164"/>
<polygon fill="midnightblue" stroke="midnightblue" points="491.487,-107.451 482.142,-112.444 492.56,-114.369 491.487,-107.451"/>
</g>
<!-- Node8 -->
<g id="node5" class="node"><title>Node8</title>
<g id="a_node5"><a xlink:href="main_8cc.html" target="_top" xlink:title="main.cc">
<polygon fill="white" stroke="black" points="1.5,-0.5 1.5,-19.5 52.5,-19.5 52.5,-0.5 1.5,-0.5"/>
<text text-anchor="middle" x="27" y="-7.5" font-family="Helvetica,sans-Serif" font-size="10.00">main.cc</text>
</a>
</g>
</g>
<!-- Node7&#45;&gt;Node8 -->
<g id="edge4" class="edge"><title>Node7&#45;&gt;Node8</title>
<path fill="none" stroke="midnightblue" d="M37.4876,-46.3956C34.811,-37.362 31.7218,-26.936 29.5929,-19.7511"/>
<polygon fill="midnightblue" stroke="midnightblue" points="34.1612,-47.4893 40.3579,-56.083 40.8728,-45.5007 34.1612,-47.4893"/>
</g>
<!-- Node7&#45;&gt;Node9 -->
<g id="edge5" class="edge"><title>Node7&#45;&gt;Node9</title>
<path fill="none" stroke="midnightblue" d="M62.5897,-50.1008C75.3676,-40.3824 91.6127,-28.0269 102.385,-19.8339"/>
<polygon fill="midnightblue" stroke="midnightblue" points="60.2481,-47.4844 54.4074,-56.324 64.4857,-53.0561 60.2481,-47.4844"/>
</g>
</g>
</svg>
        <g id="navigator" transform="translate(0 0)" fill="#404254">
                <rect fill="#f2f5e9" fill-opacity="0.5" stroke="#606060" stroke-width=".5" x="0" y="0" width="60" height="60"/>
                <use id="zoomplus" xlink:href="#zoomPlus" x="17" y="9" onmousedown="handleZoom(evt,'in')"/>
                <use id="zoomminus" xlink:href="#zoomMin" x="42" y="9" onmousedown="handleZoom(evt,'out')"/>
                <use id="reset" xlink:href="#resetDef" x="30" y="36" onmousedown="handleReset()"/>
                <g id="arrowUp" xlink:href="#dirArrow" transform="translate(30 24)" onmousedown="handlePan(0,-1)">
                  <use xlink:href="#rim" fill="#404040">
                        <set attributeName="fill" to="#808080" begin="arrowUp.mouseover" end="arrowUp.mouseout"/>
                  </use>
                  <path fill="none" stroke="white" stroke-width="1.5" d="M0,-3.0v7 M-2.5,-0.5L0,-3.0L2.5,-0.5"/>
                </g>
                <g id="arrowRight" xlink:href="#dirArrow" transform="rotate(90) translate(36 -43)" onmousedown="handlePan(1,0)">
                  <use xlink:href="#rim" fill="#404040">
                        <set attributeName="fill" to="#808080" begin="arrowRight.mouseover" end="arrowRight.mouseout"/>
                  </use>
                  <path fill="none" stroke="white" stroke-width="1.5" d="M0,-3.0v7 M-2.5,-0.5L0,-3.0L2.5,-0.5"/>
                </g>
                <g id="arrowDown" xlink:href="#dirArrow" transform="rotate(180) translate(-30 -48)" onmousedown="handlePan(0,1)">
                  <use xlink:href="#rim" fill="#404040">
                        <set attributeName="fill" to="#808080" begin="arrowDown.mouseover" end="arrowDown.mouseout"/>
                  </use>
                  <path fill="none" stroke="white" stroke-width="1.5" d="M0,-3.0v7 M-2.5,-0.5L0,-3.0L2.5,-0.5"/>
                </g>
                <g id="arrowLeft" xlink:href="#dirArrow" transform="rotate(270) translate(-36 17)" onmousedown="handlePan(-1,0)">
                  <use xlink:href="#rim" fill="#404040">
                        <set attributeName="fill" to="#808080" begin="arrowLeft.mouseover" end="arrowLeft.mouseout"/>
                  </use>
                  <path fill="none" stroke="white" stroke-width="1.5" d="M0,-3.0v7 M-2.5,-0.5L0,-3.0L2.5,-0.5"/>
                </g>
        </g>
        <svg viewBox="0 0 15 15" width="100%" height="30px" preserveAspectRatio="xMaxYMin meet">
         <g id="arrow_out" transform="scale(0.3 0.3)">
          <a xlink:href="mapprocessor_8hh__dep__incl_org.svg" target="_base">
           <rect id="button" ry="5" rx="5" y="6" x="6" height="38" width="38"
                fill="#f2f5e9" fill-opacity="0.5" stroke="#606060" stroke-width="1.0"/>
           <path id="arrow"
             d="M 11.500037,31.436501 C 11.940474,20.09759 22.043105,11.32322 32.158766,21.979434 L 37.068811,17.246167 C 37.068811,17.246167 37.088388,32 37.088388,32 L 22.160133,31.978069 C 22.160133,31.978069 26.997745,27.140456 26.997745,27.140456 C 18.528582,18.264221 13.291696,25.230495 11.500037,31.436501 z"
             style="fill:#404040;"/>
          </a>
         </g>
        </svg>
</svg>
