<?xml version="1.0" encoding="UTF-8" standalone="no"?>
<!DOCTYPE svg PUBLIC "-//W3C//DTD SVG 1.1//EN"
 "http://www.w3.org/Graphics/SVG/1.1/DTD/svg11.dtd">
<!-- Generated by graphviz version 2.38.0 (20140413.2041)
 -->
<!-- Title: Interface/modelinterface.hh Pages: 1 -->
<svg width="386pt" height="196pt"
 viewBox="0.00 0.00 386.00 196.00" xmlns="http://www.w3.org/2000/svg" xmlns:xlink="http://www.w3.org/1999/xlink">
<g id="graph0" class="graph" transform="scale(1 1) rotate(0) translate(4 192)">
<title>Interface/modelinterface.hh</title>
<polygon fill="white" stroke="none" points="-4,4 -4,-192 382,-192 382,4 -4,4"/>
<!-- Node10 -->
<g id="node1" class="node"><title>Node10</title>
<polygon fill="#bfbfbf" stroke="black" points="185.5,-168.5 185.5,-187.5 318.5,-187.5 318.5,-168.5 185.5,-168.5"/>
<text text-anchor="middle" x="252" y="-175.5" font-family="Helvetica,sans-Serif" font-size="10.00">Interface/modelinterface.hh</text>
</g>
<!-- Node11 -->
<g id="node2" class="node"><title>Node11</title>
<g id="a_node2"><a xlink:href="controllerinterface_8hh.html" target="_top" xlink:title="Interface/controllerinterface.hh">
<polygon fill="white" stroke="black" points="129,-112.5 129,-131.5 275,-131.5 275,-112.5 129,-112.5"/>
<text text-anchor="middle" x="202" y="-119.5" font-family="Helvetica,sans-Serif" font-size="10.00">Interface/controllerinterface.hh</text>
</a>
</g>
</g>
<!-- Node10&#45;&gt;Node11 -->
<g id="edge1" class="edge"><title>Node10&#45;&gt;Node11</title>
<path fill="none" stroke="midnightblue" d="M236.924,-160.718C228.111,-151.2 217.334,-139.561 210.103,-131.751"/>
<polygon fill="midnightblue" stroke="midnightblue" points="234.381,-163.123 243.744,-168.083 239.518,-158.367 234.381,-163.123"/>
</g>
<!-- Node15 -->
<g id="node6" class="node"><title>Node15</title>
<g id="a_node6"><a xlink:href="model_8hh.html" target="_top" xlink:title="Model/model.hh">
<polygon fill="white" stroke="black" points="259,-56.5 259,-75.5 345,-75.5 345,-56.5 259,-56.5"/>
<text text-anchor="middle" x="302" y="-63.5" font-family="Helvetica,sans-Serif" font-size="10.00">Model/model.hh</text>
</a>
</g>
</g>
<!-- Node10&#45;&gt;Node15 -->
<g id="edge11" class="edge"><title>Node10&#45;&gt;Node15</title>
<path fill="none" stroke="midnightblue" d="M265.951,-160.361C272.2,-152.228 279.22,-142.044 284,-132 293.057,-112.968 298.276,-88.5647 300.577,-75.7527"/>
<polygon fill="midnightblue" stroke="midnightblue" points="263.131,-158.283 259.617,-168.278 268.597,-162.656 263.131,-158.283"/>
</g>
<!-- Node12 -->
<g id="node3" class="node"><title>Node12</title>
<g id="a_node3"><a xlink:href="controller_8hh.html" target="_top" xlink:title="Controller/controller.hh">
<polygon fill="white" stroke="black" points="35,-56.5 35,-75.5 149,-75.5 149,-56.5 35,-56.5"/>
<text text-anchor="middle" x="92" y="-63.5" font-family="Helvetica,sans-Serif" font-size="10.00">Controller/controller.hh</text>
</a>
</g>
</g>
<!-- Node11&#45;&gt;Node12 -->
<g id="edge2" class="edge"><title>Node11&#45;&gt;Node12</title>
<path fill="none" stroke="midnightblue" d="M175.238,-107.862C154.841,-97.8492 127.334,-84.3458 109.63,-75.6545"/>
<polygon fill="midnightblue" stroke="midnightblue" points="173.808,-111.059 184.327,-112.324 176.892,-104.775 173.808,-111.059"/>
</g>
<!-- Node11&#45;&gt;Node15 -->
<g id="edge5" class="edge"><title>Node11&#45;&gt;Node15</title>
<path fill="none" stroke="midnightblue" d="M227.088,-107.453C245.549,-97.4835 270.097,-84.2279 285.973,-75.6545"/>
<polygon fill="midnightblue" stroke="midnightblue" points="225.203,-104.493 218.067,-112.324 228.529,-110.652 225.203,-104.493"/>
</g>
<!-- Node17 -->
<g id="node8" class="node"><title>Node17</title>
<g id="a_node8"><a xlink:href="view_8hh.html" target="_top" xlink:title="View/view.hh">
<polygon fill="white" stroke="black" points="167,-56.5 167,-75.5 239,-75.5 239,-56.5 167,-56.5"/>
<text text-anchor="middle" x="203" y="-63.5" font-family="Helvetica,sans-Serif" font-size="10.00">View/view.hh</text>
</a>
</g>
</g>
<!-- Node11&#45;&gt;Node17 -->
<g id="edge8" class="edge"><title>Node11&#45;&gt;Node17</title>
<path fill="none" stroke="midnightblue" d="M202.355,-101.805C202.52,-92.9102 202.708,-82.7798 202.838,-75.7511"/>
<polygon fill="midnightblue" stroke="midnightblue" points="198.851,-102.02 202.165,-112.083 205.85,-102.15 198.851,-102.02"/>
</g>
<!-- Node13 -->
<g id="node4" class="node"><title>Node13</title>
<g id="a_node4"><a xlink:href="controller_8cc.html" target="_top" xlink:title="Controller/controller.cc">
<polygon fill="white" stroke="black" points="0,-0.5 0,-19.5 114,-19.5 114,-0.5 0,-0.5"/>
<text text-anchor="middle" x="57" y="-7.5" font-family="Helvetica,sans-Serif" font-size="10.00">Controller/controller.cc</text>
</a>
</g>
</g>
<!-- Node12&#45;&gt;Node13 -->
<g id="edge3" class="edge"><title>Node12&#45;&gt;Node13</title>
<path fill="none" stroke="midnightblue" d="M80.6999,-47.5656C74.6781,-38.2747 67.5314,-27.2484 62.672,-19.7511"/>
<polygon fill="midnightblue" stroke="midnightblue" points="77.8444,-49.5951 86.2205,-56.083 83.7185,-45.7878 77.8444,-49.5951"/>
</g>
<!-- Node14 -->
<g id="node5" class="node"><title>Node14</title>
<g id="a_node5"><a xlink:href="main_8cc.html" target="_top" xlink:title="main.cc">
<polygon fill="white" stroke="black" points="222.5,-0.5 222.5,-19.5 273.5,-19.5 273.5,-0.5 222.5,-0.5"/>
<text text-anchor="middle" x="248" y="-7.5" font-family="Helvetica,sans-Serif" font-size="10.00">main.cc</text>
</a>
</g>
</g>
<!-- Node12&#45;&gt;Node14 -->
<g id="edge4" class="edge"><title>Node12&#45;&gt;Node14</title>
<path fill="none" stroke="midnightblue" d="M126.17,-53.172C155.544,-43.0039 197.198,-28.5852 223.397,-19.5164"/>
<polygon fill="midnightblue" stroke="midnightblue" points="125.024,-49.8649 116.719,-56.4435 127.313,-56.4798 125.024,-49.8649"/>
</g>
<!-- Node15&#45;&gt;Node14 -->
<g id="edge6" class="edge"><title>Node15&#45;&gt;Node14</title>
<path fill="none" stroke="midnightblue" d="M286.002,-49.0024C276.433,-39.4329 264.639,-27.6389 256.751,-19.7511"/>
<polygon fill="midnightblue" stroke="midnightblue" points="283.537,-51.4868 293.083,-56.083 288.487,-46.537 283.537,-51.4868"/>
</g>
<!-- Node16 -->
<g id="node7" class="node"><title>Node16</title>
<g id="a_node7"><a xlink:href="model_8cc.html" target="_top" xlink:title="Model/model.cc">
<polygon fill="white" stroke="black" points="292,-0.5 292,-19.5 378,-19.5 378,-0.5 292,-0.5"/>
<text text-anchor="middle" x="335" y="-7.5" font-family="Helvetica,sans-Serif" font-size="10.00">Model/model.cc</text>
</a>
</g>
</g>
<!-- Node15&#45;&gt;Node16 -->
<g id="edge7" class="edge"><title>Node15&#45;&gt;Node16</title>
<path fill="none" stroke="midnightblue" d="M312.832,-47.2747C318.472,-38.0454 325.118,-27.1703 329.652,-19.7511"/>
<polygon fill="midnightblue" stroke="midnightblue" points="309.677,-45.7251 307.449,-56.083 315.65,-49.3753 309.677,-45.7251"/>
</g>
<!-- Node17&#45;&gt;Node14 -->
<g id="edge9" class="edge"><title>Node17&#45;&gt;Node14</title>
<path fill="none" stroke="midnightblue" d="M217.047,-48.144C224.887,-38.7357 234.329,-27.4046 240.707,-19.7511"/>
<polygon fill="midnightblue" stroke="midnightblue" points="214.144,-46.1601 210.431,-56.083 219.521,-50.6414 214.144,-46.1601"/>
</g>
<!-- Node18 -->
<g id="node9" class="node"><title>Node18</title>
<g id="a_node9"><a xlink:href="view_8cc.html" target="_top" xlink:title="View/view.cc">
<polygon fill="white" stroke="black" points="132,-0.5 132,-19.5 204,-19.5 204,-0.5 132,-0.5"/>
<text text-anchor="middle" x="168" y="-7.5" font-family="Helvetica,sans-Serif" font-size="10.00">View/view.cc</text>
</a>
</g>
</g>
<!-- Node17&#45;&gt;Node18 -->
<g id="edge10" class="edge"><title>Node17&#45;&gt;Node18</title>
<path fill="none" stroke="midnightblue" d="M191.7,-47.5656C185.678,-38.2747 178.531,-27.2484 173.672,-19.7511"/>
<polygon fill="midnightblue" stroke="midnightblue" points="188.844,-49.5951 197.22,-56.083 194.719,-45.7878 188.844,-49.5951"/>
</g>
</g>
</svg>
