<?xml version="1.0" encoding="UTF-8" standalone="no"?>
<!DOCTYPE svg PUBLIC "-//W3C//DTD SVG 1.1//EN"
 "http://www.w3.org/Graphics/SVG/1.1/DTD/svg11.dtd">
<!-- Generated by graphviz version 2.38.0 (20140413.2041)
 -->
<!-- Title: Interface/modelinterface.hh Pages: 1 -->
<svg width="568pt" height="196pt"
 viewBox="0.00 0.00 568.00 196.00" xmlns="http://www.w3.org/2000/svg" xmlns:xlink="http://www.w3.org/1999/xlink">
<g id="graph0" class="graph" transform="scale(1 1) rotate(0) translate(4 192)">
<title>Interface/modelinterface.hh</title>
<polygon fill="white" stroke="none" points="-4,4 -4,-192 564,-192 564,4 -4,4"/>
<!-- Node0 -->
<g id="node1" class="node"><title>Node0</title>
<polygon fill="#bfbfbf" stroke="black" points="265.5,-168.5 265.5,-187.5 398.5,-187.5 398.5,-168.5 265.5,-168.5"/>
<text text-anchor="middle" x="332" y="-175.5" font-family="Helvetica,sans-Serif" font-size="10.00">Interface/modelinterface.hh</text>
</g>
<!-- Node1 -->
<g id="node2" class="node"><title>Node1</title>
<polygon fill="white" stroke="#bfbfbf" points="0,-56.5 0,-75.5 42,-75.5 42,-56.5 0,-56.5"/>
<text text-anchor="middle" x="21" y="-63.5" font-family="Helvetica,sans-Serif" font-size="10.00">vector</text>
</g>
<!-- Node0&#45;&gt;Node1 -->
<g id="edge1" class="edge"><title>Node0&#45;&gt;Node1</title>
<path fill="none" stroke="midnightblue" d="M265.463,-176.911C184.357,-175.24 54.2181,-166.991 23,-132 11.9795,-119.647 12.927,-100.122 15.7482,-85.6921"/>
<polygon fill="midnightblue" stroke="midnightblue" points="19.179,-86.3943 18.1038,-75.8541 12.3714,-84.7643 19.179,-86.3943"/>
</g>
<!-- Node2 -->
<g id="node3" class="node"><title>Node2</title>
<polygon fill="white" stroke="#bfbfbf" points="300,-56.5 300,-75.5 352,-75.5 352,-56.5 300,-56.5"/>
<text text-anchor="middle" x="326" y="-63.5" font-family="Helvetica,sans-Serif" font-size="10.00">memory</text>
</g>
<!-- Node0&#45;&gt;Node2 -->
<g id="edge2" class="edge"><title>Node0&#45;&gt;Node2</title>
<path fill="none" stroke="midnightblue" d="M331.529,-168.368C330.561,-150.617 328.327,-109.666 327.014,-85.5974"/>
<polygon fill="midnightblue" stroke="midnightblue" points="330.508,-85.3859 326.469,-75.5914 323.519,-85.7672 330.508,-85.3859"/>
</g>
<!-- Node3 -->
<g id="node4" class="node"><title>Node3</title>
<polygon fill="white" stroke="#bfbfbf" points="506.5,-112.5 506.5,-131.5 541.5,-131.5 541.5,-112.5 506.5,-112.5"/>
<text text-anchor="middle" x="524" y="-119.5" font-family="Helvetica,sans-Serif" font-size="10.00">map</text>
</g>
<!-- Node0&#45;&gt;Node3 -->
<g id="edge3" class="edge"><title>Node0&#45;&gt;Node3</title>
<path fill="none" stroke="midnightblue" d="M362.423,-168.444C399.379,-158.05 461.171,-140.671 496.672,-130.686"/>
<polygon fill="midnightblue" stroke="midnightblue" points="497.688,-134.036 506.367,-127.959 495.793,-127.298 497.688,-134.036"/>
</g>
<!-- Node4 -->
<g id="node5" class="node"><title>Node4</title>
<g id="a_node5"><a xlink:href="parkinghallinterface_8hh.html" target="_top" xlink:title="parkinghallinterface.hh">
<polygon fill="white" stroke="black" points="190.5,-112.5 190.5,-131.5 303.5,-131.5 303.5,-112.5 190.5,-112.5"/>
<text text-anchor="middle" x="247" y="-119.5" font-family="Helvetica,sans-Serif" font-size="10.00">parkinghallinterface.hh</text>
</a>
</g>
</g>
<!-- Node0&#45;&gt;Node4 -->
<g id="edge4" class="edge"><title>Node0&#45;&gt;Node4</title>
<path fill="none" stroke="midnightblue" d="M318.343,-168.324C305.084,-159.9 284.732,-146.971 269.154,-137.074"/>
<polygon fill="midnightblue" stroke="midnightblue" points="270.94,-134.063 260.623,-131.655 267.187,-139.971 270.94,-134.063"/>
</g>
<!-- Node6 -->
<g id="node7" class="node"><title>Node6</title>
<g id="a_node7"><a xlink:href="actorinterface_8hh.html" target="_top" xlink:title="M채채rittelee yhden toimijan operaatioiden rajapintaluokan. ">
<polygon fill="white" stroke="black" points="360.5,-112.5 360.5,-131.5 449.5,-131.5 449.5,-112.5 360.5,-112.5"/>
<text text-anchor="middle" x="405" y="-119.5" font-family="Helvetica,sans-Serif" font-size="10.00">actorinterface.hh</text>
</a>
</g>
</g>
<!-- Node0&#45;&gt;Node6 -->
<g id="edge6" class="edge"><title>Node0&#45;&gt;Node6</title>
<path fill="none" stroke="midnightblue" d="M343.729,-168.324C354.837,-160.107 371.742,-147.602 384.983,-137.807"/>
<polygon fill="midnightblue" stroke="midnightblue" points="387.1,-140.595 393.058,-131.834 382.937,-134.967 387.1,-140.595"/>
</g>
<!-- Node7 -->
<g id="node8" class="node"><title>Node7</title>
<g id="a_node8"><a xlink:href="equipmentinterface_8hh.html" target="_top" xlink:title="M채채rittelee yhden tavaran (Equipment) operaatioiden rajapintaluokan. ">
<polygon fill="white" stroke="black" points="408,-56.5 408,-75.5 560,-75.5 560,-56.5 408,-56.5"/>
<text text-anchor="middle" x="484" y="-63.5" font-family="Helvetica,sans-Serif" font-size="10.00">Interface/equipmentinterface.hh</text>
</a>
</g>
</g>
<!-- Node0&#45;&gt;Node7 -->
<g id="edge11" class="edge"><title>Node0&#45;&gt;Node7</title>
<path fill="none" stroke="midnightblue" d="M385.158,-168.445C409.946,-162.061 438.259,-151.015 458,-132 470.835,-119.637 477.497,-100.113 480.846,-85.6864"/>
<polygon fill="midnightblue" stroke="midnightblue" points="484.284,-86.3427 482.809,-75.8511 477.42,-84.9726 484.284,-86.3427"/>
</g>
<!-- Node8 -->
<g id="node9" class="node"><title>Node8</title>
<g id="a_node9"><a xlink:href="parkinghalllayoutinterface_8hh.html" target="_top" xlink:title="parkinghalllayoutinterface.hh">
<polygon fill="white" stroke="black" points="32,-112.5 32,-131.5 172,-131.5 172,-112.5 32,-112.5"/>
<text text-anchor="middle" x="102" y="-119.5" font-family="Helvetica,sans-Serif" font-size="10.00">parkinghalllayoutinterface.hh</text>
</a>
</g>
</g>
<!-- Node0&#45;&gt;Node8 -->
<g id="edge12" class="edge"><title>Node0&#45;&gt;Node8</title>
<path fill="none" stroke="midnightblue" d="M295.556,-168.444C255.601,-159.063 191.413,-143.993 148.015,-133.804"/>
<polygon fill="midnightblue" stroke="midnightblue" points="148.809,-130.395 138.274,-131.516 147.209,-137.21 148.809,-130.395"/>
</g>
<!-- Node5 -->
<g id="node6" class="node"><title>Node5</title>
<polygon fill="white" stroke="#bfbfbf" points="355,-0.5 355,-19.5 405,-19.5 405,-0.5 355,-0.5"/>
<text text-anchor="middle" x="380" y="-7.5" font-family="Helvetica,sans-Serif" font-size="10.00">QString</text>
</g>
<!-- Node4&#45;&gt;Node5 -->
<g id="edge5" class="edge"><title>Node4&#45;&gt;Node5</title>
<path fill="none" stroke="midnightblue" d="M251.018,-112.399C257.684,-98.8995 272.181,-72.5696 291,-56 307.008,-41.9051 328.218,-30.9553 345.917,-23.3873"/>
<polygon fill="midnightblue" stroke="midnightblue" points="347.405,-26.5602 355.334,-19.5324 344.753,-20.0821 347.405,-26.5602"/>
</g>
<!-- Node6&#45;&gt;Node2 -->
<g id="edge8" class="edge"><title>Node6&#45;&gt;Node2</title>
<path fill="none" stroke="midnightblue" d="M392.307,-112.324C380.099,-103.979 361.422,-91.2122 346.997,-81.3524"/>
<polygon fill="midnightblue" stroke="midnightblue" points="348.892,-78.4082 338.661,-75.6545 344.942,-84.1871 348.892,-78.4082"/>
</g>
<!-- Node6&#45;&gt;Node5 -->
<g id="edge7" class="edge"><title>Node6&#45;&gt;Node5</title>
<path fill="none" stroke="midnightblue" d="M403.038,-112.368C399.004,-94.617 389.697,-53.6664 384.227,-29.5974"/>
<polygon fill="midnightblue" stroke="midnightblue" points="387.582,-28.567 381.953,-19.5914 380.756,-30.1185 387.582,-28.567"/>
</g>
<!-- Node6&#45;&gt;Node7 -->
<g id="edge9" class="edge"><title>Node6&#45;&gt;Node7</title>
<path fill="none" stroke="midnightblue" d="M417.693,-112.324C429.901,-103.979 448.578,-91.2122 463.003,-81.3524"/>
<polygon fill="midnightblue" stroke="midnightblue" points="465.058,-84.1871 471.339,-75.6545 461.108,-78.4082 465.058,-84.1871"/>
</g>
<!-- Node7&#45;&gt;Node5 -->
<g id="edge10" class="edge"><title>Node7&#45;&gt;Node5</title>
<path fill="none" stroke="midnightblue" d="M467.291,-56.324C450.688,-47.7034 424.998,-34.3643 405.78,-24.3855"/>
<polygon fill="midnightblue" stroke="midnightblue" points="407.156,-21.1565 396.668,-19.6545 403.93,-27.3689 407.156,-21.1565"/>
</g>
<!-- Node8&#45;&gt;Node1 -->
<g id="edge13" class="edge"><title>Node8&#45;&gt;Node1</title>
<path fill="none" stroke="midnightblue" d="M88.9859,-112.324C76.4684,-103.979 57.3183,-91.2122 42.5286,-81.3524"/>
<polygon fill="midnightblue" stroke="midnightblue" points="44.2437,-78.2894 33.9818,-75.6545 40.3608,-84.1137 44.2437,-78.2894"/>
</g>
<!-- Node9 -->
<g id="node10" class="node"><title>Node9</title>
<polygon fill="white" stroke="#bfbfbf" points="78.5,-56.5 78.5,-75.5 125.5,-75.5 125.5,-56.5 78.5,-56.5"/>
<text text-anchor="middle" x="102" y="-63.5" font-family="Helvetica,sans-Serif" font-size="10.00">QPoint</text>
</g>
<!-- Node8&#45;&gt;Node9 -->
<g id="edge14" class="edge"><title>Node8&#45;&gt;Node9</title>
<path fill="none" stroke="midnightblue" d="M102,-112.083C102,-105.006 102,-94.8611 102,-85.9865"/>
<polygon fill="midnightblue" stroke="midnightblue" points="105.5,-85.751 102,-75.7511 98.5001,-85.7511 105.5,-85.751"/>
</g>
</g>
</svg>
