<?xml version="1.0" encoding="UTF-8" standalone="no"?>
<!DOCTYPE svg PUBLIC "-//W3C//DTD SVG 1.1//EN"
 "http://www.w3.org/Graphics/SVG/1.1/DTD/svg11.dtd">
<!-- Generated by graphviz version 2.38.0 (20140413.2041)
 -->
<!-- Title: Model/networkmanager.hh Pages: 1 -->
<svg width="382pt" height="84pt"
 viewBox="0.00 0.00 381.50 84.00" xmlns="http://www.w3.org/2000/svg" xmlns:xlink="http://www.w3.org/1999/xlink">
<g id="graph0" class="graph" transform="scale(1 1) rotate(0) translate(4 80)">
<title>Model/networkmanager.hh</title>
<polygon fill="white" stroke="none" points="-4,4 -4,-80 377.5,-80 377.5,4 -4,4"/>
<!-- Node0 -->
<g id="node1" class="node"><title>Node0</title>
<polygon fill="#bfbfbf" stroke="black" points="133,-56.5 133,-75.5 264,-75.5 264,-56.5 133,-56.5"/>
<text text-anchor="middle" x="198.5" y="-63.5" font-family="Helvetica,sans-Serif" font-size="10.00">Model/networkmanager.hh</text>
</g>
<!-- Node1 -->
<g id="node2" class="node"><title>Node1</title>
<polygon fill="white" stroke="#bfbfbf" points="0,-0.5 0,-19.5 53,-19.5 53,-0.5 0,-0.5"/>
<text text-anchor="middle" x="26.5" y="-7.5" font-family="Helvetica,sans-Serif" font-size="10.00">QObject</text>
</g>
<!-- Node0&#45;&gt;Node1 -->
<g id="edge1" class="edge"><title>Node0&#45;&gt;Node1</title>
<path fill="none" stroke="midnightblue" d="M171.246,-56.4435C141.887,-47.2262 95.0315,-32.5157 62.6207,-22.3402"/>
<polygon fill="midnightblue" stroke="midnightblue" points="63.6505,-18.9951 53.0612,-19.339 61.5537,-25.6737 63.6505,-18.9951"/>
</g>
<!-- Node2 -->
<g id="node3" class="node"><title>Node2</title>
<polygon fill="white" stroke="#bfbfbf" points="71.5,-0.5 71.5,-19.5 201.5,-19.5 201.5,-0.5 71.5,-0.5"/>
<text text-anchor="middle" x="136.5" y="-7.5" font-family="Helvetica,sans-Serif" font-size="10.00">QNetworkAccessManager</text>
</g>
<!-- Node0&#45;&gt;Node2 -->
<g id="edge2" class="edge"><title>Node0&#45;&gt;Node2</title>
<path fill="none" stroke="midnightblue" d="M188.539,-56.324C179.373,-48.3414 165.563,-36.3128 154.472,-26.6529"/>
<polygon fill="midnightblue" stroke="midnightblue" points="156.482,-23.7624 146.643,-19.8339 151.885,-29.041 156.482,-23.7624"/>
</g>
<!-- Node3 -->
<g id="node4" class="node"><title>Node3</title>
<polygon fill="white" stroke="#bfbfbf" points="219.5,-0.5 219.5,-19.5 303.5,-19.5 303.5,-0.5 219.5,-0.5"/>
<text text-anchor="middle" x="261.5" y="-7.5" font-family="Helvetica,sans-Serif" font-size="10.00">QNetworkReply</text>
</g>
<!-- Node0&#45;&gt;Node3 -->
<g id="edge3" class="edge"><title>Node0&#45;&gt;Node3</title>
<path fill="none" stroke="midnightblue" d="M208.622,-56.324C218.026,-48.2631 232.244,-36.0765 243.569,-26.3695"/>
<polygon fill="midnightblue" stroke="midnightblue" points="245.879,-28.9993 251.194,-19.8339 241.323,-23.6844 245.879,-28.9993"/>
</g>
<!-- Node4 -->
<g id="node5" class="node"><title>Node4</title>
<polygon fill="white" stroke="#bfbfbf" points="321.5,-0.5 321.5,-19.5 373.5,-19.5 373.5,-0.5 321.5,-0.5"/>
<text text-anchor="middle" x="347.5" y="-7.5" font-family="Helvetica,sans-Serif" font-size="10.00">memory</text>
</g>
<!-- Node0&#45;&gt;Node4 -->
<g id="edge4" class="edge"><title>Node0&#45;&gt;Node4</title>
<path fill="none" stroke="midnightblue" d="M222.109,-56.4435C246.958,-47.4381 286.274,-33.1891 314.254,-23.049"/>
<polygon fill="midnightblue" stroke="midnightblue" points="315.792,-26.2144 324.001,-19.5164 313.407,-19.6332 315.792,-26.2144"/>
</g>
</g>
</svg>
