<?xml version="1.0" encoding="UTF-8" standalone="no"?>
<!DOCTYPE svg PUBLIC "-//W3C//DTD SVG 1.1//EN"
 "http://www.w3.org/Graphics/SVG/1.1/DTD/svg11.dtd">
<!-- Generated by graphviz version 2.38.0 (20140413.2041)
 -->
<!-- Title: Model/networkmanager.cc Pages: 1 -->
<svg width="641pt" height="140pt"
 viewBox="0.00 0.00 641.00 140.00" xmlns="http://www.w3.org/2000/svg" xmlns:xlink="http://www.w3.org/1999/xlink">
<g id="graph0" class="graph" transform="scale(1 1) rotate(0) translate(4 136)">
<title>Model/networkmanager.cc</title>
<polygon fill="white" stroke="none" points="-4,4 -4,-136 637,-136 637,4 -4,4"/>
<!-- Node0 -->
<g id="node1" class="node"><title>Node0</title>
<polygon fill="#bfbfbf" stroke="black" points="347,-112.5 347,-131.5 478,-131.5 478,-112.5 347,-112.5"/>
<text text-anchor="middle" x="412.5" y="-119.5" font-family="Helvetica,sans-Serif" font-size="10.00">Model/networkmanager.cc</text>
</g>
<!-- Node1 -->
<g id="node2" class="node"><title>Node1</title>
<g id="a_node2"><a xlink:href="networkmanager_8hh.html" target="_top" xlink:title="networkmanager.hh">
<polygon fill="white" stroke="black" points="148,-56.5 148,-75.5 249,-75.5 249,-56.5 148,-56.5"/>
<text text-anchor="middle" x="198.5" y="-63.5" font-family="Helvetica,sans-Serif" font-size="10.00">networkmanager.hh</text>
</a>
</g>
</g>
<!-- Node0&#45;&gt;Node1 -->
<g id="edge1" class="edge"><title>Node0&#45;&gt;Node1</title>
<path fill="none" stroke="midnightblue" d="M378.591,-112.444C341.651,-103.122 282.446,-88.1828 242.082,-77.9972"/>
<polygon fill="midnightblue" stroke="midnightblue" points="242.803,-74.5695 232.25,-75.5164 241.09,-81.3568 242.803,-74.5695"/>
</g>
<!-- Node6 -->
<g id="node7" class="node"><title>Node6</title>
<polygon fill="white" stroke="#bfbfbf" points="267.5,-56.5 267.5,-75.5 303.5,-75.5 303.5,-56.5 267.5,-56.5"/>
<text text-anchor="middle" x="285.5" y="-63.5" font-family="Helvetica,sans-Serif" font-size="10.00">QUrl</text>
</g>
<!-- Node0&#45;&gt;Node6 -->
<g id="edge6" class="edge"><title>Node0&#45;&gt;Node6</title>
<path fill="none" stroke="midnightblue" d="M392.376,-112.444C370.984,-103.347 337.01,-88.9019 313.121,-78.7442"/>
<polygon fill="midnightblue" stroke="midnightblue" points="314.452,-75.5072 303.88,-74.8151 311.713,-81.949 314.452,-75.5072"/>
</g>
<!-- Node7 -->
<g id="node8" class="node"><title>Node7</title>
<polygon fill="white" stroke="#bfbfbf" points="322,-56.5 322,-75.5 417,-75.5 417,-56.5 322,-56.5"/>
<text text-anchor="middle" x="369.5" y="-63.5" font-family="Helvetica,sans-Serif" font-size="10.00">QNetworkRequest</text>
</g>
<!-- Node0&#45;&gt;Node7 -->
<g id="edge7" class="edge"><title>Node0&#45;&gt;Node7</title>
<path fill="none" stroke="midnightblue" d="M405.399,-112.083C399.263,-104.377 390.23,-93.0333 382.761,-83.6531"/>
<polygon fill="midnightblue" stroke="midnightblue" points="385.436,-81.3936 376.468,-75.7511 379.96,-85.7542 385.436,-81.3936"/>
</g>
<!-- Node8 -->
<g id="node9" class="node"><title>Node8</title>
<polygon fill="white" stroke="#bfbfbf" points="435.5,-56.5 435.5,-75.5 475.5,-75.5 475.5,-56.5 435.5,-56.5"/>
<text text-anchor="middle" x="455.5" y="-63.5" font-family="Helvetica,sans-Serif" font-size="10.00">QFile</text>
</g>
<!-- Node0&#45;&gt;Node8 -->
<g id="edge8" class="edge"><title>Node0&#45;&gt;Node8</title>
<path fill="none" stroke="midnightblue" d="M419.601,-112.083C425.737,-104.377 434.77,-93.0333 442.239,-83.6531"/>
<polygon fill="midnightblue" stroke="midnightblue" points="445.04,-85.7542 448.532,-75.7511 439.564,-81.3936 445.04,-85.7542"/>
</g>
<!-- Node9 -->
<g id="node10" class="node"><title>Node9</title>
<polygon fill="white" stroke="#bfbfbf" points="493.5,-56.5 493.5,-75.5 545.5,-75.5 545.5,-56.5 493.5,-56.5"/>
<text text-anchor="middle" x="519.5" y="-63.5" font-family="Helvetica,sans-Serif" font-size="10.00">QDebug</text>
</g>
<!-- Node0&#45;&gt;Node9 -->
<g id="edge9" class="edge"><title>Node0&#45;&gt;Node9</title>
<path fill="none" stroke="midnightblue" d="M429.691,-112.324C446.851,-103.664 473.446,-90.2424 493.247,-80.249"/>
<polygon fill="midnightblue" stroke="midnightblue" points="495.001,-83.2847 502.351,-75.6545 491.847,-77.0354 495.001,-83.2847"/>
</g>
<!-- Node10 -->
<g id="node11" class="node"><title>Node10</title>
<polygon fill="white" stroke="#bfbfbf" points="564,-56.5 564,-75.5 633,-75.5 633,-56.5 564,-56.5"/>
<text text-anchor="middle" x="598.5" y="-63.5" font-family="Helvetica,sans-Serif" font-size="10.00">QEventLoop</text>
</g>
<!-- Node0&#45;&gt;Node10 -->
<g id="edge10" class="edge"><title>Node0&#45;&gt;Node10</title>
<path fill="none" stroke="midnightblue" d="M441.972,-112.444C473.671,-103.241 524.232,-88.5617 559.275,-78.3879"/>
<polygon fill="midnightblue" stroke="midnightblue" points="560.538,-81.6658 569.166,-75.5164 558.586,-74.9434 560.538,-81.6658"/>
</g>
<!-- Node2 -->
<g id="node3" class="node"><title>Node2</title>
<polygon fill="white" stroke="#bfbfbf" points="0,-0.5 0,-19.5 53,-19.5 53,-0.5 0,-0.5"/>
<text text-anchor="middle" x="26.5" y="-7.5" font-family="Helvetica,sans-Serif" font-size="10.00">QObject</text>
</g>
<!-- Node1&#45;&gt;Node2 -->
<g id="edge2" class="edge"><title>Node1&#45;&gt;Node2</title>
<path fill="none" stroke="midnightblue" d="M171.246,-56.4435C141.887,-47.2262 95.0315,-32.5157 62.6207,-22.3402"/>
<polygon fill="midnightblue" stroke="midnightblue" points="63.6505,-18.9951 53.0612,-19.339 61.5537,-25.6737 63.6505,-18.9951"/>
</g>
<!-- Node3 -->
<g id="node4" class="node"><title>Node3</title>
<polygon fill="white" stroke="#bfbfbf" points="71.5,-0.5 71.5,-19.5 201.5,-19.5 201.5,-0.5 71.5,-0.5"/>
<text text-anchor="middle" x="136.5" y="-7.5" font-family="Helvetica,sans-Serif" font-size="10.00">QNetworkAccessManager</text>
</g>
<!-- Node1&#45;&gt;Node3 -->
<g id="edge3" class="edge"><title>Node1&#45;&gt;Node3</title>
<path fill="none" stroke="midnightblue" d="M188.539,-56.324C179.373,-48.3414 165.563,-36.3128 154.472,-26.6529"/>
<polygon fill="midnightblue" stroke="midnightblue" points="156.482,-23.7624 146.643,-19.8339 151.885,-29.041 156.482,-23.7624"/>
</g>
<!-- Node4 -->
<g id="node5" class="node"><title>Node4</title>
<polygon fill="white" stroke="#bfbfbf" points="219.5,-0.5 219.5,-19.5 303.5,-19.5 303.5,-0.5 219.5,-0.5"/>
<text text-anchor="middle" x="261.5" y="-7.5" font-family="Helvetica,sans-Serif" font-size="10.00">QNetworkReply</text>
</g>
<!-- Node1&#45;&gt;Node4 -->
<g id="edge4" class="edge"><title>Node1&#45;&gt;Node4</title>
<path fill="none" stroke="midnightblue" d="M208.622,-56.324C218.026,-48.2631 232.244,-36.0765 243.569,-26.3695"/>
<polygon fill="midnightblue" stroke="midnightblue" points="245.879,-28.9993 251.194,-19.8339 241.323,-23.6844 245.879,-28.9993"/>
</g>
<!-- Node5 -->
<g id="node6" class="node"><title>Node5</title>
<polygon fill="white" stroke="#bfbfbf" points="321.5,-0.5 321.5,-19.5 373.5,-19.5 373.5,-0.5 321.5,-0.5"/>
<text text-anchor="middle" x="347.5" y="-7.5" font-family="Helvetica,sans-Serif" font-size="10.00">memory</text>
</g>
<!-- Node1&#45;&gt;Node5 -->
<g id="edge5" class="edge"><title>Node1&#45;&gt;Node5</title>
<path fill="none" stroke="midnightblue" d="M222.109,-56.4435C246.958,-47.4381 286.274,-33.1891 314.254,-23.049"/>
<polygon fill="midnightblue" stroke="midnightblue" points="315.792,-26.2144 324.001,-19.5164 313.407,-19.6332 315.792,-26.2144"/>
</g>
</g>
</svg>
