<?xml version="1.0" encoding="UTF-8" standalone="no"?>
<!DOCTYPE svg PUBLIC "-//W3C//DTD SVG 1.1//EN"
 "http://www.w3.org/Graphics/SVG/1.1/DTD/svg11.dtd">
<!-- Generated by graphviz version 2.38.0 (20140413.2041)
 -->
<!-- Title: Model/networkmanager.hh Pages: 1 -->
<svg width="269pt" height="140pt"
 viewBox="0.00 0.00 269.00 140.00" xmlns="http://www.w3.org/2000/svg" xmlns:xlink="http://www.w3.org/1999/xlink">
<g id="graph0" class="graph" transform="scale(1 1) rotate(0) translate(4 136)">
<title>Model/networkmanager.hh</title>
<polygon fill="white" stroke="none" points="-4,4 -4,-136 265,-136 265,4 -4,4"/>
<!-- Node5 -->
<g id="node1" class="node"><title>Node5</title>
<polygon fill="#bfbfbf" stroke="black" points="66,-112.5 66,-131.5 197,-131.5 197,-112.5 66,-112.5"/>
<text text-anchor="middle" x="131.5" y="-119.5" font-family="Helvetica,sans-Serif" font-size="10.00">Model/networkmanager.hh</text>
</g>
<!-- Node6 -->
<g id="node2" class="node"><title>Node6</title>
<g id="a_node2"><a xlink:href="model_8hh.html" target="_top" xlink:title="Model/model.hh">
<polygon fill="white" stroke="black" points="25.5,-56.5 25.5,-75.5 111.5,-75.5 111.5,-56.5 25.5,-56.5"/>
<text text-anchor="middle" x="68.5" y="-63.5" font-family="Helvetica,sans-Serif" font-size="10.00">Model/model.hh</text>
</a>
</g>
</g>
<!-- Node5&#45;&gt;Node6 -->
<g id="edge1" class="edge"><title>Node5&#45;&gt;Node6</title>
<path fill="none" stroke="midnightblue" d="M113.46,-105.537C102.227,-95.9087 88.1809,-83.8694 78.8062,-75.8339"/>
<polygon fill="midnightblue" stroke="midnightblue" points="111.508,-108.473 121.378,-112.324 116.063,-103.159 111.508,-108.473"/>
</g>
<!-- Node9 -->
<g id="node5" class="node"><title>Node9</title>
<g id="a_node5"><a xlink:href="networkmanager_8cc.html" target="_top" xlink:title="Model/networkmanager.cc">
<polygon fill="white" stroke="black" points="130,-56.5 130,-75.5 261,-75.5 261,-56.5 130,-56.5"/>
<text text-anchor="middle" x="195.5" y="-63.5" font-family="Helvetica,sans-Serif" font-size="10.00">Model/networkmanager.cc</text>
</a>
</g>
</g>
<!-- Node5&#45;&gt;Node9 -->
<g id="edge4" class="edge"><title>Node5&#45;&gt;Node9</title>
<path fill="none" stroke="midnightblue" d="M149.491,-105.82C160.958,-96.1452 175.413,-83.9481 185.03,-75.8339"/>
<polygon fill="midnightblue" stroke="midnightblue" points="147.169,-103.2 141.783,-112.324 151.683,-108.55 147.169,-103.2"/>
</g>
<!-- Node7 -->
<g id="node3" class="node"><title>Node7</title>
<g id="a_node3"><a xlink:href="main_8cc.html" target="_top" xlink:title="main.cc">
<polygon fill="white" stroke="black" points="0,-0.5 0,-19.5 51,-19.5 51,-0.5 0,-0.5"/>
<text text-anchor="middle" x="25.5" y="-7.5" font-family="Helvetica,sans-Serif" font-size="10.00">main.cc</text>
</a>
</g>
</g>
<!-- Node6&#45;&gt;Node7 -->
<g id="edge2" class="edge"><title>Node6&#45;&gt;Node7</title>
<path fill="none" stroke="midnightblue" d="M55.0776,-48.144C47.5858,-38.7357 38.5629,-27.4046 32.4685,-19.7511"/>
<polygon fill="midnightblue" stroke="midnightblue" points="52.4321,-50.4404 61.3994,-56.083 57.9081,-46.0799 52.4321,-50.4404"/>
</g>
<!-- Node8 -->
<g id="node4" class="node"><title>Node8</title>
<g id="a_node4"><a xlink:href="model_8cc.html" target="_top" xlink:title="Model/model.cc">
<polygon fill="white" stroke="black" points="69.5,-0.5 69.5,-19.5 155.5,-19.5 155.5,-0.5 69.5,-0.5"/>
<text text-anchor="middle" x="112.5" y="-7.5" font-family="Helvetica,sans-Serif" font-size="10.00">Model/model.cc</text>
</a>
</g>
</g>
<!-- Node6&#45;&gt;Node8 -->
<g id="edge3" class="edge"><title>Node6&#45;&gt;Node8</title>
<path fill="none" stroke="midnightblue" d="M82.2345,-48.144C89.9005,-38.7357 99.1333,-27.4046 105.369,-19.7511"/>
<polygon fill="midnightblue" stroke="midnightblue" points="79.3691,-46.1198 75.7657,-56.083 84.7958,-50.5415 79.3691,-46.1198"/>
</g>
</g>
</svg>
