<?xml version="1.0" encoding="UTF-8" standalone="no"?>
<!DOCTYPE svg PUBLIC "-//W3C//DTD SVG 1.1//EN"
 "http://www.w3.org/Graphics/SVG/1.1/DTD/svg11.dtd">
<!-- Generated by graphviz version 2.38.0 (20140413.2041)
 -->
<!-- Title: Model/parkinghall.hh Pages: 1 -->
<svg width="345pt" height="196pt"
 viewBox="0.00 0.00 344.50 196.00" xmlns="http://www.w3.org/2000/svg" xmlns:xlink="http://www.w3.org/1999/xlink">
<g id="graph0" class="graph" transform="scale(1 1) rotate(0) translate(4 192)">
<title>Model/parkinghall.hh</title>
<polygon fill="white" stroke="none" points="-4,4 -4,-192 340.5,-192 340.5,4 -4,4"/>
<!-- Node3 -->
<g id="node1" class="node"><title>Node3</title>
<polygon fill="#bfbfbf" stroke="black" points="156.5,-168.5 156.5,-187.5 262.5,-187.5 262.5,-168.5 156.5,-168.5"/>
<text text-anchor="middle" x="209.5" y="-175.5" font-family="Helvetica,sans-Serif" font-size="10.00">Model/parkinghall.hh</text>
</g>
<!-- Node4 -->
<g id="node2" class="node"><title>Node4</title>
<g id="a_node2"><a xlink:href="xmlparkingdatareader_8hh.html" target="_top" xlink:title="Model/xmlparkingdatareader.hh">
<polygon fill="white" stroke="black" points="60.5,-112.5 60.5,-131.5 212.5,-131.5 212.5,-112.5 60.5,-112.5"/>
<text text-anchor="middle" x="136.5" y="-119.5" font-family="Helvetica,sans-Serif" font-size="10.00">Model/xmlparkingdatareader.hh</text>
</a>
</g>
</g>
<!-- Node3&#45;&gt;Node4 -->
<g id="edge1" class="edge"><title>Node3&#45;&gt;Node4</title>
<path fill="none" stroke="midnightblue" d="M189.358,-162.101C176.221,-152.382 159.518,-140.027 148.442,-131.834"/>
<polygon fill="midnightblue" stroke="midnightblue" points="187.65,-165.191 197.771,-168.324 191.813,-159.563 187.65,-165.191"/>
</g>
<!-- Node9 -->
<g id="node7" class="node"><title>Node9</title>
<g id="a_node7"><a xlink:href="parkinghall_8cc.html" target="_top" xlink:title="Model/parkinghall.cc">
<polygon fill="white" stroke="black" points="230.5,-112.5 230.5,-131.5 336.5,-131.5 336.5,-112.5 230.5,-112.5"/>
<text text-anchor="middle" x="283.5" y="-119.5" font-family="Helvetica,sans-Serif" font-size="10.00">Model/parkinghall.cc</text>
</a>
</g>
</g>
<!-- Node3&#45;&gt;Node9 -->
<g id="edge6" class="edge"><title>Node3&#45;&gt;Node9</title>
<path fill="none" stroke="midnightblue" d="M229.534,-162.38C242.909,-152.62 260.059,-140.106 271.394,-131.834"/>
<polygon fill="midnightblue" stroke="midnightblue" points="227.404,-159.602 221.389,-168.324 231.53,-165.257 227.404,-159.602"/>
</g>
<!-- Node5 -->
<g id="node3" class="node"><title>Node5</title>
<g id="a_node3"><a xlink:href="model_8hh.html" target="_top" xlink:title="Model/model.hh">
<polygon fill="white" stroke="black" points="25.5,-56.5 25.5,-75.5 111.5,-75.5 111.5,-56.5 25.5,-56.5"/>
<text text-anchor="middle" x="68.5" y="-63.5" font-family="Helvetica,sans-Serif" font-size="10.00">Model/model.hh</text>
</a>
</g>
</g>
<!-- Node4&#45;&gt;Node5 -->
<g id="edge2" class="edge"><title>Node4&#45;&gt;Node5</title>
<path fill="none" stroke="midnightblue" d="M117.738,-106.101C105.5,-96.3824 89.9413,-84.0269 79.6242,-75.8339"/>
<polygon fill="midnightblue" stroke="midnightblue" points="115.567,-108.846 125.575,-112.324 119.92,-103.364 115.567,-108.846"/>
</g>
<!-- Node8 -->
<g id="node6" class="node"><title>Node8</title>
<g id="a_node6"><a xlink:href="xmlparkingdatareader_8cc.html" target="_top" xlink:title="Model/xmlparkingdatareader.cc">
<polygon fill="white" stroke="black" points="129.5,-56.5 129.5,-75.5 281.5,-75.5 281.5,-56.5 129.5,-56.5"/>
<text text-anchor="middle" x="205.5" y="-63.5" font-family="Helvetica,sans-Serif" font-size="10.00">Model/xmlparkingdatareader.cc</text>
</a>
</g>
</g>
<!-- Node4&#45;&gt;Node8 -->
<g id="edge5" class="edge"><title>Node4&#45;&gt;Node8</title>
<path fill="none" stroke="midnightblue" d="M155.538,-106.101C167.956,-96.3824 183.743,-84.0269 194.212,-75.8339"/>
<polygon fill="midnightblue" stroke="midnightblue" points="153.304,-103.405 147.586,-112.324 157.618,-108.917 153.304,-103.405"/>
</g>
<!-- Node6 -->
<g id="node4" class="node"><title>Node6</title>
<g id="a_node4"><a xlink:href="main_8cc.html" target="_top" xlink:title="main.cc">
<polygon fill="white" stroke="black" points="0,-0.5 0,-19.5 51,-19.5 51,-0.5 0,-0.5"/>
<text text-anchor="middle" x="25.5" y="-7.5" font-family="Helvetica,sans-Serif" font-size="10.00">main.cc</text>
</a>
</g>
</g>
<!-- Node5&#45;&gt;Node6 -->
<g id="edge3" class="edge"><title>Node5&#45;&gt;Node6</title>
<path fill="none" stroke="midnightblue" d="M55.0776,-48.144C47.5858,-38.7357 38.5629,-27.4046 32.4685,-19.7511"/>
<polygon fill="midnightblue" stroke="midnightblue" points="52.4321,-50.4404 61.3994,-56.083 57.9081,-46.0799 52.4321,-50.4404"/>
</g>
<!-- Node7 -->
<g id="node5" class="node"><title>Node7</title>
<g id="a_node5"><a xlink:href="model_8cc.html" target="_top" xlink:title="Model/model.cc">
<polygon fill="white" stroke="black" points="69.5,-0.5 69.5,-19.5 155.5,-19.5 155.5,-0.5 69.5,-0.5"/>
<text text-anchor="middle" x="112.5" y="-7.5" font-family="Helvetica,sans-Serif" font-size="10.00">Model/model.cc</text>
</a>
</g>
</g>
<!-- Node5&#45;&gt;Node7 -->
<g id="edge4" class="edge"><title>Node5&#45;&gt;Node7</title>
<path fill="none" stroke="midnightblue" d="M82.2345,-48.144C89.9005,-38.7357 99.1333,-27.4046 105.369,-19.7511"/>
<polygon fill="midnightblue" stroke="midnightblue" points="79.3691,-46.1198 75.7657,-56.083 84.7958,-50.5415 79.3691,-46.1198"/>
</g>
</g>
</svg>
