<?xml version="1.0" encoding="UTF-8" standalone="no"?>
<!DOCTYPE svg PUBLIC "-//W3C//DTD SVG 1.1//EN"
 "http://www.w3.org/Graphics/SVG/1.1/DTD/svg11.dtd">
<!-- Generated by graphviz version 2.38.0 (20140413.2041)
 -->
<!-- Title: Model/parkspaceinserter.hh Pages: 1 -->
<svg width="712pt" height="196pt"
 viewBox="0.00 0.00 711.50 196.00" xmlns="http://www.w3.org/2000/svg" xmlns:xlink="http://www.w3.org/1999/xlink">
<g id="graph0" class="graph" transform="scale(1 1) rotate(0) translate(4 192)">
<title>Model/parkspaceinserter.hh</title>
<polygon fill="white" stroke="none" points="-4,4 -4,-192 707.5,-192 707.5,4 -4,4"/>
<!-- Node4 -->
<g id="node1" class="node"><title>Node4</title>
<polygon fill="#bfbfbf" stroke="black" points="372.5,-168.5 372.5,-187.5 509.5,-187.5 509.5,-168.5 372.5,-168.5"/>
<text text-anchor="middle" x="441" y="-175.5" font-family="Helvetica,sans-Serif" font-size="10.00">Model/parkspaceinserter.hh</text>
</g>
<!-- Node5 -->
<g id="node2" class="node"><title>Node5</title>
<g id="a_node2"><a xlink:href="roomgenerator_8hh.html" target="_top" xlink:title="Model/roomgenerator.hh">
<polygon fill="white" stroke="black" points="286,-112.5 286,-131.5 408,-131.5 408,-112.5 286,-112.5"/>
<text text-anchor="middle" x="347" y="-119.5" font-family="Helvetica,sans-Serif" font-size="10.00">Model/roomgenerator.hh</text>
</a>
</g>
</g>
<!-- Node4&#45;&gt;Node5 -->
<g id="edge1" class="edge"><title>Node4&#45;&gt;Node5</title>
<path fill="none" stroke="midnightblue" d="M416.938,-163.177C399.641,-153.241 376.852,-140.149 362.065,-131.655"/>
<polygon fill="midnightblue" stroke="midnightblue" points="415.483,-166.378 425.897,-168.324 418.97,-160.308 415.483,-166.378"/>
</g>
<!-- Node11 -->
<g id="node8" class="node"><title>Node11</title>
<g id="a_node8"><a xlink:href="parkspaceinserter_8cc.html" target="_top" xlink:title="Model/parkspaceinserter.cc">
<polygon fill="white" stroke="black" points="566.5,-56.5 566.5,-75.5 703.5,-75.5 703.5,-56.5 566.5,-56.5"/>
<text text-anchor="middle" x="635" y="-63.5" font-family="Helvetica,sans-Serif" font-size="10.00">Model/parkspaceinserter.cc</text>
</a>
</g>
</g>
<!-- Node4&#45;&gt;Node11 -->
<g id="edge10" class="edge"><title>Node4&#45;&gt;Node11</title>
<path fill="none" stroke="midnightblue" d="M465.16,-163.301C505.718,-140.304 586.34,-94.5906 619.848,-75.5914"/>
<polygon fill="midnightblue" stroke="midnightblue" points="463.195,-160.391 456.223,-168.368 466.648,-166.481 463.195,-160.391"/>
</g>
<!-- Node6 -->
<g id="node3" class="node"><title>Node6</title>
<g id="a_node3"><a xlink:href="model_8hh.html" target="_top" xlink:title="Model/model.hh">
<polygon fill="white" stroke="black" points="0,-56.5 0,-75.5 86,-75.5 86,-56.5 0,-56.5"/>
<text text-anchor="middle" x="43" y="-63.5" font-family="Helvetica,sans-Serif" font-size="10.00">Model/model.hh</text>
</a>
</g>
</g>
<!-- Node5&#45;&gt;Node6 -->
<g id="edge2" class="edge"><title>Node5&#45;&gt;Node6</title>
<path fill="none" stroke="midnightblue" d="M288.876,-110.675C229.636,-100.152 139.128,-84.0753 86.0291,-74.6433"/>
<polygon fill="midnightblue" stroke="midnightblue" points="288.372,-114.141 298.83,-112.444 289.597,-107.248 288.372,-114.141"/>
</g>
<!-- Node8 -->
<g id="node5" class="node"><title>Node8</title>
<g id="a_node5"><a xlink:href="model_8cc.html" target="_top" xlink:title="Model/model.cc">
<polygon fill="white" stroke="black" points="71,-0.5 71,-19.5 157,-19.5 157,-0.5 71,-0.5"/>
<text text-anchor="middle" x="114" y="-7.5" font-family="Helvetica,sans-Serif" font-size="10.00">Model/model.cc</text>
</a>
</g>
</g>
<!-- Node5&#45;&gt;Node8 -->
<g id="edge7" class="edge"><title>Node5&#45;&gt;Node8</title>
<path fill="none" stroke="midnightblue" d="M275.586,-113.883C221.67,-107.099 153.579,-95.0501 133,-76 116.952,-61.1447 114.194,-33.5629 113.885,-19.5899"/>
<polygon fill="midnightblue" stroke="midnightblue" points="275.467,-117.395 285.817,-115.13 276.313,-110.446 275.467,-117.395"/>
</g>
<!-- Node9 -->
<g id="node6" class="node"><title>Node9</title>
<g id="a_node6"><a xlink:href="layoutgenerator_8cc.html" target="_top" xlink:title="Model/layoutgenerator.cc">
<polygon fill="white" stroke="black" points="142,-56.5 142,-75.5 268,-75.5 268,-56.5 142,-56.5"/>
<text text-anchor="middle" x="205" y="-63.5" font-family="Helvetica,sans-Serif" font-size="10.00">Model/layoutgenerator.cc</text>
</a>
</g>
</g>
<!-- Node5&#45;&gt;Node9 -->
<g id="edge5" class="edge"><title>Node5&#45;&gt;Node9</title>
<path fill="none" stroke="midnightblue" d="M314.845,-108.772C288.172,-98.6287 250.931,-84.4669 227.395,-75.5164"/>
<polygon fill="midnightblue" stroke="midnightblue" points="313.909,-112.16 324.5,-112.444 316.397,-105.618 313.909,-112.16"/>
</g>
<!-- Node10 -->
<g id="node7" class="node"><title>Node10</title>
<g id="a_node7"><a xlink:href="mapprocessor_8cc.html" target="_top" xlink:title="Model/mapprocessor.cc">
<polygon fill="white" stroke="black" points="286.5,-56.5 286.5,-75.5 407.5,-75.5 407.5,-56.5 286.5,-56.5"/>
<text text-anchor="middle" x="347" y="-63.5" font-family="Helvetica,sans-Serif" font-size="10.00">Model/mapprocessor.cc</text>
</a>
</g>
</g>
<!-- Node5&#45;&gt;Node10 -->
<g id="edge6" class="edge"><title>Node5&#45;&gt;Node10</title>
<path fill="none" stroke="midnightblue" d="M347,-101.805C347,-92.9102 347,-82.7798 347,-75.7511"/>
<polygon fill="midnightblue" stroke="midnightblue" points="343.5,-102.083 347,-112.083 350.5,-102.083 343.5,-102.083"/>
</g>
<!-- Node5&#45;&gt;Node11 -->
<g id="edge8" class="edge"><title>Node5&#45;&gt;Node11</title>
<path fill="none" stroke="midnightblue" d="M402.802,-110.537C457.232,-100.332 539.004,-84.9992 589.579,-75.5164"/>
<polygon fill="midnightblue" stroke="midnightblue" points="401.818,-107.161 392.634,-112.444 403.108,-114.041 401.818,-107.161"/>
</g>
<!-- Node12 -->
<g id="node9" class="node"><title>Node12</title>
<g id="a_node9"><a xlink:href="roomgenerator_8cc.html" target="_top" xlink:title="Model/roomgenerator.cc">
<polygon fill="white" stroke="black" points="426,-56.5 426,-75.5 548,-75.5 548,-56.5 426,-56.5"/>
<text text-anchor="middle" x="487" y="-63.5" font-family="Helvetica,sans-Serif" font-size="10.00">Model/roomgenerator.cc</text>
</a>
</g>
</g>
<!-- Node5&#45;&gt;Node12 -->
<g id="edge9" class="edge"><title>Node5&#45;&gt;Node12</title>
<path fill="none" stroke="midnightblue" d="M378.702,-108.772C405,-98.6287 441.716,-84.4669 464.92,-75.5164"/>
<polygon fill="midnightblue" stroke="midnightblue" points="377.254,-105.579 369.183,-112.444 379.773,-112.11 377.254,-105.579"/>
</g>
<!-- Node7 -->
<g id="node4" class="node"><title>Node7</title>
<g id="a_node4"><a xlink:href="main_8cc.html" target="_top" xlink:title="main.cc">
<polygon fill="white" stroke="black" points="1.5,-0.5 1.5,-19.5 52.5,-19.5 52.5,-0.5 1.5,-0.5"/>
<text text-anchor="middle" x="27" y="-7.5" font-family="Helvetica,sans-Serif" font-size="10.00">main.cc</text>
</a>
</g>
</g>
<!-- Node6&#45;&gt;Node7 -->
<g id="edge3" class="edge"><title>Node6&#45;&gt;Node7</title>
<path fill="none" stroke="midnightblue" d="M37.4876,-46.3956C34.811,-37.362 31.7218,-26.936 29.5929,-19.7511"/>
<polygon fill="midnightblue" stroke="midnightblue" points="34.1612,-47.4893 40.3579,-56.083 40.8728,-45.5007 34.1612,-47.4893"/>
</g>
<!-- Node6&#45;&gt;Node8 -->
<g id="edge4" class="edge"><title>Node6&#45;&gt;Node8</title>
<path fill="none" stroke="midnightblue" d="M62.5897,-50.1008C75.3676,-40.3824 91.6127,-28.0269 102.385,-19.8339"/>
<polygon fill="midnightblue" stroke="midnightblue" points="60.2481,-47.4844 54.4074,-56.324 64.4857,-53.0561 60.2481,-47.4844"/>
</g>
</g>
</svg>
