<?xml version="1.0" encoding="UTF-8" standalone="no"?>
<!DOCTYPE svg PUBLIC "-//W3C//DTD SVG 1.1//EN"
 "http://www.w3.org/Graphics/SVG/1.1/DTD/svg11.dtd">
<!-- Generated by graphviz version 2.38.0 (20140413.2041)
 -->
<!-- Title: Interface/parkinghalllayoutinterface.hh Pages: 1 -->
<!--zoomable 252 -->
<svg id="main" version="1.1" xmlns="http://www.w3.org/2000/svg" xmlns:xlink="http://www.w3.org/1999/xlink" xml:space="preserve" onload="init(evt)">
<style type="text/css"><![CDATA[
.edge:hover path { stroke: red; }
.edge:hover polygon { stroke: red; fill: red; }
]]></style>
<script type="text/javascript"><![CDATA[
var edges = document.getElementsByTagName('g');
if (edges && edges.length) {
  for (var i=0;i<edges.length;i++) {
    if (edges[i].id.substr(0,4)=='edge') {
      edges[i].setAttribute('class','edge');
    }
  }
}
]]></script>
        <defs>
                <circle id="rim" cx="0" cy="0" r="7"/>
                <circle id="rim2" cx="0" cy="0" r="3.5"/>
                <g id="zoomPlus">
                        <use xlink:href="#rim" fill="#404040">
                                <set attributeName="fill" to="#808080" begin="zoomplus.mouseover" end="zoomplus.mouseout"/>
                        </use>
                        <path d="M-4,0h8M0,-4v8" fill="none" stroke="white" stroke-width="1.5" pointer-events="none"/>
                </g>
                <g id="zoomMin">
                        <use xlink:href="#rim" fill="#404040">
                                <set attributeName="fill" to="#808080" begin="zoomminus.mouseover" end="zoomminus.mouseout"/>
                        </use>
                        <path d="M-4,0h8" fill="none" stroke="white" stroke-width="1.5" pointer-events="none"/>
                </g>
                <g id="dirArrow">
                        <path fill="none" stroke="white" stroke-width="1.5" d="M0,-3.0v7 M-2.5,-0.5L0,-3.0L2.5,-0.5"/>
                </g>
               <g id="resetDef">
                       <use xlink:href="#rim2" fill="#404040">
                               <set attributeName="fill" to="#808080" begin="reset.mouseover" end="reset.mouseout"/>
                       </use>
               </g>
        </defs>

<script type="text/javascript">
var viewWidth = 1063;
var viewHeight = 252;
var sectionId = 'dynsection-1';
</script>
<script xlink:href="svgpan.js"/>
<svg id="graph" class="graph">
<g id="viewport">
<title>Interface/parkinghalllayoutinterface.hh</title>
<polygon fill="white" stroke="none" points="-4,4 -4,-248 1058.54,-248 1058.54,4 -4,4"/>
<!-- Node3 -->
<g id="node1" class="node"><title>Node3</title>
<polygon fill="#bfbfbf" stroke="black" points="417.536,-224.5 417.536,-243.5 596.536,-243.5 596.536,-224.5 417.536,-224.5"/>
<text text-anchor="middle" x="507.036" y="-231.5" font-family="Helvetica,sans-Serif" font-size="10.00">Interface/parkinghalllayoutinterface.hh</text>
</g>
<!-- Node4 -->
<g id="node2" class="node"><title>Node4</title>
<g id="a_node2"><a xlink:href="modelinterface_8hh.html" target="_top" xlink:title="Määrittelee modellin operaatioiden rajapintaluokan. ">
<polygon fill="white" stroke="black" points="201.536,-168.5 201.536,-187.5 334.536,-187.5 334.536,-168.5 201.536,-168.5"/>
<text text-anchor="middle" x="268.036" y="-175.5" font-family="Helvetica,sans-Serif" font-size="10.00">Interface/modelinterface.hh</text>
</a>
</g>
</g>
<!-- Node3&#45;&gt;Node4 -->
<g id="edge1" class="edge"><title>Node3&#45;&gt;Node4</title>
<path fill="none" stroke="midnightblue" d="M459.312,-222.217C414.151,-212.013 347.263,-196.901 305.729,-187.516"/>
<polygon fill="midnightblue" stroke="midnightblue" points="458.64,-225.654 469.166,-224.444 460.183,-218.826 458.64,-225.654"/>
</g>
<!-- Node5 -->
<g id="node3" class="node"><title>Node5</title>
<g id="a_node3"><a xlink:href="controllerinterface_8hh.html" target="_top" xlink:title="Interface/controllerinterface.hh">
<polygon fill="white" stroke="black" points="121.036,-112.5 121.036,-131.5 267.036,-131.5 267.036,-112.5 121.036,-112.5"/>
<text text-anchor="middle" x="194.036" y="-119.5" font-family="Helvetica,sans-Serif" font-size="10.00">Interface/controllerinterface.hh</text>
</a>
</g>
</g>
<!-- Node3&#45;&gt;Node5 -->
<g id="edge16" class="edge"><title>Node3&#45;&gt;Node5</title>
<path fill="none" stroke="midnightblue" d="M406.932,-232.458C325.435,-229.634 219.544,-219.717 192.036,-188 178.425,-172.306 185.413,-145.593 190.42,-131.808"/>
<polygon fill="midnightblue" stroke="midnightblue" points="407.142,-235.966 417.247,-232.782 407.362,-228.969 407.142,-235.966"/>
</g>
<!-- Node9 -->
<g id="node7" class="node"><title>Node9</title>
<g id="a_node7"><a xlink:href="model_8hh.html" target="_top" xlink:title="Model/model.hh">
<polygon fill="white" stroke="black" points="313.036,-56.5 313.036,-75.5 399.036,-75.5 399.036,-56.5 313.036,-56.5"/>
<text text-anchor="middle" x="356.036" y="-63.5" font-family="Helvetica,sans-Serif" font-size="10.00">Model/model.hh</text>
</a>
</g>
</g>
<!-- Node3&#45;&gt;Node9 -->
<g id="edge35" class="edge"><title>Node3&#45;&gt;Node9</title>
<path fill="none" stroke="midnightblue" d="M511.735,-214.223C517.029,-188.298 522.15,-141.417 499.036,-112 486.534,-96.0883 436.458,-82.9036 399.068,-75.0038"/>
<polygon fill="midnightblue" stroke="midnightblue" points="508.264,-213.704 509.464,-224.231 515.09,-215.253 508.264,-213.704"/>
</g>
<!-- Node11 -->
<g id="node9" class="node"><title>Node11</title>
<g id="a_node9"><a xlink:href="view_8hh.html" target="_top" xlink:title="View/view.hh">
<polygon fill="white" stroke="black" points="91.036,-56.5 91.036,-75.5 163.036,-75.5 163.036,-56.5 91.036,-56.5"/>
<text text-anchor="middle" x="127.036" y="-63.5" font-family="Helvetica,sans-Serif" font-size="10.00">View/view.hh</text>
</a>
</g>
</g>
<!-- Node3&#45;&gt;Node11 -->
<g id="edge36" class="edge"><title>Node3&#45;&gt;Node11</title>
<path fill="none" stroke="midnightblue" d="M407.18,-231.029C269.757,-227.266 36.242,-216.686 10.036,-188 -29.382,-144.852 64.2018,-95.2701 107.031,-75.6428"/>
<polygon fill="midnightblue" stroke="midnightblue" points="407.222,-234.531 417.312,-231.299 407.408,-227.534 407.222,-234.531"/>
</g>
<!-- Node13 -->
<g id="node11" class="node"><title>Node13</title>
<g id="a_node11"><a xlink:href="viewinterface_8hh.html" target="_top" xlink:title="Määrittelee näkymän operaatioiden rajapintaluokan. ">
<polygon fill="white" stroke="black" points="19.536,-168.5 19.536,-187.5 144.536,-187.5 144.536,-168.5 19.536,-168.5"/>
<text text-anchor="middle" x="82.036" y="-175.5" font-family="Helvetica,sans-Serif" font-size="10.00">Interface/viewinterface.hh</text>
</a>
</g>
</g>
<!-- Node3&#45;&gt;Node13 -->
<g id="edge13" class="edge"><title>Node3&#45;&gt;Node13</title>
<path fill="none" stroke="midnightblue" d="M429.699,-223.174C347.861,-212.775 220.296,-196.567 144.565,-186.945"/>
<polygon fill="midnightblue" stroke="midnightblue" points="429.332,-226.655 439.694,-224.444 430.214,-219.711 429.332,-226.655"/>
</g>
<!-- Node14 -->
<g id="node12" class="node"><title>Node14</title>
<g id="a_node12"><a xlink:href="roomgenerator_8hh.html" target="_top" xlink:title="Model/roomgenerator.hh">
<polygon fill="white" stroke="black" points="681.036,-112.5 681.036,-131.5 803.036,-131.5 803.036,-112.5 681.036,-112.5"/>
<text text-anchor="middle" x="742.036" y="-119.5" font-family="Helvetica,sans-Serif" font-size="10.00">Model/roomgenerator.hh</text>
</a>
</g>
</g>
<!-- Node3&#45;&gt;Node14 -->
<g id="edge17" class="edge"><title>Node3&#45;&gt;Node14</title>
<path fill="none" stroke="midnightblue" d="M599.466,-223.056C649.122,-215.929 703.813,-204.617 722.036,-188 738.264,-173.203 741.468,-145.595 742.008,-131.603"/>
<polygon fill="midnightblue" stroke="midnightblue" points="598.711,-219.627 589.288,-224.47 599.674,-226.561 598.711,-219.627"/>
</g>
<!-- Node18 -->
<g id="node16" class="node"><title>Node18</title>
<g id="a_node16"><a xlink:href="roomgenerator_8cc.html" target="_top" xlink:title="Model/roomgenerator.cc">
<polygon fill="white" stroke="black" points="417.036,-56.5 417.036,-75.5 539.036,-75.5 539.036,-56.5 417.036,-56.5"/>
<text text-anchor="middle" x="478.036" y="-63.5" font-family="Helvetica,sans-Serif" font-size="10.00">Model/roomgenerator.cc</text>
</a>
</g>
</g>
<!-- Node3&#45;&gt;Node18 -->
<g id="edge40" class="edge"><title>Node3&#45;&gt;Node18</title>
<path fill="none" stroke="midnightblue" d="M522.751,-216.883C529.463,-208.883 536.546,-198.66 540.036,-188 550.545,-155.899 555.378,-142.093 540.036,-112 531.337,-94.9372 512.807,-82.8318 498.259,-75.5055"/>
<polygon fill="midnightblue" stroke="midnightblue" points="520.132,-214.561 516.056,-224.34 525.341,-219.237 520.132,-214.561"/>
</g>
<!-- Node19 -->
<g id="node17" class="node"><title>Node19</title>
<g id="a_node17"><a xlink:href="mapprocessor_8hh.html" target="_top" xlink:title="Model/mapprocessor.hh">
<polygon fill="white" stroke="black" points="592.536,-168.5 592.536,-187.5 713.536,-187.5 713.536,-168.5 592.536,-168.5"/>
<text text-anchor="middle" x="653.036" y="-175.5" font-family="Helvetica,sans-Serif" font-size="10.00">Model/mapprocessor.hh</text>
</a>
</g>
</g>
<!-- Node3&#45;&gt;Node19 -->
<g id="edge25" class="edge"><title>Node3&#45;&gt;Node19</title>
<path fill="none" stroke="midnightblue" d="M539.735,-220.906C567.184,-210.754 605.704,-196.506 630.01,-187.516"/>
<polygon fill="midnightblue" stroke="midnightblue" points="538.335,-217.692 530.17,-224.444 540.763,-224.257 538.335,-217.692"/>
</g>
<!-- Node20 -->
<g id="node18" class="node"><title>Node20</title>
<g id="a_node18"><a xlink:href="layoutgenerator_8hh.html" target="_top" xlink:title="Model/layoutgenerator.hh">
<polygon fill="white" stroke="black" points="770.036,-168.5 770.036,-187.5 896.036,-187.5 896.036,-168.5 770.036,-168.5"/>
<text text-anchor="middle" x="833.036" y="-175.5" font-family="Helvetica,sans-Serif" font-size="10.00">Model/layoutgenerator.hh</text>
</a>
</g>
</g>
<!-- Node3&#45;&gt;Node20 -->
<g id="edge29" class="edge"><title>Node3&#45;&gt;Node20</title>
<path fill="none" stroke="midnightblue" d="M568.67,-222.791C630.27,-212.587 723.898,-197.078 781.622,-187.516"/>
<polygon fill="midnightblue" stroke="midnightblue" points="567.985,-219.356 558.692,-224.444 569.129,-226.262 567.985,-219.356"/>
</g>
<!-- Node21 -->
<g id="node19" class="node"><title>Node21</title>
<g id="a_node19"><a xlink:href="parkspaceinserter_8hh.html" target="_top" xlink:title="Model/parkspaceinserter.hh">
<polygon fill="white" stroke="black" points="914.536,-168.5 914.536,-187.5 1051.54,-187.5 1051.54,-168.5 914.536,-168.5"/>
<text text-anchor="middle" x="983.036" y="-175.5" font-family="Helvetica,sans-Serif" font-size="10.00">Model/parkspaceinserter.hh</text>
</a>
</g>
</g>
<!-- Node3&#45;&gt;Node21 -->
<g id="edge32" class="edge"><title>Node3&#45;&gt;Node21</title>
<path fill="none" stroke="midnightblue" d="M593.072,-223.33C673.687,-214.255 797.538,-200.279 905.036,-188 908.016,-187.66 911.059,-187.311 914.134,-186.959"/>
<polygon fill="midnightblue" stroke="midnightblue" points="592.516,-219.87 582.971,-224.467 593.299,-226.826 592.516,-219.87"/>
</g>
<!-- Node22 -->
<g id="node20" class="node"><title>Node22</title>
<g id="a_node20"><a xlink:href="actionscene_8hh.html" target="_top" xlink:title="View/actionscene.hh">
<polygon fill="white" stroke="black" points="352.536,-168.5 352.536,-187.5 459.536,-187.5 459.536,-168.5 352.536,-168.5"/>
<text text-anchor="middle" x="406.036" y="-175.5" font-family="Helvetica,sans-Serif" font-size="10.00">View/actionscene.hh</text>
</a>
</g>
</g>
<!-- Node3&#45;&gt;Node22 -->
<g id="edge37" class="edge"><title>Node3&#45;&gt;Node22</title>
<path fill="none" stroke="midnightblue" d="M481.954,-219.59C463.279,-209.605 438.332,-196.267 422.223,-187.655"/>
<polygon fill="midnightblue" stroke="midnightblue" points="480.34,-222.696 490.809,-224.324 483.64,-216.522 480.34,-222.696"/>
</g>
<!-- Node23 -->
<g id="node21" class="node"><title>Node23</title>
<g id="a_node21"><a xlink:href="actionscene_8cc.html" target="_top" xlink:title="View/actionscene.cc">
<polygon fill="white" stroke="black" points="383.536,-112.5 383.536,-131.5 490.536,-131.5 490.536,-112.5 383.536,-112.5"/>
<text text-anchor="middle" x="437.036" y="-119.5" font-family="Helvetica,sans-Serif" font-size="10.00">View/actionscene.cc</text>
</a>
</g>
</g>
<!-- Node3&#45;&gt;Node23 -->
<g id="edge41" class="edge"><title>Node3&#45;&gt;Node23</title>
<path fill="none" stroke="midnightblue" d="M496.972,-215.558C489.263,-202.365 478.251,-183.874 468.036,-168 459.719,-155.076 449.514,-140.489 443.141,-131.519"/>
<polygon fill="midnightblue" stroke="midnightblue" points="494.106,-217.592 502.155,-224.482 500.159,-214.077 494.106,-217.592"/>
</g>
<!-- Node4&#45;&gt;Node5 -->
<g id="edge2" class="edge"><title>Node4&#45;&gt;Node5</title>
<path fill="none" stroke="midnightblue" d="M248.002,-162.38C234.627,-152.62 217.477,-140.106 206.142,-131.834"/>
<polygon fill="midnightblue" stroke="midnightblue" points="246.006,-165.257 256.147,-168.324 250.132,-159.602 246.006,-165.257"/>
</g>
<!-- Node4&#45;&gt;Node9 -->
<g id="edge12" class="edge"><title>Node4&#45;&gt;Node9</title>
<path fill="none" stroke="midnightblue" d="M281.418,-160.272C300.441,-136.494 334.605,-93.7889 349.163,-75.5914"/>
<polygon fill="midnightblue" stroke="midnightblue" points="278.455,-158.373 274.941,-168.368 283.921,-162.746 278.455,-158.373"/>
</g>
<!-- Node6 -->
<g id="node4" class="node"><title>Node6</title>
<g id="a_node4"><a xlink:href="controller_8hh.html" target="_top" xlink:title="Controller/controller.hh">
<polygon fill="white" stroke="black" points="181.036,-56.5 181.036,-75.5 295.036,-75.5 295.036,-56.5 181.036,-56.5"/>
<text text-anchor="middle" x="238.036" y="-63.5" font-family="Helvetica,sans-Serif" font-size="10.00">Controller/controller.hh</text>
</a>
</g>
</g>
<!-- Node5&#45;&gt;Node6 -->
<g id="edge3" class="edge"><title>Node5&#45;&gt;Node6</title>
<path fill="none" stroke="midnightblue" d="M207.771,-104.144C215.437,-94.7357 224.669,-83.4046 230.906,-75.7511"/>
<polygon fill="midnightblue" stroke="midnightblue" points="204.905,-102.12 201.302,-112.083 210.332,-106.541 204.905,-102.12"/>
</g>
<!-- Node5&#45;&gt;Node9 -->
<g id="edge6" class="edge"><title>Node5&#45;&gt;Node9</title>
<path fill="none" stroke="midnightblue" d="M229.52,-109.172C260.024,-99.0039 303.281,-84.5852 330.487,-75.5164"/>
<polygon fill="midnightblue" stroke="midnightblue" points="228.085,-105.961 219.705,-112.444 230.299,-112.602 228.085,-105.961"/>
</g>
<!-- Node5&#45;&gt;Node11 -->
<g id="edge9" class="edge"><title>Node5&#45;&gt;Node11</title>
<path fill="none" stroke="midnightblue" d="M175.201,-105.82C163.198,-96.1452 148.064,-83.9481 137.997,-75.8339"/>
<polygon fill="midnightblue" stroke="midnightblue" points="173.289,-108.774 183.271,-112.324 177.682,-103.324 173.289,-108.774"/>
</g>
<!-- Node7 -->
<g id="node5" class="node"><title>Node7</title>
<g id="a_node5"><a xlink:href="controller_8cc.html" target="_top" xlink:title="Controller/controller.cc">
<polygon fill="white" stroke="black" points="426.036,-0.5 426.036,-19.5 540.036,-19.5 540.036,-0.5 426.036,-0.5"/>
<text text-anchor="middle" x="483.036" y="-7.5" font-family="Helvetica,sans-Serif" font-size="10.00">Controller/controller.cc</text>
</a>
</g>
</g>
<!-- Node6&#45;&gt;Node7 -->
<g id="edge4" class="edge"><title>Node6&#45;&gt;Node7</title>
<path fill="none" stroke="midnightblue" d="M286.666,-54.2815C332.965,-44.0769 401.731,-28.9203 444.397,-19.5164"/>
<polygon fill="midnightblue" stroke="midnightblue" points="285.869,-50.8731 276.857,-56.4435 287.376,-57.709 285.869,-50.8731"/>
</g>
<!-- Node8 -->
<g id="node6" class="node"><title>Node8</title>
<g id="a_node6"><a xlink:href="main_8cc.html" target="_top" xlink:title="main.cc">
<polygon fill="white" stroke="black" points="212.536,-0.5 212.536,-19.5 263.536,-19.5 263.536,-0.5 212.536,-0.5"/>
<text text-anchor="middle" x="238.036" y="-7.5" font-family="Helvetica,sans-Serif" font-size="10.00">main.cc</text>
</a>
</g>
</g>
<!-- Node6&#45;&gt;Node8 -->
<g id="edge5" class="edge"><title>Node6&#45;&gt;Node8</title>
<path fill="none" stroke="midnightblue" d="M238.036,-45.8045C238.036,-36.9102 238.036,-26.7798 238.036,-19.7511"/>
<polygon fill="midnightblue" stroke="midnightblue" points="234.536,-46.083 238.036,-56.083 241.536,-46.083 234.536,-46.083"/>
</g>
<!-- Node9&#45;&gt;Node8 -->
<g id="edge7" class="edge"><title>Node9&#45;&gt;Node8</title>
<path fill="none" stroke="midnightblue" d="M328.136,-52.2321C306.063,-42.1312 275.86,-28.3091 256.646,-19.5164"/>
<polygon fill="midnightblue" stroke="midnightblue" points="326.789,-55.4648 337.339,-56.4435 329.702,-49.0997 326.789,-55.4648"/>
</g>
<!-- Node10 -->
<g id="node8" class="node"><title>Node10</title>
<g id="a_node8"><a xlink:href="model_8cc.html" target="_top" xlink:title="Model/model.cc">
<polygon fill="white" stroke="black" points="630.036,-0.5 630.036,-19.5 716.036,-19.5 716.036,-0.5 630.036,-0.5"/>
<text text-anchor="middle" x="673.036" y="-7.5" font-family="Helvetica,sans-Serif" font-size="10.00">Model/model.cc</text>
</a>
</g>
</g>
<!-- Node9&#45;&gt;Node10 -->
<g id="edge8" class="edge"><title>Node9&#45;&gt;Node10</title>
<path fill="none" stroke="midnightblue" d="M409.128,-55.8169C493.118,-41.4277 579.428,-26.8116 629.883,-18.2847"/>
<polygon fill="midnightblue" stroke="midnightblue" points="408.429,-52.3855 399.164,-57.5246 409.612,-59.2849 408.429,-52.3855"/>
</g>
<!-- Node11&#45;&gt;Node8 -->
<g id="edge10" class="edge"><title>Node11&#45;&gt;Node8</title>
<path fill="none" stroke="midnightblue" d="M154.041,-51.8622C174.624,-41.8492 202.381,-28.3458 220.246,-19.6545"/>
<polygon fill="midnightblue" stroke="midnightblue" points="152.331,-48.8019 144.87,-56.324 155.394,-55.0966 152.331,-48.8019"/>
</g>
<!-- Node12 -->
<g id="node10" class="node"><title>Node12</title>
<g id="a_node10"><a xlink:href="view_8cc.html" target="_top" xlink:title="View/view.cc">
<polygon fill="white" stroke="black" points="91.036,-0.5 91.036,-19.5 163.036,-19.5 163.036,-0.5 91.036,-0.5"/>
<text text-anchor="middle" x="127.036" y="-7.5" font-family="Helvetica,sans-Serif" font-size="10.00">View/view.cc</text>
</a>
</g>
</g>
<!-- Node11&#45;&gt;Node12 -->
<g id="edge11" class="edge"><title>Node11&#45;&gt;Node12</title>
<path fill="none" stroke="midnightblue" d="M127.036,-45.8045C127.036,-36.9102 127.036,-26.7798 127.036,-19.7511"/>
<polygon fill="midnightblue" stroke="midnightblue" points="123.536,-46.083 127.036,-56.083 130.536,-46.083 123.536,-46.083"/>
</g>
<!-- Node13&#45;&gt;Node5 -->
<g id="edge14" class="edge"><title>Node13&#45;&gt;Node5</title>
<path fill="none" stroke="midnightblue" d="M109.285,-163.862C130.053,-153.849 158.059,-140.346 176.086,-131.655"/>
<polygon fill="midnightblue" stroke="midnightblue" points="107.518,-160.828 100.031,-168.324 110.559,-167.134 107.518,-160.828"/>
</g>
<!-- Node13&#45;&gt;Node11 -->
<g id="edge15" class="edge"><title>Node13&#45;&gt;Node11</title>
<path fill="none" stroke="midnightblue" d="M89.4005,-158.998C99.2192,-134.997 116.208,-93.4683 123.521,-75.5914"/>
<polygon fill="midnightblue" stroke="midnightblue" points="86.1141,-157.788 85.5671,-168.368 92.5929,-160.438 86.1141,-157.788"/>
</g>
<!-- Node14&#45;&gt;Node7 -->
<g id="edge18" class="edge"><title>Node14&#45;&gt;Node7</title>
<path fill="none" stroke="midnightblue" d="M731.815,-103.45C722.178,-88.5034 706.349,-67.6508 687.036,-56 642.317,-29.0222 583.36,-18.1562 540.332,-13.8121"/>
<polygon fill="midnightblue" stroke="midnightblue" points="729.013,-105.575 737.229,-112.264 734.977,-101.911 729.013,-105.575"/>
</g>
<!-- Node14&#45;&gt;Node9 -->
<g id="edge19" class="edge"><title>Node14&#45;&gt;Node9</title>
<path fill="none" stroke="midnightblue" d="M670.864,-112.195C603.168,-103.635 498.521,-89.9209 408.036,-76 405.138,-75.5542 402.152,-75.0792 399.146,-74.5893"/>
<polygon fill="midnightblue" stroke="midnightblue" points="670.631,-115.694 680.99,-113.472 671.507,-108.749 670.631,-115.694"/>
</g>
<!-- Node14&#45;&gt;Node10 -->
<g id="edge22" class="edge"><title>Node14&#45;&gt;Node10</title>
<path fill="none" stroke="midnightblue" d="M738.629,-102.326C735.543,-88.7144 730.065,-70.2409 721.036,-56 711.616,-41.1434 696.16,-27.8767 685.338,-19.6633"/>
<polygon fill="midnightblue" stroke="midnightblue" points="735.258,-103.315 740.683,-112.416 742.117,-101.918 735.258,-103.315"/>
</g>
<!-- Node15 -->
<g id="node13" class="node"><title>Node15</title>
<g id="a_node13"><a xlink:href="layoutgenerator_8cc.html" target="_top" xlink:title="Model/layoutgenerator.cc">
<polygon fill="white" stroke="black" points="773.036,-56.5 773.036,-75.5 899.036,-75.5 899.036,-56.5 773.036,-56.5"/>
<text text-anchor="middle" x="836.036" y="-63.5" font-family="Helvetica,sans-Serif" font-size="10.00">Model/layoutgenerator.cc</text>
</a>
</g>
</g>
<!-- Node14&#45;&gt;Node15 -->
<g id="edge20" class="edge"><title>Node14&#45;&gt;Node15</title>
<path fill="none" stroke="midnightblue" d="M766.098,-107.177C783.395,-97.2407 806.184,-84.1492 820.971,-75.6545"/>
<polygon fill="midnightblue" stroke="midnightblue" points="764.066,-104.308 757.139,-112.324 767.553,-110.378 764.066,-104.308"/>
</g>
<!-- Node16 -->
<g id="node14" class="node"><title>Node16</title>
<g id="a_node14"><a xlink:href="mapprocessor_8cc.html" target="_top" xlink:title="Model/mapprocessor.cc">
<polygon fill="white" stroke="black" points="557.536,-56.5 557.536,-75.5 678.536,-75.5 678.536,-56.5 557.536,-56.5"/>
<text text-anchor="middle" x="618.036" y="-63.5" font-family="Helvetica,sans-Serif" font-size="10.00">Model/mapprocessor.cc</text>
</a>
</g>
</g>
<!-- Node14&#45;&gt;Node16 -->
<g id="edge21" class="edge"><title>Node14&#45;&gt;Node16</title>
<path fill="none" stroke="midnightblue" d="M713.029,-108.368C689.807,-98.2553 657.874,-84.3486 637.592,-75.5164"/>
<polygon fill="midnightblue" stroke="midnightblue" points="711.822,-111.66 722.388,-112.444 714.617,-105.242 711.822,-111.66"/>
</g>
<!-- Node17 -->
<g id="node15" class="node"><title>Node17</title>
<g id="a_node15"><a xlink:href="parkspaceinserter_8cc.html" target="_top" xlink:title="Model/parkspaceinserter.cc">
<polygon fill="white" stroke="black" points="917.536,-56.5 917.536,-75.5 1054.54,-75.5 1054.54,-56.5 917.536,-56.5"/>
<text text-anchor="middle" x="986.036" y="-63.5" font-family="Helvetica,sans-Serif" font-size="10.00">Model/parkspaceinserter.cc</text>
</a>
</g>
</g>
<!-- Node14&#45;&gt;Node17 -->
<g id="edge23" class="edge"><title>Node14&#45;&gt;Node17</title>
<path fill="none" stroke="midnightblue" d="M790.468,-110.281C836.577,-100.077 905.063,-84.9203 947.554,-75.5164"/>
<polygon fill="midnightblue" stroke="midnightblue" points="789.706,-106.865 780.699,-112.444 791.219,-113.7 789.706,-106.865"/>
</g>
<!-- Node14&#45;&gt;Node18 -->
<g id="edge24" class="edge"><title>Node14&#45;&gt;Node18</title>
<path fill="none" stroke="midnightblue" d="M690.261,-110.41C640.367,-100.204 565.839,-84.9597 519.672,-75.5164"/>
<polygon fill="midnightblue" stroke="midnightblue" points="689.706,-113.869 700.204,-112.444 691.109,-107.01 689.706,-113.869"/>
</g>
<!-- Node19&#45;&gt;Node14 -->
<g id="edge26" class="edge"><title>Node19&#45;&gt;Node14</title>
<path fill="none" stroke="midnightblue" d="M676.274,-162.901C692.594,-152.999 713.901,-140.071 727.772,-131.655"/>
<polygon fill="midnightblue" stroke="midnightblue" points="674.069,-160.144 667.335,-168.324 677.7,-166.129 674.069,-160.144"/>
</g>
<!-- Node19&#45;&gt;Node16 -->
<g id="edge27" class="edge"><title>Node19&#45;&gt;Node16</title>
<path fill="none" stroke="midnightblue" d="M647.205,-158.674C639.553,-134.625 626.432,-93.3881 620.77,-75.5914"/>
<polygon fill="midnightblue" stroke="midnightblue" points="643.922,-159.9 650.29,-168.368 650.593,-157.778 643.922,-159.9"/>
</g>
<!-- Node19&#45;&gt;Node18 -->
<g id="edge28" class="edge"><title>Node19&#45;&gt;Node18</title>
<path fill="none" stroke="midnightblue" d="M637.331,-160.949C622.868,-146.788 600.334,-126.244 578.036,-112 553.65,-96.4215 522.968,-83.4782 502.064,-75.5329"/>
<polygon fill="midnightblue" stroke="midnightblue" points="634.93,-163.497 644.483,-168.078 639.872,-158.539 634.93,-163.497"/>
</g>
<!-- Node20&#45;&gt;Node14 -->
<g id="edge30" class="edge"><title>Node20&#45;&gt;Node14</title>
<path fill="none" stroke="midnightblue" d="M809.742,-163.177C792.997,-153.241 770.936,-140.149 756.62,-131.655"/>
<polygon fill="midnightblue" stroke="midnightblue" points="808.029,-166.231 818.415,-168.324 811.602,-160.211 808.029,-166.231"/>
</g>
<!-- Node20&#45;&gt;Node15 -->
<g id="edge31" class="edge"><title>Node20&#45;&gt;Node15</title>
<path fill="none" stroke="midnightblue" d="M833.545,-158.348C834.202,-134.254 835.319,-93.3079 835.802,-75.5914"/>
<polygon fill="midnightblue" stroke="midnightblue" points="830.045,-158.277 833.271,-168.368 837.043,-158.468 830.045,-158.277"/>
</g>
<!-- Node21&#45;&gt;Node14 -->
<g id="edge33" class="edge"><title>Node21&#45;&gt;Node14</title>
<path fill="none" stroke="midnightblue" d="M934.913,-166.217C889.374,-156.013 821.926,-140.901 780.045,-131.516"/>
<polygon fill="midnightblue" stroke="midnightblue" points="934.326,-169.672 944.849,-168.444 935.856,-162.842 934.326,-169.672"/>
</g>
<!-- Node21&#45;&gt;Node17 -->
<g id="edge34" class="edge"><title>Node21&#45;&gt;Node17</title>
<path fill="none" stroke="midnightblue" d="M983.545,-158.348C984.202,-134.254 985.319,-93.3079 985.802,-75.5914"/>
<polygon fill="midnightblue" stroke="midnightblue" points="980.045,-158.277 983.271,-168.368 987.043,-158.468 980.045,-158.277"/>
</g>
<!-- Node22&#45;&gt;Node11 -->
<g id="edge38" class="edge"><title>Node22&#45;&gt;Node11</title>
<path fill="none" stroke="midnightblue" d="M381.818,-163.325C356.13,-149.195 314.084,-127.13 276.036,-112 237.618,-96.7233 191.9,-83.6334 161.33,-75.573"/>
<polygon fill="midnightblue" stroke="midnightblue" points="380.377,-166.528 390.82,-168.32 383.774,-160.408 380.377,-166.528"/>
</g>
<!-- Node22&#45;&gt;Node23 -->
<g id="edge39" class="edge"><title>Node22&#45;&gt;Node23</title>
<path fill="none" stroke="midnightblue" d="M416.212,-159.275C421.51,-150.045 427.753,-139.17 432.012,-131.751"/>
<polygon fill="midnightblue" stroke="midnightblue" points="413.098,-157.668 411.155,-168.083 419.169,-161.153 413.098,-157.668"/>
</g>
</g>
</svg>
        <g id="navigator" transform="translate(0 0)" fill="#404254">
                <rect fill="#f2f5e9" fill-opacity="0.5" stroke="#606060" stroke-width=".5" x="0" y="0" width="60" height="60"/>
                <use id="zoomplus" xlink:href="#zoomPlus" x="17" y="9" onmousedown="handleZoom(evt,'in')"/>
                <use id="zoomminus" xlink:href="#zoomMin" x="42" y="9" onmousedown="handleZoom(evt,'out')"/>
                <use id="reset" xlink:href="#resetDef" x="30" y="36" onmousedown="handleReset()"/>
                <g id="arrowUp" xlink:href="#dirArrow" transform="translate(30 24)" onmousedown="handlePan(0,-1)">
                  <use xlink:href="#rim" fill="#404040">
                        <set attributeName="fill" to="#808080" begin="arrowUp.mouseover" end="arrowUp.mouseout"/>
                  </use>
                  <path fill="none" stroke="white" stroke-width="1.5" d="M0,-3.0v7 M-2.5,-0.5L0,-3.0L2.5,-0.5"/>
                </g>
                <g id="arrowRight" xlink:href="#dirArrow" transform="rotate(90) translate(36 -43)" onmousedown="handlePan(1,0)">
                  <use xlink:href="#rim" fill="#404040">
                        <set attributeName="fill" to="#808080" begin="arrowRight.mouseover" end="arrowRight.mouseout"/>
                  </use>
                  <path fill="none" stroke="white" stroke-width="1.5" d="M0,-3.0v7 M-2.5,-0.5L0,-3.0L2.5,-0.5"/>
                </g>
                <g id="arrowDown" xlink:href="#dirArrow" transform="rotate(180) translate(-30 -48)" onmousedown="handlePan(0,1)">
                  <use xlink:href="#rim" fill="#404040">
                        <set attributeName="fill" to="#808080" begin="arrowDown.mouseover" end="arrowDown.mouseout"/>
                  </use>
                  <path fill="none" stroke="white" stroke-width="1.5" d="M0,-3.0v7 M-2.5,-0.5L0,-3.0L2.5,-0.5"/>
                </g>
                <g id="arrowLeft" xlink:href="#dirArrow" transform="rotate(270) translate(-36 17)" onmousedown="handlePan(-1,0)">
                  <use xlink:href="#rim" fill="#404040">
                        <set attributeName="fill" to="#808080" begin="arrowLeft.mouseover" end="arrowLeft.mouseout"/>
                  </use>
                  <path fill="none" stroke="white" stroke-width="1.5" d="M0,-3.0v7 M-2.5,-0.5L0,-3.0L2.5,-0.5"/>
                </g>
        </g>
        <svg viewBox="0 0 15 15" width="100%" height="30px" preserveAspectRatio="xMaxYMin meet">
         <g id="arrow_out" transform="scale(0.3 0.3)">
          <a xlink:href="parkinghalllayoutinterface_8hh__dep__incl_org.svg" target="_base">
           <rect id="button" ry="5" rx="5" y="6" x="6" height="38" width="38"
                fill="#f2f5e9" fill-opacity="0.5" stroke="#606060" stroke-width="1.0"/>
           <path id="arrow"
             d="M 11.500037,31.436501 C 11.940474,20.09759 22.043105,11.32322 32.158766,21.979434 L 37.068811,17.246167 C 37.068811,17.246167 37.088388,32 37.088388,32 L 22.160133,31.978069 C 22.160133,31.978069 26.997745,27.140456 26.997745,27.140456 C 18.528582,18.264221 13.291696,25.230495 11.500037,31.436501 z"
             style="fill:#404040;"/>
          </a>
         </g>
        </svg>
</svg>
