<?xml version="1.0" encoding="UTF-8" standalone="no"?>
<!DOCTYPE svg PUBLIC "-//W3C//DTD SVG 1.1//EN"
 "http://www.w3.org/Graphics/SVG/1.1/DTD/svg11.dtd">
<!-- Generated by graphviz version 2.38.0 (20140413.2041)
 -->
<!-- Title: Model/parkspaceinserter.hh Pages: 1 -->
<svg width="844pt" height="196pt"
 viewBox="0.00 0.00 843.50 196.00" xmlns="http://www.w3.org/2000/svg" xmlns:xlink="http://www.w3.org/1999/xlink">
<g id="graph0" class="graph" transform="scale(1 1) rotate(0) translate(4 192)">
<title>Model/parkspaceinserter.hh</title>
<polygon fill="white" stroke="none" points="-4,4 -4,-192 839.5,-192 839.5,4 -4,4"/>
<!-- Node4 -->
<g id="node1" class="node"><title>Node4</title>
<polygon fill="#bfbfbf" stroke="black" points="468.5,-168.5 468.5,-187.5 605.5,-187.5 605.5,-168.5 468.5,-168.5"/>
<text text-anchor="middle" x="537" y="-175.5" font-family="Helvetica,sans-Serif" font-size="10.00">Model/parkspaceinserter.hh</text>
</g>
<!-- Node5 -->
<g id="node2" class="node"><title>Node5</title>
<g id="a_node2"><a xlink:href="roomgenerator_8hh.html" target="_top" xlink:title="Model/roomgenerator.hh">
<polygon fill="white" stroke="black" points="347,-112.5 347,-131.5 469,-131.5 469,-112.5 347,-112.5"/>
<text text-anchor="middle" x="408" y="-119.5" font-family="Helvetica,sans-Serif" font-size="10.00">Model/roomgenerator.hh</text>
</a>
</g>
</g>
<!-- Node4&#45;&gt;Node5 -->
<g id="edge1" class="edge"><title>Node4&#45;&gt;Node5</title>
<path fill="none" stroke="midnightblue" d="M507.146,-164.503C482.962,-154.38 449.538,-140.388 428.345,-131.516"/>
<polygon fill="midnightblue" stroke="midnightblue" points="505.984,-167.811 516.56,-168.444 508.687,-161.354 505.984,-167.811"/>
</g>
<!-- Node12 -->
<g id="node9" class="node"><title>Node12</title>
<g id="a_node9"><a xlink:href="parkspaceinserter_8cc.html" target="_top" xlink:title="Model/parkspaceinserter.cc">
<polygon fill="white" stroke="black" points="698.5,-56.5 698.5,-75.5 835.5,-75.5 835.5,-56.5 698.5,-56.5"/>
<text text-anchor="middle" x="767" y="-63.5" font-family="Helvetica,sans-Serif" font-size="10.00">Model/parkspaceinserter.cc</text>
</a>
</g>
</g>
<!-- Node4&#45;&gt;Node12 -->
<g id="edge11" class="edge"><title>Node4&#45;&gt;Node12</title>
<path fill="none" stroke="midnightblue" d="M564.137,-164.021C611.705,-141.272 708.892,-94.791 749.036,-75.5914"/>
<polygon fill="midnightblue" stroke="midnightblue" points="562.559,-160.896 555.048,-168.368 565.579,-167.211 562.559,-160.896"/>
</g>
<!-- Node6 -->
<g id="node3" class="node"><title>Node6</title>
<g id="a_node3"><a xlink:href="controller_8cc.html" target="_top" xlink:title="Controller/controller.cc">
<polygon fill="white" stroke="black" points="0,-56.5 0,-75.5 114,-75.5 114,-56.5 0,-56.5"/>
<text text-anchor="middle" x="57" y="-63.5" font-family="Helvetica,sans-Serif" font-size="10.00">Controller/controller.cc</text>
</a>
</g>
</g>
<!-- Node5&#45;&gt;Node6 -->
<g id="edge2" class="edge"><title>Node5&#45;&gt;Node6</title>
<path fill="none" stroke="midnightblue" d="M342.458,-110.917C276.147,-100.715 174.763,-85.1174 112.357,-75.5164"/>
<polygon fill="midnightblue" stroke="midnightblue" points="341.967,-114.382 352.383,-112.444 343.032,-107.464 341.967,-114.382"/>
</g>
<!-- Node7 -->
<g id="node4" class="node"><title>Node7</title>
<g id="a_node4"><a xlink:href="model_8hh.html" target="_top" xlink:title="Model/model.hh">
<polygon fill="white" stroke="black" points="132,-56.5 132,-75.5 218,-75.5 218,-56.5 132,-56.5"/>
<text text-anchor="middle" x="175" y="-63.5" font-family="Helvetica,sans-Serif" font-size="10.00">Model/model.hh</text>
</a>
</g>
</g>
<!-- Node5&#45;&gt;Node7 -->
<g id="edge3" class="edge"><title>Node5&#45;&gt;Node7</title>
<path fill="none" stroke="midnightblue" d="M361.197,-110.153C317.173,-99.95 252.153,-84.8809 211.747,-75.5164"/>
<polygon fill="midnightblue" stroke="midnightblue" points="360.548,-113.595 371.08,-112.444 362.129,-106.776 360.548,-113.595"/>
</g>
<!-- Node9 -->
<g id="node6" class="node"><title>Node9</title>
<g id="a_node6"><a xlink:href="model_8cc.html" target="_top" xlink:title="Model/model.cc">
<polygon fill="white" stroke="black" points="203,-0.5 203,-19.5 289,-19.5 289,-0.5 203,-0.5"/>
<text text-anchor="middle" x="246" y="-7.5" font-family="Helvetica,sans-Serif" font-size="10.00">Model/model.cc</text>
</a>
</g>
</g>
<!-- Node5&#45;&gt;Node9 -->
<g id="edge8" class="edge"><title>Node5&#45;&gt;Node9</title>
<path fill="none" stroke="midnightblue" d="M336.787,-112.726C311.185,-106.423 283.974,-95.3668 265,-76 249.861,-60.5474 246.669,-33.7288 246.071,-19.8657"/>
<polygon fill="midnightblue" stroke="midnightblue" points="336.351,-116.215 346.875,-114.993 337.885,-109.386 336.351,-116.215"/>
</g>
<!-- Node10 -->
<g id="node7" class="node"><title>Node10</title>
<g id="a_node7"><a xlink:href="layoutgenerator_8cc.html" target="_top" xlink:title="Model/layoutgenerator.cc">
<polygon fill="white" stroke="black" points="274,-56.5 274,-75.5 400,-75.5 400,-56.5 274,-56.5"/>
<text text-anchor="middle" x="337" y="-63.5" font-family="Helvetica,sans-Serif" font-size="10.00">Model/layoutgenerator.cc</text>
</a>
</g>
</g>
<!-- Node5&#45;&gt;Node10 -->
<g id="edge6" class="edge"><title>Node5&#45;&gt;Node10</title>
<path fill="none" stroke="midnightblue" d="M388.41,-106.101C375.632,-96.3824 359.387,-84.0269 348.615,-75.8339"/>
<polygon fill="midnightblue" stroke="midnightblue" points="386.514,-109.056 396.593,-112.324 390.752,-103.484 386.514,-109.056"/>
</g>
<!-- Node11 -->
<g id="node8" class="node"><title>Node11</title>
<g id="a_node8"><a xlink:href="mapprocessor_8cc.html" target="_top" xlink:title="Model/mapprocessor.cc">
<polygon fill="white" stroke="black" points="418.5,-56.5 418.5,-75.5 539.5,-75.5 539.5,-56.5 418.5,-56.5"/>
<text text-anchor="middle" x="479" y="-63.5" font-family="Helvetica,sans-Serif" font-size="10.00">Model/mapprocessor.cc</text>
</a>
</g>
</g>
<!-- Node5&#45;&gt;Node11 -->
<g id="edge7" class="edge"><title>Node5&#45;&gt;Node11</title>
<path fill="none" stroke="midnightblue" d="M427.59,-106.101C440.368,-96.3824 456.613,-84.0269 467.385,-75.8339"/>
<polygon fill="midnightblue" stroke="midnightblue" points="425.248,-103.484 419.407,-112.324 429.486,-109.056 425.248,-103.484"/>
</g>
<!-- Node5&#45;&gt;Node12 -->
<g id="edge9" class="edge"><title>Node5&#45;&gt;Node12</title>
<path fill="none" stroke="midnightblue" d="M475.036,-110.917C542.858,-100.715 646.553,-85.1174 710.382,-75.5164"/>
<polygon fill="midnightblue" stroke="midnightblue" points="474.253,-107.495 464.885,-112.444 475.294,-114.417 474.253,-107.495"/>
</g>
<!-- Node13 -->
<g id="node10" class="node"><title>Node13</title>
<g id="a_node10"><a xlink:href="roomgenerator_8cc.html" target="_top" xlink:title="Model/roomgenerator.cc">
<polygon fill="white" stroke="black" points="558,-56.5 558,-75.5 680,-75.5 680,-56.5 558,-56.5"/>
<text text-anchor="middle" x="619" y="-63.5" font-family="Helvetica,sans-Serif" font-size="10.00">Model/roomgenerator.cc</text>
</a>
</g>
</g>
<!-- Node5&#45;&gt;Node13 -->
<g id="edge10" class="edge"><title>Node5&#45;&gt;Node13</title>
<path fill="none" stroke="midnightblue" d="M451.142,-109.959C490.994,-99.7598 549.363,-84.8217 585.723,-75.5164"/>
<polygon fill="midnightblue" stroke="midnightblue" points="450.254,-106.573 441.434,-112.444 451.989,-113.355 450.254,-106.573"/>
</g>
<!-- Node8 -->
<g id="node5" class="node"><title>Node8</title>
<g id="a_node5"><a xlink:href="main_8cc.html" target="_top" xlink:title="main.cc">
<polygon fill="white" stroke="black" points="133.5,-0.5 133.5,-19.5 184.5,-19.5 184.5,-0.5 133.5,-0.5"/>
<text text-anchor="middle" x="159" y="-7.5" font-family="Helvetica,sans-Serif" font-size="10.00">main.cc</text>
</a>
</g>
</g>
<!-- Node7&#45;&gt;Node8 -->
<g id="edge4" class="edge"><title>Node7&#45;&gt;Node8</title>
<path fill="none" stroke="midnightblue" d="M169.488,-46.3956C166.811,-37.362 163.722,-26.936 161.593,-19.7511"/>
<polygon fill="midnightblue" stroke="midnightblue" points="166.161,-47.4893 172.358,-56.083 172.873,-45.5007 166.161,-47.4893"/>
</g>
<!-- Node7&#45;&gt;Node9 -->
<g id="edge5" class="edge"><title>Node7&#45;&gt;Node9</title>
<path fill="none" stroke="midnightblue" d="M194.59,-50.1008C207.368,-40.3824 223.613,-28.0269 234.385,-19.8339"/>
<polygon fill="midnightblue" stroke="midnightblue" points="192.248,-47.4844 186.407,-56.324 196.486,-53.0561 192.248,-47.4844"/>
</g>
</g>
</svg>
