<?xml version="1.0" encoding="UTF-8" standalone="no"?>
<!DOCTYPE svg PUBLIC "-//W3C//DTD SVG 1.1//EN"
 "http://www.w3.org/Graphics/SVG/1.1/DTD/svg11.dtd">
<!-- Generated by graphviz version 2.38.0 (20140413.2041)
 -->
<!-- Title: Interface/parkinghallinterface.hh Pages: 1 -->
<!--zoomable 252 -->
<svg id="main" version="1.1" xmlns="http://www.w3.org/2000/svg" xmlns:xlink="http://www.w3.org/1999/xlink" xml:space="preserve" onload="init(evt)">
<style type="text/css"><![CDATA[
.edge:hover path { stroke: red; }
.edge:hover polygon { stroke: red; fill: red; }
]]></style>
<script type="text/javascript"><![CDATA[
var edges = document.getElementsByTagName('g');
if (edges && edges.length) {
  for (var i=0;i<edges.length;i++) {
    if (edges[i].id.substr(0,4)=='edge') {
      edges[i].setAttribute('class','edge');
    }
  }
}
]]></script>
        <defs>
                <circle id="rim" cx="0" cy="0" r="7"/>
                <circle id="rim2" cx="0" cy="0" r="3.5"/>
                <g id="zoomPlus">
                        <use xlink:href="#rim" fill="#404040">
                                <set attributeName="fill" to="#808080" begin="zoomplus.mouseover" end="zoomplus.mouseout"/>
                        </use>
                        <path d="M-4,0h8M0,-4v8" fill="none" stroke="white" stroke-width="1.5" pointer-events="none"/>
                </g>
                <g id="zoomMin">
                        <use xlink:href="#rim" fill="#404040">
                                <set attributeName="fill" to="#808080" begin="zoomminus.mouseover" end="zoomminus.mouseout"/>
                        </use>
                        <path d="M-4,0h8" fill="none" stroke="white" stroke-width="1.5" pointer-events="none"/>
                </g>
                <g id="dirArrow">
                        <path fill="none" stroke="white" stroke-width="1.5" d="M0,-3.0v7 M-2.5,-0.5L0,-3.0L2.5,-0.5"/>
                </g>
               <g id="resetDef">
                       <use xlink:href="#rim2" fill="#404040">
                               <set attributeName="fill" to="#808080" begin="reset.mouseover" end="reset.mouseout"/>
                       </use>
               </g>
        </defs>

<script type="text/javascript">
var viewWidth = 831;
var viewHeight = 252;
var sectionId = 'dynsection-1';
</script>
<script xlink:href="svgpan.js"/>
<svg id="graph" class="graph">
<g id="viewport">
<title>Interface/parkinghallinterface.hh</title>
<polygon fill="white" stroke="none" points="-4,4 -4,-248 827.08,-248 827.08,4 -4,4"/>
<!-- Node2 -->
<g id="node1" class="node"><title>Node2</title>
<polygon fill="#bfbfbf" stroke="black" points="270.58,-224.5 270.58,-243.5 423.58,-243.5 423.58,-224.5 270.58,-224.5"/>
<text text-anchor="middle" x="347.08" y="-231.5" font-family="Helvetica,sans-Serif" font-size="10.00">Interface/parkinghallinterface.hh</text>
</g>
<!-- Node3 -->
<g id="node2" class="node"><title>Node3</title>
<g id="a_node2"><a xlink:href="modelinterface_8hh.html" target="_top" xlink:title="Määrittelee modellin operaatioiden rajapintaluokan. ">
<polygon fill="white" stroke="black" points="35.5799,-168.5 35.5799,-187.5 168.58,-187.5 168.58,-168.5 35.5799,-168.5"/>
<text text-anchor="middle" x="102.08" y="-175.5" font-family="Helvetica,sans-Serif" font-size="10.00">Interface/modelinterface.hh</text>
</a>
</g>
</g>
<!-- Node2&#45;&gt;Node3 -->
<g id="edge1" class="edge"><title>Node2&#45;&gt;Node3</title>
<path fill="none" stroke="midnightblue" d="M298.45,-222.281C252.151,-212.077 183.385,-196.92 140.719,-187.516"/>
<polygon fill="midnightblue" stroke="midnightblue" points="297.74,-225.709 308.259,-224.444 299.247,-218.873 297.74,-225.709"/>
</g>
<!-- Node8 -->
<g id="node7" class="node"><title>Node8</title>
<g id="a_node7"><a xlink:href="model_8hh.html" target="_top" xlink:title="Model/model.hh">
<polygon fill="white" stroke="black" points="160.08,-56.5 160.08,-75.5 246.08,-75.5 246.08,-56.5 160.08,-56.5"/>
<text text-anchor="middle" x="203.08" y="-63.5" font-family="Helvetica,sans-Serif" font-size="10.00">Model/model.hh</text>
</a>
</g>
</g>
<!-- Node2&#45;&gt;Node8 -->
<g id="edge13" class="edge"><title>Node2&#45;&gt;Node8</title>
<path fill="none" stroke="midnightblue" d="M260.122,-231.483C177.032,-228.198 59.6161,-218.166 26.0799,-188 0.544496,-165.03 -9.24068,-138.927 12.0799,-112 16.7588,-106.091 106.274,-86.8409 161.076,-75.5229"/>
<polygon fill="midnightblue" stroke="midnightblue" points="260.208,-234.988 270.331,-231.859 260.467,-227.993 260.208,-234.988"/>
</g>
<!-- Node10 -->
<g id="node9" class="node"><title>Node10</title>
<g id="a_node9"><a xlink:href="view_8hh.html" target="_top" xlink:title="View/view.hh">
<polygon fill="white" stroke="black" points="625.08,-56.5 625.08,-75.5 697.08,-75.5 697.08,-56.5 625.08,-56.5"/>
<text text-anchor="middle" x="661.08" y="-63.5" font-family="Helvetica,sans-Serif" font-size="10.00">View/view.hh</text>
</a>
</g>
</g>
<!-- Node2&#45;&gt;Node10 -->
<g id="edge22" class="edge"><title>Node2&#45;&gt;Node10</title>
<path fill="none" stroke="midnightblue" d="M433.743,-224.681C499.488,-213.879 587.566,-189.052 642.08,-132 657.025,-116.359 660.302,-89.6231 660.963,-75.8211"/>
<polygon fill="midnightblue" stroke="midnightblue" points="433.141,-221.233 423.803,-226.237 434.223,-228.149 433.141,-221.233"/>
</g>
<!-- Node12 -->
<g id="node11" class="node"><title>Node12</title>
<g id="a_node11"><a xlink:href="parkinghall_8hh.html" target="_top" xlink:title="Model/parkinghall.hh">
<polygon fill="white" stroke="black" points="357.08,-168.5 357.08,-187.5 463.08,-187.5 463.08,-168.5 357.08,-168.5"/>
<text text-anchor="middle" x="410.08" y="-175.5" font-family="Helvetica,sans-Serif" font-size="10.00">Model/parkinghall.hh</text>
</a>
</g>
</g>
<!-- Node2&#45;&gt;Node12 -->
<g id="edge14" class="edge"><title>Node2&#45;&gt;Node12</title>
<path fill="none" stroke="midnightblue" d="M365.12,-217.537C376.353,-207.909 390.399,-195.869 399.774,-187.834"/>
<polygon fill="midnightblue" stroke="midnightblue" points="362.517,-215.159 357.202,-224.324 367.072,-220.473 362.517,-215.159"/>
</g>
<!-- Node16 -->
<g id="node15" class="node"><title>Node16</title>
<g id="a_node15"><a xlink:href="playerparty_8hh.html" target="_top" xlink:title="Model/playerparty.hh">
<polygon fill="white" stroke="black" points="231.58,-168.5 231.58,-187.5 338.58,-187.5 338.58,-168.5 231.58,-168.5"/>
<text text-anchor="middle" x="285.08" y="-175.5" font-family="Helvetica,sans-Serif" font-size="10.00">Model/playerparty.hh</text>
</a>
</g>
</g>
<!-- Node2&#45;&gt;Node16 -->
<g id="edge19" class="edge"><title>Node2&#45;&gt;Node16</title>
<path fill="none" stroke="midnightblue" d="M329.326,-217.537C318.271,-207.909 304.448,-195.869 295.222,-187.834"/>
<polygon fill="midnightblue" stroke="midnightblue" points="327.279,-220.395 337.119,-224.324 331.876,-215.117 327.279,-220.395"/>
</g>
<!-- Node18 -->
<g id="node17" class="node"><title>Node18</title>
<g id="a_node17"><a xlink:href="cityscape_8hh.html" target="_top" xlink:title="View/cityscape.hh">
<polygon fill="white" stroke="black" points="689.08,-168.5 689.08,-187.5 785.08,-187.5 785.08,-168.5 689.08,-168.5"/>
<text text-anchor="middle" x="737.08" y="-175.5" font-family="Helvetica,sans-Serif" font-size="10.00">View/cityscape.hh</text>
</a>
</g>
</g>
<!-- Node2&#45;&gt;Node18 -->
<g id="edge23" class="edge"><title>Node2&#45;&gt;Node18</title>
<path fill="none" stroke="midnightblue" d="M420.248,-223.128C486.734,-214.118 587.517,-200.362 675.08,-188 679.603,-187.361 684.311,-186.69 689.021,-186.014"/>
<polygon fill="midnightblue" stroke="midnightblue" points="419.726,-219.667 410.286,-224.477 420.665,-226.604 419.726,-219.667"/>
</g>
<!-- Node4 -->
<g id="node3" class="node"><title>Node4</title>
<g id="a_node3"><a xlink:href="controllerinterface_8hh.html" target="_top" xlink:title="Interface/controllerinterface.hh">
<polygon fill="white" stroke="black" points="29.0799,-112.5 29.0799,-131.5 175.08,-131.5 175.08,-112.5 29.0799,-112.5"/>
<text text-anchor="middle" x="102.08" y="-119.5" font-family="Helvetica,sans-Serif" font-size="10.00">Interface/controllerinterface.hh</text>
</a>
</g>
</g>
<!-- Node3&#45;&gt;Node4 -->
<g id="edge2" class="edge"><title>Node3&#45;&gt;Node4</title>
<path fill="none" stroke="midnightblue" d="M102.08,-157.805C102.08,-148.91 102.08,-138.78 102.08,-131.751"/>
<polygon fill="midnightblue" stroke="midnightblue" points="98.58,-158.083 102.08,-168.083 105.58,-158.083 98.58,-158.083"/>
</g>
<!-- Node3&#45;&gt;Node8 -->
<g id="edge12" class="edge"><title>Node3&#45;&gt;Node8</title>
<path fill="none" stroke="midnightblue" d="M65.227,-164.771C36.0357,-153.088 2.81138,-134.029 20.0799,-112 28.7592,-100.928 108.385,-84.4202 159.705,-74.7791"/>
<polygon fill="midnightblue" stroke="midnightblue" points="64.3022,-168.164 74.8933,-168.444 66.7887,-161.62 64.3022,-168.164"/>
</g>
<!-- Node5 -->
<g id="node4" class="node"><title>Node5</title>
<g id="a_node4"><a xlink:href="controller_8hh.html" target="_top" xlink:title="Controller/controller.hh">
<polygon fill="white" stroke="black" points="28.0799,-56.5 28.0799,-75.5 142.08,-75.5 142.08,-56.5 28.0799,-56.5"/>
<text text-anchor="middle" x="85.0799" y="-63.5" font-family="Helvetica,sans-Serif" font-size="10.00">Controller/controller.hh</text>
</a>
</g>
</g>
<!-- Node4&#45;&gt;Node5 -->
<g id="edge3" class="edge"><title>Node4&#45;&gt;Node5</title>
<path fill="none" stroke="midnightblue" d="M96.2229,-102.396C93.379,-93.362 90.0968,-82.936 87.8348,-75.7511"/>
<polygon fill="midnightblue" stroke="midnightblue" points="92.9313,-103.596 99.2727,-112.083 99.6082,-101.493 92.9313,-103.596"/>
</g>
<!-- Node4&#45;&gt;Node8 -->
<g id="edge6" class="edge"><title>Node4&#45;&gt;Node8</title>
<path fill="none" stroke="midnightblue" d="M127.162,-107.59C145.837,-97.6052 170.784,-84.2672 186.893,-75.6545"/>
<polygon fill="midnightblue" stroke="midnightblue" points="125.476,-104.522 118.307,-112.324 128.776,-110.696 125.476,-104.522"/>
</g>
<!-- Node4&#45;&gt;Node10 -->
<g id="edge9" class="edge"><title>Node4&#45;&gt;Node10</title>
<path fill="none" stroke="midnightblue" d="M185.458,-114.207C320.127,-103.16 574.679,-81.9339 616.08,-76 618.919,-75.5931 621.85,-75.1226 624.79,-74.6145"/>
<polygon fill="midnightblue" stroke="midnightblue" points="184.863,-110.744 175.183,-115.049 185.435,-117.721 184.863,-110.744"/>
</g>
<!-- Node6 -->
<g id="node5" class="node"><title>Node6</title>
<g id="a_node5"><a xlink:href="controller_8cc.html" target="_top" xlink:title="Controller/controller.cc">
<polygon fill="white" stroke="black" points="28.0799,-0.5 28.0799,-19.5 142.08,-19.5 142.08,-0.5 28.0799,-0.5"/>
<text text-anchor="middle" x="85.0799" y="-7.5" font-family="Helvetica,sans-Serif" font-size="10.00">Controller/controller.cc</text>
</a>
</g>
</g>
<!-- Node5&#45;&gt;Node6 -->
<g id="edge4" class="edge"><title>Node5&#45;&gt;Node6</title>
<path fill="none" stroke="midnightblue" d="M85.0799,-45.8045C85.0799,-36.9102 85.0799,-26.7798 85.0799,-19.7511"/>
<polygon fill="midnightblue" stroke="midnightblue" points="81.58,-46.083 85.0799,-56.083 88.58,-46.083 81.58,-46.083"/>
</g>
<!-- Node7 -->
<g id="node6" class="node"><title>Node7</title>
<g id="a_node6"><a xlink:href="main_8cc.html" target="_top" xlink:title="main.cc">
<polygon fill="white" stroke="black" points="169.58,-0.5 169.58,-19.5 220.58,-19.5 220.58,-0.5 169.58,-0.5"/>
<text text-anchor="middle" x="195.08" y="-7.5" font-family="Helvetica,sans-Serif" font-size="10.00">main.cc</text>
</a>
</g>
</g>
<!-- Node5&#45;&gt;Node7 -->
<g id="edge5" class="edge"><title>Node5&#45;&gt;Node7</title>
<path fill="none" stroke="midnightblue" d="M111.842,-51.8622C132.239,-41.8492 159.746,-28.3458 177.45,-19.6545"/>
<polygon fill="midnightblue" stroke="midnightblue" points="110.188,-48.7753 102.753,-56.324 113.272,-55.059 110.188,-48.7753"/>
</g>
<!-- Node8&#45;&gt;Node7 -->
<g id="edge7" class="edge"><title>Node8&#45;&gt;Node7</title>
<path fill="none" stroke="midnightblue" d="M200.28,-46.1005C198.952,-37.1357 197.429,-26.8579 196.376,-19.7511"/>
<polygon fill="midnightblue" stroke="midnightblue" points="196.831,-46.7039 201.759,-56.083 203.755,-45.678 196.831,-46.7039"/>
</g>
<!-- Node9 -->
<g id="node8" class="node"><title>Node9</title>
<g id="a_node8"><a xlink:href="model_8cc.html" target="_top" xlink:title="Model/model.cc">
<polygon fill="white" stroke="black" points="239.08,-0.5 239.08,-19.5 325.08,-19.5 325.08,-0.5 239.08,-0.5"/>
<text text-anchor="middle" x="282.08" y="-7.5" font-family="Helvetica,sans-Serif" font-size="10.00">Model/model.cc</text>
</a>
</g>
</g>
<!-- Node8&#45;&gt;Node9 -->
<g id="edge8" class="edge"><title>Node8&#45;&gt;Node9</title>
<path fill="none" stroke="midnightblue" d="M224.114,-50.6221C238.546,-40.7574 257.221,-27.9919 269.419,-19.6545"/>
<polygon fill="midnightblue" stroke="midnightblue" points="222.053,-47.7914 215.773,-56.324 226.003,-53.5703 222.053,-47.7914"/>
</g>
<!-- Node10&#45;&gt;Node7 -->
<g id="edge10" class="edge"><title>Node10&#45;&gt;Node7</title>
<path fill="none" stroke="midnightblue" d="M614.693,-55.9471C443.805,-31.7569 396.595,-48.9852 230.08,-20 226.989,-19.462 223.771,-18.7909 220.592,-18.0591"/>
<polygon fill="midnightblue" stroke="midnightblue" points="614.39,-59.4394 624.787,-57.4033 615.389,-52.5112 614.39,-59.4394"/>
</g>
<!-- Node11 -->
<g id="node10" class="node"><title>Node11</title>
<g id="a_node10"><a xlink:href="view_8cc.html" target="_top" xlink:title="View/view.cc">
<polygon fill="white" stroke="black" points="625.08,-0.5 625.08,-19.5 697.08,-19.5 697.08,-0.5 625.08,-0.5"/>
<text text-anchor="middle" x="661.08" y="-7.5" font-family="Helvetica,sans-Serif" font-size="10.00">View/view.cc</text>
</a>
</g>
</g>
<!-- Node10&#45;&gt;Node11 -->
<g id="edge11" class="edge"><title>Node10&#45;&gt;Node11</title>
<path fill="none" stroke="midnightblue" d="M661.08,-45.8045C661.08,-36.9102 661.08,-26.7798 661.08,-19.7511"/>
<polygon fill="midnightblue" stroke="midnightblue" points="657.58,-46.083 661.08,-56.083 664.58,-46.083 657.58,-46.083"/>
</g>
<!-- Node13 -->
<g id="node12" class="node"><title>Node13</title>
<g id="a_node12"><a xlink:href="xmlparkingdatareader_8hh.html" target="_top" xlink:title="Model/xmlparkingdatareader.hh">
<polygon fill="white" stroke="black" points="481.08,-112.5 481.08,-131.5 633.08,-131.5 633.08,-112.5 481.08,-112.5"/>
<text text-anchor="middle" x="557.08" y="-119.5" font-family="Helvetica,sans-Serif" font-size="10.00">Model/xmlparkingdatareader.hh</text>
</a>
</g>
</g>
<!-- Node12&#45;&gt;Node13 -->
<g id="edge15" class="edge"><title>Node12&#45;&gt;Node13</title>
<path fill="none" stroke="midnightblue" d="M443.003,-164.906C470.64,-154.754 509.424,-140.506 533.896,-131.516"/>
<polygon fill="midnightblue" stroke="midnightblue" points="441.552,-161.71 433.372,-168.444 443.966,-168.281 441.552,-161.71"/>
</g>
<!-- Node15 -->
<g id="node14" class="node"><title>Node15</title>
<g id="a_node14"><a xlink:href="parkinghall_8cc.html" target="_top" xlink:title="Model/parkinghall.cc">
<polygon fill="white" stroke="black" points="357.08,-112.5 357.08,-131.5 463.08,-131.5 463.08,-112.5 357.08,-112.5"/>
<text text-anchor="middle" x="410.08" y="-119.5" font-family="Helvetica,sans-Serif" font-size="10.00">Model/parkinghall.cc</text>
</a>
</g>
</g>
<!-- Node12&#45;&gt;Node15 -->
<g id="edge18" class="edge"><title>Node12&#45;&gt;Node15</title>
<path fill="none" stroke="midnightblue" d="M410.08,-157.805C410.08,-148.91 410.08,-138.78 410.08,-131.751"/>
<polygon fill="midnightblue" stroke="midnightblue" points="406.58,-158.083 410.08,-168.083 413.58,-158.083 406.58,-158.083"/>
</g>
<!-- Node13&#45;&gt;Node8 -->
<g id="edge16" class="edge"><title>Node13&#45;&gt;Node8</title>
<path fill="none" stroke="midnightblue" d="M490.721,-110.877C419.076,-99.9485 307.054,-82.8604 246.104,-73.5631"/>
<polygon fill="midnightblue" stroke="midnightblue" points="490.574,-114.395 500.988,-112.444 491.63,-107.476 490.574,-114.395"/>
</g>
<!-- Node14 -->
<g id="node13" class="node"><title>Node14</title>
<g id="a_node13"><a xlink:href="xmlparkingdatareader_8cc.html" target="_top" xlink:title="Model/xmlparkingdatareader.cc">
<polygon fill="white" stroke="black" points="455.08,-56.5 455.08,-75.5 607.08,-75.5 607.08,-56.5 455.08,-56.5"/>
<text text-anchor="middle" x="531.08" y="-63.5" font-family="Helvetica,sans-Serif" font-size="10.00">Model/xmlparkingdatareader.cc</text>
</a>
</g>
</g>
<!-- Node13&#45;&gt;Node14 -->
<g id="edge17" class="edge"><title>Node13&#45;&gt;Node14</title>
<path fill="none" stroke="midnightblue" d="M548.405,-102.983C543.992,-93.8168 538.828,-83.0922 535.293,-75.7511"/>
<polygon fill="midnightblue" stroke="midnightblue" points="545.295,-104.591 552.787,-112.083 551.602,-101.555 545.295,-104.591"/>
</g>
<!-- Node16&#45;&gt;Node8 -->
<g id="edge20" class="edge"><title>Node16&#45;&gt;Node8</title>
<path fill="none" stroke="midnightblue" d="M258.249,-163.354C245.627,-155.699 231.348,-145.052 222.08,-132 209.691,-114.553 205.314,-89.0606 203.819,-75.7804"/>
<polygon fill="midnightblue" stroke="midnightblue" points="256.634,-166.462 267.052,-168.391 260.111,-160.386 256.634,-166.462"/>
</g>
<!-- Node17 -->
<g id="node16" class="node"><title>Node17</title>
<g id="a_node16"><a xlink:href="playerparty_8cc.html" target="_top" xlink:title="Model/playerparty.cc">
<polygon fill="white" stroke="black" points="231.58,-112.5 231.58,-131.5 338.58,-131.5 338.58,-112.5 231.58,-112.5"/>
<text text-anchor="middle" x="285.08" y="-119.5" font-family="Helvetica,sans-Serif" font-size="10.00">Model/playerparty.cc</text>
</a>
</g>
</g>
<!-- Node16&#45;&gt;Node17 -->
<g id="edge21" class="edge"><title>Node16&#45;&gt;Node17</title>
<path fill="none" stroke="midnightblue" d="M285.08,-157.805C285.08,-148.91 285.08,-138.78 285.08,-131.751"/>
<polygon fill="midnightblue" stroke="midnightblue" points="281.58,-158.083 285.08,-168.083 288.58,-158.083 281.58,-158.083"/>
</g>
<!-- Node18&#45;&gt;Node10 -->
<g id="edge24" class="edge"><title>Node18&#45;&gt;Node10</title>
<path fill="none" stroke="midnightblue" d="M725.305,-159.957C708.834,-136.118 679.533,-93.7088 667.016,-75.5914"/>
<polygon fill="midnightblue" stroke="midnightblue" points="722.552,-162.131 731.116,-168.368 728.311,-158.152 722.552,-162.131"/>
</g>
<!-- Node19 -->
<g id="node18" class="node"><title>Node19</title>
<g id="a_node18"><a xlink:href="cityscape_8cc.html" target="_top" xlink:title="View/cityscape.cc">
<polygon fill="white" stroke="black" points="727.08,-112.5 727.08,-131.5 823.08,-131.5 823.08,-112.5 727.08,-112.5"/>
<text text-anchor="middle" x="775.08" y="-119.5" font-family="Helvetica,sans-Serif" font-size="10.00">View/cityscape.cc</text>
</a>
</g>
</g>
<!-- Node18&#45;&gt;Node19 -->
<g id="edge25" class="edge"><title>Node18&#45;&gt;Node19</title>
<path fill="none" stroke="midnightblue" d="M749.145,-159.855C755.725,-150.505 763.591,-139.327 768.922,-131.751"/>
<polygon fill="midnightblue" stroke="midnightblue" points="746.247,-157.891 743.355,-168.083 751.972,-161.919 746.247,-157.891"/>
</g>
</g>
</svg>
        <g id="navigator" transform="translate(0 0)" fill="#404254">
                <rect fill="#f2f5e9" fill-opacity="0.5" stroke="#606060" stroke-width=".5" x="0" y="0" width="60" height="60"/>
                <use id="zoomplus" xlink:href="#zoomPlus" x="17" y="9" onmousedown="handleZoom(evt,'in')"/>
                <use id="zoomminus" xlink:href="#zoomMin" x="42" y="9" onmousedown="handleZoom(evt,'out')"/>
                <use id="reset" xlink:href="#resetDef" x="30" y="36" onmousedown="handleReset()"/>
                <g id="arrowUp" xlink:href="#dirArrow" transform="translate(30 24)" onmousedown="handlePan(0,-1)">
                  <use xlink:href="#rim" fill="#404040">
                        <set attributeName="fill" to="#808080" begin="arrowUp.mouseover" end="arrowUp.mouseout"/>
                  </use>
                  <path fill="none" stroke="white" stroke-width="1.5" d="M0,-3.0v7 M-2.5,-0.5L0,-3.0L2.5,-0.5"/>
                </g>
                <g id="arrowRight" xlink:href="#dirArrow" transform="rotate(90) translate(36 -43)" onmousedown="handlePan(1,0)">
                  <use xlink:href="#rim" fill="#404040">
                        <set attributeName="fill" to="#808080" begin="arrowRight.mouseover" end="arrowRight.mouseout"/>
                  </use>
                  <path fill="none" stroke="white" stroke-width="1.5" d="M0,-3.0v7 M-2.5,-0.5L0,-3.0L2.5,-0.5"/>
                </g>
                <g id="arrowDown" xlink:href="#dirArrow" transform="rotate(180) translate(-30 -48)" onmousedown="handlePan(0,1)">
                  <use xlink:href="#rim" fill="#404040">
                        <set attributeName="fill" to="#808080" begin="arrowDown.mouseover" end="arrowDown.mouseout"/>
                  </use>
                  <path fill="none" stroke="white" stroke-width="1.5" d="M0,-3.0v7 M-2.5,-0.5L0,-3.0L2.5,-0.5"/>
                </g>
                <g id="arrowLeft" xlink:href="#dirArrow" transform="rotate(270) translate(-36 17)" onmousedown="handlePan(-1,0)">
                  <use xlink:href="#rim" fill="#404040">
                        <set attributeName="fill" to="#808080" begin="arrowLeft.mouseover" end="arrowLeft.mouseout"/>
                  </use>
                  <path fill="none" stroke="white" stroke-width="1.5" d="M0,-3.0v7 M-2.5,-0.5L0,-3.0L2.5,-0.5"/>
                </g>
        </g>
        <svg viewBox="0 0 15 15" width="100%" height="30px" preserveAspectRatio="xMaxYMin meet">
         <g id="arrow_out" transform="scale(0.3 0.3)">
          <a xlink:href="parkinghallinterface_8hh__dep__incl_org.svg" target="_base">
           <rect id="button" ry="5" rx="5" y="6" x="6" height="38" width="38"
                fill="#f2f5e9" fill-opacity="0.5" stroke="#606060" stroke-width="1.0"/>
           <path id="arrow"
             d="M 11.500037,31.436501 C 11.940474,20.09759 22.043105,11.32322 32.158766,21.979434 L 37.068811,17.246167 C 37.068811,17.246167 37.088388,32 37.088388,32 L 22.160133,31.978069 C 22.160133,31.978069 26.997745,27.140456 26.997745,27.140456 C 18.528582,18.264221 13.291696,25.230495 11.500037,31.436501 z"
             style="fill:#404040;"/>
          </a>
         </g>
        </svg>
</svg>
