<?xml version="1.0" encoding="UTF-8" standalone="no"?>
<!DOCTYPE svg PUBLIC "-//W3C//DTD SVG 1.1//EN"
 "http://www.w3.org/Graphics/SVG/1.1/DTD/svg11.dtd">
<!-- Generated by graphviz version 2.38.0 (20140413.2041)
 -->
<!-- Title: Model/parkinghall.cc Pages: 1 -->
<svg width="277pt" height="196pt"
 viewBox="0.00 0.00 277.00 196.00" xmlns="http://www.w3.org/2000/svg" xmlns:xlink="http://www.w3.org/1999/xlink">
<g id="graph0" class="graph" transform="scale(1 1) rotate(0) translate(4 192)">
<title>Model/parkinghall.cc</title>
<polygon fill="white" stroke="none" points="-4,4 -4,-192 273,-192 273,4 -4,4"/>
<!-- Node0 -->
<g id="node1" class="node"><title>Node0</title>
<polygon fill="#bfbfbf" stroke="black" points="56.5,-168.5 56.5,-187.5 162.5,-187.5 162.5,-168.5 56.5,-168.5"/>
<text text-anchor="middle" x="109.5" y="-175.5" font-family="Helvetica,sans-Serif" font-size="10.00">Model/parkinghall.cc</text>
</g>
<!-- Node1 -->
<g id="node2" class="node"><title>Node1</title>
<polygon fill="white" stroke="#bfbfbf" points="0,-112.5 0,-131.5 65,-131.5 65,-112.5 0,-112.5"/>
<text text-anchor="middle" x="32.5" y="-119.5" font-family="Helvetica,sans-Serif" font-size="10.00">QStringList</text>
</g>
<!-- Node0&#45;&gt;Node1 -->
<g id="edge1" class="edge"><title>Node0&#45;&gt;Node1</title>
<path fill="none" stroke="midnightblue" d="M97.1286,-168.324C85.3415,-160.058 67.3677,-147.453 53.3645,-137.632"/>
<polygon fill="midnightblue" stroke="midnightblue" points="55.0376,-134.531 44.8407,-131.655 51.0184,-140.262 55.0376,-134.531"/>
</g>
<!-- Node2 -->
<g id="node3" class="node"><title>Node2</title>
<polygon fill="white" stroke="#bfbfbf" points="83.5,-112.5 83.5,-131.5 135.5,-131.5 135.5,-112.5 83.5,-112.5"/>
<text text-anchor="middle" x="109.5" y="-119.5" font-family="Helvetica,sans-Serif" font-size="10.00">QDebug</text>
</g>
<!-- Node0&#45;&gt;Node2 -->
<g id="edge2" class="edge"><title>Node0&#45;&gt;Node2</title>
<path fill="none" stroke="midnightblue" d="M109.5,-168.083C109.5,-161.006 109.5,-150.861 109.5,-141.986"/>
<polygon fill="midnightblue" stroke="midnightblue" points="113,-141.751 109.5,-131.751 106,-141.751 113,-141.751"/>
</g>
<!-- Node3 -->
<g id="node4" class="node"><title>Node3</title>
<g id="a_node4"><a xlink:href="parkinghall_8hh.html" target="_top" xlink:title="parkinghall.hh">
<polygon fill="white" stroke="black" points="154,-112.5 154,-131.5 231,-131.5 231,-112.5 154,-112.5"/>
<text text-anchor="middle" x="192.5" y="-119.5" font-family="Helvetica,sans-Serif" font-size="10.00">parkinghall.hh</text>
</a>
</g>
</g>
<!-- Node0&#45;&gt;Node3 -->
<g id="edge3" class="edge"><title>Node0&#45;&gt;Node3</title>
<path fill="none" stroke="midnightblue" d="M122.835,-168.324C135.662,-159.979 155.285,-147.212 170.44,-137.352"/>
<polygon fill="midnightblue" stroke="midnightblue" points="172.724,-140.042 179.198,-131.655 168.907,-134.174 172.724,-140.042"/>
</g>
<!-- Node4 -->
<g id="node5" class="node"><title>Node4</title>
<g id="a_node5"><a xlink:href="parkinghallinterface_8hh.html" target="_top" xlink:title="Interface/parkinghallinterface.hh">
<polygon fill="white" stroke="black" points="116,-56.5 116,-75.5 269,-75.5 269,-56.5 116,-56.5"/>
<text text-anchor="middle" x="192.5" y="-63.5" font-family="Helvetica,sans-Serif" font-size="10.00">Interface/parkinghallinterface.hh</text>
</a>
</g>
</g>
<!-- Node3&#45;&gt;Node4 -->
<g id="edge4" class="edge"><title>Node3&#45;&gt;Node4</title>
<path fill="none" stroke="midnightblue" d="M192.5,-112.083C192.5,-105.006 192.5,-94.8611 192.5,-85.9865"/>
<polygon fill="midnightblue" stroke="midnightblue" points="196,-85.751 192.5,-75.7511 189,-85.7511 196,-85.751"/>
</g>
<!-- Node5 -->
<g id="node6" class="node"><title>Node5</title>
<polygon fill="white" stroke="#bfbfbf" points="167.5,-0.5 167.5,-19.5 217.5,-19.5 217.5,-0.5 167.5,-0.5"/>
<text text-anchor="middle" x="192.5" y="-7.5" font-family="Helvetica,sans-Serif" font-size="10.00">QString</text>
</g>
<!-- Node4&#45;&gt;Node5 -->
<g id="edge5" class="edge"><title>Node4&#45;&gt;Node5</title>
<path fill="none" stroke="midnightblue" d="M192.5,-56.083C192.5,-49.0059 192.5,-38.8611 192.5,-29.9865"/>
<polygon fill="midnightblue" stroke="midnightblue" points="196,-29.751 192.5,-19.7511 189,-29.7511 196,-29.751"/>
</g>
</g>
</svg>
