<?xml version="1.0" encoding="UTF-8" standalone="no"?>
<!DOCTYPE svg PUBLIC "-//W3C//DTD SVG 1.1//EN"
 "http://www.w3.org/Graphics/SVG/1.1/DTD/svg11.dtd">
<!-- Generated by graphviz version 2.38.0 (20140413.2041)
 -->
<!-- Title: Model/parkspaceinserter.hh Pages: 1 -->
<svg width="225pt" height="140pt"
 viewBox="0.00 0.00 225.00 140.00" xmlns="http://www.w3.org/2000/svg" xmlns:xlink="http://www.w3.org/1999/xlink">
<g id="graph0" class="graph" transform="scale(1 1) rotate(0) translate(4 136)">
<title>Model/parkspaceinserter.hh</title>
<polygon fill="white" stroke="none" points="-4,4 -4,-136 221,-136 221,4 -4,4"/>
<!-- Node0 -->
<g id="node1" class="node"><title>Node0</title>
<polygon fill="#bfbfbf" stroke="black" points="0,-112.5 0,-131.5 137,-131.5 137,-112.5 0,-112.5"/>
<text text-anchor="middle" x="68.5" y="-119.5" font-family="Helvetica,sans-Serif" font-size="10.00">Model/parkspaceinserter.hh</text>
</g>
<!-- Node1 -->
<g id="node2" class="node"><title>Node1</title>
<polygon fill="white" stroke="#bfbfbf" points="15.5,-0.5 15.5,-19.5 57.5,-19.5 57.5,-0.5 15.5,-0.5"/>
<text text-anchor="middle" x="36.5" y="-7.5" font-family="Helvetica,sans-Serif" font-size="10.00">vector</text>
</g>
<!-- Node0&#45;&gt;Node1 -->
<g id="edge1" class="edge"><title>Node0&#45;&gt;Node1</title>
<path fill="none" stroke="midnightblue" d="M57.2344,-112.427C47.5337,-104.275 34.2207,-91.0465 28.5,-76 22.8179,-61.0548 25.7923,-42.9153 29.6275,-29.6005"/>
<polygon fill="midnightblue" stroke="midnightblue" points="33.0755,-30.3199 32.8804,-19.7268 26.427,-28.1295 33.0755,-30.3199"/>
</g>
<!-- Node2 -->
<g id="node3" class="node"><title>Node2</title>
<g id="a_node3"><a xlink:href="parkinghalllayoutinterface_8hh.html" target="_top" xlink:title="Interface/parkinghalllayoutinterface.hh">
<polygon fill="white" stroke="black" points="38,-56.5 38,-75.5 217,-75.5 217,-56.5 38,-56.5"/>
<text text-anchor="middle" x="127.5" y="-63.5" font-family="Helvetica,sans-Serif" font-size="10.00">Interface/parkinghalllayoutinterface.hh</text>
</a>
</g>
</g>
<!-- Node0&#45;&gt;Node2 -->
<g id="edge2" class="edge"><title>Node0&#45;&gt;Node2</title>
<path fill="none" stroke="midnightblue" d="M77.9794,-112.324C86.7011,-104.341 99.8435,-92.3128 110.398,-82.6529"/>
<polygon fill="midnightblue" stroke="midnightblue" points="112.834,-85.1674 117.848,-75.8339 108.108,-80.0036 112.834,-85.1674"/>
</g>
<!-- Node2&#45;&gt;Node1 -->
<g id="edge3" class="edge"><title>Node2&#45;&gt;Node1</title>
<path fill="none" stroke="midnightblue" d="M112.879,-56.324C98.5511,-47.8215 76.4875,-34.7288 59.7513,-24.7975"/>
<polygon fill="midnightblue" stroke="midnightblue" points="61.4704,-21.7478 51.0844,-19.6545 57.8982,-27.7677 61.4704,-21.7478"/>
</g>
<!-- Node3 -->
<g id="node4" class="node"><title>Node3</title>
<polygon fill="white" stroke="#bfbfbf" points="104,-0.5 104,-19.5 151,-19.5 151,-0.5 104,-0.5"/>
<text text-anchor="middle" x="127.5" y="-7.5" font-family="Helvetica,sans-Serif" font-size="10.00">QPoint</text>
</g>
<!-- Node2&#45;&gt;Node3 -->
<g id="edge4" class="edge"><title>Node2&#45;&gt;Node3</title>
<path fill="none" stroke="midnightblue" d="M127.5,-56.083C127.5,-49.0059 127.5,-38.8611 127.5,-29.9865"/>
<polygon fill="midnightblue" stroke="midnightblue" points="131,-29.751 127.5,-19.7511 124,-29.7511 131,-29.751"/>
</g>
</g>
</svg>
