<?xml version="1.0" encoding="UTF-8" standalone="no"?>
<!DOCTYPE svg PUBLIC "-//W3C//DTD SVG 1.1//EN"
 "http://www.w3.org/Graphics/SVG/1.1/DTD/svg11.dtd">
<!-- Generated by graphviz version 2.38.0 (20140413.2041)
 -->
<!-- Title: Interface/parkinghalllayoutinterface.hh Pages: 1 -->
<svg width="1059pt" height="252pt"
 viewBox="0.00 0.00 1059.24 252.00" xmlns="http://www.w3.org/2000/svg" xmlns:xlink="http://www.w3.org/1999/xlink">
<g id="graph0" class="graph" transform="scale(1 1) rotate(0) translate(4 248)">
<title>Interface/parkinghalllayoutinterface.hh</title>
<polygon fill="white" stroke="none" points="-4,4 -4,-248 1055.24,-248 1055.24,4 -4,4"/>
<!-- Node3 -->
<g id="node1" class="node"><title>Node3</title>
<polygon fill="#bfbfbf" stroke="black" points="417.24,-224.5 417.24,-243.5 596.24,-243.5 596.24,-224.5 417.24,-224.5"/>
<text text-anchor="middle" x="506.74" y="-231.5" font-family="Helvetica,sans-Serif" font-size="10.00">Interface/parkinghalllayoutinterface.hh</text>
</g>
<!-- Node4 -->
<g id="node2" class="node"><title>Node4</title>
<g id="a_node2"><a xlink:href="modelinterface_8hh.html" target="_top" xlink:title="Määrittelee modellin operaatioiden rajapintaluokan. ">
<polygon fill="white" stroke="black" points="201.24,-168.5 201.24,-187.5 334.24,-187.5 334.24,-168.5 201.24,-168.5"/>
<text text-anchor="middle" x="267.74" y="-175.5" font-family="Helvetica,sans-Serif" font-size="10.00">Interface/modelinterface.hh</text>
</a>
</g>
</g>
<!-- Node3&#45;&gt;Node4 -->
<g id="edge1" class="edge"><title>Node3&#45;&gt;Node4</title>
<path fill="none" stroke="midnightblue" d="M459.016,-222.217C413.855,-212.013 346.967,-196.901 305.433,-187.516"/>
<polygon fill="midnightblue" stroke="midnightblue" points="458.344,-225.654 468.87,-224.444 459.887,-218.826 458.344,-225.654"/>
</g>
<!-- Node5 -->
<g id="node3" class="node"><title>Node5</title>
<g id="a_node3"><a xlink:href="controllerinterface_8hh.html" target="_top" xlink:title="Interface/controllerinterface.hh">
<polygon fill="white" stroke="black" points="112.74,-112.5 112.74,-131.5 258.74,-131.5 258.74,-112.5 112.74,-112.5"/>
<text text-anchor="middle" x="185.74" y="-119.5" font-family="Helvetica,sans-Serif" font-size="10.00">Interface/controllerinterface.hh</text>
</a>
</g>
</g>
<!-- Node3&#45;&gt;Node5 -->
<g id="edge16" class="edge"><title>Node3&#45;&gt;Node5</title>
<path fill="none" stroke="midnightblue" d="M406.96,-231.799C325.968,-228.547 220.633,-218.37 191.74,-188 177.367,-172.892 180.556,-145.923 183.486,-131.948"/>
<polygon fill="midnightblue" stroke="midnightblue" points="407.088,-235.306 417.211,-232.179 407.348,-228.311 407.088,-235.306"/>
</g>
<!-- Node9 -->
<g id="node7" class="node"><title>Node9</title>
<g id="a_node7"><a xlink:href="model_8hh.html" target="_top" xlink:title="Model/model.hh">
<polygon fill="white" stroke="black" points="315.74,-56.5 315.74,-75.5 401.74,-75.5 401.74,-56.5 315.74,-56.5"/>
<text text-anchor="middle" x="358.74" y="-63.5" font-family="Helvetica,sans-Serif" font-size="10.00">Model/model.hh</text>
</a>
</g>
</g>
<!-- Node3&#45;&gt;Node9 -->
<g id="edge17" class="edge"><title>Node3&#45;&gt;Node9</title>
<path fill="none" stroke="midnightblue" d="M511.803,-214.275C517.589,-188.411 523.559,-141.601 500.74,-112 477.609,-81.9941 434.449,-71.5939 401.759,-68.1867"/>
<polygon fill="midnightblue" stroke="midnightblue" points="508.338,-213.71 509.34,-224.257 515.134,-215.387 508.338,-213.71"/>
</g>
<!-- Node11 -->
<g id="node9" class="node"><title>Node11</title>
<g id="a_node9"><a xlink:href="view_8hh.html" target="_top" xlink:title="View/view.hh">
<polygon fill="white" stroke="black" points="70.74,-56.5 70.74,-75.5 142.74,-75.5 142.74,-56.5 70.74,-56.5"/>
<text text-anchor="middle" x="106.74" y="-63.5" font-family="Helvetica,sans-Serif" font-size="10.00">View/view.hh</text>
</a>
</g>
</g>
<!-- Node3&#45;&gt;Node11 -->
<g id="edge35" class="edge"><title>Node3&#45;&gt;Node11</title>
<path fill="none" stroke="midnightblue" d="M406.884,-231.029C269.461,-227.266 35.9459,-216.686 9.74001,-188 -26.9418,-147.847 54.659,-95.7234 90.7165,-75.5204"/>
<polygon fill="midnightblue" stroke="midnightblue" points="406.926,-234.531 417.015,-231.299 407.112,-227.534 406.926,-234.531"/>
</g>
<!-- Node13 -->
<g id="node11" class="node"><title>Node13</title>
<g id="a_node11"><a xlink:href="viewinterface_8hh.html" target="_top" xlink:title="Määrittelee näkymän operaatioiden rajapintaluokan. ">
<polygon fill="white" stroke="black" points="19.24,-168.5 19.24,-187.5 144.24,-187.5 144.24,-168.5 19.24,-168.5"/>
<text text-anchor="middle" x="81.74" y="-175.5" font-family="Helvetica,sans-Serif" font-size="10.00">Interface/viewinterface.hh</text>
</a>
</g>
</g>
<!-- Node3&#45;&gt;Node13 -->
<g id="edge13" class="edge"><title>Node3&#45;&gt;Node13</title>
<path fill="none" stroke="midnightblue" d="M429.403,-223.174C347.565,-212.775 220,-196.567 144.269,-186.945"/>
<polygon fill="midnightblue" stroke="midnightblue" points="429.036,-226.655 439.398,-224.444 429.918,-219.711 429.036,-226.655"/>
</g>
<!-- Node14 -->
<g id="node12" class="node"><title>Node14</title>
<g id="a_node12"><a xlink:href="roomgenerator_8hh.html" target="_top" xlink:title="Model/roomgenerator.hh">
<polygon fill="white" stroke="black" points="680.74,-112.5 680.74,-131.5 802.74,-131.5 802.74,-112.5 680.74,-112.5"/>
<text text-anchor="middle" x="741.74" y="-119.5" font-family="Helvetica,sans-Serif" font-size="10.00">Model/roomgenerator.hh</text>
</a>
</g>
</g>
<!-- Node3&#45;&gt;Node14 -->
<g id="edge18" class="edge"><title>Node3&#45;&gt;Node14</title>
<path fill="none" stroke="midnightblue" d="M599.17,-223.056C648.826,-215.929 703.517,-204.617 721.74,-188 737.968,-173.203 741.172,-145.595 741.712,-131.603"/>
<polygon fill="midnightblue" stroke="midnightblue" points="598.415,-219.627 588.992,-224.47 599.378,-226.561 598.415,-219.627"/>
</g>
<!-- Node18 -->
<g id="node16" class="node"><title>Node18</title>
<g id="a_node16"><a xlink:href="roomgenerator_8cc.html" target="_top" xlink:title="Model/roomgenerator.cc">
<polygon fill="white" stroke="black" points="451.74,-56.5 451.74,-75.5 573.74,-75.5 573.74,-56.5 451.74,-56.5"/>
<text text-anchor="middle" x="512.74" y="-63.5" font-family="Helvetica,sans-Serif" font-size="10.00">Model/roomgenerator.cc</text>
</a>
</g>
</g>
<!-- Node3&#45;&gt;Node18 -->
<g id="edge39" class="edge"><title>Node3&#45;&gt;Node18</title>
<path fill="none" stroke="midnightblue" d="M522.455,-216.883C529.167,-208.883 536.25,-198.66 539.74,-188 550.249,-155.899 548.756,-144.552 539.74,-112 535.897,-98.1272 526.513,-84.2372 519.891,-75.6357"/>
<polygon fill="midnightblue" stroke="midnightblue" points="519.836,-214.561 515.76,-224.34 525.045,-219.237 519.836,-214.561"/>
</g>
<!-- Node19 -->
<g id="node17" class="node"><title>Node19</title>
<g id="a_node17"><a xlink:href="mapprocessor_8hh.html" target="_top" xlink:title="Model/mapprocessor.hh">
<polygon fill="white" stroke="black" points="592.24,-168.5 592.24,-187.5 713.24,-187.5 713.24,-168.5 592.24,-168.5"/>
<text text-anchor="middle" x="652.74" y="-175.5" font-family="Helvetica,sans-Serif" font-size="10.00">Model/mapprocessor.hh</text>
</a>
</g>
</g>
<!-- Node3&#45;&gt;Node19 -->
<g id="edge25" class="edge"><title>Node3&#45;&gt;Node19</title>
<path fill="none" stroke="midnightblue" d="M539.439,-220.906C566.888,-210.754 605.408,-196.506 629.714,-187.516"/>
<polygon fill="midnightblue" stroke="midnightblue" points="538.039,-217.692 529.874,-224.444 540.467,-224.257 538.039,-217.692"/>
</g>
<!-- Node20 -->
<g id="node18" class="node"><title>Node20</title>
<g id="a_node18"><a xlink:href="layoutgenerator_8hh.html" target="_top" xlink:title="Model/layoutgenerator.hh">
<polygon fill="white" stroke="black" points="769.74,-168.5 769.74,-187.5 895.74,-187.5 895.74,-168.5 769.74,-168.5"/>
<text text-anchor="middle" x="832.74" y="-175.5" font-family="Helvetica,sans-Serif" font-size="10.00">Model/layoutgenerator.hh</text>
</a>
</g>
</g>
<!-- Node3&#45;&gt;Node20 -->
<g id="edge29" class="edge"><title>Node3&#45;&gt;Node20</title>
<path fill="none" stroke="midnightblue" d="M568.374,-222.791C629.974,-212.587 723.602,-197.078 781.326,-187.516"/>
<polygon fill="midnightblue" stroke="midnightblue" points="567.689,-219.356 558.396,-224.444 568.833,-226.262 567.689,-219.356"/>
</g>
<!-- Node21 -->
<g id="node19" class="node"><title>Node21</title>
<g id="a_node19"><a xlink:href="parkspaceinserter_8hh.html" target="_top" xlink:title="Model/parkspaceinserter.hh">
<polygon fill="white" stroke="black" points="914.24,-168.5 914.24,-187.5 1051.24,-187.5 1051.24,-168.5 914.24,-168.5"/>
<text text-anchor="middle" x="982.74" y="-175.5" font-family="Helvetica,sans-Serif" font-size="10.00">Model/parkspaceinserter.hh</text>
</a>
</g>
</g>
<!-- Node3&#45;&gt;Node21 -->
<g id="edge32" class="edge"><title>Node3&#45;&gt;Node21</title>
<path fill="none" stroke="midnightblue" d="M592.776,-223.33C673.391,-214.255 797.242,-200.279 904.74,-188 907.72,-187.66 910.763,-187.311 913.838,-186.959"/>
<polygon fill="midnightblue" stroke="midnightblue" points="592.22,-219.87 582.675,-224.467 593.003,-226.826 592.22,-219.87"/>
</g>
<!-- Node22 -->
<g id="node20" class="node"><title>Node22</title>
<g id="a_node20"><a xlink:href="actionscene_8hh.html" target="_top" xlink:title="View/actionscene.hh">
<polygon fill="white" stroke="black" points="352.24,-168.5 352.24,-187.5 459.24,-187.5 459.24,-168.5 352.24,-168.5"/>
<text text-anchor="middle" x="405.74" y="-175.5" font-family="Helvetica,sans-Serif" font-size="10.00">View/actionscene.hh</text>
</a>
</g>
</g>
<!-- Node3&#45;&gt;Node22 -->
<g id="edge36" class="edge"><title>Node3&#45;&gt;Node22</title>
<path fill="none" stroke="midnightblue" d="M481.657,-219.59C462.983,-209.605 438.036,-196.267 421.927,-187.655"/>
<polygon fill="midnightblue" stroke="midnightblue" points="480.044,-222.696 490.513,-224.324 483.344,-216.522 480.044,-222.696"/>
</g>
<!-- Node23 -->
<g id="node21" class="node"><title>Node23</title>
<g id="a_node21"><a xlink:href="actionscene_8cc.html" target="_top" xlink:title="View/actionscene.cc">
<polygon fill="white" stroke="black" points="385.24,-112.5 385.24,-131.5 492.24,-131.5 492.24,-112.5 385.24,-112.5"/>
<text text-anchor="middle" x="438.74" y="-119.5" font-family="Helvetica,sans-Serif" font-size="10.00">View/actionscene.cc</text>
</a>
</g>
</g>
<!-- Node3&#45;&gt;Node23 -->
<g id="edge40" class="edge"><title>Node3&#45;&gt;Node23</title>
<path fill="none" stroke="midnightblue" d="M496.273,-215.208C488.506,-202.092 477.599,-183.851 467.74,-168 459.788,-155.215 450.287,-140.59 444.382,-131.575"/>
<polygon fill="midnightblue" stroke="midnightblue" points="493.433,-217.282 501.53,-224.114 499.461,-213.723 493.433,-217.282"/>
</g>
<!-- Node4&#45;&gt;Node5 -->
<g id="edge2" class="edge"><title>Node4&#45;&gt;Node5</title>
<path fill="none" stroke="midnightblue" d="M245.907,-162.622C230.927,-152.757 211.543,-139.992 198.882,-131.655"/>
<polygon fill="midnightblue" stroke="midnightblue" points="244.289,-165.747 254.565,-168.324 248.139,-159.901 244.289,-165.747"/>
</g>
<!-- Node4&#45;&gt;Node9 -->
<g id="edge12" class="edge"><title>Node4&#45;&gt;Node9</title>
<path fill="none" stroke="midnightblue" d="M281.319,-160.586C300.938,-136.871 336.512,-93.8691 351.633,-75.5914"/>
<polygon fill="midnightblue" stroke="midnightblue" points="278.558,-158.432 274.881,-168.368 283.952,-162.894 278.558,-158.432"/>
</g>
<!-- Node6 -->
<g id="node4" class="node"><title>Node6</title>
<g id="a_node4"><a xlink:href="controller_8hh.html" target="_top" xlink:title="Controller/controller.hh">
<polygon fill="white" stroke="black" points="160.74,-56.5 160.74,-75.5 274.74,-75.5 274.74,-56.5 160.74,-56.5"/>
<text text-anchor="middle" x="217.74" y="-63.5" font-family="Helvetica,sans-Serif" font-size="10.00">Controller/controller.hh</text>
</a>
</g>
</g>
<!-- Node5&#45;&gt;Node6 -->
<g id="edge3" class="edge"><title>Node5&#45;&gt;Node6</title>
<path fill="none" stroke="midnightblue" d="M196.244,-103.275C201.713,-94.0454 208.158,-83.1703 212.554,-75.7511"/>
<polygon fill="midnightblue" stroke="midnightblue" points="193.111,-101.696 191.024,-112.083 199.133,-105.264 193.111,-101.696"/>
</g>
<!-- Node5&#45;&gt;Node9 -->
<g id="edge6" class="edge"><title>Node5&#45;&gt;Node9</title>
<path fill="none" stroke="midnightblue" d="M222.787,-109.436C255.404,-99.2551 302.15,-84.664 331.456,-75.5164"/>
<polygon fill="midnightblue" stroke="midnightblue" points="221.655,-106.123 213.152,-112.444 223.741,-112.805 221.655,-106.123"/>
</g>
<!-- Node5&#45;&gt;Node11 -->
<g id="edge9" class="edge"><title>Node5&#45;&gt;Node11</title>
<path fill="none" stroke="midnightblue" d="M164.706,-106.622C150.274,-96.7574 131.599,-83.9919 119.401,-75.6545"/>
<polygon fill="midnightblue" stroke="midnightblue" points="162.817,-109.57 173.047,-112.324 166.767,-103.791 162.817,-109.57"/>
</g>
<!-- Node7 -->
<g id="node5" class="node"><title>Node7</title>
<g id="a_node5"><a xlink:href="controller_8cc.html" target="_top" xlink:title="Controller/controller.cc">
<polygon fill="white" stroke="black" points="160.74,-0.5 160.74,-19.5 274.74,-19.5 274.74,-0.5 160.74,-0.5"/>
<text text-anchor="middle" x="217.74" y="-7.5" font-family="Helvetica,sans-Serif" font-size="10.00">Controller/controller.cc</text>
</a>
</g>
</g>
<!-- Node6&#45;&gt;Node7 -->
<g id="edge4" class="edge"><title>Node6&#45;&gt;Node7</title>
<path fill="none" stroke="midnightblue" d="M217.74,-45.8045C217.74,-36.9102 217.74,-26.7798 217.74,-19.7511"/>
<polygon fill="midnightblue" stroke="midnightblue" points="214.24,-46.083 217.74,-56.083 221.24,-46.083 214.24,-46.083"/>
</g>
<!-- Node8 -->
<g id="node6" class="node"><title>Node8</title>
<g id="a_node6"><a xlink:href="main_8cc.html" target="_top" xlink:title="main.cc">
<polygon fill="white" stroke="black" points="293.24,-0.5 293.24,-19.5 344.24,-19.5 344.24,-0.5 293.24,-0.5"/>
<text text-anchor="middle" x="318.74" y="-7.5" font-family="Helvetica,sans-Serif" font-size="10.00">main.cc</text>
</a>
</g>
</g>
<!-- Node6&#45;&gt;Node8 -->
<g id="edge5" class="edge"><title>Node6&#45;&gt;Node8</title>
<path fill="none" stroke="midnightblue" d="M242.823,-51.5895C261.497,-41.6052 286.444,-28.2672 302.553,-19.6545"/>
<polygon fill="midnightblue" stroke="midnightblue" points="241.136,-48.5224 233.967,-56.324 244.436,-54.6955 241.136,-48.5224"/>
</g>
<!-- Node9&#45;&gt;Node8 -->
<g id="edge7" class="edge"><title>Node9&#45;&gt;Node8</title>
<path fill="none" stroke="midnightblue" d="M346.04,-47.8554C339.114,-38.5048 330.834,-27.3265 325.222,-19.7511"/>
<polygon fill="midnightblue" stroke="midnightblue" points="343.37,-50.1307 352.135,-56.083 348.995,-45.9641 343.37,-50.1307"/>
</g>
<!-- Node10 -->
<g id="node8" class="node"><title>Node10</title>
<g id="a_node8"><a xlink:href="model_8cc.html" target="_top" xlink:title="Model/model.cc">
<polygon fill="white" stroke="black" points="542.74,-0.5 542.74,-19.5 628.74,-19.5 628.74,-0.5 542.74,-0.5"/>
<text text-anchor="middle" x="585.74" y="-7.5" font-family="Helvetica,sans-Serif" font-size="10.00">Model/model.cc</text>
</a>
</g>
</g>
<!-- Node9&#45;&gt;Node10 -->
<g id="edge8" class="edge"><title>Node9&#45;&gt;Node10</title>
<path fill="none" stroke="midnightblue" d="M404.609,-54.0884C447.495,-43.8865 510.657,-28.8612 549.939,-19.5164"/>
<polygon fill="midnightblue" stroke="midnightblue" points="403.627,-50.7242 394.709,-56.4435 405.247,-57.5342 403.627,-50.7242"/>
</g>
<!-- Node11&#45;&gt;Node8 -->
<g id="edge10" class="edge"><title>Node11&#45;&gt;Node8</title>
<path fill="none" stroke="midnightblue" d="M150.464,-53.9189C186.292,-44.8307 238.307,-31.6167 283.74,-20 286.779,-19.2229 289.966,-18.406 293.128,-17.5946"/>
<polygon fill="midnightblue" stroke="midnightblue" points="149.182,-50.6332 140.35,-56.4842 150.903,-57.4183 149.182,-50.6332"/>
</g>
<!-- Node12 -->
<g id="node10" class="node"><title>Node12</title>
<g id="a_node10"><a xlink:href="view_8cc.html" target="_top" xlink:title="View/view.cc">
<polygon fill="white" stroke="black" points="70.74,-0.5 70.74,-19.5 142.74,-19.5 142.74,-0.5 70.74,-0.5"/>
<text text-anchor="middle" x="106.74" y="-7.5" font-family="Helvetica,sans-Serif" font-size="10.00">View/view.cc</text>
</a>
</g>
</g>
<!-- Node11&#45;&gt;Node12 -->
<g id="edge11" class="edge"><title>Node11&#45;&gt;Node12</title>
<path fill="none" stroke="midnightblue" d="M106.74,-45.8045C106.74,-36.9102 106.74,-26.7798 106.74,-19.7511"/>
<polygon fill="midnightblue" stroke="midnightblue" points="103.24,-46.083 106.74,-56.083 110.24,-46.083 103.24,-46.083"/>
</g>
<!-- Node13&#45;&gt;Node5 -->
<g id="edge14" class="edge"><title>Node13&#45;&gt;Node5</title>
<path fill="none" stroke="midnightblue" d="M107.568,-163.59C126.797,-153.605 152.485,-140.267 169.072,-131.655"/>
<polygon fill="midnightblue" stroke="midnightblue" points="105.712,-160.61 98.4494,-168.324 108.937,-166.822 105.712,-160.61"/>
</g>
<!-- Node13&#45;&gt;Node11 -->
<g id="edge15" class="edge"><title>Node13&#45;&gt;Node11</title>
<path fill="none" stroke="midnightblue" d="M85.9791,-158.348C91.4551,-134.254 100.761,-93.3079 104.787,-75.5914"/>
<polygon fill="midnightblue" stroke="midnightblue" points="82.505,-157.841 83.7017,-168.368 89.331,-159.393 82.505,-157.841"/>
</g>
<!-- Node14&#45;&gt;Node9 -->
<g id="edge19" class="edge"><title>Node14&#45;&gt;Node9</title>
<path fill="none" stroke="midnightblue" d="M670.723,-110.987C591.905,-99.8744 467.23,-82.2962 401.909,-73.0865"/>
<polygon fill="midnightblue" stroke="midnightblue" points="670.662,-114.513 681.053,-112.444 671.639,-107.582 670.662,-114.513"/>
</g>
<!-- Node14&#45;&gt;Node10 -->
<g id="edge22" class="edge"><title>Node14&#45;&gt;Node10</title>
<path fill="none" stroke="midnightblue" d="M740.483,-101.891C738.556,-87.5105 733.733,-68.2481 721.74,-56 697.293,-31.0334 658.716,-19.917 628.882,-14.9682"/>
<polygon fill="midnightblue" stroke="midnightblue" points="737.03,-102.541 741.491,-112.151 743.997,-101.857 737.03,-102.541"/>
</g>
<!-- Node15 -->
<g id="node13" class="node"><title>Node15</title>
<g id="a_node13"><a xlink:href="layoutgenerator_8cc.html" target="_top" xlink:title="Model/layoutgenerator.cc">
<polygon fill="white" stroke="black" points="769.74,-56.5 769.74,-75.5 895.74,-75.5 895.74,-56.5 769.74,-56.5"/>
<text text-anchor="middle" x="832.74" y="-63.5" font-family="Helvetica,sans-Serif" font-size="10.00">Model/layoutgenerator.cc</text>
</a>
</g>
</g>
<!-- Node14&#45;&gt;Node15 -->
<g id="edge20" class="edge"><title>Node14&#45;&gt;Node15</title>
<path fill="none" stroke="midnightblue" d="M765.034,-107.177C781.779,-97.2407 803.84,-84.1492 818.156,-75.6545"/>
<polygon fill="midnightblue" stroke="midnightblue" points="763.174,-104.211 756.361,-112.324 766.747,-110.231 763.174,-104.211"/>
</g>
<!-- Node16 -->
<g id="node14" class="node"><title>Node16</title>
<g id="a_node14"><a xlink:href="mapprocessor_8cc.html" target="_top" xlink:title="Model/mapprocessor.cc">
<polygon fill="white" stroke="black" points="592.24,-56.5 592.24,-75.5 713.24,-75.5 713.24,-56.5 592.24,-56.5"/>
<text text-anchor="middle" x="652.74" y="-63.5" font-family="Helvetica,sans-Serif" font-size="10.00">Model/mapprocessor.cc</text>
</a>
</g>
</g>
<!-- Node14&#45;&gt;Node16 -->
<g id="edge21" class="edge"><title>Node14&#45;&gt;Node16</title>
<path fill="none" stroke="midnightblue" d="M718.502,-106.901C702.182,-96.9986 680.875,-84.0705 667.004,-75.6545"/>
<polygon fill="midnightblue" stroke="midnightblue" points="717.076,-110.129 727.441,-112.324 720.707,-104.144 717.076,-110.129"/>
</g>
<!-- Node17 -->
<g id="node15" class="node"><title>Node17</title>
<g id="a_node15"><a xlink:href="parkspaceinserter_8cc.html" target="_top" xlink:title="Model/parkspaceinserter.cc">
<polygon fill="white" stroke="black" points="914.24,-56.5 914.24,-75.5 1051.24,-75.5 1051.24,-56.5 914.24,-56.5"/>
<text text-anchor="middle" x="982.74" y="-63.5" font-family="Helvetica,sans-Serif" font-size="10.00">Model/parkspaceinserter.cc</text>
</a>
</g>
</g>
<!-- Node14&#45;&gt;Node17 -->
<g id="edge23" class="edge"><title>Node14&#45;&gt;Node17</title>
<path fill="none" stroke="midnightblue" d="M789.863,-110.217C835.402,-100.013 902.85,-84.9006 944.732,-75.5164"/>
<polygon fill="midnightblue" stroke="midnightblue" points="788.92,-106.842 779.927,-112.444 790.451,-113.672 788.92,-106.842"/>
</g>
<!-- Node14&#45;&gt;Node18 -->
<g id="edge24" class="edge"><title>Node14&#45;&gt;Node18</title>
<path fill="none" stroke="midnightblue" d="M695.467,-110.088C652.203,-99.8865 588.485,-84.8612 548.856,-75.5164"/>
<polygon fill="midnightblue" stroke="midnightblue" points="694.918,-113.555 705.454,-112.444 696.525,-106.742 694.918,-113.555"/>
</g>
<!-- Node19&#45;&gt;Node14 -->
<g id="edge26" class="edge"><title>Node19&#45;&gt;Node14</title>
<path fill="none" stroke="midnightblue" d="M675.978,-162.901C692.298,-152.999 713.605,-140.071 727.476,-131.655"/>
<polygon fill="midnightblue" stroke="midnightblue" points="673.773,-160.144 667.039,-168.324 677.404,-166.129 673.773,-160.144"/>
</g>
<!-- Node19&#45;&gt;Node16 -->
<g id="edge27" class="edge"><title>Node19&#45;&gt;Node16</title>
<path fill="none" stroke="midnightblue" d="M652.74,-158.348C652.74,-134.254 652.74,-93.3079 652.74,-75.5914"/>
<polygon fill="midnightblue" stroke="midnightblue" points="649.24,-158.368 652.74,-168.368 656.24,-158.369 649.24,-158.368"/>
</g>
<!-- Node19&#45;&gt;Node18 -->
<g id="edge28" class="edge"><title>Node19&#45;&gt;Node18</title>
<path fill="none" stroke="midnightblue" d="M635.872,-161.449C620.956,-147.926 598.416,-128.041 577.74,-112 560.389,-98.539 539.336,-84.3261 525.987,-75.5594"/>
<polygon fill="midnightblue" stroke="midnightblue" points="633.568,-164.085 643.314,-168.242 638.288,-158.915 633.568,-164.085"/>
</g>
<!-- Node20&#45;&gt;Node14 -->
<g id="edge30" class="edge"><title>Node20&#45;&gt;Node14</title>
<path fill="none" stroke="midnightblue" d="M809.446,-163.177C792.701,-153.241 770.64,-140.149 756.324,-131.655"/>
<polygon fill="midnightblue" stroke="midnightblue" points="807.733,-166.231 818.119,-168.324 811.306,-160.211 807.733,-166.231"/>
</g>
<!-- Node20&#45;&gt;Node15 -->
<g id="edge31" class="edge"><title>Node20&#45;&gt;Node15</title>
<path fill="none" stroke="midnightblue" d="M832.74,-158.348C832.74,-134.254 832.74,-93.3079 832.74,-75.5914"/>
<polygon fill="midnightblue" stroke="midnightblue" points="829.24,-158.368 832.74,-168.368 836.24,-158.369 829.24,-158.368"/>
</g>
<!-- Node21&#45;&gt;Node14 -->
<g id="edge33" class="edge"><title>Node21&#45;&gt;Node14</title>
<path fill="none" stroke="midnightblue" d="M934.617,-166.217C889.078,-156.013 821.63,-140.901 779.749,-131.516"/>
<polygon fill="midnightblue" stroke="midnightblue" points="934.03,-169.672 944.553,-168.444 935.56,-162.842 934.03,-169.672"/>
</g>
<!-- Node21&#45;&gt;Node17 -->
<g id="edge34" class="edge"><title>Node21&#45;&gt;Node17</title>
<path fill="none" stroke="midnightblue" d="M982.74,-158.348C982.74,-134.254 982.74,-93.3079 982.74,-75.5914"/>
<polygon fill="midnightblue" stroke="midnightblue" points="979.24,-158.368 982.74,-168.368 986.24,-158.369 979.24,-158.368"/>
</g>
<!-- Node22&#45;&gt;Node11 -->
<g id="edge37" class="edge"><title>Node22&#45;&gt;Node11</title>
<path fill="none" stroke="midnightblue" d="M380.345,-163.456C353.071,-149.289 308.191,-127.058 267.74,-112 225.717,-96.3565 175.776,-83.2048 142.78,-75.235"/>
<polygon fill="midnightblue" stroke="midnightblue" points="379.073,-166.741 389.555,-168.283 382.322,-160.541 379.073,-166.741"/>
</g>
<!-- Node22&#45;&gt;Node23 -->
<g id="edge38" class="edge"><title>Node22&#45;&gt;Node23</title>
<path fill="none" stroke="midnightblue" d="M416.572,-159.275C422.212,-150.045 428.858,-139.17 433.392,-131.751"/>
<polygon fill="midnightblue" stroke="midnightblue" points="413.417,-157.725 411.189,-168.083 419.39,-161.375 413.417,-157.725"/>
</g>
</g>
</svg>
