<?xml version="1.0" encoding="UTF-8" standalone="no"?>
<!DOCTYPE svg PUBLIC "-//W3C//DTD SVG 1.1//EN"
 "http://www.w3.org/Graphics/SVG/1.1/DTD/svg11.dtd">
<!-- Generated by graphviz version 2.38.0 (20140413.2041)
 -->
<!-- Title: Model/parkspaceinserter.cc Pages: 1 -->
<svg width="705pt" height="252pt"
 viewBox="0.00 0.00 705.00 252.00" xmlns="http://www.w3.org/2000/svg" xmlns:xlink="http://www.w3.org/1999/xlink">
<g id="graph0" class="graph" transform="scale(1 1) rotate(0) translate(4 248)">
<title>Model/parkspaceinserter.cc</title>
<polygon fill="white" stroke="none" points="-4,4 -4,-248 701,-248 701,4 -4,4"/>
<!-- Node0 -->
<g id="node1" class="node"><title>Node0</title>
<polygon fill="#bfbfbf" stroke="black" points="331,-224.5 331,-243.5 468,-243.5 468,-224.5 331,-224.5"/>
<text text-anchor="middle" x="399.5" y="-231.5" font-family="Helvetica,sans-Serif" font-size="10.00">Model/parkspaceinserter.cc</text>
</g>
<!-- Node1 -->
<g id="node2" class="node"><title>Node1</title>
<g id="a_node2"><a xlink:href="parkspaceinserter_8hh.html" target="_top" xlink:title="parkspaceinserter.hh">
<polygon fill="white" stroke="black" points="0,-112.5 0,-131.5 107,-131.5 107,-112.5 0,-112.5"/>
<text text-anchor="middle" x="53.5" y="-119.5" font-family="Helvetica,sans-Serif" font-size="10.00">parkspaceinserter.hh</text>
</a>
</g>
</g>
<!-- Node0&#45;&gt;Node1 -->
<g id="edge1" class="edge"><title>Node0&#45;&gt;Node1</title>
<path fill="none" stroke="midnightblue" d="M372.638,-224.46C311.196,-204.926 160.328,-156.963 90.3075,-134.702"/>
<polygon fill="midnightblue" stroke="midnightblue" points="91.174,-131.305 80.5836,-131.61 89.0531,-137.976 91.174,-131.305"/>
</g>
<!-- Node5 -->
<g id="node6" class="node"><title>Node5</title>
<g id="a_node6"><a xlink:href="roomgenerator_8hh.html" target="_top" xlink:title="roomgenerator.hh">
<polygon fill="white" stroke="black" points="353.5,-168.5 353.5,-187.5 445.5,-187.5 445.5,-168.5 353.5,-168.5"/>
<text text-anchor="middle" x="399.5" y="-175.5" font-family="Helvetica,sans-Serif" font-size="10.00">roomgenerator.hh</text>
</a>
</g>
</g>
<!-- Node0&#45;&gt;Node5 -->
<g id="edge6" class="edge"><title>Node0&#45;&gt;Node5</title>
<path fill="none" stroke="midnightblue" d="M399.5,-224.083C399.5,-217.006 399.5,-206.861 399.5,-197.986"/>
<polygon fill="midnightblue" stroke="midnightblue" points="403,-197.751 399.5,-187.751 396,-197.751 403,-197.751"/>
</g>
<!-- Node8 -->
<g id="node9" class="node"><title>Node8</title>
<polygon fill="white" stroke="#bfbfbf" points="648,-112.5 648,-131.5 697,-131.5 697,-112.5 648,-112.5"/>
<text text-anchor="middle" x="672.5" y="-119.5" font-family="Helvetica,sans-Serif" font-size="10.00">random</text>
</g>
<!-- Node0&#45;&gt;Node8 -->
<g id="edge19" class="edge"><title>Node0&#45;&gt;Node8</title>
<path fill="none" stroke="midnightblue" d="M420.922,-224.368C469.065,-204.97 585.96,-157.87 641.807,-135.367"/>
<polygon fill="midnightblue" stroke="midnightblue" points="643.21,-138.575 651.178,-131.591 640.594,-132.082 643.21,-138.575"/>
</g>
<!-- Node2 -->
<g id="node3" class="node"><title>Node2</title>
<polygon fill="white" stroke="#bfbfbf" points="276.5,-0.5 276.5,-19.5 318.5,-19.5 318.5,-0.5 276.5,-0.5"/>
<text text-anchor="middle" x="297.5" y="-7.5" font-family="Helvetica,sans-Serif" font-size="10.00">vector</text>
</g>
<!-- Node1&#45;&gt;Node2 -->
<g id="edge2" class="edge"><title>Node1&#45;&gt;Node2</title>
<path fill="none" stroke="midnightblue" d="M58.3337,-112.308C66.6559,-98.1871 85.0759,-70.3982 108.5,-56 134.692,-39.9003 219.423,-23.9106 266.038,-16.0384"/>
<polygon fill="midnightblue" stroke="midnightblue" points="266.901,-19.443 276.192,-14.3503 265.753,-12.5378 266.901,-19.443"/>
</g>
<!-- Node3 -->
<g id="node4" class="node"><title>Node3</title>
<g id="a_node4"><a xlink:href="parkinghalllayoutinterface_8hh.html" target="_top" xlink:title="Interface/parkinghalllayoutinterface.hh">
<polygon fill="white" stroke="black" points="118,-56.5 118,-75.5 297,-75.5 297,-56.5 118,-56.5"/>
<text text-anchor="middle" x="207.5" y="-63.5" font-family="Helvetica,sans-Serif" font-size="10.00">Interface/parkinghalllayoutinterface.hh</text>
</a>
</g>
</g>
<!-- Node1&#45;&gt;Node3 -->
<g id="edge3" class="edge"><title>Node1&#45;&gt;Node3</title>
<path fill="none" stroke="midnightblue" d="M77.9018,-112.444C103.697,-103.399 144.577,-89.064 173.518,-78.9158"/>
<polygon fill="midnightblue" stroke="midnightblue" points="174.934,-82.1283 183.212,-75.5164 172.618,-75.5226 174.934,-82.1283"/>
</g>
<!-- Node3&#45;&gt;Node2 -->
<g id="edge4" class="edge"><title>Node3&#45;&gt;Node2</title>
<path fill="none" stroke="midnightblue" d="M221.96,-56.324C236,-47.9002 257.548,-34.9709 274.043,-25.0741"/>
<polygon fill="midnightblue" stroke="midnightblue" points="276.302,-27.8007 283.076,-19.6545 272.7,-21.7983 276.302,-27.8007"/>
</g>
<!-- Node4 -->
<g id="node5" class="node"><title>Node4</title>
<polygon fill="white" stroke="#bfbfbf" points="184,-0.5 184,-19.5 231,-19.5 231,-0.5 184,-0.5"/>
<text text-anchor="middle" x="207.5" y="-7.5" font-family="Helvetica,sans-Serif" font-size="10.00">QPoint</text>
</g>
<!-- Node3&#45;&gt;Node4 -->
<g id="edge5" class="edge"><title>Node3&#45;&gt;Node4</title>
<path fill="none" stroke="midnightblue" d="M207.5,-56.083C207.5,-49.0059 207.5,-38.8611 207.5,-29.9865"/>
<polygon fill="midnightblue" stroke="midnightblue" points="211,-29.751 207.5,-19.7511 204,-29.7511 211,-29.751"/>
</g>
<!-- Node5&#45;&gt;Node1 -->
<g id="edge18" class="edge"><title>Node5&#45;&gt;Node1</title>
<path fill="none" stroke="midnightblue" d="M353.196,-169.773C292.505,-160.301 185.766,-143.643 117.41,-132.974"/>
<polygon fill="midnightblue" stroke="midnightblue" points="117.617,-129.464 107.197,-131.381 116.538,-136.381 117.617,-129.464"/>
</g>
<!-- Node5&#45;&gt;Node2 -->
<g id="edge8" class="edge"><title>Node5&#45;&gt;Node2</title>
<path fill="none" stroke="midnightblue" d="M398.085,-168.162C395.764,-155.245 390.387,-130.711 380.5,-112 362.686,-78.2882 332.507,-45.3261 313.865,-26.6481"/>
<polygon fill="midnightblue" stroke="midnightblue" points="316.236,-24.0714 306.651,-19.5573 311.329,-29.0635 316.236,-24.0714"/>
</g>
<!-- Node5&#45;&gt;Node3 -->
<g id="edge12" class="edge"><title>Node5&#45;&gt;Node3</title>
<path fill="none" stroke="midnightblue" d="M353.33,-175.321C289.492,-171.919 179.308,-161.78 154.5,-132 139.968,-114.556 162.801,-94.2479 182.873,-81.0359"/>
<polygon fill="midnightblue" stroke="midnightblue" points="184.842,-83.9328 191.472,-75.669 181.136,-77.9944 184.842,-83.9328"/>
</g>
<!-- Node6 -->
<g id="node7" class="node"><title>Node6</title>
<polygon fill="white" stroke="#bfbfbf" points="428,-112.5 428,-131.5 463,-131.5 463,-112.5 428,-112.5"/>
<text text-anchor="middle" x="445.5" y="-119.5" font-family="Helvetica,sans-Serif" font-size="10.00">map</text>
</g>
<!-- Node5&#45;&gt;Node6 -->
<g id="edge7" class="edge"><title>Node5&#45;&gt;Node6</title>
<path fill="none" stroke="midnightblue" d="M407.096,-168.083C413.727,-160.298 423.521,-148.801 431.558,-139.367"/>
<polygon fill="midnightblue" stroke="midnightblue" points="434.225,-141.633 438.045,-131.751 428.896,-137.094 434.225,-141.633"/>
</g>
<!-- Node7 -->
<g id="node8" class="node"><title>Node7</title>
<polygon fill="white" stroke="#bfbfbf" points="481.5,-112.5 481.5,-131.5 559.5,-131.5 559.5,-112.5 481.5,-112.5"/>
<text text-anchor="middle" x="520.5" y="-119.5" font-family="Helvetica,sans-Serif" font-size="10.00">unordered_set</text>
</g>
<!-- Node5&#45;&gt;Node7 -->
<g id="edge9" class="edge"><title>Node5&#45;&gt;Node7</title>
<path fill="none" stroke="midnightblue" d="M418.673,-168.444C438.409,-159.636 469.385,-145.812 491.993,-135.722"/>
<polygon fill="midnightblue" stroke="midnightblue" points="493.711,-138.788 501.417,-131.516 490.859,-132.396 493.711,-138.788"/>
</g>
<!-- Node5&#45;&gt;Node8 -->
<g id="edge10" class="edge"><title>Node5&#45;&gt;Node8</title>
<path fill="none" stroke="midnightblue" d="M445.522,-169.357C491.724,-161.456 565.138,-148.283 637.878,-132.007"/>
<polygon fill="midnightblue" stroke="midnightblue" points="638.686,-135.413 647.669,-129.796 637.144,-128.584 638.686,-135.413"/>
</g>
<!-- Node9 -->
<g id="node10" class="node"><title>Node9</title>
<polygon fill="white" stroke="#bfbfbf" points="577.5,-112.5 577.5,-131.5 629.5,-131.5 629.5,-112.5 577.5,-112.5"/>
<text text-anchor="middle" x="603.5" y="-119.5" font-family="Helvetica,sans-Serif" font-size="10.00">memory</text>
</g>
<!-- Node5&#45;&gt;Node9 -->
<g id="edge11" class="edge"><title>Node5&#45;&gt;Node9</title>
<path fill="none" stroke="midnightblue" d="M431.824,-168.444C468.849,-158.643 529.335,-142.632 567.742,-132.465"/>
<polygon fill="midnightblue" stroke="midnightblue" points="568.705,-135.831 577.476,-129.889 566.914,-129.064 568.705,-135.831"/>
</g>
<!-- Node10 -->
<g id="node11" class="node"><title>Node10</title>
<g id="a_node11"><a xlink:href="mapprocessor_8hh.html" target="_top" xlink:title="mapprocessor.hh">
<polygon fill="white" stroke="black" points="279.5,-112.5 279.5,-131.5 371.5,-131.5 371.5,-112.5 279.5,-112.5"/>
<text text-anchor="middle" x="325.5" y="-119.5" font-family="Helvetica,sans-Serif" font-size="10.00">mapprocessor.hh</text>
</a>
</g>
</g>
<!-- Node5&#45;&gt;Node10 -->
<g id="edge13" class="edge"><title>Node5&#45;&gt;Node10</title>
<path fill="none" stroke="midnightblue" d="M387.611,-168.324C376.35,-160.107 359.213,-147.602 345.791,-137.807"/>
<polygon fill="midnightblue" stroke="midnightblue" points="347.747,-134.901 337.606,-131.834 343.62,-140.556 347.747,-134.901"/>
</g>
<!-- Node11 -->
<g id="node12" class="node"><title>Node11</title>
<g id="a_node12"><a xlink:href="layoutgenerator_8hh.html" target="_top" xlink:title="layoutgenerator.hh">
<polygon fill="white" stroke="black" points="164,-112.5 164,-131.5 261,-131.5 261,-112.5 164,-112.5"/>
<text text-anchor="middle" x="212.5" y="-119.5" font-family="Helvetica,sans-Serif" font-size="10.00">layoutgenerator.hh</text>
</a>
</g>
</g>
<!-- Node5&#45;&gt;Node11 -->
<g id="edge16" class="edge"><title>Node5&#45;&gt;Node11</title>
<path fill="none" stroke="midnightblue" d="M369.869,-168.444C338,-159.241 287.167,-144.562 251.936,-134.388"/>
<polygon fill="midnightblue" stroke="midnightblue" points="252.571,-130.928 241.992,-131.516 250.628,-137.653 252.571,-130.928"/>
</g>
<!-- Node10&#45;&gt;Node2 -->
<g id="edge14" class="edge"><title>Node10&#45;&gt;Node2</title>
<path fill="none" stroke="midnightblue" d="M323.303,-112.368C318.784,-94.617 308.361,-53.6664 302.234,-29.5974"/>
<polygon fill="midnightblue" stroke="midnightblue" points="305.546,-28.419 299.687,-19.5914 298.762,-30.1458 305.546,-28.419"/>
</g>
<!-- Node10&#45;&gt;Node3 -->
<g id="edge15" class="edge"><title>Node10&#45;&gt;Node3</title>
<path fill="none" stroke="midnightblue" d="M306.803,-112.444C287.556,-103.636 257.348,-89.8116 235.3,-79.722"/>
<polygon fill="midnightblue" stroke="midnightblue" points="236.66,-76.4951 226.11,-75.5164 233.747,-82.8603 236.66,-76.4951"/>
</g>
<!-- Node11&#45;&gt;Node3 -->
<g id="edge17" class="edge"><title>Node11&#45;&gt;Node3</title>
<path fill="none" stroke="midnightblue" d="M211.674,-112.083C211.019,-105.006 210.08,-94.8611 209.258,-85.9865"/>
<polygon fill="midnightblue" stroke="midnightblue" points="212.717,-85.3858 208.31,-75.7511 205.747,-86.0312 212.717,-85.3858"/>
</g>
</g>
</svg>
