<?xml version="1.0" encoding="UTF-8" standalone="no"?>
<!DOCTYPE svg PUBLIC "-//W3C//DTD SVG 1.1//EN"
 "http://www.w3.org/Graphics/SVG/1.1/DTD/svg11.dtd">
<!-- Generated by graphviz version 2.38.0 (20140413.2041)
 -->
<!-- Title: Model/player.hh Pages: 1 -->
<svg width="451pt" height="252pt"
 viewBox="0.00 0.00 451.41 252.00" xmlns="http://www.w3.org/2000/svg" xmlns:xlink="http://www.w3.org/1999/xlink">
<g id="graph0" class="graph" transform="scale(1 1) rotate(0) translate(4 248)">
<title>Model/player.hh</title>
<polygon fill="white" stroke="none" points="-4,4 -4,-248 447.409,-248 447.409,4 -4,4"/>
<!-- Node0 -->
<g id="node1" class="node"><title>Node0</title>
<polygon fill="#bfbfbf" stroke="black" points="126,-224.5 126,-243.5 212,-243.5 212,-224.5 126,-224.5"/>
<text text-anchor="middle" x="169" y="-231.5" font-family="Helvetica,sans-Serif" font-size="10.00">Model/player.hh</text>
</g>
<!-- Node1 -->
<g id="node2" class="node"><title>Node1</title>
<polygon fill="white" stroke="#bfbfbf" points="0,-168.5 0,-187.5 54,-187.5 54,-168.5 0,-168.5"/>
<text text-anchor="middle" x="27" y="-175.5" font-family="Helvetica,sans-Serif" font-size="10.00">iostream</text>
</g>
<!-- Node0&#45;&gt;Node1 -->
<g id="edge1" class="edge"><title>Node0&#45;&gt;Node1</title>
<path fill="none" stroke="midnightblue" d="M146.5,-224.444C122.923,-215.478 85.6776,-201.314 59.036,-191.183"/>
<polygon fill="midnightblue" stroke="midnightblue" points="59.9861,-187.8 49.3951,-187.516 57.4979,-194.342 59.9861,-187.8"/>
</g>
<!-- Node2 -->
<g id="node3" class="node"><title>Node2</title>
<polygon fill="white" stroke="#bfbfbf" points="72,-168.5 72,-187.5 114,-187.5 114,-168.5 72,-168.5"/>
<text text-anchor="middle" x="93" y="-175.5" font-family="Helvetica,sans-Serif" font-size="10.00">vector</text>
</g>
<!-- Node0&#45;&gt;Node2 -->
<g id="edge2" class="edge"><title>Node0&#45;&gt;Node2</title>
<path fill="none" stroke="midnightblue" d="M156.789,-224.324C145.224,-216.107 127.625,-203.602 113.839,-193.807"/>
<polygon fill="midnightblue" stroke="midnightblue" points="115.612,-190.773 105.433,-187.834 111.557,-196.479 115.612,-190.773"/>
</g>
<!-- Node3 -->
<g id="node4" class="node"><title>Node3</title>
<polygon fill="white" stroke="#bfbfbf" points="242,-0.5 242,-19.5 292,-19.5 292,-0.5 242,-0.5"/>
<text text-anchor="middle" x="267" y="-7.5" font-family="Helvetica,sans-Serif" font-size="10.00">QString</text>
</g>
<!-- Node0&#45;&gt;Node3 -->
<g id="edge3" class="edge"><title>Node0&#45;&gt;Node3</title>
<path fill="none" stroke="midnightblue" d="M166.585,-224.318C161.384,-204.198 150.416,-152.971 161,-112 168.115,-84.4562 172.238,-76.463 192,-56 204.807,-42.7392 222.334,-31.9353 237.225,-24.2404"/>
<polygon fill="midnightblue" stroke="midnightblue" points="239.134,-27.2014 246.553,-19.6381 236.037,-20.9239 239.134,-27.2014"/>
</g>
<!-- Node4 -->
<g id="node5" class="node"><title>Node4</title>
<g id="a_node5"><a xlink:href="actorinterface_8hh.html" target="_top" xlink:title="M채채rittelee yhden toimijan operaatioiden rajapintaluokan. ">
<polygon fill="white" stroke="black" points="170,-112.5 170,-131.5 298,-131.5 298,-112.5 170,-112.5"/>
<text text-anchor="middle" x="234" y="-119.5" font-family="Helvetica,sans-Serif" font-size="10.00">Interface/actorinterface.hh</text>
</a>
</g>
</g>
<!-- Node0&#45;&gt;Node4 -->
<g id="edge4" class="edge"><title>Node0&#45;&gt;Node4</title>
<path fill="none" stroke="midnightblue" d="M174.1,-224.368C184.78,-206.296 209.668,-164.176 223.773,-140.307"/>
<polygon fill="midnightblue" stroke="midnightblue" points="226.849,-141.981 228.923,-131.591 220.823,-138.42 226.849,-141.981"/>
</g>
<!-- Node7 -->
<g id="node8" class="node"><title>Node7</title>
<g id="a_node8"><a xlink:href="cyberteekkari_8hh.html" target="_top" xlink:title="cyberteekkari.hh">
<polygon fill="white" stroke="black" points="257.5,-168.5 257.5,-187.5 346.5,-187.5 346.5,-168.5 257.5,-168.5"/>
<text text-anchor="middle" x="302" y="-175.5" font-family="Helvetica,sans-Serif" font-size="10.00">cyberteekkari.hh</text>
</a>
</g>
</g>
<!-- Node0&#45;&gt;Node7 -->
<g id="edge9" class="edge"><title>Node0&#45;&gt;Node7</title>
<path fill="none" stroke="midnightblue" d="M190.074,-224.444C212.06,-215.517 246.734,-201.439 271.664,-191.317"/>
<polygon fill="midnightblue" stroke="midnightblue" points="273.076,-194.521 281.024,-187.516 270.442,-188.035 273.076,-194.521"/>
</g>
<!-- Node8 -->
<g id="node9" class="node"><title>Node8</title>
<g id="a_node9"><a xlink:href="equipment_8hh.html" target="_top" xlink:title="equipment.hh">
<polygon fill="white" stroke="black" points="354.5,-112.5 354.5,-131.5 429.5,-131.5 429.5,-112.5 354.5,-112.5"/>
<text text-anchor="middle" x="392" y="-119.5" font-family="Helvetica,sans-Serif" font-size="10.00">equipment.hh</text>
</a>
</g>
</g>
<!-- Node0&#45;&gt;Node8 -->
<g id="edge15" class="edge"><title>Node0&#45;&gt;Node8</title>
<path fill="none" stroke="midnightblue" d="M212.162,-232.287C253.013,-229.545 314.15,-219.852 356,-188 371.364,-176.306 381.068,-156.068 386.479,-141.273"/>
<polygon fill="midnightblue" stroke="midnightblue" points="389.841,-142.256 389.68,-131.662 383.199,-140.044 389.841,-142.256"/>
</g>
<!-- Node4&#45;&gt;Node3 -->
<g id="edge5" class="edge"><title>Node4&#45;&gt;Node3</title>
<path fill="none" stroke="midnightblue" d="M223.225,-112.171C209.34,-99.6708 188.201,-76.0959 199,-56 206.622,-41.8153 220.897,-31.3516 234.406,-24.1027"/>
<polygon fill="midnightblue" stroke="midnightblue" points="236.128,-27.1562 243.546,-19.5916 233.03,-20.8791 236.128,-27.1562"/>
</g>
<!-- Node5 -->
<g id="node6" class="node"><title>Node5</title>
<polygon fill="white" stroke="#bfbfbf" points="208,-56.5 208,-75.5 260,-75.5 260,-56.5 208,-56.5"/>
<text text-anchor="middle" x="234" y="-63.5" font-family="Helvetica,sans-Serif" font-size="10.00">memory</text>
</g>
<!-- Node4&#45;&gt;Node5 -->
<g id="edge6" class="edge"><title>Node4&#45;&gt;Node5</title>
<path fill="none" stroke="midnightblue" d="M234,-112.083C234,-105.006 234,-94.8611 234,-85.9865"/>
<polygon fill="midnightblue" stroke="midnightblue" points="237.5,-85.751 234,-75.7511 230.5,-85.7511 237.5,-85.751"/>
</g>
<!-- Node6 -->
<g id="node7" class="node"><title>Node6</title>
<g id="a_node7"><a xlink:href="equipmentinterface_8hh.html" target="_top" xlink:title="M채채rittelee yhden tavaran (Equipment) operaatioiden rajapintaluokan. ">
<polygon fill="white" stroke="black" points="278,-56.5 278,-75.5 430,-75.5 430,-56.5 278,-56.5"/>
<text text-anchor="middle" x="354" y="-63.5" font-family="Helvetica,sans-Serif" font-size="10.00">Interface/equipmentinterface.hh</text>
</a>
</g>
</g>
<!-- Node4&#45;&gt;Node6 -->
<g id="edge7" class="edge"><title>Node4&#45;&gt;Node6</title>
<path fill="none" stroke="midnightblue" d="M253.014,-112.444C272.588,-103.636 303.308,-89.8116 325.729,-79.722"/>
<polygon fill="midnightblue" stroke="midnightblue" points="327.392,-82.8119 335.075,-75.5164 324.519,-76.4284 327.392,-82.8119"/>
</g>
<!-- Node6&#45;&gt;Node3 -->
<g id="edge8" class="edge"><title>Node6&#45;&gt;Node3</title>
<path fill="none" stroke="midnightblue" d="M340.022,-56.324C326.45,-47.9002 305.62,-34.9709 289.675,-25.0741"/>
<polygon fill="midnightblue" stroke="midnightblue" points="291.286,-21.9544 280.943,-19.6545 287.594,-27.9019 291.286,-21.9544"/>
</g>
<!-- Node7&#45;&gt;Node4 -->
<g id="edge10" class="edge"><title>Node7&#45;&gt;Node4</title>
<path fill="none" stroke="midnightblue" d="M291.075,-168.324C280.825,-160.185 265.279,-147.839 252.999,-138.087"/>
<polygon fill="midnightblue" stroke="midnightblue" points="255.132,-135.312 245.124,-131.834 250.779,-140.794 255.132,-135.312"/>
</g>
<!-- Node7&#45;&gt;Node6 -->
<g id="edge11" class="edge"><title>Node7&#45;&gt;Node6</title>
<path fill="none" stroke="midnightblue" d="M306.08,-168.368C314.548,-150.456 334.182,-108.923 345.515,-84.9482"/>
<polygon fill="midnightblue" stroke="midnightblue" points="348.829,-86.128 349.939,-75.5914 342.5,-83.1363 348.829,-86.128"/>
</g>
<!-- Node7&#45;&gt;Node8 -->
<g id="edge12" class="edge"><title>Node7&#45;&gt;Node8</title>
<path fill="none" stroke="midnightblue" d="M316.46,-168.324C330.5,-159.9 352.048,-146.971 368.543,-137.074"/>
<polygon fill="midnightblue" stroke="midnightblue" points="370.802,-139.801 377.576,-131.655 367.2,-133.798 370.802,-139.801"/>
</g>
<!-- Node8&#45;&gt;Node3 -->
<g id="edge13" class="edge"><title>Node8&#45;&gt;Node3</title>
<path fill="none" stroke="midnightblue" d="M406.018,-112.461C424.859,-99.9158 454.318,-75.8413 439,-56 422.419,-34.5234 347.495,-21.3219 302.18,-15.1585"/>
<polygon fill="midnightblue" stroke="midnightblue" points="302.541,-11.676 292.171,-13.8457 301.631,-18.6166 302.541,-11.676"/>
</g>
<!-- Node8&#45;&gt;Node6 -->
<g id="edge14" class="edge"><title>Node8&#45;&gt;Node6</title>
<path fill="none" stroke="midnightblue" d="M385.725,-112.083C380.358,-104.455 372.482,-93.2645 365.921,-83.9408"/>
<polygon fill="midnightblue" stroke="midnightblue" points="368.775,-81.9149 360.158,-75.7511 363.051,-85.9434 368.775,-81.9149"/>
</g>
</g>
</svg>
