<?xml version="1.0" encoding="UTF-8" standalone="no"?>
<!DOCTYPE svg PUBLIC "-//W3C//DTD SVG 1.1//EN"
 "http://www.w3.org/Graphics/SVG/1.1/DTD/svg11.dtd">
<!-- Generated by graphviz version 2.38.0 (20140413.2041)
 -->
<!-- Title: Model/playerparty.hh Pages: 1 -->
<!--zoomable 308 -->
<svg id="main" version="1.1" xmlns="http://www.w3.org/2000/svg" xmlns:xlink="http://www.w3.org/1999/xlink" xml:space="preserve" onload="init(evt)">
<style type="text/css"><![CDATA[
.edge:hover path { stroke: red; }
.edge:hover polygon { stroke: red; fill: red; }
]]></style>
<script type="text/javascript"><![CDATA[
var edges = document.getElementsByTagName('g');
if (edges && edges.length) {
  for (var i=0;i<edges.length;i++) {
    if (edges[i].id.substr(0,4)=='edge') {
      edges[i].setAttribute('class','edge');
    }
  }
}
]]></script>
        <defs>
                <circle id="rim" cx="0" cy="0" r="7"/>
                <circle id="rim2" cx="0" cy="0" r="3.5"/>
                <g id="zoomPlus">
                        <use xlink:href="#rim" fill="#404040">
                                <set attributeName="fill" to="#808080" begin="zoomplus.mouseover" end="zoomplus.mouseout"/>
                        </use>
                        <path d="M-4,0h8M0,-4v8" fill="none" stroke="white" stroke-width="1.5" pointer-events="none"/>
                </g>
                <g id="zoomMin">
                        <use xlink:href="#rim" fill="#404040">
                                <set attributeName="fill" to="#808080" begin="zoomminus.mouseover" end="zoomminus.mouseout"/>
                        </use>
                        <path d="M-4,0h8" fill="none" stroke="white" stroke-width="1.5" pointer-events="none"/>
                </g>
                <g id="dirArrow">
                        <path fill="none" stroke="white" stroke-width="1.5" d="M0,-3.0v7 M-2.5,-0.5L0,-3.0L2.5,-0.5"/>
                </g>
               <g id="resetDef">
                       <use xlink:href="#rim2" fill="#404040">
                               <set attributeName="fill" to="#808080" begin="reset.mouseover" end="reset.mouseout"/>
                       </use>
               </g>
        </defs>

<script type="text/javascript">
var viewWidth = 679;
var viewHeight = 308;
var sectionId = 'dynsection-0';
</script>
<script xlink:href="svgpan.js"/>
<svg id="graph" class="graph">
<g id="viewport">
<title>Model/playerparty.hh</title>
<polygon fill="white" stroke="none" points="-4,4 -4,-304 674.5,-304 674.5,4 -4,4"/>
<!-- Node0 -->
<g id="node1" class="node"><title>Node0</title>
<polygon fill="#bfbfbf" stroke="black" points="237.5,-280.5 237.5,-299.5 344.5,-299.5 344.5,-280.5 237.5,-280.5"/>
<text text-anchor="middle" x="291" y="-287.5" font-family="Helvetica,sans-Serif" font-size="10.00">Model/playerparty.hh</text>
</g>
<!-- Node1 -->
<g id="node2" class="node"><title>Node1</title>
<polygon fill="white" stroke="#bfbfbf" points="0,-168.5 0,-187.5 54,-187.5 54,-168.5 0,-168.5"/>
<text text-anchor="middle" x="27" y="-175.5" font-family="Helvetica,sans-Serif" font-size="10.00">iostream</text>
</g>
<!-- Node0&#45;&gt;Node1 -->
<g id="edge1" class="edge"><title>Node0&#45;&gt;Node1</title>
<path fill="none" stroke="midnightblue" d="M237.374,-282.466C199.208,-276.292 147.541,-264.765 106,-244 81.0677,-231.537 57.0149,-209.927 42.1332,-195.068"/>
<polygon fill="midnightblue" stroke="midnightblue" points="44.3484,-192.326 34.8618,-187.609 39.3359,-197.213 44.3484,-192.326"/>
</g>
<!-- Node2 -->
<g id="node3" class="node"><title>Node2</title>
<polygon fill="white" stroke="#bfbfbf" points="72,-168.5 72,-187.5 114,-187.5 114,-168.5 72,-168.5"/>
<text text-anchor="middle" x="93" y="-175.5" font-family="Helvetica,sans-Serif" font-size="10.00">vector</text>
</g>
<!-- Node0&#45;&gt;Node2 -->
<g id="edge2" class="edge"><title>Node0&#45;&gt;Node2</title>
<path fill="none" stroke="midnightblue" d="M237.208,-285.729C201.896,-281.067 156.575,-270.008 125,-244 110.61,-232.147 102.156,-212.23 97.5883,-197.56"/>
<polygon fill="midnightblue" stroke="midnightblue" points="100.867,-196.285 94.8188,-187.586 94.1217,-198.158 100.867,-196.285"/>
</g>
<!-- Node3 -->
<g id="node4" class="node"><title>Node3</title>
<polygon fill="white" stroke="#bfbfbf" points="359,-0.5 359,-19.5 409,-19.5 409,-0.5 359,-0.5"/>
<text text-anchor="middle" x="384" y="-7.5" font-family="Helvetica,sans-Serif" font-size="10.00">QString</text>
</g>
<!-- Node0&#45;&gt;Node3 -->
<g id="edge3" class="edge"><title>Node0&#45;&gt;Node3</title>
<path fill="none" stroke="midnightblue" d="M344.605,-281.62C434.761,-267.691 607,-233.895 607,-179 607,-179 607,-179 607,-121 607,-38.3631 482.312,-17.8054 419.408,-12.6922"/>
<polygon fill="midnightblue" stroke="midnightblue" points="419.374,-9.18067 409.147,-11.9508 418.869,-16.1625 419.374,-9.18067"/>
</g>
<!-- Node4 -->
<g id="node5" class="node"><title>Node4</title>
<polygon fill="white" stroke="#bfbfbf" points="635.5,-224.5 635.5,-243.5 670.5,-243.5 670.5,-224.5 635.5,-224.5"/>
<text text-anchor="middle" x="653" y="-231.5" font-family="Helvetica,sans-Serif" font-size="10.00">map</text>
</g>
<!-- Node0&#45;&gt;Node4 -->
<g id="edge4" class="edge"><title>Node0&#45;&gt;Node4</title>
<path fill="none" stroke="midnightblue" d="M344.541,-284.005C410.144,-277.357 524.475,-264.054 621,-244 622.448,-243.699 623.927,-243.368 625.415,-243.017"/>
<polygon fill="midnightblue" stroke="midnightblue" points="626.367,-246.386 635.168,-240.487 624.609,-239.61 626.367,-246.386"/>
</g>
<!-- Node5 -->
<g id="node6" class="node"><title>Node5</title>
<g id="a_node6"><a xlink:href="actorinterface_8hh.html" target="_top" xlink:title="M채채rittelee yhden toimijan operaatioiden rajapintaluokan. ">
<polygon fill="white" stroke="black" points="148,-112.5 148,-131.5 276,-131.5 276,-112.5 148,-112.5"/>
<text text-anchor="middle" x="212" y="-119.5" font-family="Helvetica,sans-Serif" font-size="10.00">Interface/actorinterface.hh</text>
</a>
</g>
</g>
<!-- Node0&#45;&gt;Node5 -->
<g id="edge5" class="edge"><title>Node0&#45;&gt;Node5</title>
<path fill="none" stroke="midnightblue" d="M285.856,-280.269C275.784,-262.993 253.048,-223.077 237,-188 229.926,-172.539 223.08,-154.45 218.346,-141.286"/>
<polygon fill="midnightblue" stroke="midnightblue" points="221.539,-139.815 214.908,-131.552 214.939,-142.147 221.539,-139.815"/>
</g>
<!-- Node8 -->
<g id="node9" class="node"><title>Node8</title>
<g id="a_node9"><a xlink:href="parkinghallinterface_8hh.html" target="_top" xlink:title="Interface/parkinghallinterface.hh">
<polygon fill="white" stroke="black" points="425.5,-112.5 425.5,-131.5 578.5,-131.5 578.5,-112.5 425.5,-112.5"/>
<text text-anchor="middle" x="502" y="-119.5" font-family="Helvetica,sans-Serif" font-size="10.00">Interface/parkinghallinterface.hh</text>
</a>
</g>
</g>
<!-- Node0&#45;&gt;Node8 -->
<g id="edge10" class="edge"><title>Node0&#45;&gt;Node8</title>
<path fill="none" stroke="midnightblue" d="M303.955,-280.316C317.032,-271.452 337.709,-257.165 355,-244 402.699,-207.682 456.596,-162.09 483.967,-138.594"/>
<polygon fill="midnightblue" stroke="midnightblue" points="486.585,-140.959 491.88,-131.782 482.018,-135.654 486.585,-140.959"/>
</g>
<!-- Node9 -->
<g id="node10" class="node"><title>Node9</title>
<g id="a_node10"><a xlink:href="equipment_8hh.html" target="_top" xlink:title="equipment.hh">
<polygon fill="white" stroke="black" points="332.5,-112.5 332.5,-131.5 407.5,-131.5 407.5,-112.5 332.5,-112.5"/>
<text text-anchor="middle" x="370" y="-119.5" font-family="Helvetica,sans-Serif" font-size="10.00">equipment.hh</text>
</a>
</g>
</g>
<!-- Node0&#45;&gt;Node9 -->
<g id="edge12" class="edge"><title>Node0&#45;&gt;Node9</title>
<path fill="none" stroke="midnightblue" d="M300.283,-280.351C316.985,-264.121 351.692,-227.185 366,-188 371.399,-173.215 372.108,-155.287 371.633,-142.008"/>
<polygon fill="midnightblue" stroke="midnightblue" points="375.108,-141.495 370.997,-131.73 368.121,-141.927 375.108,-141.495"/>
</g>
<!-- Node10 -->
<g id="node11" class="node"><title>Node10</title>
<g id="a_node11"><a xlink:href="player_8hh.html" target="_top" xlink:title="player.hh">
<polygon fill="white" stroke="black" points="134,-224.5 134,-243.5 190,-243.5 190,-224.5 134,-224.5"/>
<text text-anchor="middle" x="162" y="-231.5" font-family="Helvetica,sans-Serif" font-size="10.00">player.hh</text>
</a>
</g>
</g>
<!-- Node0&#45;&gt;Node10 -->
<g id="edge15" class="edge"><title>Node0&#45;&gt;Node10</title>
<path fill="none" stroke="midnightblue" d="M270.56,-280.444C249.33,-271.557 215.901,-257.563 191.745,-247.451"/>
<polygon fill="midnightblue" stroke="midnightblue" points="192.921,-244.149 182.345,-243.516 190.218,-250.606 192.921,-244.149"/>
</g>
<!-- Node11 -->
<g id="node12" class="node"><title>Node11</title>
<g id="a_node12"><a xlink:href="cyberteekkari_8hh.html" target="_top" xlink:title="cyberteekkari.hh">
<polygon fill="white" stroke="black" points="246.5,-168.5 246.5,-187.5 335.5,-187.5 335.5,-168.5 246.5,-168.5"/>
<text text-anchor="middle" x="291" y="-175.5" font-family="Helvetica,sans-Serif" font-size="10.00">cyberteekkari.hh</text>
</a>
</g>
</g>
<!-- Node0&#45;&gt;Node11 -->
<g id="edge25" class="edge"><title>Node0&#45;&gt;Node11</title>
<path fill="none" stroke="midnightblue" d="M291,-280.368C291,-262.617 291,-221.666 291,-197.597"/>
<polygon fill="midnightblue" stroke="midnightblue" points="294.5,-197.591 291,-187.591 287.5,-197.591 294.5,-197.591"/>
</g>
<!-- Node5&#45;&gt;Node3 -->
<g id="edge6" class="edge"><title>Node5&#45;&gt;Node3</title>
<path fill="none" stroke="midnightblue" d="M201.248,-112.399C186.228,-99.3529 162.362,-74.1619 177,-56 198.203,-29.6921 295.614,-17.9665 348.91,-13.4434"/>
<polygon fill="midnightblue" stroke="midnightblue" points="349.259,-16.9267 358.945,-12.6326 348.695,-9.9494 349.259,-16.9267"/>
</g>
<!-- Node6 -->
<g id="node7" class="node"><title>Node6</title>
<polygon fill="white" stroke="#bfbfbf" points="186,-56.5 186,-75.5 238,-75.5 238,-56.5 186,-56.5"/>
<text text-anchor="middle" x="212" y="-63.5" font-family="Helvetica,sans-Serif" font-size="10.00">memory</text>
</g>
<!-- Node5&#45;&gt;Node6 -->
<g id="edge7" class="edge"><title>Node5&#45;&gt;Node6</title>
<path fill="none" stroke="midnightblue" d="M212,-112.083C212,-105.006 212,-94.8611 212,-85.9865"/>
<polygon fill="midnightblue" stroke="midnightblue" points="215.5,-85.751 212,-75.7511 208.5,-85.7511 215.5,-85.751"/>
</g>
<!-- Node7 -->
<g id="node8" class="node"><title>Node7</title>
<g id="a_node8"><a xlink:href="equipmentinterface_8hh.html" target="_top" xlink:title="M채채rittelee yhden tavaran (Equipment) operaatioiden rajapintaluokan. ">
<polygon fill="white" stroke="black" points="256,-56.5 256,-75.5 408,-75.5 408,-56.5 256,-56.5"/>
<text text-anchor="middle" x="332" y="-63.5" font-family="Helvetica,sans-Serif" font-size="10.00">Interface/equipmentinterface.hh</text>
</a>
</g>
</g>
<!-- Node5&#45;&gt;Node7 -->
<g id="edge8" class="edge"><title>Node5&#45;&gt;Node7</title>
<path fill="none" stroke="midnightblue" d="M231.014,-112.444C250.588,-103.636 281.308,-89.8116 303.729,-79.722"/>
<polygon fill="midnightblue" stroke="midnightblue" points="305.392,-82.8119 313.075,-75.5164 302.519,-76.4284 305.392,-82.8119"/>
</g>
<!-- Node7&#45;&gt;Node3 -->
<g id="edge9" class="edge"><title>Node7&#45;&gt;Node3</title>
<path fill="none" stroke="midnightblue" d="M340.587,-56.083C348.159,-48.2195 359.378,-36.5688 368.514,-27.0813"/>
<polygon fill="midnightblue" stroke="midnightblue" points="371.158,-29.3821 375.573,-19.7511 366.115,-24.5266 371.158,-29.3821"/>
</g>
<!-- Node8&#45;&gt;Node3 -->
<g id="edge11" class="edge"><title>Node8&#45;&gt;Node3</title>
<path fill="none" stroke="midnightblue" d="M492.661,-112.131C479.43,-99.5826 454.45,-75.9512 433,-56 422.403,-46.1438 410.442,-35.1558 400.989,-26.5049"/>
<polygon fill="midnightblue" stroke="midnightblue" points="403.169,-23.7552 393.426,-19.5915 398.446,-28.9219 403.169,-23.7552"/>
</g>
<!-- Node9&#45;&gt;Node3 -->
<g id="edge13" class="edge"><title>Node9&#45;&gt;Node3</title>
<path fill="none" stroke="midnightblue" d="M384.078,-112.259C395.353,-104.355 410.346,-91.5838 417,-76 424.326,-58.8433 412.274,-39.8935 400.731,-26.904"/>
<polygon fill="midnightblue" stroke="midnightblue" points="403.233,-24.4558 393.788,-19.6557 398.178,-29.2981 403.233,-24.4558"/>
</g>
<!-- Node9&#45;&gt;Node7 -->
<g id="edge14" class="edge"><title>Node9&#45;&gt;Node7</title>
<path fill="none" stroke="midnightblue" d="M363.725,-112.083C358.358,-104.455 350.482,-93.2645 343.921,-83.9408"/>
<polygon fill="midnightblue" stroke="midnightblue" points="346.775,-81.9149 338.158,-75.7511 341.051,-85.9434 346.775,-81.9149"/>
</g>
<!-- Node10&#45;&gt;Node1 -->
<g id="edge16" class="edge"><title>Node10&#45;&gt;Node1</title>
<path fill="none" stroke="midnightblue" d="M140.609,-224.444C118.293,-215.517 83.0968,-201.439 57.792,-191.317"/>
<polygon fill="midnightblue" stroke="midnightblue" points="58.8757,-187.981 48.2911,-187.516 56.276,-194.48 58.8757,-187.981"/>
</g>
<!-- Node10&#45;&gt;Node2 -->
<g id="edge17" class="edge"><title>Node10&#45;&gt;Node2</title>
<path fill="none" stroke="midnightblue" d="M150.914,-224.324C140.514,-216.185 124.739,-203.839 112.278,-194.087"/>
<polygon fill="midnightblue" stroke="midnightblue" points="114.32,-191.241 104.288,-187.834 110.006,-196.753 114.32,-191.241"/>
</g>
<!-- Node10&#45;&gt;Node3 -->
<g id="edge18" class="edge"><title>Node10&#45;&gt;Node3</title>
<path fill="none" stroke="midnightblue" d="M157.822,-224.417C148.683,-204.505 128.537,-153.687 139,-112 145.873,-84.614 146.397,-72.9221 169,-56 196.976,-35.0552 295.097,-21.0352 348.583,-14.7601"/>
<polygon fill="midnightblue" stroke="midnightblue" points="349.114,-18.2223 358.652,-13.6086 348.319,-11.2677 349.114,-18.2223"/>
</g>
<!-- Node10&#45;&gt;Node5 -->
<g id="edge19" class="edge"><title>Node10&#45;&gt;Node5</title>
<path fill="none" stroke="midnightblue" d="M165.923,-224.368C174.065,-206.456 192.944,-164.923 203.842,-140.948"/>
<polygon fill="midnightblue" stroke="midnightblue" points="207.143,-142.143 208.095,-131.591 200.77,-139.247 207.143,-142.143"/>
</g>
<!-- Node10&#45;&gt;Node9 -->
<g id="edge24" class="edge"><title>Node10&#45;&gt;Node9</title>
<path fill="none" stroke="midnightblue" d="M190.222,-233.608C229.383,-232.938 300.303,-226.043 344,-188 357.587,-176.171 364.156,-156.25 367.28,-141.573"/>
<polygon fill="midnightblue" stroke="midnightblue" points="370.75,-142.051 369.056,-131.592 363.858,-140.825 370.75,-142.051"/>
</g>
<!-- Node10&#45;&gt;Node11 -->
<g id="edge20" class="edge"><title>Node10&#45;&gt;Node11</title>
<path fill="none" stroke="midnightblue" d="M182.44,-224.444C203.67,-215.557 237.099,-201.563 261.255,-191.451"/>
<polygon fill="midnightblue" stroke="midnightblue" points="262.782,-194.606 270.655,-187.516 260.079,-188.149 262.782,-194.606"/>
</g>
<!-- Node11&#45;&gt;Node5 -->
<g id="edge21" class="edge"><title>Node11&#45;&gt;Node5</title>
<path fill="none" stroke="midnightblue" d="M278.307,-168.324C266.099,-159.979 247.422,-147.212 232.997,-137.352"/>
<polygon fill="midnightblue" stroke="midnightblue" points="234.892,-134.408 224.661,-131.655 230.942,-140.187 234.892,-134.408"/>
</g>
<!-- Node11&#45;&gt;Node7 -->
<g id="edge22" class="edge"><title>Node11&#45;&gt;Node7</title>
<path fill="none" stroke="midnightblue" d="M294.217,-168.368C300.864,-150.537 316.235,-109.295 325.19,-85.2717"/>
<polygon fill="midnightblue" stroke="midnightblue" points="328.585,-86.1841 328.798,-75.5914 322.026,-83.7393 328.585,-86.1841"/>
</g>
<!-- Node11&#45;&gt;Node9 -->
<g id="edge23" class="edge"><title>Node11&#45;&gt;Node9</title>
<path fill="none" stroke="midnightblue" d="M303.693,-168.324C315.901,-159.979 334.578,-147.212 349.003,-137.352"/>
<polygon fill="midnightblue" stroke="midnightblue" points="351.058,-140.187 357.339,-131.655 347.108,-134.408 351.058,-140.187"/>
</g>
</g>
</svg>
        <g id="navigator" transform="translate(0 0)" fill="#404254">
                <rect fill="#f2f5e9" fill-opacity="0.5" stroke="#606060" stroke-width=".5" x="0" y="0" width="60" height="60"/>
                <use id="zoomplus" xlink:href="#zoomPlus" x="17" y="9" onmousedown="handleZoom(evt,'in')"/>
                <use id="zoomminus" xlink:href="#zoomMin" x="42" y="9" onmousedown="handleZoom(evt,'out')"/>
                <use id="reset" xlink:href="#resetDef" x="30" y="36" onmousedown="handleReset()"/>
                <g id="arrowUp" xlink:href="#dirArrow" transform="translate(30 24)" onmousedown="handlePan(0,-1)">
                  <use xlink:href="#rim" fill="#404040">
                        <set attributeName="fill" to="#808080" begin="arrowUp.mouseover" end="arrowUp.mouseout"/>
                  </use>
                  <path fill="none" stroke="white" stroke-width="1.5" d="M0,-3.0v7 M-2.5,-0.5L0,-3.0L2.5,-0.5"/>
                </g>
                <g id="arrowRight" xlink:href="#dirArrow" transform="rotate(90) translate(36 -43)" onmousedown="handlePan(1,0)">
                  <use xlink:href="#rim" fill="#404040">
                        <set attributeName="fill" to="#808080" begin="arrowRight.mouseover" end="arrowRight.mouseout"/>
                  </use>
                  <path fill="none" stroke="white" stroke-width="1.5" d="M0,-3.0v7 M-2.5,-0.5L0,-3.0L2.5,-0.5"/>
                </g>
                <g id="arrowDown" xlink:href="#dirArrow" transform="rotate(180) translate(-30 -48)" onmousedown="handlePan(0,1)">
                  <use xlink:href="#rim" fill="#404040">
                        <set attributeName="fill" to="#808080" begin="arrowDown.mouseover" end="arrowDown.mouseout"/>
                  </use>
                  <path fill="none" stroke="white" stroke-width="1.5" d="M0,-3.0v7 M-2.5,-0.5L0,-3.0L2.5,-0.5"/>
                </g>
                <g id="arrowLeft" xlink:href="#dirArrow" transform="rotate(270) translate(-36 17)" onmousedown="handlePan(-1,0)">
                  <use xlink:href="#rim" fill="#404040">
                        <set attributeName="fill" to="#808080" begin="arrowLeft.mouseover" end="arrowLeft.mouseout"/>
                  </use>
                  <path fill="none" stroke="white" stroke-width="1.5" d="M0,-3.0v7 M-2.5,-0.5L0,-3.0L2.5,-0.5"/>
                </g>
        </g>
        <svg viewBox="0 0 15 15" width="100%" height="30px" preserveAspectRatio="xMaxYMin meet">
         <g id="arrow_out" transform="scale(0.3 0.3)">
          <a xlink:href="playerparty_8hh__incl_org.svg" target="_base">
           <rect id="button" ry="5" rx="5" y="6" x="6" height="38" width="38"
                fill="#f2f5e9" fill-opacity="0.5" stroke="#606060" stroke-width="1.0"/>
           <path id="arrow"
             d="M 11.500037,31.436501 C 11.940474,20.09759 22.043105,11.32322 32.158766,21.979434 L 37.068811,17.246167 C 37.068811,17.246167 37.088388,32 37.088388,32 L 22.160133,31.978069 C 22.160133,31.978069 26.997745,27.140456 26.997745,27.140456 C 18.528582,18.264221 13.291696,25.230495 11.500037,31.436501 z"
             style="fill:#404040;"/>
          </a>
         </g>
        </svg>
</svg>
