<?xml version="1.0" encoding="UTF-8" standalone="no"?>
<!DOCTYPE svg PUBLIC "-//W3C//DTD SVG 1.1//EN"
 "http://www.w3.org/Graphics/SVG/1.1/DTD/svg11.dtd">
<!-- Generated by graphviz version 2.38.0 (20140413.2041)
 -->
<!-- Title: Model/player.cc Pages: 1 -->
<svg width="476pt" height="308pt"
 viewBox="0.00 0.00 475.50 308.00" xmlns="http://www.w3.org/2000/svg" xmlns:xlink="http://www.w3.org/1999/xlink">
<g id="graph0" class="graph" transform="scale(1 1) rotate(0) translate(4 304)">
<title>Model/player.cc</title>
<polygon fill="white" stroke="none" points="-4,4 -4,-304 471.5,-304 471.5,4 -4,4"/>
<!-- Node0 -->
<g id="node1" class="node"><title>Node0</title>
<polygon fill="#bfbfbf" stroke="black" points="37,-280.5 37,-299.5 123,-299.5 123,-280.5 37,-280.5"/>
<text text-anchor="middle" x="80" y="-287.5" font-family="Helvetica,sans-Serif" font-size="10.00">Model/player.cc</text>
</g>
<!-- Node1 -->
<g id="node2" class="node"><title>Node1</title>
<polygon fill="white" stroke="#bfbfbf" points="0,-224.5 0,-243.5 52,-243.5 52,-224.5 0,-224.5"/>
<text text-anchor="middle" x="26" y="-231.5" font-family="Helvetica,sans-Serif" font-size="10.00">QDebug</text>
</g>
<!-- Node0&#45;&gt;Node1 -->
<g id="edge1" class="edge"><title>Node0&#45;&gt;Node1</title>
<path fill="none" stroke="midnightblue" d="M71.083,-280.083C63.2195,-272.22 51.5688,-260.569 42.0813,-251.081"/>
<polygon fill="midnightblue" stroke="midnightblue" points="44.2971,-248.347 34.7511,-243.751 39.3473,-253.297 44.2971,-248.347"/>
</g>
<!-- Node2 -->
<g id="node3" class="node"><title>Node2</title>
<polygon fill="white" stroke="#bfbfbf" points="147,-0.5 147,-19.5 197,-19.5 197,-0.5 147,-0.5"/>
<text text-anchor="middle" x="172" y="-7.5" font-family="Helvetica,sans-Serif" font-size="10.00">QString</text>
</g>
<!-- Node0&#45;&gt;Node2 -->
<g id="edge2" class="edge"><title>Node0&#45;&gt;Node2</title>
<path fill="none" stroke="midnightblue" d="M80,-280.442C80,-261.936 80,-216.813 80,-179 80,-179 80,-179 80,-121 80,-78.5016 120.906,-43.77 148.166,-25.3436"/>
<polygon fill="midnightblue" stroke="midnightblue" points="150.327,-28.1133 156.808,-19.732 146.515,-22.2424 150.327,-28.1133"/>
</g>
<!-- Node3 -->
<g id="node4" class="node"><title>Node3</title>
<g id="a_node4"><a xlink:href="player_8hh.html" target="_top" xlink:title="player.hh">
<polygon fill="white" stroke="black" points="211,-224.5 211,-243.5 267,-243.5 267,-224.5 211,-224.5"/>
<text text-anchor="middle" x="239" y="-231.5" font-family="Helvetica,sans-Serif" font-size="10.00">player.hh</text>
</a>
</g>
</g>
<!-- Node0&#45;&gt;Node3 -->
<g id="edge3" class="edge"><title>Node0&#45;&gt;Node3</title>
<path fill="none" stroke="midnightblue" d="M105.194,-280.444C131.943,-271.359 174.403,-256.939 204.305,-246.783"/>
<polygon fill="midnightblue" stroke="midnightblue" points="205.581,-250.046 213.924,-243.516 203.329,-243.418 205.581,-250.046"/>
</g>
<!-- Node3&#45;&gt;Node2 -->
<g id="edge6" class="edge"><title>Node3&#45;&gt;Node2</title>
<path fill="none" stroke="midnightblue" d="M210.605,-229.056C186.446,-224.037 153.171,-212.808 137,-188 103.84,-137.127 140.974,-61.7997 160.954,-28.2298"/>
<polygon fill="midnightblue" stroke="midnightblue" points="164.022,-29.923 166.286,-19.5728 158.062,-26.2523 164.022,-29.923"/>
</g>
<!-- Node4 -->
<g id="node5" class="node"><title>Node4</title>
<polygon fill="white" stroke="#bfbfbf" points="146,-168.5 146,-187.5 200,-187.5 200,-168.5 146,-168.5"/>
<text text-anchor="middle" x="173" y="-175.5" font-family="Helvetica,sans-Serif" font-size="10.00">iostream</text>
</g>
<!-- Node3&#45;&gt;Node4 -->
<g id="edge4" class="edge"><title>Node3&#45;&gt;Node4</title>
<path fill="none" stroke="midnightblue" d="M228.396,-224.324C218.544,-216.263 203.649,-204.077 191.785,-194.369"/>
<polygon fill="midnightblue" stroke="midnightblue" points="193.753,-191.457 183.797,-187.834 189.32,-196.875 193.753,-191.457"/>
</g>
<!-- Node5 -->
<g id="node6" class="node"><title>Node5</title>
<polygon fill="white" stroke="#bfbfbf" points="218,-168.5 218,-187.5 260,-187.5 260,-168.5 218,-168.5"/>
<text text-anchor="middle" x="239" y="-175.5" font-family="Helvetica,sans-Serif" font-size="10.00">vector</text>
</g>
<!-- Node3&#45;&gt;Node5 -->
<g id="edge5" class="edge"><title>Node3&#45;&gt;Node5</title>
<path fill="none" stroke="midnightblue" d="M239,-224.083C239,-217.006 239,-206.861 239,-197.986"/>
<polygon fill="midnightblue" stroke="midnightblue" points="242.5,-197.751 239,-187.751 235.5,-197.751 242.5,-197.751"/>
</g>
<!-- Node6 -->
<g id="node7" class="node"><title>Node6</title>
<g id="a_node7"><a xlink:href="actorinterface_8hh.html" target="_top" xlink:title="M채채rittelee yhden toimijan operaatioiden rajapintaluokan. ">
<polygon fill="white" stroke="black" points="205,-112.5 205,-131.5 333,-131.5 333,-112.5 205,-112.5"/>
<text text-anchor="middle" x="269" y="-119.5" font-family="Helvetica,sans-Serif" font-size="10.00">Interface/actorinterface.hh</text>
</a>
</g>
</g>
<!-- Node3&#45;&gt;Node6 -->
<g id="edge7" class="edge"><title>Node3&#45;&gt;Node6</title>
<path fill="none" stroke="midnightblue" d="M247.214,-224.182C254.544,-215.663 264.755,-202.019 269,-188 273.553,-172.964 273.154,-155.058 271.842,-141.851"/>
<polygon fill="midnightblue" stroke="midnightblue" points="275.279,-141.129 270.556,-131.645 268.334,-142.004 275.279,-141.129"/>
</g>
<!-- Node9 -->
<g id="node10" class="node"><title>Node9</title>
<g id="a_node10"><a xlink:href="cyberteekkari_8hh.html" target="_top" xlink:title="cyberteekkari.hh">
<polygon fill="white" stroke="black" points="316.5,-168.5 316.5,-187.5 405.5,-187.5 405.5,-168.5 316.5,-168.5"/>
<text text-anchor="middle" x="361" y="-175.5" font-family="Helvetica,sans-Serif" font-size="10.00">cyberteekkari.hh</text>
</a>
</g>
</g>
<!-- Node3&#45;&gt;Node9 -->
<g id="edge12" class="edge"><title>Node3&#45;&gt;Node9</title>
<path fill="none" stroke="midnightblue" d="M258.331,-224.444C278.32,-215.596 309.743,-201.687 332.564,-191.586"/>
<polygon fill="midnightblue" stroke="midnightblue" points="334.032,-194.764 341.759,-187.516 331.198,-188.363 334.032,-194.764"/>
</g>
<!-- Node10 -->
<g id="node11" class="node"><title>Node10</title>
<g id="a_node11"><a xlink:href="equipment_8hh.html" target="_top" xlink:title="equipment.hh">
<polygon fill="white" stroke="black" points="392.5,-112.5 392.5,-131.5 467.5,-131.5 467.5,-112.5 392.5,-112.5"/>
<text text-anchor="middle" x="430" y="-119.5" font-family="Helvetica,sans-Serif" font-size="10.00">equipment.hh</text>
</a>
</g>
</g>
<!-- Node3&#45;&gt;Node10 -->
<g id="edge18" class="edge"><title>Node3&#45;&gt;Node10</title>
<path fill="none" stroke="midnightblue" d="M267.041,-229.402C311.332,-223.153 394.56,-208.926 415,-188 426.749,-175.971 429.996,-156.679 430.606,-142.232"/>
<polygon fill="midnightblue" stroke="midnightblue" points="434.107,-141.927 430.641,-131.915 427.107,-141.903 434.107,-141.927"/>
</g>
<!-- Node6&#45;&gt;Node2 -->
<g id="edge8" class="edge"><title>Node6&#45;&gt;Node2</title>
<path fill="none" stroke="midnightblue" d="M244.166,-112.409C226.898,-105.224 204.619,-93.3334 191,-76 180.569,-62.7236 175.862,-43.8876 173.739,-29.9076"/>
<polygon fill="midnightblue" stroke="midnightblue" points="177.209,-29.4424 172.531,-19.936 170.259,-30.2844 177.209,-29.4424"/>
</g>
<!-- Node7 -->
<g id="node8" class="node"><title>Node7</title>
<polygon fill="white" stroke="#bfbfbf" points="200,-56.5 200,-75.5 252,-75.5 252,-56.5 200,-56.5"/>
<text text-anchor="middle" x="226" y="-63.5" font-family="Helvetica,sans-Serif" font-size="10.00">memory</text>
</g>
<!-- Node6&#45;&gt;Node7 -->
<g id="edge9" class="edge"><title>Node6&#45;&gt;Node7</title>
<path fill="none" stroke="midnightblue" d="M261.899,-112.083C255.763,-104.377 246.73,-93.0333 239.261,-83.6531"/>
<polygon fill="midnightblue" stroke="midnightblue" points="241.936,-81.3936 232.968,-75.7511 236.46,-85.7542 241.936,-81.3936"/>
</g>
<!-- Node8 -->
<g id="node9" class="node"><title>Node8</title>
<g id="a_node9"><a xlink:href="equipmentinterface_8hh.html" target="_top" xlink:title="M채채rittelee yhden tavaran (Equipment) operaatioiden rajapintaluokan. ">
<polygon fill="white" stroke="black" points="270,-56.5 270,-75.5 422,-75.5 422,-56.5 270,-56.5"/>
<text text-anchor="middle" x="346" y="-63.5" font-family="Helvetica,sans-Serif" font-size="10.00">Interface/equipmentinterface.hh</text>
</a>
</g>
</g>
<!-- Node6&#45;&gt;Node8 -->
<g id="edge10" class="edge"><title>Node6&#45;&gt;Node8</title>
<path fill="none" stroke="midnightblue" d="M281.371,-112.324C293.158,-104.058 311.132,-91.4527 325.136,-81.6322"/>
<polygon fill="midnightblue" stroke="midnightblue" points="327.482,-84.2619 333.659,-75.6545 323.462,-78.5307 327.482,-84.2619"/>
</g>
<!-- Node8&#45;&gt;Node2 -->
<g id="edge11" class="edge"><title>Node8&#45;&gt;Node2</title>
<path fill="none" stroke="midnightblue" d="M318.429,-56.4435C288.208,-47.0645 239.66,-31.9978 206.829,-21.8089"/>
<polygon fill="midnightblue" stroke="midnightblue" points="207.77,-18.4364 197.182,-18.8151 205.695,-25.1219 207.77,-18.4364"/>
</g>
<!-- Node9&#45;&gt;Node6 -->
<g id="edge13" class="edge"><title>Node9&#45;&gt;Node6</title>
<path fill="none" stroke="midnightblue" d="M346.219,-168.324C331.733,-159.822 309.427,-146.729 292.507,-136.797"/>
<polygon fill="midnightblue" stroke="midnightblue" points="294.141,-133.698 283.745,-131.655 290.597,-139.735 294.141,-133.698"/>
</g>
<!-- Node9&#45;&gt;Node8 -->
<g id="edge14" class="edge"><title>Node9&#45;&gt;Node8</title>
<path fill="none" stroke="midnightblue" d="M359.823,-168.368C357.402,-150.617 351.818,-109.666 348.536,-85.5974"/>
<polygon fill="midnightblue" stroke="midnightblue" points="351.991,-85.0268 347.172,-75.5914 345.055,-85.9726 351.991,-85.0268"/>
</g>
<!-- Node9&#45;&gt;Node10 -->
<g id="edge15" class="edge"><title>Node9&#45;&gt;Node10</title>
<path fill="none" stroke="midnightblue" d="M372.086,-168.324C382.486,-160.185 398.261,-147.839 410.722,-138.087"/>
<polygon fill="midnightblue" stroke="midnightblue" points="412.994,-140.753 418.712,-131.834 408.68,-135.241 412.994,-140.753"/>
</g>
<!-- Node10&#45;&gt;Node2 -->
<g id="edge16" class="edge"><title>Node10&#45;&gt;Node2</title>
<path fill="none" stroke="midnightblue" d="M433.365,-112.238C438.003,-98.5179 444.368,-71.8912 431,-56 402.822,-22.5035 271.455,-13.9396 207.359,-11.7509"/>
<polygon fill="midnightblue" stroke="midnightblue" points="207.413,-8.25099 197.31,-11.4414 207.197,-15.2477 207.413,-8.25099"/>
</g>
<!-- Node10&#45;&gt;Node8 -->
<g id="edge17" class="edge"><title>Node10&#45;&gt;Node8</title>
<path fill="none" stroke="midnightblue" d="M416.504,-112.324C403.4,-103.9 383.288,-90.9709 367.893,-81.0741"/>
<polygon fill="midnightblue" stroke="midnightblue" points="369.767,-78.118 359.463,-75.6545 365.982,-84.0063 369.767,-78.118"/>
</g>
</g>
</svg>
