<?xml version="1.0" encoding="UTF-8" standalone="no"?>
<!DOCTYPE svg PUBLIC "-//W3C//DTD SVG 1.1//EN"
 "http://www.w3.org/Graphics/SVG/1.1/DTD/svg11.dtd">
<!-- Generated by graphviz version 2.38.0 (20140413.2041)
 -->
<!-- Title: Model/player.hh Pages: 1 -->
<svg width="317pt" height="196pt"
 viewBox="0.00 0.00 316.50 196.00" xmlns="http://www.w3.org/2000/svg" xmlns:xlink="http://www.w3.org/1999/xlink">
<g id="graph0" class="graph" transform="scale(1 1) rotate(0) translate(4 192)">
<title>Model/player.hh</title>
<polygon fill="white" stroke="none" points="-4,4 -4,-192 312.5,-192 312.5,4 -4,4"/>
<!-- Node9 -->
<g id="node1" class="node"><title>Node9</title>
<polygon fill="#bfbfbf" stroke="black" points="107.5,-168.5 107.5,-187.5 193.5,-187.5 193.5,-168.5 107.5,-168.5"/>
<text text-anchor="middle" x="150.5" y="-175.5" font-family="Helvetica,sans-Serif" font-size="10.00">Model/player.hh</text>
</g>
<!-- Node10 -->
<g id="node2" class="node"><title>Node10</title>
<g id="a_node2"><a xlink:href="model_8hh.html" target="_top" xlink:title="Model/model.hh">
<polygon fill="white" stroke="black" points="25.5,-56.5 25.5,-75.5 111.5,-75.5 111.5,-56.5 25.5,-56.5"/>
<text text-anchor="middle" x="68.5" y="-63.5" font-family="Helvetica,sans-Serif" font-size="10.00">Model/model.hh</text>
</a>
</g>
</g>
<!-- Node9&#45;&gt;Node10 -->
<g id="edge1" class="edge"><title>Node9&#45;&gt;Node10</title>
<path fill="none" stroke="midnightblue" d="M123.67,-163.354C111.047,-155.699 96.7679,-145.052 87.5,-132 75.1114,-114.553 70.7346,-89.0606 69.2395,-75.7804"/>
<polygon fill="midnightblue" stroke="midnightblue" points="122.054,-166.462 132.472,-168.391 125.531,-160.386 122.054,-166.462"/>
</g>
<!-- Node13 -->
<g id="node5" class="node"><title>Node13</title>
<g id="a_node5"><a xlink:href="playerparty_8hh.html" target="_top" xlink:title="Model/playerparty.hh">
<polygon fill="white" stroke="black" points="97,-112.5 97,-131.5 204,-131.5 204,-112.5 97,-112.5"/>
<text text-anchor="middle" x="150.5" y="-119.5" font-family="Helvetica,sans-Serif" font-size="10.00">Model/playerparty.hh</text>
</a>
</g>
</g>
<!-- Node9&#45;&gt;Node13 -->
<g id="edge4" class="edge"><title>Node9&#45;&gt;Node13</title>
<path fill="none" stroke="midnightblue" d="M150.5,-157.805C150.5,-148.91 150.5,-138.78 150.5,-131.751"/>
<polygon fill="midnightblue" stroke="midnightblue" points="147,-158.083 150.5,-168.083 154,-158.083 147,-158.083"/>
</g>
<!-- Node15 -->
<g id="node7" class="node"><title>Node15</title>
<g id="a_node7"><a xlink:href="player_8cc.html" target="_top" xlink:title="Model/player.cc">
<polygon fill="white" stroke="black" points="222.5,-112.5 222.5,-131.5 308.5,-131.5 308.5,-112.5 222.5,-112.5"/>
<text text-anchor="middle" x="265.5" y="-119.5" font-family="Helvetica,sans-Serif" font-size="10.00">Model/player.cc</text>
</a>
</g>
</g>
<!-- Node9&#45;&gt;Node15 -->
<g id="edge7" class="edge"><title>Node9&#45;&gt;Node15</title>
<path fill="none" stroke="midnightblue" d="M177.981,-164.096C199.466,-154.007 228.722,-140.27 247.363,-131.516"/>
<polygon fill="midnightblue" stroke="midnightblue" points="176.286,-161.025 168.722,-168.444 179.262,-167.361 176.286,-161.025"/>
</g>
<!-- Node11 -->
<g id="node3" class="node"><title>Node11</title>
<g id="a_node3"><a xlink:href="main_8cc.html" target="_top" xlink:title="main.cc">
<polygon fill="white" stroke="black" points="0,-0.5 0,-19.5 51,-19.5 51,-0.5 0,-0.5"/>
<text text-anchor="middle" x="25.5" y="-7.5" font-family="Helvetica,sans-Serif" font-size="10.00">main.cc</text>
</a>
</g>
</g>
<!-- Node10&#45;&gt;Node11 -->
<g id="edge2" class="edge"><title>Node10&#45;&gt;Node11</title>
<path fill="none" stroke="midnightblue" d="M55.0776,-48.144C47.5858,-38.7357 38.5629,-27.4046 32.4685,-19.7511"/>
<polygon fill="midnightblue" stroke="midnightblue" points="52.4321,-50.4404 61.3994,-56.083 57.9081,-46.0799 52.4321,-50.4404"/>
</g>
<!-- Node12 -->
<g id="node4" class="node"><title>Node12</title>
<g id="a_node4"><a xlink:href="model_8cc.html" target="_top" xlink:title="Model/model.cc">
<polygon fill="white" stroke="black" points="69.5,-0.5 69.5,-19.5 155.5,-19.5 155.5,-0.5 69.5,-0.5"/>
<text text-anchor="middle" x="112.5" y="-7.5" font-family="Helvetica,sans-Serif" font-size="10.00">Model/model.cc</text>
</a>
</g>
</g>
<!-- Node10&#45;&gt;Node12 -->
<g id="edge3" class="edge"><title>Node10&#45;&gt;Node12</title>
<path fill="none" stroke="midnightblue" d="M82.2345,-48.144C89.9005,-38.7357 99.1333,-27.4046 105.369,-19.7511"/>
<polygon fill="midnightblue" stroke="midnightblue" points="79.3691,-46.1198 75.7657,-56.083 84.7958,-50.5415 79.3691,-46.1198"/>
</g>
<!-- Node13&#45;&gt;Node10 -->
<g id="edge5" class="edge"><title>Node13&#45;&gt;Node10</title>
<path fill="none" stroke="midnightblue" d="M128.667,-106.622C113.687,-96.7574 94.3025,-83.9919 81.642,-75.6545"/>
<polygon fill="midnightblue" stroke="midnightblue" points="127.049,-109.747 137.325,-112.324 130.899,-103.901 127.049,-109.747"/>
</g>
<!-- Node14 -->
<g id="node6" class="node"><title>Node14</title>
<g id="a_node6"><a xlink:href="playerparty_8cc.html" target="_top" xlink:title="Model/playerparty.cc">
<polygon fill="white" stroke="black" points="130,-56.5 130,-75.5 237,-75.5 237,-56.5 130,-56.5"/>
<text text-anchor="middle" x="183.5" y="-63.5" font-family="Helvetica,sans-Serif" font-size="10.00">Model/playerparty.cc</text>
</a>
</g>
</g>
<!-- Node13&#45;&gt;Node14 -->
<g id="edge6" class="edge"><title>Node13&#45;&gt;Node14</title>
<path fill="none" stroke="midnightblue" d="M161.332,-103.275C166.972,-94.0454 173.618,-83.1703 178.152,-75.7511"/>
<polygon fill="midnightblue" stroke="midnightblue" points="158.177,-101.725 155.949,-112.083 164.15,-105.375 158.177,-101.725"/>
</g>
</g>
</svg>
