<?xml version="1.0" encoding="UTF-8" standalone="no"?>
<!DOCTYPE svg PUBLIC "-//W3C//DTD SVG 1.1//EN"
 "http://www.w3.org/Graphics/SVG/1.1/DTD/svg11.dtd">
<!-- Generated by graphviz version 2.38.0 (20140413.2041)
 -->
<!-- Title: Model/playerparty.cc Pages: 1 -->
<svg width="651pt" height="364pt"
 viewBox="0.00 0.00 651.00 364.00" xmlns="http://www.w3.org/2000/svg" xmlns:xlink="http://www.w3.org/1999/xlink">
<g id="graph0" class="graph" transform="scale(1 1) rotate(0) translate(4 360)">
<title>Model/playerparty.cc</title>
<polygon fill="white" stroke="none" points="-4,4 -4,-360 647,-360 647,4 -4,4"/>
<!-- Node0 -->
<g id="node1" class="node"><title>Node0</title>
<polygon fill="#bfbfbf" stroke="black" points="335.5,-336.5 335.5,-355.5 442.5,-355.5 442.5,-336.5 335.5,-336.5"/>
<text text-anchor="middle" x="389" y="-343.5" font-family="Helvetica,sans-Serif" font-size="10.00">Model/playerparty.cc</text>
</g>
<!-- Node1 -->
<g id="node2" class="node"><title>Node1</title>
<polygon fill="white" stroke="#bfbfbf" points="280,-280.5 280,-299.5 332,-299.5 332,-280.5 280,-280.5"/>
<text text-anchor="middle" x="306" y="-287.5" font-family="Helvetica,sans-Serif" font-size="10.00">QDebug</text>
</g>
<!-- Node0&#45;&gt;Node1 -->
<g id="edge1" class="edge"><title>Node0&#45;&gt;Node1</title>
<path fill="none" stroke="midnightblue" d="M375.665,-336.324C362.838,-327.979 343.215,-315.212 328.06,-305.352"/>
<polygon fill="midnightblue" stroke="midnightblue" points="329.593,-302.174 319.302,-299.655 325.776,-308.042 329.593,-302.174"/>
</g>
<!-- Node2 -->
<g id="node3" class="node"><title>Node2</title>
<polygon fill="white" stroke="#bfbfbf" points="283,-0.5 283,-19.5 333,-19.5 333,-0.5 283,-0.5"/>
<text text-anchor="middle" x="308" y="-7.5" font-family="Helvetica,sans-Serif" font-size="10.00">QString</text>
</g>
<!-- Node0&#45;&gt;Node2 -->
<g id="edge2" class="edge"><title>Node0&#45;&gt;Node2</title>
<path fill="none" stroke="midnightblue" d="M442.556,-344.558C517.077,-340.794 643,-321.619 643,-235 643,-235 643,-235 643,-121 643,-58.4165 429.287,-25.6316 343.253,-14.9691"/>
<polygon fill="midnightblue" stroke="midnightblue" points="343.528,-11.4768 333.179,-13.7498 342.686,-18.4261 343.528,-11.4768"/>
</g>
<!-- Node3 -->
<g id="node4" class="node"><title>Node3</title>
<g id="a_node4"><a xlink:href="playerparty_8hh.html" target="_top" xlink:title="playerparty.hh">
<polygon fill="white" stroke="black" points="350,-280.5 350,-299.5 428,-299.5 428,-280.5 350,-280.5"/>
<text text-anchor="middle" x="389" y="-287.5" font-family="Helvetica,sans-Serif" font-size="10.00">playerparty.hh</text>
</a>
</g>
</g>
<!-- Node0&#45;&gt;Node3 -->
<g id="edge3" class="edge"><title>Node0&#45;&gt;Node3</title>
<path fill="none" stroke="midnightblue" d="M389,-336.083C389,-329.006 389,-318.861 389,-309.986"/>
<polygon fill="midnightblue" stroke="midnightblue" points="392.5,-309.751 389,-299.751 385.5,-309.751 392.5,-309.751"/>
</g>
<!-- Node3&#45;&gt;Node2 -->
<g id="edge6" class="edge"><title>Node3&#45;&gt;Node2</title>
<path fill="none" stroke="midnightblue" d="M426.968,-280.411C446.408,-273.883 468.376,-262.715 480,-244 484.69,-236.449 482.505,-232.529 480,-224 453.726,-134.541 366.725,-57.1149 327.491,-25.808"/>
<polygon fill="midnightblue" stroke="midnightblue" points="329.486,-22.9244 319.456,-19.5109 325.168,-28.4341 329.486,-22.9244"/>
</g>
<!-- Node4 -->
<g id="node5" class="node"><title>Node4</title>
<polygon fill="white" stroke="#bfbfbf" points="305,-168.5 305,-187.5 359,-187.5 359,-168.5 305,-168.5"/>
<text text-anchor="middle" x="332" y="-175.5" font-family="Helvetica,sans-Serif" font-size="10.00">iostream</text>
</g>
<!-- Node3&#45;&gt;Node4 -->
<g id="edge4" class="edge"><title>Node3&#45;&gt;Node4</title>
<path fill="none" stroke="midnightblue" d="M384.527,-280.368C375.204,-262.376 353.531,-220.55 341.134,-196.627"/>
<polygon fill="midnightblue" stroke="midnightblue" points="344.16,-194.86 336.452,-187.591 337.945,-198.081 344.16,-194.86"/>
</g>
<!-- Node5 -->
<g id="node6" class="node"><title>Node5</title>
<polygon fill="white" stroke="#bfbfbf" points="377,-168.5 377,-187.5 419,-187.5 419,-168.5 377,-168.5"/>
<text text-anchor="middle" x="398" y="-175.5" font-family="Helvetica,sans-Serif" font-size="10.00">vector</text>
</g>
<!-- Node3&#45;&gt;Node5 -->
<g id="edge5" class="edge"><title>Node3&#45;&gt;Node5</title>
<path fill="none" stroke="midnightblue" d="M389.646,-280.166C390.568,-267.659 392.336,-244.077 394,-224 394.714,-215.393 395.553,-205.865 396.279,-197.801"/>
<polygon fill="midnightblue" stroke="midnightblue" points="399.784,-197.9 397.203,-187.624 392.813,-197.267 399.784,-197.9"/>
</g>
<!-- Node6 -->
<g id="node7" class="node"><title>Node6</title>
<polygon fill="white" stroke="#bfbfbf" points="436.5,-224.5 436.5,-243.5 471.5,-243.5 471.5,-224.5 436.5,-224.5"/>
<text text-anchor="middle" x="454" y="-231.5" font-family="Helvetica,sans-Serif" font-size="10.00">map</text>
</g>
<!-- Node3&#45;&gt;Node6 -->
<g id="edge7" class="edge"><title>Node3&#45;&gt;Node6</title>
<path fill="none" stroke="midnightblue" d="M399.443,-280.324C409.146,-272.263 423.815,-260.077 435.5,-250.369"/>
<polygon fill="midnightblue" stroke="midnightblue" points="437.911,-252.916 443.367,-243.834 433.438,-247.532 437.911,-252.916"/>
</g>
<!-- Node7 -->
<g id="node8" class="node"><title>Node7</title>
<g id="a_node8"><a xlink:href="actorinterface_8hh.html" target="_top" xlink:title="M채채rittelee yhden toimijan operaatioiden rajapintaluokan. ">
<polygon fill="white" stroke="black" points="0,-112.5 0,-131.5 128,-131.5 128,-112.5 0,-112.5"/>
<text text-anchor="middle" x="64" y="-119.5" font-family="Helvetica,sans-Serif" font-size="10.00">Interface/actorinterface.hh</text>
</a>
</g>
</g>
<!-- Node3&#45;&gt;Node7 -->
<g id="edge8" class="edge"><title>Node3&#45;&gt;Node7</title>
<path fill="none" stroke="midnightblue" d="M349.646,-281.613C312.333,-274.064 255.004,-261.041 207,-244 151.915,-224.445 127.514,-231.073 88,-188 76.1935,-175.13 70.0593,-155.951 66.961,-141.759"/>
<polygon fill="midnightblue" stroke="midnightblue" points="70.3519,-140.85 65.0767,-131.662 63.4707,-142.134 70.3519,-140.85"/>
</g>
<!-- Node10 -->
<g id="node11" class="node"><title>Node10</title>
<g id="a_node11"><a xlink:href="parkinghallinterface_8hh.html" target="_top" xlink:title="Interface/parkinghallinterface.hh">
<polygon fill="white" stroke="black" points="461.5,-112.5 461.5,-131.5 614.5,-131.5 614.5,-112.5 461.5,-112.5"/>
<text text-anchor="middle" x="538" y="-119.5" font-family="Helvetica,sans-Serif" font-size="10.00">Interface/parkinghallinterface.hh</text>
</a>
</g>
</g>
<!-- Node3&#45;&gt;Node10 -->
<g id="edge13" class="edge"><title>Node3&#45;&gt;Node10</title>
<path fill="none" stroke="midnightblue" d="M428.284,-284.999C456.26,-280.035 492.563,-268.914 514,-244 538.944,-215.01 540.766,-167.588 539.587,-141.554"/>
<polygon fill="midnightblue" stroke="midnightblue" points="543.077,-141.281 538.931,-131.531 536.092,-141.738 543.077,-141.281"/>
</g>
<!-- Node11 -->
<g id="node12" class="node"><title>Node11</title>
<g id="a_node12"><a xlink:href="equipment_8hh.html" target="_top" xlink:title="equipment.hh">
<polygon fill="white" stroke="black" points="267.5,-112.5 267.5,-131.5 342.5,-131.5 342.5,-112.5 267.5,-112.5"/>
<text text-anchor="middle" x="305" y="-119.5" font-family="Helvetica,sans-Serif" font-size="10.00">equipment.hh</text>
</a>
</g>
</g>
<!-- Node3&#45;&gt;Node11 -->
<g id="edge15" class="edge"><title>Node3&#45;&gt;Node11</title>
<path fill="none" stroke="midnightblue" d="M393.797,-280.174C406.858,-255.59 441.213,-186.904 428,-168 411.078,-143.79 379.658,-132.563 352.811,-127.376"/>
<polygon fill="midnightblue" stroke="midnightblue" points="353.231,-123.898 342.785,-125.67 352.056,-130.798 353.231,-123.898"/>
</g>
<!-- Node12 -->
<g id="node13" class="node"><title>Node12</title>
<g id="a_node13"><a xlink:href="player_8hh.html" target="_top" xlink:title="player.hh">
<polygon fill="white" stroke="black" points="248,-224.5 248,-243.5 304,-243.5 304,-224.5 248,-224.5"/>
<text text-anchor="middle" x="276" y="-231.5" font-family="Helvetica,sans-Serif" font-size="10.00">player.hh</text>
</a>
</g>
</g>
<!-- Node3&#45;&gt;Node12 -->
<g id="edge18" class="edge"><title>Node3&#45;&gt;Node12</title>
<path fill="none" stroke="midnightblue" d="M371.095,-280.444C352.746,-271.675 323.995,-257.935 302.906,-247.858"/>
<polygon fill="midnightblue" stroke="midnightblue" points="304.353,-244.67 293.821,-243.516 301.335,-250.986 304.353,-244.67"/>
</g>
<!-- Node13 -->
<g id="node14" class="node"><title>Node13</title>
<g id="a_node14"><a xlink:href="cyberteekkari_8hh.html" target="_top" xlink:title="cyberteekkari.hh">
<polygon fill="white" stroke="black" points="121.5,-168.5 121.5,-187.5 210.5,-187.5 210.5,-168.5 121.5,-168.5"/>
<text text-anchor="middle" x="166" y="-175.5" font-family="Helvetica,sans-Serif" font-size="10.00">cyberteekkari.hh</text>
</a>
</g>
</g>
<!-- Node3&#45;&gt;Node13 -->
<g id="edge28" class="edge"><title>Node3&#45;&gt;Node13</title>
<path fill="none" stroke="midnightblue" d="M354.403,-280.48C316.613,-270.849 258.819,-255.072 239,-244 216.214,-231.27 194.456,-210.372 180.717,-195.717"/>
<polygon fill="midnightblue" stroke="midnightblue" points="182.93,-192.95 173.607,-187.919 177.758,-197.667 182.93,-192.95"/>
</g>
<!-- Node7&#45;&gt;Node2 -->
<g id="edge9" class="edge"><title>Node7&#45;&gt;Node2</title>
<path fill="none" stroke="midnightblue" d="M48.2419,-112.469C27.0563,-99.9342 -6.08816,-75.8723 11,-56 44.393,-17.1663 201.382,-11.4327 272.65,-10.8674"/>
<polygon fill="midnightblue" stroke="midnightblue" points="272.937,-14.3661 282.919,-10.8174 272.902,-7.3662 272.937,-14.3661"/>
</g>
<!-- Node8 -->
<g id="node9" class="node"><title>Node8</title>
<polygon fill="white" stroke="#bfbfbf" points="20,-56.5 20,-75.5 72,-75.5 72,-56.5 20,-56.5"/>
<text text-anchor="middle" x="46" y="-63.5" font-family="Helvetica,sans-Serif" font-size="10.00">memory</text>
</g>
<!-- Node7&#45;&gt;Node8 -->
<g id="edge10" class="edge"><title>Node7&#45;&gt;Node8</title>
<path fill="none" stroke="midnightblue" d="M61.0277,-112.083C58.6162,-104.849 55.1362,-94.4087 52.1323,-85.3968"/>
<polygon fill="midnightblue" stroke="midnightblue" points="55.3998,-84.1311 48.917,-75.7511 48.759,-86.3447 55.3998,-84.1311"/>
</g>
<!-- Node9 -->
<g id="node10" class="node"><title>Node9</title>
<g id="a_node10"><a xlink:href="equipmentinterface_8hh.html" target="_top" xlink:title="M채채rittelee yhden tavaran (Equipment) operaatioiden rajapintaluokan. ">
<polygon fill="white" stroke="black" points="90,-56.5 90,-75.5 242,-75.5 242,-56.5 90,-56.5"/>
<text text-anchor="middle" x="166" y="-63.5" font-family="Helvetica,sans-Serif" font-size="10.00">Interface/equipmentinterface.hh</text>
</a>
</g>
</g>
<!-- Node7&#45;&gt;Node9 -->
<g id="edge11" class="edge"><title>Node7&#45;&gt;Node9</title>
<path fill="none" stroke="midnightblue" d="M80.3881,-112.324C96.6713,-103.703 121.867,-90.3643 140.716,-80.3855"/>
<polygon fill="midnightblue" stroke="midnightblue" points="142.452,-83.4267 149.653,-75.6545 139.177,-77.2402 142.452,-83.4267"/>
</g>
<!-- Node9&#45;&gt;Node2 -->
<g id="edge12" class="edge"><title>Node9&#45;&gt;Node2</title>
<path fill="none" stroke="midnightblue" d="M188.5,-56.4435C212.077,-47.4776 249.322,-33.314 275.964,-23.1827"/>
<polygon fill="midnightblue" stroke="midnightblue" points="277.502,-26.3424 285.605,-19.5164 275.014,-19.7995 277.502,-26.3424"/>
</g>
<!-- Node10&#45;&gt;Node2 -->
<g id="edge14" class="edge"><title>Node10&#45;&gt;Node2</title>
<path fill="none" stroke="midnightblue" d="M528.025,-112.281C511.957,-98.6199 478.904,-72.0726 447,-56 413.308,-39.0262 371.845,-26.5858 343.015,-19.1407"/>
<polygon fill="midnightblue" stroke="midnightblue" points="343.554,-15.6674 333.002,-16.6246 341.848,-22.4563 343.554,-15.6674"/>
</g>
<!-- Node11&#45;&gt;Node2 -->
<g id="edge16" class="edge"><title>Node11&#45;&gt;Node2</title>
<path fill="none" stroke="midnightblue" d="M305.235,-112.368C305.72,-94.617 306.836,-53.6664 307.493,-29.5974"/>
<polygon fill="midnightblue" stroke="midnightblue" points="310.992,-29.6832 307.766,-19.5914 303.994,-29.4922 310.992,-29.6832"/>
</g>
<!-- Node11&#45;&gt;Node9 -->
<g id="edge17" class="edge"><title>Node11&#45;&gt;Node9</title>
<path fill="none" stroke="midnightblue" d="M282.975,-112.444C259.896,-103.478 223.438,-89.314 197.359,-79.1827"/>
<polygon fill="midnightblue" stroke="midnightblue" points="198.511,-75.8753 187.922,-75.5164 195.976,-82.4002 198.511,-75.8753"/>
</g>
<!-- Node12&#45;&gt;Node2 -->
<g id="edge21" class="edge"><title>Node12&#45;&gt;Node2</title>
<path fill="none" stroke="midnightblue" d="M272.518,-224.4C264.918,-204.453 248.275,-153.566 258,-112 265.36,-80.5454 284.024,-47.6525 296.35,-28.2602"/>
<polygon fill="midnightblue" stroke="midnightblue" points="299.429,-29.9453 301.969,-19.6593 293.569,-26.1165 299.429,-29.9453"/>
</g>
<!-- Node12&#45;&gt;Node4 -->
<g id="edge19" class="edge"><title>Node12&#45;&gt;Node4</title>
<path fill="none" stroke="midnightblue" d="M284.997,-224.324C293.194,-216.42 305.506,-204.548 315.472,-194.938"/>
<polygon fill="midnightblue" stroke="midnightblue" points="318.07,-197.295 322.839,-187.834 313.211,-192.256 318.07,-197.295"/>
</g>
<!-- Node12&#45;&gt;Node5 -->
<g id="edge20" class="edge"><title>Node12&#45;&gt;Node5</title>
<path fill="none" stroke="midnightblue" d="M295.331,-224.444C315.32,-215.596 346.743,-201.687 369.564,-191.586"/>
<polygon fill="midnightblue" stroke="midnightblue" points="371.032,-194.764 378.759,-187.516 368.198,-188.363 371.032,-194.764"/>
</g>
<!-- Node12&#45;&gt;Node7 -->
<g id="edge22" class="edge"><title>Node12&#45;&gt;Node7</title>
<path fill="none" stroke="midnightblue" d="M247.839,-230.89C213.167,-227.105 153.755,-216.643 112,-188 94.5179,-176.008 80.9487,-155.522 72.7649,-140.75"/>
<polygon fill="midnightblue" stroke="midnightblue" points="75.7183,-138.846 67.9777,-131.611 69.5175,-142.094 75.7183,-138.846"/>
</g>
<!-- Node12&#45;&gt;Node11 -->
<g id="edge27" class="edge"><title>Node12&#45;&gt;Node11</title>
<path fill="none" stroke="midnightblue" d="M278.276,-224.368C282.977,-206.537 293.849,-165.295 300.183,-141.272"/>
<polygon fill="midnightblue" stroke="midnightblue" points="303.57,-142.153 302.735,-131.591 296.801,-140.369 303.57,-142.153"/>
</g>
<!-- Node12&#45;&gt;Node13 -->
<g id="edge23" class="edge"><title>Node12&#45;&gt;Node13</title>
<path fill="none" stroke="midnightblue" d="M258.327,-224.324C240.606,-215.625 213.097,-202.12 192.712,-192.113"/>
<polygon fill="midnightblue" stroke="midnightblue" points="194.149,-188.919 183.63,-187.655 191.064,-195.203 194.149,-188.919"/>
</g>
<!-- Node13&#45;&gt;Node7 -->
<g id="edge24" class="edge"><title>Node13&#45;&gt;Node7</title>
<path fill="none" stroke="midnightblue" d="M149.612,-168.324C133.329,-159.703 108.133,-146.364 89.2837,-136.386"/>
<polygon fill="midnightblue" stroke="midnightblue" points="90.8229,-133.24 80.3474,-131.655 87.5477,-139.427 90.8229,-133.24"/>
</g>
<!-- Node13&#45;&gt;Node9 -->
<g id="edge25" class="edge"><title>Node13&#45;&gt;Node9</title>
<path fill="none" stroke="midnightblue" d="M166,-168.368C166,-150.617 166,-109.666 166,-85.5974"/>
<polygon fill="midnightblue" stroke="midnightblue" points="169.5,-85.5914 166,-75.5914 162.5,-85.5915 169.5,-85.5914"/>
</g>
<!-- Node13&#45;&gt;Node11 -->
<g id="edge26" class="edge"><title>Node13&#45;&gt;Node11</title>
<path fill="none" stroke="midnightblue" d="M188.025,-168.444C211.104,-159.478 247.562,-145.314 273.641,-135.183"/>
<polygon fill="midnightblue" stroke="midnightblue" points="275.024,-138.4 283.078,-131.516 272.489,-131.875 275.024,-138.4"/>
</g>
</g>
</svg>
