<?xml version="1.0" encoding="UTF-8" standalone="no"?>
<!DOCTYPE svg PUBLIC "-//W3C//DTD SVG 1.1//EN"
 "http://www.w3.org/Graphics/SVG/1.1/DTD/svg11.dtd">
<!-- Generated by graphviz version 2.38.0 (20140413.2041)
 -->
<!-- Title: Model/roomgenerator.hh Pages: 1 -->
<svg width="843pt" height="140pt"
 viewBox="0.00 0.00 843.00 140.00" xmlns="http://www.w3.org/2000/svg" xmlns:xlink="http://www.w3.org/1999/xlink">
<g id="graph0" class="graph" transform="scale(1 1) rotate(0) translate(4 136)">
<title>Model/roomgenerator.hh</title>
<polygon fill="white" stroke="none" points="-4,4 -4,-136 839,-136 839,4 -4,4"/>
<!-- Node11 -->
<g id="node1" class="node"><title>Node11</title>
<polygon fill="#bfbfbf" stroke="black" points="276,-112.5 276,-131.5 398,-131.5 398,-112.5 276,-112.5"/>
<text text-anchor="middle" x="337" y="-119.5" font-family="Helvetica,sans-Serif" font-size="10.00">Model/roomgenerator.hh</text>
</g>
<!-- Node12 -->
<g id="node2" class="node"><title>Node12</title>
<g id="a_node2"><a xlink:href="controller_8cc.html" target="_top" xlink:title="Controller/controller.cc">
<polygon fill="white" stroke="black" points="0,-56.5 0,-75.5 114,-75.5 114,-56.5 0,-56.5"/>
<text text-anchor="middle" x="57" y="-63.5" font-family="Helvetica,sans-Serif" font-size="10.00">Controller/controller.cc</text>
</a>
</g>
</g>
<!-- Node11&#45;&gt;Node12 -->
<g id="edge1" class="edge"><title>Node11&#45;&gt;Node12</title>
<path fill="none" stroke="midnightblue" d="M282.748,-110.537C229.83,-100.332 150.329,-84.9992 101.159,-75.5164"/>
<polygon fill="midnightblue" stroke="midnightblue" points="282.151,-113.986 292.633,-112.444 283.477,-107.113 282.151,-113.986"/>
</g>
<!-- Node13 -->
<g id="node3" class="node"><title>Node13</title>
<g id="a_node3"><a xlink:href="model_8hh.html" target="_top" xlink:title="Model/model.hh">
<polygon fill="white" stroke="black" points="132,-56.5 132,-75.5 218,-75.5 218,-56.5 132,-56.5"/>
<text text-anchor="middle" x="175" y="-63.5" font-family="Helvetica,sans-Serif" font-size="10.00">Model/model.hh</text>
</a>
</g>
</g>
<!-- Node11&#45;&gt;Node13 -->
<g id="edge2" class="edge"><title>Node11&#45;&gt;Node13</title>
<path fill="none" stroke="midnightblue" d="M301.516,-109.172C271.012,-99.0039 227.755,-84.5852 200.549,-75.5164"/>
<polygon fill="midnightblue" stroke="midnightblue" points="300.737,-112.602 311.331,-112.444 302.951,-105.961 300.737,-112.602"/>
</g>
<!-- Node15 -->
<g id="node5" class="node"><title>Node15</title>
<g id="a_node5"><a xlink:href="model_8cc.html" target="_top" xlink:title="Model/model.cc">
<polygon fill="white" stroke="black" points="203,-0.5 203,-19.5 289,-19.5 289,-0.5 203,-0.5"/>
<text text-anchor="middle" x="246" y="-7.5" font-family="Helvetica,sans-Serif" font-size="10.00">Model/model.cc</text>
</a>
</g>
</g>
<!-- Node11&#45;&gt;Node15 -->
<g id="edge7" class="edge"><title>Node11&#45;&gt;Node15</title>
<path fill="none" stroke="midnightblue" d="M305.991,-107.979C291.655,-100.532 275.514,-89.8797 265,-76 252.08,-58.9436 247.927,-33.2862 246.606,-19.8782"/>
<polygon fill="midnightblue" stroke="midnightblue" points="304.553,-111.172 315.075,-112.413 307.623,-104.881 304.553,-111.172"/>
</g>
<!-- Node16 -->
<g id="node6" class="node"><title>Node16</title>
<g id="a_node6"><a xlink:href="layoutgenerator_8cc.html" target="_top" xlink:title="Model/layoutgenerator.cc">
<polygon fill="white" stroke="black" points="274,-56.5 274,-75.5 400,-75.5 400,-56.5 274,-56.5"/>
<text text-anchor="middle" x="337" y="-63.5" font-family="Helvetica,sans-Serif" font-size="10.00">Model/layoutgenerator.cc</text>
</a>
</g>
</g>
<!-- Node11&#45;&gt;Node16 -->
<g id="edge5" class="edge"><title>Node11&#45;&gt;Node16</title>
<path fill="none" stroke="midnightblue" d="M337,-101.805C337,-92.9102 337,-82.7798 337,-75.7511"/>
<polygon fill="midnightblue" stroke="midnightblue" points="333.5,-102.083 337,-112.083 340.5,-102.083 333.5,-102.083"/>
</g>
<!-- Node17 -->
<g id="node7" class="node"><title>Node17</title>
<g id="a_node7"><a xlink:href="mapprocessor_8cc.html" target="_top" xlink:title="Model/mapprocessor.cc">
<polygon fill="white" stroke="black" points="418.5,-56.5 418.5,-75.5 539.5,-75.5 539.5,-56.5 418.5,-56.5"/>
<text text-anchor="middle" x="479" y="-63.5" font-family="Helvetica,sans-Serif" font-size="10.00">Model/mapprocessor.cc</text>
</a>
</g>
</g>
<!-- Node11&#45;&gt;Node17 -->
<g id="edge6" class="edge"><title>Node11&#45;&gt;Node17</title>
<path fill="none" stroke="midnightblue" d="M369.155,-108.772C395.828,-98.6287 433.069,-84.4669 456.605,-75.5164"/>
<polygon fill="midnightblue" stroke="midnightblue" points="367.603,-105.618 359.5,-112.444 370.091,-112.16 367.603,-105.618"/>
</g>
<!-- Node18 -->
<g id="node8" class="node"><title>Node18</title>
<g id="a_node8"><a xlink:href="parkspaceinserter_8cc.html" target="_top" xlink:title="Model/parkspaceinserter.cc">
<polygon fill="white" stroke="black" points="557.5,-56.5 557.5,-75.5 694.5,-75.5 694.5,-56.5 557.5,-56.5"/>
<text text-anchor="middle" x="626" y="-63.5" font-family="Helvetica,sans-Serif" font-size="10.00">Model/parkspaceinserter.cc</text>
</a>
</g>
</g>
<!-- Node11&#45;&gt;Node18 -->
<g id="edge8" class="edge"><title>Node11&#45;&gt;Node18</title>
<path fill="none" stroke="midnightblue" d="M392.655,-110.601C447.273,-100.395 529.566,-85.0189 580.421,-75.5164"/>
<polygon fill="midnightblue" stroke="midnightblue" points="391.98,-107.166 382.793,-112.444 393.266,-114.047 391.98,-107.166"/>
</g>
<!-- Node19 -->
<g id="node9" class="node"><title>Node19</title>
<g id="a_node9"><a xlink:href="roomgenerator_8cc.html" target="_top" xlink:title="Model/roomgenerator.cc">
<polygon fill="white" stroke="black" points="713,-56.5 713,-75.5 835,-75.5 835,-56.5 713,-56.5"/>
<text text-anchor="middle" x="774" y="-63.5" font-family="Helvetica,sans-Serif" font-size="10.00">Model/roomgenerator.cc</text>
</a>
</g>
</g>
<!-- Node11&#45;&gt;Node19 -->
<g id="edge9" class="edge"><title>Node11&#45;&gt;Node19</title>
<path fill="none" stroke="midnightblue" d="M408.183,-112.397C482.134,-103.43 601.196,-88.9114 704,-76 706.918,-75.6336 709.904,-75.2567 712.919,-74.8746"/>
<polygon fill="midnightblue" stroke="midnightblue" points="407.56,-108.947 398.054,-113.625 408.403,-115.896 407.56,-108.947"/>
</g>
<!-- Node14 -->
<g id="node4" class="node"><title>Node14</title>
<g id="a_node4"><a xlink:href="main_8cc.html" target="_top" xlink:title="main.cc">
<polygon fill="white" stroke="black" points="133.5,-0.5 133.5,-19.5 184.5,-19.5 184.5,-0.5 133.5,-0.5"/>
<text text-anchor="middle" x="159" y="-7.5" font-family="Helvetica,sans-Serif" font-size="10.00">main.cc</text>
</a>
</g>
</g>
<!-- Node13&#45;&gt;Node14 -->
<g id="edge3" class="edge"><title>Node13&#45;&gt;Node14</title>
<path fill="none" stroke="midnightblue" d="M169.488,-46.3956C166.811,-37.362 163.722,-26.936 161.593,-19.7511"/>
<polygon fill="midnightblue" stroke="midnightblue" points="166.161,-47.4893 172.358,-56.083 172.873,-45.5007 166.161,-47.4893"/>
</g>
<!-- Node13&#45;&gt;Node15 -->
<g id="edge4" class="edge"><title>Node13&#45;&gt;Node15</title>
<path fill="none" stroke="midnightblue" d="M194.59,-50.1008C207.368,-40.3824 223.613,-28.0269 234.385,-19.8339"/>
<polygon fill="midnightblue" stroke="midnightblue" points="192.248,-47.4844 186.407,-56.324 196.486,-53.0561 192.248,-47.4844"/>
</g>
</g>
</svg>
