<?xml version="1.0" encoding="UTF-8" standalone="no"?>
<!DOCTYPE svg PUBLIC "-//W3C//DTD SVG 1.1//EN"
 "http://www.w3.org/Graphics/SVG/1.1/DTD/svg11.dtd">
<!-- Generated by graphviz version 2.38.0 (20140413.2041)
 -->
<!-- Title: Model/roomgenerator.hh Pages: 1 -->
<svg width="711pt" height="140pt"
 viewBox="0.00 0.00 711.00 140.00" xmlns="http://www.w3.org/2000/svg" xmlns:xlink="http://www.w3.org/1999/xlink">
<g id="graph0" class="graph" transform="scale(1 1) rotate(0) translate(4 136)">
<title>Model/roomgenerator.hh</title>
<polygon fill="white" stroke="none" points="-4,4 -4,-136 707,-136 707,4 -4,4"/>
<!-- Node11 -->
<g id="node1" class="node"><title>Node11</title>
<polygon fill="#bfbfbf" stroke="black" points="215,-112.5 215,-131.5 337,-131.5 337,-112.5 215,-112.5"/>
<text text-anchor="middle" x="276" y="-119.5" font-family="Helvetica,sans-Serif" font-size="10.00">Model/roomgenerator.hh</text>
</g>
<!-- Node12 -->
<g id="node2" class="node"><title>Node12</title>
<g id="a_node2"><a xlink:href="model_8hh.html" target="_top" xlink:title="Model/model.hh">
<polygon fill="white" stroke="black" points="0,-56.5 0,-75.5 86,-75.5 86,-56.5 0,-56.5"/>
<text text-anchor="middle" x="43" y="-63.5" font-family="Helvetica,sans-Serif" font-size="10.00">Model/model.hh</text>
</a>
</g>
</g>
<!-- Node11&#45;&gt;Node12 -->
<g id="edge1" class="edge"><title>Node11&#45;&gt;Node12</title>
<path fill="none" stroke="midnightblue" d="M229.197,-110.153C185.173,-99.95 120.153,-84.8809 79.7468,-75.5164"/>
<polygon fill="midnightblue" stroke="midnightblue" points="228.548,-113.595 239.08,-112.444 230.129,-106.776 228.548,-113.595"/>
</g>
<!-- Node14 -->
<g id="node4" class="node"><title>Node14</title>
<g id="a_node4"><a xlink:href="model_8cc.html" target="_top" xlink:title="Model/model.cc">
<polygon fill="white" stroke="black" points="71,-0.5 71,-19.5 157,-19.5 157,-0.5 71,-0.5"/>
<text text-anchor="middle" x="114" y="-7.5" font-family="Helvetica,sans-Serif" font-size="10.00">Model/model.cc</text>
</a>
</g>
</g>
<!-- Node11&#45;&gt;Node14 -->
<g id="edge6" class="edge"><title>Node11&#45;&gt;Node14</title>
<path fill="none" stroke="midnightblue" d="M204.787,-112.726C179.185,-106.423 151.974,-95.3668 133,-76 117.861,-60.5474 114.669,-33.7288 114.071,-19.8657"/>
<polygon fill="midnightblue" stroke="midnightblue" points="204.351,-116.215 214.875,-114.993 205.885,-109.386 204.351,-116.215"/>
</g>
<!-- Node15 -->
<g id="node5" class="node"><title>Node15</title>
<g id="a_node5"><a xlink:href="layoutgenerator_8cc.html" target="_top" xlink:title="Model/layoutgenerator.cc">
<polygon fill="white" stroke="black" points="142,-56.5 142,-75.5 268,-75.5 268,-56.5 142,-56.5"/>
<text text-anchor="middle" x="205" y="-63.5" font-family="Helvetica,sans-Serif" font-size="10.00">Model/layoutgenerator.cc</text>
</a>
</g>
</g>
<!-- Node11&#45;&gt;Node15 -->
<g id="edge4" class="edge"><title>Node11&#45;&gt;Node15</title>
<path fill="none" stroke="midnightblue" d="M256.41,-106.101C243.632,-96.3824 227.387,-84.0269 216.615,-75.8339"/>
<polygon fill="midnightblue" stroke="midnightblue" points="254.514,-109.056 264.593,-112.324 258.752,-103.484 254.514,-109.056"/>
</g>
<!-- Node16 -->
<g id="node6" class="node"><title>Node16</title>
<g id="a_node6"><a xlink:href="mapprocessor_8cc.html" target="_top" xlink:title="Model/mapprocessor.cc">
<polygon fill="white" stroke="black" points="286.5,-56.5 286.5,-75.5 407.5,-75.5 407.5,-56.5 286.5,-56.5"/>
<text text-anchor="middle" x="347" y="-63.5" font-family="Helvetica,sans-Serif" font-size="10.00">Model/mapprocessor.cc</text>
</a>
</g>
</g>
<!-- Node11&#45;&gt;Node16 -->
<g id="edge5" class="edge"><title>Node11&#45;&gt;Node16</title>
<path fill="none" stroke="midnightblue" d="M295.59,-106.101C308.368,-96.3824 324.613,-84.0269 335.385,-75.8339"/>
<polygon fill="midnightblue" stroke="midnightblue" points="293.248,-103.484 287.407,-112.324 297.486,-109.056 293.248,-103.484"/>
</g>
<!-- Node17 -->
<g id="node7" class="node"><title>Node17</title>
<g id="a_node7"><a xlink:href="parkspaceinserter_8cc.html" target="_top" xlink:title="Model/parkspaceinserter.cc">
<polygon fill="white" stroke="black" points="425.5,-56.5 425.5,-75.5 562.5,-75.5 562.5,-56.5 425.5,-56.5"/>
<text text-anchor="middle" x="494" y="-63.5" font-family="Helvetica,sans-Serif" font-size="10.00">Model/parkspaceinserter.cc</text>
</a>
</g>
</g>
<!-- Node11&#45;&gt;Node17 -->
<g id="edge7" class="edge"><title>Node11&#45;&gt;Node17</title>
<path fill="none" stroke="midnightblue" d="M320.312,-110.024C361.492,-99.8232 421.973,-84.8414 459.619,-75.5164"/>
<polygon fill="midnightblue" stroke="midnightblue" points="319.408,-106.642 310.543,-112.444 321.091,-113.436 319.408,-106.642"/>
</g>
<!-- Node18 -->
<g id="node8" class="node"><title>Node18</title>
<g id="a_node8"><a xlink:href="roomgenerator_8cc.html" target="_top" xlink:title="Model/roomgenerator.cc">
<polygon fill="white" stroke="black" points="581,-56.5 581,-75.5 703,-75.5 703,-56.5 581,-56.5"/>
<text text-anchor="middle" x="642" y="-63.5" font-family="Helvetica,sans-Serif" font-size="10.00">Model/roomgenerator.cc</text>
</a>
</g>
</g>
<!-- Node11&#45;&gt;Node18 -->
<g id="edge8" class="edge"><title>Node11&#45;&gt;Node18</title>
<path fill="none" stroke="midnightblue" d="M343.917,-110.979C413.053,-100.779 519.07,-85.1372 584.278,-75.5164"/>
<polygon fill="midnightblue" stroke="midnightblue" points="343.376,-107.521 333.994,-112.444 344.398,-114.446 343.376,-107.521"/>
</g>
<!-- Node13 -->
<g id="node3" class="node"><title>Node13</title>
<g id="a_node3"><a xlink:href="main_8cc.html" target="_top" xlink:title="main.cc">
<polygon fill="white" stroke="black" points="1.5,-0.5 1.5,-19.5 52.5,-19.5 52.5,-0.5 1.5,-0.5"/>
<text text-anchor="middle" x="27" y="-7.5" font-family="Helvetica,sans-Serif" font-size="10.00">main.cc</text>
</a>
</g>
</g>
<!-- Node12&#45;&gt;Node13 -->
<g id="edge2" class="edge"><title>Node12&#45;&gt;Node13</title>
<path fill="none" stroke="midnightblue" d="M37.4876,-46.3956C34.811,-37.362 31.7218,-26.936 29.5929,-19.7511"/>
<polygon fill="midnightblue" stroke="midnightblue" points="34.1612,-47.4893 40.3579,-56.083 40.8728,-45.5007 34.1612,-47.4893"/>
</g>
<!-- Node12&#45;&gt;Node14 -->
<g id="edge3" class="edge"><title>Node12&#45;&gt;Node14</title>
<path fill="none" stroke="midnightblue" d="M62.5897,-50.1008C75.3676,-40.3824 91.6127,-28.0269 102.385,-19.8339"/>
<polygon fill="midnightblue" stroke="midnightblue" points="60.2481,-47.4844 54.4074,-56.324 64.4857,-53.0561 60.2481,-47.4844"/>
</g>
</g>
</svg>
