<?xml version="1.0" encoding="UTF-8" standalone="no"?>
<!DOCTYPE svg PUBLIC "-//W3C//DTD SVG 1.1//EN"
 "http://www.w3.org/Graphics/SVG/1.1/DTD/svg11.dtd">
<!-- Generated by graphviz version 2.38.0 (20140413.2041)
 -->
<!-- Title: Model/roomgenerator.cc Pages: 1 -->
<!--zoomable 252 -->
<svg id="main" version="1.1" xmlns="http://www.w3.org/2000/svg" xmlns:xlink="http://www.w3.org/1999/xlink" xml:space="preserve" onload="init(evt)">
<style type="text/css"><![CDATA[
.edge:hover path { stroke: red; }
.edge:hover polygon { stroke: red; fill: red; }
]]></style>
<script type="text/javascript"><![CDATA[
var edges = document.getElementsByTagName('g');
if (edges && edges.length) {
  for (var i=0;i<edges.length;i++) {
    if (edges[i].id.substr(0,4)=='edge') {
      edges[i].setAttribute('class','edge');
    }
  }
}
]]></script>
        <defs>
                <circle id="rim" cx="0" cy="0" r="7"/>
                <circle id="rim2" cx="0" cy="0" r="3.5"/>
                <g id="zoomPlus">
                        <use xlink:href="#rim" fill="#404040">
                                <set attributeName="fill" to="#808080" begin="zoomplus.mouseover" end="zoomplus.mouseout"/>
                        </use>
                        <path d="M-4,0h8M0,-4v8" fill="none" stroke="white" stroke-width="1.5" pointer-events="none"/>
                </g>
                <g id="zoomMin">
                        <use xlink:href="#rim" fill="#404040">
                                <set attributeName="fill" to="#808080" begin="zoomminus.mouseover" end="zoomminus.mouseout"/>
                        </use>
                        <path d="M-4,0h8" fill="none" stroke="white" stroke-width="1.5" pointer-events="none"/>
                </g>
                <g id="dirArrow">
                        <path fill="none" stroke="white" stroke-width="1.5" d="M0,-3.0v7 M-2.5,-0.5L0,-3.0L2.5,-0.5"/>
                </g>
               <g id="resetDef">
                       <use xlink:href="#rim2" fill="#404040">
                               <set attributeName="fill" to="#808080" begin="reset.mouseover" end="reset.mouseout"/>
                       </use>
               </g>
        </defs>

<script type="text/javascript">
var viewWidth = 1143;
var viewHeight = 252;
var sectionId = 'dynsection-0';
</script>
<script xlink:href="svgpan.js"/>
<svg id="graph" class="graph">
<g id="viewport">
<title>Model/roomgenerator.cc</title>
<polygon fill="white" stroke="none" points="-4,4 -4,-248 1139.03,-248 1139.03,4 -4,4"/>
<!-- Node0 -->
<g id="node1" class="node"><title>Node0</title>
<polygon fill="#bfbfbf" stroke="black" points="290,-224.5 290,-243.5 412,-243.5 412,-224.5 290,-224.5"/>
<text text-anchor="middle" x="351" y="-231.5" font-family="Helvetica,sans-Serif" font-size="10.00">Model/roomgenerator.cc</text>
</g>
<!-- Node1 -->
<g id="node2" class="node"><title>Node1</title>
<polygon fill="white" stroke="#bfbfbf" points="0,-168.5 0,-187.5 44,-187.5 44,-168.5 0,-168.5"/>
<text text-anchor="middle" x="22" y="-175.5" font-family="Helvetica,sans-Serif" font-size="10.00">time.h</text>
</g>
<!-- Node0&#45;&gt;Node1 -->
<g id="edge1" class="edge"><title>Node0&#45;&gt;Node1</title>
<path fill="none" stroke="midnightblue" d="M289.783,-226.167C231.48,-219.115 141.139,-206.778 54.2846,-188.041"/>
<polygon fill="midnightblue" stroke="midnightblue" points="54.7774,-184.566 44.2601,-185.846 53.28,-191.404 54.7774,-184.566"/>
</g>
<!-- Node2 -->
<g id="node3" class="node"><title>Node2</title>
<polygon fill="white" stroke="#bfbfbf" points="62,-168.5 62,-187.5 110,-187.5 110,-168.5 62,-168.5"/>
<text text-anchor="middle" x="86" y="-175.5" font-family="Helvetica,sans-Serif" font-size="10.00">stdlib.h</text>
</g>
<!-- Node0&#45;&gt;Node2 -->
<g id="edge2" class="edge"><title>Node0&#45;&gt;Node2</title>
<path fill="none" stroke="midnightblue" d="M301.442,-224.494C256.523,-216.535 188.301,-203.832 120.15,-188.133"/>
<polygon fill="midnightblue" stroke="midnightblue" points="120.631,-184.652 110.098,-185.795 119.045,-191.47 120.631,-184.652"/>
</g>
<!-- Node3 -->
<g id="node4" class="node"><title>Node3</title>
<polygon fill="white" stroke="#bfbfbf" points="128,-168.5 128,-187.5 180,-187.5 180,-168.5 128,-168.5"/>
<text text-anchor="middle" x="154" y="-175.5" font-family="Helvetica,sans-Serif" font-size="10.00">QDebug</text>
</g>
<!-- Node0&#45;&gt;Node3 -->
<g id="edge3" class="edge"><title>Node0&#45;&gt;Node3</title>
<path fill="none" stroke="midnightblue" d="M319.785,-224.444C284.48,-214.766 227.086,-199.034 189.941,-188.852"/>
<polygon fill="midnightblue" stroke="midnightblue" points="190.606,-185.405 180.036,-186.137 188.755,-192.156 190.606,-185.405"/>
</g>
<!-- Node4 -->
<g id="node5" class="node"><title>Node4</title>
<polygon fill="white" stroke="#bfbfbf" points="198,-168.5 198,-187.5 248,-187.5 248,-168.5 198,-168.5"/>
<text text-anchor="middle" x="223" y="-175.5" font-family="Helvetica,sans-Serif" font-size="10.00">QString</text>
</g>
<!-- Node0&#45;&gt;Node4 -->
<g id="edge4" class="edge"><title>Node0&#45;&gt;Node4</title>
<path fill="none" stroke="midnightblue" d="M330.718,-224.444C309.653,-215.557 276.483,-201.563 252.514,-191.451"/>
<polygon fill="midnightblue" stroke="midnightblue" points="253.761,-188.179 243.187,-187.516 251.04,-194.628 253.761,-188.179"/>
</g>
<!-- Node5 -->
<g id="node6" class="node"><title>Node5</title>
<polygon fill="white" stroke="#bfbfbf" points="266.5,-168.5 266.5,-187.5 309.5,-187.5 309.5,-168.5 266.5,-168.5"/>
<text text-anchor="middle" x="288" y="-175.5" font-family="Helvetica,sans-Serif" font-size="10.00">queue</text>
</g>
<!-- Node0&#45;&gt;Node5 -->
<g id="edge5" class="edge"><title>Node0&#45;&gt;Node5</title>
<path fill="none" stroke="midnightblue" d="M340.878,-224.324C331.474,-216.263 317.256,-204.077 305.931,-194.369"/>
<polygon fill="midnightblue" stroke="midnightblue" points="308.177,-191.684 298.306,-187.834 303.621,-196.999 308.177,-191.684"/>
</g>
<!-- Node6 -->
<g id="node7" class="node"><title>Node6</title>
<polygon fill="white" stroke="#bfbfbf" points="328,-168.5 328,-187.5 374,-187.5 374,-168.5 328,-168.5"/>
<text text-anchor="middle" x="351" y="-175.5" font-family="Helvetica,sans-Serif" font-size="10.00">chrono</text>
</g>
<!-- Node0&#45;&gt;Node6 -->
<g id="edge6" class="edge"><title>Node0&#45;&gt;Node6</title>
<path fill="none" stroke="midnightblue" d="M351,-224.083C351,-217.006 351,-206.861 351,-197.986"/>
<polygon fill="midnightblue" stroke="midnightblue" points="354.5,-197.751 351,-187.751 347.5,-197.751 354.5,-197.751"/>
</g>
<!-- Node7 -->
<g id="node8" class="node"><title>Node7</title>
<polygon fill="white" stroke="#bfbfbf" points="422,-112.5 422,-131.5 500,-131.5 500,-112.5 422,-112.5"/>
<text text-anchor="middle" x="461" y="-119.5" font-family="Helvetica,sans-Serif" font-size="10.00">unordered_set</text>
</g>
<!-- Node0&#45;&gt;Node7 -->
<g id="edge7" class="edge"><title>Node0&#45;&gt;Node7</title>
<path fill="none" stroke="midnightblue" d="M366.616,-224.379C380.568,-216.195 401.054,-202.946 416,-188 430.214,-173.786 442.892,-154.562 451.14,-140.713"/>
<polygon fill="midnightblue" stroke="midnightblue" points="454.358,-142.137 456.321,-131.726 448.294,-138.641 454.358,-142.137"/>
</g>
<!-- Node8 -->
<g id="node9" class="node"><title>Node8</title>
<polygon fill="white" stroke="#bfbfbf" points="976,-0.5 976,-19.5 1018,-19.5 1018,-0.5 976,-0.5"/>
<text text-anchor="middle" x="997" y="-7.5" font-family="Helvetica,sans-Serif" font-size="10.00">vector</text>
</g>
<!-- Node0&#45;&gt;Node8 -->
<g id="edge8" class="edge"><title>Node0&#45;&gt;Node8</title>
<path fill="none" stroke="midnightblue" d="M412.156,-229.825C587.387,-220.08 1081.62,-187.827 1126,-132 1161.75,-87.0269 1076.33,-43.1558 1027.77,-22.8009"/>
<polygon fill="midnightblue" stroke="midnightblue" points="1028.89,-19.4777 1018.3,-18.9361 1026.24,-25.9579 1028.89,-19.4777"/>
</g>
<!-- Node9 -->
<g id="node10" class="node"><title>Node9</title>
<g id="a_node10"><a xlink:href="roomgenerator_8hh.html" target="_top" xlink:title="roomgenerator.hh">
<polygon fill="white" stroke="black" points="724,-168.5 724,-187.5 816,-187.5 816,-168.5 724,-168.5"/>
<text text-anchor="middle" x="770" y="-175.5" font-family="Helvetica,sans-Serif" font-size="10.00">roomgenerator.hh</text>
</a>
</g>
</g>
<!-- Node0&#45;&gt;Node9 -->
<g id="edge9" class="edge"><title>Node0&#45;&gt;Node9</title>
<path fill="none" stroke="midnightblue" d="M412.375,-225.09C493.517,-214.633 635.356,-196.353 713.811,-186.242"/>
<polygon fill="midnightblue" stroke="midnightblue" points="714.513,-189.68 723.984,-184.93 713.618,-182.737 714.513,-189.68"/>
</g>
<!-- Node13 -->
<g id="node14" class="node"><title>Node13</title>
<g id="a_node14"><a xlink:href="parkinghalllayoutinterface_8hh.html" target="_top" xlink:title="Interface/parkinghalllayoutinterface.hh">
<polygon fill="white" stroke="black" points="575.5,-56.5 575.5,-75.5 754.5,-75.5 754.5,-56.5 575.5,-56.5"/>
<text text-anchor="middle" x="665" y="-63.5" font-family="Helvetica,sans-Serif" font-size="10.00">Interface/parkinghalllayoutinterface.hh</text>
</a>
</g>
</g>
<!-- Node0&#45;&gt;Node13 -->
<g id="edge26" class="edge"><title>Node0&#45;&gt;Node13</title>
<path fill="none" stroke="midnightblue" d="M358.039,-224.45C365.015,-215.69 375.686,-201.482 383,-188 400.316,-156.08 384.895,-134.997 413,-112 436.248,-92.9776 505.209,-81.4971 565.125,-74.8977"/>
<polygon fill="midnightblue" stroke="midnightblue" points="565.849,-78.3405 575.422,-73.8008 565.107,-71.3798 565.849,-78.3405"/>
</g>
<!-- Node15 -->
<g id="node16" class="node"><title>Node15</title>
<g id="a_node16"><a xlink:href="mapprocessor_8hh.html" target="_top" xlink:title="mapprocessor.hh">
<polygon fill="white" stroke="black" points="1025,-112.5 1025,-131.5 1117,-131.5 1117,-112.5 1025,-112.5"/>
<text text-anchor="middle" x="1071" y="-119.5" font-family="Helvetica,sans-Serif" font-size="10.00">mapprocessor.hh</text>
</a>
</g>
</g>
<!-- Node0&#45;&gt;Node15 -->
<g id="edge27" class="edge"><title>Node0&#45;&gt;Node15</title>
<path fill="none" stroke="midnightblue" d="M412.038,-230.402C502.718,-225.823 678.113,-214.196 825,-188 900.719,-174.496 987.236,-149.293 1034.84,-134.552"/>
<polygon fill="midnightblue" stroke="midnightblue" points="1035.88,-137.892 1044.38,-131.573 1033.8,-131.21 1035.88,-137.892"/>
</g>
<!-- Node9&#45;&gt;Node7 -->
<g id="edge12" class="edge"><title>Node9&#45;&gt;Node7</title>
<path fill="none" stroke="midnightblue" d="M723.74,-168.916C666.404,-158.896 569.101,-141.891 510.365,-131.627"/>
<polygon fill="midnightblue" stroke="midnightblue" points="510.673,-128.128 500.22,-129.854 509.468,-135.023 510.673,-128.128"/>
</g>
<!-- Node9&#45;&gt;Node8 -->
<g id="edge11" class="edge"><title>Node9&#45;&gt;Node8</title>
<path fill="none" stroke="midnightblue" d="M815.595,-168.487C875.103,-157.18 972.388,-137.943 978,-132 1004.07,-104.391 1003.01,-56.423 999.992,-29.9331"/>
<polygon fill="midnightblue" stroke="midnightblue" points="1003.42,-29.1564 998.602,-19.7197 996.482,-30.1003 1003.42,-29.1564"/>
</g>
<!-- Node10 -->
<g id="node11" class="node"><title>Node10</title>
<polygon fill="white" stroke="#bfbfbf" points="796.5,-112.5 796.5,-131.5 831.5,-131.5 831.5,-112.5 796.5,-112.5"/>
<text text-anchor="middle" x="814" y="-119.5" font-family="Helvetica,sans-Serif" font-size="10.00">map</text>
</g>
<!-- Node9&#45;&gt;Node10 -->
<g id="edge10" class="edge"><title>Node9&#45;&gt;Node10</title>
<path fill="none" stroke="midnightblue" d="M777.266,-168.083C783.545,-160.377 792.788,-149.033 800.431,-139.653"/>
<polygon fill="midnightblue" stroke="midnightblue" points="803.266,-141.714 806.869,-131.751 797.839,-137.293 803.266,-141.714"/>
</g>
<!-- Node11 -->
<g id="node12" class="node"><title>Node11</title>
<polygon fill="white" stroke="#bfbfbf" points="849.5,-112.5 849.5,-131.5 898.5,-131.5 898.5,-112.5 849.5,-112.5"/>
<text text-anchor="middle" x="874" y="-119.5" font-family="Helvetica,sans-Serif" font-size="10.00">random</text>
</g>
<!-- Node9&#45;&gt;Node11 -->
<g id="edge13" class="edge"><title>Node9&#45;&gt;Node11</title>
<path fill="none" stroke="midnightblue" d="M786.709,-168.324C803.312,-159.703 829.002,-146.364 848.22,-136.386"/>
<polygon fill="midnightblue" stroke="midnightblue" points="850.07,-139.369 857.332,-131.655 846.844,-133.156 850.07,-139.369"/>
</g>
<!-- Node12 -->
<g id="node13" class="node"><title>Node12</title>
<polygon fill="white" stroke="#bfbfbf" points="917,-112.5 917,-131.5 969,-131.5 969,-112.5 917,-112.5"/>
<text text-anchor="middle" x="943" y="-119.5" font-family="Helvetica,sans-Serif" font-size="10.00">memory</text>
</g>
<!-- Node9&#45;&gt;Node12 -->
<g id="edge14" class="edge"><title>Node9&#45;&gt;Node12</title>
<path fill="none" stroke="midnightblue" d="M797.412,-168.444C827.115,-159.172 874.622,-144.343 907.24,-134.162"/>
<polygon fill="midnightblue" stroke="midnightblue" points="908.345,-137.484 916.848,-131.163 906.26,-130.802 908.345,-137.484"/>
</g>
<!-- Node9&#45;&gt;Node13 -->
<g id="edge15" class="edge"><title>Node9&#45;&gt;Node13</title>
<path fill="none" stroke="midnightblue" d="M723.977,-174.387C665.333,-169.985 568.918,-158.783 547,-132 525.242,-105.413 567.302,-87.9365 607.107,-77.8689"/>
<polygon fill="midnightblue" stroke="midnightblue" points="607.962,-81.2633 616.871,-75.5287 606.33,-74.4561 607.962,-81.2633"/>
</g>
<!-- Node9&#45;&gt;Node15 -->
<g id="edge18" class="edge"><title>Node9&#45;&gt;Node15</title>
<path fill="none" stroke="midnightblue" d="M816.043,-168.74C869.486,-159.152 957.606,-143.343 1014.98,-133.051"/>
<polygon fill="midnightblue" stroke="midnightblue" points="1015.74,-136.47 1024.96,-131.259 1014.5,-129.58 1015.74,-136.47"/>
</g>
<!-- Node16 -->
<g id="node17" class="node"><title>Node16</title>
<g id="a_node17"><a xlink:href="layoutgenerator_8hh.html" target="_top" xlink:title="layoutgenerator.hh">
<polygon fill="white" stroke="black" points="556.5,-112.5 556.5,-131.5 653.5,-131.5 653.5,-112.5 556.5,-112.5"/>
<text text-anchor="middle" x="605" y="-119.5" font-family="Helvetica,sans-Serif" font-size="10.00">layoutgenerator.hh</text>
</a>
</g>
</g>
<!-- Node9&#45;&gt;Node16 -->
<g id="edge21" class="edge"><title>Node9&#45;&gt;Node16</title>
<path fill="none" stroke="midnightblue" d="M743.855,-168.444C715.977,-159.32 671.652,-144.813 640.6,-134.651"/>
<polygon fill="midnightblue" stroke="midnightblue" points="641.615,-131.3 631.022,-131.516 639.438,-137.953 641.615,-131.3"/>
</g>
<!-- Node17 -->
<g id="node18" class="node"><title>Node17</title>
<g id="a_node18"><a xlink:href="parkspaceinserter_8hh.html" target="_top" xlink:title="parkspaceinserter.hh">
<polygon fill="white" stroke="black" points="671.5,-112.5 671.5,-131.5 778.5,-131.5 778.5,-112.5 671.5,-112.5"/>
<text text-anchor="middle" x="725" y="-119.5" font-family="Helvetica,sans-Serif" font-size="10.00">parkspaceinserter.hh</text>
</a>
</g>
</g>
<!-- Node9&#45;&gt;Node17 -->
<g id="edge23" class="edge"><title>Node9&#45;&gt;Node17</title>
<path fill="none" stroke="midnightblue" d="M762.569,-168.083C756.147,-160.377 746.694,-149.033 738.878,-139.653"/>
<polygon fill="midnightblue" stroke="midnightblue" points="741.383,-137.193 732.293,-131.751 736.006,-141.674 741.383,-137.193"/>
</g>
<!-- Node13&#45;&gt;Node8 -->
<g id="edge16" class="edge"><title>Node13&#45;&gt;Node8</title>
<path fill="none" stroke="midnightblue" d="M717.606,-56.4435C787.517,-45.0725 908.828,-25.3413 965.779,-16.0781"/>
<polygon fill="midnightblue" stroke="midnightblue" points="966.649,-19.4827 975.957,-14.4226 965.525,-12.5735 966.649,-19.4827"/>
</g>
<!-- Node14 -->
<g id="node15" class="node"><title>Node14</title>
<polygon fill="white" stroke="#bfbfbf" points="641.5,-0.5 641.5,-19.5 688.5,-19.5 688.5,-0.5 641.5,-0.5"/>
<text text-anchor="middle" x="665" y="-7.5" font-family="Helvetica,sans-Serif" font-size="10.00">QPoint</text>
</g>
<!-- Node13&#45;&gt;Node14 -->
<g id="edge17" class="edge"><title>Node13&#45;&gt;Node14</title>
<path fill="none" stroke="midnightblue" d="M665,-56.083C665,-49.0059 665,-38.8611 665,-29.9865"/>
<polygon fill="midnightblue" stroke="midnightblue" points="668.5,-29.751 665,-19.7511 661.5,-29.7511 668.5,-29.751"/>
</g>
<!-- Node15&#45;&gt;Node8 -->
<g id="edge19" class="edge"><title>Node15&#45;&gt;Node8</title>
<path fill="none" stroke="midnightblue" d="M1065.19,-112.368C1052.98,-94.2153 1024.45,-51.8015 1008.43,-27.9902"/>
<polygon fill="midnightblue" stroke="midnightblue" points="1011.27,-25.935 1002.78,-19.5914 1005.46,-29.8423 1011.27,-25.935"/>
</g>
<!-- Node15&#45;&gt;Node13 -->
<g id="edge20" class="edge"><title>Node15&#45;&gt;Node13</title>
<path fill="none" stroke="midnightblue" d="M1024.82,-114.858C955.191,-105.597 822.62,-87.9643 739.293,-76.8813"/>
<polygon fill="midnightblue" stroke="midnightblue" points="739.506,-73.3789 729.131,-75.5298 738.583,-80.3178 739.506,-73.3789"/>
</g>
<!-- Node16&#45;&gt;Node13 -->
<g id="edge22" class="edge"><title>Node16&#45;&gt;Node13</title>
<path fill="none" stroke="midnightblue" d="M614.64,-112.324C623.51,-104.341 636.875,-92.3128 647.608,-82.6529"/>
<polygon fill="midnightblue" stroke="midnightblue" points="650.093,-85.1251 655.185,-75.8339 645.41,-79.922 650.093,-85.1251"/>
</g>
<!-- Node17&#45;&gt;Node8 -->
<g id="edge24" class="edge"><title>Node17&#45;&gt;Node8</title>
<path fill="none" stroke="midnightblue" d="M746.343,-112.368C794.31,-92.9703 910.777,-45.8696 966.419,-23.3673"/>
<polygon fill="midnightblue" stroke="midnightblue" points="967.797,-26.5853 975.756,-19.5914 965.173,-20.0959 967.797,-26.5853"/>
</g>
<!-- Node17&#45;&gt;Node13 -->
<g id="edge25" class="edge"><title>Node17&#45;&gt;Node13</title>
<path fill="none" stroke="midnightblue" d="M715.36,-112.324C706.49,-104.341 693.125,-92.3128 682.392,-82.6529"/>
<polygon fill="midnightblue" stroke="midnightblue" points="684.59,-79.922 674.815,-75.8339 679.907,-85.1251 684.59,-79.922"/>
</g>
</g>
</svg>
        <g id="navigator" transform="translate(0 0)" fill="#404254">
                <rect fill="#f2f5e9" fill-opacity="0.5" stroke="#606060" stroke-width=".5" x="0" y="0" width="60" height="60"/>
                <use id="zoomplus" xlink:href="#zoomPlus" x="17" y="9" onmousedown="handleZoom(evt,'in')"/>
                <use id="zoomminus" xlink:href="#zoomMin" x="42" y="9" onmousedown="handleZoom(evt,'out')"/>
                <use id="reset" xlink:href="#resetDef" x="30" y="36" onmousedown="handleReset()"/>
                <g id="arrowUp" xlink:href="#dirArrow" transform="translate(30 24)" onmousedown="handlePan(0,-1)">
                  <use xlink:href="#rim" fill="#404040">
                        <set attributeName="fill" to="#808080" begin="arrowUp.mouseover" end="arrowUp.mouseout"/>
                  </use>
                  <path fill="none" stroke="white" stroke-width="1.5" d="M0,-3.0v7 M-2.5,-0.5L0,-3.0L2.5,-0.5"/>
                </g>
                <g id="arrowRight" xlink:href="#dirArrow" transform="rotate(90) translate(36 -43)" onmousedown="handlePan(1,0)">
                  <use xlink:href="#rim" fill="#404040">
                        <set attributeName="fill" to="#808080" begin="arrowRight.mouseover" end="arrowRight.mouseout"/>
                  </use>
                  <path fill="none" stroke="white" stroke-width="1.5" d="M0,-3.0v7 M-2.5,-0.5L0,-3.0L2.5,-0.5"/>
                </g>
                <g id="arrowDown" xlink:href="#dirArrow" transform="rotate(180) translate(-30 -48)" onmousedown="handlePan(0,1)">
                  <use xlink:href="#rim" fill="#404040">
                        <set attributeName="fill" to="#808080" begin="arrowDown.mouseover" end="arrowDown.mouseout"/>
                  </use>
                  <path fill="none" stroke="white" stroke-width="1.5" d="M0,-3.0v7 M-2.5,-0.5L0,-3.0L2.5,-0.5"/>
                </g>
                <g id="arrowLeft" xlink:href="#dirArrow" transform="rotate(270) translate(-36 17)" onmousedown="handlePan(-1,0)">
                  <use xlink:href="#rim" fill="#404040">
                        <set attributeName="fill" to="#808080" begin="arrowLeft.mouseover" end="arrowLeft.mouseout"/>
                  </use>
                  <path fill="none" stroke="white" stroke-width="1.5" d="M0,-3.0v7 M-2.5,-0.5L0,-3.0L2.5,-0.5"/>
                </g>
        </g>
        <svg viewBox="0 0 15 15" width="100%" height="30px" preserveAspectRatio="xMaxYMin meet">
         <g id="arrow_out" transform="scale(0.3 0.3)">
          <a xlink:href="roomgenerator_8cc__incl_org.svg" target="_base">
           <rect id="button" ry="5" rx="5" y="6" x="6" height="38" width="38"
                fill="#f2f5e9" fill-opacity="0.5" stroke="#606060" stroke-width="1.0"/>
           <path id="arrow"
             d="M 11.500037,31.436501 C 11.940474,20.09759 22.043105,11.32322 32.158766,21.979434 L 37.068811,17.246167 C 37.068811,17.246167 37.088388,32 37.088388,32 L 22.160133,31.978069 C 22.160133,31.978069 26.997745,27.140456 26.997745,27.140456 C 18.528582,18.264221 13.291696,25.230495 11.500037,31.436501 z"
             style="fill:#404040;"/>
          </a>
         </g>
        </svg>
</svg>
