<?xml version="1.0" encoding="UTF-8" standalone="no"?>
<!DOCTYPE svg PUBLIC "-//W3C//DTD SVG 1.1//EN"
 "http://www.w3.org/Graphics/SVG/1.1/DTD/svg11.dtd">
<!-- Generated by graphviz version 2.38.0 (20140413.2041)
 -->
<!-- Title: Model/roomgenerator.hh Pages: 1 -->
<svg width="706pt" height="196pt"
 viewBox="0.00 0.00 705.50 196.00" xmlns="http://www.w3.org/2000/svg" xmlns:xlink="http://www.w3.org/1999/xlink">
<g id="graph0" class="graph" transform="scale(1 1) rotate(0) translate(4 192)">
<title>Model/roomgenerator.hh</title>
<polygon fill="white" stroke="none" points="-4,4 -4,-192 701.5,-192 701.5,4 -4,4"/>
<!-- Node0 -->
<g id="node1" class="node"><title>Node0</title>
<polygon fill="#bfbfbf" stroke="black" points="310.5,-168.5 310.5,-187.5 432.5,-187.5 432.5,-168.5 310.5,-168.5"/>
<text text-anchor="middle" x="371.5" y="-175.5" font-family="Helvetica,sans-Serif" font-size="10.00">Model/roomgenerator.hh</text>
</g>
<!-- Node1 -->
<g id="node2" class="node"><title>Node1</title>
<polygon fill="white" stroke="#bfbfbf" points="0,-112.5 0,-131.5 35,-131.5 35,-112.5 0,-112.5"/>
<text text-anchor="middle" x="17.5" y="-119.5" font-family="Helvetica,sans-Serif" font-size="10.00">map</text>
</g>
<!-- Node0&#45;&gt;Node1 -->
<g id="edge1" class="edge"><title>Node0&#45;&gt;Node1</title>
<path fill="none" stroke="midnightblue" d="M310.243,-170.935C245.146,-163.91 139.414,-150.837 49.5,-132 48.0526,-131.697 46.5743,-131.364 45.0858,-131.011"/>
<polygon fill="midnightblue" stroke="midnightblue" points="45.8933,-127.604 35.3344,-128.477 44.1325,-134.379 45.8933,-127.604"/>
</g>
<!-- Node2 -->
<g id="node3" class="node"><title>Node2</title>
<polygon fill="white" stroke="#bfbfbf" points="331.5,-0.5 331.5,-19.5 373.5,-19.5 373.5,-0.5 331.5,-0.5"/>
<text text-anchor="middle" x="352.5" y="-7.5" font-family="Helvetica,sans-Serif" font-size="10.00">vector</text>
</g>
<!-- Node0&#45;&gt;Node2 -->
<g id="edge2" class="edge"><title>Node0&#45;&gt;Node2</title>
<path fill="none" stroke="midnightblue" d="M391.723,-168.495C406.271,-161.168 424.801,-149.063 433.5,-132 437.537,-124.081 436.447,-120.386 433.5,-112 421.054,-76.5884 390.379,-44.3989 370.553,-26.296"/>
<polygon fill="midnightblue" stroke="midnightblue" points="372.856,-23.6604 363.052,-19.6441 368.211,-28.8977 372.856,-23.6604"/>
</g>
<!-- Node3 -->
<g id="node4" class="node"><title>Node3</title>
<polygon fill="white" stroke="#bfbfbf" points="481.5,-112.5 481.5,-131.5 559.5,-131.5 559.5,-112.5 481.5,-112.5"/>
<text text-anchor="middle" x="520.5" y="-119.5" font-family="Helvetica,sans-Serif" font-size="10.00">unordered_set</text>
</g>
<!-- Node0&#45;&gt;Node3 -->
<g id="edge3" class="edge"><title>Node0&#45;&gt;Node3</title>
<path fill="none" stroke="midnightblue" d="M395.109,-168.444C419.958,-159.438 459.274,-145.189 487.254,-135.049"/>
<polygon fill="midnightblue" stroke="midnightblue" points="488.792,-138.214 497.001,-131.516 486.407,-131.633 488.792,-138.214"/>
</g>
<!-- Node4 -->
<g id="node5" class="node"><title>Node4</title>
<polygon fill="white" stroke="#bfbfbf" points="578,-112.5 578,-131.5 627,-131.5 627,-112.5 578,-112.5"/>
<text text-anchor="middle" x="602.5" y="-119.5" font-family="Helvetica,sans-Serif" font-size="10.00">random</text>
</g>
<!-- Node0&#45;&gt;Node4 -->
<g id="edge4" class="edge"><title>Node0&#45;&gt;Node4</title>
<path fill="none" stroke="midnightblue" d="M410.84,-168.429C448.571,-160.116 507.386,-146.918 567.58,-132.163"/>
<polygon fill="midnightblue" stroke="midnightblue" points="568.77,-135.475 577.643,-129.685 567.096,-128.678 568.77,-135.475"/>
</g>
<!-- Node5 -->
<g id="node6" class="node"><title>Node5</title>
<polygon fill="white" stroke="#bfbfbf" points="645.5,-112.5 645.5,-131.5 697.5,-131.5 697.5,-112.5 645.5,-112.5"/>
<text text-anchor="middle" x="671.5" y="-119.5" font-family="Helvetica,sans-Serif" font-size="10.00">memory</text>
</g>
<!-- Node0&#45;&gt;Node5 -->
<g id="edge5" class="edge"><title>Node0&#45;&gt;Node5</title>
<path fill="none" stroke="midnightblue" d="M430.186,-168.474C481.747,-160.656 558.996,-148.158 634.961,-132.19"/>
<polygon fill="midnightblue" stroke="midnightblue" points="636.128,-135.52 645.182,-130.018 634.673,-128.673 636.128,-135.52"/>
</g>
<!-- Node6 -->
<g id="node7" class="node"><title>Node6</title>
<g id="a_node7"><a xlink:href="parkinghalllayoutinterface_8hh.html" target="_top" xlink:title="Interface/parkinghalllayoutinterface.hh">
<polygon fill="white" stroke="black" points="126,-56.5 126,-75.5 305,-75.5 305,-56.5 126,-56.5"/>
<text text-anchor="middle" x="215.5" y="-63.5" font-family="Helvetica,sans-Serif" font-size="10.00">Interface/parkinghalllayoutinterface.hh</text>
</a>
</g>
</g>
<!-- Node0&#45;&gt;Node6 -->
<g id="edge6" class="edge"><title>Node0&#45;&gt;Node6</title>
<path fill="none" stroke="midnightblue" d="M310.386,-176.435C234.419,-174.285 111.235,-165.555 82.5,-132 58.6444,-104.142 102.715,-87.1444 146.394,-77.5555"/>
<polygon fill="midnightblue" stroke="midnightblue" points="147.189,-80.9653 156.268,-75.5055 145.766,-74.1114 147.189,-80.9653"/>
</g>
<!-- Node8 -->
<g id="node9" class="node"><title>Node8</title>
<g id="a_node9"><a xlink:href="mapprocessor_8hh.html" target="_top" xlink:title="mapprocessor.hh">
<polygon fill="white" stroke="black" points="207.5,-112.5 207.5,-131.5 299.5,-131.5 299.5,-112.5 207.5,-112.5"/>
<text text-anchor="middle" x="253.5" y="-119.5" font-family="Helvetica,sans-Serif" font-size="10.00">mapprocessor.hh</text>
</a>
</g>
</g>
<!-- Node0&#45;&gt;Node8 -->
<g id="edge9" class="edge"><title>Node0&#45;&gt;Node8</title>
<path fill="none" stroke="midnightblue" d="M352.803,-168.444C333.556,-159.636 303.348,-145.812 281.3,-135.722"/>
<polygon fill="midnightblue" stroke="midnightblue" points="282.66,-132.495 272.11,-131.516 279.747,-138.86 282.66,-132.495"/>
</g>
<!-- Node9 -->
<g id="node10" class="node"><title>Node9</title>
<g id="a_node10"><a xlink:href="layoutgenerator_8hh.html" target="_top" xlink:title="layoutgenerator.hh">
<polygon fill="white" stroke="black" points="92,-112.5 92,-131.5 189,-131.5 189,-112.5 92,-112.5"/>
<text text-anchor="middle" x="140.5" y="-119.5" font-family="Helvetica,sans-Serif" font-size="10.00">layoutgenerator.hh</text>
</a>
</g>
</g>
<!-- Node0&#45;&gt;Node9 -->
<g id="edge12" class="edge"><title>Node0&#45;&gt;Node9</title>
<path fill="none" stroke="midnightblue" d="M334.897,-168.444C294.769,-159.063 230.302,-143.993 186.715,-133.804"/>
<polygon fill="midnightblue" stroke="midnightblue" points="187.466,-130.385 176.931,-131.516 185.872,-137.201 187.466,-130.385"/>
</g>
<!-- Node10 -->
<g id="node11" class="node"><title>Node10</title>
<g id="a_node11"><a xlink:href="parkspaceinserter_8hh.html" target="_top" xlink:title="parkspaceinserter.hh">
<polygon fill="white" stroke="black" points="318,-112.5 318,-131.5 425,-131.5 425,-112.5 318,-112.5"/>
<text text-anchor="middle" x="371.5" y="-119.5" font-family="Helvetica,sans-Serif" font-size="10.00">parkspaceinserter.hh</text>
</a>
</g>
</g>
<!-- Node0&#45;&gt;Node10 -->
<g id="edge14" class="edge"><title>Node0&#45;&gt;Node10</title>
<path fill="none" stroke="midnightblue" d="M371.5,-168.083C371.5,-161.006 371.5,-150.861 371.5,-141.986"/>
<polygon fill="midnightblue" stroke="midnightblue" points="375,-141.751 371.5,-131.751 368,-141.751 375,-141.751"/>
</g>
<!-- Node6&#45;&gt;Node2 -->
<g id="edge7" class="edge"><title>Node6&#45;&gt;Node2</title>
<path fill="none" stroke="midnightblue" d="M237.208,-56.4435C259.988,-47.4646 295.993,-33.2729 321.704,-23.1386"/>
<polygon fill="midnightblue" stroke="midnightblue" points="323.324,-26.2623 331.344,-19.339 320.757,-19.7499 323.324,-26.2623"/>
</g>
<!-- Node7 -->
<g id="node8" class="node"><title>Node7</title>
<polygon fill="white" stroke="#bfbfbf" points="192,-0.5 192,-19.5 239,-19.5 239,-0.5 192,-0.5"/>
<text text-anchor="middle" x="215.5" y="-7.5" font-family="Helvetica,sans-Serif" font-size="10.00">QPoint</text>
</g>
<!-- Node6&#45;&gt;Node7 -->
<g id="edge8" class="edge"><title>Node6&#45;&gt;Node7</title>
<path fill="none" stroke="midnightblue" d="M215.5,-56.083C215.5,-49.0059 215.5,-38.8611 215.5,-29.9865"/>
<polygon fill="midnightblue" stroke="midnightblue" points="219,-29.751 215.5,-19.7511 212,-29.7511 219,-29.751"/>
</g>
<!-- Node8&#45;&gt;Node2 -->
<g id="edge10" class="edge"><title>Node8&#45;&gt;Node2</title>
<path fill="none" stroke="midnightblue" d="M268.089,-112.353C281.086,-104.15 300.07,-90.8906 313.5,-76 326.283,-61.8266 337.099,-42.8504 344.075,-29.0623"/>
<polygon fill="midnightblue" stroke="midnightblue" points="347.404,-30.219 348.629,-19.6952 341.109,-27.1582 347.404,-30.219"/>
</g>
<!-- Node8&#45;&gt;Node6 -->
<g id="edge11" class="edge"><title>Node8&#45;&gt;Node6</title>
<path fill="none" stroke="midnightblue" d="M247.225,-112.083C241.858,-104.455 233.982,-93.2645 227.421,-83.9408"/>
<polygon fill="midnightblue" stroke="midnightblue" points="230.275,-81.9149 221.658,-75.7511 224.551,-85.9434 230.275,-81.9149"/>
</g>
<!-- Node9&#45;&gt;Node6 -->
<g id="edge13" class="edge"><title>Node9&#45;&gt;Node6</title>
<path fill="none" stroke="midnightblue" d="M152.55,-112.324C163.963,-104.107 181.331,-91.6017 194.935,-81.8069"/>
<polygon fill="midnightblue" stroke="midnightblue" points="197.16,-84.5174 203.231,-75.8339 193.07,-78.8366 197.16,-84.5174"/>
</g>
<!-- Node10&#45;&gt;Node2 -->
<g id="edge15" class="edge"><title>Node10&#45;&gt;Node2</title>
<path fill="none" stroke="midnightblue" d="M370.009,-112.368C366.943,-94.617 359.87,-53.6664 355.712,-29.5974"/>
<polygon fill="midnightblue" stroke="midnightblue" points="359.135,-28.8498 353.984,-19.5914 352.237,-30.0413 359.135,-28.8498"/>
</g>
<!-- Node10&#45;&gt;Node6 -->
<g id="edge16" class="edge"><title>Node10&#45;&gt;Node6</title>
<path fill="none" stroke="midnightblue" d="M346.781,-112.444C320.652,-103.399 279.241,-89.064 249.924,-78.9158"/>
<polygon fill="midnightblue" stroke="midnightblue" points="250.698,-75.4801 240.103,-75.5164 248.408,-82.0951 250.698,-75.4801"/>
</g>
</g>
</svg>
