<?xml version="1.0" encoding="UTF-8" standalone="no"?>
<!DOCTYPE svg PUBLIC "-//W3C//DTD SVG 1.1//EN"
 "http://www.w3.org/Graphics/SVG/1.1/DTD/svg11.dtd">
<!-- Generated by graphviz version 2.38.0 (20140413.2041)
 -->
<!-- Title: Interface::ParkinHallLayoutInterface::Layout Pages: 1 -->
<svg width="300pt" height="298pt"
 viewBox="0.00 0.00 300.00 298.00" xmlns="http://www.w3.org/2000/svg" xmlns:xlink="http://www.w3.org/1999/xlink">
<g id="graph0" class="graph" transform="scale(1 1) rotate(0) translate(4 294)">
<title>Interface::ParkinHallLayoutInterface::Layout</title>
<polygon fill="white" stroke="none" points="-4,4 -4,-294 296,-294 296,4 -4,4"/>
<!-- Node1 -->
<g id="node1" class="node"><title>Node1</title>
<polygon fill="#bfbfbf" stroke="black" points="76.5,-0.5 76.5,-68.5 209.5,-68.5 209.5,-0.5 76.5,-0.5"/>
<text text-anchor="start" x="84.5" y="-56.5" font-family="Helvetica,sans-Serif" font-size="10.00">Interface::ParkinHallLayout</text>
<text text-anchor="middle" x="143" y="-45.5" font-family="Helvetica,sans-Serif" font-size="10.00">Interface::Layout</text>
<polyline fill="none" stroke="black" points="76.5,-38.5 209.5,-38.5 "/>
<text text-anchor="middle" x="143" y="-26.5" font-family="Helvetica,sans-Serif" font-size="10.00"> </text>
<polyline fill="none" stroke="black" points="76.5,-19.5 209.5,-19.5 "/>
<text text-anchor="middle" x="143" y="-7.5" font-family="Helvetica,sans-Serif" font-size="10.00"> </text>
</g>
<!-- Node2 -->
<g id="node2" class="node"><title>Node2</title>
<polygon fill="white" stroke="#bfbfbf" points="0,-127.5 0,-184.5 110,-184.5 110,-127.5 0,-127.5"/>
<text text-anchor="middle" x="55" y="-172.5" font-family="Helvetica,sans-Serif" font-size="10.00">std::vector&lt; QPoint &gt;</text>
<polyline fill="none" stroke="#bfbfbf" points="0,-165.5 110,-165.5 "/>
<text text-anchor="middle" x="55" y="-153.5" font-family="Helvetica,sans-Serif" font-size="10.00"> </text>
<polyline fill="none" stroke="#bfbfbf" points="0,-146.5 110,-146.5 "/>
<text text-anchor="middle" x="55" y="-134.5" font-family="Helvetica,sans-Serif" font-size="10.00"> </text>
</g>
<!-- Node2&#45;&gt;Node1 -->
<g id="edge1" class="edge"><title>Node2&#45;&gt;Node1</title>
<path fill="none" stroke="#404040" d="M68.4307,-127.19C75.0991,-114.463 83.7108,-99.4735 93,-87 95.3074,-83.9017 97.7891,-80.7985 100.369,-77.7372"/>
<polygon fill="none" stroke="#404040" points="100.385,-77.7196 101.358,-70.5745 108.328,-68.7251 107.355,-75.8702 100.385,-77.7196"/>
<text text-anchor="middle" x="116" y="-95.5" font-family="Helvetica,sans-Serif" font-size="10.00"> +enemies</text>
</g>
<!-- Node3 -->
<g id="node3" class="node"><title>Node3</title>
<polygon fill="white" stroke="#bfbfbf" points="31.5,-232.5 31.5,-289.5 78.5,-289.5 78.5,-232.5 31.5,-232.5"/>
<text text-anchor="middle" x="55" y="-277.5" font-family="Helvetica,sans-Serif" font-size="10.00">QPoint</text>
<polyline fill="none" stroke="#bfbfbf" points="31.5,-270.5 78.5,-270.5 "/>
<text text-anchor="middle" x="55" y="-258.5" font-family="Helvetica,sans-Serif" font-size="10.00"> </text>
<polyline fill="none" stroke="#bfbfbf" points="31.5,-251.5 78.5,-251.5 "/>
<text text-anchor="middle" x="55" y="-239.5" font-family="Helvetica,sans-Serif" font-size="10.00"> </text>
</g>
<!-- Node3&#45;&gt;Node2 -->
<g id="edge2" class="edge"><title>Node3&#45;&gt;Node2</title>
<path fill="none" stroke="#404040" d="M55,-232.398C55,-221.545 55,-208.873 55,-197.049"/>
<polygon fill="none" stroke="#404040" points="55.0001,-196.678 51,-190.678 55,-184.678 59,-190.678 55.0001,-196.678"/>
<text text-anchor="middle" x="79.5" y="-206" font-family="Helvetica,sans-Serif" font-size="10.00"> +elements</text>
</g>
<!-- Node4 -->
<g id="node4" class="node"><title>Node4</title>
<polygon fill="white" stroke="#bfbfbf" points="128.5,-127.5 128.5,-184.5 157.5,-184.5 157.5,-127.5 128.5,-127.5"/>
<text text-anchor="middle" x="143" y="-172.5" font-family="Helvetica,sans-Serif" font-size="10.00">int</text>
<polyline fill="none" stroke="#bfbfbf" points="128.5,-165.5 157.5,-165.5 "/>
<text text-anchor="middle" x="143" y="-153.5" font-family="Helvetica,sans-Serif" font-size="10.00"> </text>
<polyline fill="none" stroke="#bfbfbf" points="128.5,-146.5 157.5,-146.5 "/>
<text text-anchor="middle" x="143" y="-134.5" font-family="Helvetica,sans-Serif" font-size="10.00"> </text>
</g>
<!-- Node4&#45;&gt;Node1 -->
<g id="edge3" class="edge"><title>Node4&#45;&gt;Node1</title>
<path fill="none" stroke="#404040" d="M143,-127.284C143,-113.465 143,-96.4009 143,-80.7494"/>
<polygon fill="none" stroke="#404040" points="143,-80.5891 139,-74.5891 143,-68.5891 147,-74.589 143,-80.5891"/>
<text text-anchor="middle" x="161" y="-101" font-family="Helvetica,sans-Serif" font-size="10.00"> +height</text>
<text text-anchor="middle" x="161" y="-90" font-family="Helvetica,sans-Serif" font-size="10.00">+width</text>
</g>
<!-- Node5 -->
<g id="node5" class="node"><title>Node5</title>
<polygon fill="white" stroke="#bfbfbf" points="176,-127.5 176,-184.5 292,-184.5 292,-127.5 176,-127.5"/>
<text text-anchor="middle" x="234" y="-172.5" font-family="Helvetica,sans-Serif" font-size="10.00">std::vector&lt; TileType &gt;</text>
<polyline fill="none" stroke="#bfbfbf" points="176,-165.5 292,-165.5 "/>
<text text-anchor="middle" x="234" y="-153.5" font-family="Helvetica,sans-Serif" font-size="10.00"> </text>
<polyline fill="none" stroke="#bfbfbf" points="176,-146.5 292,-146.5 "/>
<text text-anchor="middle" x="234" y="-134.5" font-family="Helvetica,sans-Serif" font-size="10.00"> </text>
</g>
<!-- Node5&#45;&gt;Node1 -->
<g id="edge4" class="edge"><title>Node5&#45;&gt;Node1</title>
<path fill="none" stroke="#404040" d="M213.509,-127.459C204.24,-115.058 193.117,-100.255 183,-87 180.804,-84.1231 178.533,-81.1615 176.239,-78.1814"/>
<polygon fill="none" stroke="#404040" points="176.237,-78.1787 169.404,-75.8744 168.903,-68.6807 175.736,-70.985 176.237,-78.1787"/>
<text text-anchor="middle" x="213" y="-95.5" font-family="Helvetica,sans-Serif" font-size="10.00"> +tiles</text>
</g>
<!-- Node6 -->
<g id="node6" class="node"><title>Node6</title>
<polygon fill="white" stroke="#bfbfbf" points="207.5,-232.5 207.5,-289.5 260.5,-289.5 260.5,-232.5 207.5,-232.5"/>
<text text-anchor="middle" x="234" y="-277.5" font-family="Helvetica,sans-Serif" font-size="10.00">TileType</text>
<polyline fill="none" stroke="#bfbfbf" points="207.5,-270.5 260.5,-270.5 "/>
<text text-anchor="middle" x="234" y="-258.5" font-family="Helvetica,sans-Serif" font-size="10.00"> </text>
<polyline fill="none" stroke="#bfbfbf" points="207.5,-251.5 260.5,-251.5 "/>
<text text-anchor="middle" x="234" y="-239.5" font-family="Helvetica,sans-Serif" font-size="10.00"> </text>
</g>
<!-- Node6&#45;&gt;Node5 -->
<g id="edge5" class="edge"><title>Node6&#45;&gt;Node5</title>
<path fill="none" stroke="#404040" d="M234,-232.398C234,-221.545 234,-208.873 234,-197.049"/>
<polygon fill="none" stroke="#404040" points="234,-196.678 230,-190.678 234,-184.678 238,-190.678 234,-196.678"/>
<text text-anchor="middle" x="258.5" y="-206" font-family="Helvetica,sans-Serif" font-size="10.00"> +elements</text>
</g>
</g>
</svg>
