<?xml version="1.0" encoding="UTF-8" standalone="no"?>
<!DOCTYPE svg PUBLIC "-//W3C//DTD SVG 1.1//EN"
 "http://www.w3.org/Graphics/SVG/1.1/DTD/svg11.dtd">
<!-- Generated by graphviz version 2.38.0 (20140413.2041)
 -->
<!-- Title: Interface::ParkinHallLayoutInterface::Layout Pages: 1 -->
<svg width="265pt" height="193pt"
 viewBox="0.00 0.00 265.00 193.00" xmlns="http://www.w3.org/2000/svg" xmlns:xlink="http://www.w3.org/1999/xlink">
<g id="graph0" class="graph" transform="scale(1 1) rotate(0) translate(4 189)">
<title>Interface::ParkinHallLayoutInterface::Layout</title>
<polygon fill="white" stroke="none" points="-4,4 -4,-189 261,-189 261,4 -4,4"/>
<!-- Node1 -->
<g id="node1" class="node"><title>Node1</title>
<polygon fill="#bfbfbf" stroke="black" points="92.5,-0.5 92.5,-68.5 225.5,-68.5 225.5,-0.5 92.5,-0.5"/>
<text text-anchor="start" x="100.5" y="-56.5" font-family="Helvetica,sans-Serif" font-size="10.00">Interface::ParkinHallLayout</text>
<text text-anchor="middle" x="159" y="-45.5" font-family="Helvetica,sans-Serif" font-size="10.00">Interface::Layout</text>
<polyline fill="none" stroke="black" points="92.5,-38.5 225.5,-38.5 "/>
<text text-anchor="middle" x="159" y="-26.5" font-family="Helvetica,sans-Serif" font-size="10.00"> </text>
<polyline fill="none" stroke="black" points="92.5,-19.5 225.5,-19.5 "/>
<text text-anchor="middle" x="159" y="-7.5" font-family="Helvetica,sans-Serif" font-size="10.00"> </text>
</g>
<!-- Node2 -->
<g id="node2" class="node"><title>Node2</title>
<polygon fill="white" stroke="#bfbfbf" points="0,-127.5 0,-184.5 96,-184.5 96,-127.5 0,-127.5"/>
<text text-anchor="middle" x="48" y="-172.5" font-family="Helvetica,sans-Serif" font-size="10.00">vector&lt; TileType &gt;</text>
<polyline fill="none" stroke="#bfbfbf" points="0,-165.5 96,-165.5 "/>
<text text-anchor="middle" x="48" y="-153.5" font-family="Helvetica,sans-Serif" font-size="10.00"> </text>
<polyline fill="none" stroke="#bfbfbf" points="0,-146.5 96,-146.5 "/>
<text text-anchor="middle" x="48" y="-134.5" font-family="Helvetica,sans-Serif" font-size="10.00"> </text>
</g>
<!-- Node2&#45;&gt;Node1 -->
<g id="edge1" class="edge"><title>Node2&#45;&gt;Node1</title>
<path fill="none" stroke="#404040" d="M73.7446,-127.284C87.4701,-112.507 104.643,-94.0199 119.972,-77.517"/>
<polygon fill="none" stroke="#404040" points="120.098,-77.3813 121.25,-70.2629 128.265,-68.5891 127.112,-75.7075 120.098,-77.3813"/>
<text text-anchor="middle" x="125" y="-95.5" font-family="Helvetica,sans-Serif" font-size="10.00"> +tiles</text>
</g>
<!-- Node3 -->
<g id="node3" class="node"><title>Node3</title>
<polygon fill="white" stroke="#bfbfbf" points="114,-127.5 114,-184.5 204,-184.5 204,-127.5 114,-127.5"/>
<text text-anchor="middle" x="159" y="-172.5" font-family="Helvetica,sans-Serif" font-size="10.00">vector&lt; QPoint &gt;</text>
<polyline fill="none" stroke="#bfbfbf" points="114,-165.5 204,-165.5 "/>
<text text-anchor="middle" x="159" y="-153.5" font-family="Helvetica,sans-Serif" font-size="10.00"> </text>
<polyline fill="none" stroke="#bfbfbf" points="114,-146.5 204,-146.5 "/>
<text text-anchor="middle" x="159" y="-134.5" font-family="Helvetica,sans-Serif" font-size="10.00"> </text>
</g>
<!-- Node3&#45;&gt;Node1 -->
<g id="edge2" class="edge"><title>Node3&#45;&gt;Node1</title>
<path fill="none" stroke="#404040" d="M159,-127.284C159,-113.465 159,-96.4009 159,-80.7494"/>
<polygon fill="none" stroke="#404040" points="159,-80.5891 155,-74.5891 159,-68.5891 163,-74.589 159,-80.5891"/>
<text text-anchor="middle" x="182" y="-95.5" font-family="Helvetica,sans-Serif" font-size="10.00"> +enemies</text>
</g>
<!-- Node4 -->
<g id="node4" class="node"><title>Node4</title>
<polygon fill="white" stroke="#bfbfbf" points="222.5,-127.5 222.5,-184.5 251.5,-184.5 251.5,-127.5 222.5,-127.5"/>
<text text-anchor="middle" x="237" y="-172.5" font-family="Helvetica,sans-Serif" font-size="10.00">int</text>
<polyline fill="none" stroke="#bfbfbf" points="222.5,-165.5 251.5,-165.5 "/>
<text text-anchor="middle" x="237" y="-153.5" font-family="Helvetica,sans-Serif" font-size="10.00"> </text>
<polyline fill="none" stroke="#bfbfbf" points="222.5,-146.5 251.5,-146.5 "/>
<text text-anchor="middle" x="237" y="-134.5" font-family="Helvetica,sans-Serif" font-size="10.00"> </text>
</g>
<!-- Node4&#45;&gt;Node1 -->
<g id="edge3" class="edge"><title>Node4&#45;&gt;Node1</title>
<path fill="none" stroke="#404040" d="M228.326,-127.343C223.634,-114.506 217.124,-99.383 209,-87 206.98,-83.9214 204.761,-80.8673 202.414,-77.8733"/>
<polygon fill="none" stroke="#404040" points="202.303,-77.7409 195.38,-75.7244 194.578,-68.5579 201.502,-70.5744 202.303,-77.7409"/>
<text text-anchor="middle" x="239" y="-101" font-family="Helvetica,sans-Serif" font-size="10.00"> +height</text>
<text text-anchor="middle" x="239" y="-90" font-family="Helvetica,sans-Serif" font-size="10.00">+width</text>
</g>
</g>
</svg>
