<?xml version="1.0" encoding="UTF-8" standalone="no"?>
<!DOCTYPE svg PUBLIC "-//W3C//DTD SVG 1.1//EN"
 "http://www.w3.org/Graphics/SVG/1.1/DTD/svg11.dtd">
<!-- Generated by graphviz version 2.38.0 (20140413.2041)
 -->
<!-- Title: Model::layoutGenerator::Room Pages: 1 -->
<svg width="139pt" height="226pt"
 viewBox="0.00 0.00 138.50 226.00" xmlns="http://www.w3.org/2000/svg" xmlns:xlink="http://www.w3.org/1999/xlink">
<g id="graph0" class="graph" transform="scale(1 1) rotate(0) translate(4 222)">
<title>Model::layoutGenerator::Room</title>
<polygon fill="white" stroke="none" points="-4,4 -4,-222 134.5,-222 134.5,4 -4,4"/>
<!-- Node1 -->
<g id="node1" class="node"><title>Node1</title>
<polygon fill="#bfbfbf" stroke="black" points="10.5,-0.5 10.5,-68.5 128.5,-68.5 128.5,-0.5 10.5,-0.5"/>
<text text-anchor="start" x="18.5" y="-56.5" font-family="Helvetica,sans-Serif" font-size="10.00">Model::layoutGenerator</text>
<text text-anchor="middle" x="69.5" y="-45.5" font-family="Helvetica,sans-Serif" font-size="10.00">::Room</text>
<polyline fill="none" stroke="black" points="10.5,-38.5 128.5,-38.5 "/>
<text text-anchor="middle" x="69.5" y="-26.5" font-family="Helvetica,sans-Serif" font-size="10.00"> </text>
<polyline fill="none" stroke="black" points="10.5,-19.5 128.5,-19.5 "/>
<text text-anchor="middle" x="69.5" y="-7.5" font-family="Helvetica,sans-Serif" font-size="10.00"> </text>
</g>
<!-- Node2 -->
<g id="node2" class="node"><title>Node2</title>
<polygon fill="white" stroke="#bfbfbf" points="0,-160.5 0,-217.5 71,-217.5 71,-160.5 0,-160.5"/>
<text text-anchor="middle" x="35.5" y="-205.5" font-family="Helvetica,sans-Serif" font-size="10.00">vector&lt; int &gt;</text>
<polyline fill="none" stroke="#bfbfbf" points="0,-198.5 71,-198.5 "/>
<text text-anchor="middle" x="35.5" y="-186.5" font-family="Helvetica,sans-Serif" font-size="10.00"> </text>
<polyline fill="none" stroke="#bfbfbf" points="0,-179.5 71,-179.5 "/>
<text text-anchor="middle" x="35.5" y="-167.5" font-family="Helvetica,sans-Serif" font-size="10.00"> </text>
</g>
<!-- Node2&#45;&gt;Node1 -->
<g id="edge1" class="edge"><title>Node2&#45;&gt;Node1</title>
<path fill="none" stroke="#404040" d="M39.4704,-160.371C42.6338,-139.962 47.5177,-111.574 53.5,-87 54.0481,-84.7485 54.6398,-82.451 55.2615,-80.1375"/>
<polygon fill="none" stroke="#404040" points="55.2679,-80.1145 53.0659,-73.2479 58.5574,-68.5742 60.7595,-75.4408 55.2679,-80.1145"/>
<text text-anchor="middle" x="67.5" y="-112" font-family="Helvetica,sans-Serif" font-size="10.00"> +tiles</text>
</g>
<!-- Node3 -->
<g id="node3" class="node"><title>Node3</title>
<polygon fill="white" stroke="#bfbfbf" points="89,-160.5 89,-217.5 118,-217.5 118,-160.5 89,-160.5"/>
<text text-anchor="middle" x="103.5" y="-205.5" font-family="Helvetica,sans-Serif" font-size="10.00">int</text>
<polyline fill="none" stroke="#bfbfbf" points="89,-198.5 118,-198.5 "/>
<text text-anchor="middle" x="103.5" y="-186.5" font-family="Helvetica,sans-Serif" font-size="10.00"> </text>
<polyline fill="none" stroke="#bfbfbf" points="89,-179.5 118,-179.5 "/>
<text text-anchor="middle" x="103.5" y="-167.5" font-family="Helvetica,sans-Serif" font-size="10.00"> </text>
</g>
<!-- Node3&#45;&gt;Node1 -->
<g id="edge2" class="edge"><title>Node3&#45;&gt;Node1</title>
<path fill="none" stroke="#404040" d="M97.5384,-160.111C93.1728,-139.817 87.0639,-111.684 81.5,-87 81.0212,-84.8758 80.5281,-82.7031 80.0275,-80.5092"/>
<polygon fill="none" stroke="#404040" points="80.0076,-80.4225 74.764,-75.4722 77.3167,-68.728 82.5603,-73.6783 80.0076,-80.4225"/>
<text text-anchor="middle" x="112" y="-134" font-family="Helvetica,sans-Serif" font-size="10.00"> +id</text>
<text text-anchor="middle" x="112" y="-123" font-family="Helvetica,sans-Serif" font-size="10.00">+bottom</text>
<text text-anchor="middle" x="112" y="-112" font-family="Helvetica,sans-Serif" font-size="10.00">+top</text>
<text text-anchor="middle" x="112" y="-101" font-family="Helvetica,sans-Serif" font-size="10.00">+right</text>
<text text-anchor="middle" x="112" y="-90" font-family="Helvetica,sans-Serif" font-size="10.00">+left</text>
</g>
</g>
</svg>
