<?xml version="1.0" encoding="UTF-8" standalone="no"?>
<!DOCTYPE svg PUBLIC "-//W3C//DTD SVG 1.1//EN"
 "http://www.w3.org/Graphics/SVG/1.1/DTD/svg11.dtd">
<!-- Generated by graphviz version 2.38.0 (20140413.2041)
 -->
<!-- Title: Model::parkSpaceInserter::Direction Pages: 1 -->
<svg width="136pt" height="204pt"
 viewBox="0.00 0.00 136.00 204.00" xmlns="http://www.w3.org/2000/svg" xmlns:xlink="http://www.w3.org/1999/xlink">
<g id="graph0" class="graph" transform="scale(1 1) rotate(0) translate(4 200)">
<title>Model::parkSpaceInserter::Direction</title>
<polygon fill="white" stroke="none" points="-4,4 -4,-200 132,-200 132,4 -4,4"/>
<!-- Node1 -->
<g id="node1" class="node"><title>Node1</title>
<polygon fill="#bfbfbf" stroke="black" points="0,-0.5 0,-68.5 128,-68.5 128,-0.5 0,-0.5"/>
<text text-anchor="start" x="8" y="-56.5" font-family="Helvetica,sans-Serif" font-size="10.00">Model::parkSpaceInserter</text>
<text text-anchor="middle" x="64" y="-45.5" font-family="Helvetica,sans-Serif" font-size="10.00">::Direction</text>
<polyline fill="none" stroke="black" points="0,-38.5 128,-38.5 "/>
<text text-anchor="middle" x="64" y="-26.5" font-family="Helvetica,sans-Serif" font-size="10.00"> </text>
<polyline fill="none" stroke="black" points="0,-19.5 128,-19.5 "/>
<text text-anchor="middle" x="64" y="-7.5" font-family="Helvetica,sans-Serif" font-size="10.00"> </text>
</g>
<!-- Node2 -->
<g id="node2" class="node"><title>Node2</title>
<polygon fill="white" stroke="#bfbfbf" points="49.5,-138.5 49.5,-195.5 78.5,-195.5 78.5,-138.5 49.5,-138.5"/>
<text text-anchor="middle" x="64" y="-183.5" font-family="Helvetica,sans-Serif" font-size="10.00">int</text>
<polyline fill="none" stroke="#bfbfbf" points="49.5,-176.5 78.5,-176.5 "/>
<text text-anchor="middle" x="64" y="-164.5" font-family="Helvetica,sans-Serif" font-size="10.00"> </text>
<polyline fill="none" stroke="#bfbfbf" points="49.5,-157.5 78.5,-157.5 "/>
<text text-anchor="middle" x="64" y="-145.5" font-family="Helvetica,sans-Serif" font-size="10.00"> </text>
</g>
<!-- Node2&#45;&gt;Node1 -->
<g id="edge1" class="edge"><title>Node2&#45;&gt;Node1</title>
<path fill="none" stroke="#404040" d="M64,-138.324C64,-121.63 64,-99.9589 64,-80.8185"/>
<polygon fill="none" stroke="#404040" points="64.0001,-80.6838 60,-74.6838 64,-68.6838 68,-74.6838 64.0001,-80.6838"/>
<text text-anchor="middle" x="81" y="-112" font-family="Helvetica,sans-Serif" font-size="10.00"> +nextX</text>
<text text-anchor="middle" x="81" y="-101" font-family="Helvetica,sans-Serif" font-size="10.00">+nextY</text>
<text text-anchor="middle" x="81" y="-90" font-family="Helvetica,sans-Serif" font-size="10.00">+dir</text>
</g>
</g>
</svg>
