<?xml version="1.0" encoding="UTF-8" standalone="no"?>
<!DOCTYPE svg PUBLIC "-//W3C//DTD SVG 1.1//EN"
 "http://www.w3.org/Graphics/SVG/1.1/DTD/svg11.dtd">
<!-- Generated by graphviz version 2.38.0 (20140413.2041)
 -->
<!-- Title: Model::layoutGenerator::Room Pages: 1 -->
<svg width="196pt" height="287pt"
 viewBox="0.00 0.00 196.00 287.00" xmlns="http://www.w3.org/2000/svg" xmlns:xlink="http://www.w3.org/1999/xlink">
<g id="graph0" class="graph" transform="scale(1 1) rotate(0) translate(4 283)">
<title>Model::layoutGenerator::Room</title>
<polygon fill="white" stroke="none" points="-4,4 -4,-283 192,-283 192,4 -4,4"/>
<!-- Node1 -->
<g id="node1" class="node"><title>Node1</title>
<polygon fill="#bfbfbf" stroke="black" points="0,-0.5 0,-68.5 118,-68.5 118,-0.5 0,-0.5"/>
<text text-anchor="start" x="8" y="-56.5" font-family="Helvetica,sans-Serif" font-size="10.00">Model::layoutGenerator</text>
<text text-anchor="middle" x="59" y="-45.5" font-family="Helvetica,sans-Serif" font-size="10.00">::Room</text>
<polyline fill="none" stroke="black" points="0,-38.5 118,-38.5 "/>
<text text-anchor="middle" x="59" y="-26.5" font-family="Helvetica,sans-Serif" font-size="10.00"> </text>
<polyline fill="none" stroke="black" points="0,-19.5 118,-19.5 "/>
<text text-anchor="middle" x="59" y="-7.5" font-family="Helvetica,sans-Serif" font-size="10.00"> </text>
</g>
<!-- Node2 -->
<g id="node2" class="node"><title>Node2</title>
<polygon fill="white" stroke="#bfbfbf" points="61.5,-221.5 61.5,-278.5 90.5,-278.5 90.5,-221.5 61.5,-221.5"/>
<text text-anchor="middle" x="76" y="-266.5" font-family="Helvetica,sans-Serif" font-size="10.00">int</text>
<polyline fill="none" stroke="#bfbfbf" points="61.5,-259.5 90.5,-259.5 "/>
<text text-anchor="middle" x="76" y="-247.5" font-family="Helvetica,sans-Serif" font-size="10.00"> </text>
<polyline fill="none" stroke="#bfbfbf" points="61.5,-240.5 90.5,-240.5 "/>
<text text-anchor="middle" x="76" y="-228.5" font-family="Helvetica,sans-Serif" font-size="10.00"> </text>
</g>
<!-- Node2&#45;&gt;Node1 -->
<g id="edge1" class="edge"><title>Node2&#45;&gt;Node1</title>
<path fill="none" stroke="#404040" d="M64.8923,-221.362C59.8715,-207.41 54.5092,-190.074 52,-174 47.1916,-143.197 49.0387,-108.119 52.0385,-80.9722"/>
<polygon fill="none" stroke="#404040" points="52.0798,-80.6319 48.8334,-74.1929 53.5286,-68.7197 56.7749,-75.1587 52.0798,-80.6319"/>
<text text-anchor="middle" x="70.5" y="-164.5" font-family="Helvetica,sans-Serif" font-size="10.00"> +id</text>
<text text-anchor="middle" x="70.5" y="-153.5" font-family="Helvetica,sans-Serif" font-size="10.00">+bottom</text>
<text text-anchor="middle" x="70.5" y="-142.5" font-family="Helvetica,sans-Serif" font-size="10.00">+top</text>
<text text-anchor="middle" x="70.5" y="-131.5" font-family="Helvetica,sans-Serif" font-size="10.00">+right</text>
<text text-anchor="middle" x="70.5" y="-120.5" font-family="Helvetica,sans-Serif" font-size="10.00">+left</text>
</g>
<!-- Node3 -->
<g id="node3" class="node"><title>Node3</title>
<polygon fill="white" stroke="#bfbfbf" points="98,-116.5 98,-173.5 188,-173.5 188,-116.5 98,-116.5"/>
<text text-anchor="middle" x="143" y="-161.5" font-family="Helvetica,sans-Serif" font-size="10.00">std::vector&lt; int &gt;</text>
<polyline fill="none" stroke="#bfbfbf" points="98,-154.5 188,-154.5 "/>
<text text-anchor="middle" x="143" y="-142.5" font-family="Helvetica,sans-Serif" font-size="10.00"> </text>
<polyline fill="none" stroke="#bfbfbf" points="98,-135.5 188,-135.5 "/>
<text text-anchor="middle" x="143" y="-123.5" font-family="Helvetica,sans-Serif" font-size="10.00"> </text>
</g>
<!-- Node2&#45;&gt;Node3 -->
<g id="edge3" class="edge"><title>Node2&#45;&gt;Node3</title>
<path fill="none" stroke="#404040" d="M90.538,-226.651C98.6521,-214.177 108.979,-198.301 118.321,-183.939"/>
<polygon fill="none" stroke="#404040" points="118.36,-183.879 118.279,-176.669 124.903,-173.82 124.985,-181.031 118.36,-183.879"/>
<text text-anchor="middle" x="135.5" y="-195" font-family="Helvetica,sans-Serif" font-size="10.00"> +elements</text>
</g>
<!-- Node3&#45;&gt;Node1 -->
<g id="edge2" class="edge"><title>Node3&#45;&gt;Node1</title>
<path fill="none" stroke="#404040" d="M121.586,-116.34C112.6,-104.733 101.943,-90.9678 91.9936,-78.1168"/>
<polygon fill="none" stroke="#404040" points="91.9089,-78.0073 85.0729,-75.7116 84.5627,-68.5186 91.3987,-70.8142 91.9089,-78.0073"/>
<text text-anchor="middle" x="120" y="-90" font-family="Helvetica,sans-Serif" font-size="10.00"> +tiles</text>
</g>
</g>
</svg>
