<?xml version="1.0" encoding="UTF-8" standalone="no"?>
<!DOCTYPE svg PUBLIC "-//W3C//DTD SVG 1.1//EN"
 "http://www.w3.org/Graphics/SVG/1.1/DTD/svg11.dtd">
<!-- Generated by graphviz version 2.38.0 (20140413.2041)
 -->
<!-- Title: Interface/upgradeinterface.hh Pages: 1 -->
<svg width="470pt" height="252pt"
 viewBox="0.00 0.00 470.00 252.00" xmlns="http://www.w3.org/2000/svg" xmlns:xlink="http://www.w3.org/1999/xlink">
<g id="graph0" class="graph" transform="scale(1 1) rotate(0) translate(4 248)">
<title>Interface/upgradeinterface.hh</title>
<polygon fill="white" stroke="none" points="-4,4 -4,-248 466,-248 466,4 -4,4"/>
<!-- Node3 -->
<g id="node1" class="node"><title>Node3</title>
<polygon fill="#bfbfbf" stroke="black" points="163.5,-224.5 163.5,-243.5 304.5,-243.5 304.5,-224.5 163.5,-224.5"/>
<text text-anchor="middle" x="234" y="-231.5" font-family="Helvetica,sans-Serif" font-size="10.00">Interface/upgradeinterface.hh</text>
</g>
<!-- Node4 -->
<g id="node2" class="node"><title>Node4</title>
<g id="a_node2"><a xlink:href="upgrade_8hh.html" target="_top" xlink:title="Model/upgrade.hh">
<polygon fill="white" stroke="black" points="125,-168.5 125,-187.5 219,-187.5 219,-168.5 125,-168.5"/>
<text text-anchor="middle" x="172" y="-175.5" font-family="Helvetica,sans-Serif" font-size="10.00">Model/upgrade.hh</text>
</a>
</g>
</g>
<!-- Node3&#45;&gt;Node4 -->
<g id="edge1" class="edge"><title>Node3&#45;&gt;Node4</title>
<path fill="none" stroke="midnightblue" d="M216.246,-217.537C205.192,-207.909 191.369,-195.869 182.143,-187.834"/>
<polygon fill="midnightblue" stroke="midnightblue" points="214.199,-220.395 224.039,-224.324 218.797,-215.117 214.199,-220.395"/>
</g>
<!-- Node11 -->
<g id="node9" class="node"><title>Node11</title>
<g id="a_node9"><a xlink:href="headquartersui_8hh.html" target="_top" xlink:title="View/headquartersui.hh">
<polygon fill="white" stroke="black" points="237,-168.5 237,-187.5 355,-187.5 355,-168.5 237,-168.5"/>
<text text-anchor="middle" x="296" y="-175.5" font-family="Helvetica,sans-Serif" font-size="10.00">View/headquartersui.hh</text>
</a>
</g>
</g>
<!-- Node3&#45;&gt;Node11 -->
<g id="edge8" class="edge"><title>Node3&#45;&gt;Node11</title>
<path fill="none" stroke="midnightblue" d="M251.754,-217.537C262.808,-207.909 276.631,-195.869 285.857,-187.834"/>
<polygon fill="midnightblue" stroke="midnightblue" points="249.203,-215.117 243.961,-224.324 253.801,-220.395 249.203,-215.117"/>
</g>
<!-- Node5 -->
<g id="node3" class="node"><title>Node5</title>
<g id="a_node3"><a xlink:href="filemanager_8hh.html" target="_top" xlink:title="Model/filemanager.hh">
<polygon fill="white" stroke="black" points="3.5,-112.5 3.5,-131.5 112.5,-131.5 112.5,-112.5 3.5,-112.5"/>
<text text-anchor="middle" x="58" y="-119.5" font-family="Helvetica,sans-Serif" font-size="10.00">Model/filemanager.hh</text>
</a>
</g>
</g>
<!-- Node4&#45;&gt;Node5 -->
<g id="edge2" class="edge"><title>Node4&#45;&gt;Node5</title>
<path fill="none" stroke="midnightblue" d="M144.758,-164.096C123.46,-154.007 94.4583,-140.27 75.9791,-131.516"/>
<polygon fill="midnightblue" stroke="midnightblue" points="143.401,-167.326 153.936,-168.444 146.397,-161 143.401,-167.326"/>
</g>
<!-- Node10 -->
<g id="node8" class="node"><title>Node10</title>
<g id="a_node8"><a xlink:href="upgrade_8cc.html" target="_top" xlink:title="Model/upgrade.cc">
<polygon fill="white" stroke="black" points="131,-112.5 131,-131.5 225,-131.5 225,-112.5 131,-112.5"/>
<text text-anchor="middle" x="178" y="-119.5" font-family="Helvetica,sans-Serif" font-size="10.00">Model/upgrade.cc</text>
</a>
</g>
</g>
<!-- Node4&#45;&gt;Node10 -->
<g id="edge7" class="edge"><title>Node4&#45;&gt;Node10</title>
<path fill="none" stroke="midnightblue" d="M174.1,-158.101C175.096,-149.136 176.238,-138.858 177.028,-131.751"/>
<polygon fill="midnightblue" stroke="midnightblue" points="170.617,-157.758 172.991,-168.083 177.574,-158.531 170.617,-157.758"/>
</g>
<!-- Node6 -->
<g id="node4" class="node"><title>Node6</title>
<g id="a_node4"><a xlink:href="model_8hh.html" target="_top" xlink:title="Model/model.hh">
<polygon fill="white" stroke="black" points="0,-56.5 0,-75.5 86,-75.5 86,-56.5 0,-56.5"/>
<text text-anchor="middle" x="43" y="-63.5" font-family="Helvetica,sans-Serif" font-size="10.00">Model/model.hh</text>
</a>
</g>
</g>
<!-- Node5&#45;&gt;Node6 -->
<g id="edge3" class="edge"><title>Node5&#45;&gt;Node6</title>
<path fill="none" stroke="midnightblue" d="M52.8321,-102.396C50.3228,-93.362 47.4267,-82.936 45.4309,-75.7511"/>
<polygon fill="midnightblue" stroke="midnightblue" points="49.4742,-103.385 55.5231,-112.083 56.2189,-101.511 49.4742,-103.385"/>
</g>
<!-- Node9 -->
<g id="node7" class="node"><title>Node9</title>
<g id="a_node7"><a xlink:href="filemanager_8cc.html" target="_top" xlink:title="Model/filemanager.cc">
<polygon fill="white" stroke="black" points="104.5,-56.5 104.5,-75.5 213.5,-75.5 213.5,-56.5 104.5,-56.5"/>
<text text-anchor="middle" x="159" y="-63.5" font-family="Helvetica,sans-Serif" font-size="10.00">Model/filemanager.cc</text>
</a>
</g>
</g>
<!-- Node5&#45;&gt;Node9 -->
<g id="edge6" class="edge"><title>Node5&#45;&gt;Node9</title>
<path fill="none" stroke="midnightblue" d="M83.0825,-107.59C101.757,-97.6052 126.704,-84.2672 142.813,-75.6545"/>
<polygon fill="midnightblue" stroke="midnightblue" points="81.3959,-104.522 74.2274,-112.324 84.6963,-110.696 81.3959,-104.522"/>
</g>
<!-- Node7 -->
<g id="node5" class="node"><title>Node7</title>
<g id="a_node5"><a xlink:href="main_8cc.html" target="_top" xlink:title="main.cc">
<polygon fill="white" stroke="black" points="160.5,-0.5 160.5,-19.5 211.5,-19.5 211.5,-0.5 160.5,-0.5"/>
<text text-anchor="middle" x="186" y="-7.5" font-family="Helvetica,sans-Serif" font-size="10.00">main.cc</text>
</a>
</g>
</g>
<!-- Node6&#45;&gt;Node7 -->
<g id="edge4" class="edge"><title>Node6&#45;&gt;Node7</title>
<path fill="none" stroke="midnightblue" d="M75.0272,-52.9058C101.912,-42.7536 139.641,-28.5063 163.447,-19.5164"/>
<polygon fill="midnightblue" stroke="midnightblue" points="73.7775,-49.6364 65.6588,-56.4435 76.2505,-56.1851 73.7775,-49.6364"/>
</g>
<!-- Node8 -->
<g id="node6" class="node"><title>Node8</title>
<g id="a_node6"><a xlink:href="model_8cc.html" target="_top" xlink:title="Model/model.cc">
<polygon fill="white" stroke="black" points="0,-0.5 0,-19.5 86,-19.5 86,-0.5 0,-0.5"/>
<text text-anchor="middle" x="43" y="-7.5" font-family="Helvetica,sans-Serif" font-size="10.00">Model/model.cc</text>
</a>
</g>
</g>
<!-- Node6&#45;&gt;Node8 -->
<g id="edge5" class="edge"><title>Node6&#45;&gt;Node8</title>
<path fill="none" stroke="midnightblue" d="M43,-45.8045C43,-36.9102 43,-26.7798 43,-19.7511"/>
<polygon fill="midnightblue" stroke="midnightblue" points="39.5001,-46.083 43,-56.083 46.5001,-46.083 39.5001,-46.083"/>
</g>
<!-- Node12 -->
<g id="node10" class="node"><title>Node12</title>
<g id="a_node10"><a xlink:href="view_8hh.html" target="_top" xlink:title="View/view.hh">
<polygon fill="white" stroke="black" points="254,-112.5 254,-131.5 326,-131.5 326,-112.5 254,-112.5"/>
<text text-anchor="middle" x="290" y="-119.5" font-family="Helvetica,sans-Serif" font-size="10.00">View/view.hh</text>
</a>
</g>
</g>
<!-- Node11&#45;&gt;Node12 -->
<g id="edge9" class="edge"><title>Node11&#45;&gt;Node12</title>
<path fill="none" stroke="midnightblue" d="M293.9,-158.101C292.904,-149.136 291.762,-138.858 290.972,-131.751"/>
<polygon fill="midnightblue" stroke="midnightblue" points="290.426,-158.531 295.009,-168.083 297.383,-157.758 290.426,-158.531"/>
</g>
<!-- Node14 -->
<g id="node12" class="node"><title>Node14</title>
<g id="a_node12"><a xlink:href="headquartersui_8cc.html" target="_top" xlink:title="View/headquartersui.cc">
<polygon fill="white" stroke="black" points="344,-112.5 344,-131.5 462,-131.5 462,-112.5 344,-112.5"/>
<text text-anchor="middle" x="403" y="-119.5" font-family="Helvetica,sans-Serif" font-size="10.00">View/headquartersui.cc</text>
</a>
</g>
</g>
<!-- Node11&#45;&gt;Node14 -->
<g id="edge12" class="edge"><title>Node11&#45;&gt;Node14</title>
<path fill="none" stroke="midnightblue" d="M322.302,-163.726C342.115,-153.727 368.707,-140.307 385.851,-131.655"/>
<polygon fill="midnightblue" stroke="midnightblue" points="320.542,-160.694 313.191,-168.324 323.696,-166.943 320.542,-160.694"/>
</g>
<!-- Node12&#45;&gt;Node7 -->
<g id="edge10" class="edge"><title>Node12&#45;&gt;Node7</title>
<path fill="none" stroke="midnightblue" d="M274.775,-104.897C252.417,-81.2486 211.479,-37.9493 194.123,-19.5914"/>
<polygon fill="midnightblue" stroke="midnightblue" points="272.426,-107.507 281.839,-112.368 277.512,-102.697 272.426,-107.507"/>
</g>
<!-- Node13 -->
<g id="node11" class="node"><title>Node13</title>
<g id="a_node11"><a xlink:href="view_8cc.html" target="_top" xlink:title="View/view.cc">
<polygon fill="white" stroke="black" points="270,-56.5 270,-75.5 342,-75.5 342,-56.5 270,-56.5"/>
<text text-anchor="middle" x="306" y="-63.5" font-family="Helvetica,sans-Serif" font-size="10.00">View/view.cc</text>
</a>
</g>
</g>
<!-- Node12&#45;&gt;Node13 -->
<g id="edge11" class="edge"><title>Node12&#45;&gt;Node13</title>
<path fill="none" stroke="midnightblue" d="M295.512,-102.396C298.189,-93.362 301.278,-82.936 303.407,-75.7511"/>
<polygon fill="midnightblue" stroke="midnightblue" points="292.127,-101.501 292.642,-112.083 298.839,-103.489 292.127,-101.501"/>
</g>
</g>
</svg>
