<?xml version="1.0" encoding="UTF-8" standalone="no"?>
<!DOCTYPE svg PUBLIC "-//W3C//DTD SVG 1.1//EN"
 "http://www.w3.org/Graphics/SVG/1.1/DTD/svg11.dtd">
<!-- Generated by graphviz version 2.38.0 (20140413.2041)
 -->
<!-- Title: Model/upgrade.cc Pages: 1 -->
<svg width="149pt" height="252pt"
 viewBox="0.00 0.00 149.00 252.00" xmlns="http://www.w3.org/2000/svg" xmlns:xlink="http://www.w3.org/1999/xlink">
<g id="graph0" class="graph" transform="scale(1 1) rotate(0) translate(4 248)">
<title>Model/upgrade.cc</title>
<polygon fill="white" stroke="none" points="-4,4 -4,-248 145,-248 145,4 -4,4"/>
<!-- Node0 -->
<g id="node1" class="node"><title>Node0</title>
<polygon fill="#bfbfbf" stroke="black" points="23.5,-224.5 23.5,-243.5 117.5,-243.5 117.5,-224.5 23.5,-224.5"/>
<text text-anchor="middle" x="70.5" y="-231.5" font-family="Helvetica,sans-Serif" font-size="10.00">Model/upgrade.cc</text>
</g>
<!-- Node1 -->
<g id="node2" class="node"><title>Node1</title>
<g id="a_node2"><a xlink:href="upgrade_8hh.html" target="_top" xlink:title="upgrade.hh">
<polygon fill="white" stroke="black" points="38,-168.5 38,-187.5 103,-187.5 103,-168.5 38,-168.5"/>
<text text-anchor="middle" x="70.5" y="-175.5" font-family="Helvetica,sans-Serif" font-size="10.00">upgrade.hh</text>
</a>
</g>
</g>
<!-- Node0&#45;&gt;Node1 -->
<g id="edge1" class="edge"><title>Node0&#45;&gt;Node1</title>
<path fill="none" stroke="midnightblue" d="M70.5,-224.083C70.5,-217.006 70.5,-206.861 70.5,-197.986"/>
<polygon fill="midnightblue" stroke="midnightblue" points="74.0001,-197.751 70.5,-187.751 67.0001,-197.751 74.0001,-197.751"/>
</g>
<!-- Node2 -->
<g id="node3" class="node"><title>Node2</title>
<g id="a_node3"><a xlink:href="upgradeinterface_8hh.html" target="_top" xlink:title="Interface/upgradeinterface.hh">
<polygon fill="white" stroke="black" points="0,-112.5 0,-131.5 141,-131.5 141,-112.5 0,-112.5"/>
<text text-anchor="middle" x="70.5" y="-119.5" font-family="Helvetica,sans-Serif" font-size="10.00">Interface/upgradeinterface.hh</text>
</a>
</g>
</g>
<!-- Node1&#45;&gt;Node2 -->
<g id="edge2" class="edge"><title>Node1&#45;&gt;Node2</title>
<path fill="none" stroke="midnightblue" d="M70.5,-168.083C70.5,-161.006 70.5,-150.861 70.5,-141.986"/>
<polygon fill="midnightblue" stroke="midnightblue" points="74.0001,-141.751 70.5,-131.751 67.0001,-141.751 74.0001,-141.751"/>
</g>
<!-- Node3 -->
<g id="node4" class="node"><title>Node3</title>
<g id="a_node4"><a xlink:href="equipmentinterface_8hh.html" target="_top" xlink:title="Määrittelee yhden tavaran (Equipment) operaatioiden rajapintaluokan. ">
<polygon fill="white" stroke="black" points="14.5,-56.5 14.5,-75.5 126.5,-75.5 126.5,-56.5 14.5,-56.5"/>
<text text-anchor="middle" x="70.5" y="-63.5" font-family="Helvetica,sans-Serif" font-size="10.00">equipmentinterface.hh</text>
</a>
</g>
</g>
<!-- Node2&#45;&gt;Node3 -->
<g id="edge3" class="edge"><title>Node2&#45;&gt;Node3</title>
<path fill="none" stroke="midnightblue" d="M70.5,-112.083C70.5,-105.006 70.5,-94.8611 70.5,-85.9865"/>
<polygon fill="midnightblue" stroke="midnightblue" points="74.0001,-85.751 70.5,-75.7511 67.0001,-85.7511 74.0001,-85.751"/>
</g>
<!-- Node4 -->
<g id="node5" class="node"><title>Node4</title>
<polygon fill="white" stroke="#bfbfbf" points="45.5,-0.5 45.5,-19.5 95.5,-19.5 95.5,-0.5 45.5,-0.5"/>
<text text-anchor="middle" x="70.5" y="-7.5" font-family="Helvetica,sans-Serif" font-size="10.00">QString</text>
</g>
<!-- Node3&#45;&gt;Node4 -->
<g id="edge4" class="edge"><title>Node3&#45;&gt;Node4</title>
<path fill="none" stroke="midnightblue" d="M70.5,-56.083C70.5,-49.0059 70.5,-38.8611 70.5,-29.9865"/>
<polygon fill="midnightblue" stroke="midnightblue" points="74.0001,-29.751 70.5,-19.7511 67.0001,-29.7511 74.0001,-29.751"/>
</g>
</g>
</svg>
