<?xml version="1.0" encoding="UTF-8" standalone="no"?>
<!DOCTYPE svg PUBLIC "-//W3C//DTD SVG 1.1//EN"
 "http://www.w3.org/Graphics/SVG/1.1/DTD/svg11.dtd">
<!-- Generated by graphviz version 2.38.0 (20140413.2041)
 -->
<!-- Title: Interface/viewinterface.hh Pages: 1 -->
<svg width="386pt" height="196pt"
 viewBox="0.00 0.00 386.00 196.00" xmlns="http://www.w3.org/2000/svg" xmlns:xlink="http://www.w3.org/1999/xlink">
<g id="graph0" class="graph" transform="scale(1 1) rotate(0) translate(4 192)">
<title>Interface/viewinterface.hh</title>
<polygon fill="white" stroke="none" points="-4,4 -4,-192 382,-192 382,4 -4,4"/>
<!-- Node9 -->
<g id="node1" class="node"><title>Node9</title>
<polygon fill="#bfbfbf" stroke="black" points="188.5,-168.5 188.5,-187.5 313.5,-187.5 313.5,-168.5 188.5,-168.5"/>
<text text-anchor="middle" x="251" y="-175.5" font-family="Helvetica,sans-Serif" font-size="10.00">Interface/viewinterface.hh</text>
</g>
<!-- Node10 -->
<g id="node2" class="node"><title>Node10</title>
<g id="a_node2"><a xlink:href="controllerinterface_8hh.html" target="_top" xlink:title="Interface/controllerinterface.hh">
<polygon fill="white" stroke="black" points="125,-112.5 125,-131.5 271,-131.5 271,-112.5 125,-112.5"/>
<text text-anchor="middle" x="198" y="-119.5" font-family="Helvetica,sans-Serif" font-size="10.00">Interface/controllerinterface.hh</text>
</a>
</g>
</g>
<!-- Node9&#45;&gt;Node10 -->
<g id="edge1" class="edge"><title>Node9&#45;&gt;Node10</title>
<path fill="none" stroke="midnightblue" d="M235.019,-160.718C225.678,-151.2 214.254,-139.561 206.589,-131.751"/>
<polygon fill="midnightblue" stroke="midnightblue" points="232.746,-163.398 242.248,-168.083 237.741,-158.494 232.746,-163.398"/>
</g>
<!-- Node16 -->
<g id="node8" class="node"><title>Node16</title>
<g id="a_node8"><a xlink:href="view_8hh.html" target="_top" xlink:title="View/view.hh">
<polygon fill="white" stroke="black" points="271,-56.5 271,-75.5 343,-75.5 343,-56.5 271,-56.5"/>
<text text-anchor="middle" x="307" y="-63.5" font-family="Helvetica,sans-Serif" font-size="10.00">View/view.hh</text>
</a>
</g>
</g>
<!-- Node9&#45;&gt;Node16 -->
<g id="edge11" class="edge"><title>Node9&#45;&gt;Node16</title>
<path fill="none" stroke="midnightblue" d="M263.004,-159.965C268.54,-151.726 274.981,-141.568 280,-132 290.217,-112.522 299.415,-88.2998 303.975,-75.6347"/>
<polygon fill="midnightblue" stroke="midnightblue" points="260.043,-158.094 257.262,-168.317 265.811,-162.06 260.043,-158.094"/>
</g>
<!-- Node11 -->
<g id="node3" class="node"><title>Node11</title>
<g id="a_node3"><a xlink:href="controller_8hh.html" target="_top" xlink:title="Controller/controller.hh">
<polygon fill="white" stroke="black" points="139,-56.5 139,-75.5 253,-75.5 253,-56.5 139,-56.5"/>
<text text-anchor="middle" x="196" y="-63.5" font-family="Helvetica,sans-Serif" font-size="10.00">Controller/controller.hh</text>
</a>
</g>
</g>
<!-- Node10&#45;&gt;Node11 -->
<g id="edge2" class="edge"><title>Node10&#45;&gt;Node11</title>
<path fill="none" stroke="midnightblue" d="M197.289,-101.805C196.96,-92.9102 196.584,-82.7798 196.324,-75.7511"/>
<polygon fill="midnightblue" stroke="midnightblue" points="193.802,-102.219 197.67,-112.083 200.797,-101.96 193.802,-102.219"/>
</g>
<!-- Node14 -->
<g id="node6" class="node"><title>Node14</title>
<g id="a_node6"><a xlink:href="model_8hh.html" target="_top" xlink:title="Model/model.hh">
<polygon fill="white" stroke="black" points="35,-56.5 35,-75.5 121,-75.5 121,-56.5 35,-56.5"/>
<text text-anchor="middle" x="78" y="-63.5" font-family="Helvetica,sans-Serif" font-size="10.00">Model/model.hh</text>
</a>
</g>
</g>
<!-- Node10&#45;&gt;Node14 -->
<g id="edge5" class="edge"><title>Node10&#45;&gt;Node14</title>
<path fill="none" stroke="midnightblue" d="M169.627,-108.232C147.18,-98.1312 116.465,-84.3091 96.9254,-75.5164"/>
<polygon fill="midnightblue" stroke="midnightblue" points="168.43,-111.532 178.986,-112.444 171.303,-105.148 168.43,-111.532"/>
</g>
<!-- Node10&#45;&gt;Node16 -->
<g id="edge8" class="edge"><title>Node10&#45;&gt;Node16</title>
<path fill="none" stroke="midnightblue" d="M224.519,-107.862C244.73,-97.8492 271.987,-84.3458 289.531,-75.6545"/>
<polygon fill="midnightblue" stroke="midnightblue" points="222.92,-104.748 215.513,-112.324 226.027,-111.021 222.92,-104.748"/>
</g>
<!-- Node12 -->
<g id="node4" class="node"><title>Node12</title>
<g id="a_node4"><a xlink:href="controller_8cc.html" target="_top" xlink:title="Controller/controller.cc">
<polygon fill="white" stroke="black" points="104,-0.5 104,-19.5 218,-19.5 218,-0.5 104,-0.5"/>
<text text-anchor="middle" x="161" y="-7.5" font-family="Helvetica,sans-Serif" font-size="10.00">Controller/controller.cc</text>
</a>
</g>
</g>
<!-- Node11&#45;&gt;Node12 -->
<g id="edge3" class="edge"><title>Node11&#45;&gt;Node12</title>
<path fill="none" stroke="midnightblue" d="M184.7,-47.5656C178.678,-38.2747 171.531,-27.2484 166.672,-19.7511"/>
<polygon fill="midnightblue" stroke="midnightblue" points="181.844,-49.5951 190.22,-56.083 187.719,-45.7878 181.844,-49.5951"/>
</g>
<!-- Node13 -->
<g id="node5" class="node"><title>Node13</title>
<g id="a_node5"><a xlink:href="main_8cc.html" target="_top" xlink:title="main.cc">
<polygon fill="white" stroke="black" points="236.5,-0.5 236.5,-19.5 287.5,-19.5 287.5,-0.5 236.5,-0.5"/>
<text text-anchor="middle" x="262" y="-7.5" font-family="Helvetica,sans-Serif" font-size="10.00">main.cc</text>
</a>
</g>
</g>
<!-- Node11&#45;&gt;Node13 -->
<g id="edge4" class="edge"><title>Node11&#45;&gt;Node13</title>
<path fill="none" stroke="midnightblue" d="M214.554,-49.8197C226.378,-40.1452 241.286,-27.9481 251.203,-19.8339"/>
<polygon fill="midnightblue" stroke="midnightblue" points="212.127,-47.2827 206.604,-56.324 216.56,-52.7004 212.127,-47.2827"/>
</g>
<!-- Node14&#45;&gt;Node13 -->
<g id="edge6" class="edge"><title>Node14&#45;&gt;Node13</title>
<path fill="none" stroke="midnightblue" d="M116.826,-53.6055C152.774,-43.0556 205.215,-27.6652 236.247,-18.558"/>
<polygon fill="midnightblue" stroke="midnightblue" points="115.765,-50.2691 107.155,-56.4435 117.736,-56.9858 115.765,-50.2691"/>
</g>
<!-- Node15 -->
<g id="node7" class="node"><title>Node15</title>
<g id="a_node7"><a xlink:href="model_8cc.html" target="_top" xlink:title="Model/model.cc">
<polygon fill="white" stroke="black" points="0,-0.5 0,-19.5 86,-19.5 86,-0.5 0,-0.5"/>
<text text-anchor="middle" x="43" y="-7.5" font-family="Helvetica,sans-Serif" font-size="10.00">Model/model.cc</text>
</a>
</g>
</g>
<!-- Node14&#45;&gt;Node15 -->
<g id="edge7" class="edge"><title>Node14&#45;&gt;Node15</title>
<path fill="none" stroke="midnightblue" d="M66.6999,-47.5656C60.6781,-38.2747 53.5314,-27.2484 48.672,-19.7511"/>
<polygon fill="midnightblue" stroke="midnightblue" points="63.8444,-49.5951 72.2205,-56.083 69.7185,-45.7878 63.8444,-49.5951"/>
</g>
<!-- Node16&#45;&gt;Node13 -->
<g id="edge9" class="edge"><title>Node16&#45;&gt;Node13</title>
<path fill="none" stroke="midnightblue" d="M292.953,-48.144C285.113,-38.7357 275.671,-27.4046 269.293,-19.7511"/>
<polygon fill="midnightblue" stroke="midnightblue" points="290.479,-50.6414 299.569,-56.083 295.856,-46.1601 290.479,-50.6414"/>
</g>
<!-- Node17 -->
<g id="node9" class="node"><title>Node17</title>
<g id="a_node9"><a xlink:href="view_8cc.html" target="_top" xlink:title="View/view.cc">
<polygon fill="white" stroke="black" points="306,-0.5 306,-19.5 378,-19.5 378,-0.5 306,-0.5"/>
<text text-anchor="middle" x="342" y="-7.5" font-family="Helvetica,sans-Serif" font-size="10.00">View/view.cc</text>
</a>
</g>
</g>
<!-- Node16&#45;&gt;Node17 -->
<g id="edge10" class="edge"><title>Node16&#45;&gt;Node17</title>
<path fill="none" stroke="midnightblue" d="M318.3,-47.5656C324.322,-38.2747 331.469,-27.2484 336.328,-19.7511"/>
<polygon fill="midnightblue" stroke="midnightblue" points="315.281,-45.7878 312.78,-56.083 321.156,-49.5951 315.281,-45.7878"/>
</g>
</g>
</svg>
