<?xml version="1.0" encoding="UTF-8" standalone="no"?>
<!DOCTYPE svg PUBLIC "-//W3C//DTD SVG 1.1//EN"
 "http://www.w3.org/Graphics/SVG/1.1/DTD/svg11.dtd">
<!-- Generated by graphviz version 2.38.0 (20140413.2041)
 -->
<!-- Title: View/view.hh Pages: 1 -->
<svg width="150pt" height="84pt"
 viewBox="0.00 0.00 149.50 84.00" xmlns="http://www.w3.org/2000/svg" xmlns:xlink="http://www.w3.org/1999/xlink">
<g id="graph0" class="graph" transform="scale(1 1) rotate(0) translate(4 80)">
<title>View/view.hh</title>
<polygon fill="white" stroke="none" points="-4,4 -4,-80 145.5,-80 145.5,4 -4,4"/>
<!-- Node53 -->
<g id="node1" class="node"><title>Node53</title>
<polygon fill="#bfbfbf" stroke="black" points="29.5,-56.5 29.5,-75.5 101.5,-75.5 101.5,-56.5 29.5,-56.5"/>
<text text-anchor="middle" x="65.5" y="-63.5" font-family="Helvetica,sans-Serif" font-size="10.00">View/view.hh</text>
</g>
<!-- Node54 -->
<g id="node2" class="node"><title>Node54</title>
<g id="a_node2"><a xlink:href="main_8cc.html" target="_top" xlink:title="main.cc">
<polygon fill="white" stroke="black" points="0,-0.5 0,-19.5 51,-19.5 51,-0.5 0,-0.5"/>
<text text-anchor="middle" x="25.5" y="-7.5" font-family="Helvetica,sans-Serif" font-size="10.00">main.cc</text>
</a>
</g>
</g>
<!-- Node53&#45;&gt;Node54 -->
<g id="edge1" class="edge"><title>Node53&#45;&gt;Node54</title>
<path fill="none" stroke="midnightblue" d="M52.8003,-47.8554C45.874,-38.5048 37.5937,-27.3265 31.9823,-19.7511"/>
<polygon fill="midnightblue" stroke="midnightblue" points="50.13,-50.1307 58.8948,-56.083 55.755,-45.9641 50.13,-50.1307"/>
</g>
<!-- Node55 -->
<g id="node3" class="node"><title>Node55</title>
<g id="a_node3"><a xlink:href="view_8cc.html" target="_top" xlink:title="View/view.cc">
<polygon fill="white" stroke="black" points="69.5,-0.5 69.5,-19.5 141.5,-19.5 141.5,-0.5 69.5,-0.5"/>
<text text-anchor="middle" x="105.5" y="-7.5" font-family="Helvetica,sans-Serif" font-size="10.00">View/view.cc</text>
</a>
</g>
</g>
<!-- Node53&#45;&gt;Node55 -->
<g id="edge2" class="edge"><title>Node53&#45;&gt;Node55</title>
<path fill="none" stroke="midnightblue" d="M78.1997,-47.8554C85.126,-38.5048 93.4063,-27.3265 99.0177,-19.7511"/>
<polygon fill="midnightblue" stroke="midnightblue" points="75.245,-45.9641 72.1052,-56.083 80.87,-50.1307 75.245,-45.9641"/>
</g>
</g>
</svg>
