<?xml version="1.0" encoding="UTF-8" standalone="no"?>
<!DOCTYPE svg PUBLIC "-//W3C//DTD SVG 1.1//EN"
 "http://www.w3.org/Graphics/SVG/1.1/DTD/svg11.dtd">
<!-- Generated by graphviz version 2.38.0 (20140413.2041)
 -->
<!-- Title: View/viewsidedisplaymanager.cc Pages: 1 -->
<svg width="772pt" height="196pt"
 viewBox="0.00 0.00 771.50 196.00" xmlns="http://www.w3.org/2000/svg" xmlns:xlink="http://www.w3.org/1999/xlink">
<g id="graph0" class="graph" transform="scale(1 1) rotate(0) translate(4 192)">
<title>View/viewsidedisplaymanager.cc</title>
<polygon fill="white" stroke="none" points="-4,4 -4,-192 767.5,-192 767.5,4 -4,4"/>
<!-- Node0 -->
<g id="node1" class="node"><title>Node0</title>
<polygon fill="#bfbfbf" stroke="black" points="538.5,-168.5 538.5,-187.5 696.5,-187.5 696.5,-168.5 538.5,-168.5"/>
<text text-anchor="middle" x="617.5" y="-175.5" font-family="Helvetica,sans-Serif" font-size="10.00">View/viewsidedisplaymanager.cc</text>
</g>
<!-- Node1 -->
<g id="node2" class="node"><title>Node1</title>
<g id="a_node2"><a xlink:href="viewsidedisplaymanager_8hh.html" target="_top" xlink:title="viewsidedisplaymanager.hh">
<polygon fill="white" stroke="black" points="394.5,-112.5 394.5,-131.5 528.5,-131.5 528.5,-112.5 394.5,-112.5"/>
<text text-anchor="middle" x="461.5" y="-119.5" font-family="Helvetica,sans-Serif" font-size="10.00">viewsidedisplaymanager.hh</text>
</a>
</g>
</g>
<!-- Node0&#45;&gt;Node1 -->
<g id="edge1" class="edge"><title>Node0&#45;&gt;Node1</title>
<path fill="none" stroke="midnightblue" d="M592.781,-168.444C566.652,-159.399 525.241,-145.064 495.924,-134.916"/>
<polygon fill="midnightblue" stroke="midnightblue" points="496.698,-131.48 486.103,-131.516 494.408,-138.095 496.698,-131.48"/>
</g>
<!-- Node11 -->
<g id="node12" class="node"><title>Node11</title>
<polygon fill="white" stroke="#bfbfbf" points="546.5,-112.5 546.5,-131.5 688.5,-131.5 688.5,-112.5 546.5,-112.5"/>
<text text-anchor="middle" x="617.5" y="-119.5" font-family="Helvetica,sans-Serif" font-size="10.00">ui_viewsidedisplaymanager.h</text>
</g>
<!-- Node0&#45;&gt;Node11 -->
<g id="edge12" class="edge"><title>Node0&#45;&gt;Node11</title>
<path fill="none" stroke="midnightblue" d="M617.5,-168.083C617.5,-161.006 617.5,-150.861 617.5,-141.986"/>
<polygon fill="midnightblue" stroke="midnightblue" points="621,-141.751 617.5,-131.751 614,-141.751 621,-141.751"/>
</g>
<!-- Node12 -->
<g id="node13" class="node"><title>Node12</title>
<polygon fill="white" stroke="#bfbfbf" points="706.5,-112.5 706.5,-131.5 758.5,-131.5 758.5,-112.5 706.5,-112.5"/>
<text text-anchor="middle" x="732.5" y="-119.5" font-family="Helvetica,sans-Serif" font-size="10.00">QDebug</text>
</g>
<!-- Node0&#45;&gt;Node12 -->
<g id="edge13" class="edge"><title>Node0&#45;&gt;Node12</title>
<path fill="none" stroke="midnightblue" d="M635.722,-168.444C654.396,-159.675 683.656,-145.935 705.117,-135.858"/>
<polygon fill="midnightblue" stroke="midnightblue" points="706.799,-138.935 714.363,-131.516 703.824,-132.599 706.799,-138.935"/>
</g>
<!-- Node2 -->
<g id="node3" class="node"><title>Node2</title>
<g id="a_node3"><a xlink:href="viewsidedisplaymousesensitivepixmap_8hh.html" target="_top" xlink:title="viewsidedisplaymousesensitivepixmap.hh">
<polygon fill="white" stroke="black" points="51,-56.5 51,-75.5 246,-75.5 246,-56.5 51,-56.5"/>
<text text-anchor="middle" x="148.5" y="-63.5" font-family="Helvetica,sans-Serif" font-size="10.00">viewsidedisplaymousesensitivepixmap.hh</text>
</a>
</g>
</g>
<!-- Node1&#45;&gt;Node2 -->
<g id="edge2" class="edge"><title>Node1&#45;&gt;Node2</title>
<path fill="none" stroke="midnightblue" d="M411.904,-112.444C356.501,-102.885 266.857,-87.4195 207.795,-77.2298"/>
<polygon fill="midnightblue" stroke="midnightblue" points="208.313,-73.7676 197.864,-75.5164 207.123,-80.6657 208.313,-73.7676"/>
</g>
<!-- Node4 -->
<g id="node5" class="node"><title>Node4</title>
<polygon fill="white" stroke="#bfbfbf" points="234,-0.5 234,-19.5 349,-19.5 349,-0.5 234,-0.5"/>
<text text-anchor="middle" x="291.5" y="-7.5" font-family="Helvetica,sans-Serif" font-size="10.00">QGraphicsPixmapItem</text>
</g>
<!-- Node1&#45;&gt;Node4 -->
<g id="edge9" class="edge"><title>Node1&#45;&gt;Node4</title>
<path fill="none" stroke="midnightblue" d="M394.379,-117.451C362.896,-112.282 327.364,-100.814 304.5,-76 293.178,-63.7124 290.517,-44.4554 290.334,-30.0864"/>
<polygon fill="midnightblue" stroke="midnightblue" points="293.84,-29.9251 290.602,-19.8373 286.842,-29.7427 293.84,-29.9251"/>
</g>
<!-- Node6 -->
<g id="node7" class="node"><title>Node6</title>
<polygon fill="white" stroke="#bfbfbf" points="313.5,-56.5 313.5,-75.5 397.5,-75.5 397.5,-56.5 313.5,-56.5"/>
<text text-anchor="middle" x="355.5" y="-63.5" font-family="Helvetica,sans-Serif" font-size="10.00">QGraphicsView</text>
</g>
<!-- Node1&#45;&gt;Node6 -->
<g id="edge6" class="edge"><title>Node1&#45;&gt;Node6</title>
<path fill="none" stroke="midnightblue" d="M444.469,-112.324C427.47,-103.664 401.124,-90.2424 381.507,-80.249"/>
<polygon fill="midnightblue" stroke="midnightblue" points="382.988,-77.0752 372.488,-75.6545 379.81,-83.3125 382.988,-77.0752"/>
</g>
<!-- Node7 -->
<g id="node8" class="node"><title>Node7</title>
<polygon fill="white" stroke="#bfbfbf" points="416,-56.5 416,-75.5 507,-75.5 507,-56.5 416,-56.5"/>
<text text-anchor="middle" x="461.5" y="-63.5" font-family="Helvetica,sans-Serif" font-size="10.00">QGraphicsScene</text>
</g>
<!-- Node1&#45;&gt;Node7 -->
<g id="edge7" class="edge"><title>Node1&#45;&gt;Node7</title>
<path fill="none" stroke="midnightblue" d="M461.5,-112.083C461.5,-105.006 461.5,-94.8611 461.5,-85.9865"/>
<polygon fill="midnightblue" stroke="midnightblue" points="465,-85.751 461.5,-75.7511 458,-85.7511 465,-85.751"/>
</g>
<!-- Node8 -->
<g id="node9" class="node"><title>Node8</title>
<polygon fill="white" stroke="#bfbfbf" points="525.5,-56.5 525.5,-75.5 627.5,-75.5 627.5,-56.5 525.5,-56.5"/>
<text text-anchor="middle" x="576.5" y="-63.5" font-family="Helvetica,sans-Serif" font-size="10.00">QGraphicsRectItem</text>
</g>
<!-- Node1&#45;&gt;Node8 -->
<g id="edge8" class="edge"><title>Node1&#45;&gt;Node8</title>
<path fill="none" stroke="midnightblue" d="M479.722,-112.444C498.396,-103.675 527.656,-89.9355 549.117,-79.8579"/>
<polygon fill="midnightblue" stroke="midnightblue" points="550.799,-82.935 558.363,-75.5164 547.824,-76.5988 550.799,-82.935"/>
</g>
<!-- Node9 -->
<g id="node10" class="node"><title>Node9</title>
<polygon fill="white" stroke="#bfbfbf" points="646,-56.5 646,-75.5 693,-75.5 693,-56.5 646,-56.5"/>
<text text-anchor="middle" x="669.5" y="-63.5" font-family="Helvetica,sans-Serif" font-size="10.00">QLabel</text>
</g>
<!-- Node1&#45;&gt;Node9 -->
<g id="edge10" class="edge"><title>Node1&#45;&gt;Node9</title>
<path fill="none" stroke="midnightblue" d="M495.414,-112.435C528.698,-103.995 581.158,-90.6004 635.847,-76.1448"/>
<polygon fill="midnightblue" stroke="midnightblue" points="636.948,-79.474 645.718,-73.5304 635.155,-72.7073 636.948,-79.474"/>
</g>
<!-- Node10 -->
<g id="node11" class="node"><title>Node10</title>
<polygon fill="white" stroke="#bfbfbf" points="711.5,-56.5 711.5,-75.5 763.5,-75.5 763.5,-56.5 711.5,-56.5"/>
<text text-anchor="middle" x="737.5" y="-63.5" font-family="Helvetica,sans-Serif" font-size="10.00">memory</text>
</g>
<!-- Node1&#45;&gt;Node10 -->
<g id="edge11" class="edge"><title>Node1&#45;&gt;Node10</title>
<path fill="none" stroke="midnightblue" d="M512.947,-112.424C559.682,-104.401 630.73,-91.628 701.23,-76.1705"/>
<polygon fill="midnightblue" stroke="midnightblue" points="702.164,-79.5487 711.172,-73.9718 700.652,-72.7138 702.164,-79.5487"/>
</g>
<!-- Node3 -->
<g id="node4" class="node"><title>Node3</title>
<polygon fill="white" stroke="#bfbfbf" points="0,-0.5 0,-19.5 53,-19.5 53,-0.5 0,-0.5"/>
<text text-anchor="middle" x="26.5" y="-7.5" font-family="Helvetica,sans-Serif" font-size="10.00">QObject</text>
</g>
<!-- Node2&#45;&gt;Node3 -->
<g id="edge3" class="edge"><title>Node2&#45;&gt;Node3</title>
<path fill="none" stroke="midnightblue" d="M129.169,-56.4435C109.18,-47.5961 77.7569,-33.6875 54.9361,-23.5865"/>
<polygon fill="midnightblue" stroke="midnightblue" points="56.3018,-20.3635 45.7408,-19.5164 53.4685,-26.7645 56.3018,-20.3635"/>
</g>
<!-- Node2&#45;&gt;Node4 -->
<g id="edge4" class="edge"><title>Node2&#45;&gt;Node4</title>
<path fill="none" stroke="midnightblue" d="M171.159,-56.4435C194.902,-47.4776 232.409,-33.314 259.238,-23.1827"/>
<polygon fill="midnightblue" stroke="midnightblue" points="260.829,-26.3235 268.947,-19.5164 258.356,-19.7749 260.829,-26.3235"/>
</g>
<!-- Node5 -->
<g id="node6" class="node"><title>Node5</title>
<polygon fill="white" stroke="#bfbfbf" points="71.5,-0.5 71.5,-19.5 215.5,-19.5 215.5,-0.5 71.5,-0.5"/>
<text text-anchor="middle" x="143.5" y="-7.5" font-family="Helvetica,sans-Serif" font-size="10.00">QGraphicsSceneMouseEvent</text>
</g>
<!-- Node2&#45;&gt;Node5 -->
<g id="edge5" class="edge"><title>Node2&#45;&gt;Node5</title>
<path fill="none" stroke="midnightblue" d="M147.674,-56.083C147.019,-49.0059 146.08,-38.8611 145.258,-29.9865"/>
<polygon fill="midnightblue" stroke="midnightblue" points="148.717,-29.3858 144.31,-19.7511 141.747,-30.0312 148.717,-29.3858"/>
</g>
</g>
</svg>
