<?xml version="1.0" encoding="UTF-8" standalone="no"?>
<!DOCTYPE svg PUBLIC "-//W3C//DTD SVG 1.1//EN"
 "http://www.w3.org/Graphics/SVG/1.1/DTD/svg11.dtd">
<!-- Generated by graphviz version 2.38.0 (20140413.2041)
 -->
<!-- Title: View/viewsidedisplaymousesensitivepixmap.cc Pages: 1 -->
<svg width="357pt" height="140pt"
 viewBox="0.00 0.00 356.50 140.00" xmlns="http://www.w3.org/2000/svg" xmlns:xlink="http://www.w3.org/1999/xlink">
<g id="graph0" class="graph" transform="scale(1 1) rotate(0) translate(4 136)">
<title>View/viewsidedisplaymousesensitivepixmap.cc</title>
<polygon fill="white" stroke="none" points="-4,4 -4,-136 352.5,-136 352.5,4 -4,4"/>
<!-- Node0 -->
<g id="node1" class="node"><title>Node0</title>
<polygon fill="#bfbfbf" stroke="black" points="90,-112.5 90,-131.5 309,-131.5 309,-112.5 90,-112.5"/>
<text text-anchor="middle" x="199.5" y="-119.5" font-family="Helvetica,sans-Serif" font-size="10.00">View/viewsidedisplaymousesensitivepixmap.cc</text>
</g>
<!-- Node1 -->
<g id="node2" class="node"><title>Node1</title>
<g id="a_node2"><a xlink:href="viewsidedisplaymousesensitivepixmap_8hh.html" target="_top" xlink:title="viewsidedisplaymousesensitivepixmap.hh">
<polygon fill="white" stroke="black" points="31,-56.5 31,-75.5 226,-75.5 226,-56.5 31,-56.5"/>
<text text-anchor="middle" x="128.5" y="-63.5" font-family="Helvetica,sans-Serif" font-size="10.00">viewsidedisplaymousesensitivepixmap.hh</text>
</a>
</g>
</g>
<!-- Node0&#45;&gt;Node1 -->
<g id="edge1" class="edge"><title>Node0&#45;&gt;Node1</title>
<path fill="none" stroke="midnightblue" d="M188.093,-112.324C177.391,-104.185 161.159,-91.8395 148.337,-82.0874"/>
<polygon fill="midnightblue" stroke="midnightblue" points="150.193,-79.1018 140.115,-75.8339 145.956,-84.6734 150.193,-79.1018"/>
</g>
<!-- Node5 -->
<g id="node6" class="node"><title>Node5</title>
<polygon fill="white" stroke="#bfbfbf" points="244.5,-56.5 244.5,-75.5 296.5,-75.5 296.5,-56.5 244.5,-56.5"/>
<text text-anchor="middle" x="270.5" y="-63.5" font-family="Helvetica,sans-Serif" font-size="10.00">QDebug</text>
</g>
<!-- Node0&#45;&gt;Node5 -->
<g id="edge5" class="edge"><title>Node0&#45;&gt;Node5</title>
<path fill="none" stroke="midnightblue" d="M210.907,-112.324C221.609,-104.185 237.841,-91.8395 250.663,-82.0874"/>
<polygon fill="midnightblue" stroke="midnightblue" points="253.044,-84.6734 258.885,-75.8339 248.807,-79.1018 253.044,-84.6734"/>
</g>
<!-- Node2 -->
<g id="node3" class="node"><title>Node2</title>
<polygon fill="white" stroke="#bfbfbf" points="0,-0.5 0,-19.5 53,-19.5 53,-0.5 0,-0.5"/>
<text text-anchor="middle" x="26.5" y="-7.5" font-family="Helvetica,sans-Serif" font-size="10.00">QObject</text>
</g>
<!-- Node1&#45;&gt;Node2 -->
<g id="edge2" class="edge"><title>Node1&#45;&gt;Node2</title>
<path fill="none" stroke="midnightblue" d="M112.112,-56.324C95.8287,-47.7034 70.6325,-34.3643 51.7837,-24.3855"/>
<polygon fill="midnightblue" stroke="midnightblue" points="53.3229,-21.2402 42.8474,-19.6545 50.0477,-27.4267 53.3229,-21.2402"/>
</g>
<!-- Node3 -->
<g id="node4" class="node"><title>Node3</title>
<polygon fill="white" stroke="#bfbfbf" points="71,-0.5 71,-19.5 186,-19.5 186,-0.5 71,-0.5"/>
<text text-anchor="middle" x="128.5" y="-7.5" font-family="Helvetica,sans-Serif" font-size="10.00">QGraphicsPixmapItem</text>
</g>
<!-- Node1&#45;&gt;Node3 -->
<g id="edge3" class="edge"><title>Node1&#45;&gt;Node3</title>
<path fill="none" stroke="midnightblue" d="M128.5,-56.083C128.5,-49.0059 128.5,-38.8611 128.5,-29.9865"/>
<polygon fill="midnightblue" stroke="midnightblue" points="132,-29.751 128.5,-19.7511 125,-29.7511 132,-29.751"/>
</g>
<!-- Node4 -->
<g id="node5" class="node"><title>Node4</title>
<polygon fill="white" stroke="#bfbfbf" points="204.5,-0.5 204.5,-19.5 348.5,-19.5 348.5,-0.5 204.5,-0.5"/>
<text text-anchor="middle" x="276.5" y="-7.5" font-family="Helvetica,sans-Serif" font-size="10.00">QGraphicsSceneMouseEvent</text>
</g>
<!-- Node1&#45;&gt;Node4 -->
<g id="edge4" class="edge"><title>Node1&#45;&gt;Node4</title>
<path fill="none" stroke="midnightblue" d="M151.951,-56.4435C176.633,-47.4381 215.685,-33.1891 243.477,-23.049"/>
<polygon fill="midnightblue" stroke="midnightblue" points="244.964,-26.2321 253.159,-19.5164 242.565,-19.6561 244.964,-26.2321"/>
</g>
</g>
</svg>
