<?xml version="1.0" encoding="UTF-8" standalone="no"?>
<!DOCTYPE svg PUBLIC "-//W3C//DTD SVG 1.1//EN"
 "http://www.w3.org/Graphics/SVG/1.1/DTD/svg11.dtd">
<!-- Generated by graphviz version 2.38.0 (20140413.2041)
 -->
<!-- Title: Interface/viewinterface.hh Pages: 1 -->
<svg width="556pt" height="196pt"
 viewBox="0.00 0.00 555.50 196.00" xmlns="http://www.w3.org/2000/svg" xmlns:xlink="http://www.w3.org/1999/xlink">
<g id="graph0" class="graph" transform="scale(1 1) rotate(0) translate(4 192)">
<title>Interface/viewinterface.hh</title>
<polygon fill="white" stroke="none" points="-4,4 -4,-192 551.5,-192 551.5,4 -4,4"/>
<!-- Node0 -->
<g id="node1" class="node"><title>Node0</title>
<polygon fill="#bfbfbf" stroke="black" points="225.5,-168.5 225.5,-187.5 350.5,-187.5 350.5,-168.5 225.5,-168.5"/>
<text text-anchor="middle" x="288" y="-175.5" font-family="Helvetica,sans-Serif" font-size="10.00">Interface/viewinterface.hh</text>
</g>
<!-- Node1 -->
<g id="node2" class="node"><title>Node1</title>
<g id="a_node2"><a xlink:href="actorinterface_8hh.html" target="_top" xlink:title="M채채rittelee yhden toimijan operaatioiden rajapintaluokan. ">
<polygon fill="white" stroke="black" points="77.5,-112.5 77.5,-131.5 166.5,-131.5 166.5,-112.5 77.5,-112.5"/>
<text text-anchor="middle" x="122" y="-119.5" font-family="Helvetica,sans-Serif" font-size="10.00">actorinterface.hh</text>
</a>
</g>
</g>
<!-- Node0&#45;&gt;Node1 -->
<g id="edge1" class="edge"><title>Node0&#45;&gt;Node1</title>
<path fill="none" stroke="midnightblue" d="M261.697,-168.444C233.649,-159.32 189.056,-144.813 157.816,-134.651"/>
<polygon fill="midnightblue" stroke="midnightblue" points="158.772,-131.282 148.18,-131.516 156.607,-137.938 158.772,-131.282"/>
</g>
<!-- Node2 -->
<g id="node3" class="node"><title>Node2</title>
<polygon fill="white" stroke="#bfbfbf" points="159,-0.5 159,-19.5 209,-19.5 209,-0.5 159,-0.5"/>
<text text-anchor="middle" x="184" y="-7.5" font-family="Helvetica,sans-Serif" font-size="10.00">QString</text>
</g>
<!-- Node0&#45;&gt;Node2 -->
<g id="edge13" class="edge"><title>Node0&#45;&gt;Node2</title>
<path fill="none" stroke="midnightblue" d="M289.086,-168.422C291.302,-147.181 294.199,-91.3099 269,-56 256.97,-39.1425 236.644,-28.0566 218.885,-21.1068"/>
<polygon fill="midnightblue" stroke="midnightblue" points="219.946,-17.7688 209.352,-17.6609 217.567,-24.352 219.946,-17.7688"/>
</g>
<!-- Node3 -->
<g id="node4" class="node"><title>Node3</title>
<polygon fill="white" stroke="#bfbfbf" points="0,-56.5 0,-75.5 52,-75.5 52,-56.5 0,-56.5"/>
<text text-anchor="middle" x="26" y="-63.5" font-family="Helvetica,sans-Serif" font-size="10.00">memory</text>
</g>
<!-- Node0&#45;&gt;Node3 -->
<g id="edge11" class="edge"><title>Node0&#45;&gt;Node3</title>
<path fill="none" stroke="midnightblue" d="M225.133,-176.884C178.166,-173.952 114.351,-163.673 68,-132 51.2357,-120.545 39.6277,-99.9622 32.9304,-85.0208"/>
<polygon fill="midnightblue" stroke="midnightblue" points="36.1496,-83.6466 29.0754,-75.7595 29.6871,-86.3367 36.1496,-83.6466"/>
</g>
<!-- Node4 -->
<g id="node5" class="node"><title>Node4</title>
<g id="a_node5"><a xlink:href="equipmentinterface_8hh.html" target="_top" xlink:title="M채채rittelee yhden tavaran (Equipment) operaatioiden rajapintaluokan. ">
<polygon fill="white" stroke="black" points="108,-56.5 108,-75.5 260,-75.5 260,-56.5 108,-56.5"/>
<text text-anchor="middle" x="184" y="-63.5" font-family="Helvetica,sans-Serif" font-size="10.00">Interface/equipmentinterface.hh</text>
</a>
</g>
</g>
<!-- Node0&#45;&gt;Node4 -->
<g id="edge6" class="edge"><title>Node0&#45;&gt;Node4</title>
<path fill="none" stroke="midnightblue" d="M279.839,-168.368C262.448,-149.974 221.507,-106.671 199.176,-83.0519"/>
<polygon fill="midnightblue" stroke="midnightblue" points="201.536,-80.4534 192.123,-75.5914 196.45,-85.2625 201.536,-80.4534"/>
</g>
<!-- Node5 -->
<g id="node6" class="node"><title>Node5</title>
<g id="a_node6"><a xlink:href="parkinghalllayoutinterface_8hh.html" target="_top" xlink:title="parkinghalllayoutinterface.hh">
<polygon fill="white" stroke="black" points="354,-112.5 354,-131.5 494,-131.5 494,-112.5 354,-112.5"/>
<text text-anchor="middle" x="424" y="-119.5" font-family="Helvetica,sans-Serif" font-size="10.00">parkinghalllayoutinterface.hh</text>
</a>
</g>
</g>
<!-- Node0&#45;&gt;Node5 -->
<g id="edge7" class="edge"><title>Node0&#45;&gt;Node5</title>
<path fill="none" stroke="midnightblue" d="M309.55,-168.444C332.031,-159.517 367.488,-145.439 392.98,-135.317"/>
<polygon fill="midnightblue" stroke="midnightblue" points="394.549,-138.46 402.551,-131.516 391.965,-131.954 394.549,-138.46"/>
</g>
<!-- Node6 -->
<g id="node7" class="node"><title>Node6</title>
<polygon fill="white" stroke="#bfbfbf" points="328,-56.5 328,-75.5 370,-75.5 370,-56.5 328,-56.5"/>
<text text-anchor="middle" x="349" y="-63.5" font-family="Helvetica,sans-Serif" font-size="10.00">vector</text>
</g>
<!-- Node0&#45;&gt;Node6 -->
<g id="edge10" class="edge"><title>Node0&#45;&gt;Node6</title>
<path fill="none" stroke="midnightblue" d="M292.787,-168.368C302.764,-150.376 325.958,-108.55 339.225,-84.6267"/>
<polygon fill="midnightblue" stroke="midnightblue" points="342.447,-86.0342 344.236,-75.5914 336.325,-82.6393 342.447,-86.0342"/>
</g>
<!-- Node8 -->
<g id="node9" class="node"><title>Node8</title>
<polygon fill="white" stroke="#bfbfbf" points="512.5,-112.5 512.5,-131.5 547.5,-131.5 547.5,-112.5 512.5,-112.5"/>
<text text-anchor="middle" x="530" y="-119.5" font-family="Helvetica,sans-Serif" font-size="10.00">map</text>
</g>
<!-- Node0&#45;&gt;Node8 -->
<g id="edge12" class="edge"><title>Node0&#45;&gt;Node8</title>
<path fill="none" stroke="midnightblue" d="M336.624,-168.482C378.224,-160.822 439.841,-148.598 502.336,-131.917"/>
<polygon fill="midnightblue" stroke="midnightblue" points="503.632,-135.192 512.37,-129.201 501.803,-128.435 503.632,-135.192"/>
</g>
<!-- Node1&#45;&gt;Node2 -->
<g id="edge2" class="edge"><title>Node1&#45;&gt;Node2</title>
<path fill="none" stroke="midnightblue" d="M114.184,-112.096C103.772,-99.0951 87.8861,-74.4591 99,-56 109.951,-37.8118 130.992,-26.5899 149.399,-19.9012"/>
<polygon fill="midnightblue" stroke="midnightblue" points="150.603,-23.1892 158.994,-16.72 148.401,-16.5449 150.603,-23.1892"/>
</g>
<!-- Node1&#45;&gt;Node3 -->
<g id="edge3" class="edge"><title>Node1&#45;&gt;Node3</title>
<path fill="none" stroke="midnightblue" d="M106.576,-112.324C91.4605,-103.822 68.1846,-90.7288 50.5288,-80.7975"/>
<polygon fill="midnightblue" stroke="midnightblue" points="51.8175,-77.5066 41.3858,-75.6545 48.3856,-83.6077 51.8175,-77.5066"/>
</g>
<!-- Node1&#45;&gt;Node4 -->
<g id="edge4" class="edge"><title>Node1&#45;&gt;Node4</title>
<path fill="none" stroke="midnightblue" d="M131.961,-112.324C141.127,-104.341 154.937,-92.3128 166.028,-82.6529"/>
<polygon fill="midnightblue" stroke="midnightblue" points="168.615,-85.041 173.857,-75.8339 164.018,-79.7624 168.615,-85.041"/>
</g>
<!-- Node4&#45;&gt;Node2 -->
<g id="edge5" class="edge"><title>Node4&#45;&gt;Node2</title>
<path fill="none" stroke="midnightblue" d="M184,-56.083C184,-49.0059 184,-38.8611 184,-29.9865"/>
<polygon fill="midnightblue" stroke="midnightblue" points="187.5,-29.751 184,-19.7511 180.5,-29.7511 187.5,-29.751"/>
</g>
<!-- Node5&#45;&gt;Node6 -->
<g id="edge8" class="edge"><title>Node5&#45;&gt;Node6</title>
<path fill="none" stroke="midnightblue" d="M411.95,-112.324C400.537,-104.107 383.169,-91.6017 369.565,-81.8069"/>
<polygon fill="midnightblue" stroke="midnightblue" points="371.43,-78.8366 361.269,-75.8339 367.34,-84.5174 371.43,-78.8366"/>
</g>
<!-- Node7 -->
<g id="node8" class="node"><title>Node7</title>
<polygon fill="white" stroke="#bfbfbf" points="400.5,-56.5 400.5,-75.5 447.5,-75.5 447.5,-56.5 400.5,-56.5"/>
<text text-anchor="middle" x="424" y="-63.5" font-family="Helvetica,sans-Serif" font-size="10.00">QPoint</text>
</g>
<!-- Node5&#45;&gt;Node7 -->
<g id="edge9" class="edge"><title>Node5&#45;&gt;Node7</title>
<path fill="none" stroke="midnightblue" d="M424,-112.083C424,-105.006 424,-94.8611 424,-85.9865"/>
<polygon fill="midnightblue" stroke="midnightblue" points="427.5,-85.751 424,-75.7511 420.5,-85.7511 427.5,-85.751"/>
</g>
</g>
</svg>
