<?xml version="1.0" encoding="UTF-8" standalone="no"?>
<!DOCTYPE svg PUBLIC "-//W3C//DTD SVG 1.1//EN"
 "http://www.w3.org/Graphics/SVG/1.1/DTD/svg11.dtd">
<!-- Generated by graphviz version 2.38.0 (20140413.2041)
 -->
<!-- Title: Interface/weaponinterface.hh Pages: 1 -->
<svg width="469pt" height="252pt"
 viewBox="0.00 0.00 469.00 252.00" xmlns="http://www.w3.org/2000/svg" xmlns:xlink="http://www.w3.org/1999/xlink">
<g id="graph0" class="graph" transform="scale(1 1) rotate(0) translate(4 248)">
<title>Interface/weaponinterface.hh</title>
<polygon fill="white" stroke="none" points="-4,4 -4,-248 465,-248 465,4 -4,4"/>
<!-- Node3 -->
<g id="node1" class="node"><title>Node3</title>
<polygon fill="#bfbfbf" stroke="black" points="163,-224.5 163,-243.5 303,-243.5 303,-224.5 163,-224.5"/>
<text text-anchor="middle" x="233" y="-231.5" font-family="Helvetica,sans-Serif" font-size="10.00">Interface/weaponinterface.hh</text>
</g>
<!-- Node4 -->
<g id="node2" class="node"><title>Node4</title>
<g id="a_node2"><a xlink:href="weapon_8hh.html" target="_top" xlink:title="Model/weapon.hh">
<polygon fill="white" stroke="black" points="126,-168.5 126,-187.5 218,-187.5 218,-168.5 126,-168.5"/>
<text text-anchor="middle" x="172" y="-175.5" font-family="Helvetica,sans-Serif" font-size="10.00">Model/weapon.hh</text>
</a>
</g>
</g>
<!-- Node3&#45;&gt;Node4 -->
<g id="edge1" class="edge"><title>Node3&#45;&gt;Node4</title>
<path fill="none" stroke="midnightblue" d="M215.533,-217.537C204.656,-207.909 191.056,-195.869 181.979,-187.834"/>
<polygon fill="midnightblue" stroke="midnightblue" points="213.392,-220.316 223.199,-224.324 218.032,-215.075 213.392,-220.316"/>
</g>
<!-- Node11 -->
<g id="node9" class="node"><title>Node11</title>
<g id="a_node9"><a xlink:href="headquartersui_8hh.html" target="_top" xlink:title="View/headquartersui.hh">
<polygon fill="white" stroke="black" points="236,-168.5 236,-187.5 354,-187.5 354,-168.5 236,-168.5"/>
<text text-anchor="middle" x="295" y="-175.5" font-family="Helvetica,sans-Serif" font-size="10.00">View/headquartersui.hh</text>
</a>
</g>
</g>
<!-- Node3&#45;&gt;Node11 -->
<g id="edge8" class="edge"><title>Node3&#45;&gt;Node11</title>
<path fill="none" stroke="midnightblue" d="M250.754,-217.537C261.808,-207.909 275.631,-195.869 284.857,-187.834"/>
<polygon fill="midnightblue" stroke="midnightblue" points="248.203,-215.117 242.961,-224.324 252.801,-220.395 248.203,-215.117"/>
</g>
<!-- Node5 -->
<g id="node3" class="node"><title>Node5</title>
<g id="a_node3"><a xlink:href="filemanager_8hh.html" target="_top" xlink:title="Model/filemanager.hh">
<polygon fill="white" stroke="black" points="4.5,-112.5 4.5,-131.5 113.5,-131.5 113.5,-112.5 4.5,-112.5"/>
<text text-anchor="middle" x="59" y="-119.5" font-family="Helvetica,sans-Serif" font-size="10.00">Model/filemanager.hh</text>
</a>
</g>
</g>
<!-- Node4&#45;&gt;Node5 -->
<g id="edge2" class="edge"><title>Node4&#45;&gt;Node5</title>
<path fill="none" stroke="midnightblue" d="M144.997,-164.096C123.886,-154.007 95.1385,-140.27 76.8214,-131.516"/>
<polygon fill="midnightblue" stroke="midnightblue" points="143.563,-167.29 154.095,-168.444 146.581,-160.974 143.563,-167.29"/>
</g>
<!-- Node10 -->
<g id="node8" class="node"><title>Node10</title>
<g id="a_node8"><a xlink:href="weapon_8cc.html" target="_top" xlink:title="Model/weapon.cc">
<polygon fill="white" stroke="black" points="132,-112.5 132,-131.5 224,-131.5 224,-112.5 132,-112.5"/>
<text text-anchor="middle" x="178" y="-119.5" font-family="Helvetica,sans-Serif" font-size="10.00">Model/weapon.cc</text>
</a>
</g>
</g>
<!-- Node4&#45;&gt;Node10 -->
<g id="edge7" class="edge"><title>Node4&#45;&gt;Node10</title>
<path fill="none" stroke="midnightblue" d="M174.1,-158.101C175.096,-149.136 176.238,-138.858 177.028,-131.751"/>
<polygon fill="midnightblue" stroke="midnightblue" points="170.617,-157.758 172.991,-168.083 177.574,-158.531 170.617,-157.758"/>
</g>
<!-- Node6 -->
<g id="node4" class="node"><title>Node6</title>
<g id="a_node4"><a xlink:href="model_8hh.html" target="_top" xlink:title="Model/model.hh">
<polygon fill="white" stroke="black" points="0,-56.5 0,-75.5 86,-75.5 86,-56.5 0,-56.5"/>
<text text-anchor="middle" x="43" y="-63.5" font-family="Helvetica,sans-Serif" font-size="10.00">Model/model.hh</text>
</a>
</g>
</g>
<!-- Node5&#45;&gt;Node6 -->
<g id="edge3" class="edge"><title>Node5&#45;&gt;Node6</title>
<path fill="none" stroke="midnightblue" d="M53.4876,-102.396C50.811,-93.362 47.7218,-82.936 45.5929,-75.7511"/>
<polygon fill="midnightblue" stroke="midnightblue" points="50.1612,-103.489 56.3579,-112.083 56.8728,-101.501 50.1612,-103.489"/>
</g>
<!-- Node9 -->
<g id="node7" class="node"><title>Node9</title>
<g id="a_node7"><a xlink:href="filemanager_8cc.html" target="_top" xlink:title="Model/filemanager.cc">
<polygon fill="white" stroke="black" points="104.5,-56.5 104.5,-75.5 213.5,-75.5 213.5,-56.5 104.5,-56.5"/>
<text text-anchor="middle" x="159" y="-63.5" font-family="Helvetica,sans-Serif" font-size="10.00">Model/filemanager.cc</text>
</a>
</g>
</g>
<!-- Node5&#45;&gt;Node9 -->
<g id="edge6" class="edge"><title>Node5&#45;&gt;Node9</title>
<path fill="none" stroke="midnightblue" d="M84.0878,-107.453C102.549,-97.4835 127.097,-84.2279 142.973,-75.6545"/>
<polygon fill="midnightblue" stroke="midnightblue" points="82.2028,-104.493 75.0667,-112.324 85.5288,-110.652 82.2028,-104.493"/>
</g>
<!-- Node7 -->
<g id="node5" class="node"><title>Node7</title>
<g id="a_node5"><a xlink:href="main_8cc.html" target="_top" xlink:title="main.cc">
<polygon fill="white" stroke="black" points="160.5,-0.5 160.5,-19.5 211.5,-19.5 211.5,-0.5 160.5,-0.5"/>
<text text-anchor="middle" x="186" y="-7.5" font-family="Helvetica,sans-Serif" font-size="10.00">main.cc</text>
</a>
</g>
</g>
<!-- Node6&#45;&gt;Node7 -->
<g id="edge4" class="edge"><title>Node6&#45;&gt;Node7</title>
<path fill="none" stroke="midnightblue" d="M75.0272,-52.9058C101.912,-42.7536 139.641,-28.5063 163.447,-19.5164"/>
<polygon fill="midnightblue" stroke="midnightblue" points="73.7775,-49.6364 65.6588,-56.4435 76.2505,-56.1851 73.7775,-49.6364"/>
</g>
<!-- Node8 -->
<g id="node6" class="node"><title>Node8</title>
<g id="a_node6"><a xlink:href="model_8cc.html" target="_top" xlink:title="Model/model.cc">
<polygon fill="white" stroke="black" points="0,-0.5 0,-19.5 86,-19.5 86,-0.5 0,-0.5"/>
<text text-anchor="middle" x="43" y="-7.5" font-family="Helvetica,sans-Serif" font-size="10.00">Model/model.cc</text>
</a>
</g>
</g>
<!-- Node6&#45;&gt;Node8 -->
<g id="edge5" class="edge"><title>Node6&#45;&gt;Node8</title>
<path fill="none" stroke="midnightblue" d="M43,-45.8045C43,-36.9102 43,-26.7798 43,-19.7511"/>
<polygon fill="midnightblue" stroke="midnightblue" points="39.5001,-46.083 43,-56.083 46.5001,-46.083 39.5001,-46.083"/>
</g>
<!-- Node12 -->
<g id="node10" class="node"><title>Node12</title>
<g id="a_node10"><a xlink:href="view_8hh.html" target="_top" xlink:title="View/view.hh">
<polygon fill="white" stroke="black" points="253,-112.5 253,-131.5 325,-131.5 325,-112.5 253,-112.5"/>
<text text-anchor="middle" x="289" y="-119.5" font-family="Helvetica,sans-Serif" font-size="10.00">View/view.hh</text>
</a>
</g>
</g>
<!-- Node11&#45;&gt;Node12 -->
<g id="edge9" class="edge"><title>Node11&#45;&gt;Node12</title>
<path fill="none" stroke="midnightblue" d="M292.9,-158.101C291.904,-149.136 290.762,-138.858 289.972,-131.751"/>
<polygon fill="midnightblue" stroke="midnightblue" points="289.426,-158.531 294.009,-168.083 296.383,-157.758 289.426,-158.531"/>
</g>
<!-- Node14 -->
<g id="node12" class="node"><title>Node14</title>
<g id="a_node12"><a xlink:href="headquartersui_8cc.html" target="_top" xlink:title="View/headquartersui.cc">
<polygon fill="white" stroke="black" points="343,-112.5 343,-131.5 461,-131.5 461,-112.5 343,-112.5"/>
<text text-anchor="middle" x="402" y="-119.5" font-family="Helvetica,sans-Serif" font-size="10.00">View/headquartersui.cc</text>
</a>
</g>
</g>
<!-- Node11&#45;&gt;Node14 -->
<g id="edge12" class="edge"><title>Node11&#45;&gt;Node14</title>
<path fill="none" stroke="midnightblue" d="M321.302,-163.726C341.115,-153.727 367.707,-140.307 384.851,-131.655"/>
<polygon fill="midnightblue" stroke="midnightblue" points="319.542,-160.694 312.191,-168.324 322.696,-166.943 319.542,-160.694"/>
</g>
<!-- Node12&#45;&gt;Node7 -->
<g id="edge10" class="edge"><title>Node12&#45;&gt;Node7</title>
<path fill="none" stroke="midnightblue" d="M273.921,-104.897C251.778,-81.2486 211.234,-37.9493 194.045,-19.5914"/>
<polygon fill="midnightblue" stroke="midnightblue" points="271.528,-107.461 280.918,-112.368 276.638,-102.677 271.528,-107.461"/>
</g>
<!-- Node13 -->
<g id="node11" class="node"><title>Node13</title>
<g id="a_node11"><a xlink:href="view_8cc.html" target="_top" xlink:title="View/view.cc">
<polygon fill="white" stroke="black" points="270,-56.5 270,-75.5 342,-75.5 342,-56.5 270,-56.5"/>
<text text-anchor="middle" x="306" y="-63.5" font-family="Helvetica,sans-Serif" font-size="10.00">View/view.cc</text>
</a>
</g>
</g>
<!-- Node12&#45;&gt;Node13 -->
<g id="edge11" class="edge"><title>Node12&#45;&gt;Node13</title>
<path fill="none" stroke="midnightblue" d="M294.857,-102.396C297.701,-93.362 300.983,-82.936 303.245,-75.7511"/>
<polygon fill="midnightblue" stroke="midnightblue" points="291.472,-101.493 291.807,-112.083 298.149,-103.596 291.472,-101.493"/>
</g>
</g>
</svg>
