<?xml version="1.0" encoding="UTF-8" standalone="no"?>
<!DOCTYPE svg PUBLIC "-//W3C//DTD SVG 1.1//EN"
 "http://www.w3.org/Graphics/SVG/1.1/DTD/svg11.dtd">
<!-- Generated by graphviz version 2.38.0 (20140413.2041)
 -->
<!-- Title: Model/weapon.hh Pages: 1 -->
<svg width="300pt" height="196pt"
 viewBox="0.00 0.00 299.50 196.00" xmlns="http://www.w3.org/2000/svg" xmlns:xlink="http://www.w3.org/1999/xlink">
<g id="graph0" class="graph" transform="scale(1 1) rotate(0) translate(4 192)">
<title>Model/weapon.hh</title>
<polygon fill="white" stroke="none" points="-4,4 -4,-192 295.5,-192 295.5,4 -4,4"/>
<!-- Node4 -->
<g id="node1" class="node"><title>Node4</title>
<polygon fill="#bfbfbf" stroke="black" points="139.5,-168.5 139.5,-187.5 231.5,-187.5 231.5,-168.5 139.5,-168.5"/>
<text text-anchor="middle" x="185.5" y="-175.5" font-family="Helvetica,sans-Serif" font-size="10.00">Model/weapon.hh</text>
</g>
<!-- Node5 -->
<g id="node2" class="node"><title>Node5</title>
<g id="a_node2"><a xlink:href="filemanager_8hh.html" target="_top" xlink:title="Model/filemanager.hh">
<polygon fill="white" stroke="black" points="72,-112.5 72,-131.5 181,-131.5 181,-112.5 72,-112.5"/>
<text text-anchor="middle" x="126.5" y="-119.5" font-family="Helvetica,sans-Serif" font-size="10.00">Model/filemanager.hh</text>
</a>
</g>
</g>
<!-- Node4&#45;&gt;Node5 -->
<g id="edge1" class="edge"><title>Node4&#45;&gt;Node5</title>
<path fill="none" stroke="midnightblue" d="M168.605,-161.537C158.085,-151.909 144.931,-139.869 136.152,-131.834"/>
<polygon fill="midnightblue" stroke="midnightblue" points="166.281,-164.154 176.021,-168.324 171.007,-158.99 166.281,-164.154"/>
</g>
<!-- Node10 -->
<g id="node7" class="node"><title>Node10</title>
<g id="a_node7"><a xlink:href="weapon_8cc.html" target="_top" xlink:title="Model/weapon.cc">
<polygon fill="white" stroke="black" points="199.5,-112.5 199.5,-131.5 291.5,-131.5 291.5,-112.5 199.5,-112.5"/>
<text text-anchor="middle" x="245.5" y="-119.5" font-family="Helvetica,sans-Serif" font-size="10.00">Model/weapon.cc</text>
</a>
</g>
</g>
<!-- Node4&#45;&gt;Node10 -->
<g id="edge6" class="edge"><title>Node4&#45;&gt;Node10</title>
<path fill="none" stroke="midnightblue" d="M202.681,-161.537C213.379,-151.909 226.756,-139.869 235.685,-131.834"/>
<polygon fill="midnightblue" stroke="midnightblue" points="200.232,-159.033 195.14,-168.324 204.914,-164.236 200.232,-159.033"/>
</g>
<!-- Node6 -->
<g id="node3" class="node"><title>Node6</title>
<g id="a_node3"><a xlink:href="model_8hh.html" target="_top" xlink:title="Model/model.hh">
<polygon fill="white" stroke="black" points="25.5,-56.5 25.5,-75.5 111.5,-75.5 111.5,-56.5 25.5,-56.5"/>
<text text-anchor="middle" x="68.5" y="-63.5" font-family="Helvetica,sans-Serif" font-size="10.00">Model/model.hh</text>
</a>
</g>
</g>
<!-- Node5&#45;&gt;Node6 -->
<g id="edge2" class="edge"><title>Node5&#45;&gt;Node6</title>
<path fill="none" stroke="midnightblue" d="M109.587,-105.253C99.297,-95.6731 86.5343,-83.7906 77.9883,-75.8339"/>
<polygon fill="midnightblue" stroke="midnightblue" points="107.477,-108.071 117.181,-112.324 112.247,-102.948 107.477,-108.071"/>
</g>
<!-- Node9 -->
<g id="node6" class="node"><title>Node9</title>
<g id="a_node6"><a xlink:href="filemanager_8cc.html" target="_top" xlink:title="Model/filemanager.cc">
<polygon fill="white" stroke="black" points="130,-56.5 130,-75.5 239,-75.5 239,-56.5 130,-56.5"/>
<text text-anchor="middle" x="184.5" y="-63.5" font-family="Helvetica,sans-Serif" font-size="10.00">Model/filemanager.cc</text>
</a>
</g>
</g>
<!-- Node5&#45;&gt;Node9 -->
<g id="edge5" class="edge"><title>Node5&#45;&gt;Node9</title>
<path fill="none" stroke="midnightblue" d="M143.413,-105.253C153.703,-95.6731 166.466,-83.7906 175.012,-75.8339"/>
<polygon fill="midnightblue" stroke="midnightblue" points="140.753,-102.948 135.819,-112.324 145.523,-108.071 140.753,-102.948"/>
</g>
<!-- Node7 -->
<g id="node4" class="node"><title>Node7</title>
<g id="a_node4"><a xlink:href="main_8cc.html" target="_top" xlink:title="main.cc">
<polygon fill="white" stroke="black" points="0,-0.5 0,-19.5 51,-19.5 51,-0.5 0,-0.5"/>
<text text-anchor="middle" x="25.5" y="-7.5" font-family="Helvetica,sans-Serif" font-size="10.00">main.cc</text>
</a>
</g>
</g>
<!-- Node6&#45;&gt;Node7 -->
<g id="edge3" class="edge"><title>Node6&#45;&gt;Node7</title>
<path fill="none" stroke="midnightblue" d="M55.0776,-48.144C47.5858,-38.7357 38.5629,-27.4046 32.4685,-19.7511"/>
<polygon fill="midnightblue" stroke="midnightblue" points="52.4321,-50.4404 61.3994,-56.083 57.9081,-46.0799 52.4321,-50.4404"/>
</g>
<!-- Node8 -->
<g id="node5" class="node"><title>Node8</title>
<g id="a_node5"><a xlink:href="model_8cc.html" target="_top" xlink:title="Model/model.cc">
<polygon fill="white" stroke="black" points="69.5,-0.5 69.5,-19.5 155.5,-19.5 155.5,-0.5 69.5,-0.5"/>
<text text-anchor="middle" x="112.5" y="-7.5" font-family="Helvetica,sans-Serif" font-size="10.00">Model/model.cc</text>
</a>
</g>
</g>
<!-- Node6&#45;&gt;Node8 -->
<g id="edge4" class="edge"><title>Node6&#45;&gt;Node8</title>
<path fill="none" stroke="midnightblue" d="M82.2345,-48.144C89.9005,-38.7357 99.1333,-27.4046 105.369,-19.7511"/>
<polygon fill="midnightblue" stroke="midnightblue" points="79.3691,-46.1198 75.7657,-56.083 84.7958,-50.5415 79.3691,-46.1198"/>
</g>
</g>
</svg>
