<?xml version="1.0" encoding="UTF-8" standalone="no"?>
<!DOCTYPE svg PUBLIC "-//W3C//DTD SVG 1.1//EN"
 "http://www.w3.org/Graphics/SVG/1.1/DTD/svg11.dtd">
<!-- Generated by graphviz version 2.38.0 (20140413.2041)
 -->
<!-- Title: Model/xmlparkingdatareader.hh Pages: 1 -->
<svg width="520pt" height="196pt"
 viewBox="0.00 0.00 519.50 196.00" xmlns="http://www.w3.org/2000/svg" xmlns:xlink="http://www.w3.org/1999/xlink">
<g id="graph0" class="graph" transform="scale(1 1) rotate(0) translate(4 192)">
<title>Model/xmlparkingdatareader.hh</title>
<polygon fill="white" stroke="none" points="-4,4 -4,-192 515.5,-192 515.5,4 -4,4"/>
<!-- Node0 -->
<g id="node1" class="node"><title>Node0</title>
<polygon fill="#bfbfbf" stroke="black" points="182,-168.5 182,-187.5 334,-187.5 334,-168.5 182,-168.5"/>
<text text-anchor="middle" x="258" y="-175.5" font-family="Helvetica,sans-Serif" font-size="10.00">Model/xmlparkingdatareader.hh</text>
</g>
<!-- Node1 -->
<g id="node2" class="node"><title>Node1</title>
<polygon fill="white" stroke="#bfbfbf" points="0,-112.5 0,-131.5 102,-131.5 102,-112.5 0,-112.5"/>
<text text-anchor="middle" x="51" y="-119.5" font-family="Helvetica,sans-Serif" font-size="10.00">QXmlStreamReader</text>
</g>
<!-- Node0&#45;&gt;Node1 -->
<g id="edge1" class="edge"><title>Node0&#45;&gt;Node1</title>
<path fill="none" stroke="midnightblue" d="M225.2,-168.444C189.62,-159.162 132.686,-144.309 93.6534,-134.127"/>
<polygon fill="midnightblue" stroke="midnightblue" points="94.206,-130.654 83.6463,-131.516 92.439,-137.427 94.206,-130.654"/>
</g>
<!-- Node2 -->
<g id="node3" class="node"><title>Node2</title>
<polygon fill="white" stroke="#bfbfbf" points="120,-112.5 120,-131.5 182,-131.5 182,-112.5 120,-112.5"/>
<text text-anchor="middle" x="151" y="-119.5" font-family="Helvetica,sans-Serif" font-size="10.00">QIODevice</text>
</g>
<!-- Node0&#45;&gt;Node2 -->
<g id="edge2" class="edge"><title>Node0&#45;&gt;Node2</title>
<path fill="none" stroke="midnightblue" d="M240.809,-168.324C223.649,-159.664 197.054,-146.242 177.253,-136.249"/>
<polygon fill="midnightblue" stroke="midnightblue" points="178.653,-133.035 168.149,-131.655 175.499,-139.285 178.653,-133.035"/>
</g>
<!-- Node3 -->
<g id="node4" class="node"><title>Node3</title>
<polygon fill="white" stroke="#bfbfbf" points="200,-112.5 200,-131.5 254,-131.5 254,-112.5 200,-112.5"/>
<text text-anchor="middle" x="227" y="-119.5" font-family="Helvetica,sans-Serif" font-size="10.00">iostream</text>
</g>
<!-- Node0&#45;&gt;Node3 -->
<g id="edge3" class="edge"><title>Node0&#45;&gt;Node3</title>
<path fill="none" stroke="midnightblue" d="M252.881,-168.083C248.592,-160.613 242.342,-149.724 237.058,-140.52"/>
<polygon fill="midnightblue" stroke="midnightblue" points="240.038,-138.681 232.024,-131.751 233.967,-142.166 240.038,-138.681"/>
</g>
<!-- Node4 -->
<g id="node5" class="node"><title>Node4</title>
<polygon fill="white" stroke="#bfbfbf" points="272.5,-112.5 272.5,-131.5 307.5,-131.5 307.5,-112.5 272.5,-112.5"/>
<text text-anchor="middle" x="290" y="-119.5" font-family="Helvetica,sans-Serif" font-size="10.00">map</text>
</g>
<!-- Node0&#45;&gt;Node4 -->
<g id="edge4" class="edge"><title>Node0&#45;&gt;Node4</title>
<path fill="none" stroke="midnightblue" d="M263.284,-168.083C267.711,-160.613 274.163,-149.724 279.618,-140.52"/>
<polygon fill="midnightblue" stroke="midnightblue" points="282.727,-142.138 284.814,-131.751 276.705,-138.57 282.727,-142.138"/>
</g>
<!-- Node5 -->
<g id="node6" class="node"><title>Node5</title>
<polygon fill="white" stroke="#bfbfbf" points="326,-112.5 326,-131.5 378,-131.5 378,-112.5 326,-112.5"/>
<text text-anchor="middle" x="352" y="-119.5" font-family="Helvetica,sans-Serif" font-size="10.00">memory</text>
</g>
<!-- Node0&#45;&gt;Node5 -->
<g id="edge5" class="edge"><title>Node0&#45;&gt;Node5</title>
<path fill="none" stroke="midnightblue" d="M273.103,-168.324C287.903,-159.822 310.694,-146.729 327.982,-136.797"/>
<polygon fill="midnightblue" stroke="midnightblue" points="330.007,-139.671 336.935,-131.655 326.52,-133.601 330.007,-139.671"/>
</g>
<!-- Node6 -->
<g id="node7" class="node"><title>Node6</title>
<g id="a_node7"><a xlink:href="parkinghall_8hh.html" target="_top" xlink:title="parkinghall.hh">
<polygon fill="white" stroke="black" points="396.5,-112.5 396.5,-131.5 473.5,-131.5 473.5,-112.5 396.5,-112.5"/>
<text text-anchor="middle" x="435" y="-119.5" font-family="Helvetica,sans-Serif" font-size="10.00">parkinghall.hh</text>
</a>
</g>
</g>
<!-- Node0&#45;&gt;Node6 -->
<g id="edge6" class="edge"><title>Node0&#45;&gt;Node6</title>
<path fill="none" stroke="midnightblue" d="M286.046,-168.444C316.082,-159.28 363.913,-144.688 397.243,-134.519"/>
<polygon fill="midnightblue" stroke="midnightblue" points="398.542,-137.782 407.085,-131.516 396.499,-131.087 398.542,-137.782"/>
</g>
<!-- Node7 -->
<g id="node8" class="node"><title>Node7</title>
<g id="a_node8"><a xlink:href="parkinghallinterface_8hh.html" target="_top" xlink:title="Interface/parkinghallinterface.hh">
<polygon fill="white" stroke="black" points="358.5,-56.5 358.5,-75.5 511.5,-75.5 511.5,-56.5 358.5,-56.5"/>
<text text-anchor="middle" x="435" y="-63.5" font-family="Helvetica,sans-Serif" font-size="10.00">Interface/parkinghallinterface.hh</text>
</a>
</g>
</g>
<!-- Node6&#45;&gt;Node7 -->
<g id="edge7" class="edge"><title>Node6&#45;&gt;Node7</title>
<path fill="none" stroke="midnightblue" d="M435,-112.083C435,-105.006 435,-94.8611 435,-85.9865"/>
<polygon fill="midnightblue" stroke="midnightblue" points="438.5,-85.751 435,-75.7511 431.5,-85.7511 438.5,-85.751"/>
</g>
<!-- Node8 -->
<g id="node9" class="node"><title>Node8</title>
<polygon fill="white" stroke="#bfbfbf" points="410,-0.5 410,-19.5 460,-19.5 460,-0.5 410,-0.5"/>
<text text-anchor="middle" x="435" y="-7.5" font-family="Helvetica,sans-Serif" font-size="10.00">QString</text>
</g>
<!-- Node7&#45;&gt;Node8 -->
<g id="edge8" class="edge"><title>Node7&#45;&gt;Node8</title>
<path fill="none" stroke="midnightblue" d="M435,-56.083C435,-49.0059 435,-38.8611 435,-29.9865"/>
<polygon fill="midnightblue" stroke="midnightblue" points="438.5,-29.751 435,-19.7511 431.5,-29.7511 438.5,-29.751"/>
</g>
</g>
</svg>
