<?xml version="1.0" encoding="UTF-8" standalone="no"?>
<!DOCTYPE svg PUBLIC "-//W3C//DTD SVG 1.1//EN"
 "http://www.w3.org/Graphics/SVG/1.1/DTD/svg11.dtd">
<!-- Generated by graphviz version 2.38.0 (20140413.2041)
 -->
<!-- Title: Model/xmlparkingdatareader.cc Pages: 1 -->
<svg width="520pt" height="252pt"
 viewBox="0.00 0.00 519.50 252.00" xmlns="http://www.w3.org/2000/svg" xmlns:xlink="http://www.w3.org/1999/xlink">
<g id="graph0" class="graph" transform="scale(1 1) rotate(0) translate(4 248)">
<title>Model/xmlparkingdatareader.cc</title>
<polygon fill="white" stroke="none" points="-4,4 -4,-248 515.5,-248 515.5,4 -4,4"/>
<!-- Node0 -->
<g id="node1" class="node"><title>Node0</title>
<polygon fill="#bfbfbf" stroke="black" points="130,-224.5 130,-243.5 282,-243.5 282,-224.5 130,-224.5"/>
<text text-anchor="middle" x="206" y="-231.5" font-family="Helvetica,sans-Serif" font-size="10.00">Model/xmlparkingdatareader.cc</text>
</g>
<!-- Node1 -->
<g id="node2" class="node"><title>Node1</title>
<polygon fill="white" stroke="#bfbfbf" points="127,-168.5 127,-187.5 179,-187.5 179,-168.5 127,-168.5"/>
<text text-anchor="middle" x="153" y="-175.5" font-family="Helvetica,sans-Serif" font-size="10.00">QDebug</text>
</g>
<!-- Node0&#45;&gt;Node1 -->
<g id="edge1" class="edge"><title>Node0&#45;&gt;Node1</title>
<path fill="none" stroke="midnightblue" d="M197.248,-224.083C189.53,-216.22 178.095,-204.569 168.783,-195.081"/>
<polygon fill="midnightblue" stroke="midnightblue" points="171.092,-192.436 161.589,-187.751 166.096,-197.34 171.092,-192.436"/>
</g>
<!-- Node2 -->
<g id="node3" class="node"><title>Node2</title>
<g id="a_node3"><a xlink:href="xmlparkingdatareader_8hh.html" target="_top" xlink:title="xmlparkingdatareader.hh">
<polygon fill="white" stroke="black" points="197.5,-168.5 197.5,-187.5 320.5,-187.5 320.5,-168.5 197.5,-168.5"/>
<text text-anchor="middle" x="259" y="-175.5" font-family="Helvetica,sans-Serif" font-size="10.00">xmlparkingdatareader.hh</text>
</a>
</g>
</g>
<!-- Node0&#45;&gt;Node2 -->
<g id="edge2" class="edge"><title>Node0&#45;&gt;Node2</title>
<path fill="none" stroke="midnightblue" d="M214.752,-224.083C222.47,-216.22 233.905,-204.569 243.217,-195.081"/>
<polygon fill="midnightblue" stroke="midnightblue" points="245.904,-197.34 250.411,-187.751 240.908,-192.436 245.904,-197.34"/>
</g>
<!-- Node3 -->
<g id="node4" class="node"><title>Node3</title>
<polygon fill="white" stroke="#bfbfbf" points="0,-112.5 0,-131.5 102,-131.5 102,-112.5 0,-112.5"/>
<text text-anchor="middle" x="51" y="-119.5" font-family="Helvetica,sans-Serif" font-size="10.00">QXmlStreamReader</text>
</g>
<!-- Node2&#45;&gt;Node3 -->
<g id="edge3" class="edge"><title>Node2&#45;&gt;Node3</title>
<path fill="none" stroke="midnightblue" d="M226.042,-168.444C190.213,-159.142 132.837,-144.246 93.6093,-134.062"/>
<polygon fill="midnightblue" stroke="midnightblue" points="94.3627,-130.642 83.804,-131.516 92.6036,-137.417 94.3627,-130.642"/>
</g>
<!-- Node4 -->
<g id="node5" class="node"><title>Node4</title>
<polygon fill="white" stroke="#bfbfbf" points="120,-112.5 120,-131.5 182,-131.5 182,-112.5 120,-112.5"/>
<text text-anchor="middle" x="151" y="-119.5" font-family="Helvetica,sans-Serif" font-size="10.00">QIODevice</text>
</g>
<!-- Node2&#45;&gt;Node4 -->
<g id="edge4" class="edge"><title>Node2&#45;&gt;Node4</title>
<path fill="none" stroke="midnightblue" d="M241.648,-168.324C224.328,-159.664 197.485,-146.242 177.498,-136.249"/>
<polygon fill="midnightblue" stroke="midnightblue" points="178.819,-132.996 168.309,-131.655 175.688,-139.257 178.819,-132.996"/>
</g>
<!-- Node5 -->
<g id="node6" class="node"><title>Node5</title>
<polygon fill="white" stroke="#bfbfbf" points="200,-112.5 200,-131.5 254,-131.5 254,-112.5 200,-112.5"/>
<text text-anchor="middle" x="227" y="-119.5" font-family="Helvetica,sans-Serif" font-size="10.00">iostream</text>
</g>
<!-- Node2&#45;&gt;Node5 -->
<g id="edge5" class="edge"><title>Node2&#45;&gt;Node5</title>
<path fill="none" stroke="midnightblue" d="M253.716,-168.083C249.289,-160.613 242.837,-149.724 237.382,-140.52"/>
<polygon fill="midnightblue" stroke="midnightblue" points="240.295,-138.57 232.186,-131.751 234.273,-142.138 240.295,-138.57"/>
</g>
<!-- Node6 -->
<g id="node7" class="node"><title>Node6</title>
<polygon fill="white" stroke="#bfbfbf" points="272.5,-112.5 272.5,-131.5 307.5,-131.5 307.5,-112.5 272.5,-112.5"/>
<text text-anchor="middle" x="290" y="-119.5" font-family="Helvetica,sans-Serif" font-size="10.00">map</text>
</g>
<!-- Node2&#45;&gt;Node6 -->
<g id="edge6" class="edge"><title>Node2&#45;&gt;Node6</title>
<path fill="none" stroke="midnightblue" d="M264.119,-168.083C268.408,-160.613 274.658,-149.724 279.942,-140.52"/>
<polygon fill="midnightblue" stroke="midnightblue" points="283.033,-142.166 284.976,-131.751 276.962,-138.681 283.033,-142.166"/>
</g>
<!-- Node7 -->
<g id="node8" class="node"><title>Node7</title>
<polygon fill="white" stroke="#bfbfbf" points="326,-112.5 326,-131.5 378,-131.5 378,-112.5 326,-112.5"/>
<text text-anchor="middle" x="352" y="-119.5" font-family="Helvetica,sans-Serif" font-size="10.00">memory</text>
</g>
<!-- Node2&#45;&gt;Node7 -->
<g id="edge7" class="edge"><title>Node2&#45;&gt;Node7</title>
<path fill="none" stroke="midnightblue" d="M273.942,-168.324C288.585,-159.822 311.134,-146.729 328.238,-136.797"/>
<polygon fill="midnightblue" stroke="midnightblue" points="330.205,-139.703 337.095,-131.655 326.69,-133.649 330.205,-139.703"/>
</g>
<!-- Node8 -->
<g id="node9" class="node"><title>Node8</title>
<g id="a_node9"><a xlink:href="parkinghall_8hh.html" target="_top" xlink:title="parkinghall.hh">
<polygon fill="white" stroke="black" points="396.5,-112.5 396.5,-131.5 473.5,-131.5 473.5,-112.5 396.5,-112.5"/>
<text text-anchor="middle" x="435" y="-119.5" font-family="Helvetica,sans-Serif" font-size="10.00">parkinghall.hh</text>
</a>
</g>
</g>
<!-- Node2&#45;&gt;Node8 -->
<g id="edge8" class="edge"><title>Node2&#45;&gt;Node8</title>
<path fill="none" stroke="midnightblue" d="M286.888,-168.444C316.754,-159.28 364.315,-144.688 397.456,-134.519"/>
<polygon fill="midnightblue" stroke="midnightblue" points="398.709,-137.796 407.243,-131.516 396.656,-131.104 398.709,-137.796"/>
</g>
<!-- Node9 -->
<g id="node10" class="node"><title>Node9</title>
<g id="a_node10"><a xlink:href="parkinghallinterface_8hh.html" target="_top" xlink:title="Interface/parkinghallinterface.hh">
<polygon fill="white" stroke="black" points="358.5,-56.5 358.5,-75.5 511.5,-75.5 511.5,-56.5 358.5,-56.5"/>
<text text-anchor="middle" x="435" y="-63.5" font-family="Helvetica,sans-Serif" font-size="10.00">Interface/parkinghallinterface.hh</text>
</a>
</g>
</g>
<!-- Node8&#45;&gt;Node9 -->
<g id="edge9" class="edge"><title>Node8&#45;&gt;Node9</title>
<path fill="none" stroke="midnightblue" d="M435,-112.083C435,-105.006 435,-94.8611 435,-85.9865"/>
<polygon fill="midnightblue" stroke="midnightblue" points="438.5,-85.751 435,-75.7511 431.5,-85.7511 438.5,-85.751"/>
</g>
<!-- Node10 -->
<g id="node11" class="node"><title>Node10</title>
<polygon fill="white" stroke="#bfbfbf" points="410,-0.5 410,-19.5 460,-19.5 460,-0.5 410,-0.5"/>
<text text-anchor="middle" x="435" y="-7.5" font-family="Helvetica,sans-Serif" font-size="10.00">QString</text>
</g>
<!-- Node9&#45;&gt;Node10 -->
<g id="edge10" class="edge"><title>Node9&#45;&gt;Node10</title>
<path fill="none" stroke="midnightblue" d="M435,-56.083C435,-49.0059 435,-38.8611 435,-29.9865"/>
<polygon fill="midnightblue" stroke="midnightblue" points="438.5,-29.751 435,-19.7511 431.5,-29.7511 438.5,-29.751"/>
</g>
</g>
</svg>
